<?xml version="1.0" encoding="UTF-8" standalone="no"?>
<!DOCTYPE svg PUBLIC "-//W3C//DTD SVG 1.1//EN"
 "http://www.w3.org/Graphics/SVG/1.1/DTD/svg11.dtd">
<!-- Generated by graphviz version 2.36.0 (20140111.2315)
 -->
<!-- Title: Voxel::CameraSystem::addDepthCameraFactory Pages: 1 -->
<svg width="596pt" height="38pt"
 viewBox="0.00 0.00 596.00 38.00" xmlns="http://www.w3.org/2000/svg" xmlns:xlink="http://www.w3.org/1999/xlink">
<g id="graph0" class="graph" transform="scale(1 1) rotate(0) translate(4 34)">
<title>Voxel::CameraSystem::addDepthCameraFactory</title>
<!-- Node1 -->
<g id="node1" class="node"><title>Node1</title>
<polygon fill="#bfbfbf" stroke="black" points="0,-0 0,-30 132,-30 132,-0 0,-0"/>
<text text-anchor="start" x="8" y="-18" font-family="Helvetica,sans-Serif" font-size="10.00">Voxel::CameraSystem</text>
<text text-anchor="middle" x="66" y="-7" font-family="Helvetica,sans-Serif" font-size="10.00">::addDepthCameraFactory</text>
</g>
<!-- Node2 -->
<g id="node2" class="node"><title>Node2</title>
<g id="a_node2"><a xlink:href="a00023.xhtml#a5726264107cd83d943d7c0fb7a792705" target="_top" xlink:title="Voxel::CameraSystem\l::_loadLibraries">
<polygon fill="none" stroke="black" points="168,-0 168,-30 284,-30 284,-0 168,-0"/>
<text text-anchor="start" x="176" y="-18" font-family="Helvetica,sans-Serif" font-size="10.00">Voxel::CameraSystem</text>
<text text-anchor="middle" x="226" y="-7" font-family="Helvetica,sans-Serif" font-size="10.00">::_loadLibraries</text>
</a>
</g>
</g>
<!-- Node1&#45;&gt;Node2 -->
<g id="edge1" class="edge"><title>Node1&#45;&gt;Node2</title>
<path fill="none" stroke="midnightblue" d="M142.429,-15C150.877,-15 159.38,-15 167.55,-15"/>
<polygon fill="midnightblue" stroke="midnightblue" points="142.177,-11.5001 132.177,-15 142.177,-18.5001 142.177,-11.5001"/>
</g>
<!-- Node3 -->
<g id="node3" class="node"><title>Node3</title>
<g id="a_node3"><a xlink:href="a00023.xhtml#aacbfc55e4928ea6ccfb55a308345c425" target="_top" xlink:title="Voxel::CameraSystem\l::_init">
<polygon fill="none" stroke="black" points="320,-0 320,-30 436,-30 436,-0 320,-0"/>
<text text-anchor="start" x="328" y="-18" font-family="Helvetica,sans-Serif" font-size="10.00">Voxel::CameraSystem</text>
<text text-anchor="middle" x="378" y="-7" font-family="Helvetica,sans-Serif" font-size="10.00">::_init</text>
</a>
</g>
</g>
<!-- Node2&#45;&gt;Node3 -->
<g id="edge2" class="edge"><title>Node2&#45;&gt;Node3</title>
<path fill="none" stroke="midnightblue" d="M294.311,-15C302.728,-15 311.277,-15 319.525,-15"/>
<polygon fill="midnightblue" stroke="midnightblue" points="294.137,-11.5001 284.136,-15 294.136,-18.5001 294.137,-11.5001"/>
</g>
<!-- Node4 -->
<g id="node4" class="node"><title>Node4</title>
<g id="a_node4"><a xlink:href="a00023.xhtml#a08b33ae635abd444dd482568bbbe10f2" target="_top" xlink:title="Voxel::CameraSystem\l::CameraSystem">
<polygon fill="none" stroke="black" points="472,-0 472,-30 588,-30 588,-0 472,-0"/>
<text text-anchor="start" x="480" y="-18" font-family="Helvetica,sans-Serif" font-size="10.00">Voxel::CameraSystem</text>
<text text-anchor="middle" x="530" y="-7" font-family="Helvetica,sans-Serif" font-size="10.00">::CameraSystem</text>
</a>
</g>
</g>
<!-- Node3&#45;&gt;Node4 -->
<g id="edge3" class="edge"><title>Node3&#45;&gt;Node4</title>
<path fill="none" stroke="midnightblue" d="M446.311,-15C454.728,-15 463.277,-15 471.525,-15"/>
<polygon fill="midnightblue" stroke="midnightblue" points="446.137,-11.5001 436.136,-15 446.136,-18.5001 446.137,-11.5001"/>
</g>
</g>
</svg>
