<?xml version="1.0" encoding="UTF-8" standalone="no"?>
<!DOCTYPE svg PUBLIC "-//W3C//DTD SVG 1.1//EN"
 "http://www.w3.org/Graphics/SVG/1.1/DTD/svg11.dtd">
<!-- Generated by graphviz version 2.36.0 (20140111.2315)
 -->
<!-- Title: Voxel::FrameStreamReader::_readConfigPacket Pages: 1 -->
<svg width="668pt" height="77pt"
 viewBox="0.00 0.00 668.00 77.00" xmlns="http://www.w3.org/2000/svg" xmlns:xlink="http://www.w3.org/1999/xlink">
<g id="graph0" class="graph" transform="scale(1 1) rotate(0) translate(4 73)">
<title>Voxel::FrameStreamReader::_readConfigPacket</title>
<!-- Node1 -->
<g id="node1" class="node"><title>Node1</title>
<polygon fill="#bfbfbf" stroke="black" points="0,-22 0,-52 138,-52 138,-22 0,-22"/>
<text text-anchor="start" x="8" y="-40" font-family="Helvetica,sans-Serif" font-size="10.00">Voxel::FrameStreamReader</text>
<text text-anchor="middle" x="69" y="-29" font-family="Helvetica,sans-Serif" font-size="10.00">::_readConfigPacket</text>
</g>
<!-- Node2 -->
<g id="node2" class="node"><title>Node2</title>
<g id="a_node2"><a xlink:href="a00074.xhtml#ab5d800095472ead3dd70924b32c0e5e8" target="_top" xlink:title="Voxel::FrameStreamReader\l::readNext">
<polygon fill="none" stroke="black" points="174,-22 174,-52 312,-52 312,-22 174,-22"/>
<text text-anchor="start" x="182" y="-40" font-family="Helvetica,sans-Serif" font-size="10.00">Voxel::FrameStreamReader</text>
<text text-anchor="middle" x="243" y="-29" font-family="Helvetica,sans-Serif" font-size="10.00">::readNext</text>
</a>
</g>
</g>
<!-- Node1&#45;&gt;Node2 -->
<g id="edge1" class="edge"><title>Node1&#45;&gt;Node2</title>
<path fill="none" stroke="midnightblue" d="M148.637,-37C157.025,-37 165.508,-37 173.762,-37"/>
<polygon fill="midnightblue" stroke="midnightblue" points="148.473,-33.5001 138.473,-37 148.473,-40.5001 148.473,-33.5001"/>
</g>
<!-- Node3 -->
<g id="node3" class="node"><title>Node3</title>
<g id="a_node3"><a xlink:href="a00216.xhtml#a0ddf1224851353fc92bfbff6f499fa97" target="_top" xlink:title="main">
<polygon fill="none" stroke="black" points="398,-49.5 398,-68.5 436,-68.5 436,-49.5 398,-49.5"/>
<text text-anchor="middle" x="417" y="-56.5" font-family="Helvetica,sans-Serif" font-size="10.00">main</text>
</a>
</g>
</g>
<!-- Node2&#45;&gt;Node3 -->
<g id="edge2" class="edge"><title>Node2&#45;&gt;Node3</title>
<path fill="none" stroke="midnightblue" d="M322.708,-47.0673C350.677,-50.6447 379.681,-54.3546 397.775,-56.6689"/>
<polygon fill="midnightblue" stroke="midnightblue" points="322.836,-43.5553 312.473,-45.7582 321.948,-50.4987 322.836,-43.5553"/>
</g>
<!-- Node4 -->
<g id="node4" class="node"><title>Node4</title>
<g id="a_node4"><a xlink:href="a00074.xhtml#abc6eb2a299b0990a73b970d93c4bfed7" target="_top" xlink:title="Voxel::FrameStreamReader\l::_init">
<polygon fill="none" stroke="black" points="348,-0 348,-30 486,-30 486,-0 348,-0"/>
<text text-anchor="start" x="356" y="-18" font-family="Helvetica,sans-Serif" font-size="10.00">Voxel::FrameStreamReader</text>
<text text-anchor="middle" x="417" y="-7" font-family="Helvetica,sans-Serif" font-size="10.00">::_init</text>
</a>
</g>
</g>
<!-- Node2&#45;&gt;Node4 -->
<g id="edge3" class="edge"><title>Node2&#45;&gt;Node4</title>
<path fill="none" stroke="midnightblue" d="M322.637,-26.9418C331.025,-25.8688 339.508,-24.7839 347.762,-23.7281"/>
<polygon fill="midnightblue" stroke="midnightblue" points="321.948,-23.5013 312.473,-28.2418 322.836,-30.4447 321.948,-23.5013"/>
</g>
<!-- Node5 -->
<g id="node5" class="node"><title>Node5</title>
<g id="a_node5"><a xlink:href="a00074.xhtml#aa8745d6c03e57217c27da38092800b79" target="_top" xlink:title="Voxel::FrameStreamReader\l::FrameStreamReader">
<polygon fill="none" stroke="black" points="522,-0 522,-30 660,-30 660,-0 522,-0"/>
<text text-anchor="start" x="530" y="-18" font-family="Helvetica,sans-Serif" font-size="10.00">Voxel::FrameStreamReader</text>
<text text-anchor="middle" x="591" y="-7" font-family="Helvetica,sans-Serif" font-size="10.00">::FrameStreamReader</text>
</a>
</g>
</g>
<!-- Node4&#45;&gt;Node5 -->
<g id="edge4" class="edge"><title>Node4&#45;&gt;Node5</title>
<path fill="none" stroke="midnightblue" d="M496.637,-15C505.025,-15 513.508,-15 521.762,-15"/>
<polygon fill="midnightblue" stroke="midnightblue" points="496.473,-11.5001 486.473,-15 496.473,-18.5001 496.473,-11.5001"/>
</g>
</g>
</svg>
