<?xml version="1.0" encoding="UTF-8" standalone="no"?>
<!DOCTYPE svg PUBLIC "-//W3C//DTD SVG 1.1//EN"
 "http://www.w3.org/Graphics/SVG/1.1/DTD/svg11.dtd">
<!-- Generated by graphviz version 2.36.0 (20140111.2315)
 -->
<!-- Title: Voxel::CLIManager::_setParameter Pages: 1 -->
<svg width="314pt" height="126pt"
 viewBox="0.00 0.00 314.00 126.00" xmlns="http://www.w3.org/2000/svg" xmlns:xlink="http://www.w3.org/1999/xlink">
<g id="graph0" class="graph" transform="scale(1 1) rotate(0) translate(4 122)">
<title>Voxel::CLIManager::_setParameter</title>
<!-- Node1 -->
<g id="node1" class="node"><title>Node1</title>
<polygon fill="#bfbfbf" stroke="black" points="0.5,-44 0.5,-74 107.5,-74 107.5,-44 0.5,-44"/>
<text text-anchor="start" x="8.5" y="-62" font-family="Helvetica,sans-Serif" font-size="10.00">Voxel::CLIManager::</text>
<text text-anchor="middle" x="54" y="-51" font-family="Helvetica,sans-Serif" font-size="10.00">_setParameter</text>
</g>
<!-- Node2 -->
<g id="node2" class="node"><title>Node2</title>
<g id="a_node2"><a xlink:href="a00025.xhtml#a6c5a5af89c97f34ae7b117720e1e5a12" target="_top" xlink:title="Voxel::CLIManager::\l_setParameterHelp">
<polygon fill="none" stroke="black" points="171.5,-88 171.5,-118 278.5,-118 278.5,-88 171.5,-88"/>
<text text-anchor="start" x="179.5" y="-106" font-family="Helvetica,sans-Serif" font-size="10.00">Voxel::CLIManager::</text>
<text text-anchor="middle" x="225" y="-95" font-family="Helvetica,sans-Serif" font-size="10.00">_setParameterHelp</text>
</a>
</g>
</g>
<!-- Node1&#45;&gt;Node2 -->
<g id="edge1" class="edge"><title>Node1&#45;&gt;Node2</title>
<path fill="none" stroke="midnightblue" d="M107.546,-72.6807C124.715,-77.1506 143.947,-82.1579 161.759,-86.7953"/>
<polygon fill="midnightblue" stroke="midnightblue" points="160.927,-90.1952 171.486,-89.3278 162.691,-83.4211 160.927,-90.1952"/>
</g>
<!-- Node3 -->
<g id="node3" class="node"><title>Node3</title>
<g id="a_node3"><a xlink:href="a00103.xhtml#a64240b607339f55c4fac973fba8c8934" target="_top" xlink:title="Voxel::ParameterTemplate::set">
<polygon fill="none" stroke="black" points="149,-49.5 149,-68.5 301,-68.5 301,-49.5 149,-49.5"/>
<text text-anchor="middle" x="225" y="-56.5" font-family="Helvetica,sans-Serif" font-size="10.00">Voxel::ParameterTemplate::set</text>
</a>
</g>
</g>
<!-- Node1&#45;&gt;Node3 -->
<g id="edge2" class="edge"><title>Node1&#45;&gt;Node3</title>
<path fill="none" stroke="midnightblue" d="M107.546,-59C117.459,-59 128.06,-59 138.678,-59"/>
<polygon fill="midnightblue" stroke="midnightblue" points="138.842,-62.5001 148.842,-59 138.842,-55.5001 138.842,-62.5001"/>
</g>
<!-- Node4 -->
<g id="node4" class="node"><title>Node4</title>
<g id="a_node4"><a xlink:href="a00117.xhtml#a37ac5f7905a5849207fde317192ae7ce" target="_top" xlink:title="Voxel::RangeParameterTemplate\l::unit">
<polygon fill="none" stroke="black" points="144.5,-0 144.5,-30 305.5,-30 305.5,-0 144.5,-0"/>
<text text-anchor="start" x="152.5" y="-18" font-family="Helvetica,sans-Serif" font-size="10.00">Voxel::RangeParameterTemplate</text>
<text text-anchor="middle" x="225" y="-7" font-family="Helvetica,sans-Serif" font-size="10.00">::unit</text>
</a>
</g>
</g>
<!-- Node1&#45;&gt;Node4 -->
<g id="edge3" class="edge"><title>Node1&#45;&gt;Node4</title>
<path fill="none" stroke="midnightblue" d="M107.546,-45.3193C122.953,-41.3082 140.021,-36.8644 156.233,-32.6435"/>
<polygon fill="midnightblue" stroke="midnightblue" points="157.399,-35.9567 166.194,-30.05 155.635,-29.1825 157.399,-35.9567"/>
</g>
</g>
</svg>
