<?xml version="1.0" encoding="UTF-8" standalone="no"?>
<!DOCTYPE svg PUBLIC "-//W3C//DTD SVG 1.1//EN"
 "http://www.w3.org/Graphics/SVG/1.1/DTD/svg11.dtd">
<!-- Generated by graphviz version 2.36.0 (20140111.2315)
 -->
<!-- Title: Voxel::MainConfigurationFile::setDefaultCameraProfile Pages: 1 -->
<!--zoomable 445 -->
<svg id="main" version="1.1" xmlns="http://www.w3.org/2000/svg" xmlns:xlink="http://www.w3.org/1999/xlink" xml:space="preserve" onload="init(evt)">
<style type="text/css"><![CDATA[
.edge:hover path { stroke: red; }
.edge:hover polygon { stroke: red; fill: red; }
]]></style>
<script type="text/javascript"><![CDATA[
var edges = document.getElementsByTagName('g');
if (edges && edges.length) {
  for (var i=0;i<edges.length;i++) {
    if (edges[i].id.substr(0,4)=='edge') {
      edges[i].setAttribute('class','edge');
    }
  }
}
]]></script>
        <defs>
                <circle id="rim" cx="0" cy="0" r="7"/>
                <circle id="rim2" cx="0" cy="0" r="3.5"/>
                <g id="zoomPlus">
                        <use xlink:href="#rim" fill="#404040">
                                <set attributeName="fill" to="#808080" begin="zoomplus.mouseover" end="zoomplus.mouseout"/>
                        </use>
                        <path d="M-4,0h8M0,-4v8" fill="none" stroke="white" stroke-width="1.5" pointer-events="none"/>
                </g>
                <g id="zoomMin">
                        <use xlink:href="#rim" fill="#404040">
                                <set attributeName="fill" to="#808080" begin="zoomminus.mouseover" end="zoomminus.mouseout"/>
                        </use>
                        <path d="M-4,0h8" fill="none" stroke="white" stroke-width="1.5" pointer-events="none"/>
                </g>
                <g id="dirArrow">
                        <path fill="none" stroke="white" stroke-width="1.5" d="M0,-3.0v7 M-2.5,-0.5L0,-3.0L2.5,-0.5"/>
                </g>
               <g id="resetDef">
                       <use xlink:href="#rim2" fill="#404040">
                               <set attributeName="fill" to="#808080" begin="reset.mouseover" end="reset.mouseout"/>
                       </use>
               </g>
        </defs>

<script type="text/javascript">
var viewWidth = 952;
var viewHeight = 445;
var sectionId = 'dynsection-25';
</script>
<script xlink:href="svgpan.js"/>
<svg id="graph" class="graph">
<g id="viewport">
<title>Voxel::MainConfigurationFile::setDefaultCameraProfile</title>
<!-- Node1 -->
<g id="node1" class="node"><title>Node1</title>
<polygon fill="#bfbfbf" stroke="black" points="0,-308.543 0,-338.543 146,-338.543 146,-308.543 0,-308.543"/>
<text text-anchor="start" x="8" y="-326.543" font-family="Helvetica,sans-Serif" font-size="10.00">Voxel::MainConfiguration</text>
<text text-anchor="middle" x="73" y="-315.543" font-family="Helvetica,sans-Serif" font-size="10.00">File::setDefaultCameraProfile</text>
</g>
<!-- Node2 -->
<g id="node2" class="node"><title>Node2</title>
<g id="a_node2"><a xlink:href="a00096.xhtml#ab24aaf7b18fea74c6f235da04fadbed0" target="_top" xlink:title="Voxel::MainConfiguration\lFile::getCameraProfile">
<polygon fill="none" stroke="black" points="182,-406.543 182,-436.543 308,-436.543 308,-406.543 182,-406.543"/>
<text text-anchor="start" x="190" y="-424.543" font-family="Helvetica,sans-Serif" font-size="10.00">Voxel::MainConfiguration</text>
<text text-anchor="middle" x="245" y="-413.543" font-family="Helvetica,sans-Serif" font-size="10.00">File::getCameraProfile</text>
</a>
</g>
</g>
<!-- Node1&#45;&gt;Node2 -->
<g id="edge1" class="edge"><title>Node1&#45;&gt;Node2</title>
<path fill="none" stroke="midnightblue" d="M93.5089,-338.587C114.552,-354.362 149.431,-379.22 182,-396.543 185.746,-398.536 189.687,-400.469 193.691,-402.32"/>
<polygon fill="midnightblue" stroke="midnightblue" points="192.523,-405.63 203.084,-406.476 195.355,-399.229 192.523,-405.63"/>
</g>
<!-- Node3 -->
<g id="node3" class="node"><title>Node3</title>
<g id="a_node3"><a xlink:href="a00031.xhtml#af3cd57258007019ac09e45919cfc19c3" target="_top" xlink:title="Voxel::ConfigurationFile\l::getLocation">
<polygon fill="none" stroke="black" points="184.5,-357.543 184.5,-387.543 305.5,-387.543 305.5,-357.543 184.5,-357.543"/>
<text text-anchor="start" x="192.5" y="-375.543" font-family="Helvetica,sans-Serif" font-size="10.00">Voxel::ConfigurationFile</text>
<text text-anchor="middle" x="245" y="-364.543" font-family="Helvetica,sans-Serif" font-size="10.00">::getLocation</text>
</a>
</g>
</g>
<!-- Node1&#45;&gt;Node3 -->
<g id="edge2" class="edge"><title>Node1&#45;&gt;Node3</title>
<path fill="none" stroke="midnightblue" d="M126.393,-338.645C144.007,-343.722 163.823,-349.433 182.098,-354.701"/>
<polygon fill="midnightblue" stroke="midnightblue" points="181.202,-358.085 191.78,-357.492 183.141,-351.359 181.202,-358.085"/>
</g>
<!-- Node4 -->
<g id="node4" class="node"><title>Node4</title>
<g id="a_node4"><a xlink:href="a00031.xhtml#a6f9a97c7f26eb64633a464db21f4f7b7" target="_top" xlink:title="Voxel::ConfigurationFile\l::setInteger">
<polygon fill="none" stroke="black" points="184.5,-308.543 184.5,-338.543 305.5,-338.543 305.5,-308.543 184.5,-308.543"/>
<text text-anchor="start" x="192.5" y="-326.543" font-family="Helvetica,sans-Serif" font-size="10.00">Voxel::ConfigurationFile</text>
<text text-anchor="middle" x="245" y="-315.543" font-family="Helvetica,sans-Serif" font-size="10.00">::setInteger</text>
</a>
</g>
</g>
<!-- Node1&#45;&gt;Node4 -->
<g id="edge3" class="edge"><title>Node1&#45;&gt;Node4</title>
<path fill="none" stroke="midnightblue" d="M146.095,-323.543C155.466,-323.543 165.051,-323.543 174.38,-323.543"/>
<polygon fill="midnightblue" stroke="midnightblue" points="174.38,-327.043 184.38,-323.543 174.38,-320.043 174.38,-327.043"/>
</g>
<!-- Node11 -->
<g id="node11" class="node"><title>Node11</title>
<g id="a_node11"><a xlink:href="a00031.xhtml#a978b37f6995656a3fd39a35e70867bf0" target="_top" xlink:title="Voxel::ConfigurationFile\l::write">
<polygon fill="none" stroke="black" points="184.5,-259.543 184.5,-289.543 305.5,-289.543 305.5,-259.543 184.5,-259.543"/>
<text text-anchor="start" x="192.5" y="-277.543" font-family="Helvetica,sans-Serif" font-size="10.00">Voxel::ConfigurationFile</text>
<text text-anchor="middle" x="245" y="-266.543" font-family="Helvetica,sans-Serif" font-size="10.00">::write</text>
</a>
</g>
</g>
<!-- Node1&#45;&gt;Node11 -->
<g id="edge11" class="edge"><title>Node1&#45;&gt;Node11</title>
<path fill="none" stroke="midnightblue" d="M126.393,-308.442C144.007,-303.365 163.823,-297.653 182.098,-292.385"/>
<polygon fill="midnightblue" stroke="midnightblue" points="183.141,-295.727 191.78,-289.595 181.202,-289.001 183.141,-295.727"/>
</g>
<!-- Node14 -->
<g id="node14" class="node"><title>Node14</title>
<g id="a_node14"><a xlink:href="a00096.xhtml#a65f9abd83851d372ef62958de4774415" target="_top" xlink:title="Voxel::MainConfiguration\lFile::writeToHardware">
<polygon fill="none" stroke="black" points="182,-120.543 182,-150.543 308,-150.543 308,-120.543 182,-120.543"/>
<text text-anchor="start" x="190" y="-138.543" font-family="Helvetica,sans-Serif" font-size="10.00">Voxel::MainConfiguration</text>
<text text-anchor="middle" x="245" y="-127.543" font-family="Helvetica,sans-Serif" font-size="10.00">File::writeToHardware</text>
</a>
</g>
</g>
<!-- Node1&#45;&gt;Node14 -->
<g id="edge14" class="edge"><title>Node1&#45;&gt;Node14</title>
<path fill="none" stroke="midnightblue" d="M87.6244,-308.476C117.342,-275.612 188.137,-197.321 223.362,-158.367"/>
<polygon fill="midnightblue" stroke="midnightblue" points="226.2,-160.447 230.311,-150.682 221.008,-155.752 226.2,-160.447"/>
</g>
<!-- Node5 -->
<g id="node5" class="node"><title>Node5</title>
<g id="a_node5"><a xlink:href="a00031.xhtml#a3b9b573c1a3d9162fc0100c317ca0879" target="_top" xlink:title="Voxel::ConfigurationFile\l::_set">
<polygon fill="none" stroke="black" points="365.5,-328.543 365.5,-358.543 486.5,-358.543 486.5,-328.543 365.5,-328.543"/>
<text text-anchor="start" x="373.5" y="-346.543" font-family="Helvetica,sans-Serif" font-size="10.00">Voxel::ConfigurationFile</text>
<text text-anchor="middle" x="426" y="-335.543" font-family="Helvetica,sans-Serif" font-size="10.00">::_set</text>
</a>
</g>
</g>
<!-- Node4&#45;&gt;Node5 -->
<g id="edge4" class="edge"><title>Node4&#45;&gt;Node5</title>
<path fill="none" stroke="midnightblue" d="M305.604,-330.203C321.522,-331.981 338.866,-333.919 355.275,-335.753"/>
<polygon fill="midnightblue" stroke="midnightblue" points="355.024,-339.246 365.351,-336.878 355.801,-332.29 355.024,-339.246"/>
</g>
<!-- Node6 -->
<g id="node6" class="node"><title>Node6</title>
<g id="a_node6"><a xlink:href="a00029.xhtml#a8fb880c24ad7b0f04c84d4a33becb995" target="_top" xlink:title="Voxel::ConfigSet::_set">
<polygon fill="none" stroke="black" points="556,-372.043 556,-391.043 672,-391.043 672,-372.043 556,-372.043"/>
<text text-anchor="middle" x="614" y="-379.043" font-family="Helvetica,sans-Serif" font-size="10.00">Voxel::ConfigSet::_set</text>
</a>
</g>
</g>
<!-- Node5&#45;&gt;Node6 -->
<g id="edge5" class="edge"><title>Node5&#45;&gt;Node6</title>
<path fill="none" stroke="midnightblue" d="M486.619,-355.723C509.01,-360.298 534.379,-365.481 556.48,-369.996"/>
<polygon fill="midnightblue" stroke="midnightblue" points="555.884,-373.447 566.383,-372.019 557.286,-366.588 555.884,-373.447"/>
</g>
<!-- Node10 -->
<g id="node10" class="node"><title>Node10</title>
<g id="a_node10"><a xlink:href="a00031.xhtml#a440d9dd2f89d0c76c81f7285b31a5b94" target="_top" xlink:title="Voxel::ConfigurationFile::set">
<polygon fill="none" stroke="black" points="544,-334.043 544,-353.043 684,-353.043 684,-334.043 544,-334.043"/>
<text text-anchor="middle" x="614" y="-341.043" font-family="Helvetica,sans-Serif" font-size="10.00">Voxel::ConfigurationFile::set</text>
</a>
</g>
</g>
<!-- Node5&#45;&gt;Node10 -->
<g id="edge9" class="edge"><title>Node5&#45;&gt;Node10</title>
<path fill="none" stroke="midnightblue" d="M486.619,-337.195C501.524,-336.821 517.748,-336.708 533.45,-336.856"/>
<polygon fill="midnightblue" stroke="midnightblue" points="533.628,-340.359 543.674,-336.991 533.721,-333.359 533.628,-340.359"/>
</g>
<!-- Node7 -->
<g id="node7" class="node"><title>Node7</title>
<g id="a_node7"><a xlink:href="a00390.xhtml#ga6b2a26aa983349496fedae9aa54ad034" target="_top" xlink:title="Trim. ">
<polygon fill="none" stroke="black" points="748,-372.043 748,-391.043 812,-391.043 812,-372.043 748,-372.043"/>
<text text-anchor="middle" x="780" y="-379.043" font-family="Helvetica,sans-Serif" font-size="10.00">Voxel::trim</text>
</a>
</g>
</g>
<!-- Node6&#45;&gt;Node7 -->
<g id="edge6" class="edge"><title>Node6&#45;&gt;Node7</title>
<path fill="none" stroke="midnightblue" d="M672.359,-381.543C693.813,-381.543 717.747,-381.543 737.496,-381.543"/>
<polygon fill="midnightblue" stroke="midnightblue" points="737.7,-385.043 747.7,-381.543 737.7,-378.043 737.7,-385.043"/>
</g>
<!-- Node8 -->
<g id="node8" class="node"><title>Node8</title>
<g id="a_node8"><a xlink:href="a00390.xhtml#gac9c04e18f7878dd82964bb489b7b1314" target="_top" xlink:title="Left Trim. ">
<polygon fill="none" stroke="black" points="877,-391.043 877,-410.043 943,-410.043 943,-391.043 877,-391.043"/>
<text text-anchor="middle" x="910" y="-398.043" font-family="Helvetica,sans-Serif" font-size="10.00">Voxel::ltrim</text>
</a>
</g>
</g>
<!-- Node7&#45;&gt;Node8 -->
<g id="edge7" class="edge"><title>Node7&#45;&gt;Node8</title>
<path fill="none" stroke="midnightblue" d="M812.312,-386.191C828.646,-388.616 848.862,-391.616 866.58,-394.246"/>
<polygon fill="midnightblue" stroke="midnightblue" points="866.269,-397.738 876.674,-395.745 867.297,-390.814 866.269,-397.738"/>
</g>
<!-- Node9 -->
<g id="node9" class="node"><title>Node9</title>
<g id="a_node9"><a xlink:href="a00390.xhtml#ga3d95f05dde73bc9c54051437445e439b" target="_top" xlink:title="Right Trim. ">
<polygon fill="none" stroke="black" points="876.5,-353.043 876.5,-372.043 943.5,-372.043 943.5,-353.043 876.5,-353.043"/>
<text text-anchor="middle" x="910" y="-360.043" font-family="Helvetica,sans-Serif" font-size="10.00">Voxel::rtrim</text>
</a>
</g>
</g>
<!-- Node7&#45;&gt;Node9 -->
<g id="edge8" class="edge"><title>Node7&#45;&gt;Node9</title>
<path fill="none" stroke="midnightblue" d="M812.312,-376.895C828.522,-374.489 848.556,-371.515 866.177,-368.9"/>
<polygon fill="midnightblue" stroke="midnightblue" points="866.847,-372.339 876.225,-367.408 865.82,-365.414 866.847,-372.339"/>
</g>
<!-- Node10&#45;&gt;Node5 -->
<g id="edge10" class="edge"><title>Node10&#45;&gt;Node5</title>
<path fill="none" stroke="midnightblue" d="M543.674,-350.095C528.436,-350.355 512.29,-350.359 497.025,-350.107"/>
<polygon fill="midnightblue" stroke="midnightblue" points="496.69,-346.599 486.619,-349.891 496.544,-353.597 496.69,-346.599"/>
</g>
<!-- Node12 -->
<g id="node12" class="node"><title>Node12</title>
<g id="a_node12"><a xlink:href="a00390.xhtml#gad19078fe2a67a3174aaa6b4ab8e49292" target="_top" xlink:title="Voxel::basename">
<polygon fill="none" stroke="black" points="380,-290.043 380,-309.043 472,-309.043 472,-290.043 380,-290.043"/>
<text text-anchor="middle" x="426" y="-297.043" font-family="Helvetica,sans-Serif" font-size="10.00">Voxel::basename</text>
</a>
</g>
</g>
<!-- Node11&#45;&gt;Node12 -->
<g id="edge12" class="edge"><title>Node11&#45;&gt;Node12</title>
<path fill="none" stroke="midnightblue" d="M305.604,-282.868C326.311,-285.76 349.43,-288.989 369.768,-291.829"/>
<polygon fill="midnightblue" stroke="midnightblue" points="369.425,-295.315 379.813,-293.232 370.393,-288.382 369.425,-295.315"/>
</g>
<!-- Node13 -->
<g id="node13" class="node"><title>Node13</title>
<g id="a_node13"><a xlink:href="a00030.xhtml#a71d00cf21a3da3339b2db126239d17b6" target="_top" xlink:title="Voxel::Configuration\l::getLocalConfPath">
<polygon fill="none" stroke="black" points="373.5,-240.543 373.5,-270.543 478.5,-270.543 478.5,-240.543 373.5,-240.543"/>
<text text-anchor="start" x="381.5" y="-258.543" font-family="Helvetica,sans-Serif" font-size="10.00">Voxel::Configuration</text>
<text text-anchor="middle" x="426" y="-247.543" font-family="Helvetica,sans-Serif" font-size="10.00">::getLocalConfPath</text>
</a>
</g>
</g>
<!-- Node11&#45;&gt;Node13 -->
<g id="edge13" class="edge"><title>Node11&#45;&gt;Node13</title>
<path fill="none" stroke="midnightblue" d="M305.604,-268.216C324.14,-266.249 344.607,-264.076 363.283,-262.094"/>
<polygon fill="midnightblue" stroke="midnightblue" points="363.876,-265.551 373.451,-261.015 363.137,-258.59 363.876,-265.551"/>
</g>
<!-- Node14&#45;&gt;Node13 -->
<g id="edge25" class="edge"><title>Node14&#45;&gt;Node13</title>
<path fill="none" stroke="midnightblue" d="M257.642,-150.642C274.505,-171.519 307.707,-209.053 344,-230.543 350.181,-234.203 356.95,-237.377 363.858,-240.116"/>
<polygon fill="midnightblue" stroke="midnightblue" points="362.728,-243.429 373.322,-243.586 365.138,-236.857 362.728,-243.429"/>
</g>
<!-- Node15 -->
<g id="node15" class="node"><title>Node15</title>
<g id="a_node15"><a xlink:href="a00127.xhtml#a28bffcfa230e90768ea678269a782381" target="_top" xlink:title="Voxel::SerializedObject\l::resize">
<polygon fill="none" stroke="black" points="366.5,-54.5431 366.5,-84.5431 485.5,-84.5431 485.5,-54.5431 366.5,-54.5431"/>
<text text-anchor="start" x="374.5" y="-72.5431" font-family="Helvetica,sans-Serif" font-size="10.00">Voxel::SerializedObject</text>
<text text-anchor="middle" x="426" y="-61.5431" font-family="Helvetica,sans-Serif" font-size="10.00">::resize</text>
</a>
</g>
</g>
<!-- Node14&#45;&gt;Node15 -->
<g id="edge15" class="edge"><title>Node14&#45;&gt;Node15</title>
<path fill="none" stroke="midnightblue" d="M279.697,-120.495C298.454,-112.36 322.327,-102.401 344,-94.5431 350.321,-92.2514 356.966,-89.9814 363.618,-87.7984"/>
<polygon fill="midnightblue" stroke="midnightblue" points="364.886,-91.0671 373.331,-84.6698 362.74,-84.4042 364.886,-91.0671"/>
</g>
<!-- Node16 -->
<g id="node16" class="node"><title>Node16</title>
<g id="a_node16"><a xlink:href="a00127.xhtml#a93bedaae4489eeac130ea6a98be2589c" target="_top" xlink:title="Voxel::SerializedObject::put">
<polygon fill="none" stroke="black" points="545,-63.0431 545,-82.0431 683,-82.0431 683,-63.0431 545,-63.0431"/>
<text text-anchor="middle" x="614" y="-70.0431" font-family="Helvetica,sans-Serif" font-size="10.00">Voxel::SerializedObject::put</text>
</a>
</g>
</g>
<!-- Node14&#45;&gt;Node16 -->
<g id="edge16" class="edge"><title>Node14&#45;&gt;Node16</title>
<path fill="none" stroke="midnightblue" d="M256.498,-120.283C272.453,-98.6021 305.1,-59.8189 344,-44.5431 424.269,-13.0221 527.82,-41.1415 579.931,-59.5494"/>
<polygon fill="midnightblue" stroke="midnightblue" points="578.751,-62.8446 589.346,-62.9689 581.141,-56.2652 578.751,-62.8446"/>
</g>
<!-- Node17 -->
<g id="node17" class="node"><title>Node17</title>
<g id="a_node17"><a xlink:href="a00127.xhtml#adf11acb91f4adf3fe582a778c12b6286" target="_top" xlink:title="Voxel::SerializedObject\l::size">
<polygon fill="none" stroke="black" points="720.5,-57.5431 720.5,-87.5431 839.5,-87.5431 839.5,-57.5431 720.5,-57.5431"/>
<text text-anchor="start" x="728.5" y="-75.5431" font-family="Helvetica,sans-Serif" font-size="10.00">Voxel::SerializedObject</text>
<text text-anchor="middle" x="780" y="-64.5431" font-family="Helvetica,sans-Serif" font-size="10.00">::size</text>
</a>
</g>
</g>
<!-- Node14&#45;&gt;Node17 -->
<g id="edge23" class="edge"><title>Node14&#45;&gt;Node17</title>
<path fill="none" stroke="midnightblue" d="M254.047,-120.278C268.278,-95.1461 300.534,-45.9143 344,-26.5431 476.478,32.4978 653.399,-22.1576 734.716,-53.726"/>
<polygon fill="midnightblue" stroke="midnightblue" points="733.563,-57.0336 744.149,-57.4522 736.135,-50.5231 733.563,-57.0336"/>
</g>
<!-- Node18 -->
<g id="node18" class="node"><title>Node18</title>
<g id="a_node18"><a xlink:href="a00035.xhtml#a2e4fcc8c2b6fa1ec9bbe823a91d534c7" target="_top" xlink:title="Voxel::DataPacket::\lwrite">
<polygon fill="none" stroke="black" points="373.5,-191.543 373.5,-221.543 478.5,-221.543 478.5,-191.543 373.5,-191.543"/>
<text text-anchor="start" x="381.5" y="-209.543" font-family="Helvetica,sans-Serif" font-size="10.00">Voxel::DataPacket::</text>
<text text-anchor="middle" x="426" y="-198.543" font-family="Helvetica,sans-Serif" font-size="10.00">write</text>
</a>
</g>
</g>
<!-- Node14&#45;&gt;Node18 -->
<g id="edge18" class="edge"><title>Node14&#45;&gt;Node18</title>
<path fill="none" stroke="midnightblue" d="M275.553,-150.736C294.761,-160.279 320.511,-172.457 344,-181.543 350.271,-183.969 356.884,-186.325 363.516,-188.559"/>
<polygon fill="midnightblue" stroke="midnightblue" points="362.617,-191.948 373.21,-191.739 364.799,-185.297 362.617,-191.948"/>
</g>
<!-- Node20 -->
<g id="node20" class="node"><title>Node20</title>
<g id="a_node20"><a xlink:href="a00127.xhtml#aac0058e6b0ea0cb6ac86f4e986f6de25" target="_top" xlink:title="Voxel::SerializedObject\l::getBytes">
<polygon fill="none" stroke="black" points="366.5,-142.543 366.5,-172.543 485.5,-172.543 485.5,-142.543 366.5,-142.543"/>
<text text-anchor="start" x="374.5" y="-160.543" font-family="Helvetica,sans-Serif" font-size="10.00">Voxel::SerializedObject</text>
<text text-anchor="middle" x="426" y="-149.543" font-family="Helvetica,sans-Serif" font-size="10.00">::getBytes</text>
</a>
</g>
</g>
<!-- Node14&#45;&gt;Node20 -->
<g id="edge22" class="edge"><title>Node14&#45;&gt;Node20</title>
<path fill="none" stroke="midnightblue" d="M308.103,-143.176C323.593,-145.08 340.294,-147.132 356.09,-149.074"/>
<polygon fill="midnightblue" stroke="midnightblue" points="355.966,-152.585 366.318,-150.331 356.82,-145.637 355.966,-152.585"/>
</g>
<!-- Node21 -->
<g id="node21" class="node"><title>Node21</title>
<g id="a_node21"><a xlink:href="a00136.xhtml#a363a248fe7dd94ae58681cf145b23a23" target="_top" xlink:title="Voxel::Timer::getCurentRealTime">
<polygon fill="none" stroke="black" points="344.5,-104.043 344.5,-123.043 507.5,-123.043 507.5,-104.043 344.5,-104.043"/>
<text text-anchor="middle" x="426" y="-111.043" font-family="Helvetica,sans-Serif" font-size="10.00">Voxel::Timer::getCurentRealTime</text>
</a>
</g>
</g>
<!-- Node14&#45;&gt;Node21 -->
<g id="edge24" class="edge"><title>Node14&#45;&gt;Node21</title>
<path fill="none" stroke="midnightblue" d="M308.103,-127.91C317.645,-126.738 327.647,-125.508 337.614,-124.283"/>
<polygon fill="midnightblue" stroke="midnightblue" points="338.053,-127.756 347.551,-123.062 337.199,-120.808 338.053,-127.756"/>
</g>
<!-- Node16&#45;&gt;Node17 -->
<g id="edge17" class="edge"><title>Node16&#45;&gt;Node17</title>
<path fill="none" stroke="midnightblue" d="M683.126,-72.5431C692.142,-72.5431 701.388,-72.5431 710.411,-72.5431"/>
<polygon fill="midnightblue" stroke="midnightblue" points="710.481,-76.0432 720.48,-72.5431 710.48,-69.0432 710.481,-76.0432"/>
</g>
<!-- Node18&#45;&gt;Node16 -->
<g id="edge21" class="edge"><title>Node18&#45;&gt;Node16</title>
<path fill="none" stroke="midnightblue" d="M478.757,-195.53C488.955,-192.023 499.208,-187.458 508,-181.543 528.964,-167.439 526.768,-156.022 544,-137.543 560.138,-120.237 579.914,-101.867 594.151,-89.0869"/>
<polygon fill="midnightblue" stroke="midnightblue" points="596.68,-91.5211 601.824,-82.2585 592.027,-86.2919 596.68,-91.5211"/>
</g>
<!-- Node18&#45;&gt;Node17 -->
<g id="edge19" class="edge"><title>Node18&#45;&gt;Node17</title>
<path fill="none" stroke="midnightblue" d="M478.699,-213.823C532.987,-218.981 619.29,-219.974 684,-186.543 722.493,-166.657 751.409,-123.702 766.719,-96.5685"/>
<polygon fill="midnightblue" stroke="midnightblue" points="769.844,-98.1495 771.561,-87.6947 763.699,-94.7969 769.844,-98.1495"/>
</g>
<!-- Node19 -->
<g id="node19" class="node"><title>Node19</title>
<g id="a_node19"><a xlink:href="a00127.xhtml#a602414fea53034e304c0e6fcae5bb71b" target="_top" xlink:title="Voxel::SerializedObject\l::currentPutOffset">
<polygon fill="none" stroke="black" points="554.5,-147.543 554.5,-177.543 673.5,-177.543 673.5,-147.543 554.5,-147.543"/>
<text text-anchor="start" x="562.5" y="-165.543" font-family="Helvetica,sans-Serif" font-size="10.00">Voxel::SerializedObject</text>
<text text-anchor="middle" x="614" y="-154.543" font-family="Helvetica,sans-Serif" font-size="10.00">::currentPutOffset</text>
</a>
</g>
</g>
<!-- Node18&#45;&gt;Node19 -->
<g id="edge20" class="edge"><title>Node18&#45;&gt;Node19</title>
<path fill="none" stroke="midnightblue" d="M478.811,-194.287C499.132,-189.48 522.741,-183.895 544.44,-178.762"/>
<polygon fill="midnightblue" stroke="midnightblue" points="545.33,-182.148 554.256,-176.439 543.719,-175.336 545.33,-182.148"/>
</g>
</g>
</svg>
        <g id="navigator" transform="translate(0 0)" fill="#404254">
                <rect fill="#f2f5e9" fill-opacity="0.5" stroke="#606060" stroke-width=".5" x="0" y="0" width="60" height="60"/>
                <use id="zoomplus" xlink:href="#zoomPlus" x="17" y="9" onmousedown="handleZoom(evt,'in')"/>
                <use id="zoomminus" xlink:href="#zoomMin" x="42" y="9" onmousedown="handleZoom(evt,'out')"/>
                <use id="reset" xlink:href="#resetDef" x="30" y="36" onmousedown="handleReset()"/>
                <g id="arrowUp" xlink:href="#dirArrow" transform="translate(30 24)" onmousedown="handlePan(0,-1)">
                  <use xlink:href="#rim" fill="#404040">
                        <set attributeName="fill" to="#808080" begin="arrowUp.mouseover" end="arrowUp.mouseout"/>
                  </use>
                  <path fill="none" stroke="white" stroke-width="1.5" d="M0,-3.0v7 M-2.5,-0.5L0,-3.0L2.5,-0.5"/>
                </g>
                <g id="arrowRight" xlink:href="#dirArrow" transform="rotate(90) translate(36 -43)" onmousedown="handlePan(1,0)">
                  <use xlink:href="#rim" fill="#404040">
                        <set attributeName="fill" to="#808080" begin="arrowRight.mouseover" end="arrowRight.mouseout"/>
                  </use>
                  <path fill="none" stroke="white" stroke-width="1.5" d="M0,-3.0v7 M-2.5,-0.5L0,-3.0L2.5,-0.5"/>
                </g>
                <g id="arrowDown" xlink:href="#dirArrow" transform="rotate(180) translate(-30 -48)" onmousedown="handlePan(0,1)">
                  <use xlink:href="#rim" fill="#404040">
                        <set attributeName="fill" to="#808080" begin="arrowDown.mouseover" end="arrowDown.mouseout"/>
                  </use>
                  <path fill="none" stroke="white" stroke-width="1.5" d="M0,-3.0v7 M-2.5,-0.5L0,-3.0L2.5,-0.5"/>
                </g>
                <g id="arrowLeft" xlink:href="#dirArrow" transform="rotate(270) translate(-36 17)" onmousedown="handlePan(-1,0)">
                  <use xlink:href="#rim" fill="#404040">
                        <set attributeName="fill" to="#808080" begin="arrowLeft.mouseover" end="arrowLeft.mouseout"/>
                  </use>
                  <path fill="none" stroke="white" stroke-width="1.5" d="M0,-3.0v7 M-2.5,-0.5L0,-3.0L2.5,-0.5"/>
                </g>
        </g>
        <svg viewBox="0 0 15 15" width="100%" height="30px" preserveAspectRatio="xMaxYMin meet">
         <g id="arrow_out" transform="scale(0.3 0.3)">
          <a xlink:href="a00096_ad0ea67099cfd8a8e869b46b833e19800_cgraph_org.svg" target="_base">
           <rect id="button" ry="5" rx="5" y="6" x="6" height="38" width="38"
                fill="#f2f5e9" fill-opacity="0.5" stroke="#606060" stroke-width="1.0"/>
           <path id="arrow"
             d="M 11.500037,31.436501 C 11.940474,20.09759 22.043105,11.32322 32.158766,21.979434 L 37.068811,17.246167 C 37.068811,17.246167 37.088388,32 37.088388,32 L 22.160133,31.978069 C 22.160133,31.978069 26.997745,27.140456 26.997745,27.140456 C 18.528582,18.264221 13.291696,25.230495 11.500037,31.436501 z"
             style="fill:#404040;"/>
          </a>
         </g>
        </svg>
</svg>
