<?xml version="1.0" encoding="UTF-8" standalone="no"?>
<!DOCTYPE svg PUBLIC "-//W3C//DTD SVG 1.1//EN"
 "http://www.w3.org/Graphics/SVG/1.1/DTD/svg11.dtd">
<!-- Generated by graphviz version 2.36.0 (20140111.2315)
 -->
<!-- Title: Voxel::DepthCamera::_getROI Pages: 1 -->
<svg width="804pt" height="257pt"
 viewBox="0.00 0.00 804.00 257.00" xmlns="http://www.w3.org/2000/svg" xmlns:xlink="http://www.w3.org/1999/xlink">
<g id="graph0" class="graph" transform="scale(1 1) rotate(0) translate(4 253)">
<title>Voxel::DepthCamera::_getROI</title>
<!-- Node1 -->
<g id="node1" class="node"><title>Node1</title>
<polygon fill="#bfbfbf" stroke="black" points="0,-194 0,-224 108,-224 108,-194 0,-194"/>
<text text-anchor="start" x="8" y="-212" font-family="Helvetica,sans-Serif" font-size="10.00">Voxel::DepthCamera</text>
<text text-anchor="middle" x="54" y="-201" font-family="Helvetica,sans-Serif" font-size="10.00">::_getROI</text>
</g>
<!-- Node2 -->
<g id="node2" class="node"><title>Node2</title>
<g id="a_node2"><a xlink:href="a00153.xhtml#a732a6cb4d0a909776abf8004f2ddf4ee" target="_top" xlink:title="Voxel::TI::ToFCamera\l::_setFrameSize">
<polygon fill="none" stroke="black" points="144,-219 144,-249 258,-249 258,-219 144,-219"/>
<text text-anchor="start" x="152" y="-237" font-family="Helvetica,sans-Serif" font-size="10.00">Voxel::TI::ToFCamera</text>
<text text-anchor="middle" x="201" y="-226" font-family="Helvetica,sans-Serif" font-size="10.00">::_setFrameSize</text>
</a>
</g>
</g>
<!-- Node1&#45;&gt;Node2 -->
<g id="edge1" class="edge"><title>Node1&#45;&gt;Node2</title>
<path fill="none" stroke="midnightblue" d="M118.13,-219.885C126.71,-221.364 135.469,-222.874 143.913,-224.33"/>
<polygon fill="midnightblue" stroke="midnightblue" points="118.619,-216.417 108.169,-218.167 117.429,-223.315 118.619,-216.417"/>
</g>
<!-- Node3 -->
<g id="node3" class="node"><title>Node3</title>
<g id="a_node3"><a xlink:href="a00036.xhtml#ab2be6abc24dd344f63e082c19273d833" target="_top" xlink:title="Voxel::DepthCamera\l::getROI">
<polygon fill="none" stroke="black" points="147,-170 147,-200 255,-200 255,-170 147,-170"/>
<text text-anchor="start" x="155" y="-188" font-family="Helvetica,sans-Serif" font-size="10.00">Voxel::DepthCamera</text>
<text text-anchor="middle" x="201" y="-177" font-family="Helvetica,sans-Serif" font-size="10.00">::getROI</text>
</a>
</g>
</g>
<!-- Node1&#45;&gt;Node3 -->
<g id="edge2" class="edge"><title>Node1&#45;&gt;Node3</title>
<path fill="none" stroke="midnightblue" d="M118.06,-198.562C127.658,-196.974 137.479,-195.348 146.837,-193.799"/>
<polygon fill="midnightblue" stroke="midnightblue" points="117.464,-195.114 108.169,-200.2 118.607,-202.02 117.464,-195.114"/>
</g>
<!-- Node4 -->
<g id="node4" class="node"><title>Node4</title>
<g id="a_node4"><a xlink:href="a00152.xhtml#adf420ba5e95dcb0cbd3da90f446242d9" target="_top" xlink:title="Voxel::TI::ToFCalculusCamera\l::_initStartParams">
<polygon fill="none" stroke="black" points="447,-196 447,-226 599,-226 599,-196 447,-196"/>
<text text-anchor="start" x="455" y="-214" font-family="Helvetica,sans-Serif" font-size="10.00">Voxel::TI::ToFCalculusCamera</text>
<text text-anchor="middle" x="523" y="-203" font-family="Helvetica,sans-Serif" font-size="10.00">::_initStartParams</text>
</a>
</g>
</g>
<!-- Node3&#45;&gt;Node4 -->
<g id="edge3" class="edge"><title>Node3&#45;&gt;Node4</title>
<path fill="none" stroke="midnightblue" d="M265.331,-190.146C317.505,-194.385 391.618,-200.406 446.802,-204.89"/>
<polygon fill="midnightblue" stroke="midnightblue" points="265.451,-186.644 255.201,-189.323 264.884,-193.621 265.451,-186.644"/>
</g>
<!-- Node6 -->
<g id="node6" class="node"><title>Node6</title>
<g id="a_node6"><a xlink:href="a00153.xhtml#a52686f695d06876ef5a89e453c6a8ba3" target="_top" xlink:title="Voxel::TI::ToFCamera\l::_initStartParams">
<polygon fill="none" stroke="black" points="294,-147 294,-177 408,-177 408,-147 294,-147"/>
<text text-anchor="start" x="302" y="-165" font-family="Helvetica,sans-Serif" font-size="10.00">Voxel::TI::ToFCamera</text>
<text text-anchor="middle" x="351" y="-154" font-family="Helvetica,sans-Serif" font-size="10.00">::_initStartParams</text>
</a>
</g>
</g>
<!-- Node3&#45;&gt;Node6 -->
<g id="edge5" class="edge"><title>Node3&#45;&gt;Node6</title>
<path fill="none" stroke="midnightblue" d="M264.913,-175.223C274.528,-173.729 284.399,-172.195 293.856,-170.725"/>
<polygon fill="midnightblue" stroke="midnightblue" points="264.357,-171.767 255.013,-176.761 265.432,-178.684 264.357,-171.767"/>
</g>
<!-- Node5 -->
<g id="node5" class="node"><title>Node5</title>
<g id="a_node5"><a xlink:href="a00013.xhtml#a2474713056342fa6774ff5a165961052" target="_top" xlink:title="Voxel::TI::CalculusCDKCamera\l::_initStartParams">
<polygon fill="none" stroke="black" points="638.5,-196 638.5,-226 795.5,-226 795.5,-196 638.5,-196"/>
<text text-anchor="start" x="646.5" y="-214" font-family="Helvetica,sans-Serif" font-size="10.00">Voxel::TI::CalculusCDKCamera</text>
<text text-anchor="middle" x="717" y="-203" font-family="Helvetica,sans-Serif" font-size="10.00">::_initStartParams</text>
</a>
</g>
</g>
<!-- Node4&#45;&gt;Node5 -->
<g id="edge4" class="edge"><title>Node4&#45;&gt;Node5</title>
<path fill="none" stroke="midnightblue" d="M609.152,-211C618.908,-211 628.816,-211 638.465,-211"/>
<polygon fill="midnightblue" stroke="midnightblue" points="609.057,-207.5 599.057,-211 609.057,-214.5 609.057,-207.5"/>
</g>
<!-- Node6&#45;&gt;Node4 -->
<g id="edge7" class="edge"><title>Node6&#45;&gt;Node4</title>
<path fill="none" stroke="midnightblue" d="M414.082,-179.894C432.366,-185.164 452.18,-190.876 469.78,-195.948"/>
<polygon fill="midnightblue" stroke="midnightblue" points="414.971,-176.508 404.393,-177.101 413.032,-183.234 414.971,-176.508"/>
</g>
<!-- Node7 -->
<g id="node7" class="node"><title>Node7</title>
<g id="a_node7"><a xlink:href="a00077.xhtml#a4e8e32000eca9b81bc6401a8d512cbc7" target="_top" xlink:title="Voxel::TI::HaddockCDKCamera\l::_initStartParams">
<polygon fill="none" stroke="black" points="444,-147 444,-177 602,-177 602,-147 444,-147"/>
<text text-anchor="start" x="452" y="-165" font-family="Helvetica,sans-Serif" font-size="10.00">Voxel::TI::HaddockCDKCamera</text>
<text text-anchor="middle" x="523" y="-154" font-family="Helvetica,sans-Serif" font-size="10.00">::_initStartParams</text>
</a>
</g>
</g>
<!-- Node6&#45;&gt;Node7 -->
<g id="edge6" class="edge"><title>Node6&#45;&gt;Node7</title>
<path fill="none" stroke="midnightblue" d="M418.206,-162C426.586,-162 435.222,-162 443.766,-162"/>
<polygon fill="midnightblue" stroke="midnightblue" points="418.136,-158.5 408.135,-162 418.135,-165.5 418.136,-158.5"/>
</g>
<!-- Node8 -->
<g id="node8" class="node"><title>Node8</title>
<g id="a_node8"><a xlink:href="a00159.xhtml#ae87b0ca3c8867d1b520c0165d526e79d" target="_top" xlink:title="Voxel::TI::ToFHaddockCamera\l::_initStartParams">
<polygon fill="none" stroke="black" points="446.5,-98 446.5,-128 599.5,-128 599.5,-98 446.5,-98"/>
<text text-anchor="start" x="454.5" y="-116" font-family="Helvetica,sans-Serif" font-size="10.00">Voxel::TI::ToFHaddockCamera</text>
<text text-anchor="middle" x="523" y="-105" font-family="Helvetica,sans-Serif" font-size="10.00">::_initStartParams</text>
</a>
</g>
</g>
<!-- Node6&#45;&gt;Node8 -->
<g id="edge8" class="edge"><title>Node6&#45;&gt;Node8</title>
<path fill="none" stroke="midnightblue" d="M414.082,-144.106C432.366,-138.836 452.18,-133.124 469.78,-128.052"/>
<polygon fill="midnightblue" stroke="midnightblue" points="413.032,-140.766 404.393,-146.899 414.971,-147.492 413.032,-140.766"/>
</g>
<!-- Node10 -->
<g id="node10" class="node"><title>Node10</title>
<g id="a_node10"><a xlink:href="a00164.xhtml#a17729406fadceea890b4e0e079aede46" target="_top" xlink:title="Voxel::TI::ToFTintinCamera\l::_initStartParams">
<polygon fill="none" stroke="black" points="454,-49 454,-79 592,-79 592,-49 454,-49"/>
<text text-anchor="start" x="462" y="-67" font-family="Helvetica,sans-Serif" font-size="10.00">Voxel::TI::ToFTintinCamera</text>
<text text-anchor="middle" x="523" y="-56" font-family="Helvetica,sans-Serif" font-size="10.00">::_initStartParams</text>
</a>
</g>
</g>
<!-- Node6&#45;&gt;Node10 -->
<g id="edge10" class="edge"><title>Node6&#45;&gt;Node10</title>
<path fill="none" stroke="midnightblue" d="M374.466,-139.831C392.094,-123.508 417.936,-101.833 444,-88 450.383,-84.6125 457.318,-81.6222 464.332,-79.0052"/>
<polygon fill="midnightblue" stroke="midnightblue" points="371.841,-137.497 366.973,-146.907 376.647,-142.586 371.841,-137.497"/>
</g>
<!-- Node9 -->
<g id="node9" class="node"><title>Node9</title>
<g id="a_node9"><a xlink:href="a00182.xhtml#ad5dcde935444ac28a6e0b5705f504573" target="_top" xlink:title="Voxel::TI::Voxel14Camera\l::_initStartParams">
<polygon fill="none" stroke="black" points="651,-98 651,-128 783,-128 783,-98 651,-98"/>
<text text-anchor="start" x="659" y="-116" font-family="Helvetica,sans-Serif" font-size="10.00">Voxel::TI::Voxel14Camera</text>
<text text-anchor="middle" x="717" y="-105" font-family="Helvetica,sans-Serif" font-size="10.00">::_initStartParams</text>
</a>
</g>
</g>
<!-- Node8&#45;&gt;Node9 -->
<g id="edge9" class="edge"><title>Node8&#45;&gt;Node9</title>
<path fill="none" stroke="midnightblue" d="M609.994,-113C623.67,-113 637.62,-113 650.718,-113"/>
<polygon fill="midnightblue" stroke="midnightblue" points="609.608,-109.5 599.608,-113 609.608,-116.5 609.608,-109.5"/>
</g>
<!-- Node11 -->
<g id="node11" class="node"><title>Node11</title>
<g id="a_node11"><a xlink:href="a00137.xhtml#a35274b5fd95ea088be4bc0637328d5f4" target="_top" xlink:title="Voxel::TI::TintinCDKCamera\l::_initStartParams">
<polygon fill="none" stroke="black" points="645.5,-49 645.5,-79 788.5,-79 788.5,-49 645.5,-49"/>
<text text-anchor="start" x="653.5" y="-67" font-family="Helvetica,sans-Serif" font-size="10.00">Voxel::TI::TintinCDKCamera</text>
<text text-anchor="middle" x="717" y="-56" font-family="Helvetica,sans-Serif" font-size="10.00">::_initStartParams</text>
</a>
</g>
</g>
<!-- Node10&#45;&gt;Node11 -->
<g id="edge11" class="edge"><title>Node10&#45;&gt;Node11</title>
<path fill="none" stroke="midnightblue" d="M602.469,-64C616.68,-64 631.423,-64 645.392,-64"/>
<polygon fill="midnightblue" stroke="midnightblue" points="602.233,-60.5001 592.233,-64 602.233,-67.5001 602.233,-60.5001"/>
</g>
<!-- Node12 -->
<g id="node12" class="node"><title>Node12</title>
<g id="a_node12"><a xlink:href="a00186.xhtml#ae0706724a5ebbb978d41fb2633af5040" target="_top" xlink:title="Voxel::TI::VoxelDCamera\l::_initStartParams">
<polygon fill="none" stroke="black" points="652.5,-0 652.5,-30 781.5,-30 781.5,-0 652.5,-0"/>
<text text-anchor="start" x="660.5" y="-18" font-family="Helvetica,sans-Serif" font-size="10.00">Voxel::TI::VoxelDCamera</text>
<text text-anchor="middle" x="717" y="-7" font-family="Helvetica,sans-Serif" font-size="10.00">::_initStartParams</text>
</a>
</g>
</g>
<!-- Node10&#45;&gt;Node12 -->
<g id="edge12" class="edge"><title>Node10&#45;&gt;Node12</title>
<path fill="none" stroke="midnightblue" d="M592.767,-46.4502C613.851,-41.0694 636.845,-35.201 657.2,-30.0062"/>
<polygon fill="midnightblue" stroke="midnightblue" points="591.735,-43.1012 582.911,-48.9654 593.466,-49.8838 591.735,-43.1012"/>
</g>
</g>
</svg>
