<?xml version="1.0" encoding="UTF-8" standalone="no"?>
<!DOCTYPE svg PUBLIC "-//W3C//DTD SVG 1.1//EN"
 "http://www.w3.org/Graphics/SVG/1.1/DTD/svg11.dtd">
<!-- Generated by graphviz version 2.36.0 (20140111.2315)
 -->
<!-- Title: Voxel::DataPacket::readHeader Pages: 1 -->
<svg width="462pt" height="77pt"
 viewBox="0.00 0.00 462.00 77.00" xmlns="http://www.w3.org/2000/svg" xmlns:xlink="http://www.w3.org/1999/xlink">
<g id="graph0" class="graph" transform="scale(1 1) rotate(0) translate(4 73)">
<title>Voxel::DataPacket::readHeader</title>
<!-- Node1 -->
<g id="node1" class="node"><title>Node1</title>
<polygon fill="#bfbfbf" stroke="black" points="0.5,-17 0.5,-47 105.5,-47 105.5,-17 0.5,-17"/>
<text text-anchor="start" x="8.5" y="-35" font-family="Helvetica,sans-Serif" font-size="10.00">Voxel::DataPacket::</text>
<text text-anchor="middle" x="53" y="-24" font-family="Helvetica,sans-Serif" font-size="10.00">readHeader</text>
</g>
<!-- Node2 -->
<g id="node2" class="node"><title>Node2</title>
<g id="a_node2"><a xlink:href="a00074.xhtml#abc6eb2a299b0990a73b970d93c4bfed7" target="_top" xlink:title="Voxel::FrameStreamReader\l::_init">
<polygon fill="none" stroke="black" points="142,-39 142,-69 280,-69 280,-39 142,-39"/>
<text text-anchor="start" x="150" y="-57" font-family="Helvetica,sans-Serif" font-size="10.00">Voxel::FrameStreamReader</text>
<text text-anchor="middle" x="211" y="-46" font-family="Helvetica,sans-Serif" font-size="10.00">::_init</text>
</a>
</g>
</g>
<!-- Node1&#45;&gt;Node2 -->
<g id="edge1" class="edge"><title>Node1&#45;&gt;Node2</title>
<path fill="none" stroke="midnightblue" d="M115.506,-40.674C124.154,-41.8935 133.084,-43.1529 141.846,-44.3886"/>
<polygon fill="midnightblue" stroke="midnightblue" points="115.903,-37.1954 105.513,-39.2646 114.926,-44.1268 115.903,-37.1954"/>
</g>
<!-- Node4 -->
<g id="node4" class="node"><title>Node4</title>
<g id="a_node4"><a xlink:href="a00035.xhtml#a9e0c0913913d0217e42f685942df2ea5" target="_top" xlink:title="Voxel::DataPacket::read">
<polygon fill="none" stroke="black" points="149,-0.5 149,-19.5 273,-19.5 273,-0.5 149,-0.5"/>
<text text-anchor="middle" x="211" y="-7.5" font-family="Helvetica,sans-Serif" font-size="10.00">Voxel::DataPacket::read</text>
</a>
</g>
</g>
<!-- Node1&#45;&gt;Node4 -->
<g id="edge3" class="edge"><title>Node1&#45;&gt;Node4</title>
<path fill="none" stroke="midnightblue" d="M115.429,-23.3369C126.396,-21.7903 137.821,-20.1791 148.782,-18.6333"/>
<polygon fill="midnightblue" stroke="midnightblue" points="114.926,-19.8732 105.513,-24.7354 115.903,-26.8046 114.926,-19.8732"/>
</g>
<!-- Node3 -->
<g id="node3" class="node"><title>Node3</title>
<g id="a_node3"><a xlink:href="a00074.xhtml#aa8745d6c03e57217c27da38092800b79" target="_top" xlink:title="Voxel::FrameStreamReader\l::FrameStreamReader">
<polygon fill="none" stroke="black" points="316,-39 316,-69 454,-69 454,-39 316,-39"/>
<text text-anchor="start" x="324" y="-57" font-family="Helvetica,sans-Serif" font-size="10.00">Voxel::FrameStreamReader</text>
<text text-anchor="middle" x="385" y="-46" font-family="Helvetica,sans-Serif" font-size="10.00">::FrameStreamReader</text>
</a>
</g>
</g>
<!-- Node2&#45;&gt;Node3 -->
<g id="edge2" class="edge"><title>Node2&#45;&gt;Node3</title>
<path fill="none" stroke="midnightblue" d="M290.637,-54C299.025,-54 307.508,-54 315.762,-54"/>
<polygon fill="midnightblue" stroke="midnightblue" points="290.473,-50.5001 280.473,-54 290.473,-57.5001 290.473,-50.5001"/>
</g>
</g>
</svg>
