<?xml version="1.0" encoding="UTF-8" standalone="no"?>
<!DOCTYPE svg PUBLIC "-//W3C//DTD SVG 1.1//EN"
 "http://www.w3.org/Graphics/SVG/1.1/DTD/svg11.dtd">
<!-- Generated by graphviz version 2.36.0 (20140111.2315)
 -->
<!-- Title: Voxel::DataPacket::verifyMagic Pages: 1 -->
<svg width="984pt" height="123pt"
 viewBox="0.00 0.00 984.00 123.00" xmlns="http://www.w3.org/2000/svg" xmlns:xlink="http://www.w3.org/1999/xlink">
<g id="graph0" class="graph" transform="scale(1 1) rotate(0) translate(4 119)">
<title>Voxel::DataPacket::verifyMagic</title>
<!-- Node1 -->
<g id="node1" class="node"><title>Node1</title>
<polygon fill="#bfbfbf" stroke="black" points="0.5,-22 0.5,-52 105.5,-52 105.5,-22 0.5,-22"/>
<text text-anchor="start" x="8.5" y="-40" font-family="Helvetica,sans-Serif" font-size="10.00">Voxel::DataPacket::</text>
<text text-anchor="middle" x="53" y="-29" font-family="Helvetica,sans-Serif" font-size="10.00">verifyMagic</text>
</g>
<!-- Node2 -->
<g id="node2" class="node"><title>Node2</title>
<g id="a_node2"><a xlink:href="a00074.xhtml#a542b1d8bc2419e5a2f63ba9c132e569e" target="_top" xlink:title="Voxel::FrameStreamReader\l::_getPacket">
<polygon fill="none" stroke="black" points="142,-44 142,-74 280,-74 280,-44 142,-44"/>
<text text-anchor="start" x="150" y="-62" font-family="Helvetica,sans-Serif" font-size="10.00">Voxel::FrameStreamReader</text>
<text text-anchor="middle" x="211" y="-51" font-family="Helvetica,sans-Serif" font-size="10.00">::_getPacket</text>
</a>
</g>
</g>
<!-- Node1&#45;&gt;Node2 -->
<g id="edge1" class="edge"><title>Node1&#45;&gt;Node2</title>
<path fill="none" stroke="midnightblue" d="M115.506,-45.674C124.154,-46.8935 133.084,-48.1529 141.846,-49.3886"/>
<polygon fill="midnightblue" stroke="midnightblue" points="115.903,-42.1954 105.513,-44.2646 114.926,-49.1268 115.903,-42.1954"/>
</g>
<!-- Node6 -->
<g id="node6" class="node"><title>Node6</title>
<g id="a_node6"><a xlink:href="a00074.xhtml#abc6eb2a299b0990a73b970d93c4bfed7" target="_top" xlink:title="Voxel::FrameStreamReader\l::_init">
<polygon fill="none" stroke="black" points="664,-0 664,-30 802,-30 802,-0 664,-0"/>
<text text-anchor="start" x="672" y="-18" font-family="Helvetica,sans-Serif" font-size="10.00">Voxel::FrameStreamReader</text>
<text text-anchor="middle" x="733" y="-7" font-family="Helvetica,sans-Serif" font-size="10.00">::_init</text>
</a>
</g>
</g>
<!-- Node1&#45;&gt;Node6 -->
<g id="edge8" class="edge"><title>Node1&#45;&gt;Node6</title>
<path fill="none" stroke="midnightblue" d="M115.855,-34.8766C124.632,-34.5796 133.544,-34.2803 142,-34 330.979,-27.7359 554.016,-20.6321 663.862,-17.1526"/>
<polygon fill="midnightblue" stroke="midnightblue" points="115.526,-31.3857 105.65,-35.2229 115.763,-38.3816 115.526,-31.3857"/>
</g>
<!-- Node3 -->
<g id="node3" class="node"><title>Node3</title>
<g id="a_node3"><a xlink:href="a00074.xhtml#a619ea63e8db183e17465fab3fd246f56" target="_top" xlink:title="Voxel::FrameStreamReader\l::_readConfigPacket">
<polygon fill="none" stroke="black" points="316,-85 316,-115 454,-115 454,-85 316,-85"/>
<text text-anchor="start" x="324" y="-103" font-family="Helvetica,sans-Serif" font-size="10.00">Voxel::FrameStreamReader</text>
<text text-anchor="middle" x="385" y="-92" font-family="Helvetica,sans-Serif" font-size="10.00">::_readConfigPacket</text>
</a>
</g>
</g>
<!-- Node2&#45;&gt;Node3 -->
<g id="edge2" class="edge"><title>Node2&#45;&gt;Node3</title>
<path fill="none" stroke="midnightblue" d="M285.008,-76.403C296.959,-79.2519 309.253,-82.1824 320.938,-84.9677"/>
<polygon fill="midnightblue" stroke="midnightblue" points="285.609,-72.9483 275.07,-74.0341 283.986,-79.7575 285.609,-72.9483"/>
</g>
<!-- Node4 -->
<g id="node4" class="node"><title>Node4</title>
<g id="a_node4"><a xlink:href="a00074.xhtml#ab5d800095472ead3dd70924b32c0e5e8" target="_top" xlink:title="Voxel::FrameStreamReader\l::readNext">
<polygon fill="none" stroke="black" points="490,-44 490,-74 628,-74 628,-44 490,-44"/>
<text text-anchor="start" x="498" y="-62" font-family="Helvetica,sans-Serif" font-size="10.00">Voxel::FrameStreamReader</text>
<text text-anchor="middle" x="559" y="-51" font-family="Helvetica,sans-Serif" font-size="10.00">::readNext</text>
</a>
</g>
</g>
<!-- Node2&#45;&gt;Node4 -->
<g id="edge7" class="edge"><title>Node2&#45;&gt;Node4</title>
<path fill="none" stroke="midnightblue" d="M290.548,-59C350.576,-59 432.483,-59 489.784,-59"/>
<polygon fill="midnightblue" stroke="midnightblue" points="290.359,-55.5001 280.358,-59 290.358,-62.5001 290.359,-55.5001"/>
</g>
<!-- Node3&#45;&gt;Node4 -->
<g id="edge3" class="edge"><title>Node3&#45;&gt;Node4</title>
<path fill="none" stroke="midnightblue" d="M459.008,-82.597C470.959,-79.7481 483.253,-76.8176 494.938,-74.0323"/>
<polygon fill="midnightblue" stroke="midnightblue" points="457.986,-79.2425 449.07,-84.9659 459.609,-86.0517 457.986,-79.2425"/>
</g>
<!-- Node5 -->
<g id="node5" class="node"><title>Node5</title>
<g id="a_node5"><a xlink:href="a00216.xhtml#a0ddf1224851353fc92bfbff6f499fa97" target="_top" xlink:title="main">
<polygon fill="none" stroke="black" points="714,-49.5 714,-68.5 752,-68.5 752,-49.5 714,-49.5"/>
<text text-anchor="middle" x="733" y="-56.5" font-family="Helvetica,sans-Serif" font-size="10.00">main</text>
</a>
</g>
</g>
<!-- Node4&#45;&gt;Node5 -->
<g id="edge4" class="edge"><title>Node4&#45;&gt;Node5</title>
<path fill="none" stroke="midnightblue" d="M638.708,-59C666.677,-59 695.681,-59 713.775,-59"/>
<polygon fill="midnightblue" stroke="midnightblue" points="638.473,-55.5001 628.473,-59 638.473,-62.5001 638.473,-55.5001"/>
</g>
<!-- Node4&#45;&gt;Node6 -->
<g id="edge5" class="edge"><title>Node4&#45;&gt;Node6</title>
<path fill="none" stroke="midnightblue" d="M628.777,-41.4059C643.511,-37.6368 658.948,-33.6878 673.261,-30.0262"/>
<polygon fill="midnightblue" stroke="midnightblue" points="627.532,-38.1115 618.712,-43.9808 629.267,-44.8932 627.532,-38.1115"/>
</g>
<!-- Node7 -->
<g id="node7" class="node"><title>Node7</title>
<g id="a_node7"><a xlink:href="a00074.xhtml#aa8745d6c03e57217c27da38092800b79" target="_top" xlink:title="Voxel::FrameStreamReader\l::FrameStreamReader">
<polygon fill="none" stroke="black" points="838,-0 838,-30 976,-30 976,-0 838,-0"/>
<text text-anchor="start" x="846" y="-18" font-family="Helvetica,sans-Serif" font-size="10.00">Voxel::FrameStreamReader</text>
<text text-anchor="middle" x="907" y="-7" font-family="Helvetica,sans-Serif" font-size="10.00">::FrameStreamReader</text>
</a>
</g>
</g>
<!-- Node6&#45;&gt;Node7 -->
<g id="edge6" class="edge"><title>Node6&#45;&gt;Node7</title>
<path fill="none" stroke="midnightblue" d="M812.637,-15C821.025,-15 829.508,-15 837.762,-15"/>
<polygon fill="midnightblue" stroke="midnightblue" points="812.473,-11.5001 802.473,-15 812.473,-18.5001 812.473,-11.5001"/>
</g>
</g>
</svg>
