<?xml version="1.0" encoding="UTF-8" standalone="no"?>
<!DOCTYPE svg PUBLIC "-//W3C//DTD SVG 1.1//EN"
 "http://www.w3.org/Graphics/SVG/1.1/DTD/svg11.dtd">
<!-- Generated by graphviz version 2.36.0 (20140111.2315)
 -->
<!-- Title: Voxel::CLIManager::_videoModeCapabilities Pages: 1 -->
<svg width="416pt" height="61pt"
 viewBox="0.00 0.00 416.00 61.00" xmlns="http://www.w3.org/2000/svg" xmlns:xlink="http://www.w3.org/1999/xlink">
<g id="graph0" class="graph" transform="scale(1 1) rotate(0) translate(4 57)">
<title>Voxel::CLIManager::_videoModeCapabilities</title>
<!-- Node1 -->
<g id="node1" class="node"><title>Node1</title>
<polygon fill="#bfbfbf" stroke="black" points="0,-1 0,-31 120,-31 120,-1 0,-1"/>
<text text-anchor="start" x="8" y="-19" font-family="Helvetica,sans-Serif" font-size="10.00">Voxel::CLIManager::</text>
<text text-anchor="middle" x="60" y="-8" font-family="Helvetica,sans-Serif" font-size="10.00">_videoModeCapabilities</text>
</g>
<!-- Node2 -->
<g id="node2" class="node"><title>Node2</title>
<g id="a_node2"><a xlink:href="a00025.xhtml#a1caa7d89cf577f4728a114e78d1a5ba3" target="_top" xlink:title="Voxel::CLIManager::\l_videoMode">
<polygon fill="none" stroke="black" points="156.5,-23 156.5,-53 263.5,-53 263.5,-23 156.5,-23"/>
<text text-anchor="start" x="164.5" y="-41" font-family="Helvetica,sans-Serif" font-size="10.00">Voxel::CLIManager::</text>
<text text-anchor="middle" x="210" y="-30" font-family="Helvetica,sans-Serif" font-size="10.00">_videoMode</text>
</a>
</g>
</g>
<!-- Node1&#45;&gt;Node2 -->
<g id="edge1" class="edge"><title>Node1&#45;&gt;Node2</title>
<path fill="none" stroke="midnightblue" d="M130.483,-26.3286C139.177,-27.6209 147.954,-28.9256 156.332,-30.171"/>
<polygon fill="midnightblue" stroke="midnightblue" points="130.75,-22.8299 120.344,-24.8215 129.721,-29.7539 130.75,-22.8299"/>
</g>
<!-- Node3 -->
<g id="node3" class="node"><title>Node3</title>
<g id="a_node3"><a xlink:href="a00025.xhtml#a7a7ce51202c00d16a0e1cac5dcceb1e0" target="_top" xlink:title="Voxel::CLIManager::\lCLIManager">
<polygon fill="none" stroke="black" points="300.5,-1 300.5,-31 407.5,-31 407.5,-1 300.5,-1"/>
<text text-anchor="start" x="308.5" y="-19" font-family="Helvetica,sans-Serif" font-size="10.00">Voxel::CLIManager::</text>
<text text-anchor="middle" x="354" y="-8" font-family="Helvetica,sans-Serif" font-size="10.00">CLIManager</text>
</a>
</g>
</g>
<!-- Node1&#45;&gt;Node3 -->
<g id="edge3" class="edge"><title>Node1&#45;&gt;Node3</title>
<path fill="none" stroke="midnightblue" d="M130.176,-14.3738C138.87,-14.2195 147.641,-14.088 156,-14 203.997,-13.4948 216.003,-13.4608 264,-14 275.745,-14.132 288.361,-14.3618 300.295,-14.6199"/>
<polygon fill="midnightblue" stroke="midnightblue" points="129.968,-10.877 120.035,-14.5643 130.099,-17.8758 129.968,-10.877"/>
</g>
<!-- Node2&#45;&gt;Node3 -->
<g id="edge2" class="edge"><title>Node2&#45;&gt;Node3</title>
<path fill="none" stroke="midnightblue" d="M273.994,-28.2404C282.704,-26.8909 291.578,-25.5161 300.08,-24.1988"/>
<polygon fill="midnightblue" stroke="midnightblue" points="273.222,-24.8182 263.876,-29.808 274.294,-31.7356 273.222,-24.8182"/>
</g>
</g>
</svg>
