<?xml version="1.0" encoding="UTF-8" standalone="no"?>
<!DOCTYPE svg PUBLIC "-//W3C//DTD SVG 1.1//EN"
 "http://www.w3.org/Graphics/SVG/1.1/DTD/svg11.dtd">
<!-- Generated by graphviz version 2.36.0 (20140111.2315)
 -->
<!-- Title: Voxel::TI::HaddockVCOFrequency::set Pages: 1 -->
<svg width="778pt" height="38pt"
 viewBox="0.00 0.00 778.00 38.00" xmlns="http://www.w3.org/2000/svg" xmlns:xlink="http://www.w3.org/1999/xlink">
<g id="graph0" class="graph" transform="scale(1 1) rotate(0) translate(4 34)">
<title>Voxel::TI::HaddockVCOFrequency::set</title>
<!-- Node1 -->
<g id="node1" class="node"><title>Node1</title>
<polygon fill="#bfbfbf" stroke="black" points="0,-5.5 0,-24.5 188,-24.5 188,-5.5 0,-5.5"/>
<text text-anchor="middle" x="94" y="-12.5" font-family="Helvetica,sans-Serif" font-size="10.00">Voxel::TI::HaddockVCOFrequency::set</text>
</g>
<!-- Node2 -->
<g id="node2" class="node"><title>Node2</title>
<g id="a_node2"><a xlink:href="a00082.xhtml#a8d5c94e049e33f64004a99498511472b" target="_top" xlink:title="Voxel::TI::HaddockModulation\lFrequencyParameter::set">
<polygon fill="none" stroke="black" points="224.5,-0 224.5,-30 373.5,-30 373.5,-0 224.5,-0"/>
<text text-anchor="start" x="232.5" y="-18" font-family="Helvetica,sans-Serif" font-size="10.00">Voxel::TI::HaddockModulation</text>
<text text-anchor="middle" x="299" y="-7" font-family="Helvetica,sans-Serif" font-size="10.00">FrequencyParameter::set</text>
</a>
</g>
</g>
<!-- Node1&#45;&gt;Node2 -->
<g id="edge1" class="edge"><title>Node1&#45;&gt;Node2</title>
<path fill="none" stroke="midnightblue" d="M198.406,-15C207.121,-15 215.817,-15 224.237,-15"/>
<polygon fill="midnightblue" stroke="midnightblue" points="198.182,-11.5001 188.182,-15 198.182,-18.5001 198.182,-11.5001"/>
</g>
<!-- Node3 -->
<g id="node3" class="node"><title>Node3</title>
<g id="a_node3"><a xlink:href="a00084.xhtml#a0da082fe30df06fe3a29cfbc5908c55c" target="_top" xlink:title="Voxel::TI::HaddockUnambiguous\lRangeParameter::set">
<polygon fill="none" stroke="black" points="410.5,-0 410.5,-30 571.5,-30 571.5,-0 410.5,-0"/>
<text text-anchor="start" x="418.5" y="-18" font-family="Helvetica,sans-Serif" font-size="10.00">Voxel::TI::HaddockUnambiguous</text>
<text text-anchor="middle" x="491" y="-7" font-family="Helvetica,sans-Serif" font-size="10.00">RangeParameter::set</text>
</a>
</g>
</g>
<!-- Node2&#45;&gt;Node3 -->
<g id="edge2" class="edge"><title>Node2&#45;&gt;Node3</title>
<path fill="none" stroke="midnightblue" d="M383.947,-15C392.716,-15 401.611,-15 410.33,-15"/>
<polygon fill="midnightblue" stroke="midnightblue" points="383.731,-11.5001 373.731,-15 383.731,-18.5001 383.731,-11.5001"/>
</g>
<!-- Node4 -->
<g id="node4" class="node"><title>Node4</title>
<g id="a_node4"><a xlink:href="a00084.xhtml#a651affc3a71f50f73cd47963d30ed18b" target="_top" xlink:title="Voxel::TI::HaddockUnambiguous\lRangeParameter::get">
<polygon fill="none" stroke="black" points="608.5,-0 608.5,-30 769.5,-30 769.5,-0 608.5,-0"/>
<text text-anchor="start" x="616.5" y="-18" font-family="Helvetica,sans-Serif" font-size="10.00">Voxel::TI::HaddockUnambiguous</text>
<text text-anchor="middle" x="689" y="-7" font-family="Helvetica,sans-Serif" font-size="10.00">RangeParameter::get</text>
</a>
</g>
</g>
<!-- Node3&#45;&gt;Node4 -->
<g id="edge3" class="edge"><title>Node3&#45;&gt;Node4</title>
<path fill="none" stroke="midnightblue" d="M581.989,-15C590.785,-15 599.667,-15 608.35,-15"/>
<polygon fill="midnightblue" stroke="midnightblue" points="581.721,-11.5001 571.721,-15 581.721,-18.5001 581.721,-11.5001"/>
</g>
</g>
</svg>
