<?xml version="1.0" encoding="UTF-8" standalone="no"?>
<!DOCTYPE svg PUBLIC "-//W3C//DTD SVG 1.1//EN"
 "http://www.w3.org/Graphics/SVG/1.1/DTD/svg11.dtd">
<!-- Generated by graphviz version 2.36.0 (20140111.2315)
 -->
<!-- Title: Voxel::Device::serialIndex Pages: 1 -->
<svg width="686pt" height="126pt"
 viewBox="0.00 0.00 686.00 126.00" xmlns="http://www.w3.org/2000/svg" xmlns:xlink="http://www.w3.org/1999/xlink">
<g id="graph0" class="graph" transform="scale(1 1) rotate(0) translate(4 122)">
<title>Voxel::Device::serialIndex</title>
<!-- Node1 -->
<g id="node1" class="node"><title>Node1</title>
<polygon fill="#bfbfbf" stroke="black" points="0.5,-44.5 0.5,-63.5 131.5,-63.5 131.5,-44.5 0.5,-44.5"/>
<text text-anchor="middle" x="66" y="-51.5" font-family="Helvetica,sans-Serif" font-size="10.00">Voxel::Device::serialIndex</text>
</g>
<!-- Node2 -->
<g id="node2" class="node"><title>Node2</title>
<g id="a_node2"><a xlink:href="a00173.xhtml#a1cbfa177d183726f0e4a16cb45e30d35" target="_top" xlink:title="Voxel::USBSystemPrivate\l::getBusDevNumbers">
<polygon fill="none" stroke="black" points="179.5,-88 179.5,-118 312.5,-118 312.5,-88 179.5,-88"/>
<text text-anchor="start" x="187.5" y="-106" font-family="Helvetica,sans-Serif" font-size="10.00">Voxel::USBSystemPrivate</text>
<text text-anchor="middle" x="246" y="-95" font-family="Helvetica,sans-Serif" font-size="10.00">::getBusDevNumbers</text>
</a>
</g>
</g>
<!-- Node1&#45;&gt;Node2 -->
<g id="edge1" class="edge"><title>Node1&#45;&gt;Node2</title>
<path fill="none" stroke="midnightblue" d="M111.6,-66.2776C135.489,-72.8537 165.115,-81.0092 190.376,-87.963"/>
<polygon fill="midnightblue" stroke="midnightblue" points="112.313,-62.8437 101.743,-63.564 110.455,-69.5926 112.313,-62.8437"/>
</g>
<!-- Node5 -->
<g id="node5" class="node"><title>Node5</title>
<g id="a_node5"><a xlink:href="a00173.xhtml#af6f114a79ec61cc4815afc7828a84f85" target="_top" xlink:title="Voxel::USBSystemPrivate\l::getDeviceNode">
<polygon fill="none" stroke="black" points="179.5,-39 179.5,-69 312.5,-69 312.5,-39 179.5,-39"/>
<text text-anchor="start" x="187.5" y="-57" font-family="Helvetica,sans-Serif" font-size="10.00">Voxel::USBSystemPrivate</text>
<text text-anchor="middle" x="246" y="-46" font-family="Helvetica,sans-Serif" font-size="10.00">::getDeviceNode</text>
</a>
</g>
</g>
<!-- Node1&#45;&gt;Node5 -->
<g id="edge4" class="edge"><title>Node1&#45;&gt;Node5</title>
<path fill="none" stroke="midnightblue" d="M141.832,-54C154.248,-54 167.041,-54 179.211,-54"/>
<polygon fill="midnightblue" stroke="midnightblue" points="141.514,-50.5001 131.514,-54 141.514,-57.5001 141.514,-50.5001"/>
</g>
<!-- Node6 -->
<g id="node6" class="node"><title>Node6</title>
<g id="a_node6"><a xlink:href="a00167.xhtml#aafd454804e5804cb8364169762898db0" target="_top" xlink:title="Voxel::USBDevice::getDevices">
<polygon fill="none" stroke="black" points="168.5,-0.5 168.5,-19.5 323.5,-19.5 323.5,-0.5 168.5,-0.5"/>
<text text-anchor="middle" x="246" y="-7.5" font-family="Helvetica,sans-Serif" font-size="10.00">Voxel::USBDevice::getDevices</text>
</a>
</g>
</g>
<!-- Node1&#45;&gt;Node6 -->
<g id="edge5" class="edge"><title>Node1&#45;&gt;Node6</title>
<path fill="none" stroke="midnightblue" d="M115.42,-42.031C144.031,-34.9586 179.761,-26.1264 206.452,-19.5287"/>
<polygon fill="midnightblue" stroke="midnightblue" points="114.491,-38.6552 105.623,-44.4527 116.171,-45.4506 114.491,-38.6552"/>
</g>
<!-- Node3 -->
<g id="node3" class="node"><title>Node3</title>
<g id="a_node3"><a xlink:href="a00173.xhtml#a0a4343643663e5cb000014b35bec5802" target="_top" xlink:title="This does not look at the channel to determine which channel to use. ">
<polygon fill="none" stroke="black" points="360.5,-88 360.5,-118 493.5,-118 493.5,-88 360.5,-88"/>
<text text-anchor="start" x="368.5" y="-106" font-family="Helvetica,sans-Serif" font-size="10.00">Voxel::USBSystemPrivate</text>
<text text-anchor="middle" x="427" y="-95" font-family="Helvetica,sans-Serif" font-size="10.00">::getDeviceHandle</text>
</a>
</g>
</g>
<!-- Node2&#45;&gt;Node3 -->
<g id="edge2" class="edge"><title>Node2&#45;&gt;Node3</title>
<path fill="none" stroke="midnightblue" d="M322.979,-103C335.417,-103 348.211,-103 360.371,-103"/>
<polygon fill="midnightblue" stroke="midnightblue" points="322.637,-99.5001 312.637,-103 322.637,-106.5 322.637,-99.5001"/>
</g>
<!-- Node4 -->
<g id="node4" class="node"><title>Node4</title>
<g id="a_node4"><a xlink:href="a00171.xhtml#a72862681db5fbc61c173f711b60e76f3" target="_top" xlink:title="Voxel::USBIO::USBIOPrivate\l::USBIOPrivate">
<polygon fill="none" stroke="black" points="530.5,-88 530.5,-118 677.5,-118 677.5,-88 530.5,-88"/>
<text text-anchor="start" x="538.5" y="-106" font-family="Helvetica,sans-Serif" font-size="10.00">Voxel::USBIO::USBIOPrivate</text>
<text text-anchor="middle" x="604" y="-95" font-family="Helvetica,sans-Serif" font-size="10.00">::USBIOPrivate</text>
</a>
</g>
</g>
<!-- Node3&#45;&gt;Node4 -->
<g id="edge3" class="edge"><title>Node3&#45;&gt;Node4</title>
<path fill="none" stroke="midnightblue" d="M503.843,-103C512.596,-103 521.507,-103 530.219,-103"/>
<polygon fill="midnightblue" stroke="midnightblue" points="503.661,-99.5001 493.661,-103 503.661,-106.5 503.661,-99.5001"/>
</g>
</g>
</svg>
