<?xml version="1.0" encoding="UTF-8" standalone="no"?>
<!DOCTYPE svg PUBLIC "-//W3C//DTD SVG 1.1//EN"
 "http://www.w3.org/Graphics/SVG/1.1/DTD/svg11.dtd">
<!-- Generated by graphviz version 2.36.0 (20140111.2315)
 -->
<!-- Title: Voxel::MainConfigurationFile::writeToHardware Pages: 1 -->
<svg width="664pt" height="301pt"
 viewBox="0.00 0.00 664.00 301.00" xmlns="http://www.w3.org/2000/svg" xmlns:xlink="http://www.w3.org/1999/xlink">
<g id="graph0" class="graph" transform="scale(1 1) rotate(0) translate(4 297)">
<title>Voxel::MainConfigurationFile::writeToHardware</title>
<!-- Node1 -->
<g id="node1" class="node"><title>Node1</title>
<polygon fill="#bfbfbf" stroke="black" points="0,-131 0,-161 126,-161 126,-131 0,-131"/>
<text text-anchor="start" x="8" y="-149" font-family="Helvetica,sans-Serif" font-size="10.00">Voxel::MainConfiguration</text>
<text text-anchor="middle" x="63" y="-138" font-family="Helvetica,sans-Serif" font-size="10.00">File::writeToHardware</text>
</g>
<!-- Node2 -->
<g id="node2" class="node"><title>Node2</title>
<g id="a_node2"><a xlink:href="a00127.xhtml#aac0058e6b0ea0cb6ac86f4e986f6de25" target="_top" xlink:title="Voxel::SerializedObject\l::getBytes">
<polygon fill="none" stroke="black" points="184.5,-263 184.5,-293 303.5,-293 303.5,-263 184.5,-263"/>
<text text-anchor="start" x="192.5" y="-281" font-family="Helvetica,sans-Serif" font-size="10.00">Voxel::SerializedObject</text>
<text text-anchor="middle" x="244" y="-270" font-family="Helvetica,sans-Serif" font-size="10.00">::getBytes</text>
</a>
</g>
</g>
<!-- Node1&#45;&gt;Node2 -->
<g id="edge1" class="edge"><title>Node1&#45;&gt;Node2</title>
<path fill="none" stroke="midnightblue" d="M73.8599,-161.125C89.7076,-184.262 123.049,-228.345 162,-253 166.061,-255.57 170.404,-257.892 174.891,-259.986"/>
<polygon fill="midnightblue" stroke="midnightblue" points="173.687,-263.277 184.259,-263.972 176.428,-256.836 173.687,-263.277"/>
</g>
<!-- Node3 -->
<g id="node3" class="node"><title>Node3</title>
<g id="a_node3"><a xlink:href="a00136.xhtml#a363a248fe7dd94ae58681cf145b23a23" target="_top" xlink:title="Voxel::Timer::getCurentRealTime">
<polygon fill="none" stroke="black" points="162.5,-224.5 162.5,-243.5 325.5,-243.5 325.5,-224.5 162.5,-224.5"/>
<text text-anchor="middle" x="244" y="-231.5" font-family="Helvetica,sans-Serif" font-size="10.00">Voxel::Timer::getCurentRealTime</text>
</a>
</g>
</g>
<!-- Node1&#45;&gt;Node3 -->
<g id="edge2" class="edge"><title>Node1&#45;&gt;Node3</title>
<path fill="none" stroke="midnightblue" d="M81.5698,-161.185C100.304,-176.626 131.427,-200.188 162,-214 168.297,-216.845 175.06,-219.324 181.896,-221.475"/>
<polygon fill="midnightblue" stroke="midnightblue" points="181.339,-224.958 191.919,-224.396 183.297,-218.238 181.339,-224.958"/>
</g>
<!-- Node4 -->
<g id="node4" class="node"><title>Node4</title>
<g id="a_node4"><a xlink:href="a00030.xhtml#a71d00cf21a3da3339b2db126239d17b6" target="_top" xlink:title="Voxel::Configuration\l::getLocalConfPath">
<polygon fill="none" stroke="black" points="191.5,-175 191.5,-205 296.5,-205 296.5,-175 191.5,-175"/>
<text text-anchor="start" x="199.5" y="-193" font-family="Helvetica,sans-Serif" font-size="10.00">Voxel::Configuration</text>
<text text-anchor="middle" x="244" y="-182" font-family="Helvetica,sans-Serif" font-size="10.00">::getLocalConfPath</text>
</a>
</g>
</g>
<!-- Node1&#45;&gt;Node4 -->
<g id="edge3" class="edge"><title>Node1&#45;&gt;Node4</title>
<path fill="none" stroke="midnightblue" d="M125.101,-161.019C143.303,-165.493 163.253,-170.397 181.481,-174.878"/>
<polygon fill="midnightblue" stroke="midnightblue" points="180.862,-178.33 191.409,-177.318 182.533,-171.532 180.862,-178.33"/>
</g>
<!-- Node5 -->
<g id="node5" class="node"><title>Node5</title>
<g id="a_node5"><a xlink:href="a00127.xhtml#a93bedaae4489eeac130ea6a98be2589c" target="_top" xlink:title="Voxel::SerializedObject::put">
<polygon fill="none" stroke="black" points="362,-95.5 362,-114.5 500,-114.5 500,-95.5 362,-95.5"/>
<text text-anchor="middle" x="431" y="-102.5" font-family="Helvetica,sans-Serif" font-size="10.00">Voxel::SerializedObject::put</text>
</a>
</g>
</g>
<!-- Node1&#45;&gt;Node5 -->
<g id="edge4" class="edge"><title>Node1&#45;&gt;Node5</title>
<path fill="none" stroke="midnightblue" d="M126.16,-136.724C138.046,-135.062 150.399,-133.412 162,-132 225.779,-124.235 298.295,-117.028 351.797,-112.016"/>
<polygon fill="midnightblue" stroke="midnightblue" points="352.265,-115.488 361.897,-111.075 351.616,-108.518 352.265,-115.488"/>
</g>
<!-- Node6 -->
<g id="node6" class="node"><title>Node6</title>
<g id="a_node6"><a xlink:href="a00127.xhtml#adf11acb91f4adf3fe582a778c12b6286" target="_top" xlink:title="Voxel::SerializedObject\l::size">
<polygon fill="none" stroke="black" points="536.5,-90 536.5,-120 655.5,-120 655.5,-90 536.5,-90"/>
<text text-anchor="start" x="544.5" y="-108" font-family="Helvetica,sans-Serif" font-size="10.00">Voxel::SerializedObject</text>
<text text-anchor="middle" x="596" y="-97" font-family="Helvetica,sans-Serif" font-size="10.00">::size</text>
</a>
</g>
</g>
<!-- Node1&#45;&gt;Node6 -->
<g id="edge7" class="edge"><title>Node1&#45;&gt;Node6</title>
<path fill="none" stroke="midnightblue" d="M126.343,-145.727C211.191,-144.702 367.631,-140.486 500,-124 508.61,-122.928 517.608,-121.516 526.487,-119.945"/>
<polygon fill="midnightblue" stroke="midnightblue" points="527.234,-123.367 536.435,-118.114 525.966,-116.482 527.234,-123.367"/>
</g>
<!-- Node7 -->
<g id="node7" class="node"><title>Node7</title>
<g id="a_node7"><a xlink:href="a00127.xhtml#a28bffcfa230e90768ea678269a782381" target="_top" xlink:title="Voxel::SerializedObject\l::resize">
<polygon fill="none" stroke="black" points="184.5,-49 184.5,-79 303.5,-79 303.5,-49 184.5,-49"/>
<text text-anchor="start" x="192.5" y="-67" font-family="Helvetica,sans-Serif" font-size="10.00">Voxel::SerializedObject</text>
<text text-anchor="middle" x="244" y="-56" font-family="Helvetica,sans-Serif" font-size="10.00">::resize</text>
</a>
</g>
</g>
<!-- Node1&#45;&gt;Node7 -->
<g id="edge6" class="edge"><title>Node1&#45;&gt;Node7</title>
<path fill="none" stroke="midnightblue" d="M90.1447,-130.902C109.618,-119.96 137.041,-105.184 162,-94 170.735,-90.0859 180.149,-86.2587 189.362,-82.7183"/>
<polygon fill="midnightblue" stroke="midnightblue" points="190.729,-85.9434 198.851,-79.1411 188.26,-79.3933 190.729,-85.9434"/>
</g>
<!-- Node8 -->
<g id="node8" class="node"><title>Node8</title>
<g id="a_node8"><a xlink:href="a00035.xhtml#a2e4fcc8c2b6fa1ec9bbe823a91d534c7" target="_top" xlink:title="Voxel::DataPacket::\lwrite">
<polygon fill="none" stroke="black" points="191.5,-0 191.5,-30 296.5,-30 296.5,-0 191.5,-0"/>
<text text-anchor="start" x="199.5" y="-18" font-family="Helvetica,sans-Serif" font-size="10.00">Voxel::DataPacket::</text>
<text text-anchor="middle" x="244" y="-7" font-family="Helvetica,sans-Serif" font-size="10.00">write</text>
</a>
</g>
</g>
<!-- Node1&#45;&gt;Node8 -->
<g id="edge8" class="edge"><title>Node1&#45;&gt;Node8</title>
<path fill="none" stroke="midnightblue" d="M73.826,-130.821C89.6285,-107.613 122.91,-63.4346 162,-39 168.156,-35.1518 174.96,-31.8944 181.931,-29.1433"/>
<polygon fill="midnightblue" stroke="midnightblue" points="183.274,-32.3799 191.495,-25.6977 180.901,-25.7943 183.274,-32.3799"/>
</g>
<!-- Node5&#45;&gt;Node6 -->
<g id="edge5" class="edge"><title>Node5&#45;&gt;Node6</title>
<path fill="none" stroke="midnightblue" d="M500.182,-105C508.835,-105 517.694,-105 526.354,-105"/>
<polygon fill="midnightblue" stroke="midnightblue" points="526.405,-108.5 536.405,-105 526.405,-101.5 526.405,-108.5"/>
</g>
<!-- Node8&#45;&gt;Node5 -->
<g id="edge11" class="edge"><title>Node8&#45;&gt;Node5</title>
<path fill="none" stroke="midnightblue" d="M296.801,-26.0478C306.888,-29.3697 317.088,-33.6142 326,-39 345.637,-50.8665 343.078,-63.024 362,-76 370.903,-82.1057 381.298,-87.3299 391.242,-91.5928"/>
<polygon fill="midnightblue" stroke="midnightblue" points="389.992,-94.8629 400.574,-95.3827 392.626,-88.3773 389.992,-94.8629"/>
</g>
<!-- Node8&#45;&gt;Node6 -->
<g id="edge9" class="edge"><title>Node8&#45;&gt;Node6</title>
<path fill="none" stroke="midnightblue" d="M296.644,-28.2798C357.631,-43.9622 459.286,-70.1022 526.728,-87.4443"/>
<polygon fill="midnightblue" stroke="midnightblue" points="525.864,-90.8361 536.421,-89.9368 527.608,-84.0566 525.864,-90.8361"/>
</g>
<!-- Node9 -->
<g id="node9" class="node"><title>Node9</title>
<g id="a_node9"><a xlink:href="a00127.xhtml#a602414fea53034e304c0e6fcae5bb71b" target="_top" xlink:title="Voxel::SerializedObject\l::currentPutOffset">
<polygon fill="none" stroke="black" points="371.5,-0 371.5,-30 490.5,-30 490.5,-0 371.5,-0"/>
<text text-anchor="start" x="379.5" y="-18" font-family="Helvetica,sans-Serif" font-size="10.00">Voxel::SerializedObject</text>
<text text-anchor="middle" x="431" y="-7" font-family="Helvetica,sans-Serif" font-size="10.00">::currentPutOffset</text>
</a>
</g>
</g>
<!-- Node8&#45;&gt;Node9 -->
<g id="edge10" class="edge"><title>Node8&#45;&gt;Node9</title>
<path fill="none" stroke="midnightblue" d="M296.533,-15C316.561,-15 339.801,-15 361.221,-15"/>
<polygon fill="midnightblue" stroke="midnightblue" points="361.24,-18.5001 371.24,-15 361.24,-11.5001 361.24,-18.5001"/>
</g>
</g>
</svg>
