<?xml version="1.0" encoding="UTF-8" standalone="no"?>
<!DOCTYPE svg PUBLIC "-//W3C//DTD SVG 1.1//EN"
 "http://www.w3.org/Graphics/SVG/1.1/DTD/svg11.dtd">
<!-- Generated by graphviz version 2.36.0 (20140111.2315)
 -->
<!-- Title: Voxel::CameraSystem::connect Pages: 1 -->
<svg width="412pt" height="115pt"
 viewBox="0.00 0.00 412.00 115.00" xmlns="http://www.w3.org/2000/svg" xmlns:xlink="http://www.w3.org/1999/xlink">
<g id="graph0" class="graph" transform="scale(1 1) rotate(0) translate(4 111)">
<title>Voxel::CameraSystem::connect</title>
<!-- Node1 -->
<g id="node1" class="node"><title>Node1</title>
<polygon fill="#bfbfbf" stroke="black" points="0,-33 0,-63 116,-63 116,-33 0,-33"/>
<text text-anchor="start" x="8" y="-51" font-family="Helvetica,sans-Serif" font-size="10.00">Voxel::CameraSystem</text>
<text text-anchor="middle" x="58" y="-40" font-family="Helvetica,sans-Serif" font-size="10.00">::connect</text>
</g>
<!-- Node2 -->
<g id="node2" class="node"><title>Node2</title>
<g id="a_node2"><a xlink:href="a00025.xhtml#ade2c73e82b7148ab8e998fb89fbfb858" target="_top" xlink:title="Voxel::CLIManager::\l_connect">
<polygon fill="none" stroke="black" points="152.5,-77 152.5,-107 259.5,-107 259.5,-77 152.5,-77"/>
<text text-anchor="start" x="160.5" y="-95" font-family="Helvetica,sans-Serif" font-size="10.00">Voxel::CLIManager::</text>
<text text-anchor="middle" x="206" y="-84" font-family="Helvetica,sans-Serif" font-size="10.00">_connect</text>
</a>
</g>
</g>
<!-- Node1&#45;&gt;Node2 -->
<g id="edge1" class="edge"><title>Node1&#45;&gt;Node2</title>
<path fill="none" stroke="midnightblue" d="M118.77,-66.0129C130.769,-69.6292 143.262,-73.3941 154.892,-76.8991"/>
<polygon fill="midnightblue" stroke="midnightblue" points="119.421,-62.5537 108.837,-63.0192 117.401,-69.2559 119.421,-62.5537"/>
</g>
<!-- Node3 -->
<g id="node3" class="node"><title>Node3</title>
<g id="a_node3"><a xlink:href="a00025.xhtml#a7a7ce51202c00d16a0e1cac5dcceb1e0" target="_top" xlink:title="Voxel::CLIManager::\lCLIManager">
<polygon fill="none" stroke="black" points="296.5,-55 296.5,-85 403.5,-85 403.5,-55 296.5,-55"/>
<text text-anchor="start" x="304.5" y="-73" font-family="Helvetica,sans-Serif" font-size="10.00">Voxel::CLIManager::</text>
<text text-anchor="middle" x="350" y="-62" font-family="Helvetica,sans-Serif" font-size="10.00">CLIManager</text>
</a>
</g>
</g>
<!-- Node1&#45;&gt;Node3 -->
<g id="edge3" class="edge"><title>Node1&#45;&gt;Node3</title>
<path fill="none" stroke="midnightblue" d="M126.38,-53.1116C178.112,-57.0361 248.536,-62.3786 296.218,-65.9958"/>
<polygon fill="midnightblue" stroke="midnightblue" points="126.531,-49.6131 116.295,-52.3465 126.001,-56.593 126.531,-49.6131"/>
</g>
<!-- Node4 -->
<g id="node4" class="node"><title>Node4</title>
<g id="a_node4"><a xlink:href="a00217.xhtml#a0ddf1224851353fc92bfbff6f499fa97" target="_top" xlink:title="main">
<polygon fill="none" stroke="black" points="187,-0.5 187,-19.5 225,-19.5 225,-0.5 187,-0.5"/>
<text text-anchor="middle" x="206" y="-7.5" font-family="Helvetica,sans-Serif" font-size="10.00">main</text>
</a>
</g>
</g>
<!-- Node1&#45;&gt;Node4 -->
<g id="edge4" class="edge"><title>Node1&#45;&gt;Node4</title>
<path fill="none" stroke="midnightblue" d="M126.087,-30.5389C148.34,-24.7472 171.329,-18.7636 186.713,-14.7596"/>
<polygon fill="midnightblue" stroke="midnightblue" points="125.08,-27.1844 116.284,-33.0905 126.843,-33.9587 125.08,-27.1844"/>
</g>
<!-- Node2&#45;&gt;Node3 -->
<g id="edge2" class="edge"><title>Node2&#45;&gt;Node3</title>
<path fill="none" stroke="midnightblue" d="M269.994,-82.2404C278.704,-80.8909 287.578,-79.5161 296.08,-78.1988"/>
<polygon fill="midnightblue" stroke="midnightblue" points="269.222,-78.8182 259.876,-83.808 270.294,-85.7356 269.222,-78.8182"/>
</g>
</g>
</svg>
