<?xml version="1.0" encoding="UTF-8" standalone="no"?>
<!DOCTYPE svg PUBLIC "-//W3C//DTD SVG 1.1//EN"
 "http://www.w3.org/Graphics/SVG/1.1/DTD/svg11.dtd">
<!-- Generated by graphviz version 2.36.0 (20140111.2315)
 -->
<!-- Title: Voxel::CameraSystem::scan Pages: 1 -->
<svg width="640pt" height="38pt"
 viewBox="0.00 0.00 640.00 38.00" xmlns="http://www.w3.org/2000/svg" xmlns:xlink="http://www.w3.org/1999/xlink">
<g id="graph0" class="graph" transform="scale(1 1) rotate(0) translate(4 34)">
<title>Voxel::CameraSystem::scan</title>
<!-- Node1 -->
<g id="node1" class="node"><title>Node1</title>
<polygon fill="#bfbfbf" stroke="black" points="0,-0 0,-30 116,-30 116,-0 0,-0"/>
<text text-anchor="start" x="8" y="-18" font-family="Helvetica,sans-Serif" font-size="10.00">Voxel::CameraSystem</text>
<text text-anchor="middle" x="58" y="-7" font-family="Helvetica,sans-Serif" font-size="10.00">::scan</text>
</g>
<!-- Node2 -->
<g id="node2" class="node"><title>Node2</title>
<g id="a_node2"><a xlink:href="a00044.xhtml#acfd0c97ee8c1d7c33eed279416a8b0a5" target="_top" xlink:title="Voxel::DeviceScanner\l::scan">
<polygon fill="none" stroke="black" points="152,-0 152,-30 266,-30 266,-0 152,-0"/>
<text text-anchor="start" x="160" y="-18" font-family="Helvetica,sans-Serif" font-size="10.00">Voxel::DeviceScanner</text>
<text text-anchor="middle" x="209" y="-7" font-family="Helvetica,sans-Serif" font-size="10.00">::scan</text>
</a>
</g>
</g>
<!-- Node1&#45;&gt;Node2 -->
<g id="edge1" class="edge"><title>Node1&#45;&gt;Node2</title>
<path fill="none" stroke="midnightblue" d="M116.181,-15C124.466,-15 133.054,-15 141.502,-15"/>
<polygon fill="midnightblue" stroke="midnightblue" points="141.709,-18.5001 151.709,-15 141.709,-11.5001 141.709,-18.5001"/>
</g>
<!-- Node3 -->
<g id="node3" class="node"><title>Node3</title>
<g id="a_node3"><a xlink:href="a00168.xhtml#ac69e2e7bc897f304afab90acdbd004a6" target="_top" xlink:title="Voxel::USBDeviceScanner\l::_scan">
<polygon fill="none" stroke="black" points="302.5,-0 302.5,-30 437.5,-30 437.5,-0 302.5,-0"/>
<text text-anchor="start" x="310.5" y="-18" font-family="Helvetica,sans-Serif" font-size="10.00">Voxel::USBDeviceScanner</text>
<text text-anchor="middle" x="370" y="-7" font-family="Helvetica,sans-Serif" font-size="10.00">::_scan</text>
</a>
</g>
</g>
<!-- Node2&#45;&gt;Node3 -->
<g id="edge2" class="edge"><title>Node2&#45;&gt;Node3</title>
<path fill="none" stroke="midnightblue" d="M266.057,-15C274.476,-15 283.279,-15 292.042,-15"/>
<polygon fill="midnightblue" stroke="midnightblue" points="292.283,-18.5001 302.283,-15 292.283,-11.5001 292.283,-18.5001"/>
</g>
<!-- Node4 -->
<g id="node4" class="node"><title>Node4</title>
<g id="a_node4"><a xlink:href="a00172.xhtml#abbc09af335ace0ddfca5b74c63abf519" target="_top" xlink:title="Voxel::USBSystem::getDevices">
<polygon fill="none" stroke="black" points="474,-5.5 474,-24.5 632,-24.5 632,-5.5 474,-5.5"/>
<text text-anchor="middle" x="553" y="-12.5" font-family="Helvetica,sans-Serif" font-size="10.00">Voxel::USBSystem::getDevices</text>
</a>
</g>
</g>
<!-- Node3&#45;&gt;Node4 -->
<g id="edge3" class="edge"><title>Node3&#45;&gt;Node4</title>
<path fill="none" stroke="midnightblue" d="M437.627,-15C446.103,-15 454.881,-15 463.632,-15"/>
<polygon fill="midnightblue" stroke="midnightblue" points="463.873,-18.5001 473.873,-15 463.872,-11.5001 463.873,-18.5001"/>
</g>
</g>
</svg>
