<?xml version="1.0" encoding="UTF-8" standalone="no"?>
<!DOCTYPE svg PUBLIC "-//W3C//DTD SVG 1.1//EN"
 "http://www.w3.org/Graphics/SVG/1.1/DTD/svg11.dtd">
<!-- Generated by graphviz version 2.36.0 (20140111.2315)
 -->
<!-- Title: Voxel::FrameStreamWriter::isStreamGood Pages: 1 -->
<svg width="322pt" height="87pt"
 viewBox="0.00 0.00 322.00 87.00" xmlns="http://www.w3.org/2000/svg" xmlns:xlink="http://www.w3.org/1999/xlink">
<g id="graph0" class="graph" transform="scale(1 1) rotate(0) translate(4 83)">
<title>Voxel::FrameStreamWriter::isStreamGood</title>
<!-- Node1 -->
<g id="node1" class="node"><title>Node1</title>
<polygon fill="#bfbfbf" stroke="black" points="0.5,-24 0.5,-54 133.5,-54 133.5,-24 0.5,-24"/>
<text text-anchor="start" x="8.5" y="-42" font-family="Helvetica,sans-Serif" font-size="10.00">Voxel::FrameStreamWriter</text>
<text text-anchor="middle" x="67" y="-31" font-family="Helvetica,sans-Serif" font-size="10.00">::isStreamGood</text>
</g>
<!-- Node2 -->
<g id="node2" class="node"><title>Node2</title>
<g id="a_node2"><a xlink:href="a00075.xhtml#ae6545923dae5dfbde2dc3a24518b6e1e" target="_top" xlink:title="Voxel::FrameStreamWriter\l::write">
<polygon fill="none" stroke="black" points="175.5,-49 175.5,-79 308.5,-79 308.5,-49 175.5,-49"/>
<text text-anchor="start" x="183.5" y="-67" font-family="Helvetica,sans-Serif" font-size="10.00">Voxel::FrameStreamWriter</text>
<text text-anchor="middle" x="242" y="-56" font-family="Helvetica,sans-Serif" font-size="10.00">::write</text>
</a>
</g>
</g>
<!-- Node1&#45;&gt;Node2 -->
<g id="edge1" class="edge"><title>Node1&#45;&gt;Node2</title>
<path fill="none" stroke="midnightblue" d="M143.855,-49.9617C154.329,-51.4753 165.015,-53.0196 175.286,-54.5037"/>
<polygon fill="midnightblue" stroke="midnightblue" points="144.295,-46.489 133.897,-48.5227 143.294,-53.4171 144.295,-46.489"/>
</g>
<!-- Node3 -->
<g id="node3" class="node"><title>Node3</title>
<g id="a_node3"><a xlink:href="a00075.xhtml#a412f87307f69dfc0dce00bc5cd97bd12" target="_top" xlink:title="Voxel::FrameStreamWriter\l::writeGeneratorConfiguration">
<polygon fill="none" stroke="black" points="170,-0 170,-30 314,-30 314,-0 170,-0"/>
<text text-anchor="start" x="178" y="-18" font-family="Helvetica,sans-Serif" font-size="10.00">Voxel::FrameStreamWriter</text>
<text text-anchor="middle" x="242" y="-7" font-family="Helvetica,sans-Serif" font-size="10.00">::writeGeneratorConfiguration</text>
</a>
</g>
</g>
<!-- Node1&#45;&gt;Node3 -->
<g id="edge2" class="edge"><title>Node1&#45;&gt;Node3</title>
<path fill="none" stroke="midnightblue" d="M143.914,-28.4686C152.52,-27.2747 161.268,-26.0611 169.81,-24.876"/>
<polygon fill="midnightblue" stroke="midnightblue" points="143.322,-25.0172 133.897,-29.8582 144.284,-31.9508 143.322,-25.0172"/>
</g>
</g>
</svg>
