<?xml version="1.0" encoding="UTF-8" standalone="no"?>
<!DOCTYPE svg PUBLIC "-//W3C//DTD SVG 1.1//EN"
 "http://www.w3.org/Graphics/SVG/1.1/DTD/svg11.dtd">
<!-- Generated by graphviz version 2.36.0 (20140111.2315)
 -->
<!-- Title: Voxel::DepthCamera::stop Pages: 1 -->
<svg width="404pt" height="77pt"
 viewBox="0.00 0.00 404.00 77.00" xmlns="http://www.w3.org/2000/svg" xmlns:xlink="http://www.w3.org/1999/xlink">
<g id="graph0" class="graph" transform="scale(1 1) rotate(0) translate(4 73)">
<title>Voxel::DepthCamera::stop</title>
<!-- Node1 -->
<g id="node1" class="node"><title>Node1</title>
<polygon fill="#bfbfbf" stroke="black" points="0,-17 0,-47 108,-47 108,-17 0,-17"/>
<text text-anchor="start" x="8" y="-35" font-family="Helvetica,sans-Serif" font-size="10.00">Voxel::DepthCamera</text>
<text text-anchor="middle" x="54" y="-24" font-family="Helvetica,sans-Serif" font-size="10.00">::stop</text>
</g>
<!-- Node2 -->
<g id="node2" class="node"><title>Node2</title>
<g id="a_node2"><a xlink:href="a00036.xhtml#aa79e1956fadd8f87ad0026e861802f79" target="_top" xlink:title="Voxel::DepthCamera\l::close">
<polygon fill="none" stroke="black" points="144,-39 144,-69 252,-69 252,-39 144,-39"/>
<text text-anchor="start" x="152" y="-57" font-family="Helvetica,sans-Serif" font-size="10.00">Voxel::DepthCamera</text>
<text text-anchor="middle" x="198" y="-46" font-family="Helvetica,sans-Serif" font-size="10.00">::close</text>
</a>
</g>
</g>
<!-- Node1&#45;&gt;Node2 -->
<g id="edge1" class="edge"><title>Node1&#45;&gt;Node2</title>
<path fill="none" stroke="midnightblue" d="M118.238,-41.7974C126.806,-43.1249 135.528,-44.4761 143.894,-45.7723"/>
<polygon fill="midnightblue" stroke="midnightblue" points="118.698,-38.327 108.28,-40.2546 117.626,-45.2444 118.698,-38.327"/>
</g>
<!-- Node4 -->
<g id="node4" class="node"><title>Node4</title>
<g id="a_node4"><a xlink:href="a00217.xhtml#a0ddf1224851353fc92bfbff6f499fa97" target="_top" xlink:title="main">
<polygon fill="none" stroke="black" points="179,-0.5 179,-19.5 217,-19.5 217,-0.5 179,-0.5"/>
<text text-anchor="middle" x="198" y="-7.5" font-family="Helvetica,sans-Serif" font-size="10.00">main</text>
</a>
</g>
</g>
<!-- Node1&#45;&gt;Node4 -->
<g id="edge3" class="edge"><title>Node1&#45;&gt;Node4</title>
<path fill="none" stroke="midnightblue" d="M118.321,-22.1897C140.397,-18.7695 163.475,-15.1941 178.883,-12.8069"/>
<polygon fill="midnightblue" stroke="midnightblue" points="117.626,-18.7556 108.28,-23.7454 118.698,-25.673 117.626,-18.7556"/>
</g>
<!-- Node3 -->
<g id="node3" class="node"><title>Node3</title>
<g id="a_node3"><a xlink:href="a00036.xhtml#a4f204a8d71e4a806cc822d80bbf44c67" target="_top" xlink:title="Voxel::DepthCamera\l::~DepthCamera">
<polygon fill="none" stroke="black" points="288,-39 288,-69 396,-69 396,-39 288,-39"/>
<text text-anchor="start" x="296" y="-57" font-family="Helvetica,sans-Serif" font-size="10.00">Voxel::DepthCamera</text>
<text text-anchor="middle" x="342" y="-46" font-family="Helvetica,sans-Serif" font-size="10.00">::~DepthCamera</text>
</a>
</g>
</g>
<!-- Node2&#45;&gt;Node3 -->
<g id="edge2" class="edge"><title>Node2&#45;&gt;Node3</title>
<path fill="none" stroke="midnightblue" d="M262.517,-54C270.996,-54 279.618,-54 287.894,-54"/>
<polygon fill="midnightblue" stroke="midnightblue" points="262.28,-50.5001 252.28,-54 262.28,-57.5001 262.28,-50.5001"/>
</g>
</g>
</svg>
