<?xml version="1.0" encoding="UTF-8" standalone="no"?>
<!DOCTYPE svg PUBLIC "-//W3C//DTD SVG 1.1//EN"
 "http://www.w3.org/Graphics/SVG/1.1/DTD/svg11.dtd">
<!-- Generated by graphviz version 2.36.0 (20140111.2315)
 -->
<!-- Title: Voxel::ConfigurationFile::_get Pages: 1 -->
<svg width="1526pt" height="431pt"
 viewBox="0.00 0.00 1526.00 431.00" xmlns="http://www.w3.org/2000/svg" xmlns:xlink="http://www.w3.org/1999/xlink">
<g id="graph0" class="graph" transform="scale(1 1) rotate(0) translate(4 427)">
<title>Voxel::ConfigurationFile::_get</title>
<!-- Node1 -->
<g id="node1" class="node"><title>Node1</title>
<polygon fill="#bfbfbf" stroke="black" points="0.5,-260 0.5,-290 121.5,-290 121.5,-260 0.5,-260"/>
<text text-anchor="start" x="8.5" y="-278" font-family="Helvetica,sans-Serif" font-size="10.00">Voxel::ConfigurationFile</text>
<text text-anchor="middle" x="61" y="-267" font-family="Helvetica,sans-Serif" font-size="10.00">::_get</text>
</g>
<!-- Node1&#45;&gt;Node1 -->
<g id="edge1" class="edge"><title>Node1&#45;&gt;Node1</title>
<path fill="none" stroke="midnightblue" d="M31.9438,-300.598C35.9142,-304.97 45.5996,-308 61,-308 86.9375,-308 96.6641,-299.406 90.1797,-290.275"/>
<polygon fill="midnightblue" stroke="midnightblue" points="35.4398,-300.233 31.8203,-290.275 28.4403,-300.317 35.4398,-300.233"/>
</g>
<!-- Node2 -->
<g id="node2" class="node"><title>Node2</title>
<g id="a_node2"><a xlink:href="a00031.xhtml#ac104a6730605a5926e9d9ce9ec7bb60a" target="_top" xlink:title="Voxel::ConfigurationFile::get">
<polygon fill="none" stroke="black" points="158,-287.5 158,-306.5 298,-306.5 298,-287.5 158,-287.5"/>
<text text-anchor="middle" x="228" y="-294.5" font-family="Helvetica,sans-Serif" font-size="10.00">Voxel::ConfigurationFile::get</text>
</a>
</g>
</g>
<!-- Node1&#45;&gt;Node2 -->
<g id="edge2" class="edge"><title>Node1&#45;&gt;Node2</title>
<path fill="none" stroke="midnightblue" d="M131.676,-284.29C140.383,-285.451 149.285,-286.638 157.981,-287.797"/>
<polygon fill="midnightblue" stroke="midnightblue" points="131.944,-280.795 121.569,-282.943 131.018,-287.734 131.944,-280.795"/>
</g>
<!-- Node22 -->
<g id="node22" class="node"><title>Node22</title>
<g id="a_node22"><a xlink:href="a00096.xhtml#a0450eaddb1180226c1a3e898e978aba4" target="_top" xlink:title="Voxel::MainConfiguration\lFile::get">
<polygon fill="none" stroke="black" points="814,-239 814,-269 940,-269 940,-239 814,-239"/>
<text text-anchor="start" x="822" y="-257" font-family="Helvetica,sans-Serif" font-size="10.00">Voxel::MainConfiguration</text>
<text text-anchor="middle" x="877" y="-246" font-family="Helvetica,sans-Serif" font-size="10.00">File::get</text>
</a>
</g>
</g>
<!-- Node1&#45;&gt;Node22 -->
<g id="edge22" class="edge"><title>Node1&#45;&gt;Node22</title>
<path fill="none" stroke="midnightblue" d="M131.744,-267.726C199.253,-261.319 304.521,-253 396,-253 396,-253 396,-253 551,-253 642.548,-253 748.6,-253.402 813.998,-253.696"/>
<polygon fill="midnightblue" stroke="midnightblue" points="131.272,-264.255 121.653,-268.696 131.942,-271.223 131.272,-264.255"/>
</g>
<!-- Node3 -->
<g id="node3" class="node"><title>Node3</title>
<g id="a_node3"><a xlink:href="a00096.xhtml#a3f47c852116bdee8f049cdf1b15959ff" target="_top" xlink:title="Voxel::MainConfiguration\lFile::read">
<polygon fill="none" stroke="black" points="334,-282 334,-312 460,-312 460,-282 334,-282"/>
<text text-anchor="start" x="342" y="-300" font-family="Helvetica,sans-Serif" font-size="10.00">Voxel::MainConfiguration</text>
<text text-anchor="middle" x="397" y="-289" font-family="Helvetica,sans-Serif" font-size="10.00">File::read</text>
</a>
</g>
</g>
<!-- Node2&#45;&gt;Node3 -->
<g id="edge3" class="edge"><title>Node2&#45;&gt;Node3</title>
<path fill="none" stroke="midnightblue" d="M308.626,-297C317.072,-297 325.572,-297 333.777,-297"/>
<polygon fill="midnightblue" stroke="midnightblue" points="308.372,-293.5 298.372,-297 308.372,-300.5 308.372,-293.5"/>
</g>
<!-- Node5 -->
<g id="node5" class="node"><title>Node5</title>
<g id="a_node5"><a xlink:href="a00096.xhtml#ab801a8f7e2eabaf3f524877c5c257fa2" target="_top" xlink:title="Voxel::MainConfiguration\lFile::readFromHardware">
<polygon fill="none" stroke="black" points="334,-331 334,-361 460,-361 460,-331 334,-331"/>
<text text-anchor="start" x="342" y="-349" font-family="Helvetica,sans-Serif" font-size="10.00">Voxel::MainConfiguration</text>
<text text-anchor="middle" x="397" y="-338" font-family="Helvetica,sans-Serif" font-size="10.00">File::readFromHardware</text>
</a>
</g>
</g>
<!-- Node2&#45;&gt;Node5 -->
<g id="edge5" class="edge"><title>Node2&#45;&gt;Node5</title>
<path fill="none" stroke="midnightblue" d="M271.446,-309.454C293.752,-315.999 321.263,-324.071 344.752,-330.963"/>
<polygon fill="midnightblue" stroke="midnightblue" points="272.177,-306.021 261.596,-306.564 270.206,-312.738 272.177,-306.021"/>
</g>
<!-- Node4 -->
<g id="node4" class="node"><title>Node4</title>
<g id="a_node4"><a xlink:href="a00036.xhtml#af70e20cd13e08c6392058b1f3310f08a" target="_top" xlink:title="Voxel::DepthCamera\l::DepthCamera">
<polygon fill="none" stroke="black" points="496,-282 496,-312 604,-312 604,-282 496,-282"/>
<text text-anchor="start" x="504" y="-300" font-family="Helvetica,sans-Serif" font-size="10.00">Voxel::DepthCamera</text>
<text text-anchor="middle" x="550" y="-289" font-family="Helvetica,sans-Serif" font-size="10.00">::DepthCamera</text>
</a>
</g>
</g>
<!-- Node3&#45;&gt;Node4 -->
<g id="edge4" class="edge"><title>Node3&#45;&gt;Node4</title>
<path fill="none" stroke="midnightblue" d="M470.376,-297C479.014,-297 487.705,-297 495.999,-297"/>
<polygon fill="midnightblue" stroke="midnightblue" points="470.289,-293.5 460.289,-297 470.289,-300.5 470.289,-293.5"/>
</g>
<!-- Node6 -->
<g id="node6" class="node"><title>Node6</title>
<g id="a_node6"><a xlink:href="a00036.xhtml#aeca7a6cb1df8643f0b38745286ac2844" target="_top" xlink:title="Voxel::DepthCamera\l::_init">
<polygon fill="none" stroke="black" points="496,-331 496,-361 604,-361 604,-331 496,-331"/>
<text text-anchor="start" x="504" y="-349" font-family="Helvetica,sans-Serif" font-size="10.00">Voxel::DepthCamera</text>
<text text-anchor="middle" x="550" y="-338" font-family="Helvetica,sans-Serif" font-size="10.00">::_init</text>
</a>
</g>
</g>
<!-- Node5&#45;&gt;Node6 -->
<g id="edge6" class="edge"><title>Node5&#45;&gt;Node6</title>
<path fill="none" stroke="midnightblue" d="M470.376,-346C479.014,-346 487.705,-346 495.999,-346"/>
<polygon fill="midnightblue" stroke="midnightblue" points="470.289,-342.5 460.289,-346 470.289,-349.5 470.289,-342.5"/>
</g>
<!-- Node7 -->
<g id="node7" class="node"><title>Node7</title>
<g id="a_node7"><a xlink:href="a00154.xhtml#a34c90601da611e5cb61bd7a35f03a5f7" target="_top" xlink:title="Voxel::TI::ToFCameraBase\l::_init">
<polygon fill="none" stroke="black" points="640.5,-330 640.5,-360 777.5,-360 777.5,-330 640.5,-330"/>
<text text-anchor="start" x="648.5" y="-348" font-family="Helvetica,sans-Serif" font-size="10.00">Voxel::TI::ToFCameraBase</text>
<text text-anchor="middle" x="709" y="-337" font-family="Helvetica,sans-Serif" font-size="10.00">::_init</text>
</a>
</g>
</g>
<!-- Node6&#45;&gt;Node7 -->
<g id="edge7" class="edge"><title>Node6&#45;&gt;Node7</title>
<path fill="none" stroke="midnightblue" d="M614.157,-345.598C622.803,-345.543 631.708,-345.486 640.428,-345.43"/>
<polygon fill="midnightblue" stroke="midnightblue" points="614.131,-342.098 604.153,-345.661 614.175,-349.098 614.131,-342.098"/>
</g>
<!-- Node8 -->
<g id="node8" class="node"><title>Node8</title>
<g id="a_node8"><a xlink:href="a00153.xhtml#a8fd9aae6546d426f494b20633a881442" target="_top" xlink:title="Voxel::TI::ToFCamera\l::_init">
<polygon fill="none" stroke="black" points="820,-328 820,-358 934,-358 934,-328 820,-328"/>
<text text-anchor="start" x="828" y="-346" font-family="Helvetica,sans-Serif" font-size="10.00">Voxel::TI::ToFCamera</text>
<text text-anchor="middle" x="877" y="-335" font-family="Helvetica,sans-Serif" font-size="10.00">::_init</text>
</a>
</g>
</g>
<!-- Node7&#45;&gt;Node8 -->
<g id="edge8" class="edge"><title>Node7&#45;&gt;Node8</title>
<path fill="none" stroke="midnightblue" d="M787.842,-344.062C798.673,-343.932 809.621,-343.8 819.945,-343.675"/>
<polygon fill="midnightblue" stroke="midnightblue" points="787.476,-340.566 777.519,-344.187 787.56,-347.566 787.476,-340.566"/>
</g>
<!-- Node9 -->
<g id="node9" class="node"><title>Node9</title>
<g id="a_node9"><a xlink:href="a00152.xhtml#aa931ad7b5e4b84779df941814c2a5b17" target="_top" xlink:title="Voxel::TI::ToFCalculusCamera\l::_init">
<polygon fill="none" stroke="black" points="977,-377 977,-407 1129,-407 1129,-377 977,-377"/>
<text text-anchor="start" x="985" y="-395" font-family="Helvetica,sans-Serif" font-size="10.00">Voxel::TI::ToFCalculusCamera</text>
<text text-anchor="middle" x="1053" y="-384" font-family="Helvetica,sans-Serif" font-size="10.00">::_init</text>
</a>
</g>
</g>
<!-- Node8&#45;&gt;Node9 -->
<g id="edge9" class="edge"><title>Node8&#45;&gt;Node9</title>
<path fill="none" stroke="midnightblue" d="M941.284,-360.821C960.07,-366.112 980.455,-371.852 998.552,-376.948"/>
<polygon fill="midnightblue" stroke="midnightblue" points="942.2,-357.443 931.626,-358.101 940.302,-364.181 942.2,-357.443"/>
</g>
<!-- Node12 -->
<g id="node12" class="node"><title>Node12</title>
<g id="a_node12"><a xlink:href="a00159.xhtml#a749a2bbcdbfa69054d523866504743d1" target="_top" xlink:title="Voxel::TI::ToFHaddockCamera\l::_init">
<polygon fill="none" stroke="black" points="976.5,-240 976.5,-270 1129.5,-270 1129.5,-240 976.5,-240"/>
<text text-anchor="start" x="984.5" y="-258" font-family="Helvetica,sans-Serif" font-size="10.00">Voxel::TI::ToFHaddockCamera</text>
<text text-anchor="middle" x="1053" y="-247" font-family="Helvetica,sans-Serif" font-size="10.00">::_init</text>
</a>
</g>
</g>
<!-- Node8&#45;&gt;Node12 -->
<g id="edge12" class="edge"><title>Node8&#45;&gt;Node12</title>
<path fill="none" stroke="midnightblue" d="M916.947,-323.303C948.783,-307.202 993.127,-284.775 1022.19,-270.077"/>
<polygon fill="midnightblue" stroke="midnightblue" points="915.256,-320.236 907.912,-327.872 918.415,-326.482 915.256,-320.236"/>
</g>
<!-- Node17 -->
<g id="node17" class="node"><title>Node17</title>
<g id="a_node17"><a xlink:href="a00164.xhtml#af894a732f4beedc37144927eec93cc89" target="_top" xlink:title="Voxel::TI::ToFTintinCamera\l::_init">
<polygon fill="none" stroke="black" points="984,-328 984,-358 1122,-358 1122,-328 984,-328"/>
<text text-anchor="start" x="992" y="-346" font-family="Helvetica,sans-Serif" font-size="10.00">Voxel::TI::ToFTintinCamera</text>
<text text-anchor="middle" x="1053" y="-335" font-family="Helvetica,sans-Serif" font-size="10.00">::_init</text>
</a>
</g>
</g>
<!-- Node8&#45;&gt;Node17 -->
<g id="edge17" class="edge"><title>Node8&#45;&gt;Node17</title>
<path fill="none" stroke="midnightblue" d="M944.259,-343C957.241,-343 970.877,-343 983.917,-343"/>
<polygon fill="midnightblue" stroke="midnightblue" points="944.013,-339.5 934.012,-343 944.012,-346.5 944.013,-339.5"/>
</g>
<!-- Node10 -->
<g id="node10" class="node"><title>Node10</title>
<g id="a_node10"><a xlink:href="a00013.xhtml#a82eb752fb0d4b63495d2e29b6b8aed2c" target="_top" xlink:title="Voxel::TI::CalculusCDKCamera\l::_init">
<polygon fill="none" stroke="black" points="1166.5,-392 1166.5,-422 1323.5,-422 1323.5,-392 1166.5,-392"/>
<text text-anchor="start" x="1174.5" y="-410" font-family="Helvetica,sans-Serif" font-size="10.00">Voxel::TI::CalculusCDKCamera</text>
<text text-anchor="middle" x="1245" y="-399" font-family="Helvetica,sans-Serif" font-size="10.00">::_init</text>
</a>
</g>
</g>
<!-- Node9&#45;&gt;Node10 -->
<g id="edge10" class="edge"><title>Node9&#45;&gt;Node10</title>
<path fill="none" stroke="midnightblue" d="M1139.22,-398.728C1148.25,-399.441 1157.4,-400.163 1166.33,-400.868"/>
<polygon fill="midnightblue" stroke="midnightblue" points="1139.34,-395.226 1129.09,-397.928 1138.79,-402.205 1139.34,-395.226"/>
</g>
<!-- Node11 -->
<g id="node11" class="node"><title>Node11</title>
<g id="a_node11"><a xlink:href="a00013.xhtml#af406b1427962d80da9af9fb24e89b239" target="_top" xlink:title="Voxel::TI::CalculusCDKCamera\l::CalculusCDKCamera">
<polygon fill="none" stroke="black" points="1360.5,-392 1360.5,-422 1517.5,-422 1517.5,-392 1360.5,-392"/>
<text text-anchor="start" x="1368.5" y="-410" font-family="Helvetica,sans-Serif" font-size="10.00">Voxel::TI::CalculusCDKCamera</text>
<text text-anchor="middle" x="1439" y="-399" font-family="Helvetica,sans-Serif" font-size="10.00">::CalculusCDKCamera</text>
</a>
</g>
</g>
<!-- Node10&#45;&gt;Node11 -->
<g id="edge11" class="edge"><title>Node10&#45;&gt;Node11</title>
<path fill="none" stroke="midnightblue" d="M1333.6,-407C1342.57,-407 1351.64,-407 1360.48,-407"/>
<polygon fill="midnightblue" stroke="midnightblue" points="1333.54,-403.5 1323.54,-407 1333.54,-410.5 1333.54,-403.5"/>
</g>
<!-- Node13 -->
<g id="node13" class="node"><title>Node13</title>
<g id="a_node13"><a xlink:href="a00077.xhtml#a7dff103da3145dd303a5bc0db75ae961" target="_top" xlink:title="Voxel::TI::HaddockCDKCamera\l::_init">
<polygon fill="none" stroke="black" points="1166,-245 1166,-275 1324,-275 1324,-245 1166,-245"/>
<text text-anchor="start" x="1174" y="-263" font-family="Helvetica,sans-Serif" font-size="10.00">Voxel::TI::HaddockCDKCamera</text>
<text text-anchor="middle" x="1245" y="-252" font-family="Helvetica,sans-Serif" font-size="10.00">::_init</text>
</a>
</g>
</g>
<!-- Node12&#45;&gt;Node13 -->
<g id="edge13" class="edge"><title>Node12&#45;&gt;Node13</title>
<path fill="none" stroke="midnightblue" d="M1139.76,-257.257C1148.44,-257.485 1157.23,-257.717 1165.82,-257.943"/>
<polygon fill="midnightblue" stroke="midnightblue" points="1139.73,-253.755 1129.64,-256.99 1139.54,-260.752 1139.73,-253.755"/>
</g>
<!-- Node15 -->
<g id="node15" class="node"><title>Node15</title>
<g id="a_node15"><a xlink:href="a00182.xhtml#a89011bfb795ff58d3fb8675364b91abe" target="_top" xlink:title="Voxel::TI::Voxel14Camera\l::_init">
<polygon fill="none" stroke="black" points="1179,-196 1179,-226 1311,-226 1311,-196 1179,-196"/>
<text text-anchor="start" x="1187" y="-214" font-family="Helvetica,sans-Serif" font-size="10.00">Voxel::TI::Voxel14Camera</text>
<text text-anchor="middle" x="1245" y="-203" font-family="Helvetica,sans-Serif" font-size="10.00">::_init</text>
</a>
</g>
</g>
<!-- Node12&#45;&gt;Node15 -->
<g id="edge15" class="edge"><title>Node12&#45;&gt;Node15</title>
<path fill="none" stroke="midnightblue" d="M1129.04,-237.623C1145.59,-233.789 1163,-229.758 1179.11,-226.026"/>
<polygon fill="midnightblue" stroke="midnightblue" points="1127.81,-234.315 1118.86,-239.981 1129.39,-241.134 1127.81,-234.315"/>
</g>
<!-- Node14 -->
<g id="node14" class="node"><title>Node14</title>
<g id="a_node14"><a xlink:href="a00077.xhtml#ac2c5e82486c4cc3f5edada38cd4274c5" target="_top" xlink:title="Voxel::TI::HaddockCDKCamera\l::HaddockCDKCamera">
<polygon fill="none" stroke="black" points="1360,-245 1360,-275 1518,-275 1518,-245 1360,-245"/>
<text text-anchor="start" x="1368" y="-263" font-family="Helvetica,sans-Serif" font-size="10.00">Voxel::TI::HaddockCDKCamera</text>
<text text-anchor="middle" x="1439" y="-252" font-family="Helvetica,sans-Serif" font-size="10.00">::HaddockCDKCamera</text>
</a>
</g>
</g>
<!-- Node13&#45;&gt;Node14 -->
<g id="edge14" class="edge"><title>Node13&#45;&gt;Node14</title>
<path fill="none" stroke="midnightblue" d="M1334.15,-260C1342.77,-260 1351.47,-260 1359.98,-260"/>
<polygon fill="midnightblue" stroke="midnightblue" points="1334.09,-256.5 1324.09,-260 1334.09,-263.5 1334.09,-256.5"/>
</g>
<!-- Node16 -->
<g id="node16" class="node"><title>Node16</title>
<g id="a_node16"><a xlink:href="a00182.xhtml#a606f13ed73547ee43f585e241b42dd5d" target="_top" xlink:title="Voxel::TI::Voxel14Camera\l::Voxel14Camera">
<polygon fill="none" stroke="black" points="1373,-196 1373,-226 1505,-226 1505,-196 1373,-196"/>
<text text-anchor="start" x="1381" y="-214" font-family="Helvetica,sans-Serif" font-size="10.00">Voxel::TI::Voxel14Camera</text>
<text text-anchor="middle" x="1439" y="-203" font-family="Helvetica,sans-Serif" font-size="10.00">::Voxel14Camera</text>
</a>
</g>
</g>
<!-- Node15&#45;&gt;Node16 -->
<g id="edge16" class="edge"><title>Node15&#45;&gt;Node16</title>
<path fill="none" stroke="midnightblue" d="M1321.42,-211C1338.38,-211 1356.24,-211 1372.74,-211"/>
<polygon fill="midnightblue" stroke="midnightblue" points="1321,-207.5 1311,-211 1321,-214.5 1321,-207.5"/>
</g>
<!-- Node18 -->
<g id="node18" class="node"><title>Node18</title>
<g id="a_node18"><a xlink:href="a00137.xhtml#af5337f40c1a075c026263ea9871a20ee" target="_top" xlink:title="Voxel::TI::TintinCDKCamera\l::_init">
<polygon fill="none" stroke="black" points="1173.5,-343 1173.5,-373 1316.5,-373 1316.5,-343 1173.5,-343"/>
<text text-anchor="start" x="1181.5" y="-361" font-family="Helvetica,sans-Serif" font-size="10.00">Voxel::TI::TintinCDKCamera</text>
<text text-anchor="middle" x="1245" y="-350" font-family="Helvetica,sans-Serif" font-size="10.00">::_init</text>
</a>
</g>
</g>
<!-- Node17&#45;&gt;Node18 -->
<g id="edge18" class="edge"><title>Node17&#45;&gt;Node18</title>
<path fill="none" stroke="midnightblue" d="M1132.31,-349.182C1145.86,-350.252 1159.88,-351.359 1173.21,-352.412"/>
<polygon fill="midnightblue" stroke="midnightblue" points="1132.3,-345.671 1122.06,-348.373 1131.75,-352.649 1132.3,-345.671"/>
</g>
<!-- Node20 -->
<g id="node20" class="node"><title>Node20</title>
<g id="a_node20"><a xlink:href="a00186.xhtml#a47b15c40c3fbcc52ae1eb3c9fe74d9f1" target="_top" xlink:title="Voxel::TI::VoxelDCamera\l::_init">
<polygon fill="none" stroke="black" points="1180.5,-294 1180.5,-324 1309.5,-324 1309.5,-294 1180.5,-294"/>
<text text-anchor="start" x="1188.5" y="-312" font-family="Helvetica,sans-Serif" font-size="10.00">Voxel::TI::VoxelDCamera</text>
<text text-anchor="middle" x="1245" y="-301" font-family="Helvetica,sans-Serif" font-size="10.00">::_init</text>
</a>
</g>
</g>
<!-- Node17&#45;&gt;Node20 -->
<g id="edge20" class="edge"><title>Node17&#45;&gt;Node20</title>
<path fill="none" stroke="midnightblue" d="M1131.95,-329.051C1148.01,-326.177 1164.74,-323.184 1180.22,-320.413"/>
<polygon fill="midnightblue" stroke="midnightblue" points="1131.28,-325.614 1122.06,-330.821 1132.52,-332.505 1131.28,-325.614"/>
</g>
<!-- Node19 -->
<g id="node19" class="node"><title>Node19</title>
<g id="a_node19"><a xlink:href="a00137.xhtml#a7a9918bb8b6d76bc3511536019847c1d" target="_top" xlink:title="Voxel::TI::TintinCDKCamera\l::TintinCDKCamera">
<polygon fill="none" stroke="black" points="1367.5,-343 1367.5,-373 1510.5,-373 1510.5,-343 1367.5,-343"/>
<text text-anchor="start" x="1375.5" y="-361" font-family="Helvetica,sans-Serif" font-size="10.00">Voxel::TI::TintinCDKCamera</text>
<text text-anchor="middle" x="1439" y="-350" font-family="Helvetica,sans-Serif" font-size="10.00">::TintinCDKCamera</text>
</a>
</g>
</g>
<!-- Node18&#45;&gt;Node19 -->
<g id="edge19" class="edge"><title>Node18&#45;&gt;Node19</title>
<path fill="none" stroke="midnightblue" d="M1326.89,-358C1340.38,-358 1354.27,-358 1367.47,-358"/>
<polygon fill="midnightblue" stroke="midnightblue" points="1326.68,-354.5 1316.68,-358 1326.68,-361.5 1326.68,-354.5"/>
</g>
<!-- Node21 -->
<g id="node21" class="node"><title>Node21</title>
<g id="a_node21"><a xlink:href="a00186.xhtml#a4a95cf8257e2f9f5fd34386b87f6663a" target="_top" xlink:title="Voxel::TI::VoxelDCamera\l::VoxelDCamera">
<polygon fill="none" stroke="black" points="1374.5,-294 1374.5,-324 1503.5,-324 1503.5,-294 1374.5,-294"/>
<text text-anchor="start" x="1382.5" y="-312" font-family="Helvetica,sans-Serif" font-size="10.00">Voxel::TI::VoxelDCamera</text>
<text text-anchor="middle" x="1439" y="-301" font-family="Helvetica,sans-Serif" font-size="10.00">::VoxelDCamera</text>
</a>
</g>
</g>
<!-- Node20&#45;&gt;Node21 -->
<g id="edge21" class="edge"><title>Node20&#45;&gt;Node21</title>
<path fill="none" stroke="midnightblue" d="M1319.79,-309C1337.72,-309 1356.75,-309 1374.18,-309"/>
<polygon fill="midnightblue" stroke="midnightblue" points="1319.67,-305.5 1309.67,-309 1319.67,-312.5 1319.67,-305.5"/>
</g>
<!-- Node22&#45;&gt;Node9 -->
<g id="edge23" class="edge"><title>Node22&#45;&gt;Node9</title>
<path fill="none" stroke="midnightblue" d="M901.341,-276.574C913.309,-288.521 927.878,-303.654 940,-318 957.442,-338.641 954.124,-351.134 976,-367 981.285,-370.833 987.191,-374.101 993.312,-376.882"/>
<polygon fill="midnightblue" stroke="midnightblue" points="903.476,-273.764 893.903,-269.224 898.556,-278.742 903.476,-273.764"/>
</g>
<!-- Node22&#45;&gt;Node12 -->
<g id="edge33" class="edge"><title>Node22&#45;&gt;Node12</title>
<path fill="none" stroke="midnightblue" d="M950.333,-254.416C958.952,-254.465 967.769,-254.516 976.432,-254.566"/>
<polygon fill="midnightblue" stroke="midnightblue" points="950.347,-250.916 940.327,-254.358 950.306,-257.916 950.347,-250.916"/>
</g>
<!-- Node22&#45;&gt;Node15 -->
<g id="edge36" class="edge"><title>Node22&#45;&gt;Node15</title>
<path fill="none" stroke="midnightblue" d="M942.099,-236.656C953.332,-234.09 964.958,-231.731 976,-230 1044.78,-219.22 1124.45,-214.552 1178.94,-212.533"/>
<polygon fill="midnightblue" stroke="midnightblue" points="941.283,-233.253 932.353,-238.955 942.89,-240.066 941.283,-233.253"/>
</g>
<!-- Node22&#45;&gt;Node17 -->
<g id="edge34" class="edge"><title>Node22&#45;&gt;Node17</title>
<path fill="none" stroke="midnightblue" d="M909.253,-274.638C928.139,-286.645 952.945,-301.608 976,-313 986.81,-318.341 998.82,-323.443 1010.04,-327.875"/>
<polygon fill="midnightblue" stroke="midnightblue" points="911.061,-271.64 900.755,-269.182 907.279,-277.53 911.061,-271.64"/>
</g>
<!-- Node22&#45;&gt;Node20 -->
<g id="edge37" class="edge"><title>Node22&#45;&gt;Node20</title>
<path fill="none" stroke="midnightblue" d="M941.318,-271.514C952.799,-274.3 964.711,-276.938 976,-279 1045.32,-291.658 1125.76,-299.801 1180.28,-304.364"/>
<polygon fill="midnightblue" stroke="midnightblue" points="941.915,-268.056 931.365,-269.038 940.225,-274.849 941.915,-268.056"/>
</g>
<!-- Node23 -->
<g id="node23" class="node"><title>Node23</title>
<g id="a_node23"><a xlink:href="a00153.xhtml#a52686f695d06876ef5a89e453c6a8ba3" target="_top" xlink:title="Voxel::TI::ToFCamera\l::_initStartParams">
<polygon fill="none" stroke="black" points="996,-122 996,-152 1110,-152 1110,-122 996,-122"/>
<text text-anchor="start" x="1004" y="-140" font-family="Helvetica,sans-Serif" font-size="10.00">Voxel::TI::ToFCamera</text>
<text text-anchor="middle" x="1053" y="-129" font-family="Helvetica,sans-Serif" font-size="10.00">::_initStartParams</text>
</a>
</g>
</g>
<!-- Node22&#45;&gt;Node23 -->
<g id="edge24" class="edge"><title>Node22&#45;&gt;Node23</title>
<path fill="none" stroke="midnightblue" d="M908.703,-233.355C943.265,-210.115 998.603,-172.905 1029.42,-152.184"/>
<polygon fill="midnightblue" stroke="midnightblue" points="906.737,-230.459 900.391,-238.944 910.643,-236.268 906.737,-230.459"/>
</g>
<!-- Node32 -->
<g id="node32" class="node"><title>Node32</title>
<g id="a_node32"><a xlink:href="a00164.xhtml#a8f4687aa4c53a91e680f1ea9805a9b06" target="_top" xlink:title="Voxel::TI::ToFTintinCamera\l::_applyCalibrationParams">
<polygon fill="none" stroke="black" points="984,-73 984,-103 1122,-103 1122,-73 984,-73"/>
<text text-anchor="start" x="992" y="-91" font-family="Helvetica,sans-Serif" font-size="10.00">Voxel::TI::ToFTintinCamera</text>
<text text-anchor="middle" x="1053" y="-80" font-family="Helvetica,sans-Serif" font-size="10.00">::_applyCalibrationParams</text>
</a>
</g>
</g>
<!-- Node22&#45;&gt;Node32 -->
<g id="edge35" class="edge"><title>Node22&#45;&gt;Node32</title>
<path fill="none" stroke="midnightblue" d="M888.781,-229.242C903.819,-197.536 934.043,-142.998 976,-112 980.674,-108.547 985.86,-105.581 991.264,-103.035"/>
<polygon fill="midnightblue" stroke="midnightblue" points="885.44,-228.128 884.436,-238.675 891.799,-231.056 885.44,-228.128"/>
</g>
<!-- Node24 -->
<g id="node24" class="node"><title>Node24</title>
<g id="a_node24"><a xlink:href="a00077.xhtml#a4e8e32000eca9b81bc6401a8d512cbc7" target="_top" xlink:title="Voxel::TI::HaddockCDKCamera\l::_initStartParams">
<polygon fill="none" stroke="black" points="1166,-0 1166,-30 1324,-30 1324,-0 1166,-0"/>
<text text-anchor="start" x="1174" y="-18" font-family="Helvetica,sans-Serif" font-size="10.00">Voxel::TI::HaddockCDKCamera</text>
<text text-anchor="middle" x="1245" y="-7" font-family="Helvetica,sans-Serif" font-size="10.00">::_initStartParams</text>
</a>
</g>
</g>
<!-- Node23&#45;&gt;Node24 -->
<g id="edge25" class="edge"><title>Node23&#45;&gt;Node24</title>
<path fill="none" stroke="midnightblue" d="M1119.42,-119.541C1123.19,-117.32 1126.76,-114.818 1130,-112 1157.31,-88.2769 1138.46,-62.4585 1166,-39 1169.99,-35.6006 1174.46,-32.6825 1179.18,-30.1775"/>
<polygon fill="midnightblue" stroke="midnightblue" points="1117.6,-116.539 1110.32,-124.231 1120.81,-122.761 1117.6,-116.539"/>
</g>
<!-- Node25 -->
<g id="node25" class="node"><title>Node25</title>
<g id="a_node25"><a xlink:href="a00152.xhtml#adf420ba5e95dcb0cbd3da90f446242d9" target="_top" xlink:title="Voxel::TI::ToFCalculusCamera\l::_initStartParams">
<polygon fill="none" stroke="black" points="1169,-147 1169,-177 1321,-177 1321,-147 1169,-147"/>
<text text-anchor="start" x="1177" y="-165" font-family="Helvetica,sans-Serif" font-size="10.00">Voxel::TI::ToFCalculusCamera</text>
<text text-anchor="middle" x="1245" y="-154" font-family="Helvetica,sans-Serif" font-size="10.00">::_initStartParams</text>
</a>
</g>
</g>
<!-- Node23&#45;&gt;Node25 -->
<g id="edge26" class="edge"><title>Node23&#45;&gt;Node25</title>
<path fill="none" stroke="midnightblue" d="M1120.35,-145.73C1136.03,-147.793 1152.85,-150.007 1168.89,-152.117"/>
<polygon fill="midnightblue" stroke="midnightblue" points="1120.61,-142.234 1110.24,-144.399 1119.69,-149.174 1120.61,-142.234"/>
</g>
<!-- Node27 -->
<g id="node27" class="node"><title>Node27</title>
<g id="a_node27"><a xlink:href="a00159.xhtml#ae87b0ca3c8867d1b520c0165d526e79d" target="_top" xlink:title="Voxel::TI::ToFHaddockCamera\l::_initStartParams">
<polygon fill="none" stroke="black" points="1168.5,-98 1168.5,-128 1321.5,-128 1321.5,-98 1168.5,-98"/>
<text text-anchor="start" x="1176.5" y="-116" font-family="Helvetica,sans-Serif" font-size="10.00">Voxel::TI::ToFHaddockCamera</text>
<text text-anchor="middle" x="1245" y="-105" font-family="Helvetica,sans-Serif" font-size="10.00">::_initStartParams</text>
</a>
</g>
</g>
<!-- Node23&#45;&gt;Node27 -->
<g id="edge28" class="edge"><title>Node23&#45;&gt;Node27</title>
<path fill="none" stroke="midnightblue" d="M1120.23,-128.634C1135.71,-126.678 1152.32,-124.58 1168.19,-122.576"/>
<polygon fill="midnightblue" stroke="midnightblue" points="1119.72,-125.171 1110.24,-129.897 1120.59,-132.116 1119.72,-125.171"/>
</g>
<!-- Node29 -->
<g id="node29" class="node"><title>Node29</title>
<g id="a_node29"><a xlink:href="a00164.xhtml#a17729406fadceea890b4e0e079aede46" target="_top" xlink:title="Voxel::TI::ToFTintinCamera\l::_initStartParams">
<polygon fill="none" stroke="black" points="1176,-49 1176,-79 1314,-79 1314,-49 1176,-49"/>
<text text-anchor="start" x="1184" y="-67" font-family="Helvetica,sans-Serif" font-size="10.00">Voxel::TI::ToFTintinCamera</text>
<text text-anchor="middle" x="1245" y="-56" font-family="Helvetica,sans-Serif" font-size="10.00">::_initStartParams</text>
</a>
</g>
</g>
<!-- Node23&#45;&gt;Node29 -->
<g id="edge30" class="edge"><title>Node23&#45;&gt;Node29</title>
<path fill="none" stroke="midnightblue" d="M1115.73,-118.283C1120.62,-116.32 1125.43,-114.222 1130,-112 1147.29,-103.586 1148.63,-96.2472 1166,-88 1172.91,-84.7187 1180.38,-81.7539 1187.86,-79.1179"/>
<polygon fill="midnightblue" stroke="midnightblue" points="1114.35,-115.06 1106.25,-121.889 1116.85,-121.602 1114.35,-115.06"/>
</g>
<!-- Node26 -->
<g id="node26" class="node"><title>Node26</title>
<g id="a_node26"><a xlink:href="a00013.xhtml#a2474713056342fa6774ff5a165961052" target="_top" xlink:title="Voxel::TI::CalculusCDKCamera\l::_initStartParams">
<polygon fill="none" stroke="black" points="1360.5,-147 1360.5,-177 1517.5,-177 1517.5,-147 1360.5,-147"/>
<text text-anchor="start" x="1368.5" y="-165" font-family="Helvetica,sans-Serif" font-size="10.00">Voxel::TI::CalculusCDKCamera</text>
<text text-anchor="middle" x="1439" y="-154" font-family="Helvetica,sans-Serif" font-size="10.00">::_initStartParams</text>
</a>
</g>
</g>
<!-- Node25&#45;&gt;Node26 -->
<g id="edge27" class="edge"><title>Node25&#45;&gt;Node26</title>
<path fill="none" stroke="midnightblue" d="M1331.15,-162C1340.91,-162 1350.82,-162 1360.46,-162"/>
<polygon fill="midnightblue" stroke="midnightblue" points="1331.06,-158.5 1321.06,-162 1331.06,-165.5 1331.06,-158.5"/>
</g>
<!-- Node28 -->
<g id="node28" class="node"><title>Node28</title>
<g id="a_node28"><a xlink:href="a00182.xhtml#ad5dcde935444ac28a6e0b5705f504573" target="_top" xlink:title="Voxel::TI::Voxel14Camera\l::_initStartParams">
<polygon fill="none" stroke="black" points="1373,-98 1373,-128 1505,-128 1505,-98 1373,-98"/>
<text text-anchor="start" x="1381" y="-116" font-family="Helvetica,sans-Serif" font-size="10.00">Voxel::TI::Voxel14Camera</text>
<text text-anchor="middle" x="1439" y="-105" font-family="Helvetica,sans-Serif" font-size="10.00">::_initStartParams</text>
</a>
</g>
</g>
<!-- Node27&#45;&gt;Node28 -->
<g id="edge29" class="edge"><title>Node27&#45;&gt;Node28</title>
<path fill="none" stroke="midnightblue" d="M1331.99,-113C1345.67,-113 1359.62,-113 1372.72,-113"/>
<polygon fill="midnightblue" stroke="midnightblue" points="1331.61,-109.5 1321.61,-113 1331.61,-116.5 1331.61,-109.5"/>
</g>
<!-- Node30 -->
<g id="node30" class="node"><title>Node30</title>
<g id="a_node30"><a xlink:href="a00137.xhtml#a35274b5fd95ea088be4bc0637328d5f4" target="_top" xlink:title="Voxel::TI::TintinCDKCamera\l::_initStartParams">
<polygon fill="none" stroke="black" points="1367.5,-0 1367.5,-30 1510.5,-30 1510.5,-0 1367.5,-0"/>
<text text-anchor="start" x="1375.5" y="-18" font-family="Helvetica,sans-Serif" font-size="10.00">Voxel::TI::TintinCDKCamera</text>
<text text-anchor="middle" x="1439" y="-7" font-family="Helvetica,sans-Serif" font-size="10.00">::_initStartParams</text>
</a>
</g>
</g>
<!-- Node29&#45;&gt;Node30 -->
<g id="edge31" class="edge"><title>Node29&#45;&gt;Node30</title>
<path fill="none" stroke="midnightblue" d="M1314.77,-46.4502C1335.85,-41.0694 1358.85,-35.201 1379.2,-30.0062"/>
<polygon fill="midnightblue" stroke="midnightblue" points="1313.74,-43.1012 1304.91,-48.9654 1315.47,-49.8838 1313.74,-43.1012"/>
</g>
<!-- Node31 -->
<g id="node31" class="node"><title>Node31</title>
<g id="a_node31"><a xlink:href="a00186.xhtml#ae0706724a5ebbb978d41fb2633af5040" target="_top" xlink:title="Voxel::TI::VoxelDCamera\l::_initStartParams">
<polygon fill="none" stroke="black" points="1374.5,-49 1374.5,-79 1503.5,-79 1503.5,-49 1374.5,-49"/>
<text text-anchor="start" x="1382.5" y="-67" font-family="Helvetica,sans-Serif" font-size="10.00">Voxel::TI::VoxelDCamera</text>
<text text-anchor="middle" x="1439" y="-56" font-family="Helvetica,sans-Serif" font-size="10.00">::_initStartParams</text>
</a>
</g>
</g>
<!-- Node29&#45;&gt;Node31 -->
<g id="edge32" class="edge"><title>Node29&#45;&gt;Node31</title>
<path fill="none" stroke="midnightblue" d="M1324.48,-64C1341.12,-64 1358.48,-64 1374.48,-64"/>
<polygon fill="midnightblue" stroke="midnightblue" points="1324.23,-60.5001 1314.23,-64 1324.23,-67.5001 1324.23,-60.5001"/>
</g>
</g>
</svg>
