<?xml version="1.0" encoding="UTF-8" standalone="no"?>
<!DOCTYPE svg PUBLIC "-//W3C//DTD SVG 1.1//EN"
 "http://www.w3.org/Graphics/SVG/1.1/DTD/svg11.dtd">
<!-- Generated by graphviz version 2.36.0 (20140111.2315)
 -->
<!-- Title: Voxel::EnumParameterTemplate::valueMeaning Pages: 1 -->
<!--zoomable 87 -->
<svg id="main" version="1.1" xmlns="http://www.w3.org/2000/svg" xmlns:xlink="http://www.w3.org/1999/xlink" xml:space="preserve" onload="init(evt)">
<style type="text/css"><![CDATA[
.edge:hover path { stroke: red; }
.edge:hover polygon { stroke: red; fill: red; }
]]></style>
<script type="text/javascript"><![CDATA[
var edges = document.getElementsByTagName('g');
if (edges && edges.length) {
  for (var i=0;i<edges.length;i++) {
    if (edges[i].id.substr(0,4)=='edge') {
      edges[i].setAttribute('class','edge');
    }
  }
}
]]></script>
        <defs>
                <circle id="rim" cx="0" cy="0" r="7"/>
                <circle id="rim2" cx="0" cy="0" r="3.5"/>
                <g id="zoomPlus">
                        <use xlink:href="#rim" fill="#404040">
                                <set attributeName="fill" to="#808080" begin="zoomplus.mouseover" end="zoomplus.mouseout"/>
                        </use>
                        <path d="M-4,0h8M0,-4v8" fill="none" stroke="white" stroke-width="1.5" pointer-events="none"/>
                </g>
                <g id="zoomMin">
                        <use xlink:href="#rim" fill="#404040">
                                <set attributeName="fill" to="#808080" begin="zoomminus.mouseover" end="zoomminus.mouseout"/>
                        </use>
                        <path d="M-4,0h8" fill="none" stroke="white" stroke-width="1.5" pointer-events="none"/>
                </g>
                <g id="dirArrow">
                        <path fill="none" stroke="white" stroke-width="1.5" d="M0,-3.0v7 M-2.5,-0.5L0,-3.0L2.5,-0.5"/>
                </g>
               <g id="resetDef">
                       <use xlink:href="#rim2" fill="#404040">
                               <set attributeName="fill" to="#808080" begin="reset.mouseover" end="reset.mouseout"/>
                       </use>
               </g>
        </defs>

<script type="text/javascript">
var viewWidth = 598;
var viewHeight = 87;
var sectionId = 'dynsection-3';
</script>
<script xlink:href="svgpan.js"/>
<svg id="graph" class="graph">
<g id="viewport">
<title>Voxel::EnumParameterTemplate::valueMeaning</title>
<!-- Node1 -->
<g id="node1" class="node"><title>Node1</title>
<polygon fill="#bfbfbf" stroke="black" points="0,-24 0,-54 158,-54 158,-24 0,-24"/>
<text text-anchor="start" x="8" y="-42" font-family="Helvetica,sans-Serif" font-size="10.00">Voxel::EnumParameterTemplate</text>
<text text-anchor="middle" x="79" y="-31" font-family="Helvetica,sans-Serif" font-size="10.00">::valueMeaning</text>
</g>
<!-- Node2 -->
<g id="node2" class="node"><title>Node2</title>
<g id="a_node2"><a xlink:href="a00025.xhtml#a725a420cbbe28729002acc00737477c7" target="_top" xlink:title="Voxel::CLIManager::\l_getParameter">
<polygon fill="none" stroke="black" points="338.5,-49 338.5,-79 445.5,-79 445.5,-49 338.5,-49"/>
<text text-anchor="start" x="346.5" y="-67" font-family="Helvetica,sans-Serif" font-size="10.00">Voxel::CLIManager::</text>
<text text-anchor="middle" x="392" y="-56" font-family="Helvetica,sans-Serif" font-size="10.00">_getParameter</text>
</a>
</g>
</g>
<!-- Node1&#45;&gt;Node2 -->
<g id="edge1" class="edge"><title>Node1&#45;&gt;Node2</title>
<path fill="none" stroke="midnightblue" d="M168.155,-46.0864C223.04,-50.4984 291.799,-56.0257 338.315,-59.7649"/>
<polygon fill="midnightblue" stroke="midnightblue" points="168.325,-42.5889 158.077,-45.2763 167.764,-49.5664 168.325,-42.5889"/>
</g>
<!-- Node4 -->
<g id="node4" class="node"><title>Node4</title>
<g id="a_node4"><a xlink:href="a00025.xhtml#a6aa5863de7fb0da3578d60a46de46033" target="_top" xlink:title="Voxel::CLIManager::\l_showParameterInfo">
<polygon fill="none" stroke="black" points="194.5,-2 194.5,-32 301.5,-32 301.5,-2 194.5,-2"/>
<text text-anchor="start" x="202.5" y="-20" font-family="Helvetica,sans-Serif" font-size="10.00">Voxel::CLIManager::</text>
<text text-anchor="middle" x="248" y="-9" font-family="Helvetica,sans-Serif" font-size="10.00">_showParameterInfo</text>
</a>
</g>
</g>
<!-- Node1&#45;&gt;Node4 -->
<g id="edge3" class="edge"><title>Node1&#45;&gt;Node4</title>
<path fill="none" stroke="midnightblue" d="M168.162,-27.3858C177.048,-26.2153 185.863,-25.054 194.203,-23.9553"/>
<polygon fill="midnightblue" stroke="midnightblue" points="167.579,-23.9324 158.121,-28.7085 168.493,-30.8724 167.579,-23.9324"/>
</g>
<!-- Node3 -->
<g id="node3" class="node"><title>Node3</title>
<g id="a_node3"><a xlink:href="a00025.xhtml#a7a7ce51202c00d16a0e1cac5dcceb1e0" target="_top" xlink:title="Voxel::CLIManager::\lCLIManager">
<polygon fill="none" stroke="black" points="482.5,-24 482.5,-54 589.5,-54 589.5,-24 482.5,-24"/>
<text text-anchor="start" x="490.5" y="-42" font-family="Helvetica,sans-Serif" font-size="10.00">Voxel::CLIManager::</text>
<text text-anchor="middle" x="536" y="-31" font-family="Helvetica,sans-Serif" font-size="10.00">CLIManager</text>
</a>
</g>
</g>
<!-- Node2&#45;&gt;Node3 -->
<g id="edge2" class="edge"><title>Node2&#45;&gt;Node3</title>
<path fill="none" stroke="midnightblue" d="M455.994,-52.9095C464.704,-51.376 473.578,-49.8138 482.08,-48.3169"/>
<polygon fill="midnightblue" stroke="midnightblue" points="455.117,-49.51 445.876,-54.6909 456.331,-56.4039 455.117,-49.51"/>
</g>
<!-- Node5 -->
<g id="node5" class="node"><title>Node5</title>
<g id="a_node5"><a xlink:href="a00025.xhtml#afce3e4d2158d643e933f3b85f366a42a" target="_top" xlink:title="Voxel::CLIManager::\l_capabilities">
<polygon fill="none" stroke="black" points="338.5,-0 338.5,-30 445.5,-30 445.5,-0 338.5,-0"/>
<text text-anchor="start" x="346.5" y="-18" font-family="Helvetica,sans-Serif" font-size="10.00">Voxel::CLIManager::</text>
<text text-anchor="middle" x="392" y="-7" font-family="Helvetica,sans-Serif" font-size="10.00">_capabilities</text>
</a>
</g>
</g>
<!-- Node4&#45;&gt;Node5 -->
<g id="edge4" class="edge"><title>Node4&#45;&gt;Node5</title>
<path fill="none" stroke="midnightblue" d="M311.994,-16.1128C320.704,-15.9901 329.578,-15.8651 338.08,-15.7453"/>
<polygon fill="midnightblue" stroke="midnightblue" points="311.825,-12.6147 301.876,-16.2553 311.924,-19.614 311.825,-12.6147"/>
</g>
<!-- Node5&#45;&gt;Node3 -->
<g id="edge5" class="edge"><title>Node5&#45;&gt;Node3</title>
<path fill="none" stroke="midnightblue" d="M455.994,-25.6469C464.704,-27.1191 473.578,-28.6188 482.08,-30.0558"/>
<polygon fill="midnightblue" stroke="midnightblue" points="456.319,-22.1522 445.876,-23.9367 455.152,-29.0544 456.319,-22.1522"/>
</g>
</g>
</svg>
        <g id="navigator" transform="translate(0 0)" fill="#404254">
                <rect fill="#f2f5e9" fill-opacity="0.5" stroke="#606060" stroke-width=".5" x="0" y="0" width="60" height="60"/>
                <use id="zoomplus" xlink:href="#zoomPlus" x="17" y="9" onmousedown="handleZoom(evt,'in')"/>
                <use id="zoomminus" xlink:href="#zoomMin" x="42" y="9" onmousedown="handleZoom(evt,'out')"/>
                <use id="reset" xlink:href="#resetDef" x="30" y="36" onmousedown="handleReset()"/>
                <g id="arrowUp" xlink:href="#dirArrow" transform="translate(30 24)" onmousedown="handlePan(0,-1)">
                  <use xlink:href="#rim" fill="#404040">
                        <set attributeName="fill" to="#808080" begin="arrowUp.mouseover" end="arrowUp.mouseout"/>
                  </use>
                  <path fill="none" stroke="white" stroke-width="1.5" d="M0,-3.0v7 M-2.5,-0.5L0,-3.0L2.5,-0.5"/>
                </g>
                <g id="arrowRight" xlink:href="#dirArrow" transform="rotate(90) translate(36 -43)" onmousedown="handlePan(1,0)">
                  <use xlink:href="#rim" fill="#404040">
                        <set attributeName="fill" to="#808080" begin="arrowRight.mouseover" end="arrowRight.mouseout"/>
                  </use>
                  <path fill="none" stroke="white" stroke-width="1.5" d="M0,-3.0v7 M-2.5,-0.5L0,-3.0L2.5,-0.5"/>
                </g>
                <g id="arrowDown" xlink:href="#dirArrow" transform="rotate(180) translate(-30 -48)" onmousedown="handlePan(0,1)">
                  <use xlink:href="#rim" fill="#404040">
                        <set attributeName="fill" to="#808080" begin="arrowDown.mouseover" end="arrowDown.mouseout"/>
                  </use>
                  <path fill="none" stroke="white" stroke-width="1.5" d="M0,-3.0v7 M-2.5,-0.5L0,-3.0L2.5,-0.5"/>
                </g>
                <g id="arrowLeft" xlink:href="#dirArrow" transform="rotate(270) translate(-36 17)" onmousedown="handlePan(-1,0)">
                  <use xlink:href="#rim" fill="#404040">
                        <set attributeName="fill" to="#808080" begin="arrowLeft.mouseover" end="arrowLeft.mouseout"/>
                  </use>
                  <path fill="none" stroke="white" stroke-width="1.5" d="M0,-3.0v7 M-2.5,-0.5L0,-3.0L2.5,-0.5"/>
                </g>
        </g>
        <svg viewBox="0 0 15 15" width="100%" height="30px" preserveAspectRatio="xMaxYMin meet">
         <g id="arrow_out" transform="scale(0.3 0.3)">
          <a xlink:href="a00054_ae5c837d7ae2ba54a9adb59116e0d0708_icgraph_org.svg" target="_base">
           <rect id="button" ry="5" rx="5" y="6" x="6" height="38" width="38"
                fill="#f2f5e9" fill-opacity="0.5" stroke="#606060" stroke-width="1.0"/>
           <path id="arrow"
             d="M 11.500037,31.436501 C 11.940474,20.09759 22.043105,11.32322 32.158766,21.979434 L 37.068811,17.246167 C 37.068811,17.246167 37.088388,32 37.088388,32 L 22.160133,31.978069 C 22.160133,31.978069 26.997745,27.140456 26.997745,27.140456 C 18.528582,18.264221 13.291696,25.230495 11.500037,31.436501 z"
             style="fill:#404040;"/>
          </a>
         </g>
        </svg>
</svg>
