<?xml version="1.0" encoding="UTF-8" standalone="no"?>
<!DOCTYPE svg PUBLIC "-//W3C//DTD SVG 1.1//EN"
 "http://www.w3.org/Graphics/SVG/1.1/DTD/svg11.dtd">
<!-- Generated by graphviz version 2.36.0 (20140111.2315)
 -->
<!-- Title: Voxel::CameraSystem::createFilter Pages: 1 -->
<svg width="556pt" height="77pt"
 viewBox="0.00 0.00 556.00 77.00" xmlns="http://www.w3.org/2000/svg" xmlns:xlink="http://www.w3.org/1999/xlink">
<g id="graph0" class="graph" transform="scale(1 1) rotate(0) translate(4 73)">
<title>Voxel::CameraSystem::createFilter</title>
<!-- Node1 -->
<g id="node1" class="node"><title>Node1</title>
<polygon fill="#bfbfbf" stroke="black" points="0,-17 0,-47 116,-47 116,-17 0,-17"/>
<text text-anchor="start" x="8" y="-35" font-family="Helvetica,sans-Serif" font-size="10.00">Voxel::CameraSystem</text>
<text text-anchor="middle" x="58" y="-24" font-family="Helvetica,sans-Serif" font-size="10.00">::createFilter</text>
</g>
<!-- Node2 -->
<g id="node2" class="node"><title>Node2</title>
<g id="a_node2"><a xlink:href="a00025.xhtml#a6a5208973a7df9aaa163d649394847f7" target="_top" xlink:title="Voxel::CLIManager::\l_addFilter2">
<polygon fill="none" stroke="black" points="152.5,-39 152.5,-69 259.5,-69 259.5,-39 152.5,-39"/>
<text text-anchor="start" x="160.5" y="-57" font-family="Helvetica,sans-Serif" font-size="10.00">Voxel::CLIManager::</text>
<text text-anchor="middle" x="206" y="-46" font-family="Helvetica,sans-Serif" font-size="10.00">_addFilter2</text>
</a>
</g>
</g>
<!-- Node1&#45;&gt;Node2 -->
<g id="edge1" class="edge"><title>Node1&#45;&gt;Node2</title>
<path fill="none" stroke="midnightblue" d="M126.368,-42.1513C135.024,-43.4557 143.787,-44.7761 152.165,-46.0385"/>
<polygon fill="midnightblue" stroke="midnightblue" points="126.694,-38.661 116.284,-40.6318 125.651,-45.5829 126.694,-38.661"/>
</g>
<!-- Node5 -->
<g id="node5" class="node"><title>Node5</title>
<g id="a_node5"><a xlink:href="a00217.xhtml#a0ddf1224851353fc92bfbff6f499fa97" target="_top" xlink:title="main">
<polygon fill="none" stroke="black" points="187,-0.5 187,-19.5 225,-19.5 225,-0.5 187,-0.5"/>
<text text-anchor="middle" x="206" y="-7.5" font-family="Helvetica,sans-Serif" font-size="10.00">main</text>
</a>
</g>
</g>
<!-- Node1&#45;&gt;Node5 -->
<g id="edge4" class="edge"><title>Node1&#45;&gt;Node5</title>
<path fill="none" stroke="midnightblue" d="M126.387,-21.8458C148.546,-18.5068 171.398,-15.0632 186.713,-12.7555"/>
<polygon fill="midnightblue" stroke="midnightblue" points="125.651,-18.4171 116.284,-23.3682 126.694,-25.339 125.651,-18.4171"/>
</g>
<!-- Node3 -->
<g id="node3" class="node"><title>Node3</title>
<g id="a_node3"><a xlink:href="a00025.xhtml#a5eb9711b9a17e7d5493c7cfdffedc693" target="_top" xlink:title="Voxel::CLIManager::\l_addFilter">
<polygon fill="none" stroke="black" points="296.5,-39 296.5,-69 403.5,-69 403.5,-39 296.5,-39"/>
<text text-anchor="start" x="304.5" y="-57" font-family="Helvetica,sans-Serif" font-size="10.00">Voxel::CLIManager::</text>
<text text-anchor="middle" x="350" y="-46" font-family="Helvetica,sans-Serif" font-size="10.00">_addFilter</text>
</a>
</g>
</g>
<!-- Node2&#45;&gt;Node3 -->
<g id="edge2" class="edge"><title>Node2&#45;&gt;Node3</title>
<path fill="none" stroke="midnightblue" d="M269.994,-54C278.704,-54 287.578,-54 296.08,-54"/>
<polygon fill="midnightblue" stroke="midnightblue" points="269.876,-50.5001 259.876,-54 269.876,-57.5001 269.876,-50.5001"/>
</g>
<!-- Node4 -->
<g id="node4" class="node"><title>Node4</title>
<g id="a_node4"><a xlink:href="a00025.xhtml#a7a7ce51202c00d16a0e1cac5dcceb1e0" target="_top" xlink:title="Voxel::CLIManager::\lCLIManager">
<polygon fill="none" stroke="black" points="440.5,-39 440.5,-69 547.5,-69 547.5,-39 440.5,-39"/>
<text text-anchor="start" x="448.5" y="-57" font-family="Helvetica,sans-Serif" font-size="10.00">Voxel::CLIManager::</text>
<text text-anchor="middle" x="494" y="-46" font-family="Helvetica,sans-Serif" font-size="10.00">CLIManager</text>
</a>
</g>
</g>
<!-- Node3&#45;&gt;Node4 -->
<g id="edge3" class="edge"><title>Node3&#45;&gt;Node4</title>
<path fill="none" stroke="midnightblue" d="M413.994,-54C422.704,-54 431.578,-54 440.08,-54"/>
<polygon fill="midnightblue" stroke="midnightblue" points="413.876,-50.5001 403.876,-54 413.876,-57.5001 413.876,-50.5001"/>
</g>
</g>
</svg>
