<?xml version="1.0" encoding="UTF-8" standalone="no"?>
<!DOCTYPE svg PUBLIC "-//W3C//DTD SVG 1.1//EN"
 "http://www.w3.org/Graphics/SVG/1.1/DTD/svg11.dtd">
<!-- Generated by graphviz version 2.36.0 (20140111.2315)
 -->
<!-- Title: Voxel::FrameStreamReader::_getPacket Pages: 1 -->
<svg width="778pt" height="140pt"
 viewBox="0.00 0.00 778.00 139.60" xmlns="http://www.w3.org/2000/svg" xmlns:xlink="http://www.w3.org/1999/xlink">
<g id="graph0" class="graph" transform="scale(1 1) rotate(0) translate(4 135.598)">
<title>Voxel::FrameStreamReader::_getPacket</title>
<!-- Node1 -->
<g id="node1" class="node"><title>Node1</title>
<polygon fill="#bfbfbf" stroke="black" points="0,-36 0,-66 138,-66 138,-36 0,-36"/>
<text text-anchor="start" x="8" y="-54" font-family="Helvetica,sans-Serif" font-size="10.00">Voxel::FrameStreamReader</text>
<text text-anchor="middle" x="69" y="-43" font-family="Helvetica,sans-Serif" font-size="10.00">::_getPacket</text>
</g>
<!-- Node2 -->
<g id="node2" class="node"><title>Node2</title>
<g id="a_node2"><a xlink:href="a00035.xhtml#a3e9f061054a9cad39f3232febaea292a" target="_top" xlink:title="Voxel::DataPacket::read">
<polygon fill="none" stroke="black" points="174,-63.5 174,-82.5 298,-82.5 298,-63.5 174,-63.5"/>
<text text-anchor="middle" x="236" y="-70.5" font-family="Helvetica,sans-Serif" font-size="10.00">Voxel::DataPacket::read</text>
</a>
</g>
</g>
<!-- Node1&#45;&gt;Node2 -->
<g id="edge1" class="edge"><title>Node1&#45;&gt;Node2</title>
<path fill="none" stroke="midnightblue" d="M138.064,-60.0753C146.614,-61.2152 155.378,-62.3837 163.972,-63.5295"/>
<polygon fill="midnightblue" stroke="midnightblue" points="163.584,-67.0088 173.959,-64.8612 164.51,-60.0702 163.584,-67.0088"/>
</g>
<!-- Node7 -->
<g id="node7" class="node"><title>Node7</title>
<g id="a_node7"><a xlink:href="a00035.xhtml#a1eecb53d40b7db5c0bc40a55d57b9c72" target="_top" xlink:title="Voxel::DataPacket::\lverifyMagic">
<polygon fill="none" stroke="black" points="183.5,-14 183.5,-44 288.5,-44 288.5,-14 183.5,-14"/>
<text text-anchor="start" x="191.5" y="-32" font-family="Helvetica,sans-Serif" font-size="10.00">Voxel::DataPacket::</text>
<text text-anchor="middle" x="236" y="-21" font-family="Helvetica,sans-Serif" font-size="10.00">verifyMagic</text>
</a>
</g>
</g>
<!-- Node1&#45;&gt;Node7 -->
<g id="edge10" class="edge"><title>Node1&#45;&gt;Node7</title>
<path fill="none" stroke="midnightblue" d="M138.064,-41.9247C149.805,-40.3593 161.949,-38.7402 173.503,-37.1996"/>
<polygon fill="midnightblue" stroke="midnightblue" points="174.031,-40.6603 183.481,-35.8693 173.106,-33.7217 174.031,-40.6603"/>
</g>
<!-- Node3 -->
<g id="node3" class="node"><title>Node3</title>
<g id="a_node3"><a xlink:href="a00127.xhtml#a5b4f523481053034ad119a0dd8798eb4" target="_top" xlink:title="Voxel::SerializedObject\l::currentGetOffset">
<polygon fill="none" stroke="black" points="485.5,-77 485.5,-107 604.5,-107 604.5,-77 485.5,-77"/>
<text text-anchor="start" x="493.5" y="-95" font-family="Helvetica,sans-Serif" font-size="10.00">Voxel::SerializedObject</text>
<text text-anchor="middle" x="545" y="-84" font-family="Helvetica,sans-Serif" font-size="10.00">::currentGetOffset</text>
</a>
</g>
</g>
<!-- Node2&#45;&gt;Node3 -->
<g id="edge2" class="edge"><title>Node2&#45;&gt;Node3</title>
<path fill="none" stroke="midnightblue" d="M298.02,-76.7765C349.193,-79.9435 422.226,-84.4635 475.413,-87.7552"/>
<polygon fill="midnightblue" stroke="midnightblue" points="475.241,-91.2512 485.439,-88.3757 475.674,-84.2646 475.241,-91.2512"/>
</g>
<!-- Node4 -->
<g id="node4" class="node"><title>Node4</title>
<g id="a_node4"><a xlink:href="a00127.xhtml#a2044534dbfab4e75452288a0223dae7b" target="_top" xlink:title="Voxel::SerializedObject::get">
<polygon fill="none" stroke="black" points="476,-0.5 476,-19.5 614,-19.5 614,-0.5 476,-0.5"/>
<text text-anchor="middle" x="545" y="-7.5" font-family="Helvetica,sans-Serif" font-size="10.00">Voxel::SerializedObject::get</text>
</a>
</g>
</g>
<!-- Node2&#45;&gt;Node4 -->
<g id="edge3" class="edge"><title>Node2&#45;&gt;Node4</title>
<path fill="none" stroke="midnightblue" d="M272.639,-63.4786C281.17,-60.6161 290.092,-57.1185 298,-53 315.738,-43.7615 315.28,-33.0412 334,-26 375.645,-10.3355 425.148,-5.94774 465.63,-5.65556"/>
<polygon fill="midnightblue" stroke="midnightblue" points="465.713,-9.15554 475.717,-5.66514 465.72,-2.15554 465.713,-9.15554"/>
</g>
<!-- Node5 -->
<g id="node5" class="node"><title>Node5</title>
<g id="a_node5"><a xlink:href="a00127.xhtml#adf11acb91f4adf3fe582a778c12b6286" target="_top" xlink:title="Voxel::SerializedObject\l::size">
<polygon fill="none" stroke="black" points="650.5,-33 650.5,-63 769.5,-63 769.5,-33 650.5,-33"/>
<text text-anchor="start" x="658.5" y="-51" font-family="Helvetica,sans-Serif" font-size="10.00">Voxel::SerializedObject</text>
<text text-anchor="middle" x="710" y="-40" font-family="Helvetica,sans-Serif" font-size="10.00">::size</text>
</a>
</g>
</g>
<!-- Node2&#45;&gt;Node5 -->
<g id="edge9" class="edge"><title>Node2&#45;&gt;Node5</title>
<path fill="none" stroke="midnightblue" d="M261.06,-82.5197C321.818,-105.128 485.731,-157.176 614,-116 641.968,-107.022 668.695,-86.4403 686.634,-70.2566"/>
<polygon fill="midnightblue" stroke="midnightblue" points="689.294,-72.5622 694.231,-63.1878 684.526,-67.4374 689.294,-72.5622"/>
</g>
<!-- Node6 -->
<g id="node6" class="node"><title>Node6</title>
<g id="a_node6"><a xlink:href="a00035.xhtml#a6b513813ba962f331cb8a2683fbf5b85" target="_top" xlink:title="Voxel::DataPacket::\lreadHeader">
<polygon fill="none" stroke="black" points="334.5,-36 334.5,-66 439.5,-66 439.5,-36 334.5,-36"/>
<text text-anchor="start" x="342.5" y="-54" font-family="Helvetica,sans-Serif" font-size="10.00">Voxel::DataPacket::</text>
<text text-anchor="middle" x="387" y="-43" font-family="Helvetica,sans-Serif" font-size="10.00">readHeader</text>
</a>
</g>
</g>
<!-- Node2&#45;&gt;Node6 -->
<g id="edge5" class="edge"><title>Node2&#45;&gt;Node6</title>
<path fill="none" stroke="midnightblue" d="M298.034,-63.9883C306.699,-62.7089 315.615,-61.3925 324.292,-60.1112"/>
<polygon fill="midnightblue" stroke="midnightblue" points="324.958,-63.5509 334.339,-58.6277 323.935,-56.626 324.958,-63.5509"/>
</g>
<!-- Node4&#45;&gt;Node5 -->
<g id="edge4" class="edge"><title>Node4&#45;&gt;Node5</title>
<path fill="none" stroke="midnightblue" d="M587.132,-19.589C603.286,-23.3549 622.27,-27.7807 640.383,-32.0035"/>
<polygon fill="midnightblue" stroke="midnightblue" points="639.8,-35.4612 650.333,-34.3231 641.389,-28.644 639.8,-35.4612"/>
</g>
<!-- Node6&#45;&gt;Node3 -->
<g id="edge6" class="edge"><title>Node6&#45;&gt;Node3</title>
<path fill="none" stroke="midnightblue" d="M439.513,-64.5386C451.487,-67.6858 464.407,-71.0814 476.943,-74.376"/>
<polygon fill="midnightblue" stroke="midnightblue" points="476.327,-77.8328 486.888,-76.9898 478.106,-71.0628 476.327,-77.8328"/>
</g>
<!-- Node6&#45;&gt;Node4 -->
<g id="edge7" class="edge"><title>Node6&#45;&gt;Node4</title>
<path fill="none" stroke="midnightblue" d="M439.513,-37.4614C458.383,-32.502 479.6,-26.9257 497.96,-22.1002"/>
<polygon fill="midnightblue" stroke="midnightblue" points="499.052,-25.4322 507.834,-19.5052 497.272,-18.6622 499.052,-25.4322"/>
</g>
<!-- Node6&#45;&gt;Node5 -->
<g id="edge8" class="edge"><title>Node6&#45;&gt;Node5</title>
<path fill="none" stroke="midnightblue" d="M439.574,-50.518C494.022,-50.0091 580.137,-49.2043 640.311,-48.642"/>
<polygon fill="midnightblue" stroke="midnightblue" points="640.516,-52.1403 650.482,-48.5469 640.45,-45.1406 640.516,-52.1403"/>
</g>
</g>
</svg>
