<?xml version="1.0" encoding="UTF-8" standalone="no"?>
<!DOCTYPE svg PUBLIC "-//W3C//DTD SVG 1.1//EN"
 "http://www.w3.org/Graphics/SVG/1.1/DTD/svg11.dtd">
<!-- Generated by graphviz version 2.36.0 (20140111.2315)
 -->
<!-- Title: Voxel::TI::HaddockModulationFrequencyParameter::getOptimalMinimum Pages: 1 -->
<svg width="604pt" height="38pt"
 viewBox="0.00 0.00 604.00 38.00" xmlns="http://www.w3.org/2000/svg" xmlns:xlink="http://www.w3.org/1999/xlink">
<g id="graph0" class="graph" transform="scale(1 1) rotate(0) translate(4 34)">
<title>Voxel::TI::HaddockModulationFrequencyParameter::getOptimalMinimum</title>
<!-- Node1 -->
<g id="node1" class="node"><title>Node1</title>
<polygon fill="#bfbfbf" stroke="black" points="0,-0 0,-30 200,-30 200,-0 0,-0"/>
<text text-anchor="start" x="8" y="-18" font-family="Helvetica,sans-Serif" font-size="10.00">Voxel::TI::HaddockModulation</text>
<text text-anchor="middle" x="100" y="-7" font-family="Helvetica,sans-Serif" font-size="10.00">FrequencyParameter::getOptimalMinimum</text>
</g>
<!-- Node2 -->
<g id="node2" class="node"><title>Node2</title>
<g id="a_node2"><a xlink:href="a00084.xhtml#a0da082fe30df06fe3a29cfbc5908c55c" target="_top" xlink:title="Voxel::TI::HaddockUnambiguous\lRangeParameter::set">
<polygon fill="none" stroke="black" points="236.5,-0 236.5,-30 397.5,-30 397.5,-0 236.5,-0"/>
<text text-anchor="start" x="244.5" y="-18" font-family="Helvetica,sans-Serif" font-size="10.00">Voxel::TI::HaddockUnambiguous</text>
<text text-anchor="middle" x="317" y="-7" font-family="Helvetica,sans-Serif" font-size="10.00">RangeParameter::set</text>
</a>
</g>
</g>
<!-- Node1&#45;&gt;Node2 -->
<g id="edge1" class="edge"><title>Node1&#45;&gt;Node2</title>
<path fill="none" stroke="midnightblue" d="M210.254,-15C218.991,-15 227.712,-15 236.187,-15"/>
<polygon fill="midnightblue" stroke="midnightblue" points="210.004,-11.5001 200.004,-15 210.004,-18.5001 210.004,-11.5001"/>
</g>
<!-- Node3 -->
<g id="node3" class="node"><title>Node3</title>
<g id="a_node3"><a xlink:href="a00084.xhtml#a651affc3a71f50f73cd47963d30ed18b" target="_top" xlink:title="Voxel::TI::HaddockUnambiguous\lRangeParameter::get">
<polygon fill="none" stroke="black" points="434.5,-0 434.5,-30 595.5,-30 595.5,-0 434.5,-0"/>
<text text-anchor="start" x="442.5" y="-18" font-family="Helvetica,sans-Serif" font-size="10.00">Voxel::TI::HaddockUnambiguous</text>
<text text-anchor="middle" x="515" y="-7" font-family="Helvetica,sans-Serif" font-size="10.00">RangeParameter::get</text>
</a>
</g>
</g>
<!-- Node2&#45;&gt;Node3 -->
<g id="edge2" class="edge"><title>Node2&#45;&gt;Node3</title>
<path fill="none" stroke="midnightblue" d="M407.989,-15C416.785,-15 425.667,-15 434.35,-15"/>
<polygon fill="midnightblue" stroke="midnightblue" points="407.721,-11.5001 397.721,-15 407.721,-18.5001 407.721,-11.5001"/>
</g>
</g>
</svg>
