<?xml version="1.0" encoding="UTF-8" standalone="no"?>
<!DOCTYPE svg PUBLIC "-//W3C//DTD SVG 1.1//EN"
 "http://www.w3.org/Graphics/SVG/1.1/DTD/svg11.dtd">
<!-- Generated by graphviz version 2.36.0 (20140111.2315)
 -->
<!-- Title: Voxel::TI::HaddockCDKCameraFactory::getDepthCamera Pages: 1 -->
<svg width="350pt" height="66pt"
 viewBox="0.00 0.00 350.00 66.00" xmlns="http://www.w3.org/2000/svg" xmlns:xlink="http://www.w3.org/1999/xlink">
<g id="graph0" class="graph" transform="scale(1 1) rotate(0) translate(4 62)">
<title>Voxel::TI::HaddockCDKCameraFactory::getDepthCamera</title>
<!-- Node1 -->
<g id="node1" class="node"><title>Node1</title>
<polygon fill="#bfbfbf" stroke="black" points="0,-14 0,-44 158,-44 158,-14 0,-14"/>
<text text-anchor="start" x="8" y="-32" font-family="Helvetica,sans-Serif" font-size="10.00">Voxel::TI::HaddockCDKCamera</text>
<text text-anchor="middle" x="79" y="-21" font-family="Helvetica,sans-Serif" font-size="10.00">Factory::getDepthCamera</text>
</g>
<!-- Node2 -->
<g id="node2" class="node"><title>Node2</title>
<g id="a_node2"><a xlink:href="a00167.xhtml#a733db00843f6522b28a07719c943e1fe" target="_top" xlink:title="Voxel::USBDevice::productID">
<polygon fill="none" stroke="black" points="194,-38.5 194,-57.5 342,-57.5 342,-38.5 194,-38.5"/>
<text text-anchor="middle" x="268" y="-45.5" font-family="Helvetica,sans-Serif" font-size="10.00">Voxel::USBDevice::productID</text>
</a>
</g>
</g>
<!-- Node1&#45;&gt;Node2 -->
<g id="edge1" class="edge"><title>Node1&#45;&gt;Node2</title>
<path fill="none" stroke="midnightblue" d="M158.221,-36.9476C166.71,-37.8101 175.371,-38.6901 183.914,-39.5581"/>
<polygon fill="midnightblue" stroke="midnightblue" points="183.57,-43.0411 193.872,-40.5699 184.277,-36.0769 183.57,-43.0411"/>
</g>
<!-- Node3 -->
<g id="node3" class="node"><title>Node3</title>
<g id="a_node3"><a xlink:href="a00167.xhtml#ad7edff89623a9ecf8a2840b5181c67ac" target="_top" xlink:title="Voxel::USBDevice::vendorID">
<polygon fill="none" stroke="black" points="195.5,-0.5 195.5,-19.5 340.5,-19.5 340.5,-0.5 195.5,-0.5"/>
<text text-anchor="middle" x="268" y="-7.5" font-family="Helvetica,sans-Serif" font-size="10.00">Voxel::USBDevice::vendorID</text>
</a>
</g>
</g>
<!-- Node1&#45;&gt;Node3 -->
<g id="edge2" class="edge"><title>Node1&#45;&gt;Node3</title>
<path fill="none" stroke="midnightblue" d="M158.221,-21.0524C167.166,-20.1436 176.301,-19.2154 185.29,-18.3021"/>
<polygon fill="midnightblue" stroke="midnightblue" points="185.762,-21.7723 195.357,-17.2793 185.054,-14.8081 185.762,-21.7723"/>
</g>
</g>
</svg>
