<?xml version="1.0" encoding="UTF-8" standalone="no"?>
<!DOCTYPE svg PUBLIC "-//W3C//DTD SVG 1.1//EN"
 "http://www.w3.org/Graphics/SVG/1.1/DTD/svg11.dtd">
<!-- Generated by graphviz version 2.36.0 (20140111.2315)
 -->
<!-- Title: Voxel::DFT::DFT2D Pages: 1 -->
<svg width="450pt" height="28pt"
 viewBox="0.00 0.00 450.00 28.00" xmlns="http://www.w3.org/2000/svg" xmlns:xlink="http://www.w3.org/1999/xlink">
<g id="graph0" class="graph" transform="scale(1 1) rotate(0) translate(4 24)">
<title>Voxel::DFT::DFT2D</title>
<!-- Node1 -->
<g id="node1" class="node"><title>Node1</title>
<polygon fill="#bfbfbf" stroke="black" points="0.5,-0.5 0.5,-19.5 105.5,-19.5 105.5,-0.5 0.5,-0.5"/>
<text text-anchor="middle" x="53" y="-7.5" font-family="Helvetica,sans-Serif" font-size="10.00">Voxel::DFT::DFT2D</text>
</g>
<!-- Node2 -->
<g id="node2" class="node"><title>Node2</title>
<g id="a_node2"><a xlink:href="a00045.xhtml#a62f78819ca24e8d6d2e867e890eda577" target="_top" xlink:title="Voxel::DFT::DFT1D">
<polygon fill="none" stroke="black" points="142.5,-0.5 142.5,-19.5 247.5,-19.5 247.5,-0.5 142.5,-0.5"/>
<text text-anchor="middle" x="195" y="-7.5" font-family="Helvetica,sans-Serif" font-size="10.00">Voxel::DFT::DFT1D</text>
</a>
</g>
</g>
<!-- Node1&#45;&gt;Node2 -->
<g id="edge1" class="edge"><title>Node1&#45;&gt;Node2</title>
<path fill="none" stroke="midnightblue" d="M105.733,-10C114.355,-10 123.374,-10 132.216,-10"/>
<polygon fill="midnightblue" stroke="midnightblue" points="132.48,-13.5001 142.48,-10 132.48,-6.5001 132.48,-13.5001"/>
</g>
<!-- Node3 -->
<g id="node3" class="node"><title>Node3</title>
<g id="a_node3"><a xlink:href="a00045.xhtml#aae3f9cab0c773c24d2b2c1d769d6ef5a" target="_top" xlink:title="Voxel::DFT::_computeExpTable">
<polygon fill="none" stroke="black" points="284.5,-0.5 284.5,-19.5 441.5,-19.5 441.5,-0.5 284.5,-0.5"/>
<text text-anchor="middle" x="363" y="-7.5" font-family="Helvetica,sans-Serif" font-size="10.00">Voxel::DFT::_computeExpTable</text>
</a>
</g>
</g>
<!-- Node2&#45;&gt;Node3 -->
<g id="edge2" class="edge"><title>Node2&#45;&gt;Node3</title>
<path fill="none" stroke="midnightblue" d="M247.613,-10C256.05,-10 264.994,-10 274.016,-10"/>
<polygon fill="midnightblue" stroke="midnightblue" points="274.214,-13.5001 284.214,-10 274.214,-6.5001 274.214,-13.5001"/>
</g>
</g>
</svg>
