<?xml version="1.0" encoding="UTF-8" standalone="no"?>
<!DOCTYPE svg PUBLIC "-//W3C//DTD SVG 1.1//EN"
 "http://www.w3.org/Graphics/SVG/1.1/DTD/svg11.dtd">
<!-- Generated by graphviz version 2.36.0 (20140111.2315)
 -->
<!-- Title: Voxel::DepthCamera::addCameraProfile Pages: 1 -->
<!--zoomable 181 -->
<svg id="main" version="1.1" xmlns="http://www.w3.org/2000/svg" xmlns:xlink="http://www.w3.org/1999/xlink" xml:space="preserve" onload="init(evt)">
<style type="text/css"><![CDATA[
.edge:hover path { stroke: red; }
.edge:hover polygon { stroke: red; fill: red; }
]]></style>
<script type="text/javascript"><![CDATA[
var edges = document.getElementsByTagName('g');
if (edges && edges.length) {
  for (var i=0;i<edges.length;i++) {
    if (edges[i].id.substr(0,4)=='edge') {
      edges[i].setAttribute('class','edge');
    }
  }
}
]]></script>
        <defs>
                <circle id="rim" cx="0" cy="0" r="7"/>
                <circle id="rim2" cx="0" cy="0" r="3.5"/>
                <g id="zoomPlus">
                        <use xlink:href="#rim" fill="#404040">
                                <set attributeName="fill" to="#808080" begin="zoomplus.mouseover" end="zoomplus.mouseout"/>
                        </use>
                        <path d="M-4,0h8M0,-4v8" fill="none" stroke="white" stroke-width="1.5" pointer-events="none"/>
                </g>
                <g id="zoomMin">
                        <use xlink:href="#rim" fill="#404040">
                                <set attributeName="fill" to="#808080" begin="zoomminus.mouseover" end="zoomminus.mouseout"/>
                        </use>
                        <path d="M-4,0h8" fill="none" stroke="white" stroke-width="1.5" pointer-events="none"/>
                </g>
                <g id="dirArrow">
                        <path fill="none" stroke="white" stroke-width="1.5" d="M0,-3.0v7 M-2.5,-0.5L0,-3.0L2.5,-0.5"/>
                </g>
               <g id="resetDef">
                       <use xlink:href="#rim2" fill="#404040">
                               <set attributeName="fill" to="#808080" begin="reset.mouseover" end="reset.mouseout"/>
                       </use>
               </g>
        </defs>

<script type="text/javascript">
var viewWidth = 1156;
var viewHeight = 181;
var sectionId = 'dynsection-44';
</script>
<script xlink:href="svgpan.js"/>
<svg id="graph" class="graph">
<g id="viewport">
<title>Voxel::DepthCamera::addCameraProfile</title>
<!-- Node1 -->
<g id="node1" class="node"><title>Node1</title>
<polygon fill="#bfbfbf" stroke="black" points="0,-66 0,-96 108,-96 108,-66 0,-66"/>
<text text-anchor="start" x="8" y="-84" font-family="Helvetica,sans-Serif" font-size="10.00">Voxel::DepthCamera</text>
<text text-anchor="middle" x="54" y="-73" font-family="Helvetica,sans-Serif" font-size="10.00">::addCameraProfile</text>
</g>
<!-- Node2 -->
<g id="node2" class="node"><title>Node2</title>
<g id="a_node2"><a xlink:href="a00096.xhtml#a43204cc6e30ecead0efd522ca13e3b67" target="_top" xlink:title="Voxel::MainConfiguration\lFile::addCameraProfile">
<polygon fill="none" stroke="black" points="144,-66 144,-96 270,-96 270,-66 144,-66"/>
<text text-anchor="start" x="152" y="-84" font-family="Helvetica,sans-Serif" font-size="10.00">Voxel::MainConfiguration</text>
<text text-anchor="middle" x="207" y="-73" font-family="Helvetica,sans-Serif" font-size="10.00">File::addCameraProfile</text>
</a>
</g>
</g>
<!-- Node1&#45;&gt;Node2 -->
<g id="edge1" class="edge"><title>Node1&#45;&gt;Node2</title>
<path fill="none" stroke="midnightblue" d="M108.237,-81C116.537,-81 125.231,-81 133.866,-81"/>
<polygon fill="midnightblue" stroke="midnightblue" points="133.949,-84.5001 143.949,-81 133.949,-77.5001 133.949,-84.5001"/>
</g>
<!-- Node3 -->
<g id="node3" class="node"><title>Node3</title>
<g id="a_node3"><a xlink:href="a00096.xhtml#af80a0ee93926dcdae895f5ddccbc7418" target="_top" xlink:title="Voxel::MainConfiguration\lFile::_getNewCameraProfileID">
<polygon fill="none" stroke="black" points="307,-137 307,-167 457,-167 457,-137 307,-137"/>
<text text-anchor="start" x="315" y="-155" font-family="Helvetica,sans-Serif" font-size="10.00">Voxel::MainConfiguration</text>
<text text-anchor="middle" x="382" y="-144" font-family="Helvetica,sans-Serif" font-size="10.00">File::_getNewCameraProfileID</text>
</a>
</g>
</g>
<!-- Node2&#45;&gt;Node3 -->
<g id="edge2" class="edge"><title>Node2&#45;&gt;Node3</title>
<path fill="none" stroke="midnightblue" d="M237.624,-96.0143C256.86,-105.486 282.614,-117.651 306,-127 311.552,-129.219 317.386,-131.407 323.245,-133.51"/>
<polygon fill="midnightblue" stroke="midnightblue" points="322.491,-136.955 333.085,-136.96 324.806,-130.349 322.491,-136.955"/>
</g>
<!-- Node4 -->
<g id="node4" class="node"><title>Node4</title>
<g id="a_node4"><a xlink:href="a00096.xhtml#ae2f3f66b632fa462d8b9f873f416f12b" target="_top" xlink:title="Voxel::MainConfiguration\lFile::_updateCameraProfileList">
<polygon fill="none" stroke="black" points="306.5,-88 306.5,-118 457.5,-118 457.5,-88 306.5,-88"/>
<text text-anchor="start" x="314.5" y="-106" font-family="Helvetica,sans-Serif" font-size="10.00">Voxel::MainConfiguration</text>
<text text-anchor="middle" x="382" y="-95" font-family="Helvetica,sans-Serif" font-size="10.00">File::_updateCameraProfileList</text>
</a>
</g>
</g>
<!-- Node2&#45;&gt;Node4 -->
<g id="edge3" class="edge"><title>Node2&#45;&gt;Node4</title>
<path fill="none" stroke="midnightblue" d="M270.457,-88.9425C278.805,-90.0041 287.477,-91.1069 296.127,-92.2069"/>
<polygon fill="midnightblue" stroke="midnightblue" points="295.89,-95.7049 306.252,-93.4944 296.773,-88.7608 295.89,-95.7049"/>
</g>
<!-- Node12 -->
<g id="node12" class="node"><title>Node12</title>
<g id="a_node12"><a xlink:href="a00031.xhtml#a978b37f6995656a3fd39a35e70867bf0" target="_top" xlink:title="Voxel::ConfigurationFile\l::write">
<polygon fill="none" stroke="black" points="503.5,-44 503.5,-74 624.5,-74 624.5,-44 503.5,-44"/>
<text text-anchor="start" x="511.5" y="-62" font-family="Helvetica,sans-Serif" font-size="10.00">Voxel::ConfigurationFile</text>
<text text-anchor="middle" x="564" y="-51" font-family="Helvetica,sans-Serif" font-size="10.00">::write</text>
</a>
</g>
</g>
<!-- Node2&#45;&gt;Node12 -->
<g id="edge16" class="edge"><title>Node2&#45;&gt;Node12</title>
<path fill="none" stroke="midnightblue" d="M270.243,-77.1427C332.626,-73.2767 428.473,-67.3369 493.354,-63.3161"/>
<polygon fill="midnightblue" stroke="midnightblue" points="493.727,-66.7998 503.492,-62.6879 493.294,-59.8132 493.727,-66.7998"/>
</g>
<!-- Node14 -->
<g id="node14" class="node"><title>Node14</title>
<g id="a_node14"><a xlink:href="a00031.xhtml#a64145f61597015135dd217be1adf9034" target="_top" xlink:title="Voxel::ConfigurationFile\l::ConfigurationFile">
<polygon fill="none" stroke="black" points="321.5,-0 321.5,-30 442.5,-30 442.5,-0 321.5,-0"/>
<text text-anchor="start" x="329.5" y="-18" font-family="Helvetica,sans-Serif" font-size="10.00">Voxel::ConfigurationFile</text>
<text text-anchor="middle" x="382" y="-7" font-family="Helvetica,sans-Serif" font-size="10.00">::ConfigurationFile</text>
</a>
</g>
</g>
<!-- Node2&#45;&gt;Node14 -->
<g id="edge15" class="edge"><title>Node2&#45;&gt;Node14</title>
<path fill="none" stroke="midnightblue" d="M247.69,-65.8583C272.744,-56.2999 305.297,-43.8811 331.962,-33.7081"/>
<polygon fill="midnightblue" stroke="midnightblue" points="333.399,-36.9059 341.495,-30.0713 330.904,-30.3657 333.399,-36.9059"/>
</g>
<!-- Node5 -->
<g id="node5" class="node"><title>Node5</title>
<g id="a_node5"><a xlink:href="a00390.xhtml#gad19078fe2a67a3174aaa6b4ab8e49292" target="_top" xlink:title="Voxel::basename">
<polygon fill="none" stroke="black" points="685,-90.5 685,-109.5 777,-109.5 777,-90.5 685,-90.5"/>
<text text-anchor="middle" x="731" y="-97.5" font-family="Helvetica,sans-Serif" font-size="10.00">Voxel::basename</text>
</a>
</g>
</g>
<!-- Node4&#45;&gt;Node5 -->
<g id="edge4" class="edge"><title>Node4&#45;&gt;Node5</title>
<path fill="none" stroke="midnightblue" d="M457.867,-102.353C523.085,-101.789 616.148,-100.984 674.791,-100.477"/>
<polygon fill="midnightblue" stroke="midnightblue" points="674.999,-103.976 684.969,-100.389 674.939,-96.976 674.999,-103.976"/>
</g>
<!-- Node6 -->
<g id="node6" class="node"><title>Node6</title>
<g id="a_node6"><a xlink:href="a00031.xhtml#a440d9dd2f89d0c76c81f7285b31a5b94" target="_top" xlink:title="Voxel::ConfigurationFile::set">
<polygon fill="none" stroke="black" points="494,-134.5 494,-153.5 634,-153.5 634,-134.5 494,-134.5"/>
<text text-anchor="middle" x="564" y="-141.5" font-family="Helvetica,sans-Serif" font-size="10.00">Voxel::ConfigurationFile::set</text>
</a>
</g>
</g>
<!-- Node4&#45;&gt;Node6 -->
<g id="edge5" class="edge"><title>Node4&#45;&gt;Node6</title>
<path fill="none" stroke="midnightblue" d="M449.003,-118.034C469.509,-122.705 491.809,-127.784 511.202,-132.202"/>
<polygon fill="midnightblue" stroke="midnightblue" points="510.526,-135.637 521.054,-134.446 512.081,-128.812 510.526,-135.637"/>
</g>
<!-- Node4&#45;&gt;Node12 -->
<g id="edge12" class="edge"><title>Node4&#45;&gt;Node12</title>
<path fill="none" stroke="midnightblue" d="M444.442,-87.9808C460.214,-84.1255 477.291,-79.9511 493.441,-76.0034"/>
<polygon fill="midnightblue" stroke="midnightblue" points="494.474,-79.354 503.357,-73.5795 492.811,-72.5542 494.474,-79.354"/>
</g>
<!-- Node7 -->
<g id="node7" class="node"><title>Node7</title>
<g id="a_node7"><a xlink:href="a00031.xhtml#a3b9b573c1a3d9162fc0100c317ca0879" target="_top" xlink:title="Voxel::ConfigurationFile\l::_set">
<polygon fill="none" stroke="black" points="670.5,-129 670.5,-159 791.5,-159 791.5,-129 670.5,-129"/>
<text text-anchor="start" x="678.5" y="-147" font-family="Helvetica,sans-Serif" font-size="10.00">Voxel::ConfigurationFile</text>
<text text-anchor="middle" x="731" y="-136" font-family="Helvetica,sans-Serif" font-size="10.00">::_set</text>
</a>
</g>
</g>
<!-- Node6&#45;&gt;Node7 -->
<g id="edge6" class="edge"><title>Node6&#45;&gt;Node7</title>
<path fill="none" stroke="midnightblue" d="M634.019,-137.331C642.715,-137.226 651.616,-137.223 660.321,-137.323"/>
<polygon fill="midnightblue" stroke="midnightblue" points="660.372,-140.824 670.428,-137.487 660.486,-133.825 660.372,-140.824"/>
</g>
<!-- Node7&#45;&gt;Node6 -->
<g id="edge11" class="edge"><title>Node7&#45;&gt;Node6</title>
<path fill="none" stroke="midnightblue" d="M670.428,-150.513C661.936,-150.693 653.092,-150.77 644.297,-150.745"/>
<polygon fill="midnightblue" stroke="midnightblue" points="644.045,-147.244 634.019,-150.669 643.993,-154.243 644.045,-147.244"/>
</g>
<!-- Node8 -->
<g id="node8" class="node"><title>Node8</title>
<g id="a_node8"><a xlink:href="a00029.xhtml#a8fb880c24ad7b0f04c84d4a33becb995" target="_top" xlink:title="Voxel::ConfigSet::_set">
<polygon fill="none" stroke="black" points="828,-134.5 828,-153.5 944,-153.5 944,-134.5 828,-134.5"/>
<text text-anchor="middle" x="886" y="-141.5" font-family="Helvetica,sans-Serif" font-size="10.00">Voxel::ConfigSet::_set</text>
</a>
</g>
</g>
<!-- Node7&#45;&gt;Node8 -->
<g id="edge7" class="edge"><title>Node7&#45;&gt;Node8</title>
<path fill="none" stroke="midnightblue" d="M791.592,-144C800.156,-144 809.017,-144 817.717,-144"/>
<polygon fill="midnightblue" stroke="midnightblue" points="817.828,-147.5 827.828,-144 817.828,-140.5 817.828,-147.5"/>
</g>
<!-- Node9 -->
<g id="node9" class="node"><title>Node9</title>
<g id="a_node9"><a xlink:href="a00390.xhtml#ga6b2a26aa983349496fedae9aa54ad034" target="_top" xlink:title="Trim. ">
<polygon fill="none" stroke="black" points="980,-134.5 980,-153.5 1044,-153.5 1044,-134.5 980,-134.5"/>
<text text-anchor="middle" x="1012" y="-141.5" font-family="Helvetica,sans-Serif" font-size="10.00">Voxel::trim</text>
</a>
</g>
</g>
<!-- Node8&#45;&gt;Node9 -->
<g id="edge8" class="edge"><title>Node8&#45;&gt;Node9</title>
<path fill="none" stroke="midnightblue" d="M944.281,-144C952.753,-144 961.343,-144 969.413,-144"/>
<polygon fill="midnightblue" stroke="midnightblue" points="969.67,-147.5 979.67,-144 969.669,-140.5 969.67,-147.5"/>
</g>
<!-- Node10 -->
<g id="node10" class="node"><title>Node10</title>
<g id="a_node10"><a xlink:href="a00390.xhtml#gac9c04e18f7878dd82964bb489b7b1314" target="_top" xlink:title="Left Trim. ">
<polygon fill="none" stroke="black" points="1081,-153.5 1081,-172.5 1147,-172.5 1147,-153.5 1081,-153.5"/>
<text text-anchor="middle" x="1114" y="-160.5" font-family="Helvetica,sans-Serif" font-size="10.00">Voxel::ltrim</text>
</a>
</g>
</g>
<!-- Node9&#45;&gt;Node10 -->
<g id="edge9" class="edge"><title>Node9&#45;&gt;Node10</title>
<path fill="none" stroke="midnightblue" d="M1044.09,-149.908C1052.59,-151.522 1061.94,-153.299 1070.94,-155.009"/>
<polygon fill="midnightblue" stroke="midnightblue" points="1070.41,-158.471 1080.89,-156.899 1071.72,-151.594 1070.41,-158.471"/>
</g>
<!-- Node11 -->
<g id="node11" class="node"><title>Node11</title>
<g id="a_node11"><a xlink:href="a00390.xhtml#ga3d95f05dde73bc9c54051437445e439b" target="_top" xlink:title="Right Trim. ">
<polygon fill="none" stroke="black" points="1080.5,-115.5 1080.5,-134.5 1147.5,-134.5 1147.5,-115.5 1080.5,-115.5"/>
<text text-anchor="middle" x="1114" y="-122.5" font-family="Helvetica,sans-Serif" font-size="10.00">Voxel::rtrim</text>
</a>
</g>
</g>
<!-- Node9&#45;&gt;Node11 -->
<g id="edge10" class="edge"><title>Node9&#45;&gt;Node11</title>
<path fill="none" stroke="midnightblue" d="M1044.09,-138.092C1052.33,-136.526 1061.38,-134.808 1070.13,-133.146"/>
<polygon fill="midnightblue" stroke="midnightblue" points="1071.02,-136.538 1080.2,-131.233 1069.72,-129.661 1071.02,-136.538"/>
</g>
<!-- Node12&#45;&gt;Node5 -->
<g id="edge13" class="edge"><title>Node12&#45;&gt;Node5</title>
<path fill="none" stroke="midnightblue" d="M624.569,-73.8019C643.33,-78.4638 663.81,-83.5527 681.687,-87.995"/>
<polygon fill="midnightblue" stroke="midnightblue" points="681.052,-91.4436 691.601,-90.4584 682.74,-84.6502 681.052,-91.4436"/>
</g>
<!-- Node13 -->
<g id="node13" class="node"><title>Node13</title>
<g id="a_node13"><a xlink:href="a00030.xhtml#a71d00cf21a3da3339b2db126239d17b6" target="_top" xlink:title="Voxel::Configuration\l::getLocalConfPath">
<polygon fill="none" stroke="black" points="678.5,-41 678.5,-71 783.5,-71 783.5,-41 678.5,-41"/>
<text text-anchor="start" x="686.5" y="-59" font-family="Helvetica,sans-Serif" font-size="10.00">Voxel::Configuration</text>
<text text-anchor="middle" x="731" y="-48" font-family="Helvetica,sans-Serif" font-size="10.00">::getLocalConfPath</text>
</a>
</g>
</g>
<!-- Node12&#45;&gt;Node13 -->
<g id="edge14" class="edge"><title>Node12&#45;&gt;Node13</title>
<path fill="none" stroke="midnightblue" d="M624.569,-57.9169C638.756,-57.659 653.927,-57.3832 668.211,-57.1234"/>
<polygon fill="midnightblue" stroke="midnightblue" points="668.495,-60.619 678.429,-56.9376 668.367,-53.6201 668.495,-60.619"/>
</g>
</g>
</svg>
        <g id="navigator" transform="translate(0 0)" fill="#404254">
                <rect fill="#f2f5e9" fill-opacity="0.5" stroke="#606060" stroke-width=".5" x="0" y="0" width="60" height="60"/>
                <use id="zoomplus" xlink:href="#zoomPlus" x="17" y="9" onmousedown="handleZoom(evt,'in')"/>
                <use id="zoomminus" xlink:href="#zoomMin" x="42" y="9" onmousedown="handleZoom(evt,'out')"/>
                <use id="reset" xlink:href="#resetDef" x="30" y="36" onmousedown="handleReset()"/>
                <g id="arrowUp" xlink:href="#dirArrow" transform="translate(30 24)" onmousedown="handlePan(0,-1)">
                  <use xlink:href="#rim" fill="#404040">
                        <set attributeName="fill" to="#808080" begin="arrowUp.mouseover" end="arrowUp.mouseout"/>
                  </use>
                  <path fill="none" stroke="white" stroke-width="1.5" d="M0,-3.0v7 M-2.5,-0.5L0,-3.0L2.5,-0.5"/>
                </g>
                <g id="arrowRight" xlink:href="#dirArrow" transform="rotate(90) translate(36 -43)" onmousedown="handlePan(1,0)">
                  <use xlink:href="#rim" fill="#404040">
                        <set attributeName="fill" to="#808080" begin="arrowRight.mouseover" end="arrowRight.mouseout"/>
                  </use>
                  <path fill="none" stroke="white" stroke-width="1.5" d="M0,-3.0v7 M-2.5,-0.5L0,-3.0L2.5,-0.5"/>
                </g>
                <g id="arrowDown" xlink:href="#dirArrow" transform="rotate(180) translate(-30 -48)" onmousedown="handlePan(0,1)">
                  <use xlink:href="#rim" fill="#404040">
                        <set attributeName="fill" to="#808080" begin="arrowDown.mouseover" end="arrowDown.mouseout"/>
                  </use>
                  <path fill="none" stroke="white" stroke-width="1.5" d="M0,-3.0v7 M-2.5,-0.5L0,-3.0L2.5,-0.5"/>
                </g>
                <g id="arrowLeft" xlink:href="#dirArrow" transform="rotate(270) translate(-36 17)" onmousedown="handlePan(-1,0)">
                  <use xlink:href="#rim" fill="#404040">
                        <set attributeName="fill" to="#808080" begin="arrowLeft.mouseover" end="arrowLeft.mouseout"/>
                  </use>
                  <path fill="none" stroke="white" stroke-width="1.5" d="M0,-3.0v7 M-2.5,-0.5L0,-3.0L2.5,-0.5"/>
                </g>
        </g>
        <svg viewBox="0 0 15 15" width="100%" height="30px" preserveAspectRatio="xMaxYMin meet">
         <g id="arrow_out" transform="scale(0.3 0.3)">
          <a xlink:href="a00036_afd88098930492a61560db37abdfacac1_cgraph_org.svg" target="_base">
           <rect id="button" ry="5" rx="5" y="6" x="6" height="38" width="38"
                fill="#f2f5e9" fill-opacity="0.5" stroke="#606060" stroke-width="1.0"/>
           <path id="arrow"
             d="M 11.500037,31.436501 C 11.940474,20.09759 22.043105,11.32322 32.158766,21.979434 L 37.068811,17.246167 C 37.068811,17.246167 37.088388,32 37.088388,32 L 22.160133,31.978069 C 22.160133,31.978069 26.997745,27.140456 26.997745,27.140456 C 18.528582,18.264221 13.291696,25.230495 11.500037,31.436501 z"
             style="fill:#404040;"/>
          </a>
         </g>
        </svg>
</svg>
