<?xml version="1.0" encoding="UTF-8" standalone="no"?>
<!DOCTYPE svg PUBLIC "-//W3C//DTD SVG 1.1//EN"
 "http://www.w3.org/Graphics/SVG/1.1/DTD/svg11.dtd">
<!-- Generated by graphviz version 2.36.0 (20140111.2315)
 -->
<!-- Title: Voxel::ConfigSet::isPresent Pages: 1 -->
<!--zoomable 398 -->
<svg id="main" version="1.1" xmlns="http://www.w3.org/2000/svg" xmlns:xlink="http://www.w3.org/1999/xlink" xml:space="preserve" onload="init(evt)">
<style type="text/css"><![CDATA[
.edge:hover path { stroke: red; }
.edge:hover polygon { stroke: red; fill: red; }
]]></style>
<script type="text/javascript"><![CDATA[
var edges = document.getElementsByTagName('g');
if (edges && edges.length) {
  for (var i=0;i<edges.length;i++) {
    if (edges[i].id.substr(0,4)=='edge') {
      edges[i].setAttribute('class','edge');
    }
  }
}
]]></script>
        <defs>
                <circle id="rim" cx="0" cy="0" r="7"/>
                <circle id="rim2" cx="0" cy="0" r="3.5"/>
                <g id="zoomPlus">
                        <use xlink:href="#rim" fill="#404040">
                                <set attributeName="fill" to="#808080" begin="zoomplus.mouseover" end="zoomplus.mouseout"/>
                        </use>
                        <path d="M-4,0h8M0,-4v8" fill="none" stroke="white" stroke-width="1.5" pointer-events="none"/>
                </g>
                <g id="zoomMin">
                        <use xlink:href="#rim" fill="#404040">
                                <set attributeName="fill" to="#808080" begin="zoomminus.mouseover" end="zoomminus.mouseout"/>
                        </use>
                        <path d="M-4,0h8" fill="none" stroke="white" stroke-width="1.5" pointer-events="none"/>
                </g>
                <g id="dirArrow">
                        <path fill="none" stroke="white" stroke-width="1.5" d="M0,-3.0v7 M-2.5,-0.5L0,-3.0L2.5,-0.5"/>
                </g>
               <g id="resetDef">
                       <use xlink:href="#rim2" fill="#404040">
                               <set attributeName="fill" to="#808080" begin="reset.mouseover" end="reset.mouseout"/>
                       </use>
               </g>
        </defs>

<script type="text/javascript">
var viewWidth = 1802;
var viewHeight = 398;
var sectionId = 'dynsection-10';
</script>
<script xlink:href="svgpan.js"/>
<svg id="graph" class="graph">
<g id="viewport">
<title>Voxel::ConfigSet::isPresent</title>
<!-- Node1 -->
<g id="node1" class="node"><title>Node1</title>
<polygon fill="#bfbfbf" stroke="black" points="0,-241.5 0,-260.5 138,-260.5 138,-241.5 0,-241.5"/>
<text text-anchor="middle" x="69" y="-248.5" font-family="Helvetica,sans-Serif" font-size="10.00">Voxel::ConfigSet::isPresent</text>
</g>
<!-- Node2 -->
<g id="node2" class="node"><title>Node2</title>
<g id="a_node2"><a xlink:href="a00031.xhtml#a00e007801296e76b05ef10f1c8176c2d" target="_top" xlink:title="Voxel::ConfigurationFile\l::isPresent">
<polygon fill="none" stroke="black" points="174.5,-236 174.5,-266 295.5,-266 295.5,-236 174.5,-236"/>
<text text-anchor="start" x="182.5" y="-254" font-family="Helvetica,sans-Serif" font-size="10.00">Voxel::ConfigurationFile</text>
<text text-anchor="middle" x="235" y="-243" font-family="Helvetica,sans-Serif" font-size="10.00">::isPresent</text>
</a>
</g>
</g>
<!-- Node1&#45;&gt;Node2 -->
<g id="edge1" class="edge"><title>Node1&#45;&gt;Node2</title>
<path fill="none" stroke="midnightblue" d="M148.373,-251C157.143,-251 165.97,-251 174.449,-251"/>
<polygon fill="midnightblue" stroke="midnightblue" points="148.126,-247.5 138.126,-251 148.126,-254.5 148.126,-247.5"/>
</g>
<!-- Node2&#45;&gt;Node2 -->
<g id="edge2" class="edge"><title>Node2&#45;&gt;Node2</title>
<path fill="none" stroke="midnightblue" d="M205.944,-276.598C209.914,-280.97 219.6,-284 235,-284 260.938,-284 270.664,-275.406 264.18,-266.275"/>
<polygon fill="midnightblue" stroke="midnightblue" points="209.44,-276.233 205.82,-266.275 202.44,-276.317 209.44,-276.233"/>
</g>
<!-- Node3 -->
<g id="node3" class="node"><title>Node3</title>
<g id="a_node3"><a xlink:href="a00031.xhtml#a9387e5885adbc3b638dbd8b4848a9aa9" target="_top" xlink:title="Voxel::ConfigurationFile\l::read">
<polygon fill="none" stroke="black" points="349.5,-324 349.5,-354 470.5,-354 470.5,-324 349.5,-324"/>
<text text-anchor="start" x="357.5" y="-342" font-family="Helvetica,sans-Serif" font-size="10.00">Voxel::ConfigurationFile</text>
<text text-anchor="middle" x="410" y="-331" font-family="Helvetica,sans-Serif" font-size="10.00">::read</text>
</a>
</g>
</g>
<!-- Node2&#45;&gt;Node3 -->
<g id="edge3" class="edge"><title>Node2&#45;&gt;Node3</title>
<path fill="none" stroke="midnightblue" d="M267.209,-271.73C285.621,-283.48 309.63,-297.987 332,-309 342.941,-314.387 355.105,-319.503 366.474,-323.936"/>
<polygon fill="midnightblue" stroke="midnightblue" points="268.952,-268.69 258.651,-266.211 265.158,-274.572 268.952,-268.69"/>
</g>
<!-- Node4 -->
<g id="node4" class="node"><title>Node4</title>
<g id="a_node4"><a xlink:href="a00031.xhtml#aed32106b59668d21743c241255d1a92a" target="_top" xlink:title="Voxel::ConfigurationFile\l::isValidCameraProfile">
<polygon fill="none" stroke="black" points="349.5,-236 349.5,-266 470.5,-266 470.5,-236 349.5,-236"/>
<text text-anchor="start" x="357.5" y="-254" font-family="Helvetica,sans-Serif" font-size="10.00">Voxel::ConfigurationFile</text>
<text text-anchor="middle" x="410" y="-243" font-family="Helvetica,sans-Serif" font-size="10.00">::isValidCameraProfile</text>
</a>
</g>
</g>
<!-- Node2&#45;&gt;Node4 -->
<g id="edge4" class="edge"><title>Node2&#45;&gt;Node4</title>
<path fill="none" stroke="midnightblue" d="M305.892,-251C320.301,-251 335.348,-251 349.353,-251"/>
<polygon fill="midnightblue" stroke="midnightblue" points="305.537,-247.5 295.537,-251 305.537,-254.5 305.537,-247.5"/>
</g>
<!-- Node7 -->
<g id="node7" class="node"><title>Node7</title>
<g id="a_node7"><a xlink:href="a00096.xhtml#ab801a8f7e2eabaf3f524877c5c257fa2" target="_top" xlink:title="Voxel::MainConfiguration\lFile::readFromHardware">
<polygon fill="none" stroke="black" points="538,-274 538,-304 664,-304 664,-274 538,-274"/>
<text text-anchor="start" x="546" y="-292" font-family="Helvetica,sans-Serif" font-size="10.00">Voxel::MainConfiguration</text>
<text text-anchor="middle" x="601" y="-281" font-family="Helvetica,sans-Serif" font-size="10.00">File::readFromHardware</text>
</a>
</g>
</g>
<!-- Node2&#45;&gt;Node7 -->
<g id="edge40" class="edge"><title>Node2&#45;&gt;Node7</title>
<path fill="none" stroke="midnightblue" d="M298.489,-268.466C309.578,-271.036 321.073,-273.364 332,-275 402.038,-285.484 483.387,-288.454 537.923,-289.136"/>
<polygon fill="midnightblue" stroke="midnightblue" points="298.989,-264.986 288.448,-266.051 297.352,-271.792 298.989,-264.986"/>
</g>
<!-- Node24 -->
<g id="node24" class="node"><title>Node24</title>
<g id="a_node24"><a xlink:href="a00031.xhtml#a2fcf8e948604e5fa2f805e9836b350d1" target="_top" xlink:title="Voxel::ConfigurationFile\l::_copyFromParentIfNotPresent">
<polygon fill="none" stroke="black" points="332.5,-169 332.5,-199 487.5,-199 487.5,-169 332.5,-169"/>
<text text-anchor="start" x="340.5" y="-187" font-family="Helvetica,sans-Serif" font-size="10.00">Voxel::ConfigurationFile</text>
<text text-anchor="middle" x="410" y="-176" font-family="Helvetica,sans-Serif" font-size="10.00">::_copyFromParentIfNotPresent</text>
</a>
</g>
</g>
<!-- Node2&#45;&gt;Node24 -->
<g id="edge24" class="edge"><title>Node2&#45;&gt;Node24</title>
<path fill="none" stroke="midnightblue" d="M284.472,-232.227C311.489,-221.764 344.684,-208.908 370.006,-199.102"/>
<polygon fill="midnightblue" stroke="midnightblue" points="282.886,-229.089 274.825,-235.964 285.414,-235.616 282.886,-229.089"/>
</g>
<!-- Node25 -->
<g id="node25" class="node"><title>Node25</title>
<g id="a_node25"><a xlink:href="a00096.xhtml#a0d061a6b01c29c40af3288f4783c3c07" target="_top" xlink:title="Voxel::MainConfiguration\lFile::isPresent">
<polygon fill="none" stroke="black" points="347,-120 347,-150 473,-150 473,-120 347,-120"/>
<text text-anchor="start" x="355" y="-138" font-family="Helvetica,sans-Serif" font-size="10.00">Voxel::MainConfiguration</text>
<text text-anchor="middle" x="410" y="-127" font-family="Helvetica,sans-Serif" font-size="10.00">File::isPresent</text>
</a>
</g>
</g>
<!-- Node2&#45;&gt;Node25 -->
<g id="edge26" class="edge"><title>Node2&#45;&gt;Node25</title>
<path fill="none" stroke="midnightblue" d="M254.519,-227.981C272.353,-207.22 301.11,-177.229 332,-159 337.788,-155.584 344.113,-152.605 350.57,-150.02"/>
<polygon fill="midnightblue" stroke="midnightblue" points="251.775,-225.806 248.015,-235.712 257.131,-230.313 251.775,-225.806"/>
</g>
<!-- Node5 -->
<g id="node5" class="node"><title>Node5</title>
<g id="a_node5"><a xlink:href="a00096.xhtml#a3f47c852116bdee8f049cdf1b15959ff" target="_top" xlink:title="Voxel::MainConfiguration\lFile::read">
<polygon fill="none" stroke="black" points="538,-223 538,-253 664,-253 664,-223 538,-223"/>
<text text-anchor="start" x="546" y="-241" font-family="Helvetica,sans-Serif" font-size="10.00">Voxel::MainConfiguration</text>
<text text-anchor="middle" x="601" y="-230" font-family="Helvetica,sans-Serif" font-size="10.00">File::read</text>
</a>
</g>
</g>
<!-- Node4&#45;&gt;Node5 -->
<g id="edge5" class="edge"><title>Node4&#45;&gt;Node5</title>
<path fill="none" stroke="midnightblue" d="M480.768,-246.201C499.47,-244.915 519.562,-243.533 537.823,-242.277"/>
<polygon fill="midnightblue" stroke="midnightblue" points="480.278,-242.727 470.541,-246.905 480.758,-249.71 480.278,-242.727"/>
</g>
<!-- Node4&#45;&gt;Node7 -->
<g id="edge7" class="edge"><title>Node4&#45;&gt;Node7</title>
<path fill="none" stroke="midnightblue" d="M480.508,-264.975C499.284,-268.75 519.477,-272.81 537.823,-276.499"/>
<polygon fill="midnightblue" stroke="midnightblue" points="481.035,-261.511 470.541,-262.971 479.655,-268.374 481.035,-261.511"/>
</g>
<!-- Node6 -->
<g id="node6" class="node"><title>Node6</title>
<g id="a_node6"><a xlink:href="a00036.xhtml#af70e20cd13e08c6392058b1f3310f08a" target="_top" xlink:title="Voxel::DepthCamera\l::DepthCamera">
<polygon fill="none" stroke="black" points="739,-223 739,-253 847,-253 847,-223 739,-223"/>
<text text-anchor="start" x="747" y="-241" font-family="Helvetica,sans-Serif" font-size="10.00">Voxel::DepthCamera</text>
<text text-anchor="middle" x="793" y="-230" font-family="Helvetica,sans-Serif" font-size="10.00">::DepthCamera</text>
</a>
</g>
</g>
<!-- Node5&#45;&gt;Node6 -->
<g id="edge6" class="edge"><title>Node5&#45;&gt;Node6</title>
<path fill="none" stroke="midnightblue" d="M674.274,-238C695.749,-238 718.87,-238 738.889,-238"/>
<polygon fill="midnightblue" stroke="midnightblue" points="674.213,-234.5 664.213,-238 674.213,-241.5 674.213,-234.5"/>
</g>
<!-- Node8 -->
<g id="node8" class="node"><title>Node8</title>
<g id="a_node8"><a xlink:href="a00036.xhtml#aeca7a6cb1df8643f0b38745286ac2844" target="_top" xlink:title="Voxel::DepthCamera\l::_init">
<polygon fill="none" stroke="black" points="739,-274 739,-304 847,-304 847,-274 739,-274"/>
<text text-anchor="start" x="747" y="-292" font-family="Helvetica,sans-Serif" font-size="10.00">Voxel::DepthCamera</text>
<text text-anchor="middle" x="793" y="-281" font-family="Helvetica,sans-Serif" font-size="10.00">::_init</text>
</a>
</g>
</g>
<!-- Node7&#45;&gt;Node8 -->
<g id="edge8" class="edge"><title>Node7&#45;&gt;Node8</title>
<path fill="none" stroke="midnightblue" d="M674.274,-289C695.749,-289 718.87,-289 738.889,-289"/>
<polygon fill="midnightblue" stroke="midnightblue" points="674.213,-285.5 664.213,-289 674.213,-292.5 674.213,-285.5"/>
</g>
<!-- Node9 -->
<g id="node9" class="node"><title>Node9</title>
<g id="a_node9"><a xlink:href="a00154.xhtml#a34c90601da611e5cb61bd7a35f03a5f7" target="_top" xlink:title="Voxel::TI::ToFCameraBase\l::_init">
<polygon fill="none" stroke="black" points="918.5,-274 918.5,-304 1055.5,-304 1055.5,-274 918.5,-274"/>
<text text-anchor="start" x="926.5" y="-292" font-family="Helvetica,sans-Serif" font-size="10.00">Voxel::TI::ToFCameraBase</text>
<text text-anchor="middle" x="987" y="-281" font-family="Helvetica,sans-Serif" font-size="10.00">::_init</text>
</a>
</g>
</g>
<!-- Node8&#45;&gt;Node9 -->
<g id="edge9" class="edge"><title>Node8&#45;&gt;Node9</title>
<path fill="none" stroke="midnightblue" d="M857.241,-289C876.787,-289 898.392,-289 918.231,-289"/>
<polygon fill="midnightblue" stroke="midnightblue" points="857.228,-285.5 847.228,-289 857.228,-292.5 857.228,-285.5"/>
</g>
<!-- Node10 -->
<g id="node10" class="node"><title>Node10</title>
<g id="a_node10"><a xlink:href="a00153.xhtml#a8fd9aae6546d426f494b20633a881442" target="_top" xlink:title="Voxel::TI::ToFCamera\l::_init">
<polygon fill="none" stroke="black" points="1102,-274 1102,-304 1216,-304 1216,-274 1102,-274"/>
<text text-anchor="start" x="1110" y="-292" font-family="Helvetica,sans-Serif" font-size="10.00">Voxel::TI::ToFCamera</text>
<text text-anchor="middle" x="1159" y="-281" font-family="Helvetica,sans-Serif" font-size="10.00">::_init</text>
</a>
</g>
</g>
<!-- Node9&#45;&gt;Node10 -->
<g id="edge10" class="edge"><title>Node9&#45;&gt;Node10</title>
<path fill="none" stroke="midnightblue" d="M1065.79,-289C1077.92,-289 1090.24,-289 1101.76,-289"/>
<polygon fill="midnightblue" stroke="midnightblue" points="1065.68,-285.5 1055.68,-289 1065.68,-292.5 1065.68,-285.5"/>
</g>
<!-- Node11 -->
<g id="node11" class="node"><title>Node11</title>
<g id="a_node11"><a xlink:href="a00152.xhtml#aa931ad7b5e4b84779df941814c2a5b17" target="_top" xlink:title="Voxel::TI::ToFCalculusCamera\l::_init">
<polygon fill="none" stroke="black" points="1253,-347 1253,-377 1405,-377 1405,-347 1253,-347"/>
<text text-anchor="start" x="1261" y="-365" font-family="Helvetica,sans-Serif" font-size="10.00">Voxel::TI::ToFCalculusCamera</text>
<text text-anchor="middle" x="1329" y="-354" font-family="Helvetica,sans-Serif" font-size="10.00">::_init</text>
</a>
</g>
</g>
<!-- Node10&#45;&gt;Node11 -->
<g id="edge11" class="edge"><title>Node10&#45;&gt;Node11</title>
<path fill="none" stroke="midnightblue" d="M1204.3,-308.251C1232.11,-320.334 1267.45,-335.691 1293.23,-346.894"/>
<polygon fill="midnightblue" stroke="midnightblue" points="1205.38,-304.901 1194.81,-304.126 1202.59,-311.321 1205.38,-304.901"/>
</g>
<!-- Node14 -->
<g id="node14" class="node"><title>Node14</title>
<g id="a_node14"><a xlink:href="a00159.xhtml#a749a2bbcdbfa69054d523866504743d1" target="_top" xlink:title="Voxel::TI::ToFHaddockCamera\l::_init">
<polygon fill="none" stroke="black" points="1252.5,-274 1252.5,-304 1405.5,-304 1405.5,-274 1252.5,-274"/>
<text text-anchor="start" x="1260.5" y="-292" font-family="Helvetica,sans-Serif" font-size="10.00">Voxel::TI::ToFHaddockCamera</text>
<text text-anchor="middle" x="1329" y="-281" font-family="Helvetica,sans-Serif" font-size="10.00">::_init</text>
</a>
</g>
</g>
<!-- Node10&#45;&gt;Node14 -->
<g id="edge14" class="edge"><title>Node10&#45;&gt;Node14</title>
<path fill="none" stroke="midnightblue" d="M1226.58,-289C1235.04,-289 1243.75,-289 1252.34,-289"/>
<polygon fill="midnightblue" stroke="midnightblue" points="1226.41,-285.5 1216.41,-289 1226.41,-292.5 1226.41,-285.5"/>
</g>
<!-- Node19 -->
<g id="node19" class="node"><title>Node19</title>
<g id="a_node19"><a xlink:href="a00164.xhtml#af894a732f4beedc37144927eec93cc89" target="_top" xlink:title="Voxel::TI::ToFTintinCamera\l::_init">
<polygon fill="none" stroke="black" points="1260,-213 1260,-243 1398,-243 1398,-213 1260,-213"/>
<text text-anchor="start" x="1268" y="-231" font-family="Helvetica,sans-Serif" font-size="10.00">Voxel::TI::ToFTintinCamera</text>
<text text-anchor="middle" x="1329" y="-220" font-family="Helvetica,sans-Serif" font-size="10.00">::_init</text>
</a>
</g>
</g>
<!-- Node10&#45;&gt;Node19 -->
<g id="edge19" class="edge"><title>Node10&#45;&gt;Node19</title>
<path fill="none" stroke="midnightblue" d="M1211.25,-270.392C1235.42,-261.614 1263.89,-251.279 1286.66,-243.011"/>
<polygon fill="midnightblue" stroke="midnightblue" points="1209.73,-267.218 1201.53,-273.921 1212.12,-273.798 1209.73,-267.218"/>
</g>
<!-- Node12 -->
<g id="node12" class="node"><title>Node12</title>
<g id="a_node12"><a xlink:href="a00013.xhtml#a82eb752fb0d4b63495d2e29b6b8aed2c" target="_top" xlink:title="Voxel::TI::CalculusCDKCamera\l::_init">
<polygon fill="none" stroke="black" points="1442.5,-360 1442.5,-390 1599.5,-390 1599.5,-360 1442.5,-360"/>
<text text-anchor="start" x="1450.5" y="-378" font-family="Helvetica,sans-Serif" font-size="10.00">Voxel::TI::CalculusCDKCamera</text>
<text text-anchor="middle" x="1521" y="-367" font-family="Helvetica,sans-Serif" font-size="10.00">::_init</text>
</a>
</g>
</g>
<!-- Node11&#45;&gt;Node12 -->
<g id="edge12" class="edge"><title>Node11&#45;&gt;Node12</title>
<path fill="none" stroke="midnightblue" d="M1415.22,-367.831C1424.25,-368.449 1433.4,-369.075 1442.33,-369.686"/>
<polygon fill="midnightblue" stroke="midnightblue" points="1415.31,-364.329 1405.09,-367.138 1414.83,-371.312 1415.31,-364.329"/>
</g>
<!-- Node13 -->
<g id="node13" class="node"><title>Node13</title>
<g id="a_node13"><a xlink:href="a00013.xhtml#af406b1427962d80da9af9fb24e89b239" target="_top" xlink:title="Voxel::TI::CalculusCDKCamera\l::CalculusCDKCamera">
<polygon fill="none" stroke="black" points="1636.5,-360 1636.5,-390 1793.5,-390 1793.5,-360 1636.5,-360"/>
<text text-anchor="start" x="1644.5" y="-378" font-family="Helvetica,sans-Serif" font-size="10.00">Voxel::TI::CalculusCDKCamera</text>
<text text-anchor="middle" x="1715" y="-367" font-family="Helvetica,sans-Serif" font-size="10.00">::CalculusCDKCamera</text>
</a>
</g>
</g>
<!-- Node12&#45;&gt;Node13 -->
<g id="edge13" class="edge"><title>Node12&#45;&gt;Node13</title>
<path fill="none" stroke="midnightblue" d="M1609.6,-375C1618.57,-375 1627.64,-375 1636.48,-375"/>
<polygon fill="midnightblue" stroke="midnightblue" points="1609.54,-371.5 1599.54,-375 1609.54,-378.5 1609.54,-371.5"/>
</g>
<!-- Node15 -->
<g id="node15" class="node"><title>Node15</title>
<g id="a_node15"><a xlink:href="a00077.xhtml#a7dff103da3145dd303a5bc0db75ae961" target="_top" xlink:title="Voxel::TI::HaddockCDKCamera\l::_init">
<polygon fill="none" stroke="black" points="1442,-262 1442,-292 1600,-292 1600,-262 1442,-262"/>
<text text-anchor="start" x="1450" y="-280" font-family="Helvetica,sans-Serif" font-size="10.00">Voxel::TI::HaddockCDKCamera</text>
<text text-anchor="middle" x="1521" y="-269" font-family="Helvetica,sans-Serif" font-size="10.00">::_init</text>
</a>
</g>
</g>
<!-- Node14&#45;&gt;Node15 -->
<g id="edge15" class="edge"><title>Node14&#45;&gt;Node15</title>
<path fill="none" stroke="midnightblue" d="M1415.76,-283.583C1424.44,-283.035 1433.23,-282.48 1441.82,-281.938"/>
<polygon fill="midnightblue" stroke="midnightblue" points="1415.4,-280.099 1405.64,-284.223 1415.84,-287.085 1415.4,-280.099"/>
</g>
<!-- Node17 -->
<g id="node17" class="node"><title>Node17</title>
<g id="a_node17"><a xlink:href="a00182.xhtml#a89011bfb795ff58d3fb8675364b91abe" target="_top" xlink:title="Voxel::TI::Voxel14Camera\l::_init">
<polygon fill="none" stroke="black" points="1455,-311 1455,-341 1587,-341 1587,-311 1455,-311"/>
<text text-anchor="start" x="1463" y="-329" font-family="Helvetica,sans-Serif" font-size="10.00">Voxel::TI::Voxel14Camera</text>
<text text-anchor="middle" x="1521" y="-318" font-family="Helvetica,sans-Serif" font-size="10.00">::_init</text>
</a>
</g>
</g>
<!-- Node14&#45;&gt;Node17 -->
<g id="edge17" class="edge"><title>Node14&#45;&gt;Node17</title>
<path fill="none" stroke="midnightblue" d="M1415.62,-305.673C1428.76,-308.232 1442.13,-310.837 1454.74,-313.291"/>
<polygon fill="midnightblue" stroke="midnightblue" points="1416.12,-302.206 1405.64,-303.73 1414.79,-309.077 1416.12,-302.206"/>
</g>
<!-- Node16 -->
<g id="node16" class="node"><title>Node16</title>
<g id="a_node16"><a xlink:href="a00077.xhtml#ac2c5e82486c4cc3f5edada38cd4274c5" target="_top" xlink:title="Voxel::TI::HaddockCDKCamera\l::HaddockCDKCamera">
<polygon fill="none" stroke="black" points="1636,-262 1636,-292 1794,-292 1794,-262 1636,-262"/>
<text text-anchor="start" x="1644" y="-280" font-family="Helvetica,sans-Serif" font-size="10.00">Voxel::TI::HaddockCDKCamera</text>
<text text-anchor="middle" x="1715" y="-269" font-family="Helvetica,sans-Serif" font-size="10.00">::HaddockCDKCamera</text>
</a>
</g>
</g>
<!-- Node15&#45;&gt;Node16 -->
<g id="edge16" class="edge"><title>Node15&#45;&gt;Node16</title>
<path fill="none" stroke="midnightblue" d="M1610.15,-277C1618.77,-277 1627.47,-277 1635.98,-277"/>
<polygon fill="midnightblue" stroke="midnightblue" points="1610.09,-273.5 1600.09,-277 1610.09,-280.5 1610.09,-273.5"/>
</g>
<!-- Node18 -->
<g id="node18" class="node"><title>Node18</title>
<g id="a_node18"><a xlink:href="a00182.xhtml#a606f13ed73547ee43f585e241b42dd5d" target="_top" xlink:title="Voxel::TI::Voxel14Camera\l::Voxel14Camera">
<polygon fill="none" stroke="black" points="1649,-311 1649,-341 1781,-341 1781,-311 1649,-311"/>
<text text-anchor="start" x="1657" y="-329" font-family="Helvetica,sans-Serif" font-size="10.00">Voxel::TI::Voxel14Camera</text>
<text text-anchor="middle" x="1715" y="-318" font-family="Helvetica,sans-Serif" font-size="10.00">::Voxel14Camera</text>
</a>
</g>
</g>
<!-- Node17&#45;&gt;Node18 -->
<g id="edge18" class="edge"><title>Node17&#45;&gt;Node18</title>
<path fill="none" stroke="midnightblue" d="M1597.42,-326C1614.38,-326 1632.24,-326 1648.74,-326"/>
<polygon fill="midnightblue" stroke="midnightblue" points="1597,-322.5 1587,-326 1597,-329.5 1597,-322.5"/>
</g>
<!-- Node20 -->
<g id="node20" class="node"><title>Node20</title>
<g id="a_node20"><a xlink:href="a00137.xhtml#af5337f40c1a075c026263ea9871a20ee" target="_top" xlink:title="Voxel::TI::TintinCDKCamera\l::_init">
<polygon fill="none" stroke="black" points="1449.5,-164 1449.5,-194 1592.5,-194 1592.5,-164 1449.5,-164"/>
<text text-anchor="start" x="1457.5" y="-182" font-family="Helvetica,sans-Serif" font-size="10.00">Voxel::TI::TintinCDKCamera</text>
<text text-anchor="middle" x="1521" y="-171" font-family="Helvetica,sans-Serif" font-size="10.00">::_init</text>
</a>
</g>
</g>
<!-- Node19&#45;&gt;Node20 -->
<g id="edge20" class="edge"><title>Node19&#45;&gt;Node20</title>
<path fill="none" stroke="midnightblue" d="M1398.05,-210.45C1418.91,-205.069 1441.67,-199.201 1461.81,-194.006"/>
<polygon fill="midnightblue" stroke="midnightblue" points="1397.11,-207.079 1388.3,-212.965 1398.85,-213.857 1397.11,-207.079"/>
</g>
<!-- Node22 -->
<g id="node22" class="node"><title>Node22</title>
<g id="a_node22"><a xlink:href="a00186.xhtml#a47b15c40c3fbcc52ae1eb3c9fe74d9f1" target="_top" xlink:title="Voxel::TI::VoxelDCamera\l::_init">
<polygon fill="none" stroke="black" points="1456.5,-213 1456.5,-243 1585.5,-243 1585.5,-213 1456.5,-213"/>
<text text-anchor="start" x="1464.5" y="-231" font-family="Helvetica,sans-Serif" font-size="10.00">Voxel::TI::VoxelDCamera</text>
<text text-anchor="middle" x="1521" y="-220" font-family="Helvetica,sans-Serif" font-size="10.00">::_init</text>
</a>
</g>
</g>
<!-- Node19&#45;&gt;Node22 -->
<g id="edge22" class="edge"><title>Node19&#45;&gt;Node22</title>
<path fill="none" stroke="midnightblue" d="M1408.41,-228C1424.32,-228 1440.88,-228 1456.22,-228"/>
<polygon fill="midnightblue" stroke="midnightblue" points="1408.06,-224.5 1398.06,-228 1408.06,-231.5 1408.06,-224.5"/>
</g>
<!-- Node21 -->
<g id="node21" class="node"><title>Node21</title>
<g id="a_node21"><a xlink:href="a00137.xhtml#a7a9918bb8b6d76bc3511536019847c1d" target="_top" xlink:title="Voxel::TI::TintinCDKCamera\l::TintinCDKCamera">
<polygon fill="none" stroke="black" points="1643.5,-164 1643.5,-194 1786.5,-194 1786.5,-164 1643.5,-164"/>
<text text-anchor="start" x="1651.5" y="-182" font-family="Helvetica,sans-Serif" font-size="10.00">Voxel::TI::TintinCDKCamera</text>
<text text-anchor="middle" x="1715" y="-171" font-family="Helvetica,sans-Serif" font-size="10.00">::TintinCDKCamera</text>
</a>
</g>
</g>
<!-- Node20&#45;&gt;Node21 -->
<g id="edge21" class="edge"><title>Node20&#45;&gt;Node21</title>
<path fill="none" stroke="midnightblue" d="M1602.89,-179C1616.38,-179 1630.27,-179 1643.47,-179"/>
<polygon fill="midnightblue" stroke="midnightblue" points="1602.68,-175.5 1592.68,-179 1602.68,-182.5 1602.68,-175.5"/>
</g>
<!-- Node23 -->
<g id="node23" class="node"><title>Node23</title>
<g id="a_node23"><a xlink:href="a00186.xhtml#a4a95cf8257e2f9f5fd34386b87f6663a" target="_top" xlink:title="Voxel::TI::VoxelDCamera\l::VoxelDCamera">
<polygon fill="none" stroke="black" points="1650.5,-213 1650.5,-243 1779.5,-243 1779.5,-213 1650.5,-213"/>
<text text-anchor="start" x="1658.5" y="-231" font-family="Helvetica,sans-Serif" font-size="10.00">Voxel::TI::VoxelDCamera</text>
<text text-anchor="middle" x="1715" y="-220" font-family="Helvetica,sans-Serif" font-size="10.00">::VoxelDCamera</text>
</a>
</g>
</g>
<!-- Node22&#45;&gt;Node23 -->
<g id="edge23" class="edge"><title>Node22&#45;&gt;Node23</title>
<path fill="none" stroke="midnightblue" d="M1595.79,-228C1613.72,-228 1632.75,-228 1650.18,-228"/>
<polygon fill="midnightblue" stroke="midnightblue" points="1595.67,-224.5 1585.67,-228 1595.67,-231.5 1595.67,-224.5"/>
</g>
<!-- Node24&#45;&gt;Node24 -->
<g id="edge25" class="edge"><title>Node24&#45;&gt;Node24</title>
<path fill="none" stroke="midnightblue" d="M379.543,-209.598C383.705,-213.97 393.857,-217 410,-217 437.188,-217 447.383,-208.406 440.586,-199.275"/>
<polygon fill="midnightblue" stroke="midnightblue" points="383.039,-209.231 379.414,-199.275 376.04,-209.319 383.039,-209.231"/>
</g>
<!-- Node25&#45;&gt;Node5 -->
<g id="edge27" class="edge"><title>Node25&#45;&gt;Node5</title>
<path fill="none" stroke="midnightblue" d="M481.49,-154.733C483.741,-156.066 485.92,-157.486 488,-159 510.433,-175.326 501.99,-193.109 524,-210 530.693,-215.136 538.424,-219.403 546.338,-222.926"/>
<polygon fill="midnightblue" stroke="midnightblue" points="482.976,-151.561 472.494,-150.019 479.727,-157.761 482.976,-151.561"/>
</g>
<!-- Node26 -->
<g id="node26" class="node"><title>Node26</title>
<g id="a_node26"><a xlink:href="a00153.xhtml#a52686f695d06876ef5a89e453c6a8ba3" target="_top" xlink:title="Voxel::TI::ToFCamera\l::_initStartParams">
<polygon fill="none" stroke="black" points="544,-73 544,-103 658,-103 658,-73 544,-73"/>
<text text-anchor="start" x="552" y="-91" font-family="Helvetica,sans-Serif" font-size="10.00">Voxel::TI::ToFCamera</text>
<text text-anchor="middle" x="601" y="-80" font-family="Helvetica,sans-Serif" font-size="10.00">::_initStartParams</text>
</a>
</g>
</g>
<!-- Node25&#45;&gt;Node26 -->
<g id="edge28" class="edge"><title>Node25&#45;&gt;Node26</title>
<path fill="none" stroke="midnightblue" d="M481.289,-117.521C501.904,-112.394 524.167,-106.858 543.783,-101.98"/>
<polygon fill="midnightblue" stroke="midnightblue" points="480.18,-114.19 471.32,-120 481.87,-120.983 480.18,-114.19"/>
</g>
<!-- Node35 -->
<g id="node35" class="node"><title>Node35</title>
<g id="a_node35"><a xlink:href="a00153.xhtml#a6f61d229b9f83102d07d25d88ea03efa" target="_top" xlink:title="Voxel::TI::ToFCamera\l::_getDepthScalingFactor">
<polygon fill="none" stroke="black" points="537,-24 537,-54 665,-54 665,-24 537,-24"/>
<text text-anchor="start" x="545" y="-42" font-family="Helvetica,sans-Serif" font-size="10.00">Voxel::TI::ToFCamera</text>
<text text-anchor="middle" x="601" y="-31" font-family="Helvetica,sans-Serif" font-size="10.00">::_getDepthScalingFactor</text>
</a>
</g>
</g>
<!-- Node25&#45;&gt;Node35 -->
<g id="edge37" class="edge"><title>Node25&#45;&gt;Node35</title>
<path fill="none" stroke="midnightblue" d="M439.578,-113.815C461.73,-98.1454 493.666,-77.1544 524,-63 531.022,-59.7235 538.608,-56.732 546.176,-54.0577"/>
<polygon fill="midnightblue" stroke="midnightblue" points="437.391,-111.076 431.3,-119.746 441.467,-116.767 437.391,-111.076"/>
</g>
<!-- Node36 -->
<g id="node36" class="node"><title>Node36</title>
<g id="a_node36"><a xlink:href="a00159.xhtml#ae4ffc0d48d8bec78f4f7d9f9e1fde5ab" target="_top" xlink:title="Voxel::TI::ToFHaddockCamera\l::_applyCalibrationParams">
<polygon fill="none" stroke="black" points="524.5,-171 524.5,-201 677.5,-201 677.5,-171 524.5,-171"/>
<text text-anchor="start" x="532.5" y="-189" font-family="Helvetica,sans-Serif" font-size="10.00">Voxel::TI::ToFHaddockCamera</text>
<text text-anchor="middle" x="601" y="-178" font-family="Helvetica,sans-Serif" font-size="10.00">::_applyCalibrationParams</text>
</a>
</g>
</g>
<!-- Node25&#45;&gt;Node36 -->
<g id="edge38" class="edge"><title>Node25&#45;&gt;Node36</title>
<path fill="none" stroke="midnightblue" d="M476.35,-152.634C498.516,-158.615 523.053,-165.237 544.388,-170.994"/>
<polygon fill="midnightblue" stroke="midnightblue" points="477.251,-149.252 466.684,-150.026 475.427,-156.01 477.251,-149.252"/>
</g>
<!-- Node37 -->
<g id="node37" class="node"><title>Node37</title>
<g id="a_node37"><a xlink:href="a00164.xhtml#a8f4687aa4c53a91e680f1ea9805a9b06" target="_top" xlink:title="Voxel::TI::ToFTintinCamera\l::_applyCalibrationParams">
<polygon fill="none" stroke="black" points="532,-122 532,-152 670,-152 670,-122 532,-122"/>
<text text-anchor="start" x="540" y="-140" font-family="Helvetica,sans-Serif" font-size="10.00">Voxel::TI::ToFTintinCamera</text>
<text text-anchor="middle" x="601" y="-129" font-family="Helvetica,sans-Serif" font-size="10.00">::_applyCalibrationParams</text>
</a>
</g>
</g>
<!-- Node25&#45;&gt;Node37 -->
<g id="edge39" class="edge"><title>Node25&#45;&gt;Node37</title>
<path fill="none" stroke="midnightblue" d="M483.465,-135.767C499.391,-135.935 516.202,-136.113 531.947,-136.28"/>
<polygon fill="midnightblue" stroke="midnightblue" points="483.184,-132.264 473.147,-135.658 483.11,-139.263 483.184,-132.264"/>
</g>
<!-- Node27 -->
<g id="node27" class="node"><title>Node27</title>
<g id="a_node27"><a xlink:href="a00077.xhtml#a4e8e32000eca9b81bc6401a8d512cbc7" target="_top" xlink:title="Voxel::TI::HaddockCDKCamera\l::_initStartParams">
<polygon fill="none" stroke="black" points="714,-49 714,-79 872,-79 872,-49 714,-49"/>
<text text-anchor="start" x="722" y="-67" font-family="Helvetica,sans-Serif" font-size="10.00">Voxel::TI::HaddockCDKCamera</text>
<text text-anchor="middle" x="793" y="-56" font-family="Helvetica,sans-Serif" font-size="10.00">::_initStartParams</text>
</a>
</g>
</g>
<!-- Node26&#45;&gt;Node27 -->
<g id="edge29" class="edge"><title>Node26&#45;&gt;Node27</title>
<path fill="none" stroke="midnightblue" d="M668.223,-79.635C682.913,-77.7795 698.616,-75.7959 713.735,-73.8861"/>
<polygon fill="midnightblue" stroke="midnightblue" points="667.718,-76.1709 658.235,-80.8966 668.595,-83.1157 667.718,-76.1709"/>
</g>
<!-- Node28 -->
<g id="node28" class="node"><title>Node28</title>
<g id="a_node28"><a xlink:href="a00152.xhtml#adf420ba5e95dcb0cbd3da90f446242d9" target="_top" xlink:title="Voxel::TI::ToFCalculusCamera\l::_initStartParams">
<polygon fill="none" stroke="black" points="717,-0 717,-30 869,-30 869,-0 717,-0"/>
<text text-anchor="start" x="725" y="-18" font-family="Helvetica,sans-Serif" font-size="10.00">Voxel::TI::ToFCalculusCamera</text>
<text text-anchor="middle" x="793" y="-7" font-family="Helvetica,sans-Serif" font-size="10.00">::_initStartParams</text>
</a>
</g>
</g>
<!-- Node26&#45;&gt;Node28 -->
<g id="edge30" class="edge"><title>Node26&#45;&gt;Node28</title>
<path fill="none" stroke="midnightblue" d="M663.726,-69.2826C668.621,-67.3197 673.433,-65.2222 678,-63 695.291,-54.5856 696.629,-47.2472 714,-39 720.911,-35.7187 728.378,-32.7539 735.857,-30.1179"/>
<polygon fill="midnightblue" stroke="midnightblue" points="662.354,-66.0597 654.254,-72.8891 664.845,-72.6016 662.354,-66.0597"/>
</g>
<!-- Node30 -->
<g id="node30" class="node"><title>Node30</title>
<g id="a_node30"><a xlink:href="a00159.xhtml#ae87b0ca3c8867d1b520c0165d526e79d" target="_top" xlink:title="Voxel::TI::ToFHaddockCamera\l::_initStartParams">
<polygon fill="none" stroke="black" points="716.5,-147 716.5,-177 869.5,-177 869.5,-147 716.5,-147"/>
<text text-anchor="start" x="724.5" y="-165" font-family="Helvetica,sans-Serif" font-size="10.00">Voxel::TI::ToFHaddockCamera</text>
<text text-anchor="middle" x="793" y="-154" font-family="Helvetica,sans-Serif" font-size="10.00">::_initStartParams</text>
</a>
</g>
</g>
<!-- Node26&#45;&gt;Node30 -->
<g id="edge32" class="edge"><title>Node26&#45;&gt;Node30</title>
<path fill="none" stroke="midnightblue" d="M666.253,-106.75C670.28,-108.397 674.227,-110.148 678,-112 695.486,-120.586 696.533,-128.377 714,-137 721.523,-140.714 729.722,-144.044 737.884,-146.97"/>
<polygon fill="midnightblue" stroke="midnightblue" points="667.344,-103.42 656.754,-103.096 664.831,-109.953 667.344,-103.42"/>
</g>
<!-- Node32 -->
<g id="node32" class="node"><title>Node32</title>
<g id="a_node32"><a xlink:href="a00164.xhtml#a17729406fadceea890b4e0e079aede46" target="_top" xlink:title="Voxel::TI::ToFTintinCamera\l::_initStartParams">
<polygon fill="none" stroke="black" points="724,-98 724,-128 862,-128 862,-98 724,-98"/>
<text text-anchor="start" x="732" y="-116" font-family="Helvetica,sans-Serif" font-size="10.00">Voxel::TI::ToFTintinCamera</text>
<text text-anchor="middle" x="793" y="-105" font-family="Helvetica,sans-Serif" font-size="10.00">::_initStartParams</text>
</a>
</g>
</g>
<!-- Node26&#45;&gt;Node32 -->
<g id="edge34" class="edge"><title>Node26&#45;&gt;Node32</title>
<path fill="none" stroke="midnightblue" d="M668.324,-96.7269C686.283,-99.0899 705.751,-101.651 723.81,-104.028"/>
<polygon fill="midnightblue" stroke="midnightblue" points="668.606,-93.2339 658.235,-95.3994 667.693,-100.174 668.606,-93.2339"/>
</g>
<!-- Node29 -->
<g id="node29" class="node"><title>Node29</title>
<g id="a_node29"><a xlink:href="a00013.xhtml#a2474713056342fa6774ff5a165961052" target="_top" xlink:title="Voxel::TI::CalculusCDKCamera\l::_initStartParams">
<polygon fill="none" stroke="black" points="908.5,-0 908.5,-30 1065.5,-30 1065.5,-0 908.5,-0"/>
<text text-anchor="start" x="916.5" y="-18" font-family="Helvetica,sans-Serif" font-size="10.00">Voxel::TI::CalculusCDKCamera</text>
<text text-anchor="middle" x="987" y="-7" font-family="Helvetica,sans-Serif" font-size="10.00">::_initStartParams</text>
</a>
</g>
</g>
<!-- Node28&#45;&gt;Node29 -->
<g id="edge31" class="edge"><title>Node28&#45;&gt;Node29</title>
<path fill="none" stroke="midnightblue" d="M879.152,-15C888.908,-15 898.816,-15 908.465,-15"/>
<polygon fill="midnightblue" stroke="midnightblue" points="879.057,-11.5001 869.057,-15 879.057,-18.5001 879.057,-11.5001"/>
</g>
<!-- Node31 -->
<g id="node31" class="node"><title>Node31</title>
<g id="a_node31"><a xlink:href="a00182.xhtml#ad5dcde935444ac28a6e0b5705f504573" target="_top" xlink:title="Voxel::TI::Voxel14Camera\l::_initStartParams">
<polygon fill="none" stroke="black" points="921,-147 921,-177 1053,-177 1053,-147 921,-147"/>
<text text-anchor="start" x="929" y="-165" font-family="Helvetica,sans-Serif" font-size="10.00">Voxel::TI::Voxel14Camera</text>
<text text-anchor="middle" x="987" y="-154" font-family="Helvetica,sans-Serif" font-size="10.00">::_initStartParams</text>
</a>
</g>
</g>
<!-- Node30&#45;&gt;Node31 -->
<g id="edge33" class="edge"><title>Node30&#45;&gt;Node31</title>
<path fill="none" stroke="midnightblue" d="M879.994,-162C893.67,-162 907.62,-162 920.718,-162"/>
<polygon fill="midnightblue" stroke="midnightblue" points="879.608,-158.5 869.608,-162 879.608,-165.5 879.608,-158.5"/>
</g>
<!-- Node33 -->
<g id="node33" class="node"><title>Node33</title>
<g id="a_node33"><a xlink:href="a00137.xhtml#a35274b5fd95ea088be4bc0637328d5f4" target="_top" xlink:title="Voxel::TI::TintinCDKCamera\l::_initStartParams">
<polygon fill="none" stroke="black" points="915.5,-49 915.5,-79 1058.5,-79 1058.5,-49 915.5,-49"/>
<text text-anchor="start" x="923.5" y="-67" font-family="Helvetica,sans-Serif" font-size="10.00">Voxel::TI::TintinCDKCamera</text>
<text text-anchor="middle" x="987" y="-56" font-family="Helvetica,sans-Serif" font-size="10.00">::_initStartParams</text>
</a>
</g>
</g>
<!-- Node32&#45;&gt;Node33 -->
<g id="edge35" class="edge"><title>Node32&#45;&gt;Node33</title>
<path fill="none" stroke="midnightblue" d="M862.767,-95.4502C883.851,-90.0694 906.845,-84.201 927.2,-79.0062"/>
<polygon fill="midnightblue" stroke="midnightblue" points="861.735,-92.1012 852.911,-97.9654 863.466,-98.8838 861.735,-92.1012"/>
</g>
<!-- Node34 -->
<g id="node34" class="node"><title>Node34</title>
<g id="a_node34"><a xlink:href="a00186.xhtml#ae0706724a5ebbb978d41fb2633af5040" target="_top" xlink:title="Voxel::TI::VoxelDCamera\l::_initStartParams">
<polygon fill="none" stroke="black" points="922.5,-98 922.5,-128 1051.5,-128 1051.5,-98 922.5,-98"/>
<text text-anchor="start" x="930.5" y="-116" font-family="Helvetica,sans-Serif" font-size="10.00">Voxel::TI::VoxelDCamera</text>
<text text-anchor="middle" x="987" y="-105" font-family="Helvetica,sans-Serif" font-size="10.00">::_initStartParams</text>
</a>
</g>
</g>
<!-- Node32&#45;&gt;Node34 -->
<g id="edge36" class="edge"><title>Node32&#45;&gt;Node34</title>
<path fill="none" stroke="midnightblue" d="M872.479,-113C889.116,-113 906.48,-113 922.479,-113"/>
<polygon fill="midnightblue" stroke="midnightblue" points="872.233,-109.5 862.233,-113 872.233,-116.5 872.233,-109.5"/>
</g>
</g>
</svg>
        <g id="navigator" transform="translate(0 0)" fill="#404254">
                <rect fill="#f2f5e9" fill-opacity="0.5" stroke="#606060" stroke-width=".5" x="0" y="0" width="60" height="60"/>
                <use id="zoomplus" xlink:href="#zoomPlus" x="17" y="9" onmousedown="handleZoom(evt,'in')"/>
                <use id="zoomminus" xlink:href="#zoomMin" x="42" y="9" onmousedown="handleZoom(evt,'out')"/>
                <use id="reset" xlink:href="#resetDef" x="30" y="36" onmousedown="handleReset()"/>
                <g id="arrowUp" xlink:href="#dirArrow" transform="translate(30 24)" onmousedown="handlePan(0,-1)">
                  <use xlink:href="#rim" fill="#404040">
                        <set attributeName="fill" to="#808080" begin="arrowUp.mouseover" end="arrowUp.mouseout"/>
                  </use>
                  <path fill="none" stroke="white" stroke-width="1.5" d="M0,-3.0v7 M-2.5,-0.5L0,-3.0L2.5,-0.5"/>
                </g>
                <g id="arrowRight" xlink:href="#dirArrow" transform="rotate(90) translate(36 -43)" onmousedown="handlePan(1,0)">
                  <use xlink:href="#rim" fill="#404040">
                        <set attributeName="fill" to="#808080" begin="arrowRight.mouseover" end="arrowRight.mouseout"/>
                  </use>
                  <path fill="none" stroke="white" stroke-width="1.5" d="M0,-3.0v7 M-2.5,-0.5L0,-3.0L2.5,-0.5"/>
                </g>
                <g id="arrowDown" xlink:href="#dirArrow" transform="rotate(180) translate(-30 -48)" onmousedown="handlePan(0,1)">
                  <use xlink:href="#rim" fill="#404040">
                        <set attributeName="fill" to="#808080" begin="arrowDown.mouseover" end="arrowDown.mouseout"/>
                  </use>
                  <path fill="none" stroke="white" stroke-width="1.5" d="M0,-3.0v7 M-2.5,-0.5L0,-3.0L2.5,-0.5"/>
                </g>
                <g id="arrowLeft" xlink:href="#dirArrow" transform="rotate(270) translate(-36 17)" onmousedown="handlePan(-1,0)">
                  <use xlink:href="#rim" fill="#404040">
                        <set attributeName="fill" to="#808080" begin="arrowLeft.mouseover" end="arrowLeft.mouseout"/>
                  </use>
                  <path fill="none" stroke="white" stroke-width="1.5" d="M0,-3.0v7 M-2.5,-0.5L0,-3.0L2.5,-0.5"/>
                </g>
        </g>
        <svg viewBox="0 0 15 15" width="100%" height="30px" preserveAspectRatio="xMaxYMin meet">
         <g id="arrow_out" transform="scale(0.3 0.3)">
          <a xlink:href="a00029_ab7930d0d21d160341d989ef998ecac73_icgraph_org.svg" target="_base">
           <rect id="button" ry="5" rx="5" y="6" x="6" height="38" width="38"
                fill="#f2f5e9" fill-opacity="0.5" stroke="#606060" stroke-width="1.0"/>
           <path id="arrow"
             d="M 11.500037,31.436501 C 11.940474,20.09759 22.043105,11.32322 32.158766,21.979434 L 37.068811,17.246167 C 37.068811,17.246167 37.088388,32 37.088388,32 L 22.160133,31.978069 C 22.160133,31.978069 26.997745,27.140456 26.997745,27.140456 C 18.528582,18.264221 13.291696,25.230495 11.500037,31.436501 z"
             style="fill:#404040;"/>
          </a>
         </g>
        </svg>
</svg>
