<?xml version="1.0" encoding="UTF-8" standalone="no"?>
<!DOCTYPE svg PUBLIC "-//W3C//DTD SVG 1.1//EN"
 "http://www.w3.org/Graphics/SVG/1.1/DTD/svg11.dtd">
<!-- Generated by graphviz version 2.36.0 (20140111.2315)
 -->
<!-- Title: Voxel::TI::IntegrationTimeParameter::get Pages: 1 -->
<svg width="496pt" height="104pt"
 viewBox="0.00 0.00 496.00 104.00" xmlns="http://www.w3.org/2000/svg" xmlns:xlink="http://www.w3.org/1999/xlink">
<g id="graph0" class="graph" transform="scale(1 1) rotate(0) translate(4 100)">
<title>Voxel::TI::IntegrationTimeParameter::get</title>
<!-- Node1 -->
<g id="node1" class="node"><title>Node1</title>
<polygon fill="#bfbfbf" stroke="black" points="0,-24 0,-54 130,-54 130,-24 0,-24"/>
<text text-anchor="start" x="8" y="-42" font-family="Helvetica,sans-Serif" font-size="10.00">Voxel::TI::IntegrationTime</text>
<text text-anchor="middle" x="65" y="-31" font-family="Helvetica,sans-Serif" font-size="10.00">Parameter::get</text>
</g>
<!-- Node2 -->
<g id="node2" class="node"><title>Node2</title>
<g id="a_node2"><a xlink:href="a00036.xhtml#ac850b3829f41e647686610c283197ea6" target="_top" xlink:title="Voxel::DepthCamera\l::_get">
<polygon fill="none" stroke="black" points="179,-49 179,-79 287,-79 287,-49 179,-49"/>
<text text-anchor="start" x="187" y="-67" font-family="Helvetica,sans-Serif" font-size="10.00">Voxel::DepthCamera</text>
<text text-anchor="middle" x="233" y="-56" font-family="Helvetica,sans-Serif" font-size="10.00">::_get</text>
</a>
</g>
</g>
<!-- Node1&#45;&gt;Node2 -->
<g id="edge1" class="edge"><title>Node1&#45;&gt;Node2</title>
<path fill="none" stroke="midnightblue" d="M130.18,-48.6657C142.85,-50.5738 156.138,-52.575 168.776,-54.4784"/>
<polygon fill="midnightblue" stroke="midnightblue" points="168.339,-57.9519 178.749,-55.9802 169.381,-51.0299 168.339,-57.9519"/>
</g>
<!-- Node5 -->
<g id="node5" class="node"><title>Node5</title>
<g id="a_node5"><a xlink:href="a00103.xhtml#a3f4472338de2a9fc48cddf389b85fb1b" target="_top" xlink:title="Voxel::ParameterTemplate\l::refresh">
<polygon fill="none" stroke="black" points="166.5,-0 166.5,-30 299.5,-30 299.5,-0 166.5,-0"/>
<text text-anchor="start" x="174.5" y="-18" font-family="Helvetica,sans-Serif" font-size="10.00">Voxel::ParameterTemplate</text>
<text text-anchor="middle" x="233" y="-7" font-family="Helvetica,sans-Serif" font-size="10.00">::refresh</text>
</a>
</g>
</g>
<!-- Node1&#45;&gt;Node5 -->
<g id="edge4" class="edge"><title>Node1&#45;&gt;Node5</title>
<path fill="none" stroke="midnightblue" d="M130.18,-29.721C138.705,-28.4885 147.509,-27.2156 156.207,-25.958"/>
<polygon fill="midnightblue" stroke="midnightblue" points="156.95,-29.3871 166.346,-24.4922 155.948,-22.4592 156.95,-29.3871"/>
</g>
<!-- Node3 -->
<g id="node3" class="node"><title>Node3</title>
<g id="a_node3"><a xlink:href="a00103.xhtml#afa8896eaffbd2b87d1482c0967a0fe1d" target="_top" xlink:title="Voxel::ParameterTemplate::get">
<polygon fill="none" stroke="black" points="336,-76.5 336,-95.5 488,-95.5 488,-76.5 336,-76.5"/>
<text text-anchor="middle" x="412" y="-83.5" font-family="Helvetica,sans-Serif" font-size="10.00">Voxel::ParameterTemplate::get</text>
</a>
</g>
</g>
<!-- Node2&#45;&gt;Node3 -->
<g id="edge2" class="edge"><title>Node2&#45;&gt;Node3</title>
<path fill="none" stroke="midnightblue" d="M287.106,-70.6007C299.278,-72.1136 312.519,-73.7594 325.667,-75.3936"/>
<polygon fill="midnightblue" stroke="midnightblue" points="325.328,-78.8784 335.683,-76.6386 326.192,-71.9318 325.328,-78.8784"/>
</g>
<!-- Node4 -->
<g id="node4" class="node"><title>Node4</title>
<g id="a_node4"><a xlink:href="a00036.xhtml#ae3d6fcc6d4a20d1ad2de809ad65ecc34" target="_top" xlink:title="Voxel::DepthCamera\l::name">
<polygon fill="none" stroke="black" points="358,-27 358,-57 466,-57 466,-27 358,-27"/>
<text text-anchor="start" x="366" y="-45" font-family="Helvetica,sans-Serif" font-size="10.00">Voxel::DepthCamera</text>
<text text-anchor="middle" x="412" y="-34" font-family="Helvetica,sans-Serif" font-size="10.00">::name</text>
</a>
</g>
</g>
<!-- Node2&#45;&gt;Node4 -->
<g id="edge3" class="edge"><title>Node2&#45;&gt;Node4</title>
<path fill="none" stroke="midnightblue" d="M287.106,-57.3993C306.183,-55.0281 327.887,-52.3304 347.741,-49.8627"/>
<polygon fill="midnightblue" stroke="midnightblue" points="348.44,-53.3029 357.932,-48.5961 347.576,-46.3563 348.44,-53.3029"/>
</g>
</g>
</svg>
