<?xml version="1.0" encoding="UTF-8" standalone="no"?>
<!DOCTYPE svg PUBLIC "-//W3C//DTD SVG 1.1//EN"
 "http://www.w3.org/Graphics/SVG/1.1/DTD/svg11.dtd">
<!-- Generated by graphviz version 2.36.0 (20140111.2315)
 -->
<!-- Title: Voxel::Configuration::getLibPaths Pages: 1 -->
<svg width="418pt" height="38pt"
 viewBox="0.00 0.00 418.00 38.00" xmlns="http://www.w3.org/2000/svg" xmlns:xlink="http://www.w3.org/1999/xlink">
<g id="graph0" class="graph" transform="scale(1 1) rotate(0) translate(4 34)">
<title>Voxel::Configuration::getLibPaths</title>
<!-- Node1 -->
<g id="node1" class="node"><title>Node1</title>
<polygon fill="#bfbfbf" stroke="black" points="0.5,-0 0.5,-30 105.5,-30 105.5,-0 0.5,-0"/>
<text text-anchor="start" x="8.5" y="-18" font-family="Helvetica,sans-Serif" font-size="10.00">Voxel::Configuration</text>
<text text-anchor="middle" x="53" y="-7" font-family="Helvetica,sans-Serif" font-size="10.00">::getLibPaths</text>
</g>
<!-- Node2 -->
<g id="node2" class="node"><title>Node2</title>
<g id="a_node2"><a xlink:href="a00023.xhtml#aacbfc55e4928ea6ccfb55a308345c425" target="_top" xlink:title="Voxel::CameraSystem\l::_init">
<polygon fill="none" stroke="black" points="142,-0 142,-30 258,-30 258,-0 142,-0"/>
<text text-anchor="start" x="150" y="-18" font-family="Helvetica,sans-Serif" font-size="10.00">Voxel::CameraSystem</text>
<text text-anchor="middle" x="200" y="-7" font-family="Helvetica,sans-Serif" font-size="10.00">::_init</text>
</a>
</g>
</g>
<!-- Node1&#45;&gt;Node2 -->
<g id="edge1" class="edge"><title>Node1&#45;&gt;Node2</title>
<path fill="none" stroke="midnightblue" d="M115.579,-15C124.249,-15 133.133,-15 141.718,-15"/>
<polygon fill="midnightblue" stroke="midnightblue" points="115.53,-11.5001 105.53,-15 115.53,-18.5001 115.53,-11.5001"/>
</g>
<!-- Node3 -->
<g id="node3" class="node"><title>Node3</title>
<g id="a_node3"><a xlink:href="a00023.xhtml#a08b33ae635abd444dd482568bbbe10f2" target="_top" xlink:title="Voxel::CameraSystem\l::CameraSystem">
<polygon fill="none" stroke="black" points="294,-0 294,-30 410,-30 410,-0 294,-0"/>
<text text-anchor="start" x="302" y="-18" font-family="Helvetica,sans-Serif" font-size="10.00">Voxel::CameraSystem</text>
<text text-anchor="middle" x="352" y="-7" font-family="Helvetica,sans-Serif" font-size="10.00">::CameraSystem</text>
</a>
</g>
</g>
<!-- Node2&#45;&gt;Node3 -->
<g id="edge2" class="edge"><title>Node2&#45;&gt;Node3</title>
<path fill="none" stroke="midnightblue" d="M268.311,-15C276.728,-15 285.277,-15 293.525,-15"/>
<polygon fill="midnightblue" stroke="midnightblue" points="268.137,-11.5001 258.136,-15 268.136,-18.5001 268.137,-11.5001"/>
</g>
</g>
</svg>
