<?xml version="1.0" encoding="UTF-8" standalone="no"?>
<!DOCTYPE svg PUBLIC "-//W3C//DTD SVG 1.1//EN"
 "http://www.w3.org/Graphics/SVG/1.1/DTD/svg11.dtd">
<!-- Generated by graphviz version 2.36.0 (20140111.2315)
 -->
<!-- Title: Voxel::FrameStreamWriter::writeGeneratorConfiguration Pages: 1 -->
<!--zoomable 252 -->
<svg id="main" version="1.1" xmlns="http://www.w3.org/2000/svg" xmlns:xlink="http://www.w3.org/1999/xlink" xml:space="preserve" onload="init(evt)">
<style type="text/css"><![CDATA[
.edge:hover path { stroke: red; }
.edge:hover polygon { stroke: red; fill: red; }
]]></style>
<script type="text/javascript"><![CDATA[
var edges = document.getElementsByTagName('g');
if (edges && edges.length) {
  for (var i=0;i<edges.length;i++) {
    if (edges[i].id.substr(0,4)=='edge') {
      edges[i].setAttribute('class','edge');
    }
  }
}
]]></script>
        <defs>
                <circle id="rim" cx="0" cy="0" r="7"/>
                <circle id="rim2" cx="0" cy="0" r="3.5"/>
                <g id="zoomPlus">
                        <use xlink:href="#rim" fill="#404040">
                                <set attributeName="fill" to="#808080" begin="zoomplus.mouseover" end="zoomplus.mouseout"/>
                        </use>
                        <path d="M-4,0h8M0,-4v8" fill="none" stroke="white" stroke-width="1.5" pointer-events="none"/>
                </g>
                <g id="zoomMin">
                        <use xlink:href="#rim" fill="#404040">
                                <set attributeName="fill" to="#808080" begin="zoomminus.mouseover" end="zoomminus.mouseout"/>
                        </use>
                        <path d="M-4,0h8" fill="none" stroke="white" stroke-width="1.5" pointer-events="none"/>
                </g>
                <g id="dirArrow">
                        <path fill="none" stroke="white" stroke-width="1.5" d="M0,-3.0v7 M-2.5,-0.5L0,-3.0L2.5,-0.5"/>
                </g>
               <g id="resetDef">
                       <use xlink:href="#rim2" fill="#404040">
                               <set attributeName="fill" to="#808080" begin="reset.mouseover" end="reset.mouseout"/>
                       </use>
               </g>
        </defs>

<script type="text/javascript">
var viewWidth = 666;
var viewHeight = 252;
var sectionId = 'dynsection-8';
</script>
<script xlink:href="svgpan.js"/>
<svg id="graph" class="graph">
<g id="viewport">
<title>Voxel::FrameStreamWriter::writeGeneratorConfiguration</title>
<!-- Node1 -->
<g id="node1" class="node"><title>Node1</title>
<polygon fill="#bfbfbf" stroke="black" points="0,-138 0,-168 144,-168 144,-138 0,-138"/>
<text text-anchor="start" x="8" y="-156" font-family="Helvetica,sans-Serif" font-size="10.00">Voxel::FrameStreamWriter</text>
<text text-anchor="middle" x="72" y="-145" font-family="Helvetica,sans-Serif" font-size="10.00">::writeGeneratorConfiguration</text>
</g>
<!-- Node2 -->
<g id="node2" class="node"><title>Node2</title>
<g id="a_node2"><a xlink:href="a00075.xhtml#a87a56f47c5b37d11152ec8da491a9e52" target="_top" xlink:title="Voxel::FrameStreamWriter\l::isStreamGood">
<polygon fill="none" stroke="black" points="187.5,-214 187.5,-244 320.5,-244 320.5,-214 187.5,-214"/>
<text text-anchor="start" x="195.5" y="-232" font-family="Helvetica,sans-Serif" font-size="10.00">Voxel::FrameStreamWriter</text>
<text text-anchor="middle" x="254" y="-221" font-family="Helvetica,sans-Serif" font-size="10.00">::isStreamGood</text>
</a>
</g>
</g>
<!-- Node1&#45;&gt;Node2 -->
<g id="edge1" class="edge"><title>Node1&#45;&gt;Node2</title>
<path fill="none" stroke="midnightblue" d="M107.636,-168.057C128.554,-177.11 155.768,-188.813 180,-199 188.534,-202.588 197.648,-206.371 206.442,-209.997"/>
<polygon fill="midnightblue" stroke="midnightblue" points="205.235,-213.286 215.815,-213.854 207.899,-206.812 205.235,-213.286"/>
</g>
<!-- Node3 -->
<g id="node3" class="node"><title>Node3</title>
<g id="a_node3"><a xlink:href="a00127.xhtml#adf11acb91f4adf3fe582a778c12b6286" target="_top" xlink:title="Voxel::SerializedObject\l::size">
<polygon fill="none" stroke="black" points="538.5,-132 538.5,-162 657.5,-162 657.5,-132 538.5,-132"/>
<text text-anchor="start" x="546.5" y="-150" font-family="Helvetica,sans-Serif" font-size="10.00">Voxel::SerializedObject</text>
<text text-anchor="middle" x="598" y="-139" font-family="Helvetica,sans-Serif" font-size="10.00">::size</text>
</a>
</g>
</g>
<!-- Node1&#45;&gt;Node3 -->
<g id="edge2" class="edge"><title>Node1&#45;&gt;Node3</title>
<path fill="none" stroke="midnightblue" d="M144.214,-152.185C245.157,-151.029 428.624,-148.928 528.22,-147.788"/>
<polygon fill="midnightblue" stroke="midnightblue" points="528.512,-151.285 538.472,-147.67 528.432,-144.285 528.512,-151.285"/>
</g>
<!-- Node4 -->
<g id="node4" class="node"><title>Node4</title>
<g id="a_node4"><a xlink:href="a00035.xhtml#a2e4fcc8c2b6fa1ec9bbe823a91d534c7" target="_top" xlink:title="Voxel::DataPacket::\lwrite">
<polygon fill="none" stroke="black" points="201.5,-107 201.5,-137 306.5,-137 306.5,-107 201.5,-107"/>
<text text-anchor="start" x="209.5" y="-125" font-family="Helvetica,sans-Serif" font-size="10.00">Voxel::DataPacket::</text>
<text text-anchor="middle" x="254" y="-114" font-family="Helvetica,sans-Serif" font-size="10.00">write</text>
</a>
</g>
</g>
<!-- Node1&#45;&gt;Node4 -->
<g id="edge3" class="edge"><title>Node1&#45;&gt;Node4</title>
<path fill="none" stroke="midnightblue" d="M144.141,-140.748C159.63,-138.08 175.9,-135.278 191.002,-132.678"/>
<polygon fill="midnightblue" stroke="midnightblue" points="191.985,-136.06 201.246,-130.913 190.797,-129.161 191.985,-136.06"/>
</g>
<!-- Node7 -->
<g id="node7" class="node"><title>Node7</title>
<g id="a_node7"><a xlink:href="a00076.xhtml#ae117f4a872be0ac69ea1bb17329cbb64" target="_top" xlink:title="Voxel::GeneratorConfiguration\lSubPacket::write">
<polygon fill="none" stroke="black" points="180,-39 180,-69 328,-69 328,-39 180,-39"/>
<text text-anchor="start" x="188" y="-57" font-family="Helvetica,sans-Serif" font-size="10.00">Voxel::GeneratorConfiguration</text>
<text text-anchor="middle" x="254" y="-46" font-family="Helvetica,sans-Serif" font-size="10.00">SubPacket::write</text>
</a>
</g>
</g>
<!-- Node1&#45;&gt;Node7 -->
<g id="edge8" class="edge"><title>Node1&#45;&gt;Node7</title>
<path fill="none" stroke="midnightblue" d="M100.338,-137.964C131.485,-120.833 182.51,-92.7697 216.904,-73.8528"/>
<polygon fill="midnightblue" stroke="midnightblue" points="218.625,-76.901 225.7,-69.015 215.251,-70.7674 218.625,-76.901"/>
</g>
<!-- Node4&#45;&gt;Node3 -->
<g id="edge7" class="edge"><title>Node4&#45;&gt;Node3</title>
<path fill="none" stroke="midnightblue" d="M306.571,-125.77C365.643,-130.088 462.694,-137.182 528.177,-141.969"/>
<polygon fill="midnightblue" stroke="midnightblue" points="528.177,-145.478 538.405,-142.717 528.687,-138.497 528.177,-145.478"/>
</g>
<!-- Node5 -->
<g id="node5" class="node"><title>Node5</title>
<g id="a_node5"><a xlink:href="a00127.xhtml#a602414fea53034e304c0e6fcae5bb71b" target="_top" xlink:title="Voxel::SerializedObject\l::currentPutOffset">
<polygon fill="none" stroke="black" points="373.5,-88 373.5,-118 492.5,-118 492.5,-88 373.5,-88"/>
<text text-anchor="start" x="381.5" y="-106" font-family="Helvetica,sans-Serif" font-size="10.00">Voxel::SerializedObject</text>
<text text-anchor="middle" x="433" y="-95" font-family="Helvetica,sans-Serif" font-size="10.00">::currentPutOffset</text>
</a>
</g>
</g>
<!-- Node4&#45;&gt;Node5 -->
<g id="edge4" class="edge"><title>Node4&#45;&gt;Node5</title>
<path fill="none" stroke="midnightblue" d="M306.672,-116.453C324.403,-114.55 344.535,-112.389 363.395,-110.364"/>
<polygon fill="midnightblue" stroke="midnightblue" points="363.85,-113.836 373.42,-109.288 363.103,-106.876 363.85,-113.836"/>
</g>
<!-- Node6 -->
<g id="node6" class="node"><title>Node6</title>
<g id="a_node6"><a xlink:href="a00127.xhtml#a93bedaae4489eeac130ea6a98be2589c" target="_top" xlink:title="Voxel::SerializedObject::put">
<polygon fill="none" stroke="black" points="364,-49.5 364,-68.5 502,-68.5 502,-49.5 364,-49.5"/>
<text text-anchor="middle" x="433" y="-56.5" font-family="Helvetica,sans-Serif" font-size="10.00">Voxel::SerializedObject::put</text>
</a>
</g>
</g>
<!-- Node4&#45;&gt;Node6 -->
<g id="edge5" class="edge"><title>Node4&#45;&gt;Node6</title>
<path fill="none" stroke="midnightblue" d="M289.483,-106.934C310.743,-97.9336 338.692,-86.6138 364,-78 370.861,-75.6648 378.18,-73.3948 385.379,-71.2844"/>
<polygon fill="midnightblue" stroke="midnightblue" points="386.416,-74.6284 395.068,-68.5144 384.491,-67.8981 386.416,-74.6284"/>
</g>
<!-- Node6&#45;&gt;Node3 -->
<g id="edge6" class="edge"><title>Node6&#45;&gt;Node3</title>
<path fill="none" stroke="midnightblue" d="M477.294,-68.6007C485.69,-71.1525 494.275,-74.2654 502,-78 527.782,-90.4642 553.876,-110.028 572.176,-125.145"/>
<polygon fill="midnightblue" stroke="midnightblue" points="570.102,-127.974 580.006,-131.736 574.61,-122.619 570.102,-127.974"/>
</g>
<!-- Node8 -->
<g id="node8" class="node"><title>Node8</title>
<g id="a_node8"><a xlink:href="a00127.xhtml#aac0058e6b0ea0cb6ac86f4e986f6de25" target="_top" xlink:title="Voxel::SerializedObject\l::getBytes">
<polygon fill="none" stroke="black" points="373.5,-0 373.5,-30 492.5,-30 492.5,-0 373.5,-0"/>
<text text-anchor="start" x="381.5" y="-18" font-family="Helvetica,sans-Serif" font-size="10.00">Voxel::SerializedObject</text>
<text text-anchor="middle" x="433" y="-7" font-family="Helvetica,sans-Serif" font-size="10.00">::getBytes</text>
</a>
</g>
</g>
<!-- Node7&#45;&gt;Node8 -->
<g id="edge9" class="edge"><title>Node7&#45;&gt;Node8</title>
<path fill="none" stroke="midnightblue" d="M323.18,-38.9774C336.372,-36.0705 350.202,-33.0233 363.408,-30.1135"/>
<polygon fill="midnightblue" stroke="midnightblue" points="364.351,-33.4897 373.364,-27.9198 362.845,-26.6536 364.351,-33.4897"/>
</g>
</g>
</svg>
        <g id="navigator" transform="translate(0 0)" fill="#404254">
                <rect fill="#f2f5e9" fill-opacity="0.5" stroke="#606060" stroke-width=".5" x="0" y="0" width="60" height="60"/>
                <use id="zoomplus" xlink:href="#zoomPlus" x="17" y="9" onmousedown="handleZoom(evt,'in')"/>
                <use id="zoomminus" xlink:href="#zoomMin" x="42" y="9" onmousedown="handleZoom(evt,'out')"/>
                <use id="reset" xlink:href="#resetDef" x="30" y="36" onmousedown="handleReset()"/>
                <g id="arrowUp" xlink:href="#dirArrow" transform="translate(30 24)" onmousedown="handlePan(0,-1)">
                  <use xlink:href="#rim" fill="#404040">
                        <set attributeName="fill" to="#808080" begin="arrowUp.mouseover" end="arrowUp.mouseout"/>
                  </use>
                  <path fill="none" stroke="white" stroke-width="1.5" d="M0,-3.0v7 M-2.5,-0.5L0,-3.0L2.5,-0.5"/>
                </g>
                <g id="arrowRight" xlink:href="#dirArrow" transform="rotate(90) translate(36 -43)" onmousedown="handlePan(1,0)">
                  <use xlink:href="#rim" fill="#404040">
                        <set attributeName="fill" to="#808080" begin="arrowRight.mouseover" end="arrowRight.mouseout"/>
                  </use>
                  <path fill="none" stroke="white" stroke-width="1.5" d="M0,-3.0v7 M-2.5,-0.5L0,-3.0L2.5,-0.5"/>
                </g>
                <g id="arrowDown" xlink:href="#dirArrow" transform="rotate(180) translate(-30 -48)" onmousedown="handlePan(0,1)">
                  <use xlink:href="#rim" fill="#404040">
                        <set attributeName="fill" to="#808080" begin="arrowDown.mouseover" end="arrowDown.mouseout"/>
                  </use>
                  <path fill="none" stroke="white" stroke-width="1.5" d="M0,-3.0v7 M-2.5,-0.5L0,-3.0L2.5,-0.5"/>
                </g>
                <g id="arrowLeft" xlink:href="#dirArrow" transform="rotate(270) translate(-36 17)" onmousedown="handlePan(-1,0)">
                  <use xlink:href="#rim" fill="#404040">
                        <set attributeName="fill" to="#808080" begin="arrowLeft.mouseover" end="arrowLeft.mouseout"/>
                  </use>
                  <path fill="none" stroke="white" stroke-width="1.5" d="M0,-3.0v7 M-2.5,-0.5L0,-3.0L2.5,-0.5"/>
                </g>
        </g>
        <svg viewBox="0 0 15 15" width="100%" height="30px" preserveAspectRatio="xMaxYMin meet">
         <g id="arrow_out" transform="scale(0.3 0.3)">
          <a xlink:href="a00075_a412f87307f69dfc0dce00bc5cd97bd12_cgraph_org.svg" target="_base">
           <rect id="button" ry="5" rx="5" y="6" x="6" height="38" width="38"
                fill="#f2f5e9" fill-opacity="0.5" stroke="#606060" stroke-width="1.0"/>
           <path id="arrow"
             d="M 11.500037,31.436501 C 11.940474,20.09759 22.043105,11.32322 32.158766,21.979434 L 37.068811,17.246167 C 37.068811,17.246167 37.088388,32 37.088388,32 L 22.160133,31.978069 C 22.160133,31.978069 26.997745,27.140456 26.997745,27.140456 C 18.528582,18.264221 13.291696,25.230495 11.500037,31.436501 z"
             style="fill:#404040;"/>
          </a>
         </g>
        </svg>
</svg>
