<?xml version="1.0" encoding="UTF-8" standalone="no"?>
<!DOCTYPE svg PUBLIC "-//W3C//DTD SVG 1.1//EN"
 "http://www.w3.org/Graphics/SVG/1.1/DTD/svg11.dtd">
<!-- Generated by graphviz version 2.36.0 (20140111.2315)
 -->
<!-- Title: Voxel::DepthCamera::_getSupportedVideoModes Pages: 1 -->
<svg width="318pt" height="136pt"
 viewBox="0.00 0.00 318.00 136.00" xmlns="http://www.w3.org/2000/svg" xmlns:xlink="http://www.w3.org/1999/xlink">
<g id="graph0" class="graph" transform="scale(1 1) rotate(0) translate(4 132)">
<title>Voxel::DepthCamera::_getSupportedVideoModes</title>
<!-- Node1 -->
<g id="node1" class="node"><title>Node1</title>
<polygon fill="#bfbfbf" stroke="black" points="0,-49 0,-79 140,-79 140,-49 0,-49"/>
<text text-anchor="start" x="8" y="-67" font-family="Helvetica,sans-Serif" font-size="10.00">Voxel::DepthCamera</text>
<text text-anchor="middle" x="70" y="-56" font-family="Helvetica,sans-Serif" font-size="10.00">::_getSupportedVideoModes</text>
</g>
<!-- Node2 -->
<g id="node2" class="node"><title>Node2</title>
<g id="a_node2"><a xlink:href="a00153.xhtml#a3e338b01dde4b43a180b6ebccd4272f5" target="_top" xlink:title="Voxel::TI::ToFCamera\l::_getMaximumFrameRate">
<polygon fill="none" stroke="black" points="176.5,-98 176.5,-128 309.5,-128 309.5,-98 176.5,-98"/>
<text text-anchor="start" x="184.5" y="-116" font-family="Helvetica,sans-Serif" font-size="10.00">Voxel::TI::ToFCamera</text>
<text text-anchor="middle" x="243" y="-105" font-family="Helvetica,sans-Serif" font-size="10.00">::_getMaximumFrameRate</text>
</a>
</g>
</g>
<!-- Node1&#45;&gt;Node2 -->
<g id="edge1" class="edge"><title>Node1&#45;&gt;Node2</title>
<path fill="none" stroke="midnightblue" d="M133.447,-81.8941C151.839,-87.1644 171.77,-92.8755 189.473,-97.9484"/>
<polygon fill="midnightblue" stroke="midnightblue" points="134.278,-78.4916 123.701,-79.1014 132.35,-85.2207 134.278,-78.4916"/>
</g>
<!-- Node3 -->
<g id="node3" class="node"><title>Node3</title>
<g id="a_node3"><a xlink:href="a00153.xhtml#a732a6cb4d0a909776abf8004f2ddf4ee" target="_top" xlink:title="Voxel::TI::ToFCamera\l::_setFrameSize">
<polygon fill="none" stroke="black" points="186,-49 186,-79 300,-79 300,-49 186,-49"/>
<text text-anchor="start" x="194" y="-67" font-family="Helvetica,sans-Serif" font-size="10.00">Voxel::TI::ToFCamera</text>
<text text-anchor="middle" x="243" y="-56" font-family="Helvetica,sans-Serif" font-size="10.00">::_setFrameSize</text>
</a>
</g>
</g>
<!-- Node1&#45;&gt;Node3 -->
<g id="edge2" class="edge"><title>Node1&#45;&gt;Node3</title>
<path fill="none" stroke="midnightblue" d="M150.118,-64C162.165,-64 174.382,-64 185.805,-64"/>
<polygon fill="midnightblue" stroke="midnightblue" points="150.059,-60.5001 140.059,-64 150.059,-67.5001 150.059,-60.5001"/>
</g>
<!-- Node4 -->
<g id="node4" class="node"><title>Node4</title>
<g id="a_node4"><a xlink:href="a00036.xhtml#a9604ada4f0170774ae80716a703f0ccc" target="_top" xlink:title="Voxel::DepthCamera\l::getSupportedVideoModes">
<polygon fill="none" stroke="black" points="176,-0 176,-30 310,-30 310,-0 176,-0"/>
<text text-anchor="start" x="184" y="-18" font-family="Helvetica,sans-Serif" font-size="10.00">Voxel::DepthCamera</text>
<text text-anchor="middle" x="243" y="-7" font-family="Helvetica,sans-Serif" font-size="10.00">::getSupportedVideoModes</text>
</a>
</g>
</g>
<!-- Node1&#45;&gt;Node4 -->
<g id="edge3" class="edge"><title>Node1&#45;&gt;Node4</title>
<path fill="none" stroke="midnightblue" d="M133.447,-46.1059C151.839,-40.8356 171.77,-35.1245 189.473,-30.0516"/>
<polygon fill="midnightblue" stroke="midnightblue" points="132.35,-42.7793 123.701,-48.8986 134.278,-49.5084 132.35,-42.7793"/>
</g>
</g>
</svg>
