<?xml version="1.0" encoding="UTF-8" standalone="no"?>
<!DOCTYPE svg PUBLIC "-//W3C//DTD SVG 1.1//EN"
 "http://www.w3.org/Graphics/SVG/1.1/DTD/svg11.dtd">
<!-- Generated by graphviz version 2.36.0 (20140111.2315)
 -->
<!-- Title: Voxel::Configuration::getLocalConfPath Pages: 1 -->
<svg width="812pt" height="197pt"
 viewBox="0.00 0.00 812.00 197.00" xmlns="http://www.w3.org/2000/svg" xmlns:xlink="http://www.w3.org/1999/xlink">
<g id="graph0" class="graph" transform="scale(1 1) rotate(0) translate(4 193)">
<title>Voxel::Configuration::getLocalConfPath</title>
<!-- Node1 -->
<g id="node1" class="node"><title>Node1</title>
<polygon fill="#bfbfbf" stroke="black" points="0.5,-90 0.5,-120 105.5,-120 105.5,-90 0.5,-90"/>
<text text-anchor="start" x="8.5" y="-108" font-family="Helvetica,sans-Serif" font-size="10.00">Voxel::Configuration</text>
<text text-anchor="middle" x="53" y="-97" font-family="Helvetica,sans-Serif" font-size="10.00">::getLocalConfPath</text>
</g>
<!-- Node2 -->
<g id="node2" class="node"><title>Node2</title>
<g id="a_node2"><a xlink:href="a00031.xhtml#a978b37f6995656a3fd39a35e70867bf0" target="_top" xlink:title="Voxel::ConfigurationFile\l::write">
<polygon fill="none" stroke="black" points="144.5,-126 144.5,-156 265.5,-156 265.5,-126 144.5,-126"/>
<text text-anchor="start" x="152.5" y="-144" font-family="Helvetica,sans-Serif" font-size="10.00">Voxel::ConfigurationFile</text>
<text text-anchor="middle" x="205" y="-133" font-family="Helvetica,sans-Serif" font-size="10.00">::write</text>
</a>
</g>
</g>
<!-- Node1&#45;&gt;Node2 -->
<g id="edge1" class="edge"><title>Node1&#45;&gt;Node2</title>
<path fill="none" stroke="midnightblue" d="M115.42,-119.741C124.954,-122.029 134.791,-124.39 144.287,-126.669"/>
<polygon fill="midnightblue" stroke="midnightblue" points="116.162,-116.32 105.621,-117.389 114.529,-123.126 116.162,-116.32"/>
</g>
<!-- Node9 -->
<g id="node9" class="node"><title>Node9</title>
<g id="a_node9"><a xlink:href="a00096.xhtml#a65f9abd83851d372ef62958de4774415" target="_top" xlink:title="Voxel::MainConfiguration\lFile::writeToHardware">
<polygon fill="none" stroke="black" points="142,-55 142,-85 268,-85 268,-55 142,-55"/>
<text text-anchor="start" x="150" y="-73" font-family="Helvetica,sans-Serif" font-size="10.00">Voxel::MainConfiguration</text>
<text text-anchor="middle" x="205" y="-62" font-family="Helvetica,sans-Serif" font-size="10.00">File::writeToHardware</text>
</a>
</g>
</g>
<!-- Node1&#45;&gt;Node9 -->
<g id="edge10" class="edge"><title>Node1&#45;&gt;Node9</title>
<path fill="none" stroke="midnightblue" d="M115.377,-90.6786C124.138,-88.6344 133.156,-86.5303 141.93,-84.483"/>
<polygon fill="midnightblue" stroke="midnightblue" points="114.565,-87.2742 105.621,-92.955 116.155,-94.0911 114.565,-87.2742"/>
</g>
<!-- Node3 -->
<g id="node3" class="node"><title>Node3</title>
<g id="a_node3"><a xlink:href="a00096.xhtml#a43204cc6e30ecead0efd522ca13e3b67" target="_top" xlink:title="Voxel::MainConfiguration\lFile::addCameraProfile">
<polygon fill="none" stroke="black" points="520,-159 520,-189 646,-189 646,-159 520,-159"/>
<text text-anchor="start" x="528" y="-177" font-family="Helvetica,sans-Serif" font-size="10.00">Voxel::MainConfiguration</text>
<text text-anchor="middle" x="583" y="-166" font-family="Helvetica,sans-Serif" font-size="10.00">File::addCameraProfile</text>
</a>
</g>
</g>
<!-- Node2&#45;&gt;Node3 -->
<g id="edge2" class="edge"><title>Node2&#45;&gt;Node3</title>
<path fill="none" stroke="midnightblue" d="M248.801,-159.881C265.656,-166.355 285.399,-172.778 304,-176 377.357,-188.706 463.242,-185.374 519.925,-180.719"/>
<polygon fill="midnightblue" stroke="midnightblue" points="249.828,-156.523 239.242,-156.087 247.246,-163.029 249.828,-156.523"/>
</g>
<!-- Node5 -->
<g id="node5" class="node"><title>Node5</title>
<g id="a_node5"><a xlink:href="a00096.xhtml#ae2f3f66b632fa462d8b9f873f416f12b" target="_top" xlink:title="Voxel::MainConfiguration\lFile::_updateCameraProfileList">
<polygon fill="none" stroke="black" points="316.5,-137 316.5,-167 467.5,-167 467.5,-137 316.5,-137"/>
<text text-anchor="start" x="324.5" y="-155" font-family="Helvetica,sans-Serif" font-size="10.00">Voxel::MainConfiguration</text>
<text text-anchor="middle" x="392" y="-144" font-family="Helvetica,sans-Serif" font-size="10.00">File::_updateCameraProfileList</text>
</a>
</g>
</g>
<!-- Node2&#45;&gt;Node5 -->
<g id="edge4" class="edge"><title>Node2&#45;&gt;Node5</title>
<path fill="none" stroke="midnightblue" d="M275.573,-145.137C288.873,-145.928 302.848,-146.759 316.301,-147.558"/>
<polygon fill="midnightblue" stroke="midnightblue" points="275.744,-141.641 265.553,-144.541 275.328,-148.628 275.744,-141.641"/>
</g>
<!-- Node8 -->
<g id="node8" class="node"><title>Node8</title>
<g id="a_node8"><a xlink:href="a00096.xhtml#ad0ea67099cfd8a8e869b46b833e19800" target="_top" xlink:title="Voxel::MainConfiguration\lFile::setDefaultCameraProfile">
<polygon fill="none" stroke="black" points="319,-88 319,-118 465,-118 465,-88 319,-88"/>
<text text-anchor="start" x="327" y="-106" font-family="Helvetica,sans-Serif" font-size="10.00">Voxel::MainConfiguration</text>
<text text-anchor="middle" x="392" y="-95" font-family="Helvetica,sans-Serif" font-size="10.00">File::setDefaultCameraProfile</text>
</a>
</g>
</g>
<!-- Node2&#45;&gt;Node8 -->
<g id="edge8" class="edge"><title>Node2&#45;&gt;Node8</title>
<path fill="none" stroke="midnightblue" d="M275.693,-126.685C289.83,-123.781 304.725,-120.721 318.942,-117.801"/>
<polygon fill="midnightblue" stroke="midnightblue" points="274.645,-123.327 265.553,-128.767 276.053,-130.184 274.645,-123.327"/>
</g>
<!-- Node4 -->
<g id="node4" class="node"><title>Node4</title>
<g id="a_node4"><a xlink:href="a00036.xhtml#afd88098930492a61560db37abdfacac1" target="_top" xlink:title="Voxel::DepthCamera\l::addCameraProfile">
<polygon fill="none" stroke="black" points="691,-159 691,-189 799,-189 799,-159 691,-159"/>
<text text-anchor="start" x="699" y="-177" font-family="Helvetica,sans-Serif" font-size="10.00">Voxel::DepthCamera</text>
<text text-anchor="middle" x="745" y="-166" font-family="Helvetica,sans-Serif" font-size="10.00">::addCameraProfile</text>
</a>
</g>
</g>
<!-- Node3&#45;&gt;Node4 -->
<g id="edge3" class="edge"><title>Node3&#45;&gt;Node4</title>
<path fill="none" stroke="midnightblue" d="M656.443,-174C668.054,-174 679.881,-174 690.931,-174"/>
<polygon fill="midnightblue" stroke="midnightblue" points="656.318,-170.5 646.318,-174 656.318,-177.5 656.318,-170.5"/>
</g>
<!-- Node5&#45;&gt;Node3 -->
<g id="edge5" class="edge"><title>Node5&#45;&gt;Node3</title>
<path fill="none" stroke="midnightblue" d="M477.881,-161.88C491.962,-163.519 506.33,-165.192 519.717,-166.75"/>
<polygon fill="midnightblue" stroke="midnightblue" points="478.035,-158.375 467.698,-160.695 477.226,-165.328 478.035,-158.375"/>
</g>
<!-- Node6 -->
<g id="node6" class="node"><title>Node6</title>
<g id="a_node6"><a xlink:href="a00096.xhtml#a4abe1141d3c441fc54cd870e09a22b2c" target="_top" xlink:title="Voxel::MainConfiguration\lFile::removeCameraProfile">
<polygon fill="none" stroke="black" points="516.5,-88 516.5,-118 649.5,-118 649.5,-88 516.5,-88"/>
<text text-anchor="start" x="524.5" y="-106" font-family="Helvetica,sans-Serif" font-size="10.00">Voxel::MainConfiguration</text>
<text text-anchor="middle" x="583" y="-95" font-family="Helvetica,sans-Serif" font-size="10.00">File::removeCameraProfile</text>
</a>
</g>
</g>
<!-- Node5&#45;&gt;Node6 -->
<g id="edge6" class="edge"><title>Node5&#45;&gt;Node6</title>
<path fill="none" stroke="midnightblue" d="M460.692,-134.45C481.447,-129.069 504.082,-123.201 524.119,-118.006"/>
<polygon fill="midnightblue" stroke="midnightblue" points="459.792,-131.068 450.991,-136.965 461.549,-137.844 459.792,-131.068"/>
</g>
<!-- Node7 -->
<g id="node7" class="node"><title>Node7</title>
<g id="a_node7"><a xlink:href="a00036.xhtml#a51bc1371938f78ddc18af0b36850545c" target="_top" xlink:title="Voxel::DepthCamera\l::removeCameraProfile">
<polygon fill="none" stroke="black" points="686.5,-88 686.5,-118 803.5,-118 803.5,-88 686.5,-88"/>
<text text-anchor="start" x="694.5" y="-106" font-family="Helvetica,sans-Serif" font-size="10.00">Voxel::DepthCamera</text>
<text text-anchor="middle" x="745" y="-95" font-family="Helvetica,sans-Serif" font-size="10.00">::removeCameraProfile</text>
</a>
</g>
</g>
<!-- Node6&#45;&gt;Node7 -->
<g id="edge7" class="edge"><title>Node6&#45;&gt;Node7</title>
<path fill="none" stroke="midnightblue" d="M659.601,-103C668.562,-103 677.596,-103 686.253,-103"/>
<polygon fill="midnightblue" stroke="midnightblue" points="659.54,-99.5001 649.54,-103 659.54,-106.5 659.54,-99.5001"/>
</g>
<!-- Node8&#45;&gt;Node6 -->
<g id="edge9" class="edge"><title>Node8&#45;&gt;Node6</title>
<path fill="none" stroke="midnightblue" d="M475.589,-103C489.205,-103 503.156,-103 516.287,-103"/>
<polygon fill="midnightblue" stroke="midnightblue" points="475.262,-99.5001 465.262,-103 475.262,-106.5 475.262,-99.5001"/>
</g>
<!-- Node9&#45;&gt;Node6 -->
<g id="edge11" class="edge"><title>Node9&#45;&gt;Node6</title>
<path fill="none" stroke="midnightblue" d="M278.14,-67.9696C333.592,-67.4066 411.965,-68.7747 480,-78 496.351,-80.2171 513.888,-83.991 529.73,-87.9439"/>
<polygon fill="midnightblue" stroke="midnightblue" points="278.016,-64.4708 268.061,-68.0958 278.104,-71.4703 278.016,-64.4708"/>
</g>
<!-- Node9&#45;&gt;Node8 -->
<g id="edge13" class="edge"><title>Node9&#45;&gt;Node8</title>
<path fill="none" stroke="midnightblue" d="M278.187,-82.8765C291.532,-85.257 305.47,-87.7433 318.815,-90.1238"/>
<polygon fill="midnightblue" stroke="midnightblue" points="278.576,-79.3909 268.117,-81.0803 277.347,-86.2821 278.576,-79.3909"/>
</g>
<!-- Node10 -->
<g id="node10" class="node"><title>Node10</title>
<g id="a_node10"><a xlink:href="a00096.xhtml#a62f0d5bdc21e9ed7b4cf4ee24dab75e4" target="_top" xlink:title="Voxel::MainConfiguration\lFile::saveCameraProfileToHardware">
<polygon fill="none" stroke="black" points="304.5,-0 304.5,-30 479.5,-30 479.5,-0 304.5,-0"/>
<text text-anchor="start" x="312.5" y="-18" font-family="Helvetica,sans-Serif" font-size="10.00">Voxel::MainConfiguration</text>
<text text-anchor="middle" x="392" y="-7" font-family="Helvetica,sans-Serif" font-size="10.00">File::saveCameraProfileToHardware</text>
</a>
</g>
</g>
<!-- Node9&#45;&gt;Node10 -->
<g id="edge12" class="edge"><title>Node9&#45;&gt;Node10</title>
<path fill="none" stroke="midnightblue" d="M266.264,-52.0838C290.264,-44.9485 317.574,-36.8293 340.509,-30.0108"/>
<polygon fill="midnightblue" stroke="midnightblue" points="265.14,-48.7664 256.552,-54.971 267.135,-55.4761 265.14,-48.7664"/>
</g>
</g>
</svg>
