<?xml version="1.0" encoding="UTF-8" standalone="no"?>
<!DOCTYPE svg PUBLIC "-//W3C//DTD SVG 1.1//EN"
 "http://www.w3.org/Graphics/SVG/1.1/DTD/svg11.dtd">
<!-- Generated by graphviz version 2.36.0 (20140111.2315)
 -->
<!-- Title: Voxel::ConfigurationFile::isPresent Pages: 1 -->
<svg width="1628pt" height="393pt"
 viewBox="0.00 0.00 1628.00 393.00" xmlns="http://www.w3.org/2000/svg" xmlns:xlink="http://www.w3.org/1999/xlink">
<g id="graph0" class="graph" transform="scale(1 1) rotate(0) translate(4 389)">
<title>Voxel::ConfigurationFile::isPresent</title>
<!-- Node1 -->
<g id="node1" class="node"><title>Node1</title>
<polygon fill="#bfbfbf" stroke="black" points="0.5,-159 0.5,-189 121.5,-189 121.5,-159 0.5,-159"/>
<text text-anchor="start" x="8.5" y="-177" font-family="Helvetica,sans-Serif" font-size="10.00">Voxel::ConfigurationFile</text>
<text text-anchor="middle" x="61" y="-166" font-family="Helvetica,sans-Serif" font-size="10.00">::isPresent</text>
</g>
<!-- Node1&#45;&gt;Node1 -->
<g id="edge3" class="edge"><title>Node1&#45;&gt;Node1</title>
<path fill="none" stroke="midnightblue" d="M30.5435,-199.598C34.7053,-203.97 44.8574,-207 61,-207 88.1875,-207 98.3828,-198.406 91.5859,-189.275"/>
<polygon fill="midnightblue" stroke="midnightblue" points="34.0393,-199.231 30.4141,-189.275 27.0398,-199.319 34.0393,-199.231"/>
</g>
<!-- Node2 -->
<g id="node2" class="node"><title>Node2</title>
<g id="a_node2"><a xlink:href="a00031.xhtml#a2fcf8e948604e5fa2f805e9836b350d1" target="_top" xlink:title="Voxel::ConfigurationFile\l::_copyFromParentIfNotPresent">
<polygon fill="none" stroke="black" points="158.5,-257 158.5,-287 313.5,-287 313.5,-257 158.5,-257"/>
<text text-anchor="start" x="166.5" y="-275" font-family="Helvetica,sans-Serif" font-size="10.00">Voxel::ConfigurationFile</text>
<text text-anchor="middle" x="236" y="-264" font-family="Helvetica,sans-Serif" font-size="10.00">::_copyFromParentIfNotPresent</text>
</a>
</g>
</g>
<!-- Node1&#45;&gt;Node2 -->
<g id="edge1" class="edge"><title>Node1&#45;&gt;Node2</title>
<path fill="none" stroke="midnightblue" d="M85.8108,-195.756C104.351,-211.752 131.335,-233.049 158,-247 165.098,-250.714 172.853,-254.013 180.62,-256.899"/>
<polygon fill="midnightblue" stroke="midnightblue" points="87.9878,-193.01 78.1633,-189.043 83.3702,-198.271 87.9878,-193.01"/>
</g>
<!-- Node3 -->
<g id="node3" class="node"><title>Node3</title>
<g id="a_node3"><a xlink:href="a00096.xhtml#a0d061a6b01c29c40af3288f4783c3c07" target="_top" xlink:title="Voxel::MainConfiguration\lFile::isPresent">
<polygon fill="none" stroke="black" points="173,-208 173,-238 299,-238 299,-208 173,-208"/>
<text text-anchor="start" x="181" y="-226" font-family="Helvetica,sans-Serif" font-size="10.00">Voxel::MainConfiguration</text>
<text text-anchor="middle" x="236" y="-215" font-family="Helvetica,sans-Serif" font-size="10.00">File::isPresent</text>
</a>
</g>
</g>
<!-- Node1&#45;&gt;Node3 -->
<g id="edge4" class="edge"><title>Node1&#45;&gt;Node3</title>
<path fill="none" stroke="midnightblue" d="M125.177,-191.894C143.785,-197.164 163.948,-202.876 181.859,-207.948"/>
<polygon fill="midnightblue" stroke="midnightblue" points="125.893,-188.459 115.317,-189.101 123.985,-195.194 125.893,-188.459"/>
</g>
<!-- Node18 -->
<g id="node18" class="node"><title>Node18</title>
<g id="a_node18"><a xlink:href="a00031.xhtml#aed32106b59668d21743c241255d1a92a" target="_top" xlink:title="Voxel::ConfigurationFile\l::isValidCameraProfile">
<polygon fill="none" stroke="black" points="175.5,-159 175.5,-189 296.5,-189 296.5,-159 175.5,-159"/>
<text text-anchor="start" x="183.5" y="-177" font-family="Helvetica,sans-Serif" font-size="10.00">Voxel::ConfigurationFile</text>
<text text-anchor="middle" x="236" y="-166" font-family="Helvetica,sans-Serif" font-size="10.00">::isValidCameraProfile</text>
</a>
</g>
</g>
<!-- Node1&#45;&gt;Node18 -->
<g id="edge19" class="edge"><title>Node1&#45;&gt;Node18</title>
<path fill="none" stroke="midnightblue" d="M131.892,-174C146.301,-174 161.348,-174 175.353,-174"/>
<polygon fill="midnightblue" stroke="midnightblue" points="131.537,-170.5 121.537,-174 131.537,-177.5 131.537,-170.5"/>
</g>
<!-- Node19 -->
<g id="node19" class="node"><title>Node19</title>
<g id="a_node19"><a xlink:href="a00096.xhtml#ab801a8f7e2eabaf3f524877c5c257fa2" target="_top" xlink:title="Voxel::MainConfiguration\lFile::readFromHardware">
<polygon fill="none" stroke="black" points="364,-110 364,-140 490,-140 490,-110 364,-110"/>
<text text-anchor="start" x="372" y="-128" font-family="Helvetica,sans-Serif" font-size="10.00">Voxel::MainConfiguration</text>
<text text-anchor="middle" x="427" y="-117" font-family="Helvetica,sans-Serif" font-size="10.00">File::readFromHardware</text>
</a>
</g>
</g>
<!-- Node1&#45;&gt;Node19 -->
<g id="edge39" class="edge"><title>Node1&#45;&gt;Node19</title>
<path fill="none" stroke="midnightblue" d="M123.375,-156.409C134.811,-153.591 146.713,-150.961 158,-149 227.957,-136.845 309.321,-130.663 363.883,-127.646"/>
<polygon fill="midnightblue" stroke="midnightblue" points="122.303,-153.07 113.472,-158.923 124.026,-159.855 122.303,-153.07"/>
</g>
<!-- Node36 -->
<g id="node36" class="node"><title>Node36</title>
<g id="a_node36"><a xlink:href="a00031.xhtml#a9387e5885adbc3b638dbd8b4848a9aa9" target="_top" xlink:title="Voxel::ConfigurationFile\l::read">
<polygon fill="none" stroke="black" points="175.5,-71 175.5,-101 296.5,-101 296.5,-71 175.5,-71"/>
<text text-anchor="start" x="183.5" y="-89" font-family="Helvetica,sans-Serif" font-size="10.00">Voxel::ConfigurationFile</text>
<text text-anchor="middle" x="236" y="-78" font-family="Helvetica,sans-Serif" font-size="10.00">::read</text>
</a>
</g>
</g>
<!-- Node1&#45;&gt;Node36 -->
<g id="edge38" class="edge"><title>Node1&#45;&gt;Node36</title>
<path fill="none" stroke="midnightblue" d="M93.2088,-153.27C111.621,-141.52 135.63,-127.013 158,-116 168.941,-110.613 181.105,-105.497 192.474,-101.064"/>
<polygon fill="midnightblue" stroke="midnightblue" points="91.1579,-150.428 84.6513,-158.789 94.9521,-156.31 91.1579,-150.428"/>
</g>
<!-- Node2&#45;&gt;Node2 -->
<g id="edge2" class="edge"><title>Node2&#45;&gt;Node2</title>
<path fill="none" stroke="midnightblue" d="M205.543,-297.598C209.705,-301.97 219.857,-305 236,-305 263.188,-305 273.383,-296.406 266.586,-287.275"/>
<polygon fill="midnightblue" stroke="midnightblue" points="209.039,-297.231 205.414,-287.275 202.04,-297.319 209.039,-297.231"/>
</g>
<!-- Node4 -->
<g id="node4" class="node"><title>Node4</title>
<g id="a_node4"><a xlink:href="a00096.xhtml#a3f47c852116bdee8f049cdf1b15959ff" target="_top" xlink:title="Voxel::MainConfiguration\lFile::read">
<polygon fill="none" stroke="black" points="364,-159 364,-189 490,-189 490,-159 364,-159"/>
<text text-anchor="start" x="372" y="-177" font-family="Helvetica,sans-Serif" font-size="10.00">Voxel::MainConfiguration</text>
<text text-anchor="middle" x="427" y="-166" font-family="Helvetica,sans-Serif" font-size="10.00">File::read</text>
</a>
</g>
</g>
<!-- Node3&#45;&gt;Node4 -->
<g id="edge5" class="edge"><title>Node3&#45;&gt;Node4</title>
<path fill="none" stroke="midnightblue" d="M304.692,-205.45C325.447,-200.069 348.082,-194.201 368.119,-189.006"/>
<polygon fill="midnightblue" stroke="midnightblue" points="303.792,-202.068 294.991,-207.965 305.549,-208.844 303.792,-202.068"/>
</g>
<!-- Node6 -->
<g id="node6" class="node"><title>Node6</title>
<g id="a_node6"><a xlink:href="a00153.xhtml#a52686f695d06876ef5a89e453c6a8ba3" target="_top" xlink:title="Voxel::TI::ToFCamera\l::_initStartParams">
<polygon fill="none" stroke="black" points="370,-257 370,-287 484,-287 484,-257 370,-257"/>
<text text-anchor="start" x="378" y="-275" font-family="Helvetica,sans-Serif" font-size="10.00">Voxel::TI::ToFCamera</text>
<text text-anchor="middle" x="427" y="-264" font-family="Helvetica,sans-Serif" font-size="10.00">::_initStartParams</text>
</a>
</g>
</g>
<!-- Node3&#45;&gt;Node6 -->
<g id="edge7" class="edge"><title>Node3&#45;&gt;Node6</title>
<path fill="none" stroke="midnightblue" d="M304.923,-240.61C326.176,-246.12 349.382,-252.136 369.74,-257.414"/>
<polygon fill="midnightblue" stroke="midnightblue" points="305.549,-237.156 294.991,-238.035 303.792,-243.932 305.549,-237.156"/>
</g>
<!-- Node15 -->
<g id="node15" class="node"><title>Node15</title>
<g id="a_node15"><a xlink:href="a00153.xhtml#a6f61d229b9f83102d07d25d88ea03efa" target="_top" xlink:title="Voxel::TI::ToFCamera\l::_getDepthScalingFactor">
<polygon fill="none" stroke="black" points="363,-208 363,-238 491,-238 491,-208 363,-208"/>
<text text-anchor="start" x="371" y="-226" font-family="Helvetica,sans-Serif" font-size="10.00">Voxel::TI::ToFCamera</text>
<text text-anchor="middle" x="427" y="-215" font-family="Helvetica,sans-Serif" font-size="10.00">::_getDepthScalingFactor</text>
</a>
</g>
</g>
<!-- Node3&#45;&gt;Node15 -->
<g id="edge16" class="edge"><title>Node3&#45;&gt;Node15</title>
<path fill="none" stroke="midnightblue" d="M309.374,-223C326.991,-223 345.695,-223 362.845,-223"/>
<polygon fill="midnightblue" stroke="midnightblue" points="309.147,-219.5 299.147,-223 309.147,-226.5 309.147,-219.5"/>
</g>
<!-- Node16 -->
<g id="node16" class="node"><title>Node16</title>
<g id="a_node16"><a xlink:href="a00159.xhtml#ae4ffc0d48d8bec78f4f7d9f9e1fde5ab" target="_top" xlink:title="Voxel::TI::ToFHaddockCamera\l::_applyCalibrationParams">
<polygon fill="none" stroke="black" points="350.5,-355 350.5,-385 503.5,-385 503.5,-355 350.5,-355"/>
<text text-anchor="start" x="358.5" y="-373" font-family="Helvetica,sans-Serif" font-size="10.00">Voxel::TI::ToFHaddockCamera</text>
<text text-anchor="middle" x="427" y="-362" font-family="Helvetica,sans-Serif" font-size="10.00">::_applyCalibrationParams</text>
</a>
</g>
</g>
<!-- Node3&#45;&gt;Node16 -->
<g id="edge17" class="edge"><title>Node3&#45;&gt;Node16</title>
<path fill="none" stroke="midnightblue" d="M307.899,-241.955C310.048,-243.506 312.091,-245.184 314,-247 347.619,-278.982 316.632,-312.756 350,-345 353.995,-348.861 358.598,-352.126 363.52,-354.886"/>
<polygon fill="midnightblue" stroke="midnightblue" points="309.504,-238.833 299.153,-236.577 305.838,-244.796 309.504,-238.833"/>
</g>
<!-- Node17 -->
<g id="node17" class="node"><title>Node17</title>
<g id="a_node17"><a xlink:href="a00164.xhtml#a8f4687aa4c53a91e680f1ea9805a9b06" target="_top" xlink:title="Voxel::TI::ToFTintinCamera\l::_applyCalibrationParams">
<polygon fill="none" stroke="black" points="358,-306 358,-336 496,-336 496,-306 358,-306"/>
<text text-anchor="start" x="366" y="-324" font-family="Helvetica,sans-Serif" font-size="10.00">Voxel::TI::ToFTintinCamera</text>
<text text-anchor="middle" x="427" y="-313" font-family="Helvetica,sans-Serif" font-size="10.00">::_applyCalibrationParams</text>
</a>
</g>
</g>
<!-- Node3&#45;&gt;Node17 -->
<g id="edge18" class="edge"><title>Node3&#45;&gt;Node17</title>
<path fill="none" stroke="midnightblue" d="M307.453,-242.785C309.715,-244.102 311.905,-245.506 314,-247 335.999,-262.694 328.124,-280.134 350,-296 355.285,-299.833 361.191,-303.101 367.312,-305.882"/>
<polygon fill="midnightblue" stroke="midnightblue" points="308.916,-239.601 298.426,-238.114 305.699,-245.818 308.916,-239.601"/>
</g>
<!-- Node5 -->
<g id="node5" class="node"><title>Node5</title>
<g id="a_node5"><a xlink:href="a00036.xhtml#af70e20cd13e08c6392058b1f3310f08a" target="_top" xlink:title="Voxel::DepthCamera\l::DepthCamera">
<polygon fill="none" stroke="black" points="565,-159 565,-189 673,-189 673,-159 565,-159"/>
<text text-anchor="start" x="573" y="-177" font-family="Helvetica,sans-Serif" font-size="10.00">Voxel::DepthCamera</text>
<text text-anchor="middle" x="619" y="-166" font-family="Helvetica,sans-Serif" font-size="10.00">::DepthCamera</text>
</a>
</g>
</g>
<!-- Node4&#45;&gt;Node5 -->
<g id="edge6" class="edge"><title>Node4&#45;&gt;Node5</title>
<path fill="none" stroke="midnightblue" d="M500.274,-174C521.749,-174 544.87,-174 564.889,-174"/>
<polygon fill="midnightblue" stroke="midnightblue" points="500.213,-170.5 490.213,-174 500.213,-177.5 500.213,-170.5"/>
</g>
<!-- Node7 -->
<g id="node7" class="node"><title>Node7</title>
<g id="a_node7"><a xlink:href="a00077.xhtml#a4e8e32000eca9b81bc6401a8d512cbc7" target="_top" xlink:title="Voxel::TI::HaddockCDKCamera\l::_initStartParams">
<polygon fill="none" stroke="black" points="540,-257 540,-287 698,-287 698,-257 540,-257"/>
<text text-anchor="start" x="548" y="-275" font-family="Helvetica,sans-Serif" font-size="10.00">Voxel::TI::HaddockCDKCamera</text>
<text text-anchor="middle" x="619" y="-264" font-family="Helvetica,sans-Serif" font-size="10.00">::_initStartParams</text>
</a>
</g>
</g>
<!-- Node6&#45;&gt;Node7 -->
<g id="edge8" class="edge"><title>Node6&#45;&gt;Node7</title>
<path fill="none" stroke="midnightblue" d="M494.647,-272C509.215,-272 524.761,-272 539.735,-272"/>
<polygon fill="midnightblue" stroke="midnightblue" points="494.235,-268.5 484.235,-272 494.235,-275.5 494.235,-268.5"/>
</g>
<!-- Node8 -->
<g id="node8" class="node"><title>Node8</title>
<g id="a_node8"><a xlink:href="a00152.xhtml#adf420ba5e95dcb0cbd3da90f446242d9" target="_top" xlink:title="Voxel::TI::ToFCalculusCamera\l::_initStartParams">
<polygon fill="none" stroke="black" points="543,-208 543,-238 695,-238 695,-208 543,-208"/>
<text text-anchor="start" x="551" y="-226" font-family="Helvetica,sans-Serif" font-size="10.00">Voxel::TI::ToFCalculusCamera</text>
<text text-anchor="middle" x="619" y="-215" font-family="Helvetica,sans-Serif" font-size="10.00">::_initStartParams</text>
</a>
</g>
</g>
<!-- Node6&#45;&gt;Node8 -->
<g id="edge9" class="edge"><title>Node6&#45;&gt;Node8</title>
<path fill="none" stroke="midnightblue" d="M494.174,-254.934C515.471,-249.442 538.904,-243.398 559.601,-238.061"/>
<polygon fill="midnightblue" stroke="midnightblue" points="493.044,-251.611 484.235,-257.497 494.792,-258.389 493.044,-251.611"/>
</g>
<!-- Node10 -->
<g id="node10" class="node"><title>Node10</title>
<g id="a_node10"><a xlink:href="a00159.xhtml#ae87b0ca3c8867d1b520c0165d526e79d" target="_top" xlink:title="Voxel::TI::ToFHaddockCamera\l::_initStartParams">
<polygon fill="none" stroke="black" points="542.5,-355 542.5,-385 695.5,-385 695.5,-355 542.5,-355"/>
<text text-anchor="start" x="550.5" y="-373" font-family="Helvetica,sans-Serif" font-size="10.00">Voxel::TI::ToFHaddockCamera</text>
<text text-anchor="middle" x="619" y="-362" font-family="Helvetica,sans-Serif" font-size="10.00">::_initStartParams</text>
</a>
</g>
</g>
<!-- Node6&#45;&gt;Node10 -->
<g id="edge11" class="edge"><title>Node6&#45;&gt;Node10</title>
<path fill="none" stroke="midnightblue" d="M493.606,-289.638C497.243,-291.551 500.74,-293.665 504,-296 525.97,-311.735 518.064,-329.218 540,-345 545.31,-348.82 551.23,-352.075 557.369,-354.844"/>
<polygon fill="midnightblue" stroke="midnightblue" points="494.869,-286.364 484.329,-285.285 491.896,-292.701 494.869,-286.364"/>
</g>
<!-- Node12 -->
<g id="node12" class="node"><title>Node12</title>
<g id="a_node12"><a xlink:href="a00164.xhtml#a17729406fadceea890b4e0e079aede46" target="_top" xlink:title="Voxel::TI::ToFTintinCamera\l::_initStartParams">
<polygon fill="none" stroke="black" points="550,-306 550,-336 688,-336 688,-306 550,-306"/>
<text text-anchor="start" x="558" y="-324" font-family="Helvetica,sans-Serif" font-size="10.00">Voxel::TI::ToFTintinCamera</text>
<text text-anchor="middle" x="619" y="-313" font-family="Helvetica,sans-Serif" font-size="10.00">::_initStartParams</text>
</a>
</g>
</g>
<!-- Node6&#45;&gt;Node12 -->
<g id="edge13" class="edge"><title>Node6&#45;&gt;Node12</title>
<path fill="none" stroke="midnightblue" d="M494.174,-289.066C515.471,-294.558 538.904,-300.602 559.601,-305.939"/>
<polygon fill="midnightblue" stroke="midnightblue" points="494.792,-285.611 484.235,-286.503 493.044,-292.389 494.792,-285.611"/>
</g>
<!-- Node9 -->
<g id="node9" class="node"><title>Node9</title>
<g id="a_node9"><a xlink:href="a00013.xhtml#a2474713056342fa6774ff5a165961052" target="_top" xlink:title="Voxel::TI::CalculusCDKCamera\l::_initStartParams">
<polygon fill="none" stroke="black" points="734.5,-208 734.5,-238 891.5,-238 891.5,-208 734.5,-208"/>
<text text-anchor="start" x="742.5" y="-226" font-family="Helvetica,sans-Serif" font-size="10.00">Voxel::TI::CalculusCDKCamera</text>
<text text-anchor="middle" x="813" y="-215" font-family="Helvetica,sans-Serif" font-size="10.00">::_initStartParams</text>
</a>
</g>
</g>
<!-- Node8&#45;&gt;Node9 -->
<g id="edge10" class="edge"><title>Node8&#45;&gt;Node9</title>
<path fill="none" stroke="midnightblue" d="M705.152,-223C714.908,-223 724.816,-223 734.465,-223"/>
<polygon fill="midnightblue" stroke="midnightblue" points="705.057,-219.5 695.057,-223 705.057,-226.5 705.057,-219.5"/>
</g>
<!-- Node11 -->
<g id="node11" class="node"><title>Node11</title>
<g id="a_node11"><a xlink:href="a00182.xhtml#ad5dcde935444ac28a6e0b5705f504573" target="_top" xlink:title="Voxel::TI::Voxel14Camera\l::_initStartParams">
<polygon fill="none" stroke="black" points="747,-355 747,-385 879,-385 879,-355 747,-355"/>
<text text-anchor="start" x="755" y="-373" font-family="Helvetica,sans-Serif" font-size="10.00">Voxel::TI::Voxel14Camera</text>
<text text-anchor="middle" x="813" y="-362" font-family="Helvetica,sans-Serif" font-size="10.00">::_initStartParams</text>
</a>
</g>
</g>
<!-- Node10&#45;&gt;Node11 -->
<g id="edge12" class="edge"><title>Node10&#45;&gt;Node11</title>
<path fill="none" stroke="midnightblue" d="M705.994,-370C719.67,-370 733.62,-370 746.718,-370"/>
<polygon fill="midnightblue" stroke="midnightblue" points="705.608,-366.5 695.608,-370 705.608,-373.5 705.608,-366.5"/>
</g>
<!-- Node13 -->
<g id="node13" class="node"><title>Node13</title>
<g id="a_node13"><a xlink:href="a00137.xhtml#a35274b5fd95ea088be4bc0637328d5f4" target="_top" xlink:title="Voxel::TI::TintinCDKCamera\l::_initStartParams">
<polygon fill="none" stroke="black" points="741.5,-257 741.5,-287 884.5,-287 884.5,-257 741.5,-257"/>
<text text-anchor="start" x="749.5" y="-275" font-family="Helvetica,sans-Serif" font-size="10.00">Voxel::TI::TintinCDKCamera</text>
<text text-anchor="middle" x="813" y="-264" font-family="Helvetica,sans-Serif" font-size="10.00">::_initStartParams</text>
</a>
</g>
</g>
<!-- Node12&#45;&gt;Node13 -->
<g id="edge14" class="edge"><title>Node12&#45;&gt;Node13</title>
<path fill="none" stroke="midnightblue" d="M688.767,-303.45C709.851,-298.069 732.845,-292.201 753.2,-287.006"/>
<polygon fill="midnightblue" stroke="midnightblue" points="687.735,-300.101 678.911,-305.965 689.466,-306.884 687.735,-300.101"/>
</g>
<!-- Node14 -->
<g id="node14" class="node"><title>Node14</title>
<g id="a_node14"><a xlink:href="a00186.xhtml#ae0706724a5ebbb978d41fb2633af5040" target="_top" xlink:title="Voxel::TI::VoxelDCamera\l::_initStartParams">
<polygon fill="none" stroke="black" points="748.5,-306 748.5,-336 877.5,-336 877.5,-306 748.5,-306"/>
<text text-anchor="start" x="756.5" y="-324" font-family="Helvetica,sans-Serif" font-size="10.00">Voxel::TI::VoxelDCamera</text>
<text text-anchor="middle" x="813" y="-313" font-family="Helvetica,sans-Serif" font-size="10.00">::_initStartParams</text>
</a>
</g>
</g>
<!-- Node12&#45;&gt;Node14 -->
<g id="edge15" class="edge"><title>Node12&#45;&gt;Node14</title>
<path fill="none" stroke="midnightblue" d="M698.479,-321C715.116,-321 732.48,-321 748.479,-321"/>
<polygon fill="midnightblue" stroke="midnightblue" points="698.233,-317.5 688.233,-321 698.233,-324.5 698.233,-317.5"/>
</g>
<!-- Node18&#45;&gt;Node4 -->
<g id="edge20" class="edge"><title>Node18&#45;&gt;Node4</title>
<path fill="none" stroke="midnightblue" d="M306.768,-174C325.47,-174 345.562,-174 363.823,-174"/>
<polygon fill="midnightblue" stroke="midnightblue" points="306.541,-170.5 296.541,-174 306.541,-177.5 306.541,-170.5"/>
</g>
<!-- Node18&#45;&gt;Node19 -->
<g id="edge21" class="edge"><title>Node18&#45;&gt;Node19</title>
<path fill="none" stroke="midnightblue" d="M304.692,-156.45C325.447,-151.069 348.082,-145.201 368.119,-140.006"/>
<polygon fill="midnightblue" stroke="midnightblue" points="303.792,-153.068 294.991,-158.965 305.549,-159.844 303.792,-153.068"/>
</g>
<!-- Node20 -->
<g id="node20" class="node"><title>Node20</title>
<g id="a_node20"><a xlink:href="a00036.xhtml#aeca7a6cb1df8643f0b38745286ac2844" target="_top" xlink:title="Voxel::DepthCamera\l::_init">
<polygon fill="none" stroke="black" points="565,-110 565,-140 673,-140 673,-110 565,-110"/>
<text text-anchor="start" x="573" y="-128" font-family="Helvetica,sans-Serif" font-size="10.00">Voxel::DepthCamera</text>
<text text-anchor="middle" x="619" y="-117" font-family="Helvetica,sans-Serif" font-size="10.00">::_init</text>
</a>
</g>
</g>
<!-- Node19&#45;&gt;Node20 -->
<g id="edge22" class="edge"><title>Node19&#45;&gt;Node20</title>
<path fill="none" stroke="midnightblue" d="M500.274,-125C521.749,-125 544.87,-125 564.889,-125"/>
<polygon fill="midnightblue" stroke="midnightblue" points="500.213,-121.5 490.213,-125 500.213,-128.5 500.213,-121.5"/>
</g>
<!-- Node21 -->
<g id="node21" class="node"><title>Node21</title>
<g id="a_node21"><a xlink:href="a00154.xhtml#a34c90601da611e5cb61bd7a35f03a5f7" target="_top" xlink:title="Voxel::TI::ToFCameraBase\l::_init">
<polygon fill="none" stroke="black" points="744.5,-110 744.5,-140 881.5,-140 881.5,-110 744.5,-110"/>
<text text-anchor="start" x="752.5" y="-128" font-family="Helvetica,sans-Serif" font-size="10.00">Voxel::TI::ToFCameraBase</text>
<text text-anchor="middle" x="813" y="-117" font-family="Helvetica,sans-Serif" font-size="10.00">::_init</text>
</a>
</g>
</g>
<!-- Node20&#45;&gt;Node21 -->
<g id="edge23" class="edge"><title>Node20&#45;&gt;Node21</title>
<path fill="none" stroke="midnightblue" d="M683.241,-125C702.787,-125 724.392,-125 744.231,-125"/>
<polygon fill="midnightblue" stroke="midnightblue" points="683.228,-121.5 673.228,-125 683.228,-128.5 683.228,-121.5"/>
</g>
<!-- Node22 -->
<g id="node22" class="node"><title>Node22</title>
<g id="a_node22"><a xlink:href="a00153.xhtml#a8fd9aae6546d426f494b20633a881442" target="_top" xlink:title="Voxel::TI::ToFCamera\l::_init">
<polygon fill="none" stroke="black" points="928,-110 928,-140 1042,-140 1042,-110 928,-110"/>
<text text-anchor="start" x="936" y="-128" font-family="Helvetica,sans-Serif" font-size="10.00">Voxel::TI::ToFCamera</text>
<text text-anchor="middle" x="985" y="-117" font-family="Helvetica,sans-Serif" font-size="10.00">::_init</text>
</a>
</g>
</g>
<!-- Node21&#45;&gt;Node22 -->
<g id="edge24" class="edge"><title>Node21&#45;&gt;Node22</title>
<path fill="none" stroke="midnightblue" d="M891.793,-125C903.917,-125 916.238,-125 927.76,-125"/>
<polygon fill="midnightblue" stroke="midnightblue" points="891.677,-121.5 881.677,-125 891.677,-128.5 891.677,-121.5"/>
</g>
<!-- Node23 -->
<g id="node23" class="node"><title>Node23</title>
<g id="a_node23"><a xlink:href="a00152.xhtml#aa931ad7b5e4b84779df941814c2a5b17" target="_top" xlink:title="Voxel::TI::ToFCalculusCamera\l::_init">
<polygon fill="none" stroke="black" points="1079,-183 1079,-213 1231,-213 1231,-183 1079,-183"/>
<text text-anchor="start" x="1087" y="-201" font-family="Helvetica,sans-Serif" font-size="10.00">Voxel::TI::ToFCalculusCamera</text>
<text text-anchor="middle" x="1155" y="-190" font-family="Helvetica,sans-Serif" font-size="10.00">::_init</text>
</a>
</g>
</g>
<!-- Node22&#45;&gt;Node23 -->
<g id="edge25" class="edge"><title>Node22&#45;&gt;Node23</title>
<path fill="none" stroke="midnightblue" d="M1030.3,-144.251C1058.11,-156.334 1093.45,-171.691 1119.23,-182.894"/>
<polygon fill="midnightblue" stroke="midnightblue" points="1031.38,-140.901 1020.81,-140.126 1028.59,-147.321 1031.38,-140.901"/>
</g>
<!-- Node26 -->
<g id="node26" class="node"><title>Node26</title>
<g id="a_node26"><a xlink:href="a00159.xhtml#a749a2bbcdbfa69054d523866504743d1" target="_top" xlink:title="Voxel::TI::ToFHaddockCamera\l::_init">
<polygon fill="none" stroke="black" points="1078.5,-110 1078.5,-140 1231.5,-140 1231.5,-110 1078.5,-110"/>
<text text-anchor="start" x="1086.5" y="-128" font-family="Helvetica,sans-Serif" font-size="10.00">Voxel::TI::ToFHaddockCamera</text>
<text text-anchor="middle" x="1155" y="-117" font-family="Helvetica,sans-Serif" font-size="10.00">::_init</text>
</a>
</g>
</g>
<!-- Node22&#45;&gt;Node26 -->
<g id="edge28" class="edge"><title>Node22&#45;&gt;Node26</title>
<path fill="none" stroke="midnightblue" d="M1052.58,-125C1061.04,-125 1069.75,-125 1078.34,-125"/>
<polygon fill="midnightblue" stroke="midnightblue" points="1052.41,-121.5 1042.41,-125 1052.41,-128.5 1052.41,-121.5"/>
</g>
<!-- Node31 -->
<g id="node31" class="node"><title>Node31</title>
<g id="a_node31"><a xlink:href="a00164.xhtml#af894a732f4beedc37144927eec93cc89" target="_top" xlink:title="Voxel::TI::ToFTintinCamera\l::_init">
<polygon fill="none" stroke="black" points="1086,-49 1086,-79 1224,-79 1224,-49 1086,-49"/>
<text text-anchor="start" x="1094" y="-67" font-family="Helvetica,sans-Serif" font-size="10.00">Voxel::TI::ToFTintinCamera</text>
<text text-anchor="middle" x="1155" y="-56" font-family="Helvetica,sans-Serif" font-size="10.00">::_init</text>
</a>
</g>
</g>
<!-- Node22&#45;&gt;Node31 -->
<g id="edge33" class="edge"><title>Node22&#45;&gt;Node31</title>
<path fill="none" stroke="midnightblue" d="M1037.25,-106.392C1061.42,-97.6141 1089.89,-87.2788 1112.66,-79.0108"/>
<polygon fill="midnightblue" stroke="midnightblue" points="1035.73,-103.218 1027.53,-109.921 1038.12,-109.798 1035.73,-103.218"/>
</g>
<!-- Node24 -->
<g id="node24" class="node"><title>Node24</title>
<g id="a_node24"><a xlink:href="a00013.xhtml#a82eb752fb0d4b63495d2e29b6b8aed2c" target="_top" xlink:title="Voxel::TI::CalculusCDKCamera\l::_init">
<polygon fill="none" stroke="black" points="1268.5,-196 1268.5,-226 1425.5,-226 1425.5,-196 1268.5,-196"/>
<text text-anchor="start" x="1276.5" y="-214" font-family="Helvetica,sans-Serif" font-size="10.00">Voxel::TI::CalculusCDKCamera</text>
<text text-anchor="middle" x="1347" y="-203" font-family="Helvetica,sans-Serif" font-size="10.00">::_init</text>
</a>
</g>
</g>
<!-- Node23&#45;&gt;Node24 -->
<g id="edge26" class="edge"><title>Node23&#45;&gt;Node24</title>
<path fill="none" stroke="midnightblue" d="M1241.22,-203.831C1250.25,-204.449 1259.4,-205.075 1268.33,-205.686"/>
<polygon fill="midnightblue" stroke="midnightblue" points="1241.31,-200.329 1231.09,-203.138 1240.83,-207.312 1241.31,-200.329"/>
</g>
<!-- Node25 -->
<g id="node25" class="node"><title>Node25</title>
<g id="a_node25"><a xlink:href="a00013.xhtml#af406b1427962d80da9af9fb24e89b239" target="_top" xlink:title="Voxel::TI::CalculusCDKCamera\l::CalculusCDKCamera">
<polygon fill="none" stroke="black" points="1462.5,-196 1462.5,-226 1619.5,-226 1619.5,-196 1462.5,-196"/>
<text text-anchor="start" x="1470.5" y="-214" font-family="Helvetica,sans-Serif" font-size="10.00">Voxel::TI::CalculusCDKCamera</text>
<text text-anchor="middle" x="1541" y="-203" font-family="Helvetica,sans-Serif" font-size="10.00">::CalculusCDKCamera</text>
</a>
</g>
</g>
<!-- Node24&#45;&gt;Node25 -->
<g id="edge27" class="edge"><title>Node24&#45;&gt;Node25</title>
<path fill="none" stroke="midnightblue" d="M1435.6,-211C1444.57,-211 1453.64,-211 1462.48,-211"/>
<polygon fill="midnightblue" stroke="midnightblue" points="1435.54,-207.5 1425.54,-211 1435.54,-214.5 1435.54,-207.5"/>
</g>
<!-- Node27 -->
<g id="node27" class="node"><title>Node27</title>
<g id="a_node27"><a xlink:href="a00077.xhtml#a7dff103da3145dd303a5bc0db75ae961" target="_top" xlink:title="Voxel::TI::HaddockCDKCamera\l::_init">
<polygon fill="none" stroke="black" points="1268,-98 1268,-128 1426,-128 1426,-98 1268,-98"/>
<text text-anchor="start" x="1276" y="-116" font-family="Helvetica,sans-Serif" font-size="10.00">Voxel::TI::HaddockCDKCamera</text>
<text text-anchor="middle" x="1347" y="-105" font-family="Helvetica,sans-Serif" font-size="10.00">::_init</text>
</a>
</g>
</g>
<!-- Node26&#45;&gt;Node27 -->
<g id="edge29" class="edge"><title>Node26&#45;&gt;Node27</title>
<path fill="none" stroke="midnightblue" d="M1241.76,-119.583C1250.44,-119.035 1259.23,-118.48 1267.82,-117.938"/>
<polygon fill="midnightblue" stroke="midnightblue" points="1241.4,-116.099 1231.64,-120.223 1241.84,-123.085 1241.4,-116.099"/>
</g>
<!-- Node29 -->
<g id="node29" class="node"><title>Node29</title>
<g id="a_node29"><a xlink:href="a00182.xhtml#a89011bfb795ff58d3fb8675364b91abe" target="_top" xlink:title="Voxel::TI::Voxel14Camera\l::_init">
<polygon fill="none" stroke="black" points="1281,-147 1281,-177 1413,-177 1413,-147 1281,-147"/>
<text text-anchor="start" x="1289" y="-165" font-family="Helvetica,sans-Serif" font-size="10.00">Voxel::TI::Voxel14Camera</text>
<text text-anchor="middle" x="1347" y="-154" font-family="Helvetica,sans-Serif" font-size="10.00">::_init</text>
</a>
</g>
</g>
<!-- Node26&#45;&gt;Node29 -->
<g id="edge31" class="edge"><title>Node26&#45;&gt;Node29</title>
<path fill="none" stroke="midnightblue" d="M1241.62,-141.673C1254.76,-144.232 1268.13,-146.837 1280.74,-149.291"/>
<polygon fill="midnightblue" stroke="midnightblue" points="1242.12,-138.206 1231.64,-139.73 1240.79,-145.077 1242.12,-138.206"/>
</g>
<!-- Node28 -->
<g id="node28" class="node"><title>Node28</title>
<g id="a_node28"><a xlink:href="a00077.xhtml#ac2c5e82486c4cc3f5edada38cd4274c5" target="_top" xlink:title="Voxel::TI::HaddockCDKCamera\l::HaddockCDKCamera">
<polygon fill="none" stroke="black" points="1462,-98 1462,-128 1620,-128 1620,-98 1462,-98"/>
<text text-anchor="start" x="1470" y="-116" font-family="Helvetica,sans-Serif" font-size="10.00">Voxel::TI::HaddockCDKCamera</text>
<text text-anchor="middle" x="1541" y="-105" font-family="Helvetica,sans-Serif" font-size="10.00">::HaddockCDKCamera</text>
</a>
</g>
</g>
<!-- Node27&#45;&gt;Node28 -->
<g id="edge30" class="edge"><title>Node27&#45;&gt;Node28</title>
<path fill="none" stroke="midnightblue" d="M1436.15,-113C1444.77,-113 1453.47,-113 1461.98,-113"/>
<polygon fill="midnightblue" stroke="midnightblue" points="1436.09,-109.5 1426.09,-113 1436.09,-116.5 1436.09,-109.5"/>
</g>
<!-- Node30 -->
<g id="node30" class="node"><title>Node30</title>
<g id="a_node30"><a xlink:href="a00182.xhtml#a606f13ed73547ee43f585e241b42dd5d" target="_top" xlink:title="Voxel::TI::Voxel14Camera\l::Voxel14Camera">
<polygon fill="none" stroke="black" points="1475,-147 1475,-177 1607,-177 1607,-147 1475,-147"/>
<text text-anchor="start" x="1483" y="-165" font-family="Helvetica,sans-Serif" font-size="10.00">Voxel::TI::Voxel14Camera</text>
<text text-anchor="middle" x="1541" y="-154" font-family="Helvetica,sans-Serif" font-size="10.00">::Voxel14Camera</text>
</a>
</g>
</g>
<!-- Node29&#45;&gt;Node30 -->
<g id="edge32" class="edge"><title>Node29&#45;&gt;Node30</title>
<path fill="none" stroke="midnightblue" d="M1423.42,-162C1440.38,-162 1458.24,-162 1474.74,-162"/>
<polygon fill="midnightblue" stroke="midnightblue" points="1423,-158.5 1413,-162 1423,-165.5 1423,-158.5"/>
</g>
<!-- Node32 -->
<g id="node32" class="node"><title>Node32</title>
<g id="a_node32"><a xlink:href="a00137.xhtml#af5337f40c1a075c026263ea9871a20ee" target="_top" xlink:title="Voxel::TI::TintinCDKCamera\l::_init">
<polygon fill="none" stroke="black" points="1275.5,-0 1275.5,-30 1418.5,-30 1418.5,-0 1275.5,-0"/>
<text text-anchor="start" x="1283.5" y="-18" font-family="Helvetica,sans-Serif" font-size="10.00">Voxel::TI::TintinCDKCamera</text>
<text text-anchor="middle" x="1347" y="-7" font-family="Helvetica,sans-Serif" font-size="10.00">::_init</text>
</a>
</g>
</g>
<!-- Node31&#45;&gt;Node32 -->
<g id="edge34" class="edge"><title>Node31&#45;&gt;Node32</title>
<path fill="none" stroke="midnightblue" d="M1224.05,-46.4502C1244.91,-41.0694 1267.67,-35.201 1287.81,-30.0062"/>
<polygon fill="midnightblue" stroke="midnightblue" points="1223.11,-43.079 1214.3,-48.9654 1224.85,-49.8572 1223.11,-43.079"/>
</g>
<!-- Node34 -->
<g id="node34" class="node"><title>Node34</title>
<g id="a_node34"><a xlink:href="a00186.xhtml#a47b15c40c3fbcc52ae1eb3c9fe74d9f1" target="_top" xlink:title="Voxel::TI::VoxelDCamera\l::_init">
<polygon fill="none" stroke="black" points="1282.5,-49 1282.5,-79 1411.5,-79 1411.5,-49 1282.5,-49"/>
<text text-anchor="start" x="1290.5" y="-67" font-family="Helvetica,sans-Serif" font-size="10.00">Voxel::TI::VoxelDCamera</text>
<text text-anchor="middle" x="1347" y="-56" font-family="Helvetica,sans-Serif" font-size="10.00">::_init</text>
</a>
</g>
</g>
<!-- Node31&#45;&gt;Node34 -->
<g id="edge36" class="edge"><title>Node31&#45;&gt;Node34</title>
<path fill="none" stroke="midnightblue" d="M1234.41,-64C1250.32,-64 1266.88,-64 1282.22,-64"/>
<polygon fill="midnightblue" stroke="midnightblue" points="1234.06,-60.5001 1224.06,-64 1234.06,-67.5001 1234.06,-60.5001"/>
</g>
<!-- Node33 -->
<g id="node33" class="node"><title>Node33</title>
<g id="a_node33"><a xlink:href="a00137.xhtml#a7a9918bb8b6d76bc3511536019847c1d" target="_top" xlink:title="Voxel::TI::TintinCDKCamera\l::TintinCDKCamera">
<polygon fill="none" stroke="black" points="1469.5,-0 1469.5,-30 1612.5,-30 1612.5,-0 1469.5,-0"/>
<text text-anchor="start" x="1477.5" y="-18" font-family="Helvetica,sans-Serif" font-size="10.00">Voxel::TI::TintinCDKCamera</text>
<text text-anchor="middle" x="1541" y="-7" font-family="Helvetica,sans-Serif" font-size="10.00">::TintinCDKCamera</text>
</a>
</g>
</g>
<!-- Node32&#45;&gt;Node33 -->
<g id="edge35" class="edge"><title>Node32&#45;&gt;Node33</title>
<path fill="none" stroke="midnightblue" d="M1428.89,-15C1442.38,-15 1456.27,-15 1469.47,-15"/>
<polygon fill="midnightblue" stroke="midnightblue" points="1428.68,-11.5001 1418.68,-15 1428.68,-18.5001 1428.68,-11.5001"/>
</g>
<!-- Node35 -->
<g id="node35" class="node"><title>Node35</title>
<g id="a_node35"><a xlink:href="a00186.xhtml#a4a95cf8257e2f9f5fd34386b87f6663a" target="_top" xlink:title="Voxel::TI::VoxelDCamera\l::VoxelDCamera">
<polygon fill="none" stroke="black" points="1476.5,-49 1476.5,-79 1605.5,-79 1605.5,-49 1476.5,-49"/>
<text text-anchor="start" x="1484.5" y="-67" font-family="Helvetica,sans-Serif" font-size="10.00">Voxel::TI::VoxelDCamera</text>
<text text-anchor="middle" x="1541" y="-56" font-family="Helvetica,sans-Serif" font-size="10.00">::VoxelDCamera</text>
</a>
</g>
</g>
<!-- Node34&#45;&gt;Node35 -->
<g id="edge37" class="edge"><title>Node34&#45;&gt;Node35</title>
<path fill="none" stroke="midnightblue" d="M1421.79,-64C1439.72,-64 1458.75,-64 1476.18,-64"/>
<polygon fill="midnightblue" stroke="midnightblue" points="1421.67,-60.5001 1411.67,-64 1421.67,-67.5001 1421.67,-60.5001"/>
</g>
</g>
</svg>
