<?xml version="1.0" encoding="UTF-8" standalone="no"?>
<!DOCTYPE svg PUBLIC "-//W3C//DTD SVG 1.1//EN"
 "http://www.w3.org/Graphics/SVG/1.1/DTD/svg11.dtd">
<!-- Generated by graphviz version 2.36.0 (20140111.2315)
 -->
<!-- Title: TinyXML2::StrPair::ParseText Pages: 1 -->
<svg width="606pt" height="234pt"
 viewBox="0.00 0.00 606.00 234.00" xmlns="http://www.w3.org/2000/svg" xmlns:xlink="http://www.w3.org/1999/xlink">
<g id="graph0" class="graph" transform="scale(1 1) rotate(0) translate(4 230)">
<title>TinyXML2::StrPair::ParseText</title>
<!-- Node1 -->
<g id="node1" class="node"><title>Node1</title>
<polygon fill="#bfbfbf" stroke="black" points="0.5,-98 0.5,-128 103.5,-128 103.5,-98 0.5,-98"/>
<text text-anchor="start" x="8.5" y="-116" font-family="Helvetica,sans-Serif" font-size="10.00">TinyXML2::StrPair::</text>
<text text-anchor="middle" x="52" y="-105" font-family="Helvetica,sans-Serif" font-size="10.00">ParseText</text>
</g>
<!-- Node2 -->
<g id="node2" class="node"><title>Node2</title>
<g id="a_node2"><a xlink:href="a00203.xhtml#a48075a5d36447886eef9bb98b4db951d" target="_top" xlink:title="TinyXML2::XMLText::\lParseDeep">
<polygon fill="none" stroke="black" points="152.5,-196 152.5,-226 265.5,-226 265.5,-196 152.5,-196"/>
<text text-anchor="start" x="160.5" y="-214" font-family="Helvetica,sans-Serif" font-size="10.00">TinyXML2::XMLText::</text>
<text text-anchor="middle" x="209" y="-203" font-family="Helvetica,sans-Serif" font-size="10.00">ParseDeep</text>
</a>
</g>
</g>
<!-- Node1&#45;&gt;Node2 -->
<g id="edge1" class="edge"><title>Node1&#45;&gt;Node2</title>
<path fill="none" stroke="midnightblue" d="M75.356,-135.541C92.0181,-151.35 115.957,-172.067 140,-186 146.421,-189.721 153.494,-193.055 160.578,-195.982"/>
<polygon fill="midnightblue" stroke="midnightblue" points="77.4139,-132.662 67.7924,-128.226 72.5475,-137.694 77.4139,-132.662"/>
</g>
<!-- Node3 -->
<g id="node3" class="node"><title>Node3</title>
<g id="a_node3"><a xlink:href="a00195.xhtml#a15a0eddf7fc540c4d5a3dbed6cb7e8b6" target="_top" xlink:title="TinyXML2::XMLComment\l::ParseDeep">
<polygon fill="none" stroke="black" points="144,-147 144,-177 274,-177 274,-147 144,-147"/>
<text text-anchor="start" x="152" y="-165" font-family="Helvetica,sans-Serif" font-size="10.00">TinyXML2::XMLComment</text>
<text text-anchor="middle" x="209" y="-154" font-family="Helvetica,sans-Serif" font-size="10.00">::ParseDeep</text>
</a>
</g>
</g>
<!-- Node1&#45;&gt;Node3 -->
<g id="edge2" class="edge"><title>Node1&#45;&gt;Node3</title>
<path fill="none" stroke="midnightblue" d="M110.758,-131.259C127.107,-136.427 144.711,-141.992 160.388,-146.948"/>
<polygon fill="midnightblue" stroke="midnightblue" points="111.36,-127.779 100.77,-128.101 109.25,-134.453 111.36,-127.779"/>
</g>
<!-- Node4 -->
<g id="node4" class="node"><title>Node4</title>
<g id="a_node4"><a xlink:href="a00197.xhtml#a6e32f30fbdec75b25799ee9b476d9104" target="_top" xlink:title="TinyXML2::XMLDeclaration\l::ParseDeep">
<polygon fill="none" stroke="black" points="140.5,-98 140.5,-128 277.5,-128 277.5,-98 140.5,-98"/>
<text text-anchor="start" x="148.5" y="-116" font-family="Helvetica,sans-Serif" font-size="10.00">TinyXML2::XMLDeclaration</text>
<text text-anchor="middle" x="209" y="-105" font-family="Helvetica,sans-Serif" font-size="10.00">::ParseDeep</text>
</a>
</g>
</g>
<!-- Node1&#45;&gt;Node4 -->
<g id="edge3" class="edge"><title>Node1&#45;&gt;Node4</title>
<path fill="none" stroke="midnightblue" d="M113.777,-113C122.454,-113 131.425,-113 140.226,-113"/>
<polygon fill="midnightblue" stroke="midnightblue" points="113.753,-109.5 103.753,-113 113.753,-116.5 113.753,-109.5"/>
</g>
<!-- Node5 -->
<g id="node5" class="node"><title>Node5</title>
<g id="a_node5"><a xlink:href="a00204.xhtml#a1a9b1c4c1144acbf5c9f8a3b6e4ec55c" target="_top" xlink:title="TinyXML2::XMLUnknown\l::ParseDeep">
<polygon fill="none" stroke="black" points="145,-49 145,-79 273,-79 273,-49 145,-49"/>
<text text-anchor="start" x="153" y="-67" font-family="Helvetica,sans-Serif" font-size="10.00">TinyXML2::XMLUnknown</text>
<text text-anchor="middle" x="209" y="-56" font-family="Helvetica,sans-Serif" font-size="10.00">::ParseDeep</text>
</a>
</g>
</g>
<!-- Node1&#45;&gt;Node5 -->
<g id="edge4" class="edge"><title>Node1&#45;&gt;Node5</title>
<path fill="none" stroke="midnightblue" d="M110.758,-94.7409C127.107,-89.5727 144.711,-84.0076 160.388,-79.0516"/>
<polygon fill="midnightblue" stroke="midnightblue" points="109.25,-91.547 100.77,-97.8986 111.36,-98.2215 109.25,-91.547"/>
</g>
<!-- Node6 -->
<g id="node6" class="node"><title>Node6</title>
<g id="a_node6"><a xlink:href="a00194.xhtml#ab27bee7ca972cfb7b33a57ae150c9f46" target="_top" xlink:title="TinyXML2::XMLAttribute\l::ParseDeep">
<polygon fill="none" stroke="black" points="147,-0 147,-30 271,-30 271,-0 147,-0"/>
<text text-anchor="start" x="155" y="-18" font-family="Helvetica,sans-Serif" font-size="10.00">TinyXML2::XMLAttribute</text>
<text text-anchor="middle" x="209" y="-7" font-family="Helvetica,sans-Serif" font-size="10.00">::ParseDeep</text>
</a>
</g>
</g>
<!-- Node1&#45;&gt;Node6 -->
<g id="edge5" class="edge"><title>Node1&#45;&gt;Node6</title>
<path fill="none" stroke="midnightblue" d="M75.356,-90.4591C92.0181,-74.6505 115.957,-53.9331 140,-40 146.421,-36.2791 153.494,-32.9454 160.578,-30.018"/>
<polygon fill="midnightblue" stroke="midnightblue" points="72.5475,-88.3063 67.7924,-97.7742 77.4139,-93.3381 72.5475,-88.3063"/>
</g>
<!-- Node7 -->
<g id="node7" class="node"><title>Node7</title>
<g id="a_node7"><a xlink:href="a00199.xhtml#a2b7dddea778d54aa6a213abed7ef7ab7" target="_top" xlink:title="TinyXML2::XMLElement\l::ParseAttributes">
<polygon fill="none" stroke="black" points="314.5,-0 314.5,-30 437.5,-30 437.5,-0 314.5,-0"/>
<text text-anchor="start" x="322.5" y="-18" font-family="Helvetica,sans-Serif" font-size="10.00">TinyXML2::XMLElement</text>
<text text-anchor="middle" x="376" y="-7" font-family="Helvetica,sans-Serif" font-size="10.00">::ParseAttributes</text>
</a>
</g>
</g>
<!-- Node6&#45;&gt;Node7 -->
<g id="edge6" class="edge"><title>Node6&#45;&gt;Node7</title>
<path fill="none" stroke="midnightblue" d="M281.753,-15C292.617,-15 303.734,-15 314.333,-15"/>
<polygon fill="midnightblue" stroke="midnightblue" points="281.44,-11.5001 271.44,-15 281.44,-18.5001 281.44,-11.5001"/>
</g>
<!-- Node8 -->
<g id="node8" class="node"><title>Node8</title>
<g id="a_node8"><a xlink:href="a00199.xhtml#a1f37b0bb41320c4121515755b8a057a4" target="_top" xlink:title="TinyXML2::XMLElement\l::ParseDeep">
<polygon fill="none" stroke="black" points="474.5,-0 474.5,-30 597.5,-30 597.5,-0 474.5,-0"/>
<text text-anchor="start" x="482.5" y="-18" font-family="Helvetica,sans-Serif" font-size="10.00">TinyXML2::XMLElement</text>
<text text-anchor="middle" x="536" y="-7" font-family="Helvetica,sans-Serif" font-size="10.00">::ParseDeep</text>
</a>
</g>
</g>
<!-- Node7&#45;&gt;Node8 -->
<g id="edge7" class="edge"><title>Node7&#45;&gt;Node8</title>
<path fill="none" stroke="midnightblue" d="M447.884,-15C456.69,-15 465.632,-15 474.266,-15"/>
<polygon fill="midnightblue" stroke="midnightblue" points="447.635,-11.5001 437.635,-15 447.635,-18.5001 447.635,-11.5001"/>
</g>
</g>
</svg>
