<?xml version="1.0" encoding="UTF-8" standalone="no"?>
<!DOCTYPE svg PUBLIC "-//W3C//DTD SVG 1.1//EN"
 "http://www.w3.org/Graphics/SVG/1.1/DTD/svg11.dtd">
<!-- Generated by graphviz version 2.36.0 (20140111.2315)
 -->
<!-- Title: TinyXML2::StrPair::Empty Pages: 1 -->
<svg width="432pt" height="139pt"
 viewBox="0.00 0.00 432.00 139.00" xmlns="http://www.w3.org/2000/svg" xmlns:xlink="http://www.w3.org/1999/xlink">
<g id="graph0" class="graph" transform="scale(1 1) rotate(0) translate(4 135)">
<title>TinyXML2::StrPair::Empty</title>
<!-- Node1 -->
<g id="node1" class="node"><title>Node1</title>
<polygon fill="#bfbfbf" stroke="black" points="0.5,-76 0.5,-106 103.5,-106 103.5,-76 0.5,-76"/>
<text text-anchor="start" x="8.5" y="-94" font-family="Helvetica,sans-Serif" font-size="10.00">TinyXML2::StrPair::</text>
<text text-anchor="middle" x="52" y="-83" font-family="Helvetica,sans-Serif" font-size="10.00">Empty</text>
</g>
<!-- Node2 -->
<g id="node2" class="node"><title>Node2</title>
<g id="a_node2"><a xlink:href="a00201.xhtml#a666a962d4e7ce40fad31a0d273659176" target="_top" xlink:title="TinyXML2::XMLNode::\lParseDeep">
<polygon fill="none" stroke="black" points="140,-45 140,-75 256,-75 256,-45 140,-45"/>
<text text-anchor="start" x="148" y="-63" font-family="Helvetica,sans-Serif" font-size="10.00">TinyXML2::XMLNode::</text>
<text text-anchor="middle" x="198" y="-52" font-family="Helvetica,sans-Serif" font-size="10.00">ParseDeep</text>
</a>
</g>
</g>
<!-- Node1&#45;&gt;Node2 -->
<g id="edge1" class="edge"><title>Node1&#45;&gt;Node2</title>
<path fill="none" stroke="midnightblue" d="M113.77,-77.9175C122.402,-76.0592 131.255,-74.1534 139.816,-72.3105"/>
<polygon fill="midnightblue" stroke="midnightblue" points="112.808,-74.5443 103.769,-80.0706 114.282,-81.3875 112.808,-74.5443"/>
</g>
<!-- Node3 -->
<g id="node3" class="node"><title>Node3</title>
<g id="a_node3"><a xlink:href="a00199.xhtml#a1f37b0bb41320c4121515755b8a057a4" target="_top" xlink:title="TinyXML2::XMLElement\l::ParseDeep">
<polygon fill="none" stroke="black" points="296.5,-101 296.5,-131 419.5,-131 419.5,-101 296.5,-101"/>
<text text-anchor="start" x="304.5" y="-119" font-family="Helvetica,sans-Serif" font-size="10.00">TinyXML2::XMLElement</text>
<text text-anchor="middle" x="358" y="-108" font-family="Helvetica,sans-Serif" font-size="10.00">::ParseDeep</text>
</a>
</g>
</g>
<!-- Node1&#45;&gt;Node3 -->
<g id="edge6" class="edge"><title>Node1&#45;&gt;Node3</title>
<path fill="none" stroke="midnightblue" d="M113.476,-99.1314C122.361,-100.185 131.411,-101.181 140,-102 192.614,-107.019 252.58,-110.735 296.122,-113.073"/>
<polygon fill="midnightblue" stroke="midnightblue" points="113.896,-95.6568 103.546,-97.9233 113.05,-102.606 113.896,-95.6568"/>
</g>
<!-- Node2&#45;&gt;Node2 -->
<g id="edge2" class="edge"><title>Node2&#45;&gt;Node2</title>
<path fill="none" stroke="midnightblue" d="M172.445,-85.5975C175.937,-89.9704 184.455,-93 198,-93 220.812,-93 229.367,-84.4062 223.664,-75.2754"/>
<polygon fill="midnightblue" stroke="midnightblue" points="175.941,-85.238 172.336,-75.2754 168.941,-85.3117 175.941,-85.238"/>
</g>
<!-- Node2&#45;&gt;Node3 -->
<g id="edge3" class="edge"><title>Node2&#45;&gt;Node3</title>
<path fill="none" stroke="midnightblue" d="M250.903,-78.396C271.528,-85.7061 294.957,-94.0099 314.542,-100.952"/>
<polygon fill="midnightblue" stroke="midnightblue" points="251.936,-75.0488 241.341,-75.007 249.597,-81.6466 251.936,-75.0488"/>
</g>
<!-- Node4 -->
<g id="node4" class="node"><title>Node4</title>
<g id="a_node4"><a xlink:href="a00198.xhtml#a25c1fd4903914444fc31fb1b90dcffdb" target="_top" xlink:title="TinyXML2::XMLDocument\l::LoadFile">
<polygon fill="none" stroke="black" points="292,-49 292,-79 424,-79 424,-49 292,-49"/>
<text text-anchor="start" x="300" y="-67" font-family="Helvetica,sans-Serif" font-size="10.00">TinyXML2::XMLDocument</text>
<text text-anchor="middle" x="358" y="-56" font-family="Helvetica,sans-Serif" font-size="10.00">::LoadFile</text>
</a>
</g>
</g>
<!-- Node2&#45;&gt;Node4 -->
<g id="edge4" class="edge"><title>Node2&#45;&gt;Node4</title>
<path fill="none" stroke="midnightblue" d="M266.306,-61.704C274.82,-61.9195 283.518,-62.1397 291.994,-62.3543"/>
<polygon fill="midnightblue" stroke="midnightblue" points="266.127,-58.1984 256.042,-61.4441 265.95,-65.1961 266.127,-58.1984"/>
</g>
<!-- Node5 -->
<g id="node5" class="node"><title>Node5</title>
<g id="a_node5"><a xlink:href="a00198.xhtml#a2734f0824ea57c5c26f61b4f3ff2514a" target="_top" xlink:title="TinyXML2::XMLDocument\l::Parse">
<polygon fill="none" stroke="black" points="292,-0 292,-30 424,-30 424,-0 292,-0"/>
<text text-anchor="start" x="300" y="-18" font-family="Helvetica,sans-Serif" font-size="10.00">TinyXML2::XMLDocument</text>
<text text-anchor="middle" x="358" y="-7" font-family="Helvetica,sans-Serif" font-size="10.00">::Parse</text>
</a>
</g>
</g>
<!-- Node2&#45;&gt;Node5 -->
<g id="edge5" class="edge"><title>Node2&#45;&gt;Node5</title>
<path fill="none" stroke="midnightblue" d="M262.049,-42.0431C275.982,-38.0747 290.606,-33.9096 304.089,-30.0697"/>
<polygon fill="midnightblue" stroke="midnightblue" points="260.71,-38.7851 252.051,-44.8905 262.628,-45.5174 260.71,-38.7851"/>
</g>
</g>
</svg>
