<?xml version="1.0" encoding="UTF-8" standalone="no"?>
<!DOCTYPE svg PUBLIC "-//W3C//DTD SVG 1.1//EN"
 "http://www.w3.org/Graphics/SVG/1.1/DTD/svg11.dtd">
<!-- Generated by graphviz version 2.36.0 (20140111.2315)
 -->
<!-- Title: TinyXML2::XMLAttribute::SetAttribute Pages: 1 -->
<svg width="416pt" height="87pt"
 viewBox="0.00 0.00 416.00 87.00" xmlns="http://www.w3.org/2000/svg" xmlns:xlink="http://www.w3.org/1999/xlink">
<g id="graph0" class="graph" transform="scale(1 1) rotate(0) translate(4 83)">
<title>TinyXML2::XMLAttribute::SetAttribute</title>
<!-- Node1 -->
<g id="node1" class="node"><title>Node1</title>
<polygon fill="#bfbfbf" stroke="black" points="0,-24 0,-54 124,-54 124,-24 0,-24"/>
<text text-anchor="start" x="8" y="-42" font-family="Helvetica,sans-Serif" font-size="10.00">TinyXML2::XMLAttribute</text>
<text text-anchor="middle" x="62" y="-31" font-family="Helvetica,sans-Serif" font-size="10.00">::SetAttribute</text>
</g>
<!-- Node2 -->
<g id="node2" class="node"><title>Node2</title>
<g id="a_node2"><a xlink:href="a00133.xhtml#a8d21246f67287932bba28e6393f5ea2c" target="_top" xlink:title="TinyXML2::StrPair::\lSetStr">
<polygon fill="none" stroke="black" points="162.5,-49 162.5,-79 265.5,-79 265.5,-49 162.5,-49"/>
<text text-anchor="start" x="170.5" y="-67" font-family="Helvetica,sans-Serif" font-size="10.00">TinyXML2::StrPair::</text>
<text text-anchor="middle" x="214" y="-56" font-family="Helvetica,sans-Serif" font-size="10.00">SetStr</text>
</a>
</g>
</g>
<!-- Node1&#45;&gt;Node2 -->
<g id="edge1" class="edge"><title>Node1&#45;&gt;Node2</title>
<path fill="none" stroke="midnightblue" d="M124.011,-49.1685C133.303,-50.7172 142.892,-52.3153 152.18,-53.8634"/>
<polygon fill="midnightblue" stroke="midnightblue" points="151.673,-57.327 162.112,-55.5187 152.824,-50.4223 151.673,-57.327"/>
</g>
<!-- Node4 -->
<g id="node4" class="node"><title>Node4</title>
<g id="a_node4"><a xlink:href="a00205.xhtml#a04c3a14fa44c8d41a27f501700ee02ea" target="_top" xlink:title="TinyXML2::XMLUtil::\lToStr">
<polygon fill="none" stroke="black" points="160,-0 160,-30 268,-30 268,-0 160,-0"/>
<text text-anchor="start" x="168" y="-18" font-family="Helvetica,sans-Serif" font-size="10.00">TinyXML2::XMLUtil::</text>
<text text-anchor="middle" x="214" y="-7" font-family="Helvetica,sans-Serif" font-size="10.00">ToStr</text>
</a>
</g>
</g>
<!-- Node1&#45;&gt;Node4 -->
<g id="edge3" class="edge"><title>Node1&#45;&gt;Node4</title>
<path fill="none" stroke="midnightblue" d="M124.011,-29.2383C132.522,-27.8764 141.283,-26.4747 149.833,-25.1067"/>
<polygon fill="midnightblue" stroke="midnightblue" points="150.425,-28.5567 159.746,-23.5206 149.319,-21.6446 150.425,-28.5567"/>
</g>
<!-- Node3 -->
<g id="node3" class="node"><title>Node3</title>
<g id="a_node3"><a xlink:href="a00133.xhtml#afbc7a4f921afeff8ef2aca24765ed24f" target="_top" xlink:title="TinyXML2::StrPair::\lReset">
<polygon fill="none" stroke="black" points="304.5,-49 304.5,-79 407.5,-79 407.5,-49 304.5,-49"/>
<text text-anchor="start" x="312.5" y="-67" font-family="Helvetica,sans-Serif" font-size="10.00">TinyXML2::StrPair::</text>
<text text-anchor="middle" x="356" y="-56" font-family="Helvetica,sans-Serif" font-size="10.00">Reset</text>
</a>
</g>
</g>
<!-- Node2&#45;&gt;Node3 -->
<g id="edge2" class="edge"><title>Node2&#45;&gt;Node3</title>
<path fill="none" stroke="midnightblue" d="M265.543,-64C274.746,-64 284.436,-64 293.906,-64"/>
<polygon fill="midnightblue" stroke="midnightblue" points="294.061,-67.5001 304.061,-64 294.061,-60.5001 294.061,-67.5001"/>
</g>
</g>
</svg>
