<?xml version="1.0" encoding="UTF-8" standalone="no"?>
<!DOCTYPE svg PUBLIC "-//W3C//DTD SVG 1.1//EN"
 "http://www.w3.org/Graphics/SVG/1.1/DTD/svg11.dtd">
<!-- Generated by graphviz version 2.36.0 (20140111.2315)
 -->
<!-- Title: Voxel::RangeParameterTemplate::upperLimit Pages: 1 -->
<!--zoomable 371 -->
<svg id="main" version="1.1" xmlns="http://www.w3.org/2000/svg" xmlns:xlink="http://www.w3.org/1999/xlink" xml:space="preserve" onload="init(evt)">
<style type="text/css"><![CDATA[
.edge:hover path { stroke: red; }
.edge:hover polygon { stroke: red; fill: red; }
]]></style>
<script type="text/javascript"><![CDATA[
var edges = document.getElementsByTagName('g');
if (edges && edges.length) {
  for (var i=0;i<edges.length;i++) {
    if (edges[i].id.substr(0,4)=='edge') {
      edges[i].setAttribute('class','edge');
    }
  }
}
]]></script>
        <defs>
                <circle id="rim" cx="0" cy="0" r="7"/>
                <circle id="rim2" cx="0" cy="0" r="3.5"/>
                <g id="zoomPlus">
                        <use xlink:href="#rim" fill="#404040">
                                <set attributeName="fill" to="#808080" begin="zoomplus.mouseover" end="zoomplus.mouseout"/>
                        </use>
                        <path d="M-4,0h8M0,-4v8" fill="none" stroke="white" stroke-width="1.5" pointer-events="none"/>
                </g>
                <g id="zoomMin">
                        <use xlink:href="#rim" fill="#404040">
                                <set attributeName="fill" to="#808080" begin="zoomminus.mouseover" end="zoomminus.mouseout"/>
                        </use>
                        <path d="M-4,0h8" fill="none" stroke="white" stroke-width="1.5" pointer-events="none"/>
                </g>
                <g id="dirArrow">
                        <path fill="none" stroke="white" stroke-width="1.5" d="M0,-3.0v7 M-2.5,-0.5L0,-3.0L2.5,-0.5"/>
                </g>
               <g id="resetDef">
                       <use xlink:href="#rim2" fill="#404040">
                               <set attributeName="fill" to="#808080" begin="reset.mouseover" end="reset.mouseout"/>
                       </use>
               </g>
        </defs>

<script type="text/javascript">
var viewWidth = 764;
var viewHeight = 371;
var sectionId = 'dynsection-4';
</script>
<script xlink:href="svgpan.js"/>
<svg id="graph" class="graph">
<g id="viewport">
<title>Voxel::RangeParameterTemplate::upperLimit</title>
<!-- Node1 -->
<g id="node1" class="node"><title>Node1</title>
<polygon fill="#bfbfbf" stroke="black" points="0.5,-169 0.5,-199 161.5,-199 161.5,-169 0.5,-169"/>
<text text-anchor="start" x="8.5" y="-187" font-family="Helvetica,sans-Serif" font-size="10.00">Voxel::RangeParameterTemplate</text>
<text text-anchor="middle" x="81" y="-176" font-family="Helvetica,sans-Serif" font-size="10.00">::upperLimit</text>
</g>
<!-- Node2 -->
<g id="node2" class="node"><title>Node2</title>
<g id="a_node2"><a xlink:href="a00025.xhtml#a6aa5863de7fb0da3578d60a46de46033" target="_top" xlink:title="Voxel::CLIManager::\l_showParameterInfo">
<polygon fill="none" stroke="black" points="225.5,-333 225.5,-363 332.5,-363 332.5,-333 225.5,-333"/>
<text text-anchor="start" x="233.5" y="-351" font-family="Helvetica,sans-Serif" font-size="10.00">Voxel::CLIManager::</text>
<text text-anchor="middle" x="279" y="-340" font-family="Helvetica,sans-Serif" font-size="10.00">_showParameterInfo</text>
</a>
</g>
</g>
<!-- Node1&#45;&gt;Node2 -->
<g id="edge1" class="edge"><title>Node1&#45;&gt;Node2</title>
<path fill="none" stroke="midnightblue" d="M96.0843,-208.295C115.281,-239.318 152.529,-292.612 198,-323 206.227,-328.498 215.728,-332.839 225.245,-336.25"/>
<polygon fill="midnightblue" stroke="midnightblue" points="98.8909,-206.173 90.7171,-199.432 92.9032,-209.799 98.8909,-206.173"/>
</g>
<!-- Node5 -->
<g id="node5" class="node"><title>Node5</title>
<g id="a_node5"><a xlink:href="a00142.xhtml#a726c86a1af24b9c55fce5a6985134685" target="_top" xlink:title="Voxel::TI::TintinCDKIllumination\lPowerPercentParameter::get">
<polygon fill="none" stroke="black" points="200,-284 200,-314 358,-314 358,-284 200,-284"/>
<text text-anchor="start" x="208" y="-302" font-family="Helvetica,sans-Serif" font-size="10.00">Voxel::TI::TintinCDKIllumination</text>
<text text-anchor="middle" x="279" y="-291" font-family="Helvetica,sans-Serif" font-size="10.00">PowerPercentParameter::get</text>
</a>
</g>
</g>
<!-- Node1&#45;&gt;Node5 -->
<g id="edge4" class="edge"><title>Node1&#45;&gt;Node5</title>
<path fill="none" stroke="midnightblue" d="M105.199,-206.097C127.453,-226.25 162.787,-255.606 198,-274 205.223,-277.773 213.114,-281.091 221.035,-283.974"/>
<polygon fill="midnightblue" stroke="midnightblue" points="107.346,-203.317 97.6157,-199.126 102.609,-208.47 107.346,-203.317"/>
</g>
<!-- Node6 -->
<g id="node6" class="node"><title>Node6</title>
<g id="a_node6"><a xlink:href="a00082.xhtml#a8d5c94e049e33f64004a99498511472b" target="_top" xlink:title="Voxel::TI::HaddockModulation\lFrequencyParameter::set">
<polygon fill="none" stroke="black" points="204.5,-235 204.5,-265 353.5,-265 353.5,-235 204.5,-235"/>
<text text-anchor="start" x="212.5" y="-253" font-family="Helvetica,sans-Serif" font-size="10.00">Voxel::TI::HaddockModulation</text>
<text text-anchor="middle" x="279" y="-242" font-family="Helvetica,sans-Serif" font-size="10.00">FrequencyParameter::set</text>
</a>
</g>
</g>
<!-- Node1&#45;&gt;Node6 -->
<g id="edge5" class="edge"><title>Node1&#45;&gt;Node6</title>
<path fill="none" stroke="midnightblue" d="M136.59,-202.382C167.052,-212.64 204.526,-225.259 233.243,-234.929"/>
<polygon fill="midnightblue" stroke="midnightblue" points="137.56,-199.016 126.966,-199.142 135.327,-205.65 137.56,-199.016"/>
</g>
<!-- Node7 -->
<g id="node7" class="node"><title>Node7</title>
<g id="a_node7"><a xlink:href="a00084.xhtml#a0da082fe30df06fe3a29cfbc5908c55c" target="_top" xlink:title="Voxel::TI::HaddockUnambiguous\lRangeParameter::set">
<polygon fill="none" stroke="black" points="396.5,-213 396.5,-243 557.5,-243 557.5,-213 396.5,-213"/>
<text text-anchor="start" x="404.5" y="-231" font-family="Helvetica,sans-Serif" font-size="10.00">Voxel::TI::HaddockUnambiguous</text>
<text text-anchor="middle" x="477" y="-220" font-family="Helvetica,sans-Serif" font-size="10.00">RangeParameter::set</text>
</a>
</g>
</g>
<!-- Node1&#45;&gt;Node7 -->
<g id="edge9" class="edge"><title>Node1&#45;&gt;Node7</title>
<path fill="none" stroke="midnightblue" d="M171.95,-194.045C239.586,-201.598 331.4,-211.852 396.387,-219.109"/>
<polygon fill="midnightblue" stroke="midnightblue" points="172.058,-190.536 161.732,-192.904 171.282,-197.492 172.058,-190.536"/>
</g>
<!-- Node9 -->
<g id="node9" class="node"><title>Node9</title>
<g id="a_node9"><a xlink:href="a00142.xhtml#a3b3087c8ceca47e62363d6b28b2a51cf" target="_top" xlink:title="Voxel::TI::TintinCDKIllumination\lPowerPercentParameter::set">
<polygon fill="none" stroke="black" points="200,-147 200,-177 358,-177 358,-147 200,-147"/>
<text text-anchor="start" x="208" y="-165" font-family="Helvetica,sans-Serif" font-size="10.00">Voxel::TI::TintinCDKIllumination</text>
<text text-anchor="middle" x="279" y="-154" font-family="Helvetica,sans-Serif" font-size="10.00">PowerPercentParameter::set</text>
</a>
</g>
</g>
<!-- Node1&#45;&gt;Node9 -->
<g id="edge8" class="edge"><title>Node1&#45;&gt;Node9</title>
<path fill="none" stroke="midnightblue" d="M171.843,-173.916C181.223,-172.863 190.703,-171.799 199.937,-170.762"/>
<polygon fill="midnightblue" stroke="midnightblue" points="171.268,-170.458 161.721,-175.052 172.049,-177.414 171.268,-170.458"/>
</g>
<!-- Node10 -->
<g id="node10" class="node"><title>Node10</title>
<g id="a_node10"><a xlink:href="a00019.xhtml#ae845d409b31f3a1091ec96a263055480" target="_top" xlink:title="Voxel::TI::CalculusModulation\lFrequencyParameter::set">
<polygon fill="none" stroke="black" points="205,-98 205,-128 353,-128 353,-98 205,-98"/>
<text text-anchor="start" x="213" y="-116" font-family="Helvetica,sans-Serif" font-size="10.00">Voxel::TI::CalculusModulation</text>
<text text-anchor="middle" x="279" y="-105" font-family="Helvetica,sans-Serif" font-size="10.00">FrequencyParameter::set</text>
</a>
</g>
</g>
<!-- Node1&#45;&gt;Node10 -->
<g id="edge10" class="edge"><title>Node1&#45;&gt;Node10</title>
<path fill="none" stroke="midnightblue" d="M126.208,-164.955C147.695,-155.99 174.003,-145.44 198,-137 206.755,-133.921 216.132,-130.881 225.273,-128.054"/>
<polygon fill="midnightblue" stroke="midnightblue" points="124.564,-161.849 116.7,-168.949 127.276,-168.303 124.564,-161.849"/>
</g>
<!-- Node11 -->
<g id="node11" class="node"><title>Node11</title>
<g id="a_node11"><a xlink:href="a00150.xhtml#a7eb6a456c15f184c66d942e5f19c938b" target="_top" xlink:title="Voxel::TI::TintinUnambiguous\lRangeParameter::set">
<polygon fill="none" stroke="black" points="206,-49 206,-79 352,-79 352,-49 206,-49"/>
<text text-anchor="start" x="214" y="-67" font-family="Helvetica,sans-Serif" font-size="10.00">Voxel::TI::TintinUnambiguous</text>
<text text-anchor="middle" x="279" y="-56" font-family="Helvetica,sans-Serif" font-size="10.00">RangeParameter::set</text>
</a>
</g>
</g>
<!-- Node1&#45;&gt;Node11 -->
<g id="edge11" class="edge"><title>Node1&#45;&gt;Node11</title>
<path fill="none" stroke="midnightblue" d="M103.464,-161.636C125.379,-139.987 161.302,-107.64 198,-88 204.264,-84.6474 211.062,-81.6989 217.958,-79.1227"/>
<polygon fill="midnightblue" stroke="midnightblue" points="100.896,-159.255 96.3185,-168.809 105.856,-164.195 100.896,-159.255"/>
</g>
<!-- Node13 -->
<g id="node13" class="node"><title>Node13</title>
<g id="a_node13"><a xlink:href="a00117.xhtml#aacb3e43640e0f7169018c539e18f7df7" target="_top" xlink:title="Voxel::RangeParameterTemplate\l\&lt; int \&gt;::setUpperLimit">
<polygon fill="none" stroke="black" points="198.5,-0 198.5,-30 359.5,-30 359.5,-0 198.5,-0"/>
<text text-anchor="start" x="206.5" y="-18" font-family="Helvetica,sans-Serif" font-size="10.00">Voxel::RangeParameterTemplate</text>
<text text-anchor="middle" x="279" y="-7" font-family="Helvetica,sans-Serif" font-size="10.00">&lt; int &gt;::setUpperLimit</text>
</a>
</g>
</g>
<!-- Node1&#45;&gt;Node13 -->
<g id="edge13" class="edge"><title>Node1&#45;&gt;Node13</title>
<path fill="none" stroke="midnightblue" d="M94.9459,-159.983C113.539,-127.743 150.82,-70.847 198,-39 203.048,-35.5927 208.593,-32.6574 214.336,-30.131"/>
<polygon fill="midnightblue" stroke="midnightblue" points="91.8586,-158.332 89.9947,-168.762 97.9557,-161.771 91.8586,-158.332"/>
</g>
<!-- Node3 -->
<g id="node3" class="node"><title>Node3</title>
<g id="a_node3"><a xlink:href="a00025.xhtml#afce3e4d2158d643e933f3b85f366a42a" target="_top" xlink:title="Voxel::CLIManager::\l_capabilities">
<polygon fill="none" stroke="black" points="423.5,-333 423.5,-363 530.5,-363 530.5,-333 423.5,-333"/>
<text text-anchor="start" x="431.5" y="-351" font-family="Helvetica,sans-Serif" font-size="10.00">Voxel::CLIManager::</text>
<text text-anchor="middle" x="477" y="-340" font-family="Helvetica,sans-Serif" font-size="10.00">_capabilities</text>
</a>
</g>
</g>
<!-- Node2&#45;&gt;Node3 -->
<g id="edge2" class="edge"><title>Node2&#45;&gt;Node3</title>
<path fill="none" stroke="midnightblue" d="M342.655,-348C368.654,-348 398.485,-348 423.331,-348"/>
<polygon fill="midnightblue" stroke="midnightblue" points="342.524,-344.5 332.524,-348 342.524,-351.5 342.524,-344.5"/>
</g>
<!-- Node4 -->
<g id="node4" class="node"><title>Node4</title>
<g id="a_node4"><a xlink:href="a00025.xhtml#a7a7ce51202c00d16a0e1cac5dcceb1e0" target="_top" xlink:title="Voxel::CLIManager::\lCLIManager">
<polygon fill="none" stroke="black" points="621.5,-333 621.5,-363 728.5,-363 728.5,-333 621.5,-333"/>
<text text-anchor="start" x="629.5" y="-351" font-family="Helvetica,sans-Serif" font-size="10.00">Voxel::CLIManager::</text>
<text text-anchor="middle" x="675" y="-340" font-family="Helvetica,sans-Serif" font-size="10.00">CLIManager</text>
</a>
</g>
</g>
<!-- Node3&#45;&gt;Node4 -->
<g id="edge3" class="edge"><title>Node3&#45;&gt;Node4</title>
<path fill="none" stroke="midnightblue" d="M540.655,-348C566.654,-348 596.485,-348 621.331,-348"/>
<polygon fill="midnightblue" stroke="midnightblue" points="540.524,-344.5 530.524,-348 540.524,-351.5 540.524,-344.5"/>
</g>
<!-- Node6&#45;&gt;Node7 -->
<g id="edge6" class="edge"><title>Node6&#45;&gt;Node7</title>
<path fill="none" stroke="midnightblue" d="M363.495,-240.628C374.426,-239.401 385.604,-238.146 396.468,-236.927"/>
<polygon fill="midnightblue" stroke="midnightblue" points="363.088,-237.152 353.541,-241.745 363.869,-244.108 363.088,-237.152"/>
</g>
<!-- Node8 -->
<g id="node8" class="node"><title>Node8</title>
<g id="a_node8"><a xlink:href="a00084.xhtml#a651affc3a71f50f73cd47963d30ed18b" target="_top" xlink:title="Voxel::TI::HaddockUnambiguous\lRangeParameter::get">
<polygon fill="none" stroke="black" points="594.5,-213 594.5,-243 755.5,-243 755.5,-213 594.5,-213"/>
<text text-anchor="start" x="602.5" y="-231" font-family="Helvetica,sans-Serif" font-size="10.00">Voxel::TI::HaddockUnambiguous</text>
<text text-anchor="middle" x="675" y="-220" font-family="Helvetica,sans-Serif" font-size="10.00">RangeParameter::get</text>
</a>
</g>
</g>
<!-- Node7&#45;&gt;Node8 -->
<g id="edge7" class="edge"><title>Node7&#45;&gt;Node8</title>
<path fill="none" stroke="midnightblue" d="M567.989,-228C576.785,-228 585.667,-228 594.35,-228"/>
<polygon fill="midnightblue" stroke="midnightblue" points="567.721,-224.5 557.721,-228 567.721,-231.5 567.721,-224.5"/>
</g>
<!-- Node12 -->
<g id="node12" class="node"><title>Node12</title>
<g id="a_node12"><a xlink:href="a00150.xhtml#aee1307d07b01cdc5f3a34719e5b79ac0" target="_top" xlink:title="Voxel::TI::TintinUnambiguous\lRangeParameter::get">
<polygon fill="none" stroke="black" points="404,-49 404,-79 550,-79 550,-49 404,-49"/>
<text text-anchor="start" x="412" y="-67" font-family="Helvetica,sans-Serif" font-size="10.00">Voxel::TI::TintinUnambiguous</text>
<text text-anchor="middle" x="477" y="-56" font-family="Helvetica,sans-Serif" font-size="10.00">RangeParameter::get</text>
</a>
</g>
</g>
<!-- Node11&#45;&gt;Node12 -->
<g id="edge12" class="edge"><title>Node11&#45;&gt;Node12</title>
<path fill="none" stroke="midnightblue" d="M362.508,-64C376.186,-64 390.276,-64 403.677,-64"/>
<polygon fill="midnightblue" stroke="midnightblue" points="362.148,-60.5001 352.148,-64 362.148,-67.5001 362.148,-60.5001"/>
</g>
</g>
</svg>
        <g id="navigator" transform="translate(0 0)" fill="#404254">
                <rect fill="#f2f5e9" fill-opacity="0.5" stroke="#606060" stroke-width=".5" x="0" y="0" width="60" height="60"/>
                <use id="zoomplus" xlink:href="#zoomPlus" x="17" y="9" onmousedown="handleZoom(evt,'in')"/>
                <use id="zoomminus" xlink:href="#zoomMin" x="42" y="9" onmousedown="handleZoom(evt,'out')"/>
                <use id="reset" xlink:href="#resetDef" x="30" y="36" onmousedown="handleReset()"/>
                <g id="arrowUp" xlink:href="#dirArrow" transform="translate(30 24)" onmousedown="handlePan(0,-1)">
                  <use xlink:href="#rim" fill="#404040">
                        <set attributeName="fill" to="#808080" begin="arrowUp.mouseover" end="arrowUp.mouseout"/>
                  </use>
                  <path fill="none" stroke="white" stroke-width="1.5" d="M0,-3.0v7 M-2.5,-0.5L0,-3.0L2.5,-0.5"/>
                </g>
                <g id="arrowRight" xlink:href="#dirArrow" transform="rotate(90) translate(36 -43)" onmousedown="handlePan(1,0)">
                  <use xlink:href="#rim" fill="#404040">
                        <set attributeName="fill" to="#808080" begin="arrowRight.mouseover" end="arrowRight.mouseout"/>
                  </use>
                  <path fill="none" stroke="white" stroke-width="1.5" d="M0,-3.0v7 M-2.5,-0.5L0,-3.0L2.5,-0.5"/>
                </g>
                <g id="arrowDown" xlink:href="#dirArrow" transform="rotate(180) translate(-30 -48)" onmousedown="handlePan(0,1)">
                  <use xlink:href="#rim" fill="#404040">
                        <set attributeName="fill" to="#808080" begin="arrowDown.mouseover" end="arrowDown.mouseout"/>
                  </use>
                  <path fill="none" stroke="white" stroke-width="1.5" d="M0,-3.0v7 M-2.5,-0.5L0,-3.0L2.5,-0.5"/>
                </g>
                <g id="arrowLeft" xlink:href="#dirArrow" transform="rotate(270) translate(-36 17)" onmousedown="handlePan(-1,0)">
                  <use xlink:href="#rim" fill="#404040">
                        <set attributeName="fill" to="#808080" begin="arrowLeft.mouseover" end="arrowLeft.mouseout"/>
                  </use>
                  <path fill="none" stroke="white" stroke-width="1.5" d="M0,-3.0v7 M-2.5,-0.5L0,-3.0L2.5,-0.5"/>
                </g>
        </g>
        <svg viewBox="0 0 15 15" width="100%" height="30px" preserveAspectRatio="xMaxYMin meet">
         <g id="arrow_out" transform="scale(0.3 0.3)">
          <a xlink:href="a00117_abb8c7dc72be4ed50f400dc4ee440fd2f_icgraph_org.svg" target="_base">
           <rect id="button" ry="5" rx="5" y="6" x="6" height="38" width="38"
                fill="#f2f5e9" fill-opacity="0.5" stroke="#606060" stroke-width="1.0"/>
           <path id="arrow"
             d="M 11.500037,31.436501 C 11.940474,20.09759 22.043105,11.32322 32.158766,21.979434 L 37.068811,17.246167 C 37.068811,17.246167 37.088388,32 37.088388,32 L 22.160133,31.978069 C 22.160133,31.978069 26.997745,27.140456 26.997745,27.140456 C 18.528582,18.264221 13.291696,25.230495 11.500037,31.436501 z"
             style="fill:#404040;"/>
          </a>
         </g>
        </svg>
</svg>
