<?xml version="1.0" encoding="UTF-8" standalone="no"?>
<!DOCTYPE svg PUBLIC "-//W3C//DTD SVG 1.1//EN"
 "http://www.w3.org/Graphics/SVG/1.1/DTD/svg11.dtd">
<!-- Generated by graphviz version 2.36.0 (20140111.2315)
 -->
<!-- Title: Voxel::TI::TintinVCOFrequency::get Pages: 1 -->
<svg width="716pt" height="38pt"
 viewBox="0.00 0.00 716.00 38.00" xmlns="http://www.w3.org/2000/svg" xmlns:xlink="http://www.w3.org/1999/xlink">
<g id="graph0" class="graph" transform="scale(1 1) rotate(0) translate(4 34)">
<title>Voxel::TI::TintinVCOFrequency::get</title>
<!-- Node1 -->
<g id="node1" class="node"><title>Node1</title>
<polygon fill="#bfbfbf" stroke="black" points="0.5,-5.5 0.5,-24.5 173.5,-24.5 173.5,-5.5 0.5,-5.5"/>
<text text-anchor="middle" x="87" y="-12.5" font-family="Helvetica,sans-Serif" font-size="10.00">Voxel::TI::TintinVCOFrequency::get</text>
</g>
<!-- Node2 -->
<g id="node2" class="node"><title>Node2</title>
<g id="a_node2"><a xlink:href="a00149.xhtml#a6b0d9a1d0144d396ce0a62e93bf58db7" target="_top" xlink:title="Voxel::TI::TintinModulation\lFrequencyParameter::set">
<polygon fill="none" stroke="black" points="210,-0 210,-30 344,-30 344,-0 210,-0"/>
<text text-anchor="start" x="218" y="-18" font-family="Helvetica,sans-Serif" font-size="10.00">Voxel::TI::TintinModulation</text>
<text text-anchor="middle" x="277" y="-7" font-family="Helvetica,sans-Serif" font-size="10.00">FrequencyParameter::set</text>
</a>
</g>
</g>
<!-- Node1&#45;&gt;Node2 -->
<g id="edge1" class="edge"><title>Node1&#45;&gt;Node2</title>
<path fill="none" stroke="midnightblue" d="M183.987,-15C192.716,-15 201.422,-15 209.804,-15"/>
<polygon fill="midnightblue" stroke="midnightblue" points="183.748,-11.5001 173.748,-15 183.748,-18.5001 183.748,-11.5001"/>
</g>
<!-- Node3 -->
<g id="node3" class="node"><title>Node3</title>
<g id="a_node3"><a xlink:href="a00150.xhtml#a7eb6a456c15f184c66d942e5f19c938b" target="_top" xlink:title="Voxel::TI::TintinUnambiguous\lRangeParameter::set">
<polygon fill="none" stroke="black" points="380,-0 380,-30 526,-30 526,-0 380,-0"/>
<text text-anchor="start" x="388" y="-18" font-family="Helvetica,sans-Serif" font-size="10.00">Voxel::TI::TintinUnambiguous</text>
<text text-anchor="middle" x="453" y="-7" font-family="Helvetica,sans-Serif" font-size="10.00">RangeParameter::set</text>
</a>
</g>
</g>
<!-- Node2&#45;&gt;Node3 -->
<g id="edge2" class="edge"><title>Node2&#45;&gt;Node3</title>
<path fill="none" stroke="midnightblue" d="M354.465,-15C362.889,-15 371.446,-15 379.815,-15"/>
<polygon fill="midnightblue" stroke="midnightblue" points="354.278,-11.5001 344.278,-15 354.278,-18.5001 354.278,-11.5001"/>
</g>
<!-- Node4 -->
<g id="node4" class="node"><title>Node4</title>
<g id="a_node4"><a xlink:href="a00150.xhtml#aee1307d07b01cdc5f3a34719e5b79ac0" target="_top" xlink:title="Voxel::TI::TintinUnambiguous\lRangeParameter::get">
<polygon fill="none" stroke="black" points="562,-0 562,-30 708,-30 708,-0 562,-0"/>
<text text-anchor="start" x="570" y="-18" font-family="Helvetica,sans-Serif" font-size="10.00">Voxel::TI::TintinUnambiguous</text>
<text text-anchor="middle" x="635" y="-7" font-family="Helvetica,sans-Serif" font-size="10.00">RangeParameter::get</text>
</a>
</g>
</g>
<!-- Node3&#45;&gt;Node4 -->
<g id="edge3" class="edge"><title>Node3&#45;&gt;Node4</title>
<path fill="none" stroke="midnightblue" d="M536.439,-15C544.906,-15 553.464,-15 561.808,-15"/>
<polygon fill="midnightblue" stroke="midnightblue" points="536.176,-11.5001 526.176,-15 536.176,-18.5001 536.176,-11.5001"/>
</g>
</g>
</svg>
