<?xml version="1.0" encoding="UTF-8" standalone="no"?>
<!DOCTYPE svg PUBLIC "-//W3C//DTD SVG 1.1//EN"
 "http://www.w3.org/Graphics/SVG/1.1/DTD/svg11.dtd">
<!-- Generated by graphviz version 2.36.0 (20140111.2315)
 -->
<!-- Title: TinyXML2::XMLDocument::Clear Pages: 1 -->
<svg width="782pt" height="131pt"
 viewBox="0.00 0.00 782.00 131.00" xmlns="http://www.w3.org/2000/svg" xmlns:xlink="http://www.w3.org/1999/xlink">
<g id="graph0" class="graph" transform="scale(1 1) rotate(0) translate(4 127)">
<title>TinyXML2::XMLDocument::Clear</title>
<!-- Node1 -->
<g id="node1" class="node"><title>Node1</title>
<polygon fill="#bfbfbf" stroke="black" points="0,-24 0,-54 132,-54 132,-24 0,-24"/>
<text text-anchor="start" x="8" y="-42" font-family="Helvetica,sans-Serif" font-size="10.00">TinyXML2::XMLDocument</text>
<text text-anchor="middle" x="66" y="-31" font-family="Helvetica,sans-Serif" font-size="10.00">::Clear</text>
</g>
<!-- Node2 -->
<g id="node2" class="node"><title>Node2</title>
<g id="a_node2"><a xlink:href="a00201.xhtml#ac71764a70bec2eb37ed1ee30c97b2b51" target="_top" xlink:title="TinyXML2::XMLNode::\lDeleteChildren">
<polygon fill="none" stroke="black" points="176,-49 176,-79 292,-79 292,-49 176,-49"/>
<text text-anchor="start" x="184" y="-67" font-family="Helvetica,sans-Serif" font-size="10.00">TinyXML2::XMLNode::</text>
<text text-anchor="middle" x="234" y="-56" font-family="Helvetica,sans-Serif" font-size="10.00">DeleteChildren</text>
</a>
</g>
</g>
<!-- Node1&#45;&gt;Node2 -->
<g id="edge1" class="edge"><title>Node1&#45;&gt;Node2</title>
<path fill="none" stroke="midnightblue" d="M132.131,-48.8089C143.188,-50.4742 154.69,-52.2063 165.799,-53.8794"/>
<polygon fill="midnightblue" stroke="midnightblue" points="165.458,-57.3674 175.868,-55.3957 166.5,-50.4454 165.458,-57.3674"/>
</g>
<!-- Node7 -->
<g id="node7" class="node"><title>Node7</title>
<g id="a_node7"><a xlink:href="a00198.xhtml#a8302f8ca7f1ed6dd2690e3875f968a32" target="_top" xlink:title="Return true if there was an error parsing the document. ">
<polygon fill="none" stroke="black" points="168,-0 168,-30 300,-30 300,-0 168,-0"/>
<text text-anchor="start" x="176" y="-18" font-family="Helvetica,sans-Serif" font-size="10.00">TinyXML2::XMLDocument</text>
<text text-anchor="middle" x="234" y="-7" font-family="Helvetica,sans-Serif" font-size="10.00">::Error</text>
</a>
</g>
</g>
<!-- Node1&#45;&gt;Node7 -->
<g id="edge8" class="edge"><title>Node1&#45;&gt;Node7</title>
<path fill="none" stroke="midnightblue" d="M132.131,-29.5834C140.553,-28.3658 149.232,-27.111 157.8,-25.8723"/>
<polygon fill="midnightblue" stroke="midnightblue" points="158.388,-29.3238 167.784,-24.4288 157.386,-22.3958 158.388,-29.3238"/>
</g>
<!-- Node3 -->
<g id="node3" class="node"><title>Node3</title>
<g id="a_node3"><a xlink:href="a00201.xhtml#ae64fa52593db503652ee0258bf69d376" target="_top" xlink:title="TinyXML2::XMLNode::\lDeleteNode">
<polygon fill="none" stroke="black" points="336,-93 336,-123 452,-123 452,-93 336,-93"/>
<text text-anchor="start" x="344" y="-111" font-family="Helvetica,sans-Serif" font-size="10.00">TinyXML2::XMLNode::</text>
<text text-anchor="middle" x="394" y="-100" font-family="Helvetica,sans-Serif" font-size="10.00">DeleteNode</text>
</a>
</g>
</g>
<!-- Node2&#45;&gt;Node3 -->
<g id="edge2" class="edge"><title>Node2&#45;&gt;Node3</title>
<path fill="none" stroke="midnightblue" d="M288.933,-79.0192C301.953,-82.6452 315.987,-86.5534 329.405,-90.2899"/>
<polygon fill="midnightblue" stroke="midnightblue" points="328.47,-93.6627 339.042,-92.9738 330.348,-86.9193 328.47,-93.6627"/>
</g>
<!-- Node6 -->
<g id="node6" class="node"><title>Node6</title>
<g id="a_node6"><a xlink:href="a00201.xhtml#a0fe718d6c3d1252c48992c1adc1ce93b" target="_top" xlink:title="TinyXML2::XMLNode::\lUnlink">
<polygon fill="none" stroke="black" points="658,-30 658,-60 774,-60 774,-30 658,-30"/>
<text text-anchor="start" x="666" y="-48" font-family="Helvetica,sans-Serif" font-size="10.00">TinyXML2::XMLNode::</text>
<text text-anchor="middle" x="716" y="-37" font-family="Helvetica,sans-Serif" font-size="10.00">Unlink</text>
</a>
</g>
</g>
<!-- Node2&#45;&gt;Node6 -->
<g id="edge7" class="edge"><title>Node2&#45;&gt;Node6</title>
<path fill="none" stroke="midnightblue" d="M292.19,-57.8927C343.413,-52.7473 420.624,-45.7915 488,-43 547.505,-40.5347 562.448,-42.3597 622,-43 630.357,-43.0898 639.136,-43.2251 647.824,-43.3837"/>
<polygon fill="midnightblue" stroke="midnightblue" points="647.885,-46.8855 657.951,-43.5794 648.02,-39.8868 647.885,-46.8855"/>
</g>
<!-- Node4 -->
<g id="node4" class="node"><title>Node4</title>
<g id="a_node4"><a xlink:href="a00098.xhtml#af252371f4bf36310d2db949279b5ccf4" target="_top" xlink:title="TinyXML2::MemPool::Free">
<polygon fill="none" stroke="black" points="488,-101.5 488,-120.5 622,-120.5 622,-101.5 488,-101.5"/>
<text text-anchor="middle" x="555" y="-108.5" font-family="Helvetica,sans-Serif" font-size="10.00">TinyXML2::MemPool::Free</text>
</a>
</g>
</g>
<!-- Node3&#45;&gt;Node4 -->
<g id="edge3" class="edge"><title>Node3&#45;&gt;Node4</title>
<path fill="none" stroke="midnightblue" d="M452.403,-109.083C460.561,-109.237 469.056,-109.397 477.505,-109.557"/>
<polygon fill="midnightblue" stroke="midnightblue" points="477.7,-113.061 487.764,-109.75 477.832,-106.062 477.7,-113.061"/>
</g>
<!-- Node5 -->
<g id="node5" class="node"><title>Node5</title>
<g id="a_node5"><a xlink:href="a00201.xhtml#a5ce8791c0920489f9df667b0a0264935" target="_top" xlink:title="TinyXML2::XMLNode::\l~XMLNode">
<polygon fill="none" stroke="black" points="497,-52 497,-82 613,-82 613,-52 497,-52"/>
<text text-anchor="start" x="505" y="-70" font-family="Helvetica,sans-Serif" font-size="10.00">TinyXML2::XMLNode::</text>
<text text-anchor="middle" x="555" y="-59" font-family="Helvetica,sans-Serif" font-size="10.00">~XMLNode</text>
</a>
</g>
</g>
<!-- Node3&#45;&gt;Node5 -->
<g id="edge4" class="edge"><title>Node3&#45;&gt;Node5</title>
<path fill="none" stroke="midnightblue" d="M452.403,-93.1981C463.617,-90.3063 475.468,-87.2503 486.963,-84.2862"/>
<polygon fill="midnightblue" stroke="midnightblue" points="488.139,-87.5976 496.948,-81.7115 486.391,-80.8193 488.139,-87.5976"/>
</g>
<!-- Node5&#45;&gt;Node2 -->
<g id="edge5" class="edge"><title>Node5&#45;&gt;Node2</title>
<path fill="none" stroke="midnightblue" d="M496.926,-66.4633C442.305,-65.9496 359.91,-65.1747 302.156,-64.6316"/>
<polygon fill="midnightblue" stroke="midnightblue" points="302.063,-61.1306 292.031,-64.5363 301.997,-68.1303 302.063,-61.1306"/>
</g>
<!-- Node5&#45;&gt;Node6 -->
<g id="edge6" class="edge"><title>Node5&#45;&gt;Node6</title>
<path fill="none" stroke="midnightblue" d="M613.403,-59.0575C624.617,-57.5058 636.468,-55.866 647.963,-54.2755"/>
<polygon fill="midnightblue" stroke="midnightblue" points="648.522,-57.7316 657.948,-52.894 647.563,-50.7977 648.522,-57.7316"/>
</g>
</g>
</svg>
