<?xml version="1.0" encoding="UTF-8" standalone="no"?>
<!DOCTYPE svg PUBLIC "-//W3C//DTD SVG 1.1//EN"
 "http://www.w3.org/Graphics/SVG/1.1/DTD/svg11.dtd">
<!-- Generated by graphviz version 2.36.0 (20140111.2315)
 -->
<!-- Title: Voxel::TI::TintinCDKDownloaderFactory::getDownloader Pages: 1 -->
<svg width="352pt" height="66pt"
 viewBox="0.00 0.00 352.00 66.00" xmlns="http://www.w3.org/2000/svg" xmlns:xlink="http://www.w3.org/1999/xlink">
<g id="graph0" class="graph" transform="scale(1 1) rotate(0) translate(4 62)">
<title>Voxel::TI::TintinCDKDownloaderFactory::getDownloader</title>
<!-- Node1 -->
<g id="node1" class="node"><title>Node1</title>
<polygon fill="#bfbfbf" stroke="black" points="0,-14 0,-44 160,-44 160,-14 0,-14"/>
<text text-anchor="start" x="8" y="-32" font-family="Helvetica,sans-Serif" font-size="10.00">Voxel::TI::TintinCDKDownloader</text>
<text text-anchor="middle" x="80" y="-21" font-family="Helvetica,sans-Serif" font-size="10.00">Factory::getDownloader</text>
</g>
<!-- Node2 -->
<g id="node2" class="node"><title>Node2</title>
<g id="a_node2"><a xlink:href="a00167.xhtml#a733db00843f6522b28a07719c943e1fe" target="_top" xlink:title="Voxel::USBDevice::productID">
<polygon fill="none" stroke="black" points="196,-38.5 196,-57.5 344,-57.5 344,-38.5 196,-38.5"/>
<text text-anchor="middle" x="270" y="-45.5" font-family="Helvetica,sans-Serif" font-size="10.00">Voxel::USBDevice::productID</text>
</a>
</g>
</g>
<!-- Node1&#45;&gt;Node2 -->
<g id="edge1" class="edge"><title>Node1&#45;&gt;Node2</title>
<path fill="none" stroke="midnightblue" d="M160.184,-37.0026C168.695,-37.8628 177.372,-38.7397 185.927,-39.6043"/>
<polygon fill="midnightblue" stroke="midnightblue" points="185.595,-43.0885 195.896,-40.6118 186.299,-36.124 185.595,-43.0885"/>
</g>
<!-- Node3 -->
<g id="node3" class="node"><title>Node3</title>
<g id="a_node3"><a xlink:href="a00167.xhtml#ad7edff89623a9ecf8a2840b5181c67ac" target="_top" xlink:title="Voxel::USBDevice::vendorID">
<polygon fill="none" stroke="black" points="197.5,-0.5 197.5,-19.5 342.5,-19.5 342.5,-0.5 197.5,-0.5"/>
<text text-anchor="middle" x="270" y="-7.5" font-family="Helvetica,sans-Serif" font-size="10.00">Voxel::USBDevice::vendorID</text>
</a>
</g>
</g>
<!-- Node1&#45;&gt;Node3 -->
<g id="edge2" class="edge"><title>Node1&#45;&gt;Node3</title>
<path fill="none" stroke="midnightblue" d="M160.184,-20.9974C169.152,-20.091 178.305,-19.166 187.304,-18.2565"/>
<polygon fill="midnightblue" stroke="midnightblue" points="187.784,-21.7259 197.382,-17.238 187.08,-14.7614 187.784,-21.7259"/>
</g>
</g>
</svg>
