<?xml version="1.0" encoding="UTF-8" standalone="no"?>
<!DOCTYPE svg PUBLIC "-//W3C//DTD SVG 1.1//EN"
 "http://www.w3.org/Graphics/SVG/1.1/DTD/svg11.dtd">
<!-- Generated by graphviz version 2.36.0 (20140111.2315)
 -->
<!-- Title: Voxel::TI::Voxel14Camera::_initStartParams Pages: 1 -->
<!--zoomable 838 -->
<svg id="main" version="1.1" xmlns="http://www.w3.org/2000/svg" xmlns:xlink="http://www.w3.org/1999/xlink" xml:space="preserve" onload="init(evt)">
<style type="text/css"><![CDATA[
.edge:hover path { stroke: red; }
.edge:hover polygon { stroke: red; fill: red; }
]]></style>
<script type="text/javascript"><![CDATA[
var edges = document.getElementsByTagName('g');
if (edges && edges.length) {
  for (var i=0;i<edges.length;i++) {
    if (edges[i].id.substr(0,4)=='edge') {
      edges[i].setAttribute('class','edge');
    }
  }
}
]]></script>
        <defs>
                <circle id="rim" cx="0" cy="0" r="7"/>
                <circle id="rim2" cx="0" cy="0" r="3.5"/>
                <g id="zoomPlus">
                        <use xlink:href="#rim" fill="#404040">
                                <set attributeName="fill" to="#808080" begin="zoomplus.mouseover" end="zoomplus.mouseout"/>
                        </use>
                        <path d="M-4,0h8M0,-4v8" fill="none" stroke="white" stroke-width="1.5" pointer-events="none"/>
                </g>
                <g id="zoomMin">
                        <use xlink:href="#rim" fill="#404040">
                                <set attributeName="fill" to="#808080" begin="zoomminus.mouseover" end="zoomminus.mouseout"/>
                        </use>
                        <path d="M-4,0h8" fill="none" stroke="white" stroke-width="1.5" pointer-events="none"/>
                </g>
                <g id="dirArrow">
                        <path fill="none" stroke="white" stroke-width="1.5" d="M0,-3.0v7 M-2.5,-0.5L0,-3.0L2.5,-0.5"/>
                </g>
               <g id="resetDef">
                       <use xlink:href="#rim2" fill="#404040">
                               <set attributeName="fill" to="#808080" begin="reset.mouseover" end="reset.mouseout"/>
                       </use>
               </g>
        </defs>

<script type="text/javascript">
var viewWidth = 1570;
var viewHeight = 838;
var sectionId = 'dynsection-6';
</script>
<script xlink:href="svgpan.js"/>
<svg id="graph" class="graph">
<g id="viewport">
<title>Voxel::TI::Voxel14Camera::_initStartParams</title>
<!-- Node1 -->
<g id="node1" class="node"><title>Node1</title>
<polygon fill="#bfbfbf" stroke="black" points="0,-517 0,-547 132,-547 132,-517 0,-517"/>
<text text-anchor="start" x="8" y="-535" font-family="Helvetica,sans-Serif" font-size="10.00">Voxel::TI::Voxel14Camera</text>
<text text-anchor="middle" x="66" y="-524" font-family="Helvetica,sans-Serif" font-size="10.00">::_initStartParams</text>
</g>
<!-- Node2 -->
<g id="node2" class="node"><title>Node2</title>
<g id="a_node2"><a xlink:href="a00159.xhtml#ae87b0ca3c8867d1b520c0165d526e79d" target="_top" xlink:title="Voxel::TI::ToFHaddockCamera\l::_initStartParams">
<polygon fill="none" stroke="black" points="168.5,-517 168.5,-547 321.5,-547 321.5,-517 168.5,-517"/>
<text text-anchor="start" x="176.5" y="-535" font-family="Helvetica,sans-Serif" font-size="10.00">Voxel::TI::ToFHaddockCamera</text>
<text text-anchor="middle" x="245" y="-524" font-family="Helvetica,sans-Serif" font-size="10.00">::_initStartParams</text>
</a>
</g>
</g>
<!-- Node1&#45;&gt;Node2 -->
<g id="edge1" class="edge"><title>Node1&#45;&gt;Node2</title>
<path fill="none" stroke="midnightblue" d="M132.154,-532C140.585,-532 149.32,-532 158.023,-532"/>
<polygon fill="midnightblue" stroke="midnightblue" points="158.204,-535.5 168.204,-532 158.204,-528.5 158.204,-535.5"/>
</g>
<!-- Node3 -->
<g id="node3" class="node"><title>Node3</title>
<g id="a_node3"><a xlink:href="a00036.xhtml#a4f1c6d826c1842d7bc3fbeea5ebb9616" target="_top" xlink:title="Voxel::DepthCamera::set">
<polygon fill="none" stroke="black" points="358,-631.5 358,-650.5 486,-650.5 486,-631.5 358,-631.5"/>
<text text-anchor="middle" x="422" y="-638.5" font-family="Helvetica,sans-Serif" font-size="10.00">Voxel::DepthCamera::set</text>
</a>
</g>
</g>
<!-- Node2&#45;&gt;Node3 -->
<g id="edge2" class="edge"><title>Node2&#45;&gt;Node3</title>
<path fill="none" stroke="midnightblue" d="M270.333,-547.156C303.813,-568.009 363.711,-605.317 397.01,-626.057"/>
<polygon fill="midnightblue" stroke="midnightblue" points="395.313,-629.124 405.652,-631.44 399.014,-623.183 395.313,-629.124"/>
</g>
<!-- Node7 -->
<g id="node7" class="node"><title>Node7</title>
<g id="a_node7"><a xlink:href="a00153.xhtml#a52686f695d06876ef5a89e453c6a8ba3" target="_top" xlink:title="Voxel::TI::ToFCamera\l::_initStartParams">
<polygon fill="none" stroke="black" points="365,-408 365,-438 479,-438 479,-408 365,-408"/>
<text text-anchor="start" x="373" y="-426" font-family="Helvetica,sans-Serif" font-size="10.00">Voxel::TI::ToFCamera</text>
<text text-anchor="middle" x="422" y="-415" font-family="Helvetica,sans-Serif" font-size="10.00">::_initStartParams</text>
</a>
</g>
</g>
<!-- Node2&#45;&gt;Node7 -->
<g id="edge6" class="edge"><title>Node2&#45;&gt;Node7</title>
<path fill="none" stroke="midnightblue" d="M270.333,-516.844C301.025,-497.728 353.918,-464.783 388.168,-443.45"/>
<polygon fill="midnightblue" stroke="midnightblue" points="390.236,-446.285 396.874,-438.027 386.535,-440.343 390.236,-446.285"/>
</g>
<!-- Node4 -->
<g id="node4" class="node"><title>Node4</title>
<g id="a_node4"><a xlink:href="a00036.xhtml#a474dfafecfd8b2a97a924aeab8a82a3c" target="_top" xlink:title="Voxel::DepthCamera\l::_set">
<polygon fill="none" stroke="black" points="537,-800 537,-830 645,-830 645,-800 537,-800"/>
<text text-anchor="start" x="545" y="-818" font-family="Helvetica,sans-Serif" font-size="10.00">Voxel::DepthCamera</text>
<text text-anchor="middle" x="591" y="-807" font-family="Helvetica,sans-Serif" font-size="10.00">::_set</text>
</a>
</g>
</g>
<!-- Node3&#45;&gt;Node4 -->
<g id="edge3" class="edge"><title>Node3&#45;&gt;Node4</title>
<path fill="none" stroke="midnightblue" d="M426.789,-650.529C437.631,-676.625 471.298,-749.969 522,-790 524.267,-791.79 526.675,-793.461 529.181,-795.018"/>
<polygon fill="midnightblue" stroke="midnightblue" points="527.562,-798.122 538.008,-799.888 530.943,-791.993 527.562,-798.122"/>
</g>
<!-- Node5 -->
<g id="node5" class="node"><title>Node5</title>
<g id="a_node5"><a xlink:href="a00036.xhtml#ae3d6fcc6d4a20d1ad2de809ad65ecc34" target="_top" xlink:title="Voxel::DepthCamera\l::name">
<polygon fill="none" stroke="black" points="918,-701 918,-731 1026,-731 1026,-701 918,-701"/>
<text text-anchor="start" x="926" y="-719" font-family="Helvetica,sans-Serif" font-size="10.00">Voxel::DepthCamera</text>
<text text-anchor="middle" x="972" y="-708" font-family="Helvetica,sans-Serif" font-size="10.00">::name</text>
</a>
</g>
</g>
<!-- Node4&#45;&gt;Node5 -->
<g id="edge4" class="edge"><title>Node4&#45;&gt;Node5</title>
<path fill="none" stroke="midnightblue" d="M645.097,-801.13C714.073,-783.113 834.338,-751.698 907.898,-732.483"/>
<polygon fill="midnightblue" stroke="midnightblue" points="909.166,-735.769 917.957,-729.856 907.397,-728.997 909.166,-735.769"/>
</g>
<!-- Node6 -->
<g id="node6" class="node"><title>Node6</title>
<g id="a_node6"><a xlink:href="a00103.xhtml#a64240b607339f55c4fac973fba8c8934" target="_top" xlink:title="Voxel::ParameterTemplate::set">
<polygon fill="none" stroke="black" points="702,-805.5 702,-824.5 854,-824.5 854,-805.5 702,-805.5"/>
<text text-anchor="middle" x="778" y="-812.5" font-family="Helvetica,sans-Serif" font-size="10.00">Voxel::ParameterTemplate::set</text>
</a>
</g>
</g>
<!-- Node4&#45;&gt;Node6 -->
<g id="edge5" class="edge"><title>Node4&#45;&gt;Node6</title>
<path fill="none" stroke="midnightblue" d="M645.014,-815C659.553,-815 675.694,-815 691.558,-815"/>
<polygon fill="midnightblue" stroke="midnightblue" points="691.922,-818.5 701.922,-815 691.922,-811.5 691.922,-818.5"/>
</g>
<!-- Node8 -->
<g id="node8" class="node"><title>Node8</title>
<g id="a_node8"><a xlink:href="a00153.xhtml#abb0e21a487e4d2ae08031d0078b0578d" target="_top" xlink:title="Voxel::TI::ToFCamera\l::_getBinning">
<polygon fill="none" stroke="black" points="534,-506 534,-536 648,-536 648,-506 534,-506"/>
<text text-anchor="start" x="542" y="-524" font-family="Helvetica,sans-Serif" font-size="10.00">Voxel::TI::ToFCamera</text>
<text text-anchor="middle" x="591" y="-513" font-family="Helvetica,sans-Serif" font-size="10.00">::_getBinning</text>
</a>
</g>
</g>
<!-- Node7&#45;&gt;Node8 -->
<g id="edge7" class="edge"><title>Node7&#45;&gt;Node8</title>
<path fill="none" stroke="midnightblue" d="M440.22,-438.076C459.206,-454.109 491.162,-479.399 522,-496 525.906,-498.103 530.026,-500.1 534.227,-501.982"/>
<polygon fill="midnightblue" stroke="midnightblue" points="532.929,-505.233 543.502,-505.912 535.661,-498.788 532.929,-505.233"/>
</g>
<!-- Node9 -->
<g id="node9" class="node"><title>Node9</title>
<g id="a_node9"><a xlink:href="a00036.xhtml#ab2be6abc24dd344f63e082c19273d833" target="_top" xlink:title="Voxel::DepthCamera\l::getROI">
<polygon fill="none" stroke="black" points="537,-457 537,-487 645,-487 645,-457 537,-457"/>
<text text-anchor="start" x="545" y="-475" font-family="Helvetica,sans-Serif" font-size="10.00">Voxel::DepthCamera</text>
<text text-anchor="middle" x="591" y="-464" font-family="Helvetica,sans-Serif" font-size="10.00">::getROI</text>
</a>
</g>
</g>
<!-- Node7&#45;&gt;Node9 -->
<g id="edge8" class="edge"><title>Node7&#45;&gt;Node9</title>
<path fill="none" stroke="midnightblue" d="M474.468,-438.101C491.692,-443.155 511.059,-448.838 528.942,-454.085"/>
<polygon fill="midnightblue" stroke="midnightblue" points="528.121,-457.491 538.702,-456.948 530.092,-450.774 528.121,-457.491"/>
</g>
<!-- Node11 -->
<g id="node11" class="node"><title>Node11</title>
<g id="a_node11"><a xlink:href="a00031.xhtml#aeefbdefcac8743d6f08c25109480da2f" target="_top" xlink:title="Voxel::ConfigurationFile\l::getInteger">
<polygon fill="none" stroke="black" points="530.5,-408 530.5,-438 651.5,-438 651.5,-408 530.5,-408"/>
<text text-anchor="start" x="538.5" y="-426" font-family="Helvetica,sans-Serif" font-size="10.00">Voxel::ConfigurationFile</text>
<text text-anchor="middle" x="591" y="-415" font-family="Helvetica,sans-Serif" font-size="10.00">::getInteger</text>
</a>
</g>
</g>
<!-- Node7&#45;&gt;Node11 -->
<g id="edge10" class="edge"><title>Node7&#45;&gt;Node11</title>
<path fill="none" stroke="midnightblue" d="M479.073,-423C492.212,-423 506.369,-423 520.031,-423"/>
<polygon fill="midnightblue" stroke="midnightblue" points="520.356,-426.5 530.356,-423 520.356,-419.5 520.356,-426.5"/>
</g>
<!-- Node12 -->
<g id="node12" class="node"><title>Node12</title>
<g id="a_node12"><a xlink:href="a00031.xhtml#a3145251f8115c7ada128556345a41c62" target="_top" xlink:title="Voxel::ConfigurationFile\l::getFloat">
<polygon fill="none" stroke="black" points="530.5,-359 530.5,-389 651.5,-389 651.5,-359 530.5,-359"/>
<text text-anchor="start" x="538.5" y="-377" font-family="Helvetica,sans-Serif" font-size="10.00">Voxel::ConfigurationFile</text>
<text text-anchor="middle" x="591" y="-366" font-family="Helvetica,sans-Serif" font-size="10.00">::getFloat</text>
</a>
</g>
</g>
<!-- Node7&#45;&gt;Node12 -->
<g id="edge11" class="edge"><title>Node7&#45;&gt;Node12</title>
<path fill="none" stroke="midnightblue" d="M474.468,-407.899C491.692,-402.845 511.059,-397.162 528.942,-391.915"/>
<polygon fill="midnightblue" stroke="midnightblue" points="530.092,-395.226 538.702,-389.052 528.121,-388.509 530.092,-395.226"/>
</g>
<!-- Node13 -->
<g id="node13" class="node"><title>Node13</title>
<g id="a_node13"><a xlink:href="a00036.xhtml#aa229ee837c73aa2c78a8bd7a26fa0955" target="_top" xlink:title="Voxel::DepthCamera\l::getMaximumFrameSize">
<polygon fill="none" stroke="black" points="528,-310 528,-340 654,-340 654,-310 528,-310"/>
<text text-anchor="start" x="536" y="-328" font-family="Helvetica,sans-Serif" font-size="10.00">Voxel::DepthCamera</text>
<text text-anchor="middle" x="591" y="-317" font-family="Helvetica,sans-Serif" font-size="10.00">::getMaximumFrameSize</text>
</a>
</g>
</g>
<!-- Node7&#45;&gt;Node13 -->
<g id="edge12" class="edge"><title>Node7&#45;&gt;Node13</title>
<path fill="none" stroke="midnightblue" d="M439.796,-407.92C458.671,-391.601 490.77,-365.681 522,-349 525.285,-347.245 528.725,-345.574 532.24,-343.991"/>
<polygon fill="midnightblue" stroke="midnightblue" points="533.813,-347.126 541.661,-340.009 531.088,-340.678 533.813,-347.126"/>
</g>
<!-- Node15 -->
<g id="node15" class="node"><title>Node15</title>
<g id="a_node15"><a xlink:href="a00036.xhtml#a52d1041f172901ff9206b1b409d4711d" target="_top" xlink:title="Voxel::DepthCamera\l::getFrameSize">
<polygon fill="none" stroke="black" points="537,-261 537,-291 645,-291 645,-261 537,-261"/>
<text text-anchor="start" x="545" y="-279" font-family="Helvetica,sans-Serif" font-size="10.00">Voxel::DepthCamera</text>
<text text-anchor="middle" x="591" y="-268" font-family="Helvetica,sans-Serif" font-size="10.00">::getFrameSize</text>
</a>
</g>
</g>
<!-- Node7&#45;&gt;Node15 -->
<g id="edge14" class="edge"><title>Node7&#45;&gt;Node15</title>
<path fill="none" stroke="midnightblue" d="M431.342,-407.879C446.266,-382.157 479.944,-329.783 522,-300 524.101,-298.512 526.303,-297.109 528.576,-295.785"/>
<polygon fill="midnightblue" stroke="midnightblue" points="530.381,-298.792 537.636,-291.071 527.15,-292.582 530.381,-298.792"/>
</g>
<!-- Node17 -->
<g id="node17" class="node"><title>Node17</title>
<g id="a_node17"><a xlink:href="a00153.xhtml#acf6c3a732c5a47f38f2d461d76709091" target="_top" xlink:title="Voxel::TI::ToFCamera\l::_getBytesPerPixel">
<polygon fill="none" stroke="black" points="534,-555 534,-585 648,-585 648,-555 534,-555"/>
<text text-anchor="start" x="542" y="-573" font-family="Helvetica,sans-Serif" font-size="10.00">Voxel::TI::ToFCamera</text>
<text text-anchor="middle" x="591" y="-562" font-family="Helvetica,sans-Serif" font-size="10.00">::_getBytesPerPixel</text>
</a>
</g>
</g>
<!-- Node7&#45;&gt;Node17 -->
<g id="edge16" class="edge"><title>Node7&#45;&gt;Node17</title>
<path fill="none" stroke="midnightblue" d="M431.656,-438.346C446.808,-463.911 480.507,-515.334 522,-545 524.66,-546.902 527.482,-548.676 530.404,-550.327"/>
<polygon fill="midnightblue" stroke="midnightblue" points="528.915,-553.497 539.413,-554.922 532.095,-547.261 528.915,-553.497"/>
</g>
<!-- Node20 -->
<g id="node20" class="node"><title>Node20</title>
<g id="a_node20"><a xlink:href="a00153.xhtml#a8722e9125739af3cd8c9291b7b6f126a" target="_top" xlink:title="Voxel::TI::ToFCamera\l::_getOpDataArrangeMode">
<polygon fill="none" stroke="black" points="524.5,-212 524.5,-242 657.5,-242 657.5,-212 524.5,-212"/>
<text text-anchor="start" x="532.5" y="-230" font-family="Helvetica,sans-Serif" font-size="10.00">Voxel::TI::ToFCamera</text>
<text text-anchor="middle" x="591" y="-219" font-family="Helvetica,sans-Serif" font-size="10.00">::_getOpDataArrangeMode</text>
</a>
</g>
</g>
<!-- Node7&#45;&gt;Node20 -->
<g id="edge20" class="edge"><title>Node7&#45;&gt;Node20</title>
<path fill="none" stroke="midnightblue" d="M427.617,-407.988C438.553,-374.86 469.159,-294.96 522,-251 523.552,-249.709 525.178,-248.485 526.863,-247.326"/>
<polygon fill="midnightblue" stroke="midnightblue" points="528.914,-250.178 535.706,-242.046 525.326,-244.167 528.914,-250.178"/>
</g>
<!-- Node21 -->
<g id="node21" class="node"><title>Node21</title>
<g id="a_node21"><a xlink:href="a00153.xhtml#a53e0fb4c6f4d4b9ac37b6f1ca763a104" target="_top" xlink:title="Voxel::TI::ToFCamera\l::_getToFFrameType">
<polygon fill="none" stroke="black" points="534,-604 534,-634 648,-634 648,-604 534,-604"/>
<text text-anchor="start" x="542" y="-622" font-family="Helvetica,sans-Serif" font-size="10.00">Voxel::TI::ToFCamera</text>
<text text-anchor="middle" x="591" y="-611" font-family="Helvetica,sans-Serif" font-size="10.00">::_getToFFrameType</text>
</a>
</g>
</g>
<!-- Node7&#45;&gt;Node21 -->
<g id="edge21" class="edge"><title>Node7&#45;&gt;Node21</title>
<path fill="none" stroke="midnightblue" d="M427.768,-438.123C438.911,-471.107 469.751,-550.067 522,-594 523.98,-595.665 526.08,-597.223 528.269,-598.682"/>
<polygon fill="midnightblue" stroke="midnightblue" points="526.681,-601.808 537.082,-603.826 530.21,-595.762 526.681,-601.808"/>
</g>
<!-- Node22 -->
<g id="node22" class="node"><title>Node22</title>
<g id="a_node22"><a xlink:href="a00153.xhtml#af3a59471799f2526c520511f688d247c" target="_top" xlink:title="Voxel::TI::ToFCamera\l::_is16BitModeEnabled">
<polygon fill="none" stroke="black" points="532.5,-163 532.5,-193 649.5,-193 649.5,-163 532.5,-163"/>
<text text-anchor="start" x="540.5" y="-181" font-family="Helvetica,sans-Serif" font-size="10.00">Voxel::TI::ToFCamera</text>
<text text-anchor="middle" x="591" y="-170" font-family="Helvetica,sans-Serif" font-size="10.00">::_is16BitModeEnabled</text>
</a>
</g>
</g>
<!-- Node7&#45;&gt;Node22 -->
<g id="edge23" class="edge"><title>Node7&#45;&gt;Node22</title>
<path fill="none" stroke="midnightblue" d="M425.565,-407.717C433.015,-368.025 458.305,-260.683 522,-202 523.151,-200.94 524.352,-199.926 525.594,-198.956"/>
<polygon fill="midnightblue" stroke="midnightblue" points="527.918,-201.615 534.327,-193.178 524.056,-195.777 527.918,-201.615"/>
</g>
<!-- Node23 -->
<g id="node23" class="node"><title>Node23</title>
<g id="a_node23"><a xlink:href="a00096.xhtml#a0d061a6b01c29c40af3288f4783c3c07" target="_top" xlink:title="Voxel::MainConfiguration\lFile::isPresent">
<polygon fill="none" stroke="black" points="528,-114 528,-144 654,-144 654,-114 528,-114"/>
<text text-anchor="start" x="536" y="-132" font-family="Helvetica,sans-Serif" font-size="10.00">Voxel::MainConfiguration</text>
<text text-anchor="middle" x="591" y="-121" font-family="Helvetica,sans-Serif" font-size="10.00">File::isPresent</text>
</a>
</g>
</g>
<!-- Node7&#45;&gt;Node23 -->
<g id="edge24" class="edge"><title>Node7&#45;&gt;Node23</title>
<path fill="none" stroke="midnightblue" d="M424.155,-407.768C428.399,-362.449 447.058,-227.036 522,-153 523.085,-151.928 524.222,-150.903 525.401,-149.924"/>
<polygon fill="midnightblue" stroke="midnightblue" points="527.545,-152.696 533.741,-144.102 523.538,-146.957 527.545,-152.696"/>
</g>
<!-- Node33 -->
<g id="node33" class="node"><title>Node33</title>
<g id="a_node33"><a xlink:href="a00096.xhtml#a700e33f6f37c59f24bdea5db5a037898" target="_top" xlink:title="Voxel::MainConfiguration\lFile::getFile">
<polygon fill="none" stroke="black" points="528,-8 528,-38 654,-38 654,-8 528,-8"/>
<text text-anchor="start" x="536" y="-26" font-family="Helvetica,sans-Serif" font-size="10.00">Voxel::MainConfiguration</text>
<text text-anchor="middle" x="591" y="-15" font-family="Helvetica,sans-Serif" font-size="10.00">File::getFile</text>
</a>
</g>
</g>
<!-- Node7&#45;&gt;Node33 -->
<g id="edge36" class="edge"><title>Node7&#45;&gt;Node33</title>
<path fill="none" stroke="midnightblue" d="M422.777,-407.645C422.791,-352.96 429.854,-165.095 522,-55 525.755,-50.5132 530.282,-46.6164 535.193,-43.2406"/>
<polygon fill="midnightblue" stroke="midnightblue" points="537.026,-46.2223 543.756,-38.0389 533.392,-40.2397 537.026,-46.2223"/>
</g>
<!-- Node37 -->
<g id="node37" class="node"><title>Node37</title>
<g id="a_node37"><a xlink:href="a00153.xhtml#a3c35074af2f6b686cea15db188b9c53f" target="_top" xlink:title="Voxel::TI::ToFCamera\l::_isHistogramEnabled">
<polygon fill="none" stroke="black" points="533,-751 533,-781 649,-781 649,-751 533,-751"/>
<text text-anchor="start" x="541" y="-769" font-family="Helvetica,sans-Serif" font-size="10.00">Voxel::TI::ToFCamera</text>
<text text-anchor="middle" x="591" y="-758" font-family="Helvetica,sans-Serif" font-size="10.00">::_isHistogramEnabled</text>
</a>
</g>
</g>
<!-- Node7&#45;&gt;Node37 -->
<g id="edge40" class="edge"><title>Node7&#45;&gt;Node37</title>
<path fill="none" stroke="midnightblue" d="M427.888,-438.208C438.567,-471.486 464.73,-553.283 486,-622 502.339,-674.785 484.088,-700.801 522,-741 523.246,-742.321 524.568,-743.573 525.953,-744.758"/>
<polygon fill="midnightblue" stroke="midnightblue" points="524.317,-747.891 534.489,-750.855 528.385,-742.195 524.317,-747.891"/>
</g>
<!-- Node38 -->
<g id="node38" class="node"><title>Node38</title>
<g id="a_node38"><a xlink:href="a00096.xhtml#a0450eaddb1180226c1a3e898e978aba4" target="_top" xlink:title="Voxel::MainConfiguration\lFile::get">
<polygon fill="none" stroke="black" points="528,-65 528,-95 654,-95 654,-65 528,-65"/>
<text text-anchor="start" x="536" y="-83" font-family="Helvetica,sans-Serif" font-size="10.00">Voxel::MainConfiguration</text>
<text text-anchor="middle" x="591" y="-72" font-family="Helvetica,sans-Serif" font-size="10.00">File::get</text>
</a>
</g>
</g>
<!-- Node7&#45;&gt;Node38 -->
<g id="edge41" class="edge"><title>Node7&#45;&gt;Node38</title>
<path fill="none" stroke="midnightblue" d="M423.152,-407.986C424.481,-357.777 435.55,-193.833 522,-104 522.928,-103.036 523.897,-102.11 524.901,-101.222"/>
<polygon fill="midnightblue" stroke="midnightblue" points="527.235,-103.851 533.226,-95.1133 523.094,-98.2076 527.235,-103.851"/>
</g>
<!-- Node41 -->
<g id="node41" class="node"><title>Node41</title>
<g id="a_node41"><a xlink:href="a00153.xhtml#a5ce6e98d8496efd0b62d926e73809034" target="_top" xlink:title="Voxel::TI::ToFCamera\l::_applyCalibrationParams">
<polygon fill="none" stroke="black" points="525.5,-702 525.5,-732 656.5,-732 656.5,-702 525.5,-702"/>
<text text-anchor="start" x="533.5" y="-720" font-family="Helvetica,sans-Serif" font-size="10.00">Voxel::TI::ToFCamera</text>
<text text-anchor="middle" x="591" y="-709" font-family="Helvetica,sans-Serif" font-size="10.00">::_applyCalibrationParams</text>
</a>
</g>
</g>
<!-- Node7&#45;&gt;Node41 -->
<g id="edge47" class="edge"><title>Node7&#45;&gt;Node41</title>
<path fill="none" stroke="midnightblue" d="M427.745,-438.124C444.782,-492.072 502.863,-672.87 522,-692 523.434,-693.434 524.958,-694.786 526.554,-696.062"/>
<polygon fill="midnightblue" stroke="midnightblue" points="524.813,-699.11 535.055,-701.82 528.738,-693.315 524.813,-699.11"/>
</g>
<!-- Node42 -->
<g id="node42" class="node"><title>Node42</title>
<g id="a_node42"><a xlink:href="a00154.xhtml#aceb0704d27455da6268e3d5b4a92c411" target="_top" xlink:title="Voxel::TI::ToFCameraBase\l::_initStartParams">
<polygon fill="none" stroke="black" points="522.5,-653 522.5,-683 659.5,-683 659.5,-653 522.5,-653"/>
<text text-anchor="start" x="530.5" y="-671" font-family="Helvetica,sans-Serif" font-size="10.00">Voxel::TI::ToFCameraBase</text>
<text text-anchor="middle" x="591" y="-660" font-family="Helvetica,sans-Serif" font-size="10.00">::_initStartParams</text>
</a>
</g>
</g>
<!-- Node7&#45;&gt;Node42 -->
<g id="edge48" class="edge"><title>Node7&#45;&gt;Node42</title>
<path fill="none" stroke="midnightblue" d="M425.631,-438.167C433.238,-477.569 458.877,-584.18 522,-643 523.682,-644.568 525.471,-646.039 527.343,-647.419"/>
<polygon fill="midnightblue" stroke="midnightblue" points="525.684,-650.512 536.004,-652.91 529.432,-644.6 525.684,-650.512"/>
</g>
<!-- Node10 -->
<g id="node10" class="node"><title>Node10</title>
<g id="a_node10"><a xlink:href="a00036.xhtml#ae09d2aaee73e56b4b488897f6081191e" target="_top" xlink:title="Voxel::DepthCamera\l::_getROI">
<polygon fill="none" stroke="black" points="724,-457 724,-487 832,-487 832,-457 724,-457"/>
<text text-anchor="start" x="732" y="-475" font-family="Helvetica,sans-Serif" font-size="10.00">Voxel::DepthCamera</text>
<text text-anchor="middle" x="778" y="-464" font-family="Helvetica,sans-Serif" font-size="10.00">::_getROI</text>
</a>
</g>
</g>
<!-- Node9&#45;&gt;Node10 -->
<g id="edge9" class="edge"><title>Node9&#45;&gt;Node10</title>
<path fill="none" stroke="midnightblue" d="M645.014,-472C666.495,-472 691.473,-472 713.884,-472"/>
<polygon fill="midnightblue" stroke="midnightblue" points="713.979,-475.5 723.979,-472 713.979,-468.5 713.979,-475.5"/>
</g>
<!-- Node14 -->
<g id="node14" class="node"><title>Node14</title>
<g id="a_node14"><a xlink:href="a00036.xhtml#a81260a37bfc6da411b8d3d71342a2eda" target="_top" xlink:title="Voxel::DepthCamera\l::_getMaximumFrameSize">
<polygon fill="none" stroke="black" points="712.5,-310 712.5,-340 843.5,-340 843.5,-310 712.5,-310"/>
<text text-anchor="start" x="720.5" y="-328" font-family="Helvetica,sans-Serif" font-size="10.00">Voxel::DepthCamera</text>
<text text-anchor="middle" x="778" y="-317" font-family="Helvetica,sans-Serif" font-size="10.00">::_getMaximumFrameSize</text>
</a>
</g>
</g>
<!-- Node13&#45;&gt;Node14 -->
<g id="edge13" class="edge"><title>Node13&#45;&gt;Node14</title>
<path fill="none" stroke="midnightblue" d="M654.117,-325C669.444,-325 686.023,-325 701.894,-325"/>
<polygon fill="midnightblue" stroke="midnightblue" points="702.201,-328.5 712.201,-325 702.201,-321.5 702.201,-328.5"/>
</g>
<!-- Node16 -->
<g id="node16" class="node"><title>Node16</title>
<g id="a_node16"><a xlink:href="a00036.xhtml#a7cca2c2413b60d0d2ef26e0cb8802118" target="_top" xlink:title="Voxel::DepthCamera\l::_getFrameSize">
<polygon fill="none" stroke="black" points="724,-261 724,-291 832,-291 832,-261 724,-261"/>
<text text-anchor="start" x="732" y="-279" font-family="Helvetica,sans-Serif" font-size="10.00">Voxel::DepthCamera</text>
<text text-anchor="middle" x="778" y="-268" font-family="Helvetica,sans-Serif" font-size="10.00">::_getFrameSize</text>
</a>
</g>
</g>
<!-- Node15&#45;&gt;Node16 -->
<g id="edge15" class="edge"><title>Node15&#45;&gt;Node16</title>
<path fill="none" stroke="midnightblue" d="M645.014,-276C666.495,-276 691.473,-276 713.884,-276"/>
<polygon fill="midnightblue" stroke="midnightblue" points="713.979,-279.5 723.979,-276 713.979,-272.5 713.979,-279.5"/>
</g>
<!-- Node18 -->
<g id="node18" class="node"><title>Node18</title>
<g id="a_node18"><a xlink:href="a00036.xhtml#ac850b3829f41e647686610c283197ea6" target="_top" xlink:title="Voxel::DepthCamera\l::_get">
<polygon fill="none" stroke="black" points="724,-604 724,-634 832,-634 832,-604 724,-604"/>
<text text-anchor="start" x="732" y="-622" font-family="Helvetica,sans-Serif" font-size="10.00">Voxel::DepthCamera</text>
<text text-anchor="middle" x="778" y="-611" font-family="Helvetica,sans-Serif" font-size="10.00">::_get</text>
</a>
</g>
</g>
<!-- Node17&#45;&gt;Node18 -->
<g id="edge17" class="edge"><title>Node17&#45;&gt;Node18</title>
<path fill="none" stroke="midnightblue" d="M648.008,-584.835C668.757,-590.33 692.423,-596.598 713.77,-602.253"/>
<polygon fill="midnightblue" stroke="midnightblue" points="713.154,-605.71 723.717,-604.887 714.947,-598.943 713.154,-605.71"/>
</g>
<!-- Node18&#45;&gt;Node5 -->
<g id="edge19" class="edge"><title>Node18&#45;&gt;Node5</title>
<path fill="none" stroke="midnightblue" d="M832.117,-632.297C841.585,-635.351 851.221,-638.922 860,-643 890.47,-657.155 922.202,-678.836 943.896,-694.896"/>
<polygon fill="midnightblue" stroke="midnightblue" points="941.879,-697.759 951.978,-700.963 946.082,-692.161 941.879,-697.759"/>
</g>
<!-- Node19 -->
<g id="node19" class="node"><title>Node19</title>
<g id="a_node19"><a xlink:href="a00103.xhtml#afa8896eaffbd2b87d1482c0967a0fe1d" target="_top" xlink:title="Voxel::ParameterTemplate::get">
<polygon fill="none" stroke="black" points="896,-609.5 896,-628.5 1048,-628.5 1048,-609.5 896,-609.5"/>
<text text-anchor="middle" x="972" y="-616.5" font-family="Helvetica,sans-Serif" font-size="10.00">Voxel::ParameterTemplate::get</text>
</a>
</g>
</g>
<!-- Node18&#45;&gt;Node19 -->
<g id="edge18" class="edge"><title>Node18&#45;&gt;Node19</title>
<path fill="none" stroke="midnightblue" d="M832.228,-619C848.802,-619 867.514,-619 885.707,-619"/>
<polygon fill="midnightblue" stroke="midnightblue" points="885.743,-622.5 895.743,-619 885.743,-615.5 885.743,-622.5"/>
</g>
<!-- Node21&#45;&gt;Node18 -->
<g id="edge22" class="edge"><title>Node21&#45;&gt;Node18</title>
<path fill="none" stroke="midnightblue" d="M648.008,-619C668.663,-619 692.209,-619 713.48,-619"/>
<polygon fill="midnightblue" stroke="midnightblue" points="713.717,-622.5 723.717,-619 713.717,-615.5 713.717,-622.5"/>
</g>
<!-- Node24 -->
<g id="node24" class="node"><title>Node24</title>
<g id="a_node24"><a xlink:href="a00031.xhtml#a00e007801296e76b05ef10f1c8176c2d" target="_top" xlink:title="Voxel::ConfigurationFile\l::isPresent">
<polygon fill="none" stroke="black" points="717.5,-132 717.5,-162 838.5,-162 838.5,-132 717.5,-132"/>
<text text-anchor="start" x="725.5" y="-150" font-family="Helvetica,sans-Serif" font-size="10.00">Voxel::ConfigurationFile</text>
<text text-anchor="middle" x="778" y="-139" font-family="Helvetica,sans-Serif" font-size="10.00">::isPresent</text>
</a>
</g>
</g>
<!-- Node23&#45;&gt;Node24 -->
<g id="edge25" class="edge"><title>Node23&#45;&gt;Node24</title>
<path fill="none" stroke="midnightblue" d="M654.117,-135.044C671.14,-136.7 689.708,-138.507 707.133,-140.202"/>
<polygon fill="midnightblue" stroke="midnightblue" points="706.949,-143.701 717.241,-141.186 707.627,-136.734 706.949,-143.701"/>
</g>
<!-- Node24&#45;&gt;Node24 -->
<g id="edge28" class="edge"><title>Node24&#45;&gt;Node24</title>
<path fill="none" stroke="midnightblue" d="M745.305,-162.275C738.039,-171.406 748.938,-180 778,-180 795.256,-180 806.108,-176.97 810.557,-172.598"/>
<polygon fill="midnightblue" stroke="midnightblue" points="814.061,-172.321 810.695,-162.275 807.062,-172.228 814.061,-172.321"/>
</g>
<!-- Node25 -->
<g id="node25" class="node"><title>Node25</title>
<g id="a_node25"><a xlink:href="a00096.xhtml#ab24aaf7b18fea74c6f235da04fadbed0" target="_top" xlink:title="Voxel::MainConfiguration\lFile::getCameraProfile">
<polygon fill="none" stroke="black" points="909,-88 909,-118 1035,-118 1035,-88 909,-88"/>
<text text-anchor="start" x="917" y="-106" font-family="Helvetica,sans-Serif" font-size="10.00">Voxel::MainConfiguration</text>
<text text-anchor="middle" x="972" y="-95" font-family="Helvetica,sans-Serif" font-size="10.00">File::getCameraProfile</text>
</a>
</g>
</g>
<!-- Node24&#45;&gt;Node25 -->
<g id="edge26" class="edge"><title>Node24&#45;&gt;Node25</title>
<path fill="none" stroke="midnightblue" d="M838.698,-133.319C857.72,-128.96 878.973,-124.089 898.784,-119.55"/>
<polygon fill="midnightblue" stroke="midnightblue" points="899.718,-122.926 908.684,-117.281 898.155,-116.103 899.718,-122.926"/>
</g>
<!-- Node26 -->
<g id="node26" class="node"><title>Node26</title>
<g id="a_node26"><a xlink:href="a00029.xhtml#ab7930d0d21d160341d989ef998ecac73" target="_top" xlink:title="Voxel::ConfigSet::isPresent">
<polygon fill="none" stroke="black" points="903,-175.5 903,-194.5 1041,-194.5 1041,-175.5 903,-175.5"/>
<text text-anchor="middle" x="972" y="-182.5" font-family="Helvetica,sans-Serif" font-size="10.00">Voxel::ConfigSet::isPresent</text>
</a>
</g>
</g>
<!-- Node24&#45;&gt;Node26 -->
<g id="edge27" class="edge"><title>Node24&#45;&gt;Node26</title>
<path fill="none" stroke="midnightblue" d="M838.698,-158.815C862.393,-163.505 889.548,-168.879 913.067,-173.534"/>
<polygon fill="midnightblue" stroke="midnightblue" points="912.413,-176.973 922.903,-175.481 913.772,-170.106 912.413,-176.973"/>
</g>
<!-- Node27 -->
<g id="node27" class="node"><title>Node27</title>
<g id="a_node27"><a xlink:href="a00031.xhtml#a440d9dd2f89d0c76c81f7285b31a5b94" target="_top" xlink:title="Voxel::ConfigurationFile::set">
<polygon fill="none" stroke="black" points="902,-137.5 902,-156.5 1042,-156.5 1042,-137.5 902,-137.5"/>
<text text-anchor="middle" x="972" y="-144.5" font-family="Helvetica,sans-Serif" font-size="10.00">Voxel::ConfigurationFile::set</text>
</a>
</g>
</g>
<!-- Node24&#45;&gt;Node27 -->
<g id="edge29" class="edge"><title>Node24&#45;&gt;Node27</title>
<path fill="none" stroke="midnightblue" d="M838.698,-147C855.445,-147 873.922,-147 891.621,-147"/>
<polygon fill="midnightblue" stroke="midnightblue" points="891.934,-150.5 901.934,-147 891.934,-143.5 891.934,-150.5"/>
</g>
<!-- Node28 -->
<g id="node28" class="node"><title>Node28</title>
<g id="a_node28"><a xlink:href="a00031.xhtml#a3b9b573c1a3d9162fc0100c317ca0879" target="_top" xlink:title="Voxel::ConfigurationFile\l::_set">
<polygon fill="none" stroke="black" points="1084.5,-132 1084.5,-162 1205.5,-162 1205.5,-132 1084.5,-132"/>
<text text-anchor="start" x="1092.5" y="-150" font-family="Helvetica,sans-Serif" font-size="10.00">Voxel::ConfigurationFile</text>
<text text-anchor="middle" x="1145" y="-139" font-family="Helvetica,sans-Serif" font-size="10.00">::_set</text>
</a>
</g>
</g>
<!-- Node27&#45;&gt;Node28 -->
<g id="edge30" class="edge"><title>Node27&#45;&gt;Node28</title>
<path fill="none" stroke="midnightblue" d="M1042.06,-140.362C1052.67,-140.216 1063.62,-140.213 1074.25,-140.353"/>
<polygon fill="midnightblue" stroke="midnightblue" points="1074.24,-143.853 1084.3,-140.531 1074.37,-136.854 1074.24,-143.853"/>
</g>
<!-- Node28&#45;&gt;Node27 -->
<g id="edge35" class="edge"><title>Node28&#45;&gt;Node27</title>
<path fill="none" stroke="midnightblue" d="M1084.3,-153.469C1073.97,-153.701 1063.07,-153.789 1052.31,-153.734"/>
<polygon fill="midnightblue" stroke="midnightblue" points="1052.09,-150.232 1042.06,-153.638 1052.03,-157.232 1052.09,-150.232"/>
</g>
<!-- Node29 -->
<g id="node29" class="node"><title>Node29</title>
<g id="a_node29"><a xlink:href="a00029.xhtml#a8fb880c24ad7b0f04c84d4a33becb995" target="_top" xlink:title="Voxel::ConfigSet::_set">
<polygon fill="none" stroke="black" points="1242,-137.5 1242,-156.5 1358,-156.5 1358,-137.5 1242,-137.5"/>
<text text-anchor="middle" x="1300" y="-144.5" font-family="Helvetica,sans-Serif" font-size="10.00">Voxel::ConfigSet::_set</text>
</a>
</g>
</g>
<!-- Node28&#45;&gt;Node29 -->
<g id="edge31" class="edge"><title>Node28&#45;&gt;Node29</title>
<path fill="none" stroke="midnightblue" d="M1205.59,-147C1214.16,-147 1223.02,-147 1231.72,-147"/>
<polygon fill="midnightblue" stroke="midnightblue" points="1231.83,-150.5 1241.83,-147 1231.83,-143.5 1231.83,-150.5"/>
</g>
<!-- Node30 -->
<g id="node30" class="node"><title>Node30</title>
<g id="a_node30"><a xlink:href="a00390.xhtml#ga6b2a26aa983349496fedae9aa54ad034" target="_top" xlink:title="Trim. ">
<polygon fill="none" stroke="black" points="1394,-137.5 1394,-156.5 1458,-156.5 1458,-137.5 1394,-137.5"/>
<text text-anchor="middle" x="1426" y="-144.5" font-family="Helvetica,sans-Serif" font-size="10.00">Voxel::trim</text>
</a>
</g>
</g>
<!-- Node29&#45;&gt;Node30 -->
<g id="edge32" class="edge"><title>Node29&#45;&gt;Node30</title>
<path fill="none" stroke="midnightblue" d="M1358.28,-147C1366.75,-147 1375.34,-147 1383.41,-147"/>
<polygon fill="midnightblue" stroke="midnightblue" points="1383.67,-150.5 1393.67,-147 1383.67,-143.5 1383.67,-150.5"/>
</g>
<!-- Node31 -->
<g id="node31" class="node"><title>Node31</title>
<g id="a_node31"><a xlink:href="a00390.xhtml#gac9c04e18f7878dd82964bb489b7b1314" target="_top" xlink:title="Left Trim. ">
<polygon fill="none" stroke="black" points="1495,-156.5 1495,-175.5 1561,-175.5 1561,-156.5 1495,-156.5"/>
<text text-anchor="middle" x="1528" y="-163.5" font-family="Helvetica,sans-Serif" font-size="10.00">Voxel::ltrim</text>
</a>
</g>
</g>
<!-- Node30&#45;&gt;Node31 -->
<g id="edge33" class="edge"><title>Node30&#45;&gt;Node31</title>
<path fill="none" stroke="midnightblue" d="M1458.09,-152.908C1466.59,-154.522 1475.94,-156.299 1484.94,-158.009"/>
<polygon fill="midnightblue" stroke="midnightblue" points="1484.41,-161.471 1494.89,-159.899 1485.72,-154.594 1484.41,-161.471"/>
</g>
<!-- Node32 -->
<g id="node32" class="node"><title>Node32</title>
<g id="a_node32"><a xlink:href="a00390.xhtml#ga3d95f05dde73bc9c54051437445e439b" target="_top" xlink:title="Right Trim. ">
<polygon fill="none" stroke="black" points="1494.5,-118.5 1494.5,-137.5 1561.5,-137.5 1561.5,-118.5 1494.5,-118.5"/>
<text text-anchor="middle" x="1528" y="-125.5" font-family="Helvetica,sans-Serif" font-size="10.00">Voxel::rtrim</text>
</a>
</g>
</g>
<!-- Node30&#45;&gt;Node32 -->
<g id="edge34" class="edge"><title>Node30&#45;&gt;Node32</title>
<path fill="none" stroke="midnightblue" d="M1458.09,-141.092C1466.33,-139.526 1475.38,-137.808 1484.13,-136.146"/>
<polygon fill="midnightblue" stroke="midnightblue" points="1485.02,-139.538 1494.2,-134.233 1483.72,-132.661 1485.02,-139.538"/>
</g>
<!-- Node34 -->
<g id="node34" class="node"><title>Node34</title>
<g id="a_node34"><a xlink:href="a00031.xhtml#a49e5d191d816bda45d31e29a29272c9d" target="_top" xlink:title="Voxel::ConfigurationFile\l::getFile">
<polygon fill="none" stroke="black" points="717.5,-4 717.5,-34 838.5,-34 838.5,-4 717.5,-4"/>
<text text-anchor="start" x="725.5" y="-22" font-family="Helvetica,sans-Serif" font-size="10.00">Voxel::ConfigurationFile</text>
<text text-anchor="middle" x="778" y="-11" font-family="Helvetica,sans-Serif" font-size="10.00">::getFile</text>
</a>
</g>
</g>
<!-- Node33&#45;&gt;Node34 -->
<g id="edge37" class="edge"><title>Node33&#45;&gt;Node34</title>
<path fill="none" stroke="midnightblue" d="M654.117,-21.6569C671.14,-21.2889 689.708,-20.8874 707.133,-20.5106"/>
<polygon fill="midnightblue" stroke="midnightblue" points="707.319,-24.0075 717.241,-20.2921 707.168,-17.0092 707.319,-24.0075"/>
</g>
<!-- Node35 -->
<g id="node35" class="node"><title>Node35</title>
<g id="a_node35"><a xlink:href="a00031.xhtml#a69e6c29b1e3caafca6e783937834113b" target="_top" xlink:title="Voxel::ConfigurationFile\l::_getData">
<polygon fill="none" stroke="black" points="911.5,-0 911.5,-30 1032.5,-30 1032.5,-0 911.5,-0"/>
<text text-anchor="start" x="919.5" y="-18" font-family="Helvetica,sans-Serif" font-size="10.00">Voxel::ConfigurationFile</text>
<text text-anchor="middle" x="972" y="-7" font-family="Helvetica,sans-Serif" font-size="10.00">::_getData</text>
</a>
</g>
</g>
<!-- Node34&#45;&gt;Node35 -->
<g id="edge38" class="edge"><title>Node34&#45;&gt;Node35</title>
<path fill="none" stroke="midnightblue" d="M838.698,-17.7563C858.474,-17.3443 880.66,-16.8821 901.131,-16.4556"/>
<polygon fill="midnightblue" stroke="midnightblue" points="901.414,-19.9506 911.339,-16.2429 901.269,-12.9521 901.414,-19.9506"/>
</g>
<!-- Node36 -->
<g id="node36" class="node"><title>Node36</title>
<g id="a_node36"><a xlink:href="a00030.xhtml#aeed2f5638591b839dd233e8673a977e5" target="_top" xlink:title="Updates &quot;name&quot; to full path. ">
<polygon fill="none" stroke="black" points="1092.5,-0 1092.5,-30 1197.5,-30 1197.5,-0 1092.5,-0"/>
<text text-anchor="start" x="1100.5" y="-18" font-family="Helvetica,sans-Serif" font-size="10.00">Voxel::Configuration</text>
<text text-anchor="middle" x="1145" y="-7" font-family="Helvetica,sans-Serif" font-size="10.00">::getConfFile</text>
</a>
</g>
</g>
<!-- Node35&#45;&gt;Node36 -->
<g id="edge39" class="edge"><title>Node35&#45;&gt;Node36</title>
<path fill="none" stroke="midnightblue" d="M1032.81,-15C1048.77,-15 1066.04,-15 1082.11,-15"/>
<polygon fill="midnightblue" stroke="midnightblue" points="1082.47,-18.5001 1092.47,-15 1082.47,-11.5001 1082.47,-18.5001"/>
</g>
<!-- Node39 -->
<g id="node39" class="node"><title>Node39</title>
<g id="a_node39"><a xlink:href="a00031.xhtml#af5573f5dba76f1fde00220b892f8121c" target="_top" xlink:title="Voxel::ConfigurationFile\l::_get">
<polygon fill="none" stroke="black" points="717.5,-65 717.5,-95 838.5,-95 838.5,-65 717.5,-65"/>
<text text-anchor="start" x="725.5" y="-83" font-family="Helvetica,sans-Serif" font-size="10.00">Voxel::ConfigurationFile</text>
<text text-anchor="middle" x="778" y="-72" font-family="Helvetica,sans-Serif" font-size="10.00">::_get</text>
</a>
</g>
</g>
<!-- Node38&#45;&gt;Node39 -->
<g id="edge42" class="edge"><title>Node38&#45;&gt;Node39</title>
<path fill="none" stroke="midnightblue" d="M654.117,-80C671.14,-80 689.708,-80 707.133,-80"/>
<polygon fill="midnightblue" stroke="midnightblue" points="707.241,-83.5001 717.241,-80 707.241,-76.5001 707.241,-83.5001"/>
</g>
<!-- Node39&#45;&gt;Node25 -->
<g id="edge45" class="edge"><title>Node39&#45;&gt;Node25</title>
<path fill="none" stroke="midnightblue" d="M838.698,-87.1513C857.633,-89.4196 878.779,-91.9527 898.512,-94.3166"/>
<polygon fill="midnightblue" stroke="midnightblue" points="898.338,-97.8207 908.684,-95.535 899.171,-90.8704 898.338,-97.8207"/>
</g>
<!-- Node39&#45;&gt;Node27 -->
<g id="edge46" class="edge"><title>Node39&#45;&gt;Node27</title>
<path fill="none" stroke="midnightblue" d="M813.403,-95.1026C836.498,-104.922 867.753,-117.599 896,-127 904.179,-129.722 912.954,-132.333 921.515,-134.718"/>
<polygon fill="midnightblue" stroke="midnightblue" points="920.852,-138.164 931.42,-137.406 922.686,-131.409 920.852,-138.164"/>
</g>
<!-- Node39&#45;&gt;Node39 -->
<g id="edge44" class="edge"><title>Node39&#45;&gt;Node39</title>
<path fill="none" stroke="midnightblue" d="M745.305,-95.2754C738.039,-104.406 748.938,-113 778,-113 795.256,-113 806.108,-109.97 810.557,-105.598"/>
<polygon fill="midnightblue" stroke="midnightblue" points="814.061,-105.321 810.695,-95.2754 807.062,-105.228 814.061,-105.321"/>
</g>
<!-- Node40 -->
<g id="node40" class="node"><title>Node40</title>
<g id="a_node40"><a xlink:href="a00029.xhtml#a49e4060aa2bc96690da36bdf5ef7b227" target="_top" xlink:title="Voxel::ConfigSet::_get">
<polygon fill="none" stroke="black" points="914,-49.5 914,-68.5 1030,-68.5 1030,-49.5 914,-49.5"/>
<text text-anchor="middle" x="972" y="-56.5" font-family="Helvetica,sans-Serif" font-size="10.00">Voxel::ConfigSet::_get</text>
</a>
</g>
</g>
<!-- Node39&#45;&gt;Node40 -->
<g id="edge43" class="edge"><title>Node39&#45;&gt;Node40</title>
<path fill="none" stroke="midnightblue" d="M838.698,-73.4706C859.321,-71.2149 882.565,-68.6726 903.752,-66.3553"/>
<polygon fill="midnightblue" stroke="midnightblue" points="904.406,-69.8047 913.966,-65.2381 903.645,-62.8462 904.406,-69.8047"/>
</g>
<!-- Node43 -->
<g id="node43" class="node"><title>Node43</title>
<g id="a_node43"><a xlink:href="a00154.xhtml#aff5c5aefff04e8514ab56adde5e25c28" target="_top" xlink:title="Voxel::TI::ToFCameraBase\l::_getAmplitudeNormalizingFactor">
<polygon fill="none" stroke="black" points="696,-653 696,-683 860,-683 860,-653 696,-653"/>
<text text-anchor="start" x="704" y="-671" font-family="Helvetica,sans-Serif" font-size="10.00">Voxel::TI::ToFCameraBase</text>
<text text-anchor="middle" x="778" y="-660" font-family="Helvetica,sans-Serif" font-size="10.00">::_getAmplitudeNormalizingFactor</text>
</a>
</g>
</g>
<!-- Node42&#45;&gt;Node43 -->
<g id="edge49" class="edge"><title>Node42&#45;&gt;Node43</title>
<path fill="none" stroke="midnightblue" d="M659.575,-668C668.032,-668 676.79,-668 685.535,-668"/>
<polygon fill="midnightblue" stroke="midnightblue" points="685.777,-671.5 695.777,-668 685.777,-664.5 685.777,-671.5"/>
</g>
<!-- Node44 -->
<g id="node44" class="node"><title>Node44</title>
<g id="a_node44"><a xlink:href="a00154.xhtml#a8e7ab32dbadf1d8c7fd4e7611e7e63c4" target="_top" xlink:title="Voxel::TI::ToFCameraBase\l::_getDepthScalingFactor">
<polygon fill="none" stroke="black" points="709.5,-702 709.5,-732 846.5,-732 846.5,-702 709.5,-702"/>
<text text-anchor="start" x="717.5" y="-720" font-family="Helvetica,sans-Serif" font-size="10.00">Voxel::TI::ToFCameraBase</text>
<text text-anchor="middle" x="778" y="-709" font-family="Helvetica,sans-Serif" font-size="10.00">::_getDepthScalingFactor</text>
</a>
</g>
</g>
<!-- Node42&#45;&gt;Node44 -->
<g id="edge50" class="edge"><title>Node42&#45;&gt;Node44</title>
<path fill="none" stroke="midnightblue" d="M648.763,-683.035C668.297,-688.208 690.343,-694.048 710.576,-699.407"/>
<polygon fill="midnightblue" stroke="midnightblue" points="709.781,-702.817 720.344,-701.994 711.573,-696.05 709.781,-702.817"/>
</g>
</g>
</svg>
        <g id="navigator" transform="translate(0 0)" fill="#404254">
                <rect fill="#f2f5e9" fill-opacity="0.5" stroke="#606060" stroke-width=".5" x="0" y="0" width="60" height="60"/>
                <use id="zoomplus" xlink:href="#zoomPlus" x="17" y="9" onmousedown="handleZoom(evt,'in')"/>
                <use id="zoomminus" xlink:href="#zoomMin" x="42" y="9" onmousedown="handleZoom(evt,'out')"/>
                <use id="reset" xlink:href="#resetDef" x="30" y="36" onmousedown="handleReset()"/>
                <g id="arrowUp" xlink:href="#dirArrow" transform="translate(30 24)" onmousedown="handlePan(0,-1)">
                  <use xlink:href="#rim" fill="#404040">
                        <set attributeName="fill" to="#808080" begin="arrowUp.mouseover" end="arrowUp.mouseout"/>
                  </use>
                  <path fill="none" stroke="white" stroke-width="1.5" d="M0,-3.0v7 M-2.5,-0.5L0,-3.0L2.5,-0.5"/>
                </g>
                <g id="arrowRight" xlink:href="#dirArrow" transform="rotate(90) translate(36 -43)" onmousedown="handlePan(1,0)">
                  <use xlink:href="#rim" fill="#404040">
                        <set attributeName="fill" to="#808080" begin="arrowRight.mouseover" end="arrowRight.mouseout"/>
                  </use>
                  <path fill="none" stroke="white" stroke-width="1.5" d="M0,-3.0v7 M-2.5,-0.5L0,-3.0L2.5,-0.5"/>
                </g>
                <g id="arrowDown" xlink:href="#dirArrow" transform="rotate(180) translate(-30 -48)" onmousedown="handlePan(0,1)">
                  <use xlink:href="#rim" fill="#404040">
                        <set attributeName="fill" to="#808080" begin="arrowDown.mouseover" end="arrowDown.mouseout"/>
                  </use>
                  <path fill="none" stroke="white" stroke-width="1.5" d="M0,-3.0v7 M-2.5,-0.5L0,-3.0L2.5,-0.5"/>
                </g>
                <g id="arrowLeft" xlink:href="#dirArrow" transform="rotate(270) translate(-36 17)" onmousedown="handlePan(-1,0)">
                  <use xlink:href="#rim" fill="#404040">
                        <set attributeName="fill" to="#808080" begin="arrowLeft.mouseover" end="arrowLeft.mouseout"/>
                  </use>
                  <path fill="none" stroke="white" stroke-width="1.5" d="M0,-3.0v7 M-2.5,-0.5L0,-3.0L2.5,-0.5"/>
                </g>
        </g>
        <svg viewBox="0 0 15 15" width="100%" height="30px" preserveAspectRatio="xMaxYMin meet">
         <g id="arrow_out" transform="scale(0.3 0.3)">
          <a xlink:href="a00182_ad5dcde935444ac28a6e0b5705f504573_cgraph_org.svg" target="_base">
           <rect id="button" ry="5" rx="5" y="6" x="6" height="38" width="38"
                fill="#f2f5e9" fill-opacity="0.5" stroke="#606060" stroke-width="1.0"/>
           <path id="arrow"
             d="M 11.500037,31.436501 C 11.940474,20.09759 22.043105,11.32322 32.158766,21.979434 L 37.068811,17.246167 C 37.068811,17.246167 37.088388,32 37.088388,32 L 22.160133,31.978069 C 22.160133,31.978069 26.997745,27.140456 26.997745,27.140456 C 18.528582,18.264221 13.291696,25.230495 11.500037,31.436501 z"
             style="fill:#404040;"/>
          </a>
         </g>
        </svg>
</svg>
