<?xml version="1.0" encoding="UTF-8" standalone="no"?>
<!DOCTYPE svg PUBLIC "-//W3C//DTD SVG 1.1//EN"
 "http://www.w3.org/Graphics/SVG/1.1/DTD/svg11.dtd">
<!-- Generated by graphviz version 2.36.0 (20140111.2315)
 -->
<!-- Title: Voxel::ToFRawFrameTemplate::isSameType Pages: 1 -->
<svg width="542pt" height="38pt"
 viewBox="0.00 0.00 542.00 38.00" xmlns="http://www.w3.org/2000/svg" xmlns:xlink="http://www.w3.org/1999/xlink">
<g id="graph0" class="graph" transform="scale(1 1) rotate(0) translate(4 34)">
<title>Voxel::ToFRawFrameTemplate::isSameType</title>
<!-- Node1 -->
<g id="node1" class="node"><title>Node1</title>
<polygon fill="#bfbfbf" stroke="black" points="0.5,-0 0.5,-30 153.5,-30 153.5,-0 0.5,-0"/>
<text text-anchor="start" x="8.5" y="-18" font-family="Helvetica,sans-Serif" font-size="10.00">Voxel::ToFRawFrameTemplate</text>
<text text-anchor="middle" x="77" y="-7" font-family="Helvetica,sans-Serif" font-size="10.00">::isSameType</text>
</g>
<!-- Node2 -->
<g id="node2" class="node"><title>Node2</title>
<g id="a_node2"><a xlink:href="a00161.xhtml#ac09c09405d3a9a8746212f9e87814e0b" target="_top" xlink:title="Voxel::ToFRawFrameTemplate\l::copyTo">
<polygon fill="none" stroke="black" points="190.5,-0 190.5,-30 343.5,-30 343.5,-0 190.5,-0"/>
<text text-anchor="start" x="198.5" y="-18" font-family="Helvetica,sans-Serif" font-size="10.00">Voxel::ToFRawFrameTemplate</text>
<text text-anchor="middle" x="267" y="-7" font-family="Helvetica,sans-Serif" font-size="10.00">::copyTo</text>
</a>
</g>
</g>
<!-- Node1&#45;&gt;Node2 -->
<g id="edge1" class="edge"><title>Node1&#45;&gt;Node2</title>
<path fill="none" stroke="midnightblue" d="M163.893,-15C172.668,-15 181.539,-15 190.195,-15"/>
<polygon fill="midnightblue" stroke="midnightblue" points="163.654,-11.5001 153.654,-15 163.654,-18.5001 163.654,-11.5001"/>
</g>
<!-- Node3 -->
<g id="node3" class="node"><title>Node3</title>
<g id="a_node3"><a xlink:href="a00161.xhtml#a62bdfaabac7ce64744819a99e2bf08e1" target="_top" xlink:title="Voxel::ToFRawFrameTemplate\l::copy">
<polygon fill="none" stroke="black" points="380.5,-0 380.5,-30 533.5,-30 533.5,-0 380.5,-0"/>
<text text-anchor="start" x="388.5" y="-18" font-family="Helvetica,sans-Serif" font-size="10.00">Voxel::ToFRawFrameTemplate</text>
<text text-anchor="middle" x="457" y="-7" font-family="Helvetica,sans-Serif" font-size="10.00">::copy</text>
</a>
</g>
</g>
<!-- Node2&#45;&gt;Node3 -->
<g id="edge2" class="edge"><title>Node2&#45;&gt;Node3</title>
<path fill="none" stroke="midnightblue" d="M353.893,-15C362.668,-15 371.539,-15 380.195,-15"/>
<polygon fill="midnightblue" stroke="midnightblue" points="353.654,-11.5001 343.654,-15 353.654,-18.5001 353.654,-11.5001"/>
</g>
</g>
</svg>
