<?xml version="1.0" encoding="UTF-8" standalone="no"?>
<!DOCTYPE svg PUBLIC "-//W3C//DTD SVG 1.1//EN"
 "http://www.w3.org/Graphics/SVG/1.1/DTD/svg11.dtd">
<!-- Generated by graphviz version 2.36.0 (20140111.2315)
 -->
<!-- Title: TinyXML2::XMLAttribute::Next Pages: 1 -->
<svg width="292pt" height="136pt"
 viewBox="0.00 0.00 292.00 136.00" xmlns="http://www.w3.org/2000/svg" xmlns:xlink="http://www.w3.org/1999/xlink">
<g id="graph0" class="graph" transform="scale(1 1) rotate(0) translate(4 132)">
<title>TinyXML2::XMLAttribute::Next</title>
<!-- Node1 -->
<g id="node1" class="node"><title>Node1</title>
<polygon fill="#bfbfbf" stroke="black" points="0,-49 0,-79 124,-79 124,-49 0,-49"/>
<text text-anchor="start" x="8" y="-67" font-family="Helvetica,sans-Serif" font-size="10.00">TinyXML2::XMLAttribute</text>
<text text-anchor="middle" x="62" y="-56" font-family="Helvetica,sans-Serif" font-size="10.00">::Next</text>
</g>
<!-- Node2 -->
<g id="node2" class="node"><title>Node2</title>
<g id="a_node2"><a xlink:href="a00199.xhtml#afe5dfc0730ed1c1b2c9e6b177e6b2fa6" target="_top" xlink:title="TinyXML2::XMLElement\l::ShallowClone">
<polygon fill="none" stroke="black" points="160.5,-98 160.5,-128 283.5,-128 283.5,-98 160.5,-98"/>
<text text-anchor="start" x="168.5" y="-116" font-family="Helvetica,sans-Serif" font-size="10.00">TinyXML2::XMLElement</text>
<text text-anchor="middle" x="222" y="-105" font-family="Helvetica,sans-Serif" font-size="10.00">::ShallowClone</text>
</a>
</g>
</g>
<!-- Node1&#45;&gt;Node2 -->
<g id="edge1" class="edge"><title>Node1&#45;&gt;Node2</title>
<path fill="none" stroke="midnightblue" d="M121.405,-82.1129C138.202,-87.3222 156.335,-92.9457 172.466,-97.9484"/>
<polygon fill="midnightblue" stroke="midnightblue" points="122.282,-78.7207 111.694,-79.1014 120.209,-85.4065 122.282,-78.7207"/>
</g>
<!-- Node3 -->
<g id="node3" class="node"><title>Node3</title>
<g id="a_node3"><a xlink:href="a00199.xhtml#acabaa32707cda48d09044f9e051f8a7b" target="_top" xlink:title="TinyXML2::XMLElement\l::ShallowEqual">
<polygon fill="none" stroke="black" points="160.5,-49 160.5,-79 283.5,-79 283.5,-49 160.5,-49"/>
<text text-anchor="start" x="168.5" y="-67" font-family="Helvetica,sans-Serif" font-size="10.00">TinyXML2::XMLElement</text>
<text text-anchor="middle" x="222" y="-56" font-family="Helvetica,sans-Serif" font-size="10.00">::ShallowEqual</text>
</a>
</g>
</g>
<!-- Node1&#45;&gt;Node3 -->
<g id="edge2" class="edge"><title>Node1&#45;&gt;Node3</title>
<path fill="none" stroke="midnightblue" d="M134.235,-64C142.951,-64 151.795,-64 160.336,-64"/>
<polygon fill="midnightblue" stroke="midnightblue" points="134.087,-60.5001 124.087,-64 134.087,-67.5001 134.087,-60.5001"/>
</g>
<!-- Node4 -->
<g id="node4" class="node"><title>Node4</title>
<g id="a_node4"><a xlink:href="a00202.xhtml#a4b451a18ff455a3ba120179017af44de" target="_top" xlink:title="Visit an element. ">
<polygon fill="none" stroke="black" points="164,-0 164,-30 280,-30 280,-0 164,-0"/>
<text text-anchor="start" x="172" y="-18" font-family="Helvetica,sans-Serif" font-size="10.00">TinyXML2::XMLPrinter</text>
<text text-anchor="middle" x="222" y="-7" font-family="Helvetica,sans-Serif" font-size="10.00">::VisitEnter</text>
</a>
</g>
</g>
<!-- Node1&#45;&gt;Node4 -->
<g id="edge3" class="edge"><title>Node1&#45;&gt;Node4</title>
<path fill="none" stroke="midnightblue" d="M121.405,-45.8871C138.202,-40.6778 156.335,-35.0543 172.466,-30.0516"/>
<polygon fill="midnightblue" stroke="midnightblue" points="120.209,-42.5935 111.694,-48.8986 122.282,-49.2793 120.209,-42.5935"/>
</g>
</g>
</svg>
