<?xml version="1.0" encoding="UTF-8" standalone="no"?>
<!DOCTYPE svg PUBLIC "-//W3C//DTD SVG 1.1//EN"
 "http://www.w3.org/Graphics/SVG/1.1/DTD/svg11.dtd">
<!-- Generated by graphviz version 2.36.0 (20140111.2315)
 -->
<!-- Title: Voxel::ToFRawFrameTemplate::histogramSize Pages: 1 -->
<svg width="352pt" height="87pt"
 viewBox="0.00 0.00 352.00 87.00" xmlns="http://www.w3.org/2000/svg" xmlns:xlink="http://www.w3.org/1999/xlink">
<g id="graph0" class="graph" transform="scale(1 1) rotate(0) translate(4 83)">
<title>Voxel::ToFRawFrameTemplate::histogramSize</title>
<!-- Node1 -->
<g id="node1" class="node"><title>Node1</title>
<polygon fill="#bfbfbf" stroke="black" points="0.5,-24 0.5,-54 153.5,-54 153.5,-24 0.5,-24"/>
<text text-anchor="start" x="8.5" y="-42" font-family="Helvetica,sans-Serif" font-size="10.00">Voxel::ToFRawFrameTemplate</text>
<text text-anchor="middle" x="77" y="-31" font-family="Helvetica,sans-Serif" font-size="10.00">::histogramSize</text>
</g>
<!-- Node2 -->
<g id="node2" class="node"><title>Node2</title>
<g id="a_node2"><a xlink:href="a00161.xhtml#a733996eb128df5c6f957a0ef39f0fd64" target="_top" xlink:title="Voxel::ToFRawFrameTemplate\l::deserialize">
<polygon fill="none" stroke="black" points="190.5,-49 190.5,-79 343.5,-79 343.5,-49 190.5,-49"/>
<text text-anchor="start" x="198.5" y="-67" font-family="Helvetica,sans-Serif" font-size="10.00">Voxel::ToFRawFrameTemplate</text>
<text text-anchor="middle" x="267" y="-56" font-family="Helvetica,sans-Serif" font-size="10.00">::deserialize</text>
</a>
</g>
</g>
<!-- Node1&#45;&gt;Node2 -->
<g id="edge1" class="edge"><title>Node1&#45;&gt;Node2</title>
<path fill="none" stroke="midnightblue" d="M163.607,-50.3839C172.476,-51.5632 181.444,-52.7559 190.195,-53.9195"/>
<polygon fill="midnightblue" stroke="midnightblue" points="164.028,-46.9092 153.654,-49.0604 163.105,-53.8481 164.028,-46.9092"/>
</g>
<!-- Node3 -->
<g id="node3" class="node"><title>Node3</title>
<g id="a_node3"><a xlink:href="a00161.xhtml#a78e11d15771768703acdd55e6d15b41e" target="_top" xlink:title="Voxel::ToFRawFrameTemplate\l::serialize">
<polygon fill="none" stroke="black" points="190.5,-0 190.5,-30 343.5,-30 343.5,-0 190.5,-0"/>
<text text-anchor="start" x="198.5" y="-18" font-family="Helvetica,sans-Serif" font-size="10.00">Voxel::ToFRawFrameTemplate</text>
<text text-anchor="middle" x="267" y="-7" font-family="Helvetica,sans-Serif" font-size="10.00">::serialize</text>
</a>
</g>
</g>
<!-- Node1&#45;&gt;Node3 -->
<g id="edge2" class="edge"><title>Node1&#45;&gt;Node3</title>
<path fill="none" stroke="midnightblue" d="M163.607,-28.0714C172.476,-26.9393 181.444,-25.7943 190.195,-24.6773"/>
<polygon fill="midnightblue" stroke="midnightblue" points="163.13,-24.6038 153.654,-29.342 164.017,-31.5474 163.13,-24.6038"/>
</g>
</g>
</svg>
