<?xml version="1.0" encoding="UTF-8" standalone="no"?>
<!DOCTYPE svg PUBLIC "-//W3C//DTD SVG 1.1//EN"
 "http://www.w3.org/Graphics/SVG/1.1/DTD/svg11.dtd">
<!-- Generated by graphviz version 2.36.0 (20140111.2315)
 -->
<!-- Title: TinyXML2::StrPair::Reset Pages: 1 -->
<!--zoomable 742 -->
<svg id="main" version="1.1" xmlns="http://www.w3.org/2000/svg" xmlns:xlink="http://www.w3.org/1999/xlink" xml:space="preserve" onload="init(evt)">
<style type="text/css"><![CDATA[
.edge:hover path { stroke: red; }
.edge:hover polygon { stroke: red; fill: red; }
]]></style>
<script type="text/javascript"><![CDATA[
var edges = document.getElementsByTagName('g');
if (edges && edges.length) {
  for (var i=0;i<edges.length;i++) {
    if (edges[i].id.substr(0,4)=='edge') {
      edges[i].setAttribute('class','edge');
    }
  }
}
]]></script>
        <defs>
                <circle id="rim" cx="0" cy="0" r="7"/>
                <circle id="rim2" cx="0" cy="0" r="3.5"/>
                <g id="zoomPlus">
                        <use xlink:href="#rim" fill="#404040">
                                <set attributeName="fill" to="#808080" begin="zoomplus.mouseover" end="zoomplus.mouseout"/>
                        </use>
                        <path d="M-4,0h8M0,-4v8" fill="none" stroke="white" stroke-width="1.5" pointer-events="none"/>
                </g>
                <g id="zoomMin">
                        <use xlink:href="#rim" fill="#404040">
                                <set attributeName="fill" to="#808080" begin="zoomminus.mouseover" end="zoomminus.mouseout"/>
                        </use>
                        <path d="M-4,0h8" fill="none" stroke="white" stroke-width="1.5" pointer-events="none"/>
                </g>
                <g id="dirArrow">
                        <path fill="none" stroke="white" stroke-width="1.5" d="M0,-3.0v7 M-2.5,-0.5L0,-3.0L2.5,-0.5"/>
                </g>
               <g id="resetDef">
                       <use xlink:href="#rim2" fill="#404040">
                               <set attributeName="fill" to="#808080" begin="reset.mouseover" end="reset.mouseout"/>
                       </use>
               </g>
        </defs>

<script type="text/javascript">
var viewWidth = 934;
var viewHeight = 742;
var sectionId = 'dynsection-11';
</script>
<script xlink:href="svgpan.js"/>
<svg id="graph" class="graph">
<g id="viewport">
<title>TinyXML2::StrPair::Reset</title>
<!-- Node1 -->
<g id="node1" class="node"><title>Node1</title>
<polygon fill="#bfbfbf" stroke="black" points="0.5,-220 0.5,-250 103.5,-250 103.5,-220 0.5,-220"/>
<text text-anchor="start" x="8.5" y="-238" font-family="Helvetica,sans-Serif" font-size="10.00">TinyXML2::StrPair::</text>
<text text-anchor="middle" x="52" y="-227" font-family="Helvetica,sans-Serif" font-size="10.00">Reset</text>
</g>
<!-- Node2 -->
<g id="node2" class="node"><title>Node2</title>
<g id="a_node2"><a xlink:href="a00133.xhtml#acb766a3f2144ff1e37aaf3a130db993e" target="_top" xlink:title="TinyXML2::StrPair::Set">
<polygon fill="none" stroke="black" points="140,-491.5 140,-510.5 258,-510.5 258,-491.5 140,-491.5"/>
<text text-anchor="middle" x="199" y="-498.5" font-family="Helvetica,sans-Serif" font-size="10.00">TinyXML2::StrPair::Set</text>
</a>
</g>
</g>
<!-- Node1&#45;&gt;Node2 -->
<g id="edge1" class="edge"><title>Node1&#45;&gt;Node2</title>
<path fill="none" stroke="midnightblue" d="M66.065,-258.968C96.7413,-315.243 172.329,-453.907 192.81,-491.479"/>
<polygon fill="midnightblue" stroke="midnightblue" points="69.0706,-257.168 61.2113,-250.063 62.9245,-260.519 69.0706,-257.168"/>
</g>
<!-- Node12 -->
<g id="node12" class="node"><title>Node12</title>
<g id="a_node12"><a xlink:href="a00133.xhtml#a6e89623a22f1dd43bc4037d6fe6487c0" target="_top" xlink:title="TinyXML2::StrPair::\lSetInternedStr">
<polygon fill="none" stroke="black" points="147.5,-220 147.5,-250 250.5,-250 250.5,-220 147.5,-220"/>
<text text-anchor="start" x="155.5" y="-238" font-family="Helvetica,sans-Serif" font-size="10.00">TinyXML2::StrPair::</text>
<text text-anchor="middle" x="199" y="-227" font-family="Helvetica,sans-Serif" font-size="10.00">SetInternedStr</text>
</a>
</g>
</g>
<!-- Node1&#45;&gt;Node12 -->
<g id="edge13" class="edge"><title>Node1&#45;&gt;Node12</title>
<path fill="none" stroke="midnightblue" d="M113.758,-235C124.844,-235 136.306,-235 147.07,-235"/>
<polygon fill="midnightblue" stroke="midnightblue" points="113.714,-231.5 103.714,-235 113.714,-238.5 113.714,-231.5"/>
</g>
<!-- Node24 -->
<g id="node24" class="node"><title>Node24</title>
<g id="a_node24"><a xlink:href="a00133.xhtml#a8d21246f67287932bba28e6393f5ea2c" target="_top" xlink:title="TinyXML2::StrPair::\lSetStr">
<polygon fill="none" stroke="black" points="147.5,-171 147.5,-201 250.5,-201 250.5,-171 147.5,-171"/>
<text text-anchor="start" x="155.5" y="-189" font-family="Helvetica,sans-Serif" font-size="10.00">TinyXML2::StrPair::</text>
<text text-anchor="middle" x="199" y="-178" font-family="Helvetica,sans-Serif" font-size="10.00">SetStr</text>
</a>
</g>
</g>
<!-- Node1&#45;&gt;Node24 -->
<g id="edge26" class="edge"><title>Node1&#45;&gt;Node24</title>
<path fill="none" stroke="midnightblue" d="M107.418,-216.61C122.516,-211.508 138.731,-206.029 153.21,-201.136"/>
<polygon fill="midnightblue" stroke="midnightblue" points="106.041,-213.381 97.6879,-219.899 108.282,-220.013 106.041,-213.381"/>
</g>
<!-- Node30 -->
<g id="node30" class="node"><title>Node30</title>
<g id="a_node30"><a xlink:href="a00133.xhtml#aa49c81c2847e30ec02d2cb971de60eab" target="_top" xlink:title="TinyXML2::StrPair::\lTransferTo">
<polygon fill="none" stroke="black" points="147.5,-302 147.5,-332 250.5,-332 250.5,-302 147.5,-302"/>
<text text-anchor="start" x="155.5" y="-320" font-family="Helvetica,sans-Serif" font-size="10.00">TinyXML2::StrPair::</text>
<text text-anchor="middle" x="199" y="-309" font-family="Helvetica,sans-Serif" font-size="10.00">TransferTo</text>
</a>
</g>
</g>
<!-- Node1&#45;&gt;Node30 -->
<g id="edge33" class="edge"><title>Node1&#45;&gt;Node30</title>
<path fill="none" stroke="midnightblue" d="M88.5715,-255.116C114.05,-269.525 147.829,-288.627 171.082,-301.778"/>
<polygon fill="midnightblue" stroke="midnightblue" points="90.0227,-251.916 79.5952,-250.04 86.5768,-258.009 90.0227,-251.916"/>
</g>
<!-- Node34 -->
<g id="node34" class="node"><title>Node34</title>
<g id="a_node34"><a xlink:href="a00133.xhtml#a6cb2da1d707d90e015006ba9d0295356" target="_top" xlink:title="TinyXML2::StrPair::\l~StrPair">
<polygon fill="none" stroke="black" points="147.5,-122 147.5,-152 250.5,-152 250.5,-122 147.5,-122"/>
<text text-anchor="start" x="155.5" y="-140" font-family="Helvetica,sans-Serif" font-size="10.00">TinyXML2::StrPair::</text>
<text text-anchor="middle" x="199" y="-129" font-family="Helvetica,sans-Serif" font-size="10.00">~StrPair</text>
</a>
</g>
</g>
<!-- Node1&#45;&gt;Node34 -->
<g id="edge39" class="edge"><title>Node1&#45;&gt;Node34</title>
<path fill="none" stroke="midnightblue" d="M75.4757,-212.423C92.1956,-196.529 116.154,-175.573 140,-161 145.3,-157.761 151.115,-154.774 156.954,-152.088"/>
<polygon fill="midnightblue" stroke="midnightblue" points="72.6359,-210.3 67.8814,-219.768 77.5026,-215.332 72.6359,-210.3"/>
</g>
<!-- Node3 -->
<g id="node3" class="node"><title>Node3</title>
<g id="a_node3"><a xlink:href="a00133.xhtml#a758cab9c11619f17dbf4758d62bd2310" target="_top" xlink:title="TinyXML2::StrPair::\lParseText">
<polygon fill="none" stroke="black" points="304.5,-581 304.5,-611 407.5,-611 407.5,-581 304.5,-581"/>
<text text-anchor="start" x="312.5" y="-599" font-family="Helvetica,sans-Serif" font-size="10.00">TinyXML2::StrPair::</text>
<text text-anchor="middle" x="356" y="-588" font-family="Helvetica,sans-Serif" font-size="10.00">ParseText</text>
</a>
</g>
</g>
<!-- Node2&#45;&gt;Node3 -->
<g id="edge2" class="edge"><title>Node2&#45;&gt;Node3</title>
<path fill="none" stroke="midnightblue" d="M224.395,-515.952C253.335,-533.689 301.309,-563.092 330.357,-580.897"/>
<polygon fill="midnightblue" stroke="midnightblue" points="226.07,-512.873 215.715,-510.632 222.412,-518.842 226.07,-512.873"/>
</g>
<!-- Node11 -->
<g id="node11" class="node"><title>Node11</title>
<g id="a_node11"><a xlink:href="a00133.xhtml#a323f7549e32dd8102eafc04a748041fc" target="_top" xlink:title="TinyXML2::StrPair::\lParseName">
<polygon fill="none" stroke="black" points="304.5,-486 304.5,-516 407.5,-516 407.5,-486 304.5,-486"/>
<text text-anchor="start" x="312.5" y="-504" font-family="Helvetica,sans-Serif" font-size="10.00">TinyXML2::StrPair::</text>
<text text-anchor="middle" x="356" y="-493" font-family="Helvetica,sans-Serif" font-size="10.00">ParseName</text>
</a>
</g>
</g>
<!-- Node2&#45;&gt;Node11 -->
<g id="edge10" class="edge"><title>Node2&#45;&gt;Node11</title>
<path fill="none" stroke="midnightblue" d="M268.203,-501C280.28,-501 292.662,-501 304.153,-501"/>
<polygon fill="midnightblue" stroke="midnightblue" points="268.157,-497.5 258.157,-501 268.157,-504.5 268.157,-497.5"/>
</g>
<!-- Node4 -->
<g id="node4" class="node"><title>Node4</title>
<g id="a_node4"><a xlink:href="a00203.xhtml#a48075a5d36447886eef9bb98b4db951d" target="_top" xlink:title="TinyXML2::XMLText::\lParseDeep">
<polygon fill="none" stroke="black" points="466.5,-704 466.5,-734 579.5,-734 579.5,-704 466.5,-704"/>
<text text-anchor="start" x="474.5" y="-722" font-family="Helvetica,sans-Serif" font-size="10.00">TinyXML2::XMLText::</text>
<text text-anchor="middle" x="523" y="-711" font-family="Helvetica,sans-Serif" font-size="10.00">ParseDeep</text>
</a>
</g>
</g>
<!-- Node3&#45;&gt;Node4 -->
<g id="edge3" class="edge"><title>Node3&#45;&gt;Node4</title>
<path fill="none" stroke="midnightblue" d="M374.83,-619.164C392.754,-641.076 422.218,-673.565 454,-694 459.819,-697.741 466.276,-701.029 472.829,-703.885"/>
<polygon fill="midnightblue" stroke="midnightblue" points="377.534,-616.94 368.545,-611.331 372.074,-621.321 377.534,-616.94"/>
</g>
<!-- Node5 -->
<g id="node5" class="node"><title>Node5</title>
<g id="a_node5"><a xlink:href="a00195.xhtml#a15a0eddf7fc540c4d5a3dbed6cb7e8b6" target="_top" xlink:title="TinyXML2::XMLComment\l::ParseDeep">
<polygon fill="none" stroke="black" points="458,-655 458,-685 588,-685 588,-655 458,-655"/>
<text text-anchor="start" x="466" y="-673" font-family="Helvetica,sans-Serif" font-size="10.00">TinyXML2::XMLComment</text>
<text text-anchor="middle" x="523" y="-662" font-family="Helvetica,sans-Serif" font-size="10.00">::ParseDeep</text>
</a>
</g>
</g>
<!-- Node3&#45;&gt;Node5 -->
<g id="edge4" class="edge"><title>Node3&#45;&gt;Node5</title>
<path fill="none" stroke="midnightblue" d="M393.595,-615.744C411.561,-625.112 433.666,-636.161 454,-645 461.844,-648.41 470.319,-651.772 478.536,-654.871"/>
<polygon fill="midnightblue" stroke="midnightblue" points="395.088,-612.575 384.608,-611.019 391.83,-618.771 395.088,-612.575"/>
</g>
<!-- Node6 -->
<g id="node6" class="node"><title>Node6</title>
<g id="a_node6"><a xlink:href="a00197.xhtml#a6e32f30fbdec75b25799ee9b476d9104" target="_top" xlink:title="TinyXML2::XMLDeclaration\l::ParseDeep">
<polygon fill="none" stroke="black" points="454.5,-606 454.5,-636 591.5,-636 591.5,-606 454.5,-606"/>
<text text-anchor="start" x="462.5" y="-624" font-family="Helvetica,sans-Serif" font-size="10.00">TinyXML2::XMLDeclaration</text>
<text text-anchor="middle" x="523" y="-613" font-family="Helvetica,sans-Serif" font-size="10.00">::ParseDeep</text>
</a>
</g>
</g>
<!-- Node3&#45;&gt;Node6 -->
<g id="edge5" class="edge"><title>Node3&#45;&gt;Node6</title>
<path fill="none" stroke="midnightblue" d="M418.043,-605.249C429.856,-607.039 442.299,-608.924 454.309,-610.744"/>
<polygon fill="midnightblue" stroke="midnightblue" points="418.263,-601.742 407.852,-603.705 417.215,-608.663 418.263,-601.742"/>
</g>
<!-- Node7 -->
<g id="node7" class="node"><title>Node7</title>
<g id="a_node7"><a xlink:href="a00204.xhtml#a1a9b1c4c1144acbf5c9f8a3b6e4ec55c" target="_top" xlink:title="TinyXML2::XMLUnknown\l::ParseDeep">
<polygon fill="none" stroke="black" points="459,-557 459,-587 587,-587 587,-557 459,-557"/>
<text text-anchor="start" x="467" y="-575" font-family="Helvetica,sans-Serif" font-size="10.00">TinyXML2::XMLUnknown</text>
<text text-anchor="middle" x="523" y="-564" font-family="Helvetica,sans-Serif" font-size="10.00">::ParseDeep</text>
</a>
</g>
</g>
<!-- Node3&#45;&gt;Node7 -->
<g id="edge6" class="edge"><title>Node3&#45;&gt;Node7</title>
<path fill="none" stroke="midnightblue" d="M417.87,-587.146C431.211,-585.206 445.364,-583.147 458.795,-581.194"/>
<polygon fill="midnightblue" stroke="midnightblue" points="417.244,-583.7 407.852,-588.603 418.251,-590.627 417.244,-583.7"/>
</g>
<!-- Node8 -->
<g id="node8" class="node"><title>Node8</title>
<g id="a_node8"><a xlink:href="a00194.xhtml#ab27bee7ca972cfb7b33a57ae150c9f46" target="_top" xlink:title="TinyXML2::XMLAttribute\l::ParseDeep">
<polygon fill="none" stroke="black" points="461,-508 461,-538 585,-538 585,-508 461,-508"/>
<text text-anchor="start" x="469" y="-526" font-family="Helvetica,sans-Serif" font-size="10.00">TinyXML2::XMLAttribute</text>
<text text-anchor="middle" x="523" y="-515" font-family="Helvetica,sans-Serif" font-size="10.00">::ParseDeep</text>
</a>
</g>
</g>
<!-- Node3&#45;&gt;Node8 -->
<g id="edge7" class="edge"><title>Node3&#45;&gt;Node8</title>
<path fill="none" stroke="midnightblue" d="M394.421,-576.312C412.252,-567.234 434.008,-556.592 454,-548 461.974,-544.573 470.589,-541.177 478.921,-538.045"/>
<polygon fill="midnightblue" stroke="midnightblue" points="392.783,-573.219 385.483,-580.898 395.978,-579.447 392.783,-573.219"/>
</g>
<!-- Node9 -->
<g id="node9" class="node"><title>Node9</title>
<g id="a_node9"><a xlink:href="a00199.xhtml#a2b7dddea778d54aa6a213abed7ef7ab7" target="_top" xlink:title="TinyXML2::XMLElement\l::ParseAttributes">
<polygon fill="none" stroke="black" points="635.5,-508 635.5,-538 758.5,-538 758.5,-508 635.5,-508"/>
<text text-anchor="start" x="643.5" y="-526" font-family="Helvetica,sans-Serif" font-size="10.00">TinyXML2::XMLElement</text>
<text text-anchor="middle" x="697" y="-515" font-family="Helvetica,sans-Serif" font-size="10.00">::ParseAttributes</text>
</a>
</g>
</g>
<!-- Node8&#45;&gt;Node9 -->
<g id="edge8" class="edge"><title>Node8&#45;&gt;Node9</title>
<path fill="none" stroke="midnightblue" d="M595.209,-523C608.549,-523 622.378,-523 635.361,-523"/>
<polygon fill="midnightblue" stroke="midnightblue" points="595.125,-519.5 585.125,-523 595.125,-526.5 595.125,-519.5"/>
</g>
<!-- Node10 -->
<g id="node10" class="node"><title>Node10</title>
<g id="a_node10"><a xlink:href="a00199.xhtml#a1f37b0bb41320c4121515755b8a057a4" target="_top" xlink:title="TinyXML2::XMLElement\l::ParseDeep">
<polygon fill="none" stroke="black" points="802.5,-464 802.5,-494 925.5,-494 925.5,-464 802.5,-464"/>
<text text-anchor="start" x="810.5" y="-482" font-family="Helvetica,sans-Serif" font-size="10.00">TinyXML2::XMLElement</text>
<text text-anchor="middle" x="864" y="-471" font-family="Helvetica,sans-Serif" font-size="10.00">::ParseDeep</text>
</a>
</g>
</g>
<!-- Node9&#45;&gt;Node10 -->
<g id="edge9" class="edge"><title>Node9&#45;&gt;Node10</title>
<path fill="none" stroke="midnightblue" d="M764.386,-505.297C778.397,-501.561 793.053,-497.653 806.652,-494.026"/>
<polygon fill="midnightblue" stroke="midnightblue" points="763.083,-502.022 754.322,-507.981 764.886,-508.786 763.083,-502.022"/>
</g>
<!-- Node11&#45;&gt;Node8 -->
<g id="edge11" class="edge"><title>Node11&#45;&gt;Node8</title>
<path fill="none" stroke="midnightblue" d="M417.882,-509.118C431.909,-510.988 446.833,-512.978 460.871,-514.849"/>
<polygon fill="midnightblue" stroke="midnightblue" points="418.227,-505.633 407.852,-507.78 417.301,-512.571 418.227,-505.633"/>
</g>
<!-- Node11&#45;&gt;Node10 -->
<g id="edge12" class="edge"><title>Node11&#45;&gt;Node10</title>
<path fill="none" stroke="midnightblue" d="M418.118,-498.343C515.634,-494.103 705.304,-485.856 802.457,-481.632"/>
<polygon fill="midnightblue" stroke="midnightblue" points="417.672,-494.859 407.834,-498.79 417.977,-501.852 417.672,-494.859"/>
</g>
<!-- Node13 -->
<g id="node13" class="node"><title>Node13</title>
<g id="a_node13"><a xlink:href="a00201.xhtml#a527b7ce2a80b4580275531020867b53a" target="_top" xlink:title="TinyXML2::XMLNode::\lSetValue">
<polygon fill="none" stroke="black" points="298,-196 298,-226 414,-226 414,-196 298,-196"/>
<text text-anchor="start" x="306" y="-214" font-family="Helvetica,sans-Serif" font-size="10.00">TinyXML2::XMLNode::</text>
<text text-anchor="middle" x="356" y="-203" font-family="Helvetica,sans-Serif" font-size="10.00">SetValue</text>
</a>
</g>
</g>
<!-- Node12&#45;&gt;Node13 -->
<g id="edge14" class="edge"><title>Node12&#45;&gt;Node13</title>
<path fill="none" stroke="midnightblue" d="M260.854,-225.577C273.075,-223.685 285.876,-221.703 297.961,-219.832"/>
<polygon fill="midnightblue" stroke="midnightblue" points="260.099,-222.152 250.753,-227.142 261.171,-229.07 260.099,-222.152"/>
</g>
<!-- Node14 -->
<g id="node14" class="node"><title>Node14</title>
<g id="a_node14"><a xlink:href="a00199.xhtml#ad0f8edb7feb82def4e5245a9650f80fc" target="_top" xlink:title="TinyXML2::XMLElement\l::SetText">
<polygon fill="none" stroke="black" points="635.5,-294 635.5,-324 758.5,-324 758.5,-294 635.5,-294"/>
<text text-anchor="start" x="643.5" y="-312" font-family="Helvetica,sans-Serif" font-size="10.00">TinyXML2::XMLElement</text>
<text text-anchor="middle" x="697" y="-301" font-family="Helvetica,sans-Serif" font-size="10.00">::SetText</text>
</a>
</g>
</g>
<!-- Node13&#45;&gt;Node14 -->
<g id="edge15" class="edge"><title>Node13&#45;&gt;Node14</title>
<path fill="none" stroke="midnightblue" d="M378.768,-232.973C397.128,-250.023 424.988,-272.612 454,-284 512.681,-307.034 585.194,-311.707 635.466,-311.6"/>
<polygon fill="midnightblue" stroke="midnightblue" points="381.16,-230.417 371.506,-226.053 376.332,-235.485 381.16,-230.417"/>
</g>
<!-- Node16 -->
<g id="node16" class="node"><title>Node16</title>
<g id="a_node16"><a xlink:href="a00198.xhtml#a2991901a202867cec8de7254273c8b7c" target="_top" xlink:title="TinyXML2::XMLDocument\l::NewComment">
<polygon fill="none" stroke="black" points="457,-196 457,-226 589,-226 589,-196 457,-196"/>
<text text-anchor="start" x="465" y="-214" font-family="Helvetica,sans-Serif" font-size="10.00">TinyXML2::XMLDocument</text>
<text text-anchor="middle" x="523" y="-203" font-family="Helvetica,sans-Serif" font-size="10.00">::NewComment</text>
</a>
</g>
</g>
<!-- Node13&#45;&gt;Node16 -->
<g id="edge17" class="edge"><title>Node13&#45;&gt;Node16</title>
<path fill="none" stroke="midnightblue" d="M424.413,-211C435.156,-211 446.252,-211 456.939,-211"/>
<polygon fill="midnightblue" stroke="midnightblue" points="424.246,-207.5 414.246,-211 424.246,-214.5 424.246,-207.5"/>
</g>
<!-- Node18 -->
<g id="node18" class="node"><title>Node18</title>
<g id="a_node18"><a xlink:href="a00198.xhtml#a7d3e915ac54b0b32f72a2a7910225630" target="_top" xlink:title="TinyXML2::XMLDocument\l::NewText">
<polygon fill="none" stroke="black" points="457,-245 457,-275 589,-275 589,-245 457,-245"/>
<text text-anchor="start" x="465" y="-263" font-family="Helvetica,sans-Serif" font-size="10.00">TinyXML2::XMLDocument</text>
<text text-anchor="middle" x="523" y="-252" font-family="Helvetica,sans-Serif" font-size="10.00">::NewText</text>
</a>
</g>
</g>
<!-- Node13&#45;&gt;Node18 -->
<g id="edge19" class="edge"><title>Node13&#45;&gt;Node18</title>
<path fill="none" stroke="midnightblue" d="M417.501,-228.967C435.18,-234.217 454.313,-239.899 471.316,-244.948"/>
<polygon fill="midnightblue" stroke="midnightblue" points="418.434,-225.593 407.852,-226.101 416.442,-232.304 418.434,-225.593"/>
</g>
<!-- Node20 -->
<g id="node20" class="node"><title>Node20</title>
<g id="a_node20"><a xlink:href="a00198.xhtml#a949f550ca5a84f18404af5e050626a2e" target="_top" xlink:title="TinyXML2::XMLDocument\l::NewDeclaration">
<polygon fill="none" stroke="black" points="457,-147 457,-177 589,-177 589,-147 457,-147"/>
<text text-anchor="start" x="465" y="-165" font-family="Helvetica,sans-Serif" font-size="10.00">TinyXML2::XMLDocument</text>
<text text-anchor="middle" x="523" y="-154" font-family="Helvetica,sans-Serif" font-size="10.00">::NewDeclaration</text>
</a>
</g>
</g>
<!-- Node13&#45;&gt;Node20 -->
<g id="edge22" class="edge"><title>Node13&#45;&gt;Node20</title>
<path fill="none" stroke="midnightblue" d="M417.501,-193.033C435.18,-187.783 454.313,-182.101 471.316,-177.052"/>
<polygon fill="midnightblue" stroke="midnightblue" points="416.442,-189.696 407.852,-195.899 418.434,-196.407 416.442,-189.696"/>
</g>
<!-- Node22 -->
<g id="node22" class="node"><title>Node22</title>
<g id="a_node22"><a xlink:href="a00198.xhtml#aa8c76e2ecbc64d912bb6c7244ada0d16" target="_top" xlink:title="TinyXML2::XMLDocument\l::NewUnknown">
<polygon fill="none" stroke="black" points="457,-98 457,-128 589,-128 589,-98 457,-98"/>
<text text-anchor="start" x="465" y="-116" font-family="Helvetica,sans-Serif" font-size="10.00">TinyXML2::XMLDocument</text>
<text text-anchor="middle" x="523" y="-105" font-family="Helvetica,sans-Serif" font-size="10.00">::NewUnknown</text>
</a>
</g>
</g>
<!-- Node13&#45;&gt;Node22 -->
<g id="edge24" class="edge"><title>Node13&#45;&gt;Node22</title>
<path fill="none" stroke="midnightblue" d="M381.151,-189.138C399.932,-173.023 427.217,-151.475 454,-137 460.057,-133.726 466.651,-130.751 473.27,-128.098"/>
<polygon fill="midnightblue" stroke="midnightblue" points="378.639,-186.685 373.401,-195.895 383.239,-191.962 378.639,-186.685"/>
</g>
<!-- Node15 -->
<g id="node15" class="node"><title>Node15</title>
<g id="a_node15"><a xlink:href="a00199.xhtml#aa6a50c3d5d452ce300212dac850d3a2c" target="_top" xlink:title="Convenience method for setting text inside and element. See SetText() for important limitations...">
<polygon fill="none" stroke="black" points="802.5,-294 802.5,-324 925.5,-324 925.5,-294 802.5,-294"/>
<text text-anchor="start" x="810.5" y="-312" font-family="Helvetica,sans-Serif" font-size="10.00">TinyXML2::XMLElement</text>
<text text-anchor="middle" x="864" y="-301" font-family="Helvetica,sans-Serif" font-size="10.00">::SetText</text>
</a>
</g>
</g>
<!-- Node14&#45;&gt;Node15 -->
<g id="edge16" class="edge"><title>Node14&#45;&gt;Node15</title>
<path fill="none" stroke="midnightblue" d="M768.658,-309C779.833,-309 791.304,-309 802.228,-309"/>
<polygon fill="midnightblue" stroke="midnightblue" points="768.503,-305.5 758.503,-309 768.503,-312.5 768.503,-305.5"/>
</g>
<!-- Node17 -->
<g id="node17" class="node"><title>Node17</title>
<g id="a_node17"><a xlink:href="a00195.xhtml#a71e4d7cfc0349f5eddfa4d8da54908fd" target="_top" xlink:title="TinyXML2::XMLComment\l::ShallowClone">
<polygon fill="none" stroke="black" points="632,-196 632,-226 762,-226 762,-196 632,-196"/>
<text text-anchor="start" x="640" y="-214" font-family="Helvetica,sans-Serif" font-size="10.00">TinyXML2::XMLComment</text>
<text text-anchor="middle" x="697" y="-203" font-family="Helvetica,sans-Serif" font-size="10.00">::ShallowClone</text>
</a>
</g>
</g>
<!-- Node16&#45;&gt;Node17 -->
<g id="edge18" class="edge"><title>Node16&#45;&gt;Node17</title>
<path fill="none" stroke="midnightblue" d="M599.302,-211C610.118,-211 621.162,-211 631.738,-211"/>
<polygon fill="midnightblue" stroke="midnightblue" points="599.026,-207.5 589.026,-211 599.026,-214.5 599.026,-207.5"/>
</g>
<!-- Node18&#45;&gt;Node14 -->
<g id="edge21" class="edge"><title>Node18&#45;&gt;Node14</title>
<path fill="none" stroke="midnightblue" d="M586.812,-277.894C605.312,-283.164 625.359,-288.876 643.166,-293.948"/>
<polygon fill="midnightblue" stroke="midnightblue" points="587.585,-274.475 577.009,-275.101 585.668,-281.207 587.585,-274.475"/>
</g>
<!-- Node19 -->
<g id="node19" class="node"><title>Node19</title>
<g id="a_node19"><a xlink:href="a00203.xhtml#a30e358bdfd667629b483d014ed2f92a7" target="_top" xlink:title="TinyXML2::XMLText::\lShallowClone">
<polygon fill="none" stroke="black" points="640.5,-245 640.5,-275 753.5,-275 753.5,-245 640.5,-245"/>
<text text-anchor="start" x="648.5" y="-263" font-family="Helvetica,sans-Serif" font-size="10.00">TinyXML2::XMLText::</text>
<text text-anchor="middle" x="697" y="-252" font-family="Helvetica,sans-Serif" font-size="10.00">ShallowClone</text>
</a>
</g>
</g>
<!-- Node18&#45;&gt;Node19 -->
<g id="edge20" class="edge"><title>Node18&#45;&gt;Node19</title>
<path fill="none" stroke="midnightblue" d="M599.059,-260C612.961,-260 627.25,-260 640.442,-260"/>
<polygon fill="midnightblue" stroke="midnightblue" points="599.026,-256.5 589.026,-260 599.026,-263.5 599.026,-256.5"/>
</g>
<!-- Node21 -->
<g id="node21" class="node"><title>Node21</title>
<g id="a_node21"><a xlink:href="a00197.xhtml#a7d46862e40732a3504f11bedee5c8b88" target="_top" xlink:title="TinyXML2::XMLDeclaration\l::ShallowClone">
<polygon fill="none" stroke="black" points="628.5,-147 628.5,-177 765.5,-177 765.5,-147 628.5,-147"/>
<text text-anchor="start" x="636.5" y="-165" font-family="Helvetica,sans-Serif" font-size="10.00">TinyXML2::XMLDeclaration</text>
<text text-anchor="middle" x="697" y="-154" font-family="Helvetica,sans-Serif" font-size="10.00">::ShallowClone</text>
</a>
</g>
</g>
<!-- Node20&#45;&gt;Node21 -->
<g id="edge23" class="edge"><title>Node20&#45;&gt;Node21</title>
<path fill="none" stroke="midnightblue" d="M599.07,-162C608.795,-162 618.709,-162 628.305,-162"/>
<polygon fill="midnightblue" stroke="midnightblue" points="599.026,-158.5 589.026,-162 599.026,-165.5 599.026,-158.5"/>
</g>
<!-- Node23 -->
<g id="node23" class="node"><title>Node23</title>
<g id="a_node23"><a xlink:href="a00204.xhtml#ad1af7fc04a6ea1ef03430ada735750e5" target="_top" xlink:title="TinyXML2::XMLUnknown\l::ShallowClone">
<polygon fill="none" stroke="black" points="633,-98 633,-128 761,-128 761,-98 633,-98"/>
<text text-anchor="start" x="641" y="-116" font-family="Helvetica,sans-Serif" font-size="10.00">TinyXML2::XMLUnknown</text>
<text text-anchor="middle" x="697" y="-105" font-family="Helvetica,sans-Serif" font-size="10.00">::ShallowClone</text>
</a>
</g>
</g>
<!-- Node22&#45;&gt;Node23 -->
<g id="edge25" class="edge"><title>Node22&#45;&gt;Node23</title>
<path fill="none" stroke="midnightblue" d="M599.241,-113C610.464,-113 621.936,-113 632.875,-113"/>
<polygon fill="midnightblue" stroke="midnightblue" points="599.026,-109.5 589.026,-113 599.026,-116.5 599.026,-109.5"/>
</g>
<!-- Node24&#45;&gt;Node13 -->
<g id="edge27" class="edge"><title>Node24&#45;&gt;Node13</title>
<path fill="none" stroke="midnightblue" d="M260.854,-195.815C273.075,-197.786 285.876,-199.851 297.961,-201.8"/>
<polygon fill="midnightblue" stroke="midnightblue" points="261.183,-192.323 250.753,-194.186 260.068,-199.234 261.183,-192.323"/>
</g>
<!-- Node25 -->
<g id="node25" class="node"><title>Node25</title>
<g id="a_node25"><a xlink:href="a00194.xhtml#ac93d475679bf1fb3e46418c012f238eb" target="_top" xlink:title="TinyXML2::XMLAttribute\l::SetName">
<polygon fill="none" stroke="black" points="294,-98 294,-128 418,-128 418,-98 294,-98"/>
<text text-anchor="start" x="302" y="-116" font-family="Helvetica,sans-Serif" font-size="10.00">TinyXML2::XMLAttribute</text>
<text text-anchor="middle" x="356" y="-105" font-family="Helvetica,sans-Serif" font-size="10.00">::SetName</text>
</a>
</g>
</g>
<!-- Node24&#45;&gt;Node25 -->
<g id="edge28" class="edge"><title>Node24&#45;&gt;Node25</title>
<path fill="none" stroke="midnightblue" d="M245.184,-166.799C249.529,-164.87 253.857,-162.916 258,-161 280.852,-150.43 306.357,-137.774 325.477,-128.112"/>
<polygon fill="midnightblue" stroke="midnightblue" points="243.462,-163.732 235.712,-170.957 246.275,-170.142 243.462,-163.732"/>
</g>
<!-- Node27 -->
<g id="node27" class="node"><title>Node27</title>
<g id="a_node27"><a xlink:href="a00194.xhtml#aa3dd7a461cd63bea4781f89af1316fb6" target="_top" xlink:title="Set the attribute to a string value. ">
<polygon fill="none" stroke="black" points="294,-0 294,-30 418,-30 418,-0 294,-0"/>
<text text-anchor="start" x="302" y="-18" font-family="Helvetica,sans-Serif" font-size="10.00">TinyXML2::XMLAttribute</text>
<text text-anchor="middle" x="356" y="-7" font-family="Helvetica,sans-Serif" font-size="10.00">::SetAttribute</text>
</a>
</g>
</g>
<!-- Node24&#45;&gt;Node27 -->
<g id="edge30" class="edge"><title>Node24&#45;&gt;Node27</title>
<path fill="none" stroke="midnightblue" d="M252.748,-165.43C254.593,-164.04 256.353,-162.565 258,-161 284.226,-136.083 274.262,-118.316 294,-88 307.967,-66.5465 327.383,-44.3106 340.53,-30.1045"/>
<polygon fill="midnightblue" stroke="midnightblue" points="250.68,-162.6 244.212,-170.991 254.502,-168.465 250.68,-162.6"/>
</g>
<!-- Node26 -->
<g id="node26" class="node"><title>Node26</title>
<g id="a_node26"><a xlink:href="a00199.xhtml#aba98ff0fab1bf13625988d0f2e3afa57" target="_top" xlink:title="TinyXML2::XMLElement\l::FindOrCreateAttribute">
<polygon fill="none" stroke="black" points="461.5,-49 461.5,-79 584.5,-79 584.5,-49 461.5,-49"/>
<text text-anchor="start" x="469.5" y="-67" font-family="Helvetica,sans-Serif" font-size="10.00">TinyXML2::XMLElement</text>
<text text-anchor="middle" x="523" y="-56" font-family="Helvetica,sans-Serif" font-size="10.00">::FindOrCreateAttribute</text>
</a>
</g>
</g>
<!-- Node25&#45;&gt;Node26 -->
<g id="edge29" class="edge"><title>Node25&#45;&gt;Node26</title>
<path fill="none" stroke="midnightblue" d="M417.501,-95.033C435.18,-89.783 454.313,-84.1011 471.316,-79.0516"/>
<polygon fill="midnightblue" stroke="midnightblue" points="416.442,-91.6965 407.852,-97.8986 418.434,-98.4069 416.442,-91.6965"/>
</g>
<!-- Node28 -->
<g id="node28" class="node"><title>Node28</title>
<g id="a_node28"><a xlink:href="a00199.xhtml#a8eb0c41120e9da3a8648e6ca38a6596f" target="_top" xlink:title="Sets the named attribute to value. ">
<polygon fill="none" stroke="black" points="461.5,-0 461.5,-30 584.5,-30 584.5,-0 461.5,-0"/>
<text text-anchor="start" x="469.5" y="-18" font-family="Helvetica,sans-Serif" font-size="10.00">TinyXML2::XMLElement</text>
<text text-anchor="middle" x="523" y="-7" font-family="Helvetica,sans-Serif" font-size="10.00">::SetAttribute</text>
</a>
</g>
</g>
<!-- Node27&#45;&gt;Node28 -->
<g id="edge31" class="edge"><title>Node27&#45;&gt;Node28</title>
<path fill="none" stroke="midnightblue" d="M428.753,-15C439.617,-15 450.734,-15 461.333,-15"/>
<polygon fill="midnightblue" stroke="midnightblue" points="428.44,-11.5001 418.44,-15 428.44,-18.5001 428.44,-11.5001"/>
</g>
<!-- Node29 -->
<g id="node29" class="node"><title>Node29</title>
<g id="a_node29"><a xlink:href="a00199.xhtml#afe5dfc0730ed1c1b2c9e6b177e6b2fa6" target="_top" xlink:title="TinyXML2::XMLElement\l::ShallowClone">
<polygon fill="none" stroke="black" points="635.5,-0 635.5,-30 758.5,-30 758.5,-0 635.5,-0"/>
<text text-anchor="start" x="643.5" y="-18" font-family="Helvetica,sans-Serif" font-size="10.00">TinyXML2::XMLElement</text>
<text text-anchor="middle" x="697" y="-7" font-family="Helvetica,sans-Serif" font-size="10.00">::ShallowClone</text>
</a>
</g>
</g>
<!-- Node28&#45;&gt;Node29 -->
<g id="edge32" class="edge"><title>Node28&#45;&gt;Node29</title>
<path fill="none" stroke="midnightblue" d="M594.806,-15C608.258,-15 622.223,-15 635.327,-15"/>
<polygon fill="midnightblue" stroke="midnightblue" points="594.641,-11.5001 584.641,-15 594.641,-18.5001 594.641,-11.5001"/>
</g>
<!-- Node31 -->
<g id="node31" class="node"><title>Node31</title>
<g id="a_node31"><a xlink:href="a00201.xhtml#a666a962d4e7ce40fad31a0d273659176" target="_top" xlink:title="TinyXML2::XMLNode::\lParseDeep">
<polygon fill="none" stroke="black" points="298,-358 298,-388 414,-388 414,-358 298,-358"/>
<text text-anchor="start" x="306" y="-376" font-family="Helvetica,sans-Serif" font-size="10.00">TinyXML2::XMLNode::</text>
<text text-anchor="middle" x="356" y="-365" font-family="Helvetica,sans-Serif" font-size="10.00">ParseDeep</text>
</a>
</g>
</g>
<!-- Node30&#45;&gt;Node31 -->
<g id="edge34" class="edge"><title>Node30&#45;&gt;Node31</title>
<path fill="none" stroke="midnightblue" d="M251.192,-335.495C271.359,-342.781 294.222,-351.041 313.348,-357.952"/>
<polygon fill="midnightblue" stroke="midnightblue" points="252.131,-332.113 241.537,-332.007 249.753,-338.697 252.131,-332.113"/>
</g>
<!-- Node31&#45;&gt;Node10 -->
<g id="edge36" class="edge"><title>Node31&#45;&gt;Node10</title>
<path fill="none" stroke="midnightblue" d="M391.01,-393.17C409.131,-403.044 432.143,-414.234 454,-421 574.064,-458.165 721.416,-471.627 802.428,-476.422"/>
<polygon fill="midnightblue" stroke="midnightblue" points="392.45,-389.966 382.011,-388.156 389.043,-396.081 392.45,-389.966"/>
</g>
<!-- Node31&#45;&gt;Node31 -->
<g id="edge35" class="edge"><title>Node31&#45;&gt;Node31</title>
<path fill="none" stroke="midnightblue" d="M328.694,-398.598C332.425,-402.97 341.527,-406 356,-406 380.375,-406 389.516,-397.406 383.422,-388.275"/>
<polygon fill="midnightblue" stroke="midnightblue" points="332.19,-398.235 328.578,-388.275 325.191,-398.314 332.19,-398.235"/>
</g>
<!-- Node32 -->
<g id="node32" class="node"><title>Node32</title>
<g id="a_node32"><a xlink:href="a00198.xhtml#a25c1fd4903914444fc31fb1b90dcffdb" target="_top" xlink:title="TinyXML2::XMLDocument\l::LoadFile">
<polygon fill="none" stroke="black" points="457,-382 457,-412 589,-412 589,-382 457,-382"/>
<text text-anchor="start" x="465" y="-400" font-family="Helvetica,sans-Serif" font-size="10.00">TinyXML2::XMLDocument</text>
<text text-anchor="middle" x="523" y="-389" font-family="Helvetica,sans-Serif" font-size="10.00">::LoadFile</text>
</a>
</g>
</g>
<!-- Node31&#45;&gt;Node32 -->
<g id="edge37" class="edge"><title>Node31&#45;&gt;Node32</title>
<path fill="none" stroke="midnightblue" d="M424.413,-382.805C435.156,-384.368 446.252,-385.982 456.939,-387.537"/>
<polygon fill="midnightblue" stroke="midnightblue" points="424.646,-379.303 414.246,-381.327 423.638,-386.23 424.646,-379.303"/>
</g>
<!-- Node33 -->
<g id="node33" class="node"><title>Node33</title>
<g id="a_node33"><a xlink:href="a00198.xhtml#a2734f0824ea57c5c26f61b4f3ff2514a" target="_top" xlink:title="TinyXML2::XMLDocument\l::Parse">
<polygon fill="none" stroke="black" points="457,-333 457,-363 589,-363 589,-333 457,-333"/>
<text text-anchor="start" x="465" y="-351" font-family="Helvetica,sans-Serif" font-size="10.00">TinyXML2::XMLDocument</text>
<text text-anchor="middle" x="523" y="-340" font-family="Helvetica,sans-Serif" font-size="10.00">::Parse</text>
</a>
</g>
</g>
<!-- Node31&#45;&gt;Node33 -->
<g id="edge38" class="edge"><title>Node31&#45;&gt;Node33</title>
<path fill="none" stroke="midnightblue" d="M424.413,-362.786C435.156,-361.158 446.252,-359.477 456.939,-357.858"/>
<polygon fill="midnightblue" stroke="midnightblue" points="423.609,-359.368 414.246,-364.326 424.657,-366.289 423.609,-359.368"/>
</g>
</g>
</svg>
        <g id="navigator" transform="translate(0 0)" fill="#404254">
                <rect fill="#f2f5e9" fill-opacity="0.5" stroke="#606060" stroke-width=".5" x="0" y="0" width="60" height="60"/>
                <use id="zoomplus" xlink:href="#zoomPlus" x="17" y="9" onmousedown="handleZoom(evt,'in')"/>
                <use id="zoomminus" xlink:href="#zoomMin" x="42" y="9" onmousedown="handleZoom(evt,'out')"/>
                <use id="reset" xlink:href="#resetDef" x="30" y="36" onmousedown="handleReset()"/>
                <g id="arrowUp" xlink:href="#dirArrow" transform="translate(30 24)" onmousedown="handlePan(0,-1)">
                  <use xlink:href="#rim" fill="#404040">
                        <set attributeName="fill" to="#808080" begin="arrowUp.mouseover" end="arrowUp.mouseout"/>
                  </use>
                  <path fill="none" stroke="white" stroke-width="1.5" d="M0,-3.0v7 M-2.5,-0.5L0,-3.0L2.5,-0.5"/>
                </g>
                <g id="arrowRight" xlink:href="#dirArrow" transform="rotate(90) translate(36 -43)" onmousedown="handlePan(1,0)">
                  <use xlink:href="#rim" fill="#404040">
                        <set attributeName="fill" to="#808080" begin="arrowRight.mouseover" end="arrowRight.mouseout"/>
                  </use>
                  <path fill="none" stroke="white" stroke-width="1.5" d="M0,-3.0v7 M-2.5,-0.5L0,-3.0L2.5,-0.5"/>
                </g>
                <g id="arrowDown" xlink:href="#dirArrow" transform="rotate(180) translate(-30 -48)" onmousedown="handlePan(0,1)">
                  <use xlink:href="#rim" fill="#404040">
                        <set attributeName="fill" to="#808080" begin="arrowDown.mouseover" end="arrowDown.mouseout"/>
                  </use>
                  <path fill="none" stroke="white" stroke-width="1.5" d="M0,-3.0v7 M-2.5,-0.5L0,-3.0L2.5,-0.5"/>
                </g>
                <g id="arrowLeft" xlink:href="#dirArrow" transform="rotate(270) translate(-36 17)" onmousedown="handlePan(-1,0)">
                  <use xlink:href="#rim" fill="#404040">
                        <set attributeName="fill" to="#808080" begin="arrowLeft.mouseover" end="arrowLeft.mouseout"/>
                  </use>
                  <path fill="none" stroke="white" stroke-width="1.5" d="M0,-3.0v7 M-2.5,-0.5L0,-3.0L2.5,-0.5"/>
                </g>
        </g>
        <svg viewBox="0 0 15 15" width="100%" height="30px" preserveAspectRatio="xMaxYMin meet">
         <g id="arrow_out" transform="scale(0.3 0.3)">
          <a xlink:href="a00133_afbc7a4f921afeff8ef2aca24765ed24f_icgraph_org.svg" target="_base">
           <rect id="button" ry="5" rx="5" y="6" x="6" height="38" width="38"
                fill="#f2f5e9" fill-opacity="0.5" stroke="#606060" stroke-width="1.0"/>
           <path id="arrow"
             d="M 11.500037,31.436501 C 11.940474,20.09759 22.043105,11.32322 32.158766,21.979434 L 37.068811,17.246167 C 37.068811,17.246167 37.088388,32 37.088388,32 L 22.160133,31.978069 C 22.160133,31.978069 26.997745,27.140456 26.997745,27.140456 C 18.528582,18.264221 13.291696,25.230495 11.500037,31.436501 z"
             style="fill:#404040;"/>
          </a>
         </g>
        </svg>
</svg>
