<?xml version="1.0" encoding="UTF-8" standalone="no"?>
<!DOCTYPE svg PUBLIC "-//W3C//DTD SVG 1.1//EN"
 "http://www.w3.org/Graphics/SVG/1.1/DTD/svg11.dtd">
<!-- Generated by graphviz version 2.36.0 (20140111.2315)
 -->
<!-- Title: Voxel::ToFCrossTalkFilter::_filter Pages: 1 -->
<svg width="318pt" height="371pt"
 viewBox="0.00 0.00 318.00 371.00" xmlns="http://www.w3.org/2000/svg" xmlns:xlink="http://www.w3.org/1999/xlink">
<g id="graph0" class="graph" transform="scale(1 1) rotate(0) translate(4 367)">
<title>Voxel::ToFCrossTalkFilter::_filter</title>
<!-- Node1 -->
<g id="node1" class="node"><title>Node1</title>
<polygon fill="#bfbfbf" stroke="black" points="0.5,-171 0.5,-201 131.5,-201 131.5,-171 0.5,-171"/>
<text text-anchor="start" x="8.5" y="-189" font-family="Helvetica,sans-Serif" font-size="10.00">Voxel::ToFCrossTalkFilter</text>
<text text-anchor="middle" x="66" y="-178" font-family="Helvetica,sans-Serif" font-size="10.00">::_filter</text>
</g>
<!-- Node2 -->
<g id="node2" class="node"><title>Node2</title>
<g id="a_node2"><a xlink:href="a00055.xhtml#a18f9bcab63cbe3fd827db6875f06f906" target="_top" xlink:title="Voxel::Filter::_prepareOutput">
<polygon fill="none" stroke="black" points="168,-343.5 168,-362.5 310,-362.5 310,-343.5 168,-343.5"/>
<text text-anchor="middle" x="239" y="-350.5" font-family="Helvetica,sans-Serif" font-size="10.00">Voxel::Filter::_prepareOutput</text>
</a>
</g>
</g>
<!-- Node1&#45;&gt;Node2 -->
<g id="edge1" class="edge"><title>Node1&#45;&gt;Node2</title>
<path fill="none" stroke="midnightblue" d="M73.1215,-201.056C86.0384,-230.906 118.983,-297.743 168,-333 171.405,-335.449 175.104,-337.6 178.963,-339.487"/>
<polygon fill="midnightblue" stroke="midnightblue" points="177.624,-342.722 188.195,-343.433 180.375,-336.285 177.624,-342.722"/>
</g>
<!-- Node3 -->
<g id="node3" class="node"><title>Node3</title>
<g id="a_node3"><a xlink:href="a00160.xhtml#a62d21aa88579379c97a51b40ff370f05" target="_top" xlink:title="Voxel::ToFRawFrame\l::ambient">
<polygon fill="none" stroke="black" points="182.5,-294 182.5,-324 295.5,-324 295.5,-294 182.5,-294"/>
<text text-anchor="start" x="190.5" y="-312" font-family="Helvetica,sans-Serif" font-size="10.00">Voxel::ToFRawFrame</text>
<text text-anchor="middle" x="239" y="-301" font-family="Helvetica,sans-Serif" font-size="10.00">::ambient</text>
</a>
</g>
</g>
<!-- Node1&#45;&gt;Node3 -->
<g id="edge2" class="edge"><title>Node1&#45;&gt;Node3</title>
<path fill="none" stroke="midnightblue" d="M79.1319,-201.35C96.6704,-222.619 131.077,-261.022 168,-284 171.201,-285.992 174.584,-287.855 178.064,-289.593"/>
<polygon fill="midnightblue" stroke="midnightblue" points="176.901,-292.91 187.449,-293.901 179.821,-286.548 176.901,-292.91"/>
</g>
<!-- Node4 -->
<g id="node4" class="node"><title>Node4</title>
<g id="a_node4"><a xlink:href="a00160.xhtml#a71129221a2aadc0e1ca8551ac11ef5cd" target="_top" xlink:title="Voxel::ToFRawFrame\l::ambientWordWidth">
<polygon fill="none" stroke="black" points="182.5,-245 182.5,-275 295.5,-275 295.5,-245 182.5,-245"/>
<text text-anchor="start" x="190.5" y="-263" font-family="Helvetica,sans-Serif" font-size="10.00">Voxel::ToFRawFrame</text>
<text text-anchor="middle" x="239" y="-252" font-family="Helvetica,sans-Serif" font-size="10.00">::ambientWordWidth</text>
</a>
</g>
</g>
<!-- Node1&#45;&gt;Node4 -->
<g id="edge3" class="edge"><title>Node1&#45;&gt;Node4</title>
<path fill="none" stroke="midnightblue" d="M95.7869,-201.001C115.788,-211.166 143.2,-224.592 168,-235 173.131,-237.154 178.521,-239.291 183.935,-241.357"/>
<polygon fill="midnightblue" stroke="midnightblue" points="183.065,-244.768 193.657,-244.985 185.512,-238.21 183.065,-244.768"/>
</g>
<!-- Node5 -->
<g id="node5" class="node"><title>Node5</title>
<g id="a_node5"><a xlink:href="a00160.xhtml#a38cdfc04eef41661cdcaec4c0870e687" target="_top" xlink:title="Voxel::ToFRawFrame\l::amplitude">
<polygon fill="none" stroke="black" points="182.5,-196 182.5,-226 295.5,-226 295.5,-196 182.5,-196"/>
<text text-anchor="start" x="190.5" y="-214" font-family="Helvetica,sans-Serif" font-size="10.00">Voxel::ToFRawFrame</text>
<text text-anchor="middle" x="239" y="-203" font-family="Helvetica,sans-Serif" font-size="10.00">::amplitude</text>
</a>
</g>
</g>
<!-- Node1&#45;&gt;Node5 -->
<g id="edge4" class="edge"><title>Node1&#45;&gt;Node5</title>
<path fill="none" stroke="midnightblue" d="M131.648,-195.451C144.988,-197.402 159.049,-199.457 172.422,-201.413"/>
<polygon fill="midnightblue" stroke="midnightblue" points="172.089,-204.901 182.49,-202.885 173.102,-197.975 172.089,-204.901"/>
</g>
<!-- Node6 -->
<g id="node6" class="node"><title>Node6</title>
<g id="a_node6"><a xlink:href="a00160.xhtml#abc808bba1a6289d3e95e790104d6c80f" target="_top" xlink:title="Voxel::ToFRawFrame\l::flags">
<polygon fill="none" stroke="black" points="182.5,-147 182.5,-177 295.5,-177 295.5,-147 182.5,-147"/>
<text text-anchor="start" x="190.5" y="-165" font-family="Helvetica,sans-Serif" font-size="10.00">Voxel::ToFRawFrame</text>
<text text-anchor="middle" x="239" y="-154" font-family="Helvetica,sans-Serif" font-size="10.00">::flags</text>
</a>
</g>
</g>
<!-- Node1&#45;&gt;Node6 -->
<g id="edge5" class="edge"><title>Node1&#45;&gt;Node6</title>
<path fill="none" stroke="midnightblue" d="M131.648,-176.927C144.988,-175.054 159.049,-173.081 172.422,-171.204"/>
<polygon fill="midnightblue" stroke="midnightblue" points="173.074,-174.647 182.49,-169.791 172.101,-167.715 173.074,-174.647"/>
</g>
<!-- Node7 -->
<g id="node7" class="node"><title>Node7</title>
<g id="a_node7"><a xlink:href="a00160.xhtml#a7f51f217b13dddc61ceec2270dbfcf2f" target="_top" xlink:title="Voxel::ToFRawFrame\l::flagsWordWidth">
<polygon fill="none" stroke="black" points="182.5,-98 182.5,-128 295.5,-128 295.5,-98 182.5,-98"/>
<text text-anchor="start" x="190.5" y="-116" font-family="Helvetica,sans-Serif" font-size="10.00">Voxel::ToFRawFrame</text>
<text text-anchor="middle" x="239" y="-105" font-family="Helvetica,sans-Serif" font-size="10.00">::flagsWordWidth</text>
</a>
</g>
</g>
<!-- Node1&#45;&gt;Node7 -->
<g id="edge6" class="edge"><title>Node1&#45;&gt;Node7</title>
<path fill="none" stroke="midnightblue" d="M96.6964,-170.918C116.632,-161.034 143.613,-148.12 168,-138 173.14,-135.867 178.535,-133.743 183.953,-131.686"/>
<polygon fill="midnightblue" stroke="midnightblue" points="185.527,-134.835 193.68,-128.068 183.087,-128.274 185.527,-134.835"/>
</g>
<!-- Node8 -->
<g id="node8" class="node"><title>Node8</title>
<g id="a_node8"><a xlink:href="a00160.xhtml#ab66f7bd205a6a5c16b0a47aedc00a7b4" target="_top" xlink:title="Voxel::ToFRawFrame\l::phase">
<polygon fill="none" stroke="black" points="182.5,-49 182.5,-79 295.5,-79 295.5,-49 182.5,-49"/>
<text text-anchor="start" x="190.5" y="-67" font-family="Helvetica,sans-Serif" font-size="10.00">Voxel::ToFRawFrame</text>
<text text-anchor="middle" x="239" y="-56" font-family="Helvetica,sans-Serif" font-size="10.00">::phase</text>
</a>
</g>
</g>
<!-- Node1&#45;&gt;Node8 -->
<g id="edge7" class="edge"><title>Node1&#45;&gt;Node8</title>
<path fill="none" stroke="midnightblue" d="M79.1664,-170.814C96.7458,-149.771 131.2,-111.771 168,-89 171.206,-87.016 174.593,-85.1592 178.076,-83.4264"/>
<polygon fill="midnightblue" stroke="midnightblue" points="179.831,-86.4722 187.467,-79.1271 176.918,-80.1075 179.831,-86.4722"/>
</g>
<!-- Node9 -->
<g id="node9" class="node"><title>Node9</title>
<g id="a_node9"><a xlink:href="a00160.xhtml#af3fb7938e3e76c26299efe07f69d406f" target="_top" xlink:title="Voxel::ToFRawFrame\l::phaseWordWidth">
<polygon fill="none" stroke="black" points="182.5,-0 182.5,-30 295.5,-30 295.5,-0 182.5,-0"/>
<text text-anchor="start" x="190.5" y="-18" font-family="Helvetica,sans-Serif" font-size="10.00">Voxel::ToFRawFrame</text>
<text text-anchor="middle" x="239" y="-7" font-family="Helvetica,sans-Serif" font-size="10.00">::phaseWordWidth</text>
</a>
</g>
</g>
<!-- Node1&#45;&gt;Node9 -->
<g id="edge8" class="edge"><title>Node1&#45;&gt;Node9</title>
<path fill="none" stroke="midnightblue" d="M73.5545,-170.861C87.0172,-141.472 120.556,-76.3911 168,-40 170.43,-38.1359 173.012,-36.4026 175.695,-34.7918"/>
<polygon fill="midnightblue" stroke="midnightblue" points="177.386,-37.8568 184.553,-30.0543 174.084,-31.6841 177.386,-37.8568"/>
</g>
</g>
</svg>
