<?xml version="1.0" encoding="UTF-8" standalone="no"?>
<!DOCTYPE svg PUBLIC "-//W3C//DTD SVG 1.1//EN"
 "http://www.w3.org/Graphics/SVG/1.1/DTD/svg11.dtd">
<!-- Generated by graphviz version 2.36.0 (20140111.2315)
 -->
<!-- Title: Voxel::TI::ToFCamera::_setFrameRate Pages: 1 -->
<svg width="492pt" height="136pt"
 viewBox="0.00 0.00 492.00 136.00" xmlns="http://www.w3.org/2000/svg" xmlns:xlink="http://www.w3.org/1999/xlink">
<g id="graph0" class="graph" transform="scale(1 1) rotate(0) translate(4 132)">
<title>Voxel::TI::ToFCamera::_setFrameRate</title>
<!-- Node1 -->
<g id="node1" class="node"><title>Node1</title>
<polygon fill="#bfbfbf" stroke="black" points="0,-49 0,-79 114,-79 114,-49 0,-49"/>
<text text-anchor="start" x="8" y="-67" font-family="Helvetica,sans-Serif" font-size="10.00">Voxel::TI::ToFCamera</text>
<text text-anchor="middle" x="57" y="-56" font-family="Helvetica,sans-Serif" font-size="10.00">::_setFrameRate</text>
</g>
<!-- Node2 -->
<g id="node2" class="node"><title>Node2</title>
<g id="a_node2"><a xlink:href="a00036.xhtml#ac850b3829f41e647686610c283197ea6" target="_top" xlink:title="Voxel::DepthCamera\l::_get">
<polygon fill="none" stroke="black" points="169,-98 169,-128 277,-128 277,-98 169,-98"/>
<text text-anchor="start" x="177" y="-116" font-family="Helvetica,sans-Serif" font-size="10.00">Voxel::DepthCamera</text>
<text text-anchor="middle" x="223" y="-105" font-family="Helvetica,sans-Serif" font-size="10.00">::_get</text>
</a>
</g>
</g>
<!-- Node1&#45;&gt;Node2 -->
<g id="edge1" class="edge"><title>Node1&#45;&gt;Node2</title>
<path fill="none" stroke="midnightblue" d="M108.544,-79.1014C125.458,-84.1551 144.477,-89.8376 162.039,-95.0848"/>
<polygon fill="midnightblue" stroke="midnightblue" points="161.04,-98.4391 171.623,-97.9484 163.044,-91.7321 161.04,-98.4391"/>
</g>
<!-- Node5 -->
<g id="node5" class="node"><title>Node5</title>
<g id="a_node5"><a xlink:href="a00153.xhtml#ae2c116b5f3e0598f9a449c70f8ff5b6a" target="_top" xlink:title="Voxel::TI::ToFCamera\l::_getSystemClockFrequency">
<polygon fill="none" stroke="black" points="150,-49 150,-79 296,-79 296,-49 150,-49"/>
<text text-anchor="start" x="158" y="-67" font-family="Helvetica,sans-Serif" font-size="10.00">Voxel::TI::ToFCamera</text>
<text text-anchor="middle" x="223" y="-56" font-family="Helvetica,sans-Serif" font-size="10.00">::_getSystemClockFrequency</text>
</a>
</g>
</g>
<!-- Node1&#45;&gt;Node5 -->
<g id="edge4" class="edge"><title>Node1&#45;&gt;Node5</title>
<path fill="none" stroke="midnightblue" d="M114.439,-64C122.631,-64 131.2,-64 139.773,-64"/>
<polygon fill="midnightblue" stroke="midnightblue" points="139.816,-67.5001 149.816,-64 139.815,-60.5001 139.816,-67.5001"/>
</g>
<!-- Node6 -->
<g id="node6" class="node"><title>Node6</title>
<g id="a_node6"><a xlink:href="a00036.xhtml#a474dfafecfd8b2a97a924aeab8a82a3c" target="_top" xlink:title="Voxel::DepthCamera\l::_set">
<polygon fill="none" stroke="black" points="169,-0 169,-30 277,-30 277,-0 169,-0"/>
<text text-anchor="start" x="177" y="-18" font-family="Helvetica,sans-Serif" font-size="10.00">Voxel::DepthCamera</text>
<text text-anchor="middle" x="223" y="-7" font-family="Helvetica,sans-Serif" font-size="10.00">::_set</text>
</a>
</g>
</g>
<!-- Node1&#45;&gt;Node6 -->
<g id="edge5" class="edge"><title>Node1&#45;&gt;Node6</title>
<path fill="none" stroke="midnightblue" d="M108.544,-48.8986C125.458,-43.8449 144.477,-38.1624 162.039,-32.9152"/>
<polygon fill="midnightblue" stroke="midnightblue" points="163.044,-36.2679 171.623,-30.0516 161.04,-29.5609 163.044,-36.2679"/>
</g>
<!-- Node3 -->
<g id="node3" class="node"><title>Node3</title>
<g id="a_node3"><a xlink:href="a00103.xhtml#afa8896eaffbd2b87d1482c0967a0fe1d" target="_top" xlink:title="Voxel::ParameterTemplate::get">
<polygon fill="none" stroke="black" points="332,-103.5 332,-122.5 484,-122.5 484,-103.5 332,-103.5"/>
<text text-anchor="middle" x="408" y="-110.5" font-family="Helvetica,sans-Serif" font-size="10.00">Voxel::ParameterTemplate::get</text>
</a>
</g>
</g>
<!-- Node2&#45;&gt;Node3 -->
<g id="edge2" class="edge"><title>Node2&#45;&gt;Node3</title>
<path fill="none" stroke="midnightblue" d="M277.423,-113C291.224,-113 306.431,-113 321.424,-113"/>
<polygon fill="midnightblue" stroke="midnightblue" points="321.751,-116.5 331.751,-113 321.751,-109.5 321.751,-116.5"/>
</g>
<!-- Node4 -->
<g id="node4" class="node"><title>Node4</title>
<g id="a_node4"><a xlink:href="a00036.xhtml#ae3d6fcc6d4a20d1ad2de809ad65ecc34" target="_top" xlink:title="Voxel::DepthCamera\l::name">
<polygon fill="none" stroke="black" points="354,-49 354,-79 462,-79 462,-49 354,-49"/>
<text text-anchor="start" x="362" y="-67" font-family="Helvetica,sans-Serif" font-size="10.00">Voxel::DepthCamera</text>
<text text-anchor="middle" x="408" y="-56" font-family="Helvetica,sans-Serif" font-size="10.00">::name</text>
</a>
</g>
</g>
<!-- Node2&#45;&gt;Node4 -->
<g id="edge3" class="edge"><title>Node2&#45;&gt;Node4</title>
<path fill="none" stroke="midnightblue" d="M277.423,-98.6954C298.282,-93.1103 322.354,-86.6647 344.047,-80.8562"/>
<polygon fill="midnightblue" stroke="midnightblue" points="345.072,-84.2051 353.827,-78.2376 343.262,-77.4433 345.072,-84.2051"/>
</g>
<!-- Node6&#45;&gt;Node4 -->
<g id="edge6" class="edge"><title>Node6&#45;&gt;Node4</title>
<path fill="none" stroke="midnightblue" d="M277.423,-29.3046C298.282,-34.8897 322.354,-41.3353 344.047,-47.1438"/>
<polygon fill="midnightblue" stroke="midnightblue" points="343.262,-50.5567 353.827,-49.7624 345.072,-43.7949 343.262,-50.5567"/>
</g>
<!-- Node7 -->
<g id="node7" class="node"><title>Node7</title>
<g id="a_node7"><a xlink:href="a00103.xhtml#a64240b607339f55c4fac973fba8c8934" target="_top" xlink:title="Voxel::ParameterTemplate::set">
<polygon fill="none" stroke="black" points="332,-5.5 332,-24.5 484,-24.5 484,-5.5 332,-5.5"/>
<text text-anchor="middle" x="408" y="-12.5" font-family="Helvetica,sans-Serif" font-size="10.00">Voxel::ParameterTemplate::set</text>
</a>
</g>
</g>
<!-- Node6&#45;&gt;Node7 -->
<g id="edge7" class="edge"><title>Node6&#45;&gt;Node7</title>
<path fill="none" stroke="midnightblue" d="M277.423,-15C291.224,-15 306.431,-15 321.424,-15"/>
<polygon fill="midnightblue" stroke="midnightblue" points="321.751,-18.5001 331.751,-15 321.751,-11.5001 321.751,-18.5001"/>
</g>
</g>
</svg>
