<?xml version="1.0" encoding="UTF-8" standalone="no"?>
<!DOCTYPE svg PUBLIC "-//W3C//DTD SVG 1.1//EN"
 "http://www.w3.org/Graphics/SVG/1.1/DTD/svg11.dtd">
<!-- Generated by graphviz version 2.36.0 (20140111.2315)
 -->
<!-- Title: Voxel::PointCloudTransform::_screenToNormalizedScreen Pages: 1 -->
<!--zoomable 175 -->
<svg id="main" version="1.1" xmlns="http://www.w3.org/2000/svg" xmlns:xlink="http://www.w3.org/1999/xlink" xml:space="preserve" onload="init(evt)">
<style type="text/css"><![CDATA[
.edge:hover path { stroke: red; }
.edge:hover polygon { stroke: red; fill: red; }
]]></style>
<script type="text/javascript"><![CDATA[
var edges = document.getElementsByTagName('g');
if (edges && edges.length) {
  for (var i=0;i<edges.length;i++) {
    if (edges[i].id.substr(0,4)=='edge') {
      edges[i].setAttribute('class','edge');
    }
  }
}
]]></script>
        <defs>
                <circle id="rim" cx="0" cy="0" r="7"/>
                <circle id="rim2" cx="0" cy="0" r="3.5"/>
                <g id="zoomPlus">
                        <use xlink:href="#rim" fill="#404040">
                                <set attributeName="fill" to="#808080" begin="zoomplus.mouseover" end="zoomplus.mouseout"/>
                        </use>
                        <path d="M-4,0h8M0,-4v8" fill="none" stroke="white" stroke-width="1.5" pointer-events="none"/>
                </g>
                <g id="zoomMin">
                        <use xlink:href="#rim" fill="#404040">
                                <set attributeName="fill" to="#808080" begin="zoomminus.mouseover" end="zoomminus.mouseout"/>
                        </use>
                        <path d="M-4,0h8" fill="none" stroke="white" stroke-width="1.5" pointer-events="none"/>
                </g>
                <g id="dirArrow">
                        <path fill="none" stroke="white" stroke-width="1.5" d="M0,-3.0v7 M-2.5,-0.5L0,-3.0L2.5,-0.5"/>
                </g>
               <g id="resetDef">
                       <use xlink:href="#rim2" fill="#404040">
                               <set attributeName="fill" to="#808080" begin="reset.mouseover" end="reset.mouseout"/>
                       </use>
               </g>
        </defs>

<script type="text/javascript">
var viewWidth = 734;
var viewHeight = 175;
var sectionId = 'dynsection-11';
</script>
<script xlink:href="svgpan.js"/>
<svg id="graph" class="graph">
<g id="viewport">
<title>Voxel::PointCloudTransform::_screenToNormalizedScreen</title>
<!-- Node1 -->
<g id="node1" class="node"><title>Node1</title>
<polygon fill="#bfbfbf" stroke="black" points="0.5,-71 0.5,-101 149.5,-101 149.5,-71 0.5,-71"/>
<text text-anchor="start" x="8.5" y="-89" font-family="Helvetica,sans-Serif" font-size="10.00">Voxel::PointCloudTransform</text>
<text text-anchor="middle" x="75" y="-78" font-family="Helvetica,sans-Serif" font-size="10.00">::_screenToNormalizedScreen</text>
</g>
<!-- Node2 -->
<g id="node2" class="node"><title>Node2</title>
<g id="a_node2"><a xlink:href="a00112.xhtml#ae248ffdde5970a941c5968150793c2a4" target="_top" xlink:title="Voxel::PointCloudTransform\l::_computeClippingPlanes">
<polygon fill="none" stroke="black" points="186,-137 186,-167 326,-167 326,-137 186,-137"/>
<text text-anchor="start" x="194" y="-155" font-family="Helvetica,sans-Serif" font-size="10.00">Voxel::PointCloudTransform</text>
<text text-anchor="middle" x="256" y="-144" font-family="Helvetica,sans-Serif" font-size="10.00">::_computeClippingPlanes</text>
</a>
</g>
</g>
<!-- Node1&#45;&gt;Node2 -->
<g id="edge1" class="edge"><title>Node1&#45;&gt;Node2</title>
<path fill="none" stroke="midnightblue" d="M126.579,-104.649C154.267,-114.858 188.126,-127.343 214.125,-136.929"/>
<polygon fill="midnightblue" stroke="midnightblue" points="127.66,-101.317 117.066,-101.142 125.238,-107.885 127.66,-101.317"/>
</g>
<!-- Node3 -->
<g id="node3" class="node"><title>Node3</title>
<g id="a_node3"><a xlink:href="a00112.xhtml#ad207c9b6eb6e4b397dfc07b932b32ab3" target="_top" xlink:title="Voxel::PointCloudTransform\l::_init">
<polygon fill="none" stroke="black" points="386,-118 386,-148 526,-148 526,-118 386,-118"/>
<text text-anchor="start" x="394" y="-136" font-family="Helvetica,sans-Serif" font-size="10.00">Voxel::PointCloudTransform</text>
<text text-anchor="middle" x="456" y="-125" font-family="Helvetica,sans-Serif" font-size="10.00">::_init</text>
</a>
</g>
</g>
<!-- Node1&#45;&gt;Node3 -->
<g id="edge7" class="edge"><title>Node1&#45;&gt;Node3</title>
<path fill="none" stroke="midnightblue" d="M159.762,-96.3874C227.658,-104.807 322.188,-116.53 385.832,-124.422"/>
<polygon fill="midnightblue" stroke="midnightblue" points="159.879,-92.8752 149.524,-95.1178 159.018,-99.822 159.879,-92.8752"/>
</g>
<!-- Node5 -->
<g id="node5" class="node"><title>Node5</title>
<g id="a_node5"><a xlink:href="a00112.xhtml#a2888e35fe0b3c790ca6647891622952d" target="_top" xlink:title="Voxel::PointCloudTransform\l::_computeConcaveMirror">
<polygon fill="none" stroke="black" points="186,-49 186,-79 326,-79 326,-49 186,-49"/>
<text text-anchor="start" x="194" y="-67" font-family="Helvetica,sans-Serif" font-size="10.00">Voxel::PointCloudTransform</text>
<text text-anchor="middle" x="256" y="-56" font-family="Helvetica,sans-Serif" font-size="10.00">::_computeConcaveMirror</text>
</a>
</g>
</g>
<!-- Node1&#45;&gt;Node5 -->
<g id="edge4" class="edge"><title>Node1&#45;&gt;Node5</title>
<path fill="none" stroke="midnightblue" d="M159.743,-75.7076C168.445,-74.6381 177.219,-73.5596 185.736,-72.5129"/>
<polygon fill="midnightblue" stroke="midnightblue" points="159.079,-72.2627 149.581,-76.9565 159.933,-79.2104 159.079,-72.2627"/>
</g>
<!-- Node8 -->
<g id="node8" class="node"><title>Node8</title>
<g id="a_node8"><a xlink:href="a00112.xhtml#a7bca705de4b976293c5bf39fd5f57d3a" target="_top" xlink:title="Voxel::PointCloudTransform\l::imageToWorld">
<polygon fill="none" stroke="black" points="186,-0 186,-30 326,-30 326,-0 186,-0"/>
<text text-anchor="start" x="194" y="-18" font-family="Helvetica,sans-Serif" font-size="10.00">Voxel::PointCloudTransform</text>
<text text-anchor="middle" x="256" y="-7" font-family="Helvetica,sans-Serif" font-size="10.00">::imageToWorld</text>
</a>
</g>
</g>
<!-- Node1&#45;&gt;Node8 -->
<g id="edge8" class="edge"><title>Node1&#45;&gt;Node8</title>
<path fill="none" stroke="midnightblue" d="M118.723,-66.9329C138.978,-58.1024 163.596,-47.6709 186,-39 193.807,-35.9787 202.174,-32.92 210.295,-30.0441"/>
<polygon fill="midnightblue" stroke="midnightblue" points="117.208,-63.7753 109.453,-70.9945 120.017,-70.1868 117.208,-63.7753"/>
</g>
<!-- Node2&#45;&gt;Node3 -->
<g id="edge2" class="edge"><title>Node2&#45;&gt;Node3</title>
<path fill="none" stroke="midnightblue" d="M336.329,-144.388C352.697,-142.817 369.813,-141.174 385.788,-139.642"/>
<polygon fill="midnightblue" stroke="midnightblue" points="335.871,-140.915 326.251,-145.355 336.539,-147.883 335.871,-140.915"/>
</g>
<!-- Node4 -->
<g id="node4" class="node"><title>Node4</title>
<g id="a_node4"><a xlink:href="a00112.xhtml#ad10666d5b69f82a2ec826810ad1465af" target="_top" xlink:title="Voxel::PointCloudTransform\l::PointCloudTransform">
<polygon fill="none" stroke="black" points="586,-118 586,-148 726,-148 726,-118 586,-118"/>
<text text-anchor="start" x="594" y="-136" font-family="Helvetica,sans-Serif" font-size="10.00">Voxel::PointCloudTransform</text>
<text text-anchor="middle" x="656" y="-125" font-family="Helvetica,sans-Serif" font-size="10.00">::PointCloudTransform</text>
</a>
</g>
</g>
<!-- Node3&#45;&gt;Node4 -->
<g id="edge3" class="edge"><title>Node3&#45;&gt;Node4</title>
<path fill="none" stroke="midnightblue" d="M536.329,-133C552.697,-133 569.813,-133 585.788,-133"/>
<polygon fill="midnightblue" stroke="midnightblue" points="536.251,-129.5 526.251,-133 536.251,-136.5 536.251,-129.5"/>
</g>
<!-- Node6 -->
<g id="node6" class="node"><title>Node6</title>
<g id="a_node6"><a xlink:href="a00112.xhtml#a4daabe7e3ffa9eac191e4b347a4dc404" target="_top" xlink:title="Voxel::PointCloudTransform\l::_computeConcaveMirrorBorders">
<polygon fill="none" stroke="black" points="374.5,-59 374.5,-89 537.5,-89 537.5,-59 374.5,-59"/>
<text text-anchor="start" x="382.5" y="-77" font-family="Helvetica,sans-Serif" font-size="10.00">Voxel::PointCloudTransform</text>
<text text-anchor="middle" x="456" y="-66" font-family="Helvetica,sans-Serif" font-size="10.00">::_computeConcaveMirrorBorders</text>
</a>
</g>
</g>
<!-- Node5&#45;&gt;Node6 -->
<g id="edge5" class="edge"><title>Node5&#45;&gt;Node6</title>
<path fill="none" stroke="midnightblue" d="M336.559,-68.0181C348.972,-68.645 361.808,-69.2934 374.247,-69.9216"/>
<polygon fill="midnightblue" stroke="midnightblue" points="336.415,-64.5065 326.251,-67.4975 336.061,-71.4976 336.415,-64.5065"/>
</g>
<!-- Node7 -->
<g id="node7" class="node"><title>Node7</title>
<g id="a_node7"><a xlink:href="a00112.xhtml#a75960f0955e8048d63ff2d8e590d4533" target="_top" xlink:title="Voxel::PointCloudTransform\l::_computeConcaveMirrorBordersOuter">
<polygon fill="none" stroke="black" points="362.5,-10 362.5,-40 549.5,-40 549.5,-10 362.5,-10"/>
<text text-anchor="start" x="370.5" y="-28" font-family="Helvetica,sans-Serif" font-size="10.00">Voxel::PointCloudTransform</text>
<text text-anchor="middle" x="456" y="-17" font-family="Helvetica,sans-Serif" font-size="10.00">::_computeConcaveMirrorBordersOuter</text>
</a>
</g>
</g>
<!-- Node5&#45;&gt;Node7 -->
<g id="edge6" class="edge"><title>Node5&#45;&gt;Node7</title>
<path fill="none" stroke="midnightblue" d="M336.313,-48.3778C350.287,-45.6253 364.806,-42.7654 378.696,-40.0296"/>
<polygon fill="midnightblue" stroke="midnightblue" points="335.386,-44.993 326.251,-50.3597 336.739,-51.8611 335.386,-44.993"/>
</g>
</g>
</svg>
        <g id="navigator" transform="translate(0 0)" fill="#404254">
                <rect fill="#f2f5e9" fill-opacity="0.5" stroke="#606060" stroke-width=".5" x="0" y="0" width="60" height="60"/>
                <use id="zoomplus" xlink:href="#zoomPlus" x="17" y="9" onmousedown="handleZoom(evt,'in')"/>
                <use id="zoomminus" xlink:href="#zoomMin" x="42" y="9" onmousedown="handleZoom(evt,'out')"/>
                <use id="reset" xlink:href="#resetDef" x="30" y="36" onmousedown="handleReset()"/>
                <g id="arrowUp" xlink:href="#dirArrow" transform="translate(30 24)" onmousedown="handlePan(0,-1)">
                  <use xlink:href="#rim" fill="#404040">
                        <set attributeName="fill" to="#808080" begin="arrowUp.mouseover" end="arrowUp.mouseout"/>
                  </use>
                  <path fill="none" stroke="white" stroke-width="1.5" d="M0,-3.0v7 M-2.5,-0.5L0,-3.0L2.5,-0.5"/>
                </g>
                <g id="arrowRight" xlink:href="#dirArrow" transform="rotate(90) translate(36 -43)" onmousedown="handlePan(1,0)">
                  <use xlink:href="#rim" fill="#404040">
                        <set attributeName="fill" to="#808080" begin="arrowRight.mouseover" end="arrowRight.mouseout"/>
                  </use>
                  <path fill="none" stroke="white" stroke-width="1.5" d="M0,-3.0v7 M-2.5,-0.5L0,-3.0L2.5,-0.5"/>
                </g>
                <g id="arrowDown" xlink:href="#dirArrow" transform="rotate(180) translate(-30 -48)" onmousedown="handlePan(0,1)">
                  <use xlink:href="#rim" fill="#404040">
                        <set attributeName="fill" to="#808080" begin="arrowDown.mouseover" end="arrowDown.mouseout"/>
                  </use>
                  <path fill="none" stroke="white" stroke-width="1.5" d="M0,-3.0v7 M-2.5,-0.5L0,-3.0L2.5,-0.5"/>
                </g>
                <g id="arrowLeft" xlink:href="#dirArrow" transform="rotate(270) translate(-36 17)" onmousedown="handlePan(-1,0)">
                  <use xlink:href="#rim" fill="#404040">
                        <set attributeName="fill" to="#808080" begin="arrowLeft.mouseover" end="arrowLeft.mouseout"/>
                  </use>
                  <path fill="none" stroke="white" stroke-width="1.5" d="M0,-3.0v7 M-2.5,-0.5L0,-3.0L2.5,-0.5"/>
                </g>
        </g>
        <svg viewBox="0 0 15 15" width="100%" height="30px" preserveAspectRatio="xMaxYMin meet">
         <g id="arrow_out" transform="scale(0.3 0.3)">
          <a xlink:href="a00112_adfcedf51d50b5173b1fdbb6e92da438f_icgraph_org.svg" target="_base">
           <rect id="button" ry="5" rx="5" y="6" x="6" height="38" width="38"
                fill="#f2f5e9" fill-opacity="0.5" stroke="#606060" stroke-width="1.0"/>
           <path id="arrow"
             d="M 11.500037,31.436501 C 11.940474,20.09759 22.043105,11.32322 32.158766,21.979434 L 37.068811,17.246167 C 37.068811,17.246167 37.088388,32 37.088388,32 L 22.160133,31.978069 C 22.160133,31.978069 26.997745,27.140456 26.997745,27.140456 C 18.528582,18.264221 13.291696,25.230495 11.500037,31.436501 z"
             style="fill:#404040;"/>
          </a>
         </g>
        </svg>
</svg>
