<?xml version="1.0" encoding="UTF-8" standalone="no"?>
<!DOCTYPE svg PUBLIC "-//W3C//DTD SVG 1.1//EN"
 "http://www.w3.org/Graphics/SVG/1.1/DTD/svg11.dtd">
<!-- Generated by graphviz version 2.36.0 (20140111.2315)
 -->
<!-- Title: Voxel::PCLViewer::_renderLoop Pages: 1 -->
<svg width="524pt" height="61pt"
 viewBox="0.00 0.00 524.00 61.00" xmlns="http://www.w3.org/2000/svg" xmlns:xlink="http://www.w3.org/1999/xlink">
<g id="graph0" class="graph" transform="scale(1 1) rotate(0) translate(4 57)">
<title>Voxel::PCLViewer::_renderLoop</title>
<!-- Node1 -->
<g id="node1" class="node"><title>Node1</title>
<polygon fill="#bfbfbf" stroke="black" points="0.5,-1 0.5,-31 103.5,-31 103.5,-1 0.5,-1"/>
<text text-anchor="start" x="8.5" y="-19" font-family="Helvetica,sans-Serif" font-size="10.00">Voxel::PCLViewer::</text>
<text text-anchor="middle" x="52" y="-8" font-family="Helvetica,sans-Serif" font-size="10.00">_renderLoop</text>
</g>
<!-- Node2 -->
<g id="node2" class="node"><title>Node2</title>
<g id="a_node2"><a xlink:href="a00105.xhtml#a10c69f70450ba61ce6e9dd19437045f5" target="_top" xlink:title="Voxel::PCLViewer::start">
<polygon fill="none" stroke="black" points="140,-6.5 140,-25.5 262,-25.5 262,-6.5 140,-6.5"/>
<text text-anchor="middle" x="201" y="-13.5" font-family="Helvetica,sans-Serif" font-size="10.00">Voxel::PCLViewer::start</text>
</a>
</g>
</g>
<!-- Node1&#45;&gt;Node2 -->
<g id="edge1" class="edge"><title>Node1&#45;&gt;Node2</title>
<path fill="none" stroke="midnightblue" d="M113.644,-16C122.331,-16 131.266,-16 139.943,-16"/>
<polygon fill="midnightblue" stroke="midnightblue" points="113.589,-12.5001 103.589,-16 113.589,-19.5001 113.589,-12.5001"/>
</g>
<!-- Node3 -->
<g id="node3" class="node"><title>Node3</title>
<g id="a_node3"><a xlink:href="a00105.xhtml#aa71433675a254cc3df3a2b02599c408f" target="_top" xlink:title="Voxel::PCLViewer::setDepth\lCamera">
<polygon fill="none" stroke="black" points="298.5,-23 298.5,-53 441.5,-53 441.5,-23 298.5,-23"/>
<text text-anchor="start" x="306.5" y="-41" font-family="Helvetica,sans-Serif" font-size="10.00">Voxel::PCLViewer::setDepth</text>
<text text-anchor="middle" x="370" y="-30" font-family="Helvetica,sans-Serif" font-size="10.00">Camera</text>
</a>
</g>
</g>
<!-- Node2&#45;&gt;Node3 -->
<g id="edge2" class="edge"><title>Node2&#45;&gt;Node3</title>
<path fill="none" stroke="midnightblue" d="M272.278,-25.2582C280.88,-26.3914 289.674,-27.5499 298.283,-28.684"/>
<polygon fill="midnightblue" stroke="midnightblue" points="272.662,-21.7787 262.291,-23.9425 271.748,-28.7187 272.662,-21.7787"/>
</g>
<!-- Node4 -->
<g id="node4" class="node"><title>Node4</title>
<g id="a_node4"><a xlink:href="a00301.xhtml#ae66f6b31b5ad750f1fe042a706a4e3d4" target="_top" xlink:title="main">
<polygon fill="none" stroke="black" points="478,-6.5 478,-25.5 516,-25.5 516,-6.5 478,-6.5"/>
<text text-anchor="middle" x="497" y="-13.5" font-family="Helvetica,sans-Serif" font-size="10.00">main</text>
</a>
</g>
</g>
<!-- Node2&#45;&gt;Node4 -->
<g id="edge4" class="edge"><title>Node2&#45;&gt;Node4</title>
<path fill="none" stroke="midnightblue" d="M272.278,-14.3673C280.941,-14.2158 289.673,-14.0867 298,-14 361.997,-13.3334 378.011,-12.8154 442,-14 453.819,-14.2188 467.085,-14.7067 477.51,-15.1458"/>
<polygon fill="midnightblue" stroke="midnightblue" points="272.103,-10.8698 262.169,-14.5543 272.232,-17.8686 272.103,-10.8698"/>
</g>
<!-- Node3&#45;&gt;Node4 -->
<g id="edge3" class="edge"><title>Node3&#45;&gt;Node4</title>
<path fill="none" stroke="midnightblue" d="M451.535,-23.8258C461.357,-22.0972 470.529,-20.4829 477.962,-19.1748"/>
<polygon fill="midnightblue" stroke="midnightblue" points="450.779,-20.4051 441.537,-25.5855 451.992,-27.2991 450.779,-20.4051"/>
</g>
</g>
</svg>
