<?xml version="1.0" encoding="UTF-8" standalone="no"?>
<!DOCTYPE svg PUBLIC "-//W3C//DTD SVG 1.1//EN"
 "http://www.w3.org/Graphics/SVG/1.1/DTD/svg11.dtd">
<!-- Generated by graphviz version 2.36.0 (20140111.2315)
 -->
<!-- Title: Voxel::TI::TintinCDKIlluminationPowerPercentParameter::set Pages: 1 -->
<svg width="364pt" height="126pt"
 viewBox="0.00 0.00 364.00 126.00" xmlns="http://www.w3.org/2000/svg" xmlns:xlink="http://www.w3.org/1999/xlink">
<g id="graph0" class="graph" transform="scale(1 1) rotate(0) translate(4 122)">
<title>Voxel::TI::TintinCDKIlluminationPowerPercentParameter::set</title>
<!-- Node1 -->
<g id="node1" class="node"><title>Node1</title>
<polygon fill="#bfbfbf" stroke="black" points="0,-44 0,-74 158,-74 158,-44 0,-44"/>
<text text-anchor="start" x="8" y="-62" font-family="Helvetica,sans-Serif" font-size="10.00">Voxel::TI::TintinCDKIllumination</text>
<text text-anchor="middle" x="79" y="-51" font-family="Helvetica,sans-Serif" font-size="10.00">PowerPercentParameter::set</text>
</g>
<!-- Node2 -->
<g id="node2" class="node"><title>Node2</title>
<g id="a_node2"><a xlink:href="a00036.xhtml#a1bee96d5215894d03e16e10634f199e7" target="_top" xlink:title="Voxel::DepthCamera\l::getParam">
<polygon fill="none" stroke="black" points="221,-88 221,-118 329,-118 329,-88 221,-88"/>
<text text-anchor="start" x="229" y="-106" font-family="Helvetica,sans-Serif" font-size="10.00">Voxel::DepthCamera</text>
<text text-anchor="middle" x="275" y="-95" font-family="Helvetica,sans-Serif" font-size="10.00">::getParam</text>
</a>
</g>
</g>
<!-- Node1&#45;&gt;Node2 -->
<g id="edge1" class="edge"><title>Node1&#45;&gt;Node2</title>
<path fill="none" stroke="midnightblue" d="M146.221,-74.0192C167.163,-78.7688 190.239,-84.0027 210.952,-88.7004"/>
<polygon fill="midnightblue" stroke="midnightblue" points="210.384,-92.1605 220.911,-90.9591 211.932,-85.3338 210.384,-92.1605"/>
</g>
<!-- Node3 -->
<g id="node3" class="node"><title>Node3</title>
<g id="a_node3"><a xlink:href="a00103.xhtml#a64240b607339f55c4fac973fba8c8934" target="_top" xlink:title="Voxel::ParameterTemplate::set">
<polygon fill="none" stroke="black" points="199,-49.5 199,-68.5 351,-68.5 351,-49.5 199,-49.5"/>
<text text-anchor="middle" x="275" y="-56.5" font-family="Helvetica,sans-Serif" font-size="10.00">Voxel::ParameterTemplate::set</text>
</a>
</g>
</g>
<!-- Node1&#45;&gt;Node3 -->
<g id="edge2" class="edge"><title>Node1&#45;&gt;Node3</title>
<path fill="none" stroke="midnightblue" d="M158.069,-59C168.176,-59 178.569,-59 188.785,-59"/>
<polygon fill="midnightblue" stroke="midnightblue" points="188.925,-62.5001 198.925,-59 188.925,-55.5001 188.925,-62.5001"/>
</g>
<!-- Node4 -->
<g id="node4" class="node"><title>Node4</title>
<g id="a_node4"><a xlink:href="a00117.xhtml#abb8c7dc72be4ed50f400dc4ee440fd2f" target="_top" xlink:title="Voxel::RangeParameterTemplate\l::upperLimit">
<polygon fill="none" stroke="black" points="194.5,-0 194.5,-30 355.5,-30 355.5,-0 194.5,-0"/>
<text text-anchor="start" x="202.5" y="-18" font-family="Helvetica,sans-Serif" font-size="10.00">Voxel::RangeParameterTemplate</text>
<text text-anchor="middle" x="275" y="-7" font-family="Helvetica,sans-Serif" font-size="10.00">::upperLimit</text>
</a>
</g>
</g>
<!-- Node1&#45;&gt;Node4 -->
<g id="edge3" class="edge"><title>Node1&#45;&gt;Node4</title>
<path fill="none" stroke="midnightblue" d="M146.221,-43.9808C162.829,-40.214 180.78,-36.1426 197.83,-32.2756"/>
<polygon fill="midnightblue" stroke="midnightblue" points="198.77,-35.6515 207.748,-30.0262 197.222,-28.8248 198.77,-35.6515"/>
</g>
</g>
</svg>
