<?xml version="1.0" encoding="UTF-8" standalone="no"?>
<!DOCTYPE svg PUBLIC "-//W3C//DTD SVG 1.1//EN"
 "http://www.w3.org/Graphics/SVG/1.1/DTD/svg11.dtd">
<!-- Generated by graphviz version 2.36.0 (20140111.2315)
 -->
<!-- Title: Voxel::UVCStreamer::isInitialized Pages: 1 -->
<!--zoomable 371 -->
<svg id="main" version="1.1" xmlns="http://www.w3.org/2000/svg" xmlns:xlink="http://www.w3.org/1999/xlink" xml:space="preserve" onload="init(evt)">
<style type="text/css"><![CDATA[
.edge:hover path { stroke: red; }
.edge:hover polygon { stroke: red; fill: red; }
]]></style>
<script type="text/javascript"><![CDATA[
var edges = document.getElementsByTagName('g');
if (edges && edges.length) {
  for (var i=0;i<edges.length;i++) {
    if (edges[i].id.substr(0,4)=='edge') {
      edges[i].setAttribute('class','edge');
    }
  }
}
]]></script>
        <defs>
                <circle id="rim" cx="0" cy="0" r="7"/>
                <circle id="rim2" cx="0" cy="0" r="3.5"/>
                <g id="zoomPlus">
                        <use xlink:href="#rim" fill="#404040">
                                <set attributeName="fill" to="#808080" begin="zoomplus.mouseover" end="zoomplus.mouseout"/>
                        </use>
                        <path d="M-4,0h8M0,-4v8" fill="none" stroke="white" stroke-width="1.5" pointer-events="none"/>
                </g>
                <g id="zoomMin">
                        <use xlink:href="#rim" fill="#404040">
                                <set attributeName="fill" to="#808080" begin="zoomminus.mouseover" end="zoomminus.mouseout"/>
                        </use>
                        <path d="M-4,0h8" fill="none" stroke="white" stroke-width="1.5" pointer-events="none"/>
                </g>
                <g id="dirArrow">
                        <path fill="none" stroke="white" stroke-width="1.5" d="M0,-3.0v7 M-2.5,-0.5L0,-3.0L2.5,-0.5"/>
                </g>
               <g id="resetDef">
                       <use xlink:href="#rim2" fill="#404040">
                               <set attributeName="fill" to="#808080" begin="reset.mouseover" end="reset.mouseout"/>
                       </use>
               </g>
        </defs>

<script type="text/javascript">
var viewWidth = 614;
var viewHeight = 371;
var sectionId = 'dynsection-15';
</script>
<script xlink:href="svgpan.js"/>
<svg id="graph" class="graph">
<g id="viewport">
<title>Voxel::UVCStreamer::isInitialized</title>
<!-- Node1 -->
<g id="node1" class="node"><title>Node1</title>
<polygon fill="#bfbfbf" stroke="black" points="0.5,-191 0.5,-221 109.5,-221 109.5,-191 0.5,-191"/>
<text text-anchor="start" x="8.5" y="-209" font-family="Helvetica,sans-Serif" font-size="10.00">Voxel::UVCStreamer</text>
<text text-anchor="middle" x="55" y="-198" font-family="Helvetica,sans-Serif" font-size="10.00">::isInitialized</text>
</g>
<!-- Node2 -->
<g id="node2" class="node"><title>Node2</title>
<g id="a_node2"><a xlink:href="a00177.xhtml#a5a3e48eab120d389b3970c64877f7f98" target="_top" xlink:title="Voxel::UVCStreamer\l::_capture">
<polygon fill="none" stroke="black" points="158.5,-333 158.5,-363 267.5,-363 267.5,-333 158.5,-333"/>
<text text-anchor="start" x="166.5" y="-351" font-family="Helvetica,sans-Serif" font-size="10.00">Voxel::UVCStreamer</text>
<text text-anchor="middle" x="213" y="-340" font-family="Helvetica,sans-Serif" font-size="10.00">::_capture</text>
</a>
</g>
</g>
<!-- Node1&#45;&gt;Node2 -->
<g id="edge1" class="edge"><title>Node1&#45;&gt;Node2</title>
<path fill="none" stroke="midnightblue" d="M68.9794,-229.975C84.2554,-256.148 111.913,-297.695 146,-323 151.116,-326.798 156.877,-330.084 162.809,-332.91"/>
<polygon fill="midnightblue" stroke="midnightblue" points="71.9097,-228.048 63.9227,-221.087 65.8254,-231.509 71.9097,-228.048"/>
</g>
<!-- Node3 -->
<g id="node3" class="node"><title>Node3</title>
<g id="a_node3"><a xlink:href="a00177.xhtml#aa1e3461a21667822e145032dc4b4e399" target="_top" xlink:title="Voxel::UVCStreamer\l::_stop">
<polygon fill="none" stroke="black" points="158.5,-284 158.5,-314 267.5,-314 267.5,-284 158.5,-284"/>
<text text-anchor="start" x="166.5" y="-302" font-family="Helvetica,sans-Serif" font-size="10.00">Voxel::UVCStreamer</text>
<text text-anchor="middle" x="213" y="-291" font-family="Helvetica,sans-Serif" font-size="10.00">::_stop</text>
</a>
</g>
</g>
<!-- Node1&#45;&gt;Node3 -->
<g id="edge2" class="edge"><title>Node1&#45;&gt;Node3</title>
<path fill="none" stroke="midnightblue" d="M80.8475,-227.854C98.214,-242.332 122.428,-260.983 146,-274 152.543,-277.613 159.715,-280.924 166.845,-283.871"/>
<polygon fill="midnightblue" stroke="midnightblue" points="82.7974,-224.919 72.905,-221.125 78.2725,-230.26 82.7974,-224.919"/>
</g>
<!-- Node4 -->
<g id="node4" class="node"><title>Node4</title>
<g id="a_node4"><a xlink:href="a00177.xhtml#a090323f66d0dd822d05063b16029ea12" target="_top" xlink:title="Voxel::UVCStreamer\l::getCurrentVideoMode">
<polygon fill="none" stroke="black" points="154.5,-147 154.5,-177 271.5,-177 271.5,-147 154.5,-147"/>
<text text-anchor="start" x="162.5" y="-165" font-family="Helvetica,sans-Serif" font-size="10.00">Voxel::UVCStreamer</text>
<text text-anchor="middle" x="213" y="-154" font-family="Helvetica,sans-Serif" font-size="10.00">::getCurrentVideoMode</text>
</a>
</g>
</g>
<!-- Node1&#45;&gt;Node4 -->
<g id="edge3" class="edge"><title>Node1&#45;&gt;Node4</title>
<path fill="none" stroke="midnightblue" d="M119.151,-188.188C132.281,-184.485 145.993,-180.617 158.725,-177.026"/>
<polygon fill="midnightblue" stroke="midnightblue" points="117.924,-184.898 109.25,-190.981 119.825,-191.635 117.924,-184.898"/>
</g>
<!-- Node7 -->
<g id="node7" class="node"><title>Node7</title>
<g id="a_node7"><a xlink:href="a00356.xhtml#a0ddf1224851353fc92bfbff6f499fa97" target="_top" xlink:title="main">
<polygon fill="none" stroke="black" points="369,-196.5 369,-215.5 407,-215.5 407,-196.5 369,-196.5"/>
<text text-anchor="middle" x="388" y="-203.5" font-family="Helvetica,sans-Serif" font-size="10.00">main</text>
</a>
</g>
</g>
<!-- Node1&#45;&gt;Node7 -->
<g id="edge9" class="edge"><title>Node1&#45;&gt;Node7</title>
<path fill="none" stroke="midnightblue" d="M119.628,-206C196.711,-206 322.046,-206 368.722,-206"/>
<polygon fill="midnightblue" stroke="midnightblue" points="119.549,-202.5 109.549,-206 119.549,-209.5 119.549,-202.5"/>
</g>
<!-- Node8 -->
<g id="node8" class="node"><title>Node8</title>
<g id="a_node8"><a xlink:href="a00177.xhtml#ab7a867f901051bcfa97501edc881ea9c" target="_top" xlink:title="Voxel::UVCStreamer\l::getSupportedVideoModes">
<polygon fill="none" stroke="black" points="146,-235 146,-265 280,-265 280,-235 146,-235"/>
<text text-anchor="start" x="154" y="-253" font-family="Helvetica,sans-Serif" font-size="10.00">Voxel::UVCStreamer</text>
<text text-anchor="middle" x="213" y="-242" font-family="Helvetica,sans-Serif" font-size="10.00">::getSupportedVideoModes</text>
</a>
</g>
</g>
<!-- Node1&#45;&gt;Node8 -->
<g id="edge7" class="edge"><title>Node1&#45;&gt;Node8</title>
<path fill="none" stroke="midnightblue" d="M119.151,-223.812C132.281,-227.515 145.993,-231.383 158.725,-234.974"/>
<polygon fill="midnightblue" stroke="midnightblue" points="119.825,-220.365 109.25,-221.019 117.924,-227.102 119.825,-220.365"/>
</g>
<!-- Node9 -->
<g id="node9" class="node"><title>Node9</title>
<g id="a_node9"><a xlink:href="a00177.xhtml#a7babd2f4cbe6152499b4c49b0137b6b4" target="_top" xlink:title="Voxel::UVCStreamer\l::setVideoMode">
<polygon fill="none" stroke="black" points="158.5,-98 158.5,-128 267.5,-128 267.5,-98 158.5,-98"/>
<text text-anchor="start" x="166.5" y="-116" font-family="Helvetica,sans-Serif" font-size="10.00">Voxel::UVCStreamer</text>
<text text-anchor="middle" x="213" y="-105" font-family="Helvetica,sans-Serif" font-size="10.00">::setVideoMode</text>
</a>
</g>
</g>
<!-- Node1&#45;&gt;Node9 -->
<g id="edge10" class="edge"><title>Node1&#45;&gt;Node9</title>
<path fill="none" stroke="midnightblue" d="M80.4159,-183.974C97.7563,-169.19 122.112,-150.094 146,-137 151.987,-133.718 158.513,-130.724 165.056,-128.048"/>
<polygon fill="midnightblue" stroke="midnightblue" points="77.7604,-181.645 72.4996,-190.841 82.3472,-186.932 77.7604,-181.645"/>
</g>
<!-- Node13 -->
<g id="node13" class="node"><title>Node13</title>
<g id="a_node13"><a xlink:href="a00177.xhtml#a3310a4b702610446c70967ccc6b23b14" target="_top" xlink:title="Voxel::UVCStreamer\l::~UVCStreamer">
<polygon fill="none" stroke="black" points="158.5,-49 158.5,-79 267.5,-79 267.5,-49 158.5,-49"/>
<text text-anchor="start" x="166.5" y="-67" font-family="Helvetica,sans-Serif" font-size="10.00">Voxel::UVCStreamer</text>
<text text-anchor="middle" x="213" y="-56" font-family="Helvetica,sans-Serif" font-size="10.00">::~UVCStreamer</text>
</a>
</g>
</g>
<!-- Node1&#45;&gt;Node13 -->
<g id="edge16" class="edge"><title>Node1&#45;&gt;Node13</title>
<path fill="none" stroke="midnightblue" d="M68.8673,-181.731C84.0436,-155.255 111.613,-113.283 146,-88 150.617,-84.6055 155.763,-81.6485 161.089,-79.0827"/>
<polygon fill="midnightblue" stroke="midnightblue" points="65.6651,-180.287 63.8471,-190.724 71.7773,-183.699 65.6651,-180.287"/>
</g>
<!-- Node5 -->
<g id="node5" class="node"><title>Node5</title>
<g id="a_node5"><a xlink:href="a00177.xhtml#acc806ec3fc0f1e55739a844a0ff0f3c0" target="_top" xlink:title="Voxel::UVCStreamer\l::_initForCapture">
<polygon fill="none" stroke="black" points="333.5,-147 333.5,-177 442.5,-177 442.5,-147 333.5,-147"/>
<text text-anchor="start" x="341.5" y="-165" font-family="Helvetica,sans-Serif" font-size="10.00">Voxel::UVCStreamer</text>
<text text-anchor="middle" x="388" y="-154" font-family="Helvetica,sans-Serif" font-size="10.00">::_initForCapture</text>
</a>
</g>
</g>
<!-- Node4&#45;&gt;Node5 -->
<g id="edge4" class="edge"><title>Node4&#45;&gt;Node5</title>
<path fill="none" stroke="midnightblue" d="M282.075,-162C299.137,-162 317.202,-162 333.445,-162"/>
<polygon fill="midnightblue" stroke="midnightblue" points="281.607,-158.5 271.606,-162 281.606,-165.5 281.607,-158.5"/>
</g>
<!-- Node4&#45;&gt;Node7 -->
<g id="edge6" class="edge"><title>Node4&#45;&gt;Node7</title>
<path fill="none" stroke="midnightblue" d="M281.68,-179.214C313.156,-187.219 348.124,-196.113 368.803,-201.372"/>
<polygon fill="midnightblue" stroke="midnightblue" points="282.161,-175.724 271.606,-176.651 280.435,-182.508 282.161,-175.724"/>
</g>
<!-- Node6 -->
<g id="node6" class="node"><title>Node6</title>
<g id="a_node6"><a xlink:href="a00177.xhtml#a3bf08c2dd6922d8e4a44a63840095d97" target="_top" xlink:title="Voxel::UVCStreamer\l::_start">
<polygon fill="none" stroke="black" points="496.5,-147 496.5,-177 605.5,-177 605.5,-147 496.5,-147"/>
<text text-anchor="start" x="504.5" y="-165" font-family="Helvetica,sans-Serif" font-size="10.00">Voxel::UVCStreamer</text>
<text text-anchor="middle" x="551" y="-154" font-family="Helvetica,sans-Serif" font-size="10.00">::_start</text>
</a>
</g>
</g>
<!-- Node5&#45;&gt;Node6 -->
<g id="edge5" class="edge"><title>Node5&#45;&gt;Node6</title>
<path fill="none" stroke="midnightblue" d="M452.927,-162C467.312,-162 482.435,-162 496.349,-162"/>
<polygon fill="midnightblue" stroke="midnightblue" points="452.611,-158.5 442.611,-162 452.611,-165.5 452.611,-158.5"/>
</g>
<!-- Node8&#45;&gt;Node7 -->
<g id="edge8" class="edge"><title>Node8&#45;&gt;Node7</title>
<path fill="none" stroke="midnightblue" d="M283.014,-232.447C314.101,-224.541 348.332,-215.835 368.728,-210.647"/>
<polygon fill="midnightblue" stroke="midnightblue" points="281.882,-229.124 273.053,-234.981 283.607,-235.908 281.882,-229.124"/>
</g>
<!-- Node9&#45;&gt;Node5 -->
<g id="edge12" class="edge"><title>Node9&#45;&gt;Node5</title>
<path fill="none" stroke="midnightblue" d="M277.177,-130.894C295.785,-136.164 315.948,-141.876 333.859,-146.948"/>
<polygon fill="midnightblue" stroke="midnightblue" points="277.893,-127.459 267.317,-128.101 275.985,-134.194 277.893,-127.459"/>
</g>
<!-- Node9&#45;&gt;Node7 -->
<g id="edge13" class="edge"><title>Node9&#45;&gt;Node7</title>
<path fill="none" stroke="midnightblue" d="M274.167,-133.033C276.185,-134.283 278.137,-135.604 280,-137 301.627,-153.203 293.786,-170.611 316,-186 331.895,-197.012 353.741,-201.992 368.988,-204.224"/>
<polygon fill="midnightblue" stroke="midnightblue" points="275.425,-129.732 264.973,-128 272.063,-135.872 275.425,-129.732"/>
</g>
<!-- Node10 -->
<g id="node10" class="node"><title>Node10</title>
<g id="a_node10"><a xlink:href="a00137.xhtml#a2ffbaceb53ded2b382116ac66b787698" target="_top" xlink:title="Voxel::TI::TintinCDKCamera\l::_setStreamerFrameSize">
<polygon fill="none" stroke="black" points="316.5,-98 316.5,-128 459.5,-128 459.5,-98 316.5,-98"/>
<text text-anchor="start" x="324.5" y="-116" font-family="Helvetica,sans-Serif" font-size="10.00">Voxel::TI::TintinCDKCamera</text>
<text text-anchor="middle" x="388" y="-105" font-family="Helvetica,sans-Serif" font-size="10.00">::_setStreamerFrameSize</text>
</a>
</g>
</g>
<!-- Node9&#45;&gt;Node10 -->
<g id="edge11" class="edge"><title>Node9&#45;&gt;Node10</title>
<path fill="none" stroke="midnightblue" d="M278.086,-113C290.561,-113 303.703,-113 316.375,-113"/>
<polygon fill="midnightblue" stroke="midnightblue" points="277.79,-109.5 267.79,-113 277.79,-116.5 277.79,-109.5"/>
</g>
<!-- Node11 -->
<g id="node11" class="node"><title>Node11</title>
<g id="a_node11"><a xlink:href="a00182.xhtml#afeb9b488760b3c32cf6d5decb25bfdcf" target="_top" xlink:title="Voxel::TI::Voxel14Camera\l::_setStreamerFrameSize">
<polygon fill="none" stroke="black" points="322,-49 322,-79 454,-79 454,-49 322,-49"/>
<text text-anchor="start" x="330" y="-67" font-family="Helvetica,sans-Serif" font-size="10.00">Voxel::TI::Voxel14Camera</text>
<text text-anchor="middle" x="388" y="-56" font-family="Helvetica,sans-Serif" font-size="10.00">::_setStreamerFrameSize</text>
</a>
</g>
</g>
<!-- Node9&#45;&gt;Node11 -->
<g id="edge14" class="edge"><title>Node9&#45;&gt;Node11</title>
<path fill="none" stroke="midnightblue" d="M277.177,-95.1059C295.785,-89.8356 315.948,-84.1245 333.859,-79.0516"/>
<polygon fill="midnightblue" stroke="midnightblue" points="275.985,-91.8058 267.317,-97.8986 277.893,-98.5409 275.985,-91.8058"/>
</g>
<!-- Node12 -->
<g id="node12" class="node"><title>Node12</title>
<g id="a_node12"><a xlink:href="a00186.xhtml#aa13368de49716d5ec7ed82df1010a6b0" target="_top" xlink:title="Voxel::TI::VoxelDCamera\l::_setStreamerFrameSize">
<polygon fill="none" stroke="black" points="323.5,-0 323.5,-30 452.5,-30 452.5,-0 323.5,-0"/>
<text text-anchor="start" x="331.5" y="-18" font-family="Helvetica,sans-Serif" font-size="10.00">Voxel::TI::VoxelDCamera</text>
<text text-anchor="middle" x="388" y="-7" font-family="Helvetica,sans-Serif" font-size="10.00">::_setStreamerFrameSize</text>
</a>
</g>
</g>
<!-- Node9&#45;&gt;Node12 -->
<g id="edge15" class="edge"><title>Node9&#45;&gt;Node12</title>
<path fill="none" stroke="midnightblue" d="M272.629,-92.9824C275.195,-91.4308 277.667,-89.7718 280,-88 301.519,-71.6538 294.189,-54.955 316,-39 320.621,-35.6198 325.751,-32.6926 331.078,-30.1625"/>
<polygon fill="midnightblue" stroke="midnightblue" points="270.748,-90.0207 263.613,-97.8529 274.075,-96.1796 270.748,-90.0207"/>
</g>
</g>
</svg>
        <g id="navigator" transform="translate(0 0)" fill="#404254">
                <rect fill="#f2f5e9" fill-opacity="0.5" stroke="#606060" stroke-width=".5" x="0" y="0" width="60" height="60"/>
                <use id="zoomplus" xlink:href="#zoomPlus" x="17" y="9" onmousedown="handleZoom(evt,'in')"/>
                <use id="zoomminus" xlink:href="#zoomMin" x="42" y="9" onmousedown="handleZoom(evt,'out')"/>
                <use id="reset" xlink:href="#resetDef" x="30" y="36" onmousedown="handleReset()"/>
                <g id="arrowUp" xlink:href="#dirArrow" transform="translate(30 24)" onmousedown="handlePan(0,-1)">
                  <use xlink:href="#rim" fill="#404040">
                        <set attributeName="fill" to="#808080" begin="arrowUp.mouseover" end="arrowUp.mouseout"/>
                  </use>
                  <path fill="none" stroke="white" stroke-width="1.5" d="M0,-3.0v7 M-2.5,-0.5L0,-3.0L2.5,-0.5"/>
                </g>
                <g id="arrowRight" xlink:href="#dirArrow" transform="rotate(90) translate(36 -43)" onmousedown="handlePan(1,0)">
                  <use xlink:href="#rim" fill="#404040">
                        <set attributeName="fill" to="#808080" begin="arrowRight.mouseover" end="arrowRight.mouseout"/>
                  </use>
                  <path fill="none" stroke="white" stroke-width="1.5" d="M0,-3.0v7 M-2.5,-0.5L0,-3.0L2.5,-0.5"/>
                </g>
                <g id="arrowDown" xlink:href="#dirArrow" transform="rotate(180) translate(-30 -48)" onmousedown="handlePan(0,1)">
                  <use xlink:href="#rim" fill="#404040">
                        <set attributeName="fill" to="#808080" begin="arrowDown.mouseover" end="arrowDown.mouseout"/>
                  </use>
                  <path fill="none" stroke="white" stroke-width="1.5" d="M0,-3.0v7 M-2.5,-0.5L0,-3.0L2.5,-0.5"/>
                </g>
                <g id="arrowLeft" xlink:href="#dirArrow" transform="rotate(270) translate(-36 17)" onmousedown="handlePan(-1,0)">
                  <use xlink:href="#rim" fill="#404040">
                        <set attributeName="fill" to="#808080" begin="arrowLeft.mouseover" end="arrowLeft.mouseout"/>
                  </use>
                  <path fill="none" stroke="white" stroke-width="1.5" d="M0,-3.0v7 M-2.5,-0.5L0,-3.0L2.5,-0.5"/>
                </g>
        </g>
        <svg viewBox="0 0 15 15" width="100%" height="30px" preserveAspectRatio="xMaxYMin meet">
         <g id="arrow_out" transform="scale(0.3 0.3)">
          <a xlink:href="a00177_aa1d2a26f98df476ac93ed407273b4405_icgraph_org.svg" target="_base">
           <rect id="button" ry="5" rx="5" y="6" x="6" height="38" width="38"
                fill="#f2f5e9" fill-opacity="0.5" stroke="#606060" stroke-width="1.0"/>
           <path id="arrow"
             d="M 11.500037,31.436501 C 11.940474,20.09759 22.043105,11.32322 32.158766,21.979434 L 37.068811,17.246167 C 37.068811,17.246167 37.088388,32 37.088388,32 L 22.160133,31.978069 C 22.160133,31.978069 26.997745,27.140456 26.997745,27.140456 C 18.528582,18.264221 13.291696,25.230495 11.500037,31.436501 z"
             style="fill:#404040;"/>
          </a>
         </g>
        </svg>
</svg>
