<?xml version="1.0" encoding="UTF-8" standalone="no"?>
<!DOCTYPE svg PUBLIC "-//W3C//DTD SVG 1.1//EN"
 "http://www.w3.org/Graphics/SVG/1.1/DTD/svg11.dtd">
<!-- Generated by graphviz version 2.36.0 (20140111.2315)
 -->
<!-- Title: TinyXML2::XMLElement::SetText Pages: 1 -->
<!--zoomable 273 -->
<svg id="main" version="1.1" xmlns="http://www.w3.org/2000/svg" xmlns:xlink="http://www.w3.org/1999/xlink" xml:space="preserve" onload="init(evt)">
<style type="text/css"><![CDATA[
.edge:hover path { stroke: red; }
.edge:hover polygon { stroke: red; fill: red; }
]]></style>
<script type="text/javascript"><![CDATA[
var edges = document.getElementsByTagName('g');
if (edges && edges.length) {
  for (var i=0;i<edges.length;i++) {
    if (edges[i].id.substr(0,4)=='edge') {
      edges[i].setAttribute('class','edge');
    }
  }
}
]]></script>
        <defs>
                <circle id="rim" cx="0" cy="0" r="7"/>
                <circle id="rim2" cx="0" cy="0" r="3.5"/>
                <g id="zoomPlus">
                        <use xlink:href="#rim" fill="#404040">
                                <set attributeName="fill" to="#808080" begin="zoomplus.mouseover" end="zoomplus.mouseout"/>
                        </use>
                        <path d="M-4,0h8M0,-4v8" fill="none" stroke="white" stroke-width="1.5" pointer-events="none"/>
                </g>
                <g id="zoomMin">
                        <use xlink:href="#rim" fill="#404040">
                                <set attributeName="fill" to="#808080" begin="zoomminus.mouseover" end="zoomminus.mouseout"/>
                        </use>
                        <path d="M-4,0h8" fill="none" stroke="white" stroke-width="1.5" pointer-events="none"/>
                </g>
                <g id="dirArrow">
                        <path fill="none" stroke="white" stroke-width="1.5" d="M0,-3.0v7 M-2.5,-0.5L0,-3.0L2.5,-0.5"/>
                </g>
               <g id="resetDef">
                       <use xlink:href="#rim2" fill="#404040">
                               <set attributeName="fill" to="#808080" begin="reset.mouseover" end="reset.mouseout"/>
                       </use>
               </g>
        </defs>

<script type="text/javascript">
var viewWidth = 732;
var viewHeight = 273;
var sectionId = 'dynsection-38';
</script>
<script xlink:href="svgpan.js"/>
<svg id="graph" class="graph">
<g id="viewport">
<title>TinyXML2::XMLElement::SetText</title>
<!-- Node1 -->
<g id="node1" class="node"><title>Node1</title>
<polygon fill="#bfbfbf" stroke="black" points="0.5,-112 0.5,-142 123.5,-142 123.5,-112 0.5,-112"/>
<text text-anchor="start" x="8.5" y="-130" font-family="Helvetica,sans-Serif" font-size="10.00">TinyXML2::XMLElement</text>
<text text-anchor="middle" x="62" y="-119" font-family="Helvetica,sans-Serif" font-size="10.00">::SetText</text>
</g>
<!-- Node2 -->
<g id="node2" class="node"><title>Node2</title>
<g id="a_node2"><a xlink:href="a00201.xhtml#a81d2f010536dc2ca37f74d40b074ac8d" target="_top" xlink:title="Get the first child node, or null if none exists. ">
<polygon fill="none" stroke="black" points="168,-235 168,-265 284,-265 284,-235 168,-235"/>
<text text-anchor="start" x="176" y="-253" font-family="Helvetica,sans-Serif" font-size="10.00">TinyXML2::XMLNode::</text>
<text text-anchor="middle" x="226" y="-242" font-family="Helvetica,sans-Serif" font-size="10.00">FirstChild</text>
</a>
</g>
</g>
<!-- Node1&#45;&gt;Node2 -->
<g id="edge1" class="edge"><title>Node1&#45;&gt;Node2</title>
<path fill="none" stroke="midnightblue" d="M74.5934,-142.257C91.3684,-163.416 124.331,-201.689 160,-225 162.922,-226.91 166.013,-228.707 169.195,-230.392"/>
<polygon fill="midnightblue" stroke="midnightblue" points="167.825,-233.618 178.348,-234.848 170.889,-227.324 167.825,-233.618"/>
</g>
<!-- Node3 -->
<g id="node3" class="node"><title>Node3</title>
<g id="a_node3"><a xlink:href="a00201.xhtml#ab5c744e506654df019e2794c5dd25699" target="_top" xlink:title="Get the XMLDocument that owns this XMLNode. ">
<polygon fill="none" stroke="black" points="168,-186 168,-216 284,-216 284,-186 168,-186"/>
<text text-anchor="start" x="176" y="-204" font-family="Helvetica,sans-Serif" font-size="10.00">TinyXML2::XMLNode::</text>
<text text-anchor="middle" x="226" y="-193" font-family="Helvetica,sans-Serif" font-size="10.00">GetDocument</text>
</a>
</g>
</g>
<!-- Node1&#45;&gt;Node3 -->
<g id="edge2" class="edge"><title>Node1&#45;&gt;Node3</title>
<path fill="none" stroke="midnightblue" d="M91.0767,-142.127C110.253,-152.224 136.372,-165.52 160,-176 164.647,-178.061 169.521,-180.12 174.422,-182.121"/>
<polygon fill="midnightblue" stroke="midnightblue" points="173.244,-185.419 183.828,-185.884 175.844,-178.92 173.244,-185.419"/>
</g>
<!-- Node4 -->
<g id="node4" class="node"><title>Node4</title>
<g id="a_node4"><a xlink:href="a00201.xhtml#ae7eb7051f843bf705bbcf6551c13fd97" target="_top" xlink:title="TinyXML2::XMLNode::\lInsertFirstChild">
<polygon fill="none" stroke="black" points="168,-137 168,-167 284,-167 284,-137 168,-137"/>
<text text-anchor="start" x="176" y="-155" font-family="Helvetica,sans-Serif" font-size="10.00">TinyXML2::XMLNode::</text>
<text text-anchor="middle" x="226" y="-144" font-family="Helvetica,sans-Serif" font-size="10.00">InsertFirstChild</text>
</a>
</g>
</g>
<!-- Node1&#45;&gt;Node4 -->
<g id="edge3" class="edge"><title>Node1&#45;&gt;Node4</title>
<path fill="none" stroke="midnightblue" d="M123.784,-136.38C134.851,-138.088 146.456,-139.879 157.698,-141.614"/>
<polygon fill="midnightblue" stroke="midnightblue" points="157.478,-145.121 167.895,-143.187 158.545,-138.203 157.478,-145.121"/>
</g>
<!-- Node7 -->
<g id="node7" class="node"><title>Node7</title>
<g id="a_node7"><a xlink:href="a00198.xhtml#a7d3e915ac54b0b32f72a2a7910225630" target="_top" xlink:title="TinyXML2::XMLDocument\l::NewText">
<polygon fill="none" stroke="black" points="160,-88 160,-118 292,-118 292,-88 160,-88"/>
<text text-anchor="start" x="168" y="-106" font-family="Helvetica,sans-Serif" font-size="10.00">TinyXML2::XMLDocument</text>
<text text-anchor="middle" x="226" y="-95" font-family="Helvetica,sans-Serif" font-size="10.00">::NewText</text>
</a>
</g>
</g>
<!-- Node1&#45;&gt;Node7 -->
<g id="edge6" class="edge"><title>Node1&#45;&gt;Node7</title>
<path fill="none" stroke="midnightblue" d="M123.784,-117.995C132.237,-116.743 141.005,-115.444 149.684,-114.158"/>
<polygon fill="midnightblue" stroke="midnightblue" points="150.43,-117.586 159.81,-112.658 149.405,-110.661 150.43,-117.586"/>
</g>
<!-- Node8 -->
<g id="node8" class="node"><title>Node8</title>
<g id="a_node8"><a xlink:href="a00201.xhtml#a527b7ce2a80b4580275531020867b53a" target="_top" xlink:title="TinyXML2::XMLNode::\lSetValue">
<polygon fill="none" stroke="black" points="328,-66 328,-96 444,-96 444,-66 328,-66"/>
<text text-anchor="start" x="336" y="-84" font-family="Helvetica,sans-Serif" font-size="10.00">TinyXML2::XMLNode::</text>
<text text-anchor="middle" x="386" y="-73" font-family="Helvetica,sans-Serif" font-size="10.00">SetValue</text>
</a>
</g>
</g>
<!-- Node1&#45;&gt;Node8 -->
<g id="edge12" class="edge"><title>Node1&#45;&gt;Node8</title>
<path fill="none" stroke="midnightblue" d="M85.3394,-111.89C104.28,-100.045 132.654,-84.5151 160,-78 211.936,-65.6268 272.543,-67.3193 317.762,-71.5859"/>
<polygon fill="midnightblue" stroke="midnightblue" points="317.446,-75.0718 327.747,-72.5932 318.149,-68.1071 317.446,-75.0718"/>
</g>
<!-- Node12 -->
<g id="node12" class="node"><title>Node12</title>
<g id="a_node12"><a xlink:href="a00201.xhtml#abacd334fbb331a53cf18114b260e4bb3" target="_top" xlink:title="Safely cast to Text, or null. ">
<polygon fill="none" stroke="black" points="168,-0 168,-30 284,-30 284,-0 168,-0"/>
<text text-anchor="start" x="176" y="-18" font-family="Helvetica,sans-Serif" font-size="10.00">TinyXML2::XMLNode::</text>
<text text-anchor="middle" x="226" y="-7" font-family="Helvetica,sans-Serif" font-size="10.00">ToText</text>
</a>
</g>
</g>
<!-- Node1&#45;&gt;Node12 -->
<g id="edge13" class="edge"><title>Node1&#45;&gt;Node12</title>
<path fill="none" stroke="midnightblue" d="M78.1032,-111.962C96.3621,-94.343 128.567,-65.0193 160,-45 165.776,-41.3216 172.076,-37.8371 178.407,-34.6332"/>
<polygon fill="midnightblue" stroke="midnightblue" points="180.179,-37.6639 187.648,-30.1502 177.123,-31.3659 180.179,-37.6639"/>
</g>
<!-- Node5 -->
<g id="node5" class="node"><title>Node5</title>
<g id="a_node5"><a xlink:href="a00098.xhtml#a97d309d72afeb96d9e54186285c26705" target="_top" xlink:title="TinyXML2::MemPool::\lSetTracked">
<polygon fill="none" stroke="black" points="329,-175 329,-205 443,-205 443,-175 329,-175"/>
<text text-anchor="start" x="337" y="-193" font-family="Helvetica,sans-Serif" font-size="10.00">TinyXML2::MemPool::</text>
<text text-anchor="middle" x="386" y="-182" font-family="Helvetica,sans-Serif" font-size="10.00">SetTracked</text>
</a>
</g>
</g>
<!-- Node4&#45;&gt;Node5 -->
<g id="edge4" class="edge"><title>Node4&#45;&gt;Node5</title>
<path fill="none" stroke="midnightblue" d="M284.042,-165.719C295.322,-168.432 307.251,-171.301 318.805,-174.08"/>
<polygon fill="midnightblue" stroke="midnightblue" points="318.295,-177.557 328.836,-176.492 319.932,-170.751 318.295,-177.557"/>
</g>
<!-- Node6 -->
<g id="node6" class="node"><title>Node6</title>
<g id="a_node6"><a xlink:href="a00201.xhtml#a0fe718d6c3d1252c48992c1adc1ce93b" target="_top" xlink:title="TinyXML2::XMLNode::\lUnlink">
<polygon fill="none" stroke="black" points="328,-126 328,-156 444,-156 444,-126 328,-126"/>
<text text-anchor="start" x="336" y="-144" font-family="Helvetica,sans-Serif" font-size="10.00">TinyXML2::XMLNode::</text>
<text text-anchor="middle" x="386" y="-133" font-family="Helvetica,sans-Serif" font-size="10.00">Unlink</text>
</a>
</g>
</g>
<!-- Node4&#45;&gt;Node6 -->
<g id="edge5" class="edge"><title>Node4&#45;&gt;Node6</title>
<path fill="none" stroke="midnightblue" d="M284.042,-148.029C294.937,-147.27 306.439,-146.469 317.622,-145.691"/>
<polygon fill="midnightblue" stroke="midnightblue" points="318.044,-149.17 327.777,-144.984 317.558,-142.187 318.044,-149.17"/>
</g>
<!-- Node7&#45;&gt;Node8 -->
<g id="edge7" class="edge"><title>Node7&#45;&gt;Node8</title>
<path fill="none" stroke="midnightblue" d="M292.177,-93.9247C300.517,-92.7635 309.069,-91.5727 317.445,-90.4064"/>
<polygon fill="midnightblue" stroke="midnightblue" points="318.128,-93.8451 327.55,-88.9994 317.163,-86.912 318.128,-93.8451"/>
</g>
<!-- Node9 -->
<g id="node9" class="node"><title>Node9</title>
<g id="a_node9"><a xlink:href="a00133.xhtml#a6e89623a22f1dd43bc4037d6fe6487c0" target="_top" xlink:title="TinyXML2::StrPair::\lSetInternedStr">
<polygon fill="none" stroke="black" points="480.5,-91 480.5,-121 583.5,-121 583.5,-91 480.5,-91"/>
<text text-anchor="start" x="488.5" y="-109" font-family="Helvetica,sans-Serif" font-size="10.00">TinyXML2::StrPair::</text>
<text text-anchor="middle" x="532" y="-98" font-family="Helvetica,sans-Serif" font-size="10.00">SetInternedStr</text>
</a>
</g>
</g>
<!-- Node8&#45;&gt;Node9 -->
<g id="edge8" class="edge"><title>Node8&#45;&gt;Node9</title>
<path fill="none" stroke="midnightblue" d="M444.326,-90.9525C452.895,-92.4401 461.753,-93.978 470.387,-95.477"/>
<polygon fill="midnightblue" stroke="midnightblue" points="469.938,-98.9512 480.389,-97.2134 471.135,-92.0544 469.938,-98.9512"/>
</g>
<!-- Node11 -->
<g id="node11" class="node"><title>Node11</title>
<g id="a_node11"><a xlink:href="a00133.xhtml#a8d21246f67287932bba28e6393f5ea2c" target="_top" xlink:title="TinyXML2::StrPair::\lSetStr">
<polygon fill="none" stroke="black" points="480.5,-42 480.5,-72 583.5,-72 583.5,-42 480.5,-42"/>
<text text-anchor="start" x="488.5" y="-60" font-family="Helvetica,sans-Serif" font-size="10.00">TinyXML2::StrPair::</text>
<text text-anchor="middle" x="532" y="-49" font-family="Helvetica,sans-Serif" font-size="10.00">SetStr</text>
</a>
</g>
</g>
<!-- Node8&#45;&gt;Node11 -->
<g id="edge10" class="edge"><title>Node8&#45;&gt;Node11</title>
<path fill="none" stroke="midnightblue" d="M444.326,-71.4456C452.895,-70.0175 461.753,-68.5411 470.387,-67.1021"/>
<polygon fill="midnightblue" stroke="midnightblue" points="471.101,-70.5316 480.389,-65.4351 469.95,-63.6268 471.101,-70.5316"/>
</g>
<!-- Node10 -->
<g id="node10" class="node"><title>Node10</title>
<g id="a_node10"><a xlink:href="a00133.xhtml#afbc7a4f921afeff8ef2aca24765ed24f" target="_top" xlink:title="TinyXML2::StrPair::\lReset">
<polygon fill="none" stroke="black" points="620.5,-66 620.5,-96 723.5,-96 723.5,-66 620.5,-66"/>
<text text-anchor="start" x="628.5" y="-84" font-family="Helvetica,sans-Serif" font-size="10.00">TinyXML2::StrPair::</text>
<text text-anchor="middle" x="672" y="-73" font-family="Helvetica,sans-Serif" font-size="10.00">Reset</text>
</a>
</g>
</g>
<!-- Node9&#45;&gt;Node10 -->
<g id="edge9" class="edge"><title>Node9&#45;&gt;Node10</title>
<path fill="none" stroke="midnightblue" d="M583.603,-96.8329C592.321,-95.2534 601.463,-93.5973 610.413,-91.9759"/>
<polygon fill="midnightblue" stroke="midnightblue" points="611.188,-95.3926 620.404,-90.166 609.94,-88.5047 611.188,-95.3926"/>
</g>
<!-- Node11&#45;&gt;Node10 -->
<g id="edge11" class="edge"><title>Node11&#45;&gt;Node10</title>
<path fill="none" stroke="midnightblue" d="M583.603,-65.8004C592.321,-67.3168 601.463,-68.9066 610.413,-70.4631"/>
<polygon fill="midnightblue" stroke="midnightblue" points="609.952,-73.9354 620.404,-72.2006 611.151,-67.0389 609.952,-73.9354"/>
</g>
</g>
</svg>
        <g id="navigator" transform="translate(0 0)" fill="#404254">
                <rect fill="#f2f5e9" fill-opacity="0.5" stroke="#606060" stroke-width=".5" x="0" y="0" width="60" height="60"/>
                <use id="zoomplus" xlink:href="#zoomPlus" x="17" y="9" onmousedown="handleZoom(evt,'in')"/>
                <use id="zoomminus" xlink:href="#zoomMin" x="42" y="9" onmousedown="handleZoom(evt,'out')"/>
                <use id="reset" xlink:href="#resetDef" x="30" y="36" onmousedown="handleReset()"/>
                <g id="arrowUp" xlink:href="#dirArrow" transform="translate(30 24)" onmousedown="handlePan(0,-1)">
                  <use xlink:href="#rim" fill="#404040">
                        <set attributeName="fill" to="#808080" begin="arrowUp.mouseover" end="arrowUp.mouseout"/>
                  </use>
                  <path fill="none" stroke="white" stroke-width="1.5" d="M0,-3.0v7 M-2.5,-0.5L0,-3.0L2.5,-0.5"/>
                </g>
                <g id="arrowRight" xlink:href="#dirArrow" transform="rotate(90) translate(36 -43)" onmousedown="handlePan(1,0)">
                  <use xlink:href="#rim" fill="#404040">
                        <set attributeName="fill" to="#808080" begin="arrowRight.mouseover" end="arrowRight.mouseout"/>
                  </use>
                  <path fill="none" stroke="white" stroke-width="1.5" d="M0,-3.0v7 M-2.5,-0.5L0,-3.0L2.5,-0.5"/>
                </g>
                <g id="arrowDown" xlink:href="#dirArrow" transform="rotate(180) translate(-30 -48)" onmousedown="handlePan(0,1)">
                  <use xlink:href="#rim" fill="#404040">
                        <set attributeName="fill" to="#808080" begin="arrowDown.mouseover" end="arrowDown.mouseout"/>
                  </use>
                  <path fill="none" stroke="white" stroke-width="1.5" d="M0,-3.0v7 M-2.5,-0.5L0,-3.0L2.5,-0.5"/>
                </g>
                <g id="arrowLeft" xlink:href="#dirArrow" transform="rotate(270) translate(-36 17)" onmousedown="handlePan(-1,0)">
                  <use xlink:href="#rim" fill="#404040">
                        <set attributeName="fill" to="#808080" begin="arrowLeft.mouseover" end="arrowLeft.mouseout"/>
                  </use>
                  <path fill="none" stroke="white" stroke-width="1.5" d="M0,-3.0v7 M-2.5,-0.5L0,-3.0L2.5,-0.5"/>
                </g>
        </g>
        <svg viewBox="0 0 15 15" width="100%" height="30px" preserveAspectRatio="xMaxYMin meet">
         <g id="arrow_out" transform="scale(0.3 0.3)">
          <a xlink:href="a00199_ad0f8edb7feb82def4e5245a9650f80fc_cgraph_org.svg" target="_base">
           <rect id="button" ry="5" rx="5" y="6" x="6" height="38" width="38"
                fill="#f2f5e9" fill-opacity="0.5" stroke="#606060" stroke-width="1.0"/>
           <path id="arrow"
             d="M 11.500037,31.436501 C 11.940474,20.09759 22.043105,11.32322 32.158766,21.979434 L 37.068811,17.246167 C 37.068811,17.246167 37.088388,32 37.088388,32 L 22.160133,31.978069 C 22.160133,31.978069 26.997745,27.140456 26.997745,27.140456 C 18.528582,18.264221 13.291696,25.230495 11.500037,31.436501 z"
             style="fill:#404040;"/>
          </a>
         </g>
        </svg>
</svg>
