<?xml version="1.0" encoding="UTF-8" standalone="no"?>
<!DOCTYPE svg PUBLIC "-//W3C//DTD SVG 1.1//EN"
 "http://www.w3.org/Graphics/SVG/1.1/DTD/svg11.dtd">
<!-- Generated by graphviz version 2.36.0 (20140111.2315)
 -->
<!-- Title: Voxel::PCLViewer::setDepthCamera Pages: 1 -->
<!--zoomable 136 -->
<svg id="main" version="1.1" xmlns="http://www.w3.org/2000/svg" xmlns:xlink="http://www.w3.org/1999/xlink" xml:space="preserve" onload="init(evt)">
<style type="text/css"><![CDATA[
.edge:hover path { stroke: red; }
.edge:hover polygon { stroke: red; fill: red; }
]]></style>
<script type="text/javascript"><![CDATA[
var edges = document.getElementsByTagName('g');
if (edges && edges.length) {
  for (var i=0;i<edges.length;i++) {
    if (edges[i].id.substr(0,4)=='edge') {
      edges[i].setAttribute('class','edge');
    }
  }
}
]]></script>
        <defs>
                <circle id="rim" cx="0" cy="0" r="7"/>
                <circle id="rim2" cx="0" cy="0" r="3.5"/>
                <g id="zoomPlus">
                        <use xlink:href="#rim" fill="#404040">
                                <set attributeName="fill" to="#808080" begin="zoomplus.mouseover" end="zoomplus.mouseout"/>
                        </use>
                        <path d="M-4,0h8M0,-4v8" fill="none" stroke="white" stroke-width="1.5" pointer-events="none"/>
                </g>
                <g id="zoomMin">
                        <use xlink:href="#rim" fill="#404040">
                                <set attributeName="fill" to="#808080" begin="zoomminus.mouseover" end="zoomminus.mouseout"/>
                        </use>
                        <path d="M-4,0h8" fill="none" stroke="white" stroke-width="1.5" pointer-events="none"/>
                </g>
                <g id="dirArrow">
                        <path fill="none" stroke="white" stroke-width="1.5" d="M0,-3.0v7 M-2.5,-0.5L0,-3.0L2.5,-0.5"/>
                </g>
               <g id="resetDef">
                       <use xlink:href="#rim2" fill="#404040">
                               <set attributeName="fill" to="#808080" begin="reset.mouseover" end="reset.mouseout"/>
                       </use>
               </g>
        </defs>

<script type="text/javascript">
var viewWidth = 502;
var viewHeight = 136;
var sectionId = 'dynsection-7';
</script>
<script xlink:href="svgpan.js"/>
<svg id="graph" class="graph">
<g id="viewport">
<title>Voxel::PCLViewer::setDepthCamera</title>
<!-- Node1 -->
<g id="node1" class="node"><title>Node1</title>
<polygon fill="#bfbfbf" stroke="black" points="0.5,-49 0.5,-79 143.5,-79 143.5,-49 0.5,-49"/>
<text text-anchor="start" x="8.5" y="-67" font-family="Helvetica,sans-Serif" font-size="10.00">Voxel::PCLViewer::setDepth</text>
<text text-anchor="middle" x="72" y="-56" font-family="Helvetica,sans-Serif" font-size="10.00">Camera</text>
</g>
<!-- Node2 -->
<g id="node2" class="node"><title>Node2</title>
<g id="a_node2"><a xlink:href="a00105.xhtml#a0751fa6190e95d3483726db767fd320d" target="_top" xlink:title="Voxel::PCLViewer::isRunning">
<polygon fill="none" stroke="black" points="180,-97.5 180,-116.5 326,-116.5 326,-97.5 180,-97.5"/>
<text text-anchor="middle" x="253" y="-104.5" font-family="Helvetica,sans-Serif" font-size="10.00">Voxel::PCLViewer::isRunning</text>
</a>
</g>
</g>
<!-- Node1&#45;&gt;Node2 -->
<g id="edge1" class="edge"><title>Node1&#45;&gt;Node2</title>
<path fill="none" stroke="midnightblue" d="M135.606,-79.0393C157.525,-84.305 181.818,-90.1406 202.515,-95.1126"/>
<polygon fill="midnightblue" stroke="midnightblue" points="201.82,-98.5451 212.361,-97.4777 203.455,-91.7387 201.82,-98.5451"/>
</g>
<!-- Node4 -->
<g id="node4" class="node"><title>Node4</title>
<g id="a_node4"><a xlink:href="a00105.xhtml#a10c69f70450ba61ce6e9dd19437045f5" target="_top" xlink:title="Voxel::PCLViewer::start">
<polygon fill="none" stroke="black" points="192,-54.5 192,-73.5 314,-73.5 314,-54.5 192,-54.5"/>
<text text-anchor="middle" x="253" y="-61.5" font-family="Helvetica,sans-Serif" font-size="10.00">Voxel::PCLViewer::start</text>
</a>
</g>
</g>
<!-- Node1&#45;&gt;Node4 -->
<g id="edge3" class="edge"><title>Node1&#45;&gt;Node4</title>
<path fill="none" stroke="midnightblue" d="M143.746,-64C156.19,-64 169.141,-64 181.576,-64"/>
<polygon fill="midnightblue" stroke="midnightblue" points="181.878,-67.5001 191.878,-64 181.878,-60.5001 181.878,-67.5001"/>
</g>
<!-- Node7 -->
<g id="node7" class="node"><title>Node7</title>
<g id="a_node7"><a xlink:href="a00105.xhtml#ae73aebc93e90694363dfb730249f94a8" target="_top" xlink:title="Voxel::PCLViewer::stop">
<polygon fill="none" stroke="black" points="192,-16.5 192,-35.5 314,-35.5 314,-16.5 192,-16.5"/>
<text text-anchor="middle" x="253" y="-23.5" font-family="Helvetica,sans-Serif" font-size="10.00">Voxel::PCLViewer::stop</text>
</a>
</g>
</g>
<!-- Node1&#45;&gt;Node7 -->
<g id="edge6" class="edge"><title>Node1&#45;&gt;Node7</title>
<path fill="none" stroke="midnightblue" d="M143.746,-48.9814C161.468,-45.219 180.218,-41.2386 197.044,-37.6666"/>
<polygon fill="midnightblue" stroke="midnightblue" points="198.19,-41.0013 207.246,-35.5009 196.737,-34.1539 198.19,-41.0013"/>
</g>
<!-- Node3 -->
<g id="node3" class="node"><title>Node3</title>
<g id="a_node3"><a xlink:href="a00105.xhtml#a7c1fe1b3964d10fa2a6399e2fa6e4d75" target="_top" xlink:title="Voxel::PCLViewer::viewer\lStopped">
<polygon fill="none" stroke="black" points="362.5,-98 362.5,-128 493.5,-128 493.5,-98 362.5,-98"/>
<text text-anchor="start" x="370.5" y="-116" font-family="Helvetica,sans-Serif" font-size="10.00">Voxel::PCLViewer::viewer</text>
<text text-anchor="middle" x="428" y="-105" font-family="Helvetica,sans-Serif" font-size="10.00">Stopped</text>
</a>
</g>
</g>
<!-- Node2&#45;&gt;Node3 -->
<g id="edge2" class="edge"><title>Node2&#45;&gt;Node3</title>
<path fill="none" stroke="midnightblue" d="M326.115,-109.501C334.778,-109.802 343.639,-110.109 352.337,-110.411"/>
<polygon fill="midnightblue" stroke="midnightblue" points="352.336,-113.913 362.451,-110.761 352.579,-106.917 352.336,-113.913"/>
</g>
<!-- Node5 -->
<g id="node5" class="node"><title>Node5</title>
<g id="a_node5"><a xlink:href="a00105.xhtml#a059851bce755b00c6ad964c3b3bfe429" target="_top" xlink:title="Voxel::PCLViewer::\l_renderLoop">
<polygon fill="none" stroke="black" points="376.5,-49 376.5,-79 479.5,-79 479.5,-49 376.5,-49"/>
<text text-anchor="start" x="384.5" y="-67" font-family="Helvetica,sans-Serif" font-size="10.00">Voxel::PCLViewer::</text>
<text text-anchor="middle" x="428" y="-56" font-family="Helvetica,sans-Serif" font-size="10.00">_renderLoop</text>
</a>
</g>
</g>
<!-- Node4&#45;&gt;Node5 -->
<g id="edge4" class="edge"><title>Node4&#45;&gt;Node5</title>
<path fill="none" stroke="midnightblue" d="M314.021,-64C330.832,-64 349.118,-64 365.985,-64"/>
<polygon fill="midnightblue" stroke="midnightblue" points="366.278,-67.5001 376.278,-64 366.278,-60.5001 366.278,-67.5001"/>
</g>
<!-- Node6 -->
<g id="node6" class="node"><title>Node6</title>
<g id="a_node6"><a xlink:href="a00105.xhtml#ae1a7fb4413b4cac99350cc9093820544" target="_top" xlink:title="Voxel::PCLViewer::\l_cloudRenderCallback">
<polygon fill="none" stroke="black" points="370.5,-0 370.5,-30 485.5,-30 485.5,-0 370.5,-0"/>
<text text-anchor="start" x="378.5" y="-18" font-family="Helvetica,sans-Serif" font-size="10.00">Voxel::PCLViewer::</text>
<text text-anchor="middle" x="428" y="-7" font-family="Helvetica,sans-Serif" font-size="10.00">_cloudRenderCallback</text>
</a>
</g>
</g>
<!-- Node4&#45;&gt;Node6 -->
<g id="edge5" class="edge"><title>Node4&#45;&gt;Node6</title>
<path fill="none" stroke="midnightblue" d="M291.058,-54.4538C302.3,-51.495 314.672,-48.1761 326,-45 339.535,-41.205 354.045,-36.985 367.725,-32.9372"/>
<polygon fill="midnightblue" stroke="midnightblue" points="368.925,-36.232 377.514,-30.0288 366.932,-29.5219 368.925,-36.232"/>
</g>
</g>
</svg>
        <g id="navigator" transform="translate(0 0)" fill="#404254">
                <rect fill="#f2f5e9" fill-opacity="0.5" stroke="#606060" stroke-width=".5" x="0" y="0" width="60" height="60"/>
                <use id="zoomplus" xlink:href="#zoomPlus" x="17" y="9" onmousedown="handleZoom(evt,'in')"/>
                <use id="zoomminus" xlink:href="#zoomMin" x="42" y="9" onmousedown="handleZoom(evt,'out')"/>
                <use id="reset" xlink:href="#resetDef" x="30" y="36" onmousedown="handleReset()"/>
                <g id="arrowUp" xlink:href="#dirArrow" transform="translate(30 24)" onmousedown="handlePan(0,-1)">
                  <use xlink:href="#rim" fill="#404040">
                        <set attributeName="fill" to="#808080" begin="arrowUp.mouseover" end="arrowUp.mouseout"/>
                  </use>
                  <path fill="none" stroke="white" stroke-width="1.5" d="M0,-3.0v7 M-2.5,-0.5L0,-3.0L2.5,-0.5"/>
                </g>
                <g id="arrowRight" xlink:href="#dirArrow" transform="rotate(90) translate(36 -43)" onmousedown="handlePan(1,0)">
                  <use xlink:href="#rim" fill="#404040">
                        <set attributeName="fill" to="#808080" begin="arrowRight.mouseover" end="arrowRight.mouseout"/>
                  </use>
                  <path fill="none" stroke="white" stroke-width="1.5" d="M0,-3.0v7 M-2.5,-0.5L0,-3.0L2.5,-0.5"/>
                </g>
                <g id="arrowDown" xlink:href="#dirArrow" transform="rotate(180) translate(-30 -48)" onmousedown="handlePan(0,1)">
                  <use xlink:href="#rim" fill="#404040">
                        <set attributeName="fill" to="#808080" begin="arrowDown.mouseover" end="arrowDown.mouseout"/>
                  </use>
                  <path fill="none" stroke="white" stroke-width="1.5" d="M0,-3.0v7 M-2.5,-0.5L0,-3.0L2.5,-0.5"/>
                </g>
                <g id="arrowLeft" xlink:href="#dirArrow" transform="rotate(270) translate(-36 17)" onmousedown="handlePan(-1,0)">
                  <use xlink:href="#rim" fill="#404040">
                        <set attributeName="fill" to="#808080" begin="arrowLeft.mouseover" end="arrowLeft.mouseout"/>
                  </use>
                  <path fill="none" stroke="white" stroke-width="1.5" d="M0,-3.0v7 M-2.5,-0.5L0,-3.0L2.5,-0.5"/>
                </g>
        </g>
        <svg viewBox="0 0 15 15" width="100%" height="30px" preserveAspectRatio="xMaxYMin meet">
         <g id="arrow_out" transform="scale(0.3 0.3)">
          <a xlink:href="a00105_aa71433675a254cc3df3a2b02599c408f_cgraph_org.svg" target="_base">
           <rect id="button" ry="5" rx="5" y="6" x="6" height="38" width="38"
                fill="#f2f5e9" fill-opacity="0.5" stroke="#606060" stroke-width="1.0"/>
           <path id="arrow"
             d="M 11.500037,31.436501 C 11.940474,20.09759 22.043105,11.32322 32.158766,21.979434 L 37.068811,17.246167 C 37.068811,17.246167 37.088388,32 37.088388,32 L 22.160133,31.978069 C 22.160133,31.978069 26.997745,27.140456 26.997745,27.140456 C 18.528582,18.264221 13.291696,25.230495 11.500037,31.436501 z"
             style="fill:#404040;"/>
          </a>
         </g>
        </svg>
</svg>
