<?xml version="1.0" encoding="UTF-8" standalone="no"?>
<!DOCTYPE svg PUBLIC "-//W3C//DTD SVG 1.1//EN"
 "http://www.w3.org/Graphics/SVG/1.1/DTD/svg11.dtd">
<!-- Generated by graphviz version 2.36.0 (20140111.2315)
 -->
<!-- Title: Voxel::TI::TintinCDKCamera::_getMaximumFrameRate Pages: 1 -->
<svg width="484pt" height="94pt"
 viewBox="0.00 0.00 484.00 94.00" xmlns="http://www.w3.org/2000/svg" xmlns:xlink="http://www.w3.org/1999/xlink">
<g id="graph0" class="graph" transform="scale(1 1) rotate(0) translate(4 90)">
<title>Voxel::TI::TintinCDKCamera::_getMaximumFrameRate</title>
<!-- Node1 -->
<g id="node1" class="node"><title>Node1</title>
<polygon fill="#bfbfbf" stroke="black" points="0.5,-17 0.5,-47 143.5,-47 143.5,-17 0.5,-17"/>
<text text-anchor="start" x="8.5" y="-35" font-family="Helvetica,sans-Serif" font-size="10.00">Voxel::TI::TintinCDKCamera</text>
<text text-anchor="middle" x="72" y="-24" font-family="Helvetica,sans-Serif" font-size="10.00">::_getMaximumFrameRate</text>
</g>
<!-- Node2 -->
<g id="node2" class="node"><title>Node2</title>
<g id="a_node2"><a xlink:href="a00036.xhtml#ac850b3829f41e647686610c283197ea6" target="_top" xlink:title="Voxel::DepthCamera\l::_get">
<polygon fill="none" stroke="black" points="180,-39 180,-69 288,-69 288,-39 180,-39"/>
<text text-anchor="start" x="188" y="-57" font-family="Helvetica,sans-Serif" font-size="10.00">Voxel::DepthCamera</text>
<text text-anchor="middle" x="234" y="-46" font-family="Helvetica,sans-Serif" font-size="10.00">::_get</text>
</a>
</g>
</g>
<!-- Node1&#45;&gt;Node2 -->
<g id="edge1" class="edge"><title>Node1&#45;&gt;Node2</title>
<path fill="none" stroke="midnightblue" d="M143.644,-41.7136C152.214,-42.892 160.93,-44.0904 169.39,-45.2536"/>
<polygon fill="midnightblue" stroke="midnightblue" points="169.172,-48.7565 179.556,-46.6514 170.126,-41.8217 169.172,-48.7565"/>
</g>
<!-- Node5 -->
<g id="node5" class="node"><title>Node5</title>
<g id="a_node5"><a xlink:href="a00390.xhtml#ga148a066c676b3c831918800b78a2f056" target="_top" xlink:title="Voxel::gcd">
<polygon fill="none" stroke="black" points="202.5,-0.5 202.5,-19.5 265.5,-19.5 265.5,-0.5 202.5,-0.5"/>
<text text-anchor="middle" x="234" y="-7.5" font-family="Helvetica,sans-Serif" font-size="10.00">Voxel::gcd</text>
</a>
</g>
</g>
<!-- Node1&#45;&gt;Node5 -->
<g id="edge4" class="edge"><title>Node1&#45;&gt;Node5</title>
<path fill="none" stroke="midnightblue" d="M143.644,-22.2864C160.216,-20.0079 177.33,-17.6546 192.091,-15.625"/>
<polygon fill="midnightblue" stroke="midnightblue" points="192.951,-19.0397 202.381,-14.2101 191.997,-12.105 192.951,-19.0397"/>
</g>
<!-- Node3 -->
<g id="node3" class="node"><title>Node3</title>
<g id="a_node3"><a xlink:href="a00103.xhtml#afa8896eaffbd2b87d1482c0967a0fe1d" target="_top" xlink:title="Voxel::ParameterTemplate::get">
<polygon fill="none" stroke="black" points="324,-66.5 324,-85.5 476,-85.5 476,-66.5 324,-66.5"/>
<text text-anchor="middle" x="400" y="-73.5" font-family="Helvetica,sans-Serif" font-size="10.00">Voxel::ParameterTemplate::get</text>
</a>
</g>
</g>
<!-- Node2&#45;&gt;Node3 -->
<g id="edge2" class="edge"><title>Node2&#45;&gt;Node3</title>
<path fill="none" stroke="midnightblue" d="M288.246,-61.1428C297.786,-62.4225 307.921,-63.782 318.034,-65.1387"/>
<polygon fill="midnightblue" stroke="midnightblue" points="317.741,-68.6307 328.118,-66.4914 318.672,-61.6929 317.741,-68.6307"/>
</g>
<!-- Node4 -->
<g id="node4" class="node"><title>Node4</title>
<g id="a_node4"><a xlink:href="a00036.xhtml#ae3d6fcc6d4a20d1ad2de809ad65ecc34" target="_top" xlink:title="Voxel::DepthCamera\l::name">
<polygon fill="none" stroke="black" points="346,-17 346,-47 454,-47 454,-17 346,-17"/>
<text text-anchor="start" x="354" y="-35" font-family="Helvetica,sans-Serif" font-size="10.00">Voxel::DepthCamera</text>
<text text-anchor="middle" x="400" y="-24" font-family="Helvetica,sans-Serif" font-size="10.00">::name</text>
</a>
</g>
</g>
<!-- Node2&#45;&gt;Node4 -->
<g id="edge3" class="edge"><title>Node2&#45;&gt;Node4</title>
<path fill="none" stroke="midnightblue" d="M288.246,-46.8572C303.361,-44.8297 319.967,-42.6019 335.619,-40.5024"/>
<polygon fill="midnightblue" stroke="midnightblue" points="336.295,-43.9431 345.741,-39.1446 335.364,-37.0053 336.295,-43.9431"/>
</g>
</g>
</svg>
