<?xml version="1.0" encoding="UTF-8" standalone="no"?>
<!DOCTYPE svg PUBLIC "-//W3C//DTD SVG 1.1//EN"
 "http://www.w3.org/Graphics/SVG/1.1/DTD/svg11.dtd">
<!-- Generated by graphviz version 2.36.0 (20140111.2315)
 -->
<!-- Title: Voxel::TI::ToFHaddockCamera::_initStartParams Pages: 1 -->
<!--zoomable 822 -->
<svg id="main" version="1.1" xmlns="http://www.w3.org/2000/svg" xmlns:xlink="http://www.w3.org/1999/xlink" xml:space="preserve" onload="init(evt)">
<style type="text/css"><![CDATA[
.edge:hover path { stroke: red; }
.edge:hover polygon { stroke: red; fill: red; }
]]></style>
<script type="text/javascript"><![CDATA[
var edges = document.getElementsByTagName('g');
if (edges && edges.length) {
  for (var i=0;i<edges.length;i++) {
    if (edges[i].id.substr(0,4)=='edge') {
      edges[i].setAttribute('class','edge');
    }
  }
}
]]></script>
        <defs>
                <circle id="rim" cx="0" cy="0" r="7"/>
                <circle id="rim2" cx="0" cy="0" r="3.5"/>
                <g id="zoomPlus">
                        <use xlink:href="#rim" fill="#404040">
                                <set attributeName="fill" to="#808080" begin="zoomplus.mouseover" end="zoomplus.mouseout"/>
                        </use>
                        <path d="M-4,0h8M0,-4v8" fill="none" stroke="white" stroke-width="1.5" pointer-events="none"/>
                </g>
                <g id="zoomMin">
                        <use xlink:href="#rim" fill="#404040">
                                <set attributeName="fill" to="#808080" begin="zoomminus.mouseover" end="zoomminus.mouseout"/>
                        </use>
                        <path d="M-4,0h8" fill="none" stroke="white" stroke-width="1.5" pointer-events="none"/>
                </g>
                <g id="dirArrow">
                        <path fill="none" stroke="white" stroke-width="1.5" d="M0,-3.0v7 M-2.5,-0.5L0,-3.0L2.5,-0.5"/>
                </g>
               <g id="resetDef">
                       <use xlink:href="#rim2" fill="#404040">
                               <set attributeName="fill" to="#808080" begin="reset.mouseover" end="reset.mouseout"/>
                       </use>
               </g>
        </defs>

<script type="text/javascript">
var viewWidth = 1402;
var viewHeight = 822;
var sectionId = 'dynsection-8';
</script>
<script xlink:href="svgpan.js"/>
<svg id="graph" class="graph">
<g id="viewport">
<title>Voxel::TI::ToFHaddockCamera::_initStartParams</title>
<!-- Node1 -->
<g id="node1" class="node"><title>Node1</title>
<polygon fill="#bfbfbf" stroke="black" points="0.5,-501 0.5,-531 153.5,-531 153.5,-501 0.5,-501"/>
<text text-anchor="start" x="8.5" y="-519" font-family="Helvetica,sans-Serif" font-size="10.00">Voxel::TI::ToFHaddockCamera</text>
<text text-anchor="middle" x="77" y="-508" font-family="Helvetica,sans-Serif" font-size="10.00">::_initStartParams</text>
</g>
<!-- Node2 -->
<g id="node2" class="node"><title>Node2</title>
<g id="a_node2"><a xlink:href="a00153.xhtml#a52686f695d06876ef5a89e453c6a8ba3" target="_top" xlink:title="Voxel::TI::ToFCamera\l::_initStartParams">
<polygon fill="none" stroke="black" points="197,-392 197,-422 311,-422 311,-392 197,-392"/>
<text text-anchor="start" x="205" y="-410" font-family="Helvetica,sans-Serif" font-size="10.00">Voxel::TI::ToFCamera</text>
<text text-anchor="middle" x="254" y="-399" font-family="Helvetica,sans-Serif" font-size="10.00">::_initStartParams</text>
</a>
</g>
</g>
<!-- Node1&#45;&gt;Node2 -->
<g id="edge1" class="edge"><title>Node1&#45;&gt;Node2</title>
<path fill="none" stroke="midnightblue" d="M102.333,-500.844C133.025,-481.728 185.918,-448.783 220.168,-427.45"/>
<polygon fill="midnightblue" stroke="midnightblue" points="222.236,-430.285 228.874,-422.027 218.535,-424.343 222.236,-430.285"/>
</g>
<!-- Node41 -->
<g id="node41" class="node"><title>Node41</title>
<g id="a_node41"><a xlink:href="a00036.xhtml#a4f1c6d826c1842d7bc3fbeea5ebb9616" target="_top" xlink:title="Voxel::DepthCamera::set">
<polygon fill="none" stroke="black" points="190,-615.5 190,-634.5 318,-634.5 318,-615.5 190,-615.5"/>
<text text-anchor="middle" x="254" y="-622.5" font-family="Helvetica,sans-Serif" font-size="10.00">Voxel::DepthCamera::set</text>
</a>
</g>
</g>
<!-- Node1&#45;&gt;Node41 -->
<g id="edge46" class="edge"><title>Node1&#45;&gt;Node41</title>
<path fill="none" stroke="midnightblue" d="M102.333,-531.156C135.813,-552.009 195.711,-589.317 229.01,-610.057"/>
<polygon fill="midnightblue" stroke="midnightblue" points="227.313,-613.124 237.652,-615.44 231.014,-607.183 227.313,-613.124"/>
</g>
<!-- Node3 -->
<g id="node3" class="node"><title>Node3</title>
<g id="a_node3"><a xlink:href="a00153.xhtml#a5ce6e98d8496efd0b62d926e73809034" target="_top" xlink:title="Voxel::TI::ToFCamera\l::_applyCalibrationParams">
<polygon fill="none" stroke="black" points="357.5,-637 357.5,-667 488.5,-667 488.5,-637 357.5,-637"/>
<text text-anchor="start" x="365.5" y="-655" font-family="Helvetica,sans-Serif" font-size="10.00">Voxel::TI::ToFCamera</text>
<text text-anchor="middle" x="423" y="-644" font-family="Helvetica,sans-Serif" font-size="10.00">::_applyCalibrationParams</text>
</a>
</g>
</g>
<!-- Node2&#45;&gt;Node3 -->
<g id="edge2" class="edge"><title>Node2&#45;&gt;Node3</title>
<path fill="none" stroke="midnightblue" d="M257.631,-422.167C265.238,-461.569 290.877,-568.18 354,-627 355.682,-628.568 357.471,-630.039 359.343,-631.419"/>
<polygon fill="midnightblue" stroke="midnightblue" points="357.684,-634.512 368.004,-636.91 361.432,-628.6 357.684,-634.512"/>
</g>
<!-- Node4 -->
<g id="node4" class="node"><title>Node4</title>
<g id="a_node4"><a xlink:href="a00153.xhtml#abb0e21a487e4d2ae08031d0078b0578d" target="_top" xlink:title="Voxel::TI::ToFCamera\l::_getBinning">
<polygon fill="none" stroke="black" points="366,-588 366,-618 480,-618 480,-588 366,-588"/>
<text text-anchor="start" x="374" y="-606" font-family="Helvetica,sans-Serif" font-size="10.00">Voxel::TI::ToFCamera</text>
<text text-anchor="middle" x="423" y="-595" font-family="Helvetica,sans-Serif" font-size="10.00">::_getBinning</text>
</a>
</g>
</g>
<!-- Node2&#45;&gt;Node4 -->
<g id="edge3" class="edge"><title>Node2&#45;&gt;Node4</title>
<path fill="none" stroke="midnightblue" d="M259.768,-422.123C270.911,-455.107 301.751,-534.067 354,-578 355.98,-579.665 358.08,-581.223 360.269,-582.682"/>
<polygon fill="midnightblue" stroke="midnightblue" points="358.681,-585.808 369.082,-587.826 362.21,-579.762 358.681,-585.808"/>
</g>
<!-- Node5 -->
<g id="node5" class="node"><title>Node5</title>
<g id="a_node5"><a xlink:href="a00153.xhtml#acf6c3a732c5a47f38f2d461d76709091" target="_top" xlink:title="Voxel::TI::ToFCamera\l::_getBytesPerPixel">
<polygon fill="none" stroke="black" points="366,-490 366,-520 480,-520 480,-490 366,-490"/>
<text text-anchor="start" x="374" y="-508" font-family="Helvetica,sans-Serif" font-size="10.00">Voxel::TI::ToFCamera</text>
<text text-anchor="middle" x="423" y="-497" font-family="Helvetica,sans-Serif" font-size="10.00">::_getBytesPerPixel</text>
</a>
</g>
</g>
<!-- Node2&#45;&gt;Node5 -->
<g id="edge4" class="edge"><title>Node2&#45;&gt;Node5</title>
<path fill="none" stroke="midnightblue" d="M272.22,-422.076C291.206,-438.109 323.162,-463.399 354,-480 357.906,-482.103 362.026,-484.1 366.227,-485.982"/>
<polygon fill="midnightblue" stroke="midnightblue" points="364.929,-489.233 375.502,-489.912 367.661,-482.788 364.929,-489.233"/>
</g>
<!-- Node9 -->
<g id="node9" class="node"><title>Node9</title>
<g id="a_node9"><a xlink:href="a00153.xhtml#a8722e9125739af3cd8c9291b7b6f126a" target="_top" xlink:title="Voxel::TI::ToFCamera\l::_getOpDataArrangeMode">
<polygon fill="none" stroke="black" points="356.5,-392 356.5,-422 489.5,-422 489.5,-392 356.5,-392"/>
<text text-anchor="start" x="364.5" y="-410" font-family="Helvetica,sans-Serif" font-size="10.00">Voxel::TI::ToFCamera</text>
<text text-anchor="middle" x="423" y="-399" font-family="Helvetica,sans-Serif" font-size="10.00">::_getOpDataArrangeMode</text>
</a>
</g>
</g>
<!-- Node2&#45;&gt;Node9 -->
<g id="edge8" class="edge"><title>Node2&#45;&gt;Node9</title>
<path fill="none" stroke="midnightblue" d="M311.073,-407C322.286,-407 334.242,-407 345.997,-407"/>
<polygon fill="midnightblue" stroke="midnightblue" points="346.253,-410.5 356.253,-407 346.253,-403.5 346.253,-410.5"/>
</g>
<!-- Node10 -->
<g id="node10" class="node"><title>Node10</title>
<g id="a_node10"><a xlink:href="a00153.xhtml#a53e0fb4c6f4d4b9ac37b6f1ca763a104" target="_top" xlink:title="Voxel::TI::ToFCamera\l::_getToFFrameType">
<polygon fill="none" stroke="black" points="366,-539 366,-569 480,-569 480,-539 366,-539"/>
<text text-anchor="start" x="374" y="-557" font-family="Helvetica,sans-Serif" font-size="10.00">Voxel::TI::ToFCamera</text>
<text text-anchor="middle" x="423" y="-546" font-family="Helvetica,sans-Serif" font-size="10.00">::_getToFFrameType</text>
</a>
</g>
</g>
<!-- Node2&#45;&gt;Node10 -->
<g id="edge9" class="edge"><title>Node2&#45;&gt;Node10</title>
<path fill="none" stroke="midnightblue" d="M263.656,-422.346C278.808,-447.911 312.507,-499.334 354,-529 356.66,-530.902 359.482,-532.676 362.404,-534.327"/>
<polygon fill="midnightblue" stroke="midnightblue" points="360.915,-537.497 371.413,-538.922 364.095,-531.261 360.915,-537.497"/>
</g>
<!-- Node11 -->
<g id="node11" class="node"><title>Node11</title>
<g id="a_node11"><a xlink:href="a00154.xhtml#aceb0704d27455da6268e3d5b4a92c411" target="_top" xlink:title="Voxel::TI::ToFCameraBase\l::_initStartParams">
<polygon fill="none" stroke="black" points="354.5,-343 354.5,-373 491.5,-373 491.5,-343 354.5,-343"/>
<text text-anchor="start" x="362.5" y="-361" font-family="Helvetica,sans-Serif" font-size="10.00">Voxel::TI::ToFCameraBase</text>
<text text-anchor="middle" x="423" y="-350" font-family="Helvetica,sans-Serif" font-size="10.00">::_initStartParams</text>
</a>
</g>
</g>
<!-- Node2&#45;&gt;Node11 -->
<g id="edge11" class="edge"><title>Node2&#45;&gt;Node11</title>
<path fill="none" stroke="midnightblue" d="M306.468,-391.899C323.692,-386.845 343.059,-381.162 360.942,-375.915"/>
<polygon fill="midnightblue" stroke="midnightblue" points="362.092,-379.226 370.702,-373.052 360.121,-372.509 362.092,-379.226"/>
</g>
<!-- Node14 -->
<g id="node14" class="node"><title>Node14</title>
<g id="a_node14"><a xlink:href="a00153.xhtml#af3a59471799f2526c520511f688d247c" target="_top" xlink:title="Voxel::TI::ToFCamera\l::_is16BitModeEnabled">
<polygon fill="none" stroke="black" points="364.5,-294 364.5,-324 481.5,-324 481.5,-294 364.5,-294"/>
<text text-anchor="start" x="372.5" y="-312" font-family="Helvetica,sans-Serif" font-size="10.00">Voxel::TI::ToFCamera</text>
<text text-anchor="middle" x="423" y="-301" font-family="Helvetica,sans-Serif" font-size="10.00">::_is16BitModeEnabled</text>
</a>
</g>
</g>
<!-- Node2&#45;&gt;Node14 -->
<g id="edge14" class="edge"><title>Node2&#45;&gt;Node14</title>
<path fill="none" stroke="midnightblue" d="M271.796,-391.92C290.671,-375.601 322.77,-349.681 354,-333 357.285,-331.245 360.725,-329.574 364.24,-327.991"/>
<polygon fill="midnightblue" stroke="midnightblue" points="365.813,-331.126 373.661,-324.009 363.088,-324.678 365.813,-331.126"/>
</g>
<!-- Node15 -->
<g id="node15" class="node"><title>Node15</title>
<g id="a_node15"><a xlink:href="a00153.xhtml#a3c35074af2f6b686cea15db188b9c53f" target="_top" xlink:title="Voxel::TI::ToFCamera\l::_isHistogramEnabled">
<polygon fill="none" stroke="black" points="365,-245 365,-275 481,-275 481,-245 365,-245"/>
<text text-anchor="start" x="373" y="-263" font-family="Helvetica,sans-Serif" font-size="10.00">Voxel::TI::ToFCamera</text>
<text text-anchor="middle" x="423" y="-252" font-family="Helvetica,sans-Serif" font-size="10.00">::_isHistogramEnabled</text>
</a>
</g>
</g>
<!-- Node2&#45;&gt;Node15 -->
<g id="edge15" class="edge"><title>Node2&#45;&gt;Node15</title>
<path fill="none" stroke="midnightblue" d="M263.342,-391.879C278.266,-366.157 311.944,-313.783 354,-284 356.101,-282.512 358.303,-281.109 360.576,-279.785"/>
<polygon fill="midnightblue" stroke="midnightblue" points="362.381,-282.792 369.636,-275.071 359.15,-276.582 362.381,-282.792"/>
</g>
<!-- Node16 -->
<g id="node16" class="node"><title>Node16</title>
<g id="a_node16"><a xlink:href="a00096.xhtml#a0450eaddb1180226c1a3e898e978aba4" target="_top" xlink:title="Voxel::MainConfiguration\lFile::get">
<polygon fill="none" stroke="black" points="360,-196 360,-226 486,-226 486,-196 360,-196"/>
<text text-anchor="start" x="368" y="-214" font-family="Helvetica,sans-Serif" font-size="10.00">Voxel::MainConfiguration</text>
<text text-anchor="middle" x="423" y="-203" font-family="Helvetica,sans-Serif" font-size="10.00">File::get</text>
</a>
</g>
</g>
<!-- Node2&#45;&gt;Node16 -->
<g id="edge16" class="edge"><title>Node2&#45;&gt;Node16</title>
<path fill="none" stroke="midnightblue" d="M259.617,-391.988C270.553,-358.86 301.159,-278.96 354,-235 355.552,-233.709 357.178,-232.485 358.863,-231.326"/>
<polygon fill="midnightblue" stroke="midnightblue" points="360.914,-234.178 367.706,-226.046 357.326,-228.167 360.914,-234.178"/>
</g>
<!-- Node26 -->
<g id="node26" class="node"><title>Node26</title>
<g id="a_node26"><a xlink:href="a00096.xhtml#a700e33f6f37c59f24bdea5db5a037898" target="_top" xlink:title="Voxel::MainConfiguration\lFile::getFile">
<polygon fill="none" stroke="black" points="360,-98 360,-128 486,-128 486,-98 360,-98"/>
<text text-anchor="start" x="368" y="-116" font-family="Helvetica,sans-Serif" font-size="10.00">Voxel::MainConfiguration</text>
<text text-anchor="middle" x="423" y="-105" font-family="Helvetica,sans-Serif" font-size="10.00">File::getFile</text>
</a>
</g>
</g>
<!-- Node2&#45;&gt;Node26 -->
<g id="edge28" class="edge"><title>Node2&#45;&gt;Node26</title>
<path fill="none" stroke="midnightblue" d="M256.155,-391.768C260.399,-346.449 279.058,-211.036 354,-137 355.085,-135.928 356.222,-134.903 357.401,-133.924"/>
<polygon fill="midnightblue" stroke="midnightblue" points="359.545,-136.696 365.741,-128.102 355.538,-130.957 359.545,-136.696"/>
</g>
<!-- Node30 -->
<g id="node30" class="node"><title>Node30</title>
<g id="a_node30"><a xlink:href="a00031.xhtml#a3145251f8115c7ada128556345a41c62" target="_top" xlink:title="Voxel::ConfigurationFile\l::getFloat">
<polygon fill="none" stroke="black" points="362.5,-49 362.5,-79 483.5,-79 483.5,-49 362.5,-49"/>
<text text-anchor="start" x="370.5" y="-67" font-family="Helvetica,sans-Serif" font-size="10.00">Voxel::ConfigurationFile</text>
<text text-anchor="middle" x="423" y="-56" font-family="Helvetica,sans-Serif" font-size="10.00">::getFloat</text>
</a>
</g>
</g>
<!-- Node2&#45;&gt;Node30 -->
<g id="edge32" class="edge"><title>Node2&#45;&gt;Node30</title>
<path fill="none" stroke="midnightblue" d="M255.152,-391.986C256.481,-341.777 267.55,-177.833 354,-88 354.928,-87.0359 355.897,-86.1105 356.901,-85.2222"/>
<polygon fill="midnightblue" stroke="midnightblue" points="359.235,-87.8512 365.226,-79.1133 355.094,-82.2076 359.235,-87.8512"/>
</g>
<!-- Node31 -->
<g id="node31" class="node"><title>Node31</title>
<g id="a_node31"><a xlink:href="a00036.xhtml#a52d1041f172901ff9206b1b409d4711d" target="_top" xlink:title="Voxel::DepthCamera\l::getFrameSize">
<polygon fill="none" stroke="black" points="369,-0 369,-30 477,-30 477,-0 369,-0"/>
<text text-anchor="start" x="377" y="-18" font-family="Helvetica,sans-Serif" font-size="10.00">Voxel::DepthCamera</text>
<text text-anchor="middle" x="423" y="-7" font-family="Helvetica,sans-Serif" font-size="10.00">::getFrameSize</text>
</a>
</g>
</g>
<!-- Node2&#45;&gt;Node31 -->
<g id="edge33" class="edge"><title>Node2&#45;&gt;Node31</title>
<path fill="none" stroke="midnightblue" d="M254.409,-391.697C253.126,-336.389 256.213,-144.568 354,-39 355.824,-37.0311 357.819,-35.2236 359.944,-33.5644"/>
<polygon fill="midnightblue" stroke="midnightblue" points="362.222,-36.2578 368.697,-27.8714 358.406,-30.3898 362.222,-36.2578"/>
</g>
<!-- Node33 -->
<g id="node33" class="node"><title>Node33</title>
<g id="a_node33"><a xlink:href="a00031.xhtml#aeefbdefcac8743d6f08c25109480da2f" target="_top" xlink:title="Voxel::ConfigurationFile\l::getInteger">
<polygon fill="none" stroke="black" points="362.5,-735 362.5,-765 483.5,-765 483.5,-735 362.5,-735"/>
<text text-anchor="start" x="370.5" y="-753" font-family="Helvetica,sans-Serif" font-size="10.00">Voxel::ConfigurationFile</text>
<text text-anchor="middle" x="423" y="-742" font-family="Helvetica,sans-Serif" font-size="10.00">::getInteger</text>
</a>
</g>
</g>
<!-- Node2&#45;&gt;Node33 -->
<g id="edge35" class="edge"><title>Node2&#45;&gt;Node33</title>
<path fill="none" stroke="midnightblue" d="M259.888,-422.208C270.567,-455.486 296.73,-537.283 318,-606 334.339,-658.785 316.088,-684.801 354,-725 355.246,-726.321 356.568,-727.573 357.953,-728.758"/>
<polygon fill="midnightblue" stroke="midnightblue" points="356.317,-731.891 366.489,-734.855 360.385,-726.195 356.317,-731.891"/>
</g>
<!-- Node34 -->
<g id="node34" class="node"><title>Node34</title>
<g id="a_node34"><a xlink:href="a00036.xhtml#aa229ee837c73aa2c78a8bd7a26fa0955" target="_top" xlink:title="Voxel::DepthCamera\l::getMaximumFrameSize">
<polygon fill="none" stroke="black" points="360,-686 360,-716 486,-716 486,-686 360,-686"/>
<text text-anchor="start" x="368" y="-704" font-family="Helvetica,sans-Serif" font-size="10.00">Voxel::DepthCamera</text>
<text text-anchor="middle" x="423" y="-693" font-family="Helvetica,sans-Serif" font-size="10.00">::getMaximumFrameSize</text>
</a>
</g>
</g>
<!-- Node2&#45;&gt;Node34 -->
<g id="edge36" class="edge"><title>Node2&#45;&gt;Node34</title>
<path fill="none" stroke="midnightblue" d="M259.745,-422.124C276.782,-476.072 334.863,-656.87 354,-676 355.434,-677.434 356.958,-678.786 358.554,-680.062"/>
<polygon fill="midnightblue" stroke="midnightblue" points="356.813,-683.11 367.055,-685.82 360.738,-677.315 356.813,-683.11"/>
</g>
<!-- Node36 -->
<g id="node36" class="node"><title>Node36</title>
<g id="a_node36"><a xlink:href="a00036.xhtml#ab2be6abc24dd344f63e082c19273d833" target="_top" xlink:title="Voxel::DepthCamera\l::getROI">
<polygon fill="none" stroke="black" points="369,-441 369,-471 477,-471 477,-441 369,-441"/>
<text text-anchor="start" x="377" y="-459" font-family="Helvetica,sans-Serif" font-size="10.00">Voxel::DepthCamera</text>
<text text-anchor="middle" x="423" y="-448" font-family="Helvetica,sans-Serif" font-size="10.00">::getROI</text>
</a>
</g>
</g>
<!-- Node2&#45;&gt;Node36 -->
<g id="edge38" class="edge"><title>Node2&#45;&gt;Node36</title>
<path fill="none" stroke="midnightblue" d="M306.468,-422.101C323.692,-427.155 343.059,-432.838 360.942,-438.085"/>
<polygon fill="midnightblue" stroke="midnightblue" points="360.121,-441.491 370.702,-440.948 362.092,-434.774 360.121,-441.491"/>
</g>
<!-- Node38 -->
<g id="node38" class="node"><title>Node38</title>
<g id="a_node38"><a xlink:href="a00096.xhtml#a0d061a6b01c29c40af3288f4783c3c07" target="_top" xlink:title="Voxel::MainConfiguration\lFile::isPresent">
<polygon fill="none" stroke="black" points="360,-147 360,-177 486,-177 486,-147 360,-147"/>
<text text-anchor="start" x="368" y="-165" font-family="Helvetica,sans-Serif" font-size="10.00">Voxel::MainConfiguration</text>
<text text-anchor="middle" x="423" y="-154" font-family="Helvetica,sans-Serif" font-size="10.00">File::isPresent</text>
</a>
</g>
</g>
<!-- Node2&#45;&gt;Node38 -->
<g id="edge40" class="edge"><title>Node2&#45;&gt;Node38</title>
<path fill="none" stroke="midnightblue" d="M257.565,-391.717C265.015,-352.025 290.305,-244.683 354,-186 355.151,-184.94 356.352,-183.926 357.594,-182.956"/>
<polygon fill="midnightblue" stroke="midnightblue" points="359.918,-185.615 366.327,-177.178 356.056,-179.777 359.918,-185.615"/>
</g>
<!-- Node6 -->
<g id="node6" class="node"><title>Node6</title>
<g id="a_node6"><a xlink:href="a00036.xhtml#ac850b3829f41e647686610c283197ea6" target="_top" xlink:title="Voxel::DepthCamera\l::_get">
<polygon fill="none" stroke="black" points="556,-539 556,-569 664,-569 664,-539 556,-539"/>
<text text-anchor="start" x="564" y="-557" font-family="Helvetica,sans-Serif" font-size="10.00">Voxel::DepthCamera</text>
<text text-anchor="middle" x="610" y="-546" font-family="Helvetica,sans-Serif" font-size="10.00">::_get</text>
</a>
</g>
</g>
<!-- Node5&#45;&gt;Node6 -->
<g id="edge5" class="edge"><title>Node5&#45;&gt;Node6</title>
<path fill="none" stroke="midnightblue" d="M480.008,-519.835C500.757,-525.33 524.423,-531.598 545.77,-537.253"/>
<polygon fill="midnightblue" stroke="midnightblue" points="545.154,-540.71 555.717,-539.887 546.947,-533.943 545.154,-540.71"/>
</g>
<!-- Node7 -->
<g id="node7" class="node"><title>Node7</title>
<g id="a_node7"><a xlink:href="a00103.xhtml#afa8896eaffbd2b87d1482c0967a0fe1d" target="_top" xlink:title="Voxel::ParameterTemplate::get">
<polygon fill="none" stroke="black" points="728,-544.5 728,-563.5 880,-563.5 880,-544.5 728,-544.5"/>
<text text-anchor="middle" x="804" y="-551.5" font-family="Helvetica,sans-Serif" font-size="10.00">Voxel::ParameterTemplate::get</text>
</a>
</g>
</g>
<!-- Node6&#45;&gt;Node7 -->
<g id="edge6" class="edge"><title>Node6&#45;&gt;Node7</title>
<path fill="none" stroke="midnightblue" d="M664.228,-554C680.802,-554 699.514,-554 717.707,-554"/>
<polygon fill="midnightblue" stroke="midnightblue" points="717.743,-557.5 727.743,-554 717.743,-550.5 717.743,-557.5"/>
</g>
<!-- Node8 -->
<g id="node8" class="node"><title>Node8</title>
<g id="a_node8"><a xlink:href="a00036.xhtml#ae3d6fcc6d4a20d1ad2de809ad65ecc34" target="_top" xlink:title="Voxel::DepthCamera\l::name">
<polygon fill="none" stroke="black" points="750,-660 750,-690 858,-690 858,-660 750,-660"/>
<text text-anchor="start" x="758" y="-678" font-family="Helvetica,sans-Serif" font-size="10.00">Voxel::DepthCamera</text>
<text text-anchor="middle" x="804" y="-667" font-family="Helvetica,sans-Serif" font-size="10.00">::name</text>
</a>
</g>
</g>
<!-- Node6&#45;&gt;Node8 -->
<g id="edge7" class="edge"><title>Node6&#45;&gt;Node8</title>
<path fill="none" stroke="midnightblue" d="M634.929,-569.08C669.083,-590.605 731.92,-630.205 770.332,-654.412"/>
<polygon fill="midnightblue" stroke="midnightblue" points="768.746,-657.55 779.072,-659.92 772.478,-651.628 768.746,-657.55"/>
</g>
<!-- Node10&#45;&gt;Node6 -->
<g id="edge10" class="edge"><title>Node10&#45;&gt;Node6</title>
<path fill="none" stroke="midnightblue" d="M480.008,-554C500.663,-554 524.209,-554 545.48,-554"/>
<polygon fill="midnightblue" stroke="midnightblue" points="545.717,-557.5 555.717,-554 545.717,-550.5 545.717,-557.5"/>
</g>
<!-- Node12 -->
<g id="node12" class="node"><title>Node12</title>
<g id="a_node12"><a xlink:href="a00154.xhtml#aff5c5aefff04e8514ab56adde5e25c28" target="_top" xlink:title="Voxel::TI::ToFCameraBase\l::_getAmplitudeNormalizingFactor">
<polygon fill="none" stroke="black" points="528,-318 528,-348 692,-348 692,-318 528,-318"/>
<text text-anchor="start" x="536" y="-336" font-family="Helvetica,sans-Serif" font-size="10.00">Voxel::TI::ToFCameraBase</text>
<text text-anchor="middle" x="610" y="-325" font-family="Helvetica,sans-Serif" font-size="10.00">::_getAmplitudeNormalizingFactor</text>
</a>
</g>
</g>
<!-- Node11&#45;&gt;Node12 -->
<g id="edge12" class="edge"><title>Node11&#45;&gt;Node12</title>
<path fill="none" stroke="midnightblue" d="M491.575,-348.868C500.124,-347.713 508.98,-346.516 517.821,-345.322"/>
<polygon fill="midnightblue" stroke="midnightblue" points="518.336,-348.784 527.777,-343.976 517.399,-341.847 518.336,-348.784"/>
</g>
<!-- Node13 -->
<g id="node13" class="node"><title>Node13</title>
<g id="a_node13"><a xlink:href="a00154.xhtml#a8e7ab32dbadf1d8c7fd4e7611e7e63c4" target="_top" xlink:title="Voxel::TI::ToFCameraBase\l::_getDepthScalingFactor">
<polygon fill="none" stroke="black" points="541.5,-367 541.5,-397 678.5,-397 678.5,-367 541.5,-367"/>
<text text-anchor="start" x="549.5" y="-385" font-family="Helvetica,sans-Serif" font-size="10.00">Voxel::TI::ToFCameraBase</text>
<text text-anchor="middle" x="610" y="-374" font-family="Helvetica,sans-Serif" font-size="10.00">::_getDepthScalingFactor</text>
</a>
</g>
</g>
<!-- Node11&#45;&gt;Node13 -->
<g id="edge13" class="edge"><title>Node11&#45;&gt;Node13</title>
<path fill="none" stroke="midnightblue" d="M491.575,-366.766C504.488,-368.442 518.102,-370.208 531.303,-371.92"/>
<polygon fill="midnightblue" stroke="midnightblue" points="530.932,-375.401 541.299,-373.217 531.832,-368.46 530.932,-375.401"/>
</g>
<!-- Node17 -->
<g id="node17" class="node"><title>Node17</title>
<g id="a_node17"><a xlink:href="a00031.xhtml#af5573f5dba76f1fde00220b892f8121c" target="_top" xlink:title="Voxel::ConfigurationFile\l::_get">
<polygon fill="none" stroke="black" points="549.5,-214 549.5,-244 670.5,-244 670.5,-214 549.5,-214"/>
<text text-anchor="start" x="557.5" y="-232" font-family="Helvetica,sans-Serif" font-size="10.00">Voxel::ConfigurationFile</text>
<text text-anchor="middle" x="610" y="-221" font-family="Helvetica,sans-Serif" font-size="10.00">::_get</text>
</a>
</g>
</g>
<!-- Node16&#45;&gt;Node17 -->
<g id="edge17" class="edge"><title>Node16&#45;&gt;Node17</title>
<path fill="none" stroke="midnightblue" d="M486.117,-217.044C503.14,-218.7 521.708,-220.507 539.133,-222.202"/>
<polygon fill="midnightblue" stroke="midnightblue" points="538.949,-225.701 549.241,-223.186 539.627,-218.734 538.949,-225.701"/>
</g>
<!-- Node17&#45;&gt;Node17 -->
<g id="edge19" class="edge"><title>Node17&#45;&gt;Node17</title>
<path fill="none" stroke="midnightblue" d="M577.305,-244.275C570.039,-253.406 580.938,-262 610,-262 627.256,-262 638.108,-258.97 642.557,-254.598"/>
<polygon fill="midnightblue" stroke="midnightblue" points="646.061,-254.321 642.695,-244.275 639.062,-254.228 646.061,-254.321"/>
</g>
<!-- Node18 -->
<g id="node18" class="node"><title>Node18</title>
<g id="a_node18"><a xlink:href="a00029.xhtml#a49e4060aa2bc96690da36bdf5ef7b227" target="_top" xlink:title="Voxel::ConfigSet::_get">
<polygon fill="none" stroke="black" points="746,-257.5 746,-276.5 862,-276.5 862,-257.5 746,-257.5"/>
<text text-anchor="middle" x="804" y="-264.5" font-family="Helvetica,sans-Serif" font-size="10.00">Voxel::ConfigSet::_get</text>
</a>
</g>
</g>
<!-- Node17&#45;&gt;Node18 -->
<g id="edge18" class="edge"><title>Node17&#45;&gt;Node18</title>
<path fill="none" stroke="midnightblue" d="M670.698,-240.815C694.393,-245.505 721.548,-250.879 745.067,-255.534"/>
<polygon fill="midnightblue" stroke="midnightblue" points="744.413,-258.973 754.903,-257.481 745.772,-252.106 744.413,-258.973"/>
</g>
<!-- Node19 -->
<g id="node19" class="node"><title>Node19</title>
<g id="a_node19"><a xlink:href="a00096.xhtml#ab24aaf7b18fea74c6f235da04fadbed0" target="_top" xlink:title="Voxel::MainConfiguration\lFile::getCameraProfile">
<polygon fill="none" stroke="black" points="741,-170 741,-200 867,-200 867,-170 741,-170"/>
<text text-anchor="start" x="749" y="-188" font-family="Helvetica,sans-Serif" font-size="10.00">Voxel::MainConfiguration</text>
<text text-anchor="middle" x="804" y="-177" font-family="Helvetica,sans-Serif" font-size="10.00">File::getCameraProfile</text>
</a>
</g>
</g>
<!-- Node17&#45;&gt;Node19 -->
<g id="edge20" class="edge"><title>Node17&#45;&gt;Node19</title>
<path fill="none" stroke="midnightblue" d="M670.698,-215.319C689.72,-210.96 710.973,-206.089 730.784,-201.55"/>
<polygon fill="midnightblue" stroke="midnightblue" points="731.718,-204.926 740.684,-199.281 730.155,-198.103 731.718,-204.926"/>
</g>
<!-- Node20 -->
<g id="node20" class="node"><title>Node20</title>
<g id="a_node20"><a xlink:href="a00031.xhtml#a440d9dd2f89d0c76c81f7285b31a5b94" target="_top" xlink:title="Voxel::ConfigurationFile::set">
<polygon fill="none" stroke="black" points="734,-219.5 734,-238.5 874,-238.5 874,-219.5 734,-219.5"/>
<text text-anchor="middle" x="804" y="-226.5" font-family="Helvetica,sans-Serif" font-size="10.00">Voxel::ConfigurationFile::set</text>
</a>
</g>
</g>
<!-- Node17&#45;&gt;Node20 -->
<g id="edge21" class="edge"><title>Node17&#45;&gt;Node20</title>
<path fill="none" stroke="midnightblue" d="M670.698,-229C687.445,-229 705.922,-229 723.621,-229"/>
<polygon fill="midnightblue" stroke="midnightblue" points="723.934,-232.5 733.934,-229 723.934,-225.5 723.934,-232.5"/>
</g>
<!-- Node21 -->
<g id="node21" class="node"><title>Node21</title>
<g id="a_node21"><a xlink:href="a00031.xhtml#a3b9b573c1a3d9162fc0100c317ca0879" target="_top" xlink:title="Voxel::ConfigurationFile\l::_set">
<polygon fill="none" stroke="black" points="916.5,-214 916.5,-244 1037.5,-244 1037.5,-214 916.5,-214"/>
<text text-anchor="start" x="924.5" y="-232" font-family="Helvetica,sans-Serif" font-size="10.00">Voxel::ConfigurationFile</text>
<text text-anchor="middle" x="977" y="-221" font-family="Helvetica,sans-Serif" font-size="10.00">::_set</text>
</a>
</g>
</g>
<!-- Node20&#45;&gt;Node21 -->
<g id="edge22" class="edge"><title>Node20&#45;&gt;Node21</title>
<path fill="none" stroke="midnightblue" d="M874.059,-222.362C884.666,-222.216 895.624,-222.213 906.246,-222.353"/>
<polygon fill="midnightblue" stroke="midnightblue" points="906.244,-225.853 916.304,-222.531 906.368,-218.854 906.244,-225.853"/>
</g>
<!-- Node21&#45;&gt;Node20 -->
<g id="edge27" class="edge"><title>Node21&#45;&gt;Node20</title>
<path fill="none" stroke="midnightblue" d="M916.304,-235.469C905.967,-235.701 895.075,-235.789 884.314,-235.734"/>
<polygon fill="midnightblue" stroke="midnightblue" points="884.092,-232.232 874.059,-235.638 884.026,-239.232 884.092,-232.232"/>
</g>
<!-- Node22 -->
<g id="node22" class="node"><title>Node22</title>
<g id="a_node22"><a xlink:href="a00029.xhtml#a8fb880c24ad7b0f04c84d4a33becb995" target="_top" xlink:title="Voxel::ConfigSet::_set">
<polygon fill="none" stroke="black" points="1074,-219.5 1074,-238.5 1190,-238.5 1190,-219.5 1074,-219.5"/>
<text text-anchor="middle" x="1132" y="-226.5" font-family="Helvetica,sans-Serif" font-size="10.00">Voxel::ConfigSet::_set</text>
</a>
</g>
</g>
<!-- Node21&#45;&gt;Node22 -->
<g id="edge23" class="edge"><title>Node21&#45;&gt;Node22</title>
<path fill="none" stroke="midnightblue" d="M1037.59,-229C1046.16,-229 1055.02,-229 1063.72,-229"/>
<polygon fill="midnightblue" stroke="midnightblue" points="1063.83,-232.5 1073.83,-229 1063.83,-225.5 1063.83,-232.5"/>
</g>
<!-- Node23 -->
<g id="node23" class="node"><title>Node23</title>
<g id="a_node23"><a xlink:href="a00390.xhtml#ga6b2a26aa983349496fedae9aa54ad034" target="_top" xlink:title="Trim. ">
<polygon fill="none" stroke="black" points="1226,-219.5 1226,-238.5 1290,-238.5 1290,-219.5 1226,-219.5"/>
<text text-anchor="middle" x="1258" y="-226.5" font-family="Helvetica,sans-Serif" font-size="10.00">Voxel::trim</text>
</a>
</g>
</g>
<!-- Node22&#45;&gt;Node23 -->
<g id="edge24" class="edge"><title>Node22&#45;&gt;Node23</title>
<path fill="none" stroke="midnightblue" d="M1190.28,-229C1198.75,-229 1207.34,-229 1215.41,-229"/>
<polygon fill="midnightblue" stroke="midnightblue" points="1215.67,-232.5 1225.67,-229 1215.67,-225.5 1215.67,-232.5"/>
</g>
<!-- Node24 -->
<g id="node24" class="node"><title>Node24</title>
<g id="a_node24"><a xlink:href="a00390.xhtml#gac9c04e18f7878dd82964bb489b7b1314" target="_top" xlink:title="Left Trim. ">
<polygon fill="none" stroke="black" points="1327,-238.5 1327,-257.5 1393,-257.5 1393,-238.5 1327,-238.5"/>
<text text-anchor="middle" x="1360" y="-245.5" font-family="Helvetica,sans-Serif" font-size="10.00">Voxel::ltrim</text>
</a>
</g>
</g>
<!-- Node23&#45;&gt;Node24 -->
<g id="edge25" class="edge"><title>Node23&#45;&gt;Node24</title>
<path fill="none" stroke="midnightblue" d="M1290.09,-234.908C1298.59,-236.522 1307.94,-238.299 1316.94,-240.009"/>
<polygon fill="midnightblue" stroke="midnightblue" points="1316.41,-243.471 1326.89,-241.899 1317.72,-236.594 1316.41,-243.471"/>
</g>
<!-- Node25 -->
<g id="node25" class="node"><title>Node25</title>
<g id="a_node25"><a xlink:href="a00390.xhtml#ga3d95f05dde73bc9c54051437445e439b" target="_top" xlink:title="Right Trim. ">
<polygon fill="none" stroke="black" points="1326.5,-200.5 1326.5,-219.5 1393.5,-219.5 1393.5,-200.5 1326.5,-200.5"/>
<text text-anchor="middle" x="1360" y="-207.5" font-family="Helvetica,sans-Serif" font-size="10.00">Voxel::rtrim</text>
</a>
</g>
</g>
<!-- Node23&#45;&gt;Node25 -->
<g id="edge26" class="edge"><title>Node23&#45;&gt;Node25</title>
<path fill="none" stroke="midnightblue" d="M1290.09,-223.092C1298.33,-221.526 1307.38,-219.808 1316.13,-218.146"/>
<polygon fill="midnightblue" stroke="midnightblue" points="1317.02,-221.538 1326.2,-216.233 1315.72,-214.661 1317.02,-221.538"/>
</g>
<!-- Node27 -->
<g id="node27" class="node"><title>Node27</title>
<g id="a_node27"><a xlink:href="a00031.xhtml#a49e5d191d816bda45d31e29a29272c9d" target="_top" xlink:title="Voxel::ConfigurationFile\l::getFile">
<polygon fill="none" stroke="black" points="549.5,-90 549.5,-120 670.5,-120 670.5,-90 549.5,-90"/>
<text text-anchor="start" x="557.5" y="-108" font-family="Helvetica,sans-Serif" font-size="10.00">Voxel::ConfigurationFile</text>
<text text-anchor="middle" x="610" y="-97" font-family="Helvetica,sans-Serif" font-size="10.00">::getFile</text>
</a>
</g>
</g>
<!-- Node26&#45;&gt;Node27 -->
<g id="edge29" class="edge"><title>Node26&#45;&gt;Node27</title>
<path fill="none" stroke="midnightblue" d="M486.117,-110.314C503.14,-109.578 521.708,-108.775 539.133,-108.021"/>
<polygon fill="midnightblue" stroke="midnightblue" points="539.402,-111.513 549.241,-107.584 539.099,-104.52 539.402,-111.513"/>
</g>
<!-- Node28 -->
<g id="node28" class="node"><title>Node28</title>
<g id="a_node28"><a xlink:href="a00031.xhtml#a69e6c29b1e3caafca6e783937834113b" target="_top" xlink:title="Voxel::ConfigurationFile\l::_getData">
<polygon fill="none" stroke="black" points="743.5,-82 743.5,-112 864.5,-112 864.5,-82 743.5,-82"/>
<text text-anchor="start" x="751.5" y="-100" font-family="Helvetica,sans-Serif" font-size="10.00">Voxel::ConfigurationFile</text>
<text text-anchor="middle" x="804" y="-89" font-family="Helvetica,sans-Serif" font-size="10.00">::_getData</text>
</a>
</g>
</g>
<!-- Node27&#45;&gt;Node28 -->
<g id="edge30" class="edge"><title>Node27&#45;&gt;Node28</title>
<path fill="none" stroke="midnightblue" d="M670.698,-102.513C690.474,-101.689 712.66,-100.764 733.131,-99.9112"/>
<polygon fill="midnightblue" stroke="midnightblue" points="733.494,-103.399 743.339,-99.4859 733.202,-96.4053 733.494,-103.399"/>
</g>
<!-- Node29 -->
<g id="node29" class="node"><title>Node29</title>
<g id="a_node29"><a xlink:href="a00030.xhtml#aeed2f5638591b839dd233e8673a977e5" target="_top" xlink:title="Updates &quot;name&quot; to full path. ">
<polygon fill="none" stroke="black" points="924.5,-82 924.5,-112 1029.5,-112 1029.5,-82 924.5,-82"/>
<text text-anchor="start" x="932.5" y="-100" font-family="Helvetica,sans-Serif" font-size="10.00">Voxel::Configuration</text>
<text text-anchor="middle" x="977" y="-89" font-family="Helvetica,sans-Serif" font-size="10.00">::getConfFile</text>
</a>
</g>
</g>
<!-- Node28&#45;&gt;Node29 -->
<g id="edge31" class="edge"><title>Node28&#45;&gt;Node29</title>
<path fill="none" stroke="midnightblue" d="M864.808,-97C880.767,-97 898.042,-97 914.111,-97"/>
<polygon fill="midnightblue" stroke="midnightblue" points="914.47,-100.5 924.47,-97 914.47,-93.5001 914.47,-100.5"/>
</g>
<!-- Node32 -->
<g id="node32" class="node"><title>Node32</title>
<g id="a_node32"><a xlink:href="a00036.xhtml#a7cca2c2413b60d0d2ef26e0cb8802118" target="_top" xlink:title="Voxel::DepthCamera\l::_getFrameSize">
<polygon fill="none" stroke="black" points="556,-0 556,-30 664,-30 664,-0 556,-0"/>
<text text-anchor="start" x="564" y="-18" font-family="Helvetica,sans-Serif" font-size="10.00">Voxel::DepthCamera</text>
<text text-anchor="middle" x="610" y="-7" font-family="Helvetica,sans-Serif" font-size="10.00">::_getFrameSize</text>
</a>
</g>
</g>
<!-- Node31&#45;&gt;Node32 -->
<g id="edge34" class="edge"><title>Node31&#45;&gt;Node32</title>
<path fill="none" stroke="midnightblue" d="M477.014,-15C498.495,-15 523.473,-15 545.884,-15"/>
<polygon fill="midnightblue" stroke="midnightblue" points="545.979,-18.5001 555.979,-15 545.979,-11.5001 545.979,-18.5001"/>
</g>
<!-- Node35 -->
<g id="node35" class="node"><title>Node35</title>
<g id="a_node35"><a xlink:href="a00036.xhtml#a81260a37bfc6da411b8d3d71342a2eda" target="_top" xlink:title="Voxel::DepthCamera\l::_getMaximumFrameSize">
<polygon fill="none" stroke="black" points="544.5,-686 544.5,-716 675.5,-716 675.5,-686 544.5,-686"/>
<text text-anchor="start" x="552.5" y="-704" font-family="Helvetica,sans-Serif" font-size="10.00">Voxel::DepthCamera</text>
<text text-anchor="middle" x="610" y="-693" font-family="Helvetica,sans-Serif" font-size="10.00">::_getMaximumFrameSize</text>
</a>
</g>
</g>
<!-- Node34&#45;&gt;Node35 -->
<g id="edge37" class="edge"><title>Node34&#45;&gt;Node35</title>
<path fill="none" stroke="midnightblue" d="M486.117,-701C501.444,-701 518.023,-701 533.894,-701"/>
<polygon fill="midnightblue" stroke="midnightblue" points="534.201,-704.5 544.201,-701 534.201,-697.5 534.201,-704.5"/>
</g>
<!-- Node37 -->
<g id="node37" class="node"><title>Node37</title>
<g id="a_node37"><a xlink:href="a00036.xhtml#ae09d2aaee73e56b4b488897f6081191e" target="_top" xlink:title="Voxel::DepthCamera\l::_getROI">
<polygon fill="none" stroke="black" points="556,-441 556,-471 664,-471 664,-441 556,-441"/>
<text text-anchor="start" x="564" y="-459" font-family="Helvetica,sans-Serif" font-size="10.00">Voxel::DepthCamera</text>
<text text-anchor="middle" x="610" y="-448" font-family="Helvetica,sans-Serif" font-size="10.00">::_getROI</text>
</a>
</g>
</g>
<!-- Node36&#45;&gt;Node37 -->
<g id="edge39" class="edge"><title>Node36&#45;&gt;Node37</title>
<path fill="none" stroke="midnightblue" d="M477.014,-456C498.495,-456 523.473,-456 545.884,-456"/>
<polygon fill="midnightblue" stroke="midnightblue" points="545.979,-459.5 555.979,-456 545.979,-452.5 545.979,-459.5"/>
</g>
<!-- Node39 -->
<g id="node39" class="node"><title>Node39</title>
<g id="a_node39"><a xlink:href="a00031.xhtml#a00e007801296e76b05ef10f1c8176c2d" target="_top" xlink:title="Voxel::ConfigurationFile\l::isPresent">
<polygon fill="none" stroke="black" points="549.5,-147 549.5,-177 670.5,-177 670.5,-147 549.5,-147"/>
<text text-anchor="start" x="557.5" y="-165" font-family="Helvetica,sans-Serif" font-size="10.00">Voxel::ConfigurationFile</text>
<text text-anchor="middle" x="610" y="-154" font-family="Helvetica,sans-Serif" font-size="10.00">::isPresent</text>
</a>
</g>
</g>
<!-- Node38&#45;&gt;Node39 -->
<g id="edge41" class="edge"><title>Node38&#45;&gt;Node39</title>
<path fill="none" stroke="midnightblue" d="M486.117,-162C503.14,-162 521.708,-162 539.133,-162"/>
<polygon fill="midnightblue" stroke="midnightblue" points="539.241,-165.5 549.241,-162 539.241,-158.5 539.241,-165.5"/>
</g>
<!-- Node39&#45;&gt;Node19 -->
<g id="edge42" class="edge"><title>Node39&#45;&gt;Node19</title>
<path fill="none" stroke="midnightblue" d="M670.698,-169.151C689.633,-171.42 710.779,-173.953 730.512,-176.317"/>
<polygon fill="midnightblue" stroke="midnightblue" points="730.338,-179.821 740.684,-177.535 731.171,-172.87 730.338,-179.821"/>
</g>
<!-- Node39&#45;&gt;Node20 -->
<g id="edge45" class="edge"><title>Node39&#45;&gt;Node20</title>
<path fill="none" stroke="midnightblue" d="M645.403,-177.103C668.498,-186.922 699.753,-199.599 728,-209 736.179,-211.722 744.954,-214.333 753.515,-216.718"/>
<polygon fill="midnightblue" stroke="midnightblue" points="752.852,-220.164 763.42,-219.406 754.686,-213.409 752.852,-220.164"/>
</g>
<!-- Node39&#45;&gt;Node39 -->
<g id="edge44" class="edge"><title>Node39&#45;&gt;Node39</title>
<path fill="none" stroke="midnightblue" d="M577.305,-177.275C570.039,-186.406 580.938,-195 610,-195 627.256,-195 638.108,-191.97 642.557,-187.598"/>
<polygon fill="midnightblue" stroke="midnightblue" points="646.061,-187.321 642.695,-177.275 639.062,-187.228 646.061,-187.321"/>
</g>
<!-- Node40 -->
<g id="node40" class="node"><title>Node40</title>
<g id="a_node40"><a xlink:href="a00029.xhtml#ab7930d0d21d160341d989ef998ecac73" target="_top" xlink:title="Voxel::ConfigSet::isPresent">
<polygon fill="none" stroke="black" points="735,-131.5 735,-150.5 873,-150.5 873,-131.5 735,-131.5"/>
<text text-anchor="middle" x="804" y="-138.5" font-family="Helvetica,sans-Serif" font-size="10.00">Voxel::ConfigSet::isPresent</text>
</a>
</g>
</g>
<!-- Node39&#45;&gt;Node40 -->
<g id="edge43" class="edge"><title>Node39&#45;&gt;Node40</title>
<path fill="none" stroke="midnightblue" d="M670.698,-155.471C687.881,-153.591 706.884,-151.513 724.999,-149.531"/>
<polygon fill="midnightblue" stroke="midnightblue" points="725.395,-153.009 734.955,-148.442 724.634,-146.05 725.395,-153.009"/>
</g>
<!-- Node42 -->
<g id="node42" class="node"><title>Node42</title>
<g id="a_node42"><a xlink:href="a00036.xhtml#a474dfafecfd8b2a97a924aeab8a82a3c" target="_top" xlink:title="Voxel::DepthCamera\l::_set">
<polygon fill="none" stroke="black" points="369,-784 369,-814 477,-814 477,-784 369,-784"/>
<text text-anchor="start" x="377" y="-802" font-family="Helvetica,sans-Serif" font-size="10.00">Voxel::DepthCamera</text>
<text text-anchor="middle" x="423" y="-791" font-family="Helvetica,sans-Serif" font-size="10.00">::_set</text>
</a>
</g>
</g>
<!-- Node41&#45;&gt;Node42 -->
<g id="edge47" class="edge"><title>Node41&#45;&gt;Node42</title>
<path fill="none" stroke="midnightblue" d="M258.789,-634.529C269.631,-660.625 303.298,-733.969 354,-774 356.267,-775.79 358.675,-777.461 361.181,-779.018"/>
<polygon fill="midnightblue" stroke="midnightblue" points="359.562,-782.122 370.008,-783.888 362.943,-775.993 359.562,-782.122"/>
</g>
<!-- Node42&#45;&gt;Node8 -->
<g id="edge48" class="edge"><title>Node42&#45;&gt;Node8</title>
<path fill="none" stroke="midnightblue" d="M477.128,-786.889C531.747,-773.847 618.901,-751.379 692,-725 716.309,-716.228 742.719,-704.429 763.678,-694.496"/>
<polygon fill="midnightblue" stroke="midnightblue" points="765.389,-697.557 772.896,-690.081 762.366,-691.243 765.389,-697.557"/>
</g>
<!-- Node43 -->
<g id="node43" class="node"><title>Node43</title>
<g id="a_node43"><a xlink:href="a00103.xhtml#a64240b607339f55c4fac973fba8c8934" target="_top" xlink:title="Voxel::ParameterTemplate::set">
<polygon fill="none" stroke="black" points="534,-789.5 534,-808.5 686,-808.5 686,-789.5 534,-789.5"/>
<text text-anchor="middle" x="610" y="-796.5" font-family="Helvetica,sans-Serif" font-size="10.00">Voxel::ParameterTemplate::set</text>
</a>
</g>
</g>
<!-- Node42&#45;&gt;Node43 -->
<g id="edge49" class="edge"><title>Node42&#45;&gt;Node43</title>
<path fill="none" stroke="midnightblue" d="M477.014,-799C491.553,-799 507.694,-799 523.558,-799"/>
<polygon fill="midnightblue" stroke="midnightblue" points="523.922,-802.5 533.922,-799 523.922,-795.5 523.922,-802.5"/>
</g>
</g>
</svg>
        <g id="navigator" transform="translate(0 0)" fill="#404254">
                <rect fill="#f2f5e9" fill-opacity="0.5" stroke="#606060" stroke-width=".5" x="0" y="0" width="60" height="60"/>
                <use id="zoomplus" xlink:href="#zoomPlus" x="17" y="9" onmousedown="handleZoom(evt,'in')"/>
                <use id="zoomminus" xlink:href="#zoomMin" x="42" y="9" onmousedown="handleZoom(evt,'out')"/>
                <use id="reset" xlink:href="#resetDef" x="30" y="36" onmousedown="handleReset()"/>
                <g id="arrowUp" xlink:href="#dirArrow" transform="translate(30 24)" onmousedown="handlePan(0,-1)">
                  <use xlink:href="#rim" fill="#404040">
                        <set attributeName="fill" to="#808080" begin="arrowUp.mouseover" end="arrowUp.mouseout"/>
                  </use>
                  <path fill="none" stroke="white" stroke-width="1.5" d="M0,-3.0v7 M-2.5,-0.5L0,-3.0L2.5,-0.5"/>
                </g>
                <g id="arrowRight" xlink:href="#dirArrow" transform="rotate(90) translate(36 -43)" onmousedown="handlePan(1,0)">
                  <use xlink:href="#rim" fill="#404040">
                        <set attributeName="fill" to="#808080" begin="arrowRight.mouseover" end="arrowRight.mouseout"/>
                  </use>
                  <path fill="none" stroke="white" stroke-width="1.5" d="M0,-3.0v7 M-2.5,-0.5L0,-3.0L2.5,-0.5"/>
                </g>
                <g id="arrowDown" xlink:href="#dirArrow" transform="rotate(180) translate(-30 -48)" onmousedown="handlePan(0,1)">
                  <use xlink:href="#rim" fill="#404040">
                        <set attributeName="fill" to="#808080" begin="arrowDown.mouseover" end="arrowDown.mouseout"/>
                  </use>
                  <path fill="none" stroke="white" stroke-width="1.5" d="M0,-3.0v7 M-2.5,-0.5L0,-3.0L2.5,-0.5"/>
                </g>
                <g id="arrowLeft" xlink:href="#dirArrow" transform="rotate(270) translate(-36 17)" onmousedown="handlePan(-1,0)">
                  <use xlink:href="#rim" fill="#404040">
                        <set attributeName="fill" to="#808080" begin="arrowLeft.mouseover" end="arrowLeft.mouseout"/>
                  </use>
                  <path fill="none" stroke="white" stroke-width="1.5" d="M0,-3.0v7 M-2.5,-0.5L0,-3.0L2.5,-0.5"/>
                </g>
        </g>
        <svg viewBox="0 0 15 15" width="100%" height="30px" preserveAspectRatio="xMaxYMin meet">
         <g id="arrow_out" transform="scale(0.3 0.3)">
          <a xlink:href="a00159_ae87b0ca3c8867d1b520c0165d526e79d_cgraph_org.svg" target="_base">
           <rect id="button" ry="5" rx="5" y="6" x="6" height="38" width="38"
                fill="#f2f5e9" fill-opacity="0.5" stroke="#606060" stroke-width="1.0"/>
           <path id="arrow"
             d="M 11.500037,31.436501 C 11.940474,20.09759 22.043105,11.32322 32.158766,21.979434 L 37.068811,17.246167 C 37.068811,17.246167 37.088388,32 37.088388,32 L 22.160133,31.978069 C 22.160133,31.978069 26.997745,27.140456 26.997745,27.140456 C 18.528582,18.264221 13.291696,25.230495 11.500037,31.436501 z"
             style="fill:#404040;"/>
          </a>
         </g>
        </svg>
</svg>
