<?xml version="1.0" encoding="UTF-8" standalone="no"?>
<!DOCTYPE svg PUBLIC "-//W3C//DTD SVG 1.1//EN"
 "http://www.w3.org/Graphics/SVG/1.1/DTD/svg11.dtd">
<!-- Generated by graphviz version 2.36.0 (20140111.2315)
 -->
<!-- Title: Voxel::SmoothFilter::_filter Pages: 1 -->
<svg width="290pt" height="420pt"
 viewBox="0.00 0.00 290.00 420.00" xmlns="http://www.w3.org/2000/svg" xmlns:xlink="http://www.w3.org/1999/xlink">
<g id="graph0" class="graph" transform="scale(1 1) rotate(0) translate(4 416)">
<title>Voxel::SmoothFilter::_filter</title>
<!-- Node1 -->
<g id="node1" class="node"><title>Node1</title>
<polygon fill="#bfbfbf" stroke="black" points="0.5,-196 0.5,-226 103.5,-226 103.5,-196 0.5,-196"/>
<text text-anchor="start" x="8.5" y="-214" font-family="Helvetica,sans-Serif" font-size="10.00">Voxel::SmoothFilter</text>
<text text-anchor="middle" x="52" y="-203" font-family="Helvetica,sans-Serif" font-size="10.00">::_filter</text>
</g>
<!-- Node2 -->
<g id="node2" class="node"><title>Node2</title>
<g id="a_node2"><a xlink:href="a00055.xhtml#a18f9bcab63cbe3fd827db6875f06f906" target="_top" xlink:title="Voxel::Filter::_prepareOutput">
<polygon fill="none" stroke="black" points="140,-392.5 140,-411.5 282,-411.5 282,-392.5 140,-392.5"/>
<text text-anchor="middle" x="211" y="-399.5" font-family="Helvetica,sans-Serif" font-size="10.00">Voxel::Filter::_prepareOutput</text>
</a>
</g>
</g>
<!-- Node1&#45;&gt;Node2 -->
<g id="edge1" class="edge"><title>Node1&#45;&gt;Node2</title>
<path fill="none" stroke="midnightblue" d="M56.3487,-226.136C64.528,-259.498 88.7171,-339.741 140,-382 142.716,-384.238 145.669,-386.226 148.776,-387.991"/>
<polygon fill="midnightblue" stroke="midnightblue" points="147.343,-391.186 157.868,-392.401 150.398,-384.888 147.343,-391.186"/>
</g>
<!-- Node3 -->
<g id="node3" class="node"><title>Node3</title>
<g id="a_node3"><a xlink:href="a00160.xhtml#a62d21aa88579379c97a51b40ff370f05" target="_top" xlink:title="Voxel::ToFRawFrame\l::ambient">
<polygon fill="none" stroke="black" points="154.5,-343 154.5,-373 267.5,-373 267.5,-343 154.5,-343"/>
<text text-anchor="start" x="162.5" y="-361" font-family="Helvetica,sans-Serif" font-size="10.00">Voxel::ToFRawFrame</text>
<text text-anchor="middle" x="211" y="-350" font-family="Helvetica,sans-Serif" font-size="10.00">::ambient</text>
</a>
</g>
</g>
<!-- Node1&#45;&gt;Node3 -->
<g id="edge2" class="edge"><title>Node1&#45;&gt;Node3</title>
<path fill="none" stroke="midnightblue" d="M59.8954,-226.009C72.3522,-251.539 100.982,-303.512 140,-333 142.443,-334.847 145.036,-336.566 147.728,-338.165"/>
<polygon fill="midnightblue" stroke="midnightblue" points="146.133,-341.281 156.607,-342.875 149.413,-335.097 146.133,-341.281"/>
</g>
<!-- Node4 -->
<g id="node4" class="node"><title>Node4</title>
<g id="a_node4"><a xlink:href="a00160.xhtml#a71129221a2aadc0e1ca8551ac11ef5cd" target="_top" xlink:title="Voxel::ToFRawFrame\l::ambientWordWidth">
<polygon fill="none" stroke="black" points="154.5,-294 154.5,-324 267.5,-324 267.5,-294 154.5,-294"/>
<text text-anchor="start" x="162.5" y="-312" font-family="Helvetica,sans-Serif" font-size="10.00">Voxel::ToFRawFrame</text>
<text text-anchor="middle" x="211" y="-301" font-family="Helvetica,sans-Serif" font-size="10.00">::ambientWordWidth</text>
</a>
</g>
</g>
<!-- Node1&#45;&gt;Node4 -->
<g id="edge3" class="edge"><title>Node1&#45;&gt;Node4</title>
<path fill="none" stroke="midnightblue" d="M67.7634,-226.276C84.1325,-242.481 111.948,-267.917 140,-284 143.652,-286.094 147.511,-288.06 151.463,-289.897"/>
<polygon fill="midnightblue" stroke="midnightblue" points="150.237,-293.181 160.804,-293.949 153.023,-286.759 150.237,-293.181"/>
</g>
<!-- Node5 -->
<g id="node5" class="node"><title>Node5</title>
<g id="a_node5"><a xlink:href="a00160.xhtml#a38cdfc04eef41661cdcaec4c0870e687" target="_top" xlink:title="Voxel::ToFRawFrame\l::amplitude">
<polygon fill="none" stroke="black" points="154.5,-245 154.5,-275 267.5,-275 267.5,-245 154.5,-245"/>
<text text-anchor="start" x="162.5" y="-263" font-family="Helvetica,sans-Serif" font-size="10.00">Voxel::ToFRawFrame</text>
<text text-anchor="middle" x="211" y="-252" font-family="Helvetica,sans-Serif" font-size="10.00">::amplitude</text>
</a>
</g>
</g>
<!-- Node1&#45;&gt;Node5 -->
<g id="edge4" class="edge"><title>Node1&#45;&gt;Node5</title>
<path fill="none" stroke="midnightblue" d="M101.386,-226.101C117.429,-231.108 135.449,-236.732 152.131,-241.939"/>
<polygon fill="midnightblue" stroke="midnightblue" points="151.185,-245.31 161.774,-244.948 153.27,-238.628 151.185,-245.31"/>
</g>
<!-- Node6 -->
<g id="node6" class="node"><title>Node6</title>
<g id="a_node6"><a xlink:href="a00160.xhtml#af85f22109d62a47ec5843437558fa90c" target="_top" xlink:title="Voxel::ToFRawFrame\l::amplitudeWordWidth">
<polygon fill="none" stroke="black" points="154.5,-196 154.5,-226 267.5,-226 267.5,-196 154.5,-196"/>
<text text-anchor="start" x="162.5" y="-214" font-family="Helvetica,sans-Serif" font-size="10.00">Voxel::ToFRawFrame</text>
<text text-anchor="middle" x="211" y="-203" font-family="Helvetica,sans-Serif" font-size="10.00">::amplitudeWordWidth</text>
</a>
</g>
</g>
<!-- Node1&#45;&gt;Node6 -->
<g id="edge5" class="edge"><title>Node1&#45;&gt;Node6</title>
<path fill="none" stroke="midnightblue" d="M103.54,-211C116.469,-211 130.563,-211 144.138,-211"/>
<polygon fill="midnightblue" stroke="midnightblue" points="144.39,-214.5 154.39,-211 144.39,-207.5 144.39,-214.5"/>
</g>
<!-- Node7 -->
<g id="node7" class="node"><title>Node7</title>
<g id="a_node7"><a xlink:href="a00160.xhtml#abc808bba1a6289d3e95e790104d6c80f" target="_top" xlink:title="Voxel::ToFRawFrame\l::flags">
<polygon fill="none" stroke="black" points="154.5,-147 154.5,-177 267.5,-177 267.5,-147 154.5,-147"/>
<text text-anchor="start" x="162.5" y="-165" font-family="Helvetica,sans-Serif" font-size="10.00">Voxel::ToFRawFrame</text>
<text text-anchor="middle" x="211" y="-154" font-family="Helvetica,sans-Serif" font-size="10.00">::flags</text>
</a>
</g>
</g>
<!-- Node1&#45;&gt;Node7 -->
<g id="edge6" class="edge"><title>Node1&#45;&gt;Node7</title>
<path fill="none" stroke="midnightblue" d="M101.386,-195.899C117.429,-190.892 135.449,-185.268 152.131,-180.061"/>
<polygon fill="midnightblue" stroke="midnightblue" points="153.27,-183.372 161.774,-177.052 151.185,-176.69 153.27,-183.372"/>
</g>
<!-- Node8 -->
<g id="node8" class="node"><title>Node8</title>
<g id="a_node8"><a xlink:href="a00160.xhtml#a7f51f217b13dddc61ceec2270dbfcf2f" target="_top" xlink:title="Voxel::ToFRawFrame\l::flagsWordWidth">
<polygon fill="none" stroke="black" points="154.5,-98 154.5,-128 267.5,-128 267.5,-98 154.5,-98"/>
<text text-anchor="start" x="162.5" y="-116" font-family="Helvetica,sans-Serif" font-size="10.00">Voxel::ToFRawFrame</text>
<text text-anchor="middle" x="211" y="-105" font-family="Helvetica,sans-Serif" font-size="10.00">::flagsWordWidth</text>
</a>
</g>
</g>
<!-- Node1&#45;&gt;Node8 -->
<g id="edge7" class="edge"><title>Node1&#45;&gt;Node8</title>
<path fill="none" stroke="midnightblue" d="M67.7634,-195.724C84.1325,-179.519 111.948,-154.083 140,-138 143.652,-135.906 147.511,-133.94 151.463,-132.103"/>
<polygon fill="midnightblue" stroke="midnightblue" points="153.023,-135.241 160.804,-128.051 150.237,-128.819 153.023,-135.241"/>
</g>
<!-- Node9 -->
<g id="node9" class="node"><title>Node9</title>
<g id="a_node9"><a xlink:href="a00160.xhtml#ab66f7bd205a6a5c16b0a47aedc00a7b4" target="_top" xlink:title="Voxel::ToFRawFrame\l::phase">
<polygon fill="none" stroke="black" points="154.5,-49 154.5,-79 267.5,-79 267.5,-49 154.5,-49"/>
<text text-anchor="start" x="162.5" y="-67" font-family="Helvetica,sans-Serif" font-size="10.00">Voxel::ToFRawFrame</text>
<text text-anchor="middle" x="211" y="-56" font-family="Helvetica,sans-Serif" font-size="10.00">::phase</text>
</a>
</g>
</g>
<!-- Node1&#45;&gt;Node9 -->
<g id="edge8" class="edge"><title>Node1&#45;&gt;Node9</title>
<path fill="none" stroke="midnightblue" d="M59.8954,-195.991C72.3522,-170.461 100.982,-118.488 140,-89 142.443,-87.1533 145.036,-85.4342 147.728,-83.8348"/>
<polygon fill="midnightblue" stroke="midnightblue" points="149.413,-86.9029 156.607,-79.1248 146.133,-80.719 149.413,-86.9029"/>
</g>
<!-- Node10 -->
<g id="node10" class="node"><title>Node10</title>
<g id="a_node10"><a xlink:href="a00160.xhtml#af3fb7938e3e76c26299efe07f69d406f" target="_top" xlink:title="Voxel::ToFRawFrame\l::phaseWordWidth">
<polygon fill="none" stroke="black" points="154.5,-0 154.5,-30 267.5,-30 267.5,-0 154.5,-0"/>
<text text-anchor="start" x="162.5" y="-18" font-family="Helvetica,sans-Serif" font-size="10.00">Voxel::ToFRawFrame</text>
<text text-anchor="middle" x="211" y="-7" font-family="Helvetica,sans-Serif" font-size="10.00">::phaseWordWidth</text>
</a>
</g>
</g>
<!-- Node1&#45;&gt;Node10 -->
<g id="edge9" class="edge"><title>Node1&#45;&gt;Node10</title>
<path fill="none" stroke="midnightblue" d="M56.6174,-195.855C65.2687,-162.828 90.2363,-83.7863 140,-40 141.771,-38.4416 143.646,-36.9783 145.602,-35.6045"/>
<polygon fill="midnightblue" stroke="midnightblue" points="147.88,-38.316 154.613,-30.1363 144.249,-32.3315 147.88,-38.316"/>
</g>
</g>
</svg>
