<?xml version="1.0" encoding="UTF-8" standalone="no"?>
<!DOCTYPE svg PUBLIC "-//W3C//DTD SVG 1.1//EN"
 "http://www.w3.org/Graphics/SVG/1.1/DTD/svg11.dtd">
<!-- Generated by graphviz version 2.36.0 (20140111.2315)
 -->
<!-- Title: Voxel::TI::ToFCamera::_getFrameSize Pages: 1 -->
<svg width="316pt" height="136pt"
 viewBox="0.00 0.00 316.00 136.00" xmlns="http://www.w3.org/2000/svg" xmlns:xlink="http://www.w3.org/1999/xlink">
<g id="graph0" class="graph" transform="scale(1 1) rotate(0) translate(4 132)">
<title>Voxel::TI::ToFCamera::_getFrameSize</title>
<!-- Node1 -->
<g id="node1" class="node"><title>Node1</title>
<polygon fill="#bfbfbf" stroke="black" points="0,-49 0,-79 114,-79 114,-49 0,-49"/>
<text text-anchor="start" x="8" y="-67" font-family="Helvetica,sans-Serif" font-size="10.00">Voxel::TI::ToFCamera</text>
<text text-anchor="middle" x="57" y="-56" font-family="Helvetica,sans-Serif" font-size="10.00">::_getFrameSize</text>
</g>
<!-- Node2 -->
<g id="node2" class="node"><title>Node2</title>
<g id="a_node2"><a xlink:href="a00077.xhtml#a4e8e32000eca9b81bc6401a8d512cbc7" target="_top" xlink:title="Voxel::TI::HaddockCDKCamera\l::_initStartParams">
<polygon fill="none" stroke="black" points="150,-98 150,-128 308,-128 308,-98 150,-98"/>
<text text-anchor="start" x="158" y="-116" font-family="Helvetica,sans-Serif" font-size="10.00">Voxel::TI::HaddockCDKCamera</text>
<text text-anchor="middle" x="229" y="-105" font-family="Helvetica,sans-Serif" font-size="10.00">::_initStartParams</text>
</a>
</g>
</g>
<!-- Node1&#45;&gt;Node2 -->
<g id="edge1" class="edge"><title>Node1&#45;&gt;Node2</title>
<path fill="none" stroke="midnightblue" d="M120.082,-81.8941C138.366,-87.1644 158.18,-92.8755 175.78,-97.9484"/>
<polygon fill="midnightblue" stroke="midnightblue" points="120.971,-78.508 110.393,-79.1014 119.032,-85.2342 120.971,-78.508"/>
</g>
<!-- Node3 -->
<g id="node3" class="node"><title>Node3</title>
<g id="a_node3"><a xlink:href="a00159.xhtml#a20618f833669a08a58cf5d73d9e3ab2e" target="_top" xlink:title="Voxel::TI::ToFHaddockCamera\l::_setROI">
<polygon fill="none" stroke="black" points="152.5,-49 152.5,-79 305.5,-79 305.5,-49 152.5,-49"/>
<text text-anchor="start" x="160.5" y="-67" font-family="Helvetica,sans-Serif" font-size="10.00">Voxel::TI::ToFHaddockCamera</text>
<text text-anchor="middle" x="229" y="-56" font-family="Helvetica,sans-Serif" font-size="10.00">::_setROI</text>
</a>
</g>
</g>
<!-- Node1&#45;&gt;Node3 -->
<g id="edge2" class="edge"><title>Node1&#45;&gt;Node3</title>
<path fill="none" stroke="midnightblue" d="M124.309,-64C133.456,-64 142.906,-64 152.208,-64"/>
<polygon fill="midnightblue" stroke="midnightblue" points="124.136,-60.5001 114.135,-64 124.135,-67.5001 124.136,-60.5001"/>
</g>
<!-- Node4 -->
<g id="node4" class="node"><title>Node4</title>
<g id="a_node4"><a xlink:href="a00164.xhtml#a33b90eab74150037971aba980a810554" target="_top" xlink:title="Voxel::TI::ToFTintinCamera\l::_setROI">
<polygon fill="none" stroke="black" points="160,-0 160,-30 298,-30 298,-0 160,-0"/>
<text text-anchor="start" x="168" y="-18" font-family="Helvetica,sans-Serif" font-size="10.00">Voxel::TI::ToFTintinCamera</text>
<text text-anchor="middle" x="229" y="-7" font-family="Helvetica,sans-Serif" font-size="10.00">::_setROI</text>
</a>
</g>
</g>
<!-- Node1&#45;&gt;Node4 -->
<g id="edge3" class="edge"><title>Node1&#45;&gt;Node4</title>
<path fill="none" stroke="midnightblue" d="M120.082,-46.1059C138.366,-40.8356 158.18,-35.1245 175.78,-30.0516"/>
<polygon fill="midnightblue" stroke="midnightblue" points="119.032,-42.7658 110.393,-48.8986 120.971,-49.492 119.032,-42.7658"/>
</g>
</g>
</svg>
