<?xml version="1.0" encoding="UTF-8" standalone="no"?>
<!DOCTYPE svg PUBLIC "-//W3C//DTD SVG 1.1//EN"
 "http://www.w3.org/Graphics/SVG/1.1/DTD/svg11.dtd">
<!-- Generated by graphviz version 2.36.0 (20140111.2315)
 -->
<!-- Title: Voxel::TI::VoxelProgrammerBase::readRegister Pages: 1 -->
<svg width="324pt" height="87pt"
 viewBox="0.00 0.00 324.00 87.00" xmlns="http://www.w3.org/2000/svg" xmlns:xlink="http://www.w3.org/1999/xlink">
<g id="graph0" class="graph" transform="scale(1 1) rotate(0) translate(4 83)">
<title>Voxel::TI::VoxelProgrammerBase::readRegister</title>
<!-- Node1 -->
<g id="node1" class="node"><title>Node1</title>
<polygon fill="#bfbfbf" stroke="black" points="0,-24 0,-54 140,-54 140,-24 0,-24"/>
<text text-anchor="start" x="8" y="-42" font-family="Helvetica,sans-Serif" font-size="10.00">Voxel::TI::VoxelProgrammer</text>
<text text-anchor="middle" x="70" y="-31" font-family="Helvetica,sans-Serif" font-size="10.00">Base::readRegister</text>
</g>
<!-- Node2 -->
<g id="node2" class="node"><title>Node2</title>
<g id="a_node2"><a xlink:href="a00191.xhtml#a5237ab869ef24b2e19610e2a47dcbe05" target="_top" xlink:title="Voxel::TI::VoxelProgrammer\lBase::_readRegister">
<polygon fill="none" stroke="black" points="176,-49 176,-79 316,-79 316,-49 176,-49"/>
<text text-anchor="start" x="184" y="-67" font-family="Helvetica,sans-Serif" font-size="10.00">Voxel::TI::VoxelProgrammer</text>
<text text-anchor="middle" x="246" y="-56" font-family="Helvetica,sans-Serif" font-size="10.00">Base::_readRegister</text>
</a>
</g>
</g>
<!-- Node1&#45;&gt;Node2 -->
<g id="edge1" class="edge"><title>Node1&#45;&gt;Node2</title>
<path fill="none" stroke="midnightblue" d="M140.019,-48.9166C148.476,-50.1316 157.169,-51.3806 165.761,-52.615"/>
<polygon fill="midnightblue" stroke="midnightblue" points="165.383,-56.0967 175.779,-54.0545 166.379,-49.1678 165.383,-56.0967"/>
</g>
<!-- Node3 -->
<g id="node3" class="node"><title>Node3</title>
<g id="a_node3"><a xlink:href="a00121.xhtml#a65cd8b5334e47888543669af23590d1e" target="_top" xlink:title="Voxel::RegisterProgrammer\l::isInitialized">
<polygon fill="none" stroke="black" points="177.5,-0 177.5,-30 314.5,-30 314.5,-0 177.5,-0"/>
<text text-anchor="start" x="185.5" y="-18" font-family="Helvetica,sans-Serif" font-size="10.00">Voxel::RegisterProgrammer</text>
<text text-anchor="middle" x="246" y="-7" font-family="Helvetica,sans-Serif" font-size="10.00">::isInitialized</text>
</a>
</g>
</g>
<!-- Node1&#45;&gt;Node3 -->
<g id="edge2" class="edge"><title>Node1&#45;&gt;Node3</title>
<path fill="none" stroke="midnightblue" d="M140.019,-29.4801C148.981,-28.244 158.209,-26.9711 167.3,-25.7172"/>
<polygon fill="midnightblue" stroke="midnightblue" points="168.057,-29.1461 177.485,-24.3124 167.1,-22.2117 168.057,-29.1461"/>
</g>
</g>
</svg>
