<?xml version="1.0" encoding="UTF-8" standalone="no"?>
<!DOCTYPE svg PUBLIC "-//W3C//DTD SVG 1.1//EN"
 "http://www.w3.org/Graphics/SVG/1.1/DTD/svg11.dtd">
<!-- Generated by graphviz version 2.36.0 (20140111.2315)
 -->
<!-- Title: TinyXML2::XMLNode::DeleteNode Pages: 1 -->
<svg width="598pt" height="115pt"
 viewBox="0.00 0.00 598.00 115.00" xmlns="http://www.w3.org/2000/svg" xmlns:xlink="http://www.w3.org/1999/xlink">
<g id="graph0" class="graph" transform="scale(1 1) rotate(0) translate(4 111)">
<title>TinyXML2::XMLNode::DeleteNode</title>
<!-- Node1 -->
<g id="node1" class="node"><title>Node1</title>
<polygon fill="#bfbfbf" stroke="black" points="0,-44 0,-74 116,-74 116,-44 0,-44"/>
<text text-anchor="start" x="8" y="-62" font-family="Helvetica,sans-Serif" font-size="10.00">TinyXML2::XMLNode::</text>
<text text-anchor="middle" x="58" y="-51" font-family="Helvetica,sans-Serif" font-size="10.00">DeleteNode</text>
</g>
<!-- Node2 -->
<g id="node2" class="node"><title>Node2</title>
<g id="a_node2"><a xlink:href="a00098.xhtml#af252371f4bf36310d2db949279b5ccf4" target="_top" xlink:title="TinyXML2::MemPool::Free">
<polygon fill="none" stroke="black" points="152,-87.5 152,-106.5 286,-106.5 286,-87.5 152,-87.5"/>
<text text-anchor="middle" x="219" y="-94.5" font-family="Helvetica,sans-Serif" font-size="10.00">TinyXML2::MemPool::Free</text>
</a>
</g>
</g>
<!-- Node1&#45;&gt;Node2 -->
<g id="edge1" class="edge"><title>Node1&#45;&gt;Node2</title>
<path fill="none" stroke="midnightblue" d="M116.403,-72.7189C133.345,-76.7681 151.742,-81.1649 168.167,-85.0903"/>
<polygon fill="midnightblue" stroke="midnightblue" points="167.569,-88.5458 178.108,-87.4662 169.196,-81.7375 167.569,-88.5458"/>
</g>
<!-- Node3 -->
<g id="node3" class="node"><title>Node3</title>
<g id="a_node3"><a xlink:href="a00201.xhtml#a5ce8791c0920489f9df667b0a0264935" target="_top" xlink:title="TinyXML2::XMLNode::\l~XMLNode">
<polygon fill="none" stroke="black" points="161,-0 161,-30 277,-30 277,-0 161,-0"/>
<text text-anchor="start" x="169" y="-18" font-family="Helvetica,sans-Serif" font-size="10.00">TinyXML2::XMLNode::</text>
<text text-anchor="middle" x="219" y="-7" font-family="Helvetica,sans-Serif" font-size="10.00">~XMLNode</text>
</a>
</g>
</g>
<!-- Node1&#45;&gt;Node3 -->
<g id="edge2" class="edge"><title>Node1&#45;&gt;Node3</title>
<path fill="none" stroke="midnightblue" d="M113.274,-43.9808C126.377,-40.3548 140.5,-36.4466 154.002,-32.7101"/>
<polygon fill="midnightblue" stroke="midnightblue" points="154.996,-36.0666 163.701,-30.0262 153.129,-29.3201 154.996,-36.0666"/>
</g>
<!-- Node4 -->
<g id="node4" class="node"><title>Node4</title>
<g id="a_node4"><a xlink:href="a00201.xhtml#ac71764a70bec2eb37ed1ee30c97b2b51" target="_top" xlink:title="TinyXML2::XMLNode::\lDeleteChildren">
<polygon fill="none" stroke="black" points="322,-44 322,-74 438,-74 438,-44 322,-44"/>
<text text-anchor="start" x="330" y="-62" font-family="Helvetica,sans-Serif" font-size="10.00">TinyXML2::XMLNode::</text>
<text text-anchor="middle" x="380" y="-51" font-family="Helvetica,sans-Serif" font-size="10.00">DeleteChildren</text>
</a>
</g>
</g>
<!-- Node3&#45;&gt;Node4 -->
<g id="edge3" class="edge"><title>Node3&#45;&gt;Node4</title>
<path fill="none" stroke="midnightblue" d="M274.274,-30.0192C287.377,-33.6452 301.5,-37.5534 315.002,-41.2899"/>
<polygon fill="midnightblue" stroke="midnightblue" points="314.129,-44.6799 324.701,-43.9738 315.996,-37.9334 314.129,-44.6799"/>
</g>
<!-- Node5 -->
<g id="node5" class="node"><title>Node5</title>
<g id="a_node5"><a xlink:href="a00201.xhtml#a0fe718d6c3d1252c48992c1adc1ce93b" target="_top" xlink:title="TinyXML2::XMLNode::\lUnlink">
<polygon fill="none" stroke="black" points="474,-22 474,-52 590,-52 590,-22 474,-22"/>
<text text-anchor="start" x="482" y="-40" font-family="Helvetica,sans-Serif" font-size="10.00">TinyXML2::XMLNode::</text>
<text text-anchor="middle" x="532" y="-29" font-family="Helvetica,sans-Serif" font-size="10.00">Unlink</text>
</a>
</g>
</g>
<!-- Node3&#45;&gt;Node5 -->
<g id="edge6" class="edge"><title>Node3&#45;&gt;Node5</title>
<path fill="none" stroke="midnightblue" d="M277.042,-19.0351C329.704,-22.7604 407.958,-28.2961 463.665,-32.2368"/>
<polygon fill="midnightblue" stroke="midnightblue" points="463.572,-35.7388 473.794,-32.9533 464.066,-28.7563 463.572,-35.7388"/>
</g>
<!-- Node4&#45;&gt;Node1 -->
<g id="edge4" class="edge"><title>Node4&#45;&gt;Node1</title>
<path fill="none" stroke="midnightblue" d="M321.747,-59C266.955,-59 184.302,-59 126.366,-59"/>
<polygon fill="midnightblue" stroke="midnightblue" points="126.21,-55.5001 116.21,-59 126.21,-62.5001 126.21,-55.5001"/>
</g>
<!-- Node4&#45;&gt;Node5 -->
<g id="edge5" class="edge"><title>Node4&#45;&gt;Node5</title>
<path fill="none" stroke="midnightblue" d="M438.136,-50.62C446.468,-49.3981 455.111,-48.1304 463.622,-46.8821"/>
<polygon fill="midnightblue" stroke="midnightblue" points="464.139,-50.3438 473.525,-45.4296 463.123,-43.4179 464.139,-50.3438"/>
</g>
</g>
</svg>
