<?xml version="1.0" encoding="UTF-8" standalone="no"?>
<!DOCTYPE svg PUBLIC "-//W3C//DTD SVG 1.1//EN"
 "http://www.w3.org/Graphics/SVG/1.1/DTD/svg11.dtd">
<!-- Generated by graphviz version 2.36.0 (20140111.2315)
 -->
<!-- Title: main Pages: 1 -->
<svg width="546pt" height="115pt"
 viewBox="0.00 0.00 546.00 115.00" xmlns="http://www.w3.org/2000/svg" xmlns:xlink="http://www.w3.org/1999/xlink">
<g id="graph0" class="graph" transform="scale(1 1) rotate(0) translate(4 111)">
<title>main</title>
<!-- Node1 -->
<g id="node1" class="node"><title>Node1</title>
<polygon fill="#bfbfbf" stroke="black" points="0,-49.5 0,-68.5 38,-68.5 38,-49.5 0,-49.5"/>
<text text-anchor="middle" x="19" y="-56.5" font-family="Helvetica,sans-Serif" font-size="10.00">main</text>
</g>
<!-- Node2 -->
<g id="node2" class="node"><title>Node2</title>
<g id="a_node2"><a xlink:href="a00045.xhtml#a024f62e3600992630fd4692c820ebe81" target="_top" xlink:title="Voxel::DFT::DFT2D">
<polygon fill="none" stroke="black" points="85.5,-87.5 85.5,-106.5 190.5,-106.5 190.5,-87.5 85.5,-87.5"/>
<text text-anchor="middle" x="138" y="-94.5" font-family="Helvetica,sans-Serif" font-size="10.00">Voxel::DFT::DFT2D</text>
</a>
</g>
</g>
<!-- Node1&#45;&gt;Node2 -->
<g id="edge1" class="edge"><title>Node1&#45;&gt;Node2</title>
<path fill="none" stroke="midnightblue" d="M38.4237,-65.7156C48.8288,-69.4496 62.0962,-74.113 74,-78 80.5668,-80.1443 87.5463,-82.3356 94.3772,-84.4322"/>
<polygon fill="midnightblue" stroke="midnightblue" points="93.628,-87.8625 104.214,-87.4196 95.6623,-81.1645 93.628,-87.8625"/>
</g>
<!-- Node5 -->
<g id="node5" class="node"><title>Node5</title>
<g id="a_node5"><a xlink:href="a00243.xhtml#a97ee70a8770dc30d06c744b24eb2fcfc" target="_top" xlink:title="help">
<polygon fill="none" stroke="black" points="120.5,-49.5 120.5,-68.5 155.5,-68.5 155.5,-49.5 120.5,-49.5"/>
<text text-anchor="middle" x="138" y="-56.5" font-family="Helvetica,sans-Serif" font-size="10.00">help</text>
</a>
</g>
</g>
<!-- Node1&#45;&gt;Node5 -->
<g id="edge4" class="edge"><title>Node1&#45;&gt;Node5</title>
<path fill="none" stroke="midnightblue" d="M38.0248,-59C57.3051,-59 88.0901,-59 110.209,-59"/>
<polygon fill="midnightblue" stroke="midnightblue" points="110.282,-62.5001 120.282,-59 110.282,-55.5001 110.282,-62.5001"/>
</g>
<!-- Node6 -->
<g id="node6" class="node"><title>Node6</title>
<g id="a_node6"><a xlink:href="a00093.xhtml#a24cc93971582344584a5c9064d897cbe" target="_top" xlink:title="Voxel::Logger::setDefault\lLogLevel">
<polygon fill="none" stroke="black" points="74,-0 74,-30 202,-30 202,-0 74,-0"/>
<text text-anchor="start" x="82" y="-18" font-family="Helvetica,sans-Serif" font-size="10.00">Voxel::Logger::setDefault</text>
<text text-anchor="middle" x="138" y="-7" font-family="Helvetica,sans-Serif" font-size="10.00">LogLevel</text>
</a>
</g>
</g>
<!-- Node1&#45;&gt;Node6 -->
<g id="edge5" class="edge"><title>Node1&#45;&gt;Node6</title>
<path fill="none" stroke="midnightblue" d="M38.0248,-52.2214C51.2215,-47.2586 69.8082,-40.2687 87.3164,-33.6844"/>
<polygon fill="midnightblue" stroke="midnightblue" points="88.7633,-36.8797 96.8913,-30.0836 86.2992,-30.3277 88.7633,-36.8797"/>
</g>
<!-- Node3 -->
<g id="node3" class="node"><title>Node3</title>
<g id="a_node3"><a xlink:href="a00045.xhtml#a62f78819ca24e8d6d2e867e890eda577" target="_top" xlink:title="Voxel::DFT::DFT1D">
<polygon fill="none" stroke="black" points="238.5,-87.5 238.5,-106.5 343.5,-106.5 343.5,-87.5 238.5,-87.5"/>
<text text-anchor="middle" x="291" y="-94.5" font-family="Helvetica,sans-Serif" font-size="10.00">Voxel::DFT::DFT1D</text>
</a>
</g>
</g>
<!-- Node2&#45;&gt;Node3 -->
<g id="edge2" class="edge"><title>Node2&#45;&gt;Node3</title>
<path fill="none" stroke="midnightblue" d="M190.543,-97C202.625,-97 215.619,-97 228.1,-97"/>
<polygon fill="midnightblue" stroke="midnightblue" points="228.433,-100.5 238.433,-97 228.433,-93.5001 228.433,-100.5"/>
</g>
<!-- Node4 -->
<g id="node4" class="node"><title>Node4</title>
<g id="a_node4"><a xlink:href="a00045.xhtml#aae3f9cab0c773c24d2b2c1d769d6ef5a" target="_top" xlink:title="Voxel::DFT::_computeExpTable">
<polygon fill="none" stroke="black" points="380.5,-87.5 380.5,-106.5 537.5,-106.5 537.5,-87.5 380.5,-87.5"/>
<text text-anchor="middle" x="459" y="-94.5" font-family="Helvetica,sans-Serif" font-size="10.00">Voxel::DFT::_computeExpTable</text>
</a>
</g>
</g>
<!-- Node3&#45;&gt;Node4 -->
<g id="edge3" class="edge"><title>Node3&#45;&gt;Node4</title>
<path fill="none" stroke="midnightblue" d="M343.613,-97C352.05,-97 360.994,-97 370.016,-97"/>
<polygon fill="midnightblue" stroke="midnightblue" points="370.214,-100.5 380.214,-97 370.214,-93.5001 370.214,-100.5"/>
</g>
</g>
</svg>
