<?xml version="1.0" encoding="UTF-8" standalone="no"?>
<!DOCTYPE svg PUBLIC "-//W3C//DTD SVG 1.1//EN"
 "http://www.w3.org/Graphics/SVG/1.1/DTD/svg11.dtd">
<!-- Generated by graphviz version 2.36.0 (20140111.2315)
 -->
<!-- Title: TinyXML2::XMLPrinter::VisitEnter Pages: 1 -->
<svg width="892pt" height="245pt"
 viewBox="0.00 0.00 892.00 245.00" xmlns="http://www.w3.org/2000/svg" xmlns:xlink="http://www.w3.org/1999/xlink">
<g id="graph0" class="graph" transform="scale(1 1) rotate(0) translate(4 241)">
<title>TinyXML2::XMLPrinter::VisitEnter</title>
<!-- Node1 -->
<g id="node1" class="node"><title>Node1</title>
<polygon fill="#bfbfbf" stroke="black" points="0,-158 0,-188 116,-188 116,-158 0,-158"/>
<text text-anchor="start" x="8" y="-176" font-family="Helvetica,sans-Serif" font-size="10.00">TinyXML2::XMLPrinter</text>
<text text-anchor="middle" x="58" y="-165" font-family="Helvetica,sans-Serif" font-size="10.00">::VisitEnter</text>
</g>
<!-- Node2 -->
<g id="node2" class="node"><title>Node2</title>
<g id="a_node2"><a xlink:href="a00198.xhtml#aa7f8f96c55022e3e2d7dc4eb492860cf" target="_top" xlink:title="TinyXML2::XMLDocument\l::HasBOM">
<polygon fill="none" stroke="black" points="152,-207 152,-237 284,-237 284,-207 152,-207"/>
<text text-anchor="start" x="160" y="-225" font-family="Helvetica,sans-Serif" font-size="10.00">TinyXML2::XMLDocument</text>
<text text-anchor="middle" x="218" y="-214" font-family="Helvetica,sans-Serif" font-size="10.00">::HasBOM</text>
</a>
</g>
</g>
<!-- Node1&#45;&gt;Node2 -->
<g id="edge1" class="edge"><title>Node1&#45;&gt;Node2</title>
<path fill="none" stroke="midnightblue" d="M107.694,-188.101C123.839,-193.108 141.974,-198.732 158.762,-203.939"/>
<polygon fill="midnightblue" stroke="midnightblue" points="157.878,-207.329 168.466,-206.948 159.952,-200.643 157.878,-207.329"/>
</g>
<!-- Node3 -->
<g id="node3" class="node"><title>Node3</title>
<g id="a_node3"><a xlink:href="a00198.xhtml#a94602229a737b6e7eb7c22149090b2c4" target="_top" xlink:title="TinyXML2::XMLDocument\l::ProcessEntities">
<polygon fill="none" stroke="black" points="152,-158 152,-188 284,-188 284,-158 152,-158"/>
<text text-anchor="start" x="160" y="-176" font-family="Helvetica,sans-Serif" font-size="10.00">TinyXML2::XMLDocument</text>
<text text-anchor="middle" x="218" y="-165" font-family="Helvetica,sans-Serif" font-size="10.00">::ProcessEntities</text>
</a>
</g>
</g>
<!-- Node1&#45;&gt;Node3 -->
<g id="edge2" class="edge"><title>Node1&#45;&gt;Node3</title>
<path fill="none" stroke="midnightblue" d="M116.042,-173C124.428,-173 133.173,-173 141.855,-173"/>
<polygon fill="midnightblue" stroke="midnightblue" points="141.994,-176.5 151.994,-173 141.994,-169.5 141.994,-176.5"/>
</g>
<!-- Node4 -->
<g id="node4" class="node"><title>Node4</title>
<g id="a_node4"><a xlink:href="a00202.xhtml#a69111df3f67a582ee8b7d15de0cf08ea" target="_top" xlink:title="TinyXML2::XMLPrinter\l::PushHeader">
<polygon fill="none" stroke="black" points="160,-109 160,-139 276,-139 276,-109 160,-109"/>
<text text-anchor="start" x="168" y="-127" font-family="Helvetica,sans-Serif" font-size="10.00">TinyXML2::XMLPrinter</text>
<text text-anchor="middle" x="218" y="-116" font-family="Helvetica,sans-Serif" font-size="10.00">::PushHeader</text>
</a>
</g>
</g>
<!-- Node1&#45;&gt;Node4 -->
<g id="edge3" class="edge"><title>Node1&#45;&gt;Node4</title>
<path fill="none" stroke="midnightblue" d="M107.694,-157.899C123.839,-152.892 141.974,-147.268 158.762,-142.061"/>
<polygon fill="midnightblue" stroke="midnightblue" points="159.952,-145.357 168.466,-139.052 157.878,-138.671 159.952,-145.357"/>
</g>
<!-- Node5 -->
<g id="node5" class="node"><title>Node5</title>
<g id="a_node5"><a xlink:href="a00202.xhtml#adc0b55a75420e8cbc9268bca2b8e40ac" target="_top" xlink:title="TinyXML2::XMLPrinter\l::Print">
<polygon fill="none" stroke="black" points="624,-71 624,-101 740,-101 740,-71 624,-71"/>
<text text-anchor="start" x="632" y="-89" font-family="Helvetica,sans-Serif" font-size="10.00">TinyXML2::XMLPrinter</text>
<text text-anchor="middle" x="682" y="-78" font-family="Helvetica,sans-Serif" font-size="10.00">::Print</text>
</a>
</g>
</g>
<!-- Node4&#45;&gt;Node5 -->
<g id="edge4" class="edge"><title>Node4&#45;&gt;Node5</title>
<path fill="none" stroke="midnightblue" d="M276.063,-122.558C348.717,-120.273 478.027,-114.699 588,-102 596.305,-101.041 604.995,-99.8285 613.586,-98.5017"/>
<polygon fill="midnightblue" stroke="midnightblue" points="614.275,-101.936 623.596,-96.9001 613.169,-95.024 614.275,-101.936"/>
</g>
<!-- Node7 -->
<g id="node7" class="node"><title>Node7</title>
<g id="a_node7"><a xlink:href="a00202.xhtml#aaa3f679452ae4803a75e8fb27dd1598b" target="_top" xlink:title="TinyXML2::XMLPrinter\l::PushDeclaration">
<polygon fill="none" stroke="black" points="320,-68 320,-98 436,-98 436,-68 320,-68"/>
<text text-anchor="start" x="328" y="-86" font-family="Helvetica,sans-Serif" font-size="10.00">TinyXML2::XMLPrinter</text>
<text text-anchor="middle" x="378" y="-75" font-family="Helvetica,sans-Serif" font-size="10.00">::PushDeclaration</text>
</a>
</g>
</g>
<!-- Node4&#45;&gt;Node7 -->
<g id="edge6" class="edge"><title>Node4&#45;&gt;Node7</title>
<path fill="none" stroke="midnightblue" d="M276.042,-109.198C287.049,-106.342 298.673,-103.325 309.964,-100.395"/>
<polygon fill="midnightblue" stroke="midnightblue" points="310.977,-103.749 319.777,-97.849 309.218,-96.9731 310.977,-103.749"/>
</g>
<!-- Node6 -->
<g id="node6" class="node"><title>Node6</title>
<g id="a_node6"><a xlink:href="a00050.xhtml#aa57d94f1bc348e58f6f1381187807ffa" target="_top" xlink:title="TinyXML2::DynArray\l::PushArr">
<polygon fill="none" stroke="black" points="776,-71 776,-101 884,-101 884,-71 776,-71"/>
<text text-anchor="start" x="784" y="-89" font-family="Helvetica,sans-Serif" font-size="10.00">TinyXML2::DynArray</text>
<text text-anchor="middle" x="830" y="-78" font-family="Helvetica,sans-Serif" font-size="10.00">::PushArr</text>
</a>
</g>
</g>
<!-- Node5&#45;&gt;Node6 -->
<g id="edge5" class="edge"><title>Node5&#45;&gt;Node6</title>
<path fill="none" stroke="midnightblue" d="M740.284,-86C748.576,-86 757.152,-86 765.557,-86"/>
<polygon fill="midnightblue" stroke="midnightblue" points="765.692,-89.5001 775.692,-86 765.692,-82.5001 765.692,-89.5001"/>
</g>
<!-- Node7&#45;&gt;Node5 -->
<g id="edge7" class="edge"><title>Node7&#45;&gt;Node5</title>
<path fill="none" stroke="midnightblue" d="M436.033,-86.5515C447.915,-87.1551 460.362,-87.6874 472,-88 519.317,-89.271 572.678,-88.7275 613.639,-87.8886"/>
<polygon fill="midnightblue" stroke="midnightblue" points="613.852,-91.3849 623.774,-87.6698 613.701,-84.3865 613.852,-91.3849"/>
</g>
<!-- Node8 -->
<g id="node8" class="node"><title>Node8</title>
<g id="a_node8"><a xlink:href="a00202.xhtml#aed3f30b7b9c09a84cfd6ae8f4bb1f1de" target="_top" xlink:title="TinyXML2::XMLPrinter\l::PrintSpace">
<polygon fill="none" stroke="black" points="472,-49 472,-79 588,-79 588,-49 472,-49"/>
<text text-anchor="start" x="480" y="-67" font-family="Helvetica,sans-Serif" font-size="10.00">TinyXML2::XMLPrinter</text>
<text text-anchor="middle" x="530" y="-56" font-family="Helvetica,sans-Serif" font-size="10.00">::PrintSpace</text>
</a>
</g>
</g>
<!-- Node7&#45;&gt;Node8 -->
<g id="edge8" class="edge"><title>Node7&#45;&gt;Node8</title>
<path fill="none" stroke="midnightblue" d="M436.136,-75.7627C444.377,-74.7189 452.923,-73.6364 461.344,-72.5697"/>
<polygon fill="midnightblue" stroke="midnightblue" points="462.045,-76.0091 471.525,-71.2801 461.165,-69.0646 462.045,-76.0091"/>
</g>
<!-- Node9 -->
<g id="node9" class="node"><title>Node9</title>
<g id="a_node9"><a xlink:href="a00202.xhtml#a4eb457bcdc4e24dbc7fdbdb22e3e00cc" target="_top" xlink:title="TinyXML2::XMLPrinter\l::SealElement">
<polygon fill="none" stroke="black" points="472,-0 472,-30 588,-30 588,-0 472,-0"/>
<text text-anchor="start" x="480" y="-18" font-family="Helvetica,sans-Serif" font-size="10.00">TinyXML2::XMLPrinter</text>
<text text-anchor="middle" x="530" y="-7" font-family="Helvetica,sans-Serif" font-size="10.00">::SealElement</text>
</a>
</g>
</g>
<!-- Node7&#45;&gt;Node9 -->
<g id="edge10" class="edge"><title>Node7&#45;&gt;Node9</title>
<path fill="none" stroke="midnightblue" d="M409.845,-67.9954C427.876,-59.3272 451.126,-48.3272 472,-39 475.646,-37.3711 479.435,-35.7089 483.249,-34.0576"/>
<polygon fill="midnightblue" stroke="midnightblue" points="484.902,-37.1572 492.714,-30.0003 482.144,-30.7234 484.902,-37.1572"/>
</g>
<!-- Node8&#45;&gt;Node5 -->
<g id="edge9" class="edge"><title>Node8&#45;&gt;Node5</title>
<path fill="none" stroke="midnightblue" d="M588.136,-72.38C596.468,-73.6019 605.111,-74.8696 613.622,-76.1179"/>
<polygon fill="midnightblue" stroke="midnightblue" points="613.123,-79.5821 623.525,-77.5704 614.139,-72.6562 613.123,-79.5821"/>
</g>
<!-- Node9&#45;&gt;Node5 -->
<g id="edge11" class="edge"><title>Node9&#45;&gt;Node5</title>
<path fill="none" stroke="midnightblue" d="M567.959,-30.1206C574.664,-32.9888 581.568,-36.025 588,-39 606.425,-47.5225 626.568,-57.6045 643.381,-66.2411"/>
<polygon fill="midnightblue" stroke="midnightblue" points="641.856,-69.3927 652.347,-70.8715 645.068,-63.1731 641.856,-69.3927"/>
</g>
</g>
</svg>
