<?xml version="1.0" encoding="UTF-8" standalone="no"?>
<!DOCTYPE svg PUBLIC "-//W3C//DTD SVG 1.1//EN"
 "http://www.w3.org/Graphics/SVG/1.1/DTD/svg11.dtd">
<!-- Generated by graphviz version 2.36.0 (20140111.2315)
 -->
<!-- Title: TinyXML2::XMLPrinter::VisitEnter Pages: 1 -->
<svg width="742pt" height="430pt"
 viewBox="0.00 0.00 742.00 430.00" xmlns="http://www.w3.org/2000/svg" xmlns:xlink="http://www.w3.org/1999/xlink">
<g id="graph0" class="graph" transform="scale(1 1) rotate(0) translate(4 426)">
<title>TinyXML2::XMLPrinter::VisitEnter</title>
<!-- Node1 -->
<g id="node1" class="node"><title>Node1</title>
<polygon fill="#bfbfbf" stroke="black" points="0,-196 0,-226 116,-226 116,-196 0,-196"/>
<text text-anchor="start" x="8" y="-214" font-family="Helvetica,sans-Serif" font-size="10.00">TinyXML2::XMLPrinter</text>
<text text-anchor="middle" x="58" y="-203" font-family="Helvetica,sans-Serif" font-size="10.00">::VisitEnter</text>
</g>
<!-- Node2 -->
<g id="node2" class="node"><title>Node2</title>
<g id="a_node2"><a xlink:href="a00202.xhtml#aeb9b414dc70c361aa44b52d09a9a5e1e" target="_top" xlink:title="TinyXML2::XMLPrinter\l::CompactMode">
<polygon fill="none" stroke="black" points="156,-392 156,-422 272,-422 272,-392 156,-392"/>
<text text-anchor="start" x="164" y="-410" font-family="Helvetica,sans-Serif" font-size="10.00">TinyXML2::XMLPrinter</text>
<text text-anchor="middle" x="214" y="-399" font-family="Helvetica,sans-Serif" font-size="10.00">::CompactMode</text>
</a>
</g>
</g>
<!-- Node1&#45;&gt;Node2 -->
<g id="edge1" class="edge"><title>Node1&#45;&gt;Node2</title>
<path fill="none" stroke="midnightblue" d="M63.4855,-226.478C73.7901,-259.469 102.175,-337.338 152,-382 153.731,-383.552 155.572,-385.015 157.493,-386.393"/>
<polygon fill="midnightblue" stroke="midnightblue" points="156.011,-389.593 166.35,-391.909 159.711,-383.651 156.011,-389.593"/>
</g>
<!-- Node3 -->
<g id="node3" class="node"><title>Node3</title>
<g id="a_node3"><a xlink:href="a00194.xhtml#a8868ecb5debed3389128f2ec29bc399e" target="_top" xlink:title="The name of the attribute. ">
<polygon fill="none" stroke="black" points="152,-0 152,-30 276,-30 276,-0 152,-0"/>
<text text-anchor="start" x="160" y="-18" font-family="Helvetica,sans-Serif" font-size="10.00">TinyXML2::XMLAttribute</text>
<text text-anchor="middle" x="214" y="-7" font-family="Helvetica,sans-Serif" font-size="10.00">::Name</text>
</a>
</g>
</g>
<!-- Node1&#45;&gt;Node3 -->
<g id="edge2" class="edge"><title>Node1&#45;&gt;Node3</title>
<path fill="none" stroke="midnightblue" d="M63.2581,-195.879C73.2864,-162.882 101.435,-83.7964 152,-39 153.318,-37.8326 154.699,-36.7187 156.131,-35.656"/>
<polygon fill="midnightblue" stroke="midnightblue" points="158.262,-38.4483 164.804,-30.1149 154.493,-32.5494 158.262,-38.4483"/>
</g>
<!-- Node10 -->
<g id="node10" class="node"><title>Node10</title>
<g id="a_node10"><a xlink:href="a00199.xhtml#afd22b33b33e7128f217f96ec5b2f1871" target="_top" xlink:title="Get the name of an element (which is the Value() of the node.) ">
<polygon fill="none" stroke="black" points="152.5,-294 152.5,-324 275.5,-324 275.5,-294 152.5,-294"/>
<text text-anchor="start" x="160.5" y="-312" font-family="Helvetica,sans-Serif" font-size="10.00">TinyXML2::XMLElement</text>
<text text-anchor="middle" x="214" y="-301" font-family="Helvetica,sans-Serif" font-size="10.00">::Name</text>
</a>
</g>
</g>
<!-- Node1&#45;&gt;Node10 -->
<g id="edge9" class="edge"><title>Node1&#45;&gt;Node10</title>
<path fill="none" stroke="midnightblue" d="M75.4555,-226.238C93.2891,-242.174 123.086,-267.167 152,-284 155.408,-285.984 159.003,-287.887 162.674,-289.694"/>
<polygon fill="midnightblue" stroke="midnightblue" points="161.347,-292.937 171.89,-293.983 164.3,-286.591 161.347,-292.937"/>
</g>
<!-- Node11 -->
<g id="node11" class="node"><title>Node11</title>
<g id="a_node11"><a xlink:href="a00194.xhtml#a8b773c004dcc3a093990492ebd4908b2" target="_top" xlink:title="The next attribute in the list. ">
<polygon fill="none" stroke="black" points="152,-245 152,-275 276,-275 276,-245 152,-245"/>
<text text-anchor="start" x="160" y="-263" font-family="Helvetica,sans-Serif" font-size="10.00">TinyXML2::XMLAttribute</text>
<text text-anchor="middle" x="214" y="-252" font-family="Helvetica,sans-Serif" font-size="10.00">::Next</text>
</a>
</g>
</g>
<!-- Node1&#45;&gt;Node11 -->
<g id="edge10" class="edge"><title>Node1&#45;&gt;Node11</title>
<path fill="none" stroke="midnightblue" d="M106.462,-226.101C122.05,-231.062 139.543,-236.627 155.778,-241.793"/>
<polygon fill="midnightblue" stroke="midnightblue" points="155.105,-245.252 165.695,-244.948 157.227,-238.581 155.105,-245.252"/>
</g>
<!-- Node12 -->
<g id="node12" class="node"><title>Node12</title>
<g id="a_node12"><a xlink:href="a00202.xhtml#a51e42981371b82b64cac08d1248a7df7" target="_top" xlink:title="TinyXML2::XMLPrinter\l::OpenElement">
<polygon fill="none" stroke="black" points="156,-196 156,-226 272,-226 272,-196 156,-196"/>
<text text-anchor="start" x="164" y="-214" font-family="Helvetica,sans-Serif" font-size="10.00">TinyXML2::XMLPrinter</text>
<text text-anchor="middle" x="214" y="-203" font-family="Helvetica,sans-Serif" font-size="10.00">::OpenElement</text>
</a>
</g>
</g>
<!-- Node1&#45;&gt;Node12 -->
<g id="edge11" class="edge"><title>Node1&#45;&gt;Node12</title>
<path fill="none" stroke="midnightblue" d="M116.344,-211C125.928,-211 135.947,-211 145.752,-211"/>
<polygon fill="midnightblue" stroke="midnightblue" points="145.865,-214.5 155.865,-211 145.865,-207.5 145.865,-214.5"/>
</g>
<!-- Node18 -->
<g id="node18" class="node"><title>Node18</title>
<g id="a_node18"><a xlink:href="a00201.xhtml#a5f038bc06894ab6f6914bf5841a9f53f" target="_top" xlink:title="Get the parent of this node on the DOM. ">
<polygon fill="none" stroke="black" points="156,-147 156,-177 272,-177 272,-147 156,-147"/>
<text text-anchor="start" x="164" y="-165" font-family="Helvetica,sans-Serif" font-size="10.00">TinyXML2::XMLNode::</text>
<text text-anchor="middle" x="214" y="-154" font-family="Helvetica,sans-Serif" font-size="10.00">Parent</text>
</a>
</g>
</g>
<!-- Node1&#45;&gt;Node18 -->
<g id="edge19" class="edge"><title>Node1&#45;&gt;Node18</title>
<path fill="none" stroke="midnightblue" d="M106.462,-195.899C122.05,-190.938 139.543,-185.373 155.778,-180.207"/>
<polygon fill="midnightblue" stroke="midnightblue" points="157.227,-183.419 165.695,-177.052 155.105,-176.748 157.227,-183.419"/>
</g>
<!-- Node19 -->
<g id="node19" class="node"><title>Node19</title>
<g id="a_node19"><a xlink:href="a00202.xhtml#a2b2e57355330eb95489fa05dac639da1" target="_top" xlink:title="If streaming, add an attribute to an open element. ">
<polygon fill="none" stroke="black" points="156,-343 156,-373 272,-373 272,-343 156,-343"/>
<text text-anchor="start" x="164" y="-361" font-family="Helvetica,sans-Serif" font-size="10.00">TinyXML2::XMLPrinter</text>
<text text-anchor="middle" x="214" y="-350" font-family="Helvetica,sans-Serif" font-size="10.00">::PushAttribute</text>
</a>
</g>
</g>
<!-- Node1&#45;&gt;Node19 -->
<g id="edge20" class="edge"><title>Node1&#45;&gt;Node19</title>
<path fill="none" stroke="midnightblue" d="M67.0135,-226.206C81.0728,-251.565 112.48,-302.693 152,-333 154.299,-334.763 156.74,-336.422 159.271,-337.98"/>
<polygon fill="midnightblue" stroke="midnightblue" points="157.713,-341.117 168.158,-342.893 161.1,-334.991 157.713,-341.117"/>
</g>
<!-- Node21 -->
<g id="node21" class="node"><title>Node21</title>
<g id="a_node21"><a xlink:href="a00201.xhtml#a2ef2c6efbc6c9c76767770160d2d123d" target="_top" xlink:title="Safely cast to an Element, or null. ">
<polygon fill="none" stroke="black" points="156,-49 156,-79 272,-79 272,-49 156,-49"/>
<text text-anchor="start" x="164" y="-67" font-family="Helvetica,sans-Serif" font-size="10.00">TinyXML2::XMLNode::</text>
<text text-anchor="middle" x="214" y="-56" font-family="Helvetica,sans-Serif" font-size="10.00">ToElement</text>
</a>
</g>
</g>
<!-- Node1&#45;&gt;Node21 -->
<g id="edge24" class="edge"><title>Node1&#45;&gt;Node21</title>
<path fill="none" stroke="midnightblue" d="M66.935,-195.605C80.8788,-169.944 112.12,-118.262 152,-88 153.805,-86.6306 155.698,-85.329 157.654,-84.093"/>
<polygon fill="midnightblue" stroke="midnightblue" points="159.559,-87.0372 166.562,-79.0869 156.13,-80.9347 159.559,-87.0372"/>
</g>
<!-- Node22 -->
<g id="node22" class="node"><title>Node22</title>
<g id="a_node22"><a xlink:href="a00194.xhtml#a446d3d65226fa84cca9c038521bfa0e6" target="_top" xlink:title="The value of the attribute. ">
<polygon fill="none" stroke="black" points="152,-98 152,-128 276,-128 276,-98 152,-98"/>
<text text-anchor="start" x="160" y="-116" font-family="Helvetica,sans-Serif" font-size="10.00">TinyXML2::XMLAttribute</text>
<text text-anchor="middle" x="214" y="-105" font-family="Helvetica,sans-Serif" font-size="10.00">::Value</text>
</a>
</g>
</g>
<!-- Node1&#45;&gt;Node22 -->
<g id="edge25" class="edge"><title>Node1&#45;&gt;Node22</title>
<path fill="none" stroke="midnightblue" d="M75.0449,-195.752C92.7681,-179.528 122.693,-153.916 152,-137 154.809,-135.379 157.749,-133.821 160.755,-132.332"/>
<polygon fill="midnightblue" stroke="midnightblue" points="162.314,-135.468 169.91,-128.082 159.366,-129.119 162.314,-135.468"/>
</g>
<!-- Node4 -->
<g id="node4" class="node"><title>Node4</title>
<g id="a_node4"><a xlink:href="a00133.xhtml#a5e2c5bd32ba79f32f219cf9301c2bce6" target="_top" xlink:title="TinyXML2::StrPair::\lGetStr">
<polygon fill="none" stroke="black" points="318.5,-81 318.5,-111 421.5,-111 421.5,-81 318.5,-81"/>
<text text-anchor="start" x="326.5" y="-99" font-family="Helvetica,sans-Serif" font-size="10.00">TinyXML2::StrPair::</text>
<text text-anchor="middle" x="370" y="-88" font-family="Helvetica,sans-Serif" font-size="10.00">GetStr</text>
</a>
</g>
</g>
<!-- Node3&#45;&gt;Node4 -->
<g id="edge3" class="edge"><title>Node3&#45;&gt;Node4</title>
<path fill="none" stroke="midnightblue" d="M256.119,-30.0365C262.851,-32.8222 269.685,-35.8527 276,-39 297.361,-49.6457 320.23,-63.6245 337.945,-75.0743"/>
<polygon fill="midnightblue" stroke="midnightblue" points="336.418,-78.2578 346.703,-80.8003 340.248,-72.3988 336.418,-78.2578"/>
</g>
<!-- Node5 -->
<g id="node5" class="node"><title>Node5</title>
<g id="a_node5"><a xlink:href="a00133.xhtml#a7d56cd79475b9e7e6349134b89331311" target="_top" xlink:title="TinyXML2::StrPair::\lCollapseWhitespace">
<polygon fill="none" stroke="black" points="468.5,-103 468.5,-133 575.5,-133 575.5,-103 468.5,-103"/>
<text text-anchor="start" x="476.5" y="-121" font-family="Helvetica,sans-Serif" font-size="10.00">TinyXML2::StrPair::</text>
<text text-anchor="middle" x="522" y="-110" font-family="Helvetica,sans-Serif" font-size="10.00">CollapseWhitespace</text>
</a>
</g>
</g>
<!-- Node4&#45;&gt;Node5 -->
<g id="edge4" class="edge"><title>Node4&#45;&gt;Node5</title>
<path fill="none" stroke="midnightblue" d="M421.783,-103.448C433.536,-105.172 446.178,-107.026 458.371,-108.814"/>
<polygon fill="midnightblue" stroke="midnightblue" points="458.076,-112.309 468.478,-110.297 459.092,-105.383 458.076,-112.309"/>
</g>
<!-- Node8 -->
<g id="node8" class="node"><title>Node8</title>
<g id="a_node8"><a xlink:href="a00205.xhtml#a7b69ac5d9474c28a4b2fd675d692ea43" target="_top" xlink:title="TinyXML2::XMLUtil::\lGetCharacterRef">
<polygon fill="none" stroke="black" points="468,-54 468,-84 576,-84 576,-54 468,-54"/>
<text text-anchor="start" x="476" y="-72" font-family="Helvetica,sans-Serif" font-size="10.00">TinyXML2::XMLUtil::</text>
<text text-anchor="middle" x="522" y="-61" font-family="Helvetica,sans-Serif" font-size="10.00">GetCharacterRef</text>
</a>
</g>
</g>
<!-- Node4&#45;&gt;Node8 -->
<g id="edge7" class="edge"><title>Node4&#45;&gt;Node8</title>
<path fill="none" stroke="midnightblue" d="M421.783,-86.859C433.403,-84.7674 445.892,-82.5194 457.957,-80.3477"/>
<polygon fill="midnightblue" stroke="midnightblue" points="458.742,-83.7627 467.964,-78.5465 457.502,-76.8735 458.742,-83.7627"/>
</g>
<!-- Node6 -->
<g id="node6" class="node"><title>Node6</title>
<g id="a_node6"><a xlink:href="a00205.xhtml#aa1b7cab8abab24f6deeb0b34a31b5a86" target="_top" xlink:title="TinyXML2::XMLUtil::\lIsWhiteSpace">
<polygon fill="none" stroke="black" points="621,-103 621,-133 729,-133 729,-103 621,-103"/>
<text text-anchor="start" x="629" y="-121" font-family="Helvetica,sans-Serif" font-size="10.00">TinyXML2::XMLUtil::</text>
<text text-anchor="middle" x="675" y="-110" font-family="Helvetica,sans-Serif" font-size="10.00">IsWhiteSpace</text>
</a>
</g>
</g>
<!-- Node5&#45;&gt;Node6 -->
<g id="edge5" class="edge"><title>Node5&#45;&gt;Node6</title>
<path fill="none" stroke="midnightblue" d="M575.812,-118C587.126,-118 599.19,-118 610.849,-118"/>
<polygon fill="midnightblue" stroke="midnightblue" points="610.962,-121.5 620.962,-118 610.962,-114.5 610.962,-121.5"/>
</g>
<!-- Node7 -->
<g id="node7" class="node"><title>Node7</title>
<g id="a_node7"><a xlink:href="a00205.xhtml#a151c32ae2f90003379a2fc78a80da4f1" target="_top" xlink:title="TinyXML2::XMLUtil::\lSkipWhiteSpace">
<polygon fill="none" stroke="black" points="621,-152 621,-182 729,-182 729,-152 621,-152"/>
<text text-anchor="start" x="629" y="-170" font-family="Helvetica,sans-Serif" font-size="10.00">TinyXML2::XMLUtil::</text>
<text text-anchor="middle" x="675" y="-159" font-family="Helvetica,sans-Serif" font-size="10.00">SkipWhiteSpace</text>
</a>
</g>
</g>
<!-- Node5&#45;&gt;Node7 -->
<g id="edge6" class="edge"><title>Node5&#45;&gt;Node7</title>
<path fill="none" stroke="midnightblue" d="M569.537,-133.101C584.822,-138.062 601.974,-143.627 617.892,-148.793"/>
<polygon fill="midnightblue" stroke="midnightblue" points="617.025,-152.191 627.617,-151.948 619.185,-145.533 617.025,-152.191"/>
</g>
<!-- Node9 -->
<g id="node9" class="node"><title>Node9</title>
<g id="a_node9"><a xlink:href="a00205.xhtml#a568fea7b3c469d8fae0e1f3480a0d96c" target="_top" xlink:title="TinyXML2::XMLUtil::\lConvertUTF32ToUTF8">
<polygon fill="none" stroke="black" points="616.5,-54 616.5,-84 733.5,-84 733.5,-54 616.5,-54"/>
<text text-anchor="start" x="624.5" y="-72" font-family="Helvetica,sans-Serif" font-size="10.00">TinyXML2::XMLUtil::</text>
<text text-anchor="middle" x="675" y="-61" font-family="Helvetica,sans-Serif" font-size="10.00">ConvertUTF32ToUTF8</text>
</a>
</g>
</g>
<!-- Node8&#45;&gt;Node9 -->
<g id="edge8" class="edge"><title>Node8&#45;&gt;Node9</title>
<path fill="none" stroke="midnightblue" d="M576.237,-69C585.98,-69 596.267,-69 606.364,-69"/>
<polygon fill="midnightblue" stroke="midnightblue" points="606.371,-72.5001 616.371,-69 606.371,-65.5001 606.371,-72.5001"/>
</g>
<!-- Node13 -->
<g id="node13" class="node"><title>Node13</title>
<g id="a_node13"><a xlink:href="a00202.xhtml#adc0b55a75420e8cbc9268bca2b8e40ac" target="_top" xlink:title="TinyXML2::XMLPrinter\l::Print">
<polygon fill="none" stroke="black" points="464,-223 464,-253 580,-253 580,-223 464,-223"/>
<text text-anchor="start" x="472" y="-241" font-family="Helvetica,sans-Serif" font-size="10.00">TinyXML2::XMLPrinter</text>
<text text-anchor="middle" x="522" y="-230" font-family="Helvetica,sans-Serif" font-size="10.00">::Print</text>
</a>
</g>
</g>
<!-- Node12&#45;&gt;Node13 -->
<g id="edge12" class="edge"><title>Node12&#45;&gt;Node13</title>
<path fill="none" stroke="midnightblue" d="M254.466,-195.906C261.72,-192.828 269.159,-189.464 276,-186 292.728,-177.529 293.95,-169.079 312,-164 361.629,-150.036 379.328,-146.999 428,-164 456.886,-174.09 483.512,-197.32 500.804,-215.082"/>
<polygon fill="midnightblue" stroke="midnightblue" points="498.662,-217.913 508.067,-222.791 503.757,-213.113 498.662,-217.913"/>
</g>
<!-- Node15 -->
<g id="node15" class="node"><title>Node15</title>
<g id="a_node15"><a xlink:href="a00202.xhtml#aed3f30b7b9c09a84cfd6ae8f4bb1f1de" target="_top" xlink:title="TinyXML2::XMLPrinter\l::PrintSpace">
<polygon fill="none" stroke="black" points="312,-223 312,-253 428,-253 428,-223 312,-223"/>
<text text-anchor="start" x="320" y="-241" font-family="Helvetica,sans-Serif" font-size="10.00">TinyXML2::XMLPrinter</text>
<text text-anchor="middle" x="370" y="-230" font-family="Helvetica,sans-Serif" font-size="10.00">::PrintSpace</text>
</a>
</g>
</g>
<!-- Node12&#45;&gt;Node15 -->
<g id="edge14" class="edge"><title>Node12&#45;&gt;Node15</title>
<path fill="none" stroke="midnightblue" d="M272.344,-221.054C281.928,-222.734 291.947,-224.491 301.752,-226.21"/>
<polygon fill="midnightblue" stroke="midnightblue" points="301.41,-229.703 311.865,-227.983 302.619,-222.808 301.41,-229.703"/>
</g>
<!-- Node16 -->
<g id="node16" class="node"><title>Node16</title>
<g id="a_node16"><a xlink:href="a00050.xhtml#a91184d9664c79ccf7ae5be06eb5ceebd" target="_top" xlink:title="TinyXML2::DynArray\l::Push">
<polygon fill="none" stroke="black" points="316,-272 316,-302 424,-302 424,-272 316,-272"/>
<text text-anchor="start" x="324" y="-290" font-family="Helvetica,sans-Serif" font-size="10.00">TinyXML2::DynArray</text>
<text text-anchor="middle" x="370" y="-279" font-family="Helvetica,sans-Serif" font-size="10.00">::Push</text>
</a>
</g>
</g>
<!-- Node12&#45;&gt;Node16 -->
<g id="edge16" class="edge"><title>Node12&#45;&gt;Node16</title>
<path fill="none" stroke="midnightblue" d="M257.682,-226.088C263.954,-228.791 270.237,-231.782 276,-235 293.463,-244.749 294.728,-251.917 312,-262 315.222,-263.881 318.613,-265.71 322.067,-267.466"/>
<polygon fill="midnightblue" stroke="midnightblue" points="320.762,-270.723 331.288,-271.93 323.812,-264.422 320.762,-270.723"/>
</g>
<!-- Node17 -->
<g id="node17" class="node"><title>Node17</title>
<g id="a_node17"><a xlink:href="a00202.xhtml#a4eb457bcdc4e24dbc7fdbdb22e3e00cc" target="_top" xlink:title="TinyXML2::XMLPrinter\l::SealElement">
<polygon fill="none" stroke="black" points="312,-174 312,-204 428,-204 428,-174 312,-174"/>
<text text-anchor="start" x="320" y="-192" font-family="Helvetica,sans-Serif" font-size="10.00">TinyXML2::XMLPrinter</text>
<text text-anchor="middle" x="370" y="-181" font-family="Helvetica,sans-Serif" font-size="10.00">::SealElement</text>
</a>
</g>
</g>
<!-- Node12&#45;&gt;Node17 -->
<g id="edge17" class="edge"><title>Node12&#45;&gt;Node17</title>
<path fill="none" stroke="midnightblue" d="M272.344,-202.808C281.928,-201.439 291.947,-200.008 301.752,-198.607"/>
<polygon fill="midnightblue" stroke="midnightblue" points="302.46,-202.041 311.865,-197.162 301.47,-195.112 302.46,-202.041"/>
</g>
<!-- Node14 -->
<g id="node14" class="node"><title>Node14</title>
<g id="a_node14"><a xlink:href="a00050.xhtml#aa57d94f1bc348e58f6f1381187807ffa" target="_top" xlink:title="TinyXML2::DynArray\l::PushArr">
<polygon fill="none" stroke="black" points="621,-223 621,-253 729,-253 729,-223 621,-223"/>
<text text-anchor="start" x="629" y="-241" font-family="Helvetica,sans-Serif" font-size="10.00">TinyXML2::DynArray</text>
<text text-anchor="middle" x="675" y="-230" font-family="Helvetica,sans-Serif" font-size="10.00">::PushArr</text>
</a>
</g>
</g>
<!-- Node13&#45;&gt;Node14 -->
<g id="edge13" class="edge"><title>Node13&#45;&gt;Node14</title>
<path fill="none" stroke="midnightblue" d="M580.087,-238C590.109,-238 600.592,-238 610.769,-238"/>
<polygon fill="midnightblue" stroke="midnightblue" points="610.816,-241.5 620.816,-238 610.816,-234.5 610.816,-241.5"/>
</g>
<!-- Node15&#45;&gt;Node13 -->
<g id="edge15" class="edge"><title>Node15&#45;&gt;Node13</title>
<path fill="none" stroke="midnightblue" d="M428.136,-238C436.377,-238 444.923,-238 453.344,-238"/>
<polygon fill="midnightblue" stroke="midnightblue" points="453.526,-241.5 463.525,-238 453.525,-234.5 453.526,-241.5"/>
</g>
<!-- Node17&#45;&gt;Node13 -->
<g id="edge18" class="edge"><title>Node17&#45;&gt;Node13</title>
<path fill="none" stroke="midnightblue" d="M417.229,-204.101C432.413,-209.062 449.451,-214.627 465.264,-219.793"/>
<polygon fill="midnightblue" stroke="midnightblue" points="464.331,-223.17 474.924,-222.948 466.505,-216.516 464.331,-223.17"/>
</g>
<!-- Node19&#45;&gt;Node13 -->
<g id="edge21" class="edge"><title>Node19&#45;&gt;Node13</title>
<path fill="none" stroke="midnightblue" d="M272.406,-352.383C316.612,-346.418 378.352,-334.455 428,-311 454.877,-298.303 481.107,-276.61 498.821,-260.162"/>
<polygon fill="midnightblue" stroke="midnightblue" points="501.494,-262.451 506.332,-253.026 496.672,-257.376 501.494,-262.451"/>
</g>
<!-- Node20 -->
<g id="node20" class="node"><title>Node20</title>
<g id="a_node20"><a xlink:href="a00202.xhtml#a2db7bb356f93036da79d719cd13c96e5" target="_top" xlink:title="TinyXML2::XMLPrinter\l::PrintString">
<polygon fill="none" stroke="black" points="312,-360 312,-390 428,-390 428,-360 312,-360"/>
<text text-anchor="start" x="320" y="-378" font-family="Helvetica,sans-Serif" font-size="10.00">TinyXML2::XMLPrinter</text>
<text text-anchor="middle" x="370" y="-367" font-family="Helvetica,sans-Serif" font-size="10.00">::PrintString</text>
</a>
</g>
</g>
<!-- Node19&#45;&gt;Node20 -->
<g id="edge22" class="edge"><title>Node19&#45;&gt;Node20</title>
<path fill="none" stroke="midnightblue" d="M272.344,-364.33C281.928,-365.388 291.947,-366.494 301.752,-367.577"/>
<polygon fill="midnightblue" stroke="midnightblue" points="301.541,-371.074 311.865,-368.693 302.309,-364.117 301.541,-371.074"/>
</g>
<!-- Node20&#45;&gt;Node13 -->
<g id="edge23" class="edge"><title>Node20&#45;&gt;Node13</title>
<path fill="none" stroke="midnightblue" d="M404.538,-359.994C412.586,-355.693 420.899,-350.624 428,-345 458.965,-320.474 487.658,-284.644 504.756,-261.324"/>
<polygon fill="midnightblue" stroke="midnightblue" points="507.713,-263.207 510.722,-253.048 502.035,-259.113 507.713,-263.207"/>
</g>
<!-- Node22&#45;&gt;Node4 -->
<g id="edge26" class="edge"><title>Node22&#45;&gt;Node4</title>
<path fill="none" stroke="midnightblue" d="M276.307,-106.232C286.859,-105.068 297.821,-103.857 308.355,-102.695"/>
<polygon fill="midnightblue" stroke="midnightblue" points="308.741,-106.173 318.296,-101.597 307.973,-99.2156 308.741,-106.173"/>
</g>
</g>
</svg>
