<?xml version="1.0" encoding="UTF-8" standalone="no"?>
<!DOCTYPE svg PUBLIC "-//W3C//DTD SVG 1.1//EN"
 "http://www.w3.org/Graphics/SVG/1.1/DTD/svg11.dtd">
<!-- Generated by graphviz version 2.36.0 (20140111.2315)
 -->
<!-- Title: Voxel::basename Pages: 1 -->
<svg width="770pt" height="126pt"
 viewBox="0.00 0.00 770.00 126.00" xmlns="http://www.w3.org/2000/svg" xmlns:xlink="http://www.w3.org/1999/xlink">
<g id="graph0" class="graph" transform="scale(1 1) rotate(0) translate(4 122)">
<title>Voxel::basename</title>
<!-- Node1 -->
<g id="node1" class="node"><title>Node1</title>
<polygon fill="#bfbfbf" stroke="black" points="0,-27.5 0,-46.5 92,-46.5 92,-27.5 0,-27.5"/>
<text text-anchor="middle" x="46" y="-34.5" font-family="Helvetica,sans-Serif" font-size="10.00">Voxel::basename</text>
</g>
<!-- Node2 -->
<g id="node2" class="node"><title>Node2</title>
<g id="a_node2"><a xlink:href="a00096.xhtml#ae2f3f66b632fa462d8b9f873f416f12b" target="_top" xlink:title="Voxel::MainConfiguration\lFile::_updateCameraProfileList">
<polygon fill="none" stroke="black" points="286.5,-0 286.5,-30 437.5,-30 437.5,-0 286.5,-0"/>
<text text-anchor="start" x="294.5" y="-18" font-family="Helvetica,sans-Serif" font-size="10.00">Voxel::MainConfiguration</text>
<text text-anchor="middle" x="362" y="-7" font-family="Helvetica,sans-Serif" font-size="10.00">File::_updateCameraProfileList</text>
</a>
</g>
</g>
<!-- Node1&#45;&gt;Node2 -->
<g id="edge1" class="edge"><title>Node1&#45;&gt;Node2</title>
<path fill="none" stroke="midnightblue" d="M102.512,-33.1106C153.612,-29.5303 229.814,-24.1914 286.253,-20.237"/>
<polygon fill="midnightblue" stroke="midnightblue" points="102.054,-29.6341 92.323,-33.8245 102.543,-36.6169 102.054,-29.6341"/>
</g>
<!-- Node7 -->
<g id="node7" class="node"><title>Node7</title>
<g id="a_node7"><a xlink:href="a00031.xhtml#a978b37f6995656a3fd39a35e70867bf0" target="_top" xlink:title="Voxel::ConfigurationFile\l::write">
<polygon fill="none" stroke="black" points="128.5,-44 128.5,-74 249.5,-74 249.5,-44 128.5,-44"/>
<text text-anchor="start" x="136.5" y="-62" font-family="Helvetica,sans-Serif" font-size="10.00">Voxel::ConfigurationFile</text>
<text text-anchor="middle" x="189" y="-51" font-family="Helvetica,sans-Serif" font-size="10.00">::write</text>
</a>
</g>
</g>
<!-- Node1&#45;&gt;Node7 -->
<g id="edge6" class="edge"><title>Node1&#45;&gt;Node7</title>
<path fill="none" stroke="midnightblue" d="M102.012,-45.5835C110.698,-46.9388 119.714,-48.3455 128.497,-49.7159"/>
<polygon fill="midnightblue" stroke="midnightblue" points="102.421,-42.105 92.001,-44.0214 101.342,-49.0213 102.421,-42.105"/>
</g>
<!-- Node3 -->
<g id="node3" class="node"><title>Node3</title>
<g id="a_node3"><a xlink:href="a00096.xhtml#a43204cc6e30ecead0efd522ca13e3b67" target="_top" xlink:title="Voxel::MainConfiguration\lFile::addCameraProfile">
<polygon fill="none" stroke="black" points="478,-19 478,-49 604,-49 604,-19 478,-19"/>
<text text-anchor="start" x="486" y="-37" font-family="Helvetica,sans-Serif" font-size="10.00">Voxel::MainConfiguration</text>
<text text-anchor="middle" x="541" y="-26" font-family="Helvetica,sans-Serif" font-size="10.00">File::addCameraProfile</text>
</a>
</g>
</g>
<!-- Node2&#45;&gt;Node3 -->
<g id="edge2" class="edge"><title>Node2&#45;&gt;Node3</title>
<path fill="none" stroke="midnightblue" d="M447.675,-24.0894C457.842,-25.1808 468.076,-26.2793 477.839,-27.3274"/>
<polygon fill="midnightblue" stroke="midnightblue" points="447.867,-20.59 437.551,-23.0026 447.12,-27.5501 447.867,-20.59"/>
</g>
<!-- Node5 -->
<g id="node5" class="node"><title>Node5</title>
<g id="a_node5"><a xlink:href="a00096.xhtml#a4abe1141d3c441fc54cd870e09a22b2c" target="_top" xlink:title="Voxel::MainConfiguration\lFile::removeCameraProfile">
<polygon fill="none" stroke="black" points="474.5,-78 474.5,-108 607.5,-108 607.5,-78 474.5,-78"/>
<text text-anchor="start" x="482.5" y="-96" font-family="Helvetica,sans-Serif" font-size="10.00">Voxel::MainConfiguration</text>
<text text-anchor="middle" x="541" y="-85" font-family="Helvetica,sans-Serif" font-size="10.00">File::removeCameraProfile</text>
</a>
</g>
</g>
<!-- Node2&#45;&gt;Node5 -->
<g id="edge4" class="edge"><title>Node2&#45;&gt;Node5</title>
<path fill="none" stroke="midnightblue" d="M406.279,-34.0722C436.866,-47.5511 477.307,-65.3724 505.676,-77.8741"/>
<polygon fill="midnightblue" stroke="midnightblue" points="407.69,-30.869 397.127,-30.0392 404.867,-37.2746 407.69,-30.869"/>
</g>
<!-- Node4 -->
<g id="node4" class="node"><title>Node4</title>
<g id="a_node4"><a xlink:href="a00036.xhtml#afd88098930492a61560db37abdfacac1" target="_top" xlink:title="Voxel::DepthCamera\l::addCameraProfile">
<polygon fill="none" stroke="black" points="649,-19 649,-49 757,-49 757,-19 649,-19"/>
<text text-anchor="start" x="657" y="-37" font-family="Helvetica,sans-Serif" font-size="10.00">Voxel::DepthCamera</text>
<text text-anchor="middle" x="703" y="-26" font-family="Helvetica,sans-Serif" font-size="10.00">::addCameraProfile</text>
</a>
</g>
</g>
<!-- Node3&#45;&gt;Node4 -->
<g id="edge3" class="edge"><title>Node3&#45;&gt;Node4</title>
<path fill="none" stroke="midnightblue" d="M614.443,-34C626.054,-34 637.881,-34 648.931,-34"/>
<polygon fill="midnightblue" stroke="midnightblue" points="614.318,-30.5001 604.318,-34 614.318,-37.5001 614.318,-30.5001"/>
</g>
<!-- Node6 -->
<g id="node6" class="node"><title>Node6</title>
<g id="a_node6"><a xlink:href="a00036.xhtml#a51bc1371938f78ddc18af0b36850545c" target="_top" xlink:title="Voxel::DepthCamera\l::removeCameraProfile">
<polygon fill="none" stroke="black" points="644.5,-78 644.5,-108 761.5,-108 761.5,-78 644.5,-78"/>
<text text-anchor="start" x="652.5" y="-96" font-family="Helvetica,sans-Serif" font-size="10.00">Voxel::DepthCamera</text>
<text text-anchor="middle" x="703" y="-85" font-family="Helvetica,sans-Serif" font-size="10.00">::removeCameraProfile</text>
</a>
</g>
</g>
<!-- Node5&#45;&gt;Node6 -->
<g id="edge5" class="edge"><title>Node5&#45;&gt;Node6</title>
<path fill="none" stroke="midnightblue" d="M617.601,-93C626.562,-93 635.596,-93 644.253,-93"/>
<polygon fill="midnightblue" stroke="midnightblue" points="617.54,-89.5001 607.54,-93 617.54,-96.5001 617.54,-89.5001"/>
</g>
<!-- Node7&#45;&gt;Node2 -->
<g id="edge8" class="edge"><title>Node7&#45;&gt;Node2</title>
<path fill="none" stroke="midnightblue" d="M258.377,-41.4059C273.025,-37.6368 288.373,-33.6878 302.603,-30.0262"/>
<polygon fill="midnightblue" stroke="midnightblue" points="257.183,-38.0992 248.37,-43.9808 258.927,-44.8783 257.183,-38.0992"/>
</g>
<!-- Node7&#45;&gt;Node3 -->
<g id="edge7" class="edge"><title>Node7&#45;&gt;Node3</title>
<path fill="none" stroke="midnightblue" d="M260.117,-53.9916C323.774,-49.4447 416.769,-42.8022 477.824,-38.4411"/>
<polygon fill="midnightblue" stroke="midnightblue" points="259.495,-50.5271 249.769,-54.7308 259.993,-57.5093 259.495,-50.5271"/>
</g>
<!-- Node8 -->
<g id="node8" class="node"><title>Node8</title>
<g id="a_node8"><a xlink:href="a00096.xhtml#ad0ea67099cfd8a8e869b46b833e19800" target="_top" xlink:title="Voxel::MainConfiguration\lFile::setDefaultCameraProfile">
<polygon fill="none" stroke="black" points="289,-88 289,-118 435,-118 435,-88 289,-88"/>
<text text-anchor="start" x="297" y="-106" font-family="Helvetica,sans-Serif" font-size="10.00">Voxel::MainConfiguration</text>
<text text-anchor="middle" x="362" y="-95" font-family="Helvetica,sans-Serif" font-size="10.00">File::setDefaultCameraProfile</text>
</a>
</g>
</g>
<!-- Node7&#45;&gt;Node8 -->
<g id="edge9" class="edge"><title>Node7&#45;&gt;Node8</title>
<path fill="none" stroke="midnightblue" d="M258.377,-76.5941C273.025,-80.3632 288.373,-84.3122 302.603,-87.9738"/>
<polygon fill="midnightblue" stroke="midnightblue" points="258.927,-73.1217 248.37,-74.0192 257.183,-79.9008 258.927,-73.1217"/>
</g>
<!-- Node8&#45;&gt;Node5 -->
<g id="edge10" class="edge"><title>Node8&#45;&gt;Node5</title>
<path fill="none" stroke="midnightblue" d="M445.304,-98.35C455.008,-97.8018 464.812,-97.2479 474.246,-96.7149"/>
<polygon fill="midnightblue" stroke="midnightblue" points="445.035,-94.8596 435.248,-98.9182 445.43,-101.848 445.035,-94.8596"/>
</g>
</g>
</svg>
