<?xml version="1.0" encoding="UTF-8" standalone="no"?>
<!DOCTYPE svg PUBLIC "-//W3C//DTD SVG 1.1//EN"
 "http://www.w3.org/Graphics/SVG/1.1/DTD/svg11.dtd">
<!-- Generated by graphviz version 2.36.0 (20140111.2315)
 -->
<!-- Title: Voxel::arraySize Pages: 1 -->
<svg width="508pt" height="185pt"
 viewBox="0.00 0.00 508.00 185.00" xmlns="http://www.w3.org/2000/svg" xmlns:xlink="http://www.w3.org/1999/xlink">
<g id="graph0" class="graph" transform="scale(1 1) rotate(0) translate(4 181)">
<title>Voxel::arraySize</title>
<!-- Node1 -->
<g id="node1" class="node"><title>Node1</title>
<polygon fill="#bfbfbf" stroke="black" points="0.5,-78.5 0.5,-97.5 89.5,-97.5 89.5,-78.5 0.5,-78.5"/>
<text text-anchor="middle" x="45" y="-85.5" font-family="Helvetica,sans-Serif" font-size="10.00">Voxel::arraySize</text>
</g>
<!-- Node2 -->
<g id="node2" class="node"><title>Node2</title>
<g id="a_node2"><a xlink:href="a00193.xhtml#af00fab5c3d5ca655e93cbac9eedb2191" target="_top" xlink:title="Voxel::TI::VoxelXUProgrammer\l::_readRegister">
<polygon fill="none" stroke="black" points="126.5,-147 126.5,-177 281.5,-177 281.5,-147 126.5,-147"/>
<text text-anchor="start" x="134.5" y="-165" font-family="Helvetica,sans-Serif" font-size="10.00">Voxel::TI::VoxelXUProgrammer</text>
<text text-anchor="middle" x="204" y="-154" font-family="Helvetica,sans-Serif" font-size="10.00">::_readRegister</text>
</a>
</g>
</g>
<!-- Node1&#45;&gt;Node2 -->
<g id="edge1" class="edge"><title>Node1&#45;&gt;Node2</title>
<path fill="none" stroke="midnightblue" d="M67.7691,-103.277C83.4313,-113.777 105.349,-127.485 126,-137 133.914,-140.647 142.512,-143.993 150.997,-146.971"/>
<polygon fill="midnightblue" stroke="midnightblue" points="69.5613,-100.263 59.3271,-97.5222 65.6183,-106.047 69.5613,-100.263"/>
</g>
<!-- Node3 -->
<g id="node3" class="node"><title>Node3</title>
<g id="a_node3"><a xlink:href="a00193.xhtml#ab14e92f7cb09cebb07f22e618b83ca10" target="_top" xlink:title="Voxel::TI::VoxelXUProgrammer\l::_writeRegister">
<polygon fill="none" stroke="black" points="126.5,-98 126.5,-128 281.5,-128 281.5,-98 126.5,-98"/>
<text text-anchor="start" x="134.5" y="-116" font-family="Helvetica,sans-Serif" font-size="10.00">Voxel::TI::VoxelXUProgrammer</text>
<text text-anchor="middle" x="204" y="-105" font-family="Helvetica,sans-Serif" font-size="10.00">::_writeRegister</text>
</a>
</g>
</g>
<!-- Node1&#45;&gt;Node3 -->
<g id="edge2" class="edge"><title>Node1&#45;&gt;Node3</title>
<path fill="none" stroke="midnightblue" d="M99.6429,-96.5419C108.284,-97.9179 117.374,-99.3653 126.43,-100.807"/>
<polygon fill="midnightblue" stroke="midnightblue" points="100.159,-93.0801 89.7333,-94.9639 99.0584,-99.993 100.159,-93.0801"/>
</g>
<!-- Node4 -->
<g id="node4" class="node"><title>Node4</title>
<g id="a_node4"><a xlink:href="a00193.xhtml#a4f056b71d80ee76eea0e8a160e256c4f" target="_top" xlink:title="Voxel::TI::VoxelXUProgrammer\l::init">
<polygon fill="none" stroke="black" points="126.5,-49 126.5,-79 281.5,-79 281.5,-49 126.5,-49"/>
<text text-anchor="start" x="134.5" y="-67" font-family="Helvetica,sans-Serif" font-size="10.00">Voxel::TI::VoxelXUProgrammer</text>
<text text-anchor="middle" x="204" y="-56" font-family="Helvetica,sans-Serif" font-size="10.00">::init</text>
</a>
</g>
</g>
<!-- Node1&#45;&gt;Node4 -->
<g id="edge3" class="edge"><title>Node1&#45;&gt;Node4</title>
<path fill="none" stroke="midnightblue" d="M99.6429,-79.7998C108.284,-78.4788 117.374,-77.0893 126.43,-75.705"/>
<polygon fill="midnightblue" stroke="midnightblue" points="99.0895,-76.3437 89.7333,-81.3147 100.147,-83.2633 99.0895,-76.3437"/>
</g>
<!-- Node6 -->
<g id="node6" class="node"><title>Node6</title>
<g id="a_node6"><a xlink:href="a00193.xhtml#a44d63f580f52b0f3ff8e801b9a5d266e" target="_top" xlink:title="Voxel::TI::VoxelXUProgrammer\l::reset">
<polygon fill="none" stroke="black" points="126.5,-0 126.5,-30 281.5,-30 281.5,-0 126.5,-0"/>
<text text-anchor="start" x="134.5" y="-18" font-family="Helvetica,sans-Serif" font-size="10.00">Voxel::TI::VoxelXUProgrammer</text>
<text text-anchor="middle" x="204" y="-7" font-family="Helvetica,sans-Serif" font-size="10.00">::reset</text>
</a>
</g>
</g>
<!-- Node1&#45;&gt;Node6 -->
<g id="edge5" class="edge"><title>Node1&#45;&gt;Node6</title>
<path fill="none" stroke="midnightblue" d="M68.3793,-72.6937C84.0209,-62.4718 105.667,-49.2558 126,-40 133.931,-36.3897 142.537,-33.0618 151.026,-30.0912"/>
<polygon fill="midnightblue" stroke="midnightblue" points="66.312,-69.8651 59.9189,-78.3137 70.1852,-75.6959 66.312,-69.8651"/>
</g>
<!-- Node5 -->
<g id="node5" class="node"><title>Node5</title>
<g id="a_node5"><a xlink:href="a00193.xhtml#ae09497186f540cf5abc81e55c4145bc7" target="_top" xlink:title="Voxel::TI::VoxelXUProgrammer\l::VoxelXUProgrammer">
<polygon fill="none" stroke="black" points="331.5,-49 331.5,-79 486.5,-79 486.5,-49 331.5,-49"/>
<text text-anchor="start" x="339.5" y="-67" font-family="Helvetica,sans-Serif" font-size="10.00">Voxel::TI::VoxelXUProgrammer</text>
<text text-anchor="middle" x="409" y="-56" font-family="Helvetica,sans-Serif" font-size="10.00">::VoxelXUProgrammer</text>
</a>
</g>
</g>
<!-- Node4&#45;&gt;Node5 -->
<g id="edge4" class="edge"><title>Node4&#45;&gt;Node5</title>
<path fill="none" stroke="midnightblue" d="M291.763,-64C304.97,-64 318.516,-64 331.483,-64"/>
<polygon fill="midnightblue" stroke="midnightblue" points="291.746,-60.5001 281.746,-64 291.746,-67.5001 291.746,-60.5001"/>
</g>
<!-- Node7 -->
<g id="node7" class="node"><title>Node7</title>
<g id="a_node7"><a xlink:href="a00148.xhtml#a2adb94a5e0b1a66f8a2e21ce0931d46f" target="_top" xlink:title="Voxel::TI::TintinEEPROMDownloader\l::_configureForDownload">
<polygon fill="none" stroke="black" points="318,-0 318,-30 500,-30 500,-0 318,-0"/>
<text text-anchor="start" x="326" y="-18" font-family="Helvetica,sans-Serif" font-size="10.00">Voxel::TI::TintinEEPROMDownloader</text>
<text text-anchor="middle" x="409" y="-7" font-family="Helvetica,sans-Serif" font-size="10.00">::_configureForDownload</text>
</a>
</g>
</g>
<!-- Node6&#45;&gt;Node7 -->
<g id="edge6" class="edge"><title>Node6&#45;&gt;Node7</title>
<path fill="none" stroke="midnightblue" d="M291.79,-15C300.416,-15 309.187,-15 317.846,-15"/>
<polygon fill="midnightblue" stroke="midnightblue" points="291.746,-11.5001 281.746,-15 291.746,-18.5001 291.746,-11.5001"/>
</g>
</g>
</svg>
