<?xml version="1.0" encoding="UTF-8" standalone="no"?>
<!DOCTYPE svg PUBLIC "-//W3C//DTD SVG 1.1//EN"
 "http://www.w3.org/Graphics/SVG/1.1/DTD/svg11.dtd">
<!-- Generated by graphviz version 2.36.0 (20140111.2315)
 -->
<!-- Title: Voxel::Point::dot Pages: 1 -->
<svg width="454pt" height="82pt"
 viewBox="0.00 0.00 454.00 82.00" xmlns="http://www.w3.org/2000/svg" xmlns:xlink="http://www.w3.org/1999/xlink">
<g id="graph0" class="graph" transform="scale(1 1) rotate(0) translate(4 78)">
<title>Voxel::Point::dot</title>
<!-- Node1 -->
<g id="node1" class="node"><title>Node1</title>
<polygon fill="#bfbfbf" stroke="black" points="0.5,-27.5 0.5,-46.5 89.5,-46.5 89.5,-27.5 0.5,-27.5"/>
<text text-anchor="middle" x="45" y="-34.5" font-family="Helvetica,sans-Serif" font-size="10.00">Voxel::Point::dot</text>
</g>
<!-- Node2 -->
<g id="node2" class="node"><title>Node2</title>
<g id="a_node2"><a xlink:href="a00393.xhtml#ga77e8f45d97a448bdced24c3bf6dac50c" target="_top" xlink:title="Voxel::Point::angle">
<polygon fill="none" stroke="black" points="146.5,-49.5 146.5,-68.5 245.5,-68.5 245.5,-49.5 146.5,-49.5"/>
<text text-anchor="middle" x="196" y="-56.5" font-family="Helvetica,sans-Serif" font-size="10.00">Voxel::Point::angle</text>
</a>
</g>
</g>
<!-- Node1&#45;&gt;Node2 -->
<g id="edge1" class="edge"><title>Node1&#45;&gt;Node2</title>
<path fill="none" stroke="midnightblue" d="M100.157,-44.9963C115.303,-47.2326 131.664,-49.6484 146.463,-51.8335"/>
<polygon fill="midnightblue" stroke="midnightblue" points="100.303,-41.48 89.899,-43.4817 99.2805,-48.405 100.303,-41.48"/>
</g>
<!-- Node4 -->
<g id="node4" class="node"><title>Node4</title>
<g id="a_node4"><a xlink:href="a00112.xhtml#a6a65d9504e933dfba93a469f7762e19e" target="_top" xlink:title="Voxel::PointCloudTransform\l::worldToImage">
<polygon fill="none" stroke="black" points="126,-0 126,-30 266,-30 266,-0 126,-0"/>
<text text-anchor="start" x="134" y="-18" font-family="Helvetica,sans-Serif" font-size="10.00">Voxel::PointCloudTransform</text>
<text text-anchor="middle" x="196" y="-7" font-family="Helvetica,sans-Serif" font-size="10.00">::worldToImage</text>
</a>
</g>
</g>
<!-- Node1&#45;&gt;Node4 -->
<g id="edge3" class="edge"><title>Node1&#45;&gt;Node4</title>
<path fill="none" stroke="midnightblue" d="M99.9794,-29.0299C108.425,-27.7828 117.253,-26.4795 125.979,-25.191"/>
<polygon fill="midnightblue" stroke="midnightblue" points="99.2805,-25.595 89.899,-30.5183 100.303,-32.52 99.2805,-25.595"/>
</g>
<!-- Node3 -->
<g id="node3" class="node"><title>Node3</title>
<g id="a_node3"><a xlink:href="a00112.xhtml#a4993bc54250e1cb7e297046d1835ba0a" target="_top" xlink:title="Voxel::PointCloudTransform\l::calcAperatureAngleRadians">
<polygon fill="none" stroke="black" points="302.5,-44 302.5,-74 445.5,-74 445.5,-44 302.5,-44"/>
<text text-anchor="start" x="310.5" y="-62" font-family="Helvetica,sans-Serif" font-size="10.00">Voxel::PointCloudTransform</text>
<text text-anchor="middle" x="374" y="-51" font-family="Helvetica,sans-Serif" font-size="10.00">::calcAperatureAngleRadians</text>
</a>
</g>
</g>
<!-- Node2&#45;&gt;Node3 -->
<g id="edge2" class="edge"><title>Node2&#45;&gt;Node3</title>
<path fill="none" stroke="midnightblue" d="M255.655,-59C270.567,-59 286.748,-59 302.195,-59"/>
<polygon fill="midnightblue" stroke="midnightblue" points="255.559,-55.5001 245.559,-59 255.559,-62.5001 255.559,-55.5001"/>
</g>
</g>
</svg>
