<?xml version="1.0" encoding="UTF-8" standalone="no"?>
<!DOCTYPE svg PUBLIC "-//W3C//DTD SVG 1.1//EN"
 "http://www.w3.org/Graphics/SVG/1.1/DTD/svg11.dtd">
<!-- Generated by graphviz version 2.36.0 (20140111.2315)
 -->
<!-- Title: HaddockCDKCamera.h Pages: 1 -->
<svg width="321pt" height="84pt"
 viewBox="0.00 0.00 321.00 84.00" xmlns="http://www.w3.org/2000/svg" xmlns:xlink="http://www.w3.org/1999/xlink">
<g id="graph0" class="graph" transform="scale(1 1) rotate(0) translate(4 80)">
<title>HaddockCDKCamera.h</title>
<!-- Node1 -->
<g id="node1" class="node"><title>Node1</title>
<polygon fill="#bfbfbf" stroke="black" points="88,-56.5 88,-75.5 208,-75.5 208,-56.5 88,-56.5"/>
<text text-anchor="middle" x="148" y="-63.5" font-family="Helvetica,sans-Serif" font-size="10.00">HaddockCDKCamera.h</text>
</g>
<!-- Node2 -->
<g id="node2" class="node"><title>Node2</title>
<g id="a_node2"><a xlink:href="a00262.xhtml" target="_top" xlink:title="HaddockCDKCamera.cpp">
<polygon fill="none" stroke="black" points="-0.5,-0.5 -0.5,-19.5 130.5,-19.5 130.5,-0.5 -0.5,-0.5"/>
<text text-anchor="middle" x="65" y="-7.5" font-family="Helvetica,sans-Serif" font-size="10.00">HaddockCDKCamera.cpp</text>
</a>
</g>
</g>
<!-- Node1&#45;&gt;Node2 -->
<g id="edge1" class="edge"><title>Node1&#45;&gt;Node2</title>
<path fill="none" stroke="midnightblue" d="M125.901,-50.6221C110.738,-40.7574 91.1172,-27.9919 78.3023,-19.6545"/>
<polygon fill="midnightblue" stroke="midnightblue" points="124.374,-53.8042 134.665,-56.324 128.191,-47.9367 124.374,-53.8042"/>
</g>
<!-- Node3 -->
<g id="node3" class="node"><title>Node3</title>
<g id="a_node3"><a xlink:href="a00264.xhtml" target="_top" xlink:title="HaddockCDKCameraFactory.cpp">
<polygon fill="none" stroke="black" points="149,-0.5 149,-19.5 313,-19.5 313,-0.5 149,-0.5"/>
<text text-anchor="middle" x="231" y="-7.5" font-family="Helvetica,sans-Serif" font-size="10.00">HaddockCDKCameraFactory.cpp</text>
</a>
</g>
</g>
<!-- Node1&#45;&gt;Node3 -->
<g id="edge2" class="edge"><title>Node1&#45;&gt;Node3</title>
<path fill="none" stroke="midnightblue" d="M170.099,-50.6221C185.262,-40.7574 204.883,-27.9919 217.698,-19.6545"/>
<polygon fill="midnightblue" stroke="midnightblue" points="167.809,-47.9367 161.335,-56.324 171.626,-53.8042 167.809,-47.9367"/>
</g>
</g>
</svg>
