<?xml version="1.0" encoding="UTF-8" standalone="no"?>
<!DOCTYPE svg PUBLIC "-//W3C//DTD SVG 1.1//EN"
 "http://www.w3.org/Graphics/SVG/1.1/DTD/svg11.dtd">
<!-- Generated by graphviz version 2.36.0 (20140111.2315)
 -->
<!-- Title: Convolve2D.cpp Pages: 1 -->
<svg width="1429pt" height="252pt"
 viewBox="0.00 0.00 1429.00 252.00" xmlns="http://www.w3.org/2000/svg" xmlns:xlink="http://www.w3.org/1999/xlink">
<g id="graph0" class="graph" transform="scale(1 1) rotate(0) translate(4 248)">
<title>Convolve2D.cpp</title>
<!-- Node1 -->
<g id="node1" class="node"><title>Node1</title>
<polygon fill="#bfbfbf" stroke="black" points="552.5,-224.5 552.5,-243.5 641.5,-243.5 641.5,-224.5 552.5,-224.5"/>
<text text-anchor="middle" x="597" y="-231.5" font-family="Helvetica,sans-Serif" font-size="10.00">Convolve2D.cpp</text>
</g>
<!-- Node2 -->
<g id="node2" class="node"><title>Node2</title>
<g id="a_node2"><a xlink:href="a00227.xhtml" target="_top" xlink:title="Convolve2D.h">
<polygon fill="none" stroke="black" points="600.5,-168.5 600.5,-187.5 679.5,-187.5 679.5,-168.5 600.5,-168.5"/>
<text text-anchor="middle" x="640" y="-175.5" font-family="Helvetica,sans-Serif" font-size="10.00">Convolve2D.h</text>
</a>
</g>
</g>
<!-- Node1&#45;&gt;Node2 -->
<g id="edge1" class="edge"><title>Node1&#45;&gt;Node2</title>
<path fill="none" stroke="midnightblue" d="M604.101,-224.083C610.237,-216.377 619.27,-205.033 626.739,-195.653"/>
<polygon fill="midnightblue" stroke="midnightblue" points="629.54,-197.754 633.032,-187.751 624.064,-193.394 629.54,-197.754"/>
</g>
<!-- Node25 -->
<g id="node25" class="node"><title>Node25</title>
<g id="a_node25"><a xlink:href="a00274.xhtml" target="_top" xlink:title="Logger.h">
<polygon fill="none" stroke="black" points="528,-168.5 528,-187.5 582,-187.5 582,-168.5 528,-168.5"/>
<text text-anchor="middle" x="555" y="-175.5" font-family="Helvetica,sans-Serif" font-size="10.00">Logger.h</text>
</a>
</g>
</g>
<!-- Node1&#45;&gt;Node25 -->
<g id="edge24" class="edge"><title>Node1&#45;&gt;Node25</title>
<path fill="none" stroke="midnightblue" d="M590.065,-224.083C584.071,-216.377 575.248,-205.033 567.952,-195.653"/>
<polygon fill="midnightblue" stroke="midnightblue" points="570.709,-193.496 561.806,-187.751 565.183,-197.793 570.709,-193.496"/>
</g>
<!-- Node3 -->
<g id="node3" class="node"><title>Node3</title>
<g id="a_node3"><a xlink:href="a00223.xhtml" target="_top" xlink:title="Common.h">
<polygon fill="none" stroke="black" points="607.5,-112.5 607.5,-131.5 672.5,-131.5 672.5,-112.5 607.5,-112.5"/>
<text text-anchor="middle" x="640" y="-119.5" font-family="Helvetica,sans-Serif" font-size="10.00">Common.h</text>
</a>
</g>
</g>
<!-- Node2&#45;&gt;Node3 -->
<g id="edge2" class="edge"><title>Node2&#45;&gt;Node3</title>
<path fill="none" stroke="midnightblue" d="M640,-168.083C640,-161.006 640,-150.861 640,-141.986"/>
<polygon fill="midnightblue" stroke="midnightblue" points="643.5,-141.751 640,-131.751 636.5,-141.751 643.5,-141.751"/>
</g>
<!-- Node4 -->
<g id="node4" class="node"><title>Node4</title>
<polygon fill="none" stroke="#bfbfbf" points="142,-56.5 142,-75.5 186,-75.5 186,-56.5 142,-56.5"/>
<text text-anchor="middle" x="164" y="-63.5" font-family="Helvetica,sans-Serif" font-size="10.00">vector</text>
</g>
<!-- Node3&#45;&gt;Node4 -->
<g id="edge3" class="edge"><title>Node3&#45;&gt;Node4</title>
<path fill="none" stroke="midnightblue" d="M607.411,-119.631C535.114,-116.181 355.794,-105.354 196.256,-75.6815"/>
<polygon fill="midnightblue" stroke="midnightblue" points="196.738,-72.2108 186.262,-73.7929 195.438,-79.0891 196.738,-72.2108"/>
</g>
<!-- Node5 -->
<g id="node5" class="node"><title>Node5</title>
<polygon fill="none" stroke="#bfbfbf" points="204.5,-56.5 204.5,-75.5 253.5,-75.5 253.5,-56.5 204.5,-56.5"/>
<text text-anchor="middle" x="229" y="-63.5" font-family="Helvetica,sans-Serif" font-size="10.00">stdint.h</text>
</g>
<!-- Node3&#45;&gt;Node5 -->
<g id="edge4" class="edge"><title>Node3&#45;&gt;Node5</title>
<path fill="none" stroke="midnightblue" d="M607.49,-118.661C543.51,-113.729 396.654,-100.775 263.741,-75.8825"/>
<polygon fill="midnightblue" stroke="midnightblue" points="264.268,-72.42 253.79,-73.9911 262.961,-79.2969 264.268,-72.42"/>
</g>
<!-- Node6 -->
<g id="node6" class="node"><title>Node6</title>
<polygon fill="none" stroke="#bfbfbf" points="271.5,-56.5 271.5,-75.5 312.5,-75.5 312.5,-56.5 271.5,-56.5"/>
<text text-anchor="middle" x="292" y="-63.5" font-family="Helvetica,sans-Serif" font-size="10.00">string</text>
</g>
<!-- Node3&#45;&gt;Node6 -->
<g id="edge5" class="edge"><title>Node3&#45;&gt;Node6</title>
<path fill="none" stroke="midnightblue" d="M607.208,-118.008C550.908,-112.517 432.159,-99.3874 322.456,-75.7768"/>
<polygon fill="midnightblue" stroke="midnightblue" points="323.067,-72.3277 312.55,-73.6103 321.571,-79.166 323.067,-72.3277"/>
</g>
<!-- Node7 -->
<g id="node7" class="node"><title>Node7</title>
<polygon fill="none" stroke="#bfbfbf" points="0,-56.5 0,-75.5 54,-75.5 54,-56.5 0,-56.5"/>
<text text-anchor="middle" x="27" y="-63.5" font-family="Helvetica,sans-Serif" font-size="10.00">iostream</text>
</g>
<!-- Node3&#45;&gt;Node7 -->
<g id="edge6" class="edge"><title>Node3&#45;&gt;Node7</title>
<path fill="none" stroke="midnightblue" d="M607.238,-120.359C520.223,-118.251 276.076,-109.698 64.0952,-75.8998"/>
<polygon fill="midnightblue" stroke="midnightblue" points="64.4565,-72.4129 54.0259,-74.2712 63.3388,-79.3231 64.4565,-72.4129"/>
</g>
<!-- Node8 -->
<g id="node8" class="node"><title>Node8</title>
<polygon fill="none" stroke="#bfbfbf" points="331,-56.5 331,-75.5 381,-75.5 381,-56.5 331,-56.5"/>
<text text-anchor="middle" x="356" y="-63.5" font-family="Helvetica,sans-Serif" font-size="10.00">fstream</text>
</g>
<!-- Node3&#45;&gt;Node8 -->
<g id="edge7" class="edge"><title>Node3&#45;&gt;Node8</title>
<path fill="none" stroke="midnightblue" d="M607.22,-115.858C559.459,-108.189 468.034,-92.8418 391,-76 390.9,-75.9782 390.801,-75.9564 390.701,-75.9344"/>
<polygon fill="midnightblue" stroke="midnightblue" points="391.717,-72.5776 381.183,-73.7094 390.123,-79.3939 391.717,-72.5776"/>
</g>
<!-- Node9 -->
<g id="node9" class="node"><title>Node9</title>
<polygon fill="none" stroke="#bfbfbf" points="72,-56.5 72,-75.5 124,-75.5 124,-56.5 72,-56.5"/>
<text text-anchor="middle" x="98" y="-63.5" font-family="Helvetica,sans-Serif" font-size="10.00">sstream</text>
</g>
<!-- Node3&#45;&gt;Node9 -->
<g id="edge8" class="edge"><title>Node3&#45;&gt;Node9</title>
<path fill="none" stroke="midnightblue" d="M607.437,-119.951C528.057,-117.002 318.215,-106.856 134.393,-75.9722"/>
<polygon fill="midnightblue" stroke="midnightblue" points="134.72,-72.4775 124.274,-74.2464 133.543,-79.3779 134.72,-72.4775"/>
</g>
<!-- Node10 -->
<g id="node10" class="node"><title>Node10</title>
<polygon fill="none" stroke="#bfbfbf" points="399.5,-56.5 399.5,-75.5 482.5,-75.5 482.5,-56.5 399.5,-56.5"/>
<text text-anchor="middle" x="441" y="-63.5" font-family="Helvetica,sans-Serif" font-size="10.00">unordered_map</text>
</g>
<!-- Node3&#45;&gt;Node10 -->
<g id="edge9" class="edge"><title>Node3&#45;&gt;Node10</title>
<path fill="none" stroke="midnightblue" d="M608.468,-112.444C574.408,-103.201 519.994,-88.4356 482.485,-78.2572"/>
<polygon fill="midnightblue" stroke="midnightblue" points="482.952,-74.7575 472.385,-75.5164 481.119,-81.5132 482.952,-74.7575"/>
</g>
<!-- Node11 -->
<g id="node11" class="node"><title>Node11</title>
<polygon fill="none" stroke="#bfbfbf" points="500.5,-56.5 500.5,-75.5 559.5,-75.5 559.5,-56.5 500.5,-56.5"/>
<text text-anchor="middle" x="530" y="-63.5" font-family="Helvetica,sans-Serif" font-size="10.00">functional</text>
</g>
<!-- Node3&#45;&gt;Node11 -->
<g id="edge10" class="edge"><title>Node3&#45;&gt;Node11</title>
<path fill="none" stroke="midnightblue" d="M622.327,-112.324C604.606,-103.625 577.097,-90.1202 556.712,-80.113"/>
<polygon fill="midnightblue" stroke="midnightblue" points="558.149,-76.9195 547.63,-75.6545 555.064,-83.2031 558.149,-76.9195"/>
</g>
<!-- Node12 -->
<g id="node12" class="node"><title>Node12</title>
<polygon fill="none" stroke="#bfbfbf" points="577.5,-56.5 577.5,-75.5 606.5,-75.5 606.5,-56.5 577.5,-56.5"/>
<text text-anchor="middle" x="592" y="-63.5" font-family="Helvetica,sans-Serif" font-size="10.00">list</text>
</g>
<!-- Node3&#45;&gt;Node12 -->
<g id="edge11" class="edge"><title>Node3&#45;&gt;Node12</title>
<path fill="none" stroke="midnightblue" d="M632.074,-112.083C625.154,-104.298 614.935,-92.8015 606.548,-83.3665"/>
<polygon fill="midnightblue" stroke="midnightblue" points="609.038,-80.8999 599.779,-75.7511 603.806,-85.5505 609.038,-80.8999"/>
</g>
<!-- Node13 -->
<g id="node13" class="node"><title>Node13</title>
<polygon fill="none" stroke="#bfbfbf" points="625,-56.5 625,-75.5 655,-75.5 655,-56.5 625,-56.5"/>
<text text-anchor="middle" x="640" y="-63.5" font-family="Helvetica,sans-Serif" font-size="10.00">set</text>
</g>
<!-- Node3&#45;&gt;Node13 -->
<g id="edge12" class="edge"><title>Node3&#45;&gt;Node13</title>
<path fill="none" stroke="midnightblue" d="M640,-112.083C640,-105.006 640,-94.8611 640,-85.9865"/>
<polygon fill="midnightblue" stroke="midnightblue" points="643.5,-85.751 640,-75.7511 636.5,-85.7511 643.5,-85.751"/>
</g>
<!-- Node14 -->
<g id="node14" class="node"><title>Node14</title>
<polygon fill="none" stroke="#bfbfbf" points="673,-56.5 673,-75.5 719,-75.5 719,-56.5 673,-56.5"/>
<text text-anchor="middle" x="696" y="-63.5" font-family="Helvetica,sans-Serif" font-size="10.00">atomic</text>
</g>
<!-- Node3&#45;&gt;Node14 -->
<g id="edge13" class="edge"><title>Node3&#45;&gt;Node14</title>
<path fill="none" stroke="midnightblue" d="M648.997,-112.324C657.194,-104.42 669.506,-92.5482 679.472,-82.9377"/>
<polygon fill="midnightblue" stroke="midnightblue" points="682.07,-85.2947 686.839,-75.8339 677.211,-80.2558 682.07,-85.2947"/>
</g>
<!-- Node15 -->
<g id="node15" class="node"><title>Node15</title>
<polygon fill="none" stroke="#bfbfbf" points="737,-56.5 737,-75.5 783,-75.5 783,-56.5 737,-56.5"/>
<text text-anchor="middle" x="760" y="-63.5" font-family="Helvetica,sans-Serif" font-size="10.00">cctype</text>
</g>
<!-- Node3&#45;&gt;Node15 -->
<g id="edge14" class="edge"><title>Node3&#45;&gt;Node15</title>
<path fill="none" stroke="midnightblue" d="M659.014,-112.444C678.588,-103.636 709.308,-89.8116 731.729,-79.722"/>
<polygon fill="midnightblue" stroke="midnightblue" points="733.392,-82.8119 741.075,-75.5164 730.519,-76.4284 733.392,-82.8119"/>
</g>
<!-- Node16 -->
<g id="node16" class="node"><title>Node16</title>
<polygon fill="none" stroke="#bfbfbf" points="801,-56.5 801,-75.5 857,-75.5 857,-56.5 801,-56.5"/>
<text text-anchor="middle" x="829" y="-63.5" font-family="Helvetica,sans-Serif" font-size="10.00">algorithm</text>
</g>
<!-- Node3&#45;&gt;Node16 -->
<g id="edge15" class="edge"><title>Node3&#45;&gt;Node16</title>
<path fill="none" stroke="midnightblue" d="M669.948,-112.444C702.632,-103.105 755.049,-88.1287 790.703,-77.9421"/>
<polygon fill="midnightblue" stroke="midnightblue" points="792.082,-81.1881 800.736,-75.0755 790.159,-74.4574 792.082,-81.1881"/>
</g>
<!-- Node17 -->
<g id="node17" class="node"><title>Node17</title>
<polygon fill="none" stroke="#bfbfbf" points="875.5,-56.5 875.5,-75.5 928.5,-75.5 928.5,-56.5 875.5,-56.5"/>
<text text-anchor="middle" x="902" y="-63.5" font-family="Helvetica,sans-Serif" font-size="10.00">complex</text>
</g>
<!-- Node3&#45;&gt;Node17 -->
<g id="edge16" class="edge"><title>Node3&#45;&gt;Node17</title>
<path fill="none" stroke="midnightblue" d="M672.504,-114.935C716.328,-106.658 796.742,-91.1206 865,-76 865.105,-75.9768 865.21,-75.9535 865.315,-75.9301"/>
<polygon fill="midnightblue" stroke="midnightblue" points="866.393,-79.2736 875.354,-73.6205 864.823,-72.4519 866.393,-79.2736"/>
</g>
<!-- Node18 -->
<g id="node18" class="node"><title>Node18</title>
<polygon fill="none" stroke="#bfbfbf" points="1377,-56.5 1377,-75.5 1421,-75.5 1421,-56.5 1377,-56.5"/>
<text text-anchor="middle" x="1399" y="-63.5" font-family="Helvetica,sans-Serif" font-size="10.00">thread</text>
</g>
<!-- Node3&#45;&gt;Node18 -->
<g id="edge17" class="edge"><title>Node3&#45;&gt;Node18</title>
<path fill="none" stroke="midnightblue" d="M672.527,-121.433C774.017,-122.269 1093.81,-121.015 1366.66,-75.6106"/>
<polygon fill="midnightblue" stroke="midnightblue" points="1367.48,-79.0225 1376.76,-73.907 1366.32,-72.1202 1367.48,-79.0225"/>
</g>
<!-- Node19 -->
<g id="node19" class="node"><title>Node19</title>
<g id="a_node19"><a xlink:href="a00291.xhtml" target="_top" xlink:title="Ptr.h">
<polygon fill="none" stroke="black" points="947,-56.5 947,-75.5 985,-75.5 985,-56.5 947,-56.5"/>
<text text-anchor="middle" x="966" y="-63.5" font-family="Helvetica,sans-Serif" font-size="10.00">Ptr.h</text>
</a>
</g>
</g>
<!-- Node3&#45;&gt;Node19 -->
<g id="edge18" class="edge"><title>Node3&#45;&gt;Node19</title>
<path fill="none" stroke="midnightblue" d="M672.824,-117.662C727.9,-111.699 842.204,-97.7609 937,-76 937.1,-75.9771 937.199,-75.9541 937.299,-75.9309"/>
<polygon fill="midnightblue" stroke="midnightblue" points="938.003,-79.3655 946.767,-73.4122 936.204,-72.6007 938.003,-79.3655"/>
</g>
<!-- Node21 -->
<g id="node21" class="node"><title>Node21</title>
<polygon fill="none" stroke="#bfbfbf" points="1003,-56.5 1003,-75.5 1047,-75.5 1047,-56.5 1003,-56.5"/>
<text text-anchor="middle" x="1025" y="-63.5" font-family="Helvetica,sans-Serif" font-size="10.00">mutex</text>
</g>
<!-- Node3&#45;&gt;Node21 -->
<g id="edge20" class="edge"><title>Node3&#45;&gt;Node21</title>
<path fill="none" stroke="midnightblue" d="M672.982,-118.538C734.246,-113.593 869.828,-100.911 992.793,-75.9634"/>
<polygon fill="midnightblue" stroke="midnightblue" points="993.666,-79.357 1002.75,-73.9095 992.253,-72.5012 993.666,-79.357"/>
</g>
<!-- Node22 -->
<g id="node22" class="node"><title>Node22</title>
<polygon fill="none" stroke="#bfbfbf" points="1065.5,-56.5 1065.5,-75.5 1160.5,-75.5 1160.5,-56.5 1065.5,-56.5"/>
<text text-anchor="middle" x="1113" y="-63.5" font-family="Helvetica,sans-Serif" font-size="10.00">condition_variable</text>
</g>
<!-- Node3&#45;&gt;Node22 -->
<g id="edge21" class="edge"><title>Node3&#45;&gt;Node22</title>
<path fill="none" stroke="midnightblue" d="M672.612,-117.978C742.712,-111.369 912.916,-94.717 1055,-76 1055.1,-75.9863 1055.21,-75.9725 1055.31,-75.9587"/>
<polygon fill="midnightblue" stroke="midnightblue" points="1055.8,-79.4242 1065.23,-74.5901 1054.85,-72.4898 1055.8,-79.4242"/>
</g>
<!-- Node23 -->
<g id="node23" class="node"><title>Node23</title>
<polygon fill="none" stroke="#bfbfbf" points="1179,-56.5 1179,-75.5 1257,-75.5 1257,-56.5 1179,-56.5"/>
<text text-anchor="middle" x="1218" y="-63.5" font-family="Helvetica,sans-Serif" font-size="10.00">VoxelConfig.h</text>
</g>
<!-- Node3&#45;&gt;Node23 -->
<g id="edge22" class="edge"><title>Node3&#45;&gt;Node23</title>
<path fill="none" stroke="midnightblue" d="M672.625,-119.326C754.293,-114.902 974.26,-101.541 1168.62,-75.9052"/>
<polygon fill="midnightblue" stroke="midnightblue" points="1169.29,-79.3477 1178.74,-74.5568 1168.36,-72.4091 1169.29,-79.3477"/>
</g>
<!-- Node24 -->
<g id="node24" class="node"><title>Node24</title>
<polygon fill="none" stroke="#bfbfbf" points="1275.5,-56.5 1275.5,-75.5 1358.5,-75.5 1358.5,-56.5 1275.5,-56.5"/>
<text text-anchor="middle" x="1317" y="-63.5" font-family="Helvetica,sans-Serif" font-size="10.00">VoxelExports.h</text>
</g>
<!-- Node3&#45;&gt;Node24 -->
<g id="edge23" class="edge"><title>Node3&#45;&gt;Node24</title>
<path fill="none" stroke="midnightblue" d="M672.7,-119.837C764.456,-116.321 1032.27,-104.335 1265.29,-75.9515"/>
<polygon fill="midnightblue" stroke="midnightblue" points="1265.81,-79.4139 1275.3,-74.7183 1264.95,-72.4663 1265.81,-79.4139"/>
</g>
<!-- Node20 -->
<g id="node20" class="node"><title>Node20</title>
<polygon fill="none" stroke="#bfbfbf" points="940,-0.5 940,-19.5 992,-19.5 992,-0.5 940,-0.5"/>
<text text-anchor="middle" x="966" y="-7.5" font-family="Helvetica,sans-Serif" font-size="10.00">memory</text>
</g>
<!-- Node19&#45;&gt;Node20 -->
<g id="edge19" class="edge"><title>Node19&#45;&gt;Node20</title>
<path fill="none" stroke="midnightblue" d="M966,-56.083C966,-49.0059 966,-38.8611 966,-29.9865"/>
<polygon fill="midnightblue" stroke="midnightblue" points="969.5,-29.751 966,-19.7511 962.5,-29.7511 969.5,-29.751"/>
</g>
<!-- Node25&#45;&gt;Node3 -->
<g id="edge28" class="edge"><title>Node25&#45;&gt;Node3</title>
<path fill="none" stroke="midnightblue" d="M568.657,-168.324C581.916,-159.9 602.268,-146.971 617.846,-137.074"/>
<polygon fill="midnightblue" stroke="midnightblue" points="619.813,-139.971 626.377,-131.655 616.06,-134.063 619.813,-139.971"/>
</g>
<!-- Node25&#45;&gt;Node7 -->
<g id="edge25" class="edge"><title>Node25&#45;&gt;Node7</title>
<path fill="none" stroke="midnightblue" d="M527.817,-173.403C478.15,-166.647 369.512,-151.011 279,-132 201.805,-115.786 112.7,-91.4571 63.8306,-77.622"/>
<polygon fill="midnightblue" stroke="midnightblue" points="64.6079,-74.2043 54.0318,-74.8357 62.6932,-80.9374 64.6079,-74.2043"/>
</g>
<!-- Node25&#45;&gt;Node9 -->
<g id="edge26" class="edge"><title>Node25&#45;&gt;Node9</title>
<path fill="none" stroke="midnightblue" d="M527.808,-170.659C462.065,-155.292 289.078,-114.645 134.073,-76.2383"/>
<polygon fill="midnightblue" stroke="midnightblue" points="134.91,-72.8399 124.361,-73.8291 133.224,-79.634 134.91,-72.8399"/>
</g>
<!-- Node25&#45;&gt;Node18 -->
<g id="edge27" class="edge"><title>Node25&#45;&gt;Node18</title>
<path fill="none" stroke="midnightblue" d="M582.401,-169.946C585.625,-169.231 588.877,-168.563 592,-168 930.109,-107.039 1024.99,-142.907 1366.8,-75.7097"/>
<polygon fill="midnightblue" stroke="midnightblue" points="1367.6,-79.1198 1376.73,-73.743 1366.24,-72.2533 1367.6,-79.1198"/>
</g>
</g>
</svg>
