<?xml version="1.0" encoding="UTF-8" standalone="no"?>
<!DOCTYPE svg PUBLIC "-//W3C//DTD SVG 1.1//EN"
 "http://www.w3.org/Graphics/SVG/1.1/DTD/svg11.dtd">
<!-- Generated by graphviz version 2.36.0 (20140111.2315)
 -->
<!-- Title: FilterFactory.h Pages: 1 -->
<svg width="1261pt" height="252pt"
 viewBox="0.00 0.00 1261.00 252.00" xmlns="http://www.w3.org/2000/svg" xmlns:xlink="http://www.w3.org/1999/xlink">
<g id="graph0" class="graph" transform="scale(1 1) rotate(0) translate(4 248)">
<title>FilterFactory.h</title>
<!-- Node1 -->
<g id="node1" class="node"><title>Node1</title>
<polygon fill="#bfbfbf" stroke="black" points="874,-224.5 874,-243.5 954,-243.5 954,-224.5 874,-224.5"/>
<text text-anchor="middle" x="914" y="-231.5" font-family="Helvetica,sans-Serif" font-size="10.00">FilterFactory.h</text>
</g>
<!-- Node2 -->
<g id="node2" class="node"><title>Node2</title>
<g id="a_node2"><a xlink:href="a00237.xhtml" target="_top" xlink:title="DepthCameraLibrary.h">
<polygon fill="none" stroke="black" points="694.5,-168.5 694.5,-187.5 809.5,-187.5 809.5,-168.5 694.5,-168.5"/>
<text text-anchor="middle" x="752" y="-175.5" font-family="Helvetica,sans-Serif" font-size="10.00">DepthCameraLibrary.h</text>
</a>
</g>
</g>
<!-- Node1&#45;&gt;Node2 -->
<g id="edge1" class="edge"><title>Node1&#45;&gt;Node2</title>
<path fill="none" stroke="midnightblue" d="M878.516,-221.172C848.012,-211.004 804.755,-196.585 777.549,-187.516"/>
<polygon fill="midnightblue" stroke="midnightblue" points="877.737,-224.602 888.331,-224.444 879.951,-217.961 877.737,-224.602"/>
</g>
<!-- Node15 -->
<g id="node15" class="node"><title>Node15</title>
<g id="a_node15"><a xlink:href="a00252.xhtml" target="_top" xlink:title="FilterFactory.cpp">
<polygon fill="none" stroke="black" points="869,-168.5 869,-187.5 959,-187.5 959,-168.5 869,-168.5"/>
<text text-anchor="middle" x="914" y="-175.5" font-family="Helvetica,sans-Serif" font-size="10.00">FilterFactory.cpp</text>
</a>
</g>
</g>
<!-- Node1&#45;&gt;Node15 -->
<g id="edge15" class="edge"><title>Node1&#45;&gt;Node15</title>
<path fill="none" stroke="midnightblue" d="M914,-213.805C914,-204.91 914,-194.78 914,-187.751"/>
<polygon fill="midnightblue" stroke="midnightblue" points="910.5,-214.083 914,-224.083 917.5,-214.083 910.5,-214.083"/>
</g>
<!-- Node16 -->
<g id="node16" class="node"><title>Node16</title>
<g id="a_node16"><a xlink:href="a00371.xhtml" target="_top" xlink:title="VoxelFilterFactory.h">
<polygon fill="none" stroke="black" points="1058,-168.5 1058,-187.5 1162,-187.5 1162,-168.5 1058,-168.5"/>
<text text-anchor="middle" x="1110" y="-175.5" font-family="Helvetica,sans-Serif" font-size="10.00">VoxelFilterFactory.h</text>
</a>
</g>
</g>
<!-- Node1&#45;&gt;Node16 -->
<g id="edge16" class="edge"><title>Node1&#45;&gt;Node16</title>
<path fill="none" stroke="midnightblue" d="M955.02,-221.699C992.011,-211.507 1045.6,-196.743 1079.09,-187.516"/>
<polygon fill="midnightblue" stroke="midnightblue" points="953.768,-218.413 945.057,-224.444 955.627,-225.162 953.768,-218.413"/>
</g>
<!-- Node3 -->
<g id="node3" class="node"><title>Node3</title>
<g id="a_node3"><a xlink:href="a00214.xhtml" target="_top" xlink:title="CameraSystem.h">
<polygon fill="none" stroke="black" points="558.5,-112.5 558.5,-131.5 651.5,-131.5 651.5,-112.5 558.5,-112.5"/>
<text text-anchor="middle" x="605" y="-119.5" font-family="Helvetica,sans-Serif" font-size="10.00">CameraSystem.h</text>
</a>
</g>
</g>
<!-- Node2&#45;&gt;Node3 -->
<g id="edge2" class="edge"><title>Node2&#45;&gt;Node3</title>
<path fill="none" stroke="midnightblue" d="M719.077,-164.906C691.44,-154.754 652.656,-140.506 628.184,-131.516"/>
<polygon fill="midnightblue" stroke="midnightblue" points="718.114,-168.281 728.707,-168.444 720.528,-161.71 718.114,-168.281"/>
</g>
<!-- Node14 -->
<g id="node14" class="node"><title>Node14</title>
<g id="a_node14"><a xlink:href="a00236.xhtml" target="_top" xlink:title="DepthCameraLibrary.cpp">
<polygon fill="none" stroke="black" points="689.5,-112.5 689.5,-131.5 814.5,-131.5 814.5,-112.5 689.5,-112.5"/>
<text text-anchor="middle" x="752" y="-119.5" font-family="Helvetica,sans-Serif" font-size="10.00">DepthCameraLibrary.cpp</text>
</a>
</g>
</g>
<!-- Node2&#45;&gt;Node14 -->
<g id="edge14" class="edge"><title>Node2&#45;&gt;Node14</title>
<path fill="none" stroke="midnightblue" d="M752,-157.805C752,-148.91 752,-138.78 752,-131.751"/>
<polygon fill="midnightblue" stroke="midnightblue" points="748.5,-158.083 752,-168.083 755.5,-158.083 748.5,-158.083"/>
</g>
<!-- Node4 -->
<g id="node4" class="node"><title>Node4</title>
<g id="a_node4"><a xlink:href="a00221.xhtml" target="_top" xlink:title="CLIManager.h">
<polygon fill="none" stroke="black" points="39,-56.5 39,-75.5 117,-75.5 117,-56.5 39,-56.5"/>
<text text-anchor="middle" x="78" y="-63.5" font-family="Helvetica,sans-Serif" font-size="10.00">CLIManager.h</text>
</a>
</g>
</g>
<!-- Node3&#45;&gt;Node4 -->
<g id="edge3" class="edge"><title>Node3&#45;&gt;Node4</title>
<path fill="none" stroke="midnightblue" d="M548.293,-116.972C459.218,-110.34 281.167,-95.8508 131,-76 126.466,-75.4007 121.726,-74.701 117.025,-73.9615"/>
<polygon fill="midnightblue" stroke="midnightblue" points="548.217,-120.476 558.448,-117.723 548.733,-113.495 548.217,-120.476"/>
</g>
<!-- Node6 -->
<g id="node6" class="node"><title>Node6</title>
<g id="a_node6"><a xlink:href="a00365.xhtml" target="_top" xlink:title="VoxelCLI.cpp">
<polygon fill="none" stroke="black" points="107,-0.5 107,-19.5 183,-19.5 183,-0.5 107,-0.5"/>
<text text-anchor="middle" x="145" y="-7.5" font-family="Helvetica,sans-Serif" font-size="10.00">VoxelCLI.cpp</text>
</a>
</g>
</g>
<!-- Node3&#45;&gt;Node6 -->
<g id="edge7" class="edge"><title>Node3&#45;&gt;Node6</title>
<path fill="none" stroke="midnightblue" d="M548.259,-118.709C435.808,-113.669 192.97,-100.108 164,-76 147.191,-62.0121 144.778,-34.0373 144.715,-19.7844"/>
<polygon fill="midnightblue" stroke="midnightblue" points="548.255,-122.212 558.399,-119.156 548.563,-115.219 548.255,-122.212"/>
</g>
<!-- Node7 -->
<g id="node7" class="node"><title>Node7</title>
<g id="a_node7"><a xlink:href="a00301.xhtml" target="_top" xlink:title="SimpleVoxelViewer.cpp">
<polygon fill="none" stroke="black" points="173,-56.5 173,-75.5 293,-75.5 293,-56.5 173,-56.5"/>
<text text-anchor="middle" x="233" y="-63.5" font-family="Helvetica,sans-Serif" font-size="10.00">SimpleVoxelViewer.cpp</text>
</a>
</g>
</g>
<!-- Node3&#45;&gt;Node7 -->
<g id="edge6" class="edge"><title>Node3&#45;&gt;Node7</title>
<path fill="none" stroke="midnightblue" d="M547.96,-112.72C478.555,-102.645 361.976,-85.7224 291.79,-75.5341"/>
<polygon fill="midnightblue" stroke="midnightblue" points="547.864,-116.243 558.263,-114.216 548.869,-109.315 547.864,-116.243"/>
</g>
<!-- Node8 -->
<g id="node8" class="node"><title>Node8</title>
<g id="a_node8"><a xlink:href="a00216.xhtml" target="_top" xlink:title="CameraSystemReadStreamTest.cpp">
<polygon fill="none" stroke="black" points="311,-56.5 311,-75.5 489,-75.5 489,-56.5 311,-56.5"/>
<text text-anchor="middle" x="400" y="-63.5" font-family="Helvetica,sans-Serif" font-size="10.00">CameraSystemReadStreamTest.cpp</text>
</a>
</g>
</g>
<!-- Node3&#45;&gt;Node8 -->
<g id="edge8" class="edge"><title>Node3&#45;&gt;Node8</title>
<path fill="none" stroke="midnightblue" d="M562.592,-109.829C523.886,-99.6333 467.507,-84.7823 432.331,-75.5164"/>
<polygon fill="midnightblue" stroke="midnightblue" points="561.955,-113.281 572.517,-112.444 563.739,-106.512 561.955,-113.281"/>
</g>
<!-- Node9 -->
<g id="node9" class="node"><title>Node9</title>
<g id="a_node9"><a xlink:href="a00217.xhtml" target="_top" xlink:title="CameraSystemSaveStreamTest.cpp">
<polygon fill="none" stroke="black" points="506.5,-56.5 506.5,-75.5 683.5,-75.5 683.5,-56.5 506.5,-56.5"/>
<text text-anchor="middle" x="595" y="-63.5" font-family="Helvetica,sans-Serif" font-size="10.00">CameraSystemSaveStreamTest.cpp</text>
</a>
</g>
</g>
<!-- Node3&#45;&gt;Node9 -->
<g id="edge9" class="edge"><title>Node3&#45;&gt;Node9</title>
<path fill="none" stroke="midnightblue" d="M601.5,-102.101C599.84,-93.1357 597.937,-82.8579 596.621,-75.7511"/>
<polygon fill="midnightblue" stroke="midnightblue" points="598.086,-102.888 603.349,-112.083 604.969,-101.613 598.086,-102.888"/>
</g>
<!-- Node10 -->
<g id="node10" class="node"><title>Node10</title>
<g id="a_node10"><a xlink:href="a00218.xhtml" target="_top" xlink:title="CameraSystemTest.cpp">
<polygon fill="none" stroke="black" points="701.5,-56.5 701.5,-75.5 824.5,-75.5 824.5,-56.5 701.5,-56.5"/>
<text text-anchor="middle" x="763" y="-63.5" font-family="Helvetica,sans-Serif" font-size="10.00">CameraSystemTest.cpp</text>
</a>
</g>
</g>
<!-- Node3&#45;&gt;Node10 -->
<g id="edge10" class="edge"><title>Node3&#45;&gt;Node10</title>
<path fill="none" stroke="midnightblue" d="M639.608,-109.172C669.359,-99.0039 711.547,-84.5852 738.082,-75.5164"/>
<polygon fill="midnightblue" stroke="midnightblue" points="638.366,-105.898 630.036,-112.444 640.63,-112.521 638.366,-105.898"/>
</g>
<!-- Node11 -->
<g id="node11" class="node"><title>Node11</title>
<g id="a_node11"><a xlink:href="a00300.xhtml" target="_top" xlink:title="SerialNumber.cpp">
<polygon fill="none" stroke="black" points="842.5,-56.5 842.5,-75.5 937.5,-75.5 937.5,-56.5 842.5,-56.5"/>
<text text-anchor="middle" x="890" y="-63.5" font-family="Helvetica,sans-Serif" font-size="10.00">SerialNumber.cpp</text>
</a>
</g>
</g>
<!-- Node3&#45;&gt;Node11 -->
<g id="edge11" class="edge"><title>Node3&#45;&gt;Node11</title>
<path fill="none" stroke="midnightblue" d="M660.221,-110.537C714.083,-100.332 795.004,-84.9992 845.052,-75.5164"/>
<polygon fill="midnightblue" stroke="midnightblue" points="659.333,-107.143 650.159,-112.444 660.636,-114.021 659.333,-107.143"/>
</g>
<!-- Node12 -->
<g id="node12" class="node"><title>Node12</title>
<g id="a_node12"><a xlink:href="a00213.xhtml" target="_top" xlink:title="CameraSystem.cpp">
<polygon fill="none" stroke="black" points="1069,-56.5 1069,-75.5 1173,-75.5 1173,-56.5 1069,-56.5"/>
<text text-anchor="middle" x="1121" y="-63.5" font-family="Helvetica,sans-Serif" font-size="10.00">CameraSystem.cpp</text>
</a>
</g>
</g>
<!-- Node3&#45;&gt;Node12 -->
<g id="edge12" class="edge"><title>Node3&#45;&gt;Node12</title>
<path fill="none" stroke="midnightblue" d="M661.968,-114.014C668.053,-113.313 674.153,-112.628 680,-112 848.234,-93.9188 891.003,-96.1596 1059,-76 1062.24,-75.6112 1065.57,-75.19 1068.93,-74.7492"/>
<polygon fill="midnightblue" stroke="midnightblue" points="661.315,-110.567 651.789,-115.204 662.128,-117.519 661.315,-110.567"/>
</g>
<!-- Node13 -->
<g id="node13" class="node"><title>Node13</title>
<g id="a_node13"><a xlink:href="a00260.xhtml" target="_top" xlink:title="FrameStream.cpp">
<polygon fill="none" stroke="black" points="955.5,-56.5 955.5,-75.5 1050.5,-75.5 1050.5,-56.5 955.5,-56.5"/>
<text text-anchor="middle" x="1003" y="-63.5" font-family="Helvetica,sans-Serif" font-size="10.00">FrameStream.cpp</text>
</a>
</g>
</g>
<!-- Node3&#45;&gt;Node13 -->
<g id="edge13" class="edge"><title>Node3&#45;&gt;Node13</title>
<path fill="none" stroke="midnightblue" d="M661.692,-113.966C729.409,-105.461 846.084,-90.4785 946,-76 949.074,-75.5546 952.239,-75.0851 955.428,-74.6039"/>
<polygon fill="midnightblue" stroke="midnightblue" points="661.146,-110.507 651.659,-115.224 662.017,-117.453 661.146,-110.507"/>
</g>
<!-- Node5 -->
<g id="node5" class="node"><title>Node5</title>
<g id="a_node5"><a xlink:href="a00220.xhtml" target="_top" xlink:title="CLIManager.cpp">
<polygon fill="none" stroke="black" points="-0.5,-0.5 -0.5,-19.5 88.5,-19.5 88.5,-0.5 -0.5,-0.5"/>
<text text-anchor="middle" x="44" y="-7.5" font-family="Helvetica,sans-Serif" font-size="10.00">CLIManager.cpp</text>
</a>
</g>
</g>
<!-- Node4&#45;&gt;Node5 -->
<g id="edge4" class="edge"><title>Node4&#45;&gt;Node5</title>
<path fill="none" stroke="midnightblue" d="M67.0228,-47.5656C61.173,-38.2747 54.2305,-27.2484 49.5099,-19.7511"/>
<polygon fill="midnightblue" stroke="midnightblue" points="64.0956,-49.4855 72.3856,-56.083 70.0192,-45.7558 64.0956,-49.4855"/>
</g>
<!-- Node4&#45;&gt;Node6 -->
<g id="edge5" class="edge"><title>Node4&#45;&gt;Node6</title>
<path fill="none" stroke="midnightblue" d="M96.8348,-49.8197C108.838,-40.1452 123.972,-27.9481 134.039,-19.8339"/>
<polygon fill="midnightblue" stroke="midnightblue" points="94.3543,-47.3236 88.7647,-56.324 98.747,-52.7738 94.3543,-47.3236"/>
</g>
<!-- Node16&#45;&gt;Node12 -->
<g id="edge17" class="edge"><title>Node16&#45;&gt;Node12</title>
<path fill="none" stroke="midnightblue" d="M1111.87,-158.348C1114.27,-134.254 1118.37,-93.3079 1120.14,-75.5914"/>
<polygon fill="midnightblue" stroke="midnightblue" points="1108.38,-158.07 1110.86,-168.368 1115.34,-158.766 1108.38,-158.07"/>
</g>
<!-- Node17 -->
<g id="node17" class="node"><title>Node17</title>
<g id="a_node17"><a xlink:href="a00370.xhtml" target="_top" xlink:title="VoxelFilterFactory.cpp">
<polygon fill="none" stroke="black" points="1138.5,-112.5 1138.5,-131.5 1253.5,-131.5 1253.5,-112.5 1138.5,-112.5"/>
<text text-anchor="middle" x="1196" y="-119.5" font-family="Helvetica,sans-Serif" font-size="10.00">VoxelFilterFactory.cpp</text>
</a>
</g>
</g>
<!-- Node16&#45;&gt;Node17 -->
<g id="edge18" class="edge"><title>Node16&#45;&gt;Node17</title>
<path fill="none" stroke="midnightblue" d="M1132.45,-162.901C1148.22,-152.999 1168.81,-140.071 1182.22,-131.655"/>
<polygon fill="midnightblue" stroke="midnightblue" points="1130.43,-160.042 1123.82,-168.324 1134.15,-165.97 1130.43,-160.042"/>
</g>
</g>
</svg>
