<?xml version="1.0" encoding="UTF-8" standalone="no"?>
<!DOCTYPE svg PUBLIC "-//W3C//DTD SVG 1.1//EN"
 "http://www.w3.org/Graphics/SVG/1.1/DTD/svg11.dtd">
<!-- Generated by graphviz version 2.36.0 (20140111.2315)
 -->
<!-- Title: DownloaderFactory.h Pages: 1 -->
<svg width="1181pt" height="252pt"
 viewBox="0.00 0.00 1181.00 252.00" xmlns="http://www.w3.org/2000/svg" xmlns:xlink="http://www.w3.org/1999/xlink">
<g id="graph0" class="graph" transform="scale(1 1) rotate(0) translate(4 248)">
<title>DownloaderFactory.h</title>
<!-- Node1 -->
<g id="node1" class="node"><title>Node1</title>
<polygon fill="#bfbfbf" stroke="black" points="529,-224.5 529,-243.5 639,-243.5 639,-224.5 529,-224.5"/>
<text text-anchor="middle" x="584" y="-231.5" font-family="Helvetica,sans-Serif" font-size="10.00">DownloaderFactory.h</text>
</g>
<!-- Node2 -->
<g id="node2" class="node"><title>Node2</title>
<g id="a_node2"><a xlink:href="a00315.xhtml" target="_top" xlink:title="TintinCDKDownloaderFactory.h">
<polygon fill="none" stroke="black" points="379.5,-168.5 379.5,-187.5 534.5,-187.5 534.5,-168.5 379.5,-168.5"/>
<text text-anchor="middle" x="457" y="-175.5" font-family="Helvetica,sans-Serif" font-size="10.00">TintinCDKDownloaderFactory.h</text>
</a>
</g>
</g>
<!-- Node1&#45;&gt;Node2 -->
<g id="edge1" class="edge"><title>Node1&#45;&gt;Node2</title>
<path fill="none" stroke="midnightblue" d="M554.609,-220.503C530.8,-210.38 497.894,-196.388 477.029,-187.516"/>
<polygon fill="midnightblue" stroke="midnightblue" points="553.304,-223.751 563.876,-224.444 556.043,-217.31 553.304,-223.751"/>
</g>
<!-- Node4 -->
<g id="node4" class="node"><title>Node4</title>
<g id="a_node4"><a xlink:href="a00214.xhtml" target="_top" xlink:title="CameraSystem.h">
<polygon fill="none" stroke="black" points="548.5,-112.5 548.5,-131.5 641.5,-131.5 641.5,-112.5 548.5,-112.5"/>
<text text-anchor="middle" x="595" y="-119.5" font-family="Helvetica,sans-Serif" font-size="10.00">CameraSystem.h</text>
</a>
</g>
</g>
<!-- Node1&#45;&gt;Node4 -->
<g id="edge3" class="edge"><title>Node1&#45;&gt;Node4</title>
<path fill="none" stroke="midnightblue" d="M585.865,-214.348C588.275,-190.254 592.369,-149.308 594.141,-131.591"/>
<polygon fill="midnightblue" stroke="midnightblue" points="582.376,-214.07 584.863,-224.368 589.341,-214.766 582.376,-214.07"/>
</g>
<!-- Node15 -->
<g id="node15" class="node"><title>Node15</title>
<g id="a_node15"><a xlink:href="a00237.xhtml" target="_top" xlink:title="DepthCameraLibrary.h">
<polygon fill="none" stroke="black" points="612.5,-168.5 612.5,-187.5 727.5,-187.5 727.5,-168.5 612.5,-168.5"/>
<text text-anchor="middle" x="670" y="-175.5" font-family="Helvetica,sans-Serif" font-size="10.00">DepthCameraLibrary.h</text>
</a>
</g>
</g>
<!-- Node1&#45;&gt;Node15 -->
<g id="edge15" class="edge"><title>Node1&#45;&gt;Node15</title>
<path fill="none" stroke="midnightblue" d="M606.455,-218.901C622.224,-208.999 642.814,-196.071 656.217,-187.655"/>
<polygon fill="midnightblue" stroke="midnightblue" points="604.425,-216.042 597.817,-224.324 608.148,-221.97 604.425,-216.042"/>
</g>
<!-- Node3 -->
<g id="node3" class="node"><title>Node3</title>
<g id="a_node3"><a xlink:href="a00314.xhtml" target="_top" xlink:title="TintinCDKDownloaderFactory.cpp">
<polygon fill="none" stroke="black" points="364,-112.5 364,-131.5 530,-131.5 530,-112.5 364,-112.5"/>
<text text-anchor="middle" x="447" y="-119.5" font-family="Helvetica,sans-Serif" font-size="10.00">TintinCDKDownloaderFactory.cpp</text>
</a>
</g>
</g>
<!-- Node2&#45;&gt;Node3 -->
<g id="edge2" class="edge"><title>Node2&#45;&gt;Node3</title>
<path fill="none" stroke="midnightblue" d="M453.5,-158.101C451.84,-149.136 449.937,-138.858 448.621,-131.751"/>
<polygon fill="midnightblue" stroke="midnightblue" points="450.086,-158.888 455.349,-168.083 456.969,-157.613 450.086,-158.888"/>
</g>
<!-- Node5 -->
<g id="node5" class="node"><title>Node5</title>
<g id="a_node5"><a xlink:href="a00221.xhtml" target="_top" xlink:title="CLIManager.h">
<polygon fill="none" stroke="black" points="39,-56.5 39,-75.5 117,-75.5 117,-56.5 39,-56.5"/>
<text text-anchor="middle" x="78" y="-63.5" font-family="Helvetica,sans-Serif" font-size="10.00">CLIManager.h</text>
</a>
</g>
</g>
<!-- Node4&#45;&gt;Node5 -->
<g id="edge4" class="edge"><title>Node4&#45;&gt;Node5</title>
<path fill="none" stroke="midnightblue" d="M538.129,-111.985C356.618,-89.8832 308.284,-98.8364 131,-76 126.464,-75.4157 121.723,-74.7254 117.021,-73.991"/>
<polygon fill="midnightblue" stroke="midnightblue" points="537.932,-115.487 548.285,-113.237 538.788,-108.539 537.932,-115.487"/>
</g>
<!-- Node7 -->
<g id="node7" class="node"><title>Node7</title>
<g id="a_node7"><a xlink:href="a00365.xhtml" target="_top" xlink:title="VoxelCLI.cpp">
<polygon fill="none" stroke="black" points="107,-0.5 107,-19.5 183,-19.5 183,-0.5 107,-0.5"/>
<text text-anchor="middle" x="145" y="-7.5" font-family="Helvetica,sans-Serif" font-size="10.00">VoxelCLI.cpp</text>
</a>
</g>
</g>
<!-- Node4&#45;&gt;Node7 -->
<g id="edge8" class="edge"><title>Node4&#45;&gt;Node7</title>
<path fill="none" stroke="midnightblue" d="M538.057,-112.15C440.172,-103.221 226.242,-127.481 164,-76 147.149,-62.0624 144.755,-34.0648 144.705,-19.7957"/>
<polygon fill="midnightblue" stroke="midnightblue" points="537.961,-115.66 548.281,-113.264 538.719,-108.702 537.961,-115.66"/>
</g>
<!-- Node8 -->
<g id="node8" class="node"><title>Node8</title>
<g id="a_node8"><a xlink:href="a00301.xhtml" target="_top" xlink:title="SimpleVoxelViewer.cpp">
<polygon fill="none" stroke="black" points="173,-56.5 173,-75.5 293,-75.5 293,-56.5 173,-56.5"/>
<text text-anchor="middle" x="233" y="-63.5" font-family="Helvetica,sans-Serif" font-size="10.00">SimpleVoxelViewer.cpp</text>
</a>
</g>
</g>
<!-- Node4&#45;&gt;Node8 -->
<g id="edge7" class="edge"><title>Node4&#45;&gt;Node8</title>
<path fill="none" stroke="midnightblue" d="M538.24,-111.9C446.495,-97.8233 352.077,-84.086 292.556,-75.5183"/>
<polygon fill="midnightblue" stroke="midnightblue" points="537.841,-115.38 548.256,-113.44 538.904,-108.461 537.841,-115.38"/>
</g>
<!-- Node9 -->
<g id="node9" class="node"><title>Node9</title>
<g id="a_node9"><a xlink:href="a00216.xhtml" target="_top" xlink:title="CameraSystemReadStreamTest.cpp">
<polygon fill="none" stroke="black" points="311,-56.5 311,-75.5 489,-75.5 489,-56.5 311,-56.5"/>
<text text-anchor="middle" x="400" y="-63.5" font-family="Helvetica,sans-Serif" font-size="10.00">CameraSystemReadStreamTest.cpp</text>
</a>
</g>
</g>
<!-- Node4&#45;&gt;Node9 -->
<g id="edge9" class="edge"><title>Node4&#45;&gt;Node9</title>
<path fill="none" stroke="midnightblue" d="M554.19,-109.699C517.387,-99.507 464.071,-84.7429 430.754,-75.5164"/>
<polygon fill="midnightblue" stroke="midnightblue" points="553.53,-113.148 564.102,-112.444 555.398,-106.402 553.53,-113.148"/>
</g>
<!-- Node10 -->
<g id="node10" class="node"><title>Node10</title>
<g id="a_node10"><a xlink:href="a00217.xhtml" target="_top" xlink:title="CameraSystemSaveStreamTest.cpp">
<polygon fill="none" stroke="black" points="506.5,-56.5 506.5,-75.5 683.5,-75.5 683.5,-56.5 506.5,-56.5"/>
<text text-anchor="middle" x="595" y="-63.5" font-family="Helvetica,sans-Serif" font-size="10.00">CameraSystemSaveStreamTest.cpp</text>
</a>
</g>
</g>
<!-- Node4&#45;&gt;Node10 -->
<g id="edge10" class="edge"><title>Node4&#45;&gt;Node10</title>
<path fill="none" stroke="midnightblue" d="M595,-101.805C595,-92.9102 595,-82.7798 595,-75.7511"/>
<polygon fill="midnightblue" stroke="midnightblue" points="591.5,-102.083 595,-112.083 598.5,-102.083 591.5,-102.083"/>
</g>
<!-- Node11 -->
<g id="node11" class="node"><title>Node11</title>
<g id="a_node11"><a xlink:href="a00218.xhtml" target="_top" xlink:title="CameraSystemTest.cpp">
<polygon fill="none" stroke="black" points="701.5,-56.5 701.5,-75.5 824.5,-75.5 824.5,-56.5 701.5,-56.5"/>
<text text-anchor="middle" x="763" y="-63.5" font-family="Helvetica,sans-Serif" font-size="10.00">CameraSystemTest.cpp</text>
</a>
</g>
</g>
<!-- Node4&#45;&gt;Node11 -->
<g id="edge11" class="edge"><title>Node4&#45;&gt;Node11</title>
<path fill="none" stroke="midnightblue" d="M631.386,-109.304C663.042,-99.1294 708.168,-84.6246 736.504,-75.5164"/>
<polygon fill="midnightblue" stroke="midnightblue" points="630.069,-106.051 621.62,-112.444 632.211,-112.715 630.069,-106.051"/>
</g>
<!-- Node12 -->
<g id="node12" class="node"><title>Node12</title>
<g id="a_node12"><a xlink:href="a00300.xhtml" target="_top" xlink:title="SerialNumber.cpp">
<polygon fill="none" stroke="black" points="842.5,-56.5 842.5,-75.5 937.5,-75.5 937.5,-56.5 842.5,-56.5"/>
<text text-anchor="middle" x="890" y="-63.5" font-family="Helvetica,sans-Serif" font-size="10.00">SerialNumber.cpp</text>
</a>
</g>
</g>
<!-- Node4&#45;&gt;Node12 -->
<g id="edge12" class="edge"><title>Node4&#45;&gt;Node12</title>
<path fill="none" stroke="midnightblue" d="M651.811,-110.601C707.563,-100.395 791.564,-85.0189 843.475,-75.5164"/>
<polygon fill="midnightblue" stroke="midnightblue" points="650.95,-107.2 641.744,-112.444 652.21,-114.086 650.95,-107.2"/>
</g>
<!-- Node13 -->
<g id="node13" class="node"><title>Node13</title>
<g id="a_node13"><a xlink:href="a00213.xhtml" target="_top" xlink:title="CameraSystem.cpp">
<polygon fill="none" stroke="black" points="956,-56.5 956,-75.5 1060,-75.5 1060,-56.5 956,-56.5"/>
<text text-anchor="middle" x="1008" y="-63.5" font-family="Helvetica,sans-Serif" font-size="10.00">CameraSystem.cpp</text>
</a>
</g>
</g>
<!-- Node4&#45;&gt;Node13 -->
<g id="edge13" class="edge"><title>Node4&#45;&gt;Node13</title>
<path fill="none" stroke="midnightblue" d="M651.801,-111.936C783.468,-93.5055 818.275,-93.0615 946,-76 949.234,-75.568 952.562,-75.1136 955.917,-74.648"/>
<polygon fill="midnightblue" stroke="midnightblue" points="651.145,-108.494 641.731,-113.354 652.121,-115.425 651.145,-108.494"/>
</g>
<!-- Node14 -->
<g id="node14" class="node"><title>Node14</title>
<g id="a_node14"><a xlink:href="a00260.xhtml" target="_top" xlink:title="FrameStream.cpp">
<polygon fill="none" stroke="black" points="1078.5,-56.5 1078.5,-75.5 1173.5,-75.5 1173.5,-56.5 1078.5,-56.5"/>
<text text-anchor="middle" x="1126" y="-63.5" font-family="Helvetica,sans-Serif" font-size="10.00">FrameStream.cpp</text>
</a>
</g>
</g>
<!-- Node4&#45;&gt;Node14 -->
<g id="edge14" class="edge"><title>Node4&#45;&gt;Node14</title>
<path fill="none" stroke="midnightblue" d="M651.829,-111.992C837.789,-89.51 887.157,-98.1584 1069,-76 1072.08,-75.6243 1075.26,-75.2077 1078.45,-74.7655"/>
<polygon fill="midnightblue" stroke="midnightblue" points="651.216,-108.541 641.714,-113.229 652.065,-115.489 651.216,-108.541"/>
</g>
<!-- Node6 -->
<g id="node6" class="node"><title>Node6</title>
<g id="a_node6"><a xlink:href="a00220.xhtml" target="_top" xlink:title="CLIManager.cpp">
<polygon fill="none" stroke="black" points="-0.5,-0.5 -0.5,-19.5 88.5,-19.5 88.5,-0.5 -0.5,-0.5"/>
<text text-anchor="middle" x="44" y="-7.5" font-family="Helvetica,sans-Serif" font-size="10.00">CLIManager.cpp</text>
</a>
</g>
</g>
<!-- Node5&#45;&gt;Node6 -->
<g id="edge5" class="edge"><title>Node5&#45;&gt;Node6</title>
<path fill="none" stroke="midnightblue" d="M67.0228,-47.5656C61.173,-38.2747 54.2305,-27.2484 49.5099,-19.7511"/>
<polygon fill="midnightblue" stroke="midnightblue" points="64.0956,-49.4855 72.3856,-56.083 70.0192,-45.7558 64.0956,-49.4855"/>
</g>
<!-- Node5&#45;&gt;Node7 -->
<g id="edge6" class="edge"><title>Node5&#45;&gt;Node7</title>
<path fill="none" stroke="midnightblue" d="M96.8348,-49.8197C108.838,-40.1452 123.972,-27.9481 134.039,-19.8339"/>
<polygon fill="midnightblue" stroke="midnightblue" points="94.3543,-47.3236 88.7647,-56.324 98.747,-52.7738 94.3543,-47.3236"/>
</g>
<!-- Node15&#45;&gt;Node4 -->
<g id="edge16" class="edge"><title>Node15&#45;&gt;Node4</title>
<path fill="none" stroke="midnightblue" d="M649.695,-162.38C636.139,-152.62 618.758,-140.106 607.269,-131.834"/>
<polygon fill="midnightblue" stroke="midnightblue" points="647.79,-165.321 657.95,-168.324 651.88,-159.641 647.79,-165.321"/>
</g>
<!-- Node16 -->
<g id="node16" class="node"><title>Node16</title>
<g id="a_node16"><a xlink:href="a00236.xhtml" target="_top" xlink:title="DepthCameraLibrary.cpp">
<polygon fill="none" stroke="black" points="659.5,-112.5 659.5,-131.5 784.5,-131.5 784.5,-112.5 659.5,-112.5"/>
<text text-anchor="middle" x="722" y="-119.5" font-family="Helvetica,sans-Serif" font-size="10.00">DepthCameraLibrary.cpp</text>
</a>
</g>
</g>
<!-- Node15&#45;&gt;Node16 -->
<g id="edge17" class="edge"><title>Node15&#45;&gt;Node16</title>
<path fill="none" stroke="midnightblue" d="M685.679,-160.718C694.845,-151.2 706.053,-139.561 713.573,-131.751"/>
<polygon fill="midnightblue" stroke="midnightblue" points="683.002,-158.452 678.587,-168.083 688.044,-163.308 683.002,-158.452"/>
</g>
</g>
</svg>
