<?xml version="1.0" encoding="UTF-8" standalone="no"?>
<!DOCTYPE svg PUBLIC "-//W3C//DTD SVG 1.1//EN"
 "http://www.w3.org/Graphics/SVG/1.1/DTD/svg11.dtd">
<!-- Generated by graphviz version 2.36.0 (20140111.2315)
 -->
<!-- Title: Frame.h Pages: 1 -->
<svg width="1430pt" height="252pt"
 viewBox="0.00 0.00 1430.00 252.00" xmlns="http://www.w3.org/2000/svg" xmlns:xlink="http://www.w3.org/1999/xlink">
<g id="graph0" class="graph" transform="scale(1 1) rotate(0) translate(4 248)">
<title>Frame.h</title>
<!-- Node1 -->
<g id="node1" class="node"><title>Node1</title>
<polygon fill="#bfbfbf" stroke="black" points="746.5,-224.5 746.5,-243.5 799.5,-243.5 799.5,-224.5 746.5,-224.5"/>
<text text-anchor="middle" x="773" y="-231.5" font-family="Helvetica,sans-Serif" font-size="10.00">Frame.h</text>
</g>
<!-- Node2 -->
<g id="node2" class="node"><title>Node2</title>
<g id="a_node2"><a xlink:href="a00223.xhtml" target="_top" xlink:title="Common.h">
<polygon fill="none" stroke="black" points="748.5,-112.5 748.5,-131.5 813.5,-131.5 813.5,-112.5 748.5,-112.5"/>
<text text-anchor="middle" x="781" y="-119.5" font-family="Helvetica,sans-Serif" font-size="10.00">Common.h</text>
</a>
</g>
</g>
<!-- Node1&#45;&gt;Node2 -->
<g id="edge1" class="edge"><title>Node1&#45;&gt;Node2</title>
<path fill="none" stroke="midnightblue" d="M773.628,-224.368C774.919,-206.617 777.897,-165.666 779.647,-141.597"/>
<polygon fill="midnightblue" stroke="midnightblue" points="783.141,-141.819 780.375,-131.591 776.159,-141.311 783.141,-141.819"/>
</g>
<!-- Node8 -->
<g id="node8" class="node"><title>Node8</title>
<polygon fill="none" stroke="#bfbfbf" points="0,-56.5 0,-75.5 52,-75.5 52,-56.5 0,-56.5"/>
<text text-anchor="middle" x="26" y="-63.5" font-family="Helvetica,sans-Serif" font-size="10.00">sstream</text>
</g>
<!-- Node1&#45;&gt;Node8 -->
<g id="edge33" class="edge"><title>Node1&#45;&gt;Node8</title>
<path fill="none" stroke="midnightblue" d="M746.416,-227.485C653.636,-208.166 335.454,-141.3 62.449,-76.2889"/>
<polygon fill="midnightblue" stroke="midnightblue" points="62.8882,-72.7955 52.349,-73.8797 61.2639,-79.6045 62.8882,-72.7955"/>
</g>
<!-- Node24 -->
<g id="node24" class="node"><title>Node24</title>
<g id="a_node24"><a xlink:href="a00286.xhtml" target="_top" xlink:title="Point.h">
<polygon fill="none" stroke="black" points="690.5,-168.5 690.5,-187.5 737.5,-187.5 737.5,-168.5 690.5,-168.5"/>
<text text-anchor="middle" x="714" y="-175.5" font-family="Helvetica,sans-Serif" font-size="10.00">Point.h</text>
</a>
</g>
</g>
<!-- Node1&#45;&gt;Node24 -->
<g id="edge23" class="edge"><title>Node1&#45;&gt;Node24</title>
<path fill="none" stroke="midnightblue" d="M763.521,-224.324C754.799,-216.341 741.657,-204.313 731.102,-194.653"/>
<polygon fill="midnightblue" stroke="midnightblue" points="733.392,-192.004 723.652,-187.834 728.666,-197.167 733.392,-192.004"/>
</g>
<!-- Node27 -->
<g id="node27" class="node"><title>Node27</title>
<g id="a_node27"><a xlink:href="a00359.xhtml" target="_top" xlink:title="VideoMode.h">
<polygon fill="none" stroke="black" points="801,-168.5 801,-187.5 875,-187.5 875,-168.5 801,-168.5"/>
<text text-anchor="middle" x="838" y="-175.5" font-family="Helvetica,sans-Serif" font-size="10.00">VideoMode.h</text>
</a>
</g>
</g>
<!-- Node1&#45;&gt;Node27 -->
<g id="edge27" class="edge"><title>Node1&#45;&gt;Node27</title>
<path fill="none" stroke="midnightblue" d="M783.443,-224.324C793.146,-216.263 807.815,-204.077 819.5,-194.369"/>
<polygon fill="midnightblue" stroke="midnightblue" points="821.911,-196.916 827.367,-187.834 817.438,-191.532 821.911,-196.916"/>
</g>
<!-- Node28 -->
<g id="node28" class="node"><title>Node28</title>
<g id="a_node28"><a xlink:href="a00299.xhtml" target="_top" xlink:title="SerializedObject.h">
<polygon fill="none" stroke="black" points="893,-168.5 893,-187.5 989,-187.5 989,-168.5 893,-168.5"/>
<text text-anchor="middle" x="941" y="-175.5" font-family="Helvetica,sans-Serif" font-size="10.00">SerializedObject.h</text>
</a>
</g>
</g>
<!-- Node1&#45;&gt;Node28 -->
<g id="edge29" class="edge"><title>Node1&#45;&gt;Node28</title>
<path fill="none" stroke="midnightblue" d="M799.62,-224.444C828.006,-215.32 873.137,-200.813 904.753,-190.651"/>
<polygon fill="midnightblue" stroke="midnightblue" points="906.055,-193.909 914.504,-187.516 903.913,-187.244 906.055,-193.909"/>
</g>
<!-- Node3 -->
<g id="node3" class="node"><title>Node3</title>
<polygon fill="none" stroke="#bfbfbf" points="698,-56.5 698,-75.5 742,-75.5 742,-56.5 698,-56.5"/>
<text text-anchor="middle" x="720" y="-63.5" font-family="Helvetica,sans-Serif" font-size="10.00">vector</text>
</g>
<!-- Node2&#45;&gt;Node3 -->
<g id="edge2" class="edge"><title>Node2&#45;&gt;Node3</title>
<path fill="none" stroke="midnightblue" d="M771.199,-112.324C762.182,-104.341 748.594,-92.3128 737.682,-82.6529"/>
<polygon fill="midnightblue" stroke="midnightblue" points="739.787,-79.8416 729.979,-75.8339 735.147,-85.083 739.787,-79.8416"/>
</g>
<!-- Node4 -->
<g id="node4" class="node"><title>Node4</title>
<polygon fill="none" stroke="#bfbfbf" points="1298.5,-56.5 1298.5,-75.5 1347.5,-75.5 1347.5,-56.5 1298.5,-56.5"/>
<text text-anchor="middle" x="1323" y="-63.5" font-family="Helvetica,sans-Serif" font-size="10.00">stdint.h</text>
</g>
<!-- Node2&#45;&gt;Node4 -->
<g id="edge3" class="edge"><title>Node2&#45;&gt;Node4</title>
<path fill="none" stroke="midnightblue" d="M813.726,-116.477C825.468,-114.937 838.815,-113.283 851,-112 1042.02,-91.8803 1094.76,-108.547 1288.31,-75.7997"/>
<polygon fill="midnightblue" stroke="midnightblue" points="1288.96,-79.2379 1298.23,-74.0985 1287.78,-72.3385 1288.96,-79.2379"/>
</g>
<!-- Node5 -->
<g id="node5" class="node"><title>Node5</title>
<polygon fill="none" stroke="#bfbfbf" points="760.5,-56.5 760.5,-75.5 801.5,-75.5 801.5,-56.5 760.5,-56.5"/>
<text text-anchor="middle" x="781" y="-63.5" font-family="Helvetica,sans-Serif" font-size="10.00">string</text>
</g>
<!-- Node2&#45;&gt;Node5 -->
<g id="edge4" class="edge"><title>Node2&#45;&gt;Node5</title>
<path fill="none" stroke="midnightblue" d="M781,-112.083C781,-105.006 781,-94.8611 781,-85.9865"/>
<polygon fill="midnightblue" stroke="midnightblue" points="784.5,-85.751 781,-75.7511 777.5,-85.7511 784.5,-85.751"/>
</g>
<!-- Node6 -->
<g id="node6" class="node"><title>Node6</title>
<polygon fill="none" stroke="#bfbfbf" points="820,-56.5 820,-75.5 874,-75.5 874,-56.5 820,-56.5"/>
<text text-anchor="middle" x="847" y="-63.5" font-family="Helvetica,sans-Serif" font-size="10.00">iostream</text>
</g>
<!-- Node2&#45;&gt;Node6 -->
<g id="edge5" class="edge"><title>Node2&#45;&gt;Node6</title>
<path fill="none" stroke="midnightblue" d="M791.604,-112.324C801.456,-104.263 816.351,-92.0765 828.215,-82.3695"/>
<polygon fill="midnightblue" stroke="midnightblue" points="830.68,-84.8752 836.203,-75.8339 826.247,-79.4575 830.68,-84.8752"/>
</g>
<!-- Node7 -->
<g id="node7" class="node"><title>Node7</title>
<polygon fill="none" stroke="#bfbfbf" points="892,-56.5 892,-75.5 942,-75.5 942,-56.5 892,-56.5"/>
<text text-anchor="middle" x="917" y="-63.5" font-family="Helvetica,sans-Serif" font-size="10.00">fstream</text>
</g>
<!-- Node2&#45;&gt;Node7 -->
<g id="edge6" class="edge"><title>Node2&#45;&gt;Node7</title>
<path fill="none" stroke="midnightblue" d="M802.55,-112.444C825.031,-103.517 860.488,-89.4387 885.98,-79.3168"/>
<polygon fill="midnightblue" stroke="midnightblue" points="887.549,-82.4598 895.551,-75.5164 884.965,-75.9539 887.549,-82.4598"/>
</g>
<!-- Node2&#45;&gt;Node8 -->
<g id="edge7" class="edge"><title>Node2&#45;&gt;Node8</title>
<path fill="none" stroke="midnightblue" d="M748.22,-113.599C744.782,-112.985 741.328,-112.434 738,-112 442.573,-73.4594 360.655,-120.662 62.5009,-75.9089"/>
<polygon fill="midnightblue" stroke="midnightblue" points="62.6704,-72.3944 52.2572,-74.3481 61.6159,-79.3145 62.6704,-72.3944"/>
</g>
<!-- Node9 -->
<g id="node9" class="node"><title>Node9</title>
<polygon fill="none" stroke="#bfbfbf" points="960.5,-56.5 960.5,-75.5 1043.5,-75.5 1043.5,-56.5 960.5,-56.5"/>
<text text-anchor="middle" x="1002" y="-63.5" font-family="Helvetica,sans-Serif" font-size="10.00">unordered_map</text>
</g>
<!-- Node2&#45;&gt;Node9 -->
<g id="edge8" class="edge"><title>Node2&#45;&gt;Node9</title>
<path fill="none" stroke="midnightblue" d="M813.609,-113.032C851.625,-103.743 914.666,-88.3396 957.244,-77.936"/>
<polygon fill="midnightblue" stroke="midnightblue" points="958.182,-81.3096 967.066,-75.536 956.521,-74.5097 958.182,-81.3096"/>
</g>
<!-- Node10 -->
<g id="node10" class="node"><title>Node10</title>
<polygon fill="none" stroke="#bfbfbf" points="1061.5,-56.5 1061.5,-75.5 1120.5,-75.5 1120.5,-56.5 1061.5,-56.5"/>
<text text-anchor="middle" x="1091" y="-63.5" font-family="Helvetica,sans-Serif" font-size="10.00">functional</text>
</g>
<!-- Node2&#45;&gt;Node10 -->
<g id="edge9" class="edge"><title>Node2&#45;&gt;Node10</title>
<path fill="none" stroke="midnightblue" d="M813.656,-116.249C862.899,-108.939 959.3,-94.0634 1051.2,-76.0519"/>
<polygon fill="midnightblue" stroke="midnightblue" points="1052.1,-79.443 1061.23,-74.0708 1050.74,-72.5758 1052.1,-79.443"/>
</g>
<!-- Node11 -->
<g id="node11" class="node"><title>Node11</title>
<polygon fill="none" stroke="#bfbfbf" points="1138.5,-56.5 1138.5,-75.5 1167.5,-75.5 1167.5,-56.5 1138.5,-56.5"/>
<text text-anchor="middle" x="1153" y="-63.5" font-family="Helvetica,sans-Serif" font-size="10.00">list</text>
</g>
<!-- Node2&#45;&gt;Node11 -->
<g id="edge10" class="edge"><title>Node2&#45;&gt;Node11</title>
<path fill="none" stroke="midnightblue" d="M813.533,-116.818C890.729,-106.891 1081.51,-82.3411 1128.37,-74.908"/>
<polygon fill="midnightblue" stroke="midnightblue" points="1129.24,-78.307 1138.45,-73.0666 1127.98,-71.4209 1129.24,-78.307"/>
</g>
<!-- Node12 -->
<g id="node12" class="node"><title>Node12</title>
<polygon fill="none" stroke="#bfbfbf" points="1186,-56.5 1186,-75.5 1216,-75.5 1216,-56.5 1186,-56.5"/>
<text text-anchor="middle" x="1201" y="-63.5" font-family="Helvetica,sans-Serif" font-size="10.00">set</text>
</g>
<!-- Node2&#45;&gt;Node12 -->
<g id="edge11" class="edge"><title>Node2&#45;&gt;Node12</title>
<path fill="none" stroke="midnightblue" d="M813.748,-116.669C825.492,-115.148 838.834,-113.456 851,-112 995.298,-94.7331 1034.43,-108.84 1176,-76 1176.1,-75.9765 1176.2,-75.9528 1176.3,-75.9288"/>
<polygon fill="midnightblue" stroke="midnightblue" points="1177.24,-79.3011 1185.83,-73.1016 1175.25,-72.5901 1177.24,-79.3011"/>
</g>
<!-- Node13 -->
<g id="node13" class="node"><title>Node13</title>
<polygon fill="none" stroke="#bfbfbf" points="1234,-56.5 1234,-75.5 1280,-75.5 1280,-56.5 1234,-56.5"/>
<text text-anchor="middle" x="1257" y="-63.5" font-family="Helvetica,sans-Serif" font-size="10.00">atomic</text>
</g>
<!-- Node2&#45;&gt;Node13 -->
<g id="edge12" class="edge"><title>Node2&#45;&gt;Node13</title>
<path fill="none" stroke="midnightblue" d="M813.737,-116.573C825.479,-115.043 838.824,-113.37 851,-112 1013.27,-93.7421 1058.43,-105.537 1223.66,-75.72"/>
<polygon fill="midnightblue" stroke="midnightblue" points="1224.47,-79.1297 1233.68,-73.888 1223.21,-72.2438 1224.47,-79.1297"/>
</g>
<!-- Node14 -->
<g id="node14" class="node"><title>Node14</title>
<polygon fill="none" stroke="#bfbfbf" points="70,-56.5 70,-75.5 116,-75.5 116,-56.5 70,-56.5"/>
<text text-anchor="middle" x="93" y="-63.5" font-family="Helvetica,sans-Serif" font-size="10.00">cctype</text>
</g>
<!-- Node2&#45;&gt;Node14 -->
<g id="edge13" class="edge"><title>Node2&#45;&gt;Node14</title>
<path fill="none" stroke="midnightblue" d="M748.218,-113.618C744.78,-113 741.326,-112.443 738,-112 470.78,-76.3869 395.963,-120.114 126.372,-75.857"/>
<polygon fill="midnightblue" stroke="midnightblue" points="126.726,-72.3679 116.287,-74.1756 125.575,-79.2726 126.726,-72.3679"/>
</g>
<!-- Node15 -->
<g id="node15" class="node"><title>Node15</title>
<polygon fill="none" stroke="#bfbfbf" points="1366,-56.5 1366,-75.5 1422,-75.5 1422,-56.5 1366,-56.5"/>
<text text-anchor="middle" x="1394" y="-63.5" font-family="Helvetica,sans-Serif" font-size="10.00">algorithm</text>
</g>
<!-- Node2&#45;&gt;Node15 -->
<g id="edge14" class="edge"><title>Node2&#45;&gt;Node15</title>
<path fill="none" stroke="midnightblue" d="M813.871,-118.569C931.943,-109.817 1329.07,-80.2164 1356,-76 1356.1,-75.9843 1356.2,-75.9684 1356.3,-75.9524"/>
<polygon fill="midnightblue" stroke="midnightblue" points="1356.68,-79.4417 1365.87,-74.1724 1355.4,-72.5597 1356.68,-79.4417"/>
</g>
<!-- Node16 -->
<g id="node16" class="node"><title>Node16</title>
<polygon fill="none" stroke="#bfbfbf" points="134.5,-56.5 134.5,-75.5 187.5,-75.5 187.5,-56.5 134.5,-56.5"/>
<text text-anchor="middle" x="161" y="-63.5" font-family="Helvetica,sans-Serif" font-size="10.00">complex</text>
</g>
<!-- Node2&#45;&gt;Node16 -->
<g id="edge15" class="edge"><title>Node2&#45;&gt;Node16</title>
<path fill="none" stroke="midnightblue" d="M748.214,-113.645C744.777,-113.022 741.325,-112.456 738,-112 502.526,-79.6843 436.849,-112.451 197.674,-75.7848"/>
<polygon fill="midnightblue" stroke="midnightblue" points="198.047,-72.3007 187.628,-74.2197 196.97,-79.2173 198.047,-72.3007"/>
</g>
<!-- Node17 -->
<g id="node17" class="node"><title>Node17</title>
<polygon fill="none" stroke="#bfbfbf" points="206,-56.5 206,-75.5 250,-75.5 250,-56.5 206,-56.5"/>
<text text-anchor="middle" x="228" y="-63.5" font-family="Helvetica,sans-Serif" font-size="10.00">thread</text>
</g>
<!-- Node2&#45;&gt;Node17 -->
<g id="edge16" class="edge"><title>Node2&#45;&gt;Node17</title>
<path fill="none" stroke="midnightblue" d="M748.21,-113.674C744.774,-113.045 741.323,-112.471 738,-112 529.922,-82.5352 470.922,-112.984 260.362,-75.8686"/>
<polygon fill="midnightblue" stroke="midnightblue" points="260.68,-72.3699 250.219,-74.0496 259.444,-79.26 260.68,-72.3699"/>
</g>
<!-- Node18 -->
<g id="node18" class="node"><title>Node18</title>
<g id="a_node18"><a xlink:href="a00291.xhtml" target="_top" xlink:title="Ptr.h">
<polygon fill="none" stroke="black" points="268,-56.5 268,-75.5 306,-75.5 306,-56.5 268,-56.5"/>
<text text-anchor="middle" x="287" y="-63.5" font-family="Helvetica,sans-Serif" font-size="10.00">Ptr.h</text>
</a>
</g>
</g>
<!-- Node2&#45;&gt;Node18 -->
<g id="edge17" class="edge"><title>Node2&#45;&gt;Node18</title>
<path fill="none" stroke="midnightblue" d="M748.205,-113.708C744.77,-113.072 741.32,-112.487 738,-112 554.508,-85.0907 501.789,-112.148 315.944,-75.7357"/>
<polygon fill="midnightblue" stroke="midnightblue" points="316.62,-72.3016 306.128,-73.7782 315.251,-79.1664 316.62,-72.3016"/>
</g>
<!-- Node20 -->
<g id="node20" class="node"><title>Node20</title>
<polygon fill="none" stroke="#bfbfbf" points="324,-56.5 324,-75.5 368,-75.5 368,-56.5 324,-56.5"/>
<text text-anchor="middle" x="346" y="-63.5" font-family="Helvetica,sans-Serif" font-size="10.00">mutex</text>
</g>
<!-- Node2&#45;&gt;Node20 -->
<g id="edge19" class="edge"><title>Node2&#45;&gt;Node20</title>
<path fill="none" stroke="midnightblue" d="M748.198,-113.758C744.764,-113.112 741.317,-112.511 738,-112 581.908,-87.9523 537.135,-105.839 378.357,-75.9256"/>
<polygon fill="midnightblue" stroke="midnightblue" points="378.712,-72.43 368.232,-73.9831 377.393,-79.3047 378.712,-72.43"/>
</g>
<!-- Node21 -->
<g id="node21" class="node"><title>Node21</title>
<polygon fill="none" stroke="#bfbfbf" points="386.5,-56.5 386.5,-75.5 481.5,-75.5 481.5,-56.5 386.5,-56.5"/>
<text text-anchor="middle" x="434" y="-63.5" font-family="Helvetica,sans-Serif" font-size="10.00">condition_variable</text>
</g>
<!-- Node2&#45;&gt;Node21 -->
<g id="edge20" class="edge"><title>Node2&#45;&gt;Node21</title>
<path fill="none" stroke="midnightblue" d="M748.172,-113.912C744.743,-113.236 741.304,-112.586 738,-112 631.86,-93.1759 602.337,-92.6655 491.483,-76.0504"/>
<polygon fill="midnightblue" stroke="midnightblue" points="491.99,-72.5873 481.579,-74.5558 490.945,-79.5089 491.99,-72.5873"/>
</g>
<!-- Node22 -->
<g id="node22" class="node"><title>Node22</title>
<polygon fill="none" stroke="#bfbfbf" points="500,-56.5 500,-75.5 578,-75.5 578,-56.5 500,-56.5"/>
<text text-anchor="middle" x="539" y="-63.5" font-family="Helvetica,sans-Serif" font-size="10.00">VoxelConfig.h</text>
</g>
<!-- Node2&#45;&gt;Node22 -->
<g id="edge21" class="edge"><title>Node2&#45;&gt;Node22</title>
<path fill="none" stroke="midnightblue" d="M748.363,-113.717C706.929,-104.472 635.1,-88.4438 587.31,-77.7798"/>
<polygon fill="midnightblue" stroke="midnightblue" points="588.018,-74.352 577.496,-75.59 586.494,-81.1839 588.018,-74.352"/>
</g>
<!-- Node23 -->
<g id="node23" class="node"><title>Node23</title>
<polygon fill="none" stroke="#bfbfbf" points="596.5,-56.5 596.5,-75.5 679.5,-75.5 679.5,-56.5 596.5,-56.5"/>
<text text-anchor="middle" x="638" y="-63.5" font-family="Helvetica,sans-Serif" font-size="10.00">VoxelExports.h</text>
</g>
<!-- Node2&#45;&gt;Node23 -->
<g id="edge22" class="edge"><title>Node2&#45;&gt;Node23</title>
<path fill="none" stroke="midnightblue" d="M758.341,-112.444C734.598,-103.478 697.091,-89.314 670.262,-79.1827"/>
<polygon fill="midnightblue" stroke="midnightblue" points="671.144,-75.7749 660.553,-75.5164 668.671,-82.3235 671.144,-75.7749"/>
</g>
<!-- Node19 -->
<g id="node19" class="node"><title>Node19</title>
<polygon fill="none" stroke="#bfbfbf" points="261,-0.5 261,-19.5 313,-19.5 313,-0.5 261,-0.5"/>
<text text-anchor="middle" x="287" y="-7.5" font-family="Helvetica,sans-Serif" font-size="10.00">memory</text>
</g>
<!-- Node18&#45;&gt;Node19 -->
<g id="edge18" class="edge"><title>Node18&#45;&gt;Node19</title>
<path fill="none" stroke="midnightblue" d="M287,-56.083C287,-49.0059 287,-38.8611 287,-29.9865"/>
<polygon fill="midnightblue" stroke="midnightblue" points="290.5,-29.751 287,-19.7511 283.5,-29.7511 290.5,-29.751"/>
</g>
<!-- Node24&#45;&gt;Node2 -->
<g id="edge26" class="edge"><title>Node24&#45;&gt;Node2</title>
<path fill="none" stroke="midnightblue" d="M724.765,-168.324C734.766,-160.263 749.887,-148.077 761.93,-138.369"/>
<polygon fill="midnightblue" stroke="midnightblue" points="764.45,-140.834 770.039,-131.834 760.057,-135.384 764.45,-140.834"/>
</g>
<!-- Node25 -->
<g id="node25" class="node"><title>Node25</title>
<polygon fill="none" stroke="#bfbfbf" points="602.5,-112.5 602.5,-131.5 649.5,-131.5 649.5,-112.5 602.5,-112.5"/>
<text text-anchor="middle" x="626" y="-119.5" font-family="Helvetica,sans-Serif" font-size="10.00">math.h</text>
</g>
<!-- Node24&#45;&gt;Node25 -->
<g id="edge24" class="edge"><title>Node24&#45;&gt;Node25</title>
<path fill="none" stroke="midnightblue" d="M699.861,-168.324C686.134,-159.9 665.064,-146.971 648.936,-137.074"/>
<polygon fill="midnightblue" stroke="midnightblue" points="650.457,-133.902 640.104,-131.655 646.796,-139.868 650.457,-133.902"/>
</g>
<!-- Node26 -->
<g id="node26" class="node"><title>Node26</title>
<polygon fill="none" stroke="#bfbfbf" points="668,-112.5 668,-131.5 730,-131.5 730,-112.5 668,-112.5"/>
<text text-anchor="middle" x="699" y="-119.5" font-family="Helvetica,sans-Serif" font-size="10.00">type_traits</text>
</g>
<!-- Node24&#45;&gt;Node26 -->
<g id="edge25" class="edge"><title>Node24&#45;&gt;Node26</title>
<path fill="none" stroke="midnightblue" d="M711.523,-168.083C709.514,-160.849 706.614,-150.409 704.11,-141.397"/>
<polygon fill="midnightblue" stroke="midnightblue" points="707.48,-140.449 701.431,-131.751 700.735,-142.323 707.48,-140.449"/>
</g>
<!-- Node27&#45;&gt;Node4 -->
<g id="edge28" class="edge"><title>Node27&#45;&gt;Node4</title>
<path fill="none" stroke="midnightblue" d="M844.052,-168.377C854.812,-153.829 878.81,-124.75 907,-112 1059.42,-43.0625 1118.84,-103.524 1288.23,-75.7806"/>
<polygon fill="midnightblue" stroke="midnightblue" points="1288.96,-79.2069 1298.22,-74.0636 1287.77,-72.308 1288.96,-79.2069"/>
</g>
<!-- Node28&#45;&gt;Node2 -->
<g id="edge30" class="edge"><title>Node28&#45;&gt;Node2</title>
<path fill="none" stroke="midnightblue" d="M915.648,-168.444C888.731,-159.359 846.004,-144.939 815.913,-134.783"/>
<polygon fill="midnightblue" stroke="midnightblue" points="816.828,-131.398 806.234,-131.516 814.59,-138.031 816.828,-131.398"/>
</g>
<!-- Node28&#45;&gt;Node15 -->
<g id="edge32" class="edge"><title>Node28&#45;&gt;Node15</title>
<path fill="none" stroke="midnightblue" d="M976.169,-168.46C1059.77,-148.16 1269.82,-97.1549 1356.1,-76.2034"/>
<polygon fill="midnightblue" stroke="midnightblue" points="1357.1,-79.5624 1365.99,-73.8015 1355.45,-72.7601 1357.1,-79.5624"/>
</g>
<!-- Node29 -->
<g id="node29" class="node"><title>Node29</title>
<polygon fill="none" stroke="#bfbfbf" points="916.5,-112.5 916.5,-131.5 965.5,-131.5 965.5,-112.5 916.5,-112.5"/>
<text text-anchor="middle" x="941" y="-119.5" font-family="Helvetica,sans-Serif" font-size="10.00">string.h</text>
</g>
<!-- Node28&#45;&gt;Node29 -->
<g id="edge31" class="edge"><title>Node28&#45;&gt;Node29</title>
<path fill="none" stroke="midnightblue" d="M941,-168.083C941,-161.006 941,-150.861 941,-141.986"/>
<polygon fill="midnightblue" stroke="midnightblue" points="944.5,-141.751 941,-131.751 937.5,-141.751 944.5,-141.751"/>
</g>
</g>
</svg>
