<?xml version="1.0" encoding="UTF-8" standalone="no"?>
<!DOCTYPE svg PUBLIC "-//W3C//DTD SVG 1.1//EN"
 "http://www.w3.org/Graphics/SVG/1.1/DTD/svg11.dtd">
<!-- Generated by graphviz version 2.36.0 (20140111.2315)
 -->
<!-- Title: PCLGrabber.h Pages: 1 -->
<svg width="306pt" height="84pt"
 viewBox="0.00 0.00 306.00 84.00" xmlns="http://www.w3.org/2000/svg" xmlns:xlink="http://www.w3.org/1999/xlink">
<g id="graph0" class="graph" transform="scale(1 1) rotate(0) translate(4 80)">
<title>PCLGrabber.h</title>
<!-- Node1 -->
<g id="node1" class="node"><title>Node1</title>
<polygon fill="#bfbfbf" stroke="black" points="109.5,-56.5 109.5,-75.5 188.5,-75.5 188.5,-56.5 109.5,-56.5"/>
<text text-anchor="middle" x="149" y="-63.5" font-family="Helvetica,sans-Serif" font-size="10.00">PCLGrabber.h</text>
</g>
<!-- Node2 -->
<g id="node2" class="node"><title>Node2</title>
<g id="a_node2"><a xlink:href="a00220.xhtml" target="_top" xlink:title="CLIManager.cpp">
<polygon fill="none" stroke="black" points="-0.5,-0.5 -0.5,-19.5 88.5,-19.5 88.5,-0.5 -0.5,-0.5"/>
<text text-anchor="middle" x="44" y="-7.5" font-family="Helvetica,sans-Serif" font-size="10.00">CLIManager.cpp</text>
</a>
</g>
</g>
<!-- Node1&#45;&gt;Node2 -->
<g id="edge1" class="edge"><title>Node1&#45;&gt;Node2</title>
<path fill="none" stroke="midnightblue" d="M123.19,-51.7261C103.747,-41.7271 77.6516,-28.3065 60.8282,-19.6545"/>
<polygon fill="midnightblue" stroke="midnightblue" points="121.636,-54.8629 132.13,-56.324 124.838,-48.6379 121.636,-54.8629"/>
</g>
<!-- Node3 -->
<g id="node3" class="node"><title>Node3</title>
<g id="a_node3"><a xlink:href="a00284.xhtml" target="_top" xlink:title="PCLViewer.cpp">
<polygon fill="none" stroke="black" points="106.5,-0.5 106.5,-19.5 191.5,-19.5 191.5,-0.5 106.5,-0.5"/>
<text text-anchor="middle" x="149" y="-7.5" font-family="Helvetica,sans-Serif" font-size="10.00">PCLViewer.cpp</text>
</a>
</g>
</g>
<!-- Node1&#45;&gt;Node3 -->
<g id="edge2" class="edge"><title>Node1&#45;&gt;Node3</title>
<path fill="none" stroke="midnightblue" d="M149,-45.8045C149,-36.9102 149,-26.7798 149,-19.7511"/>
<polygon fill="midnightblue" stroke="midnightblue" points="145.5,-46.083 149,-56.083 152.5,-46.083 145.5,-46.083"/>
</g>
<!-- Node4 -->
<g id="node4" class="node"><title>Node4</title>
<g id="a_node4"><a xlink:href="a00282.xhtml" target="_top" xlink:title="PCLGrabber.cpp">
<polygon fill="none" stroke="black" points="209.5,-0.5 209.5,-19.5 298.5,-19.5 298.5,-0.5 209.5,-0.5"/>
<text text-anchor="middle" x="254" y="-7.5" font-family="Helvetica,sans-Serif" font-size="10.00">PCLGrabber.cpp</text>
</a>
</g>
</g>
<!-- Node1&#45;&gt;Node4 -->
<g id="edge3" class="edge"><title>Node1&#45;&gt;Node4</title>
<path fill="none" stroke="midnightblue" d="M174.81,-51.7261C194.253,-41.7271 220.348,-28.3065 237.172,-19.6545"/>
<polygon fill="midnightblue" stroke="midnightblue" points="173.162,-48.6379 165.87,-56.324 176.364,-54.8629 173.162,-48.6379"/>
</g>
</g>
</svg>
