<?xml version="1.0" encoding="UTF-8" standalone="no"?>
<!DOCTYPE svg PUBLIC "-//W3C//DTD SVG 1.1//EN"
 "http://www.w3.org/Graphics/SVG/1.1/DTD/svg11.dtd">
<!-- Generated by graphviz version 2.36.0 (20140111.2315)
 -->
<!-- Title: USBBulkStreamer.h Pages: 1 -->
<!--zoomable 364 -->
<svg id="main" version="1.1" xmlns="http://www.w3.org/2000/svg" xmlns:xlink="http://www.w3.org/1999/xlink" xml:space="preserve" onload="init(evt)">
<style type="text/css"><![CDATA[
.edge:hover path { stroke: red; }
.edge:hover polygon { stroke: red; fill: red; }
]]></style>
<script type="text/javascript"><![CDATA[
var edges = document.getElementsByTagName('g');
if (edges && edges.length) {
  for (var i=0;i<edges.length;i++) {
    if (edges[i].id.substr(0,4)=='edge') {
      edges[i].setAttribute('class','edge');
    }
  }
}
]]></script>
        <defs>
                <circle id="rim" cx="0" cy="0" r="7"/>
                <circle id="rim2" cx="0" cy="0" r="3.5"/>
                <g id="zoomPlus">
                        <use xlink:href="#rim" fill="#404040">
                                <set attributeName="fill" to="#808080" begin="zoomplus.mouseover" end="zoomplus.mouseout"/>
                        </use>
                        <path d="M-4,0h8M0,-4v8" fill="none" stroke="white" stroke-width="1.5" pointer-events="none"/>
                </g>
                <g id="zoomMin">
                        <use xlink:href="#rim" fill="#404040">
                                <set attributeName="fill" to="#808080" begin="zoomminus.mouseover" end="zoomminus.mouseout"/>
                        </use>
                        <path d="M-4,0h8" fill="none" stroke="white" stroke-width="1.5" pointer-events="none"/>
                </g>
                <g id="dirArrow">
                        <path fill="none" stroke="white" stroke-width="1.5" d="M0,-3.0v7 M-2.5,-0.5L0,-3.0L2.5,-0.5"/>
                </g>
               <g id="resetDef">
                       <use xlink:href="#rim2" fill="#404040">
                               <set attributeName="fill" to="#808080" begin="reset.mouseover" end="reset.mouseout"/>
                       </use>
               </g>
        </defs>

<script type="text/javascript">
var viewWidth = 1429;
var viewHeight = 364;
var sectionId = 'dynsection-0';
</script>
<script xlink:href="svgpan.js"/>
<svg id="graph" class="graph">
<g id="viewport">
<title>USBBulkStreamer.h</title>
<!-- Node1 -->
<g id="node1" class="node"><title>Node1</title>
<polygon fill="#bfbfbf" stroke="black" points="576.5,-336.5 576.5,-355.5 681.5,-355.5 681.5,-336.5 576.5,-336.5"/>
<text text-anchor="middle" x="629" y="-343.5" font-family="Helvetica,sans-Serif" font-size="10.00">USBBulkStreamer.h</text>
</g>
<!-- Node2 -->
<g id="node2" class="node"><title>Node2</title>
<g id="a_node2"><a xlink:href="a00305.xhtml" target="_top" xlink:title="Streamer.h">
<polygon fill="none" stroke="black" points="644.5,-280.5 644.5,-299.5 709.5,-299.5 709.5,-280.5 644.5,-280.5"/>
<text text-anchor="middle" x="677" y="-287.5" font-family="Helvetica,sans-Serif" font-size="10.00">Streamer.h</text>
</a>
</g>
</g>
<!-- Node1&#45;&gt;Node2 -->
<g id="edge1" class="edge"><title>Node1&#45;&gt;Node2</title>
<path fill="none" stroke="midnightblue" d="M636.926,-336.083C643.846,-328.298 654.065,-316.801 662.452,-307.367"/>
<polygon fill="midnightblue" stroke="midnightblue" points="665.194,-309.55 669.221,-299.751 659.962,-304.9 665.194,-309.55"/>
</g>
<!-- Node34 -->
<g id="node34" class="node"><title>Node34</title>
<g id="a_node34"><a xlink:href="a00341.xhtml" target="_top" xlink:title="USBIO.h">
<polygon fill="none" stroke="black" points="507,-280.5 507,-299.5 563,-299.5 563,-280.5 507,-280.5"/>
<text text-anchor="middle" x="535" y="-287.5" font-family="Helvetica,sans-Serif" font-size="10.00">USBIO.h</text>
</a>
</g>
</g>
<!-- Node1&#45;&gt;Node34 -->
<g id="edge42" class="edge"><title>Node1&#45;&gt;Node34</title>
<path fill="none" stroke="midnightblue" d="M613.897,-336.324C599.097,-327.822 576.306,-314.729 559.018,-304.797"/>
<polygon fill="midnightblue" stroke="midnightblue" points="560.48,-301.601 550.065,-299.655 556.993,-307.671 560.48,-301.601"/>
</g>
<!-- Node3 -->
<g id="node3" class="node"><title>Node3</title>
<g id="a_node3"><a xlink:href="a00239.xhtml" target="_top" xlink:title="Device.h">
<polygon fill="none" stroke="black" points="498,-168.5 498,-187.5 554,-187.5 554,-168.5 498,-168.5"/>
<text text-anchor="middle" x="526" y="-175.5" font-family="Helvetica,sans-Serif" font-size="10.00">Device.h</text>
</a>
</g>
</g>
<!-- Node2&#45;&gt;Node3 -->
<g id="edge2" class="edge"><title>Node2&#45;&gt;Node3</title>
<path fill="none" stroke="midnightblue" d="M644.264,-286.258C614.416,-282.031 571.111,-271.291 545,-244 533.199,-231.666 528.673,-212.415 526.965,-198.061"/>
<polygon fill="midnightblue" stroke="midnightblue" points="530.43,-197.499 526.114,-187.823 523.454,-198.079 530.43,-197.499"/>
</g>
<!-- Node26 -->
<g id="node26" class="node"><title>Node26</title>
<g id="a_node26"><a xlink:href="a00256.xhtml" target="_top" xlink:title="Frame.h">
<polygon fill="none" stroke="black" points="730.5,-224.5 730.5,-243.5 783.5,-243.5 783.5,-224.5 730.5,-224.5"/>
<text text-anchor="middle" x="757" y="-231.5" font-family="Helvetica,sans-Serif" font-size="10.00">Frame.h</text>
</a>
</g>
</g>
<!-- Node2&#45;&gt;Node26 -->
<g id="edge26" class="edge"><title>Node2&#45;&gt;Node26</title>
<path fill="none" stroke="midnightblue" d="M689.853,-280.324C702.216,-271.979 721.13,-259.212 735.737,-249.352"/>
<polygon fill="midnightblue" stroke="midnightblue" points="737.848,-252.15 744.179,-243.655 733.932,-246.348 737.848,-252.15"/>
</g>
<!-- Node30 -->
<g id="node30" class="node"><title>Node30</title>
<g id="a_node30"><a xlink:href="a00359.xhtml" target="_top" xlink:title="VideoMode.h">
<polygon fill="none" stroke="black" points="923,-168.5 923,-187.5 997,-187.5 997,-168.5 923,-168.5"/>
<text text-anchor="middle" x="960" y="-175.5" font-family="Helvetica,sans-Serif" font-size="10.00">VideoMode.h</text>
</a>
</g>
</g>
<!-- Node2&#45;&gt;Node30 -->
<g id="edge39" class="edge"><title>Node2&#45;&gt;Node30</title>
<path fill="none" stroke="midnightblue" d="M699.207,-280.368C749.216,-260.93 870.792,-213.674 928.541,-191.228"/>
<polygon fill="midnightblue" stroke="midnightblue" points="929.844,-194.477 937.897,-187.591 927.308,-187.952 929.844,-194.477"/>
</g>
<!-- Node33 -->
<g id="node33" class="node"><title>Node33</title>
<g id="a_node33"><a xlink:href="a00309.xhtml" target="_top" xlink:title="Timer.h">
<polygon fill="none" stroke="black" points="652,-224.5 652,-243.5 702,-243.5 702,-224.5 652,-224.5"/>
<text text-anchor="middle" x="677" y="-231.5" font-family="Helvetica,sans-Serif" font-size="10.00">Timer.h</text>
</a>
</g>
</g>
<!-- Node2&#45;&gt;Node33 -->
<g id="edge40" class="edge"><title>Node2&#45;&gt;Node33</title>
<path fill="none" stroke="midnightblue" d="M677,-280.083C677,-273.006 677,-262.861 677,-253.986"/>
<polygon fill="midnightblue" stroke="midnightblue" points="680.5,-253.751 677,-243.751 673.5,-253.751 680.5,-253.751"/>
</g>
<!-- Node4 -->
<g id="node4" class="node"><title>Node4</title>
<g id="a_node4"><a xlink:href="a00223.xhtml" target="_top" xlink:title="Common.h">
<polygon fill="none" stroke="black" points="660.5,-112.5 660.5,-131.5 725.5,-131.5 725.5,-112.5 660.5,-112.5"/>
<text text-anchor="middle" x="693" y="-119.5" font-family="Helvetica,sans-Serif" font-size="10.00">Common.h</text>
</a>
</g>
</g>
<!-- Node3&#45;&gt;Node4 -->
<g id="edge3" class="edge"><title>Node3&#45;&gt;Node4</title>
<path fill="none" stroke="midnightblue" d="M552.462,-168.444C580.678,-159.32 625.54,-144.813 656.968,-134.651"/>
<polygon fill="midnightblue" stroke="midnightblue" points="658.224,-137.923 666.662,-131.516 656.07,-131.263 658.224,-137.923"/>
</g>
<!-- Node10 -->
<g id="node10" class="node"><title>Node10</title>
<polygon fill="none" stroke="#bfbfbf" points="134,-56.5 134,-75.5 186,-75.5 186,-56.5 134,-56.5"/>
<text text-anchor="middle" x="160" y="-63.5" font-family="Helvetica,sans-Serif" font-size="10.00">sstream</text>
</g>
<!-- Node3&#45;&gt;Node10 -->
<g id="edge25" class="edge"><title>Node3&#45;&gt;Node10</title>
<path fill="none" stroke="midnightblue" d="M497.888,-168.551C432.182,-148.803 268.619,-99.6451 195.869,-77.7804"/>
<polygon fill="midnightblue" stroke="midnightblue" points="196.811,-74.4088 186.227,-74.8823 194.796,-81.1125 196.811,-74.4088"/>
</g>
<!-- Node5 -->
<g id="node5" class="node"><title>Node5</title>
<polygon fill="none" stroke="#bfbfbf" points="578,-56.5 578,-75.5 622,-75.5 622,-56.5 578,-56.5"/>
<text text-anchor="middle" x="600" y="-63.5" font-family="Helvetica,sans-Serif" font-size="10.00">vector</text>
</g>
<!-- Node4&#45;&gt;Node5 -->
<g id="edge4" class="edge"><title>Node4&#45;&gt;Node5</title>
<path fill="none" stroke="midnightblue" d="M678.058,-112.324C663.415,-103.822 640.866,-90.7288 623.762,-80.7975"/>
<polygon fill="midnightblue" stroke="midnightblue" points="625.31,-77.6491 614.905,-75.6545 621.795,-83.7027 625.31,-77.6491"/>
</g>
<!-- Node6 -->
<g id="node6" class="node"><title>Node6</title>
<polygon fill="none" stroke="#bfbfbf" points="1372.5,-56.5 1372.5,-75.5 1421.5,-75.5 1421.5,-56.5 1372.5,-56.5"/>
<text text-anchor="middle" x="1397" y="-63.5" font-family="Helvetica,sans-Serif" font-size="10.00">stdint.h</text>
</g>
<!-- Node4&#45;&gt;Node6 -->
<g id="edge5" class="edge"><title>Node4&#45;&gt;Node6</title>
<path fill="none" stroke="midnightblue" d="M725.59,-113.357C728.424,-112.841 731.257,-112.377 734,-112 1010.96,-73.9091 1085.76,-119.015 1362,-76 1362.1,-75.9837 1362.21,-75.9672 1362.31,-75.9506"/>
<polygon fill="midnightblue" stroke="midnightblue" points="1363.13,-79.3572 1372.27,-73.9939 1361.78,-72.4886 1363.13,-79.3572"/>
</g>
<!-- Node7 -->
<g id="node7" class="node"><title>Node7</title>
<polygon fill="none" stroke="#bfbfbf" points="640.5,-56.5 640.5,-75.5 681.5,-75.5 681.5,-56.5 640.5,-56.5"/>
<text text-anchor="middle" x="661" y="-63.5" font-family="Helvetica,sans-Serif" font-size="10.00">string</text>
</g>
<!-- Node4&#45;&gt;Node7 -->
<g id="edge6" class="edge"><title>Node4&#45;&gt;Node7</title>
<path fill="none" stroke="midnightblue" d="M687.716,-112.083C683.289,-104.613 676.837,-93.7244 671.382,-84.5199"/>
<polygon fill="midnightblue" stroke="midnightblue" points="674.295,-82.5697 666.186,-75.7511 668.273,-86.1383 674.295,-82.5697"/>
</g>
<!-- Node8 -->
<g id="node8" class="node"><title>Node8</title>
<polygon fill="none" stroke="#bfbfbf" points="0,-56.5 0,-75.5 54,-75.5 54,-56.5 0,-56.5"/>
<text text-anchor="middle" x="27" y="-63.5" font-family="Helvetica,sans-Serif" font-size="10.00">iostream</text>
</g>
<!-- Node4&#45;&gt;Node8 -->
<g id="edge7" class="edge"><title>Node4&#45;&gt;Node8</title>
<path fill="none" stroke="midnightblue" d="M660.313,-120.661C567.996,-119.283 297.397,-112.336 64.054,-75.8798"/>
<polygon fill="midnightblue" stroke="midnightblue" points="64.4473,-72.3985 54.0228,-74.2905 63.3519,-79.3123 64.4473,-72.3985"/>
</g>
<!-- Node9 -->
<g id="node9" class="node"><title>Node9</title>
<polygon fill="none" stroke="#bfbfbf" points="700,-56.5 700,-75.5 750,-75.5 750,-56.5 700,-56.5"/>
<text text-anchor="middle" x="725" y="-63.5" font-family="Helvetica,sans-Serif" font-size="10.00">fstream</text>
</g>
<!-- Node4&#45;&gt;Node9 -->
<g id="edge8" class="edge"><title>Node4&#45;&gt;Node9</title>
<path fill="none" stroke="midnightblue" d="M698.284,-112.083C702.711,-104.613 709.163,-93.7244 714.618,-84.5199"/>
<polygon fill="midnightblue" stroke="midnightblue" points="717.727,-86.1383 719.814,-75.7511 711.705,-82.5697 717.727,-86.1383"/>
</g>
<!-- Node4&#45;&gt;Node10 -->
<g id="edge9" class="edge"><title>Node4&#45;&gt;Node10</title>
<path fill="none" stroke="midnightblue" d="M660.46,-114.29C655.626,-113.433 650.693,-112.635 646,-112 449.943,-85.4849 395.088,-108.398 196.16,-75.9129"/>
<polygon fill="midnightblue" stroke="midnightblue" points="196.708,-72.4559 186.269,-74.2718 195.562,-79.3615 196.708,-72.4559"/>
</g>
<!-- Node11 -->
<g id="node11" class="node"><title>Node11</title>
<polygon fill="none" stroke="#bfbfbf" points="768.5,-56.5 768.5,-75.5 851.5,-75.5 851.5,-56.5 768.5,-56.5"/>
<text text-anchor="middle" x="810" y="-63.5" font-family="Helvetica,sans-Serif" font-size="10.00">unordered_map</text>
</g>
<!-- Node4&#45;&gt;Node11 -->
<g id="edge10" class="edge"><title>Node4&#45;&gt;Node11</title>
<path fill="none" stroke="midnightblue" d="M711.539,-112.444C730.623,-103.636 760.575,-89.8116 782.436,-79.722"/>
<polygon fill="midnightblue" stroke="midnightblue" points="783.935,-82.8849 791.548,-75.5164 781.001,-76.5292 783.935,-82.8849"/>
</g>
<!-- Node12 -->
<g id="node12" class="node"><title>Node12</title>
<polygon fill="none" stroke="#bfbfbf" points="869.5,-56.5 869.5,-75.5 928.5,-75.5 928.5,-56.5 869.5,-56.5"/>
<text text-anchor="middle" x="899" y="-63.5" font-family="Helvetica,sans-Serif" font-size="10.00">functional</text>
</g>
<!-- Node4&#45;&gt;Node12 -->
<g id="edge11" class="edge"><title>Node4&#45;&gt;Node12</title>
<path fill="none" stroke="midnightblue" d="M725.641,-112.444C761.883,-102.943 820.387,-87.6072 859.264,-77.4161"/>
<polygon fill="midnightblue" stroke="midnightblue" points="860.401,-80.7365 869.187,-74.8151 858.626,-73.9652 860.401,-80.7365"/>
</g>
<!-- Node13 -->
<g id="node13" class="node"><title>Node13</title>
<polygon fill="none" stroke="#bfbfbf" points="946.5,-56.5 946.5,-75.5 975.5,-75.5 975.5,-56.5 946.5,-56.5"/>
<text text-anchor="middle" x="961" y="-63.5" font-family="Helvetica,sans-Serif" font-size="10.00">list</text>
</g>
<!-- Node4&#45;&gt;Node13 -->
<g id="edge12" class="edge"><title>Node4&#45;&gt;Node13</title>
<path fill="none" stroke="midnightblue" d="M725.649,-113.708C728.47,-113.116 731.284,-112.539 734,-112 820.807,-94.7826 846.853,-99.8049 936.639,-75.6322"/>
<polygon fill="midnightblue" stroke="midnightblue" points="937.697,-78.9716 946.417,-72.9539 935.847,-72.2203 937.697,-78.9716"/>
</g>
<!-- Node14 -->
<g id="node14" class="node"><title>Node14</title>
<polygon fill="none" stroke="#bfbfbf" points="994,-56.5 994,-75.5 1024,-75.5 1024,-56.5 994,-56.5"/>
<text text-anchor="middle" x="1009" y="-63.5" font-family="Helvetica,sans-Serif" font-size="10.00">set</text>
</g>
<!-- Node4&#45;&gt;Node14 -->
<g id="edge13" class="edge"><title>Node4&#45;&gt;Node14</title>
<path fill="none" stroke="midnightblue" d="M725.63,-113.612C728.456,-113.041 731.275,-112.495 734,-112 844.453,-91.9522 875.076,-103.151 984,-76 984.101,-75.9749 984.202,-75.9495 984.303,-75.9239"/>
<polygon fill="midnightblue" stroke="midnightblue" points="985.273,-79.2873 993.815,-73.0197 983.229,-72.5924 985.273,-79.2873"/>
</g>
<!-- Node15 -->
<g id="node15" class="node"><title>Node15</title>
<polygon fill="none" stroke="#bfbfbf" points="1042,-56.5 1042,-75.5 1088,-75.5 1088,-56.5 1042,-56.5"/>
<text text-anchor="middle" x="1065" y="-63.5" font-family="Helvetica,sans-Serif" font-size="10.00">atomic</text>
</g>
<!-- Node4&#45;&gt;Node15 -->
<g id="edge14" class="edge"><title>Node4&#45;&gt;Node15</title>
<path fill="none" stroke="midnightblue" d="M725.619,-113.544C728.447,-112.988 731.27,-112.463 734,-112 862.315,-90.2177 899.283,-101.056 1031.55,-75.7836"/>
<polygon fill="midnightblue" stroke="midnightblue" points="1032.52,-79.1618 1041.66,-73.8173 1031.18,-72.2905 1032.52,-79.1618"/>
</g>
<!-- Node16 -->
<g id="node16" class="node"><title>Node16</title>
<polygon fill="none" stroke="#bfbfbf" points="1106,-56.5 1106,-75.5 1152,-75.5 1152,-56.5 1106,-56.5"/>
<text text-anchor="middle" x="1129" y="-63.5" font-family="Helvetica,sans-Serif" font-size="10.00">cctype</text>
</g>
<!-- Node4&#45;&gt;Node16 -->
<g id="edge15" class="edge"><title>Node4&#45;&gt;Node16</title>
<path fill="none" stroke="midnightblue" d="M725.608,-113.481C728.439,-112.938 731.265,-112.434 734,-112 890.835,-87.0974 935.851,-105.282 1095.51,-75.9692"/>
<polygon fill="midnightblue" stroke="midnightblue" points="1096.51,-79.3438 1105.69,-74.0647 1095.22,-72.4632 1096.51,-79.3438"/>
</g>
<!-- Node17 -->
<g id="node17" class="node"><title>Node17</title>
<polygon fill="none" stroke="#bfbfbf" points="1298,-56.5 1298,-75.5 1354,-75.5 1354,-56.5 1298,-56.5"/>
<text text-anchor="middle" x="1326" y="-63.5" font-family="Helvetica,sans-Serif" font-size="10.00">algorithm</text>
</g>
<!-- Node4&#45;&gt;Node17 -->
<g id="edge16" class="edge"><title>Node4&#45;&gt;Node17</title>
<path fill="none" stroke="midnightblue" d="M725.593,-113.379C728.427,-112.858 731.258,-112.388 734,-112 975.525,-77.858 1042.88,-112.417 1287.9,-75.8917"/>
<polygon fill="midnightblue" stroke="midnightblue" points="1288.46,-79.348 1297.82,-74.3895 1287.41,-72.4269 1288.46,-79.348"/>
</g>
<!-- Node18 -->
<g id="node18" class="node"><title>Node18</title>
<polygon fill="none" stroke="#bfbfbf" points="1170.5,-56.5 1170.5,-75.5 1223.5,-75.5 1223.5,-56.5 1170.5,-56.5"/>
<text text-anchor="middle" x="1197" y="-63.5" font-family="Helvetica,sans-Serif" font-size="10.00">complex</text>
</g>
<!-- Node4&#45;&gt;Node18 -->
<g id="edge17" class="edge"><title>Node4&#45;&gt;Node18</title>
<path fill="none" stroke="midnightblue" d="M725.601,-113.437C728.433,-112.904 731.262,-112.414 734,-112 919.092,-84.0077 971.344,-106.402 1160.38,-75.8106"/>
<polygon fill="midnightblue" stroke="midnightblue" points="1161.07,-79.2446 1170.36,-74.1663 1159.93,-72.3376 1161.07,-79.2446"/>
</g>
<!-- Node19 -->
<g id="node19" class="node"><title>Node19</title>
<polygon fill="none" stroke="#bfbfbf" points="72,-56.5 72,-75.5 116,-75.5 116,-56.5 72,-56.5"/>
<text text-anchor="middle" x="94" y="-63.5" font-family="Helvetica,sans-Serif" font-size="10.00">thread</text>
</g>
<!-- Node4&#45;&gt;Node19 -->
<g id="edge18" class="edge"><title>Node4&#45;&gt;Node19</title>
<path fill="none" stroke="midnightblue" d="M660.36,-120.728C574.251,-119.521 333.854,-112.986 126.09,-75.8311"/>
<polygon fill="midnightblue" stroke="midnightblue" points="126.686,-72.3822 116.221,-74.0385 125.435,-79.2695 126.686,-72.3822"/>
</g>
<!-- Node20 -->
<g id="node20" class="node"><title>Node20</title>
<g id="a_node20"><a xlink:href="a00291.xhtml" target="_top" xlink:title="Ptr.h">
<polygon fill="none" stroke="black" points="1242,-56.5 1242,-75.5 1280,-75.5 1280,-56.5 1242,-56.5"/>
<text text-anchor="middle" x="1261" y="-63.5" font-family="Helvetica,sans-Serif" font-size="10.00">Ptr.h</text>
</a>
</g>
</g>
<!-- Node4&#45;&gt;Node20 -->
<g id="edge19" class="edge"><title>Node4&#45;&gt;Node20</title>
<path fill="none" stroke="midnightblue" d="M725.596,-113.401C728.429,-112.876 731.259,-112.398 734,-112 953.61,-80.1279 1013.94,-117.156 1232,-76 1232.1,-75.9811 1232.2,-75.9619 1232.3,-75.9425"/>
<polygon fill="midnightblue" stroke="midnightblue" points="1232.92,-79.3933 1241.81,-73.6277 1231.27,-72.5919 1232.92,-79.3933"/>
</g>
<!-- Node22 -->
<g id="node22" class="node"><title>Node22</title>
<polygon fill="none" stroke="#bfbfbf" points="204,-56.5 204,-75.5 248,-75.5 248,-56.5 204,-56.5"/>
<text text-anchor="middle" x="226" y="-63.5" font-family="Helvetica,sans-Serif" font-size="10.00">mutex</text>
</g>
<!-- Node4&#45;&gt;Node22 -->
<g id="edge21" class="edge"><title>Node4&#45;&gt;Node22</title>
<path fill="none" stroke="midnightblue" d="M660.452,-114.344C655.62,-113.479 650.689,-112.664 646,-112 477.279,-88.096 429.356,-107.598 258.076,-75.8582"/>
<polygon fill="midnightblue" stroke="midnightblue" points="258.703,-72.4148 248.228,-74.0025 257.407,-79.2938 258.703,-72.4148"/>
</g>
<!-- Node23 -->
<g id="node23" class="node"><title>Node23</title>
<polygon fill="none" stroke="#bfbfbf" points="266.5,-56.5 266.5,-75.5 361.5,-75.5 361.5,-56.5 266.5,-56.5"/>
<text text-anchor="middle" x="314" y="-63.5" font-family="Helvetica,sans-Serif" font-size="10.00">condition_variable</text>
</g>
<!-- Node4&#45;&gt;Node23 -->
<g id="edge22" class="edge"><title>Node4&#45;&gt;Node23</title>
<path fill="none" stroke="midnightblue" d="M660.428,-114.505C655.599,-113.617 650.675,-112.753 646,-112 527.512,-92.9169 494.714,-93.5644 371.762,-76.0696"/>
<polygon fill="midnightblue" stroke="midnightblue" points="371.967,-72.5632 361.572,-74.6076 370.973,-79.4923 371.967,-72.5632"/>
</g>
<!-- Node24 -->
<g id="node24" class="node"><title>Node24</title>
<polygon fill="none" stroke="#bfbfbf" points="380,-56.5 380,-75.5 458,-75.5 458,-56.5 380,-56.5"/>
<text text-anchor="middle" x="419" y="-63.5" font-family="Helvetica,sans-Serif" font-size="10.00">VoxelConfig.h</text>
</g>
<!-- Node4&#45;&gt;Node24 -->
<g id="edge23" class="edge"><title>Node4&#45;&gt;Node24</title>
<path fill="none" stroke="midnightblue" d="M660.493,-114.593C612.851,-105.204 523.701,-87.6345 468.064,-76.6695"/>
<polygon fill="midnightblue" stroke="midnightblue" points="468.57,-73.2021 458.082,-74.7024 467.217,-80.07 468.57,-73.2021"/>
</g>
<!-- Node25 -->
<g id="node25" class="node"><title>Node25</title>
<polygon fill="none" stroke="#bfbfbf" points="476.5,-56.5 476.5,-75.5 559.5,-75.5 559.5,-56.5 476.5,-56.5"/>
<text text-anchor="middle" x="518" y="-63.5" font-family="Helvetica,sans-Serif" font-size="10.00">VoxelExports.h</text>
</g>
<!-- Node4&#45;&gt;Node25 -->
<g id="edge24" class="edge"><title>Node4&#45;&gt;Node25</title>
<path fill="none" stroke="midnightblue" d="M665.271,-112.444C635.574,-103.28 588.284,-88.6876 555.331,-78.5192"/>
<polygon fill="midnightblue" stroke="midnightblue" points="556.187,-75.1206 545.6,-75.5164 554.123,-81.8094 556.187,-75.1206"/>
</g>
<!-- Node21 -->
<g id="node21" class="node"><title>Node21</title>
<polygon fill="none" stroke="#bfbfbf" points="1235,-0.5 1235,-19.5 1287,-19.5 1287,-0.5 1235,-0.5"/>
<text text-anchor="middle" x="1261" y="-7.5" font-family="Helvetica,sans-Serif" font-size="10.00">memory</text>
</g>
<!-- Node20&#45;&gt;Node21 -->
<g id="edge20" class="edge"><title>Node20&#45;&gt;Node21</title>
<path fill="none" stroke="midnightblue" d="M1261,-56.083C1261,-49.0059 1261,-38.8611 1261,-29.9865"/>
<polygon fill="midnightblue" stroke="midnightblue" points="1264.5,-29.751 1261,-19.7511 1257.5,-29.7511 1264.5,-29.751"/>
</g>
<!-- Node26&#45;&gt;Node4 -->
<g id="edge27" class="edge"><title>Node26&#45;&gt;Node4</title>
<path fill="none" stroke="midnightblue" d="M751.978,-224.368C741.463,-206.296 716.957,-164.176 703.07,-140.307"/>
<polygon fill="midnightblue" stroke="midnightblue" points="706.053,-138.475 697.999,-131.591 700.002,-141.995 706.053,-138.475"/>
</g>
<!-- Node26&#45;&gt;Node10 -->
<g id="edge38" class="edge"><title>Node26&#45;&gt;Node10</title>
<path fill="none" stroke="midnightblue" d="M732.817,-224.461C696.096,-211.604 623.986,-186.782 562,-168 471.609,-140.611 448.682,-134.695 357,-112 288.481,-95.0385 268.429,-93.3109 196.378,-76.2663"/>
<polygon fill="midnightblue" stroke="midnightblue" points="196.889,-72.79 186.35,-73.8751 195.266,-79.5991 196.889,-72.79"/>
</g>
<!-- Node27 -->
<g id="node27" class="node"><title>Node27</title>
<g id="a_node27"><a xlink:href="a00286.xhtml" target="_top" xlink:title="Point.h">
<polygon fill="none" stroke="black" points="743.5,-168.5 743.5,-187.5 790.5,-187.5 790.5,-168.5 743.5,-168.5"/>
<text text-anchor="middle" x="767" y="-175.5" font-family="Helvetica,sans-Serif" font-size="10.00">Point.h</text>
</a>
</g>
</g>
<!-- Node26&#45;&gt;Node27 -->
<g id="edge28" class="edge"><title>Node26&#45;&gt;Node27</title>
<path fill="none" stroke="midnightblue" d="M758.651,-224.083C759.976,-216.927 761.882,-206.635 763.539,-197.691"/>
<polygon fill="midnightblue" stroke="midnightblue" points="767,-198.221 765.379,-187.751 760.117,-196.947 767,-198.221"/>
</g>
<!-- Node26&#45;&gt;Node30 -->
<g id="edge32" class="edge"><title>Node26&#45;&gt;Node30</title>
<path fill="none" stroke="midnightblue" d="M783.539,-225.94C817.72,-216.848 877.527,-200.939 917.933,-190.19"/>
<polygon fill="midnightblue" stroke="midnightblue" points="918.996,-193.529 927.76,-187.576 917.197,-186.764 918.996,-193.529"/>
</g>
<!-- Node31 -->
<g id="node31" class="node"><title>Node31</title>
<g id="a_node31"><a xlink:href="a00299.xhtml" target="_top" xlink:title="SerializedObject.h">
<polygon fill="none" stroke="black" points="809,-168.5 809,-187.5 905,-187.5 905,-168.5 809,-168.5"/>
<text text-anchor="middle" x="857" y="-175.5" font-family="Helvetica,sans-Serif" font-size="10.00">SerializedObject.h</text>
</a>
</g>
</g>
<!-- Node26&#45;&gt;Node31 -->
<g id="edge34" class="edge"><title>Node26&#45;&gt;Node31</title>
<path fill="none" stroke="midnightblue" d="M773.067,-224.324C788.958,-215.743 813.507,-202.486 831.958,-192.522"/>
<polygon fill="midnightblue" stroke="midnightblue" points="833.837,-195.486 840.973,-187.655 830.511,-189.326 833.837,-195.486"/>
</g>
<!-- Node27&#45;&gt;Node4 -->
<g id="edge31" class="edge"><title>Node27&#45;&gt;Node4</title>
<path fill="none" stroke="midnightblue" d="M755.111,-168.324C743.85,-160.107 726.713,-147.602 713.291,-137.807"/>
<polygon fill="midnightblue" stroke="midnightblue" points="715.247,-134.901 705.106,-131.834 711.12,-140.556 715.247,-134.901"/>
</g>
<!-- Node28 -->
<g id="node28" class="node"><title>Node28</title>
<polygon fill="none" stroke="#bfbfbf" points="743.5,-112.5 743.5,-131.5 790.5,-131.5 790.5,-112.5 743.5,-112.5"/>
<text text-anchor="middle" x="767" y="-119.5" font-family="Helvetica,sans-Serif" font-size="10.00">math.h</text>
</g>
<!-- Node27&#45;&gt;Node28 -->
<g id="edge29" class="edge"><title>Node27&#45;&gt;Node28</title>
<path fill="none" stroke="midnightblue" d="M767,-168.083C767,-161.006 767,-150.861 767,-141.986"/>
<polygon fill="midnightblue" stroke="midnightblue" points="770.5,-141.751 767,-131.751 763.5,-141.751 770.5,-141.751"/>
</g>
<!-- Node29 -->
<g id="node29" class="node"><title>Node29</title>
<polygon fill="none" stroke="#bfbfbf" points="809,-112.5 809,-131.5 871,-131.5 871,-112.5 809,-112.5"/>
<text text-anchor="middle" x="840" y="-119.5" font-family="Helvetica,sans-Serif" font-size="10.00">type_traits</text>
</g>
<!-- Node27&#45;&gt;Node29 -->
<g id="edge30" class="edge"><title>Node27&#45;&gt;Node29</title>
<path fill="none" stroke="midnightblue" d="M778.729,-168.324C789.837,-160.107 806.742,-147.602 819.983,-137.807"/>
<polygon fill="midnightblue" stroke="midnightblue" points="822.1,-140.595 828.058,-131.834 817.937,-134.967 822.1,-140.595"/>
</g>
<!-- Node30&#45;&gt;Node6 -->
<g id="edge33" class="edge"><title>Node30&#45;&gt;Node6</title>
<path fill="none" stroke="midnightblue" d="M997.282,-170.18C1040.5,-162.056 1113.77,-147.608 1176,-132 1242.62,-115.293 1319.31,-91.7501 1362.58,-78.0613"/>
<polygon fill="midnightblue" stroke="midnightblue" points="1363.85,-81.3307 1372.32,-74.9677 1361.73,-74.6591 1363.85,-81.3307"/>
</g>
<!-- Node31&#45;&gt;Node4 -->
<g id="edge35" class="edge"><title>Node31&#45;&gt;Node4</title>
<path fill="none" stroke="midnightblue" d="M831.014,-168.444C803.304,-159.32 759.248,-144.813 728.384,-134.651"/>
<polygon fill="midnightblue" stroke="midnightblue" points="729.458,-131.32 718.865,-131.516 727.268,-137.968 729.458,-131.32"/>
</g>
<!-- Node31&#45;&gt;Node17 -->
<g id="edge37" class="edge"><title>Node31&#45;&gt;Node17</title>
<path fill="none" stroke="midnightblue" d="M894.01,-168.465C967.118,-151.579 1135.47,-112.57 1287.72,-76.2908"/>
<polygon fill="midnightblue" stroke="midnightblue" points="1288.81,-79.6293 1297.72,-73.9053 1287.19,-72.8202 1288.81,-79.6293"/>
</g>
<!-- Node32 -->
<g id="node32" class="node"><title>Node32</title>
<polygon fill="none" stroke="#bfbfbf" points="889.5,-112.5 889.5,-131.5 938.5,-131.5 938.5,-112.5 889.5,-112.5"/>
<text text-anchor="middle" x="914" y="-119.5" font-family="Helvetica,sans-Serif" font-size="10.00">string.h</text>
</g>
<!-- Node31&#45;&gt;Node32 -->
<g id="edge36" class="edge"><title>Node31&#45;&gt;Node32</title>
<path fill="none" stroke="midnightblue" d="M866.158,-168.324C874.501,-160.42 887.032,-148.548 897.177,-138.938"/>
<polygon fill="midnightblue" stroke="midnightblue" points="899.823,-141.252 904.675,-131.834 895.009,-136.171 899.823,-141.252"/>
</g>
<!-- Node33&#45;&gt;Node4 -->
<g id="edge41" class="edge"><title>Node33&#45;&gt;Node4</title>
<path fill="none" stroke="midnightblue" d="M678.255,-224.368C680.838,-206.617 686.794,-165.666 690.295,-141.597"/>
<polygon fill="midnightblue" stroke="midnightblue" points="693.774,-141.991 691.75,-131.591 686.847,-140.983 693.774,-141.991"/>
</g>
<!-- Node34&#45;&gt;Node3 -->
<g id="edge43" class="edge"><title>Node34&#45;&gt;Node3</title>
<path fill="none" stroke="midnightblue" d="M528.895,-280.191C523.245,-271.46 515.245,-257.478 512,-244 508.205,-228.237 512.789,-210.205 517.699,-197.138"/>
<polygon fill="midnightblue" stroke="midnightblue" points="520.948,-198.44 521.554,-187.862 514.484,-195.754 520.948,-198.44"/>
</g>
<!-- Node35 -->
<g id="node35" class="node"><title>Node35</title>
<g id="a_node35"><a xlink:href="a00343.xhtml" target="_top" xlink:title="USBSystem.h">
<polygon fill="none" stroke="black" points="554,-224.5 554,-243.5 634,-243.5 634,-224.5 554,-224.5"/>
<text text-anchor="middle" x="594" y="-231.5" font-family="Helvetica,sans-Serif" font-size="10.00">USBSystem.h</text>
</a>
</g>
</g>
<!-- Node34&#45;&gt;Node35 -->
<g id="edge44" class="edge"><title>Node34&#45;&gt;Node35</title>
<path fill="none" stroke="midnightblue" d="M544.479,-280.324C553.201,-272.341 566.343,-260.313 576.898,-250.653"/>
<polygon fill="midnightblue" stroke="midnightblue" points="579.334,-253.167 584.348,-243.834 574.608,-248.004 579.334,-253.167"/>
</g>
<!-- Node36 -->
<g id="node36" class="node"><title>Node36</title>
<g id="a_node36"><a xlink:href="a00274.xhtml" target="_top" xlink:title="Logger.h">
<polygon fill="none" stroke="black" points="133,-168.5 133,-187.5 187,-187.5 187,-168.5 133,-168.5"/>
<text text-anchor="middle" x="160" y="-175.5" font-family="Helvetica,sans-Serif" font-size="10.00">Logger.h</text>
</a>
</g>
</g>
<!-- Node34&#45;&gt;Node36 -->
<g id="edge47" class="edge"><title>Node34&#45;&gt;Node36</title>
<path fill="none" stroke="midnightblue" d="M506.814,-280.732C440.033,-261.143 272.168,-211.903 197.185,-189.908"/>
<polygon fill="midnightblue" stroke="midnightblue" points="197.822,-186.447 187.242,-186.991 195.852,-193.164 197.822,-186.447"/>
</g>
<!-- Node35&#45;&gt;Node3 -->
<g id="edge46" class="edge"><title>Node35&#45;&gt;Node3</title>
<path fill="none" stroke="midnightblue" d="M583.075,-224.324C572.825,-216.185 557.279,-203.839 544.999,-194.087"/>
<polygon fill="midnightblue" stroke="midnightblue" points="547.132,-191.312 537.124,-187.834 542.779,-196.794 547.132,-191.312"/>
</g>
<!-- Node35&#45;&gt;Node4 -->
<g id="edge45" class="edge"><title>Node35&#45;&gt;Node4</title>
<path fill="none" stroke="midnightblue" d="M601.768,-224.368C618.323,-205.974 657.296,-162.671 678.553,-139.052"/>
<polygon fill="midnightblue" stroke="midnightblue" points="681.18,-141.366 685.268,-131.591 675.977,-136.683 681.18,-141.366"/>
</g>
<!-- Node36&#45;&gt;Node4 -->
<g id="edge51" class="edge"><title>Node36&#45;&gt;Node4</title>
<path fill="none" stroke="midnightblue" d="M187.164,-174.248C273.905,-165.46 544.707,-138.024 650.267,-127.329"/>
<polygon fill="midnightblue" stroke="midnightblue" points="650.654,-130.808 660.25,-126.318 649.948,-123.844 650.654,-130.808"/>
</g>
<!-- Node36&#45;&gt;Node8 -->
<g id="edge48" class="edge"><title>Node36&#45;&gt;Node8</title>
<path fill="none" stroke="midnightblue" d="M149.564,-168.368C127.032,-149.733 73.5891,-105.532 45.2982,-82.1338"/>
<polygon fill="midnightblue" stroke="midnightblue" points="47.3244,-79.2677 37.3878,-75.5914 42.8631,-84.6618 47.3244,-79.2677"/>
</g>
<!-- Node36&#45;&gt;Node10 -->
<g id="edge49" class="edge"><title>Node36&#45;&gt;Node10</title>
<path fill="none" stroke="midnightblue" d="M160,-168.368C160,-150.617 160,-109.666 160,-85.5974"/>
<polygon fill="midnightblue" stroke="midnightblue" points="163.5,-85.5914 160,-75.5914 156.5,-85.5915 163.5,-85.5914"/>
</g>
<!-- Node36&#45;&gt;Node19 -->
<g id="edge50" class="edge"><title>Node36&#45;&gt;Node19</title>
<path fill="none" stroke="midnightblue" d="M154.821,-168.368C143.977,-150.296 118.706,-108.176 104.384,-84.3074"/>
<polygon fill="midnightblue" stroke="midnightblue" points="107.301,-82.3656 99.1549,-75.5914 101.299,-85.9671 107.301,-82.3656"/>
</g>
</g>
</svg>
        <g id="navigator" transform="translate(0 0)" fill="#404254">
                <rect fill="#f2f5e9" fill-opacity="0.5" stroke="#606060" stroke-width=".5" x="0" y="0" width="60" height="60"/>
                <use id="zoomplus" xlink:href="#zoomPlus" x="17" y="9" onmousedown="handleZoom(evt,'in')"/>
                <use id="zoomminus" xlink:href="#zoomMin" x="42" y="9" onmousedown="handleZoom(evt,'out')"/>
                <use id="reset" xlink:href="#resetDef" x="30" y="36" onmousedown="handleReset()"/>
                <g id="arrowUp" xlink:href="#dirArrow" transform="translate(30 24)" onmousedown="handlePan(0,-1)">
                  <use xlink:href="#rim" fill="#404040">
                        <set attributeName="fill" to="#808080" begin="arrowUp.mouseover" end="arrowUp.mouseout"/>
                  </use>
                  <path fill="none" stroke="white" stroke-width="1.5" d="M0,-3.0v7 M-2.5,-0.5L0,-3.0L2.5,-0.5"/>
                </g>
                <g id="arrowRight" xlink:href="#dirArrow" transform="rotate(90) translate(36 -43)" onmousedown="handlePan(1,0)">
                  <use xlink:href="#rim" fill="#404040">
                        <set attributeName="fill" to="#808080" begin="arrowRight.mouseover" end="arrowRight.mouseout"/>
                  </use>
                  <path fill="none" stroke="white" stroke-width="1.5" d="M0,-3.0v7 M-2.5,-0.5L0,-3.0L2.5,-0.5"/>
                </g>
                <g id="arrowDown" xlink:href="#dirArrow" transform="rotate(180) translate(-30 -48)" onmousedown="handlePan(0,1)">
                  <use xlink:href="#rim" fill="#404040">
                        <set attributeName="fill" to="#808080" begin="arrowDown.mouseover" end="arrowDown.mouseout"/>
                  </use>
                  <path fill="none" stroke="white" stroke-width="1.5" d="M0,-3.0v7 M-2.5,-0.5L0,-3.0L2.5,-0.5"/>
                </g>
                <g id="arrowLeft" xlink:href="#dirArrow" transform="rotate(270) translate(-36 17)" onmousedown="handlePan(-1,0)">
                  <use xlink:href="#rim" fill="#404040">
                        <set attributeName="fill" to="#808080" begin="arrowLeft.mouseover" end="arrowLeft.mouseout"/>
                  </use>
                  <path fill="none" stroke="white" stroke-width="1.5" d="M0,-3.0v7 M-2.5,-0.5L0,-3.0L2.5,-0.5"/>
                </g>
        </g>
        <svg viewBox="0 0 15 15" width="100%" height="30px" preserveAspectRatio="xMaxYMin meet">
         <g id="arrow_out" transform="scale(0.3 0.3)">
          <a xlink:href="a00588_org.svg" target="_base">
           <rect id="button" ry="5" rx="5" y="6" x="6" height="38" width="38"
                fill="#f2f5e9" fill-opacity="0.5" stroke="#606060" stroke-width="1.0"/>
           <path id="arrow"
             d="M 11.500037,31.436501 C 11.940474,20.09759 22.043105,11.32322 32.158766,21.979434 L 37.068811,17.246167 C 37.068811,17.246167 37.088388,32 37.088388,32 L 22.160133,31.978069 C 22.160133,31.978069 26.997745,27.140456 26.997745,27.140456 C 18.528582,18.264221 13.291696,25.230495 11.500037,31.436501 z"
             style="fill:#404040;"/>
          </a>
         </g>
        </svg>
</svg>
