<?xml version="1.0" encoding="UTF-8" standalone="no"?>
<!DOCTYPE svg PUBLIC "-//W3C//DTD SVG 1.1//EN"
 "http://www.w3.org/Graphics/SVG/1.1/DTD/svg11.dtd">
<!-- Generated by graphviz version 2.36.0 (20140111.2315)
 -->
<!-- Title: ToFCameraFactoryBase.h Pages: 1 -->
<svg width="965pt" height="140pt"
 viewBox="0.00 0.00 965.00 140.00" xmlns="http://www.w3.org/2000/svg" xmlns:xlink="http://www.w3.org/1999/xlink">
<g id="graph0" class="graph" transform="scale(1 1) rotate(0) translate(4 136)">
<title>ToFCameraFactoryBase.h</title>
<!-- Node1 -->
<g id="node1" class="node"><title>Node1</title>
<polygon fill="#bfbfbf" stroke="black" points="447,-112.5 447,-131.5 579,-131.5 579,-112.5 447,-112.5"/>
<text text-anchor="middle" x="513" y="-119.5" font-family="Helvetica,sans-Serif" font-size="10.00">ToFCameraFactoryBase.h</text>
</g>
<!-- Node2 -->
<g id="node2" class="node"><title>Node2</title>
<g id="a_node2"><a xlink:href="a00212.xhtml" target="_top" xlink:title="CalculusCDKCameraFactory.h">
<polygon fill="none" stroke="black" points="10,-56.5 10,-75.5 162,-75.5 162,-56.5 10,-56.5"/>
<text text-anchor="middle" x="86" y="-63.5" font-family="Helvetica,sans-Serif" font-size="10.00">CalculusCDKCameraFactory.h</text>
</a>
</g>
</g>
<!-- Node1&#45;&gt;Node2 -->
<g id="edge1" class="edge"><title>Node1&#45;&gt;Node2</title>
<path fill="none" stroke="midnightblue" d="M436.673,-111.347C356.148,-101.164 230.47,-85.2703 153.464,-75.5317"/>
<polygon fill="midnightblue" stroke="midnightblue" points="436.39,-114.839 446.75,-112.622 437.268,-107.895 436.39,-114.839"/>
</g>
<!-- Node4 -->
<g id="node4" class="node"><title>Node4</title>
<g id="a_node4"><a xlink:href="a00265.xhtml" target="_top" xlink:title="HaddockCDKCameraFactory.h">
<polygon fill="none" stroke="black" points="191.5,-56.5 191.5,-75.5 344.5,-75.5 344.5,-56.5 191.5,-56.5"/>
<text text-anchor="middle" x="268" y="-63.5" font-family="Helvetica,sans-Serif" font-size="10.00">HaddockCDKCameraFactory.h</text>
</a>
</g>
</g>
<!-- Node1&#45;&gt;Node4 -->
<g id="edge3" class="edge"><title>Node1&#45;&gt;Node4</title>
<path fill="none" stroke="midnightblue" d="M464.37,-110.281C418.071,-100.077 349.305,-84.9203 306.639,-75.5164"/>
<polygon fill="midnightblue" stroke="midnightblue" points="463.66,-113.709 474.179,-112.444 465.167,-106.873 463.66,-113.709"/>
</g>
<!-- Node6 -->
<g id="node6" class="node"><title>Node6</title>
<g id="a_node6"><a xlink:href="a00313.xhtml" target="_top" xlink:title="TintinCDKCameraFactory.h">
<polygon fill="none" stroke="black" points="369,-56.5 369,-75.5 507,-75.5 507,-56.5 369,-56.5"/>
<text text-anchor="middle" x="438" y="-63.5" font-family="Helvetica,sans-Serif" font-size="10.00">TintinCDKCameraFactory.h</text>
</a>
</g>
</g>
<!-- Node1&#45;&gt;Node6 -->
<g id="edge5" class="edge"><title>Node1&#45;&gt;Node6</title>
<path fill="none" stroke="midnightblue" d="M492.695,-106.38C479.139,-96.6204 461.758,-84.1057 450.269,-75.8339"/>
<polygon fill="midnightblue" stroke="midnightblue" points="490.79,-109.321 500.95,-112.324 494.88,-103.641 490.79,-109.321"/>
</g>
<!-- Node8 -->
<g id="node8" class="node"><title>Node8</title>
<g id="a_node8"><a xlink:href="a00363.xhtml" target="_top" xlink:title="Voxel14CameraFactory.h">
<polygon fill="none" stroke="black" points="525,-56.5 525,-75.5 653,-75.5 653,-56.5 525,-56.5"/>
<text text-anchor="middle" x="589" y="-63.5" font-family="Helvetica,sans-Serif" font-size="10.00">Voxel14CameraFactory.h</text>
</a>
</g>
</g>
<!-- Node1&#45;&gt;Node8 -->
<g id="edge7" class="edge"><title>Node1&#45;&gt;Node8</title>
<path fill="none" stroke="midnightblue" d="M533.576,-106.38C547.312,-96.6204 564.925,-84.1057 576.567,-75.8339"/>
<polygon fill="midnightblue" stroke="midnightblue" points="531.335,-103.679 525.211,-112.324 535.39,-109.385 531.335,-103.679"/>
</g>
<!-- Node10 -->
<g id="node10" class="node"><title>Node10</title>
<g id="a_node10"><a xlink:href="a00369.xhtml" target="_top" xlink:title="VoxelDCameraFactory.h">
<polygon fill="none" stroke="black" points="671.5,-56.5 671.5,-75.5 796.5,-75.5 796.5,-56.5 671.5,-56.5"/>
<text text-anchor="middle" x="734" y="-63.5" font-family="Helvetica,sans-Serif" font-size="10.00">VoxelDCameraFactory.h</text>
</a>
</g>
</g>
<!-- Node1&#45;&gt;Node10 -->
<g id="edge9" class="edge"><title>Node1&#45;&gt;Node10</title>
<path fill="none" stroke="midnightblue" d="M557.921,-110.024C599.668,-99.8232 660.982,-84.8414 699.146,-75.5164"/>
<polygon fill="midnightblue" stroke="midnightblue" points="556.902,-106.67 548.018,-112.444 558.563,-113.47 556.902,-106.67"/>
</g>
<!-- Node12 -->
<g id="node12" class="node"><title>Node12</title>
<g id="a_node12"><a xlink:href="a00326.xhtml" target="_top" xlink:title="ToFCameraFactoryBase.cpp">
<polygon fill="none" stroke="black" points="814.5,-56.5 814.5,-75.5 957.5,-75.5 957.5,-56.5 814.5,-56.5"/>
<text text-anchor="middle" x="886" y="-63.5" font-family="Helvetica,sans-Serif" font-size="10.00">ToFCameraFactoryBase.cpp</text>
</a>
</g>
</g>
<!-- Node1&#45;&gt;Node12 -->
<g id="edge11" class="edge"><title>Node1&#45;&gt;Node12</title>
<path fill="none" stroke="midnightblue" d="M582.216,-110.979C652.674,-100.779 760.719,-85.1372 827.174,-75.5164"/>
<polygon fill="midnightblue" stroke="midnightblue" points="581.498,-107.547 572.103,-112.444 582.501,-114.475 581.498,-107.547"/>
</g>
<!-- Node3 -->
<g id="node3" class="node"><title>Node3</title>
<g id="a_node3"><a xlink:href="a00211.xhtml" target="_top" xlink:title="CalculusCDKCameraFactory.cpp">
<polygon fill="none" stroke="black" points="-0.5,-0.5 -0.5,-19.5 162.5,-19.5 162.5,-0.5 -0.5,-0.5"/>
<text text-anchor="middle" x="81" y="-7.5" font-family="Helvetica,sans-Serif" font-size="10.00">CalculusCDKCameraFactory.cpp</text>
</a>
</g>
</g>
<!-- Node2&#45;&gt;Node3 -->
<g id="edge2" class="edge"><title>Node2&#45;&gt;Node3</title>
<path fill="none" stroke="midnightblue" d="M84.25,-46.1005C83.42,-37.1357 82.4683,-26.8579 81.8103,-19.7511"/>
<polygon fill="midnightblue" stroke="midnightblue" points="80.7672,-46.4483 85.1744,-56.083 87.7374,-45.8029 80.7672,-46.4483"/>
</g>
<!-- Node5 -->
<g id="node5" class="node"><title>Node5</title>
<g id="a_node5"><a xlink:href="a00264.xhtml" target="_top" xlink:title="HaddockCDKCameraFactory.cpp">
<polygon fill="none" stroke="black" points="181,-0.5 181,-19.5 345,-19.5 345,-0.5 181,-0.5"/>
<text text-anchor="middle" x="263" y="-7.5" font-family="Helvetica,sans-Serif" font-size="10.00">HaddockCDKCameraFactory.cpp</text>
</a>
</g>
</g>
<!-- Node4&#45;&gt;Node5 -->
<g id="edge4" class="edge"><title>Node4&#45;&gt;Node5</title>
<path fill="none" stroke="midnightblue" d="M266.25,-46.1005C265.42,-37.1357 264.468,-26.8579 263.81,-19.7511"/>
<polygon fill="midnightblue" stroke="midnightblue" points="262.767,-46.4483 267.174,-56.083 269.737,-45.8029 262.767,-46.4483"/>
</g>
<!-- Node7 -->
<g id="node7" class="node"><title>Node7</title>
<g id="a_node7"><a xlink:href="a00312.xhtml" target="_top" xlink:title="TintinCDKCameraFactory.cpp">
<polygon fill="none" stroke="black" points="363.5,-0.5 363.5,-19.5 512.5,-19.5 512.5,-0.5 363.5,-0.5"/>
<text text-anchor="middle" x="438" y="-7.5" font-family="Helvetica,sans-Serif" font-size="10.00">TintinCDKCameraFactory.cpp</text>
</a>
</g>
</g>
<!-- Node6&#45;&gt;Node7 -->
<g id="edge6" class="edge"><title>Node6&#45;&gt;Node7</title>
<path fill="none" stroke="midnightblue" d="M438,-45.8045C438,-36.9102 438,-26.7798 438,-19.7511"/>
<polygon fill="midnightblue" stroke="midnightblue" points="434.5,-46.083 438,-56.083 441.5,-46.083 434.5,-46.083"/>
</g>
<!-- Node9 -->
<g id="node9" class="node"><title>Node9</title>
<g id="a_node9"><a xlink:href="a00362.xhtml" target="_top" xlink:title="Voxel14CameraFactory.cpp">
<polygon fill="none" stroke="black" points="531,-0.5 531,-19.5 669,-19.5 669,-0.5 531,-0.5"/>
<text text-anchor="middle" x="600" y="-7.5" font-family="Helvetica,sans-Serif" font-size="10.00">Voxel14CameraFactory.cpp</text>
</a>
</g>
</g>
<!-- Node8&#45;&gt;Node9 -->
<g id="edge8" class="edge"><title>Node8&#45;&gt;Node9</title>
<path fill="none" stroke="midnightblue" d="M592.85,-46.1005C594.676,-37.1357 596.77,-26.8579 598.217,-19.7511"/>
<polygon fill="midnightblue" stroke="midnightblue" points="589.383,-45.5856 590.816,-56.083 596.242,-46.9829 589.383,-45.5856"/>
</g>
<!-- Node11 -->
<g id="node11" class="node"><title>Node11</title>
<g id="a_node11"><a xlink:href="a00368.xhtml" target="_top" xlink:title="VoxelDCameraFactory.cpp">
<polygon fill="none" stroke="black" points="687.5,-0.5 687.5,-19.5 822.5,-19.5 822.5,-0.5 687.5,-0.5"/>
<text text-anchor="middle" x="755" y="-7.5" font-family="Helvetica,sans-Serif" font-size="10.00">VoxelDCameraFactory.cpp</text>
</a>
</g>
</g>
<!-- Node10&#45;&gt;Node11 -->
<g id="edge10" class="edge"><title>Node10&#45;&gt;Node11</title>
<path fill="none" stroke="midnightblue" d="M741.121,-46.6897C744.66,-37.589 748.772,-27.0141 751.597,-19.7511"/>
<polygon fill="midnightblue" stroke="midnightblue" points="737.83,-45.4944 737.468,-56.083 744.354,-48.0315 737.83,-45.4944"/>
</g>
</g>
</svg>
