<?xml version="1.0" encoding="UTF-8" standalone="no"?>
<!DOCTYPE svg PUBLIC "-//W3C//DTD SVG 1.1//EN"
 "http://www.w3.org/Graphics/SVG/1.1/DTD/svg11.dtd">
<!-- Generated by graphviz version 2.36.0 (20140111.2315)
 -->
<!-- Title: TintinCDKCamera.h Pages: 1 -->
<svg width="648pt" height="84pt"
 viewBox="0.00 0.00 648.00 84.00" xmlns="http://www.w3.org/2000/svg" xmlns:xlink="http://www.w3.org/1999/xlink">
<g id="graph0" class="graph" transform="scale(1 1) rotate(0) translate(4 80)">
<title>TintinCDKCamera.h</title>
<!-- Node1 -->
<g id="node1" class="node"><title>Node1</title>
<polygon fill="#bfbfbf" stroke="black" points="243.5,-56.5 243.5,-75.5 348.5,-75.5 348.5,-56.5 243.5,-56.5"/>
<text text-anchor="middle" x="296" y="-63.5" font-family="Helvetica,sans-Serif" font-size="10.00">TintinCDKCamera.h</text>
</g>
<!-- Node2 -->
<g id="node2" class="node"><title>Node2</title>
<g id="a_node2"><a xlink:href="a00310.xhtml" target="_top" xlink:title="TintinCDKCamera.cpp">
<polygon fill="none" stroke="black" points="0,-0.5 0,-19.5 116,-19.5 116,-0.5 0,-0.5"/>
<text text-anchor="middle" x="58" y="-7.5" font-family="Helvetica,sans-Serif" font-size="10.00">TintinCDKCamera.cpp</text>
</a>
</g>
</g>
<!-- Node1&#45;&gt;Node2 -->
<g id="edge1" class="edge"><title>Node1&#45;&gt;Node2</title>
<path fill="none" stroke="midnightblue" d="M248.476,-54.2172C203.504,-44.0134 136.895,-28.9006 95.5354,-19.5164"/>
<polygon fill="midnightblue" stroke="midnightblue" points="247.762,-57.644 258.288,-56.4435 249.311,-50.8175 247.762,-57.644"/>
</g>
<!-- Node3 -->
<g id="node3" class="node"><title>Node3</title>
<g id="a_node3"><a xlink:href="a00312.xhtml" target="_top" xlink:title="TintinCDKCameraFactory.cpp">
<polygon fill="none" stroke="black" points="133.5,-0.5 133.5,-19.5 282.5,-19.5 282.5,-0.5 133.5,-0.5"/>
<text text-anchor="middle" x="208" y="-7.5" font-family="Helvetica,sans-Serif" font-size="10.00">TintinCDKCameraFactory.cpp</text>
</a>
</g>
</g>
<!-- Node1&#45;&gt;Node3 -->
<g id="edge2" class="edge"><title>Node1&#45;&gt;Node3</title>
<path fill="none" stroke="midnightblue" d="M273.023,-50.9005C256.887,-40.9986 235.819,-28.0705 222.104,-19.6545"/>
<polygon fill="midnightblue" stroke="midnightblue" points="271.507,-54.0769 281.861,-56.324 275.169,-48.1106 271.507,-54.0769"/>
</g>
<!-- Node4 -->
<g id="node4" class="node"><title>Node4</title>
<g id="a_node4"><a xlink:href="a00314.xhtml" target="_top" xlink:title="TintinCDKDownloaderFactory.cpp">
<polygon fill="none" stroke="black" points="301,-0.5 301,-19.5 467,-19.5 467,-0.5 301,-0.5"/>
<text text-anchor="middle" x="384" y="-7.5" font-family="Helvetica,sans-Serif" font-size="10.00">TintinCDKDownloaderFactory.cpp</text>
</a>
</g>
</g>
<!-- Node1&#45;&gt;Node4 -->
<g id="edge3" class="edge"><title>Node1&#45;&gt;Node4</title>
<path fill="none" stroke="midnightblue" d="M318.977,-50.9005C335.113,-40.9986 356.181,-28.0705 369.896,-19.6545"/>
<polygon fill="midnightblue" stroke="midnightblue" points="316.831,-48.1106 310.139,-56.324 320.493,-54.0769 316.831,-48.1106"/>
</g>
<!-- Node5 -->
<g id="node5" class="node"><title>Node5</title>
<g id="a_node5"><a xlink:href="a00316.xhtml" target="_top" xlink:title="TintinEEPROMDownloader.cpp">
<polygon fill="none" stroke="black" points="485.5,-0.5 485.5,-19.5 640.5,-19.5 640.5,-0.5 485.5,-0.5"/>
<text text-anchor="middle" x="563" y="-7.5" font-family="Helvetica,sans-Serif" font-size="10.00">TintinEEPROMDownloader.cpp</text>
</a>
</g>
</g>
<!-- Node1&#45;&gt;Node5 -->
<g id="edge4" class="edge"><title>Node1&#45;&gt;Node5</title>
<path fill="none" stroke="midnightblue" d="M348.364,-54.4096C398.824,-44.2042 474.199,-28.9597 520.891,-19.5164"/>
<polygon fill="midnightblue" stroke="midnightblue" points="347.415,-51.0306 338.307,-56.4435 348.802,-57.8917 347.415,-51.0306"/>
</g>
</g>
</svg>
