<?xml version="1.0" encoding="UTF-8" standalone="no"?>
<!DOCTYPE svg PUBLIC "-//W3C//DTD SVG 1.1//EN"
 "http://www.w3.org/Graphics/SVG/1.1/DTD/svg11.dtd">
<!-- Generated by graphviz version 2.36.0 (20140111.2315)
 -->
<!-- Title: VoxelProgrammerBase.h Pages: 1 -->
<!--zoomable 252 -->
<svg id="main" version="1.1" xmlns="http://www.w3.org/2000/svg" xmlns:xlink="http://www.w3.org/1999/xlink" xml:space="preserve" onload="init(evt)">
<style type="text/css"><![CDATA[
.edge:hover path { stroke: red; }
.edge:hover polygon { stroke: red; fill: red; }
]]></style>
<script type="text/javascript"><![CDATA[
var edges = document.getElementsByTagName('g');
if (edges && edges.length) {
  for (var i=0;i<edges.length;i++) {
    if (edges[i].id.substr(0,4)=='edge') {
      edges[i].setAttribute('class','edge');
    }
  }
}
]]></script>
        <defs>
                <circle id="rim" cx="0" cy="0" r="7"/>
                <circle id="rim2" cx="0" cy="0" r="3.5"/>
                <g id="zoomPlus">
                        <use xlink:href="#rim" fill="#404040">
                                <set attributeName="fill" to="#808080" begin="zoomplus.mouseover" end="zoomplus.mouseout"/>
                        </use>
                        <path d="M-4,0h8M0,-4v8" fill="none" stroke="white" stroke-width="1.5" pointer-events="none"/>
                </g>
                <g id="zoomMin">
                        <use xlink:href="#rim" fill="#404040">
                                <set attributeName="fill" to="#808080" begin="zoomminus.mouseover" end="zoomminus.mouseout"/>
                        </use>
                        <path d="M-4,0h8" fill="none" stroke="white" stroke-width="1.5" pointer-events="none"/>
                </g>
                <g id="dirArrow">
                        <path fill="none" stroke="white" stroke-width="1.5" d="M0,-3.0v7 M-2.5,-0.5L0,-3.0L2.5,-0.5"/>
                </g>
               <g id="resetDef">
                       <use xlink:href="#rim2" fill="#404040">
                               <set attributeName="fill" to="#808080" begin="reset.mouseover" end="reset.mouseout"/>
                       </use>
               </g>
        </defs>

<script type="text/javascript">
var viewWidth = 1428;
var viewHeight = 252;
var sectionId = 'dynsection-0';
</script>
<script xlink:href="svgpan.js"/>
<svg id="graph" class="graph">
<g id="viewport">
<title>VoxelProgrammerBase.h</title>
<!-- Node1 -->
<g id="node1" class="node"><title>Node1</title>
<polygon fill="#bfbfbf" stroke="black" points="660.5,-224.5 660.5,-243.5 785.5,-243.5 785.5,-224.5 660.5,-224.5"/>
<text text-anchor="middle" x="723" y="-231.5" font-family="Helvetica,sans-Serif" font-size="10.00">VoxelProgrammerBase.h</text>
</g>
<!-- Node2 -->
<g id="node2" class="node"><title>Node2</title>
<g id="a_node2"><a xlink:href="a00297.xhtml" target="_top" xlink:title="RegisterProgrammer.h">
<polygon fill="none" stroke="black" points="562.5,-168.5 562.5,-187.5 677.5,-187.5 677.5,-168.5 562.5,-168.5"/>
<text text-anchor="middle" x="620" y="-175.5" font-family="Helvetica,sans-Serif" font-size="10.00">RegisterProgrammer.h</text>
</a>
</g>
</g>
<!-- Node1&#45;&gt;Node2 -->
<g id="edge1" class="edge"><title>Node1&#45;&gt;Node2</title>
<path fill="none" stroke="midnightblue" d="M706.451,-224.324C690.008,-215.703 664.565,-202.364 645.532,-192.386"/>
<polygon fill="midnightblue" stroke="midnightblue" points="646.989,-189.198 636.508,-187.655 643.739,-195.398 646.989,-189.198"/>
</g>
<!-- Node25 -->
<g id="node25" class="node"><title>Node25</title>
<g id="a_node25"><a xlink:href="a00239.xhtml" target="_top" xlink:title="Device.h">
<polygon fill="none" stroke="black" points="695,-168.5 695,-187.5 751,-187.5 751,-168.5 695,-168.5"/>
<text text-anchor="middle" x="723" y="-175.5" font-family="Helvetica,sans-Serif" font-size="10.00">Device.h</text>
</a>
</g>
</g>
<!-- Node1&#45;&gt;Node25 -->
<g id="edge25" class="edge"><title>Node1&#45;&gt;Node25</title>
<path fill="none" stroke="midnightblue" d="M723,-224.083C723,-217.006 723,-206.861 723,-197.986"/>
<polygon fill="midnightblue" stroke="midnightblue" points="726.5,-197.751 723,-187.751 719.5,-197.751 726.5,-197.751"/>
</g>
<!-- Node26 -->
<g id="node26" class="node"><title>Node26</title>
<polygon fill="none" stroke="#bfbfbf" points="769,-168.5 769,-187.5 867,-187.5 867,-168.5 769,-168.5"/>
<text text-anchor="middle" x="818" y="-175.5" font-family="Helvetica,sans-Serif" font-size="10.00">TI3DToFExports.h</text>
</g>
<!-- Node1&#45;&gt;Node26 -->
<g id="edge28" class="edge"><title>Node1&#45;&gt;Node26</title>
<path fill="none" stroke="midnightblue" d="M738.263,-224.324C753.221,-215.822 776.255,-202.729 793.727,-192.797"/>
<polygon fill="midnightblue" stroke="midnightblue" points="795.81,-195.639 802.774,-187.655 792.351,-189.553 795.81,-195.639"/>
</g>
<!-- Node3 -->
<g id="node3" class="node"><title>Node3</title>
<g id="a_node3"><a xlink:href="a00223.xhtml" target="_top" xlink:title="Common.h">
<polygon fill="none" stroke="black" points="628.5,-112.5 628.5,-131.5 693.5,-131.5 693.5,-112.5 628.5,-112.5"/>
<text text-anchor="middle" x="661" y="-119.5" font-family="Helvetica,sans-Serif" font-size="10.00">Common.h</text>
</a>
</g>
</g>
<!-- Node2&#45;&gt;Node3 -->
<g id="edge2" class="edge"><title>Node2&#45;&gt;Node3</title>
<path fill="none" stroke="midnightblue" d="M626.77,-168.083C632.562,-160.455 641.058,-149.264 648.138,-139.941"/>
<polygon fill="midnightblue" stroke="midnightblue" points="651.096,-141.832 654.356,-131.751 645.521,-137.599 651.096,-141.832"/>
</g>
<!-- Node5 -->
<g id="node5" class="node"><title>Node5</title>
<polygon fill="none" stroke="#bfbfbf" points="-0.5,-56.5 -0.5,-75.5 48.5,-75.5 48.5,-56.5 -0.5,-56.5"/>
<text text-anchor="middle" x="24" y="-63.5" font-family="Helvetica,sans-Serif" font-size="10.00">stdint.h</text>
</g>
<!-- Node2&#45;&gt;Node5 -->
<g id="edge24" class="edge"><title>Node2&#45;&gt;Node5</title>
<path fill="none" stroke="midnightblue" d="M562.927,-168.478C462.607,-153.124 248.062,-118.617 58.6628,-76.2368"/>
<polygon fill="midnightblue" stroke="midnightblue" points="59.3315,-72.7998 48.8071,-74.0191 57.7948,-79.6291 59.3315,-72.7998"/>
</g>
<!-- Node4 -->
<g id="node4" class="node"><title>Node4</title>
<polygon fill="none" stroke="#bfbfbf" points="1306,-56.5 1306,-75.5 1350,-75.5 1350,-56.5 1306,-56.5"/>
<text text-anchor="middle" x="1328" y="-63.5" font-family="Helvetica,sans-Serif" font-size="10.00">vector</text>
</g>
<!-- Node3&#45;&gt;Node4 -->
<g id="edge3" class="edge"><title>Node3&#45;&gt;Node4</title>
<path fill="none" stroke="midnightblue" d="M693.664,-121.018C786.533,-120.578 1060,-115.869 1295.62,-75.6367"/>
<polygon fill="midnightblue" stroke="midnightblue" points="1296.5,-79.0375 1305.75,-73.8809 1295.3,-72.1403 1296.5,-79.0375"/>
</g>
<!-- Node3&#45;&gt;Node5 -->
<g id="edge4" class="edge"><title>Node3&#45;&gt;Node5</title>
<path fill="none" stroke="midnightblue" d="M628.192,-116.223C617.041,-114.715 604.494,-113.145 593,-112 358.666,-88.6477 294.205,-114.871 58.6435,-75.9732"/>
<polygon fill="midnightblue" stroke="midnightblue" points="59.1888,-72.5159 48.7483,-74.3179 58.0337,-79.42 59.1888,-72.5159"/>
</g>
<!-- Node6 -->
<g id="node6" class="node"><title>Node6</title>
<polygon fill="none" stroke="#bfbfbf" points="66.5,-56.5 66.5,-75.5 107.5,-75.5 107.5,-56.5 66.5,-56.5"/>
<text text-anchor="middle" x="87" y="-63.5" font-family="Helvetica,sans-Serif" font-size="10.00">string</text>
</g>
<!-- Node3&#45;&gt;Node6 -->
<g id="edge5" class="edge"><title>Node3&#45;&gt;Node6</title>
<path fill="none" stroke="midnightblue" d="M628.186,-116.279C617.035,-114.775 604.489,-113.194 593,-112 385.274,-90.4154 327.398,-113.949 117.619,-75.6612"/>
<polygon fill="midnightblue" stroke="midnightblue" points="117.983,-72.1692 107.513,-73.7908 116.709,-79.0523 117.983,-72.1692"/>
</g>
<!-- Node7 -->
<g id="node7" class="node"><title>Node7</title>
<polygon fill="none" stroke="#bfbfbf" points="126,-56.5 126,-75.5 180,-75.5 180,-56.5 126,-56.5"/>
<text text-anchor="middle" x="153" y="-63.5" font-family="Helvetica,sans-Serif" font-size="10.00">iostream</text>
</g>
<!-- Node3&#45;&gt;Node7 -->
<g id="edge6" class="edge"><title>Node3&#45;&gt;Node7</title>
<path fill="none" stroke="midnightblue" d="M628.177,-116.368C617.024,-114.871 604.481,-113.271 593,-112 417.064,-92.5274 368.505,-105.465 190.017,-75.9134"/>
<polygon fill="midnightblue" stroke="midnightblue" points="190.473,-72.441 180.031,-74.2387 189.315,-79.3446 190.473,-72.441"/>
</g>
<!-- Node8 -->
<g id="node8" class="node"><title>Node8</title>
<polygon fill="none" stroke="#bfbfbf" points="198,-56.5 198,-75.5 248,-75.5 248,-56.5 198,-56.5"/>
<text text-anchor="middle" x="223" y="-63.5" font-family="Helvetica,sans-Serif" font-size="10.00">fstream</text>
</g>
<!-- Node3&#45;&gt;Node8 -->
<g id="edge7" class="edge"><title>Node3&#45;&gt;Node8</title>
<path fill="none" stroke="midnightblue" d="M628.163,-116.488C617.01,-115 604.469,-113.375 593,-112 444.319,-94.1747 405.344,-102.716 258,-76 257.9,-75.9818 257.799,-75.9635 257.699,-75.945"/>
<polygon fill="midnightblue" stroke="midnightblue" points="258.646,-72.568 248.139,-73.928 257.201,-79.4172 258.646,-72.568"/>
</g>
<!-- Node9 -->
<g id="node9" class="node"><title>Node9</title>
<polygon fill="none" stroke="#bfbfbf" points="1368,-56.5 1368,-75.5 1420,-75.5 1420,-56.5 1368,-56.5"/>
<text text-anchor="middle" x="1394" y="-63.5" font-family="Helvetica,sans-Serif" font-size="10.00">sstream</text>
</g>
<!-- Node3&#45;&gt;Node9 -->
<g id="edge8" class="edge"><title>Node3&#45;&gt;Node9</title>
<path fill="none" stroke="midnightblue" d="M693.535,-120.978C792.158,-120.474 1096.44,-115.694 1357.71,-75.7001"/>
<polygon fill="midnightblue" stroke="midnightblue" points="1358.42,-79.1317 1367.77,-74.1398 1357.35,-72.2145 1358.42,-79.1317"/>
</g>
<!-- Node10 -->
<g id="node10" class="node"><title>Node10</title>
<polygon fill="none" stroke="#bfbfbf" points="266.5,-56.5 266.5,-75.5 349.5,-75.5 349.5,-56.5 266.5,-56.5"/>
<text text-anchor="middle" x="308" y="-63.5" font-family="Helvetica,sans-Serif" font-size="10.00">unordered_map</text>
</g>
<!-- Node3&#45;&gt;Node10 -->
<g id="edge9" class="edge"><title>Node3&#45;&gt;Node10</title>
<path fill="none" stroke="midnightblue" d="M628.332,-116.424C574.618,-108.838 464.035,-92.953 359.799,-76.0928"/>
<polygon fill="midnightblue" stroke="midnightblue" points="360.165,-72.6065 349.733,-74.4583 359.043,-79.516 360.165,-72.6065"/>
</g>
<!-- Node11 -->
<g id="node11" class="node"><title>Node11</title>
<polygon fill="none" stroke="#bfbfbf" points="367.5,-56.5 367.5,-75.5 426.5,-75.5 426.5,-56.5 367.5,-56.5"/>
<text text-anchor="middle" x="397" y="-63.5" font-family="Helvetica,sans-Serif" font-size="10.00">functional</text>
</g>
<!-- Node3&#45;&gt;Node11 -->
<g id="edge10" class="edge"><title>Node3&#45;&gt;Node11</title>
<path fill="none" stroke="midnightblue" d="M628.147,-114.743C586.155,-106.677 510.969,-92.0061 436.775,-76.1167"/>
<polygon fill="midnightblue" stroke="midnightblue" points="437.303,-72.6503 426.79,-73.9696 435.831,-79.4938 437.303,-72.6503"/>
</g>
<!-- Node12 -->
<g id="node12" class="node"><title>Node12</title>
<polygon fill="none" stroke="#bfbfbf" points="444.5,-56.5 444.5,-75.5 473.5,-75.5 473.5,-56.5 444.5,-56.5"/>
<text text-anchor="middle" x="459" y="-63.5" font-family="Helvetica,sans-Serif" font-size="10.00">list</text>
</g>
<!-- Node3&#45;&gt;Node12 -->
<g id="edge11" class="edge"><title>Node3&#45;&gt;Node12</title>
<path fill="none" stroke="midnightblue" d="M628.215,-113.863C594.236,-106.214 539.451,-93.1814 483.375,-75.8356"/>
<polygon fill="midnightblue" stroke="midnightblue" points="484.223,-72.4335 473.633,-72.7821 482.129,-79.113 484.223,-72.4335"/>
</g>
<!-- Node13 -->
<g id="node13" class="node"><title>Node13</title>
<polygon fill="none" stroke="#bfbfbf" points="492,-56.5 492,-75.5 522,-75.5 522,-56.5 492,-56.5"/>
<text text-anchor="middle" x="507" y="-63.5" font-family="Helvetica,sans-Serif" font-size="10.00">set</text>
</g>
<!-- Node3&#45;&gt;Node13 -->
<g id="edge12" class="edge"><title>Node3&#45;&gt;Node13</title>
<path fill="none" stroke="midnightblue" d="M635.524,-112.396C611.112,-104.104 573.014,-91.0437 531.65,-76.1752"/>
<polygon fill="midnightblue" stroke="midnightblue" points="532.808,-72.8721 522.214,-72.7719 530.433,-79.457 532.808,-72.8721"/>
</g>
<!-- Node14 -->
<g id="node14" class="node"><title>Node14</title>
<polygon fill="none" stroke="#bfbfbf" points="540,-56.5 540,-75.5 586,-75.5 586,-56.5 540,-56.5"/>
<text text-anchor="middle" x="563" y="-63.5" font-family="Helvetica,sans-Serif" font-size="10.00">atomic</text>
</g>
<!-- Node3&#45;&gt;Node14 -->
<g id="edge13" class="edge"><title>Node3&#45;&gt;Node14</title>
<path fill="none" stroke="midnightblue" d="M645.255,-112.324C629.681,-103.743 605.623,-90.486 587.541,-80.5224"/>
<polygon fill="midnightblue" stroke="midnightblue" points="589.154,-77.4152 578.706,-75.6545 585.776,-83.546 589.154,-77.4152"/>
</g>
<!-- Node15 -->
<g id="node15" class="node"><title>Node15</title>
<polygon fill="none" stroke="#bfbfbf" points="604,-56.5 604,-75.5 650,-75.5 650,-56.5 604,-56.5"/>
<text text-anchor="middle" x="627" y="-63.5" font-family="Helvetica,sans-Serif" font-size="10.00">cctype</text>
</g>
<!-- Node3&#45;&gt;Node15 -->
<g id="edge14" class="edge"><title>Node3&#45;&gt;Node15</title>
<path fill="none" stroke="midnightblue" d="M655.386,-112.083C650.633,-104.534 643.682,-93.4948 637.848,-84.2298"/>
<polygon fill="midnightblue" stroke="midnightblue" points="640.8,-82.3486 632.51,-75.7511 634.876,-86.0783 640.8,-82.3486"/>
</g>
<!-- Node16 -->
<g id="node16" class="node"><title>Node16</title>
<polygon fill="none" stroke="#bfbfbf" points="668,-56.5 668,-75.5 724,-75.5 724,-56.5 668,-56.5"/>
<text text-anchor="middle" x="696" y="-63.5" font-family="Helvetica,sans-Serif" font-size="10.00">algorithm</text>
</g>
<!-- Node3&#45;&gt;Node16 -->
<g id="edge15" class="edge"><title>Node3&#45;&gt;Node16</title>
<path fill="none" stroke="midnightblue" d="M666.78,-112.083C671.672,-104.534 678.827,-93.4948 684.833,-84.2298"/>
<polygon fill="midnightblue" stroke="midnightblue" points="687.826,-86.0463 690.328,-75.7511 681.952,-82.239 687.826,-86.0463"/>
</g>
<!-- Node17 -->
<g id="node17" class="node"><title>Node17</title>
<polygon fill="none" stroke="#bfbfbf" points="742.5,-56.5 742.5,-75.5 795.5,-75.5 795.5,-56.5 742.5,-56.5"/>
<text text-anchor="middle" x="769" y="-63.5" font-family="Helvetica,sans-Serif" font-size="10.00">complex</text>
</g>
<!-- Node3&#45;&gt;Node17 -->
<g id="edge16" class="edge"><title>Node3&#45;&gt;Node17</title>
<path fill="none" stroke="midnightblue" d="M678.352,-112.324C695.672,-103.664 722.515,-90.2424 742.502,-80.249"/>
<polygon fill="midnightblue" stroke="midnightblue" points="744.312,-83.2572 751.691,-75.6545 741.181,-76.9962 744.312,-83.2572"/>
</g>
<!-- Node18 -->
<g id="node18" class="node"><title>Node18</title>
<polygon fill="none" stroke="#bfbfbf" points="814,-56.5 814,-75.5 858,-75.5 858,-56.5 814,-56.5"/>
<text text-anchor="middle" x="836" y="-63.5" font-family="Helvetica,sans-Serif" font-size="10.00">thread</text>
</g>
<!-- Node3&#45;&gt;Node18 -->
<g id="edge17" class="edge"><title>Node3&#45;&gt;Node18</title>
<path fill="none" stroke="midnightblue" d="M688.729,-112.444C720.172,-102.741 771.341,-86.952 804.329,-76.7727"/>
<polygon fill="midnightblue" stroke="midnightblue" points="805.418,-80.0997 813.941,-73.8067 803.354,-73.4109 805.418,-80.0997"/>
</g>
<!-- Node19 -->
<g id="node19" class="node"><title>Node19</title>
<g id="a_node19"><a xlink:href="a00291.xhtml" target="_top" xlink:title="Ptr.h">
<polygon fill="none" stroke="black" points="876,-56.5 876,-75.5 914,-75.5 914,-56.5 876,-56.5"/>
<text text-anchor="middle" x="895" y="-63.5" font-family="Helvetica,sans-Serif" font-size="10.00">Ptr.h</text>
</a>
</g>
</g>
<!-- Node3&#45;&gt;Node19 -->
<g id="edge18" class="edge"><title>Node3&#45;&gt;Node19</title>
<path fill="none" stroke="midnightblue" d="M693.514,-114.75C734.114,-106.742 805.586,-91.9747 866,-76 866.099,-75.9739 866.198,-75.9477 866.297,-75.9213"/>
<polygon fill="midnightblue" stroke="midnightblue" points="867.067,-79.3414 875.723,-73.2326 865.146,-72.6099 867.067,-79.3414"/>
</g>
<!-- Node21 -->
<g id="node21" class="node"><title>Node21</title>
<polygon fill="none" stroke="#bfbfbf" points="932,-56.5 932,-75.5 976,-75.5 976,-56.5 932,-56.5"/>
<text text-anchor="middle" x="954" y="-63.5" font-family="Helvetica,sans-Serif" font-size="10.00">mutex</text>
</g>
<!-- Node3&#45;&gt;Node21 -->
<g id="edge20" class="edge"><title>Node3&#45;&gt;Node21</title>
<path fill="none" stroke="midnightblue" d="M693.501,-116.618C741.457,-109.893 834.134,-95.9076 921.883,-76.0491"/>
<polygon fill="midnightblue" stroke="midnightblue" points="922.763,-79.4381 931.728,-73.7911 921.198,-72.6152 922.763,-79.4381"/>
</g>
<!-- Node22 -->
<g id="node22" class="node"><title>Node22</title>
<polygon fill="none" stroke="#bfbfbf" points="994.5,-56.5 994.5,-75.5 1089.5,-75.5 1089.5,-56.5 994.5,-56.5"/>
<text text-anchor="middle" x="1042" y="-63.5" font-family="Helvetica,sans-Serif" font-size="10.00">condition_variable</text>
</g>
<!-- Node3&#45;&gt;Node22 -->
<g id="edge21" class="edge"><title>Node3&#45;&gt;Node22</title>
<path fill="none" stroke="midnightblue" d="M693.575,-116.632C751.867,-108.777 877.853,-91.6287 984,-76 984.104,-75.9847 984.208,-75.9694 984.312,-75.954"/>
<polygon fill="midnightblue" stroke="midnightblue" points="984.843,-79.4137 994.216,-74.4748 983.809,-72.4905 984.843,-79.4137"/>
</g>
<!-- Node23 -->
<g id="node23" class="node"><title>Node23</title>
<polygon fill="none" stroke="#bfbfbf" points="1108,-56.5 1108,-75.5 1186,-75.5 1186,-56.5 1108,-56.5"/>
<text text-anchor="middle" x="1147" y="-63.5" font-family="Helvetica,sans-Serif" font-size="10.00">VoxelConfig.h</text>
</g>
<!-- Node3&#45;&gt;Node23 -->
<g id="edge22" class="edge"><title>Node3&#45;&gt;Node23</title>
<path fill="none" stroke="midnightblue" d="M693.726,-118.52C766.577,-112.804 947.566,-97.5265 1098,-76 1098.1,-75.9855 1098.2,-75.9708 1098.31,-75.9562"/>
<polygon fill="midnightblue" stroke="midnightblue" points="1098.65,-79.4444 1108,-74.4511 1097.58,-72.5273 1098.65,-79.4444"/>
</g>
<!-- Node24 -->
<g id="node24" class="node"><title>Node24</title>
<polygon fill="none" stroke="#bfbfbf" points="1204.5,-56.5 1204.5,-75.5 1287.5,-75.5 1287.5,-56.5 1204.5,-56.5"/>
<text text-anchor="middle" x="1246" y="-63.5" font-family="Helvetica,sans-Serif" font-size="10.00">VoxelExports.h</text>
</g>
<!-- Node3&#45;&gt;Node24 -->
<g id="edge23" class="edge"><title>Node3&#45;&gt;Node24</title>
<path fill="none" stroke="midnightblue" d="M693.617,-119.283C775.786,-114.739 998.095,-101.083 1194.1,-75.9952"/>
<polygon fill="midnightblue" stroke="midnightblue" points="1194.83,-79.4299 1204.3,-74.6762 1193.93,-72.4877 1194.83,-79.4299"/>
</g>
<!-- Node20 -->
<g id="node20" class="node"><title>Node20</title>
<polygon fill="none" stroke="#bfbfbf" points="869,-0.5 869,-19.5 921,-19.5 921,-0.5 869,-0.5"/>
<text text-anchor="middle" x="895" y="-7.5" font-family="Helvetica,sans-Serif" font-size="10.00">memory</text>
</g>
<!-- Node19&#45;&gt;Node20 -->
<g id="edge19" class="edge"><title>Node19&#45;&gt;Node20</title>
<path fill="none" stroke="midnightblue" d="M895,-56.083C895,-49.0059 895,-38.8611 895,-29.9865"/>
<polygon fill="midnightblue" stroke="midnightblue" points="898.5,-29.751 895,-19.7511 891.5,-29.7511 898.5,-29.751"/>
</g>
<!-- Node25&#45;&gt;Node3 -->
<g id="edge26" class="edge"><title>Node25&#45;&gt;Node3</title>
<path fill="none" stroke="midnightblue" d="M713.039,-168.324C703.873,-160.341 690.063,-148.313 678.972,-138.653"/>
<polygon fill="midnightblue" stroke="midnightblue" points="680.982,-135.762 671.143,-131.834 676.385,-141.041 680.982,-135.762"/>
</g>
<!-- Node25&#45;&gt;Node9 -->
<g id="edge27" class="edge"><title>Node25&#45;&gt;Node9</title>
<path fill="none" stroke="midnightblue" d="M751.226,-169.87C754.181,-169.202 757.147,-168.565 760,-168 1020.56,-116.367 1092.64,-128.794 1357.8,-75.8609"/>
<polygon fill="midnightblue" stroke="midnightblue" points="1358.6,-79.2692 1367.72,-73.8683 1357.22,-72.4063 1358.6,-79.2692"/>
</g>
</g>
</svg>
        <g id="navigator" transform="translate(0 0)" fill="#404254">
                <rect fill="#f2f5e9" fill-opacity="0.5" stroke="#606060" stroke-width=".5" x="0" y="0" width="60" height="60"/>
                <use id="zoomplus" xlink:href="#zoomPlus" x="17" y="9" onmousedown="handleZoom(evt,'in')"/>
                <use id="zoomminus" xlink:href="#zoomMin" x="42" y="9" onmousedown="handleZoom(evt,'out')"/>
                <use id="reset" xlink:href="#resetDef" x="30" y="36" onmousedown="handleReset()"/>
                <g id="arrowUp" xlink:href="#dirArrow" transform="translate(30 24)" onmousedown="handlePan(0,-1)">
                  <use xlink:href="#rim" fill="#404040">
                        <set attributeName="fill" to="#808080" begin="arrowUp.mouseover" end="arrowUp.mouseout"/>
                  </use>
                  <path fill="none" stroke="white" stroke-width="1.5" d="M0,-3.0v7 M-2.5,-0.5L0,-3.0L2.5,-0.5"/>
                </g>
                <g id="arrowRight" xlink:href="#dirArrow" transform="rotate(90) translate(36 -43)" onmousedown="handlePan(1,0)">
                  <use xlink:href="#rim" fill="#404040">
                        <set attributeName="fill" to="#808080" begin="arrowRight.mouseover" end="arrowRight.mouseout"/>
                  </use>
                  <path fill="none" stroke="white" stroke-width="1.5" d="M0,-3.0v7 M-2.5,-0.5L0,-3.0L2.5,-0.5"/>
                </g>
                <g id="arrowDown" xlink:href="#dirArrow" transform="rotate(180) translate(-30 -48)" onmousedown="handlePan(0,1)">
                  <use xlink:href="#rim" fill="#404040">
                        <set attributeName="fill" to="#808080" begin="arrowDown.mouseover" end="arrowDown.mouseout"/>
                  </use>
                  <path fill="none" stroke="white" stroke-width="1.5" d="M0,-3.0v7 M-2.5,-0.5L0,-3.0L2.5,-0.5"/>
                </g>
                <g id="arrowLeft" xlink:href="#dirArrow" transform="rotate(270) translate(-36 17)" onmousedown="handlePan(-1,0)">
                  <use xlink:href="#rim" fill="#404040">
                        <set attributeName="fill" to="#808080" begin="arrowLeft.mouseover" end="arrowLeft.mouseout"/>
                  </use>
                  <path fill="none" stroke="white" stroke-width="1.5" d="M0,-3.0v7 M-2.5,-0.5L0,-3.0L2.5,-0.5"/>
                </g>
        </g>
        <svg viewBox="0 0 15 15" width="100%" height="30px" preserveAspectRatio="xMaxYMin meet">
         <g id="arrow_out" transform="scale(0.3 0.3)">
          <a xlink:href="a00638_org.svg" target="_base">
           <rect id="button" ry="5" rx="5" y="6" x="6" height="38" width="38"
                fill="#f2f5e9" fill-opacity="0.5" stroke="#606060" stroke-width="1.0"/>
           <path id="arrow"
             d="M 11.500037,31.436501 C 11.940474,20.09759 22.043105,11.32322 32.158766,21.979434 L 37.068811,17.246167 C 37.068811,17.246167 37.088388,32 37.088388,32 L 22.160133,31.978069 C 22.160133,31.978069 26.997745,27.140456 26.997745,27.140456 C 18.528582,18.264221 13.291696,25.230495 11.500037,31.436501 z"
             style="fill:#404040;"/>
          </a>
         </g>
        </svg>
</svg>
