<?xml version="1.0" encoding="UTF-8" standalone="no"?>
<!DOCTYPE svg PUBLIC "-//W3C//DTD SVG 1.1//EN"
 "http://www.w3.org/Graphics/SVG/1.1/DTD/svg11.dtd">
<!-- Generated by graphviz version 2.36.0 (20140111.2315)
 -->
<!-- Title: UVCXU.h Pages: 1 -->
<svg width="832pt" height="140pt"
 viewBox="0.00 0.00 832.00 140.00" xmlns="http://www.w3.org/2000/svg" xmlns:xlink="http://www.w3.org/1999/xlink">
<g id="graph0" class="graph" transform="scale(1 1) rotate(0) translate(4 136)">
<title>UVCXU.h</title>
<!-- Node1 -->
<g id="node1" class="node"><title>Node1</title>
<polygon fill="#bfbfbf" stroke="black" points="456.5,-112.5 456.5,-131.5 517.5,-131.5 517.5,-112.5 456.5,-112.5"/>
<text text-anchor="middle" x="487" y="-119.5" font-family="Helvetica,sans-Serif" font-size="10.00">UVCXU.h</text>
</g>
<!-- Node2 -->
<g id="node2" class="node"><title>Node2</title>
<g id="a_node2"><a xlink:href="a00377.xhtml" target="_top" xlink:title="VoxelXUProgrammer.h">
<polygon fill="none" stroke="black" points="372.5,-56.5 372.5,-75.5 489.5,-75.5 489.5,-56.5 372.5,-56.5"/>
<text text-anchor="middle" x="431" y="-63.5" font-family="Helvetica,sans-Serif" font-size="10.00">VoxelXUProgrammer.h</text>
</a>
</g>
</g>
<!-- Node1&#45;&gt;Node2 -->
<g id="edge1" class="edge"><title>Node1&#45;&gt;Node2</title>
<path fill="none" stroke="midnightblue" d="M470.67,-105.253C460.735,-95.6731 448.412,-83.7906 440.161,-75.8339"/>
<polygon fill="midnightblue" stroke="midnightblue" points="468.375,-107.902 478.003,-112.324 473.234,-102.863 468.375,-107.902"/>
</g>
<!-- Node9 -->
<g id="node9" class="node"><title>Node9</title>
<g id="a_node9"><a xlink:href="a00357.xhtml" target="_top" xlink:title="UVCXU.cpp">
<polygon fill="none" stroke="black" points="507.5,-56.5 507.5,-75.5 578.5,-75.5 578.5,-56.5 507.5,-56.5"/>
<text text-anchor="middle" x="543" y="-63.5" font-family="Helvetica,sans-Serif" font-size="10.00">UVCXU.cpp</text>
</a>
</g>
</g>
<!-- Node1&#45;&gt;Node9 -->
<g id="edge8" class="edge"><title>Node1&#45;&gt;Node9</title>
<path fill="none" stroke="midnightblue" d="M503.33,-105.253C513.265,-95.6731 525.588,-83.7906 533.839,-75.8339"/>
<polygon fill="midnightblue" stroke="midnightblue" points="500.766,-102.863 495.997,-112.324 505.625,-107.902 500.766,-102.863"/>
</g>
<!-- Node3 -->
<g id="node3" class="node"><title>Node3</title>
<g id="a_node3"><a xlink:href="a00364.xhtml" target="_top" xlink:title="Voxel14RegisterTest.cpp">
<polygon fill="none" stroke="black" points="-0.5,-0.5 -0.5,-19.5 126.5,-19.5 126.5,-0.5 -0.5,-0.5"/>
<text text-anchor="middle" x="63" y="-7.5" font-family="Helvetica,sans-Serif" font-size="10.00">Voxel14RegisterTest.cpp</text>
</a>
</g>
</g>
<!-- Node2&#45;&gt;Node3 -->
<g id="edge2" class="edge"><title>Node2&#45;&gt;Node3</title>
<path fill="none" stroke="midnightblue" d="M362.712,-54.9794C293.198,-44.7791 186.601,-29.1372 121.038,-19.5164"/>
<polygon fill="midnightblue" stroke="midnightblue" points="362.287,-58.4545 372.689,-56.4435 363.303,-51.5287 362.287,-58.4545"/>
</g>
<!-- Node4 -->
<g id="node4" class="node"><title>Node4</title>
<g id="a_node4"><a xlink:href="a00310.xhtml" target="_top" xlink:title="TintinCDKCamera.cpp">
<polygon fill="none" stroke="black" points="145,-0.5 145,-19.5 261,-19.5 261,-0.5 145,-0.5"/>
<text text-anchor="middle" x="203" y="-7.5" font-family="Helvetica,sans-Serif" font-size="10.00">TintinCDKCamera.cpp</text>
</a>
</g>
</g>
<!-- Node2&#45;&gt;Node4 -->
<g id="edge3" class="edge"><title>Node2&#45;&gt;Node4</title>
<path fill="none" stroke="midnightblue" d="M384.929,-54.0884C341.854,-43.8865 278.414,-28.8612 238.958,-19.5164"/>
<polygon fill="midnightblue" stroke="midnightblue" points="384.335,-57.5446 394.873,-56.4435 385.949,-50.733 384.335,-57.5446"/>
</g>
<!-- Node5 -->
<g id="node5" class="node"><title>Node5</title>
<g id="a_node5"><a xlink:href="a00316.xhtml" target="_top" xlink:title="TintinEEPROMDownloader.cpp">
<polygon fill="none" stroke="black" points="279.5,-0.5 279.5,-19.5 434.5,-19.5 434.5,-0.5 279.5,-0.5"/>
<text text-anchor="middle" x="357" y="-7.5" font-family="Helvetica,sans-Serif" font-size="10.00">TintinEEPROMDownloader.cpp</text>
</a>
</g>
</g>
<!-- Node2&#45;&gt;Node5 -->
<g id="edge4" class="edge"><title>Node2&#45;&gt;Node5</title>
<path fill="none" stroke="midnightblue" d="M410.966,-50.3804C397.591,-40.6204 380.441,-28.1057 369.106,-19.8339"/>
<polygon fill="midnightblue" stroke="midnightblue" points="408.97,-53.2565 419.111,-56.324 413.096,-47.602 408.97,-53.2565"/>
</g>
<!-- Node6 -->
<g id="node6" class="node"><title>Node6</title>
<g id="a_node6"><a xlink:href="a00360.xhtml" target="_top" xlink:title="Voxel14Camera.cpp">
<polygon fill="none" stroke="black" points="452.5,-0.5 452.5,-19.5 557.5,-19.5 557.5,-0.5 452.5,-0.5"/>
<text text-anchor="middle" x="505" y="-7.5" font-family="Helvetica,sans-Serif" font-size="10.00">Voxel14Camera.cpp</text>
</a>
</g>
</g>
<!-- Node2&#45;&gt;Node6 -->
<g id="edge5" class="edge"><title>Node2&#45;&gt;Node6</title>
<path fill="none" stroke="midnightblue" d="M451.034,-50.3804C464.409,-40.6204 481.559,-28.1057 492.894,-19.8339"/>
<polygon fill="midnightblue" stroke="midnightblue" points="448.904,-47.602 442.889,-56.324 453.03,-53.2565 448.904,-47.602"/>
</g>
<!-- Node7 -->
<g id="node7" class="node"><title>Node7</title>
<g id="a_node7"><a xlink:href="a00366.xhtml" target="_top" xlink:title="VoxelDCamera.cpp">
<polygon fill="none" stroke="black" points="576,-0.5 576,-19.5 678,-19.5 678,-0.5 576,-0.5"/>
<text text-anchor="middle" x="627" y="-7.5" font-family="Helvetica,sans-Serif" font-size="10.00">VoxelDCamera.cpp</text>
</a>
</g>
</g>
<!-- Node2&#45;&gt;Node7 -->
<g id="edge6" class="edge"><title>Node2&#45;&gt;Node7</title>
<path fill="none" stroke="midnightblue" d="M472.02,-53.6986C509.011,-43.507 562.6,-28.7429 596.089,-19.5164"/>
<polygon fill="midnightblue" stroke="midnightblue" points="470.768,-50.4131 462.057,-56.4435 472.627,-57.1616 470.768,-50.4131"/>
</g>
<!-- Node8 -->
<g id="node8" class="node"><title>Node8</title>
<g id="a_node8"><a xlink:href="a00376.xhtml" target="_top" xlink:title="VoxelXUProgrammer.cpp">
<polygon fill="none" stroke="black" points="696,-0.5 696,-19.5 824,-19.5 824,-0.5 696,-0.5"/>
<text text-anchor="middle" x="760" y="-7.5" font-family="Helvetica,sans-Serif" font-size="10.00">VoxelXUProgrammer.cpp</text>
</a>
</g>
</g>
<!-- Node2&#45;&gt;Node8 -->
<g id="edge7" class="edge"><title>Node2&#45;&gt;Node8</title>
<path fill="none" stroke="midnightblue" d="M493.201,-54.7907C555.368,-44.587 649.858,-29.078 708.113,-19.5164"/>
<polygon fill="midnightblue" stroke="midnightblue" points="492.432,-51.37 483.131,-56.4435 493.566,-58.2776 492.432,-51.37"/>
</g>
</g>
</svg>
