<?xml version="1.0" encoding="UTF-8" standalone="no"?>
<!DOCTYPE svg PUBLIC "-//W3C//DTD SVG 1.1//EN"
 "http://www.w3.org/Graphics/SVG/1.1/DTD/svg11.dtd">
<!-- Generated by graphviz version 2.36.0 (20140111.2315)
 -->
<!-- Title: VoxelUSBProgrammer.h Pages: 1 -->
<svg width="1428pt" height="364pt"
 viewBox="0.00 0.00 1428.00 364.00" xmlns="http://www.w3.org/2000/svg" xmlns:xlink="http://www.w3.org/1999/xlink">
<g id="graph0" class="graph" transform="scale(1 1) rotate(0) translate(4 360)">
<title>VoxelUSBProgrammer.h</title>
<!-- Node1 -->
<g id="node1" class="node"><title>Node1</title>
<polygon fill="#bfbfbf" stroke="black" points="389,-336.5 389,-355.5 513,-355.5 513,-336.5 389,-336.5"/>
<text text-anchor="middle" x="451" y="-343.5" font-family="Helvetica,sans-Serif" font-size="10.00">VoxelUSBProgrammer.h</text>
</g>
<!-- Node2 -->
<g id="node2" class="node"><title>Node2</title>
<g id="a_node2"><a xlink:href="a00341.xhtml" target="_top" xlink:title="USBIO.h">
<polygon fill="none" stroke="black" points="362,-280.5 362,-299.5 418,-299.5 418,-280.5 362,-280.5"/>
<text text-anchor="middle" x="390" y="-287.5" font-family="Helvetica,sans-Serif" font-size="10.00">USBIO.h</text>
</a>
</g>
</g>
<!-- Node1&#45;&gt;Node2 -->
<g id="edge1" class="edge"><title>Node1&#45;&gt;Node2</title>
<path fill="none" stroke="midnightblue" d="M441.199,-336.324C432.182,-328.341 418.594,-316.313 407.682,-306.653"/>
<polygon fill="midnightblue" stroke="midnightblue" points="409.787,-303.842 399.979,-299.834 405.147,-309.083 409.787,-303.842"/>
</g>
<!-- Node28 -->
<g id="node28" class="node"><title>Node28</title>
<g id="a_node28"><a xlink:href="a00373.xhtml" target="_top" xlink:title="VoxelProgrammerBase.h">
<polygon fill="none" stroke="black" points="483.5,-224.5 483.5,-243.5 608.5,-243.5 608.5,-224.5 483.5,-224.5"/>
<text text-anchor="middle" x="546" y="-231.5" font-family="Helvetica,sans-Serif" font-size="10.00">VoxelProgrammerBase.h</text>
</a>
</g>
</g>
<!-- Node1&#45;&gt;Node28 -->
<g id="edge34" class="edge"><title>Node1&#45;&gt;Node28</title>
<path fill="none" stroke="midnightblue" d="M458.454,-336.368C474.271,-318.055 511.412,-275.049 531.869,-251.362"/>
<polygon fill="midnightblue" stroke="midnightblue" points="534.693,-253.447 538.58,-243.591 529.395,-248.872 534.693,-253.447"/>
</g>
<!-- Node3 -->
<g id="node3" class="node"><title>Node3</title>
<g id="a_node3"><a xlink:href="a00239.xhtml" target="_top" xlink:title="Device.h">
<polygon fill="none" stroke="black" points="385,-168.5 385,-187.5 441,-187.5 441,-168.5 385,-168.5"/>
<text text-anchor="middle" x="413" y="-175.5" font-family="Helvetica,sans-Serif" font-size="10.00">Device.h</text>
</a>
</g>
</g>
<!-- Node2&#45;&gt;Node3 -->
<g id="edge2" class="edge"><title>Node2&#45;&gt;Node3</title>
<path fill="none" stroke="midnightblue" d="M385.178,-280.387C378.76,-267.749 368.991,-243.56 376,-224 379.941,-213.003 387.857,-202.769 395.36,-194.848"/>
<polygon fill="midnightblue" stroke="midnightblue" points="397.892,-197.266 402.562,-187.755 392.981,-192.278 397.892,-197.266"/>
</g>
<!-- Node26 -->
<g id="node26" class="node"><title>Node26</title>
<g id="a_node26"><a xlink:href="a00343.xhtml" target="_top" xlink:title="USBSystem.h">
<polygon fill="none" stroke="black" points="385,-224.5 385,-243.5 465,-243.5 465,-224.5 385,-224.5"/>
<text text-anchor="middle" x="425" y="-231.5" font-family="Helvetica,sans-Serif" font-size="10.00">USBSystem.h</text>
</a>
</g>
</g>
<!-- Node2&#45;&gt;Node26 -->
<g id="edge26" class="edge"><title>Node2&#45;&gt;Node26</title>
<path fill="none" stroke="midnightblue" d="M395.78,-280.083C400.672,-272.534 407.827,-261.495 413.833,-252.23"/>
<polygon fill="midnightblue" stroke="midnightblue" points="416.826,-254.046 419.328,-243.751 410.952,-250.239 416.826,-254.046"/>
</g>
<!-- Node27 -->
<g id="node27" class="node"><title>Node27</title>
<g id="a_node27"><a xlink:href="a00274.xhtml" target="_top" xlink:title="Logger.h">
<polygon fill="none" stroke="black" points="133,-168.5 133,-187.5 187,-187.5 187,-168.5 133,-168.5"/>
<text text-anchor="middle" x="160" y="-175.5" font-family="Helvetica,sans-Serif" font-size="10.00">Logger.h</text>
</a>
</g>
</g>
<!-- Node2&#45;&gt;Node27 -->
<g id="edge29" class="edge"><title>Node2&#45;&gt;Node27</title>
<path fill="none" stroke="midnightblue" d="M371.952,-280.368C331.728,-261.131 234.536,-214.648 187.038,-191.931"/>
<polygon fill="midnightblue" stroke="midnightblue" points="188.495,-188.749 177.964,-187.591 185.475,-195.064 188.495,-188.749"/>
</g>
<!-- Node4 -->
<g id="node4" class="node"><title>Node4</title>
<g id="a_node4"><a xlink:href="a00223.xhtml" target="_top" xlink:title="Common.h">
<polygon fill="none" stroke="black" points="567.5,-112.5 567.5,-131.5 632.5,-131.5 632.5,-112.5 567.5,-112.5"/>
<text text-anchor="middle" x="600" y="-119.5" font-family="Helvetica,sans-Serif" font-size="10.00">Common.h</text>
</a>
</g>
</g>
<!-- Node3&#45;&gt;Node4 -->
<g id="edge3" class="edge"><title>Node3&#45;&gt;Node4</title>
<path fill="none" stroke="midnightblue" d="M441.401,-168.799C473.248,-159.602 525.098,-144.629 560.794,-134.322"/>
<polygon fill="midnightblue" stroke="midnightblue" points="561.767,-137.684 570.403,-131.547 559.825,-130.958 561.767,-137.684"/>
</g>
<!-- Node10 -->
<g id="node10" class="node"><title>Node10</title>
<polygon fill="none" stroke="#bfbfbf" points="134,-56.5 134,-75.5 186,-75.5 186,-56.5 134,-56.5"/>
<text text-anchor="middle" x="160" y="-63.5" font-family="Helvetica,sans-Serif" font-size="10.00">sstream</text>
</g>
<!-- Node3&#45;&gt;Node10 -->
<g id="edge25" class="edge"><title>Node3&#45;&gt;Node10</title>
<path fill="none" stroke="midnightblue" d="M393.148,-168.368C348.717,-149.051 241.096,-102.259 189.091,-79.6481"/>
<polygon fill="midnightblue" stroke="midnightblue" points="190.327,-76.369 179.76,-75.5914 187.535,-82.7885 190.327,-76.369"/>
</g>
<!-- Node5 -->
<g id="node5" class="node"><title>Node5</title>
<polygon fill="none" stroke="#bfbfbf" points="908,-56.5 908,-75.5 952,-75.5 952,-56.5 908,-56.5"/>
<text text-anchor="middle" x="930" y="-63.5" font-family="Helvetica,sans-Serif" font-size="10.00">vector</text>
</g>
<!-- Node4&#45;&gt;Node5 -->
<g id="edge4" class="edge"><title>Node4&#45;&gt;Node5</title>
<path fill="none" stroke="midnightblue" d="M632.872,-117.391C686.319,-111.231 795.501,-97.4329 897.83,-75.7719"/>
<polygon fill="midnightblue" stroke="midnightblue" points="898.666,-79.1721 907.709,-73.6511 897.197,-72.3281 898.666,-79.1721"/>
</g>
<!-- Node6 -->
<g id="node6" class="node"><title>Node6</title>
<polygon fill="none" stroke="#bfbfbf" points="1371.5,-56.5 1371.5,-75.5 1420.5,-75.5 1420.5,-56.5 1371.5,-56.5"/>
<text text-anchor="middle" x="1396" y="-63.5" font-family="Helvetica,sans-Serif" font-size="10.00">stdint.h</text>
</g>
<!-- Node4&#45;&gt;Node6 -->
<g id="edge5" class="edge"><title>Node4&#45;&gt;Node6</title>
<path fill="none" stroke="midnightblue" d="M632.768,-118.294C656.218,-116.403 688.541,-113.889 717,-112 1000.13,-93.2115 1076.64,-120.317 1361.04,-75.7897"/>
<polygon fill="midnightblue" stroke="midnightblue" points="1361.91,-79.1949 1371.24,-74.1753 1360.82,-72.2809 1361.91,-79.1949"/>
</g>
<!-- Node7 -->
<g id="node7" class="node"><title>Node7</title>
<polygon fill="none" stroke="#bfbfbf" points="970.5,-56.5 970.5,-75.5 1011.5,-75.5 1011.5,-56.5 970.5,-56.5"/>
<text text-anchor="middle" x="991" y="-63.5" font-family="Helvetica,sans-Serif" font-size="10.00">string</text>
</g>
<!-- Node4&#45;&gt;Node7 -->
<g id="edge6" class="edge"><title>Node4&#45;&gt;Node7</title>
<path fill="none" stroke="midnightblue" d="M632.552,-118.667C696.04,-113.734 840.635,-100.626 960,-76 960.213,-75.9561 960.426,-75.9115 960.64,-75.8662"/>
<polygon fill="midnightblue" stroke="midnightblue" points="961.559,-79.2446 970.437,-73.4625 959.891,-72.4463 961.559,-79.2446"/>
</g>
<!-- Node8 -->
<g id="node8" class="node"><title>Node8</title>
<polygon fill="none" stroke="#bfbfbf" points="62,-56.5 62,-75.5 116,-75.5 116,-56.5 62,-56.5"/>
<text text-anchor="middle" x="89" y="-63.5" font-family="Helvetica,sans-Serif" font-size="10.00">iostream</text>
</g>
<!-- Node4&#45;&gt;Node8 -->
<g id="edge7" class="edge"><title>Node4&#45;&gt;Node8</title>
<path fill="none" stroke="midnightblue" d="M567.239,-119.597C491.299,-115.982 297.294,-104.669 125.984,-75.9165"/>
<polygon fill="midnightblue" stroke="midnightblue" points="126.48,-72.4506 116.034,-74.2222 125.305,-79.3512 126.48,-72.4506"/>
</g>
<!-- Node9 -->
<g id="node9" class="node"><title>Node9</title>
<polygon fill="none" stroke="#bfbfbf" points="1030,-56.5 1030,-75.5 1080,-75.5 1080,-56.5 1030,-56.5"/>
<text text-anchor="middle" x="1055" y="-63.5" font-family="Helvetica,sans-Serif" font-size="10.00">fstream</text>
</g>
<!-- Node4&#45;&gt;Node9 -->
<g id="edge8" class="edge"><title>Node4&#45;&gt;Node9</title>
<path fill="none" stroke="midnightblue" d="M632.679,-118.117C717.907,-110.5 945.495,-89.497 1020,-76 1020.1,-75.9818 1020.2,-75.9635 1020.3,-75.9451"/>
<polygon fill="midnightblue" stroke="midnightblue" points="1020.8,-79.4173 1029.86,-73.929 1019.35,-72.5679 1020.8,-79.4173"/>
</g>
<!-- Node4&#45;&gt;Node10 -->
<g id="edge9" class="edge"><title>Node4&#45;&gt;Node10</title>
<path fill="none" stroke="midnightblue" d="M567.487,-118.951C499.993,-114.362 339.677,-101.729 196.151,-75.9787"/>
<polygon fill="midnightblue" stroke="midnightblue" points="196.75,-72.5304 186.285,-74.1829 195.497,-79.4172 196.75,-72.5304"/>
</g>
<!-- Node11 -->
<g id="node11" class="node"><title>Node11</title>
<polygon fill="none" stroke="#bfbfbf" points="1098.5,-56.5 1098.5,-75.5 1181.5,-75.5 1181.5,-56.5 1098.5,-56.5"/>
<text text-anchor="middle" x="1140" y="-63.5" font-family="Helvetica,sans-Serif" font-size="10.00">unordered_map</text>
</g>
<!-- Node4&#45;&gt;Node11 -->
<g id="edge10" class="edge"><title>Node4&#45;&gt;Node11</title>
<path fill="none" stroke="midnightblue" d="M632.759,-118.343C724.362,-110.857 982.775,-89.3521 1088.28,-75.9599"/>
<polygon fill="midnightblue" stroke="midnightblue" points="1088.83,-79.417 1098.3,-74.6499 1087.93,-72.476 1088.83,-79.417"/>
</g>
<!-- Node12 -->
<g id="node12" class="node"><title>Node12</title>
<polygon fill="none" stroke="#bfbfbf" points="1199.5,-56.5 1199.5,-75.5 1258.5,-75.5 1258.5,-56.5 1199.5,-56.5"/>
<text text-anchor="middle" x="1229" y="-63.5" font-family="Helvetica,sans-Serif" font-size="10.00">functional</text>
</g>
<!-- Node4&#45;&gt;Node12 -->
<g id="edge11" class="edge"><title>Node4&#45;&gt;Node12</title>
<path fill="none" stroke="midnightblue" d="M632.78,-118.471C656.236,-116.664 688.562,-114.176 717,-112 923.931,-96.1664 979.844,-107.43 1189.19,-75.8802"/>
<polygon fill="midnightblue" stroke="midnightblue" points="1189.92,-79.31 1199.28,-74.3452 1188.87,-72.3897 1189.92,-79.31"/>
</g>
<!-- Node13 -->
<g id="node13" class="node"><title>Node13</title>
<polygon fill="none" stroke="#bfbfbf" points="1276.5,-56.5 1276.5,-75.5 1305.5,-75.5 1305.5,-56.5 1276.5,-56.5"/>
<text text-anchor="middle" x="1291" y="-63.5" font-family="Helvetica,sans-Serif" font-size="10.00">list</text>
</g>
<!-- Node4&#45;&gt;Node13 -->
<g id="edge12" class="edge"><title>Node4&#45;&gt;Node13</title>
<path fill="none" stroke="midnightblue" d="M632.774,-118.378C656.226,-116.527 688.55,-114.025 717,-112 958.008,-94.8435 1025.68,-126.669 1266.37,-75.3998"/>
<polygon fill="midnightblue" stroke="midnightblue" points="1267.44,-78.7491 1276.48,-73.2196 1265.97,-71.9064 1267.44,-78.7491"/>
</g>
<!-- Node14 -->
<g id="node14" class="node"><title>Node14</title>
<polygon fill="none" stroke="#bfbfbf" points="1324,-56.5 1324,-75.5 1354,-75.5 1354,-56.5 1324,-56.5"/>
<text text-anchor="middle" x="1339" y="-63.5" font-family="Helvetica,sans-Serif" font-size="10.00">set</text>
</g>
<!-- Node4&#45;&gt;Node14 -->
<g id="edge13" class="edge"><title>Node4&#45;&gt;Node14</title>
<path fill="none" stroke="midnightblue" d="M632.77,-118.333C656.222,-116.461 688.545,-113.952 717,-112 982.192,-93.8058 1053.64,-129.563 1314,-76 1314.1,-75.9791 1314.2,-75.9578 1314.31,-75.9363"/>
<polygon fill="midnightblue" stroke="midnightblue" points="1315.2,-79.3219 1323.86,-73.2275 1313.29,-72.5872 1315.2,-79.3219"/>
</g>
<!-- Node15 -->
<g id="node15" class="node"><title>Node15</title>
<polygon fill="none" stroke="#bfbfbf" points="204,-56.5 204,-75.5 250,-75.5 250,-56.5 204,-56.5"/>
<text text-anchor="middle" x="227" y="-63.5" font-family="Helvetica,sans-Serif" font-size="10.00">atomic</text>
</g>
<!-- Node4&#45;&gt;Node15 -->
<g id="edge14" class="edge"><title>Node4&#45;&gt;Node15</title>
<path fill="none" stroke="midnightblue" d="M567.299,-118.253C507.928,-112.93 378.353,-99.766 260.255,-76.0049"/>
<polygon fill="midnightblue" stroke="midnightblue" points="260.822,-72.5486 250.324,-73.9758 259.421,-79.4069 260.822,-72.5486"/>
</g>
<!-- Node16 -->
<g id="node16" class="node"><title>Node16</title>
<polygon fill="none" stroke="#bfbfbf" points="268,-56.5 268,-75.5 314,-75.5 314,-56.5 268,-56.5"/>
<text text-anchor="middle" x="291" y="-63.5" font-family="Helvetica,sans-Serif" font-size="10.00">cctype</text>
</g>
<!-- Node4&#45;&gt;Node16 -->
<g id="edge15" class="edge"><title>Node4&#45;&gt;Node16</title>
<path fill="none" stroke="midnightblue" d="M567.363,-116.916C517.114,-110.366 417.635,-96.3551 324.233,-76.071"/>
<polygon fill="midnightblue" stroke="midnightblue" points="324.86,-72.6254 314.342,-73.894 323.355,-79.4618 324.86,-72.6254"/>
</g>
<!-- Node17 -->
<g id="node17" class="node"><title>Node17</title>
<polygon fill="none" stroke="#bfbfbf" points="332,-56.5 332,-75.5 388,-75.5 388,-56.5 332,-56.5"/>
<text text-anchor="middle" x="360" y="-63.5" font-family="Helvetica,sans-Serif" font-size="10.00">algorithm</text>
</g>
<!-- Node4&#45;&gt;Node17 -->
<g id="edge16" class="edge"><title>Node4&#45;&gt;Node17</title>
<path fill="none" stroke="midnightblue" d="M567.256,-113.957C529.052,-105.693 463.728,-91.416 398.335,-76.2766"/>
<polygon fill="midnightblue" stroke="midnightblue" points="398.8,-72.7915 388.268,-73.9389 397.217,-79.6101 398.8,-72.7915"/>
</g>
<!-- Node18 -->
<g id="node18" class="node"><title>Node18</title>
<polygon fill="none" stroke="#bfbfbf" points="406.5,-56.5 406.5,-75.5 459.5,-75.5 459.5,-56.5 406.5,-56.5"/>
<text text-anchor="middle" x="433" y="-63.5" font-family="Helvetica,sans-Serif" font-size="10.00">complex</text>
</g>
<!-- Node4&#45;&gt;Node18 -->
<g id="edge17" class="edge"><title>Node4&#45;&gt;Node18</title>
<path fill="none" stroke="midnightblue" d="M573.538,-112.444C545.322,-103.32 500.46,-88.8133 469.032,-78.6509"/>
<polygon fill="midnightblue" stroke="midnightblue" points="469.93,-75.263 459.338,-75.5164 467.776,-81.9234 469.93,-75.263"/>
</g>
<!-- Node19 -->
<g id="node19" class="node"><title>Node19</title>
<polygon fill="none" stroke="#bfbfbf" points="0,-56.5 0,-75.5 44,-75.5 44,-56.5 0,-56.5"/>
<text text-anchor="middle" x="22" y="-63.5" font-family="Helvetica,sans-Serif" font-size="10.00">thread</text>
</g>
<!-- Node4&#45;&gt;Node19 -->
<g id="edge18" class="edge"><title>Node4&#45;&gt;Node19</title>
<path fill="none" stroke="midnightblue" d="M567.333,-120.588C483.441,-119.048 253.604,-111.793 54.2903,-75.874"/>
<polygon fill="midnightblue" stroke="midnightblue" points="54.6898,-72.3891 44.2229,-74.0303 53.4288,-79.2745 54.6898,-72.3891"/>
</g>
<!-- Node20 -->
<g id="node20" class="node"><title>Node20</title>
<g id="a_node20"><a xlink:href="a00291.xhtml" target="_top" xlink:title="Ptr.h">
<polygon fill="none" stroke="black" points="478,-56.5 478,-75.5 516,-75.5 516,-56.5 478,-56.5"/>
<text text-anchor="middle" x="497" y="-63.5" font-family="Helvetica,sans-Serif" font-size="10.00">Ptr.h</text>
</a>
</g>
</g>
<!-- Node4&#45;&gt;Node20 -->
<g id="edge19" class="edge"><title>Node4&#45;&gt;Node20</title>
<path fill="none" stroke="midnightblue" d="M583.451,-112.324C567.008,-103.703 541.565,-90.3643 522.532,-80.3855"/>
<polygon fill="midnightblue" stroke="midnightblue" points="523.989,-77.198 513.508,-75.6545 520.739,-83.3977 523.989,-77.198"/>
</g>
<!-- Node22 -->
<g id="node22" class="node"><title>Node22</title>
<polygon fill="none" stroke="#bfbfbf" points="534,-56.5 534,-75.5 578,-75.5 578,-56.5 534,-56.5"/>
<text text-anchor="middle" x="556" y="-63.5" font-family="Helvetica,sans-Serif" font-size="10.00">mutex</text>
</g>
<!-- Node4&#45;&gt;Node22 -->
<g id="edge21" class="edge"><title>Node4&#45;&gt;Node22</title>
<path fill="none" stroke="midnightblue" d="M592.734,-112.083C586.455,-104.377 577.212,-93.0333 569.569,-83.6531"/>
<polygon fill="midnightblue" stroke="midnightblue" points="572.161,-81.2926 563.131,-75.7511 566.734,-85.7143 572.161,-81.2926"/>
</g>
<!-- Node23 -->
<g id="node23" class="node"><title>Node23</title>
<polygon fill="none" stroke="#bfbfbf" points="596.5,-56.5 596.5,-75.5 691.5,-75.5 691.5,-56.5 596.5,-56.5"/>
<text text-anchor="middle" x="644" y="-63.5" font-family="Helvetica,sans-Serif" font-size="10.00">condition_variable</text>
</g>
<!-- Node4&#45;&gt;Node23 -->
<g id="edge22" class="edge"><title>Node4&#45;&gt;Node23</title>
<path fill="none" stroke="midnightblue" d="M607.266,-112.083C613.545,-104.377 622.788,-93.0333 630.431,-83.6531"/>
<polygon fill="midnightblue" stroke="midnightblue" points="633.266,-85.7143 636.869,-75.7511 627.839,-81.2926 633.266,-85.7143"/>
</g>
<!-- Node24 -->
<g id="node24" class="node"><title>Node24</title>
<polygon fill="none" stroke="#bfbfbf" points="710,-56.5 710,-75.5 788,-75.5 788,-56.5 710,-56.5"/>
<text text-anchor="middle" x="749" y="-63.5" font-family="Helvetica,sans-Serif" font-size="10.00">VoxelConfig.h</text>
</g>
<!-- Node4&#45;&gt;Node24 -->
<g id="edge23" class="edge"><title>Node4&#45;&gt;Node24</title>
<path fill="none" stroke="midnightblue" d="M623.609,-112.444C648.458,-103.438 687.774,-89.1891 715.754,-79.049"/>
<polygon fill="midnightblue" stroke="midnightblue" points="717.292,-82.2144 725.501,-75.5164 714.907,-75.6332 717.292,-82.2144"/>
</g>
<!-- Node25 -->
<g id="node25" class="node"><title>Node25</title>
<polygon fill="none" stroke="#bfbfbf" points="806.5,-56.5 806.5,-75.5 889.5,-75.5 889.5,-56.5 806.5,-56.5"/>
<text text-anchor="middle" x="848" y="-63.5" font-family="Helvetica,sans-Serif" font-size="10.00">VoxelExports.h</text>
</g>
<!-- Node4&#45;&gt;Node25 -->
<g id="edge24" class="edge"><title>Node4&#45;&gt;Node25</title>
<path fill="none" stroke="midnightblue" d="M632.677,-113.885C675.129,-104.641 749.628,-88.4198 798.898,-77.6916"/>
<polygon fill="midnightblue" stroke="midnightblue" points="799.677,-81.1041 808.703,-75.5566 798.187,-74.2644 799.677,-81.1041"/>
</g>
<!-- Node21 -->
<g id="node21" class="node"><title>Node21</title>
<polygon fill="none" stroke="#bfbfbf" points="471,-0.5 471,-19.5 523,-19.5 523,-0.5 471,-0.5"/>
<text text-anchor="middle" x="497" y="-7.5" font-family="Helvetica,sans-Serif" font-size="10.00">memory</text>
</g>
<!-- Node20&#45;&gt;Node21 -->
<g id="edge20" class="edge"><title>Node20&#45;&gt;Node21</title>
<path fill="none" stroke="midnightblue" d="M497,-56.083C497,-49.0059 497,-38.8611 497,-29.9865"/>
<polygon fill="midnightblue" stroke="midnightblue" points="500.5,-29.751 497,-19.7511 493.5,-29.7511 500.5,-29.751"/>
</g>
<!-- Node26&#45;&gt;Node3 -->
<g id="edge28" class="edge"><title>Node26&#45;&gt;Node3</title>
<path fill="none" stroke="midnightblue" d="M423.018,-224.083C421.428,-216.927 419.141,-206.635 417.154,-197.691"/>
<polygon fill="midnightblue" stroke="midnightblue" points="420.531,-196.754 414.945,-187.751 413.697,-198.272 420.531,-196.754"/>
</g>
<!-- Node26&#45;&gt;Node4 -->
<g id="edge27" class="edge"><title>Node26&#45;&gt;Node4</title>
<path fill="none" stroke="midnightblue" d="M431.451,-224.294C441.952,-210.649 463.997,-184.125 488,-168 509.722,-153.408 536.901,-142.344 559.046,-134.839"/>
<polygon fill="midnightblue" stroke="midnightblue" points="560.411,-138.075 568.829,-131.641 558.236,-131.421 560.411,-138.075"/>
</g>
<!-- Node27&#45;&gt;Node4 -->
<g id="edge33" class="edge"><title>Node27&#45;&gt;Node4</title>
<path fill="none" stroke="midnightblue" d="M187.192,-173.663C261.355,-164.561 467.576,-139.252 557.341,-128.235"/>
<polygon fill="midnightblue" stroke="midnightblue" points="557.941,-131.688 567.44,-126.996 557.088,-124.74 557.941,-131.688"/>
</g>
<!-- Node27&#45;&gt;Node8 -->
<g id="edge30" class="edge"><title>Node27&#45;&gt;Node8</title>
<path fill="none" stroke="midnightblue" d="M154.429,-168.368C142.764,-150.296 115.577,-108.176 100.171,-84.3074"/>
<polygon fill="midnightblue" stroke="midnightblue" points="102.909,-82.0952 94.5454,-75.5914 97.0278,-85.8913 102.909,-82.0952"/>
</g>
<!-- Node27&#45;&gt;Node10 -->
<g id="edge31" class="edge"><title>Node27&#45;&gt;Node10</title>
<path fill="none" stroke="midnightblue" d="M160,-168.368C160,-150.617 160,-109.666 160,-85.5974"/>
<polygon fill="midnightblue" stroke="midnightblue" points="163.5,-85.5914 160,-75.5914 156.5,-85.5915 163.5,-85.5914"/>
</g>
<!-- Node27&#45;&gt;Node19 -->
<g id="edge32" class="edge"><title>Node27&#45;&gt;Node19</title>
<path fill="none" stroke="midnightblue" d="M149.171,-168.368C125.692,-149.653 69.862,-105.151 40.608,-81.8324"/>
<polygon fill="midnightblue" stroke="midnightblue" points="42.7797,-79.0877 32.7783,-75.5914 38.4165,-84.5615 42.7797,-79.0877"/>
</g>
<!-- Node28&#45;&gt;Node3 -->
<g id="edge38" class="edge"><title>Node28&#45;&gt;Node3</title>
<path fill="none" stroke="midnightblue" d="M524.926,-224.444C502.94,-215.517 468.266,-201.439 443.336,-191.317"/>
<polygon fill="midnightblue" stroke="midnightblue" points="444.558,-188.035 433.976,-187.516 441.924,-194.521 444.558,-188.035"/>
</g>
<!-- Node29 -->
<g id="node29" class="node"><title>Node29</title>
<g id="a_node29"><a xlink:href="a00297.xhtml" target="_top" xlink:title="RegisterProgrammer.h">
<polygon fill="none" stroke="black" points="612.5,-168.5 612.5,-187.5 727.5,-187.5 727.5,-168.5 612.5,-168.5"/>
<text text-anchor="middle" x="670" y="-175.5" font-family="Helvetica,sans-Serif" font-size="10.00">RegisterProgrammer.h</text>
</a>
</g>
</g>
<!-- Node28&#45;&gt;Node29 -->
<g id="edge35" class="edge"><title>Node28&#45;&gt;Node29</title>
<path fill="none" stroke="midnightblue" d="M565.648,-224.444C585.965,-215.596 617.903,-201.687 641.098,-191.586"/>
<polygon fill="midnightblue" stroke="midnightblue" points="642.673,-194.718 650.444,-187.516 639.878,-188.3 642.673,-194.718"/>
</g>
<!-- Node30 -->
<g id="node30" class="node"><title>Node30</title>
<polygon fill="none" stroke="#bfbfbf" points="497,-168.5 497,-187.5 595,-187.5 595,-168.5 497,-168.5"/>
<text text-anchor="middle" x="546" y="-175.5" font-family="Helvetica,sans-Serif" font-size="10.00">TI3DToFExports.h</text>
</g>
<!-- Node28&#45;&gt;Node30 -->
<g id="edge39" class="edge"><title>Node28&#45;&gt;Node30</title>
<path fill="none" stroke="midnightblue" d="M546,-224.083C546,-217.006 546,-206.861 546,-197.986"/>
<polygon fill="midnightblue" stroke="midnightblue" points="549.5,-197.751 546,-187.751 542.5,-197.751 549.5,-197.751"/>
</g>
<!-- Node29&#45;&gt;Node4 -->
<g id="edge36" class="edge"><title>Node29&#45;&gt;Node4</title>
<path fill="none" stroke="midnightblue" d="M658.753,-168.324C648.203,-160.185 632.199,-147.839 619.558,-138.087"/>
<polygon fill="midnightblue" stroke="midnightblue" points="621.507,-135.171 611.451,-131.834 617.231,-140.713 621.507,-135.171"/>
</g>
<!-- Node29&#45;&gt;Node6 -->
<g id="edge37" class="edge"><title>Node29&#45;&gt;Node6</title>
<path fill="none" stroke="midnightblue" d="M727.8,-170.818C845.449,-157.749 1121.19,-124.63 1361.23,-75.9485"/>
<polygon fill="midnightblue" stroke="midnightblue" points="1362.1,-79.3446 1371.19,-73.9151 1360.7,-72.486 1362.1,-79.3446"/>
</g>
</g>
</svg>
