<?xml version="1.0" encoding="UTF-8" standalone="no"?>
<!DOCTYPE svg PUBLIC "-//W3C//DTD SVG 1.1//EN"
 "http://www.w3.org/Graphics/SVG/1.1/DTD/svg11.dtd">
<!-- Generated by graphviz version 2.36.0 (20140111.2315)
 -->
<!-- Title: Voxel::Device Pages: 1 -->
<svg width="345pt" height="140pt"
 viewBox="0.00 0.00 345.00 140.00" xmlns="http://www.w3.org/2000/svg" xmlns:xlink="http://www.w3.org/1999/xlink">
<g id="graph0" class="graph" transform="scale(1 1) rotate(0) translate(4 136)">
<title>Voxel::Device</title>
<!-- Node1 -->
<g id="node1" class="node"><title>Node1</title>
<polygon fill="#bfbfbf" stroke="black" points="103,-0.5 103,-19.5 181,-19.5 181,-0.5 103,-0.5"/>
<text text-anchor="middle" x="142" y="-7.5" font-family="Helvetica,sans-Serif" font-size="10.00">Voxel::Device</text>
</g>
<!-- Node2 -->
<g id="node2" class="node"><title>Node2</title>
<g id="a_node2"><a xlink:href="a00397.xhtml" target="_top" xlink:title="int">
<polygon fill="none" stroke="black" points="-0.5,-112.5 -0.5,-131.5 28.5,-131.5 28.5,-112.5 -0.5,-112.5"/>
<text text-anchor="middle" x="14" y="-119.5" font-family="Helvetica,sans-Serif" font-size="10.00">int</text>
</a>
</g>
</g>
<!-- Node2&#45;&gt;Node1 -->
<g id="edge1" class="edge"><title>Node2&#45;&gt;Node1</title>
<path fill="none" stroke="#9a32cd" stroke-dasharray="5,2" d="M11.194,-102.47C9.48298,-83.7885 10.1041,-55.3097 26,-38 36.3145,-26.7681 73.2522,-19.5159 102.71,-15.3861"/>
<polygon fill="#9a32cd" stroke="#9a32cd" points="7.72187,-102.912 12.4089,-112.414 14.6702,-102.063 7.72187,-102.912"/>
<text text-anchor="middle" x="52.5" y="-63.5" font-family="Helvetica,sans-Serif" font-size="10.00"> _channelID</text>
</g>
<!-- Node3 -->
<g id="node3" class="node"><title>Node3</title>
<g id="a_node3"><a xlink:href="a00398.xhtml" target="_top" xlink:title="bool">
<polygon fill="none" stroke="black" points="72.5,-112.5 72.5,-131.5 107.5,-131.5 107.5,-112.5 72.5,-112.5"/>
<text text-anchor="middle" x="90" y="-119.5" font-family="Helvetica,sans-Serif" font-size="10.00">bool</text>
</a>
</g>
</g>
<!-- Node3&#45;&gt;Node1 -->
<g id="edge2" class="edge"><title>Node3&#45;&gt;Node1</title>
<path fill="none" stroke="#9a32cd" stroke-dasharray="5,2" d="M85.1806,-102.705C81.5684,-84.8393 79.0632,-57.5582 91,-38 96.1148,-29.6195 104.787,-23.6986 113.544,-19.5823"/>
<polygon fill="#9a32cd" stroke="#9a32cd" points="81.7754,-103.515 87.4536,-112.46 88.5928,-101.926 81.7754,-103.515"/>
<text text-anchor="middle" x="131.5" y="-63.5" font-family="Helvetica,sans-Serif" font-size="10.00"> _showSerialIndex</text>
</g>
<!-- Node4 -->
<g id="node4" class="node"><title>Node4</title>
<polygon fill="none" stroke="#bfbfbf" points="173.5,-112.5 173.5,-131.5 214.5,-131.5 214.5,-112.5 173.5,-112.5"/>
<text text-anchor="middle" x="194" y="-119.5" font-family="Helvetica,sans-Serif" font-size="10.00">string</text>
</g>
<!-- Node4&#45;&gt;Node1 -->
<g id="edge3" class="edge"><title>Node4&#45;&gt;Node1</title>
<path fill="none" stroke="#9a32cd" stroke-dasharray="5,2" d="M192.135,-102.214C189.691,-84.5547 184.179,-57.93 172,-38 167.615,-30.8251 160.75,-24.4441 154.692,-19.6892"/>
<polygon fill="#9a32cd" stroke="#9a32cd" points="188.685,-102.845 193.337,-112.364 195.636,-102.021 188.685,-102.845"/>
<text text-anchor="middle" x="222" y="-85.5" font-family="Helvetica,sans-Serif" font-size="10.00"> _serialIndex</text>
<text text-anchor="middle" x="222" y="-74.5" font-family="Helvetica,sans-Serif" font-size="10.00">_serialNumber</text>
<text text-anchor="middle" x="222" y="-63.5" font-family="Helvetica,sans-Serif" font-size="10.00">_id</text>
<text text-anchor="middle" x="222" y="-52.5" font-family="Helvetica,sans-Serif" font-size="10.00">_description</text>
<text text-anchor="middle" x="222" y="-41.5" font-family="Helvetica,sans-Serif" font-size="10.00">_deviceID</text>
</g>
<!-- Node5 -->
<g id="node5" class="node"><title>Node5</title>
<polygon fill="none" stroke="#bfbfbf" points="253.5,-112.5 253.5,-131.5 308.5,-131.5 308.5,-112.5 253.5,-112.5"/>
<text text-anchor="middle" x="281" y="-119.5" font-family="Helvetica,sans-Serif" font-size="10.00">Interface</text>
</g>
<!-- Node5&#45;&gt;Node1 -->
<g id="edge4" class="edge"><title>Node5&#45;&gt;Node1</title>
<path fill="none" stroke="#9a32cd" stroke-dasharray="5,2" d="M281.034,-102.223C280.015,-83.3436 275.418,-54.7076 258,-38 247.032,-27.4796 210.412,-20.1386 181.216,-15.7945"/>
<polygon fill="#9a32cd" stroke="#9a32cd" points="277.537,-102.379 281.29,-112.287 284.535,-102.201 277.537,-102.379"/>
<text text-anchor="middle" x="308.5" y="-63.5" font-family="Helvetica,sans-Serif" font-size="10.00"> _interfaceID</text>
</g>
</g>
</svg>
