<?xml version="1.0" encoding="UTF-8" standalone="no"?>
<!DOCTYPE svg PUBLIC "-//W3C//DTD SVG 1.1//EN"
 "http://www.w3.org/Graphics/SVG/1.1/DTD/svg11.dtd">
<!-- Generated by graphviz version 2.36.0 (20140111.2315)
 -->
<!-- Title: Voxel::DepthCameraLibrary Pages: 1 -->
<svg width="334pt" height="256pt"
 viewBox="0.00 0.00 334.00 256.00" xmlns="http://www.w3.org/2000/svg" xmlns:xlink="http://www.w3.org/1999/xlink">
<g id="graph0" class="graph" transform="scale(1 1) rotate(0) translate(4 252)">
<title>Voxel::DepthCameraLibrary</title>
<!-- Node1 -->
<g id="node1" class="node"><title>Node1</title>
<polygon fill="#bfbfbf" stroke="black" points="-0.5,-0.5 -0.5,-19.5 136.5,-19.5 136.5,-0.5 -0.5,-0.5"/>
<text text-anchor="middle" x="68" y="-7.5" font-family="Helvetica,sans-Serif" font-size="10.00">Voxel::DepthCameraLibrary</text>
</g>
<!-- Node2 -->
<g id="node2" class="node"><title>Node2</title>
<polygon fill="none" stroke="#bfbfbf" points="2.5,-74.5 2.5,-93.5 43.5,-93.5 43.5,-74.5 2.5,-74.5"/>
<text text-anchor="middle" x="23" y="-81.5" font-family="Helvetica,sans-Serif" font-size="10.00">string</text>
</g>
<!-- Node2&#45;&gt;Node1 -->
<g id="edge1" class="edge"><title>Node2&#45;&gt;Node1</title>
<path fill="none" stroke="#9a32cd" stroke-dasharray="5,2" d="M31.0602,-65.1222C35.1411,-56.6652 40.4101,-46.5674 46,-38 50.2292,-31.5181 55.7292,-24.7681 60.1719,-19.6386"/>
<polygon fill="#9a32cd" stroke="#9a32cd" points="27.783,-63.8686 26.7299,-74.411 34.1275,-66.8263 27.783,-63.8686"/>
<text text-anchor="middle" x="68.5" y="-41.5" font-family="Helvetica,sans-Serif" font-size="10.00"> _libName</text>
</g>
<!-- Node3 -->
<g id="node3" class="node"><title>Node3</title>
<g id="a_node3"><a xlink:href="a00113.xhtml" target="_top" xlink:title="Voxel::Ptr\&lt; Voxel::\lDepthCameraLibraryPrivate \&gt;">
<polygon fill="none" stroke="black" points="62,-69 62,-99 208,-99 208,-69 62,-69"/>
<text text-anchor="start" x="70" y="-87" font-family="Helvetica,sans-Serif" font-size="10.00">Voxel::Ptr&lt; Voxel::</text>
<text text-anchor="middle" x="135" y="-76" font-family="Helvetica,sans-Serif" font-size="10.00">DepthCameraLibraryPrivate &gt;</text>
</a>
</g>
</g>
<!-- Node3&#45;&gt;Node1 -->
<g id="edge2" class="edge"><title>Node3&#45;&gt;Node1</title>
<path fill="none" stroke="#9a32cd" stroke-dasharray="5,2" d="M114.941,-61.4438C101.949,-47.4827 85.7246,-30.0473 76.1506,-19.7589"/>
<polygon fill="#9a32cd" stroke="#9a32cd" points="112.388,-63.8387 121.763,-68.7751 117.513,-59.0701 112.388,-63.8387"/>
<text text-anchor="middle" x="136" y="-41.5" font-family="Helvetica,sans-Serif" font-size="10.00"> _libraryPrivate</text>
</g>
<!-- Node4 -->
<g id="node4" class="node"><title>Node4</title>
<polygon fill="none" stroke="#bfbfbf" points="17,-159 17,-189 169,-189 169,-159 17,-159"/>
<text text-anchor="start" x="25" y="-177" font-family="Helvetica,sans-Serif" font-size="10.00">std::shared_ptr&lt; Voxel</text>
<text text-anchor="middle" x="93" y="-166" font-family="Helvetica,sans-Serif" font-size="10.00">::DepthCameraLibraryPrivate &gt;</text>
</g>
<!-- Node4&#45;&gt;Node3 -->
<g id="edge3" class="edge"><title>Node4&#45;&gt;Node3</title>
<path fill="none" stroke="midnightblue" d="M104.183,-149.569C111.855,-133.493 121.784,-112.69 128.269,-99.1036"/>
<polygon fill="midnightblue" stroke="midnightblue" points="100.897,-148.329 99.748,-158.861 107.214,-151.344 100.897,-148.329"/>
</g>
<!-- Node5 -->
<g id="node5" class="node"><title>Node5</title>
<g id="a_node5"><a xlink:href="a00113.xhtml" target="_top" xlink:title="Voxel::Ptr\&lt; T \&gt;">
<polygon fill="none" stroke="black" points="187,-164.5 187,-183.5 271,-183.5 271,-164.5 187,-164.5"/>
<text text-anchor="middle" x="229" y="-171.5" font-family="Helvetica,sans-Serif" font-size="10.00">Voxel::Ptr&lt; T &gt;</text>
</a>
</g>
</g>
<!-- Node5&#45;&gt;Node3 -->
<g id="edge4" class="edge"><title>Node5&#45;&gt;Node3</title>
<path fill="none" stroke="orange" stroke-dasharray="5,2" d="M212.323,-157.388C194.715,-140.903 167.198,-115.142 150.178,-99.209"/>
<polygon fill="orange" stroke="orange" points="209.951,-159.961 219.643,-164.241 214.735,-154.851 209.951,-159.961"/>
<text text-anchor="start" x="193" y="-132" font-family="Helvetica,sans-Serif" font-size="10.00"> &lt; Voxel::DepthCameraLibrary</text>
<text text-anchor="middle" x="259.5" y="-121" font-family="Helvetica,sans-Serif" font-size="10.00">Private &gt;</text>
</g>
<!-- Node6 -->
<g id="node6" class="node"><title>Node6</title>
<polygon fill="none" stroke="#bfbfbf" points="176,-228.5 176,-247.5 282,-247.5 282,-228.5 176,-228.5"/>
<text text-anchor="middle" x="229" y="-235.5" font-family="Helvetica,sans-Serif" font-size="10.00">std::shared_ptr&lt; T &gt;</text>
</g>
<!-- Node6&#45;&gt;Node5 -->
<g id="edge5" class="edge"><title>Node6&#45;&gt;Node5</title>
<path fill="none" stroke="midnightblue" d="M229,-218.037C229,-206.53 229,-192.403 229,-183.548"/>
<polygon fill="midnightblue" stroke="midnightblue" points="225.5,-218.379 229,-228.379 232.5,-218.379 225.5,-218.379"/>
</g>
</g>
</svg>
