<?xml version="1.0" encoding="UTF-8" standalone="no"?>
<!DOCTYPE svg PUBLIC "-//W3C//DTD SVG 1.1//EN"
 "http://www.w3.org/Graphics/SVG/1.1/DTD/svg11.dtd">
<!-- Generated by graphviz version 2.36.0 (20140111.2315)
 -->
<!-- Title: Voxel::ConfigDataPacket Pages: 1 -->
<svg width="313pt" height="232pt"
 viewBox="0.00 0.00 313.00 232.00" xmlns="http://www.w3.org/2000/svg" xmlns:xlink="http://www.w3.org/1999/xlink">
<g id="graph0" class="graph" transform="scale(1 1) rotate(0) translate(4 228)">
<title>Voxel::ConfigDataPacket</title>
<!-- Node1 -->
<g id="node1" class="node"><title>Node1</title>
<polygon fill="#bfbfbf" stroke="black" points="51,-0.5 51,-19.5 179,-19.5 179,-0.5 51,-0.5"/>
<text text-anchor="middle" x="115" y="-7.5" font-family="Helvetica,sans-Serif" font-size="10.00">Voxel::ConfigDataPacket</text>
</g>
<!-- Node2 -->
<g id="node2" class="node"><title>Node2</title>
<g id="a_node2"><a xlink:href="a00035.xhtml" target="_top" xlink:title="Voxel::DataPacket">
<polygon fill="none" stroke="black" points="65.5,-58.5 65.5,-77.5 164.5,-77.5 164.5,-58.5 65.5,-58.5"/>
<text text-anchor="middle" x="115" y="-65.5" font-family="Helvetica,sans-Serif" font-size="10.00">Voxel::DataPacket</text>
</a>
</g>
</g>
<!-- Node2&#45;&gt;Node1 -->
<g id="edge1" class="edge"><title>Node2&#45;&gt;Node1</title>
<path fill="none" stroke="midnightblue" d="M115,-47.953C115,-38.2875 115,-27.0312 115,-19.5052"/>
<polygon fill="midnightblue" stroke="midnightblue" points="111.5,-48.25 115,-58.25 118.5,-48.25 111.5,-48.25"/>
</g>
<!-- Node3 -->
<g id="node3" class="node"><title>Node3</title>
<polygon fill="none" stroke="#bfbfbf" points="-0.5,-126.5 -0.5,-145.5 34.5,-145.5 34.5,-126.5 -0.5,-126.5"/>
<text text-anchor="middle" x="17" y="-133.5" font-family="Helvetica,sans-Serif" font-size="10.00">char</text>
</g>
<!-- Node3&#45;&gt;Node2 -->
<g id="edge2" class="edge"><title>Node3&#45;&gt;Node2</title>
<path fill="none" stroke="#9a32cd" stroke-dasharray="5,2" d="M32.2885,-119.187C40.1308,-111.601 50.0987,-102.723 60,-96 70.6482,-88.7697 83.5177,-82.3424 94.1299,-77.5743"/>
<polygon fill="#9a32cd" stroke="#9a32cd" points="29.5845,-116.941 24.9774,-126.482 34.5286,-121.896 29.5845,-116.941"/>
<text text-anchor="middle" x="75" y="-99.5" font-family="Helvetica,sans-Serif" font-size="10.00"> magic</text>
</g>
<!-- Node4 -->
<g id="node4" class="node"><title>Node4</title>
<polygon fill="none" stroke="#bfbfbf" points="52.5,-126.5 52.5,-145.5 103.5,-145.5 103.5,-126.5 52.5,-126.5"/>
<text text-anchor="middle" x="78" y="-133.5" font-family="Helvetica,sans-Serif" font-size="10.00">uint32_t</text>
</g>
<!-- Node4&#45;&gt;Node2 -->
<g id="edge3" class="edge"><title>Node4&#45;&gt;Node2</title>
<path fill="none" stroke="#9a32cd" stroke-dasharray="5,2" d="M87.7753,-117.563C94.9407,-104.781 104.371,-87.9599 110.044,-77.8411"/>
<polygon fill="#9a32cd" stroke="#9a32cd" points="84.6742,-115.937 82.8371,-126.372 90.7802,-119.36 84.6742,-115.937"/>
<text text-anchor="middle" x="111" y="-99.5" font-family="Helvetica,sans-Serif" font-size="10.00"> size</text>
</g>
<!-- Node5 -->
<g id="node5" class="node"><title>Node5</title>
<g id="a_node5"><a xlink:href="a00127.xhtml" target="_top" xlink:title="Voxel::SerializedObject">
<polygon fill="none" stroke="black" points="121.5,-126.5 121.5,-145.5 240.5,-145.5 240.5,-126.5 121.5,-126.5"/>
<text text-anchor="middle" x="181" y="-133.5" font-family="Helvetica,sans-Serif" font-size="10.00">Voxel::SerializedObject</text>
</a>
</g>
</g>
<!-- Node5&#45;&gt;Node2 -->
<g id="edge4" class="edge"><title>Node5&#45;&gt;Node2</title>
<path fill="none" stroke="#9a32cd" stroke-dasharray="5,2" d="M165.047,-119.047C152.111,-106.111 134.357,-88.3567 123.841,-77.8411"/>
<polygon fill="#9a32cd" stroke="#9a32cd" points="162.826,-121.775 172.372,-126.372 167.775,-116.826 162.826,-121.775"/>
<text text-anchor="middle" x="169" y="-99.5" font-family="Helvetica,sans-Serif" font-size="10.00"> object</text>
</g>
<!-- Node6 -->
<g id="node6" class="node"><title>Node6</title>
<polygon fill="none" stroke="#bfbfbf" points="103,-204.5 103,-223.5 185,-223.5 185,-204.5 103,-204.5"/>
<text text-anchor="middle" x="144" y="-211.5" font-family="Helvetica,sans-Serif" font-size="10.00">Vector&lt; char &gt;</text>
</g>
<!-- Node6&#45;&gt;Node5 -->
<g id="edge5" class="edge"><title>Node6&#45;&gt;Node5</title>
<path fill="none" stroke="#9a32cd" stroke-dasharray="5,2" d="M150.485,-194.988C154.089,-185.578 158.874,-173.975 164,-164 167.241,-157.694 171.491,-150.944 174.931,-145.77"/>
<polygon fill="#9a32cd" stroke="#9a32cd" points="147.162,-193.884 146.964,-204.477 153.724,-196.32 147.162,-193.884"/>
<text text-anchor="middle" x="180.5" y="-172.5" font-family="Helvetica,sans-Serif" font-size="10.00"> _bytes</text>
</g>
<!-- Node7 -->
<g id="node7" class="node"><title>Node7</title>
<polygon fill="none" stroke="#bfbfbf" points="203,-204.5 203,-223.5 235,-223.5 235,-204.5 203,-204.5"/>
<text text-anchor="middle" x="219" y="-211.5" font-family="Helvetica,sans-Serif" font-size="10.00">uint</text>
</g>
<!-- Node7&#45;&gt;Node5 -->
<g id="edge6" class="edge"><title>Node7&#45;&gt;Node5</title>
<path fill="none" stroke="#9a32cd" stroke-dasharray="5,2" d="M211.394,-194.758C207.361,-185.436 202.178,-173.984 197,-164 193.789,-157.809 189.789,-151.059 186.592,-145.857"/>
<polygon fill="#9a32cd" stroke="#9a32cd" points="208.267,-196.349 215.397,-204.185 214.71,-193.612 208.267,-196.349"/>
<text text-anchor="middle" x="232.5" y="-178" font-family="Helvetica,sans-Serif" font-size="10.00"> _putOffset</text>
<text text-anchor="middle" x="232.5" y="-167" font-family="Helvetica,sans-Serif" font-size="10.00">_getOffset</text>
</g>
<!-- Node8 -->
<g id="node8" class="node"><title>Node8</title>
<polygon fill="none" stroke="#bfbfbf" points="259,-126.5 259,-145.5 305,-145.5 305,-126.5 259,-126.5"/>
<text text-anchor="middle" x="282" y="-133.5" font-family="Helvetica,sans-Serif" font-size="10.00">uint8_t</text>
</g>
<!-- Node8&#45;&gt;Node2 -->
<g id="edge7" class="edge"><title>Node8&#45;&gt;Node2</title>
<path fill="none" stroke="#9a32cd" stroke-dasharray="5,2" d="M252.583,-122.449C234.111,-114.654 209.75,-104.531 188,-96 171.646,-89.586 153.077,-82.7236 138.76,-77.5223"/>
<polygon fill="#9a32cd" stroke="#9a32cd" points="251.349,-125.727 261.922,-126.403 254.078,-119.281 251.349,-125.727"/>
<text text-anchor="middle" x="228" y="-99.5" font-family="Helvetica,sans-Serif" font-size="10.00"> type</text>
</g>
</g>
</svg>
