<?xml version="1.0" encoding="UTF-8" standalone="no"?>
<!DOCTYPE svg PUBLIC "-//W3C//DTD SVG 1.1//EN"
 "http://www.w3.org/Graphics/SVG/1.1/DTD/svg11.dtd">
<!-- Generated by graphviz version 2.36.0 (20140111.2315)
 -->
<!-- Title: Voxel::GeneratorConfigurationSubPacket Pages: 1 -->
<svg width="260pt" height="186pt"
 viewBox="0.00 0.00 260.00 186.00" xmlns="http://www.w3.org/2000/svg" xmlns:xlink="http://www.w3.org/1999/xlink">
<g id="graph0" class="graph" transform="scale(1 1) rotate(0) translate(4 182)">
<title>Voxel::GeneratorConfigurationSubPacket</title>
<!-- Node1 -->
<g id="node1" class="node"><title>Node1</title>
<polygon fill="#bfbfbf" stroke="black" points="54,-1 54,-31 202,-31 202,-1 54,-1"/>
<text text-anchor="start" x="62" y="-19" font-family="Helvetica,sans-Serif" font-size="10.00">Voxel::GeneratorConfiguration</text>
<text text-anchor="middle" x="128" y="-8" font-family="Helvetica,sans-Serif" font-size="10.00">SubPacket</text>
</g>
<!-- Node2 -->
<g id="node2" class="node"><title>Node2</title>
<polygon fill="none" stroke="#bfbfbf" points="-0.5,-80.5 -0.5,-99.5 50.5,-99.5 50.5,-80.5 -0.5,-80.5"/>
<text text-anchor="middle" x="25" y="-87.5" font-family="Helvetica,sans-Serif" font-size="10.00">uint32_t</text>
</g>
<!-- Node2&#45;&gt;Node1 -->
<g id="edge1" class="edge"><title>Node2&#45;&gt;Node1</title>
<path fill="none" stroke="#9a32cd" stroke-dasharray="5,2" d="M45.8421,-74.4307C63.864,-61.8329 89.7616,-43.7298 107.641,-31.2316"/>
<polygon fill="#9a32cd" stroke="#9a32cd" points="43.4107,-71.86 37.2199,-80.4579 47.4213,-77.5972 43.4107,-71.86"/>
<text text-anchor="middle" x="91" y="-53.5" font-family="Helvetica,sans-Serif" font-size="10.00"> size</text>
</g>
<!-- Node3 -->
<g id="node3" class="node"><title>Node3</title>
<g id="a_node3"><a xlink:href="a00127.xhtml" target="_top" xlink:title="Voxel::SerializedObject">
<polygon fill="none" stroke="black" points="68.5,-80.5 68.5,-99.5 187.5,-99.5 187.5,-80.5 68.5,-80.5"/>
<text text-anchor="middle" x="128" y="-87.5" font-family="Helvetica,sans-Serif" font-size="10.00">Voxel::SerializedObject</text>
</a>
</g>
</g>
<!-- Node3&#45;&gt;Node1 -->
<g id="edge2" class="edge"><title>Node3&#45;&gt;Node1</title>
<path fill="none" stroke="#9a32cd" stroke-dasharray="5,2" d="M128,-70.0846C128,-57.9148 128,-42.3538 128,-31.2316"/>
<polygon fill="#9a32cd" stroke="#9a32cd" points="124.5,-70.4579 128,-80.4579 131.5,-70.4579 124.5,-70.4579"/>
<text text-anchor="middle" x="143" y="-53.5" font-family="Helvetica,sans-Serif" font-size="10.00"> config</text>
</g>
<!-- Node4 -->
<g id="node4" class="node"><title>Node4</title>
<polygon fill="none" stroke="#bfbfbf" points="50,-158.5 50,-177.5 132,-177.5 132,-158.5 50,-158.5"/>
<text text-anchor="middle" x="91" y="-165.5" font-family="Helvetica,sans-Serif" font-size="10.00">Vector&lt; char &gt;</text>
</g>
<!-- Node4&#45;&gt;Node3 -->
<g id="edge3" class="edge"><title>Node4&#45;&gt;Node3</title>
<path fill="none" stroke="#9a32cd" stroke-dasharray="5,2" d="M97.4855,-148.988C101.089,-139.578 105.874,-127.975 111,-118 114.241,-111.694 118.491,-104.944 121.931,-99.7703"/>
<polygon fill="#9a32cd" stroke="#9a32cd" points="94.1618,-147.884 93.9639,-158.477 100.724,-150.32 94.1618,-147.884"/>
<text text-anchor="middle" x="127.5" y="-126.5" font-family="Helvetica,sans-Serif" font-size="10.00"> _bytes</text>
</g>
<!-- Node5 -->
<g id="node5" class="node"><title>Node5</title>
<polygon fill="none" stroke="#bfbfbf" points="150,-158.5 150,-177.5 182,-177.5 182,-158.5 150,-158.5"/>
<text text-anchor="middle" x="166" y="-165.5" font-family="Helvetica,sans-Serif" font-size="10.00">uint</text>
</g>
<!-- Node5&#45;&gt;Node3 -->
<g id="edge4" class="edge"><title>Node5&#45;&gt;Node3</title>
<path fill="none" stroke="#9a32cd" stroke-dasharray="5,2" d="M158.394,-148.758C154.361,-139.436 149.178,-127.984 144,-118 140.789,-111.809 136.789,-105.059 133.592,-99.8567"/>
<polygon fill="#9a32cd" stroke="#9a32cd" points="155.267,-150.349 162.397,-158.185 161.71,-147.612 155.267,-150.349"/>
<text text-anchor="middle" x="179.5" y="-132" font-family="Helvetica,sans-Serif" font-size="10.00"> _putOffset</text>
<text text-anchor="middle" x="179.5" y="-121" font-family="Helvetica,sans-Serif" font-size="10.00">_getOffset</text>
</g>
<!-- Node6 -->
<g id="node6" class="node"><title>Node6</title>
<polygon fill="none" stroke="#bfbfbf" points="206,-80.5 206,-99.5 252,-99.5 252,-80.5 206,-80.5"/>
<text text-anchor="middle" x="229" y="-87.5" font-family="Helvetica,sans-Serif" font-size="10.00">uint8_t</text>
</g>
<!-- Node6&#45;&gt;Node1 -->
<g id="edge5" class="edge"><title>Node6&#45;&gt;Node1</title>
<path fill="none" stroke="#9a32cd" stroke-dasharray="5,2" d="M208.563,-74.4307C190.891,-61.8329 165.496,-43.7298 147.964,-31.2316"/>
<polygon fill="#9a32cd" stroke="#9a32cd" points="206.843,-77.5031 217.017,-80.4579 210.906,-71.8031 206.843,-77.5031"/>
<text text-anchor="middle" x="216" y="-53.5" font-family="Helvetica,sans-Serif" font-size="10.00"> frameType</text>
</g>
</g>
</svg>
