<?xml version="1.0" encoding="UTF-8" standalone="no"?>
<!DOCTYPE svg PUBLIC "-//W3C//DTD SVG 1.1//EN"
 "http://www.w3.org/Graphics/SVG/1.1/DTD/svg11.dtd">
<!-- Generated by graphviz version 2.36.0 (20140111.2315)
 -->
<!-- Title: Voxel::BoolParameter Pages: 1 -->
<svg width="367pt" height="374pt"
 viewBox="0.00 0.00 367.00 374.00" xmlns="http://www.w3.org/2000/svg" xmlns:xlink="http://www.w3.org/1999/xlink">
<g id="graph0" class="graph" transform="scale(1 1) rotate(0) translate(4 370)">
<title>Voxel::BoolParameter</title>
<!-- Node1 -->
<g id="node1" class="node"><title>Node1</title>
<polygon fill="#bfbfbf" stroke="black" points="88,-70.5 88,-89.5 200,-89.5 200,-70.5 88,-70.5"/>
<text text-anchor="middle" x="144" y="-77.5" font-family="Helvetica,sans-Serif" font-size="10.00">Voxel::BoolParameter</text>
</g>
<!-- Node7 -->
<g id="node7" class="node"><title>Node7</title>
<g id="a_node7"><a xlink:href="a00132.xhtml" target="_top" xlink:title="Voxel::StrobeBoolParameter">
<polygon fill="none" stroke="black" points="0,-6.5 0,-25.5 140,-25.5 140,-6.5 0,-6.5"/>
<text text-anchor="middle" x="70" y="-13.5" font-family="Helvetica,sans-Serif" font-size="10.00">Voxel::StrobeBoolParameter</text>
</a>
</g>
</g>
<!-- Node1&#45;&gt;Node7 -->
<g id="edge8" class="edge"><title>Node1&#45;&gt;Node7</title>
<path fill="none" stroke="midnightblue" d="M125.951,-63.8779C111.579,-51.8366 91.9819,-35.4173 80.202,-25.5476"/>
<polygon fill="midnightblue" stroke="midnightblue" points="123.798,-66.6398 133.711,-70.3792 128.293,-61.2741 123.798,-66.6398"/>
</g>
<!-- Node8 -->
<g id="node8" class="node"><title>Node8</title>
<g id="a_node8"><a xlink:href="a00018.xhtml" target="_top" xlink:title="Custom parameters. ">
<polygon fill="none" stroke="black" points="158,-1 158,-31 280,-31 280,-1 158,-1"/>
<text text-anchor="start" x="166" y="-19" font-family="Helvetica,sans-Serif" font-size="10.00">Voxel::TI::CalculusInteg</text>
<text text-anchor="middle" x="219" y="-8" font-family="Helvetica,sans-Serif" font-size="10.00">DutyCycleSetFailed</text>
</a>
</g>
</g>
<!-- Node1&#45;&gt;Node8 -->
<g id="edge9" class="edge"><title>Node1&#45;&gt;Node8</title>
<path fill="none" stroke="midnightblue" d="M162.142,-64.003C174.28,-53.9685 190.147,-40.8518 202.034,-31.0252"/>
<polygon fill="midnightblue" stroke="midnightblue" points="159.906,-61.3101 154.428,-70.3792 164.366,-66.7053 159.906,-61.3101"/>
</g>
<!-- Node2 -->
<g id="node2" class="node"><title>Node2</title>
<g id="a_node2"><a xlink:href="a00054.xhtml" target="_top" xlink:title="Voxel::EnumParameterTemplate\l\&lt; bool \&gt;">
<polygon fill="none" stroke="black" points="65,-129 65,-159 223,-159 223,-129 65,-129"/>
<text text-anchor="start" x="73" y="-147" font-family="Helvetica,sans-Serif" font-size="10.00">Voxel::EnumParameterTemplate</text>
<text text-anchor="middle" x="144" y="-136" font-family="Helvetica,sans-Serif" font-size="10.00">&lt; bool &gt;</text>
</a>
</g>
</g>
<!-- Node2&#45;&gt;Node1 -->
<g id="edge1" class="edge"><title>Node2&#45;&gt;Node1</title>
<path fill="none" stroke="midnightblue" d="M144,-118.871C144,-108.663 144,-97.4077 144,-89.8419"/>
<polygon fill="midnightblue" stroke="midnightblue" points="140.5,-118.931 144,-128.931 147.5,-118.931 140.5,-118.931"/>
</g>
<!-- Node3 -->
<g id="node3" class="node"><title>Node3</title>
<g id="a_node3"><a xlink:href="a00103.xhtml" target="_top" xlink:title="Voxel::ParameterTemplate\l\&lt; bool \&gt;">
<polygon fill="none" stroke="black" points="25.5,-209 25.5,-239 158.5,-239 158.5,-209 25.5,-209"/>
<text text-anchor="start" x="33.5" y="-227" font-family="Helvetica,sans-Serif" font-size="10.00">Voxel::ParameterTemplate</text>
<text text-anchor="middle" x="92" y="-216" font-family="Helvetica,sans-Serif" font-size="10.00">&lt; bool &gt;</text>
</a>
</g>
</g>
<!-- Node3&#45;&gt;Node2 -->
<g id="edge2" class="edge"><title>Node3&#45;&gt;Node2</title>
<path fill="none" stroke="midnightblue" d="M107.263,-200.105C116.089,-186.867 126.917,-170.625 134.523,-159.216"/>
<polygon fill="midnightblue" stroke="midnightblue" points="104.172,-198.432 101.538,-208.694 109.997,-202.315 104.172,-198.432"/>
</g>
<!-- Node4 -->
<g id="node4" class="node"><title>Node4</title>
<g id="a_node4"><a xlink:href="a00101.xhtml" target="_top" xlink:title="Voxel::Parameter">
<polygon fill="none" stroke="black" points="79,-346.5 79,-365.5 171,-365.5 171,-346.5 79,-346.5"/>
<text text-anchor="middle" x="125" y="-353.5" font-family="Helvetica,sans-Serif" font-size="10.00">Voxel::Parameter</text>
</a>
</g>
</g>
<!-- Node4&#45;&gt;Node3 -->
<g id="edge3" class="edge"><title>Node4&#45;&gt;Node3</title>
<path fill="none" stroke="midnightblue" d="M119.226,-336.62C116.586,-327.972 113.498,-317.495 111,-308 104.681,-283.983 98.4731,-255.743 94.9518,-239.166"/>
<polygon fill="midnightblue" stroke="midnightblue" points="115.949,-337.869 122.252,-346.385 122.635,-335.797 115.949,-337.869"/>
</g>
<!-- Node5 -->
<g id="node5" class="node"><title>Node5</title>
<g id="a_node5"><a xlink:href="a00103.xhtml" target="_top" xlink:title="Voxel::ParameterTemplate\&lt; T \&gt;">
<polygon fill="none" stroke="black" points="120.5,-288.5 120.5,-307.5 277.5,-307.5 277.5,-288.5 120.5,-288.5"/>
<text text-anchor="middle" x="199" y="-295.5" font-family="Helvetica,sans-Serif" font-size="10.00">Voxel::ParameterTemplate&lt; T &gt;</text>
</a>
</g>
</g>
<!-- Node4&#45;&gt;Node5 -->
<g id="edge5" class="edge"><title>Node4&#45;&gt;Node5</title>
<path fill="none" stroke="midnightblue" d="M144.559,-340.199C158.301,-329.799 176.206,-316.25 187.655,-307.585"/>
<polygon fill="midnightblue" stroke="midnightblue" points="142.101,-337.669 136.239,-346.495 146.325,-343.251 142.101,-337.669"/>
</g>
<!-- Node5&#45;&gt;Node3 -->
<g id="edge4" class="edge"><title>Node5&#45;&gt;Node3</title>
<path fill="none" stroke="orange" stroke-dasharray="5,2" d="M177.862,-282.776C159.121,-270.166 131.894,-251.844 113.15,-239.232"/>
<polygon fill="orange" stroke="orange" points="176.055,-285.779 186.306,-288.458 179.963,-279.971 176.055,-285.779"/>
<text text-anchor="middle" x="179" y="-261.5" font-family="Helvetica,sans-Serif" font-size="10.00"> &lt; bool &gt;</text>
</g>
<!-- Node6 -->
<g id="node6" class="node"><title>Node6</title>
<g id="a_node6"><a xlink:href="a00054.xhtml" target="_top" xlink:title="Voxel::EnumParameterTemplate\&lt; T \&gt;">
<polygon fill="none" stroke="black" points="177,-214.5 177,-233.5 359,-233.5 359,-214.5 177,-214.5"/>
<text text-anchor="middle" x="268" y="-221.5" font-family="Helvetica,sans-Serif" font-size="10.00">Voxel::EnumParameterTemplate&lt; T &gt;</text>
</a>
</g>
</g>
<!-- Node5&#45;&gt;Node6 -->
<g id="edge7" class="edge"><title>Node5&#45;&gt;Node6</title>
<path fill="none" stroke="midnightblue" d="M214.251,-281.086C228.305,-266.421 248.626,-245.217 259.824,-233.531"/>
<polygon fill="midnightblue" stroke="midnightblue" points="211.578,-278.816 207.186,-288.458 216.632,-283.66 211.578,-278.816"/>
</g>
<!-- Node6&#45;&gt;Node2 -->
<g id="edge6" class="edge"><title>Node6&#45;&gt;Node2</title>
<path fill="none" stroke="orange" stroke-dasharray="5,2" d="M245.756,-209.008C223.397,-194.943 189.108,-173.374 166.617,-159.227"/>
<polygon fill="orange" stroke="orange" points="243.928,-211.993 254.256,-214.355 247.655,-206.067 243.928,-211.993"/>
<text text-anchor="middle" x="234" y="-181.5" font-family="Helvetica,sans-Serif" font-size="10.00"> &lt; bool &gt;</text>
</g>
</g>
</svg>
