<?xml version="1.0" encoding="UTF-8" standalone="no"?>
<!DOCTYPE svg PUBLIC "-//W3C//DTD SVG 1.1//EN"
 "http://www.w3.org/Graphics/SVG/1.1/DTD/svg11.dtd">
<!-- Generated by graphviz version 2.36.0 (20140111.2315)
 -->
<!-- Title: Voxel::SmoothFilter Pages: 1 -->
<svg width="1032pt" height="302pt"
 viewBox="0.00 0.00 1032.00 302.00" xmlns="http://www.w3.org/2000/svg" xmlns:xlink="http://www.w3.org/1999/xlink">
<g id="graph0" class="graph" transform="scale(1 1) rotate(0) translate(4 298)">
<title>Voxel::SmoothFilter</title>
<!-- Node1 -->
<g id="node1" class="node"><title>Node1</title>
<polygon fill="#bfbfbf" stroke="black" points="920.5,-83.5 920.5,-102.5 1023.5,-102.5 1023.5,-83.5 920.5,-83.5"/>
<text text-anchor="middle" x="972" y="-90.5" font-family="Helvetica,sans-Serif" font-size="10.00">Voxel::SmoothFilter</text>
</g>
<!-- Node2 -->
<g id="node2" class="node"><title>Node2</title>
<g id="a_node2"><a xlink:href="a00055.xhtml" target="_top" xlink:title="Voxel::Filter">
<polygon fill="none" stroke="black" points="700.5,-171.5 700.5,-190.5 769.5,-190.5 769.5,-171.5 700.5,-171.5"/>
<text text-anchor="middle" x="735" y="-178.5" font-family="Helvetica,sans-Serif" font-size="10.00">Voxel::Filter</text>
</a>
</g>
</g>
<!-- Node2&#45;&gt;Node1 -->
<g id="edge1" class="edge"><title>Node2&#45;&gt;Node1</title>
<path fill="none" stroke="midnightblue" d="M771.212,-167.814C819,-149.919 903.254,-118.369 945.435,-102.573"/>
<polygon fill="midnightblue" stroke="midnightblue" points="769.734,-164.63 761.596,-171.415 772.189,-171.186 769.734,-164.63"/>
</g>
<!-- Node3 -->
<g id="node3" class="node"><title>Node3</title>
<polygon fill="none" stroke="#bfbfbf" points="472,-274.5 472,-293.5 516,-293.5 516,-274.5 472,-274.5"/>
<text text-anchor="middle" x="494" y="-281.5" font-family="Helvetica,sans-Serif" font-size="10.00">mutex</text>
</g>
<!-- Node3&#45;&gt;Node2 -->
<g id="edge2" class="edge"><title>Node3&#45;&gt;Node2</title>
<path fill="none" stroke="#9a32cd" stroke-dasharray="5,2" d="M526.288,-283.11C559.563,-281.05 612.952,-274.495 654,-254 685.457,-238.294 713.644,-206.582 726.553,-190.628"/>
<polygon fill="#9a32cd" stroke="#9a32cd" points="526.036,-279.618 516.232,-283.632 526.4,-286.608 526.036,-279.618"/>
<text text-anchor="middle" x="618" y="-279" font-family="Helvetica,sans-Serif" font-size="10.00"> _accessMutex</text>
</g>
<!-- Node4 -->
<g id="node4" class="node"><title>Node4</title>
<polygon fill="none" stroke="#bfbfbf" points="473.5,-209.5 473.5,-228.5 514.5,-228.5 514.5,-209.5 473.5,-209.5"/>
<text text-anchor="middle" x="494" y="-216.5" font-family="Helvetica,sans-Serif" font-size="10.00">string</text>
</g>
<!-- Node4&#45;&gt;Node2 -->
<g id="edge3" class="edge"><title>Node4&#45;&gt;Node2</title>
<path fill="none" stroke="#9a32cd" stroke-dasharray="5,2" d="M524.621,-214.741C556.578,-210.096 608.946,-202.342 654,-195 669.169,-192.528 685.924,-189.623 700.164,-187.102"/>
<polygon fill="#9a32cd" stroke="#9a32cd" points="524,-211.294 514.606,-216.192 525.004,-218.222 524,-211.294"/>
<text text-anchor="middle" x="618" y="-242" font-family="Helvetica,sans-Serif" font-size="10.00"> _nameScope</text>
<text text-anchor="middle" x="618" y="-231" font-family="Helvetica,sans-Serif" font-size="10.00">_id</text>
<text text-anchor="middle" x="618" y="-220" font-family="Helvetica,sans-Serif" font-size="10.00">_description</text>
<text text-anchor="middle" x="618" y="-209" font-family="Helvetica,sans-Serif" font-size="10.00">_name</text>
</g>
<!-- Node5 -->
<g id="node5" class="node"><title>Node5</title>
<g id="a_node5"><a xlink:href="a00113.xhtml" target="_top" xlink:title="Voxel::Ptr\&lt; DepthCamera \&gt;">
<polygon fill="none" stroke="black" points="424.5,-171.5 424.5,-190.5 563.5,-190.5 563.5,-171.5 424.5,-171.5"/>
<text text-anchor="middle" x="494" y="-178.5" font-family="Helvetica,sans-Serif" font-size="10.00">Voxel::Ptr&lt; DepthCamera &gt;</text>
</a>
</g>
</g>
<!-- Node5&#45;&gt;Node2 -->
<g id="edge4" class="edge"><title>Node5&#45;&gt;Node2</title>
<path fill="none" stroke="#9a32cd" stroke-dasharray="5,2" d="M573.967,-181C616.895,-181 667.74,-181 700.411,-181"/>
<polygon fill="#9a32cd" stroke="#9a32cd" points="573.808,-177.5 563.808,-181 573.808,-184.5 573.808,-177.5"/>
<text text-anchor="middle" x="618" y="-184" font-family="Helvetica,sans-Serif" font-size="10.00"> _depthCamera</text>
</g>
<!-- Node6 -->
<g id="node6" class="node"><title>Node6</title>
<polygon fill="none" stroke="#bfbfbf" points="144.5,-184.5 144.5,-203.5 305.5,-203.5 305.5,-184.5 144.5,-184.5"/>
<text text-anchor="middle" x="225" y="-191.5" font-family="Helvetica,sans-Serif" font-size="10.00">std::shared_ptr&lt; DepthCamera &gt;</text>
</g>
<!-- Node6&#45;&gt;Node5 -->
<g id="edge5" class="edge"><title>Node6&#45;&gt;Node5</title>
<path fill="none" stroke="midnightblue" d="M316.092,-189.614C351.513,-187.889 391.509,-185.942 424.5,-184.335"/>
<polygon fill="midnightblue" stroke="midnightblue" points="315.565,-186.135 305.747,-190.117 315.906,-193.127 315.565,-186.135"/>
</g>
<!-- Node7 -->
<g id="node7" class="node"><title>Node7</title>
<g id="a_node7"><a xlink:href="a00113.xhtml" target="_top" xlink:title="Voxel::Ptr\&lt; T \&gt;">
<polygon fill="none" stroke="black" points="183,-146.5 183,-165.5 267,-165.5 267,-146.5 183,-146.5"/>
<text text-anchor="middle" x="225" y="-153.5" font-family="Helvetica,sans-Serif" font-size="10.00">Voxel::Ptr&lt; T &gt;</text>
</a>
</g>
</g>
<!-- Node7&#45;&gt;Node5 -->
<g id="edge6" class="edge"><title>Node7&#45;&gt;Node5</title>
<path fill="none" stroke="orange" stroke-dasharray="5,2" d="M277.403,-159.854C313.428,-162.66 362.687,-166.707 406,-171 411.9,-171.585 418.022,-172.224 424.161,-172.886"/>
<polygon fill="orange" stroke="orange" points="277.38,-156.342 267.14,-159.06 276.84,-163.321 277.38,-156.342"/>
<text text-anchor="middle" x="365" y="-174" font-family="Helvetica,sans-Serif" font-size="10.00"> &lt; DepthCamera &gt;</text>
</g>
<!-- Node8 -->
<g id="node8" class="node"><title>Node8</title>
<polygon fill="none" stroke="#bfbfbf" points="0,-146.5 0,-165.5 106,-165.5 106,-146.5 0,-146.5"/>
<text text-anchor="middle" x="53" y="-153.5" font-family="Helvetica,sans-Serif" font-size="10.00">std::shared_ptr&lt; T &gt;</text>
</g>
<!-- Node8&#45;&gt;Node7 -->
<g id="edge7" class="edge"><title>Node8&#45;&gt;Node7</title>
<path fill="none" stroke="midnightblue" d="M116.691,-156C138.763,-156 162.994,-156 182.838,-156"/>
<polygon fill="midnightblue" stroke="midnightblue" points="116.393,-152.5 106.393,-156 116.393,-159.5 116.393,-152.5"/>
</g>
<!-- Node9 -->
<g id="node9" class="node"><title>Node9</title>
<polygon fill="none" stroke="#bfbfbf" points="443.5,-122 443.5,-152 544.5,-152 544.5,-122 443.5,-122"/>
<text text-anchor="start" x="451.5" y="-140" font-family="Helvetica,sans-Serif" font-size="10.00">Map&lt; String, Voxel</text>
<text text-anchor="middle" x="494" y="-129" font-family="Helvetica,sans-Serif" font-size="10.00">::Ptr &gt;</text>
</g>
<!-- Node9&#45;&gt;Node2 -->
<g id="edge8" class="edge"><title>Node9&#45;&gt;Node2</title>
<path fill="none" stroke="#9a32cd" stroke-dasharray="5,2" d="M554.628,-147.804C584.474,-153.229 621.154,-159.925 654,-166 669.146,-168.801 685.897,-171.936 700.141,-174.613"/>
<polygon fill="#9a32cd" stroke="#9a32cd" points="555.249,-144.359 544.784,-146.015 553.997,-151.246 555.249,-144.359"/>
<text text-anchor="middle" x="618" y="-169" font-family="Helvetica,sans-Serif" font-size="10.00"> _parameters</text>
</g>
<!-- Node10 -->
<g id="node10" class="node"><title>Node10</title>
<g id="a_node10"><a xlink:href="a00071.xhtml" target="_top" xlink:title="Voxel::FrameSize">
<polygon fill="none" stroke="black" points="687.5,-83.5 687.5,-102.5 782.5,-102.5 782.5,-83.5 687.5,-83.5"/>
<text text-anchor="middle" x="735" y="-90.5" font-family="Helvetica,sans-Serif" font-size="10.00">Voxel::FrameSize</text>
</a>
</g>
</g>
<!-- Node10&#45;&gt;Node1 -->
<g id="edge9" class="edge"><title>Node10&#45;&gt;Node1</title>
<path fill="none" stroke="#9a32cd" stroke-dasharray="5,2" d="M792.822,-93C831.705,-93 882.806,-93 920.309,-93"/>
<polygon fill="#9a32cd" stroke="#9a32cd" points="792.709,-89.5001 782.709,-93 792.709,-96.5001 792.709,-89.5001"/>
<text text-anchor="middle" x="859" y="-96" font-family="Helvetica,sans-Serif" font-size="10.00"> _size</text>
</g>
<!-- Node11 -->
<g id="node11" class="node"><title>Node11</title>
<polygon fill="none" stroke="#bfbfbf" points="468.5,-83.5 468.5,-102.5 519.5,-102.5 519.5,-83.5 468.5,-83.5"/>
<text text-anchor="middle" x="494" y="-90.5" font-family="Helvetica,sans-Serif" font-size="10.00">uint32_t</text>
</g>
<!-- Node11&#45;&gt;Node10 -->
<g id="edge10" class="edge"><title>Node11&#45;&gt;Node10</title>
<path fill="none" stroke="#9a32cd" stroke-dasharray="5,2" d="M529.868,-93C571.469,-93 641.185,-93 687.384,-93"/>
<polygon fill="#9a32cd" stroke="#9a32cd" points="529.677,-89.5001 519.677,-93 529.677,-96.5001 529.677,-89.5001"/>
<text text-anchor="middle" x="618" y="-107" font-family="Helvetica,sans-Serif" font-size="10.00"> width</text>
<text text-anchor="middle" x="618" y="-96" font-family="Helvetica,sans-Serif" font-size="10.00">height</text>
</g>
<!-- Node12 -->
<g id="node12" class="node"><title>Node12</title>
<g id="a_node12"><a xlink:href="a00046.xhtml" target="_top" xlink:title="Voxel::DiscreteGaussian">
<polygon fill="none" stroke="black" points="672.5,-38.5 672.5,-57.5 797.5,-57.5 797.5,-38.5 672.5,-38.5"/>
<text text-anchor="middle" x="735" y="-45.5" font-family="Helvetica,sans-Serif" font-size="10.00">Voxel::DiscreteGaussian</text>
</a>
</g>
</g>
<!-- Node12&#45;&gt;Node1 -->
<g id="edge11" class="edge"><title>Node12&#45;&gt;Node1</title>
<path fill="none" stroke="#9a32cd" stroke-dasharray="5,2" d="M801.54,-59.2953C832.115,-64.7055 868.968,-71.427 902,-78 910.536,-79.6987 919.645,-81.6089 928.352,-83.4827"/>
<polygon fill="#9a32cd" stroke="#9a32cd" points="801.882,-55.8017 791.426,-57.5129 800.667,-62.6955 801.882,-55.8017"/>
<text text-anchor="middle" x="859" y="-81" font-family="Helvetica,sans-Serif" font-size="10.00"> _discreteGaussian</text>
</g>
<!-- Node13 -->
<g id="node13" class="node"><title>Node13</title>
<g id="a_node13"><a xlink:href="a00396.xhtml" target="_top" xlink:title="float">
<polygon fill="none" stroke="black" points="476.5,-38.5 476.5,-57.5 511.5,-57.5 511.5,-38.5 476.5,-38.5"/>
<text text-anchor="middle" x="494" y="-45.5" font-family="Helvetica,sans-Serif" font-size="10.00">float</text>
</a>
</g>
</g>
<!-- Node13&#45;&gt;Node12 -->
<g id="edge12" class="edge"><title>Node13&#45;&gt;Node12</title>
<path fill="none" stroke="#9a32cd" stroke-dasharray="5,2" d="M522.078,-48C558.358,-48 623.798,-48 672.395,-48"/>
<polygon fill="#9a32cd" stroke="#9a32cd" points="521.806,-44.5001 511.806,-48 521.806,-51.5001 521.806,-44.5001"/>
<text text-anchor="middle" x="618" y="-62" font-family="Helvetica,sans-Serif" font-size="10.00"> _squaredSigma</text>
<text text-anchor="middle" x="618" y="-51" font-family="Helvetica,sans-Serif" font-size="10.00">_sigma</text>
</g>
<!-- Node14 -->
<g id="node14" class="node"><title>Node14</title>
<polygon fill="none" stroke="#bfbfbf" points="453,-0.5 453,-19.5 535,-19.5 535,-0.5 453,-0.5"/>
<text text-anchor="middle" x="494" y="-7.5" font-family="Helvetica,sans-Serif" font-size="10.00">Vector&lt; float &gt;</text>
</g>
<!-- Node14&#45;&gt;Node12 -->
<g id="edge13" class="edge"><title>Node14&#45;&gt;Node12</title>
<path fill="none" stroke="#9a32cd" stroke-dasharray="5,2" d="M545.481,-16.7547C576.778,-21.0783 617.785,-26.9881 654,-33 664.037,-34.6662 674.756,-36.5816 684.98,-38.4744"/>
<polygon fill="#9a32cd" stroke="#9a32cd" points="545.643,-13.2443 535.26,-15.3514 544.691,-20.1792 545.643,-13.2443"/>
<text text-anchor="middle" x="618" y="-36" font-family="Helvetica,sans-Serif" font-size="10.00"> _values</text>
</g>
</g>
</svg>
