<?xml version="1.0" encoding="UTF-8" standalone="no"?>
<!DOCTYPE svg PUBLIC "-//W3C//DTD SVG 1.1//EN"
 "http://www.w3.org/Graphics/SVG/1.1/DTD/svg11.dtd">
<!-- Generated by graphviz version 2.36.0 (20140111.2315)
 -->
<!-- Title: Voxel::USBIO Pages: 1 -->
<svg width="312pt" height="246pt"
 viewBox="0.00 0.00 312.00 246.00" xmlns="http://www.w3.org/2000/svg" xmlns:xlink="http://www.w3.org/1999/xlink">
<g id="graph0" class="graph" transform="scale(1 1) rotate(0) translate(4 242)">
<title>Voxel::USBIO</title>
<!-- Node1 -->
<g id="node1" class="node"><title>Node1</title>
<polygon fill="#bfbfbf" stroke="black" points="64.5,-0.5 64.5,-19.5 143.5,-19.5 143.5,-0.5 64.5,-0.5"/>
<text text-anchor="middle" x="104" y="-7.5" font-family="Helvetica,sans-Serif" font-size="10.00">Voxel::USBIO</text>
</g>
<!-- Node2 -->
<g id="node2" class="node"><title>Node2</title>
<g id="a_node2"><a xlink:href="a00113.xhtml" target="_top" xlink:title="Voxel::Ptr\&lt; Voxel::\lUSBIO::USBIOPrivate \&gt;">
<polygon fill="none" stroke="black" points="41.5,-69 41.5,-99 166.5,-99 166.5,-69 41.5,-69"/>
<text text-anchor="start" x="49.5" y="-87" font-family="Helvetica,sans-Serif" font-size="10.00">Voxel::Ptr&lt; Voxel::</text>
<text text-anchor="middle" x="104" y="-76" font-family="Helvetica,sans-Serif" font-size="10.00">USBIO::USBIOPrivate &gt;</text>
</a>
</g>
</g>
<!-- Node2&#45;&gt;Node1 -->
<g id="edge1" class="edge"><title>Node2&#45;&gt;Node1</title>
<path fill="none" stroke="#9a32cd" stroke-dasharray="5,2" d="M104,-58.6883C104,-45.2526 104,-29.3805 104,-19.7589"/>
<polygon fill="#9a32cd" stroke="#9a32cd" points="100.5,-58.7751 104,-68.7751 107.5,-58.7752 100.5,-58.7751"/>
<text text-anchor="middle" x="137" y="-41.5" font-family="Helvetica,sans-Serif" font-size="10.00"> _usbIOPrivate</text>
</g>
<!-- Node3 -->
<g id="node3" class="node"><title>Node3</title>
<polygon fill="none" stroke="#bfbfbf" points="-0.5,-149 -0.5,-179 130.5,-179 130.5,-149 -0.5,-149"/>
<text text-anchor="start" x="7.5" y="-167" font-family="Helvetica,sans-Serif" font-size="10.00">std::shared_ptr&lt; Voxel</text>
<text text-anchor="middle" x="65" y="-156" font-family="Helvetica,sans-Serif" font-size="10.00">::USBIO::USBIOPrivate &gt;</text>
</g>
<!-- Node3&#45;&gt;Node2 -->
<g id="edge2" class="edge"><title>Node3&#45;&gt;Node2</title>
<path fill="none" stroke="midnightblue" d="M76.639,-139.722C83.2227,-126.555 91.2423,-110.515 96.8921,-99.2157"/>
<polygon fill="midnightblue" stroke="midnightblue" points="73.4949,-138.184 72.1532,-148.694 79.7559,-141.315 73.4949,-138.184"/>
</g>
<!-- Node4 -->
<g id="node4" class="node"><title>Node4</title>
<g id="a_node4"><a xlink:href="a00113.xhtml" target="_top" xlink:title="Voxel::Ptr\&lt; T \&gt;">
<polygon fill="none" stroke="black" points="149,-154.5 149,-173.5 233,-173.5 233,-154.5 149,-154.5"/>
<text text-anchor="middle" x="191" y="-161.5" font-family="Helvetica,sans-Serif" font-size="10.00">Voxel::Ptr&lt; T &gt;</text>
</a>
</g>
</g>
<!-- Node4&#45;&gt;Node2 -->
<g id="edge3" class="edge"><title>Node4&#45;&gt;Node2</title>
<path fill="none" stroke="orange" stroke-dasharray="5,2" d="M173.905,-147.674C158.217,-133.608 135.157,-112.934 119.869,-99.227"/>
<polygon fill="orange" stroke="orange" points="171.575,-150.285 181.357,-154.355 176.248,-145.073 171.575,-150.285"/>
<text text-anchor="middle" x="228" y="-121.5" font-family="Helvetica,sans-Serif" font-size="10.00"> &lt; Voxel::USBIO::USBIOPrivate &gt;</text>
</g>
<!-- Node5 -->
<g id="node5" class="node"><title>Node5</title>
<polygon fill="none" stroke="#bfbfbf" points="138,-218.5 138,-237.5 244,-237.5 244,-218.5 138,-218.5"/>
<text text-anchor="middle" x="191" y="-225.5" font-family="Helvetica,sans-Serif" font-size="10.00">std::shared_ptr&lt; T &gt;</text>
</g>
<!-- Node5&#45;&gt;Node4 -->
<g id="edge4" class="edge"><title>Node5&#45;&gt;Node4</title>
<path fill="none" stroke="midnightblue" d="M191,-208.037C191,-196.53 191,-182.403 191,-173.548"/>
<polygon fill="midnightblue" stroke="midnightblue" points="187.5,-208.379 191,-218.379 194.5,-208.379 187.5,-208.379"/>
</g>
</g>
</svg>
