<?xml version="1.0" encoding="UTF-8" standalone="no"?>
<!DOCTYPE svg PUBLIC "-//W3C//DTD SVG 1.1//EN"
 "http://www.w3.org/Graphics/SVG/1.1/DTD/svg11.dtd">
<!-- Generated by graphviz version 2.36.0 (20140111.2315)
 -->
<!-- Title: Voxel::Streamer Pages: 1 -->
<!--zoomable 232 -->
<svg id="main" version="1.1" xmlns="http://www.w3.org/2000/svg" xmlns:xlink="http://www.w3.org/1999/xlink" xml:space="preserve" onload="init(evt)">
<style type="text/css"><![CDATA[
.edge:hover path { stroke: red; }
.edge:hover polygon { stroke: red; fill: red; }
]]></style>
<script type="text/javascript"><![CDATA[
var edges = document.getElementsByTagName('g');
if (edges && edges.length) {
  for (var i=0;i<edges.length;i++) {
    if (edges[i].id.substr(0,4)=='edge') {
      edges[i].setAttribute('class','edge');
    }
  }
}
]]></script>
        <defs>
                <circle id="rim" cx="0" cy="0" r="7"/>
                <circle id="rim2" cx="0" cy="0" r="3.5"/>
                <g id="zoomPlus">
                        <use xlink:href="#rim" fill="#404040">
                                <set attributeName="fill" to="#808080" begin="zoomplus.mouseover" end="zoomplus.mouseout"/>
                        </use>
                        <path d="M-4,0h8M0,-4v8" fill="none" stroke="white" stroke-width="1.5" pointer-events="none"/>
                </g>
                <g id="zoomMin">
                        <use xlink:href="#rim" fill="#404040">
                                <set attributeName="fill" to="#808080" begin="zoomminus.mouseover" end="zoomminus.mouseout"/>
                        </use>
                        <path d="M-4,0h8" fill="none" stroke="white" stroke-width="1.5" pointer-events="none"/>
                </g>
                <g id="dirArrow">
                        <path fill="none" stroke="white" stroke-width="1.5" d="M0,-3.0v7 M-2.5,-0.5L0,-3.0L2.5,-0.5"/>
                </g>
               <g id="resetDef">
                       <use xlink:href="#rim2" fill="#404040">
                               <set attributeName="fill" to="#808080" begin="reset.mouseover" end="reset.mouseout"/>
                       </use>
               </g>
        </defs>

<script type="text/javascript">
var viewWidth = 533;
var viewHeight = 232;
var sectionId = 'dynsection-1';
</script>
<script xlink:href="svgpan.js"/>
<svg id="graph" class="graph">
<g id="viewport">
<title>Voxel::Streamer</title>
<!-- Node1 -->
<g id="node1" class="node"><title>Node1</title>
<polygon fill="#bfbfbf" stroke="black" points="170.5,-0.5 170.5,-19.5 257.5,-19.5 257.5,-0.5 170.5,-0.5"/>
<text text-anchor="middle" x="214" y="-7.5" font-family="Helvetica,sans-Serif" font-size="10.00">Voxel::Streamer</text>
</g>
<!-- Node2 -->
<g id="node2" class="node"><title>Node2</title>
<polygon fill="none" stroke="#bfbfbf" points="-0.5,-146.5 -0.5,-165.5 50.5,-165.5 50.5,-146.5 -0.5,-146.5"/>
<text text-anchor="middle" x="25" y="-153.5" font-family="Helvetica,sans-Serif" font-size="10.00">uint64_t</text>
</g>
<!-- Node2&#45;&gt;Node1 -->
<g id="edge1" class="edge"><title>Node2&#45;&gt;Node1</title>
<path fill="none" stroke="#9a32cd" stroke-dasharray="5,2" d="M14.2915,-137.567C4.15899,-118.583 -7.39515,-88.2335 8,-68 27.5486,-42.3078 115.69,-25.2083 170.15,-16.89"/>
<polygon fill="#9a32cd" stroke="#9a32cd" points="11.3081,-139.4 19.3104,-146.344 17.3849,-135.925 11.3081,-139.4"/>
<text text-anchor="middle" x="52.5" y="-75.5" font-family="Helvetica,sans-Serif" font-size="10.00"> _currentTimeStamp</text>
</g>
<!-- Node3 -->
<g id="node3" class="node"><title>Node3</title>
<g id="a_node3"><a xlink:href="a00136.xhtml" target="_top" xlink:title="Voxel::Timer">
<polygon fill="none" stroke="black" points="106,-68.5 106,-87.5 178,-87.5 178,-68.5 106,-68.5"/>
<text text-anchor="middle" x="142" y="-75.5" font-family="Helvetica,sans-Serif" font-size="10.00">Voxel::Timer</text>
</a>
</g>
</g>
<!-- Node2&#45;&gt;Node3 -->
<g id="edge3" class="edge"><title>Node2&#45;&gt;Node3</title>
<path fill="none" stroke="#9a32cd" stroke-dasharray="5,2" d="M38.1706,-138.306C47.0928,-127.889 59.6531,-114.828 73,-106 84.9094,-98.1231 99.4634,-92.0009 112.13,-87.5925"/>
<polygon fill="#9a32cd" stroke="#9a32cd" points="35.254,-136.342 31.5943,-146.285 40.6556,-140.795 35.254,-136.342"/>
<text text-anchor="middle" x="106.5" y="-120" font-family="Helvetica,sans-Serif" font-size="10.00"> _realTimeStart</text>
<text text-anchor="middle" x="106.5" y="-109" font-family="Helvetica,sans-Serif" font-size="10.00">_monoticStart</text>
</g>
<!-- Node3&#45;&gt;Node1 -->
<g id="edge2" class="edge"><title>Node3&#45;&gt;Node1</title>
<path fill="none" stroke="#9a32cd" stroke-dasharray="5,2" d="M153.238,-59.8315C158.44,-52.6142 165.013,-44.4215 172,-38 179.787,-30.844 189.69,-24.3765 197.925,-19.5666"/>
<polygon fill="#9a32cd" stroke="#9a32cd" points="150.235,-58.0217 147.454,-68.245 156.004,-61.9873 150.235,-58.0217"/>
<text text-anchor="middle" x="186" y="-41.5" font-family="Helvetica,sans-Serif" font-size="10.00"> _time</text>
</g>
<!-- Node4 -->
<g id="node4" class="node"><title>Node4</title>
<g id="a_node4"><a xlink:href="a00398.xhtml" target="_top" xlink:title="bool">
<polygon fill="none" stroke="black" points="162.5,-146.5 162.5,-165.5 197.5,-165.5 197.5,-146.5 162.5,-146.5"/>
<text text-anchor="middle" x="180" y="-153.5" font-family="Helvetica,sans-Serif" font-size="10.00">bool</text>
</a>
</g>
</g>
<!-- Node4&#45;&gt;Node1 -->
<g id="edge6" class="edge"><title>Node4&#45;&gt;Node1</title>
<path fill="none" stroke="#9a32cd" stroke-dasharray="5,2" d="M194.554,-138.064C196.685,-134.885 198.622,-131.466 200,-128 215.188,-89.7883 215.157,-39.4539 214.442,-19.5896"/>
<polygon fill="#9a32cd" stroke="#9a32cd" points="191.611,-136.152 188.338,-146.229 197.18,-140.393 191.611,-136.152"/>
<text text-anchor="middle" x="239" y="-75.5" font-family="Helvetica,sans-Serif" font-size="10.00"> _isRunning</text>
</g>
<!-- Node4&#45;&gt;Node3 -->
<g id="edge4" class="edge"><title>Node4&#45;&gt;Node3</title>
<path fill="none" stroke="#9a32cd" stroke-dasharray="5,2" d="M159.892,-139.546C156.474,-136.085 153.294,-132.185 151,-128 143.933,-115.106 142.283,-97.7288 141.972,-87.5087"/>
<polygon fill="#9a32cd" stroke="#9a32cd" points="157.718,-142.298 167.502,-146.365 162.39,-137.085 157.718,-142.298"/>
<text text-anchor="middle" x="175.5" y="-114.5" font-family="Helvetica,sans-Serif" font-size="10.00"> _initialized</text>
</g>
<!-- Node5 -->
<g id="node5" class="node"><title>Node5</title>
<g id="a_node5"><a xlink:href="a00397.xhtml" target="_top" xlink:title="int">
<polygon fill="none" stroke="black" points="284.5,-68.5 284.5,-87.5 313.5,-87.5 313.5,-68.5 284.5,-68.5"/>
<text text-anchor="middle" x="299" y="-75.5" font-family="Helvetica,sans-Serif" font-size="10.00">int</text>
</a>
</g>
</g>
<!-- Node5&#45;&gt;Node1 -->
<g id="edge5" class="edge"><title>Node5&#45;&gt;Node1</title>
<path fill="none" stroke="#9a32cd" stroke-dasharray="5,2" d="M279.806,-62.0961C262.941,-49.0012 238.988,-30.4028 225.115,-19.6305"/>
<polygon fill="#9a32cd" stroke="#9a32cd" points="277.843,-65.0031 287.888,-68.3717 282.136,-59.4742 277.843,-65.0031"/>
<text text-anchor="middle" x="289.5" y="-41.5" font-family="Helvetica,sans-Serif" font-size="10.00"> _currentID</text>
</g>
<!-- Node6 -->
<g id="node6" class="node"><title>Node6</title>
<g id="a_node6"><a xlink:href="a00113.xhtml" target="_top" xlink:title="Voxel::Ptr\&lt; Device \&gt;">
<polygon fill="none" stroke="black" points="331.5,-68.5 331.5,-87.5 440.5,-87.5 440.5,-68.5 331.5,-68.5"/>
<text text-anchor="middle" x="386" y="-75.5" font-family="Helvetica,sans-Serif" font-size="10.00">Voxel::Ptr&lt; Device &gt;</text>
</a>
</g>
</g>
<!-- Node6&#45;&gt;Node1 -->
<g id="edge7" class="edge"><title>Node6&#45;&gt;Node1</title>
<path fill="none" stroke="#9a32cd" stroke-dasharray="5,2" d="M364.81,-62.8818C351.756,-54.691 334.427,-44.7018 318,-38 298.655,-30.1078 276.331,-23.9533 257.337,-19.5266"/>
<polygon fill="#9a32cd" stroke="#9a32cd" points="363.18,-65.9948 373.485,-68.4555 366.964,-60.1055 363.18,-65.9948"/>
<text text-anchor="middle" x="360.5" y="-41.5" font-family="Helvetica,sans-Serif" font-size="10.00"> _device</text>
</g>
<!-- Node7 -->
<g id="node7" class="node"><title>Node7</title>
<polygon fill="none" stroke="#bfbfbf" points="280.5,-146.5 280.5,-165.5 411.5,-165.5 411.5,-146.5 280.5,-146.5"/>
<text text-anchor="middle" x="346" y="-153.5" font-family="Helvetica,sans-Serif" font-size="10.00">std::shared_ptr&lt; Device &gt;</text>
</g>
<!-- Node7&#45;&gt;Node6 -->
<g id="edge8" class="edge"><title>Node7&#45;&gt;Node6</title>
<path fill="none" stroke="midnightblue" d="M355.41,-137.122C363.616,-121.53 375.165,-99.5862 381.465,-87.6165"/>
<polygon fill="midnightblue" stroke="midnightblue" points="352.149,-135.803 350.589,-146.282 358.343,-139.063 352.149,-135.803"/>
</g>
<!-- Node8 -->
<g id="node8" class="node"><title>Node8</title>
<g id="a_node8"><a xlink:href="a00113.xhtml" target="_top" xlink:title="Voxel::Ptr\&lt; T \&gt;">
<polygon fill="none" stroke="black" points="430,-146.5 430,-165.5 514,-165.5 514,-146.5 430,-146.5"/>
<text text-anchor="middle" x="472" y="-153.5" font-family="Helvetica,sans-Serif" font-size="10.00">Voxel::Ptr&lt; T &gt;</text>
</a>
</g>
</g>
<!-- Node8&#45;&gt;Node6 -->
<g id="edge9" class="edge"><title>Node8&#45;&gt;Node6</title>
<path fill="none" stroke="orange" stroke-dasharray="5,2" d="M454.239,-139.304C436.516,-123.642 409.94,-100.156 395.75,-87.6165"/>
<polygon fill="orange" stroke="orange" points="452.324,-142.282 462.135,-146.282 456.959,-137.037 452.324,-142.282"/>
<text text-anchor="middle" x="465" y="-114.5" font-family="Helvetica,sans-Serif" font-size="10.00"> &lt; Device &gt;</text>
</g>
<!-- Node9 -->
<g id="node9" class="node"><title>Node9</title>
<polygon fill="none" stroke="#bfbfbf" points="419,-204.5 419,-223.5 525,-223.5 525,-204.5 419,-204.5"/>
<text text-anchor="middle" x="472" y="-211.5" font-family="Helvetica,sans-Serif" font-size="10.00">std::shared_ptr&lt; T &gt;</text>
</g>
<!-- Node9&#45;&gt;Node8 -->
<g id="edge10" class="edge"><title>Node9&#45;&gt;Node8</title>
<path fill="none" stroke="midnightblue" d="M472,-193.953C472,-184.287 472,-173.031 472,-165.505"/>
<polygon fill="midnightblue" stroke="midnightblue" points="468.5,-194.25 472,-204.25 475.5,-194.25 468.5,-194.25"/>
</g>
</g>
</svg>
        <g id="navigator" transform="translate(0 0)" fill="#404254">
                <rect fill="#f2f5e9" fill-opacity="0.5" stroke="#606060" stroke-width=".5" x="0" y="0" width="60" height="60"/>
                <use id="zoomplus" xlink:href="#zoomPlus" x="17" y="9" onmousedown="handleZoom(evt,'in')"/>
                <use id="zoomminus" xlink:href="#zoomMin" x="42" y="9" onmousedown="handleZoom(evt,'out')"/>
                <use id="reset" xlink:href="#resetDef" x="30" y="36" onmousedown="handleReset()"/>
                <g id="arrowUp" xlink:href="#dirArrow" transform="translate(30 24)" onmousedown="handlePan(0,-1)">
                  <use xlink:href="#rim" fill="#404040">
                        <set attributeName="fill" to="#808080" begin="arrowUp.mouseover" end="arrowUp.mouseout"/>
                  </use>
                  <path fill="none" stroke="white" stroke-width="1.5" d="M0,-3.0v7 M-2.5,-0.5L0,-3.0L2.5,-0.5"/>
                </g>
                <g id="arrowRight" xlink:href="#dirArrow" transform="rotate(90) translate(36 -43)" onmousedown="handlePan(1,0)">
                  <use xlink:href="#rim" fill="#404040">
                        <set attributeName="fill" to="#808080" begin="arrowRight.mouseover" end="arrowRight.mouseout"/>
                  </use>
                  <path fill="none" stroke="white" stroke-width="1.5" d="M0,-3.0v7 M-2.5,-0.5L0,-3.0L2.5,-0.5"/>
                </g>
                <g id="arrowDown" xlink:href="#dirArrow" transform="rotate(180) translate(-30 -48)" onmousedown="handlePan(0,1)">
                  <use xlink:href="#rim" fill="#404040">
                        <set attributeName="fill" to="#808080" begin="arrowDown.mouseover" end="arrowDown.mouseout"/>
                  </use>
                  <path fill="none" stroke="white" stroke-width="1.5" d="M0,-3.0v7 M-2.5,-0.5L0,-3.0L2.5,-0.5"/>
                </g>
                <g id="arrowLeft" xlink:href="#dirArrow" transform="rotate(270) translate(-36 17)" onmousedown="handlePan(-1,0)">
                  <use xlink:href="#rim" fill="#404040">
                        <set attributeName="fill" to="#808080" begin="arrowLeft.mouseover" end="arrowLeft.mouseout"/>
                  </use>
                  <path fill="none" stroke="white" stroke-width="1.5" d="M0,-3.0v7 M-2.5,-0.5L0,-3.0L2.5,-0.5"/>
                </g>
        </g>
        <svg viewBox="0 0 15 15" width="100%" height="30px" preserveAspectRatio="xMaxYMin meet">
         <g id="arrow_out" transform="scale(0.3 0.3)">
          <a xlink:href="a00957_org.svg" target="_base">
           <rect id="button" ry="5" rx="5" y="6" x="6" height="38" width="38"
                fill="#f2f5e9" fill-opacity="0.5" stroke="#606060" stroke-width="1.0"/>
           <path id="arrow"
             d="M 11.500037,31.436501 C 11.940474,20.09759 22.043105,11.32322 32.158766,21.979434 L 37.068811,17.246167 C 37.068811,17.246167 37.088388,32 37.088388,32 L 22.160133,31.978069 C 22.160133,31.978069 26.997745,27.140456 26.997745,27.140456 C 18.528582,18.264221 13.291696,25.230495 11.500037,31.436501 z"
             style="fill:#404040;"/>
          </a>
         </g>
        </svg>
</svg>
