<?xml version="1.0" encoding="UTF-8" standalone="no"?>
<!DOCTYPE svg PUBLIC "-//W3C//DTD SVG 1.1//EN"
 "http://www.w3.org/Graphics/SVG/1.1/DTD/svg11.dtd">
<!-- Generated by graphviz version 2.36.0 (20140111.2315)
 -->
<!-- Title: Voxel::Ptr&lt; T &gt; Pages: 1 -->
<!--zoomable 1765 -->
<svg id="main" version="1.1" xmlns="http://www.w3.org/2000/svg" xmlns:xlink="http://www.w3.org/1999/xlink" xml:space="preserve" onload="init(evt)">
<style type="text/css"><![CDATA[
.edge:hover path { stroke: red; }
.edge:hover polygon { stroke: red; fill: red; }
]]></style>
<script type="text/javascript"><![CDATA[
var edges = document.getElementsByTagName('g');
if (edges && edges.length) {
  for (var i=0;i<edges.length;i++) {
    if (edges[i].id.substr(0,4)=='edge') {
      edges[i].setAttribute('class','edge');
    }
  }
}
]]></script>
        <defs>
                <circle id="rim" cx="0" cy="0" r="7"/>
                <circle id="rim2" cx="0" cy="0" r="3.5"/>
                <g id="zoomPlus">
                        <use xlink:href="#rim" fill="#404040">
                                <set attributeName="fill" to="#808080" begin="zoomplus.mouseover" end="zoomplus.mouseout"/>
                        </use>
                        <path d="M-4,0h8M0,-4v8" fill="none" stroke="white" stroke-width="1.5" pointer-events="none"/>
                </g>
                <g id="zoomMin">
                        <use xlink:href="#rim" fill="#404040">
                                <set attributeName="fill" to="#808080" begin="zoomminus.mouseover" end="zoomminus.mouseout"/>
                        </use>
                        <path d="M-4,0h8" fill="none" stroke="white" stroke-width="1.5" pointer-events="none"/>
                </g>
                <g id="dirArrow">
                        <path fill="none" stroke="white" stroke-width="1.5" d="M0,-3.0v7 M-2.5,-0.5L0,-3.0L2.5,-0.5"/>
                </g>
               <g id="resetDef">
                       <use xlink:href="#rim2" fill="#404040">
                               <set attributeName="fill" to="#808080" begin="reset.mouseover" end="reset.mouseout"/>
                       </use>
               </g>
        </defs>

<script type="text/javascript">
var viewWidth = 768;
var viewHeight = 1765;
var sectionId = 'dynsection-0';
</script>
<script xlink:href="svgpan.js"/>
<svg id="graph" class="graph">
<g id="viewport">
<title>Voxel::Ptr&lt; T &gt;</title>
<!-- Node1 -->
<g id="node1" class="node"><title>Node1</title>
<polygon fill="#bfbfbf" stroke="black" points="144,-842.404 144,-861.404 228,-861.404 228,-842.404 144,-842.404"/>
<text text-anchor="middle" x="186" y="-849.404" font-family="Helvetica,sans-Serif" font-size="10.00">Voxel::Ptr&lt; T &gt;</text>
</g>
<!-- Node3 -->
<g id="node3" class="node"><title>Node3</title>
<g id="a_node3"><a xlink:href="a00113.xhtml" target="_top" xlink:title="Voxel::Ptr\&lt; PointCloudTransform \&gt;">
<polygon fill="none" stroke="black" points="442,-1713.4 442,-1732.4 612,-1732.4 612,-1713.4 442,-1713.4"/>
<text text-anchor="middle" x="527" y="-1720.4" font-family="Helvetica,sans-Serif" font-size="10.00">Voxel::Ptr&lt; PointCloudTransform &gt;</text>
</a>
</g>
</g>
<!-- Node1&#45;&gt;Node3 -->
<g id="edge2" class="edge"><title>Node1&#45;&gt;Node3</title>
<path fill="none" stroke="orange" stroke-dasharray="5,2" d="M186.88,-871.564C186.332,-992.922 186.265,-1637 246,-1697.9 310.246,-1763.41 431.136,-1746.19 490.827,-1732.42"/>
<polygon fill="orange" stroke="orange" points="190.38,-871.506 186.933,-861.488 183.381,-871.47 190.38,-871.506"/>
<text text-anchor="middle" x="331" y="-1748.9" font-family="Helvetica,sans-Serif" font-size="10.00"> &lt; PointCloudTransform &gt;</text>
</g>
<!-- Node4 -->
<g id="node4" class="node"><title>Node4</title>
<g id="a_node4"><a xlink:href="a00113.xhtml" target="_top" xlink:title="Voxel::Ptr\&lt; USBIO \&gt;">
<polygon fill="none" stroke="black" points="472,-1675.4 472,-1694.4 582,-1694.4 582,-1675.4 472,-1675.4"/>
<text text-anchor="middle" x="527" y="-1682.4" font-family="Helvetica,sans-Serif" font-size="10.00">Voxel::Ptr&lt; USBIO &gt;</text>
</a>
</g>
</g>
<!-- Node1&#45;&gt;Node4 -->
<g id="edge3" class="edge"><title>Node1&#45;&gt;Node4</title>
<path fill="none" stroke="orange" stroke-dasharray="5,2" d="M186.939,-871.829C186.766,-990.789 188.676,-1604.05 246,-1661.9 261.534,-1677.58 395.072,-1682.59 471.984,-1684.18"/>
<polygon fill="orange" stroke="orange" points="190.439,-871.635 186.961,-861.628 183.439,-871.62 190.439,-871.635"/>
<text text-anchor="middle" x="331" y="-1685.9" font-family="Helvetica,sans-Serif" font-size="10.00"> &lt; USBIO &gt;</text>
</g>
<!-- Node5 -->
<g id="node5" class="node"><title>Node5</title>
<g id="a_node5"><a xlink:href="a00113.xhtml" target="_top" xlink:title="Voxel::Ptr\&lt; Voxel::\lUVCPrivate \&gt;">
<polygon fill="none" stroke="black" points="477,-1625.9 477,-1655.9 577,-1655.9 577,-1625.9 477,-1625.9"/>
<text text-anchor="start" x="485" y="-1643.9" font-family="Helvetica,sans-Serif" font-size="10.00">Voxel::Ptr&lt; Voxel::</text>
<text text-anchor="middle" x="527" y="-1632.9" font-family="Helvetica,sans-Serif" font-size="10.00">UVCPrivate &gt;</text>
</a>
</g>
</g>
<!-- Node1&#45;&gt;Node5 -->
<g id="edge4" class="edge"><title>Node1&#45;&gt;Node5</title>
<path fill="none" stroke="orange" stroke-dasharray="5,2" d="M187.027,-871.809C187.375,-986.856 191.828,-1563.46 246,-1617.9 277.262,-1649.33 405.267,-1647.72 476.89,-1644.15"/>
<polygon fill="orange" stroke="orange" points="190.526,-871.621 187.003,-861.629 183.526,-871.637 190.526,-871.621"/>
<text text-anchor="middle" x="331" y="-1649.9" font-family="Helvetica,sans-Serif" font-size="10.00"> &lt; Voxel::UVCPrivate &gt;</text>
</g>
<!-- Node6 -->
<g id="node6" class="node"><title>Node6</title>
<g id="a_node6"><a xlink:href="a00113.xhtml" target="_top" xlink:title="Voxel::Ptr\&lt; ToFFrameGenerator \&gt;">
<polygon fill="none" stroke="black" points="444,-1587.4 444,-1606.4 610,-1606.4 610,-1587.4 444,-1587.4"/>
<text text-anchor="middle" x="527" y="-1594.4" font-family="Helvetica,sans-Serif" font-size="10.00">Voxel::Ptr&lt; ToFFrameGenerator &gt;</text>
</a>
</g>
</g>
<!-- Node1&#45;&gt;Node6 -->
<g id="edge5" class="edge"><title>Node1&#45;&gt;Node6</title>
<path fill="none" stroke="orange" stroke-dasharray="5,2" d="M187.119,-871.723C187.981,-982.695 194.802,-1523.86 246,-1574.9 272.977,-1601.8 371.332,-1604.06 443.883,-1601.74"/>
<polygon fill="orange" stroke="orange" points="190.619,-871.573 187.049,-861.598 183.619,-871.622 190.619,-871.573"/>
<text text-anchor="middle" x="331" y="-1605.9" font-family="Helvetica,sans-Serif" font-size="10.00"> &lt; ToFFrameGenerator &gt;</text>
</g>
<!-- Node7 -->
<g id="node7" class="node"><title>Node7</title>
<g id="a_node7"><a xlink:href="a00113.xhtml" target="_top" xlink:title="Voxel::Ptr\&lt; RawDataFrame \&gt;">
<polygon fill="none" stroke="black" points="453.5,-1549.4 453.5,-1568.4 600.5,-1568.4 600.5,-1549.4 453.5,-1549.4"/>
<text text-anchor="middle" x="527" y="-1556.4" font-family="Helvetica,sans-Serif" font-size="10.00">Voxel::Ptr&lt; RawDataFrame &gt;</text>
</a>
</g>
</g>
<!-- Node1&#45;&gt;Node7 -->
<g id="edge6" class="edge"><title>Node1&#45;&gt;Node7</title>
<path fill="none" stroke="orange" stroke-dasharray="5,2" d="M187.224,-871.614C188.63,-978.621 197.822,-1486.76 246,-1534.9 274.169,-1563.06 380.275,-1565.06 453.463,-1562.82"/>
<polygon fill="orange" stroke="orange" points="190.723,-871.512 187.1,-861.556 183.723,-871.599 190.723,-871.512"/>
<text text-anchor="middle" x="331" y="-1566.9" font-family="Helvetica,sans-Serif" font-size="10.00"> &lt; RawDataFrame &gt;</text>
</g>
<!-- Node8 -->
<g id="node8" class="node"><title>Node8</title>
<g id="a_node8"><a xlink:href="a00113.xhtml" target="_top" xlink:title="Voxel::Ptr\&lt; Voxel::\lUSBIO::USBIOPrivate \&gt;">
<polygon fill="none" stroke="black" points="464.5,-1499.9 464.5,-1529.9 589.5,-1529.9 589.5,-1499.9 464.5,-1499.9"/>
<text text-anchor="start" x="472.5" y="-1517.9" font-family="Helvetica,sans-Serif" font-size="10.00">Voxel::Ptr&lt; Voxel::</text>
<text text-anchor="middle" x="527" y="-1506.9" font-family="Helvetica,sans-Serif" font-size="10.00">USBIO::USBIOPrivate &gt;</text>
</a>
</g>
</g>
<!-- Node1&#45;&gt;Node8 -->
<g id="edge7" class="edge"><title>Node1&#45;&gt;Node8</title>
<path fill="none" stroke="orange" stroke-dasharray="5,2" d="M187.359,-871.9C189.406,-975.184 201.15,-1445.2 246,-1489.9 275.639,-1519.45 391.229,-1520.63 464.307,-1518.19"/>
<polygon fill="orange" stroke="orange" points="190.853,-871.569 187.164,-861.638 183.855,-871.702 190.853,-871.569"/>
<text text-anchor="middle" x="331" y="-1522.9" font-family="Helvetica,sans-Serif" font-size="10.00"> &lt; Voxel::USBIO::USBIOPrivate &gt;</text>
</g>
<!-- Node9 -->
<g id="node9" class="node"><title>Node9</title>
<g id="a_node9"><a xlink:href="a00113.xhtml" target="_top" xlink:title="Voxel::Ptr\&lt; Voxel::\lUSBBulkStreamer::USBBulkStreamer\lPrivate \&gt;">
<polygon fill="none" stroke="black" points="435.5,-1440.4 435.5,-1481.4 618.5,-1481.4 618.5,-1440.4 435.5,-1440.4"/>
<text text-anchor="start" x="443.5" y="-1469.4" font-family="Helvetica,sans-Serif" font-size="10.00">Voxel::Ptr&lt; Voxel::</text>
<text text-anchor="start" x="443.5" y="-1458.4" font-family="Helvetica,sans-Serif" font-size="10.00">USBBulkStreamer::USBBulkStreamer</text>
<text text-anchor="middle" x="527" y="-1447.4" font-family="Helvetica,sans-Serif" font-size="10.00">Private &gt;</text>
</a>
</g>
</g>
<!-- Node1&#45;&gt;Node9 -->
<g id="edge8" class="edge"><title>Node1&#45;&gt;Node9</title>
<path fill="none" stroke="orange" stroke-dasharray="5,2" d="M187.559,-871.913C190.477,-969.488 205.409,-1392.38 246,-1432.9 271.972,-1458.84 363.908,-1463.97 435.432,-1463.79"/>
<polygon fill="orange" stroke="orange" points="191.051,-871.568 187.262,-861.673 184.054,-871.771 191.051,-871.568"/>
<text text-anchor="start" x="267.5" y="-1477.9" font-family="Helvetica,sans-Serif" font-size="10.00"> &lt; Voxel::USBBulkStreamer</text>
<text text-anchor="middle" x="331" y="-1466.9" font-family="Helvetica,sans-Serif" font-size="10.00">::USBBulkStreamerPrivate &gt;</text>
</g>
<!-- Node10 -->
<g id="node10" class="node"><title>Node10</title>
<g id="a_node10"><a xlink:href="a00113.xhtml" target="_top" xlink:title="Voxel::Ptr\&lt; Voxel::\lTI::HaddockCDKIllumination\lPowerParameter \&gt;">
<polygon fill="none" stroke="black" points="456,-1380.4 456,-1421.4 598,-1421.4 598,-1380.4 456,-1380.4"/>
<text text-anchor="start" x="464" y="-1409.4" font-family="Helvetica,sans-Serif" font-size="10.00">Voxel::Ptr&lt; Voxel::</text>
<text text-anchor="start" x="464" y="-1398.4" font-family="Helvetica,sans-Serif" font-size="10.00">TI::HaddockCDKIllumination</text>
<text text-anchor="middle" x="527" y="-1387.4" font-family="Helvetica,sans-Serif" font-size="10.00">PowerParameter &gt;</text>
</a>
</g>
</g>
<!-- Node1&#45;&gt;Node10 -->
<g id="edge9" class="edge"><title>Node1&#45;&gt;Node10</title>
<path fill="none" stroke="orange" stroke-dasharray="5,2" d="M187.754,-871.777C191.428,-963.488 208.8,-1342.92 246,-1378.9 274.912,-1406.88 382.872,-1407.93 455.972,-1405.14"/>
<polygon fill="orange" stroke="orange" points="191.246,-871.493 187.358,-861.637 184.251,-871.767 191.246,-871.493"/>
<text text-anchor="start" x="246.5" y="-1420.9" font-family="Helvetica,sans-Serif" font-size="10.00"> &lt; Voxel::TI::HaddockCDKIllumination</text>
<text text-anchor="middle" x="331" y="-1409.9" font-family="Helvetica,sans-Serif" font-size="10.00">PowerParameter &gt;</text>
</g>
<!-- Node11 -->
<g id="node11" class="node"><title>Node11</title>
<g id="a_node11"><a xlink:href="a00113.xhtml" target="_top" xlink:title="Voxel::Ptr\&lt; Voxel::\lUVCXU::UVCXUPrivate \&gt;">
<polygon fill="none" stroke="black" points="460,-1331.9 460,-1361.9 594,-1361.9 594,-1331.9 460,-1331.9"/>
<text text-anchor="start" x="468" y="-1349.9" font-family="Helvetica,sans-Serif" font-size="10.00">Voxel::Ptr&lt; Voxel::</text>
<text text-anchor="middle" x="527" y="-1338.9" font-family="Helvetica,sans-Serif" font-size="10.00">UVCXU::UVCXUPrivate &gt;</text>
</a>
</g>
</g>
<!-- Node1&#45;&gt;Node11 -->
<g id="edge10" class="edge"><title>Node1&#45;&gt;Node11</title>
<path fill="none" stroke="orange" stroke-dasharray="5,2" d="M188.101,-871.691C192.987,-956.099 213.884,-1283.2 246,-1314.9 301.364,-1369.56 395.968,-1368.66 459.711,-1360.14"/>
<polygon fill="orange" stroke="orange" points="191.592,-871.427 187.53,-861.642 184.603,-871.825 191.592,-871.427"/>
<text text-anchor="middle" x="331" y="-1367.9" font-family="Helvetica,sans-Serif" font-size="10.00"> &lt; Voxel::UVCXU::UVCXUPrivate &gt;</text>
</g>
<!-- Node12 -->
<g id="node12" class="node"><title>Node12</title>
<g id="a_node12"><a xlink:href="a00113.xhtml" target="_top" xlink:title="Voxel::Ptr\&lt; Voxel::\lUVC \&gt;">
<polygon fill="none" stroke="black" points="477,-1282.9 477,-1312.9 577,-1312.9 577,-1282.9 477,-1282.9"/>
<text text-anchor="start" x="485" y="-1300.9" font-family="Helvetica,sans-Serif" font-size="10.00">Voxel::Ptr&lt; Voxel::</text>
<text text-anchor="middle" x="527" y="-1289.9" font-family="Helvetica,sans-Serif" font-size="10.00">UVC &gt;</text>
</a>
</g>
</g>
<!-- Node1&#45;&gt;Node12 -->
<g id="edge11" class="edge"><title>Node1&#45;&gt;Node12</title>
<path fill="none" stroke="orange" stroke-dasharray="5,2" d="M186.73,-871.785C186.15,-947.081 188.275,-1213.3 246,-1268.9 277.941,-1299.67 405.335,-1301.39 476.777,-1299.78"/>
<polygon fill="orange" stroke="orange" points="190.23,-871.788 186.833,-861.752 183.23,-871.716 190.23,-871.788"/>
<text text-anchor="middle" x="331" y="-1302.9" font-family="Helvetica,sans-Serif" font-size="10.00"> &lt; Voxel::UVC &gt;</text>
</g>
<!-- Node13 -->
<g id="node13" class="node"><title>Node13</title>
<g id="a_node13"><a xlink:href="a00113.xhtml" target="_top" xlink:title="Voxel::Ptr\&lt; Voxel::\lFrameGenerator \&gt;">
<polygon fill="none" stroke="black" points="477,-1233.9 477,-1263.9 577,-1263.9 577,-1233.9 477,-1233.9"/>
<text text-anchor="start" x="485" y="-1251.9" font-family="Helvetica,sans-Serif" font-size="10.00">Voxel::Ptr&lt; Voxel::</text>
<text text-anchor="middle" x="527" y="-1240.9" font-family="Helvetica,sans-Serif" font-size="10.00">FrameGenerator &gt;</text>
</a>
</g>
</g>
<!-- Node1&#45;&gt;Node13 -->
<g id="edge12" class="edge"><title>Node1&#45;&gt;Node13</title>
<path fill="none" stroke="orange" stroke-dasharray="5,2" d="M187.033,-871.594C187.594,-941.799 193.416,-1178.25 246,-1226.9 278.481,-1256.96 405.649,-1255.45 476.915,-1252.03"/>
<polygon fill="orange" stroke="orange" points="190.533,-871.458 186.981,-861.476 183.533,-871.494 190.533,-871.458"/>
<text text-anchor="middle" x="331" y="-1256.9" font-family="Helvetica,sans-Serif" font-size="10.00"> &lt; Voxel::FrameGenerator &gt;</text>
</g>
<!-- Node14 -->
<g id="node14" class="node"><title>Node14</title>
<g id="a_node14"><a xlink:href="a00113.xhtml" target="_top" xlink:title="Voxel::Ptr\&lt; Voxel::\lPointCloudFrameGenerator \&gt;">
<polygon fill="none" stroke="black" points="455,-1184.9 455,-1214.9 599,-1214.9 599,-1184.9 455,-1184.9"/>
<text text-anchor="start" x="463" y="-1202.9" font-family="Helvetica,sans-Serif" font-size="10.00">Voxel::Ptr&lt; Voxel::</text>
<text text-anchor="middle" x="527" y="-1191.9" font-family="Helvetica,sans-Serif" font-size="10.00">PointCloudFrameGenerator &gt;</text>
</a>
</g>
</g>
<!-- Node1&#45;&gt;Node14 -->
<g id="edge13" class="edge"><title>Node1&#45;&gt;Node14</title>
<path fill="none" stroke="orange" stroke-dasharray="5,2" d="M187.583,-871.729C189.904,-935.673 200.708,-1134.71 246,-1175.9 275.596,-1202.82 382.184,-1205.1 454.972,-1203.26"/>
<polygon fill="orange" stroke="orange" points="191.071,-871.309 187.242,-861.43 184.075,-871.541 191.071,-871.309"/>
<text text-anchor="start" x="271.5" y="-1217.9" font-family="Helvetica,sans-Serif" font-size="10.00"> &lt; Voxel::PointCloudFrame</text>
<text text-anchor="middle" x="331" y="-1206.9" font-family="Helvetica,sans-Serif" font-size="10.00">Generator &gt;</text>
</g>
<!-- Node15 -->
<g id="node15" class="node"><title>Node15</title>
<g id="a_node15"><a xlink:href="a00113.xhtml" target="_top" xlink:title="Voxel::Ptr\&lt; BufferType \&gt;">
<polygon fill="none" stroke="black" points="464,-1146.4 464,-1165.4 590,-1165.4 590,-1146.4 464,-1146.4"/>
<text text-anchor="middle" x="527" y="-1153.4" font-family="Helvetica,sans-Serif" font-size="10.00">Voxel::Ptr&lt; BufferType &gt;</text>
</a>
</g>
</g>
<!-- Node1&#45;&gt;Node15 -->
<g id="edge14" class="edge"><title>Node1&#45;&gt;Node15</title>
<path fill="none" stroke="orange" stroke-dasharray="5,2" d="M188.159,-871.803C191.998,-930.178 206.391,-1099.06 246,-1133.9 277.257,-1161.4 391.383,-1162 463.927,-1159.36"/>
<polygon fill="orange" stroke="orange" points="191.643,-871.436 187.527,-861.673 184.657,-871.872 191.643,-871.436"/>
<text text-anchor="middle" x="331" y="-1163.9" font-family="Helvetica,sans-Serif" font-size="10.00"> &lt; BufferType &gt;</text>
</g>
<!-- Node17 -->
<g id="node17" class="node"><title>Node17</title>
<g id="a_node17"><a xlink:href="a00113.xhtml" target="_top" xlink:title="Voxel::Ptr\&lt; Voxel::\lUVCStreamer::UVCStreamerPrivate \&gt;">
<polygon fill="none" stroke="black" points="434.5,-1096.9 434.5,-1126.9 619.5,-1126.9 619.5,-1096.9 434.5,-1096.9"/>
<text text-anchor="start" x="442.5" y="-1114.9" font-family="Helvetica,sans-Serif" font-size="10.00">Voxel::Ptr&lt; Voxel::</text>
<text text-anchor="middle" x="527" y="-1103.9" font-family="Helvetica,sans-Serif" font-size="10.00">UVCStreamer::UVCStreamerPrivate &gt;</text>
</a>
</g>
</g>
<!-- Node1&#45;&gt;Node17 -->
<g id="edge16" class="edge"><title>Node1&#45;&gt;Node17</title>
<path fill="none" stroke="orange" stroke-dasharray="5,2" d="M188.993,-871.614C194.648,-923.261 212.582,-1060.51 246,-1088.9 260.263,-1101.03 358.09,-1106.88 434.142,-1109.62"/>
<polygon fill="orange" stroke="orange" points="192.451,-871.025 187.92,-861.448 185.49,-871.761 192.451,-871.025"/>
<text text-anchor="start" x="277" y="-1122.9" font-family="Helvetica,sans-Serif" font-size="10.00"> &lt; Voxel::UVCStreamer</text>
<text text-anchor="middle" x="331" y="-1111.9" font-family="Helvetica,sans-Serif" font-size="10.00">::UVCStreamerPrivate &gt;</text>
</g>
<!-- Node18 -->
<g id="node18" class="node"><title>Node18</title>
<g id="a_node18"><a xlink:href="a00113.xhtml" target="_top" xlink:title="Voxel::Ptr\&lt; ToFCrossTalk\lFilter \&gt;">
<polygon fill="none" stroke="black" points="461.5,-1047.9 461.5,-1077.9 592.5,-1077.9 592.5,-1047.9 461.5,-1047.9"/>
<text text-anchor="start" x="469.5" y="-1065.9" font-family="Helvetica,sans-Serif" font-size="10.00">Voxel::Ptr&lt; ToFCrossTalk</text>
<text text-anchor="middle" x="527" y="-1054.9" font-family="Helvetica,sans-Serif" font-size="10.00">Filter &gt;</text>
</a>
</g>
</g>
<!-- Node1&#45;&gt;Node18 -->
<g id="edge17" class="edge"><title>Node1&#45;&gt;Node18</title>
<path fill="none" stroke="orange" stroke-dasharray="5,2" d="M187.009,-871.954C188.215,-909.875 196.726,-991.882 246,-1031.9 306.172,-1080.78 399.168,-1081.02 461.276,-1074.11"/>
<polygon fill="orange" stroke="orange" points="190.504,-871.634 186.833,-861.696 183.505,-871.755 190.504,-871.634"/>
<text text-anchor="middle" x="331" y="-1080.9" font-family="Helvetica,sans-Serif" font-size="10.00"> &lt; ToFCrossTalkFilter &gt;</text>
</g>
<!-- Node19 -->
<g id="node19" class="node"><title>Node19</title>
<g id="a_node19"><a xlink:href="a00113.xhtml" target="_top" xlink:title="Voxel::Ptr\&lt; Voxel::\lStreamer \&gt;">
<polygon fill="none" stroke="black" points="477,-998.904 477,-1028.9 577,-1028.9 577,-998.904 477,-998.904"/>
<text text-anchor="start" x="485" y="-1016.9" font-family="Helvetica,sans-Serif" font-size="10.00">Voxel::Ptr&lt; Voxel::</text>
<text text-anchor="middle" x="527" y="-1005.9" font-family="Helvetica,sans-Serif" font-size="10.00">Streamer &gt;</text>
</a>
</g>
</g>
<!-- Node1&#45;&gt;Node19 -->
<g id="edge18" class="edge"><title>Node1&#45;&gt;Node19</title>
<path fill="none" stroke="orange" stroke-dasharray="5,2" d="M189.071,-871.819C193.475,-902.974 206.824,-962.6 246,-990.904 281.73,-1016.72 406.589,-1017.55 476.905,-1015.8"/>
<polygon fill="orange" stroke="orange" points="192.526,-871.233 187.823,-861.739 185.579,-872.094 192.526,-871.233"/>
<text text-anchor="middle" x="331" y="-1019.9" font-family="Helvetica,sans-Serif" font-size="10.00"> &lt; Voxel::Streamer &gt;</text>
</g>
<!-- Node20 -->
<g id="node20" class="node"><title>Node20</title>
<g id="a_node20"><a xlink:href="a00113.xhtml" target="_top" xlink:title="Voxel::Ptr\&lt; ByteType \&gt;">
<polygon fill="none" stroke="black" points="467,-960.404 467,-979.404 587,-979.404 587,-960.404 467,-960.404"/>
<text text-anchor="middle" x="527" y="-967.404" font-family="Helvetica,sans-Serif" font-size="10.00">Voxel::Ptr&lt; ByteType &gt;</text>
</a>
</g>
</g>
<!-- Node1&#45;&gt;Node20 -->
<g id="edge19" class="edge"><title>Node1&#45;&gt;Node20</title>
<path fill="none" stroke="orange" stroke-dasharray="5,2" d="M195.24,-870.857C204.603,-889.926 221.788,-918.512 246,-932.904 313.86,-973.243 407.111,-977.478 466.976,-975.066"/>
<polygon fill="orange" stroke="orange" points="198.343,-869.228 190.955,-861.635 191.995,-872.178 198.343,-869.228"/>
<text text-anchor="middle" x="331" y="-978.904" font-family="Helvetica,sans-Serif" font-size="10.00"> &lt; ByteType &gt;</text>
</g>
<!-- Node21 -->
<g id="node21" class="node"><title>Node21</title>
<g id="a_node21"><a xlink:href="a00113.xhtml" target="_top" xlink:title="Voxel::Ptr\&lt; Voxel::\lVideoMode \&gt;">
<polygon fill="none" stroke="black" points="477,-910.904 477,-940.904 577,-940.904 577,-910.904 477,-910.904"/>
<text text-anchor="start" x="485" y="-928.904" font-family="Helvetica,sans-Serif" font-size="10.00">Voxel::Ptr&lt; Voxel::</text>
<text text-anchor="middle" x="527" y="-917.904" font-family="Helvetica,sans-Serif" font-size="10.00">VideoMode &gt;</text>
</a>
</g>
</g>
<!-- Node1&#45;&gt;Node21 -->
<g id="edge20" class="edge"><title>Node1&#45;&gt;Node21</title>
<path fill="none" stroke="orange" stroke-dasharray="5,2" d="M209.995,-866.805C220.572,-873.011 233.522,-879.729 246,-883.904 324.195,-910.072 420.139,-919.98 476.996,-923.701"/>
<polygon fill="orange" stroke="orange" points="211.744,-863.772 201.382,-861.561 208.103,-869.751 211.744,-863.772"/>
<text text-anchor="middle" x="331" y="-920.904" font-family="Helvetica,sans-Serif" font-size="10.00"> &lt; Voxel::VideoMode &gt;</text>
</g>
<!-- Node22 -->
<g id="node22" class="node"><title>Node22</title>
<g id="a_node22"><a xlink:href="a00113.xhtml" target="_top" xlink:title="Voxel::Ptr\&lt; Voxel::\lRegisterProgrammer \&gt;">
<polygon fill="none" stroke="black" points="469,-861.904 469,-891.904 585,-891.904 585,-861.904 469,-861.904"/>
<text text-anchor="start" x="477" y="-879.904" font-family="Helvetica,sans-Serif" font-size="10.00">Voxel::Ptr&lt; Voxel::</text>
<text text-anchor="middle" x="527" y="-868.904" font-family="Helvetica,sans-Serif" font-size="10.00">RegisterProgrammer &gt;</text>
</a>
</g>
</g>
<!-- Node1&#45;&gt;Node22 -->
<g id="edge21" class="edge"><title>Node1&#45;&gt;Node22</title>
<path fill="none" stroke="orange" stroke-dasharray="5,2" d="M238.567,-855.707C300.644,-860.285 404.561,-867.949 468.976,-872.699"/>
<polygon fill="orange" stroke="orange" points="238.46,-852.19 228.229,-854.945 237.945,-859.171 238.46,-852.19"/>
<text text-anchor="middle" x="331" y="-871.904" font-family="Helvetica,sans-Serif" font-size="10.00"> &lt; Voxel::RegisterProgrammer &gt;</text>
</g>
<!-- Node23 -->
<g id="node23" class="node"><title>Node23</title>
<g id="a_node23"><a xlink:href="a00113.xhtml" target="_top" xlink:title="Voxel::Ptr\&lt; Voxel::\lUSBSystemPrivate \&gt;">
<polygon fill="none" stroke="black" points="471.5,-812.904 471.5,-842.904 582.5,-842.904 582.5,-812.904 471.5,-812.904"/>
<text text-anchor="start" x="479.5" y="-830.904" font-family="Helvetica,sans-Serif" font-size="10.00">Voxel::Ptr&lt; Voxel::</text>
<text text-anchor="middle" x="527" y="-819.904" font-family="Helvetica,sans-Serif" font-size="10.00">USBSystemPrivate &gt;</text>
</a>
</g>
</g>
<!-- Node1&#45;&gt;Node23 -->
<g id="edge22" class="edge"><title>Node1&#45;&gt;Node23</title>
<path fill="none" stroke="orange" stroke-dasharray="5,2" d="M238.298,-844.705C240.9,-844.416 243.479,-844.147 246,-843.904 324.152,-836.385 414.942,-831.99 471.441,-829.767"/>
<polygon fill="orange" stroke="orange" points="237.733,-841.248 228.215,-845.901 238.557,-848.199 237.733,-841.248"/>
<text text-anchor="middle" x="331" y="-846.904" font-family="Helvetica,sans-Serif" font-size="10.00"> &lt; Voxel::USBSystemPrivate &gt;</text>
</g>
<!-- Node24 -->
<g id="node24" class="node"><title>Node24</title>
<g id="a_node24"><a xlink:href="a00113.xhtml" target="_top" xlink:title="Voxel::Ptr\&lt; Voxel::\lDepthCameraLibraryPrivate \&gt;">
<polygon fill="none" stroke="black" points="454,-763.904 454,-793.904 600,-793.904 600,-763.904 454,-763.904"/>
<text text-anchor="start" x="462" y="-781.904" font-family="Helvetica,sans-Serif" font-size="10.00">Voxel::Ptr&lt; Voxel::</text>
<text text-anchor="middle" x="527" y="-770.904" font-family="Helvetica,sans-Serif" font-size="10.00">DepthCameraLibraryPrivate &gt;</text>
</a>
</g>
</g>
<!-- Node1&#45;&gt;Node24 -->
<g id="edge23" class="edge"><title>Node1&#45;&gt;Node24</title>
<path fill="none" stroke="orange" stroke-dasharray="5,2" d="M203.913,-834.913C214.924,-824.962 230.147,-813.156 246,-806.904 313.035,-780.469 395.775,-775.201 453.869,-775.484"/>
<polygon fill="orange" stroke="orange" points="201.237,-832.626 196.373,-842.039 206.045,-837.714 201.237,-832.626"/>
<text text-anchor="start" x="264.5" y="-820.904" font-family="Helvetica,sans-Serif" font-size="10.00"> &lt; Voxel::DepthCameraLibrary</text>
<text text-anchor="middle" x="331" y="-809.904" font-family="Helvetica,sans-Serif" font-size="10.00">Private &gt;</text>
</g>
<!-- Node25 -->
<g id="node25" class="node"><title>Node25</title>
<g id="a_node25"><a xlink:href="a00113.xhtml" target="_top" xlink:title="Voxel::Ptr\&lt; DepthCamera \&gt;">
<polygon fill="none" stroke="black" points="457.5,-725.404 457.5,-744.404 596.5,-744.404 596.5,-725.404 457.5,-725.404"/>
<text text-anchor="middle" x="527" y="-732.404" font-family="Helvetica,sans-Serif" font-size="10.00">Voxel::Ptr&lt; DepthCamera &gt;</text>
</a>
</g>
</g>
<!-- Node1&#45;&gt;Node25 -->
<g id="edge24" class="edge"><title>Node1&#45;&gt;Node25</title>
<path fill="none" stroke="orange" stroke-dasharray="5,2" d="M193.779,-832.613C202.36,-811.347 219.322,-778.017 246,-761.904 309.855,-723.338 397.196,-721.183 457.261,-725.717"/>
<polygon fill="orange" stroke="orange" points="190.41,-831.626 190.141,-842.218 196.956,-834.106 190.41,-831.626"/>
<text text-anchor="middle" x="331" y="-764.904" font-family="Helvetica,sans-Serif" font-size="10.00"> &lt; DepthCamera &gt;</text>
</g>
<!-- Node26 -->
<g id="node26" class="node"><title>Node26</title>
<g id="a_node26"><a xlink:href="a00113.xhtml" target="_top" xlink:title="Voxel::Ptr\&lt; IBaseFilter \&gt;">
<polygon fill="none" stroke="black" points="464.5,-687.404 464.5,-706.404 589.5,-706.404 589.5,-687.404 464.5,-687.404"/>
<text text-anchor="middle" x="527" y="-694.404" font-family="Helvetica,sans-Serif" font-size="10.00">Voxel::Ptr&lt; IBaseFilter &gt;</text>
</a>
</g>
</g>
<!-- Node1&#45;&gt;Node26 -->
<g id="edge25" class="edge"><title>Node1&#45;&gt;Node26</title>
<path fill="none" stroke="orange" stroke-dasharray="5,2" d="M188.751,-831.869C192.726,-799.959 205.513,-738.304 246,-709.904 279.913,-686.116 392.557,-688.218 464.214,-692.296"/>
<polygon fill="orange" stroke="orange" points="185.234,-831.848 187.65,-842.163 192.194,-832.592 185.234,-831.848"/>
<text text-anchor="middle" x="331" y="-712.904" font-family="Helvetica,sans-Serif" font-size="10.00"> &lt; IBaseFilter &gt;</text>
</g>
<!-- Node27 -->
<g id="node27" class="node"><title>Node27</title>
<g id="a_node27"><a xlink:href="a00113.xhtml" target="_top" xlink:title="Voxel::Ptr\&lt; UVCXU \&gt;">
<polygon fill="none" stroke="black" points="470,-649.404 470,-668.404 584,-668.404 584,-649.404 470,-649.404"/>
<text text-anchor="middle" x="527" y="-656.404" font-family="Helvetica,sans-Serif" font-size="10.00">Voxel::Ptr&lt; UVCXU &gt;</text>
</a>
</g>
</g>
<!-- Node1&#45;&gt;Node27 -->
<g id="edge26" class="edge"><title>Node1&#45;&gt;Node27</title>
<path fill="none" stroke="orange" stroke-dasharray="5,2" d="M186.939,-831.942C188.025,-794.229 196.341,-712.896 246,-674.904 279.837,-649.017 398.257,-651.046 469.807,-654.921"/>
<polygon fill="orange" stroke="orange" points="183.437,-832.101 186.797,-842.149 190.436,-832.199 183.437,-832.101"/>
<text text-anchor="middle" x="331" y="-677.904" font-family="Helvetica,sans-Serif" font-size="10.00"> &lt; UVCXU &gt;</text>
</g>
<!-- Node28 -->
<g id="node28" class="node"><title>Node28</title>
<g id="a_node28"><a xlink:href="a00113.xhtml" target="_top" xlink:title="Voxel::Ptr\&lt; FrameGenerator \&gt;">
<polygon fill="none" stroke="black" points="452.5,-611.404 452.5,-630.404 601.5,-630.404 601.5,-611.404 452.5,-611.404"/>
<text text-anchor="middle" x="527" y="-618.404" font-family="Helvetica,sans-Serif" font-size="10.00">Voxel::Ptr&lt; FrameGenerator &gt;</text>
</a>
</g>
</g>
<!-- Node1&#45;&gt;Node28 -->
<g id="edge27" class="edge"><title>Node1&#45;&gt;Node28</title>
<path fill="none" stroke="orange" stroke-dasharray="5,2" d="M189.521,-832.162C196.104,-784.013 215.444,-662.675 246,-637.904 276.549,-613.14 379.989,-612.855 452.194,-616.02"/>
<polygon fill="orange" stroke="orange" points="186.029,-831.871 188.185,-842.244 192.969,-832.79 186.029,-831.871"/>
<text text-anchor="middle" x="331" y="-640.904" font-family="Helvetica,sans-Serif" font-size="10.00"> &lt; FrameGenerator &gt;</text>
</g>
<!-- Node29 -->
<g id="node29" class="node"><title>Node29</title>
<g id="a_node29"><a xlink:href="a00113.xhtml" target="_top" xlink:title="Voxel::Ptr\&lt; pcl::visualization\l::PointCloudColorHandlerGenericField\l\&lt; pcl::PointXYZI \&gt; \&gt;">
<polygon fill="none" stroke="black" points="436,-551.404 436,-592.404 618,-592.404 618,-551.404 436,-551.404"/>
<text text-anchor="start" x="444" y="-580.404" font-family="Helvetica,sans-Serif" font-size="10.00">Voxel::Ptr&lt; pcl::visualization</text>
<text text-anchor="start" x="444" y="-569.404" font-family="Helvetica,sans-Serif" font-size="10.00">::PointCloudColorHandlerGenericField</text>
<text text-anchor="middle" x="527" y="-558.404" font-family="Helvetica,sans-Serif" font-size="10.00">&lt; pcl::PointXYZI &gt; &gt;</text>
</a>
</g>
</g>
<!-- Node1&#45;&gt;Node29 -->
<g id="edge28" class="edge"><title>Node1&#45;&gt;Node29</title>
<path fill="none" stroke="orange" stroke-dasharray="5,2" d="M188.186,-832.103C192.069,-774.748 206.504,-610.507 246,-577.904 274.076,-554.729 365.116,-556.614 435.849,-562.171"/>
<polygon fill="orange" stroke="orange" points="184.676,-832.154 187.529,-842.357 191.661,-832.601 184.676,-832.154"/>
<text text-anchor="start" x="258.5" y="-602.904" font-family="Helvetica,sans-Serif" font-size="10.00"> &lt; pcl::visualization</text>
<text text-anchor="start" x="258.5" y="-591.904" font-family="Helvetica,sans-Serif" font-size="10.00">::PointCloudColorHandlerGeneric</text>
<text text-anchor="middle" x="331" y="-580.904" font-family="Helvetica,sans-Serif" font-size="10.00">Field&lt; pcl::PointXYZI &gt; &gt;</text>
</g>
<!-- Node30 -->
<g id="node30" class="node"><title>Node30</title>
<g id="a_node30"><a xlink:href="a00113.xhtml" target="_top" xlink:title="Voxel::Ptr\&lt; SP_DEVICE\l_INTERFACE_DETAIL_DATA \&gt;">
<polygon fill="none" stroke="black" points="446.5,-502.904 446.5,-532.904 607.5,-532.904 607.5,-502.904 446.5,-502.904"/>
<text text-anchor="start" x="454.5" y="-520.904" font-family="Helvetica,sans-Serif" font-size="10.00">Voxel::Ptr&lt; SP_DEVICE</text>
<text text-anchor="middle" x="527" y="-509.904" font-family="Helvetica,sans-Serif" font-size="10.00">_INTERFACE_DETAIL_DATA &gt;</text>
</a>
</g>
</g>
<!-- Node1&#45;&gt;Node30 -->
<g id="edge29" class="edge"><title>Node1&#45;&gt;Node30</title>
<path fill="none" stroke="orange" stroke-dasharray="5,2" d="M187.597,-831.906C189.945,-768.317 200.785,-572.618 246,-532.904 307.447,-478.934 408.831,-489.339 471.271,-502.871"/>
<polygon fill="orange" stroke="orange" points="184.09,-832.063 187.251,-842.175 191.086,-832.299 184.09,-832.063"/>
<text text-anchor="start" x="264.5" y="-546.904" font-family="Helvetica,sans-Serif" font-size="10.00"> &lt; SP_DEVICE_INTERFACE</text>
<text text-anchor="middle" x="331" y="-535.904" font-family="Helvetica,sans-Serif" font-size="10.00">_DETAIL_DATA &gt;</text>
</g>
<!-- Node31 -->
<g id="node31" class="node"><title>Node31</title>
<g id="a_node31"><a xlink:href="a00113.xhtml" target="_top" xlink:title="Voxel::Ptr\&lt; Frame \&gt;">
<polygon fill="none" stroke="black" points="474,-464.404 474,-483.404 580,-483.404 580,-464.404 474,-464.404"/>
<text text-anchor="middle" x="527" y="-471.404" font-family="Helvetica,sans-Serif" font-size="10.00">Voxel::Ptr&lt; Frame &gt;</text>
</a>
</g>
</g>
<!-- Node1&#45;&gt;Node31 -->
<g id="edge30" class="edge"><title>Node1&#45;&gt;Node31</title>
<path fill="none" stroke="orange" stroke-dasharray="5,2" d="M186.938,-832.15C187.171,-761.733 192.015,-524.712 246,-477.904 278.829,-449.44 402.325,-458.776 473.867,-467.002"/>
<polygon fill="orange" stroke="orange" points="183.438,-832.299 186.934,-842.3 190.438,-832.301 183.438,-832.299"/>
<text text-anchor="middle" x="331" y="-480.904" font-family="Helvetica,sans-Serif" font-size="10.00"> &lt; Frame &gt;</text>
</g>
<!-- Node32 -->
<g id="node32" class="node"><title>Node32</title>
<g id="a_node32"><a xlink:href="a00113.xhtml" target="_top" xlink:title="Voxel::Ptr\&lt; Voxel::\lDownloader \&gt;">
<polygon fill="none" stroke="black" points="477,-414.904 477,-444.904 577,-444.904 577,-414.904 477,-414.904"/>
<text text-anchor="start" x="485" y="-432.904" font-family="Helvetica,sans-Serif" font-size="10.00">Voxel::Ptr&lt; Voxel::</text>
<text text-anchor="middle" x="527" y="-421.904" font-family="Helvetica,sans-Serif" font-size="10.00">Downloader &gt;</text>
</a>
</g>
</g>
<!-- Node1&#45;&gt;Node32 -->
<g id="edge31" class="edge"><title>Node1&#45;&gt;Node32</title>
<path fill="none" stroke="orange" stroke-dasharray="5,2" d="M186.708,-831.897C186.075,-757.252 188.106,-496.616 246,-443.904 308.442,-387.053 414.856,-400.831 476.959,-415.616"/>
<polygon fill="orange" stroke="orange" points="183.212,-832.259 186.824,-842.219 190.211,-832.181 183.212,-832.259"/>
<text text-anchor="middle" x="331" y="-446.904" font-family="Helvetica,sans-Serif" font-size="10.00"> &lt; Voxel::Downloader &gt;</text>
</g>
<!-- Node33 -->
<g id="node33" class="node"><title>Node33</title>
<g id="a_node33"><a xlink:href="a00113.xhtml" target="_top" xlink:title="Voxel::Ptr\&lt; Device \&gt;">
<polygon fill="none" stroke="black" points="472.5,-376.404 472.5,-395.404 581.5,-395.404 581.5,-376.404 472.5,-376.404"/>
<text text-anchor="middle" x="527" y="-383.404" font-family="Helvetica,sans-Serif" font-size="10.00">Voxel::Ptr&lt; Device &gt;</text>
</a>
</g>
</g>
<!-- Node1&#45;&gt;Node33 -->
<g id="edge32" class="edge"><title>Node1&#45;&gt;Node33</title>
<path fill="none" stroke="orange" stroke-dasharray="5,2" d="M188.015,-831.987C192.542,-747.029 212.173,-417.918 246,-387.904 278.272,-359.271 400.401,-369.383 472.266,-378.276"/>
<polygon fill="orange" stroke="orange" points="184.513,-831.933 187.486,-842.102 191.503,-832.298 184.513,-831.933"/>
<text text-anchor="middle" x="331" y="-390.904" font-family="Helvetica,sans-Serif" font-size="10.00"> &lt; Device &gt;</text>
</g>
<!-- Node34 -->
<g id="node34" class="node"><title>Node34</title>
<g id="a_node34"><a xlink:href="a00113.xhtml" target="_top" xlink:title="Voxel::Ptr\&lt; Voxel::\lTI::ToFFrameGenerator \&gt;">
<polygon fill="none" stroke="black" points="463,-326.904 463,-356.904 591,-356.904 591,-326.904 463,-326.904"/>
<text text-anchor="start" x="471" y="-344.904" font-family="Helvetica,sans-Serif" font-size="10.00">Voxel::Ptr&lt; Voxel::</text>
<text text-anchor="middle" x="527" y="-333.904" font-family="Helvetica,sans-Serif" font-size="10.00">TI::ToFFrameGenerator &gt;</text>
</a>
</g>
</g>
<!-- Node1&#45;&gt;Node34 -->
<g id="edge33" class="edge"><title>Node1&#45;&gt;Node34</title>
<path fill="none" stroke="orange" stroke-dasharray="5,2" d="M187.868,-832.038C191.932,-743.534 210.39,-388.047 246,-354.904 276.279,-326.724 389.818,-330.238 462.685,-335.779"/>
<polygon fill="orange" stroke="orange" points="184.36,-832.144 187.408,-842.291 191.353,-832.458 184.36,-832.144"/>
<text text-anchor="middle" x="331" y="-357.904" font-family="Helvetica,sans-Serif" font-size="10.00"> &lt; Voxel::TI::ToFFrameGenerator &gt;</text>
</g>
<!-- Node35 -->
<g id="node35" class="node"><title>Node35</title>
<g id="a_node35"><a xlink:href="a00113.xhtml" target="_top" xlink:title="Voxel::Ptr\&lt; Voxel::\lTI::ToFDepthFrameGenerator \&gt;">
<polygon fill="none" stroke="black" points="449.5,-277.904 449.5,-307.904 604.5,-307.904 604.5,-277.904 449.5,-277.904"/>
<text text-anchor="start" x="457.5" y="-295.904" font-family="Helvetica,sans-Serif" font-size="10.00">Voxel::Ptr&lt; Voxel::</text>
<text text-anchor="middle" x="527" y="-284.904" font-family="Helvetica,sans-Serif" font-size="10.00">TI::ToFDepthFrameGenerator &gt;</text>
</a>
</g>
</g>
<!-- Node1&#45;&gt;Node35 -->
<g id="edge34" class="edge"><title>Node1&#45;&gt;Node35</title>
<path fill="none" stroke="orange" stroke-dasharray="5,2" d="M187.647,-832.221C190.91,-738.87 206.964,-343.744 246,-306.904 306.884,-249.446 412.352,-262.878 475.01,-277.878"/>
<polygon fill="orange" stroke="orange" points="184.147,-832.165 187.305,-842.279 191.143,-832.404 184.147,-832.165"/>
<text text-anchor="start" x="266" y="-320.904" font-family="Helvetica,sans-Serif" font-size="10.00"> &lt; Voxel::TI::ToFDepthFrame</text>
<text text-anchor="middle" x="331" y="-309.904" font-family="Helvetica,sans-Serif" font-size="10.00">Generator &gt;</text>
</g>
<!-- Node36 -->
<g id="node36" class="node"><title>Node36</title>
<g id="a_node36"><a xlink:href="a00113.xhtml" target="_top" xlink:title="Voxel::Ptr\&lt; Thread \&gt;">
<polygon fill="none" stroke="black" points="473,-239.404 473,-258.404 581,-258.404 581,-239.404 473,-239.404"/>
<text text-anchor="middle" x="527" y="-246.404" font-family="Helvetica,sans-Serif" font-size="10.00">Voxel::Ptr&lt; Thread &gt;</text>
</a>
</g>
</g>
<!-- Node1&#45;&gt;Node36 -->
<g id="edge35" class="edge"><title>Node1&#45;&gt;Node36</title>
<path fill="none" stroke="orange" stroke-dasharray="5,2" d="M187.403,-832.039C189.623,-732.373 201.921,-290.018 246,-249.904 277.998,-220.785 400.867,-231.676 472.77,-241.017"/>
<polygon fill="orange" stroke="orange" points="183.9,-832.147 187.185,-842.219 190.898,-832.296 183.9,-832.147"/>
<text text-anchor="middle" x="331" y="-252.904" font-family="Helvetica,sans-Serif" font-size="10.00"> &lt; Thread &gt;</text>
</g>
<!-- Node37 -->
<g id="node37" class="node"><title>Node37</title>
<g id="a_node37"><a xlink:href="a00113.xhtml" target="_top" xlink:title="Voxel::Ptr\&lt; pcl::Grabber \&gt;">
<polygon fill="none" stroke="black" points="461.5,-201.404 461.5,-220.404 592.5,-220.404 592.5,-201.404 461.5,-201.404"/>
<text text-anchor="middle" x="527" y="-208.404" font-family="Helvetica,sans-Serif" font-size="10.00">Voxel::Ptr&lt; pcl::Grabber &gt;</text>
</a>
</g>
</g>
<!-- Node1&#45;&gt;Node37 -->
<g id="edge36" class="edge"><title>Node1&#45;&gt;Node37</title>
<path fill="none" stroke="orange" stroke-dasharray="5,2" d="M187.312,-831.947C189.123,-728.864 199.871,-259.86 246,-216.904 276.068,-188.905 388.463,-195.259 461.383,-202.811"/>
<polygon fill="orange" stroke="orange" points="183.809,-832.132 187.141,-842.189 190.808,-832.249 183.809,-832.132"/>
<text text-anchor="middle" x="331" y="-219.904" font-family="Helvetica,sans-Serif" font-size="10.00"> &lt; pcl::Grabber &gt;</text>
</g>
<!-- Node38 -->
<g id="node38" class="node"><title>Node38</title>
<g id="a_node38"><a xlink:href="a00113.xhtml" target="_top" xlink:title="Voxel::Ptr\&lt; pcl::visualization\l::PCLVisualizer \&gt;">
<polygon fill="none" stroke="black" points="456,-151.904 456,-181.904 598,-181.904 598,-151.904 456,-151.904"/>
<text text-anchor="start" x="464" y="-169.904" font-family="Helvetica,sans-Serif" font-size="10.00">Voxel::Ptr&lt; pcl::visualization</text>
<text text-anchor="middle" x="527" y="-158.904" font-family="Helvetica,sans-Serif" font-size="10.00">::PCLVisualizer &gt;</text>
</a>
</g>
</g>
<!-- Node1&#45;&gt;Node38 -->
<g id="edge37" class="edge"><title>Node1&#45;&gt;Node38</title>
<path fill="none" stroke="orange" stroke-dasharray="5,2" d="M187.172,-832.194C188.303,-725.19 196.278,-217.163 246,-170.904 275.321,-143.626 382.868,-149.801 455.812,-157.669"/>
<polygon fill="orange" stroke="orange" points="183.672,-832.218 187.074,-842.252 190.671,-832.286 183.672,-832.218"/>
<text text-anchor="start" x="288.5" y="-184.904" font-family="Helvetica,sans-Serif" font-size="10.00"> &lt; pcl::visualization</text>
<text text-anchor="middle" x="331" y="-173.904" font-family="Helvetica,sans-Serif" font-size="10.00">::PCLVisualizer &gt;</text>
</g>
<!-- Node39 -->
<g id="node39" class="node"><title>Node39</title>
<g id="a_node39"><a xlink:href="a00113.xhtml" target="_top" xlink:title="Voxel::Ptr\&lt; Voxel::\lPCLViewer \&gt;">
<polygon fill="none" stroke="black" points="477,-102.904 477,-132.904 577,-132.904 577,-102.904 477,-102.904"/>
<text text-anchor="start" x="485" y="-120.904" font-family="Helvetica,sans-Serif" font-size="10.00">Voxel::Ptr&lt; Voxel::</text>
<text text-anchor="middle" x="527" y="-109.904" font-family="Helvetica,sans-Serif" font-size="10.00">PCLViewer &gt;</text>
</a>
</g>
</g>
<!-- Node1&#45;&gt;Node39 -->
<g id="edge38" class="edge"><title>Node1&#45;&gt;Node39</title>
<path fill="none" stroke="orange" stroke-dasharray="5,2" d="M187.128,-832.296C188.037,-722.501 195.074,-187.094 246,-136.904 306.382,-77.396 414.035,-90.0043 476.806,-104.187"/>
<polygon fill="orange" stroke="orange" points="183.628,-832.288 187.053,-842.314 190.628,-832.34 183.628,-832.288"/>
<text text-anchor="middle" x="331" y="-139.904" font-family="Helvetica,sans-Serif" font-size="10.00"> &lt; Voxel::PCLViewer &gt;</text>
</g>
<!-- Node40 -->
<g id="node40" class="node"><title>Node40</title>
<g id="a_node40"><a xlink:href="a00113.xhtml" target="_top" xlink:title="Voxel::Ptr\&lt; FrameStreamWriter \&gt;">
<polygon fill="none" stroke="black" points="445,-64.4045 445,-83.4045 609,-83.4045 609,-64.4045 445,-64.4045"/>
<text text-anchor="middle" x="527" y="-71.4045" font-family="Helvetica,sans-Serif" font-size="10.00">Voxel::Ptr&lt; FrameStreamWriter &gt;</text>
</a>
</g>
</g>
<!-- Node1&#45;&gt;Node40 -->
<g id="edge39" class="edge"><title>Node1&#45;&gt;Node40</title>
<path fill="none" stroke="orange" stroke-dasharray="5,2" d="M186.955,-832.101C186.894,-716.397 189.397,-131.113 246,-77.9045 274.913,-50.7247 380.814,-56.5831 453.756,-64.3959"/>
<polygon fill="orange" stroke="orange" points="183.456,-832.324 186.969,-842.32 190.456,-832.315 183.456,-832.324"/>
<text text-anchor="middle" x="331" y="-80.9045" font-family="Helvetica,sans-Serif" font-size="10.00"> &lt; FrameStreamWriter &gt;</text>
</g>
<!-- Node41 -->
<g id="node41" class="node"><title>Node41</title>
<g id="a_node41"><a xlink:href="a00113.xhtml" target="_top" xlink:title="Voxel::Ptr\&lt; Voxel::\lFrameStreamWriter \&gt;">
<polygon fill="none" stroke="black" points="471.5,-14.9045 471.5,-44.9045 582.5,-44.9045 582.5,-14.9045 471.5,-14.9045"/>
<text text-anchor="start" x="479.5" y="-32.9045" font-family="Helvetica,sans-Serif" font-size="10.00">Voxel::Ptr&lt; Voxel::</text>
<text text-anchor="middle" x="527" y="-21.9045" font-family="Helvetica,sans-Serif" font-size="10.00">FrameStreamWriter &gt;</text>
</a>
</g>
</g>
<!-- Node1&#45;&gt;Node41 -->
<g id="edge40" class="edge"><title>Node1&#45;&gt;Node41</title>
<path fill="none" stroke="orange" stroke-dasharray="5,2" d="M186.912,-831.976C186.581,-712.991 187.725,-99.6602 246,-42.9045 306.659,16.1737 414.213,0.948174 476.891,-14.8671"/>
<polygon fill="orange" stroke="orange" points="183.412,-832.191 186.947,-842.179 190.412,-832.166 183.412,-832.191"/>
<text text-anchor="middle" x="331" y="-45.9045" font-family="Helvetica,sans-Serif" font-size="10.00"> &lt; Voxel::FrameStreamWriter &gt;</text>
</g>
<!-- Node2 -->
<g id="node2" class="node"><title>Node2</title>
<polygon fill="none" stroke="#bfbfbf" points="0,-842.404 0,-861.404 106,-861.404 106,-842.404 0,-842.404"/>
<text text-anchor="middle" x="53" y="-849.404" font-family="Helvetica,sans-Serif" font-size="10.00">std::shared_ptr&lt; T &gt;</text>
</g>
<!-- Node2&#45;&gt;Node1 -->
<g id="edge1" class="edge"><title>Node2&#45;&gt;Node1</title>
<path fill="none" stroke="midnightblue" d="M116.266,-851.904C125.654,-851.904 135.13,-851.904 143.921,-851.904"/>
<polygon fill="midnightblue" stroke="midnightblue" points="116.151,-848.405 106.151,-851.904 116.151,-855.405 116.151,-848.405"/>
</g>
<!-- Node16 -->
<g id="node16" class="node"><title>Node16</title>
<g id="a_node16"><a xlink:href="a00066.xhtml" target="_top" xlink:title="Voxel::FrameBuffer\l\&lt; BufferType \&gt;">
<polygon fill="none" stroke="black" points="658.5,-1140.9 658.5,-1170.9 759.5,-1170.9 759.5,-1140.9 658.5,-1140.9"/>
<text text-anchor="start" x="666.5" y="-1158.9" font-family="Helvetica,sans-Serif" font-size="10.00">Voxel::FrameBuffer</text>
<text text-anchor="middle" x="709" y="-1147.9" font-family="Helvetica,sans-Serif" font-size="10.00">&lt; BufferType &gt;</text>
</a>
</g>
</g>
<!-- Node15&#45;&gt;Node16 -->
<g id="edge15" class="edge"><title>Node15&#45;&gt;Node16</title>
<path fill="none" stroke="midnightblue" d="M600.254,-1155.9C619.724,-1155.9 640.347,-1155.9 658.282,-1155.9"/>
<polygon fill="midnightblue" stroke="midnightblue" points="600.198,-1152.4 590.198,-1155.9 600.198,-1159.4 600.198,-1152.4"/>
</g>
</g>
</svg>
        <g id="navigator" transform="translate(0 0)" fill="#404254">
                <rect fill="#f2f5e9" fill-opacity="0.5" stroke="#606060" stroke-width=".5" x="0" y="0" width="60" height="60"/>
                <use id="zoomplus" xlink:href="#zoomPlus" x="17" y="9" onmousedown="handleZoom(evt,'in')"/>
                <use id="zoomminus" xlink:href="#zoomMin" x="42" y="9" onmousedown="handleZoom(evt,'out')"/>
                <use id="reset" xlink:href="#resetDef" x="30" y="36" onmousedown="handleReset()"/>
                <g id="arrowUp" xlink:href="#dirArrow" transform="translate(30 24)" onmousedown="handlePan(0,-1)">
                  <use xlink:href="#rim" fill="#404040">
                        <set attributeName="fill" to="#808080" begin="arrowUp.mouseover" end="arrowUp.mouseout"/>
                  </use>
                  <path fill="none" stroke="white" stroke-width="1.5" d="M0,-3.0v7 M-2.5,-0.5L0,-3.0L2.5,-0.5"/>
                </g>
                <g id="arrowRight" xlink:href="#dirArrow" transform="rotate(90) translate(36 -43)" onmousedown="handlePan(1,0)">
                  <use xlink:href="#rim" fill="#404040">
                        <set attributeName="fill" to="#808080" begin="arrowRight.mouseover" end="arrowRight.mouseout"/>
                  </use>
                  <path fill="none" stroke="white" stroke-width="1.5" d="M0,-3.0v7 M-2.5,-0.5L0,-3.0L2.5,-0.5"/>
                </g>
                <g id="arrowDown" xlink:href="#dirArrow" transform="rotate(180) translate(-30 -48)" onmousedown="handlePan(0,1)">
                  <use xlink:href="#rim" fill="#404040">
                        <set attributeName="fill" to="#808080" begin="arrowDown.mouseover" end="arrowDown.mouseout"/>
                  </use>
                  <path fill="none" stroke="white" stroke-width="1.5" d="M0,-3.0v7 M-2.5,-0.5L0,-3.0L2.5,-0.5"/>
                </g>
                <g id="arrowLeft" xlink:href="#dirArrow" transform="rotate(270) translate(-36 17)" onmousedown="handlePan(-1,0)">
                  <use xlink:href="#rim" fill="#404040">
                        <set attributeName="fill" to="#808080" begin="arrowLeft.mouseover" end="arrowLeft.mouseout"/>
                  </use>
                  <path fill="none" stroke="white" stroke-width="1.5" d="M0,-3.0v7 M-2.5,-0.5L0,-3.0L2.5,-0.5"/>
                </g>
        </g>
        <svg viewBox="0 0 15 15" width="100%" height="30px" preserveAspectRatio="xMaxYMin meet">
         <g id="arrow_out" transform="scale(0.3 0.3)">
          <a xlink:href="a00935_org.svg" target="_base">
           <rect id="button" ry="5" rx="5" y="6" x="6" height="38" width="38"
                fill="#f2f5e9" fill-opacity="0.5" stroke="#606060" stroke-width="1.0"/>
           <path id="arrow"
             d="M 11.500037,31.436501 C 11.940474,20.09759 22.043105,11.32322 32.158766,21.979434 L 37.068811,17.246167 C 37.068811,17.246167 37.088388,32 37.088388,32 L 22.160133,31.978069 C 22.160133,31.978069 26.997745,27.140456 26.997745,27.140456 C 18.528582,18.264221 13.291696,25.230495 11.500037,31.436501 z"
             style="fill:#404040;"/>
          </a>
         </g>
        </svg>
</svg>
