<?xml version="1.0" encoding="UTF-8" standalone="no"?>
<!DOCTYPE svg PUBLIC "-//W3C//DTD SVG 1.1//EN"
 "http://www.w3.org/Graphics/SVG/1.1/DTD/svg11.dtd">
<!-- Generated by graphviz version 2.36.0 (20140111.2315)
 -->
<!-- Title: Voxel::USBIO::USBIOPrivate Pages: 1 -->
<!--zoomable 314 -->
<svg id="main" version="1.1" xmlns="http://www.w3.org/2000/svg" xmlns:xlink="http://www.w3.org/1999/xlink" xml:space="preserve" onload="init(evt)">
<style type="text/css"><![CDATA[
.edge:hover path { stroke: red; }
.edge:hover polygon { stroke: red; fill: red; }
]]></style>
<script type="text/javascript"><![CDATA[
var edges = document.getElementsByTagName('g');
if (edges && edges.length) {
  for (var i=0;i<edges.length;i++) {
    if (edges[i].id.substr(0,4)=='edge') {
      edges[i].setAttribute('class','edge');
    }
  }
}
]]></script>
        <defs>
                <circle id="rim" cx="0" cy="0" r="7"/>
                <circle id="rim2" cx="0" cy="0" r="3.5"/>
                <g id="zoomPlus">
                        <use xlink:href="#rim" fill="#404040">
                                <set attributeName="fill" to="#808080" begin="zoomplus.mouseover" end="zoomplus.mouseout"/>
                        </use>
                        <path d="M-4,0h8M0,-4v8" fill="none" stroke="white" stroke-width="1.5" pointer-events="none"/>
                </g>
                <g id="zoomMin">
                        <use xlink:href="#rim" fill="#404040">
                                <set attributeName="fill" to="#808080" begin="zoomminus.mouseover" end="zoomminus.mouseout"/>
                        </use>
                        <path d="M-4,0h8" fill="none" stroke="white" stroke-width="1.5" pointer-events="none"/>
                </g>
                <g id="dirArrow">
                        <path fill="none" stroke="white" stroke-width="1.5" d="M0,-3.0v7 M-2.5,-0.5L0,-3.0L2.5,-0.5"/>
                </g>
               <g id="resetDef">
                       <use xlink:href="#rim2" fill="#404040">
                               <set attributeName="fill" to="#808080" begin="reset.mouseover" end="reset.mouseout"/>
                       </use>
               </g>
        </defs>

<script type="text/javascript">
var viewWidth = 528;
var viewHeight = 314;
var sectionId = 'dynsection-0';
</script>
<script xlink:href="svgpan.js"/>
<svg id="graph" class="graph">
<g id="viewport">
<title>Voxel::USBIO::USBIOPrivate</title>
<!-- Node1 -->
<g id="node1" class="node"><title>Node1</title>
<polygon fill="#bfbfbf" stroke="black" points="246.5,-0.5 246.5,-19.5 393.5,-19.5 393.5,-0.5 246.5,-0.5"/>
<text text-anchor="middle" x="320" y="-7.5" font-family="Helvetica,sans-Serif" font-size="10.00">Voxel::USBIO::USBIOPrivate</text>
</g>
<!-- Node2 -->
<g id="node2" class="node"><title>Node2</title>
<polygon fill="none" stroke="#bfbfbf" points="0,-68.5 0,-87.5 68,-87.5 68,-68.5 0,-68.5"/>
<text text-anchor="middle" x="34" y="-75.5" font-family="Helvetica,sans-Serif" font-size="10.00">USBHandle</text>
</g>
<!-- Node2&#45;&gt;Node1 -->
<g id="edge1" class="edge"><title>Node2&#45;&gt;Node1</title>
<path fill="none" stroke="#9a32cd" stroke-dasharray="5,2" d="M66.0564,-64.9802C89.7864,-56.4556 123.055,-45.2804 153,-38 185.248,-30.1598 221.565,-23.9803 252.076,-19.5231"/>
<polygon fill="#9a32cd" stroke="#9a32cd" points="64.7098,-61.7456 56.5079,-68.4523 67.1019,-68.3242 64.7098,-61.7456"/>
<text text-anchor="middle" x="169" y="-41.5" font-family="Helvetica,sans-Serif" font-size="10.00"> handle</text>
</g>
<!-- Node3 -->
<g id="node3" class="node"><title>Node3</title>
<polygon fill="none" stroke="#bfbfbf" points="86.5,-68.5 86.5,-87.5 185.5,-87.5 185.5,-68.5 86.5,-68.5"/>
<text text-anchor="middle" x="136" y="-75.5" font-family="Helvetica,sans-Serif" font-size="10.00">USBDeviceHandle</text>
</g>
<!-- Node3&#45;&gt;Node1 -->
<g id="edge2" class="edge"><title>Node3&#45;&gt;Node1</title>
<path fill="none" stroke="#9a32cd" stroke-dasharray="5,2" d="M159.864,-63.6016C175.247,-55.3744 195.879,-45.091 215,-38 235.56,-30.3754 259.152,-24.0988 278.759,-19.5223"/>
<polygon fill="#9a32cd" stroke="#9a32cd" points="158.135,-60.5574 151.024,-68.4115 161.481,-66.7061 158.135,-60.5574"/>
<text text-anchor="middle" x="246.5" y="-41.5" font-family="Helvetica,sans-Serif" font-size="10.00"> deviceHandle</text>
</g>
<!-- Node4 -->
<g id="node4" class="node"><title>Node4</title>
<g id="a_node4"><a xlink:href="a00172.xhtml" target="_top" xlink:title="Voxel::USBSystem">
<polygon fill="none" stroke="black" points="204,-68.5 204,-87.5 306,-87.5 306,-68.5 204,-68.5"/>
<text text-anchor="middle" x="255" y="-75.5" font-family="Helvetica,sans-Serif" font-size="10.00">Voxel::USBSystem</text>
</a>
</g>
</g>
<!-- Node4&#45;&gt;Node1 -->
<g id="edge3" class="edge"><title>Node4&#45;&gt;Node1</title>
<path fill="none" stroke="#9a32cd" stroke-dasharray="5,2" d="M270.711,-61.0474C283.451,-48.1111 300.937,-30.3567 311.293,-19.8411"/>
<polygon fill="#9a32cd" stroke="#9a32cd" points="268.021,-58.7909 263.498,-68.3717 273.008,-63.7027 268.021,-58.7909"/>
<text text-anchor="middle" x="303.5" y="-41.5" font-family="Helvetica,sans-Serif" font-size="10.00"> sys</text>
</g>
<!-- Node5 -->
<g id="node5" class="node"><title>Node5</title>
<g id="a_node5"><a xlink:href="a00113.xhtml" target="_top" xlink:title="Voxel::Ptr\&lt; Voxel::\lUSBSystemPrivate \&gt;">
<polygon fill="none" stroke="black" points="144.5,-137 144.5,-167 255.5,-167 255.5,-137 144.5,-137"/>
<text text-anchor="start" x="152.5" y="-155" font-family="Helvetica,sans-Serif" font-size="10.00">Voxel::Ptr&lt; Voxel::</text>
<text text-anchor="middle" x="200" y="-144" font-family="Helvetica,sans-Serif" font-size="10.00">USBSystemPrivate &gt;</text>
</a>
</g>
</g>
<!-- Node5&#45;&gt;Node4 -->
<g id="edge4" class="edge"><title>Node5&#45;&gt;Node4</title>
<path fill="none" stroke="#9a32cd" stroke-dasharray="5,2" d="M217.062,-128.665C227.623,-114.839 240.596,-97.8568 248.309,-87.7589"/>
<polygon fill="#9a32cd" stroke="#9a32cd" points="214.155,-126.704 210.866,-136.775 219.718,-130.953 214.155,-126.704"/>
<text text-anchor="middle" x="262.5" y="-109.5" font-family="Helvetica,sans-Serif" font-size="10.00"> _usbPrivate</text>
</g>
<!-- Node6 -->
<g id="node6" class="node"><title>Node6</title>
<polygon fill="none" stroke="#bfbfbf" points="108.5,-217 108.5,-247 225.5,-247 225.5,-217 108.5,-217"/>
<text text-anchor="start" x="116.5" y="-235" font-family="Helvetica,sans-Serif" font-size="10.00">std::shared_ptr&lt; Voxel</text>
<text text-anchor="middle" x="167" y="-224" font-family="Helvetica,sans-Serif" font-size="10.00">::USBSystemPrivate &gt;</text>
</g>
<!-- Node6&#45;&gt;Node5 -->
<g id="edge5" class="edge"><title>Node6&#45;&gt;Node5</title>
<path fill="none" stroke="midnightblue" d="M173.304,-207.293C175.444,-200.318 178.05,-192.75 181,-186 183.806,-179.579 187.546,-172.817 190.965,-167.098"/>
<polygon fill="midnightblue" stroke="midnightblue" points="169.934,-206.347 170.517,-216.926 176.658,-208.292 169.934,-206.347"/>
</g>
<!-- Node7 -->
<g id="node7" class="node"><title>Node7</title>
<g id="a_node7"><a xlink:href="a00113.xhtml" target="_top" xlink:title="Voxel::Ptr\&lt; T \&gt;">
<polygon fill="none" stroke="black" points="252,-222.5 252,-241.5 336,-241.5 336,-222.5 252,-222.5"/>
<text text-anchor="middle" x="294" y="-229.5" font-family="Helvetica,sans-Serif" font-size="10.00">Voxel::Ptr&lt; T &gt;</text>
</a>
</g>
</g>
<!-- Node7&#45;&gt;Node5 -->
<g id="edge6" class="edge"><title>Node7&#45;&gt;Node5</title>
<path fill="none" stroke="orange" stroke-dasharray="5,2" d="M253.536,-219.636C228.546,-212.211 200.577,-202.995 197,-198 190.709,-189.215 192.072,-176.825 194.666,-167.269"/>
<polygon fill="orange" stroke="orange" points="252.686,-223.034 263.267,-222.484 254.653,-216.316 252.686,-223.034"/>
<text text-anchor="middle" x="266" y="-189.5" font-family="Helvetica,sans-Serif" font-size="10.00"> &lt; Voxel::USBSystemPrivate &gt;</text>
</g>
<!-- Node10 -->
<g id="node10" class="node"><title>Node10</title>
<g id="a_node10"><a xlink:href="a00113.xhtml" target="_top" xlink:title="Voxel::Ptr\&lt; Device \&gt;">
<polygon fill="none" stroke="black" points="306.5,-142.5 306.5,-161.5 415.5,-161.5 415.5,-142.5 306.5,-142.5"/>
<text text-anchor="middle" x="361" y="-149.5" font-family="Helvetica,sans-Serif" font-size="10.00">Voxel::Ptr&lt; Device &gt;</text>
</a>
</g>
</g>
<!-- Node7&#45;&gt;Node10 -->
<g id="edge11" class="edge"><title>Node7&#45;&gt;Node10</title>
<path fill="none" stroke="orange" stroke-dasharray="5,2" d="M317.698,-216.854C325.164,-211.601 333.015,-205.158 339,-198 348.26,-186.925 354.761,-171.292 358.188,-161.669"/>
<polygon fill="orange" stroke="orange" points="315.655,-214.009 309.245,-222.445 319.517,-219.847 315.655,-214.009"/>
<text text-anchor="middle" x="373" y="-189.5" font-family="Helvetica,sans-Serif" font-size="10.00"> &lt; Device &gt;</text>
</g>
<!-- Node8 -->
<g id="node8" class="node"><title>Node8</title>
<polygon fill="none" stroke="#bfbfbf" points="241,-286.5 241,-305.5 347,-305.5 347,-286.5 241,-286.5"/>
<text text-anchor="middle" x="294" y="-293.5" font-family="Helvetica,sans-Serif" font-size="10.00">std::shared_ptr&lt; T &gt;</text>
</g>
<!-- Node8&#45;&gt;Node7 -->
<g id="edge7" class="edge"><title>Node8&#45;&gt;Node7</title>
<path fill="none" stroke="midnightblue" d="M294,-276.037C294,-264.53 294,-250.403 294,-241.548"/>
<polygon fill="midnightblue" stroke="midnightblue" points="290.5,-276.379 294,-286.379 297.5,-276.379 290.5,-276.379"/>
</g>
<!-- Node9 -->
<g id="node9" class="node"><title>Node9</title>
<g id="a_node9"><a xlink:href="a00398.xhtml" target="_top" xlink:title="bool">
<polygon fill="none" stroke="black" points="392.5,-68.5 392.5,-87.5 427.5,-87.5 427.5,-68.5 392.5,-68.5"/>
<text text-anchor="middle" x="410" y="-75.5" font-family="Helvetica,sans-Serif" font-size="10.00">bool</text>
</a>
</g>
</g>
<!-- Node9&#45;&gt;Node1 -->
<g id="edge8" class="edge"><title>Node9&#45;&gt;Node1</title>
<path fill="none" stroke="#9a32cd" stroke-dasharray="5,2" d="M390.166,-62.4551C372.286,-49.3431 346.593,-30.5016 331.769,-19.6305"/>
<polygon fill="#9a32cd" stroke="#9a32cd" points="388.1,-65.2804 398.234,-68.3717 392.24,-59.6356 388.1,-65.2804"/>
<text text-anchor="middle" x="398.5" y="-41.5" font-family="Helvetica,sans-Serif" font-size="10.00"> _initialized</text>
</g>
<!-- Node10&#45;&gt;Node1 -->
<g id="edge9" class="edge"><title>Node10&#45;&gt;Node1</title>
<path fill="none" stroke="#9a32cd" stroke-dasharray="5,2" d="M355.561,-132.427C346.611,-101.868 329.12,-42.1428 322.564,-19.7543"/>
<polygon fill="#9a32cd" stroke="#9a32cd" points="352.266,-133.629 358.435,-142.242 358.984,-131.662 352.266,-133.629"/>
<text text-anchor="middle" x="359" y="-75.5" font-family="Helvetica,sans-Serif" font-size="10.00"> device</text>
</g>
<!-- Node11 -->
<g id="node11" class="node"><title>Node11</title>
<polygon fill="none" stroke="#bfbfbf" points="362.5,-222.5 362.5,-241.5 493.5,-241.5 493.5,-222.5 362.5,-222.5"/>
<text text-anchor="middle" x="428" y="-229.5" font-family="Helvetica,sans-Serif" font-size="10.00">std::shared_ptr&lt; Device &gt;</text>
</g>
<!-- Node11&#45;&gt;Node10 -->
<g id="edge10" class="edge"><title>Node11&#45;&gt;Node10</title>
<path fill="none" stroke="midnightblue" d="M425.261,-212.244C423.263,-203.578 419.838,-193.557 414,-186 405.651,-175.192 392.681,-167.029 381.662,-161.525"/>
<polygon fill="midnightblue" stroke="midnightblue" points="421.844,-213.014 427.104,-222.21 428.728,-211.741 421.844,-213.014"/>
</g>
<!-- Node12 -->
<g id="node12" class="node"><title>Node12</title>
<polygon fill="none" stroke="#bfbfbf" points="454.5,-68.5 454.5,-87.5 489.5,-87.5 489.5,-68.5 454.5,-68.5"/>
<text text-anchor="middle" x="472" y="-75.5" font-family="Helvetica,sans-Serif" font-size="10.00">long</text>
</g>
<!-- Node12&#45;&gt;Node1 -->
<g id="edge12" class="edge"><title>Node12&#45;&gt;Node1</title>
<path fill="none" stroke="#9a32cd" stroke-dasharray="5,2" d="M457.011,-60.8251C448.84,-52.8873 438.138,-43.8075 427,-38 410.776,-29.5408 391.767,-23.6355 374.307,-19.5559"/>
<polygon fill="#9a32cd" stroke="#9a32cd" points="454.76,-63.529 464.261,-68.2188 459.759,-58.6281 454.76,-63.529"/>
<text text-anchor="middle" x="482.5" y="-41.5" font-family="Helvetica,sans-Serif" font-size="10.00"> lastTransferSize</text>
</g>
</g>
</svg>
        <g id="navigator" transform="translate(0 0)" fill="#404254">
                <rect fill="#f2f5e9" fill-opacity="0.5" stroke="#606060" stroke-width=".5" x="0" y="0" width="60" height="60"/>
                <use id="zoomplus" xlink:href="#zoomPlus" x="17" y="9" onmousedown="handleZoom(evt,'in')"/>
                <use id="zoomminus" xlink:href="#zoomMin" x="42" y="9" onmousedown="handleZoom(evt,'out')"/>
                <use id="reset" xlink:href="#resetDef" x="30" y="36" onmousedown="handleReset()"/>
                <g id="arrowUp" xlink:href="#dirArrow" transform="translate(30 24)" onmousedown="handlePan(0,-1)">
                  <use xlink:href="#rim" fill="#404040">
                        <set attributeName="fill" to="#808080" begin="arrowUp.mouseover" end="arrowUp.mouseout"/>
                  </use>
                  <path fill="none" stroke="white" stroke-width="1.5" d="M0,-3.0v7 M-2.5,-0.5L0,-3.0L2.5,-0.5"/>
                </g>
                <g id="arrowRight" xlink:href="#dirArrow" transform="rotate(90) translate(36 -43)" onmousedown="handlePan(1,0)">
                  <use xlink:href="#rim" fill="#404040">
                        <set attributeName="fill" to="#808080" begin="arrowRight.mouseover" end="arrowRight.mouseout"/>
                  </use>
                  <path fill="none" stroke="white" stroke-width="1.5" d="M0,-3.0v7 M-2.5,-0.5L0,-3.0L2.5,-0.5"/>
                </g>
                <g id="arrowDown" xlink:href="#dirArrow" transform="rotate(180) translate(-30 -48)" onmousedown="handlePan(0,1)">
                  <use xlink:href="#rim" fill="#404040">
                        <set attributeName="fill" to="#808080" begin="arrowDown.mouseover" end="arrowDown.mouseout"/>
                  </use>
                  <path fill="none" stroke="white" stroke-width="1.5" d="M0,-3.0v7 M-2.5,-0.5L0,-3.0L2.5,-0.5"/>
                </g>
                <g id="arrowLeft" xlink:href="#dirArrow" transform="rotate(270) translate(-36 17)" onmousedown="handlePan(-1,0)">
                  <use xlink:href="#rim" fill="#404040">
                        <set attributeName="fill" to="#808080" begin="arrowLeft.mouseover" end="arrowLeft.mouseout"/>
                  </use>
                  <path fill="none" stroke="white" stroke-width="1.5" d="M0,-3.0v7 M-2.5,-0.5L0,-3.0L2.5,-0.5"/>
                </g>
        </g>
        <svg viewBox="0 0 15 15" width="100%" height="30px" preserveAspectRatio="xMaxYMin meet">
         <g id="arrow_out" transform="scale(0.3 0.3)">
          <a xlink:href="a00974_org.svg" target="_base">
           <rect id="button" ry="5" rx="5" y="6" x="6" height="38" width="38"
                fill="#f2f5e9" fill-opacity="0.5" stroke="#606060" stroke-width="1.0"/>
           <path id="arrow"
             d="M 11.500037,31.436501 C 11.940474,20.09759 22.043105,11.32322 32.158766,21.979434 L 37.068811,17.246167 C 37.068811,17.246167 37.088388,32 37.088388,32 L 22.160133,31.978069 C 22.160133,31.978069 26.997745,27.140456 26.997745,27.140456 C 18.528582,18.264221 13.291696,25.230495 11.500037,31.436501 z"
             style="fill:#404040;"/>
          </a>
         </g>
        </svg>
</svg>
