<?xml version="1.0" encoding="UTF-8" standalone="no"?>
<!DOCTYPE svg PUBLIC "-//W3C//DTD SVG 1.1//EN"
 "http://www.w3.org/Graphics/SVG/1.1/DTD/svg11.dtd">
<!-- Generated by graphviz version 2.36.0 (20140111.2315)
 -->
<!-- Title: Voxel::FloatParameter Pages: 1 -->
<!--zoomable 253 -->
<svg id="main" version="1.1" xmlns="http://www.w3.org/2000/svg" xmlns:xlink="http://www.w3.org/1999/xlink" xml:space="preserve" onload="init(evt)">
<style type="text/css"><![CDATA[
.edge:hover path { stroke: red; }
.edge:hover polygon { stroke: red; fill: red; }
]]></style>
<script type="text/javascript"><![CDATA[
var edges = document.getElementsByTagName('g');
if (edges && edges.length) {
  for (var i=0;i<edges.length;i++) {
    if (edges[i].id.substr(0,4)=='edge') {
      edges[i].setAttribute('class','edge');
    }
  }
}
]]></script>
        <defs>
                <circle id="rim" cx="0" cy="0" r="7"/>
                <circle id="rim2" cx="0" cy="0" r="3.5"/>
                <g id="zoomPlus">
                        <use xlink:href="#rim" fill="#404040">
                                <set attributeName="fill" to="#808080" begin="zoomplus.mouseover" end="zoomplus.mouseout"/>
                        </use>
                        <path d="M-4,0h8M0,-4v8" fill="none" stroke="white" stroke-width="1.5" pointer-events="none"/>
                </g>
                <g id="zoomMin">
                        <use xlink:href="#rim" fill="#404040">
                                <set attributeName="fill" to="#808080" begin="zoomminus.mouseover" end="zoomminus.mouseout"/>
                        </use>
                        <path d="M-4,0h8" fill="none" stroke="white" stroke-width="1.5" pointer-events="none"/>
                </g>
                <g id="dirArrow">
                        <path fill="none" stroke="white" stroke-width="1.5" d="M0,-3.0v7 M-2.5,-0.5L0,-3.0L2.5,-0.5"/>
                </g>
               <g id="resetDef">
                       <use xlink:href="#rim2" fill="#404040">
                               <set attributeName="fill" to="#808080" begin="reset.mouseover" end="reset.mouseout"/>
                       </use>
               </g>
        </defs>

<script type="text/javascript">
var viewWidth = 1156;
var viewHeight = 253;
var sectionId = 'dynsection-0';
</script>
<script xlink:href="svgpan.js"/>
<svg id="graph" class="graph">
<g id="viewport">
<title>Voxel::FloatParameter</title>
<!-- Node1 -->
<g id="node1" class="node"><title>Node1</title>
<polygon fill="#bfbfbf" stroke="black" points="826,-110.5 826,-129.5 940,-129.5 940,-110.5 826,-110.5"/>
<text text-anchor="middle" x="883" y="-117.5" font-family="Helvetica,sans-Serif" font-size="10.00">Voxel::FloatParameter</text>
</g>
<!-- Node7 -->
<g id="node7" class="node"><title>Node7</title>
<g id="a_node7"><a xlink:href="a00019.xhtml" target="_top" xlink:title="Voxel::TI::CalculusModulation\lFrequencyParameter">
<polygon fill="none" stroke="black" points="989,-215 989,-245 1137,-245 1137,-215 989,-215"/>
<text text-anchor="start" x="997" y="-233" font-family="Helvetica,sans-Serif" font-size="10.00">Voxel::TI::CalculusModulation</text>
<text text-anchor="middle" x="1063" y="-222" font-family="Helvetica,sans-Serif" font-size="10.00">FrequencyParameter</text>
</a>
</g>
</g>
<!-- Node1&#45;&gt;Node7 -->
<g id="edge8" class="edge"><title>Node1&#45;&gt;Node7</title>
<path fill="none" stroke="midnightblue" d="M898.763,-137.362C915.954,-156.535 946.091,-187.059 978,-205 984.764,-208.803 992.167,-212.083 999.685,-214.898"/>
<polygon fill="midnightblue" stroke="midnightblue" points="901.244,-134.882 892.018,-129.673 895.982,-139.499 901.244,-134.882"/>
</g>
<!-- Node8 -->
<g id="node8" class="node"><title>Node8</title>
<g id="a_node8"><a xlink:href="a00022.xhtml" target="_top" xlink:title="Voxel::TI::CalculusVCOFrequency">
<polygon fill="none" stroke="black" points="979,-176.5 979,-195.5 1147,-195.5 1147,-176.5 979,-176.5"/>
<text text-anchor="middle" x="1063" y="-183.5" font-family="Helvetica,sans-Serif" font-size="10.00">Voxel::TI::CalculusVCOFrequency</text>
</a>
</g>
</g>
<!-- Node1&#45;&gt;Node8 -->
<g id="edge9" class="edge"><title>Node1&#45;&gt;Node8</title>
<path fill="none" stroke="midnightblue" d="M909.799,-134.558C928.316,-144.523 954.116,-157.432 978,-166 989.43,-170.1 1002.04,-173.608 1013.93,-176.488"/>
<polygon fill="midnightblue" stroke="midnightblue" points="911.281,-131.38 900.828,-129.655 907.924,-137.522 911.281,-131.38"/>
</g>
<!-- Node9 -->
<g id="node9" class="node"><title>Node9</title>
<g id="a_node9"><a xlink:href="a00082.xhtml" target="_top" xlink:title="Voxel::TI::HaddockModulation\lFrequencyParameter">
<polygon fill="none" stroke="black" points="988.5,-127 988.5,-157 1137.5,-157 1137.5,-127 988.5,-127"/>
<text text-anchor="start" x="996.5" y="-145" font-family="Helvetica,sans-Serif" font-size="10.00">Voxel::TI::HaddockModulation</text>
<text text-anchor="middle" x="1063" y="-134" font-family="Helvetica,sans-Serif" font-size="10.00">FrequencyParameter</text>
</a>
</g>
</g>
<!-- Node1&#45;&gt;Node9 -->
<g id="edge10" class="edge"><title>Node1&#45;&gt;Node9</title>
<path fill="none" stroke="midnightblue" d="M950.538,-128.224C962.902,-129.752 975.885,-131.357 988.444,-132.909"/>
<polygon fill="midnightblue" stroke="midnightblue" points="950.674,-124.714 940.32,-126.961 949.815,-131.661 950.674,-124.714"/>
</g>
<!-- Node10 -->
<g id="node10" class="node"><title>Node10</title>
<g id="a_node10"><a xlink:href="a00085.xhtml" target="_top" xlink:title="Custom parameters. ">
<polygon fill="none" stroke="black" points="978.5,-88.5 978.5,-107.5 1147.5,-107.5 1147.5,-88.5 978.5,-88.5"/>
<text text-anchor="middle" x="1063" y="-95.5" font-family="Helvetica,sans-Serif" font-size="10.00">Voxel::TI::HaddockVCOFrequency</text>
</a>
</g>
</g>
<!-- Node1&#45;&gt;Node10 -->
<g id="edge11" class="edge"><title>Node1&#45;&gt;Node10</title>
<path fill="none" stroke="midnightblue" d="M950.464,-111.785C961.69,-110.398 973.428,-108.947 984.897,-107.53"/>
<polygon fill="midnightblue" stroke="midnightblue" points="949.815,-108.339 940.32,-113.039 950.674,-115.286 949.815,-108.339"/>
</g>
<!-- Node11 -->
<g id="node11" class="node"><title>Node11</title>
<g id="a_node11"><a xlink:href="a00149.xhtml" target="_top" xlink:title="Voxel::TI::TintinModulation\lFrequencyParameter">
<polygon fill="none" stroke="black" points="996,-39 996,-69 1130,-69 1130,-39 996,-39"/>
<text text-anchor="start" x="1004" y="-57" font-family="Helvetica,sans-Serif" font-size="10.00">Voxel::TI::TintinModulation</text>
<text text-anchor="middle" x="1063" y="-46" font-family="Helvetica,sans-Serif" font-size="10.00">FrequencyParameter</text>
</a>
</g>
</g>
<!-- Node1&#45;&gt;Node11 -->
<g id="edge12" class="edge"><title>Node1&#45;&gt;Node11</title>
<path fill="none" stroke="midnightblue" d="M913.163,-106.182C931.537,-97.7513 955.886,-87.0792 978,-79 987.575,-75.5017 997.892,-72.1221 1007.91,-69.0387"/>
<polygon fill="midnightblue" stroke="midnightblue" points="911.484,-103.102 903.882,-110.482 914.427,-109.454 911.484,-103.102"/>
</g>
<!-- Node12 -->
<g id="node12" class="node"><title>Node12</title>
<g id="a_node12"><a xlink:href="a00151.xhtml" target="_top" xlink:title="Custom parameters. ">
<polygon fill="none" stroke="black" points="986,-0.5 986,-19.5 1140,-19.5 1140,-0.5 986,-0.5"/>
<text text-anchor="middle" x="1063" y="-7.5" font-family="Helvetica,sans-Serif" font-size="10.00">Voxel::TI::TintinVCOFrequency</text>
</a>
</g>
</g>
<!-- Node1&#45;&gt;Node12 -->
<g id="edge13" class="edge"><title>Node1&#45;&gt;Node12</title>
<path fill="none" stroke="midnightblue" d="M897.272,-102.218C913.818,-81.3714 944.086,-47.3434 978,-29 985.233,-25.0877 993.236,-21.9795 1001.34,-19.5104"/>
<polygon fill="midnightblue" stroke="midnightblue" points="894.4,-100.21 891.05,-110.262 899.937,-104.493 894.4,-100.21"/>
</g>
<!-- Node2 -->
<g id="node2" class="node"><title>Node2</title>
<g id="a_node2"><a xlink:href="a00117.xhtml" target="_top" xlink:title="Voxel::RangeParameterTemplate\l\&lt; float \&gt;">
<polygon fill="none" stroke="black" points="626.5,-105 626.5,-135 787.5,-135 787.5,-105 626.5,-105"/>
<text text-anchor="start" x="634.5" y="-123" font-family="Helvetica,sans-Serif" font-size="10.00">Voxel::RangeParameterTemplate</text>
<text text-anchor="middle" x="707" y="-112" font-family="Helvetica,sans-Serif" font-size="10.00">&lt; float &gt;</text>
</a>
</g>
</g>
<!-- Node2&#45;&gt;Node1 -->
<g id="edge1" class="edge"><title>Node2&#45;&gt;Node1</title>
<path fill="none" stroke="midnightblue" d="M797.909,-120C807.398,-120 816.841,-120 825.785,-120"/>
<polygon fill="midnightblue" stroke="midnightblue" points="797.616,-116.5 787.616,-120 797.616,-123.5 797.616,-116.5"/>
</g>
<!-- Node3 -->
<g id="node3" class="node"><title>Node3</title>
<g id="a_node3"><a xlink:href="a00103.xhtml" target="_top" xlink:title="Voxel::ParameterTemplate\l\&lt; float \&gt;">
<polygon fill="none" stroke="black" points="390.5,-128 390.5,-158 523.5,-158 523.5,-128 390.5,-128"/>
<text text-anchor="start" x="398.5" y="-146" font-family="Helvetica,sans-Serif" font-size="10.00">Voxel::ParameterTemplate</text>
<text text-anchor="middle" x="457" y="-135" font-family="Helvetica,sans-Serif" font-size="10.00">&lt; float &gt;</text>
</a>
</g>
</g>
<!-- Node3&#45;&gt;Node2 -->
<g id="edge2" class="edge"><title>Node3&#45;&gt;Node2</title>
<path fill="none" stroke="midnightblue" d="M533.954,-135.956C563.17,-133.246 596.596,-130.146 626.167,-127.404"/>
<polygon fill="midnightblue" stroke="midnightblue" points="533.442,-132.488 523.808,-136.897 534.089,-139.458 533.442,-132.488"/>
</g>
<!-- Node4 -->
<g id="node4" class="node"><title>Node4</title>
<g id="a_node4"><a xlink:href="a00101.xhtml" target="_top" xlink:title="Voxel::Parameter">
<polygon fill="none" stroke="black" points="0,-132.5 0,-151.5 92,-151.5 92,-132.5 0,-132.5"/>
<text text-anchor="middle" x="46" y="-139.5" font-family="Helvetica,sans-Serif" font-size="10.00">Voxel::Parameter</text>
</a>
</g>
</g>
<!-- Node4&#45;&gt;Node3 -->
<g id="edge3" class="edge"><title>Node4&#45;&gt;Node3</title>
<path fill="none" stroke="midnightblue" d="M102.248,-143.854C104.869,-143.91 107.463,-143.96 110,-144 214.876,-145.664 241.112,-144.477 346,-144 360.323,-143.935 375.696,-143.822 390.273,-143.695"/>
<polygon fill="midnightblue" stroke="midnightblue" points="102.161,-140.351 92.0778,-143.605 101.989,-147.349 102.161,-140.351"/>
</g>
<!-- Node5 -->
<g id="node5" class="node"><title>Node5</title>
<g id="a_node5"><a xlink:href="a00103.xhtml" target="_top" xlink:title="Voxel::ParameterTemplate\&lt; T \&gt;">
<polygon fill="none" stroke="black" points="130.5,-110.5 130.5,-129.5 287.5,-129.5 287.5,-110.5 130.5,-110.5"/>
<text text-anchor="middle" x="209" y="-117.5" font-family="Helvetica,sans-Serif" font-size="10.00">Voxel::ParameterTemplate&lt; T &gt;</text>
</a>
</g>
</g>
<!-- Node4&#45;&gt;Node5 -->
<g id="edge5" class="edge"><title>Node4&#45;&gt;Node5</title>
<path fill="none" stroke="midnightblue" d="M102.269,-134.448C113.9,-132.858 126.314,-131.162 138.394,-129.511"/>
<polygon fill="midnightblue" stroke="midnightblue" points="101.71,-130.991 92.2759,-135.813 102.658,-137.927 101.71,-130.991"/>
</g>
<!-- Node5&#45;&gt;Node3 -->
<g id="edge4" class="edge"><title>Node5&#45;&gt;Node3</title>
<path fill="none" stroke="orange" stroke-dasharray="5,2" d="M298.015,-128.229C328.418,-131.072 361.931,-134.205 390.238,-136.852"/>
<polygon fill="orange" stroke="orange" points="298.118,-124.724 287.836,-127.277 297.467,-131.693 298.118,-124.724"/>
<text text-anchor="middle" x="326" y="-136" font-family="Helvetica,sans-Serif" font-size="10.00"> &lt; float &gt;</text>
</g>
<!-- Node6 -->
<g id="node6" class="node"><title>Node6</title>
<g id="a_node6"><a xlink:href="a00117.xhtml" target="_top" xlink:title="Voxel::RangeParameterTemplate\&lt; T \&gt;">
<polygon fill="none" stroke="black" points="364.5,-89.5 364.5,-108.5 549.5,-108.5 549.5,-89.5 364.5,-89.5"/>
<text text-anchor="middle" x="457" y="-96.5" font-family="Helvetica,sans-Serif" font-size="10.00">Voxel::RangeParameterTemplate&lt; T &gt;</text>
</a>
</g>
</g>
<!-- Node5&#45;&gt;Node6 -->
<g id="edge7" class="edge"><title>Node5&#45;&gt;Node6</title>
<path fill="none" stroke="midnightblue" d="M297.966,-112.491C319.561,-110.647 342.728,-108.67 364.486,-106.812"/>
<polygon fill="midnightblue" stroke="midnightblue" points="297.502,-109.017 287.836,-113.355 298.097,-115.992 297.502,-109.017"/>
</g>
<!-- Node6&#45;&gt;Node2 -->
<g id="edge6" class="edge"><title>Node6&#45;&gt;Node2</title>
<path fill="none" stroke="orange" stroke-dasharray="5,2" d="M559.737,-107.615C581.884,-109.49 605.01,-111.448 626.163,-113.24"/>
<polygon fill="orange" stroke="orange" points="559.901,-104.116 549.641,-106.76 559.31,-111.091 559.901,-104.116"/>
<text text-anchor="middle" x="588" y="-115" font-family="Helvetica,sans-Serif" font-size="10.00"> &lt; float &gt;</text>
</g>
</g>
</svg>
        <g id="navigator" transform="translate(0 0)" fill="#404254">
                <rect fill="#f2f5e9" fill-opacity="0.5" stroke="#606060" stroke-width=".5" x="0" y="0" width="60" height="60"/>
                <use id="zoomplus" xlink:href="#zoomPlus" x="17" y="9" onmousedown="handleZoom(evt,'in')"/>
                <use id="zoomminus" xlink:href="#zoomMin" x="42" y="9" onmousedown="handleZoom(evt,'out')"/>
                <use id="reset" xlink:href="#resetDef" x="30" y="36" onmousedown="handleReset()"/>
                <g id="arrowUp" xlink:href="#dirArrow" transform="translate(30 24)" onmousedown="handlePan(0,-1)">
                  <use xlink:href="#rim" fill="#404040">
                        <set attributeName="fill" to="#808080" begin="arrowUp.mouseover" end="arrowUp.mouseout"/>
                  </use>
                  <path fill="none" stroke="white" stroke-width="1.5" d="M0,-3.0v7 M-2.5,-0.5L0,-3.0L2.5,-0.5"/>
                </g>
                <g id="arrowRight" xlink:href="#dirArrow" transform="rotate(90) translate(36 -43)" onmousedown="handlePan(1,0)">
                  <use xlink:href="#rim" fill="#404040">
                        <set attributeName="fill" to="#808080" begin="arrowRight.mouseover" end="arrowRight.mouseout"/>
                  </use>
                  <path fill="none" stroke="white" stroke-width="1.5" d="M0,-3.0v7 M-2.5,-0.5L0,-3.0L2.5,-0.5"/>
                </g>
                <g id="arrowDown" xlink:href="#dirArrow" transform="rotate(180) translate(-30 -48)" onmousedown="handlePan(0,1)">
                  <use xlink:href="#rim" fill="#404040">
                        <set attributeName="fill" to="#808080" begin="arrowDown.mouseover" end="arrowDown.mouseout"/>
                  </use>
                  <path fill="none" stroke="white" stroke-width="1.5" d="M0,-3.0v7 M-2.5,-0.5L0,-3.0L2.5,-0.5"/>
                </g>
                <g id="arrowLeft" xlink:href="#dirArrow" transform="rotate(270) translate(-36 17)" onmousedown="handlePan(-1,0)">
                  <use xlink:href="#rim" fill="#404040">
                        <set attributeName="fill" to="#808080" begin="arrowLeft.mouseover" end="arrowLeft.mouseout"/>
                  </use>
                  <path fill="none" stroke="white" stroke-width="1.5" d="M0,-3.0v7 M-2.5,-0.5L0,-3.0L2.5,-0.5"/>
                </g>
        </g>
        <svg viewBox="0 0 15 15" width="100%" height="30px" preserveAspectRatio="xMaxYMin meet">
         <g id="arrow_out" transform="scale(0.3 0.3)">
          <a xlink:href="a00914_org.svg" target="_base">
           <rect id="button" ry="5" rx="5" y="6" x="6" height="38" width="38"
                fill="#f2f5e9" fill-opacity="0.5" stroke="#606060" stroke-width="1.0"/>
           <path id="arrow"
             d="M 11.500037,31.436501 C 11.940474,20.09759 22.043105,11.32322 32.158766,21.979434 L 37.068811,17.246167 C 37.068811,17.246167 37.088388,32 37.088388,32 L 22.160133,31.978069 C 22.160133,31.978069 26.997745,27.140456 26.997745,27.140456 C 18.528582,18.264221 13.291696,25.230495 11.500037,31.436501 z"
             style="fill:#404040;"/>
          </a>
         </g>
        </svg>
</svg>
