<?xml version="1.0" encoding="UTF-8" standalone="no"?>
<!DOCTYPE svg PUBLIC "-//W3C//DTD SVG 1.1//EN"
 "http://www.w3.org/Graphics/SVG/1.1/DTD/svg11.dtd">
<!-- Generated by graphviz version 2.36.0 (20140111.2315)
 -->
<!-- Title: Voxel::Serializable Pages: 1 -->
<svg width="738pt" height="137pt"
 viewBox="0.00 0.00 738.00 136.94" xmlns="http://www.w3.org/2000/svg" xmlns:xlink="http://www.w3.org/1999/xlink">
<g id="graph0" class="graph" transform="scale(1 1) rotate(0) translate(4 132.944)">
<title>Voxel::Serializable</title>
<!-- Node1 -->
<g id="node1" class="node"><title>Node1</title>
<polygon fill="#bfbfbf" stroke="black" points="0,-70.5 0,-89.5 98,-89.5 98,-70.5 0,-70.5"/>
<text text-anchor="middle" x="49" y="-77.5" font-family="Helvetica,sans-Serif" font-size="10.00">Voxel::Serializable</text>
</g>
<!-- Node2 -->
<g id="node2" class="node"><title>Node2</title>
<g id="a_node2"><a xlink:href="a00125.xhtml" target="_top" xlink:title="Voxel::SerializableMap\l\&lt; SerializableString \&gt;">
<polygon fill="none" stroke="black" points="416,-94 416,-124 532,-124 532,-94 416,-94"/>
<text text-anchor="start" x="424" y="-112" font-family="Helvetica,sans-Serif" font-size="10.00">Voxel::SerializableMap</text>
<text text-anchor="middle" x="474" y="-101" font-family="Helvetica,sans-Serif" font-size="10.00">&lt; SerializableString &gt;</text>
</a>
</g>
</g>
<!-- Node1&#45;&gt;Node2 -->
<g id="edge1" class="edge"><title>Node1&#45;&gt;Node2</title>
<path fill="none" stroke="#8b1a1a" d="M75.8506,-94.4124C92.4706,-102.835 114.841,-112.641 136,-117 232.727,-136.925 348.366,-127.105 415.954,-118.098"/>
<polygon fill="#8b1a1a" stroke="#8b1a1a" points="77.2649,-91.2022 66.7822,-89.665 74.0183,-97.4038 77.2649,-91.2022"/>
</g>
<!-- Node4 -->
<g id="node4" class="node"><title>Node4</title>
<g id="a_node4"><a xlink:href="a00004.xhtml" target="_top" xlink:title="Voxel::BasicSerializable\&lt; T \&gt;">
<polygon fill="none" stroke="black" points="136,-88.5 136,-107.5 282,-107.5 282,-88.5 136,-88.5"/>
<text text-anchor="middle" x="209" y="-95.5" font-family="Helvetica,sans-Serif" font-size="10.00">Voxel::BasicSerializable&lt; T &gt;</text>
</a>
</g>
</g>
<!-- Node1&#45;&gt;Node4 -->
<g id="edge3" class="edge"><title>Node1&#45;&gt;Node4</title>
<path fill="none" stroke="midnightblue" d="M108.235,-86.6344C117.237,-87.66 126.627,-88.7296 135.889,-89.7848"/>
<polygon fill="midnightblue" stroke="midnightblue" points="108.596,-83.1529 98.2637,-85.4984 107.803,-90.1079 108.596,-83.1529"/>
</g>
<!-- Node5 -->
<g id="node5" class="node"><title>Node5</title>
<g id="a_node5"><a xlink:href="a00125.xhtml" target="_top" xlink:title="Voxel::SerializableMap\l\&lt; Key \&gt;">
<polygon fill="none" stroke="black" points="151,-39 151,-69 267,-69 267,-39 151,-39"/>
<text text-anchor="start" x="159" y="-57" font-family="Helvetica,sans-Serif" font-size="10.00">Voxel::SerializableMap</text>
<text text-anchor="middle" x="209" y="-46" font-family="Helvetica,sans-Serif" font-size="10.00">&lt; Key &gt;</text>
</a>
</g>
</g>
<!-- Node1&#45;&gt;Node5 -->
<g id="edge4" class="edge"><title>Node1&#45;&gt;Node5</title>
<path fill="none" stroke="#8b1a1a" d="M108.213,-70.4206C122.14,-68.1289 136.994,-65.6845 150.871,-63.401"/>
<polygon fill="#8b1a1a" stroke="#8b1a1a" points="107.563,-66.9805 98.2637,-72.0579 108.699,-73.8876 107.563,-66.9805"/>
</g>
<!-- Node6 -->
<g id="node6" class="node"><title>Node6</title>
<g id="a_node6"><a xlink:href="a00126.xhtml" target="_top" xlink:title="Voxel::SerializableString">
<polygon fill="none" stroke="black" points="147.5,-0.5 147.5,-19.5 270.5,-19.5 270.5,-0.5 147.5,-0.5"/>
<text text-anchor="middle" x="209" y="-7.5" font-family="Helvetica,sans-Serif" font-size="10.00">Voxel::SerializableString</text>
</a>
</g>
</g>
<!-- Node1&#45;&gt;Node6 -->
<g id="edge6" class="edge"><title>Node1&#45;&gt;Node6</title>
<path fill="none" stroke="midnightblue" d="M71.9386,-64.6698C88.8054,-53.4697 113.034,-38.6189 136,-29 144.824,-25.3042 154.563,-22.1574 163.95,-19.5511"/>
<polygon fill="midnightblue" stroke="midnightblue" points="69.7015,-61.9574 63.3803,-70.46 73.6241,-67.7552 69.7015,-61.9574"/>
</g>
<!-- Node3 -->
<g id="node3" class="node"><title>Node3</title>
<g id="a_node3"><a xlink:href="a00131.xhtml" target="_top" xlink:title="Voxel::StringKeySerializableMap">
<polygon fill="none" stroke="black" points="570.5,-99.5 570.5,-118.5 729.5,-118.5 729.5,-99.5 570.5,-99.5"/>
<text text-anchor="middle" x="650" y="-106.5" font-family="Helvetica,sans-Serif" font-size="10.00">Voxel::StringKeySerializableMap</text>
</a>
</g>
</g>
<!-- Node2&#45;&gt;Node3 -->
<g id="edge2" class="edge"><title>Node2&#45;&gt;Node3</title>
<path fill="none" stroke="midnightblue" d="M542.618,-109C551.751,-109 561.185,-109 570.488,-109"/>
<polygon fill="midnightblue" stroke="midnightblue" points="542.456,-105.5 532.456,-109 542.456,-112.5 542.456,-105.5"/>
</g>
<!-- Node5&#45;&gt;Node2 -->
<g id="edge5" class="edge"><title>Node5&#45;&gt;Node2</title>
<path fill="none" stroke="orange" stroke-dasharray="5,2" d="M277.116,-68.0356C319.922,-76.9874 374.812,-88.4663 415.591,-96.9943"/>
<polygon fill="orange" stroke="orange" points="277.572,-64.5553 267.067,-65.9342 276.139,-71.4071 277.572,-64.5553"/>
<text text-anchor="middle" x="349" y="-95" font-family="Helvetica,sans-Serif" font-size="10.00"> &lt; SerializableString &gt;</text>
</g>
</g>
</svg>
