<?xml version="1.0" encoding="UTF-8" standalone="no"?>
<!DOCTYPE svg PUBLIC "-//W3C//DTD SVG 1.1//EN"
 "http://www.w3.org/Graphics/SVG/1.1/DTD/svg11.dtd">
<!-- Generated by graphviz version 2.36.0 (20140111.2315)
 -->
<!-- Title: Voxel::EnumParameter Pages: 1 -->
<svg width="664pt" height="426pt"
 viewBox="0.00 0.00 664.00 426.00" xmlns="http://www.w3.org/2000/svg" xmlns:xlink="http://www.w3.org/1999/xlink">
<g id="graph0" class="graph" transform="scale(1 1) rotate(0) translate(4 422)">
<title>Voxel::EnumParameter</title>
<!-- Node1 -->
<g id="node1" class="node"><title>Node1</title>
<polygon fill="#bfbfbf" stroke="black" points="174,-0.5 174,-19.5 292,-19.5 292,-0.5 174,-0.5"/>
<text text-anchor="middle" x="233" y="-7.5" font-family="Helvetica,sans-Serif" font-size="10.00">Voxel::EnumParameter</text>
</g>
<!-- Node2 -->
<g id="node2" class="node"><title>Node2</title>
<g id="a_node2"><a xlink:href="a00054.xhtml" target="_top" xlink:title="Voxel::EnumParameterTemplate\l\&lt; int \&gt;">
<polygon fill="none" stroke="black" points="54,-69 54,-99 212,-99 212,-69 54,-69"/>
<text text-anchor="start" x="62" y="-87" font-family="Helvetica,sans-Serif" font-size="10.00">Voxel::EnumParameterTemplate</text>
<text text-anchor="middle" x="133" y="-76" font-family="Helvetica,sans-Serif" font-size="10.00">&lt; int &gt;</text>
</a>
</g>
</g>
<!-- Node2&#45;&gt;Node1 -->
<g id="edge1" class="edge"><title>Node2&#45;&gt;Node1</title>
<path fill="none" stroke="midnightblue" d="M161.119,-62.7545C180.919,-48.4985 206.421,-30.1365 221.119,-19.5543"/>
<polygon fill="midnightblue" stroke="midnightblue" points="158.827,-60.0917 152.757,-68.7751 162.917,-65.7724 158.827,-60.0917"/>
</g>
<!-- Node3 -->
<g id="node3" class="node"><title>Node3</title>
<g id="a_node3"><a xlink:href="a00103.xhtml" target="_top" xlink:title="Voxel::ParameterTemplate\l\&lt; int \&gt;">
<polygon fill="none" stroke="black" points="250.5,-149 250.5,-179 383.5,-179 383.5,-149 250.5,-149"/>
<text text-anchor="start" x="258.5" y="-167" font-family="Helvetica,sans-Serif" font-size="10.00">Voxel::ParameterTemplate</text>
<text text-anchor="middle" x="317" y="-156" font-family="Helvetica,sans-Serif" font-size="10.00">&lt; int &gt;</text>
</a>
</g>
</g>
<!-- Node3&#45;&gt;Node2 -->
<g id="edge2" class="edge"><title>Node3&#45;&gt;Node2</title>
<path fill="none" stroke="midnightblue" d="M274.289,-144.894C241.311,-130.915 196.344,-111.852 166.073,-99.0201"/>
<polygon fill="midnightblue" stroke="midnightblue" points="273.106,-148.194 283.679,-148.875 275.838,-141.749 273.106,-148.194"/>
</g>
<!-- Node4 -->
<g id="node4" class="node"><title>Node4</title>
<g id="a_node4"><a xlink:href="a00101.xhtml" target="_top" xlink:title="Voxel::Parameter">
<polygon fill="none" stroke="black" points="261,-308.5 261,-327.5 353,-327.5 353,-308.5 261,-308.5"/>
<text text-anchor="middle" x="307" y="-315.5" font-family="Helvetica,sans-Serif" font-size="10.00">Voxel::Parameter</text>
</a>
</g>
</g>
<!-- Node4&#45;&gt;Node3 -->
<g id="edge3" class="edge"><title>Node4&#45;&gt;Node3</title>
<path fill="none" stroke="midnightblue" d="M308.238,-298.188C310.26,-267.441 314.231,-207.084 316.05,-179.443"/>
<polygon fill="midnightblue" stroke="midnightblue" points="304.73,-298.184 307.566,-308.392 311.715,-298.644 304.73,-298.184"/>
</g>
<!-- Node12 -->
<g id="node12" class="node"><title>Node12</title>
<g id="a_node12"><a xlink:href="a00103.xhtml" target="_top" xlink:title="Voxel::ParameterTemplate\&lt; T \&gt;">
<polygon fill="none" stroke="black" points="138.5,-229.5 138.5,-248.5 295.5,-248.5 295.5,-229.5 138.5,-229.5"/>
<text text-anchor="middle" x="217" y="-236.5" font-family="Helvetica,sans-Serif" font-size="10.00">Voxel::ParameterTemplate&lt; T &gt;</text>
</a>
</g>
</g>
<!-- Node4&#45;&gt;Node12 -->
<g id="edge12" class="edge"><title>Node4&#45;&gt;Node12</title>
<path fill="none" stroke="midnightblue" d="M290.403,-301.341C279.868,-291.552 265.846,-278.798 253,-268 244.999,-261.275 235.678,-254.041 228.525,-248.611"/>
<polygon fill="midnightblue" stroke="midnightblue" points="288.322,-304.186 298.016,-308.461 293.104,-299.074 288.322,-304.186"/>
</g>
<!-- Node5 -->
<g id="node5" class="node"><title>Node5</title>
<g id="a_node5"><a xlink:href="a00121.xhtml" target="_top" xlink:title="Voxel::RegisterProgrammer">
<polygon fill="none" stroke="black" points="519.5,-398.5 519.5,-417.5 656.5,-417.5 656.5,-398.5 519.5,-398.5"/>
<text text-anchor="middle" x="588" y="-405.5" font-family="Helvetica,sans-Serif" font-size="10.00">Voxel::RegisterProgrammer</text>
</a>
</g>
</g>
<!-- Node5&#45;&gt;Node4 -->
<g id="edge4" class="edge"><title>Node5&#45;&gt;Node4</title>
<path fill="none" stroke="#9a32cd" stroke-dasharray="5,2" d="M573.515,-390.47C559.932,-376.153 538.272,-356.186 515,-346 486.895,-333.698 405.676,-325.893 353.438,-321.995"/>
<polygon fill="#9a32cd" stroke="#9a32cd" points="571.196,-393.12 580.531,-398.13 576.358,-388.392 571.196,-393.12"/>
<text text-anchor="middle" x="593.5" y="-360.5" font-family="Helvetica,sans-Serif" font-size="10.00"> _programmer</text>
</g>
<!-- Node6 -->
<g id="node6" class="node"><title>Node6</title>
<polygon fill="none" stroke="#bfbfbf" points="208.5,-398.5 208.5,-417.5 259.5,-417.5 259.5,-398.5 208.5,-398.5"/>
<text text-anchor="middle" x="234" y="-405.5" font-family="Helvetica,sans-Serif" font-size="10.00">uint32_t</text>
</g>
<!-- Node6&#45;&gt;Node4 -->
<g id="edge5" class="edge"><title>Node6&#45;&gt;Node4</title>
<path fill="none" stroke="#9a32cd" stroke-dasharray="5,2" d="M236.01,-387.845C238.256,-374.775 242.998,-357.766 253,-346 259.992,-337.774 270.1,-331.797 279.683,-327.59"/>
<polygon fill="#9a32cd" stroke="#9a32cd" points="232.497,-387.704 234.61,-398.086 239.432,-388.652 232.497,-387.704"/>
<text text-anchor="middle" x="273" y="-366" font-family="Helvetica,sans-Serif" font-size="10.00"> _mask</text>
<text text-anchor="middle" x="273" y="-355" font-family="Helvetica,sans-Serif" font-size="10.00">_address</text>
</g>
<!-- Node7 -->
<g id="node7" class="node"><title>Node7</title>
<polygon fill="none" stroke="#bfbfbf" points="277.5,-398.5 277.5,-417.5 318.5,-417.5 318.5,-398.5 277.5,-398.5"/>
<text text-anchor="middle" x="298" y="-405.5" font-family="Helvetica,sans-Serif" font-size="10.00">string</text>
</g>
<!-- Node7&#45;&gt;Node4 -->
<g id="edge6" class="edge"><title>Node7&#45;&gt;Node4</title>
<path fill="none" stroke="#9a32cd" stroke-dasharray="5,2" d="M296.994,-388.031C296.676,-375.935 296.858,-359.963 299,-346 299.949,-339.815 301.949,-333.065 303.712,-327.861"/>
<polygon fill="#9a32cd" stroke="#9a32cd" points="293.506,-388.399 297.404,-398.25 300.5,-388.118 293.506,-388.399"/>
<text text-anchor="middle" x="330.5" y="-371.5" font-family="Helvetica,sans-Serif" font-size="10.00"> _description</text>
<text text-anchor="middle" x="330.5" y="-360.5" font-family="Helvetica,sans-Serif" font-size="10.00">_name</text>
<text text-anchor="middle" x="330.5" y="-349.5" font-family="Helvetica,sans-Serif" font-size="10.00">_displayName</text>
</g>
<!-- Node8 -->
<g id="node8" class="node"><title>Node8</title>
<polygon fill="none" stroke="#bfbfbf" points="361,-398.5 361,-417.5 407,-417.5 407,-398.5 361,-398.5"/>
<text text-anchor="middle" x="384" y="-405.5" font-family="Helvetica,sans-Serif" font-size="10.00">uint8_t</text>
</g>
<!-- Node8&#45;&gt;Node4 -->
<g id="edge7" class="edge"><title>Node8&#45;&gt;Node4</title>
<path fill="none" stroke="#9a32cd" stroke-dasharray="5,2" d="M381.153,-388.621C378.282,-375.421 372.678,-357.925 362,-346 354.62,-337.759 344.159,-331.757 334.339,-327.536"/>
<polygon fill="#9a32cd" stroke="#9a32cd" points="377.716,-389.284 382.974,-398.482 384.6,-388.013 377.716,-389.284"/>
<text text-anchor="middle" x="414" y="-371.5" font-family="Helvetica,sans-Serif" font-size="10.00"> _registerLength</text>
<text text-anchor="middle" x="414" y="-360.5" font-family="Helvetica,sans-Serif" font-size="10.00">_lsb</text>
<text text-anchor="middle" x="414" y="-349.5" font-family="Helvetica,sans-Serif" font-size="10.00">_msb</text>
</g>
<!-- Node9 -->
<g id="node9" class="node"><title>Node9</title>
<g id="a_node9"><a xlink:href="a00395.xhtml" target="_top" xlink:title="Vector\&lt; String \&gt;">
<polygon fill="none" stroke="black" points="65.5,-398.5 65.5,-417.5 154.5,-417.5 154.5,-398.5 65.5,-398.5"/>
<text text-anchor="middle" x="110" y="-405.5" font-family="Helvetica,sans-Serif" font-size="10.00">Vector&lt; String &gt;</text>
</a>
</g>
</g>
<!-- Node9&#45;&gt;Node2 -->
<g id="edge14" class="edge"><title>Node9&#45;&gt;Node2</title>
<path fill="none" stroke="#9a32cd" stroke-dasharray="5,2" d="M72.9603,-394.755C41.0192,-381.586 0,-357.232 0,-319 0,-319 0,-319 0,-163 0,-129.54 31.7097,-110.159 64.1625,-99.0855"/>
<polygon fill="#9a32cd" stroke="#9a32cd" points="71.9378,-398.113 82.5261,-398.486 74.4813,-391.591 71.9378,-398.113"/>
<text text-anchor="middle" x="41" y="-242" font-family="Helvetica,sans-Serif" font-size="10.00"> _valueDescription</text>
<text text-anchor="middle" x="41" y="-231" font-family="Helvetica,sans-Serif" font-size="10.00">_valueMeaning</text>
</g>
<!-- Node9&#45;&gt;Node4 -->
<g id="edge8" class="edge"><title>Node9&#45;&gt;Node4</title>
<path fill="none" stroke="#9a32cd" stroke-dasharray="5,2" d="M120.709,-389.943C130.484,-375.868 146.242,-356.554 165,-346 173.393,-341.278 222.774,-332.511 260.973,-326.248"/>
<polygon fill="#9a32cd" stroke="#9a32cd" points="117.784,-388.022 115.178,-398.292 123.619,-391.888 117.784,-388.022"/>
<text text-anchor="middle" x="199.5" y="-360.5" font-family="Helvetica,sans-Serif" font-size="10.00"> _dependencies</text>
</g>
<!-- Node14 -->
<g id="node14" class="node"><title>Node14</title>
<g id="a_node14"><a xlink:href="a00054.xhtml" target="_top" xlink:title="Voxel::EnumParameterTemplate\&lt; T \&gt;">
<polygon fill="none" stroke="black" points="42,-154.5 42,-173.5 224,-173.5 224,-154.5 42,-154.5"/>
<text text-anchor="middle" x="133" y="-161.5" font-family="Helvetica,sans-Serif" font-size="10.00">Voxel::EnumParameterTemplate&lt; T &gt;</text>
</a>
</g>
</g>
<!-- Node9&#45;&gt;Node14 -->
<g id="edge17" class="edge"><title>Node9&#45;&gt;Node14</title>
<path fill="none" stroke="#9a32cd" stroke-dasharray="5,2" d="M111.782,-388.245C116.45,-339.132 128.898,-208.163 132.191,-173.51"/>
<polygon fill="#9a32cd" stroke="#9a32cd" points="108.281,-388.101 110.819,-398.387 115.249,-388.763 108.281,-388.101"/>
<text text-anchor="middle" x="165" y="-282" font-family="Helvetica,sans-Serif" font-size="10.00"> _valueDescription</text>
<text text-anchor="middle" x="165" y="-271" font-family="Helvetica,sans-Serif" font-size="10.00">_valueMeaning</text>
</g>
<!-- Node10 -->
<g id="node10" class="node"><title>Node10</title>
<polygon fill="none" stroke="#bfbfbf" points="452.5,-398.5 452.5,-417.5 501.5,-417.5 501.5,-398.5 452.5,-398.5"/>
<text text-anchor="middle" x="477" y="-405.5" font-family="Helvetica,sans-Serif" font-size="10.00">IOType</text>
</g>
<!-- Node10&#45;&gt;Node4 -->
<g id="edge9" class="edge"><title>Node10&#45;&gt;Node4</title>
<path fill="none" stroke="#9a32cd" stroke-dasharray="5,2" d="M474.569,-388.514C471.757,-374.719 465.75,-356.51 453,-346 438.033,-333.662 390.204,-326.499 353.324,-322.691"/>
<polygon fill="#9a32cd" stroke="#9a32cd" points="471.119,-389.106 476.207,-398.399 478.025,-387.962 471.119,-389.106"/>
<text text-anchor="middle" x="492" y="-360.5" font-family="Helvetica,sans-Serif" font-size="10.00"> _ioType</text>
</g>
<!-- Node11 -->
<g id="node11" class="node"><title>Node11</title>
<g id="a_node11"><a xlink:href="a00397.xhtml" target="_top" xlink:title="int">
<polygon fill="none" stroke="black" points="352.5,-229.5 352.5,-248.5 381.5,-248.5 381.5,-229.5 352.5,-229.5"/>
<text text-anchor="middle" x="367" y="-236.5" font-family="Helvetica,sans-Serif" font-size="10.00">int</text>
</a>
</g>
</g>
<!-- Node11&#45;&gt;Node3 -->
<g id="edge10" class="edge"><title>Node11&#45;&gt;Node3</title>
<path fill="none" stroke="#9a32cd" stroke-dasharray="5,2" d="M355.366,-221.014C346.661,-208.305 334.894,-191.126 326.696,-179.156"/>
<polygon fill="#9a32cd" stroke="#9a32cd" points="352.529,-223.067 361.068,-229.339 358.305,-219.111 352.529,-223.067"/>
<text text-anchor="middle" x="363" y="-201.5" font-family="Helvetica,sans-Serif" font-size="10.00"> _value</text>
</g>
<!-- Node12&#45;&gt;Node3 -->
<g id="edge11" class="edge"><title>Node12&#45;&gt;Node3</title>
<path fill="none" stroke="orange" stroke-dasharray="5,2" d="M237.291,-223.187C254.912,-210.324 280.256,-191.823 297.608,-179.156"/>
<polygon fill="orange" stroke="orange" points="234.877,-220.616 228.864,-229.339 239.005,-226.27 234.877,-220.616"/>
<text text-anchor="middle" x="286" y="-201.5" font-family="Helvetica,sans-Serif" font-size="10.00"> &lt; int &gt;</text>
</g>
<!-- Node12&#45;&gt;Node14 -->
<g id="edge16" class="edge"><title>Node12&#45;&gt;Node14</title>
<path fill="none" stroke="midnightblue" d="M199.376,-222.684C182.245,-207.796 156.839,-185.717 142.953,-173.649"/>
<polygon fill="midnightblue" stroke="midnightblue" points="197.19,-225.421 207.034,-229.339 201.782,-220.138 197.19,-225.421"/>
</g>
<!-- Node13 -->
<g id="node13" class="node"><title>Node13</title>
<polygon fill="none" stroke="#bfbfbf" points="202.5,-308.5 202.5,-327.5 231.5,-327.5 231.5,-308.5 202.5,-308.5"/>
<text text-anchor="middle" x="217" y="-315.5" font-family="Helvetica,sans-Serif" font-size="10.00">T</text>
</g>
<!-- Node13&#45;&gt;Node12 -->
<g id="edge13" class="edge"><title>Node13&#45;&gt;Node12</title>
<path fill="none" stroke="#9a32cd" stroke-dasharray="5,2" d="M217,-298.315C217,-282.592 217,-260.808 217,-248.809"/>
<polygon fill="#9a32cd" stroke="#9a32cd" points="213.5,-298.465 217,-308.465 220.5,-298.465 213.5,-298.465"/>
<text text-anchor="middle" x="233" y="-276.5" font-family="Helvetica,sans-Serif" font-size="10.00"> _value</text>
</g>
<!-- Node14&#45;&gt;Node2 -->
<g id="edge15" class="edge"><title>Node14&#45;&gt;Node2</title>
<path fill="none" stroke="orange" stroke-dasharray="5,2" d="M133,-144.062C133,-130.242 133,-111.802 133,-99.227"/>
<polygon fill="orange" stroke="orange" points="129.5,-144.355 133,-154.355 136.5,-144.355 129.5,-144.355"/>
<text text-anchor="middle" x="149" y="-121.5" font-family="Helvetica,sans-Serif" font-size="10.00"> &lt; int &gt;</text>
</g>
<!-- Node15 -->
<g id="node15" class="node"><title>Node15</title>
<polygon fill="none" stroke="#bfbfbf" points="230,-74.5 230,-93.5 304,-93.5 304,-74.5 230,-74.5"/>
<text text-anchor="middle" x="267" y="-81.5" font-family="Helvetica,sans-Serif" font-size="10.00">Vector&lt; int &gt;</text>
</g>
<!-- Node15&#45;&gt;Node1 -->
<g id="edge18" class="edge"><title>Node15&#45;&gt;Node1</title>
<path fill="none" stroke="#9a32cd" stroke-dasharray="5,2" d="M258.504,-65.0085C251.642,-50.4781 242.291,-30.6758 237.029,-19.531"/>
<polygon fill="#9a32cd" stroke="#9a32cd" points="255.531,-66.91 262.966,-74.4579 261.861,-63.9209 255.531,-66.91"/>
<text text-anchor="middle" x="288" y="-41.5" font-family="Helvetica,sans-Serif" font-size="10.00"> _allowedValues</text>
</g>
</g>
</svg>
