<?xml version="1.0" encoding="UTF-8" standalone="no"?>
<!DOCTYPE svg PUBLIC "-//W3C//DTD SVG 1.1//EN"
 "http://www.w3.org/Graphics/SVG/1.1/DTD/svg11.dtd">
<!-- Generated by graphviz version 2.36.0 (20140111.2315)
 -->
<!-- Title: BilateralFilter.cpp Pages: 1 -->
<svg width="1458pt" height="420pt"
 viewBox="0.00 0.00 1458.00 420.00" xmlns="http://www.w3.org/2000/svg" xmlns:xlink="http://www.w3.org/1999/xlink">
<g id="graph0" class="graph" transform="scale(1 1) rotate(0) translate(4 416)">
<title>BilateralFilter.cpp</title>
<!-- Node1 -->
<g id="node1" class="node"><title>Node1</title>
<polygon fill="#bfbfbf" stroke="black" points="829,-392.5 829,-411.5 921,-411.5 921,-392.5 829,-392.5"/>
<text text-anchor="middle" x="875" y="-399.5" font-family="Helvetica,sans-Serif" font-size="10.00">BilateralFilter.cpp</text>
</g>
<!-- Node2 -->
<g id="node2" class="node"><title>Node2</title>
<g id="a_node2"><a xlink:href="BilateralFilter_8h.xhtml" target="_top" xlink:title="BilateralFilter.h">
<polygon fill="none" stroke="black" points="790,-336.5 790,-355.5 872,-355.5 872,-336.5 790,-336.5"/>
<text text-anchor="middle" x="831" y="-343.5" font-family="Helvetica,sans-Serif" font-size="10.00">BilateralFilter.h</text>
</a>
</g>
</g>
<!-- Node1&#45;&gt;Node2 -->
<g id="edge1" class="edge"><title>Node1&#45;&gt;Node2</title>
<path fill="none" stroke="midnightblue" d="M867.734,-392.083C861.455,-384.377 852.212,-373.033 844.569,-363.653"/>
<polygon fill="midnightblue" stroke="midnightblue" points="847.161,-361.293 838.131,-355.751 841.734,-365.714 847.161,-361.293"/>
</g>
<!-- Node37 -->
<g id="node37" class="node"><title>Node37</title>
<polygon fill="none" stroke="#bfbfbf" points="890,-336.5 890,-355.5 950,-355.5 950,-336.5 890,-336.5"/>
<text text-anchor="middle" x="920" y="-343.5" font-family="Helvetica,sans-Serif" font-size="10.00">memory.h</text>
</g>
<!-- Node1&#45;&gt;Node37 -->
<g id="edge53" class="edge"><title>Node1&#45;&gt;Node37</title>
<path fill="none" stroke="midnightblue" d="M882.431,-392.083C888.853,-384.377 898.306,-373.033 906.122,-363.653"/>
<polygon fill="midnightblue" stroke="midnightblue" points="908.994,-365.674 912.707,-355.751 903.617,-361.193 908.994,-365.674"/>
</g>
<!-- Node3 -->
<g id="node3" class="node"><title>Node3</title>
<g id="a_node3"><a xlink:href="Filter_8h.xhtml" target="_top" xlink:title="Filter.h">
<polygon fill="none" stroke="black" points="738.5,-280.5 738.5,-299.5 785.5,-299.5 785.5,-280.5 738.5,-280.5"/>
<text text-anchor="middle" x="762" y="-287.5" font-family="Helvetica,sans-Serif" font-size="10.00">Filter.h</text>
</a>
</g>
</g>
<!-- Node2&#45;&gt;Node3 -->
<g id="edge2" class="edge"><title>Node2&#45;&gt;Node3</title>
<path fill="none" stroke="midnightblue" d="M819.914,-336.324C809.514,-328.185 793.739,-315.839 781.278,-306.087"/>
<polygon fill="midnightblue" stroke="midnightblue" points="783.32,-303.241 773.288,-299.834 779.006,-308.753 783.32,-303.241"/>
</g>
<!-- Node36 -->
<g id="node36" class="node"><title>Node36</title>
<g id="a_node36"><a xlink:href="DiscreteGaussian_8h.xhtml" target="_top" xlink:title="DiscreteGaussian.h">
<polygon fill="none" stroke="black" points="855.5,-168.5 855.5,-187.5 958.5,-187.5 958.5,-168.5 855.5,-168.5"/>
<text text-anchor="middle" x="907" y="-175.5" font-family="Helvetica,sans-Serif" font-size="10.00">DiscreteGaussian.h</text>
</a>
</g>
</g>
<!-- Node2&#45;&gt;Node36 -->
<g id="edge50" class="edge"><title>Node2&#45;&gt;Node36</title>
<path fill="none" stroke="midnightblue" d="M835.086,-336.075C847.153,-309.719 882.791,-231.878 898.914,-196.661"/>
<polygon fill="midnightblue" stroke="midnightblue" points="902.097,-198.117 903.077,-187.568 895.732,-195.204 902.097,-198.117"/>
</g>
<!-- Node4 -->
<g id="node4" class="node"><title>Node4</title>
<g id="a_node4"><a xlink:href="Frame_8h.xhtml" target="_top" xlink:title="Frame.h">
<polygon fill="none" stroke="black" points="608.5,-224.5 608.5,-243.5 661.5,-243.5 661.5,-224.5 608.5,-224.5"/>
<text text-anchor="middle" x="635" y="-231.5" font-family="Helvetica,sans-Serif" font-size="10.00">Frame.h</text>
</a>
</g>
</g>
<!-- Node3&#45;&gt;Node4 -->
<g id="edge3" class="edge"><title>Node3&#45;&gt;Node4</title>
<path fill="none" stroke="midnightblue" d="M741.876,-280.444C720.976,-271.557 688.065,-257.563 664.284,-247.451"/>
<polygon fill="midnightblue" stroke="midnightblue" points="665.602,-244.208 655.029,-243.516 662.862,-250.65 665.602,-244.208"/>
</g>
<!-- Node22 -->
<g id="node22" class="node"><title>Node22</title>
<polygon fill="none" stroke="#bfbfbf" points="1398,-0.5 1398,-19.5 1450,-19.5 1450,-0.5 1398,-0.5"/>
<text text-anchor="middle" x="1424" y="-7.5" font-family="Helvetica,sans-Serif" font-size="10.00">memory</text>
</g>
<!-- Node3&#45;&gt;Node22 -->
<g id="edge48" class="edge"><title>Node3&#45;&gt;Node22</title>
<path fill="none" stroke="midnightblue" d="M785.614,-287.764C906.24,-281.146 1448,-247.602 1448,-179 1448,-179 1448,-179 1448,-121 1448,-88.0588 1437.6,-50.8177 1430.49,-29.2139"/>
<polygon fill="midnightblue" stroke="midnightblue" points="1433.78,-28.0282 1427.24,-19.6992 1427.16,-30.2937 1433.78,-28.0282"/>
</g>
<!-- Node26 -->
<g id="node26" class="node"><title>Node26</title>
<polygon fill="none" stroke="#bfbfbf" points="-0.5,-56.5 -0.5,-75.5 82.5,-75.5 82.5,-56.5 -0.5,-56.5"/>
<text text-anchor="middle" x="41" y="-63.5" font-family="Helvetica,sans-Serif" font-size="10.00">VoxelExports.h</text>
</g>
<!-- Node3&#45;&gt;Node26 -->
<g id="edge49" class="edge"><title>Node3&#45;&gt;Node26</title>
<path fill="none" stroke="midnightblue" d="M738.252,-289.076C657.744,-288.465 389.313,-279.28 194,-188 136.724,-161.232 81.6191,-109.157 55.9782,-82.9203"/>
<polygon fill="midnightblue" stroke="midnightblue" points="58.4523,-80.4436 48.9968,-75.664 53.4079,-85.297 58.4523,-80.4436"/>
</g>
<!-- Node33 -->
<g id="node33" class="node"><title>Node33</title>
<g id="a_node33"><a xlink:href="FrameBuffer_8h.xhtml" target="_top" xlink:title="FrameBuffer.h">
<polygon fill="none" stroke="black" points="1051.5,-168.5 1051.5,-187.5 1130.5,-187.5 1130.5,-168.5 1051.5,-168.5"/>
<text text-anchor="middle" x="1091" y="-175.5" font-family="Helvetica,sans-Serif" font-size="10.00">FrameBuffer.h</text>
</a>
</g>
</g>
<!-- Node3&#45;&gt;Node33 -->
<g id="edge37" class="edge"><title>Node3&#45;&gt;Node33</title>
<path fill="none" stroke="midnightblue" d="M785.661,-281.089C842.699,-262.019 988.045,-213.423 1055.55,-190.853"/>
<polygon fill="midnightblue" stroke="midnightblue" points="1056.93,-194.08 1065.31,-187.59 1054.71,-187.442 1056.93,-194.08"/>
</g>
<!-- Node34 -->
<g id="node34" class="node"><title>Node34</title>
<g id="a_node34"><a xlink:href="FilterParameter_8h.xhtml" target="_top" xlink:title="Filter/FilterParameter.h">
<polygon fill="none" stroke="black" points="704,-224.5 704,-243.5 820,-243.5 820,-224.5 704,-224.5"/>
<text text-anchor="middle" x="762" y="-231.5" font-family="Helvetica,sans-Serif" font-size="10.00">Filter/FilterParameter.h</text>
</a>
</g>
</g>
<!-- Node3&#45;&gt;Node34 -->
<g id="edge41" class="edge"><title>Node3&#45;&gt;Node34</title>
<path fill="none" stroke="midnightblue" d="M762,-280.083C762,-273.006 762,-262.861 762,-253.986"/>
<polygon fill="midnightblue" stroke="midnightblue" points="765.5,-253.751 762,-243.751 758.5,-253.751 765.5,-253.751"/>
</g>
<!-- Node35 -->
<g id="node35" class="node"><title>Node35</title>
<g id="a_node35"><a xlink:href="Logger_8h.xhtml" target="_top" xlink:title="Logger.h">
<polygon fill="none" stroke="black" points="233,-168.5 233,-187.5 287,-187.5 287,-168.5 233,-168.5"/>
<text text-anchor="middle" x="260" y="-175.5" font-family="Helvetica,sans-Serif" font-size="10.00">Logger.h</text>
</a>
</g>
</g>
<!-- Node3&#45;&gt;Node35 -->
<g id="edge43" class="edge"><title>Node3&#45;&gt;Node35</title>
<path fill="none" stroke="midnightblue" d="M738.461,-283.842C658.226,-266.261 395.015,-208.585 297.115,-187.133"/>
<polygon fill="midnightblue" stroke="midnightblue" points="297.606,-183.657 287.088,-184.936 296.107,-190.495 297.606,-183.657"/>
</g>
<!-- Node5 -->
<g id="node5" class="node"><title>Node5</title>
<g id="a_node5"><a xlink:href="Common_8h.xhtml" target="_top" xlink:title="Common.h">
<polygon fill="none" stroke="black" points="705.5,-112.5 705.5,-131.5 770.5,-131.5 770.5,-112.5 705.5,-112.5"/>
<text text-anchor="middle" x="738" y="-119.5" font-family="Helvetica,sans-Serif" font-size="10.00">Common.h</text>
</a>
</g>
</g>
<!-- Node4&#45;&gt;Node5 -->
<g id="edge4" class="edge"><title>Node4&#45;&gt;Node5</title>
<path fill="none" stroke="midnightblue" d="M630.911,-224.143C625.402,-210.764 617.531,-185.143 629,-168 637.086,-155.914 669.761,-143.385 697.246,-134.626"/>
<polygon fill="midnightblue" stroke="midnightblue" points="698.567,-137.881 707.082,-131.577 696.494,-131.195 698.567,-137.881"/>
</g>
<!-- Node11 -->
<g id="node11" class="node"><title>Node11</title>
<polygon fill="none" stroke="#bfbfbf" points="101,-56.5 101,-75.5 153,-75.5 153,-56.5 101,-56.5"/>
<text text-anchor="middle" x="127" y="-63.5" font-family="Helvetica,sans-Serif" font-size="10.00">sstream</text>
</g>
<!-- Node4&#45;&gt;Node11 -->
<g id="edge36" class="edge"><title>Node4&#45;&gt;Node11</title>
<path fill="none" stroke="midnightblue" d="M608.397,-232.674C528.301,-231.293 290.836,-224.174 224,-188 180.539,-164.477 149.535,-112.482 135.467,-84.9361"/>
<polygon fill="midnightblue" stroke="midnightblue" points="138.47,-83.1126 130.914,-75.6863 132.19,-86.204 138.47,-83.1126"/>
</g>
<!-- Node27 -->
<g id="node27" class="node"><title>Node27</title>
<g id="a_node27"><a xlink:href="Point_8h.xhtml" target="_top" xlink:title="Point.h">
<polygon fill="none" stroke="black" points="790.5,-168.5 790.5,-187.5 837.5,-187.5 837.5,-168.5 790.5,-168.5"/>
<text text-anchor="middle" x="814" y="-175.5" font-family="Helvetica,sans-Serif" font-size="10.00">Point.h</text>
</a>
</g>
</g>
<!-- Node4&#45;&gt;Node27 -->
<g id="edge26" class="edge"><title>Node4&#45;&gt;Node27</title>
<path fill="none" stroke="midnightblue" d="M661.798,-224.916C693.577,-215.329 746.55,-199.348 780.871,-188.994"/>
<polygon fill="midnightblue" stroke="midnightblue" points="781.888,-192.343 790.451,-186.104 779.866,-185.642 781.888,-192.343"/>
</g>
<!-- Node30 -->
<g id="node30" class="node"><title>Node30</title>
<g id="a_node30"><a xlink:href="VideoMode_8h.xhtml" target="_top" xlink:title="VideoMode.h">
<polygon fill="none" stroke="black" points="359,-112.5 359,-131.5 433,-131.5 433,-112.5 359,-112.5"/>
<text text-anchor="middle" x="396" y="-119.5" font-family="Helvetica,sans-Serif" font-size="10.00">VideoMode.h</text>
</a>
</g>
</g>
<!-- Node4&#45;&gt;Node30 -->
<g id="edge30" class="edge"><title>Node4&#45;&gt;Node30</title>
<path fill="none" stroke="midnightblue" d="M616.246,-224.368C574.361,-205.091 473.031,-158.454 423.788,-135.789"/>
<polygon fill="midnightblue" stroke="midnightblue" points="425.214,-132.593 414.667,-131.591 422.288,-138.952 425.214,-132.593"/>
</g>
<!-- Node31 -->
<g id="node31" class="node"><title>Node31</title>
<g id="a_node31"><a xlink:href="SerializedObject_8h.xhtml" target="_top" xlink:title="SerializedObject.h">
<polygon fill="none" stroke="black" points="638,-168.5 638,-187.5 734,-187.5 734,-168.5 638,-168.5"/>
<text text-anchor="middle" x="686" y="-175.5" font-family="Helvetica,sans-Serif" font-size="10.00">SerializedObject.h</text>
</a>
</g>
</g>
<!-- Node4&#45;&gt;Node31 -->
<g id="edge32" class="edge"><title>Node4&#45;&gt;Node31</title>
<path fill="none" stroke="midnightblue" d="M643.422,-224.083C650.848,-216.22 661.852,-204.569 670.812,-195.081"/>
<polygon fill="midnightblue" stroke="midnightblue" points="673.413,-197.424 677.735,-187.751 668.324,-192.618 673.413,-197.424"/>
</g>
<!-- Node6 -->
<g id="node6" class="node"><title>Node6</title>
<polygon fill="none" stroke="#bfbfbf" points="716,-56.5 716,-75.5 760,-75.5 760,-56.5 716,-56.5"/>
<text text-anchor="middle" x="738" y="-63.5" font-family="Helvetica,sans-Serif" font-size="10.00">vector</text>
</g>
<!-- Node5&#45;&gt;Node6 -->
<g id="edge5" class="edge"><title>Node5&#45;&gt;Node6</title>
<path fill="none" stroke="midnightblue" d="M738,-112.083C738,-105.006 738,-94.8611 738,-85.9865"/>
<polygon fill="midnightblue" stroke="midnightblue" points="741.5,-85.751 738,-75.7511 734.5,-85.7511 741.5,-85.751"/>
</g>
<!-- Node7 -->
<g id="node7" class="node"><title>Node7</title>
<polygon fill="none" stroke="#bfbfbf" points="305.5,-56.5 305.5,-75.5 354.5,-75.5 354.5,-56.5 305.5,-56.5"/>
<text text-anchor="middle" x="330" y="-63.5" font-family="Helvetica,sans-Serif" font-size="10.00">stdint.h</text>
</g>
<!-- Node5&#45;&gt;Node7 -->
<g id="edge6" class="edge"><title>Node5&#45;&gt;Node7</title>
<path fill="none" stroke="midnightblue" d="M705.046,-113.602C701.995,-113.019 698.945,-112.473 696,-112 552.326,-88.9036 511.108,-103.003 365.008,-76.1261"/>
<polygon fill="midnightblue" stroke="midnightblue" points="365.242,-72.6092 354.768,-74.2076 363.952,-79.4894 365.242,-72.6092"/>
</g>
<!-- Node8 -->
<g id="node8" class="node"><title>Node8</title>
<polygon fill="none" stroke="#bfbfbf" points="778.5,-56.5 778.5,-75.5 819.5,-75.5 819.5,-56.5 778.5,-56.5"/>
<text text-anchor="middle" x="799" y="-63.5" font-family="Helvetica,sans-Serif" font-size="10.00">string</text>
</g>
<!-- Node5&#45;&gt;Node8 -->
<g id="edge7" class="edge"><title>Node5&#45;&gt;Node8</title>
<path fill="none" stroke="midnightblue" d="M747.801,-112.324C756.818,-104.341 770.406,-92.3128 781.318,-82.6529"/>
<polygon fill="midnightblue" stroke="midnightblue" points="783.853,-85.083 789.021,-75.8339 779.213,-79.8416 783.853,-85.083"/>
</g>
<!-- Node9 -->
<g id="node9" class="node"><title>Node9</title>
<polygon fill="none" stroke="#bfbfbf" points="233,-56.5 233,-75.5 287,-75.5 287,-56.5 233,-56.5"/>
<text text-anchor="middle" x="260" y="-63.5" font-family="Helvetica,sans-Serif" font-size="10.00">iostream</text>
</g>
<!-- Node5&#45;&gt;Node9 -->
<g id="edge8" class="edge"><title>Node5&#45;&gt;Node9</title>
<path fill="none" stroke="midnightblue" d="M705.054,-113.545C702.002,-112.974 698.949,-112.447 696,-112 522.708,-85.734 473.761,-105.011 296.924,-75.893"/>
<polygon fill="midnightblue" stroke="midnightblue" points="297.473,-72.4362 287.032,-74.2361 296.316,-79.34 297.473,-72.4362"/>
</g>
<!-- Node10 -->
<g id="node10" class="node"><title>Node10</title>
<polygon fill="none" stroke="#bfbfbf" points="838,-56.5 838,-75.5 888,-75.5 888,-56.5 838,-56.5"/>
<text text-anchor="middle" x="863" y="-63.5" font-family="Helvetica,sans-Serif" font-size="10.00">fstream</text>
</g>
<!-- Node5&#45;&gt;Node10 -->
<g id="edge9" class="edge"><title>Node5&#45;&gt;Node10</title>
<path fill="none" stroke="midnightblue" d="M757.807,-112.444C778.287,-103.596 810.483,-89.6875 833.865,-79.5865"/>
<polygon fill="midnightblue" stroke="midnightblue" points="835.494,-82.6953 843.286,-75.5164 832.718,-76.2692 835.494,-82.6953"/>
</g>
<!-- Node5&#45;&gt;Node11 -->
<g id="edge10" class="edge"><title>Node5&#45;&gt;Node11</title>
<path fill="none" stroke="midnightblue" d="M705.065,-113.474C702.01,-112.918 698.954,-112.414 696,-112 463.65,-79.4454 398.623,-112.842 163.155,-75.885"/>
<polygon fill="midnightblue" stroke="midnightblue" points="163.69,-72.4263 153.264,-74.3073 162.587,-79.3389 163.69,-72.4263"/>
</g>
<!-- Node12 -->
<g id="node12" class="node"><title>Node12</title>
<polygon fill="none" stroke="#bfbfbf" points="906.5,-56.5 906.5,-75.5 989.5,-75.5 989.5,-56.5 906.5,-56.5"/>
<text text-anchor="middle" x="948" y="-63.5" font-family="Helvetica,sans-Serif" font-size="10.00">unordered_map</text>
</g>
<!-- Node5&#45;&gt;Node12 -->
<g id="edge11" class="edge"><title>Node5&#45;&gt;Node12</title>
<path fill="none" stroke="midnightblue" d="M770.812,-112.562C806.97,-103.265 865.261,-88.2757 905.036,-78.0478"/>
<polygon fill="midnightblue" stroke="midnightblue" points="905.912,-81.4367 914.725,-75.5565 904.168,-74.6572 905.912,-81.4367"/>
</g>
<!-- Node13 -->
<g id="node13" class="node"><title>Node13</title>
<polygon fill="none" stroke="#bfbfbf" points="1007.5,-56.5 1007.5,-75.5 1066.5,-75.5 1066.5,-56.5 1007.5,-56.5"/>
<text text-anchor="middle" x="1037" y="-63.5" font-family="Helvetica,sans-Serif" font-size="10.00">functional</text>
</g>
<!-- Node5&#45;&gt;Node13 -->
<g id="edge12" class="edge"><title>Node5&#45;&gt;Node13</title>
<path fill="none" stroke="midnightblue" d="M770.599,-114.663C775.424,-113.752 780.34,-112.84 785,-112 876.35,-95.5361 902.155,-94.8323 997.187,-76.0612"/>
<polygon fill="midnightblue" stroke="midnightblue" points="998.105,-79.4473 1007.23,-74.0619 996.738,-72.582 998.105,-79.4473"/>
</g>
<!-- Node14 -->
<g id="node14" class="node"><title>Node14</title>
<polygon fill="none" stroke="#bfbfbf" points="1084.5,-56.5 1084.5,-75.5 1113.5,-75.5 1113.5,-56.5 1084.5,-56.5"/>
<text text-anchor="middle" x="1099" y="-63.5" font-family="Helvetica,sans-Serif" font-size="10.00">list</text>
</g>
<!-- Node5&#45;&gt;Node14 -->
<g id="edge13" class="edge"><title>Node5&#45;&gt;Node14</title>
<path fill="none" stroke="midnightblue" d="M770.568,-114.477C775.397,-113.593 780.322,-112.737 785,-112 910.162,-92.2696 947.087,-106.293 1074.7,-75.4778"/>
<polygon fill="midnightblue" stroke="midnightblue" points="1075.57,-78.8661 1084.45,-73.0789 1073.9,-72.0686 1075.57,-78.8661"/>
</g>
<!-- Node15 -->
<g id="node15" class="node"><title>Node15</title>
<polygon fill="none" stroke="#bfbfbf" points="1132,-56.5 1132,-75.5 1162,-75.5 1162,-56.5 1132,-56.5"/>
<text text-anchor="middle" x="1147" y="-63.5" font-family="Helvetica,sans-Serif" font-size="10.00">set</text>
</g>
<!-- Node5&#45;&gt;Node15 -->
<g id="edge14" class="edge"><title>Node5&#45;&gt;Node15</title>
<path fill="none" stroke="midnightblue" d="M770.556,-114.404C775.388,-113.53 780.316,-112.697 785,-112 933.987,-89.8163 975.2,-109.752 1122,-76 1122.1,-75.9767 1122.2,-75.9532 1122.3,-75.9294"/>
<polygon fill="midnightblue" stroke="midnightblue" points="1123.24,-79.3027 1131.84,-73.1113 1121.25,-72.5898 1123.24,-79.3027"/>
</g>
<!-- Node16 -->
<g id="node16" class="node"><title>Node16</title>
<polygon fill="none" stroke="#bfbfbf" points="1180,-56.5 1180,-75.5 1226,-75.5 1226,-56.5 1180,-56.5"/>
<text text-anchor="middle" x="1203" y="-63.5" font-family="Helvetica,sans-Serif" font-size="10.00">atomic</text>
</g>
<!-- Node5&#45;&gt;Node16 -->
<g id="edge15" class="edge"><title>Node5&#45;&gt;Node16</title>
<path fill="none" stroke="midnightblue" d="M770.548,-114.348C775.381,-113.482 780.312,-112.667 785,-112 951.907,-88.272 999.123,-106.02 1169.61,-75.7165"/>
<polygon fill="midnightblue" stroke="midnightblue" points="1170.46,-79.1194 1179.68,-73.8968 1169.22,-72.231 1170.46,-79.1194"/>
</g>
<!-- Node17 -->
<g id="node17" class="node"><title>Node17</title>
<polygon fill="none" stroke="#bfbfbf" points="1244,-56.5 1244,-75.5 1290,-75.5 1290,-56.5 1244,-56.5"/>
<text text-anchor="middle" x="1267" y="-63.5" font-family="Helvetica,sans-Serif" font-size="10.00">cctype</text>
</g>
<!-- Node5&#45;&gt;Node17 -->
<g id="edge16" class="edge"><title>Node5&#45;&gt;Node17</title>
<path fill="none" stroke="midnightblue" d="M770.54,-114.291C775.374,-113.434 780.307,-112.635 785,-112 980.623,-85.526 1035.73,-110.496 1233.85,-75.867"/>
<polygon fill="midnightblue" stroke="midnightblue" points="1234.47,-79.3123 1243.7,-74.1172 1233.25,-72.4202 1234.47,-79.3123"/>
</g>
<!-- Node18 -->
<g id="node18" class="node"><title>Node18</title>
<polygon fill="none" stroke="#bfbfbf" points="1308,-56.5 1308,-75.5 1364,-75.5 1364,-56.5 1308,-56.5"/>
<text text-anchor="middle" x="1336" y="-63.5" font-family="Helvetica,sans-Serif" font-size="10.00">algorithm</text>
</g>
<!-- Node5&#45;&gt;Node18 -->
<g id="edge17" class="edge"><title>Node5&#45;&gt;Node18</title>
<path fill="none" stroke="midnightblue" d="M770.535,-114.249C775.369,-113.397 780.304,-112.612 785,-112 1008.87,-82.8317 1070.97,-110.385 1297.93,-75.899"/>
<polygon fill="midnightblue" stroke="midnightblue" points="1298.47,-79.3581 1307.82,-74.3742 1297.4,-72.44 1298.47,-79.3581"/>
</g>
<!-- Node19 -->
<g id="node19" class="node"><title>Node19</title>
<polygon fill="none" stroke="#bfbfbf" points="372.5,-56.5 372.5,-75.5 425.5,-75.5 425.5,-56.5 372.5,-56.5"/>
<text text-anchor="middle" x="399" y="-63.5" font-family="Helvetica,sans-Serif" font-size="10.00">complex</text>
</g>
<!-- Node5&#45;&gt;Node19 -->
<g id="edge18" class="edge"><title>Node5&#45;&gt;Node19</title>
<path fill="none" stroke="midnightblue" d="M705.487,-113.784C702.288,-113.149 699.085,-112.542 696,-112 583.825,-92.2729 551.711,-97.8964 435.655,-75.9262"/>
<polygon fill="midnightblue" stroke="midnightblue" points="436.146,-72.4564 425.665,-74.0067 434.825,-79.3307 436.146,-72.4564"/>
</g>
<!-- Node20 -->
<g id="node20" class="node"><title>Node20</title>
<polygon fill="none" stroke="#bfbfbf" points="171,-56.5 171,-75.5 215,-75.5 215,-56.5 171,-56.5"/>
<text text-anchor="middle" x="193" y="-63.5" font-family="Helvetica,sans-Serif" font-size="10.00">thread</text>
</g>
<!-- Node5&#45;&gt;Node20 -->
<g id="edge19" class="edge"><title>Node5&#45;&gt;Node20</title>
<path fill="none" stroke="midnightblue" d="M705.061,-113.502C702.007,-112.94 698.952,-112.427 696,-112 491.032,-82.3608 432.824,-112.555 225.22,-75.8457"/>
<polygon fill="midnightblue" stroke="midnightblue" points="225.682,-72.3727 215.22,-74.0466 224.442,-79.262 225.682,-72.3727"/>
</g>
<!-- Node21 -->
<g id="node21" class="node"><title>Node21</title>
<g id="a_node21"><a xlink:href="Ptr_8h.xhtml" target="_top" xlink:title="Ptr.h">
<polygon fill="none" stroke="black" points="1382,-56.5 1382,-75.5 1420,-75.5 1420,-56.5 1382,-56.5"/>
<text text-anchor="middle" x="1401" y="-63.5" font-family="Helvetica,sans-Serif" font-size="10.00">Ptr.h</text>
</a>
</g>
</g>
<!-- Node5&#45;&gt;Node21 -->
<g id="edge20" class="edge"><title>Node5&#45;&gt;Node21</title>
<path fill="none" stroke="midnightblue" d="M770.66,-116.973C785.146,-115.278 802.408,-113.383 818,-112 1063.78,-90.2017 1129.37,-120.879 1372,-76 1372.1,-75.9814 1372.2,-75.9626 1372.3,-75.9436"/>
<polygon fill="midnightblue" stroke="midnightblue" points="1372.92,-79.3959 1381.82,-73.6478 1371.27,-72.5912 1372.92,-79.3959"/>
</g>
<!-- Node23 -->
<g id="node23" class="node"><title>Node23</title>
<polygon fill="none" stroke="#bfbfbf" points="444,-56.5 444,-75.5 488,-75.5 488,-56.5 444,-56.5"/>
<text text-anchor="middle" x="466" y="-63.5" font-family="Helvetica,sans-Serif" font-size="10.00">mutex</text>
</g>
<!-- Node5&#45;&gt;Node23 -->
<g id="edge22" class="edge"><title>Node5&#45;&gt;Node23</title>
<path fill="none" stroke="midnightblue" d="M705.462,-113.92C702.268,-113.257 699.073,-112.607 696,-112 610.924,-95.1939 586.218,-96.4423 498.162,-76.0808"/>
<polygon fill="midnightblue" stroke="midnightblue" points="498.813,-72.6386 488.278,-73.7671 497.217,-79.4543 498.813,-72.6386"/>
</g>
<!-- Node24 -->
<g id="node24" class="node"><title>Node24</title>
<polygon fill="none" stroke="#bfbfbf" points="506.5,-56.5 506.5,-75.5 601.5,-75.5 601.5,-56.5 506.5,-56.5"/>
<text text-anchor="middle" x="554" y="-63.5" font-family="Helvetica,sans-Serif" font-size="10.00">condition_variable</text>
</g>
<!-- Node5&#45;&gt;Node24 -->
<g id="edge23" class="edge"><title>Node5&#45;&gt;Node24</title>
<path fill="none" stroke="midnightblue" d="M708.845,-112.444C677.487,-103.241 627.469,-88.5617 592.803,-78.3879"/>
<polygon fill="midnightblue" stroke="midnightblue" points="593.6,-74.9742 583.019,-75.5164 591.629,-81.6909 593.6,-74.9742"/>
</g>
<!-- Node25 -->
<g id="node25" class="node"><title>Node25</title>
<polygon fill="none" stroke="#bfbfbf" points="620,-56.5 620,-75.5 698,-75.5 698,-56.5 620,-56.5"/>
<text text-anchor="middle" x="659" y="-63.5" font-family="Helvetica,sans-Serif" font-size="10.00">VoxelConfig.h</text>
</g>
<!-- Node5&#45;&gt;Node25 -->
<g id="edge24" class="edge"><title>Node5&#45;&gt;Node25</title>
<path fill="none" stroke="midnightblue" d="M725.307,-112.324C713.099,-103.979 694.422,-91.2122 679.997,-81.3524"/>
<polygon fill="midnightblue" stroke="midnightblue" points="681.892,-78.4082 671.661,-75.6545 677.942,-84.1871 681.892,-78.4082"/>
</g>
<!-- Node5&#45;&gt;Node26 -->
<g id="edge25" class="edge"><title>Node5&#45;&gt;Node26</title>
<path fill="none" stroke="midnightblue" d="M705.068,-113.45C702.013,-112.899 698.956,-112.402 696,-112 432.79,-76.1654 360.828,-106.656 92.7211,-75.9276"/>
<polygon fill="midnightblue" stroke="midnightblue" points="93.0285,-72.4399 82.6908,-74.7602 92.2191,-79.3929 93.0285,-72.4399"/>
</g>
<!-- Node21&#45;&gt;Node22 -->
<g id="edge21" class="edge"><title>Node21&#45;&gt;Node22</title>
<path fill="none" stroke="midnightblue" d="M1404.8,-56.083C1407.91,-48.77 1412.42,-38.1814 1416.29,-29.1034"/>
<polygon fill="midnightblue" stroke="midnightblue" points="1419.57,-30.3229 1420.27,-19.7511 1413.13,-27.5798 1419.57,-30.3229"/>
</g>
<!-- Node27&#45;&gt;Node5 -->
<g id="edge29" class="edge"><title>Node27&#45;&gt;Node5</title>
<path fill="none" stroke="midnightblue" d="M801.789,-168.324C790.224,-160.107 772.625,-147.602 758.839,-137.807"/>
<polygon fill="midnightblue" stroke="midnightblue" points="760.612,-134.773 750.433,-131.834 756.557,-140.479 760.612,-134.773"/>
</g>
<!-- Node28 -->
<g id="node28" class="node"><title>Node28</title>
<polygon fill="none" stroke="#bfbfbf" points="907.5,-112.5 907.5,-131.5 954.5,-131.5 954.5,-112.5 907.5,-112.5"/>
<text text-anchor="middle" x="931" y="-119.5" font-family="Helvetica,sans-Serif" font-size="10.00">math.h</text>
</g>
<!-- Node27&#45;&gt;Node28 -->
<g id="edge27" class="edge"><title>Node27&#45;&gt;Node28</title>
<path fill="none" stroke="midnightblue" d="M832.539,-168.444C851.623,-159.636 881.575,-145.812 903.436,-135.722"/>
<polygon fill="midnightblue" stroke="midnightblue" points="904.935,-138.885 912.548,-131.516 902.001,-132.529 904.935,-138.885"/>
</g>
<!-- Node29 -->
<g id="node29" class="node"><title>Node29</title>
<polygon fill="none" stroke="#bfbfbf" points="827,-112.5 827,-131.5 889,-131.5 889,-112.5 827,-112.5"/>
<text text-anchor="middle" x="858" y="-119.5" font-family="Helvetica,sans-Serif" font-size="10.00">type_traits</text>
</g>
<!-- Node27&#45;&gt;Node29 -->
<g id="edge28" class="edge"><title>Node27&#45;&gt;Node29</title>
<path fill="none" stroke="midnightblue" d="M821.266,-168.083C827.545,-160.377 836.788,-149.033 844.431,-139.653"/>
<polygon fill="midnightblue" stroke="midnightblue" points="847.266,-141.714 850.869,-131.751 841.839,-137.293 847.266,-141.714"/>
</g>
<!-- Node30&#45;&gt;Node7 -->
<g id="edge31" class="edge"><title>Node30&#45;&gt;Node7</title>
<path fill="none" stroke="midnightblue" d="M385.396,-112.324C375.544,-104.263 360.649,-92.0765 348.785,-82.3695"/>
<polygon fill="midnightblue" stroke="midnightblue" points="350.753,-79.4575 340.797,-75.8339 346.32,-84.8752 350.753,-79.4575"/>
</g>
<!-- Node31&#45;&gt;Node5 -->
<g id="edge33" class="edge"><title>Node31&#45;&gt;Node5</title>
<path fill="none" stroke="midnightblue" d="M694.587,-168.083C702.159,-160.22 713.378,-148.569 722.514,-139.081"/>
<polygon fill="midnightblue" stroke="midnightblue" points="725.158,-141.382 729.573,-131.751 720.115,-136.527 725.158,-141.382"/>
</g>
<!-- Node31&#45;&gt;Node18 -->
<g id="edge35" class="edge"><title>Node31&#45;&gt;Node18</title>
<path fill="none" stroke="midnightblue" d="M703.889,-168.496C722.659,-159.537 752.992,-144.959 779,-132 796.435,-123.313 799.248,-117.276 818,-112 1021.24,-54.8148 1085.31,-107.792 1297.91,-75.8918"/>
<polygon fill="midnightblue" stroke="midnightblue" points="1298.47,-79.3468 1307.81,-74.3601 1297.4,-72.429 1298.47,-79.3468"/>
</g>
<!-- Node32 -->
<g id="node32" class="node"><title>Node32</title>
<polygon fill="none" stroke="#bfbfbf" points="638.5,-112.5 638.5,-131.5 687.5,-131.5 687.5,-112.5 638.5,-112.5"/>
<text text-anchor="middle" x="663" y="-119.5" font-family="Helvetica,sans-Serif" font-size="10.00">string.h</text>
</g>
<!-- Node31&#45;&gt;Node32 -->
<g id="edge34" class="edge"><title>Node31&#45;&gt;Node32</title>
<path fill="none" stroke="midnightblue" d="M682.202,-168.083C679.087,-160.77 674.577,-150.181 670.711,-141.103"/>
<polygon fill="midnightblue" stroke="midnightblue" points="673.866,-139.58 666.727,-131.751 667.426,-142.323 673.866,-139.58"/>
</g>
<!-- Node33&#45;&gt;Node5 -->
<g id="edge39" class="edge"><title>Node33&#45;&gt;Node5</title>
<path fill="none" stroke="midnightblue" d="M1051.19,-170.91C984.306,-160.678 849.935,-140.123 780.979,-129.575"/>
<polygon fill="midnightblue" stroke="midnightblue" points="781.309,-126.085 770.895,-128.032 780.251,-133.004 781.309,-126.085"/>
</g>
<!-- Node33&#45;&gt;Node18 -->
<g id="edge40" class="edge"><title>Node33&#45;&gt;Node18</title>
<path fill="none" stroke="midnightblue" d="M1110.22,-168.368C1153.16,-149.091 1257.04,-102.454 1307.51,-79.7894"/>
<polygon fill="midnightblue" stroke="midnightblue" points="1309.18,-82.8803 1316.86,-75.5914 1306.31,-76.4944 1309.18,-82.8803"/>
</g>
<!-- Node33&#45;&gt;Node21 -->
<g id="edge38" class="edge"><title>Node33&#45;&gt;Node21</title>
<path fill="none" stroke="midnightblue" d="M1118.15,-168.454C1145.87,-159.64 1190.1,-145.339 1228,-132 1279.24,-113.969 1338.36,-91.3609 1372.54,-78.1142"/>
<polygon fill="midnightblue" stroke="midnightblue" points="1373.84,-81.3619 1381.9,-74.4784 1371.31,-74.8369 1373.84,-81.3619"/>
</g>
<!-- Node34&#45;&gt;Node5 -->
<g id="edge42" class="edge"><title>Node34&#45;&gt;Node5</title>
<path fill="none" stroke="midnightblue" d="M760.117,-224.368C756.244,-206.617 747.309,-165.666 742.058,-141.597"/>
<polygon fill="midnightblue" stroke="midnightblue" points="745.426,-140.615 739.874,-131.591 738.587,-142.108 745.426,-140.615"/>
</g>
<!-- Node35&#45;&gt;Node5 -->
<g id="edge47" class="edge"><title>Node35&#45;&gt;Node5</title>
<path fill="none" stroke="midnightblue" d="M287.174,-175.223C354.525,-170.6 534.702,-156.905 695.006,-131.993"/>
<polygon fill="midnightblue" stroke="midnightblue" points="695.713,-135.425 705.048,-130.414 694.626,-128.51 695.713,-135.425"/>
</g>
<!-- Node35&#45;&gt;Node9 -->
<g id="edge44" class="edge"><title>Node35&#45;&gt;Node9</title>
<path fill="none" stroke="midnightblue" d="M260,-168.368C260,-150.617 260,-109.666 260,-85.5974"/>
<polygon fill="midnightblue" stroke="midnightblue" points="263.5,-85.5914 260,-75.5914 256.5,-85.5915 263.5,-85.5914"/>
</g>
<!-- Node35&#45;&gt;Node11 -->
<g id="edge45" class="edge"><title>Node35&#45;&gt;Node11</title>
<path fill="none" stroke="midnightblue" d="M249.564,-168.368C227.032,-149.733 173.589,-105.532 145.298,-82.1338"/>
<polygon fill="midnightblue" stroke="midnightblue" points="147.324,-79.2677 137.388,-75.5914 142.863,-84.6618 147.324,-79.2677"/>
</g>
<!-- Node35&#45;&gt;Node20 -->
<g id="edge46" class="edge"><title>Node35&#45;&gt;Node20</title>
<path fill="none" stroke="midnightblue" d="M254.743,-168.368C243.735,-150.296 218.08,-108.176 203.542,-84.3074"/>
<polygon fill="midnightblue" stroke="midnightblue" points="206.424,-82.3112 198.233,-75.5914 200.446,-85.9526 206.424,-82.3112"/>
</g>
<!-- Node36&#45;&gt;Node5 -->
<g id="edge51" class="edge"><title>Node36&#45;&gt;Node5</title>
<path fill="none" stroke="midnightblue" d="M880.221,-168.444C851.667,-159.32 806.267,-144.813 774.463,-134.651"/>
<polygon fill="midnightblue" stroke="midnightblue" points="775.244,-131.226 764.653,-131.516 773.114,-137.894 775.244,-131.226"/>
</g>
<!-- Node36&#45;&gt;Node28 -->
<g id="edge52" class="edge"><title>Node36&#45;&gt;Node28</title>
<path fill="none" stroke="midnightblue" d="M910.963,-168.083C914.213,-160.77 918.919,-150.181 922.954,-141.103"/>
<polygon fill="midnightblue" stroke="midnightblue" points="926.248,-142.311 927.111,-131.751 919.851,-139.468 926.248,-142.311"/>
</g>
</g>
</svg>
