<?xml version="1.0" encoding="UTF-8" standalone="no"?>
<!DOCTYPE svg PUBLIC "-//W3C//DTD SVG 1.1//EN"
 "http://www.w3.org/Graphics/SVG/1.1/DTD/svg11.dtd">
<!-- Generated by graphviz version 2.36.0 (20140111.2315)
 -->
<!-- Title: CameraSystem.h Pages: 1 -->
<svg width="1351pt" height="140pt"
 viewBox="0.00 0.00 1351.00 140.00" xmlns="http://www.w3.org/2000/svg" xmlns:xlink="http://www.w3.org/1999/xlink">
<g id="graph0" class="graph" transform="scale(1 1) rotate(0) translate(4 136)">
<title>CameraSystem.h</title>
<!-- Node1 -->
<g id="node1" class="node"><title>Node1</title>
<polygon fill="#bfbfbf" stroke="black" points="620.5,-112.5 620.5,-131.5 713.5,-131.5 713.5,-112.5 620.5,-112.5"/>
<text text-anchor="middle" x="667" y="-119.5" font-family="Helvetica,sans-Serif" font-size="10.00">CameraSystem.h</text>
</g>
<!-- Node2 -->
<g id="node2" class="node"><title>Node2</title>
<g id="a_node2"><a xlink:href="CLIManager_8h.xhtml" target="_top" xlink:title="CLIManager.h">
<polygon fill="none" stroke="black" points="39,-56.5 39,-75.5 117,-75.5 117,-56.5 39,-56.5"/>
<text text-anchor="middle" x="78" y="-63.5" font-family="Helvetica,sans-Serif" font-size="10.00">CLIManager.h</text>
</a>
</g>
</g>
<!-- Node1&#45;&gt;Node2 -->
<g id="edge1" class="edge"><title>Node1&#45;&gt;Node2</title>
<path fill="none" stroke="midnightblue" d="M610.271,-117.817C512.269,-111.966 305.031,-98.0417 131,-76 126.463,-75.4254 121.721,-74.741 117.019,-74.0099"/>
<polygon fill="midnightblue" stroke="midnightblue" points="610.069,-121.311 620.259,-118.408 610.483,-114.323 610.069,-121.311"/>
</g>
<!-- Node4 -->
<g id="node4" class="node"><title>Node4</title>
<g id="a_node4"><a xlink:href="VoxelCLI_8cpp.xhtml" target="_top" xlink:title="VoxelCLI.cpp">
<polygon fill="none" stroke="black" points="107,-0.5 107,-19.5 183,-19.5 183,-0.5 107,-0.5"/>
<text text-anchor="middle" x="145" y="-7.5" font-family="Helvetica,sans-Serif" font-size="10.00">VoxelCLI.cpp</text>
</a>
</g>
</g>
<!-- Node1&#45;&gt;Node4 -->
<g id="edge5" class="edge"><title>Node1&#45;&gt;Node4</title>
<path fill="none" stroke="midnightblue" d="M610.416,-119.484C486.182,-115.656 197.891,-103.848 164,-76 147.104,-62.1171 144.73,-34.0947 144.695,-19.808"/>
<polygon fill="midnightblue" stroke="midnightblue" points="610.394,-122.985 620.495,-119.789 610.605,-115.988 610.394,-122.985"/>
</g>
<!-- Node5 -->
<g id="node5" class="node"><title>Node5</title>
<g id="a_node5"><a xlink:href="SimpleVoxelViewer_8cpp.xhtml" target="_top" xlink:title="SimpleVoxelViewer.cpp">
<polygon fill="none" stroke="black" points="173,-56.5 173,-75.5 293,-75.5 293,-56.5 173,-56.5"/>
<text text-anchor="middle" x="233" y="-63.5" font-family="Helvetica,sans-Serif" font-size="10.00">SimpleVoxelViewer.cpp</text>
</a>
</g>
</g>
<!-- Node1&#45;&gt;Node5 -->
<g id="edge4" class="edge"><title>Node1&#45;&gt;Node5</title>
<path fill="none" stroke="midnightblue" d="M610.133,-114.115C538.32,-105.391 410.97,-89.8239 302,-76 299.124,-75.6351 296.18,-75.2595 293.208,-74.8785"/>
<polygon fill="midnightblue" stroke="midnightblue" points="609.968,-117.62 620.317,-115.351 610.811,-110.671 609.968,-117.62"/>
</g>
<!-- Node6 -->
<g id="node6" class="node"><title>Node6</title>
<g id="a_node6"><a xlink:href="CameraSystemConfigTest_8cpp.xhtml" target="_top" xlink:title="CameraSystemConfigTest.cpp">
<polygon fill="none" stroke="black" points="311,-56.5 311,-75.5 463,-75.5 463,-56.5 311,-56.5"/>
<text text-anchor="middle" x="387" y="-63.5" font-family="Helvetica,sans-Serif" font-size="10.00">CameraSystemConfigTest.cpp</text>
</a>
</g>
</g>
<!-- Node1&#45;&gt;Node6 -->
<g id="edge6" class="edge"><title>Node1&#45;&gt;Node6</title>
<path fill="none" stroke="midnightblue" d="M612.748,-110.537C559.83,-100.332 480.329,-84.9992 431.159,-75.5164"/>
<polygon fill="midnightblue" stroke="midnightblue" points="612.151,-113.986 622.633,-112.444 613.477,-107.113 612.151,-113.986"/>
</g>
<!-- Node7 -->
<g id="node7" class="node"><title>Node7</title>
<g id="a_node7"><a xlink:href="CameraSystemReadStreamTest_8cpp.xhtml" target="_top" xlink:title="CameraSystemReadStreamTest.cpp">
<polygon fill="none" stroke="black" points="481,-56.5 481,-75.5 659,-75.5 659,-56.5 481,-56.5"/>
<text text-anchor="middle" x="570" y="-63.5" font-family="Helvetica,sans-Serif" font-size="10.00">CameraSystemReadStreamTest.cpp</text>
</a>
</g>
</g>
<!-- Node1&#45;&gt;Node7 -->
<g id="edge7" class="edge"><title>Node1&#45;&gt;Node7</title>
<path fill="none" stroke="midnightblue" d="M642.665,-107.453C624.757,-97.4835 600.946,-84.2279 585.546,-75.6545"/>
<polygon fill="midnightblue" stroke="midnightblue" points="640.975,-110.518 651.415,-112.324 644.38,-104.402 640.975,-110.518"/>
</g>
<!-- Node8 -->
<g id="node8" class="node"><title>Node8</title>
<g id="a_node8"><a xlink:href="CameraSystemSaveStreamTest_8cpp.xhtml" target="_top" xlink:title="CameraSystemSaveStreamTest.cpp">
<polygon fill="none" stroke="black" points="676.5,-56.5 676.5,-75.5 853.5,-75.5 853.5,-56.5 676.5,-56.5"/>
<text text-anchor="middle" x="765" y="-63.5" font-family="Helvetica,sans-Serif" font-size="10.00">CameraSystemSaveStreamTest.cpp</text>
</a>
</g>
</g>
<!-- Node1&#45;&gt;Node8 -->
<g id="edge8" class="edge"><title>Node1&#45;&gt;Node8</title>
<path fill="none" stroke="midnightblue" d="M691.586,-107.453C709.678,-97.4835 733.735,-84.2279 749.294,-75.6545"/>
<polygon fill="midnightblue" stroke="midnightblue" points="689.815,-104.432 682.745,-112.324 693.193,-110.563 689.815,-104.432"/>
</g>
<!-- Node9 -->
<g id="node9" class="node"><title>Node9</title>
<g id="a_node9"><a xlink:href="CameraSystemTest_8cpp.xhtml" target="_top" xlink:title="CameraSystemTest.cpp">
<polygon fill="none" stroke="black" points="871.5,-56.5 871.5,-75.5 994.5,-75.5 994.5,-56.5 871.5,-56.5"/>
<text text-anchor="middle" x="933" y="-63.5" font-family="Helvetica,sans-Serif" font-size="10.00">CameraSystemTest.cpp</text>
</a>
</g>
</g>
<!-- Node1&#45;&gt;Node9 -->
<g id="edge9" class="edge"><title>Node1&#45;&gt;Node9</title>
<path fill="none" stroke="midnightblue" d="M719.168,-110.41C769.439,-100.204 844.532,-84.9597 891.049,-75.5164"/>
<polygon fill="midnightblue" stroke="midnightblue" points="718.252,-107.024 709.148,-112.444 719.645,-113.884 718.252,-107.024"/>
</g>
<!-- Node10 -->
<g id="node10" class="node"><title>Node10</title>
<g id="a_node10"><a xlink:href="SerialNumber_8cpp.xhtml" target="_top" xlink:title="SerialNumber.cpp">
<polygon fill="none" stroke="black" points="1012.5,-56.5 1012.5,-75.5 1107.5,-75.5 1107.5,-56.5 1012.5,-56.5"/>
<text text-anchor="middle" x="1060" y="-63.5" font-family="Helvetica,sans-Serif" font-size="10.00">SerialNumber.cpp</text>
</a>
</g>
</g>
<!-- Node1&#45;&gt;Node10 -->
<g id="edge10" class="edge"><title>Node1&#45;&gt;Node10</title>
<path fill="none" stroke="midnightblue" d="M723.833,-113.802C790.694,-105.237 905.016,-90.295 1003,-76 1006.07,-75.5517 1009.24,-75.0799 1012.43,-74.597"/>
<polygon fill="midnightblue" stroke="midnightblue" points="722.995,-110.38 713.52,-115.12 723.883,-117.324 722.995,-110.38"/>
</g>
<!-- Node11 -->
<g id="node11" class="node"><title>Node11</title>
<g id="a_node11"><a xlink:href="CameraSystem_8cpp.xhtml" target="_top" xlink:title="CameraSystem.cpp">
<polygon fill="none" stroke="black" points="1126,-56.5 1126,-75.5 1230,-75.5 1230,-56.5 1126,-56.5"/>
<text text-anchor="middle" x="1178" y="-63.5" font-family="Helvetica,sans-Serif" font-size="10.00">CameraSystem.cpp</text>
</a>
</g>
</g>
<!-- Node1&#45;&gt;Node11 -->
<g id="edge11" class="edge"><title>Node1&#45;&gt;Node11</title>
<path fill="none" stroke="midnightblue" d="M723.599,-116.137C808.829,-108.631 975.149,-93.2727 1116,-76 1119.24,-75.6028 1122.57,-75.1751 1125.93,-74.7296"/>
<polygon fill="midnightblue" stroke="midnightblue" points="723.27,-112.653 713.615,-117.013 723.882,-119.626 723.27,-112.653"/>
</g>
<!-- Node12 -->
<g id="node12" class="node"><title>Node12</title>
<g id="a_node12"><a xlink:href="FrameStream_8cpp.xhtml" target="_top" xlink:title="FrameStream.cpp">
<polygon fill="none" stroke="black" points="1248.5,-56.5 1248.5,-75.5 1343.5,-75.5 1343.5,-56.5 1248.5,-56.5"/>
<text text-anchor="middle" x="1296" y="-63.5" font-family="Helvetica,sans-Serif" font-size="10.00">FrameStream.cpp</text>
</a>
</g>
</g>
<!-- Node1&#45;&gt;Node12 -->
<g id="edge12" class="edge"><title>Node1&#45;&gt;Node12</title>
<path fill="none" stroke="midnightblue" d="M724.015,-117.993C827.06,-112.23 1051.07,-98.195 1239,-76 1242.08,-75.6357 1245.26,-75.2277 1248.45,-74.7919"/>
<polygon fill="midnightblue" stroke="midnightblue" points="723.623,-114.509 713.832,-118.558 724.011,-121.499 723.623,-114.509"/>
</g>
<!-- Node3 -->
<g id="node3" class="node"><title>Node3</title>
<g id="a_node3"><a xlink:href="CLIManager_8cpp.xhtml" target="_top" xlink:title="CLIManager.cpp">
<polygon fill="none" stroke="black" points="-0.5,-0.5 -0.5,-19.5 88.5,-19.5 88.5,-0.5 -0.5,-0.5"/>
<text text-anchor="middle" x="44" y="-7.5" font-family="Helvetica,sans-Serif" font-size="10.00">CLIManager.cpp</text>
</a>
</g>
</g>
<!-- Node2&#45;&gt;Node3 -->
<g id="edge2" class="edge"><title>Node2&#45;&gt;Node3</title>
<path fill="none" stroke="midnightblue" d="M67.0228,-47.5656C61.173,-38.2747 54.2305,-27.2484 49.5099,-19.7511"/>
<polygon fill="midnightblue" stroke="midnightblue" points="64.0956,-49.4855 72.3856,-56.083 70.0192,-45.7558 64.0956,-49.4855"/>
</g>
<!-- Node2&#45;&gt;Node4 -->
<g id="edge3" class="edge"><title>Node2&#45;&gt;Node4</title>
<path fill="none" stroke="midnightblue" d="M96.8348,-49.8197C108.838,-40.1452 123.972,-27.9481 134.039,-19.8339"/>
<polygon fill="midnightblue" stroke="midnightblue" points="94.3543,-47.3236 88.7647,-56.324 98.747,-52.7738 94.3543,-47.3236"/>
</g>
</g>
</svg>
