<?xml version="1.0" encoding="UTF-8" standalone="no"?>
<!DOCTYPE svg PUBLIC "-//W3C//DTD SVG 1.1//EN"
 "http://www.w3.org/Graphics/SVG/1.1/DTD/svg11.dtd">
<!-- Generated by graphviz version 2.36.0 (20140111.2315)
 -->
<!-- Title: Voxel::CLIManager::_filters Pages: 1 -->
<svg width="478pt" height="120pt"
 viewBox="0.00 0.00 478.00 120.00" xmlns="http://www.w3.org/2000/svg" xmlns:xlink="http://www.w3.org/1999/xlink">
<g id="graph0" class="graph" transform="scale(1 1) rotate(0) translate(4 116)">
<title>Voxel::CLIManager::_filters</title>
<!-- Node1 -->
<g id="node1" class="node"><title>Node1</title>
<polygon fill="#bfbfbf" stroke="black" points="0.5,-24 0.5,-54 107.5,-54 107.5,-24 0.5,-24"/>
<text text-anchor="start" x="8.5" y="-42" font-family="Helvetica,sans-Serif" font-size="10.00">Voxel::CLIManager::</text>
<text text-anchor="middle" x="54" y="-31" font-family="Helvetica,sans-Serif" font-size="10.00">_filters</text>
</g>
<!-- Node2 -->
<g id="node2" class="node"><title>Node2</title>
<g id="a_node2"><a xlink:href="classVoxel_1_1CLIManager.xhtml#a7405f3b9c1589d2f343e93f13eadec3e" target="_top" xlink:title="Voxel::CLIManager::\l_showFilterSet">
<polygon fill="none" stroke="black" points="148.5,-49 148.5,-79 255.5,-79 255.5,-49 148.5,-49"/>
<text text-anchor="start" x="156.5" y="-67" font-family="Helvetica,sans-Serif" font-size="10.00">Voxel::CLIManager::</text>
<text text-anchor="middle" x="202" y="-56" font-family="Helvetica,sans-Serif" font-size="10.00">_showFilterSet</text>
</a>
</g>
</g>
<!-- Node1&#45;&gt;Node2 -->
<g id="edge1" class="edge"><title>Node1&#45;&gt;Node2</title>
<path fill="none" stroke="midnightblue" d="M107.709,-48.0256C117.633,-49.7249 128.101,-51.5173 138.295,-53.2629"/>
<polygon fill="midnightblue" stroke="midnightblue" points="137.921,-56.7496 148.368,-54.9877 139.102,-49.85 137.921,-56.7496"/>
</g>
<!-- Node6 -->
<g id="node6" class="node"><title>Node6</title>
<g id="a_node6"><a xlink:href="classVoxel_1_1CameraSystem.xhtml#ab3b297a4d736fbccd1464bf3bcae60b4" target="_top" xlink:title="Voxel::CameraSystem\l::getSupportedFilters">
<polygon fill="none" stroke="black" points="144,-0 144,-30 260,-30 260,-0 144,-0"/>
<text text-anchor="start" x="152" y="-18" font-family="Helvetica,sans-Serif" font-size="10.00">Voxel::CameraSystem</text>
<text text-anchor="middle" x="202" y="-7" font-family="Helvetica,sans-Serif" font-size="10.00">::getSupportedFilters</text>
</a>
</g>
</g>
<!-- Node1&#45;&gt;Node6 -->
<g id="edge5" class="edge"><title>Node1&#45;&gt;Node6</title>
<path fill="none" stroke="midnightblue" d="M107.709,-30.3354C116.255,-28.9307 125.204,-27.4597 134.034,-26.0081"/>
<polygon fill="midnightblue" stroke="midnightblue" points="134.625,-29.4579 143.925,-24.3821 133.49,-22.5506 134.625,-29.4579"/>
</g>
<!-- Node3 -->
<g id="node3" class="node"><title>Node3</title>
<g id="a_node3"><a xlink:href="classVoxel_1_1FilterSet.xhtml#a4b809b1a18e404d041a3456f1df48e74" target="_top" xlink:title="Voxel::FilterSet::begin">
<polygon fill="none" stroke="black" points="326.5,-92.5 326.5,-111.5 439.5,-111.5 439.5,-92.5 326.5,-92.5"/>
<text text-anchor="middle" x="383" y="-99.5" font-family="Helvetica,sans-Serif" font-size="10.00">Voxel::FilterSet::begin</text>
</a>
</g>
</g>
<!-- Node2&#45;&gt;Node3 -->
<g id="edge2" class="edge"><title>Node2&#45;&gt;Node3</title>
<path fill="none" stroke="midnightblue" d="M255.738,-75.1957C278.286,-79.9824 304.602,-85.569 327.355,-90.3994"/>
<polygon fill="midnightblue" stroke="midnightblue" points="326.69,-93.8361 337.199,-92.4891 328.144,-86.9887 326.69,-93.8361"/>
</g>
<!-- Node4 -->
<g id="node4" class="node"><title>Node4</title>
<g id="a_node4"><a xlink:href="classVoxel_1_1FilterSet.xhtml#a40382f422b79fa91d2000c2b81e8c5e6" target="_top" xlink:title="Voxel::FilterSet::end">
<polygon fill="none" stroke="black" points="330,-54.5 330,-73.5 436,-73.5 436,-54.5 330,-54.5"/>
<text text-anchor="middle" x="383" y="-61.5" font-family="Helvetica,sans-Serif" font-size="10.00">Voxel::FilterSet::end</text>
</a>
</g>
</g>
<!-- Node2&#45;&gt;Node4 -->
<g id="edge3" class="edge"><title>Node2&#45;&gt;Node4</title>
<path fill="none" stroke="midnightblue" d="M255.738,-64C275.855,-64 298.972,-64 319.883,-64"/>
<polygon fill="midnightblue" stroke="midnightblue" points="319.948,-67.5001 329.948,-64 319.948,-60.5001 319.948,-67.5001"/>
</g>
<!-- Node5 -->
<g id="node5" class="node"><title>Node5</title>
<g id="a_node5"><a xlink:href="classVoxel_1_1FilterParameterTemplate.xhtml#a2315d477a0ade3bcdbe969fcea3c9eb8" target="_top" xlink:title="Voxel::FilterParameterTemplate::get">
<polygon fill="none" stroke="black" points="296,-16.5 296,-35.5 470,-35.5 470,-16.5 296,-16.5"/>
<text text-anchor="middle" x="383" y="-23.5" font-family="Helvetica,sans-Serif" font-size="10.00">Voxel::FilterParameterTemplate::get</text>
</a>
</g>
</g>
<!-- Node2&#45;&gt;Node5 -->
<g id="edge4" class="edge"><title>Node2&#45;&gt;Node5</title>
<path fill="none" stroke="midnightblue" d="M255.738,-52.8043C278.286,-48.0176 304.602,-42.431 327.355,-37.6006"/>
<polygon fill="midnightblue" stroke="midnightblue" points="328.144,-41.0113 337.199,-35.5109 326.69,-34.1639 328.144,-41.0113"/>
</g>
</g>
</svg>
