<?xml version="1.0" encoding="UTF-8" standalone="no"?>
<!DOCTYPE svg PUBLIC "-//W3C//DTD SVG 1.1//EN"
 "http://www.w3.org/Graphics/SVG/1.1/DTD/svg11.dtd">
<!-- Generated by graphviz version 2.36.0 (20140111.2315)
 -->
<!-- Title: ELFIO::section::append_data Pages: 1 -->
<svg width="922pt" height="264pt"
 viewBox="0.00 0.00 922.00 264.00" xmlns="http://www.w3.org/2000/svg" xmlns:xlink="http://www.w3.org/1999/xlink">
<g id="graph0" class="graph" transform="scale(1 1) rotate(0) translate(4 260)">
<title>ELFIO::section::append_data</title>
<!-- Node1 -->
<g id="node1" class="node"><title>Node1</title>
<polygon fill="#bfbfbf" stroke="black" points="0,-114.5 0,-133.5 144,-133.5 144,-114.5 0,-114.5"/>
<text text-anchor="middle" x="72" y="-121.5" font-family="Helvetica,sans-Serif" font-size="10.00">ELFIO::section::append_data</text>
</g>
<!-- Node2 -->
<g id="node2" class="node"><title>Node2</title>
<g id="a_node2"><a xlink:href="classELFIO_1_1note__section__accessor.xhtml#ad46e25a82332ced686adb2a1bd208d9d" target="_top" xlink:title="ELFIO::note_section\l_accessor::add_note">
<polygon fill="none" stroke="black" points="200.5,-207 200.5,-237 307.5,-237 307.5,-207 200.5,-207"/>
<text text-anchor="start" x="208.5" y="-225" font-family="Helvetica,sans-Serif" font-size="10.00">ELFIO::note_section</text>
<text text-anchor="middle" x="254" y="-214" font-family="Helvetica,sans-Serif" font-size="10.00">_accessor::add_note</text>
</a>
</g>
</g>
<!-- Node1&#45;&gt;Node2 -->
<g id="edge1" class="edge"><title>Node1&#45;&gt;Node2</title>
<path fill="none" stroke="midnightblue" d="M92.895,-139.999C113.653,-156.093 147.628,-180.786 180,-197 187.306,-200.659 195.276,-203.994 203.177,-206.952"/>
<polygon fill="midnightblue" stroke="midnightblue" points="94.8765,-137.105 84.8512,-133.678 90.5513,-142.609 94.8765,-137.105"/>
</g>
<!-- Node3 -->
<g id="node3" class="node"><title>Node3</title>
<g id="a_node3"><a xlink:href="classELFIO_1_1string__section__accessor.xhtml#a328d5af973ac377b2597e40335dfc2c4" target="_top" xlink:title="ELFIO::string_section\l_accessor::add_string">
<polygon fill="none" stroke="black" points="197.5,-158 197.5,-188 310.5,-188 310.5,-158 197.5,-158"/>
<text text-anchor="start" x="205.5" y="-176" font-family="Helvetica,sans-Serif" font-size="10.00">ELFIO::string_section</text>
<text text-anchor="middle" x="254" y="-165" font-family="Helvetica,sans-Serif" font-size="10.00">_accessor::add_string</text>
</a>
</g>
</g>
<!-- Node1&#45;&gt;Node3 -->
<g id="edge2" class="edge"><title>Node1&#45;&gt;Node3</title>
<path fill="none" stroke="midnightblue" d="M118.101,-136.278C142.258,-142.854 172.218,-151.009 197.762,-157.963"/>
<polygon fill="midnightblue" stroke="midnightblue" points="118.701,-132.814 108.133,-133.564 116.863,-139.568 118.701,-132.814"/>
</g>
<!-- Node11 -->
<g id="node11" class="node"><title>Node11</title>
<g id="a_node11"><a xlink:href="classELFIO_1_1dynamic__section__accessor.xhtml#a1a4d50d9e026665387af9711302d9de1" target="_top" xlink:title="ELFIO::dynamic_section\l_accessor::generic_add_entry">
<polygon fill="none" stroke="black" points="180.5,-109 180.5,-139 327.5,-139 327.5,-109 180.5,-109"/>
<text text-anchor="start" x="188.5" y="-127" font-family="Helvetica,sans-Serif" font-size="10.00">ELFIO::dynamic_section</text>
<text text-anchor="middle" x="254" y="-116" font-family="Helvetica,sans-Serif" font-size="10.00">_accessor::generic_add_entry</text>
</a>
</g>
</g>
<!-- Node1&#45;&gt;Node11 -->
<g id="edge10" class="edge"><title>Node1&#45;&gt;Node11</title>
<path fill="none" stroke="midnightblue" d="M154.263,-124C162.945,-124 171.736,-124 180.31,-124"/>
<polygon fill="midnightblue" stroke="midnightblue" points="154.141,-120.5 144.141,-124 154.141,-127.5 154.141,-120.5"/>
</g>
<!-- Node12 -->
<g id="node12" class="node"><title>Node12</title>
<g id="a_node12"><a xlink:href="classELFIO_1_1relocation__section__accessor.xhtml#a592d363db224b9d867f181a3c7e5ad42" target="_top" xlink:title="ELFIO::relocation_section\l_accessor::generic_add_entry">
<polygon fill="none" stroke="black" points="180.5,-60 180.5,-90 327.5,-90 327.5,-60 180.5,-60"/>
<text text-anchor="start" x="188.5" y="-78" font-family="Helvetica,sans-Serif" font-size="10.00">ELFIO::relocation_section</text>
<text text-anchor="middle" x="254" y="-67" font-family="Helvetica,sans-Serif" font-size="10.00">_accessor::generic_add_entry</text>
</a>
</g>
</g>
<!-- Node1&#45;&gt;Node12 -->
<g id="edge11" class="edge"><title>Node1&#45;&gt;Node12</title>
<path fill="none" stroke="midnightblue" d="M118.101,-111.722C142.258,-105.146 172.218,-96.9908 197.762,-90.037"/>
<polygon fill="midnightblue" stroke="midnightblue" points="116.863,-108.432 108.133,-114.436 118.701,-115.186 116.863,-108.432"/>
</g>
<!-- Node13 -->
<g id="node13" class="node"><title>Node13</title>
<g id="a_node13"><a xlink:href="classELFIO_1_1symbol__section__accessor.xhtml#a9a0776d80a0653cfdcfab42b229abe2e" target="_top" xlink:title="ELFIO::symbol_section\l_accessor::generic_add\l_symbol">
<polygon fill="none" stroke="black" points="194,-0.5 194,-41.5 314,-41.5 314,-0.5 194,-0.5"/>
<text text-anchor="start" x="202" y="-29.5" font-family="Helvetica,sans-Serif" font-size="10.00">ELFIO::symbol_section</text>
<text text-anchor="start" x="202" y="-18.5" font-family="Helvetica,sans-Serif" font-size="10.00">_accessor::generic_add</text>
<text text-anchor="middle" x="254" y="-7.5" font-family="Helvetica,sans-Serif" font-size="10.00">_symbol</text>
</a>
</g>
</g>
<!-- Node1&#45;&gt;Node13 -->
<g id="edge12" class="edge"><title>Node1&#45;&gt;Node13</title>
<path fill="none" stroke="midnightblue" d="M93.025,-108.083C113.886,-92.0084 147.943,-67.165 180,-50 185.53,-47.0389 191.43,-44.2056 197.388,-41.5498"/>
<polygon fill="midnightblue" stroke="midnightblue" points="90.6722,-105.479 84.9365,-114.387 94.9754,-111 90.6722,-105.479"/>
</g>
<!-- Node4 -->
<g id="node4" class="node"><title>Node4</title>
<g id="a_node4"><a xlink:href="classELFIO_1_1elfio_1_1Sections.xhtml#af60206f1e95ae37985df476419ce875e" target="_top" xlink:title="ELFIO::elfio::Sections::add">
<polygon fill="none" stroke="black" points="364.5,-231.5 364.5,-250.5 499.5,-250.5 499.5,-231.5 364.5,-231.5"/>
<text text-anchor="middle" x="432" y="-238.5" font-family="Helvetica,sans-Serif" font-size="10.00">ELFIO::elfio::Sections::add</text>
</a>
</g>
</g>
<!-- Node3&#45;&gt;Node4 -->
<g id="edge3" class="edge"><title>Node3&#45;&gt;Node4</title>
<path fill="none" stroke="midnightblue" d="M313.761,-191.736C318.638,-193.708 323.441,-195.802 328,-198 345.103,-206.245 346.736,-213.097 364,-221 372.94,-225.093 382.931,-228.598 392.412,-231.477"/>
<polygon fill="midnightblue" stroke="midnightblue" points="314.929,-188.435 304.339,-188.097 312.407,-194.965 314.929,-188.435"/>
</g>
<!-- Node8 -->
<g id="node8" class="node"><title>Node8</title>
<g id="a_node8"><a xlink:href="classELFIO_1_1dynamic__section__accessor.xhtml#a1b39689421c68493e3582bf432db4351" target="_top" xlink:title="ELFIO::dynamic_section\l_accessor::add_entry">
<polygon fill="none" stroke="black" points="369.5,-182 369.5,-212 494.5,-212 494.5,-182 369.5,-182"/>
<text text-anchor="start" x="377.5" y="-200" font-family="Helvetica,sans-Serif" font-size="10.00">ELFIO::dynamic_section</text>
<text text-anchor="middle" x="432" y="-189" font-family="Helvetica,sans-Serif" font-size="10.00">_accessor::add_entry</text>
</a>
</g>
</g>
<!-- Node3&#45;&gt;Node8 -->
<g id="edge7" class="edge"><title>Node3&#45;&gt;Node8</title>
<path fill="none" stroke="midnightblue" d="M320.925,-181.99C336.762,-184.149 353.619,-186.448 369.258,-188.581"/>
<polygon fill="midnightblue" stroke="midnightblue" points="321.069,-178.477 310.688,-180.594 320.123,-185.413 321.069,-178.477"/>
</g>
<!-- Node9 -->
<g id="node9" class="node"><title>Node9</title>
<g id="a_node9"><a xlink:href="classELFIO_1_1relocation__section__accessor.xhtml#a28378f46b0a5fcf3aa17f229bd9b3cdd" target="_top" xlink:title="ELFIO::relocation_section\l_accessor::add_entry">
<polygon fill="none" stroke="black" points="367,-133 367,-163 497,-163 497,-133 367,-133"/>
<text text-anchor="start" x="375" y="-151" font-family="Helvetica,sans-Serif" font-size="10.00">ELFIO::relocation_section</text>
<text text-anchor="middle" x="432" y="-140" font-family="Helvetica,sans-Serif" font-size="10.00">_accessor::add_entry</text>
</a>
</g>
</g>
<!-- Node3&#45;&gt;Node9 -->
<g id="edge8" class="edge"><title>Node3&#45;&gt;Node9</title>
<path fill="none" stroke="midnightblue" d="M320.907,-163.638C335.915,-161.506 351.839,-159.244 366.775,-157.123"/>
<polygon fill="midnightblue" stroke="midnightblue" points="320.096,-160.218 310.688,-165.09 321.08,-167.149 320.096,-160.218"/>
</g>
<!-- Node10 -->
<g id="node10" class="node"><title>Node10</title>
<g id="a_node10"><a xlink:href="classELFIO_1_1symbol__section__accessor.xhtml#ae68036ebd3d43a8d94aff3ce847c3123" target="_top" xlink:title="ELFIO::symbol_section\l_accessor::add_symbol">
<polygon fill="none" stroke="black" points="372,-84 372,-114 492,-114 492,-84 372,-84"/>
<text text-anchor="start" x="380" y="-102" font-family="Helvetica,sans-Serif" font-size="10.00">ELFIO::symbol_section</text>
<text text-anchor="middle" x="432" y="-91" font-family="Helvetica,sans-Serif" font-size="10.00">_accessor::add_symbol</text>
</a>
</g>
</g>
<!-- Node3&#45;&gt;Node10 -->
<g id="edge9" class="edge"><title>Node3&#45;&gt;Node10</title>
<path fill="none" stroke="midnightblue" d="M314.412,-154.113C319.07,-152.191 323.65,-150.15 328,-148 345.239,-139.481 346.878,-132.753 364,-124 370.964,-120.44 378.559,-117.118 386.051,-114.132"/>
<polygon fill="midnightblue" stroke="midnightblue" points="312.823,-150.976 304.789,-157.884 315.377,-157.494 312.823,-150.976"/>
</g>
<!-- Node5 -->
<g id="node5" class="node"><title>Node5</title>
<g id="a_node5"><a xlink:href="classELFIO_1_1elfio.xhtml#a905e7d6672f7109423309f05c941cf80" target="_top" xlink:title="ELFIO::elfio::create\l_mandatory_sections">
<polygon fill="none" stroke="black" points="536,-226 536,-256 646,-256 646,-226 536,-226"/>
<text text-anchor="start" x="544" y="-244" font-family="Helvetica,sans-Serif" font-size="10.00">ELFIO::elfio::create</text>
<text text-anchor="middle" x="591" y="-233" font-family="Helvetica,sans-Serif" font-size="10.00">_mandatory_sections</text>
</a>
</g>
</g>
<!-- Node4&#45;&gt;Node5 -->
<g id="edge4" class="edge"><title>Node4&#45;&gt;Node5</title>
<path fill="none" stroke="midnightblue" d="M509.801,-241C518.54,-241 527.306,-241 535.667,-241"/>
<polygon fill="midnightblue" stroke="midnightblue" points="509.582,-237.5 499.582,-241 509.582,-244.5 509.582,-237.5"/>
</g>
<!-- Node6 -->
<g id="node6" class="node"><title>Node6</title>
<g id="a_node6"><a xlink:href="classELFIO_1_1elfio.xhtml#a505f88e23277cb7945d4f411fe2b4d85" target="_top" xlink:title="ELFIO::elfio::create">
<polygon fill="none" stroke="black" points="682,-231.5 682,-250.5 784,-250.5 784,-231.5 682,-231.5"/>
<text text-anchor="middle" x="733" y="-238.5" font-family="Helvetica,sans-Serif" font-size="10.00">ELFIO::elfio::create</text>
</a>
</g>
</g>
<!-- Node5&#45;&gt;Node6 -->
<g id="edge5" class="edge"><title>Node5&#45;&gt;Node6</title>
<path fill="none" stroke="midnightblue" d="M656.393,-241C664.881,-241 673.48,-241 681.685,-241"/>
<polygon fill="midnightblue" stroke="midnightblue" points="656.128,-237.5 646.128,-241 656.128,-244.5 656.128,-237.5"/>
</g>
<!-- Node7 -->
<g id="node7" class="node"><title>Node7</title>
<g id="a_node7"><a xlink:href="classELFIO_1_1elfio.xhtml#ab5d99cd44a973c1adabdba1c1e7c086b" target="_top" xlink:title="ELFIO::elfio::elfio">
<polygon fill="none" stroke="black" points="820.5,-231.5 820.5,-250.5 913.5,-250.5 913.5,-231.5 820.5,-231.5"/>
<text text-anchor="middle" x="867" y="-238.5" font-family="Helvetica,sans-Serif" font-size="10.00">ELFIO::elfio::elfio</text>
</a>
</g>
</g>
<!-- Node6&#45;&gt;Node7 -->
<g id="edge6" class="edge"><title>Node6&#45;&gt;Node7</title>
<path fill="none" stroke="midnightblue" d="M794.372,-241C803.05,-241 811.859,-241 820.193,-241"/>
<polygon fill="midnightblue" stroke="midnightblue" points="794.28,-237.5 784.28,-241 794.28,-244.5 794.28,-237.5"/>
</g>
</g>
</svg>
