<?xml version="1.0" encoding="UTF-8" standalone="no"?>
<!DOCTYPE svg PUBLIC "-//W3C//DTD SVG 1.1//EN"
 "http://www.w3.org/Graphics/SVG/1.1/DTD/svg11.dtd">
<!-- Generated by graphviz version 2.36.0 (20140111.2315)
 -->
<!-- Title: TinyXML2::XMLNode::Unlink Pages: 1 -->
<!--zoomable 388 -->
<svg id="main" version="1.1" xmlns="http://www.w3.org/2000/svg" xmlns:xlink="http://www.w3.org/1999/xlink" xml:space="preserve" onload="init(evt)">
<style type="text/css"><![CDATA[
.edge:hover path { stroke: red; }
.edge:hover polygon { stroke: red; fill: red; }
]]></style>
<script type="text/javascript"><![CDATA[
var edges = document.getElementsByTagName('g');
if (edges && edges.length) {
  for (var i=0;i<edges.length;i++) {
    if (edges[i].id.substr(0,4)=='edge') {
      edges[i].setAttribute('class','edge');
    }
  }
}
]]></script>
        <defs>
                <circle id="rim" cx="0" cy="0" r="7"/>
                <circle id="rim2" cx="0" cy="0" r="3.5"/>
                <g id="zoomPlus">
                        <use xlink:href="#rim" fill="#404040">
                                <set attributeName="fill" to="#808080" begin="zoomplus.mouseover" end="zoomplus.mouseout"/>
                        </use>
                        <path d="M-4,0h8M0,-4v8" fill="none" stroke="white" stroke-width="1.5" pointer-events="none"/>
                </g>
                <g id="zoomMin">
                        <use xlink:href="#rim" fill="#404040">
                                <set attributeName="fill" to="#808080" begin="zoomminus.mouseover" end="zoomminus.mouseout"/>
                        </use>
                        <path d="M-4,0h8" fill="none" stroke="white" stroke-width="1.5" pointer-events="none"/>
                </g>
                <g id="dirArrow">
                        <path fill="none" stroke="white" stroke-width="1.5" d="M0,-3.0v7 M-2.5,-0.5L0,-3.0L2.5,-0.5"/>
                </g>
               <g id="resetDef">
                       <use xlink:href="#rim2" fill="#404040">
                               <set attributeName="fill" to="#808080" begin="reset.mouseover" end="reset.mouseout"/>
                       </use>
               </g>
        </defs>

<script type="text/javascript">
var viewWidth = 958;
var viewHeight = 388;
var sectionId = 'dynsection-34';
</script>
<script xlink:href="svgpan.js"/>
<svg id="graph" class="graph">
<g id="viewport">
<title>TinyXML2::XMLNode::Unlink</title>
<!-- Node1 -->
<g id="node1" class="node"><title>Node1</title>
<polygon fill="#bfbfbf" stroke="black" points="0,-97 0,-127 116,-127 116,-97 0,-97"/>
<text text-anchor="start" x="8" y="-115" font-family="Helvetica,sans-Serif" font-size="10.00">TinyXML2::XMLNode::</text>
<text text-anchor="middle" x="58" y="-104" font-family="Helvetica,sans-Serif" font-size="10.00">Unlink</text>
</g>
<!-- Node2 -->
<g id="node2" class="node"><title>Node2</title>
<g id="a_node2"><a xlink:href="classTinyXML2_1_1XMLNode.xhtml#ac71764a70bec2eb37ed1ee30c97b2b51" target="_top" xlink:title="TinyXML2::XMLNode::\lDeleteChildren">
<polygon fill="none" stroke="black" points="152,-181 152,-211 268,-211 268,-181 152,-181"/>
<text text-anchor="start" x="160" y="-199" font-family="Helvetica,sans-Serif" font-size="10.00">TinyXML2::XMLNode::</text>
<text text-anchor="middle" x="210" y="-188" font-family="Helvetica,sans-Serif" font-size="10.00">DeleteChildren</text>
</a>
</g>
</g>
<!-- Node1&#45;&gt;Node2 -->
<g id="edge1" class="edge"><title>Node1&#45;&gt;Node2</title>
<path fill="none" stroke="midnightblue" d="M94.0741,-132.207C111.453,-142.163 132.781,-154.299 152,-165 161.448,-170.261 171.826,-175.935 181.107,-180.974"/>
<polygon fill="midnightblue" stroke="midnightblue" points="95.794,-129.158 85.3783,-127.218 92.3107,-135.23 95.794,-129.158"/>
</g>
<!-- Node8 -->
<g id="node8" class="node"><title>Node8</title>
<g id="a_node8"><a xlink:href="classTinyXML2_1_1XMLNode.xhtml#a5ce8791c0920489f9df667b0a0264935" target="_top" xlink:title="TinyXML2::XMLNode::\l~XMLNode">
<polygon fill="none" stroke="black" points="312,-137 312,-167 428,-167 428,-137 312,-137"/>
<text text-anchor="start" x="320" y="-155" font-family="Helvetica,sans-Serif" font-size="10.00">TinyXML2::XMLNode::</text>
<text text-anchor="middle" x="370" y="-144" font-family="Helvetica,sans-Serif" font-size="10.00">~XMLNode</text>
</a>
</g>
</g>
<!-- Node1&#45;&gt;Node8 -->
<g id="edge25" class="edge"><title>Node1&#45;&gt;Node8</title>
<path fill="none" stroke="midnightblue" d="M126.297,-120.683C181.712,-127.834 259.419,-137.861 311.852,-144.626"/>
<polygon fill="midnightblue" stroke="midnightblue" points="126.586,-117.192 116.22,-119.383 125.69,-124.134 126.586,-117.192"/>
</g>
<!-- Node15 -->
<g id="node15" class="node"><title>Node15</title>
<g id="a_node15"><a xlink:href="classTinyXML2_1_1XMLNode.xhtml#ae27e0da5712dd159e879e2baf07f48db" target="_top" xlink:title="TinyXML2::XMLNode::\lInsertAfterChild">
<polygon fill="none" stroke="black" points="312,-88 312,-118 428,-118 428,-88 312,-88"/>
<text text-anchor="start" x="320" y="-106" font-family="Helvetica,sans-Serif" font-size="10.00">TinyXML2::XMLNode::</text>
<text text-anchor="middle" x="370" y="-95" font-family="Helvetica,sans-Serif" font-size="10.00">InsertAfterChild</text>
</a>
</g>
</g>
<!-- Node1&#45;&gt;Node15 -->
<g id="edge18" class="edge"><title>Node1&#45;&gt;Node15</title>
<path fill="none" stroke="midnightblue" d="M126.297,-110.046C181.712,-108.437 259.419,-106.181 311.852,-104.659"/>
<polygon fill="midnightblue" stroke="midnightblue" points="126.114,-106.55 116.22,-110.339 126.317,-113.547 126.114,-106.55"/>
</g>
<!-- Node16 -->
<g id="node16" class="node"><title>Node16</title>
<g id="a_node16"><a xlink:href="classTinyXML2_1_1XMLNode.xhtml#a8ae11185b5fbb9620d71114c70b31368" target="_top" xlink:title="TinyXML2::XMLNode::\lInsertEndChild">
<polygon fill="none" stroke="black" points="152,-53 152,-83 268,-83 268,-53 152,-53"/>
<text text-anchor="start" x="160" y="-71" font-family="Helvetica,sans-Serif" font-size="10.00">TinyXML2::XMLNode::</text>
<text text-anchor="middle" x="210" y="-60" font-family="Helvetica,sans-Serif" font-size="10.00">InsertEndChild</text>
</a>
</g>
</g>
<!-- Node1&#45;&gt;Node16 -->
<g id="edge19" class="edge"><title>Node1&#45;&gt;Node16</title>
<path fill="none" stroke="midnightblue" d="M120.093,-94.0793C132.605,-90.4092 145.652,-86.5821 157.774,-83.0262"/>
<polygon fill="midnightblue" stroke="midnightblue" points="118.812,-90.8075 110.202,-96.9808 120.783,-97.5244 118.812,-90.8075"/>
</g>
<!-- Node17 -->
<g id="node17" class="node"><title>Node17</title>
<g id="a_node17"><a xlink:href="classTinyXML2_1_1XMLNode.xhtml#ae7eb7051f843bf705bbcf6551c13fd97" target="_top" xlink:title="TinyXML2::XMLNode::\lInsertFirstChild">
<polygon fill="none" stroke="black" points="152,-1 152,-31 268,-31 268,-1 152,-1"/>
<text text-anchor="start" x="160" y="-19" font-family="Helvetica,sans-Serif" font-size="10.00">TinyXML2::XMLNode::</text>
<text text-anchor="middle" x="210" y="-8" font-family="Helvetica,sans-Serif" font-size="10.00">InsertFirstChild</text>
</a>
</g>
</g>
<!-- Node1&#45;&gt;Node17 -->
<g id="edge22" class="edge"><title>Node1&#45;&gt;Node17</title>
<path fill="none" stroke="midnightblue" d="M84.9437,-90.5951C103.085,-76.1759 128.229,-57.2604 152,-43 159.042,-38.7753 166.851,-34.7085 174.372,-31.0698"/>
<polygon fill="midnightblue" stroke="midnightblue" points="82.7354,-87.8796 77.1311,-96.8709 87.1192,-93.3369 82.7354,-87.8796"/>
</g>
<!-- Node3 -->
<g id="node3" class="node"><title>Node3</title>
<g id="a_node3"><a xlink:href="classTinyXML2_1_1XMLDocument.xhtml#a20554f58b1fbdc5a5e4986ca59126837" target="_top" xlink:title="Clear the document, resetting it to the initial state. ">
<polygon fill="none" stroke="black" points="304,-282 304,-312 436,-312 436,-282 304,-282"/>
<text text-anchor="start" x="312" y="-300" font-family="Helvetica,sans-Serif" font-size="10.00">TinyXML2::XMLDocument</text>
<text text-anchor="middle" x="370" y="-289" font-family="Helvetica,sans-Serif" font-size="10.00">::Clear</text>
</a>
</g>
</g>
<!-- Node2&#45;&gt;Node3 -->
<g id="edge2" class="edge"><title>Node2&#45;&gt;Node3</title>
<path fill="none" stroke="midnightblue" d="M243.189,-216.576C273.535,-235.975 318.296,-264.588 345.442,-281.941"/>
<polygon fill="midnightblue" stroke="midnightblue" points="244.965,-213.558 234.654,-211.121 241.195,-219.456 244.965,-213.558"/>
</g>
<!-- Node7 -->
<g id="node7" class="node"><title>Node7</title>
<g id="a_node7"><a xlink:href="classTinyXML2_1_1XMLDocument.xhtml#a2734f0824ea57c5c26f61b4f3ff2514a" target="_top" xlink:title="TinyXML2::XMLDocument\l::Parse">
<polygon fill="none" stroke="black" points="818,-219 818,-249 950,-249 950,-219 818,-219"/>
<text text-anchor="start" x="826" y="-237" font-family="Helvetica,sans-Serif" font-size="10.00">TinyXML2::XMLDocument</text>
<text text-anchor="middle" x="884" y="-226" font-family="Helvetica,sans-Serif" font-size="10.00">::Parse</text>
</a>
</g>
</g>
<!-- Node2&#45;&gt;Node7 -->
<g id="edge7" class="edge"><title>Node2&#45;&gt;Node7</title>
<path fill="none" stroke="midnightblue" d="M278.18,-199.799C407.651,-207.12 690.196,-223.097 817.96,-230.322"/>
<polygon fill="midnightblue" stroke="midnightblue" points="278.186,-196.294 268.004,-199.223 277.791,-203.283 278.186,-196.294"/>
</g>
<!-- Node2&#45;&gt;Node8 -->
<g id="edge8" class="edge"><title>Node2&#45;&gt;Node8</title>
<path fill="none" stroke="midnightblue" d="M274.57,-178.297C287.986,-174.561 302.02,-170.653 315.042,-167.026"/>
<polygon fill="midnightblue" stroke="midnightblue" points="273.627,-174.926 264.933,-180.981 275.505,-181.67 273.627,-174.926"/>
</g>
<!-- Node4 -->
<g id="node4" class="node"><title>Node4</title>
<g id="a_node4"><a xlink:href="classTinyXML2_1_1XMLDocument.xhtml#a6f714d611df15326a1ff41e31a39490d" target="_top" xlink:title="TinyXML2::XMLDocument\l::~XMLDocument">
<polygon fill="none" stroke="black" points="472,-350 472,-380 604,-380 604,-350 472,-350"/>
<text text-anchor="start" x="480" y="-368" font-family="Helvetica,sans-Serif" font-size="10.00">TinyXML2::XMLDocument</text>
<text text-anchor="middle" x="538" y="-357" font-family="Helvetica,sans-Serif" font-size="10.00">::~XMLDocument</text>
</a>
</g>
</g>
<!-- Node3&#45;&gt;Node4 -->
<g id="edge3" class="edge"><title>Node3&#45;&gt;Node4</title>
<path fill="none" stroke="midnightblue" d="M414.951,-316.111C432.621,-323.689 453.221,-332.394 472,-340 480.069,-343.268 488.74,-346.675 497.037,-349.885"/>
<polygon fill="midnightblue" stroke="midnightblue" points="416.035,-312.767 405.465,-312.03 413.268,-319.197 416.035,-312.767"/>
</g>
<!-- Node5 -->
<g id="node5" class="node"><title>Node5</title>
<g id="a_node5"><a xlink:href="classTinyXML2_1_1XMLDocument.xhtml#a6665d0d689e8b8290a0cd6d8f340c19d" target="_top" xlink:title="TinyXML2::XMLDocument\l::LoadFile">
<polygon fill="none" stroke="black" points="472,-301 472,-331 604,-331 604,-301 472,-301"/>
<text text-anchor="start" x="480" y="-319" font-family="Helvetica,sans-Serif" font-size="10.00">TinyXML2::XMLDocument</text>
<text text-anchor="middle" x="538" y="-308" font-family="Helvetica,sans-Serif" font-size="10.00">::LoadFile</text>
</a>
</g>
</g>
<!-- Node3&#45;&gt;Node5 -->
<g id="edge4" class="edge"><title>Node3&#45;&gt;Node5</title>
<path fill="none" stroke="midnightblue" d="M446.114,-305.597C454.681,-306.578 463.361,-307.571 471.784,-308.536"/>
<polygon fill="midnightblue" stroke="midnightblue" points="446.464,-302.115 436.131,-304.455 445.668,-309.069 446.464,-302.115"/>
</g>
<!-- Node3&#45;&gt;Node7 -->
<g id="edge6" class="edge"><title>Node3&#45;&gt;Node7</title>
<path fill="none" stroke="midnightblue" d="M446.212,-288.469C528.665,-279.015 664.837,-263.103 782,-248 793.588,-246.506 805.914,-244.852 817.827,-243.22"/>
<polygon fill="midnightblue" stroke="midnightblue" points="445.717,-285.003 436.18,-289.618 446.513,-291.957 445.717,-285.003"/>
</g>
<!-- Node6 -->
<g id="node6" class="node"><title>Node6</title>
<g id="a_node6"><a xlink:href="classVoxel_1_1ParameterDMLParser.xhtml#ad7b846eaea75affd17c95cbbf860f80a" target="_top" xlink:title="Voxel::ParameterDMLParser\l::ParameterDMLParser">
<polygon fill="none" stroke="black" points="640,-301 640,-331 782,-331 782,-301 640,-301"/>
<text text-anchor="start" x="648" y="-319" font-family="Helvetica,sans-Serif" font-size="10.00">Voxel::ParameterDMLParser</text>
<text text-anchor="middle" x="711" y="-308" font-family="Helvetica,sans-Serif" font-size="10.00">::ParameterDMLParser</text>
</a>
</g>
</g>
<!-- Node5&#45;&gt;Node6 -->
<g id="edge5" class="edge"><title>Node5&#45;&gt;Node6</title>
<path fill="none" stroke="midnightblue" d="M614.397,-316C622.884,-316 631.505,-316 639.92,-316"/>
<polygon fill="midnightblue" stroke="midnightblue" points="614.136,-312.5 604.136,-316 614.136,-319.5 614.136,-312.5"/>
</g>
<!-- Node9 -->
<g id="node9" class="node"><title>Node9</title>
<g id="a_node9"><a xlink:href="classTinyXML2_1_1XMLNode.xhtml#ae64fa52593db503652ee0258bf69d376" target="_top" xlink:title="TinyXML2::XMLNode::\lDeleteNode">
<polygon fill="none" stroke="black" points="480,-145 480,-175 596,-175 596,-145 480,-145"/>
<text text-anchor="start" x="488" y="-163" font-family="Helvetica,sans-Serif" font-size="10.00">TinyXML2::XMLNode::</text>
<text text-anchor="middle" x="538" y="-152" font-family="Helvetica,sans-Serif" font-size="10.00">DeleteNode</text>
</a>
</g>
</g>
<!-- Node8&#45;&gt;Node9 -->
<g id="edge9" class="edge"><title>Node8&#45;&gt;Node9</title>
<path fill="none" stroke="midnightblue" d="M438.467,-155.251C452.17,-155.912 466.459,-156.6 479.767,-157.242"/>
<polygon fill="midnightblue" stroke="midnightblue" points="438.285,-151.739 428.128,-154.753 437.948,-158.731 438.285,-151.739"/>
</g>
<!-- Node9&#45;&gt;Node2 -->
<g id="edge12" class="edge"><title>Node9&#45;&gt;Node2</title>
<path fill="none" stroke="midnightblue" d="M469.732,-171.313C458.487,-173.016 446.927,-174.65 436,-176 379.176,-183.018 313.984,-188.536 268.451,-191.983"/>
<polygon fill="midnightblue" stroke="midnightblue" points="470.594,-174.722 479.943,-169.737 469.526,-167.804 470.594,-174.722"/>
</g>
<!-- Node10 -->
<g id="node10" class="node"><title>Node10</title>
<g id="a_node10"><a xlink:href="classTinyXML2_1_1XMLNode.xhtml#a28b94200b666def2677964cb83df1569" target="_top" xlink:title="TinyXML2::XMLNode::\lDeleteChild">
<polygon fill="none" stroke="black" points="653,-154 653,-184 769,-184 769,-154 653,-154"/>
<text text-anchor="start" x="661" y="-172" font-family="Helvetica,sans-Serif" font-size="10.00">TinyXML2::XMLNode::</text>
<text text-anchor="middle" x="711" y="-161" font-family="Helvetica,sans-Serif" font-size="10.00">DeleteChild</text>
</a>
</g>
</g>
<!-- Node9&#45;&gt;Node10 -->
<g id="edge10" class="edge"><title>Node9&#45;&gt;Node10</title>
<path fill="none" stroke="midnightblue" d="M606.797,-163.568C622.009,-164.369 638.002,-165.211 652.735,-165.986"/>
<polygon fill="midnightblue" stroke="midnightblue" points="606.586,-160.052 596.416,-163.022 606.218,-167.043 606.586,-160.052"/>
</g>
<!-- Node12 -->
<g id="node12" class="node"><title>Node12</title>
<g id="a_node12"><a xlink:href="classTinyXML2_1_1XMLNode.xhtml#a666a962d4e7ce40fad31a0d273659176" target="_top" xlink:title="TinyXML2::XMLNode::\lParseDeep">
<polygon fill="none" stroke="black" points="653,-87 653,-117 769,-117 769,-87 653,-87"/>
<text text-anchor="start" x="661" y="-105" font-family="Helvetica,sans-Serif" font-size="10.00">TinyXML2::XMLNode::</text>
<text text-anchor="middle" x="711" y="-94" font-family="Helvetica,sans-Serif" font-size="10.00">ParseDeep</text>
</a>
</g>
</g>
<!-- Node9&#45;&gt;Node12 -->
<g id="edge13" class="edge"><title>Node9&#45;&gt;Node12</title>
<path fill="none" stroke="midnightblue" d="M593.252,-141.599C616.624,-133.672 643.607,-124.519 665.741,-117.012"/>
<polygon fill="midnightblue" stroke="midnightblue" points="591.828,-138.386 583.482,-144.913 594.076,-145.015 591.828,-138.386"/>
</g>
<!-- Node11 -->
<g id="node11" class="node"><title>Node11</title>
<g id="a_node11"><a xlink:href="classTinyXML2_1_1XMLDocument.xhtml#ad4c52955b49fc5fd7ad93ac9e78f0d65" target="_top" xlink:title="TinyXML2::XMLDocument\l::DeleteNode">
<polygon fill="none" stroke="black" points="818,-154 818,-184 950,-184 950,-154 818,-154"/>
<text text-anchor="start" x="826" y="-172" font-family="Helvetica,sans-Serif" font-size="10.00">TinyXML2::XMLDocument</text>
<text text-anchor="middle" x="884" y="-161" font-family="Helvetica,sans-Serif" font-size="10.00">::DeleteNode</text>
</a>
</g>
</g>
<!-- Node10&#45;&gt;Node11 -->
<g id="edge11" class="edge"><title>Node10&#45;&gt;Node11</title>
<path fill="none" stroke="midnightblue" d="M779.778,-169C792.293,-169 805.336,-169 817.773,-169"/>
<polygon fill="midnightblue" stroke="midnightblue" points="779.416,-165.5 769.416,-169 779.416,-172.5 779.416,-165.5"/>
</g>
<!-- Node12&#45;&gt;Node7 -->
<g id="edge15" class="edge"><title>Node12&#45;&gt;Node7</title>
<path fill="none" stroke="midnightblue" d="M752.024,-122.308C762.366,-128.519 773.086,-135.88 782,-144 801.978,-162.198 798.226,-174.581 818,-193 828.739,-203.003 842.25,-211.98 854.168,-218.965"/>
<polygon fill="midnightblue" stroke="midnightblue" points="753.5,-119.119 743.088,-117.157 750.003,-125.184 753.5,-119.119"/>
</g>
<!-- Node12&#45;&gt;Node12 -->
<g id="edge16" class="edge"><title>Node12&#45;&gt;Node12</title>
<path fill="none" stroke="midnightblue" d="M680.894,-127.598C685.007,-131.97 695.043,-135 711,-135 737.875,-135 747.953,-126.406 741.234,-117.275"/>
<polygon fill="midnightblue" stroke="midnightblue" points="684.389,-127.231 680.766,-117.275 677.39,-127.318 684.389,-127.231"/>
</g>
<!-- Node13 -->
<g id="node13" class="node"><title>Node13</title>
<g id="a_node13"><a xlink:href="classTinyXML2_1_1XMLDocument.xhtml#a25c1fd4903914444fc31fb1b90dcffdb" target="_top" xlink:title="TinyXML2::XMLDocument\l::LoadFile">
<polygon fill="none" stroke="black" points="818,-96 818,-126 950,-126 950,-96 818,-96"/>
<text text-anchor="start" x="826" y="-114" font-family="Helvetica,sans-Serif" font-size="10.00">TinyXML2::XMLDocument</text>
<text text-anchor="middle" x="884" y="-103" font-family="Helvetica,sans-Serif" font-size="10.00">::LoadFile</text>
</a>
</g>
</g>
<!-- Node12&#45;&gt;Node13 -->
<g id="edge14" class="edge"><title>Node12&#45;&gt;Node13</title>
<path fill="none" stroke="midnightblue" d="M779.403,-105.548C792.032,-106.212 805.212,-106.906 817.773,-107.567"/>
<polygon fill="midnightblue" stroke="midnightblue" points="779.586,-102.052 769.416,-105.022 779.218,-109.043 779.586,-102.052"/>
</g>
<!-- Node14 -->
<g id="node14" class="node"><title>Node14</title>
<g id="a_node14"><a xlink:href="classTinyXML2_1_1XMLElement.xhtml#a1f37b0bb41320c4121515755b8a057a4" target="_top" xlink:title="TinyXML2::XMLElement\l::ParseDeep">
<polygon fill="none" stroke="black" points="822.5,-47 822.5,-77 945.5,-77 945.5,-47 822.5,-47"/>
<text text-anchor="start" x="830.5" y="-65" font-family="Helvetica,sans-Serif" font-size="10.00">TinyXML2::XMLElement</text>
<text text-anchor="middle" x="884" y="-54" font-family="Helvetica,sans-Serif" font-size="10.00">::ParseDeep</text>
</a>
</g>
</g>
<!-- Node12&#45;&gt;Node14 -->
<g id="edge17" class="edge"><title>Node12&#45;&gt;Node14</title>
<path fill="none" stroke="midnightblue" d="M779.532,-86.203C793.622,-82.9071 808.394,-79.4517 822.222,-76.2171"/>
<polygon fill="midnightblue" stroke="midnightblue" points="778.356,-82.8835 769.416,-88.5693 779.951,-89.6995 778.356,-82.8835"/>
</g>
<!-- Node16&#45;&gt;Node12 -->
<g id="edge21" class="edge"><title>Node16&#45;&gt;Node12</title>
<path fill="none" stroke="midnightblue" d="M278.534,-70.2441C323.241,-71.9163 383.153,-74.5128 436,-78 511.046,-82.952 597.463,-90.8951 652.853,-96.2744"/>
<polygon fill="midnightblue" stroke="midnightblue" points="278.496,-66.7405 268.374,-69.8702 278.239,-73.7357 278.496,-66.7405"/>
</g>
<!-- Node16&#45;&gt;Node15 -->
<g id="edge20" class="edge"><title>Node16&#45;&gt;Node15</title>
<path fill="none" stroke="midnightblue" d="M277.85,-82.8084C289.137,-85.3088 300.763,-87.8842 311.777,-90.324"/>
<polygon fill="midnightblue" stroke="midnightblue" points="278.562,-79.3815 268.042,-80.6358 277.048,-86.2158 278.562,-79.3815"/>
</g>
<!-- Node18 -->
<g id="node18" class="node"><title>Node18</title>
<g id="a_node18"><a xlink:href="classTinyXML2_1_1XMLElement.xhtml#ad0f8edb7feb82def4e5245a9650f80fc" target="_top" xlink:title="TinyXML2::XMLElement\l::SetText">
<polygon fill="none" stroke="black" points="308.5,-0 308.5,-30 431.5,-30 431.5,-0 308.5,-0"/>
<text text-anchor="start" x="316.5" y="-18" font-family="Helvetica,sans-Serif" font-size="10.00">TinyXML2::XMLElement</text>
<text text-anchor="middle" x="370" y="-7" font-family="Helvetica,sans-Serif" font-size="10.00">::SetText</text>
</a>
</g>
</g>
<!-- Node17&#45;&gt;Node18 -->
<g id="edge23" class="edge"><title>Node17&#45;&gt;Node18</title>
<path fill="none" stroke="midnightblue" d="M278.306,-15.574C288.271,-15.5109 298.489,-15.4463 308.308,-15.3841"/>
<polygon fill="midnightblue" stroke="midnightblue" points="278.019,-12.0757 268.042,-15.639 278.064,-19.0755 278.019,-12.0757"/>
</g>
<!-- Node19 -->
<g id="node19" class="node"><title>Node19</title>
<g id="a_node19"><a xlink:href="classTinyXML2_1_1XMLElement.xhtml#aa6a50c3d5d452ce300212dac850d3a2c" target="_top" xlink:title="Convenience method for setting text inside and element. See SetText() for important limitations...">
<polygon fill="none" stroke="black" points="476.5,-0 476.5,-30 599.5,-30 599.5,-0 476.5,-0"/>
<text text-anchor="start" x="484.5" y="-18" font-family="Helvetica,sans-Serif" font-size="10.00">TinyXML2::XMLElement</text>
<text text-anchor="middle" x="538" y="-7" font-family="Helvetica,sans-Serif" font-size="10.00">::SetText</text>
</a>
</g>
</g>
<!-- Node18&#45;&gt;Node19 -->
<g id="edge24" class="edge"><title>Node18&#45;&gt;Node19</title>
<path fill="none" stroke="midnightblue" d="M441.871,-15C453.371,-15 465.189,-15 476.415,-15"/>
<polygon fill="midnightblue" stroke="midnightblue" points="441.87,-11.5001 431.87,-15 441.87,-18.5001 441.87,-11.5001"/>
</g>
</g>
</svg>
        <g id="navigator" transform="translate(0 0)" fill="#404254">
                <rect fill="#f2f5e9" fill-opacity="0.5" stroke="#606060" stroke-width=".5" x="0" y="0" width="60" height="60"/>
                <use id="zoomplus" xlink:href="#zoomPlus" x="17" y="9" onmousedown="handleZoom(evt,'in')"/>
                <use id="zoomminus" xlink:href="#zoomMin" x="42" y="9" onmousedown="handleZoom(evt,'out')"/>
                <use id="reset" xlink:href="#resetDef" x="30" y="36" onmousedown="handleReset()"/>
                <g id="arrowUp" xlink:href="#dirArrow" transform="translate(30 24)" onmousedown="handlePan(0,-1)">
                  <use xlink:href="#rim" fill="#404040">
                        <set attributeName="fill" to="#808080" begin="arrowUp.mouseover" end="arrowUp.mouseout"/>
                  </use>
                  <path fill="none" stroke="white" stroke-width="1.5" d="M0,-3.0v7 M-2.5,-0.5L0,-3.0L2.5,-0.5"/>
                </g>
                <g id="arrowRight" xlink:href="#dirArrow" transform="rotate(90) translate(36 -43)" onmousedown="handlePan(1,0)">
                  <use xlink:href="#rim" fill="#404040">
                        <set attributeName="fill" to="#808080" begin="arrowRight.mouseover" end="arrowRight.mouseout"/>
                  </use>
                  <path fill="none" stroke="white" stroke-width="1.5" d="M0,-3.0v7 M-2.5,-0.5L0,-3.0L2.5,-0.5"/>
                </g>
                <g id="arrowDown" xlink:href="#dirArrow" transform="rotate(180) translate(-30 -48)" onmousedown="handlePan(0,1)">
                  <use xlink:href="#rim" fill="#404040">
                        <set attributeName="fill" to="#808080" begin="arrowDown.mouseover" end="arrowDown.mouseout"/>
                  </use>
                  <path fill="none" stroke="white" stroke-width="1.5" d="M0,-3.0v7 M-2.5,-0.5L0,-3.0L2.5,-0.5"/>
                </g>
                <g id="arrowLeft" xlink:href="#dirArrow" transform="rotate(270) translate(-36 17)" onmousedown="handlePan(-1,0)">
                  <use xlink:href="#rim" fill="#404040">
                        <set attributeName="fill" to="#808080" begin="arrowLeft.mouseover" end="arrowLeft.mouseout"/>
                  </use>
                  <path fill="none" stroke="white" stroke-width="1.5" d="M0,-3.0v7 M-2.5,-0.5L0,-3.0L2.5,-0.5"/>
                </g>
        </g>
        <svg viewBox="0 0 15 15" width="100%" height="30px" preserveAspectRatio="xMaxYMin meet">
         <g id="arrow_out" transform="scale(0.3 0.3)">
          <a xlink:href="classTinyXML2_1_1XMLNode_a0fe718d6c3d1252c48992c1adc1ce93b_icgraph_org.svg" target="_base">
           <rect id="button" ry="5" rx="5" y="6" x="6" height="38" width="38"
                fill="#f2f5e9" fill-opacity="0.5" stroke="#606060" stroke-width="1.0"/>
           <path id="arrow"
             d="M 11.500037,31.436501 C 11.940474,20.09759 22.043105,11.32322 32.158766,21.979434 L 37.068811,17.246167 C 37.068811,17.246167 37.088388,32 37.088388,32 L 22.160133,31.978069 C 22.160133,31.978069 26.997745,27.140456 26.997745,27.140456 C 18.528582,18.264221 13.291696,25.230495 11.500037,31.436501 z"
             style="fill:#404040;"/>
          </a>
         </g>
        </svg>
</svg>
