<?xml version="1.0" encoding="UTF-8" standalone="no"?>
<!DOCTYPE svg PUBLIC "-//W3C//DTD SVG 1.1//EN"
 "http://www.w3.org/Graphics/SVG/1.1/DTD/svg11.dtd">
<!-- Generated by graphviz version 2.36.0 (20140111.2315)
 -->
<!-- Title: Voxel::TI::TintinModulationFrequencyParameter::set Pages: 1 -->
<svg width="738pt" height="321pt"
 viewBox="0.00 0.00 738.00 321.00" xmlns="http://www.w3.org/2000/svg" xmlns:xlink="http://www.w3.org/1999/xlink">
<g id="graph0" class="graph" transform="scale(1 1) rotate(0) translate(4 317)">
<title>Voxel::TI::TintinModulationFrequencyParameter::set</title>
<!-- Node1 -->
<g id="node1" class="node"><title>Node1</title>
<polygon fill="#bfbfbf" stroke="black" points="0,-131 0,-161 134,-161 134,-131 0,-131"/>
<text text-anchor="start" x="8" y="-149" font-family="Helvetica,sans-Serif" font-size="10.00">Voxel::TI::TintinModulation</text>
<text text-anchor="middle" x="67" y="-138" font-family="Helvetica,sans-Serif" font-size="10.00">FrequencyParameter::set</text>
</g>
<!-- Node2 -->
<g id="node2" class="node"><title>Node2</title>
<g id="a_node2"><a xlink:href="classVoxel_1_1DepthCamera.xhtml#ac850b3829f41e647686610c283197ea6" target="_top" xlink:title="Voxel::DepthCamera\l::_get">
<polygon fill="none" stroke="black" points="407,-283 407,-313 515,-313 515,-283 407,-283"/>
<text text-anchor="start" x="415" y="-301" font-family="Helvetica,sans-Serif" font-size="10.00">Voxel::DepthCamera</text>
<text text-anchor="middle" x="461" y="-290" font-family="Helvetica,sans-Serif" font-size="10.00">::_get</text>
</a>
</g>
</g>
<!-- Node1&#45;&gt;Node2 -->
<g id="edge1" class="edge"><title>Node1&#45;&gt;Node2</title>
<path fill="none" stroke="midnightblue" d="M79.6613,-161.268C96.9227,-182.707 131.419,-221.306 170,-241 242.147,-277.828 335.593,-290.91 396.634,-295.529"/>
<polygon fill="midnightblue" stroke="midnightblue" points="396.672,-299.04 406.892,-296.248 397.162,-292.057 396.672,-299.04"/>
</g>
<!-- Node5 -->
<g id="node5" class="node"><title>Node5</title>
<g id="a_node5"><a xlink:href="classVoxel_1_1DepthCamera.xhtml#a474dfafecfd8b2a97a924aeab8a82a3c" target="_top" xlink:title="Voxel::DepthCamera\l::_set">
<polygon fill="none" stroke="black" points="407,-87 407,-117 515,-117 515,-87 407,-87"/>
<text text-anchor="start" x="415" y="-105" font-family="Helvetica,sans-Serif" font-size="10.00">Voxel::DepthCamera</text>
<text text-anchor="middle" x="461" y="-94" font-family="Helvetica,sans-Serif" font-size="10.00">::_set</text>
</a>
</g>
</g>
<!-- Node1&#45;&gt;Node5 -->
<g id="edge4" class="edge"><title>Node1&#45;&gt;Node5</title>
<path fill="none" stroke="midnightblue" d="M134.237,-132.686C146.112,-130.578 158.398,-128.577 170,-127 247.706,-116.439 337.766,-109.496 396.65,-105.664"/>
<polygon fill="midnightblue" stroke="midnightblue" points="397.153,-109.139 406.909,-105.008 396.706,-102.154 397.153,-109.139"/>
</g>
<!-- Node7 -->
<g id="node7" class="node"><title>Node7</title>
<g id="a_node7"><a xlink:href="classVoxel_1_1TI_1_1TintinVCOFrequency.xhtml#a7d5eab1f89852111c89772f11a695166" target="_top" xlink:title="Voxel::TI::TintinVCOFrequency::get">
<polygon fill="none" stroke="black" points="170.5,-212.5 170.5,-231.5 343.5,-231.5 343.5,-212.5 170.5,-212.5"/>
<text text-anchor="middle" x="257" y="-219.5" font-family="Helvetica,sans-Serif" font-size="10.00">Voxel::TI::TintinVCOFrequency::get</text>
</a>
</g>
</g>
<!-- Node1&#45;&gt;Node7 -->
<g id="edge7" class="edge"><title>Node1&#45;&gt;Node7</title>
<path fill="none" stroke="midnightblue" d="M94.1747,-161.179C114.393,-172.448 143.333,-187.602 170,-198 181.283,-202.4 193.688,-206.349 205.481,-209.713"/>
<polygon fill="midnightblue" stroke="midnightblue" points="204.633,-213.11 215.204,-212.399 206.497,-206.363 204.633,-213.11"/>
</g>
<!-- Node10 -->
<g id="node10" class="node"><title>Node10</title>
<g id="a_node10"><a xlink:href="classVoxel_1_1RangeParameterTemplate.xhtml#a1fa782d7135e9d20267cb18fe98cbfd5" target="_top" xlink:title="Voxel::RangeParameterTemplate\l\&lt; float \&gt;::validate">
<polygon fill="none" stroke="black" points="380.5,-136 380.5,-166 541.5,-166 541.5,-136 380.5,-136"/>
<text text-anchor="start" x="388.5" y="-154" font-family="Helvetica,sans-Serif" font-size="10.00">Voxel::RangeParameterTemplate</text>
<text text-anchor="middle" x="461" y="-143" font-family="Helvetica,sans-Serif" font-size="10.00">&lt; float &gt;::validate</text>
</a>
</g>
</g>
<!-- Node1&#45;&gt;Node10 -->
<g id="edge18" class="edge"><title>Node1&#45;&gt;Node10</title>
<path fill="none" stroke="midnightblue" d="M134.142,-160.149C146.027,-162.169 158.341,-163.923 170,-165 247.006,-172.111 266.806,-169.641 344,-165 352.533,-164.487 361.4,-163.763 370.259,-162.913"/>
<polygon fill="midnightblue" stroke="midnightblue" points="370.644,-166.392 380.241,-161.903 369.94,-159.427 370.644,-166.392"/>
</g>
<!-- Node11 -->
<g id="node11" class="node"><title>Node11</title>
<g id="a_node11"><a xlink:href="classVoxel_1_1DepthCamera.xhtml#a1bee96d5215894d03e16e10634f199e7" target="_top" xlink:title="Voxel::DepthCamera\l::getParam">
<polygon fill="none" stroke="black" points="203,-49 203,-79 311,-79 311,-49 203,-49"/>
<text text-anchor="start" x="211" y="-67" font-family="Helvetica,sans-Serif" font-size="10.00">Voxel::DepthCamera</text>
<text text-anchor="middle" x="257" y="-56" font-family="Helvetica,sans-Serif" font-size="10.00">::getParam</text>
</a>
</g>
</g>
<!-- Node1&#45;&gt;Node11 -->
<g id="edge12" class="edge"><title>Node1&#45;&gt;Node11</title>
<path fill="none" stroke="midnightblue" d="M95.2236,-130.842C115.498,-119.871 144.042,-105.084 170,-94 179.478,-89.9532 189.704,-86.0225 199.682,-82.4111"/>
<polygon fill="midnightblue" stroke="midnightblue" points="200.888,-85.697 209.141,-79.0532 198.546,-79.1004 200.888,-85.697"/>
</g>
<!-- Node12 -->
<g id="node12" class="node"><title>Node12</title>
<g id="a_node12"><a xlink:href="classVoxel_1_1RangeParameterTemplate.xhtml#a5748dd5aee4616996abbecd8b603af2c" target="_top" xlink:title="Voxel::RangeParameterTemplate\l::lowerLimit">
<polygon fill="none" stroke="black" points="176.5,-0 176.5,-30 337.5,-30 337.5,-0 176.5,-0"/>
<text text-anchor="start" x="184.5" y="-18" font-family="Helvetica,sans-Serif" font-size="10.00">Voxel::RangeParameterTemplate</text>
<text text-anchor="middle" x="257" y="-7" font-family="Helvetica,sans-Serif" font-size="10.00">::lowerLimit</text>
</a>
</g>
</g>
<!-- Node1&#45;&gt;Node12 -->
<g id="edge13" class="edge"><title>Node1&#45;&gt;Node12</title>
<path fill="none" stroke="midnightblue" d="M78.3295,-130.758C94.9139,-107.465 129.734,-63.1764 170,-39 172.857,-37.2844 175.841,-35.6878 178.91,-34.2021"/>
<polygon fill="midnightblue" stroke="midnightblue" points="180.58,-37.2918 188.332,-30.0702 177.768,-30.8812 180.58,-37.2918"/>
</g>
<!-- Node13 -->
<g id="node13" class="node"><title>Node13</title>
<g id="a_node13"><a xlink:href="classVoxel_1_1TI_1_1TintinVCOFrequency.xhtml#a68501234c225cd5fa60e41d8fc9469b0" target="_top" xlink:title="Voxel::TI::TintinVCOFrequency::set">
<polygon fill="none" stroke="black" points="170.5,-136.5 170.5,-155.5 343.5,-155.5 343.5,-136.5 170.5,-136.5"/>
<text text-anchor="middle" x="257" y="-143.5" font-family="Helvetica,sans-Serif" font-size="10.00">Voxel::TI::TintinVCOFrequency::set</text>
</a>
</g>
</g>
<!-- Node1&#45;&gt;Node13 -->
<g id="edge14" class="edge"><title>Node1&#45;&gt;Node13</title>
<path fill="none" stroke="midnightblue" d="M134.017,-146C142.55,-146 151.421,-146 160.313,-146"/>
<polygon fill="midnightblue" stroke="midnightblue" points="160.343,-149.5 170.343,-146 160.343,-142.5 160.343,-149.5"/>
</g>
<!-- Node3 -->
<g id="node3" class="node"><title>Node3</title>
<g id="a_node3"><a xlink:href="classVoxel_1_1ParameterTemplate.xhtml#afa8896eaffbd2b87d1482c0967a0fe1d" target="_top" xlink:title="Voxel::ParameterTemplate::get">
<polygon fill="none" stroke="black" points="578,-288.5 578,-307.5 730,-307.5 730,-288.5 578,-288.5"/>
<text text-anchor="middle" x="654" y="-295.5" font-family="Helvetica,sans-Serif" font-size="10.00">Voxel::ParameterTemplate::get</text>
</a>
</g>
</g>
<!-- Node2&#45;&gt;Node3 -->
<g id="edge2" class="edge"><title>Node2&#45;&gt;Node3</title>
<path fill="none" stroke="midnightblue" d="M515.204,-298C531.444,-298 549.729,-298 567.542,-298"/>
<polygon fill="midnightblue" stroke="midnightblue" points="567.957,-301.5 577.957,-298 567.957,-294.5 567.957,-301.5"/>
</g>
<!-- Node4 -->
<g id="node4" class="node"><title>Node4</title>
<g id="a_node4"><a xlink:href="classVoxel_1_1DepthCamera.xhtml#ae3d6fcc6d4a20d1ad2de809ad65ecc34" target="_top" xlink:title="Voxel::DepthCamera\l::name">
<polygon fill="none" stroke="black" points="600,-185 600,-215 708,-215 708,-185 600,-185"/>
<text text-anchor="start" x="608" y="-203" font-family="Helvetica,sans-Serif" font-size="10.00">Voxel::DepthCamera</text>
<text text-anchor="middle" x="654" y="-192" font-family="Helvetica,sans-Serif" font-size="10.00">::name</text>
</a>
</g>
</g>
<!-- Node2&#45;&gt;Node4 -->
<g id="edge3" class="edge"><title>Node2&#45;&gt;Node4</title>
<path fill="none" stroke="midnightblue" d="M515.297,-283.633C524.375,-280.542 533.583,-276.986 542,-273 572.18,-258.707 603.726,-237.232 625.441,-221.27"/>
<polygon fill="midnightblue" stroke="midnightblue" points="627.614,-224.015 633.542,-215.234 623.432,-218.402 627.614,-224.015"/>
</g>
<!-- Node5&#45;&gt;Node4 -->
<g id="edge5" class="edge"><title>Node5&#45;&gt;Node4</title>
<path fill="none" stroke="midnightblue" d="M515.297,-116.367C524.375,-119.458 533.583,-123.014 542,-127 572.18,-141.293 603.726,-162.768 625.441,-178.73"/>
<polygon fill="midnightblue" stroke="midnightblue" points="623.432,-181.598 633.542,-184.766 627.614,-175.985 623.432,-181.598"/>
</g>
<!-- Node6 -->
<g id="node6" class="node"><title>Node6</title>
<g id="a_node6"><a xlink:href="classVoxel_1_1ParameterTemplate.xhtml#a64240b607339f55c4fac973fba8c8934" target="_top" xlink:title="Voxel::ParameterTemplate::set">
<polygon fill="none" stroke="black" points="578,-92.5 578,-111.5 730,-111.5 730,-92.5 578,-92.5"/>
<text text-anchor="middle" x="654" y="-99.5" font-family="Helvetica,sans-Serif" font-size="10.00">Voxel::ParameterTemplate::set</text>
</a>
</g>
</g>
<!-- Node5&#45;&gt;Node6 -->
<g id="edge6" class="edge"><title>Node5&#45;&gt;Node6</title>
<path fill="none" stroke="midnightblue" d="M515.204,-102C531.444,-102 549.729,-102 567.542,-102"/>
<polygon fill="midnightblue" stroke="midnightblue" points="567.957,-105.5 577.957,-102 567.957,-98.5001 567.957,-105.5"/>
</g>
<!-- Node7&#45;&gt;Node2 -->
<g id="edge8" class="edge"><title>Node7&#45;&gt;Node2</title>
<path fill="none" stroke="midnightblue" d="M279.358,-231.641C303.527,-242.383 344.195,-259.954 380,-273 386.338,-275.309 393.004,-277.602 399.672,-279.809"/>
<polygon fill="midnightblue" stroke="midnightblue" points="398.811,-283.209 409.403,-282.972 400.975,-276.552 398.811,-283.209"/>
</g>
<!-- Node8 -->
<g id="node8" class="node"><title>Node8</title>
<g id="a_node8"><a xlink:href="classVoxel_1_1TI_1_1ToFTintinCamera.xhtml#a793dd51b034de659906683a35920b09f" target="_top" xlink:title="Voxel::TI::ToFTintinCamera\l::_getSystemClockFrequency">
<polygon fill="none" stroke="black" points="388,-185 388,-215 534,-215 534,-185 388,-185"/>
<text text-anchor="start" x="396" y="-203" font-family="Helvetica,sans-Serif" font-size="10.00">Voxel::TI::ToFTintinCamera</text>
<text text-anchor="middle" x="461" y="-192" font-family="Helvetica,sans-Serif" font-size="10.00">::_getSystemClockFrequency</text>
</a>
</g>
</g>
<!-- Node7&#45;&gt;Node8 -->
<g id="edge9" class="edge"><title>Node7&#45;&gt;Node8</title>
<path fill="none" stroke="midnightblue" d="M343.666,-212.67C354.945,-211.442 366.485,-210.185 377.706,-208.963"/>
<polygon fill="midnightblue" stroke="midnightblue" points="378.342,-212.414 387.904,-207.852 377.584,-205.455 378.342,-212.414"/>
</g>
<!-- Node9 -->
<g id="node9" class="node"><title>Node9</title>
<g id="a_node9"><a xlink:href="classVoxel_1_1ParameterTemplate.xhtml#a3f4472338de2a9fc48cddf389b85fb1b" target="_top" xlink:title="Voxel::ParameterTemplate\l\&lt; float \&gt;::refresh">
<polygon fill="none" stroke="black" points="394.5,-234 394.5,-264 527.5,-264 527.5,-234 394.5,-234"/>
<text text-anchor="start" x="402.5" y="-252" font-family="Helvetica,sans-Serif" font-size="10.00">Voxel::ParameterTemplate</text>
<text text-anchor="middle" x="461" y="-241" font-family="Helvetica,sans-Serif" font-size="10.00">&lt; float &gt;::refresh</text>
</a>
</g>
</g>
<!-- Node7&#45;&gt;Node9 -->
<g id="edge10" class="edge"><title>Node7&#45;&gt;Node9</title>
<path fill="none" stroke="midnightblue" d="M329.218,-231.519C347.14,-233.915 366.436,-236.494 384.557,-238.916"/>
<polygon fill="midnightblue" stroke="midnightblue" points="384.112,-242.388 394.487,-240.243 385.039,-235.449 384.112,-242.388"/>
</g>
<!-- Node7&#45;&gt;Node10 -->
<g id="edge11" class="edge"><title>Node7&#45;&gt;Node10</title>
<path fill="none" stroke="midnightblue" d="M301.238,-212.433C315.172,-208.694 330.497,-203.875 344,-198 361.194,-190.52 362.923,-183.744 380,-176 385.052,-173.709 390.374,-171.546 395.773,-169.523"/>
<polygon fill="midnightblue" stroke="midnightblue" points="397.293,-172.697 405.533,-166.037 394.939,-166.105 397.293,-172.697"/>
</g>
<!-- Node13&#45;&gt;Node5 -->
<g id="edge16" class="edge"><title>Node13&#45;&gt;Node5</title>
<path fill="none" stroke="midnightblue" d="M301.831,-136.453C329.682,-130.386 366.181,-122.436 397.099,-115.701"/>
<polygon fill="midnightblue" stroke="midnightblue" points="397.897,-119.11 406.923,-113.561 396.407,-112.27 397.897,-119.11"/>
</g>
<!-- Node13&#45;&gt;Node8 -->
<g id="edge15" class="edge"><title>Node13&#45;&gt;Node8</title>
<path fill="none" stroke="midnightblue" d="M293.649,-155.53C321.379,-162.943 360.627,-173.435 394.037,-182.366"/>
<polygon fill="midnightblue" stroke="midnightblue" points="393.179,-185.76 403.743,-184.961 394.986,-178.997 393.179,-185.76"/>
</g>
<!-- Node13&#45;&gt;Node10 -->
<g id="edge17" class="edge"><title>Node13&#45;&gt;Node10</title>
<path fill="none" stroke="midnightblue" d="M343.666,-148.12C352.4,-148.337 361.29,-148.557 370.067,-148.774"/>
<polygon fill="midnightblue" stroke="midnightblue" points="370.219,-152.279 380.302,-149.027 370.392,-145.281 370.219,-152.279"/>
</g>
</g>
</svg>
