<?xml version="1.0" encoding="UTF-8" standalone="no"?>
<!DOCTYPE svg PUBLIC "-//W3C//DTD SVG 1.1//EN"
 "http://www.w3.org/Graphics/SVG/1.1/DTD/svg11.dtd">
<!-- Generated by graphviz version 2.36.0 (20140111.2315)
 -->
<!-- Title: ELFIO::elfio::Sections Pages: 1 -->
<svg width="682pt" height="241pt"
 viewBox="0.00 0.00 682.00 241.00" xmlns="http://www.w3.org/2000/svg" xmlns:xlink="http://www.w3.org/1999/xlink">
<g id="graph0" class="graph" transform="scale(1 1) rotate(0) translate(4 237)">
<title>ELFIO::elfio::Sections</title>
<!-- Node1 -->
<g id="node1" class="node"><title>Node1</title>
<polygon fill="#bfbfbf" stroke="black" points="164.5,-203.5 164.5,-222.5 277.5,-222.5 277.5,-203.5 164.5,-203.5"/>
<text text-anchor="middle" x="221" y="-210.5" font-family="Helvetica,sans-Serif" font-size="10.00">ELFIO::elfio::Sections</text>
</g>
<!-- Node2 -->
<g id="node2" class="node"><title>Node2</title>
<g id="a_node2"><a xlink:href="classELFIO_1_1elfio.xhtml" target="_top" xlink:title="ELFIO::elfio">
<polygon fill="none" stroke="black" points="402.5,-114.5 402.5,-133.5 471.5,-133.5 471.5,-114.5 402.5,-114.5"/>
<text text-anchor="middle" x="437" y="-121.5" font-family="Helvetica,sans-Serif" font-size="10.00">ELFIO::elfio</text>
</a>
</g>
</g>
<!-- Node1&#45;&gt;Node2 -->
<g id="edge7" class="edge"><title>Node1&#45;&gt;Node2</title>
<path fill="none" stroke="#9a32cd" stroke-dasharray="5,2" d="M287.997,-222.522C319.039,-223.831 355.421,-220.552 384,-204 411.522,-188.06 427.011,-151.03 433.035,-133.511"/>
<polygon fill="#9a32cd" stroke="#9a32cd" points="287.881,-219.009 277.693,-221.915 287.47,-225.997 287.881,-219.009"/>
<text text-anchor="middle" x="347" y="-225" font-family="Helvetica,sans-Serif" font-size="10.00"> sections</text>
</g>
<!-- Node2&#45;&gt;Node1 -->
<g id="edge1" class="edge"><title>Node2&#45;&gt;Node1</title>
<path fill="none" stroke="#9a32cd" stroke-dasharray="5,2" d="M417.646,-140.228C408.13,-147.98 396.008,-156.879 384,-163 346.632,-182.049 300.669,-195.384 267.259,-203.463"/>
<polygon fill="#9a32cd" stroke="#9a32cd" points="420.185,-142.665 425.575,-133.544 415.673,-137.313 420.185,-142.665"/>
<text text-anchor="middle" x="347" y="-194" font-family="Helvetica,sans-Serif" font-size="10.00"> parent</text>
</g>
<!-- Node5 -->
<g id="node5" class="node"><title>Node5</title>
<g id="a_node5"><a xlink:href="classELFIO_1_1elfio_1_1Segments.xhtml" target="_top" xlink:title="ELFIO::elfio::Segments">
<polygon fill="none" stroke="black" points="554.5,-114.5 554.5,-133.5 673.5,-133.5 673.5,-114.5 554.5,-114.5"/>
<text text-anchor="middle" x="614" y="-121.5" font-family="Helvetica,sans-Serif" font-size="10.00">ELFIO::elfio::Segments</text>
</a>
</g>
</g>
<!-- Node2&#45;&gt;Node5 -->
<g id="edge5" class="edge"><title>Node2&#45;&gt;Node5</title>
<path fill="none" stroke="#9a32cd" stroke-dasharray="5,2" d="M481.75,-124C503.664,-124 530.507,-124 554.195,-124"/>
<polygon fill="#9a32cd" stroke="#9a32cd" points="481.742,-120.5 471.742,-124 481.742,-127.5 481.742,-120.5"/>
<text text-anchor="middle" x="513" y="-127" font-family="Helvetica,sans-Serif" font-size="10.00"> parent</text>
</g>
<!-- Node3 -->
<g id="node3" class="node"><title>Node3</title>
<polygon fill="none" stroke="#bfbfbf" points="154,-152.5 154,-171.5 288,-171.5 288,-152.5 154,-152.5"/>
<text text-anchor="middle" x="221" y="-159.5" font-family="Helvetica,sans-Serif" font-size="10.00">vector&lt; ELFIO::section * &gt;</text>
</g>
<!-- Node3&#45;&gt;Node2 -->
<g id="edge2" class="edge"><title>Node3&#45;&gt;Node2</title>
<path fill="none" stroke="#9a32cd" stroke-dasharray="5,2" d="M298.21,-150.857C325.36,-146.6 356.112,-141.449 384,-136 389.911,-134.845 396.172,-133.503 402.225,-132.143"/>
<polygon fill="#9a32cd" stroke="#9a32cd" points="297.339,-147.45 287.994,-152.443 298.413,-154.367 297.339,-147.45"/>
<text text-anchor="middle" x="347" y="-151" font-family="Helvetica,sans-Serif" font-size="10.00"> sections_</text>
</g>
<!-- Node4 -->
<g id="node4" class="node"><title>Node4</title>
<polygon fill="none" stroke="#bfbfbf" points="195.5,-114.5 195.5,-133.5 246.5,-133.5 246.5,-114.5 195.5,-114.5"/>
<text text-anchor="middle" x="221" y="-121.5" font-family="Helvetica,sans-Serif" font-size="10.00">uint64_t</text>
</g>
<!-- Node4&#45;&gt;Node2 -->
<g id="edge3" class="edge"><title>Node4&#45;&gt;Node2</title>
<path fill="none" stroke="#9a32cd" stroke-dasharray="5,2" d="M256.664,-124C296.815,-124 362.522,-124 402.272,-124"/>
<polygon fill="#9a32cd" stroke="#9a32cd" points="256.549,-120.5 246.549,-124 256.548,-127.5 256.549,-120.5"/>
<text text-anchor="middle" x="347" y="-127" font-family="Helvetica,sans-Serif" font-size="10.00"> current_file_pos</text>
</g>
<!-- Node5&#45;&gt;Node2 -->
<g id="edge4" class="edge"><title>Node5&#45;&gt;Node2</title>
<path fill="none" stroke="#9a32cd" stroke-dasharray="5,2" d="M569.007,-112.322C545.526,-107.591 516.155,-104.067 490,-108 481.22,-109.32 471.877,-111.828 463.568,-114.474"/>
<polygon fill="#9a32cd" stroke="#9a32cd" points="568.501,-115.793 579.014,-114.481 569.977,-108.951 568.501,-115.793"/>
<text text-anchor="middle" x="513" y="-111" font-family="Helvetica,sans-Serif" font-size="10.00"> segments</text>
</g>
<!-- Node6 -->
<g id="node6" class="node"><title>Node6</title>
<g id="a_node6"><a xlink:href="classELFIO_1_1elf__header.xhtml" target="_top" xlink:title="ELFIO::elf_header">
<polygon fill="none" stroke="black" points="173,-76.5 173,-95.5 269,-95.5 269,-76.5 173,-76.5"/>
<text text-anchor="middle" x="221" y="-83.5" font-family="Helvetica,sans-Serif" font-size="10.00">ELFIO::elf_header</text>
</a>
</g>
</g>
<!-- Node6&#45;&gt;Node2 -->
<g id="edge6" class="edge"><title>Node6&#45;&gt;Node2</title>
<path fill="none" stroke="#9a32cd" stroke-dasharray="5,2" d="M279.335,-92.1579C310.481,-95.9995 349.56,-101.626 384,-109 391.074,-110.515 398.598,-112.475 405.659,-114.477"/>
<polygon fill="#9a32cd" stroke="#9a32cd" points="279.441,-88.6454 269.094,-90.9235 278.603,-95.5951 279.441,-88.6454"/>
<text text-anchor="middle" x="347" y="-112" font-family="Helvetica,sans-Serif" font-size="10.00"> header</text>
</g>
<!-- Node7 -->
<g id="node7" class="node"><title>Node7</title>
<polygon fill="none" stroke="#bfbfbf" points="151,-38.5 151,-57.5 291,-57.5 291,-38.5 151,-38.5"/>
<text text-anchor="middle" x="221" y="-45.5" font-family="Helvetica,sans-Serif" font-size="10.00">vector&lt; ELFIO::segment * &gt;</text>
</g>
<!-- Node7&#45;&gt;Node2 -->
<g id="edge8" class="edge"><title>Node7&#45;&gt;Node2</title>
<path fill="none" stroke="#9a32cd" stroke-dasharray="5,2" d="M301.245,-56.2032C328.413,-61.0539 358.4,-68.7614 384,-81 401.122,-89.1853 417.397,-104.231 427.041,-114.176"/>
<polygon fill="#9a32cd" stroke="#9a32cd" points="301.819,-52.7506 291.377,-54.5422 300.658,-59.6535 301.819,-52.7506"/>
<text text-anchor="middle" x="347" y="-84" font-family="Helvetica,sans-Serif" font-size="10.00"> segments_</text>
</g>
<!-- Node8 -->
<g id="node8" class="node"><title>Node8</title>
<g id="a_node8"><a xlink:href="classELFIO_1_1endianess__convertor.xhtml" target="_top" xlink:title="ELFIO::endianess_convertor">
<polygon fill="none" stroke="black" points="150.5,-0.5 150.5,-19.5 291.5,-19.5 291.5,-0.5 150.5,-0.5"/>
<text text-anchor="middle" x="221" y="-7.5" font-family="Helvetica,sans-Serif" font-size="10.00">ELFIO::endianess_convertor</text>
</a>
</g>
</g>
<!-- Node8&#45;&gt;Node2 -->
<g id="edge9" class="edge"><title>Node8&#45;&gt;Node2</title>
<path fill="none" stroke="#9a32cd" stroke-dasharray="5,2" d="M301.874,-13.6164C329.77,-18.0122 360.062,-26.6049 384,-43 410.334,-61.0358 426.319,-97.2479 432.738,-114.474"/>
<polygon fill="#9a32cd" stroke="#9a32cd" points="302.112,-10.1154 291.721,-12.1801 301.132,-17.0464 302.112,-10.1154"/>
<text text-anchor="middle" x="347" y="-46" font-family="Helvetica,sans-Serif" font-size="10.00"> convertor</text>
</g>
<!-- Node9 -->
<g id="node9" class="node"><title>Node9</title>
<g id="a_node9"><a xlink:href="classbool.xhtml" target="_top" xlink:title="bool">
<polygon fill="none" stroke="black" points="0.5,-0.5 0.5,-19.5 35.5,-19.5 35.5,-0.5 0.5,-0.5"/>
<text text-anchor="middle" x="18" y="-7.5" font-family="Helvetica,sans-Serif" font-size="10.00">bool</text>
</a>
</g>
</g>
<!-- Node9&#45;&gt;Node8 -->
<g id="edge10" class="edge"><title>Node9&#45;&gt;Node8</title>
<path fill="none" stroke="#9a32cd" stroke-dasharray="5,2" d="M45.8519,-10C72.4228,-10 114.221,-10 150.208,-10"/>
<polygon fill="#9a32cd" stroke="#9a32cd" points="45.7915,-6.5001 35.7914,-10 45.7914,-13.5001 45.7915,-6.5001"/>
<text text-anchor="middle" x="93" y="-13" font-family="Helvetica,sans-Serif" font-size="10.00"> need_conversion</text>
</g>
</g>
</svg>
