<?xml version="1.0" encoding="UTF-8" standalone="no"?>
<!DOCTYPE svg PUBLIC "-//W3C//DTD SVG 1.1//EN"
 "http://www.w3.org/Graphics/SVG/1.1/DTD/svg11.dtd">
<!-- Generated by graphviz version 2.36.0 (20140111.2315)
 -->
<!-- Title: Voxel::TI::CalculusCDKCamera::_initStartParams Pages: 1 -->
<svg width="1598pt" height="878pt"
 viewBox="0.00 0.00 1598.00 878.46" xmlns="http://www.w3.org/2000/svg" xmlns:xlink="http://www.w3.org/1999/xlink">
<g id="graph0" class="graph" transform="scale(1 1) rotate(0) translate(4 874.456)">
<title>Voxel::TI::CalculusCDKCamera::_initStartParams</title>
<!-- Node1 -->
<g id="node1" class="node"><title>Node1</title>
<polygon fill="#bfbfbf" stroke="black" points="0.5,-759 0.5,-789 157.5,-789 157.5,-759 0.5,-759"/>
<text text-anchor="start" x="8.5" y="-777" font-family="Helvetica,sans-Serif" font-size="10.00">Voxel::TI::CalculusCDKCamera</text>
<text text-anchor="middle" x="79" y="-766" font-family="Helvetica,sans-Serif" font-size="10.00">::_initStartParams</text>
</g>
<!-- Node2 -->
<g id="node2" class="node"><title>Node2</title>
<g id="a_node2"><a xlink:href="classVoxel_1_1TI_1_1ToFCalculusCamera.xhtml#adf420ba5e95dcb0cbd3da90f446242d9" target="_top" xlink:title="Voxel::TI::ToFCalculusCamera\l::_initStartParams">
<polygon fill="none" stroke="black" points="194,-759 194,-789 346,-789 346,-759 194,-759"/>
<text text-anchor="start" x="202" y="-777" font-family="Helvetica,sans-Serif" font-size="10.00">Voxel::TI::ToFCalculusCamera</text>
<text text-anchor="middle" x="270" y="-766" font-family="Helvetica,sans-Serif" font-size="10.00">::_initStartParams</text>
</a>
</g>
</g>
<!-- Node1&#45;&gt;Node2 -->
<g id="edge1" class="edge"><title>Node1&#45;&gt;Node2</title>
<path fill="none" stroke="midnightblue" d="M157.692,-774C166.254,-774 175.006,-774 183.655,-774"/>
<polygon fill="midnightblue" stroke="midnightblue" points="183.743,-777.5 193.743,-774 183.743,-770.5 183.743,-777.5"/>
</g>
<!-- Node3 -->
<g id="node3" class="node"><title>Node3</title>
<g id="a_node3"><a xlink:href="classVoxel_1_1DepthCamera.xhtml#a4f1c6d826c1842d7bc3fbeea5ebb9616" target="_top" xlink:title="Voxel::DepthCamera::set">
<polygon fill="none" stroke="black" points="382,-832.5 382,-851.5 510,-851.5 510,-832.5 382,-832.5"/>
<text text-anchor="middle" x="446" y="-839.5" font-family="Helvetica,sans-Serif" font-size="10.00">Voxel::DepthCamera::set</text>
</a>
</g>
</g>
<!-- Node2&#45;&gt;Node3 -->
<g id="edge2" class="edge"><title>Node2&#45;&gt;Node3</title>
<path fill="none" stroke="midnightblue" d="M309.616,-789.091C340.02,-800.973 381.983,-817.373 411.099,-828.751"/>
<polygon fill="midnightblue" stroke="midnightblue" points="409.857,-832.024 420.445,-832.404 412.405,-825.504 409.857,-832.024"/>
</g>
<!-- Node7 -->
<g id="node7" class="node"><title>Node7</title>
<g id="a_node7"><a xlink:href="classVoxel_1_1DepthCamera.xhtml#ab2be6abc24dd344f63e082c19273d833" target="_top" xlink:title="Voxel::DepthCamera\l::getROI">
<polygon fill="none" stroke="black" points="561,-784 561,-814 669,-814 669,-784 561,-784"/>
<text text-anchor="start" x="569" y="-802" font-family="Helvetica,sans-Serif" font-size="10.00">Voxel::DepthCamera</text>
<text text-anchor="middle" x="615" y="-791" font-family="Helvetica,sans-Serif" font-size="10.00">::getROI</text>
</a>
</g>
</g>
<!-- Node2&#45;&gt;Node7 -->
<g id="edge6" class="edge"><title>Node2&#45;&gt;Node7</title>
<path fill="none" stroke="midnightblue" d="M346.273,-779.486C407.571,-783.954 493.118,-790.189 550.877,-794.399"/>
<polygon fill="midnightblue" stroke="midnightblue" points="550.742,-797.899 560.97,-795.135 551.251,-790.917 550.742,-797.899"/>
</g>
<!-- Node9 -->
<g id="node9" class="node"><title>Node9</title>
<g id="a_node9"><a xlink:href="classVoxel_1_1DepthCamera.xhtml#a52d1041f172901ff9206b1b409d4711d" target="_top" xlink:title="Voxel::DepthCamera\l::getFrameSize">
<polygon fill="none" stroke="black" points="561,-735 561,-765 669,-765 669,-735 561,-735"/>
<text text-anchor="start" x="569" y="-753" font-family="Helvetica,sans-Serif" font-size="10.00">Voxel::DepthCamera</text>
<text text-anchor="middle" x="615" y="-742" font-family="Helvetica,sans-Serif" font-size="10.00">::getFrameSize</text>
</a>
</g>
</g>
<!-- Node2&#45;&gt;Node9 -->
<g id="edge8" class="edge"><title>Node2&#45;&gt;Node9</title>
<path fill="none" stroke="midnightblue" d="M346.273,-768.733C407.571,-764.444 493.118,-758.458 550.877,-754.417"/>
<polygon fill="midnightblue" stroke="midnightblue" points="551.238,-757.9 560.97,-753.711 550.75,-750.917 551.238,-757.9"/>
</g>
<!-- Node11 -->
<g id="node11" class="node"><title>Node11</title>
<g id="a_node11"><a xlink:href="classVoxel_1_1TI_1_1ToFCamera.xhtml#a52686f695d06876ef5a89e453c6a8ba3" target="_top" xlink:title="Voxel::TI::ToFCamera\l::_initStartParams">
<polygon fill="none" stroke="black" points="389,-416 389,-446 503,-446 503,-416 389,-416"/>
<text text-anchor="start" x="397" y="-434" font-family="Helvetica,sans-Serif" font-size="10.00">Voxel::TI::ToFCamera</text>
<text text-anchor="middle" x="446" y="-423" font-family="Helvetica,sans-Serif" font-size="10.00">::_initStartParams</text>
</a>
</g>
</g>
<!-- Node2&#45;&gt;Node11 -->
<g id="edge10" class="edge"><title>Node2&#45;&gt;Node11</title>
<path fill="none" stroke="midnightblue" d="M278.701,-758.819C306.102,-704.805 399.018,-521.643 432.688,-455.271"/>
<polygon fill="midnightblue" stroke="midnightblue" points="435.985,-456.507 437.388,-446.006 429.742,-453.34 435.985,-456.507"/>
</g>
<!-- Node4 -->
<g id="node4" class="node"><title>Node4</title>
<g id="a_node4"><a xlink:href="classVoxel_1_1DepthCamera.xhtml#a474dfafecfd8b2a97a924aeab8a82a3c" target="_top" xlink:title="Voxel::DepthCamera\l::_set">
<polygon fill="none" stroke="black" points="561,-833 561,-863 669,-863 669,-833 561,-833"/>
<text text-anchor="start" x="569" y="-851" font-family="Helvetica,sans-Serif" font-size="10.00">Voxel::DepthCamera</text>
<text text-anchor="middle" x="615" y="-840" font-family="Helvetica,sans-Serif" font-size="10.00">::_set</text>
</a>
</g>
</g>
<!-- Node3&#45;&gt;Node4 -->
<g id="edge3" class="edge"><title>Node3&#45;&gt;Node4</title>
<path fill="none" stroke="midnightblue" d="M510.136,-844.268C523.458,-844.747 537.517,-845.252 550.84,-845.731"/>
<polygon fill="midnightblue" stroke="midnightblue" points="550.741,-849.229 560.861,-846.091 550.993,-842.234 550.741,-849.229"/>
</g>
<!-- Node5 -->
<g id="node5" class="node"><title>Node5</title>
<g id="a_node5"><a xlink:href="classVoxel_1_1DepthCamera.xhtml#ae3d6fcc6d4a20d1ad2de809ad65ecc34" target="_top" xlink:title="Voxel::DepthCamera\l::name">
<polygon fill="none" stroke="black" points="942,-798 942,-828 1050,-828 1050,-798 942,-798"/>
<text text-anchor="start" x="950" y="-816" font-family="Helvetica,sans-Serif" font-size="10.00">Voxel::DepthCamera</text>
<text text-anchor="middle" x="996" y="-805" font-family="Helvetica,sans-Serif" font-size="10.00">::name</text>
</a>
</g>
</g>
<!-- Node4&#45;&gt;Node5 -->
<g id="edge4" class="edge"><title>Node4&#45;&gt;Node5</title>
<path fill="none" stroke="midnightblue" d="M669.005,-858.748C723.525,-867.952 810.603,-877.48 884,-862 910.752,-856.358 938.91,-843.841 960.172,-832.871"/>
<polygon fill="midnightblue" stroke="midnightblue" points="961.93,-835.901 969.131,-828.13 958.655,-829.714 961.93,-835.901"/>
</g>
<!-- Node6 -->
<g id="node6" class="node"><title>Node6</title>
<g id="a_node6"><a xlink:href="classVoxel_1_1ParameterTemplate.xhtml#a64240b607339f55c4fac973fba8c8934" target="_top" xlink:title="Voxel::ParameterTemplate::set">
<polygon fill="none" stroke="black" points="726,-833.5 726,-852.5 878,-852.5 878,-833.5 726,-833.5"/>
<text text-anchor="middle" x="802" y="-840.5" font-family="Helvetica,sans-Serif" font-size="10.00">Voxel::ParameterTemplate::set</text>
</a>
</g>
</g>
<!-- Node4&#45;&gt;Node6 -->
<g id="edge5" class="edge"><title>Node4&#45;&gt;Node6</title>
<path fill="none" stroke="midnightblue" d="M669.014,-846.567C683.553,-846.174 699.694,-845.738 715.558,-845.309"/>
<polygon fill="midnightblue" stroke="midnightblue" points="716.02,-848.798 725.922,-845.029 715.831,-841.801 716.02,-848.798"/>
</g>
<!-- Node8 -->
<g id="node8" class="node"><title>Node8</title>
<g id="a_node8"><a xlink:href="classVoxel_1_1DepthCamera.xhtml#ae09d2aaee73e56b4b488897f6081191e" target="_top" xlink:title="Voxel::DepthCamera\l::_getROI">
<polygon fill="none" stroke="black" points="748,-784 748,-814 856,-814 856,-784 748,-784"/>
<text text-anchor="start" x="756" y="-802" font-family="Helvetica,sans-Serif" font-size="10.00">Voxel::DepthCamera</text>
<text text-anchor="middle" x="802" y="-791" font-family="Helvetica,sans-Serif" font-size="10.00">::_getROI</text>
</a>
</g>
</g>
<!-- Node7&#45;&gt;Node8 -->
<g id="edge7" class="edge"><title>Node7&#45;&gt;Node8</title>
<path fill="none" stroke="midnightblue" d="M669.014,-799C690.495,-799 715.473,-799 737.884,-799"/>
<polygon fill="midnightblue" stroke="midnightblue" points="737.979,-802.5 747.979,-799 737.979,-795.5 737.979,-802.5"/>
</g>
<!-- Node10 -->
<g id="node10" class="node"><title>Node10</title>
<g id="a_node10"><a xlink:href="classVoxel_1_1DepthCamera.xhtml#a7cca2c2413b60d0d2ef26e0cb8802118" target="_top" xlink:title="Voxel::DepthCamera\l::_getFrameSize">
<polygon fill="none" stroke="black" points="748,-735 748,-765 856,-765 856,-735 748,-735"/>
<text text-anchor="start" x="756" y="-753" font-family="Helvetica,sans-Serif" font-size="10.00">Voxel::DepthCamera</text>
<text text-anchor="middle" x="802" y="-742" font-family="Helvetica,sans-Serif" font-size="10.00">::_getFrameSize</text>
</a>
</g>
</g>
<!-- Node9&#45;&gt;Node10 -->
<g id="edge9" class="edge"><title>Node9&#45;&gt;Node10</title>
<path fill="none" stroke="midnightblue" d="M669.014,-750C690.495,-750 715.473,-750 737.884,-750"/>
<polygon fill="midnightblue" stroke="midnightblue" points="737.979,-753.5 747.979,-750 737.979,-746.5 737.979,-753.5"/>
</g>
<!-- Node11&#45;&gt;Node7 -->
<g id="edge12" class="edge"><title>Node11&#45;&gt;Node7</title>
<path fill="none" stroke="midnightblue" d="M446.814,-446.329C447.011,-499.195 454.771,-676.021 546,-774 547.837,-775.973 549.844,-777.792 551.979,-779.467"/>
<polygon fill="midnightblue" stroke="midnightblue" points="550.481,-782.671 560.758,-785.245 554.329,-776.824 550.481,-782.671"/>
</g>
<!-- Node11&#45;&gt;Node9 -->
<g id="edge17" class="edge"><title>Node11&#45;&gt;Node9</title>
<path fill="none" stroke="midnightblue" d="M447.67,-446.138C450.592,-493.848 466.006,-642.775 546,-725 547.88,-726.933 549.922,-728.717 552.086,-730.364"/>
<polygon fill="midnightblue" stroke="midnightblue" points="550.646,-733.599 560.95,-736.062 554.431,-727.711 550.646,-733.599"/>
</g>
<!-- Node12 -->
<g id="node12" class="node"><title>Node12</title>
<g id="a_node12"><a xlink:href="classVoxel_1_1TI_1_1ToFCamera.xhtml#abb0e21a487e4d2ae08031d0078b0578d" target="_top" xlink:title="Voxel::TI::ToFCamera\l::_getBinning">
<polygon fill="none" stroke="black" points="558,-147 558,-177 672,-177 672,-147 558,-147"/>
<text text-anchor="start" x="566" y="-165" font-family="Helvetica,sans-Serif" font-size="10.00">Voxel::TI::ToFCamera</text>
<text text-anchor="middle" x="615" y="-154" font-family="Helvetica,sans-Serif" font-size="10.00">::_getBinning</text>
</a>
</g>
</g>
<!-- Node11&#45;&gt;Node12 -->
<g id="edge11" class="edge"><title>Node11&#45;&gt;Node12</title>
<path fill="none" stroke="midnightblue" d="M448.778,-415.959C454.57,-373.629 476.703,-252.265 546,-186 547.131,-184.918 548.314,-183.885 549.54,-182.898"/>
<polygon fill="midnightblue" stroke="midnightblue" points="551.878,-185.542 558.192,-177.034 547.95,-179.748 551.878,-185.542"/>
</g>
<!-- Node13 -->
<g id="node13" class="node"><title>Node13</title>
<g id="a_node13"><a xlink:href="classVoxel_1_1ConfigurationFile.xhtml#aeefbdefcac8743d6f08c25109480da2f" target="_top" xlink:title="Voxel::ConfigurationFile\l::getInteger">
<polygon fill="none" stroke="black" points="554.5,-98 554.5,-128 675.5,-128 675.5,-98 554.5,-98"/>
<text text-anchor="start" x="562.5" y="-116" font-family="Helvetica,sans-Serif" font-size="10.00">Voxel::ConfigurationFile</text>
<text text-anchor="middle" x="615" y="-105" font-family="Helvetica,sans-Serif" font-size="10.00">::getInteger</text>
</a>
</g>
</g>
<!-- Node11&#45;&gt;Node13 -->
<g id="edge13" class="edge"><title>Node11&#45;&gt;Node13</title>
<path fill="none" stroke="midnightblue" d="M447.625,-415.818C450.412,-367.976 465.472,-218.703 546,-137 547.071,-135.913 548.194,-134.876 549.362,-133.885"/>
<polygon fill="midnightblue" stroke="midnightblue" points="551.516,-136.648 557.642,-128.003 547.462,-130.941 551.516,-136.648"/>
</g>
<!-- Node14 -->
<g id="node14" class="node"><title>Node14</title>
<g id="a_node14"><a xlink:href="classVoxel_1_1ConfigurationFile.xhtml#a3145251f8115c7ada128556345a41c62" target="_top" xlink:title="Voxel::ConfigurationFile\l::getFloat">
<polygon fill="none" stroke="black" points="554.5,-49 554.5,-79 675.5,-79 675.5,-49 554.5,-49"/>
<text text-anchor="start" x="562.5" y="-67" font-family="Helvetica,sans-Serif" font-size="10.00">Voxel::ConfigurationFile</text>
<text text-anchor="middle" x="615" y="-56" font-family="Helvetica,sans-Serif" font-size="10.00">::getFloat</text>
</a>
</g>
</g>
<!-- Node11&#45;&gt;Node14 -->
<g id="edge14" class="edge"><title>Node11&#45;&gt;Node14</title>
<path fill="none" stroke="midnightblue" d="M446.767,-415.993C446.779,-363.44 453.922,-185.609 546,-88 546.918,-87.0267 547.878,-86.0929 548.875,-85.1969"/>
<polygon fill="midnightblue" stroke="midnightblue" points="551.216,-87.8179 557.152,-79.0422 547.039,-82.2006 551.216,-87.8179"/>
</g>
<!-- Node15 -->
<g id="node15" class="node"><title>Node15</title>
<g id="a_node15"><a xlink:href="classVoxel_1_1DepthCamera.xhtml#aa229ee837c73aa2c78a8bd7a26fa0955" target="_top" xlink:title="Voxel::DepthCamera\l::getMaximumFrameSize">
<polygon fill="none" stroke="black" points="552,-0 552,-30 678,-30 678,-0 552,-0"/>
<text text-anchor="start" x="560" y="-18" font-family="Helvetica,sans-Serif" font-size="10.00">Voxel::DepthCamera</text>
<text text-anchor="middle" x="615" y="-7" font-family="Helvetica,sans-Serif" font-size="10.00">::getMaximumFrameSize</text>
</a>
</g>
</g>
<!-- Node11&#45;&gt;Node15 -->
<g id="edge15" class="edge"><title>Node11&#45;&gt;Node15</title>
<path fill="none" stroke="midnightblue" d="M448.939,-415.583C457.443,-350.219 493.378,-96.6957 546,-39 546.878,-38.0374 547.797,-37.1135 548.752,-36.2266"/>
<polygon fill="midnightblue" stroke="midnightblue" points="550.9,-38.9904 556.704,-30.127 546.639,-33.4361 550.9,-38.9904"/>
</g>
<!-- Node17 -->
<g id="node17" class="node"><title>Node17</title>
<g id="a_node17"><a xlink:href="classVoxel_1_1TI_1_1ToFCamera.xhtml#acf6c3a732c5a47f38f2d461d76709091" target="_top" xlink:title="Voxel::TI::ToFCamera\l::_getBytesPerPixel">
<polygon fill="none" stroke="black" points="558,-686 558,-716 672,-716 672,-686 558,-686"/>
<text text-anchor="start" x="566" y="-704" font-family="Helvetica,sans-Serif" font-size="10.00">Voxel::TI::ToFCamera</text>
<text text-anchor="middle" x="615" y="-693" font-family="Helvetica,sans-Serif" font-size="10.00">::_getBytesPerPixel</text>
</a>
</g>
</g>
<!-- Node11&#45;&gt;Node17 -->
<g id="edge18" class="edge"><title>Node11&#45;&gt;Node17</title>
<path fill="none" stroke="midnightblue" d="M448.865,-446.3C454.836,-488.785 477.3,-609.445 546,-676 547.615,-677.564 549.336,-679.032 551.14,-680.409"/>
<polygon fill="midnightblue" stroke="midnightblue" points="549.229,-683.341 559.514,-685.884 553.059,-677.483 549.229,-683.341"/>
</g>
<!-- Node20 -->
<g id="node20" class="node"><title>Node20</title>
<g id="a_node20"><a xlink:href="classVoxel_1_1TI_1_1ToFCamera.xhtml#a8722e9125739af3cd8c9291b7b6f126a" target="_top" xlink:title="Voxel::TI::ToFCamera\l::_getOpDataArrangeMode">
<polygon fill="none" stroke="black" points="548.5,-637 548.5,-667 681.5,-667 681.5,-637 548.5,-637"/>
<text text-anchor="start" x="556.5" y="-655" font-family="Helvetica,sans-Serif" font-size="10.00">Voxel::TI::ToFCamera</text>
<text text-anchor="middle" x="615" y="-644" font-family="Helvetica,sans-Serif" font-size="10.00">::_getOpDataArrangeMode</text>
</a>
</g>
</g>
<!-- Node11&#45;&gt;Node20 -->
<g id="edge22" class="edge"><title>Node11&#45;&gt;Node20</title>
<path fill="none" stroke="midnightblue" d="M450.542,-446.105C459.822,-482.442 488.213,-575.526 546,-627 547.755,-628.563 549.616,-630.032 551.559,-631.411"/>
<polygon fill="midnightblue" stroke="midnightblue" points="550.164,-634.661 560.519,-636.901 553.821,-628.692 550.164,-634.661"/>
</g>
<!-- Node21 -->
<g id="node21" class="node"><title>Node21</title>
<g id="a_node21"><a xlink:href="classVoxel_1_1TI_1_1ToFCamera.xhtml#a53e0fb4c6f4d4b9ac37b6f1ca763a104" target="_top" xlink:title="Voxel::TI::ToFCamera\l::_getToFFrameType">
<polygon fill="none" stroke="black" points="558,-490 558,-520 672,-520 672,-490 558,-490"/>
<text text-anchor="start" x="566" y="-508" font-family="Helvetica,sans-Serif" font-size="10.00">Voxel::TI::ToFCamera</text>
<text text-anchor="middle" x="615" y="-497" font-family="Helvetica,sans-Serif" font-size="10.00">::_getToFFrameType</text>
</a>
</g>
</g>
<!-- Node11&#45;&gt;Node21 -->
<g id="edge23" class="edge"><title>Node11&#45;&gt;Node21</title>
<path fill="none" stroke="midnightblue" d="M475.641,-446.195C495.206,-456.321 521.862,-469.625 546,-480 550.983,-482.142 556.218,-484.272 561.477,-486.333"/>
<polygon fill="midnightblue" stroke="midnightblue" points="560.331,-489.642 570.921,-489.956 562.838,-483.106 560.331,-489.642"/>
</g>
<!-- Node22 -->
<g id="node22" class="node"><title>Node22</title>
<g id="a_node22"><a xlink:href="classVoxel_1_1TI_1_1ToFCamera.xhtml#af3a59471799f2526c520511f688d247c" target="_top" xlink:title="Voxel::TI::ToFCamera\l::_is16BitModeEnabled">
<polygon fill="none" stroke="black" points="556.5,-588 556.5,-618 673.5,-618 673.5,-588 556.5,-588"/>
<text text-anchor="start" x="564.5" y="-606" font-family="Helvetica,sans-Serif" font-size="10.00">Voxel::TI::ToFCamera</text>
<text text-anchor="middle" x="615" y="-595" font-family="Helvetica,sans-Serif" font-size="10.00">::_is16BitModeEnabled</text>
</a>
</g>
</g>
<!-- Node11&#45;&gt;Node22 -->
<g id="edge25" class="edge"><title>Node11&#45;&gt;Node22</title>
<path fill="none" stroke="midnightblue" d="M453.344,-446.207C466.398,-475.735 499.035,-541.157 546,-578 548.273,-579.783 550.686,-581.448 553.194,-583"/>
<polygon fill="midnightblue" stroke="midnightblue" points="551.583,-586.108 562.032,-587.859 554.955,-579.974 551.583,-586.108"/>
</g>
<!-- Node23 -->
<g id="node23" class="node"><title>Node23</title>
<g id="a_node23"><a xlink:href="classVoxel_1_1TI_1_1ToFCamera.xhtml#a89f0b37afd1c32c500cdd7496e46cf50" target="_top" xlink:title="Voxel::TI::ToFCamera\l::_getDealiasedPhaseMask">
<polygon fill="none" stroke="black" points="546.5,-539 546.5,-569 683.5,-569 683.5,-539 546.5,-539"/>
<text text-anchor="start" x="554.5" y="-557" font-family="Helvetica,sans-Serif" font-size="10.00">Voxel::TI::ToFCamera</text>
<text text-anchor="middle" x="615" y="-546" font-family="Helvetica,sans-Serif" font-size="10.00">::_getDealiasedPhaseMask</text>
</a>
</g>
</g>
<!-- Node11&#45;&gt;Node23 -->
<g id="edge26" class="edge"><title>Node11&#45;&gt;Node23</title>
<path fill="none" stroke="midnightblue" d="M458.854,-446.317C476,-467.547 509.672,-505.904 546,-529 549.158,-531.008 552.5,-532.886 555.941,-534.639"/>
<polygon fill="midnightblue" stroke="midnightblue" points="554.682,-537.914 565.222,-538.985 557.65,-531.575 554.682,-537.914"/>
</g>
<!-- Node24 -->
<g id="node24" class="node"><title>Node24</title>
<g id="a_node24"><a xlink:href="classVoxel_1_1MainConfigurationFile.xhtml#a0d061a6b01c29c40af3288f4783c3c07" target="_top" xlink:title="Voxel::MainConfiguration\lFile::isPresent">
<polygon fill="none" stroke="black" points="552,-343 552,-373 678,-373 678,-343 552,-343"/>
<text text-anchor="start" x="560" y="-361" font-family="Helvetica,sans-Serif" font-size="10.00">Voxel::MainConfiguration</text>
<text text-anchor="middle" x="615" y="-350" font-family="Helvetica,sans-Serif" font-size="10.00">File::isPresent</text>
</a>
</g>
</g>
<!-- Node11&#45;&gt;Node24 -->
<g id="edge27" class="edge"><title>Node11&#45;&gt;Node24</title>
<path fill="none" stroke="midnightblue" d="M475.17,-415.926C494.755,-405.727 521.618,-392.292 546,-382 550.201,-380.227 554.583,-378.472 559.009,-376.767"/>
<polygon fill="midnightblue" stroke="midnightblue" points="560.584,-379.914 568.718,-373.125 558.125,-373.36 560.584,-379.914"/>
</g>
<!-- Node34 -->
<g id="node34" class="node"><title>Node34</title>
<g id="a_node34"><a xlink:href="classVoxel_1_1MainConfigurationFile.xhtml#a700e33f6f37c59f24bdea5db5a037898" target="_top" xlink:title="Voxel::MainConfiguration\lFile::getFile">
<polygon fill="none" stroke="black" points="552,-441 552,-471 678,-471 678,-441 552,-441"/>
<text text-anchor="start" x="560" y="-459" font-family="Helvetica,sans-Serif" font-size="10.00">Voxel::MainConfiguration</text>
<text text-anchor="middle" x="615" y="-448" font-family="Helvetica,sans-Serif" font-size="10.00">File::getFile</text>
</a>
</g>
</g>
<!-- Node11&#45;&gt;Node34 -->
<g id="edge39" class="edge"><title>Node11&#45;&gt;Node34</title>
<path fill="none" stroke="midnightblue" d="M503.073,-439.394C515.41,-441.241 528.645,-443.222 541.525,-445.15"/>
<polygon fill="midnightblue" stroke="midnightblue" points="541.345,-448.662 551.753,-446.682 542.382,-441.74 541.345,-448.662"/>
</g>
<!-- Node38 -->
<g id="node38" class="node"><title>Node38</title>
<g id="a_node38"><a xlink:href="classVoxel_1_1TI_1_1ToFCamera.xhtml#a3c35074af2f6b686cea15db188b9c53f" target="_top" xlink:title="Voxel::TI::ToFCamera\l::_isHistogramEnabled">
<polygon fill="none" stroke="black" points="557,-392 557,-422 673,-422 673,-392 557,-392"/>
<text text-anchor="start" x="565" y="-410" font-family="Helvetica,sans-Serif" font-size="10.00">Voxel::TI::ToFCamera</text>
<text text-anchor="middle" x="615" y="-399" font-family="Helvetica,sans-Serif" font-size="10.00">::_isHistogramEnabled</text>
</a>
</g>
</g>
<!-- Node11&#45;&gt;Node38 -->
<g id="edge45" class="edge"><title>Node11&#45;&gt;Node38</title>
<path fill="none" stroke="midnightblue" d="M503.073,-422.942C517.162,-420.917 532.423,-418.724 546.987,-416.631"/>
<polygon fill="midnightblue" stroke="midnightblue" points="547.536,-420.088 556.936,-415.201 546.54,-413.159 547.536,-420.088"/>
</g>
<!-- Node39 -->
<g id="node39" class="node"><title>Node39</title>
<g id="a_node39"><a xlink:href="classVoxel_1_1MainConfigurationFile.xhtml#a0450eaddb1180226c1a3e898e978aba4" target="_top" xlink:title="Voxel::MainConfiguration\lFile::get">
<polygon fill="none" stroke="black" points="552,-294 552,-324 678,-324 678,-294 552,-294"/>
<text text-anchor="start" x="560" y="-312" font-family="Helvetica,sans-Serif" font-size="10.00">Voxel::MainConfiguration</text>
<text text-anchor="middle" x="615" y="-301" font-family="Helvetica,sans-Serif" font-size="10.00">File::get</text>
</a>
</g>
</g>
<!-- Node11&#45;&gt;Node39 -->
<g id="edge46" class="edge"><title>Node11&#45;&gt;Node39</title>
<path fill="none" stroke="midnightblue" d="M458.526,-415.975C475.532,-394.742 509.318,-355.988 546,-333 548.569,-331.39 551.261,-329.87 554.029,-328.437"/>
<polygon fill="midnightblue" stroke="midnightblue" points="555.533,-331.597 563.072,-324.154 552.537,-325.271 555.533,-331.597"/>
</g>
<!-- Node42 -->
<g id="node42" class="node"><title>Node42</title>
<g id="a_node42"><a xlink:href="classVoxel_1_1TI_1_1ToFCamera.xhtml#a5ce6e98d8496efd0b62d926e73809034" target="_top" xlink:title="Voxel::TI::ToFCamera\l::_applyCalibrationParams">
<polygon fill="none" stroke="black" points="549.5,-245 549.5,-275 680.5,-275 680.5,-245 549.5,-245"/>
<text text-anchor="start" x="557.5" y="-263" font-family="Helvetica,sans-Serif" font-size="10.00">Voxel::TI::ToFCamera</text>
<text text-anchor="middle" x="615" y="-252" font-family="Helvetica,sans-Serif" font-size="10.00">::_applyCalibrationParams</text>
</a>
</g>
</g>
<!-- Node11&#45;&gt;Node42 -->
<g id="edge52" class="edge"><title>Node11&#45;&gt;Node42</title>
<path fill="none" stroke="midnightblue" d="M453.302,-415.739C466.282,-386.116 498.796,-320.536 546,-284 547.81,-282.599 549.708,-281.276 551.673,-280.026"/>
<polygon fill="midnightblue" stroke="midnightblue" points="553.625,-282.945 560.644,-275.008 550.208,-276.835 553.625,-282.945"/>
</g>
<!-- Node43 -->
<g id="node43" class="node"><title>Node43</title>
<g id="a_node43"><a xlink:href="classVoxel_1_1TI_1_1ToFCameraBase.xhtml#aceb0704d27455da6268e3d5b4a92c411" target="_top" xlink:title="Voxel::TI::ToFCameraBase\l::_initStartParams">
<polygon fill="none" stroke="black" points="546.5,-196 546.5,-226 683.5,-226 683.5,-196 546.5,-196"/>
<text text-anchor="start" x="554.5" y="-214" font-family="Helvetica,sans-Serif" font-size="10.00">Voxel::TI::ToFCameraBase</text>
<text text-anchor="middle" x="615" y="-203" font-family="Helvetica,sans-Serif" font-size="10.00">::_initStartParams</text>
</a>
</g>
</g>
<!-- Node11&#45;&gt;Node43 -->
<g id="edge53" class="edge"><title>Node11&#45;&gt;Node43</title>
<path fill="none" stroke="midnightblue" d="M450.5,-415.846C459.683,-379.402 487.88,-286.097 546,-235 547.325,-233.835 548.71,-232.726 550.145,-231.669"/>
<polygon fill="midnightblue" stroke="midnightblue" points="552.248,-234.481 558.831,-226.179 548.508,-228.563 552.248,-234.481"/>
</g>
<!-- Node16 -->
<g id="node16" class="node"><title>Node16</title>
<g id="a_node16"><a xlink:href="classVoxel_1_1DepthCamera.xhtml#a81260a37bfc6da411b8d3d71342a2eda" target="_top" xlink:title="Voxel::DepthCamera\l::_getMaximumFrameSize">
<polygon fill="none" stroke="black" points="736.5,-0 736.5,-30 867.5,-30 867.5,-0 736.5,-0"/>
<text text-anchor="start" x="744.5" y="-18" font-family="Helvetica,sans-Serif" font-size="10.00">Voxel::DepthCamera</text>
<text text-anchor="middle" x="802" y="-7" font-family="Helvetica,sans-Serif" font-size="10.00">::_getMaximumFrameSize</text>
</a>
</g>
</g>
<!-- Node15&#45;&gt;Node16 -->
<g id="edge16" class="edge"><title>Node15&#45;&gt;Node16</title>
<path fill="none" stroke="midnightblue" d="M678.117,-15C693.444,-15 710.023,-15 725.894,-15"/>
<polygon fill="midnightblue" stroke="midnightblue" points="726.201,-18.5001 736.201,-15 726.201,-11.5001 726.201,-18.5001"/>
</g>
<!-- Node18 -->
<g id="node18" class="node"><title>Node18</title>
<g id="a_node18"><a xlink:href="classVoxel_1_1DepthCamera.xhtml#ac850b3829f41e647686610c283197ea6" target="_top" xlink:title="Voxel::DepthCamera\l::_get">
<polygon fill="none" stroke="black" points="748,-686 748,-716 856,-716 856,-686 748,-686"/>
<text text-anchor="start" x="756" y="-704" font-family="Helvetica,sans-Serif" font-size="10.00">Voxel::DepthCamera</text>
<text text-anchor="middle" x="802" y="-693" font-family="Helvetica,sans-Serif" font-size="10.00">::_get</text>
</a>
</g>
</g>
<!-- Node17&#45;&gt;Node18 -->
<g id="edge19" class="edge"><title>Node17&#45;&gt;Node18</title>
<path fill="none" stroke="midnightblue" d="M672.008,-701C692.663,-701 716.209,-701 737.48,-701"/>
<polygon fill="midnightblue" stroke="midnightblue" points="737.717,-704.5 747.717,-701 737.717,-697.5 737.717,-704.5"/>
</g>
<!-- Node18&#45;&gt;Node5 -->
<g id="edge21" class="edge"><title>Node18&#45;&gt;Node5</title>
<path fill="none" stroke="midnightblue" d="M856.402,-714.43C865.841,-717.654 875.394,-721.497 884,-726 917.28,-743.413 950.532,-771.197 971.841,-790.67"/>
<polygon fill="midnightblue" stroke="midnightblue" points="969.688,-793.447 979.397,-797.687 974.451,-788.318 969.688,-793.447"/>
</g>
<!-- Node19 -->
<g id="node19" class="node"><title>Node19</title>
<g id="a_node19"><a xlink:href="classVoxel_1_1ParameterTemplate.xhtml#afa8896eaffbd2b87d1482c0967a0fe1d" target="_top" xlink:title="Voxel::ParameterTemplate::get">
<polygon fill="none" stroke="black" points="920,-691.5 920,-710.5 1072,-710.5 1072,-691.5 920,-691.5"/>
<text text-anchor="middle" x="996" y="-698.5" font-family="Helvetica,sans-Serif" font-size="10.00">Voxel::ParameterTemplate::get</text>
</a>
</g>
</g>
<!-- Node18&#45;&gt;Node19 -->
<g id="edge20" class="edge"><title>Node18&#45;&gt;Node19</title>
<path fill="none" stroke="midnightblue" d="M856.228,-701C872.802,-701 891.514,-701 909.707,-701"/>
<polygon fill="midnightblue" stroke="midnightblue" points="909.743,-704.5 919.743,-701 909.743,-697.5 909.743,-704.5"/>
</g>
<!-- Node21&#45;&gt;Node18 -->
<g id="edge24" class="edge"><title>Node21&#45;&gt;Node18</title>
<path fill="none" stroke="midnightblue" d="M669.34,-520.029C674.542,-522.591 679.537,-525.562 684,-529 736.173,-569.19 773.384,-639.397 790.476,-676.465"/>
<polygon fill="midnightblue" stroke="midnightblue" points="787.466,-678.304 794.759,-685.989 793.85,-675.433 787.466,-678.304"/>
</g>
<!-- Node25 -->
<g id="node25" class="node"><title>Node25</title>
<g id="a_node25"><a xlink:href="classVoxel_1_1ConfigurationFile.xhtml#a00e007801296e76b05ef10f1c8176c2d" target="_top" xlink:title="Voxel::ConfigurationFile\l::isPresent">
<polygon fill="none" stroke="black" points="741.5,-356 741.5,-386 862.5,-386 862.5,-356 741.5,-356"/>
<text text-anchor="start" x="749.5" y="-374" font-family="Helvetica,sans-Serif" font-size="10.00">Voxel::ConfigurationFile</text>
<text text-anchor="middle" x="802" y="-363" font-family="Helvetica,sans-Serif" font-size="10.00">::isPresent</text>
</a>
</g>
</g>
<!-- Node24&#45;&gt;Node25 -->
<g id="edge28" class="edge"><title>Node24&#45;&gt;Node25</title>
<path fill="none" stroke="midnightblue" d="M678.117,-362.365C695.14,-363.561 713.708,-364.866 731.133,-366.09"/>
<polygon fill="midnightblue" stroke="midnightblue" points="731.02,-369.591 741.241,-366.801 731.511,-362.608 731.02,-369.591"/>
</g>
<!-- Node25&#45;&gt;Node25 -->
<g id="edge31" class="edge"><title>Node25&#45;&gt;Node25</title>
<path fill="none" stroke="midnightblue" d="M769.305,-386.275C762.039,-395.406 772.938,-404 802,-404 819.256,-404 830.108,-400.97 834.557,-396.598"/>
<polygon fill="midnightblue" stroke="midnightblue" points="838.061,-396.321 834.695,-386.275 831.062,-396.228 838.061,-396.321"/>
</g>
<!-- Node26 -->
<g id="node26" class="node"><title>Node26</title>
<g id="a_node26"><a xlink:href="classVoxel_1_1MainConfigurationFile.xhtml#ab24aaf7b18fea74c6f235da04fadbed0" target="_top" xlink:title="Voxel::MainConfiguration\lFile::getCameraProfile">
<polygon fill="none" stroke="black" points="1108,-359 1108,-389 1234,-389 1234,-359 1108,-359"/>
<text text-anchor="start" x="1116" y="-377" font-family="Helvetica,sans-Serif" font-size="10.00">Voxel::MainConfiguration</text>
<text text-anchor="middle" x="1171" y="-366" font-family="Helvetica,sans-Serif" font-size="10.00">File::getCameraProfile</text>
</a>
</g>
</g>
<!-- Node25&#45;&gt;Node26 -->
<g id="edge29" class="edge"><title>Node25&#45;&gt;Node26</title>
<path fill="none" stroke="midnightblue" d="M862.782,-371.489C926.923,-372.013 1028.81,-372.846 1097.49,-373.407"/>
<polygon fill="midnightblue" stroke="midnightblue" points="1097.76,-376.91 1107.79,-373.491 1097.82,-369.91 1097.76,-376.91"/>
</g>
<!-- Node27 -->
<g id="node27" class="node"><title>Node27</title>
<g id="a_node27"><a xlink:href="classVoxel_1_1ConfigSet.xhtml#ab7930d0d21d160341d989ef998ecac73" target="_top" xlink:title="Voxel::ConfigSet::isPresent">
<polygon fill="none" stroke="black" points="927,-402.5 927,-421.5 1065,-421.5 1065,-402.5 927,-402.5"/>
<text text-anchor="middle" x="996" y="-409.5" font-family="Helvetica,sans-Serif" font-size="10.00">Voxel::ConfigSet::isPresent</text>
</a>
</g>
</g>
<!-- Node25&#45;&gt;Node27 -->
<g id="edge30" class="edge"><title>Node25&#45;&gt;Node27</title>
<path fill="none" stroke="midnightblue" d="M862.698,-383.748C887.452,-389.034 915.984,-395.127 940.199,-400.298"/>
<polygon fill="midnightblue" stroke="midnightblue" points="939.779,-403.787 950.289,-402.452 941.241,-396.941 939.779,-403.787"/>
</g>
<!-- Node28 -->
<g id="node28" class="node"><title>Node28</title>
<g id="a_node28"><a xlink:href="classVoxel_1_1ConfigurationFile.xhtml#a440d9dd2f89d0c76c81f7285b31a5b94" target="_top" xlink:title="Voxel::ConfigurationFile::set">
<polygon fill="none" stroke="black" points="926,-288.5 926,-307.5 1066,-307.5 1066,-288.5 926,-288.5"/>
<text text-anchor="middle" x="996" y="-295.5" font-family="Helvetica,sans-Serif" font-size="10.00">Voxel::ConfigurationFile::set</text>
</a>
</g>
</g>
<!-- Node25&#45;&gt;Node28 -->
<g id="edge32" class="edge"><title>Node25&#45;&gt;Node28</title>
<path fill="none" stroke="midnightblue" d="M850.313,-355.857C861.417,-352.13 873.168,-348.044 884,-344 911.237,-333.831 941.718,-321.1 963.837,-311.611"/>
<polygon fill="midnightblue" stroke="midnightblue" points="965.273,-314.803 973.07,-307.63 962.502,-308.375 965.273,-314.803"/>
</g>
<!-- Node29 -->
<g id="node29" class="node"><title>Node29</title>
<g id="a_node29"><a xlink:href="classVoxel_1_1ConfigurationFile.xhtml#a3b9b573c1a3d9162fc0100c317ca0879" target="_top" xlink:title="Voxel::ConfigurationFile\l::_set">
<polygon fill="none" stroke="black" points="1110.5,-283 1110.5,-313 1231.5,-313 1231.5,-283 1110.5,-283"/>
<text text-anchor="start" x="1118.5" y="-301" font-family="Helvetica,sans-Serif" font-size="10.00">Voxel::ConfigurationFile</text>
<text text-anchor="middle" x="1171" y="-290" font-family="Helvetica,sans-Serif" font-size="10.00">::_set</text>
</a>
</g>
</g>
<!-- Node28&#45;&gt;Node29 -->
<g id="edge33" class="edge"><title>Node28&#45;&gt;Node29</title>
<path fill="none" stroke="midnightblue" d="M1066.37,-291.369C1077.52,-291.212 1089.08,-291.21 1100.24,-291.364"/>
<polygon fill="midnightblue" stroke="midnightblue" points="1100.3,-294.865 1110.36,-291.548 1100.43,-287.866 1100.3,-294.865"/>
</g>
<!-- Node29&#45;&gt;Node28 -->
<g id="edge38" class="edge"><title>Node29&#45;&gt;Node28</title>
<path fill="none" stroke="midnightblue" d="M1110.36,-304.452C1099.51,-304.7 1088.03,-304.793 1076.7,-304.731"/>
<polygon fill="midnightblue" stroke="midnightblue" points="1076.4,-301.228 1066.37,-304.631 1076.33,-308.228 1076.4,-301.228"/>
</g>
<!-- Node30 -->
<g id="node30" class="node"><title>Node30</title>
<g id="a_node30"><a xlink:href="classVoxel_1_1ConfigSet.xhtml#a8fb880c24ad7b0f04c84d4a33becb995" target="_top" xlink:title="Voxel::ConfigSet::_set">
<polygon fill="none" stroke="black" points="1270,-288.5 1270,-307.5 1386,-307.5 1386,-288.5 1270,-288.5"/>
<text text-anchor="middle" x="1328" y="-295.5" font-family="Helvetica,sans-Serif" font-size="10.00">Voxel::ConfigSet::_set</text>
</a>
</g>
</g>
<!-- Node29&#45;&gt;Node30 -->
<g id="edge34" class="edge"><title>Node29&#45;&gt;Node30</title>
<path fill="none" stroke="midnightblue" d="M1231.93,-298C1240.96,-298 1250.34,-298 1259.52,-298"/>
<polygon fill="midnightblue" stroke="midnightblue" points="1259.78,-301.5 1269.78,-298 1259.78,-294.5 1259.78,-301.5"/>
</g>
<!-- Node31 -->
<g id="node31" class="node"><title>Node31</title>
<g id="a_node31"><a xlink:href="group__Util.xhtml#ga6b2a26aa983349496fedae9aa54ad034" target="_top" xlink:title="Trim. ">
<polygon fill="none" stroke="black" points="1422,-288.5 1422,-307.5 1486,-307.5 1486,-288.5 1422,-288.5"/>
<text text-anchor="middle" x="1454" y="-295.5" font-family="Helvetica,sans-Serif" font-size="10.00">Voxel::trim</text>
</a>
</g>
</g>
<!-- Node30&#45;&gt;Node31 -->
<g id="edge35" class="edge"><title>Node30&#45;&gt;Node31</title>
<path fill="none" stroke="midnightblue" d="M1386.28,-298C1394.75,-298 1403.34,-298 1411.41,-298"/>
<polygon fill="midnightblue" stroke="midnightblue" points="1411.67,-301.5 1421.67,-298 1411.67,-294.5 1411.67,-301.5"/>
</g>
<!-- Node32 -->
<g id="node32" class="node"><title>Node32</title>
<g id="a_node32"><a xlink:href="group__Util.xhtml#gac9c04e18f7878dd82964bb489b7b1314" target="_top" xlink:title="Left Trim. ">
<polygon fill="none" stroke="black" points="1523,-307.5 1523,-326.5 1589,-326.5 1589,-307.5 1523,-307.5"/>
<text text-anchor="middle" x="1556" y="-314.5" font-family="Helvetica,sans-Serif" font-size="10.00">Voxel::ltrim</text>
</a>
</g>
</g>
<!-- Node31&#45;&gt;Node32 -->
<g id="edge36" class="edge"><title>Node31&#45;&gt;Node32</title>
<path fill="none" stroke="midnightblue" d="M1486.09,-303.908C1494.59,-305.522 1503.94,-307.299 1512.94,-309.009"/>
<polygon fill="midnightblue" stroke="midnightblue" points="1512.41,-312.471 1522.89,-310.899 1513.72,-305.594 1512.41,-312.471"/>
</g>
<!-- Node33 -->
<g id="node33" class="node"><title>Node33</title>
<g id="a_node33"><a xlink:href="group__Util.xhtml#ga3d95f05dde73bc9c54051437445e439b" target="_top" xlink:title="Right Trim. ">
<polygon fill="none" stroke="black" points="1522.5,-269.5 1522.5,-288.5 1589.5,-288.5 1589.5,-269.5 1522.5,-269.5"/>
<text text-anchor="middle" x="1556" y="-276.5" font-family="Helvetica,sans-Serif" font-size="10.00">Voxel::rtrim</text>
</a>
</g>
</g>
<!-- Node31&#45;&gt;Node33 -->
<g id="edge37" class="edge"><title>Node31&#45;&gt;Node33</title>
<path fill="none" stroke="midnightblue" d="M1486.09,-292.092C1494.33,-290.526 1503.38,-288.808 1512.13,-287.146"/>
<polygon fill="midnightblue" stroke="midnightblue" points="1513.02,-290.538 1522.2,-285.233 1511.72,-283.661 1513.02,-290.538"/>
</g>
<!-- Node35 -->
<g id="node35" class="node"><title>Node35</title>
<g id="a_node35"><a xlink:href="classVoxel_1_1ConfigurationFile.xhtml#a49e5d191d816bda45d31e29a29272c9d" target="_top" xlink:title="Voxel::ConfigurationFile\l::getFile">
<polygon fill="none" stroke="black" points="741.5,-441 741.5,-471 862.5,-471 862.5,-441 741.5,-441"/>
<text text-anchor="start" x="749.5" y="-459" font-family="Helvetica,sans-Serif" font-size="10.00">Voxel::ConfigurationFile</text>
<text text-anchor="middle" x="802" y="-448" font-family="Helvetica,sans-Serif" font-size="10.00">::getFile</text>
</a>
</g>
</g>
<!-- Node34&#45;&gt;Node35 -->
<g id="edge40" class="edge"><title>Node34&#45;&gt;Node35</title>
<path fill="none" stroke="midnightblue" d="M678.117,-456C695.14,-456 713.708,-456 731.133,-456"/>
<polygon fill="midnightblue" stroke="midnightblue" points="731.241,-459.5 741.241,-456 731.241,-452.5 731.241,-459.5"/>
</g>
<!-- Node36 -->
<g id="node36" class="node"><title>Node36</title>
<g id="a_node36"><a xlink:href="classVoxel_1_1ConfigurationFile.xhtml#a69e6c29b1e3caafca6e783937834113b" target="_top" xlink:title="Voxel::ConfigurationFile\l::_getData">
<polygon fill="none" stroke="black" points="935.5,-441 935.5,-471 1056.5,-471 1056.5,-441 935.5,-441"/>
<text text-anchor="start" x="943.5" y="-459" font-family="Helvetica,sans-Serif" font-size="10.00">Voxel::ConfigurationFile</text>
<text text-anchor="middle" x="996" y="-448" font-family="Helvetica,sans-Serif" font-size="10.00">::_getData</text>
</a>
</g>
</g>
<!-- Node35&#45;&gt;Node36 -->
<g id="edge41" class="edge"><title>Node35&#45;&gt;Node36</title>
<path fill="none" stroke="midnightblue" d="M862.698,-456C882.474,-456 904.66,-456 925.131,-456"/>
<polygon fill="midnightblue" stroke="midnightblue" points="925.339,-459.5 935.339,-456 925.339,-452.5 925.339,-459.5"/>
</g>
<!-- Node36&#45;&gt;Node26 -->
<g id="edge43" class="edge"><title>Node36&#45;&gt;Node26</title>
<path fill="none" stroke="midnightblue" d="M1047.17,-440.866C1055.58,-437.881 1064.12,-434.56 1072,-431 1094.97,-420.625 1119.48,-406.368 1138.24,-394.709"/>
<polygon fill="midnightblue" stroke="midnightblue" points="1140.36,-397.511 1146.96,-389.222 1136.63,-391.587 1140.36,-397.511"/>
</g>
<!-- Node36&#45;&gt;Node36 -->
<g id="edge42" class="edge"><title>Node36&#45;&gt;Node36</title>
<path fill="none" stroke="midnightblue" d="M965.414,-471.275C958.617,-480.406 968.812,-489 996,-489 1012.14,-489 1022.29,-485.97 1026.46,-481.598"/>
<polygon fill="midnightblue" stroke="midnightblue" points="1029.96,-481.319 1026.59,-471.275 1022.96,-481.231 1029.96,-481.319"/>
</g>
<!-- Node37 -->
<g id="node37" class="node"><title>Node37</title>
<g id="a_node37"><a xlink:href="classVoxel_1_1Configuration.xhtml#aee8855b651aed3783dbd8aa4453b1a4d" target="_top" xlink:title="Updates &quot;name&quot; to full path. ">
<polygon fill="none" stroke="black" points="1118.5,-441 1118.5,-471 1223.5,-471 1223.5,-441 1118.5,-441"/>
<text text-anchor="start" x="1126.5" y="-459" font-family="Helvetica,sans-Serif" font-size="10.00">Voxel::Configuration</text>
<text text-anchor="middle" x="1171" y="-448" font-family="Helvetica,sans-Serif" font-size="10.00">::getConfFile</text>
</a>
</g>
</g>
<!-- Node36&#45;&gt;Node37 -->
<g id="edge44" class="edge"><title>Node36&#45;&gt;Node37</title>
<path fill="none" stroke="midnightblue" d="M1056.54,-456C1073.21,-456 1091.37,-456 1108.17,-456"/>
<polygon fill="midnightblue" stroke="midnightblue" points="1108.43,-459.5 1118.43,-456 1108.43,-452.5 1108.43,-459.5"/>
</g>
<!-- Node40 -->
<g id="node40" class="node"><title>Node40</title>
<g id="a_node40"><a xlink:href="classVoxel_1_1ConfigurationFile.xhtml#af5573f5dba76f1fde00220b892f8121c" target="_top" xlink:title="Voxel::ConfigurationFile\l::_get">
<polygon fill="none" stroke="black" points="741.5,-287 741.5,-317 862.5,-317 862.5,-287 741.5,-287"/>
<text text-anchor="start" x="749.5" y="-305" font-family="Helvetica,sans-Serif" font-size="10.00">Voxel::ConfigurationFile</text>
<text text-anchor="middle" x="802" y="-294" font-family="Helvetica,sans-Serif" font-size="10.00">::_get</text>
</a>
</g>
</g>
<!-- Node39&#45;&gt;Node40 -->
<g id="edge47" class="edge"><title>Node39&#45;&gt;Node40</title>
<path fill="none" stroke="midnightblue" d="M678.117,-306.65C695.14,-306.006 713.708,-305.303 731.133,-304.644"/>
<polygon fill="midnightblue" stroke="midnightblue" points="731.381,-308.137 741.241,-304.261 731.116,-301.142 731.381,-308.137"/>
</g>
<!-- Node40&#45;&gt;Node26 -->
<g id="edge50" class="edge"><title>Node40&#45;&gt;Node26</title>
<path fill="none" stroke="midnightblue" d="M862.782,-313.728C927.054,-326.338 1029.23,-346.383 1097.91,-359.857"/>
<polygon fill="midnightblue" stroke="midnightblue" points="1097.3,-363.304 1107.79,-361.795 1098.65,-356.435 1097.3,-363.304"/>
</g>
<!-- Node40&#45;&gt;Node28 -->
<g id="edge51" class="edge"><title>Node40&#45;&gt;Node28</title>
<path fill="none" stroke="midnightblue" d="M862.698,-300.756C879.445,-300.407 897.922,-300.022 915.621,-299.654"/>
<polygon fill="midnightblue" stroke="midnightblue" points="916.009,-303.147 925.934,-299.439 915.863,-296.148 916.009,-303.147"/>
</g>
<!-- Node40&#45;&gt;Node40 -->
<g id="edge49" class="edge"><title>Node40&#45;&gt;Node40</title>
<path fill="none" stroke="midnightblue" d="M769.305,-317.275C762.039,-326.406 772.938,-335 802,-335 819.256,-335 830.108,-331.97 834.557,-327.598"/>
<polygon fill="midnightblue" stroke="midnightblue" points="838.061,-327.321 834.695,-317.275 831.062,-327.228 838.061,-327.321"/>
</g>
<!-- Node41 -->
<g id="node41" class="node"><title>Node41</title>
<g id="a_node41"><a xlink:href="classVoxel_1_1ConfigSet.xhtml#a49e4060aa2bc96690da36bdf5ef7b227" target="_top" xlink:title="Voxel::ConfigSet::_get">
<polygon fill="none" stroke="black" points="938,-250.5 938,-269.5 1054,-269.5 1054,-250.5 938,-250.5"/>
<text text-anchor="middle" x="996" y="-257.5" font-family="Helvetica,sans-Serif" font-size="10.00">Voxel::ConfigSet::_get</text>
</a>
</g>
</g>
<!-- Node40&#45;&gt;Node41 -->
<g id="edge48" class="edge"><title>Node40&#45;&gt;Node41</title>
<path fill="none" stroke="midnightblue" d="M862.698,-288.941C887.95,-283.417 917.132,-277.034 941.654,-271.669"/>
<polygon fill="midnightblue" stroke="midnightblue" points="942.481,-275.071 951.502,-269.515 940.985,-268.233 942.481,-275.071"/>
</g>
<!-- Node44 -->
<g id="node44" class="node"><title>Node44</title>
<g id="a_node44"><a xlink:href="classVoxel_1_1TI_1_1ToFCameraBase.xhtml#aff5c5aefff04e8514ab56adde5e25c28" target="_top" xlink:title="Voxel::TI::ToFCameraBase\l::_getAmplitudeNormalizingFactor">
<polygon fill="none" stroke="black" points="720,-217 720,-247 884,-247 884,-217 720,-217"/>
<text text-anchor="start" x="728" y="-235" font-family="Helvetica,sans-Serif" font-size="10.00">Voxel::TI::ToFCameraBase</text>
<text text-anchor="middle" x="802" y="-224" font-family="Helvetica,sans-Serif" font-size="10.00">::_getAmplitudeNormalizingFactor</text>
</a>
</g>
</g>
<!-- Node43&#45;&gt;Node44 -->
<g id="edge54" class="edge"><title>Node43&#45;&gt;Node44</title>
<path fill="none" stroke="midnightblue" d="M683.575,-218.671C692.124,-219.641 700.98,-220.646 709.821,-221.65"/>
<polygon fill="midnightblue" stroke="midnightblue" points="709.446,-225.13 719.777,-222.78 710.236,-218.174 709.446,-225.13"/>
</g>
<!-- Node45 -->
<g id="node45" class="node"><title>Node45</title>
<g id="a_node45"><a xlink:href="classVoxel_1_1TI_1_1ToFCameraBase.xhtml#a8e7ab32dbadf1d8c7fd4e7611e7e63c4" target="_top" xlink:title="Voxel::TI::ToFCameraBase\l::_getDepthScalingFactor">
<polygon fill="none" stroke="black" points="733.5,-168 733.5,-198 870.5,-198 870.5,-168 733.5,-168"/>
<text text-anchor="start" x="741.5" y="-186" font-family="Helvetica,sans-Serif" font-size="10.00">Voxel::TI::ToFCameraBase</text>
<text text-anchor="middle" x="802" y="-175" font-family="Helvetica,sans-Serif" font-size="10.00">::_getDepthScalingFactor</text>
</a>
</g>
</g>
<!-- Node43&#45;&gt;Node45 -->
<g id="edge55" class="edge"><title>Node43&#45;&gt;Node45</title>
<path fill="none" stroke="midnightblue" d="M683.575,-200.773C696.488,-198.818 710.102,-196.758 723.303,-194.76"/>
<polygon fill="midnightblue" stroke="midnightblue" points="723.935,-198.204 733.299,-193.247 722.888,-191.283 723.935,-198.204"/>
</g>
</g>
</svg>
