<?xml version="1.0" encoding="UTF-8" standalone="no"?>
<!DOCTYPE svg PUBLIC "-//W3C//DTD SVG 1.1//EN"
 "http://www.w3.org/Graphics/SVG/1.1/DTD/svg11.dtd">
<!-- Generated by graphviz version 2.36.0 (20140111.2315)
 -->
<!-- Title: Voxel::TI::ToFCalculusCamera::_updateEasyConf Pages: 1 -->
<svg width="342pt" height="136pt"
 viewBox="0.00 0.00 342.00 136.00" xmlns="http://www.w3.org/2000/svg" xmlns:xlink="http://www.w3.org/1999/xlink">
<g id="graph0" class="graph" transform="scale(1 1) rotate(0) translate(4 132)">
<title>Voxel::TI::ToFCalculusCamera::_updateEasyConf</title>
<!-- Node1 -->
<g id="node1" class="node"><title>Node1</title>
<polygon fill="#bfbfbf" stroke="black" points="0,-49 0,-79 152,-79 152,-49 0,-49"/>
<text text-anchor="start" x="8" y="-67" font-family="Helvetica,sans-Serif" font-size="10.00">Voxel::TI::ToFCalculusCamera</text>
<text text-anchor="middle" x="76" y="-56" font-family="Helvetica,sans-Serif" font-size="10.00">::_updateEasyConf</text>
</g>
<!-- Node2 -->
<g id="node2" class="node"><title>Node2</title>
<g id="a_node2"><a xlink:href="classVoxel_1_1TI_1_1CalculusIntegDutyCycle.xhtml#a6d02d3c0d4b0a1129f9d6bd5ff80bf4d" target="_top" xlink:title="Voxel::TI::CalculusInteg\lDutyCycle::set">
<polygon fill="none" stroke="black" points="200,-98 200,-128 322,-128 322,-98 200,-98"/>
<text text-anchor="start" x="208" y="-116" font-family="Helvetica,sans-Serif" font-size="10.00">Voxel::TI::CalculusInteg</text>
<text text-anchor="middle" x="261" y="-105" font-family="Helvetica,sans-Serif" font-size="10.00">DutyCycle::set</text>
</a>
</g>
</g>
<!-- Node1&#45;&gt;Node2 -->
<g id="edge1" class="edge"><title>Node1&#45;&gt;Node2</title>
<path fill="none" stroke="midnightblue" d="M143.285,-81.7485C163.119,-87.0591 184.667,-92.8288 203.787,-97.9484"/>
<polygon fill="midnightblue" stroke="midnightblue" points="143.964,-78.3071 133.399,-79.1014 142.154,-85.0689 143.964,-78.3071"/>
</g>
<!-- Node3 -->
<g id="node3" class="node"><title>Node3</title>
<g id="a_node3"><a xlink:href="classVoxel_1_1TI_1_1CalculusPixCntMax.xhtml#a313d1199c39db8122c0556328ebaa525" target="_top" xlink:title="Voxel::TI::CalculusPixCnt\lMax::set">
<polygon fill="none" stroke="black" points="195.5,-49 195.5,-79 326.5,-79 326.5,-49 195.5,-49"/>
<text text-anchor="start" x="203.5" y="-67" font-family="Helvetica,sans-Serif" font-size="10.00">Voxel::TI::CalculusPixCnt</text>
<text text-anchor="middle" x="261" y="-56" font-family="Helvetica,sans-Serif" font-size="10.00">Max::set</text>
</a>
</g>
</g>
<!-- Node1&#45;&gt;Node3 -->
<g id="edge2" class="edge"><title>Node1&#45;&gt;Node3</title>
<path fill="none" stroke="midnightblue" d="M162.348,-64C173.427,-64 184.627,-64 195.294,-64"/>
<polygon fill="midnightblue" stroke="midnightblue" points="162.225,-60.5001 152.225,-64 162.225,-67.5001 162.225,-60.5001"/>
</g>
<!-- Node4 -->
<g id="node4" class="node"><title>Node4</title>
<g id="a_node4"><a xlink:href="classVoxel_1_1TI_1_1CalculusSubFrameCntMax.xhtml#a0463c789389165a41fadc55db92c838c" target="_top" xlink:title="Voxel::TI::CalculusSubFrame\lCntMax::set">
<polygon fill="none" stroke="black" points="188,-0 188,-30 334,-30 334,-0 188,-0"/>
<text text-anchor="start" x="196" y="-18" font-family="Helvetica,sans-Serif" font-size="10.00">Voxel::TI::CalculusSubFrame</text>
<text text-anchor="middle" x="261" y="-7" font-family="Helvetica,sans-Serif" font-size="10.00">CntMax::set</text>
</a>
</g>
</g>
<!-- Node1&#45;&gt;Node4 -->
<g id="edge3" class="edge"><title>Node1&#45;&gt;Node4</title>
<path fill="none" stroke="midnightblue" d="M143.285,-46.2515C163.119,-40.9409 184.667,-35.1712 203.787,-30.0516"/>
<polygon fill="midnightblue" stroke="midnightblue" points="142.154,-42.9311 133.399,-48.8986 143.964,-49.6929 142.154,-42.9311"/>
</g>
</g>
</svg>
