<?xml version="1.0" encoding="UTF-8" standalone="no"?>
<!DOCTYPE svg PUBLIC "-//W3C//DTD SVG 1.1//EN"
 "http://www.w3.org/Graphics/SVG/1.1/DTD/svg11.dtd">
<!-- Generated by graphviz version 2.36.0 (20140111.2315)
 -->
<!-- Title: TinyXML2::XMLElement::ClosingType Pages: 1 -->
<svg width="452pt" height="136pt"
 viewBox="0.00 0.00 452.00 136.00" xmlns="http://www.w3.org/2000/svg" xmlns:xlink="http://www.w3.org/1999/xlink">
<g id="graph0" class="graph" transform="scale(1 1) rotate(0) translate(4 132)">
<title>TinyXML2::XMLElement::ClosingType</title>
<!-- Node1 -->
<g id="node1" class="node"><title>Node1</title>
<polygon fill="#bfbfbf" stroke="black" points="0.5,-49 0.5,-79 123.5,-79 123.5,-49 0.5,-49"/>
<text text-anchor="start" x="8.5" y="-67" font-family="Helvetica,sans-Serif" font-size="10.00">TinyXML2::XMLElement</text>
<text text-anchor="middle" x="62" y="-56" font-family="Helvetica,sans-Serif" font-size="10.00">::ClosingType</text>
</g>
<!-- Node2 -->
<g id="node2" class="node"><title>Node2</title>
<g id="a_node2"><a xlink:href="classTinyXML2_1_1XMLNode.xhtml#a666a962d4e7ce40fad31a0d273659176" target="_top" xlink:title="TinyXML2::XMLNode::\lParseDeep">
<polygon fill="none" stroke="black" points="160,-49 160,-79 276,-79 276,-49 160,-49"/>
<text text-anchor="start" x="168" y="-67" font-family="Helvetica,sans-Serif" font-size="10.00">TinyXML2::XMLNode::</text>
<text text-anchor="middle" x="218" y="-56" font-family="Helvetica,sans-Serif" font-size="10.00">ParseDeep</text>
</a>
</g>
</g>
<!-- Node1&#45;&gt;Node2 -->
<g id="edge1" class="edge"><title>Node1&#45;&gt;Node2</title>
<path fill="none" stroke="midnightblue" d="M133.895,-64C142.501,-64 151.21,-64 159.588,-64"/>
<polygon fill="midnightblue" stroke="midnightblue" points="133.865,-60.5001 123.865,-64 133.865,-67.5001 133.865,-60.5001"/>
</g>
<!-- Node2&#45;&gt;Node2 -->
<g id="edge4" class="edge"><title>Node2&#45;&gt;Node2</title>
<path fill="none" stroke="midnightblue" d="M190.694,-89.5975C194.425,-93.9704 203.527,-97 218,-97 242.375,-97 251.516,-88.4062 245.422,-79.2754"/>
<polygon fill="midnightblue" stroke="midnightblue" points="194.19,-89.2354 190.578,-79.2754 187.191,-89.3141 194.19,-89.2354"/>
</g>
<!-- Node3 -->
<g id="node3" class="node"><title>Node3</title>
<g id="a_node3"><a xlink:href="classTinyXML2_1_1XMLDocument.xhtml#a25c1fd4903914444fc31fb1b90dcffdb" target="_top" xlink:title="TinyXML2::XMLDocument\l::LoadFile">
<polygon fill="none" stroke="black" points="312,-98 312,-128 444,-128 444,-98 312,-98"/>
<text text-anchor="start" x="320" y="-116" font-family="Helvetica,sans-Serif" font-size="10.00">TinyXML2::XMLDocument</text>
<text text-anchor="middle" x="378" y="-105" font-family="Helvetica,sans-Serif" font-size="10.00">::LoadFile</text>
</a>
</g>
</g>
<!-- Node2&#45;&gt;Node3 -->
<g id="edge2" class="edge"><title>Node2&#45;&gt;Node3</title>
<path fill="none" stroke="midnightblue" d="M277.405,-82.1129C294.202,-87.3222 312.335,-92.9457 328.466,-97.9484"/>
<polygon fill="midnightblue" stroke="midnightblue" points="278.282,-78.7207 267.694,-79.1014 276.209,-85.4065 278.282,-78.7207"/>
</g>
<!-- Node4 -->
<g id="node4" class="node"><title>Node4</title>
<g id="a_node4"><a xlink:href="classTinyXML2_1_1XMLDocument.xhtml#a2734f0824ea57c5c26f61b4f3ff2514a" target="_top" xlink:title="TinyXML2::XMLDocument\l::Parse">
<polygon fill="none" stroke="black" points="312,-49 312,-79 444,-79 444,-49 312,-49"/>
<text text-anchor="start" x="320" y="-67" font-family="Helvetica,sans-Serif" font-size="10.00">TinyXML2::XMLDocument</text>
<text text-anchor="middle" x="378" y="-56" font-family="Helvetica,sans-Serif" font-size="10.00">::Parse</text>
</a>
</g>
</g>
<!-- Node2&#45;&gt;Node4 -->
<g id="edge3" class="edge"><title>Node2&#45;&gt;Node4</title>
<path fill="none" stroke="midnightblue" d="M286.306,-64C294.82,-64 303.518,-64 311.994,-64"/>
<polygon fill="midnightblue" stroke="midnightblue" points="286.042,-60.5001 276.042,-64 286.042,-67.5001 286.042,-60.5001"/>
</g>
<!-- Node5 -->
<g id="node5" class="node"><title>Node5</title>
<g id="a_node5"><a xlink:href="classTinyXML2_1_1XMLElement.xhtml#a1f37b0bb41320c4121515755b8a057a4" target="_top" xlink:title="TinyXML2::XMLElement\l::ParseDeep">
<polygon fill="none" stroke="black" points="316.5,-0 316.5,-30 439.5,-30 439.5,-0 316.5,-0"/>
<text text-anchor="start" x="324.5" y="-18" font-family="Helvetica,sans-Serif" font-size="10.00">TinyXML2::XMLElement</text>
<text text-anchor="middle" x="378" y="-7" font-family="Helvetica,sans-Serif" font-size="10.00">::ParseDeep</text>
</a>
</g>
</g>
<!-- Node2&#45;&gt;Node5 -->
<g id="edge5" class="edge"><title>Node2&#45;&gt;Node5</title>
<path fill="none" stroke="midnightblue" d="M277.405,-45.8871C294.202,-40.6778 312.335,-35.0543 328.466,-30.0516"/>
<polygon fill="midnightblue" stroke="midnightblue" points="276.209,-42.5935 267.694,-48.8986 278.282,-49.2793 276.209,-42.5935"/>
</g>
</g>
</svg>
