<?xml version="1.0" encoding="UTF-8" standalone="no"?>
<!DOCTYPE svg PUBLIC "-//W3C//DTD SVG 1.1//EN"
 "http://www.w3.org/Graphics/SVG/1.1/DTD/svg11.dtd">
<!-- Generated by graphviz version 2.36.0 (20140111.2315)
 -->
<!-- Title: Voxel::ConfigurationFile::_copyFromParentIfNotPresent Pages: 1 -->
<svg width="1012pt" height="146pt"
 viewBox="0.00 0.00 1012.00 146.00" xmlns="http://www.w3.org/2000/svg" xmlns:xlink="http://www.w3.org/1999/xlink">
<g id="graph0" class="graph" transform="scale(1 1) rotate(0) translate(4 142)">
<title>Voxel::ConfigurationFile::_copyFromParentIfNotPresent</title>
<!-- Node1 -->
<g id="node1" class="node"><title>Node1</title>
<polygon fill="#bfbfbf" stroke="black" points="0.5,-55 0.5,-85 155.5,-85 155.5,-55 0.5,-55"/>
<text text-anchor="start" x="8.5" y="-73" font-family="Helvetica,sans-Serif" font-size="10.00">Voxel::ConfigurationFile</text>
<text text-anchor="middle" x="78" y="-62" font-family="Helvetica,sans-Serif" font-size="10.00">::_copyFromParentIfNotPresent</text>
</g>
<!-- Node1&#45;&gt;Node1 -->
<g id="edge1" class="edge"><title>Node1&#45;&gt;Node1</title>
<path fill="none" stroke="midnightblue" d="M47.4141,-85.2754C40.6172,-94.4062 50.8125,-103 78,-103 94.1426,-103 104.295,-99.9704 108.457,-95.5975"/>
<polygon fill="midnightblue" stroke="midnightblue" points="111.96,-95.3185 108.586,-85.2754 104.961,-95.2307 111.96,-95.3185"/>
</g>
<!-- Node2 -->
<g id="node2" class="node"><title>Node2</title>
<g id="a_node2"><a xlink:href="classVoxel_1_1MainConfigurationFile.xhtml#ab24aaf7b18fea74c6f235da04fadbed0" target="_top" xlink:title="Voxel::MainConfiguration\lFile::getCameraProfile">
<polygon fill="none" stroke="black" points="357,-108 357,-138 483,-138 483,-108 357,-108"/>
<text text-anchor="start" x="365" y="-126" font-family="Helvetica,sans-Serif" font-size="10.00">Voxel::MainConfiguration</text>
<text text-anchor="middle" x="420" y="-115" font-family="Helvetica,sans-Serif" font-size="10.00">File::getCameraProfile</text>
</a>
</g>
</g>
<!-- Node1&#45;&gt;Node2 -->
<g id="edge2" class="edge"><title>Node1&#45;&gt;Node2</title>
<path fill="none" stroke="midnightblue" d="M111.342,-85.0572C133.523,-94.6197 163.911,-106.243 192,-112 242.92,-122.436 301.546,-125.044 346.463,-125.117"/>
<polygon fill="midnightblue" stroke="midnightblue" points="346.709,-128.616 356.699,-125.091 346.69,-121.617 346.709,-128.616"/>
</g>
<!-- Node3 -->
<g id="node3" class="node"><title>Node3</title>
<g id="a_node3"><a xlink:href="classVoxel_1_1ConfigurationFile.xhtml#a00e007801296e76b05ef10f1c8176c2d" target="_top" xlink:title="Voxel::ConfigurationFile\l::isPresent">
<polygon fill="none" stroke="black" points="192.5,-55 192.5,-85 313.5,-85 313.5,-55 192.5,-55"/>
<text text-anchor="start" x="200.5" y="-73" font-family="Helvetica,sans-Serif" font-size="10.00">Voxel::ConfigurationFile</text>
<text text-anchor="middle" x="253" y="-62" font-family="Helvetica,sans-Serif" font-size="10.00">::isPresent</text>
</a>
</g>
</g>
<!-- Node1&#45;&gt;Node3 -->
<g id="edge3" class="edge"><title>Node1&#45;&gt;Node3</title>
<path fill="none" stroke="midnightblue" d="M155.636,-70C164.47,-70 173.444,-70 182.182,-70"/>
<polygon fill="midnightblue" stroke="midnightblue" points="182.308,-73.5001 192.308,-70 182.308,-66.5001 182.308,-73.5001"/>
</g>
<!-- Node4 -->
<g id="node4" class="node"><title>Node4</title>
<g id="a_node4"><a xlink:href="classVoxel_1_1ConfigurationFile.xhtml#a440d9dd2f89d0c76c81f7285b31a5b94" target="_top" xlink:title="Voxel::ConfigurationFile::set">
<polygon fill="none" stroke="black" points="350,-19.5 350,-38.5 490,-38.5 490,-19.5 350,-19.5"/>
<text text-anchor="middle" x="420" y="-26.5" font-family="Helvetica,sans-Serif" font-size="10.00">Voxel::ConfigurationFile::set</text>
</a>
</g>
</g>
<!-- Node1&#45;&gt;Node4 -->
<g id="edge14" class="edge"><title>Node1&#45;&gt;Node4</title>
<path fill="none" stroke="midnightblue" d="M139.101,-54.9803C156.109,-51.2005 174.701,-47.5094 192,-45 240.878,-37.9101 296.15,-33.9291 339.916,-31.7115"/>
<polygon fill="midnightblue" stroke="midnightblue" points="340.108,-35.2064 349.926,-31.2247 339.768,-28.2147 340.108,-35.2064"/>
</g>
<!-- Node3&#45;&gt;Node2 -->
<g id="edge12" class="edge"><title>Node3&#45;&gt;Node2</title>
<path fill="none" stroke="midnightblue" d="M300.841,-85.0459C320,-91.2001 342.337,-98.3749 362.4,-104.819"/>
<polygon fill="midnightblue" stroke="midnightblue" points="361.451,-108.19 372.042,-107.916 363.591,-101.526 361.451,-108.19"/>
</g>
<!-- Node3&#45;&gt;Node3 -->
<g id="edge13" class="edge"><title>Node3&#45;&gt;Node3</title>
<path fill="none" stroke="midnightblue" d="M223.82,-85.2754C217.336,-94.4062 227.062,-103 253,-103 268.4,-103 278.086,-99.9704 282.056,-95.5975"/>
<polygon fill="midnightblue" stroke="midnightblue" points="285.56,-95.3166 282.18,-85.2754 278.56,-95.2328 285.56,-95.3166"/>
</g>
<!-- Node3&#45;&gt;Node4 -->
<g id="edge4" class="edge"><title>Node3&#45;&gt;Node4</title>
<path fill="none" stroke="midnightblue" d="M313.569,-55.1981C332.33,-50.5362 352.81,-45.4473 370.687,-41.005"/>
<polygon fill="midnightblue" stroke="midnightblue" points="371.74,-44.3498 380.601,-38.5416 370.052,-37.5564 371.74,-44.3498"/>
</g>
<!-- Node10 -->
<g id="node10" class="node"><title>Node10</title>
<g id="a_node10"><a xlink:href="classVoxel_1_1ConfigSet.xhtml#ab7930d0d21d160341d989ef998ecac73" target="_top" xlink:title="Voxel::ConfigSet::isPresent">
<polygon fill="none" stroke="black" points="351,-60.5 351,-79.5 489,-79.5 489,-60.5 351,-60.5"/>
<text text-anchor="middle" x="420" y="-67.5" font-family="Helvetica,sans-Serif" font-size="10.00">Voxel::ConfigSet::isPresent</text>
</a>
</g>
</g>
<!-- Node3&#45;&gt;Node10 -->
<g id="edge11" class="edge"><title>Node3&#45;&gt;Node10</title>
<path fill="none" stroke="midnightblue" d="M313.569,-70C322.355,-70 331.518,-70 340.614,-70"/>
<polygon fill="midnightblue" stroke="midnightblue" points="340.831,-73.5001 350.831,-70 340.831,-66.5001 340.831,-73.5001"/>
</g>
<!-- Node5 -->
<g id="node5" class="node"><title>Node5</title>
<g id="a_node5"><a xlink:href="classVoxel_1_1ConfigurationFile.xhtml#a3b9b573c1a3d9162fc0100c317ca0879" target="_top" xlink:title="Voxel::ConfigurationFile\l::_set">
<polygon fill="none" stroke="black" points="526.5,-14 526.5,-44 647.5,-44 647.5,-14 526.5,-14"/>
<text text-anchor="start" x="534.5" y="-32" font-family="Helvetica,sans-Serif" font-size="10.00">Voxel::ConfigurationFile</text>
<text text-anchor="middle" x="587" y="-21" font-family="Helvetica,sans-Serif" font-size="10.00">::_set</text>
</a>
</g>
</g>
<!-- Node4&#45;&gt;Node5 -->
<g id="edge5" class="edge"><title>Node4&#45;&gt;Node5</title>
<path fill="none" stroke="midnightblue" d="M490.019,-22.3307C498.715,-22.2257 507.616,-22.2231 516.321,-22.323"/>
<polygon fill="midnightblue" stroke="midnightblue" points="516.372,-25.8242 526.428,-22.4872 516.486,-18.8251 516.372,-25.8242"/>
</g>
<!-- Node5&#45;&gt;Node4 -->
<g id="edge6" class="edge"><title>Node5&#45;&gt;Node4</title>
<path fill="none" stroke="midnightblue" d="M526.428,-35.5128C517.936,-35.6928 509.092,-35.7703 500.297,-35.7455"/>
<polygon fill="midnightblue" stroke="midnightblue" points="500.045,-32.2436 490.019,-35.6693 499.993,-39.2434 500.045,-32.2436"/>
</g>
<!-- Node6 -->
<g id="node6" class="node"><title>Node6</title>
<g id="a_node6"><a xlink:href="classVoxel_1_1ConfigSet.xhtml#a8fb880c24ad7b0f04c84d4a33becb995" target="_top" xlink:title="Voxel::ConfigSet::_set">
<polygon fill="none" stroke="black" points="684,-19.5 684,-38.5 800,-38.5 800,-19.5 684,-19.5"/>
<text text-anchor="middle" x="742" y="-26.5" font-family="Helvetica,sans-Serif" font-size="10.00">Voxel::ConfigSet::_set</text>
</a>
</g>
</g>
<!-- Node5&#45;&gt;Node6 -->
<g id="edge7" class="edge"><title>Node5&#45;&gt;Node6</title>
<path fill="none" stroke="midnightblue" d="M647.592,-29C656.156,-29 665.017,-29 673.717,-29"/>
<polygon fill="midnightblue" stroke="midnightblue" points="673.828,-32.5001 683.828,-29 673.828,-25.5001 673.828,-32.5001"/>
</g>
<!-- Node7 -->
<g id="node7" class="node"><title>Node7</title>
<g id="a_node7"><a xlink:href="group__Util.xhtml#ga6b2a26aa983349496fedae9aa54ad034" target="_top" xlink:title="Trim. ">
<polygon fill="none" stroke="black" points="836,-19.5 836,-38.5 900,-38.5 900,-19.5 836,-19.5"/>
<text text-anchor="middle" x="868" y="-26.5" font-family="Helvetica,sans-Serif" font-size="10.00">Voxel::trim</text>
</a>
</g>
</g>
<!-- Node6&#45;&gt;Node7 -->
<g id="edge8" class="edge"><title>Node6&#45;&gt;Node7</title>
<path fill="none" stroke="midnightblue" d="M800.281,-29C808.753,-29 817.343,-29 825.413,-29"/>
<polygon fill="midnightblue" stroke="midnightblue" points="825.67,-32.5001 835.67,-29 825.669,-25.5001 825.67,-32.5001"/>
</g>
<!-- Node8 -->
<g id="node8" class="node"><title>Node8</title>
<g id="a_node8"><a xlink:href="group__Util.xhtml#gac9c04e18f7878dd82964bb489b7b1314" target="_top" xlink:title="Left Trim. ">
<polygon fill="none" stroke="black" points="937,-38.5 937,-57.5 1003,-57.5 1003,-38.5 937,-38.5"/>
<text text-anchor="middle" x="970" y="-45.5" font-family="Helvetica,sans-Serif" font-size="10.00">Voxel::ltrim</text>
</a>
</g>
</g>
<!-- Node7&#45;&gt;Node8 -->
<g id="edge9" class="edge"><title>Node7&#45;&gt;Node8</title>
<path fill="none" stroke="midnightblue" d="M900.092,-34.9076C908.591,-36.5222 917.943,-38.2992 926.943,-40.0092"/>
<polygon fill="midnightblue" stroke="midnightblue" points="926.413,-43.471 936.891,-41.8992 927.72,-36.5941 926.413,-43.471"/>
</g>
<!-- Node9 -->
<g id="node9" class="node"><title>Node9</title>
<g id="a_node9"><a xlink:href="group__Util.xhtml#ga3d95f05dde73bc9c54051437445e439b" target="_top" xlink:title="Right Trim. ">
<polygon fill="none" stroke="black" points="936.5,-0.5 936.5,-19.5 1003.5,-19.5 1003.5,-0.5 936.5,-0.5"/>
<text text-anchor="middle" x="970" y="-7.5" font-family="Helvetica,sans-Serif" font-size="10.00">Voxel::rtrim</text>
</a>
</g>
</g>
<!-- Node7&#45;&gt;Node9 -->
<g id="edge10" class="edge"><title>Node7&#45;&gt;Node9</title>
<path fill="none" stroke="midnightblue" d="M900.092,-23.0924C908.334,-21.5265 917.38,-19.8078 926.128,-18.1456"/>
<polygon fill="midnightblue" stroke="midnightblue" points="927.025,-21.538 936.196,-16.2328 925.718,-14.661 927.025,-21.538"/>
</g>
</g>
</svg>
