<?xml version="1.0" encoding="UTF-8" standalone="no"?>
<!DOCTYPE svg PUBLIC "-//W3C//DTD SVG 1.1//EN"
 "http://www.w3.org/Graphics/SVG/1.1/DTD/svg11.dtd">
<!-- Generated by graphviz version 2.36.0 (20140111.2315)
 -->
<!-- Title: ELFIO::symbol_section_accessor::generic_get_symbol Pages: 1 -->
<svg width="474pt" height="223pt"
 viewBox="0.00 0.00 474.00 223.00" xmlns="http://www.w3.org/2000/svg" xmlns:xlink="http://www.w3.org/1999/xlink">
<g id="graph0" class="graph" transform="scale(1 1) rotate(0) translate(4 219)">
<title>ELFIO::symbol_section_accessor::generic_get_symbol</title>
<!-- Node1 -->
<g id="node1" class="node"><title>Node1</title>
<polygon fill="#bfbfbf" stroke="black" points="0.5,-102.5 0.5,-143.5 119.5,-143.5 119.5,-102.5 0.5,-102.5"/>
<text text-anchor="start" x="8.5" y="-131.5" font-family="Helvetica,sans-Serif" font-size="10.00">ELFIO::symbol_section</text>
<text text-anchor="start" x="8.5" y="-120.5" font-family="Helvetica,sans-Serif" font-size="10.00">_accessor::generic_get</text>
<text text-anchor="middle" x="60" y="-109.5" font-family="Helvetica,sans-Serif" font-size="10.00">_symbol</text>
</g>
<!-- Node2 -->
<g id="node2" class="node"><title>Node2</title>
<g id="a_node2"><a xlink:href="classELFIO_1_1elfio.xhtml#af8a6706052d3029c76e5332eba10ad77" target="_top" xlink:title="ELFIO::elfio::get_convertor">
<polygon fill="none" stroke="black" points="163,-195.5 163,-214.5 297,-214.5 297,-195.5 163,-195.5"/>
<text text-anchor="middle" x="230" y="-202.5" font-family="Helvetica,sans-Serif" font-size="10.00">ELFIO::elfio::get_convertor</text>
</a>
</g>
</g>
<!-- Node1&#45;&gt;Node2 -->
<g id="edge1" class="edge"><title>Node1&#45;&gt;Node2</title>
<path fill="none" stroke="midnightblue" d="M90.8141,-143.662C109.054,-155.67 133.196,-170.462 156,-181 165.174,-185.239 175.31,-189.071 185.036,-192.365"/>
<polygon fill="midnightblue" stroke="midnightblue" points="183.982,-195.703 194.574,-195.476 186.152,-189.048 183.982,-195.703"/>
</g>
<!-- Node3 -->
<g id="node3" class="node"><title>Node3</title>
<g id="a_node3"><a xlink:href="classELFIO_1_1section.xhtml#accfaef20485ee803990b260130022bd2" target="_top" xlink:title="ELFIO::section::get_data">
<polygon fill="none" stroke="black" points="340,-135.5 340,-154.5 466,-154.5 466,-135.5 340,-135.5"/>
<text text-anchor="middle" x="403" y="-142.5" font-family="Helvetica,sans-Serif" font-size="10.00">ELFIO::section::get_data</text>
</a>
</g>
</g>
<!-- Node1&#45;&gt;Node3 -->
<g id="edge2" class="edge"><title>Node1&#45;&gt;Node3</title>
<path fill="none" stroke="midnightblue" d="M119.607,-140.211C131.548,-143.035 144.099,-145.52 156,-147 214.067,-154.221 280.44,-153.141 329.597,-150.575"/>
<polygon fill="midnightblue" stroke="midnightblue" points="330.025,-154.057 339.816,-150.008 329.637,-147.068 330.025,-154.057"/>
</g>
<!-- Node4 -->
<g id="node4" class="node"><title>Node4</title>
<g id="a_node4"><a xlink:href="classELFIO_1_1string__section__accessor.xhtml#abf7ba3e0d2d1e200f13ec4b4bdff96d1" target="_top" xlink:title="ELFIO::string_section\l_accessor::get_string">
<polygon fill="none" stroke="black" points="174,-108 174,-138 286,-138 286,-108 174,-108"/>
<text text-anchor="start" x="182" y="-126" font-family="Helvetica,sans-Serif" font-size="10.00">ELFIO::string_section</text>
<text text-anchor="middle" x="230" y="-115" font-family="Helvetica,sans-Serif" font-size="10.00">_accessor::get_string</text>
</a>
</g>
</g>
<!-- Node1&#45;&gt;Node4 -->
<g id="edge3" class="edge"><title>Node1&#45;&gt;Node4</title>
<path fill="none" stroke="midnightblue" d="M119.758,-123C133.92,-123 149.138,-123 163.584,-123"/>
<polygon fill="midnightblue" stroke="midnightblue" points="163.94,-126.5 173.94,-123 163.94,-119.5 163.94,-126.5"/>
</g>
<!-- Node5 -->
<g id="node5" class="node"><title>Node5</title>
<g id="a_node5"><a xlink:href="classELFIO_1_1symbol__section__accessor.xhtml#a722b6d616524fa49fb05b788f76be233" target="_top" xlink:title="ELFIO::symbol_section\l_accessor::get_string\l_table_index">
<polygon fill="none" stroke="black" points="170.5,-48.5 170.5,-89.5 289.5,-89.5 289.5,-48.5 170.5,-48.5"/>
<text text-anchor="start" x="178.5" y="-77.5" font-family="Helvetica,sans-Serif" font-size="10.00">ELFIO::symbol_section</text>
<text text-anchor="start" x="178.5" y="-66.5" font-family="Helvetica,sans-Serif" font-size="10.00">_accessor::get_string</text>
<text text-anchor="middle" x="230" y="-55.5" font-family="Helvetica,sans-Serif" font-size="10.00">_table_index</text>
</a>
</g>
</g>
<!-- Node1&#45;&gt;Node5 -->
<g id="edge5" class="edge"><title>Node1&#45;&gt;Node5</title>
<path fill="none" stroke="midnightblue" d="M119.758,-104.113C132.931,-99.8794 147.016,-95.352 160.544,-91.0037"/>
<polygon fill="midnightblue" stroke="midnightblue" points="161.826,-94.2682 170.275,-87.8759 159.684,-87.604 161.826,-94.2682"/>
</g>
<!-- Node6 -->
<g id="node6" class="node"><title>Node6</title>
<g id="a_node6"><a xlink:href="classELFIO_1_1symbol__section__accessor.xhtml#aea9697f3f01b0406a7832f99c31ce8b3" target="_top" xlink:title="ELFIO::symbol_section\l_accessor::get_symbols_num">
<polygon fill="none" stroke="black" points="156.5,-0 156.5,-30 303.5,-30 303.5,-0 156.5,-0"/>
<text text-anchor="start" x="164.5" y="-18" font-family="Helvetica,sans-Serif" font-size="10.00">ELFIO::symbol_section</text>
<text text-anchor="middle" x="230" y="-7" font-family="Helvetica,sans-Serif" font-size="10.00">_accessor::get_symbols_num</text>
</a>
</g>
</g>
<!-- Node1&#45;&gt;Node6 -->
<g id="edge6" class="edge"><title>Node1&#45;&gt;Node6</title>
<path fill="none" stroke="midnightblue" d="M79.5255,-102.385C97.4489,-83.5438 126.209,-56.0899 156,-39 159.043,-37.2543 162.231,-35.614 165.503,-34.0758"/>
<polygon fill="midnightblue" stroke="midnightblue" points="167.106,-37.1956 174.891,-30.0089 164.324,-30.7724 167.106,-37.1956"/>
</g>
<!-- Node4&#45;&gt;Node3 -->
<g id="edge4" class="edge"><title>Node4&#45;&gt;Node3</title>
<path fill="none" stroke="midnightblue" d="M286.047,-130.082C300.008,-131.878 315.216,-133.835 329.885,-135.722"/>
<polygon fill="midnightblue" stroke="midnightblue" points="329.568,-139.21 339.933,-137.015 330.461,-132.267 329.568,-139.21"/>
</g>
</g>
</svg>
