<?xml version="1.0" encoding="UTF-8" standalone="no"?>
<!DOCTYPE svg PUBLIC "-//W3C//DTD SVG 1.1//EN"
 "http://www.w3.org/Graphics/SVG/1.1/DTD/svg11.dtd">
<!-- Generated by graphviz version 2.36.0 (20140111.2315)
 -->
<!-- Title: Voxel::FrameGenerator::readConfiguration Pages: 1 -->
<svg width="282pt" height="87pt"
 viewBox="0.00 0.00 282.00 87.00" xmlns="http://www.w3.org/2000/svg" xmlns:xlink="http://www.w3.org/1999/xlink">
<g id="graph0" class="graph" transform="scale(1 1) rotate(0) translate(4 83)">
<title>Voxel::FrameGenerator::readConfiguration</title>
<!-- Node1 -->
<g id="node1" class="node"><title>Node1</title>
<polygon fill="#bfbfbf" stroke="black" points="0,-24 0,-54 118,-54 118,-24 0,-24"/>
<text text-anchor="start" x="8" y="-42" font-family="Helvetica,sans-Serif" font-size="10.00">Voxel::FrameGenerator</text>
<text text-anchor="middle" x="59" y="-31" font-family="Helvetica,sans-Serif" font-size="10.00">::readConfiguration</text>
</g>
<!-- Node2 -->
<g id="node2" class="node"><title>Node2</title>
<g id="a_node2"><a xlink:href="classVoxel_1_1FrameGenerator.xhtml#a869ac14a59f7bba75fb9dc3921f5c433" target="_top" xlink:title="Voxel::FrameGenerator\l::_onReadConfiguration">
<polygon fill="none" stroke="black" points="154.5,-49 154.5,-79 273.5,-79 273.5,-49 154.5,-49"/>
<text text-anchor="start" x="162.5" y="-67" font-family="Helvetica,sans-Serif" font-size="10.00">Voxel::FrameGenerator</text>
<text text-anchor="middle" x="214" y="-56" font-family="Helvetica,sans-Serif" font-size="10.00">::_onReadConfiguration</text>
</a>
</g>
</g>
<!-- Node1&#45;&gt;Node2 -->
<g id="edge1" class="edge"><title>Node1&#45;&gt;Node2</title>
<path fill="none" stroke="midnightblue" d="M118.279,-48.5227C126.777,-49.9113 135.593,-51.3518 144.274,-52.7703"/>
<polygon fill="midnightblue" stroke="midnightblue" points="143.942,-56.2624 154.376,-54.4209 145.071,-49.354 143.942,-56.2624"/>
</g>
<!-- Node3 -->
<g id="node3" class="node"><title>Node3</title>
<g id="a_node3"><a xlink:href="classVoxel_1_1SerializableMap.xhtml#a5298089cbc142e7858b9e69085dea716" target="_top" xlink:title="Voxel::SerializableMap\l::read">
<polygon fill="none" stroke="black" points="156,-0 156,-30 272,-30 272,-0 156,-0"/>
<text text-anchor="start" x="164" y="-18" font-family="Helvetica,sans-Serif" font-size="10.00">Voxel::SerializableMap</text>
<text text-anchor="middle" x="214" y="-7" font-family="Helvetica,sans-Serif" font-size="10.00">::read</text>
</a>
</g>
</g>
<!-- Node1&#45;&gt;Node3 -->
<g id="edge2" class="edge"><title>Node1&#45;&gt;Node3</title>
<path fill="none" stroke="midnightblue" d="M118.279,-29.8582C127.334,-28.4379 136.75,-26.9608 145.979,-25.5131"/>
<polygon fill="midnightblue" stroke="midnightblue" points="146.557,-28.9653 155.894,-23.9578 145.473,-22.0498 146.557,-28.9653"/>
</g>
</g>
</svg>
