<?xml version="1.0" encoding="UTF-8" standalone="no"?>
<!DOCTYPE svg PUBLIC "-//W3C//DTD SVG 1.1//EN"
 "http://www.w3.org/Graphics/SVG/1.1/DTD/svg11.dtd">
<!-- Generated by graphviz version 2.36.0 (20140111.2315)
 -->
<!-- Title: Voxel::USBBulkStreamer::USBBulkStreamerPrivate::start Pages: 1 -->
<svg width="702pt" height="73pt"
 viewBox="0.00 0.00 702.00 73.00" xmlns="http://www.w3.org/2000/svg" xmlns:xlink="http://www.w3.org/1999/xlink">
<g id="graph0" class="graph" transform="scale(1 1) rotate(0) translate(4 69)">
<title>Voxel::USBBulkStreamer::USBBulkStreamerPrivate::start</title>
<!-- Node1 -->
<g id="node1" class="node"><title>Node1</title>
<polygon fill="#bfbfbf" stroke="black" points="0,-23.5 0,-64.5 134,-64.5 134,-23.5 0,-23.5"/>
<text text-anchor="start" x="8" y="-52.5" font-family="Helvetica,sans-Serif" font-size="10.00">Voxel::USBBulkStreamer</text>
<text text-anchor="start" x="8" y="-41.5" font-family="Helvetica,sans-Serif" font-size="10.00">::USBBulkStreamerPrivate</text>
<text text-anchor="middle" x="67" y="-30.5" font-family="Helvetica,sans-Serif" font-size="10.00">::start</text>
</g>
<!-- Node2 -->
<g id="node2" class="node"><title>Node2</title>
<g id="a_node2"><a xlink:href="classVoxel_1_1USBBulkStreamer_1_1USBBulkStreamerPrivate.xhtml#a7a720971513791da40aa79f424498949" target="_top" xlink:title="Voxel::USBBulkStreamer\l::USBBulkStreamerPrivate::run">
<polygon fill="none" stroke="black" points="170.5,-29 170.5,-59 323.5,-59 323.5,-29 170.5,-29"/>
<text text-anchor="start" x="178.5" y="-47" font-family="Helvetica,sans-Serif" font-size="10.00">Voxel::USBBulkStreamer</text>
<text text-anchor="middle" x="247" y="-36" font-family="Helvetica,sans-Serif" font-size="10.00">::USBBulkStreamerPrivate::run</text>
</a>
</g>
</g>
<!-- Node1&#45;&gt;Node2 -->
<g id="edge1" class="edge"><title>Node1&#45;&gt;Node2</title>
<path fill="none" stroke="midnightblue" d="M134.028,-44C142.561,-44 151.397,-44 160.192,-44"/>
<polygon fill="midnightblue" stroke="midnightblue" points="160.476,-47.5001 170.476,-44 160.476,-40.5001 160.476,-47.5001"/>
</g>
<!-- Node3 -->
<g id="node3" class="node"><title>Node3</title>
<g id="a_node3"><a xlink:href="classVoxel_1_1Timer.xhtml#a363a248fe7dd94ae58681cf145b23a23" target="_top" xlink:title="Voxel::Timer::getCurentRealTime">
<polygon fill="none" stroke="black" points="530.5,-34.5 530.5,-53.5 693.5,-53.5 693.5,-34.5 530.5,-34.5"/>
<text text-anchor="middle" x="612" y="-41.5" font-family="Helvetica,sans-Serif" font-size="10.00">Voxel::Timer::getCurentRealTime</text>
</a>
</g>
</g>
<!-- Node2&#45;&gt;Node3 -->
<g id="edge2" class="edge"><title>Node2&#45;&gt;Node3</title>
<path fill="none" stroke="midnightblue" d="M323.593,-47.8347C335.764,-48.3196 348.227,-48.7373 360,-49 419.541,-50.3284 434.458,-50.2717 494,-49 502.566,-48.8171 511.482,-48.5589 520.401,-48.2551"/>
<polygon fill="midnightblue" stroke="midnightblue" points="520.585,-51.7509 530.453,-47.8945 520.334,-44.7554 520.585,-51.7509"/>
</g>
<!-- Node4 -->
<g id="node4" class="node"><title>Node4</title>
<g id="a_node4"><a xlink:href="classVoxel_1_1USBBulkStreamer_1_1USBBulkStreamerPrivate.xhtml#a235bc52293ca4e14a639f58c61777de1" target="_top" xlink:title="Voxel::USBBulkStreamer\l::USBBulkStreamerPrivate\l::putBuffer">
<polygon fill="none" stroke="black" points="360,0.5 360,-40.5 494,-40.5 494,0.5 360,0.5"/>
<text text-anchor="start" x="368" y="-28.5" font-family="Helvetica,sans-Serif" font-size="10.00">Voxel::USBBulkStreamer</text>
<text text-anchor="start" x="368" y="-17.5" font-family="Helvetica,sans-Serif" font-size="10.00">::USBBulkStreamerPrivate</text>
<text text-anchor="middle" x="427" y="-6.5" font-family="Helvetica,sans-Serif" font-size="10.00">::putBuffer</text>
</a>
</g>
</g>
<!-- Node2&#45;&gt;Node4 -->
<g id="edge3" class="edge"><title>Node2&#45;&gt;Node4</title>
<path fill="none" stroke="midnightblue" d="M323.746,-33.787C332.383,-32.6225 341.191,-31.4349 349.834,-30.2696"/>
<polygon fill="midnightblue" stroke="midnightblue" points="350.441,-33.7195 359.884,-28.9145 349.506,-26.7822 350.441,-33.7195"/>
</g>
<!-- Node4&#45;&gt;Node3 -->
<g id="edge4" class="edge"><title>Node4&#45;&gt;Node3</title>
<path fill="none" stroke="midnightblue" d="M494.067,-28.6646C505.232,-30.1288 516.946,-31.665 528.468,-33.1761"/>
<polygon fill="midnightblue" stroke="midnightblue" points="528.155,-36.665 538.526,-34.4952 529.066,-29.7245 528.155,-36.665"/>
</g>
</g>
</svg>
