<?xml version="1.0" encoding="UTF-8" standalone="no"?>
<!DOCTYPE svg PUBLIC "-//W3C//DTD SVG 1.1//EN"
 "http://www.w3.org/Graphics/SVG/1.1/DTD/svg11.dtd">
<!-- Generated by graphviz version 2.36.0 (20140111.2315)
 -->
<!-- Title: Voxel::DepthCamera::isRunning Pages: 1 -->
<svg width="594pt" height="371pt"
 viewBox="0.00 0.00 594.00 371.00" xmlns="http://www.w3.org/2000/svg" xmlns:xlink="http://www.w3.org/1999/xlink">
<g id="graph0" class="graph" transform="scale(1 1) rotate(0) translate(4 367)">
<title>Voxel::DepthCamera::isRunning</title>
<!-- Node1 -->
<g id="node1" class="node"><title>Node1</title>
<polygon fill="#bfbfbf" stroke="black" points="0,-164 0,-194 108,-194 108,-164 0,-164"/>
<text text-anchor="start" x="8" y="-182" font-family="Helvetica,sans-Serif" font-size="10.00">Voxel::DepthCamera</text>
<text text-anchor="middle" x="54" y="-171" font-family="Helvetica,sans-Serif" font-size="10.00">::isRunning</text>
</g>
<!-- Node2 -->
<g id="node2" class="node"><title>Node2</title>
<g id="a_node2"><a xlink:href="classVoxel_1_1TI_1_1ToFCamera.xhtml#a732a6cb4d0a909776abf8004f2ddf4ee" target="_top" xlink:title="Voxel::TI::ToFCamera\l::_setFrameSize">
<polygon fill="none" stroke="black" points="164,-333 164,-363 278,-363 278,-333 164,-333"/>
<text text-anchor="start" x="172" y="-351" font-family="Helvetica,sans-Serif" font-size="10.00">Voxel::TI::ToFCamera</text>
<text text-anchor="middle" x="221" y="-340" font-family="Helvetica,sans-Serif" font-size="10.00">::_setFrameSize</text>
</a>
</g>
</g>
<!-- Node1&#45;&gt;Node2 -->
<g id="edge1" class="edge"><title>Node1&#45;&gt;Node2</title>
<path fill="none" stroke="midnightblue" d="M63.9481,-203.534C76.8324,-235.527 103.594,-291.152 144,-323 149.891,-327.643 156.678,-331.44 163.721,-334.54"/>
<polygon fill="midnightblue" stroke="midnightblue" points="67.1409,-202.087 60.2528,-194.037 60.6174,-204.626 67.1409,-202.087"/>
</g>
<!-- Node3 -->
<g id="node3" class="node"><title>Node3</title>
<g id="a_node3"><a xlink:href="classVoxel_1_1TI_1_1ToFHaddockCamera.xhtml#a20618f833669a08a58cf5d73d9e3ab2e" target="_top" xlink:title="Voxel::TI::ToFHaddockCamera\l::_setROI">
<polygon fill="none" stroke="black" points="144.5,-284 144.5,-314 297.5,-314 297.5,-284 144.5,-284"/>
<text text-anchor="start" x="152.5" y="-302" font-family="Helvetica,sans-Serif" font-size="10.00">Voxel::TI::ToFHaddockCamera</text>
<text text-anchor="middle" x="221" y="-291" font-family="Helvetica,sans-Serif" font-size="10.00">::_setROI</text>
</a>
</g>
</g>
<!-- Node1&#45;&gt;Node3 -->
<g id="edge2" class="edge"><title>Node1&#45;&gt;Node3</title>
<path fill="none" stroke="midnightblue" d="M71.3871,-202.299C87.5789,-223.73 114.193,-254.983 144,-274 149.972,-277.81 156.581,-281.094 163.336,-283.911"/>
<polygon fill="midnightblue" stroke="midnightblue" points="74.0602,-200.027 65.3069,-194.058 68.4273,-204.182 74.0602,-200.027"/>
</g>
<!-- Node4 -->
<g id="node4" class="node"><title>Node4</title>
<g id="a_node4"><a xlink:href="classVoxel_1_1TI_1_1ToFCalculusCamera.xhtml#ab3a325f63d04ecbed499c50933fed22f" target="_top" xlink:title="Voxel::TI::ToFCalculusCamera\l::_setROI">
<polygon fill="none" stroke="black" points="145,-235 145,-265 297,-265 297,-235 145,-235"/>
<text text-anchor="start" x="153" y="-253" font-family="Helvetica,sans-Serif" font-size="10.00">Voxel::TI::ToFCalculusCamera</text>
<text text-anchor="middle" x="221" y="-242" font-family="Helvetica,sans-Serif" font-size="10.00">::_setROI</text>
</a>
</g>
</g>
<!-- Node1&#45;&gt;Node4 -->
<g id="edge3" class="edge"><title>Node1&#45;&gt;Node4</title>
<path fill="none" stroke="midnightblue" d="M90.3857,-198.938C106.464,-207.565 125.901,-217.403 144,-225 152.453,-228.548 161.599,-231.928 170.519,-234.992"/>
<polygon fill="midnightblue" stroke="midnightblue" points="91.8004,-195.723 81.3426,-194.024 88.4584,-201.874 91.8004,-195.723"/>
</g>
<!-- Node5 -->
<g id="node5" class="node"><title>Node5</title>
<g id="a_node5"><a xlink:href="classVoxel_1_1TI_1_1ToFTintinCamera.xhtml#a33b90eab74150037971aba980a810554" target="_top" xlink:title="Voxel::TI::ToFTintinCamera\l::_setROI">
<polygon fill="none" stroke="black" points="152,-186 152,-216 290,-216 290,-186 152,-186"/>
<text text-anchor="start" x="160" y="-204" font-family="Helvetica,sans-Serif" font-size="10.00">Voxel::TI::ToFTintinCamera</text>
<text text-anchor="middle" x="221" y="-193" font-family="Helvetica,sans-Serif" font-size="10.00">::_setROI</text>
</a>
</g>
</g>
<!-- Node1&#45;&gt;Node5 -->
<g id="edge4" class="edge"><title>Node1&#45;&gt;Node5</title>
<path fill="none" stroke="midnightblue" d="M118.107,-187.414C129.163,-188.888 140.713,-190.428 151.898,-191.92"/>
<polygon fill="midnightblue" stroke="midnightblue" points="118.49,-183.934 108.115,-186.082 117.565,-190.873 118.49,-183.934"/>
</g>
<!-- Node6 -->
<g id="node6" class="node"><title>Node6</title>
<g id="a_node6"><a xlink:href="classVoxel_1_1DepthCamera.xhtml#aa79e1956fadd8f87ad0026e861802f79" target="_top" xlink:title="Voxel::DepthCamera\l::close">
<polygon fill="none" stroke="black" points="334,-93 334,-123 442,-123 442,-93 334,-93"/>
<text text-anchor="start" x="342" y="-111" font-family="Helvetica,sans-Serif" font-size="10.00">Voxel::DepthCamera</text>
<text text-anchor="middle" x="388" y="-100" font-family="Helvetica,sans-Serif" font-size="10.00">::close</text>
</a>
</g>
</g>
<!-- Node1&#45;&gt;Node6 -->
<g id="edge5" class="edge"><title>Node1&#45;&gt;Node6</title>
<path fill="none" stroke="midnightblue" d="M118.276,-170.612C167.622,-163.459 237.674,-151.959 298,-137 313.458,-133.167 330.123,-128.019 344.806,-123.124"/>
<polygon fill="midnightblue" stroke="midnightblue" points="117.475,-167.191 108.071,-172.072 118.466,-174.12 117.475,-167.191"/>
</g>
<!-- Node8 -->
<g id="node8" class="node"><title>Node8</title>
<g id="a_node8"><a xlink:href="classVoxel_1_1DepthCamera.xhtml#a97e31ecb8e71db03a54047dabacc06ea" target="_top" xlink:title="Voxel::DepthCamera\l::reset">
<polygon fill="none" stroke="black" points="167,-98 167,-128 275,-128 275,-98 167,-98"/>
<text text-anchor="start" x="175" y="-116" font-family="Helvetica,sans-Serif" font-size="10.00">Voxel::DepthCamera</text>
<text text-anchor="middle" x="221" y="-105" font-family="Helvetica,sans-Serif" font-size="10.00">::reset</text>
</a>
</g>
</g>
<!-- Node1&#45;&gt;Node8 -->
<g id="edge7" class="edge"><title>Node1&#45;&gt;Node8</title>
<path fill="none" stroke="midnightblue" d="M101.846,-159.965C115.434,-154.467 130.3,-148.475 144,-143 156.25,-138.105 169.63,-132.807 181.702,-128.045"/>
<polygon fill="midnightblue" stroke="midnightblue" points="100.167,-156.869 92.2121,-163.867 102.795,-163.357 100.167,-156.869"/>
</g>
<!-- Node9 -->
<g id="node9" class="node"><title>Node9</title>
<g id="a_node9"><a xlink:href="classVoxel_1_1DepthCamera.xhtml#a8a23ac08a6a28c804552c4cf49db4e3e" target="_top" xlink:title="Voxel::DepthCamera\l::start">
<polygon fill="none" stroke="black" points="167,-49 167,-79 275,-79 275,-49 167,-49"/>
<text text-anchor="start" x="175" y="-67" font-family="Helvetica,sans-Serif" font-size="10.00">Voxel::DepthCamera</text>
<text text-anchor="middle" x="221" y="-56" font-family="Helvetica,sans-Serif" font-size="10.00">::start</text>
</a>
</g>
</g>
<!-- Node1&#45;&gt;Node9 -->
<g id="edge8" class="edge"><title>Node1&#45;&gt;Node9</title>
<path fill="none" stroke="midnightblue" d="M72.706,-155.661C89.1646,-135.436 115.391,-106.714 144,-89 150.968,-84.6859 158.76,-81.0324 166.628,-77.9642"/>
<polygon fill="midnightblue" stroke="midnightblue" points="69.757,-153.746 66.2719,-163.751 75.2357,-158.103 69.757,-153.746"/>
</g>
<!-- Node10 -->
<g id="node10" class="node"><title>Node10</title>
<g id="a_node10"><a xlink:href="classVoxel_1_1DepthCamera.xhtml#a1373f05cc4d5bacd063a409d68c6b0c8" target="_top" xlink:title="Voxel::DepthCamera\l::stop">
<polygon fill="none" stroke="black" points="167,-0 167,-30 275,-30 275,-0 167,-0"/>
<text text-anchor="start" x="175" y="-18" font-family="Helvetica,sans-Serif" font-size="10.00">Voxel::DepthCamera</text>
<text text-anchor="middle" x="221" y="-7" font-family="Helvetica,sans-Serif" font-size="10.00">::stop</text>
</a>
</g>
</g>
<!-- Node1&#45;&gt;Node10 -->
<g id="edge9" class="edge"><title>Node1&#45;&gt;Node10</title>
<path fill="none" stroke="midnightblue" d="M64.2791,-154.591C77.381,-123.332 104.229,-69.5622 144,-39 150.802,-33.7728 158.767,-29.6698 166.933,-26.4531"/>
<polygon fill="midnightblue" stroke="midnightblue" points="61.0224,-153.308 60.5092,-163.891 67.5097,-155.938 61.0224,-153.308"/>
</g>
<!-- Node7 -->
<g id="node7" class="node"><title>Node7</title>
<g id="a_node7"><a xlink:href="classVoxel_1_1DepthCamera.xhtml#a4f204a8d71e4a806cc822d80bbf44c67" target="_top" xlink:title="Voxel::DepthCamera\l::~DepthCamera">
<polygon fill="none" stroke="black" points="478,-93 478,-123 586,-123 586,-93 478,-93"/>
<text text-anchor="start" x="486" y="-111" font-family="Helvetica,sans-Serif" font-size="10.00">Voxel::DepthCamera</text>
<text text-anchor="middle" x="532" y="-100" font-family="Helvetica,sans-Serif" font-size="10.00">::~DepthCamera</text>
</a>
</g>
</g>
<!-- Node6&#45;&gt;Node7 -->
<g id="edge6" class="edge"><title>Node6&#45;&gt;Node7</title>
<path fill="none" stroke="midnightblue" d="M452.517,-108C460.996,-108 469.618,-108 477.894,-108"/>
<polygon fill="midnightblue" stroke="midnightblue" points="452.28,-104.5 442.28,-108 452.28,-111.5 452.28,-104.5"/>
</g>
<!-- Node10&#45;&gt;Node6 -->
<g id="edge11" class="edge"><title>Node10&#45;&gt;Node6</title>
<path fill="none" stroke="midnightblue" d="M284.76,-32.8439C289.319,-34.7373 293.779,-36.7883 298,-39 326.054,-53.7011 354.243,-77.4273 371.161,-92.8691"/>
<polygon fill="midnightblue" stroke="midnightblue" points="285.896,-29.5307 275.307,-29.1775 283.365,-36.057 285.896,-29.5307"/>
</g>
<!-- Node11 -->
<g id="node11" class="node"><title>Node11</title>
<g id="a_node11"><a xlink:href="CameraSystemSaveStreamTest_8cpp.xhtml#a0ddf1224851353fc92bfbff6f499fa97" target="_top" xlink:title="main">
<polygon fill="none" stroke="black" points="369,-5.5 369,-24.5 407,-24.5 407,-5.5 369,-5.5"/>
<text text-anchor="middle" x="388" y="-12.5" font-family="Helvetica,sans-Serif" font-size="10.00">main</text>
</a>
</g>
</g>
<!-- Node10&#45;&gt;Node11 -->
<g id="edge10" class="edge"><title>Node10&#45;&gt;Node11</title>
<path fill="none" stroke="midnightblue" d="M285.12,-15C315.104,-15 348.708,-15 368.843,-15"/>
<polygon fill="midnightblue" stroke="midnightblue" points="285.115,-11.5001 275.115,-15 285.115,-18.5001 285.115,-11.5001"/>
</g>
</g>
</svg>
