<?xml version="1.0" encoding="UTF-8" standalone="no"?>
<!DOCTYPE svg PUBLIC "-//W3C//DTD SVG 1.1//EN"
 "http://www.w3.org/Graphics/SVG/1.1/DTD/svg11.dtd">
<!-- Generated by graphviz version 2.36.0 (20140111.2315)
 -->
<!-- Title: TinyXML2::XMLElement::Accept Pages: 1 -->
<svg width="284pt" height="185pt"
 viewBox="0.00 0.00 284.00 185.00" xmlns="http://www.w3.org/2000/svg" xmlns:xlink="http://www.w3.org/1999/xlink">
<g id="graph0" class="graph" transform="scale(1 1) rotate(0) translate(4 181)">
<title>TinyXML2::XMLElement::Accept</title>
<!-- Node1 -->
<g id="node1" class="node"><title>Node1</title>
<polygon fill="#bfbfbf" stroke="black" points="0.5,-73 0.5,-103 123.5,-103 123.5,-73 0.5,-73"/>
<text text-anchor="start" x="8.5" y="-91" font-family="Helvetica,sans-Serif" font-size="10.00">TinyXML2::XMLElement</text>
<text text-anchor="middle" x="62" y="-80" font-family="Helvetica,sans-Serif" font-size="10.00">::Accept</text>
</g>
<!-- Node2 -->
<g id="node2" class="node"><title>Node2</title>
<g id="a_node2"><a xlink:href="classTinyXML2_1_1XMLNode.xhtml#a81d2f010536dc2ca37f74d40b074ac8d" target="_top" xlink:title="Get the first child node, or null if none exists. ">
<polygon fill="none" stroke="black" points="160,-147 160,-177 276,-177 276,-147 160,-147"/>
<text text-anchor="start" x="168" y="-165" font-family="Helvetica,sans-Serif" font-size="10.00">TinyXML2::XMLNode::</text>
<text text-anchor="middle" x="218" y="-154" font-family="Helvetica,sans-Serif" font-size="10.00">FirstChild</text>
</a>
</g>
</g>
<!-- Node1&#45;&gt;Node2 -->
<g id="edge1" class="edge"><title>Node1&#45;&gt;Node2</title>
<path fill="none" stroke="midnightblue" d="M92.0848,-103.213C111.247,-113.106 136.962,-126.139 160,-137 164.068,-138.918 168.321,-140.873 172.59,-142.803"/>
<polygon fill="midnightblue" stroke="midnightblue" points="171.339,-146.078 181.897,-146.962 174.195,-139.687 171.339,-146.078"/>
</g>
<!-- Node3 -->
<g id="node3" class="node"><title>Node3</title>
<g id="a_node3"><a xlink:href="classTinyXML2_1_1XMLNode.xhtml#aee7c15f0bf3bdc684fda87d584356c1b" target="_top" xlink:title="Get the next (right) sibling node of this node. ">
<polygon fill="none" stroke="black" points="160,-98 160,-128 276,-128 276,-98 160,-98"/>
<text text-anchor="start" x="168" y="-116" font-family="Helvetica,sans-Serif" font-size="10.00">TinyXML2::XMLNode::</text>
<text text-anchor="middle" x="218" y="-105" font-family="Helvetica,sans-Serif" font-size="10.00">NextSibling</text>
</a>
</g>
</g>
<!-- Node1&#45;&gt;Node3 -->
<g id="edge2" class="edge"><title>Node1&#45;&gt;Node3</title>
<path fill="none" stroke="midnightblue" d="M123.865,-97.8807C132.325,-99.254 141.057,-100.672 149.627,-102.063"/>
<polygon fill="midnightblue" stroke="midnightblue" points="149.156,-105.532 159.588,-103.68 150.278,-98.6226 149.156,-105.532"/>
</g>
<!-- Node4 -->
<g id="node4" class="node"><title>Node4</title>
<g id="a_node4"><a xlink:href="classTinyXML2_1_1XMLVisitor.xhtml#ad84b4221bdd2cdecbda2fe51ac506bed" target="_top" xlink:title="Visit a document. ">
<polygon fill="none" stroke="black" points="160.5,-49 160.5,-79 275.5,-79 275.5,-49 160.5,-49"/>
<text text-anchor="start" x="168.5" y="-67" font-family="Helvetica,sans-Serif" font-size="10.00">TinyXML2::XMLVisitor</text>
<text text-anchor="middle" x="218" y="-56" font-family="Helvetica,sans-Serif" font-size="10.00">::VisitEnter</text>
</a>
</g>
</g>
<!-- Node1&#45;&gt;Node4 -->
<g id="edge3" class="edge"><title>Node1&#45;&gt;Node4</title>
<path fill="none" stroke="midnightblue" d="M123.865,-78.5146C132.446,-77.1773 141.306,-75.7964 149.994,-74.4425"/>
<polygon fill="midnightblue" stroke="midnightblue" points="150.745,-77.8678 160.087,-72.8696 149.667,-70.9513 150.745,-77.8678"/>
</g>
<!-- Node5 -->
<g id="node5" class="node"><title>Node5</title>
<g id="a_node5"><a xlink:href="classTinyXML2_1_1XMLVisitor.xhtml#a164c7fc45b4799c5d850571780deeb0a" target="_top" xlink:title="Visit a document. ">
<polygon fill="none" stroke="black" points="160.5,-0 160.5,-30 275.5,-30 275.5,-0 160.5,-0"/>
<text text-anchor="start" x="168.5" y="-18" font-family="Helvetica,sans-Serif" font-size="10.00">TinyXML2::XMLVisitor</text>
<text text-anchor="middle" x="218" y="-7" font-family="Helvetica,sans-Serif" font-size="10.00">::VisitExit</text>
</a>
</g>
</g>
<!-- Node1&#45;&gt;Node5 -->
<g id="edge4" class="edge"><title>Node1&#45;&gt;Node5</title>
<path fill="none" stroke="midnightblue" d="M92.5458,-72.9375C111.675,-63.2951 137.182,-50.6426 160,-40 164.076,-38.0987 168.334,-36.1548 172.606,-34.2323"/>
<polygon fill="midnightblue" stroke="midnightblue" points="174.208,-37.3503 181.918,-30.0829 171.359,-30.9564 174.208,-37.3503"/>
</g>
</g>
</svg>
