<?xml version="1.0" encoding="UTF-8" standalone="no"?>
<!DOCTYPE svg PUBLIC "-//W3C//DTD SVG 1.1//EN"
 "http://www.w3.org/Graphics/SVG/1.1/DTD/svg11.dtd">
<!-- Generated by graphviz version 2.36.0 (20140111.2315)
 -->
<!-- Title: Voxel::DepthCamera::DepthCamera Pages: 1 -->
<svg width="1308pt" height="386pt"
 viewBox="0.00 0.00 1308.00 386.00" xmlns="http://www.w3.org/2000/svg" xmlns:xlink="http://www.w3.org/1999/xlink">
<g id="graph0" class="graph" transform="scale(1 1) rotate(0) translate(4 382)">
<title>Voxel::DepthCamera::DepthCamera</title>
<!-- Node1 -->
<g id="node1" class="node"><title>Node1</title>
<polygon fill="#bfbfbf" stroke="black" points="0,-181 0,-211 108,-211 108,-181 0,-181"/>
<text text-anchor="start" x="8" y="-199" font-family="Helvetica,sans-Serif" font-size="10.00">Voxel::DepthCamera</text>
<text text-anchor="middle" x="54" y="-188" font-family="Helvetica,sans-Serif" font-size="10.00">::DepthCamera</text>
</g>
<!-- Node2 -->
<g id="node2" class="node"><title>Node2</title>
<g id="a_node2"><a xlink:href="classVoxel_1_1DepthCamera.xhtml#ae5dc62a724d86d03ddbdc89d0800d1a4" target="_top" xlink:title="Voxel::DepthCamera\l::_makeID">
<polygon fill="none" stroke="black" points="153,-206 153,-236 261,-236 261,-206 153,-206"/>
<text text-anchor="start" x="161" y="-224" font-family="Helvetica,sans-Serif" font-size="10.00">Voxel::DepthCamera</text>
<text text-anchor="middle" x="207" y="-213" font-family="Helvetica,sans-Serif" font-size="10.00">::_makeID</text>
</a>
</g>
</g>
<!-- Node1&#45;&gt;Node2 -->
<g id="edge1" class="edge"><title>Node1&#45;&gt;Node2</title>
<path fill="none" stroke="midnightblue" d="M108.237,-204.814C119.467,-206.673 131.419,-208.652 142.97,-210.565"/>
<polygon fill="midnightblue" stroke="midnightblue" points="142.552,-214.043 152.989,-212.223 143.695,-207.137 142.552,-214.043"/>
</g>
<!-- Node3 -->
<g id="node3" class="node"><title>Node3</title>
<g id="a_node3"><a xlink:href="classVoxel_1_1MainConfigurationFile.xhtml#a3f47c852116bdee8f049cdf1b15959ff" target="_top" xlink:title="Voxel::MainConfiguration\lFile::read">
<polygon fill="none" stroke="black" points="144,-157 144,-187 270,-187 270,-157 144,-157"/>
<text text-anchor="start" x="152" y="-175" font-family="Helvetica,sans-Serif" font-size="10.00">Voxel::MainConfiguration</text>
<text text-anchor="middle" x="207" y="-164" font-family="Helvetica,sans-Serif" font-size="10.00">File::read</text>
</a>
</g>
</g>
<!-- Node1&#45;&gt;Node3 -->
<g id="edge2" class="edge"><title>Node1&#45;&gt;Node3</title>
<path fill="none" stroke="midnightblue" d="M108.237,-187.538C116.537,-186.219 125.231,-184.837 133.866,-183.465"/>
<polygon fill="midnightblue" stroke="midnightblue" points="134.623,-186.889 143.949,-181.862 133.524,-179.976 134.623,-186.889"/>
</g>
<!-- Node4 -->
<g id="node4" class="node"><title>Node4</title>
<g id="a_node4"><a xlink:href="classVoxel_1_1ConfigurationFile.xhtml#a4654f11cc71f197b3163de706ded30a9" target="_top" xlink:title="Voxel::ConfigurationFile\l::read">
<polygon fill="none" stroke="black" points="318.5,-340 318.5,-370 439.5,-370 439.5,-340 318.5,-340"/>
<text text-anchor="start" x="326.5" y="-358" font-family="Helvetica,sans-Serif" font-size="10.00">Voxel::ConfigurationFile</text>
<text text-anchor="middle" x="379" y="-347" font-family="Helvetica,sans-Serif" font-size="10.00">::read</text>
</a>
</g>
</g>
<!-- Node3&#45;&gt;Node4 -->
<g id="edge3" class="edge"><title>Node3&#45;&gt;Node4</title>
<path fill="none" stroke="midnightblue" d="M257.762,-187.082C262.29,-189.86 266.485,-193.137 270,-197 307.764,-238.496 270.171,-274.822 306,-318 311.483,-324.608 318.449,-330.169 325.879,-334.806"/>
<polygon fill="midnightblue" stroke="midnightblue" points="324.327,-337.949 334.753,-339.834 327.777,-331.859 324.327,-337.949"/>
</g>
<!-- Node6 -->
<g id="node6" class="node"><title>Node6</title>
<g id="a_node6"><a xlink:href="classVoxel_1_1MainConfigurationFile.xhtml#a0d061a6b01c29c40af3288f4783c3c07" target="_top" xlink:title="Voxel::MainConfiguration\lFile::isPresent">
<polygon fill="none" stroke="black" points="316,-279 316,-309 442,-309 442,-279 316,-279"/>
<text text-anchor="start" x="324" y="-297" font-family="Helvetica,sans-Serif" font-size="10.00">Voxel::MainConfiguration</text>
<text text-anchor="middle" x="379" y="-286" font-family="Helvetica,sans-Serif" font-size="10.00">File::isPresent</text>
</a>
</g>
</g>
<!-- Node3&#45;&gt;Node6 -->
<g id="edge5" class="edge"><title>Node3&#45;&gt;Node6</title>
<path fill="none" stroke="midnightblue" d="M255.409,-187.016C260.659,-189.837 265.666,-193.142 270,-197 294.957,-219.217 281.303,-240.494 306,-263 310.621,-267.211 315.902,-270.909 321.457,-274.142"/>
<polygon fill="midnightblue" stroke="midnightblue" points="319.881,-277.268 330.357,-278.848 323.153,-271.08 319.881,-277.268"/>
</g>
<!-- Node13 -->
<g id="node13" class="node"><title>Node13</title>
<g id="a_node13"><a xlink:href="group__Util.xhtml#ga6b2a26aa983349496fedae9aa54ad034" target="_top" xlink:title="Trim. ">
<polygon fill="none" stroke="black" points="1132,-116.5 1132,-135.5 1196,-135.5 1196,-116.5 1132,-116.5"/>
<text text-anchor="middle" x="1164" y="-123.5" font-family="Helvetica,sans-Serif" font-size="10.00">Voxel::trim</text>
</a>
</g>
</g>
<!-- Node3&#45;&gt;Node13 -->
<g id="edge18" class="edge"><title>Node3&#45;&gt;Node13</title>
<path fill="none" stroke="midnightblue" d="M241.409,-156.953C260.08,-149.08 283.961,-139.882 306,-134 411.126,-105.943 439.195,-97 548,-97 548,-97 548,-97 884,-97 968.866,-97 1067.48,-110.439 1121.79,-119.02"/>
<polygon fill="midnightblue" stroke="midnightblue" points="1121.3,-122.485 1131.73,-120.613 1122.41,-115.573 1121.3,-122.485"/>
</g>
<!-- Node16 -->
<g id="node16" class="node"><title>Node16</title>
<g id="a_node16"><a xlink:href="group__Util.xhtml#gadd67e5b1a02a8a07764793e4598922d4" target="_top" xlink:title="Voxel::split">
<polygon fill="none" stroke="black" points="346.5,-49.5 346.5,-68.5 411.5,-68.5 411.5,-49.5 346.5,-49.5"/>
<text text-anchor="middle" x="379" y="-56.5" font-family="Helvetica,sans-Serif" font-size="10.00">Voxel::split</text>
</a>
</g>
</g>
<!-- Node3&#45;&gt;Node16 -->
<g id="edge17" class="edge"><title>Node3&#45;&gt;Node16</title>
<path fill="none" stroke="midnightblue" d="M221.1,-156.673C238.616,-137.057 271.486,-103.2 306,-83 315.393,-77.5023 326.221,-73.0538 336.579,-69.5497"/>
<polygon fill="midnightblue" stroke="midnightblue" points="337.824,-72.827 346.304,-66.4761 335.714,-66.1524 337.824,-72.827"/>
</g>
<!-- Node17 -->
<g id="node17" class="node"><title>Node17</title>
<g id="a_node17"><a xlink:href="classVoxel_1_1ConfigurationFile.xhtml#aed32106b59668d21743c241255d1a92a" target="_top" xlink:title="Voxel::ConfigurationFile\l::isValidCameraProfile">
<polygon fill="none" stroke="black" points="318.5,-224 318.5,-254 439.5,-254 439.5,-224 318.5,-224"/>
<text text-anchor="start" x="326.5" y="-242" font-family="Helvetica,sans-Serif" font-size="10.00">Voxel::ConfigurationFile</text>
<text text-anchor="middle" x="379" y="-231" font-family="Helvetica,sans-Serif" font-size="10.00">::isValidCameraProfile</text>
</a>
</g>
</g>
<!-- Node3&#45;&gt;Node17 -->
<g id="edge19" class="edge"><title>Node3&#45;&gt;Node17</title>
<path fill="none" stroke="midnightblue" d="M246.151,-187.036C271,-196.829 303.616,-209.684 330.19,-220.157"/>
<polygon fill="midnightblue" stroke="midnightblue" points="329.095,-223.488 339.682,-223.898 331.662,-216.975 329.095,-223.488"/>
</g>
<!-- Node18 -->
<g id="node18" class="node"><title>Node18</title>
<g id="a_node18"><a xlink:href="classVoxel_1_1ConfigurationFile.xhtml#aeefbdefcac8743d6f08c25109480da2f" target="_top" xlink:title="Voxel::ConfigurationFile\l::getInteger">
<polygon fill="none" stroke="black" points="488.5,-193 488.5,-223 609.5,-223 609.5,-193 488.5,-193"/>
<text text-anchor="start" x="496.5" y="-211" font-family="Helvetica,sans-Serif" font-size="10.00">Voxel::ConfigurationFile</text>
<text text-anchor="middle" x="549" y="-200" font-family="Helvetica,sans-Serif" font-size="10.00">::getInteger</text>
</a>
</g>
</g>
<!-- Node3&#45;&gt;Node18 -->
<g id="edge23" class="edge"><title>Node3&#45;&gt;Node18</title>
<path fill="none" stroke="midnightblue" d="M270.361,-178.603C329.199,-184.833 417.262,-194.157 478.369,-200.627"/>
<polygon fill="midnightblue" stroke="midnightblue" points="478.001,-204.108 488.314,-201.68 478.739,-197.147 478.001,-204.108"/>
</g>
<!-- Node19 -->
<g id="node19" class="node"><title>Node19</title>
<g id="a_node19"><a xlink:href="classVoxel_1_1ConfigurationFile.xhtml#ac104a6730605a5926e9d9ce9ec7bb60a" target="_top" xlink:title="Voxel::ConfigurationFile::get">
<polygon fill="none" stroke="black" points="309,-143.5 309,-162.5 449,-162.5 449,-143.5 309,-143.5"/>
<text text-anchor="middle" x="379" y="-150.5" font-family="Helvetica,sans-Serif" font-size="10.00">Voxel::ConfigurationFile::get</text>
</a>
</g>
</g>
<!-- Node3&#45;&gt;Node19 -->
<g id="edge24" class="edge"><title>Node3&#45;&gt;Node19</title>
<path fill="none" stroke="midnightblue" d="M270.336,-165.033C279.522,-164.006 289.089,-162.937 298.564,-161.878"/>
<polygon fill="midnightblue" stroke="midnightblue" points="299.236,-165.325 308.786,-160.736 298.459,-158.368 299.236,-165.325"/>
</g>
<!-- Node22 -->
<g id="node22" class="node"><title>Node22</title>
<g id="a_node22"><a xlink:href="classVoxel_1_1MainConfigurationFile.xhtml#aeb5b4fef3cb166018e80ca8019e00a22" target="_top" xlink:title="Voxel::MainConfiguration\lFile::setCurrentCameraProfile">
<polygon fill="none" stroke="black" points="306,-0 306,-30 452,-30 452,-0 306,-0"/>
<text text-anchor="start" x="314" y="-18" font-family="Helvetica,sans-Serif" font-size="10.00">Voxel::MainConfiguration</text>
<text text-anchor="middle" x="379" y="-7" font-family="Helvetica,sans-Serif" font-size="10.00">File::setCurrentCameraProfile</text>
</a>
</g>
</g>
<!-- Node3&#45;&gt;Node22 -->
<g id="edge30" class="edge"><title>Node3&#45;&gt;Node22</title>
<path fill="none" stroke="midnightblue" d="M215.465,-156.601C229.476,-129.257 262.283,-72.0884 306,-40 308.532,-38.1417 311.213,-36.4131 313.994,-34.8061"/>
<polygon fill="midnightblue" stroke="midnightblue" points="315.875,-37.7742 323.156,-30.0777 312.664,-31.5537 315.875,-37.7742"/>
</g>
<!-- Node5 -->
<g id="node5" class="node"><title>Node5</title>
<g id="a_node5"><a xlink:href="classVoxel_1_1Configuration.xhtml#aee8855b651aed3783dbd8aa4453b1a4d" target="_top" xlink:title="Updates &quot;name&quot; to full path. ">
<polygon fill="none" stroke="black" points="496.5,-348 496.5,-378 601.5,-378 601.5,-348 496.5,-348"/>
<text text-anchor="start" x="504.5" y="-366" font-family="Helvetica,sans-Serif" font-size="10.00">Voxel::Configuration</text>
<text text-anchor="middle" x="549" y="-355" font-family="Helvetica,sans-Serif" font-size="10.00">::getConfFile</text>
</a>
</g>
</g>
<!-- Node4&#45;&gt;Node5 -->
<g id="edge4" class="edge"><title>Node4&#45;&gt;Node5</title>
<path fill="none" stroke="midnightblue" d="M439.704,-357.843C454.723,-358.558 470.876,-359.327 486.005,-360.048"/>
<polygon fill="midnightblue" stroke="midnightblue" points="486.133,-363.558 496.288,-360.538 486.466,-356.566 486.133,-363.558"/>
</g>
<!-- Node7 -->
<g id="node7" class="node"><title>Node7</title>
<g id="a_node7"><a xlink:href="classVoxel_1_1ConfigurationFile.xhtml#a00e007801296e76b05ef10f1c8176c2d" target="_top" xlink:title="Voxel::ConfigurationFile\l::isPresent">
<polygon fill="none" stroke="black" points="488.5,-281 488.5,-311 609.5,-311 609.5,-281 488.5,-281"/>
<text text-anchor="start" x="496.5" y="-299" font-family="Helvetica,sans-Serif" font-size="10.00">Voxel::ConfigurationFile</text>
<text text-anchor="middle" x="549" y="-288" font-family="Helvetica,sans-Serif" font-size="10.00">::isPresent</text>
</a>
</g>
</g>
<!-- Node6&#45;&gt;Node7 -->
<g id="edge6" class="edge"><title>Node6&#45;&gt;Node7</title>
<path fill="none" stroke="midnightblue" d="M442.08,-294.739C453.91,-294.88 466.363,-295.028 478.409,-295.172"/>
<polygon fill="midnightblue" stroke="midnightblue" points="478.368,-298.671 488.409,-295.291 478.452,-291.672 478.368,-298.671"/>
</g>
<!-- Node7&#45;&gt;Node7 -->
<g id="edge9" class="edge"><title>Node7&#45;&gt;Node7</title>
<path fill="none" stroke="midnightblue" d="M519.82,-311.275C513.336,-320.406 523.062,-329 549,-329 564.4,-329 574.086,-325.97 578.056,-321.598"/>
<polygon fill="midnightblue" stroke="midnightblue" points="581.56,-321.317 578.18,-311.275 574.56,-321.233 581.56,-321.317"/>
</g>
<!-- Node8 -->
<g id="node8" class="node"><title>Node8</title>
<g id="a_node8"><a xlink:href="classVoxel_1_1MainConfigurationFile.xhtml#ab24aaf7b18fea74c6f235da04fadbed0" target="_top" xlink:title="Voxel::MainConfiguration\lFile::getCameraProfile">
<polygon fill="none" stroke="black" points="653,-237 653,-267 779,-267 779,-237 653,-237"/>
<text text-anchor="start" x="661" y="-255" font-family="Helvetica,sans-Serif" font-size="10.00">Voxel::MainConfiguration</text>
<text text-anchor="middle" x="716" y="-244" font-family="Helvetica,sans-Serif" font-size="10.00">File::getCameraProfile</text>
</a>
</g>
</g>
<!-- Node7&#45;&gt;Node8 -->
<g id="edge7" class="edge"><title>Node7&#45;&gt;Node8</title>
<path fill="none" stroke="midnightblue" d="M606.322,-280.981C619.92,-277.355 634.575,-273.447 648.587,-269.71"/>
<polygon fill="midnightblue" stroke="midnightblue" points="649.891,-272.985 658.652,-267.026 648.088,-266.221 649.891,-272.985"/>
</g>
<!-- Node9 -->
<g id="node9" class="node"><title>Node9</title>
<g id="a_node9"><a xlink:href="classVoxel_1_1ConfigSet.xhtml#ab7930d0d21d160341d989ef998ecac73" target="_top" xlink:title="Voxel::ConfigSet::isPresent">
<polygon fill="none" stroke="black" points="647,-286.5 647,-305.5 785,-305.5 785,-286.5 647,-286.5"/>
<text text-anchor="middle" x="716" y="-293.5" font-family="Helvetica,sans-Serif" font-size="10.00">Voxel::ConfigSet::isPresent</text>
</a>
</g>
</g>
<!-- Node7&#45;&gt;Node9 -->
<g id="edge8" class="edge"><title>Node7&#45;&gt;Node9</title>
<path fill="none" stroke="midnightblue" d="M609.569,-296C618.355,-296 627.518,-296 636.614,-296"/>
<polygon fill="midnightblue" stroke="midnightblue" points="636.831,-299.5 646.831,-296 636.831,-292.5 636.831,-299.5"/>
</g>
<!-- Node10 -->
<g id="node10" class="node"><title>Node10</title>
<g id="a_node10"><a xlink:href="classVoxel_1_1ConfigurationFile.xhtml#a440d9dd2f89d0c76c81f7285b31a5b94" target="_top" xlink:title="Voxel::ConfigurationFile::set">
<polygon fill="none" stroke="black" points="646,-166.5 646,-185.5 786,-185.5 786,-166.5 646,-166.5"/>
<text text-anchor="middle" x="716" y="-173.5" font-family="Helvetica,sans-Serif" font-size="10.00">Voxel::ConfigurationFile::set</text>
</a>
</g>
</g>
<!-- Node7&#45;&gt;Node10 -->
<g id="edge10" class="edge"><title>Node7&#45;&gt;Node10</title>
<path fill="none" stroke="midnightblue" d="M570.897,-280.802C602.445,-257.858 661.914,-214.608 693.698,-191.492"/>
<polygon fill="midnightblue" stroke="midnightblue" points="695.854,-194.252 701.882,-185.54 691.736,-188.591 695.854,-194.252"/>
</g>
<!-- Node11 -->
<g id="node11" class="node"><title>Node11</title>
<g id="a_node11"><a xlink:href="classVoxel_1_1ConfigurationFile.xhtml#a3b9b573c1a3d9162fc0100c317ca0879" target="_top" xlink:title="Voxel::ConfigurationFile\l::_set">
<polygon fill="none" stroke="black" points="822.5,-161 822.5,-191 943.5,-191 943.5,-161 822.5,-161"/>
<text text-anchor="start" x="830.5" y="-179" font-family="Helvetica,sans-Serif" font-size="10.00">Voxel::ConfigurationFile</text>
<text text-anchor="middle" x="883" y="-168" font-family="Helvetica,sans-Serif" font-size="10.00">::_set</text>
</a>
</g>
</g>
<!-- Node10&#45;&gt;Node11 -->
<g id="edge11" class="edge"><title>Node10&#45;&gt;Node11</title>
<path fill="none" stroke="midnightblue" d="M786.019,-169.331C794.715,-169.226 803.616,-169.223 812.321,-169.323"/>
<polygon fill="midnightblue" stroke="midnightblue" points="812.372,-172.824 822.428,-169.487 812.486,-165.825 812.372,-172.824"/>
</g>
<!-- Node11&#45;&gt;Node10 -->
<g id="edge16" class="edge"><title>Node11&#45;&gt;Node10</title>
<path fill="none" stroke="midnightblue" d="M822.428,-182.513C813.936,-182.693 805.092,-182.77 796.297,-182.745"/>
<polygon fill="midnightblue" stroke="midnightblue" points="796.045,-179.244 786.019,-182.669 795.993,-186.243 796.045,-179.244"/>
</g>
<!-- Node12 -->
<g id="node12" class="node"><title>Node12</title>
<g id="a_node12"><a xlink:href="classVoxel_1_1ConfigSet.xhtml#a8fb880c24ad7b0f04c84d4a33becb995" target="_top" xlink:title="Voxel::ConfigSet::_set">
<polygon fill="none" stroke="black" points="980,-145.5 980,-164.5 1096,-164.5 1096,-145.5 980,-145.5"/>
<text text-anchor="middle" x="1038" y="-152.5" font-family="Helvetica,sans-Serif" font-size="10.00">Voxel::ConfigSet::_set</text>
</a>
</g>
</g>
<!-- Node11&#45;&gt;Node12 -->
<g id="edge12" class="edge"><title>Node11&#45;&gt;Node12</title>
<path fill="none" stroke="midnightblue" d="M943.592,-167.821C952.156,-166.645 961.017,-165.429 969.717,-164.235"/>
<polygon fill="midnightblue" stroke="midnightblue" points="970.397,-167.675 979.828,-162.847 969.445,-160.74 970.397,-167.675"/>
</g>
<!-- Node12&#45;&gt;Node13 -->
<g id="edge13" class="edge"><title>Node12&#45;&gt;Node13</title>
<path fill="none" stroke="midnightblue" d="M1079.95,-145.424C1093.44,-142.269 1108.44,-138.76 1121.94,-135.603"/>
<polygon fill="midnightblue" stroke="midnightblue" points="1122.98,-138.954 1131.92,-133.269 1121.39,-132.138 1122.98,-138.954"/>
</g>
<!-- Node14 -->
<g id="node14" class="node"><title>Node14</title>
<g id="a_node14"><a xlink:href="group__Util.xhtml#gac9c04e18f7878dd82964bb489b7b1314" target="_top" xlink:title="Left Trim. ">
<polygon fill="none" stroke="black" points="1233,-135.5 1233,-154.5 1299,-154.5 1299,-135.5 1233,-135.5"/>
<text text-anchor="middle" x="1266" y="-142.5" font-family="Helvetica,sans-Serif" font-size="10.00">Voxel::ltrim</text>
</a>
</g>
</g>
<!-- Node13&#45;&gt;Node14 -->
<g id="edge14" class="edge"><title>Node13&#45;&gt;Node14</title>
<path fill="none" stroke="midnightblue" d="M1196.09,-131.908C1204.59,-133.522 1213.94,-135.299 1222.94,-137.009"/>
<polygon fill="midnightblue" stroke="midnightblue" points="1222.41,-140.471 1232.89,-138.899 1223.72,-133.594 1222.41,-140.471"/>
</g>
<!-- Node15 -->
<g id="node15" class="node"><title>Node15</title>
<g id="a_node15"><a xlink:href="group__Util.xhtml#ga3d95f05dde73bc9c54051437445e439b" target="_top" xlink:title="Right Trim. ">
<polygon fill="none" stroke="black" points="1232.5,-97.5 1232.5,-116.5 1299.5,-116.5 1299.5,-97.5 1232.5,-97.5"/>
<text text-anchor="middle" x="1266" y="-104.5" font-family="Helvetica,sans-Serif" font-size="10.00">Voxel::rtrim</text>
</a>
</g>
</g>
<!-- Node13&#45;&gt;Node15 -->
<g id="edge15" class="edge"><title>Node13&#45;&gt;Node15</title>
<path fill="none" stroke="midnightblue" d="M1196.09,-120.092C1204.33,-118.526 1213.38,-116.808 1222.13,-115.146"/>
<polygon fill="midnightblue" stroke="midnightblue" points="1223.02,-118.538 1232.2,-113.233 1221.72,-111.661 1223.02,-118.538"/>
</g>
<!-- Node17&#45;&gt;Node7 -->
<g id="edge22" class="edge"><title>Node17&#45;&gt;Node7</title>
<path fill="none" stroke="midnightblue" d="M424.58,-254.125C445.834,-261.337 471.443,-270.025 493.811,-277.614"/>
<polygon fill="midnightblue" stroke="midnightblue" points="492.909,-281.004 503.504,-280.903 495.158,-274.376 492.909,-281.004"/>
</g>
<!-- Node17&#45;&gt;Node8 -->
<g id="edge20" class="edge"><title>Node17&#45;&gt;Node8</title>
<path fill="none" stroke="midnightblue" d="M439.505,-241.309C496.292,-243.513 581.948,-246.837 642.654,-249.193"/>
<polygon fill="midnightblue" stroke="midnightblue" points="642.8,-252.701 652.928,-249.591 643.072,-245.706 642.8,-252.701"/>
</g>
<!-- Node17&#45;&gt;Node18 -->
<g id="edge21" class="edge"><title>Node17&#45;&gt;Node18</title>
<path fill="none" stroke="midnightblue" d="M439.704,-227.983C452.206,-225.676 465.494,-223.224 478.323,-220.857"/>
<polygon fill="midnightblue" stroke="midnightblue" points="479.29,-224.238 488.489,-218.981 478.02,-217.354 479.29,-224.238"/>
</g>
<!-- Node20 -->
<g id="node20" class="node"><title>Node20</title>
<g id="a_node20"><a xlink:href="classVoxel_1_1ConfigurationFile.xhtml#af5573f5dba76f1fde00220b892f8121c" target="_top" xlink:title="Voxel::ConfigurationFile\l::_get">
<polygon fill="none" stroke="black" points="488.5,-126 488.5,-156 609.5,-156 609.5,-126 488.5,-126"/>
<text text-anchor="start" x="496.5" y="-144" font-family="Helvetica,sans-Serif" font-size="10.00">Voxel::ConfigurationFile</text>
<text text-anchor="middle" x="549" y="-133" font-family="Helvetica,sans-Serif" font-size="10.00">::_get</text>
</a>
</g>
</g>
<!-- Node19&#45;&gt;Node20 -->
<g id="edge25" class="edge"><title>Node19&#45;&gt;Node20</title>
<path fill="none" stroke="midnightblue" d="M449.302,-148.05C458.794,-147.372 468.544,-146.675 478.048,-145.997"/>
<polygon fill="midnightblue" stroke="midnightblue" points="478.514,-149.472 488.239,-145.269 478.015,-142.49 478.514,-149.472"/>
</g>
<!-- Node20&#45;&gt;Node8 -->
<g id="edge28" class="edge"><title>Node20&#45;&gt;Node8</title>
<path fill="none" stroke="midnightblue" d="M572.597,-156.201C601.478,-175.631 651.612,-209.357 684.034,-231.168"/>
<polygon fill="midnightblue" stroke="midnightblue" points="682.425,-234.304 692.676,-236.982 686.333,-228.496 682.425,-234.304"/>
</g>
<!-- Node20&#45;&gt;Node10 -->
<g id="edge29" class="edge"><title>Node20&#45;&gt;Node10</title>
<path fill="none" stroke="midnightblue" d="M609.569,-153.636C626.081,-157.138 643.924,-160.923 660.152,-164.366"/>
<polygon fill="midnightblue" stroke="midnightblue" points="659.513,-167.808 670.022,-166.459 660.966,-160.96 659.513,-167.808"/>
</g>
<!-- Node20&#45;&gt;Node20 -->
<g id="edge27" class="edge"><title>Node20&#45;&gt;Node20</title>
<path fill="none" stroke="midnightblue" d="M519.82,-156.275C513.336,-165.406 523.062,-174 549,-174 564.4,-174 574.086,-170.97 578.056,-166.598"/>
<polygon fill="midnightblue" stroke="midnightblue" points="581.56,-166.317 578.18,-156.275 574.56,-166.233 581.56,-166.317"/>
</g>
<!-- Node21 -->
<g id="node21" class="node"><title>Node21</title>
<g id="a_node21"><a xlink:href="classVoxel_1_1ConfigSet.xhtml#a49e4060aa2bc96690da36bdf5ef7b227" target="_top" xlink:title="Voxel::ConfigSet::_get">
<polygon fill="none" stroke="black" points="658,-128.5 658,-147.5 774,-147.5 774,-128.5 658,-128.5"/>
<text text-anchor="middle" x="716" y="-135.5" font-family="Helvetica,sans-Serif" font-size="10.00">Voxel::ConfigSet::_get</text>
</a>
</g>
</g>
<!-- Node20&#45;&gt;Node21 -->
<g id="edge26" class="edge"><title>Node20&#45;&gt;Node21</title>
<path fill="none" stroke="midnightblue" d="M609.569,-139.917C622.024,-139.69 635.237,-139.45 647.943,-139.219"/>
<polygon fill="midnightblue" stroke="midnightblue" points="648.065,-142.718 658,-139.036 647.938,-135.719 648.065,-142.718"/>
</g>
</g>
</svg>
