<?xml version="1.0" encoding="UTF-8" standalone="no"?>
<!DOCTYPE svg PUBLIC "-//W3C//DTD SVG 1.1//EN"
 "http://www.w3.org/Graphics/SVG/1.1/DTD/svg11.dtd">
<!-- Generated by graphviz version 2.36.0 (20140111.2315)
 -->
<!-- Title: Voxel::USBDownloader::_download Pages: 1 -->
<svg width="270pt" height="87pt"
 viewBox="0.00 0.00 270.00 87.00" xmlns="http://www.w3.org/2000/svg" xmlns:xlink="http://www.w3.org/1999/xlink">
<g id="graph0" class="graph" transform="scale(1 1) rotate(0) translate(4 83)">
<title>Voxel::USBDownloader::_download</title>
<!-- Node1 -->
<g id="node1" class="node"><title>Node1</title>
<polygon fill="#bfbfbf" stroke="black" points="0,-24 0,-54 120,-54 120,-24 0,-24"/>
<text text-anchor="start" x="8" y="-42" font-family="Helvetica,sans-Serif" font-size="10.00">Voxel::USBDownloader</text>
<text text-anchor="middle" x="60" y="-31" font-family="Helvetica,sans-Serif" font-size="10.00">::_download</text>
</g>
<!-- Node2 -->
<g id="node2" class="node"><title>Node2</title>
<g id="a_node2"><a xlink:href="classVoxel_1_1Downloader.xhtml#ae9b2538c8a0b2907157c6b003d12b01c" target="_top" xlink:title="Voxel::Downloader::\l_setProgress">
<polygon fill="none" stroke="black" points="156.5,-49 156.5,-79 261.5,-79 261.5,-49 156.5,-49"/>
<text text-anchor="start" x="164.5" y="-67" font-family="Helvetica,sans-Serif" font-size="10.00">Voxel::Downloader::</text>
<text text-anchor="middle" x="209" y="-56" font-family="Helvetica,sans-Serif" font-size="10.00">_setProgress</text>
</a>
</g>
</g>
<!-- Node1&#45;&gt;Node2 -->
<g id="edge1" class="edge"><title>Node1&#45;&gt;Node2</title>
<path fill="none" stroke="midnightblue" d="M120.367,-49.0964C128.958,-50.5574 137.816,-52.064 146.449,-53.5321"/>
<polygon fill="midnightblue" stroke="midnightblue" points="146.004,-57.0067 156.449,-55.2329 147.178,-50.1057 146.004,-57.0067"/>
</g>
<!-- Node3 -->
<g id="node3" class="node"><title>Node3</title>
<g id="a_node3"><a xlink:href="classVoxel_1_1Downloader.xhtml#a452a2b0c18ec856b16fa5317cf7a5a33" target="_top" xlink:title="Voxel::Downloader::\lgetProgress">
<polygon fill="none" stroke="black" points="156.5,-0 156.5,-30 261.5,-30 261.5,-0 156.5,-0"/>
<text text-anchor="start" x="164.5" y="-18" font-family="Helvetica,sans-Serif" font-size="10.00">Voxel::Downloader::</text>
<text text-anchor="middle" x="209" y="-7" font-family="Helvetica,sans-Serif" font-size="10.00">getProgress</text>
</a>
</g>
</g>
<!-- Node1&#45;&gt;Node3 -->
<g id="edge2" class="edge"><title>Node1&#45;&gt;Node3</title>
<path fill="none" stroke="midnightblue" d="M120.367,-29.3075C128.958,-27.9049 137.816,-26.4586 146.449,-25.0492"/>
<polygon fill="midnightblue" stroke="midnightblue" points="147.144,-28.4821 156.449,-23.4164 146.016,-21.5736 147.144,-28.4821"/>
</g>
</g>
</svg>
