<?xml version="1.0" encoding="UTF-8" standalone="no"?>
<!DOCTYPE svg PUBLIC "-//W3C//DTD SVG 1.1//EN"
 "http://www.w3.org/Graphics/SVG/1.1/DTD/svg11.dtd">
<!-- Generated by graphviz version 2.36.0 (20140111.2315)
 -->
<!-- Title: Voxel::TI::TintinCDKIlluminationPowerParameter::_fromRawValue Pages: 1 -->
<svg width="372pt" height="87pt"
 viewBox="0.00 0.00 372.00 87.00" xmlns="http://www.w3.org/2000/svg" xmlns:xlink="http://www.w3.org/1999/xlink">
<g id="graph0" class="graph" transform="scale(1 1) rotate(0) translate(4 83)">
<title>Voxel::TI::TintinCDKIlluminationPowerParameter::_fromRawValue</title>
<!-- Node1 -->
<g id="node1" class="node"><title>Node1</title>
<polygon fill="#bfbfbf" stroke="black" points="0.5,-24 0.5,-54 165.5,-54 165.5,-24 0.5,-24"/>
<text text-anchor="start" x="8.5" y="-42" font-family="Helvetica,sans-Serif" font-size="10.00">Voxel::TI::TintinCDKIllumination</text>
<text text-anchor="middle" x="83" y="-31" font-family="Helvetica,sans-Serif" font-size="10.00">PowerParameter::_fromRawValue</text>
</g>
<!-- Node2 -->
<g id="node2" class="node"><title>Node2</title>
<g id="a_node2"><a xlink:href="classVoxel_1_1RangeParameterTemplate.xhtml#a5748dd5aee4616996abbecd8b603af2c" target="_top" xlink:title="Voxel::RangeParameterTemplate\l::lowerLimit">
<polygon fill="none" stroke="black" points="202.5,-49 202.5,-79 363.5,-79 363.5,-49 202.5,-49"/>
<text text-anchor="start" x="210.5" y="-67" font-family="Helvetica,sans-Serif" font-size="10.00">Voxel::RangeParameterTemplate</text>
<text text-anchor="middle" x="283" y="-56" font-family="Helvetica,sans-Serif" font-size="10.00">::lowerLimit</text>
</a>
</g>
</g>
<!-- Node1&#45;&gt;Node2 -->
<g id="edge1" class="edge"><title>Node1&#45;&gt;Node2</title>
<path fill="none" stroke="midnightblue" d="M165.677,-49.3128C174.501,-50.4269 183.514,-51.5648 192.424,-52.6898"/>
<polygon fill="midnightblue" stroke="midnightblue" points="192.064,-56.1722 202.424,-53.9525 192.941,-49.2273 192.064,-56.1722"/>
</g>
<!-- Node3 -->
<g id="node3" class="node"><title>Node3</title>
<g id="a_node3"><a xlink:href="classVoxel_1_1RangeParameterTemplate.xhtml#abb8c7dc72be4ed50f400dc4ee440fd2f" target="_top" xlink:title="Voxel::RangeParameterTemplate\l::upperLimit">
<polygon fill="none" stroke="black" points="202.5,-0 202.5,-30 363.5,-30 363.5,-0 202.5,-0"/>
<text text-anchor="start" x="210.5" y="-18" font-family="Helvetica,sans-Serif" font-size="10.00">Voxel::RangeParameterTemplate</text>
<text text-anchor="middle" x="283" y="-7" font-family="Helvetica,sans-Serif" font-size="10.00">::upperLimit</text>
</a>
</g>
</g>
<!-- Node1&#45;&gt;Node3 -->
<g id="edge2" class="edge"><title>Node1&#45;&gt;Node3</title>
<path fill="none" stroke="midnightblue" d="M165.677,-29.0997C174.501,-28.0302 183.514,-26.9378 192.424,-25.8577"/>
<polygon fill="midnightblue" stroke="midnightblue" points="192.918,-29.3235 202.424,-24.6456 192.076,-22.3744 192.918,-29.3235"/>
</g>
</g>
</svg>
