<?xml version="1.0" encoding="UTF-8" standalone="no"?>
<!DOCTYPE svg PUBLIC "-//W3C//DTD SVG 1.1//EN"
 "http://www.w3.org/Graphics/SVG/1.1/DTD/svg11.dtd">
<!-- Generated by graphviz version 2.36.0 (20140111.2315)
 -->
<!-- Title: Voxel::DepthCamera::_init Pages: 1 -->
<svg width="1018pt" height="234pt"
 viewBox="0.00 0.00 1018.00 234.00" xmlns="http://www.w3.org/2000/svg" xmlns:xlink="http://www.w3.org/1999/xlink">
<g id="graph0" class="graph" transform="scale(1 1) rotate(0) translate(4 230)">
<title>Voxel::DepthCamera::_init</title>
<!-- Node1 -->
<g id="node1" class="node"><title>Node1</title>
<polygon fill="#bfbfbf" stroke="black" points="0,-122 0,-152 108,-152 108,-122 0,-122"/>
<text text-anchor="start" x="8" y="-140" font-family="Helvetica,sans-Serif" font-size="10.00">Voxel::DepthCamera</text>
<text text-anchor="middle" x="54" y="-129" font-family="Helvetica,sans-Serif" font-size="10.00">::_init</text>
</g>
<!-- Node2 -->
<g id="node2" class="node"><title>Node2</title>
<g id="a_node2"><a xlink:href="classVoxel_1_1TI_1_1ToFCameraBase.xhtml#a34c90601da611e5cb61bd7a35f03a5f7" target="_top" xlink:title="Voxel::TI::ToFCameraBase\l::_init">
<polygon fill="none" stroke="black" points="144.5,-122 144.5,-152 281.5,-152 281.5,-122 144.5,-122"/>
<text text-anchor="start" x="152.5" y="-140" font-family="Helvetica,sans-Serif" font-size="10.00">Voxel::TI::ToFCameraBase</text>
<text text-anchor="middle" x="213" y="-129" font-family="Helvetica,sans-Serif" font-size="10.00">::_init</text>
</a>
</g>
</g>
<!-- Node1&#45;&gt;Node2 -->
<g id="edge1" class="edge"><title>Node1&#45;&gt;Node2</title>
<path fill="none" stroke="midnightblue" d="M118.157,-137C126.803,-137 135.708,-137 144.428,-137"/>
<polygon fill="midnightblue" stroke="midnightblue" points="118.153,-133.5 108.153,-137 118.153,-140.5 118.153,-133.5"/>
</g>
<!-- Node3 -->
<g id="node3" class="node"><title>Node3</title>
<g id="a_node3"><a xlink:href="classVoxel_1_1TI_1_1ToFCamera.xhtml#a8fd9aae6546d426f494b20633a881442" target="_top" xlink:title="Voxel::TI::ToFCamera\l::_init">
<polygon fill="none" stroke="black" points="318,-122 318,-152 432,-152 432,-122 318,-122"/>
<text text-anchor="start" x="326" y="-140" font-family="Helvetica,sans-Serif" font-size="10.00">Voxel::TI::ToFCamera</text>
<text text-anchor="middle" x="375" y="-129" font-family="Helvetica,sans-Serif" font-size="10.00">::_init</text>
</a>
</g>
</g>
<!-- Node2&#45;&gt;Node3 -->
<g id="edge2" class="edge"><title>Node2&#45;&gt;Node3</title>
<path fill="none" stroke="midnightblue" d="M291.978,-137C300.636,-137 309.325,-137 317.639,-137"/>
<polygon fill="midnightblue" stroke="midnightblue" points="291.854,-133.5 281.854,-137 291.854,-140.5 291.854,-133.5"/>
</g>
<!-- Node4 -->
<g id="node4" class="node"><title>Node4</title>
<g id="a_node4"><a xlink:href="classVoxel_1_1TI_1_1ToFCalculusCamera.xhtml#aa931ad7b5e4b84779df941814c2a5b17" target="_top" xlink:title="Voxel::TI::ToFCalculusCamera\l::_init">
<polygon fill="none" stroke="black" points="469,-183 469,-213 621,-213 621,-183 469,-183"/>
<text text-anchor="start" x="477" y="-201" font-family="Helvetica,sans-Serif" font-size="10.00">Voxel::TI::ToFCalculusCamera</text>
<text text-anchor="middle" x="545" y="-190" font-family="Helvetica,sans-Serif" font-size="10.00">::_init</text>
</a>
</g>
</g>
<!-- Node3&#45;&gt;Node4 -->
<g id="edge3" class="edge"><title>Node3&#45;&gt;Node4</title>
<path fill="none" stroke="midnightblue" d="M427.25,-155.608C451.423,-164.386 479.888,-174.721 502.659,-182.989"/>
<polygon fill="midnightblue" stroke="midnightblue" points="428.122,-152.202 417.528,-152.079 425.733,-158.782 428.122,-152.202"/>
</g>
<!-- Node7 -->
<g id="node7" class="node"><title>Node7</title>
<g id="a_node7"><a xlink:href="classVoxel_1_1TI_1_1ToFHaddockCamera.xhtml#a749a2bbcdbfa69054d523866504743d1" target="_top" xlink:title="Voxel::TI::ToFHaddockCamera\l::_init">
<polygon fill="none" stroke="black" points="468.5,-122 468.5,-152 621.5,-152 621.5,-122 468.5,-122"/>
<text text-anchor="start" x="476.5" y="-140" font-family="Helvetica,sans-Serif" font-size="10.00">Voxel::TI::ToFHaddockCamera</text>
<text text-anchor="middle" x="545" y="-129" font-family="Helvetica,sans-Serif" font-size="10.00">::_init</text>
</a>
</g>
</g>
<!-- Node3&#45;&gt;Node7 -->
<g id="edge6" class="edge"><title>Node3&#45;&gt;Node7</title>
<path fill="none" stroke="midnightblue" d="M442.582,-137C451.043,-137 459.751,-137 468.341,-137"/>
<polygon fill="midnightblue" stroke="midnightblue" points="442.409,-133.5 432.409,-137 442.409,-140.5 442.409,-133.5"/>
</g>
<!-- Node12 -->
<g id="node12" class="node"><title>Node12</title>
<g id="a_node12"><a xlink:href="classVoxel_1_1TI_1_1ToFTintinCamera.xhtml#af894a732f4beedc37144927eec93cc89" target="_top" xlink:title="Voxel::TI::ToFTintinCamera\l::_init">
<polygon fill="none" stroke="black" points="476,-49 476,-79 614,-79 614,-49 476,-49"/>
<text text-anchor="start" x="484" y="-67" font-family="Helvetica,sans-Serif" font-size="10.00">Voxel::TI::ToFTintinCamera</text>
<text text-anchor="middle" x="545" y="-56" font-family="Helvetica,sans-Serif" font-size="10.00">::_init</text>
</a>
</g>
</g>
<!-- Node3&#45;&gt;Node12 -->
<g id="edge11" class="edge"><title>Node3&#45;&gt;Node12</title>
<path fill="none" stroke="midnightblue" d="M420.303,-117.749C448.11,-105.666 483.454,-90.3087 509.235,-79.1063"/>
<polygon fill="midnightblue" stroke="midnightblue" points="418.586,-114.679 410.81,-121.874 421.376,-121.099 418.586,-114.679"/>
</g>
<!-- Node5 -->
<g id="node5" class="node"><title>Node5</title>
<g id="a_node5"><a xlink:href="classVoxel_1_1TI_1_1CalculusCDKCamera.xhtml#a82eb752fb0d4b63495d2e29b6b8aed2c" target="_top" xlink:title="Voxel::TI::CalculusCDKCamera\l::_init">
<polygon fill="none" stroke="black" points="658.5,-196 658.5,-226 815.5,-226 815.5,-196 658.5,-196"/>
<text text-anchor="start" x="666.5" y="-214" font-family="Helvetica,sans-Serif" font-size="10.00">Voxel::TI::CalculusCDKCamera</text>
<text text-anchor="middle" x="737" y="-203" font-family="Helvetica,sans-Serif" font-size="10.00">::_init</text>
</a>
</g>
</g>
<!-- Node4&#45;&gt;Node5 -->
<g id="edge4" class="edge"><title>Node4&#45;&gt;Node5</title>
<path fill="none" stroke="midnightblue" d="M631.219,-203.831C640.249,-204.449 649.398,-205.075 658.334,-205.686"/>
<polygon fill="midnightblue" stroke="midnightblue" points="631.309,-200.329 621.093,-203.138 630.831,-207.312 631.309,-200.329"/>
</g>
<!-- Node6 -->
<g id="node6" class="node"><title>Node6</title>
<g id="a_node6"><a xlink:href="classVoxel_1_1TI_1_1CalculusCDKCamera.xhtml#af406b1427962d80da9af9fb24e89b239" target="_top" xlink:title="Voxel::TI::CalculusCDKCamera\l::CalculusCDKCamera">
<polygon fill="none" stroke="black" points="852.5,-196 852.5,-226 1009.5,-226 1009.5,-196 852.5,-196"/>
<text text-anchor="start" x="860.5" y="-214" font-family="Helvetica,sans-Serif" font-size="10.00">Voxel::TI::CalculusCDKCamera</text>
<text text-anchor="middle" x="931" y="-203" font-family="Helvetica,sans-Serif" font-size="10.00">::CalculusCDKCamera</text>
</a>
</g>
</g>
<!-- Node5&#45;&gt;Node6 -->
<g id="edge5" class="edge"><title>Node5&#45;&gt;Node6</title>
<path fill="none" stroke="midnightblue" d="M825.605,-211C834.571,-211 843.635,-211 852.482,-211"/>
<polygon fill="midnightblue" stroke="midnightblue" points="825.54,-207.5 815.54,-211 825.54,-214.5 825.54,-207.5"/>
</g>
<!-- Node8 -->
<g id="node8" class="node"><title>Node8</title>
<g id="a_node8"><a xlink:href="classVoxel_1_1TI_1_1HaddockCDKCamera.xhtml#a7dff103da3145dd303a5bc0db75ae961" target="_top" xlink:title="Voxel::TI::HaddockCDKCamera\l::_init">
<polygon fill="none" stroke="black" points="658,-147 658,-177 816,-177 816,-147 658,-147"/>
<text text-anchor="start" x="666" y="-165" font-family="Helvetica,sans-Serif" font-size="10.00">Voxel::TI::HaddockCDKCamera</text>
<text text-anchor="middle" x="737" y="-154" font-family="Helvetica,sans-Serif" font-size="10.00">::_init</text>
</a>
</g>
</g>
<!-- Node7&#45;&gt;Node8 -->
<g id="edge7" class="edge"><title>Node7&#45;&gt;Node8</title>
<path fill="none" stroke="midnightblue" d="M631.763,-148.285C640.443,-149.427 649.227,-150.583 657.821,-151.713"/>
<polygon fill="midnightblue" stroke="midnightblue" points="632.01,-144.787 621.639,-146.952 631.097,-151.727 632.01,-144.787"/>
</g>
<!-- Node10 -->
<g id="node10" class="node"><title>Node10</title>
<g id="a_node10"><a xlink:href="classVoxel_1_1TI_1_1Voxel14Camera.xhtml#a89011bfb795ff58d3fb8675364b91abe" target="_top" xlink:title="Voxel::TI::Voxel14Camera\l::_init">
<polygon fill="none" stroke="black" points="671,-98 671,-128 803,-128 803,-98 671,-98"/>
<text text-anchor="start" x="679" y="-116" font-family="Helvetica,sans-Serif" font-size="10.00">Voxel::TI::Voxel14Camera</text>
<text text-anchor="middle" x="737" y="-105" font-family="Helvetica,sans-Serif" font-size="10.00">::_init</text>
</a>
</g>
</g>
<!-- Node7&#45;&gt;Node10 -->
<g id="edge9" class="edge"><title>Node7&#45;&gt;Node10</title>
<path fill="none" stroke="midnightblue" d="M631.62,-126.185C644.757,-124.525 658.135,-122.836 670.736,-121.244"/>
<polygon fill="midnightblue" stroke="midnightblue" points="631.121,-122.72 621.639,-127.446 631.999,-129.665 631.121,-122.72"/>
</g>
<!-- Node9 -->
<g id="node9" class="node"><title>Node9</title>
<g id="a_node9"><a xlink:href="classVoxel_1_1TI_1_1HaddockCDKCamera.xhtml#ac2c5e82486c4cc3f5edada38cd4274c5" target="_top" xlink:title="Voxel::TI::HaddockCDKCamera\l::HaddockCDKCamera">
<polygon fill="none" stroke="black" points="852,-147 852,-177 1010,-177 1010,-147 852,-147"/>
<text text-anchor="start" x="860" y="-165" font-family="Helvetica,sans-Serif" font-size="10.00">Voxel::TI::HaddockCDKCamera</text>
<text text-anchor="middle" x="931" y="-154" font-family="Helvetica,sans-Serif" font-size="10.00">::HaddockCDKCamera</text>
</a>
</g>
</g>
<!-- Node8&#45;&gt;Node9 -->
<g id="edge8" class="edge"><title>Node8&#45;&gt;Node9</title>
<path fill="none" stroke="midnightblue" d="M826.153,-162C834.769,-162 843.47,-162 851.975,-162"/>
<polygon fill="midnightblue" stroke="midnightblue" points="826.094,-158.5 816.094,-162 826.094,-165.5 826.094,-158.5"/>
</g>
<!-- Node11 -->
<g id="node11" class="node"><title>Node11</title>
<g id="a_node11"><a xlink:href="classVoxel_1_1TI_1_1Voxel14Camera.xhtml#a606f13ed73547ee43f585e241b42dd5d" target="_top" xlink:title="Voxel::TI::Voxel14Camera\l::Voxel14Camera">
<polygon fill="none" stroke="black" points="865,-98 865,-128 997,-128 997,-98 865,-98"/>
<text text-anchor="start" x="873" y="-116" font-family="Helvetica,sans-Serif" font-size="10.00">Voxel::TI::Voxel14Camera</text>
<text text-anchor="middle" x="931" y="-105" font-family="Helvetica,sans-Serif" font-size="10.00">::Voxel14Camera</text>
</a>
</g>
</g>
<!-- Node10&#45;&gt;Node11 -->
<g id="edge10" class="edge"><title>Node10&#45;&gt;Node11</title>
<path fill="none" stroke="midnightblue" d="M813.424,-113C830.381,-113 848.237,-113 864.738,-113"/>
<polygon fill="midnightblue" stroke="midnightblue" points="813.002,-109.5 803.002,-113 813.002,-116.5 813.002,-109.5"/>
</g>
<!-- Node13 -->
<g id="node13" class="node"><title>Node13</title>
<g id="a_node13"><a xlink:href="classVoxel_1_1TI_1_1TintinCDKCamera.xhtml#af5337f40c1a075c026263ea9871a20ee" target="_top" xlink:title="Voxel::TI::TintinCDKCamera\l::_init">
<polygon fill="none" stroke="black" points="665.5,-49 665.5,-79 808.5,-79 808.5,-49 665.5,-49"/>
<text text-anchor="start" x="673.5" y="-67" font-family="Helvetica,sans-Serif" font-size="10.00">Voxel::TI::TintinCDKCamera</text>
<text text-anchor="middle" x="737" y="-56" font-family="Helvetica,sans-Serif" font-size="10.00">::_init</text>
</a>
</g>
</g>
<!-- Node12&#45;&gt;Node13 -->
<g id="edge12" class="edge"><title>Node12&#45;&gt;Node13</title>
<path fill="none" stroke="midnightblue" d="M624.309,-64C637.859,-64 651.877,-64 665.213,-64"/>
<polygon fill="midnightblue" stroke="midnightblue" points="624.058,-60.5001 614.058,-64 624.058,-67.5001 624.058,-60.5001"/>
</g>
<!-- Node15 -->
<g id="node15" class="node"><title>Node15</title>
<g id="a_node15"><a xlink:href="classVoxel_1_1TI_1_1VoxelDCamera.xhtml#a47b15c40c3fbcc52ae1eb3c9fe74d9f1" target="_top" xlink:title="Voxel::TI::VoxelDCamera\l::_init">
<polygon fill="none" stroke="black" points="672.5,-0 672.5,-30 801.5,-30 801.5,-0 672.5,-0"/>
<text text-anchor="start" x="680.5" y="-18" font-family="Helvetica,sans-Serif" font-size="10.00">Voxel::TI::VoxelDCamera</text>
<text text-anchor="middle" x="737" y="-7" font-family="Helvetica,sans-Serif" font-size="10.00">::_init</text>
</a>
</g>
</g>
<!-- Node12&#45;&gt;Node15 -->
<g id="edge14" class="edge"><title>Node12&#45;&gt;Node15</title>
<path fill="none" stroke="midnightblue" d="M614.05,-46.4502C634.915,-41.0694 657.67,-35.201 677.813,-30.0062"/>
<polygon fill="midnightblue" stroke="midnightblue" points="613.107,-43.079 604.297,-48.9654 614.855,-49.8572 613.107,-43.079"/>
</g>
<!-- Node14 -->
<g id="node14" class="node"><title>Node14</title>
<g id="a_node14"><a xlink:href="classVoxel_1_1TI_1_1TintinCDKCamera.xhtml#a7a9918bb8b6d76bc3511536019847c1d" target="_top" xlink:title="Voxel::TI::TintinCDKCamera\l::TintinCDKCamera">
<polygon fill="none" stroke="black" points="859.5,-49 859.5,-79 1002.5,-79 1002.5,-49 859.5,-49"/>
<text text-anchor="start" x="867.5" y="-67" font-family="Helvetica,sans-Serif" font-size="10.00">Voxel::TI::TintinCDKCamera</text>
<text text-anchor="middle" x="931" y="-56" font-family="Helvetica,sans-Serif" font-size="10.00">::TintinCDKCamera</text>
</a>
</g>
</g>
<!-- Node13&#45;&gt;Node14 -->
<g id="edge13" class="edge"><title>Node13&#45;&gt;Node14</title>
<path fill="none" stroke="midnightblue" d="M818.891,-64C832.378,-64 846.272,-64 859.474,-64"/>
<polygon fill="midnightblue" stroke="midnightblue" points="818.676,-60.5001 808.676,-64 818.676,-67.5001 818.676,-60.5001"/>
</g>
<!-- Node16 -->
<g id="node16" class="node"><title>Node16</title>
<g id="a_node16"><a xlink:href="classVoxel_1_1TI_1_1VoxelDCamera.xhtml#a4a95cf8257e2f9f5fd34386b87f6663a" target="_top" xlink:title="Voxel::TI::VoxelDCamera\l::VoxelDCamera">
<polygon fill="none" stroke="black" points="866.5,-0 866.5,-30 995.5,-30 995.5,-0 866.5,-0"/>
<text text-anchor="start" x="874.5" y="-18" font-family="Helvetica,sans-Serif" font-size="10.00">Voxel::TI::VoxelDCamera</text>
<text text-anchor="middle" x="931" y="-7" font-family="Helvetica,sans-Serif" font-size="10.00">::VoxelDCamera</text>
</a>
</g>
</g>
<!-- Node15&#45;&gt;Node16 -->
<g id="edge15" class="edge"><title>Node15&#45;&gt;Node16</title>
<path fill="none" stroke="midnightblue" d="M811.788,-15C829.722,-15 848.75,-15 866.178,-15"/>
<polygon fill="midnightblue" stroke="midnightblue" points="811.667,-11.5001 801.667,-15 811.666,-18.5001 811.667,-11.5001"/>
</g>
</g>
</svg>
