<?xml version="1.0" encoding="UTF-8" standalone="no"?>
<!DOCTYPE svg PUBLIC "-//W3C//DTD SVG 1.1//EN"
 "http://www.w3.org/Graphics/SVG/1.1/DTD/svg11.dtd">
<!-- Generated by graphviz version 2.36.0 (20140111.2315)
 -->
<!-- Title: Voxel::MainConfigurationFile::_saveHardwareImage Pages: 1 -->
<!--zoomable 284 -->
<svg id="main" version="1.1" xmlns="http://www.w3.org/2000/svg" xmlns:xlink="http://www.w3.org/1999/xlink" xml:space="preserve" onload="init(evt)">
<style type="text/css"><![CDATA[
.edge:hover path { stroke: red; }
.edge:hover polygon { stroke: red; fill: red; }
]]></style>
<script type="text/javascript"><![CDATA[
var edges = document.getElementsByTagName('g');
if (edges && edges.length) {
  for (var i=0;i<edges.length;i++) {
    if (edges[i].id.substr(0,4)=='edge') {
      edges[i].setAttribute('class','edge');
    }
  }
}
]]></script>
        <defs>
                <circle id="rim" cx="0" cy="0" r="7"/>
                <circle id="rim2" cx="0" cy="0" r="3.5"/>
                <g id="zoomPlus">
                        <use xlink:href="#rim" fill="#404040">
                                <set attributeName="fill" to="#808080" begin="zoomplus.mouseover" end="zoomplus.mouseout"/>
                        </use>
                        <path d="M-4,0h8M0,-4v8" fill="none" stroke="white" stroke-width="1.5" pointer-events="none"/>
                </g>
                <g id="zoomMin">
                        <use xlink:href="#rim" fill="#404040">
                                <set attributeName="fill" to="#808080" begin="zoomminus.mouseover" end="zoomminus.mouseout"/>
                        </use>
                        <path d="M-4,0h8" fill="none" stroke="white" stroke-width="1.5" pointer-events="none"/>
                </g>
                <g id="dirArrow">
                        <path fill="none" stroke="white" stroke-width="1.5" d="M0,-3.0v7 M-2.5,-0.5L0,-3.0L2.5,-0.5"/>
                </g>
               <g id="resetDef">
                       <use xlink:href="#rim2" fill="#404040">
                               <set attributeName="fill" to="#808080" begin="reset.mouseover" end="reset.mouseout"/>
                       </use>
               </g>
        </defs>

<script type="text/javascript">
var viewWidth = 1422;
var viewHeight = 284;
var sectionId = 'dynsection-4';
</script>
<script xlink:href="svgpan.js"/>
<svg id="graph" class="graph">
<g id="viewport">
<title>Voxel::MainConfigurationFile::_saveHardwareImage</title>
<!-- Node1 -->
<g id="node1" class="node"><title>Node1</title>
<polygon fill="#bfbfbf" stroke="black" points="0,-103 0,-133 134,-133 134,-103 0,-103"/>
<text text-anchor="start" x="8" y="-121" font-family="Helvetica,sans-Serif" font-size="10.00">Voxel::MainConfiguration</text>
<text text-anchor="middle" x="67" y="-110" font-family="Helvetica,sans-Serif" font-size="10.00">File::_saveHardwareImage</text>
</g>
<!-- Node2 -->
<g id="node2" class="node"><title>Node2</title>
<g id="a_node2"><a xlink:href="classVoxel_1_1MainConfigurationFile.xhtml#ab801a8f7e2eabaf3f524877c5c257fa2" target="_top" xlink:title="Voxel::MainConfiguration\lFile::readFromHardware">
<polygon fill="none" stroke="black" points="170,-137 170,-167 296,-167 296,-137 170,-137"/>
<text text-anchor="start" x="178" y="-155" font-family="Helvetica,sans-Serif" font-size="10.00">Voxel::MainConfiguration</text>
<text text-anchor="middle" x="233" y="-144" font-family="Helvetica,sans-Serif" font-size="10.00">File::readFromHardware</text>
</a>
</g>
</g>
<!-- Node1&#45;&gt;Node2 -->
<g id="edge1" class="edge"><title>Node1&#45;&gt;Node2</title>
<path fill="none" stroke="midnightblue" d="M144.217,-133.801C152.775,-135.575 161.417,-137.367 169.768,-139.098"/>
<polygon fill="midnightblue" stroke="midnightblue" points="144.735,-130.334 134.232,-131.731 143.314,-137.188 144.735,-130.334"/>
</g>
<!-- Node21 -->
<g id="node21" class="node"><title>Node21</title>
<g id="a_node21"><a xlink:href="classVoxel_1_1MainConfigurationFile.xhtml#a65f9abd83851d372ef62958de4774415" target="_top" xlink:title="Voxel::MainConfiguration\lFile::writeToHardware">
<polygon fill="none" stroke="black" points="170,-69 170,-99 296,-99 296,-69 170,-69"/>
<text text-anchor="start" x="178" y="-87" font-family="Helvetica,sans-Serif" font-size="10.00">Voxel::MainConfiguration</text>
<text text-anchor="middle" x="233" y="-76" font-family="Helvetica,sans-Serif" font-size="10.00">File::writeToHardware</text>
</a>
</g>
</g>
<!-- Node1&#45;&gt;Node21 -->
<g id="edge20" class="edge"><title>Node1&#45;&gt;Node21</title>
<path fill="none" stroke="midnightblue" d="M144.217,-102.199C152.775,-100.425 161.417,-98.633 169.768,-96.9017"/>
<polygon fill="midnightblue" stroke="midnightblue" points="143.314,-98.8117 134.232,-104.269 144.735,-105.666 143.314,-98.8117"/>
</g>
<!-- Node3 -->
<g id="node3" class="node"><title>Node3</title>
<g id="a_node3"><a xlink:href="classVoxel_1_1DepthCamera.xhtml#aeca7a6cb1df8643f0b38745286ac2844" target="_top" xlink:title="Voxel::DepthCamera\l::_init">
<polygon fill="none" stroke="black" points="366,-147 366,-177 474,-177 474,-147 366,-147"/>
<text text-anchor="start" x="374" y="-165" font-family="Helvetica,sans-Serif" font-size="10.00">Voxel::DepthCamera</text>
<text text-anchor="middle" x="420" y="-154" font-family="Helvetica,sans-Serif" font-size="10.00">::_init</text>
</a>
</g>
</g>
<!-- Node2&#45;&gt;Node3 -->
<g id="edge2" class="edge"><title>Node2&#45;&gt;Node3</title>
<path fill="none" stroke="midnightblue" d="M306.326,-155.91C326.113,-156.979 347.195,-158.119 365.707,-159.119"/>
<polygon fill="midnightblue" stroke="midnightblue" points="306.291,-152.403 296.117,-155.358 305.913,-159.392 306.291,-152.403"/>
</g>
<!-- Node4 -->
<g id="node4" class="node"><title>Node4</title>
<g id="a_node4"><a xlink:href="classVoxel_1_1TI_1_1ToFCameraBase.xhtml#a34c90601da611e5cb61bd7a35f03a5f7" target="_top" xlink:title="Voxel::TI::ToFCameraBase\l::_init">
<polygon fill="none" stroke="black" points="544.5,-147 544.5,-177 681.5,-177 681.5,-147 544.5,-147"/>
<text text-anchor="start" x="552.5" y="-165" font-family="Helvetica,sans-Serif" font-size="10.00">Voxel::TI::ToFCameraBase</text>
<text text-anchor="middle" x="613" y="-154" font-family="Helvetica,sans-Serif" font-size="10.00">::_init</text>
</a>
</g>
</g>
<!-- Node3&#45;&gt;Node4 -->
<g id="edge3" class="edge"><title>Node3&#45;&gt;Node4</title>
<path fill="none" stroke="midnightblue" d="M484.376,-162C503.637,-162 524.87,-162 544.398,-162"/>
<polygon fill="midnightblue" stroke="midnightblue" points="484.204,-158.5 474.204,-162 484.204,-165.5 484.204,-158.5"/>
</g>
<!-- Node5 -->
<g id="node5" class="node"><title>Node5</title>
<g id="a_node5"><a xlink:href="classVoxel_1_1TI_1_1ToFCamera.xhtml#a8fd9aae6546d426f494b20633a881442" target="_top" xlink:title="Voxel::TI::ToFCamera\l::_init">
<polygon fill="none" stroke="black" points="720,-147 720,-177 834,-177 834,-147 720,-147"/>
<text text-anchor="start" x="728" y="-165" font-family="Helvetica,sans-Serif" font-size="10.00">Voxel::TI::ToFCamera</text>
<text text-anchor="middle" x="777" y="-154" font-family="Helvetica,sans-Serif" font-size="10.00">::_init</text>
</a>
</g>
</g>
<!-- Node4&#45;&gt;Node5 -->
<g id="edge4" class="edge"><title>Node4&#45;&gt;Node5</title>
<path fill="none" stroke="midnightblue" d="M691.921,-162C701.324,-162 710.782,-162 719.788,-162"/>
<polygon fill="midnightblue" stroke="midnightblue" points="691.764,-158.5 681.764,-162 691.764,-165.5 691.764,-158.5"/>
</g>
<!-- Node6 -->
<g id="node6" class="node"><title>Node6</title>
<g id="a_node6"><a xlink:href="classVoxel_1_1TI_1_1ToFCalculusCamera.xhtml#aa931ad7b5e4b84779df941814c2a5b17" target="_top" xlink:title="Voxel::TI::ToFCalculusCamera\l::_init">
<polygon fill="none" stroke="black" points="873,-220 873,-250 1025,-250 1025,-220 873,-220"/>
<text text-anchor="start" x="881" y="-238" font-family="Helvetica,sans-Serif" font-size="10.00">Voxel::TI::ToFCalculusCamera</text>
<text text-anchor="middle" x="949" y="-227" font-family="Helvetica,sans-Serif" font-size="10.00">::_init</text>
</a>
</g>
</g>
<!-- Node5&#45;&gt;Node6 -->
<g id="edge5" class="edge"><title>Node5&#45;&gt;Node6</title>
<path fill="none" stroke="midnightblue" d="M822.462,-181.093C850.656,-193.199 886.619,-208.642 912.821,-219.894"/>
<polygon fill="midnightblue" stroke="midnightblue" points="823.794,-177.855 813.224,-177.126 821.032,-184.287 823.794,-177.855"/>
</g>
<!-- Node9 -->
<g id="node9" class="node"><title>Node9</title>
<g id="a_node9"><a xlink:href="classVoxel_1_1TI_1_1ToFHaddockCamera.xhtml#a749a2bbcdbfa69054d523866504743d1" target="_top" xlink:title="Voxel::TI::ToFHaddockCamera\l::_init">
<polygon fill="none" stroke="black" points="872.5,-147 872.5,-177 1025.5,-177 1025.5,-147 872.5,-147"/>
<text text-anchor="start" x="880.5" y="-165" font-family="Helvetica,sans-Serif" font-size="10.00">Voxel::TI::ToFHaddockCamera</text>
<text text-anchor="middle" x="949" y="-154" font-family="Helvetica,sans-Serif" font-size="10.00">::_init</text>
</a>
</g>
</g>
<!-- Node5&#45;&gt;Node9 -->
<g id="edge8" class="edge"><title>Node5&#45;&gt;Node9</title>
<path fill="none" stroke="midnightblue" d="M844.309,-162C853.456,-162 862.906,-162 872.208,-162"/>
<polygon fill="midnightblue" stroke="midnightblue" points="844.136,-158.5 834.135,-162 844.135,-165.5 844.136,-158.5"/>
</g>
<!-- Node16 -->
<g id="node16" class="node"><title>Node16</title>
<g id="a_node16"><a xlink:href="classVoxel_1_1TI_1_1ToFTintinCamera.xhtml#af894a732f4beedc37144927eec93cc89" target="_top" xlink:title="Voxel::TI::ToFTintinCamera\l::_init">
<polygon fill="none" stroke="black" points="880,-49 880,-79 1018,-79 1018,-49 880,-49"/>
<text text-anchor="start" x="888" y="-67" font-family="Helvetica,sans-Serif" font-size="10.00">Voxel::TI::ToFTintinCamera</text>
<text text-anchor="middle" x="949" y="-56" font-family="Helvetica,sans-Serif" font-size="10.00">::_init</text>
</a>
</g>
</g>
<!-- Node5&#45;&gt;Node16 -->
<g id="edge15" class="edge"><title>Node5&#45;&gt;Node16</title>
<path fill="none" stroke="midnightblue" d="M812.88,-141.893C845.203,-123.26 892.567,-95.9554 921.78,-79.1149"/>
<polygon fill="midnightblue" stroke="midnightblue" points="811.105,-138.876 804.19,-146.902 814.602,-144.94 811.105,-138.876"/>
</g>
<!-- Node7 -->
<g id="node7" class="node"><title>Node7</title>
<g id="a_node7"><a xlink:href="classVoxel_1_1TI_1_1CalculusCDKCamera.xhtml#a82eb752fb0d4b63495d2e29b6b8aed2c" target="_top" xlink:title="Voxel::TI::CalculusCDKCamera\l::_init">
<polygon fill="none" stroke="black" points="1062.5,-245 1062.5,-275 1219.5,-275 1219.5,-245 1062.5,-245"/>
<text text-anchor="start" x="1070.5" y="-263" font-family="Helvetica,sans-Serif" font-size="10.00">Voxel::TI::CalculusCDKCamera</text>
<text text-anchor="middle" x="1141" y="-252" font-family="Helvetica,sans-Serif" font-size="10.00">::_init</text>
</a>
</g>
</g>
<!-- Node6&#45;&gt;Node7 -->
<g id="edge6" class="edge"><title>Node6&#45;&gt;Node7</title>
<path fill="none" stroke="midnightblue" d="M1035.22,-246.213C1044.25,-247.401 1053.4,-248.605 1062.33,-249.781"/>
<polygon fill="midnightblue" stroke="midnightblue" points="1035.46,-242.715 1025.09,-244.881 1034.55,-249.655 1035.46,-242.715"/>
</g>
<!-- Node8 -->
<g id="node8" class="node"><title>Node8</title>
<g id="a_node8"><a xlink:href="classVoxel_1_1TI_1_1CalculusCDKCamera.xhtml#af406b1427962d80da9af9fb24e89b239" target="_top" xlink:title="Voxel::TI::CalculusCDKCamera\l::CalculusCDKCamera">
<polygon fill="none" stroke="black" points="1256.5,-245 1256.5,-275 1413.5,-275 1413.5,-245 1256.5,-245"/>
<text text-anchor="start" x="1264.5" y="-263" font-family="Helvetica,sans-Serif" font-size="10.00">Voxel::TI::CalculusCDKCamera</text>
<text text-anchor="middle" x="1335" y="-252" font-family="Helvetica,sans-Serif" font-size="10.00">::CalculusCDKCamera</text>
</a>
</g>
</g>
<!-- Node7&#45;&gt;Node8 -->
<g id="edge7" class="edge"><title>Node7&#45;&gt;Node8</title>
<path fill="none" stroke="midnightblue" d="M1229.6,-260C1238.57,-260 1247.64,-260 1256.48,-260"/>
<polygon fill="midnightblue" stroke="midnightblue" points="1229.54,-256.5 1219.54,-260 1229.54,-263.5 1229.54,-256.5"/>
</g>
<!-- Node10 -->
<g id="node10" class="node"><title>Node10</title>
<g id="a_node10"><a xlink:href="classVoxel_1_1TI_1_1HaddockCDKCamera.xhtml#a7dff103da3145dd303a5bc0db75ae961" target="_top" xlink:title="Voxel::TI::HaddockCDKCamera\l::_init">
<polygon fill="none" stroke="black" points="1062,-196 1062,-226 1220,-226 1220,-196 1062,-196"/>
<text text-anchor="start" x="1070" y="-214" font-family="Helvetica,sans-Serif" font-size="10.00">Voxel::TI::HaddockCDKCamera</text>
<text text-anchor="middle" x="1141" y="-203" font-family="Helvetica,sans-Serif" font-size="10.00">::_init</text>
</a>
</g>
</g>
<!-- Node9&#45;&gt;Node10 -->
<g id="edge9" class="edge"><title>Node9&#45;&gt;Node10</title>
<path fill="none" stroke="midnightblue" d="M1018.05,-179.55C1038.91,-184.931 1061.67,-190.799 1081.81,-195.994"/>
<polygon fill="midnightblue" stroke="midnightblue" points="1018.85,-176.143 1008.3,-177.035 1017.11,-182.921 1018.85,-176.143"/>
</g>
<!-- Node12 -->
<g id="node12" class="node"><title>Node12</title>
<g id="a_node12"><a xlink:href="classVoxel_1_1TI_1_1RTS5825Camera.xhtml#af7d33e164feac1c63726d2757227c3bc" target="_top" xlink:title="Voxel::TI::RTS5825Camera\l::_init">
<polygon fill="none" stroke="black" points="1072,-147 1072,-177 1210,-177 1210,-147 1072,-147"/>
<text text-anchor="start" x="1080" y="-165" font-family="Helvetica,sans-Serif" font-size="10.00">Voxel::TI::RTS5825Camera</text>
<text text-anchor="middle" x="1141" y="-154" font-family="Helvetica,sans-Serif" font-size="10.00">::_init</text>
</a>
</g>
</g>
<!-- Node9&#45;&gt;Node12 -->
<g id="edge11" class="edge"><title>Node9&#45;&gt;Node12</title>
<path fill="none" stroke="midnightblue" d="M1035.7,-162C1047.76,-162 1060.02,-162 1071.7,-162"/>
<polygon fill="midnightblue" stroke="midnightblue" points="1035.64,-158.5 1025.64,-162 1035.64,-165.5 1035.64,-158.5"/>
</g>
<!-- Node14 -->
<g id="node14" class="node"><title>Node14</title>
<g id="a_node14"><a xlink:href="classVoxel_1_1TI_1_1Voxel14Camera.xhtml#a89011bfb795ff58d3fb8675364b91abe" target="_top" xlink:title="Voxel::TI::Voxel14Camera\l::_init">
<polygon fill="none" stroke="black" points="1075,-98 1075,-128 1207,-128 1207,-98 1075,-98"/>
<text text-anchor="start" x="1083" y="-116" font-family="Helvetica,sans-Serif" font-size="10.00">Voxel::TI::Voxel14Camera</text>
<text text-anchor="middle" x="1141" y="-105" font-family="Helvetica,sans-Serif" font-size="10.00">::_init</text>
</a>
</g>
</g>
<!-- Node9&#45;&gt;Node14 -->
<g id="edge13" class="edge"><title>Node9&#45;&gt;Node14</title>
<path fill="none" stroke="midnightblue" d="M1018.05,-144.45C1038.91,-139.069 1061.67,-133.201 1081.81,-128.006"/>
<polygon fill="midnightblue" stroke="midnightblue" points="1017.11,-141.079 1008.3,-146.965 1018.85,-147.857 1017.11,-141.079"/>
</g>
<!-- Node11 -->
<g id="node11" class="node"><title>Node11</title>
<g id="a_node11"><a xlink:href="classVoxel_1_1TI_1_1HaddockCDKCamera.xhtml#ac2c5e82486c4cc3f5edada38cd4274c5" target="_top" xlink:title="Voxel::TI::HaddockCDKCamera\l::HaddockCDKCamera">
<polygon fill="none" stroke="black" points="1256,-196 1256,-226 1414,-226 1414,-196 1256,-196"/>
<text text-anchor="start" x="1264" y="-214" font-family="Helvetica,sans-Serif" font-size="10.00">Voxel::TI::HaddockCDKCamera</text>
<text text-anchor="middle" x="1335" y="-203" font-family="Helvetica,sans-Serif" font-size="10.00">::HaddockCDKCamera</text>
</a>
</g>
</g>
<!-- Node10&#45;&gt;Node11 -->
<g id="edge10" class="edge"><title>Node10&#45;&gt;Node11</title>
<path fill="none" stroke="midnightblue" d="M1230.15,-211C1238.77,-211 1247.47,-211 1255.98,-211"/>
<polygon fill="midnightblue" stroke="midnightblue" points="1230.09,-207.5 1220.09,-211 1230.09,-214.5 1230.09,-207.5"/>
</g>
<!-- Node13 -->
<g id="node13" class="node"><title>Node13</title>
<g id="a_node13"><a xlink:href="classVoxel_1_1TI_1_1RTS5825Camera.xhtml#a7a242f28e79a95d9a918946beb0b0461" target="_top" xlink:title="Voxel::TI::RTS5825Camera\l::RTS5825Camera">
<polygon fill="none" stroke="black" points="1266,-147 1266,-177 1404,-177 1404,-147 1266,-147"/>
<text text-anchor="start" x="1274" y="-165" font-family="Helvetica,sans-Serif" font-size="10.00">Voxel::TI::RTS5825Camera</text>
<text text-anchor="middle" x="1335" y="-154" font-family="Helvetica,sans-Serif" font-size="10.00">::RTS5825Camera</text>
</a>
</g>
</g>
<!-- Node12&#45;&gt;Node13 -->
<g id="edge12" class="edge"><title>Node12&#45;&gt;Node13</title>
<path fill="none" stroke="midnightblue" d="M1220.55,-162C1235.62,-162 1251.28,-162 1265.99,-162"/>
<polygon fill="midnightblue" stroke="midnightblue" points="1220.23,-158.5 1210.23,-162 1220.23,-165.5 1220.23,-158.5"/>
</g>
<!-- Node15 -->
<g id="node15" class="node"><title>Node15</title>
<g id="a_node15"><a xlink:href="classVoxel_1_1TI_1_1Voxel14Camera.xhtml#a606f13ed73547ee43f585e241b42dd5d" target="_top" xlink:title="Voxel::TI::Voxel14Camera\l::Voxel14Camera">
<polygon fill="none" stroke="black" points="1269,-98 1269,-128 1401,-128 1401,-98 1269,-98"/>
<text text-anchor="start" x="1277" y="-116" font-family="Helvetica,sans-Serif" font-size="10.00">Voxel::TI::Voxel14Camera</text>
<text text-anchor="middle" x="1335" y="-105" font-family="Helvetica,sans-Serif" font-size="10.00">::Voxel14Camera</text>
</a>
</g>
</g>
<!-- Node14&#45;&gt;Node15 -->
<g id="edge14" class="edge"><title>Node14&#45;&gt;Node15</title>
<path fill="none" stroke="midnightblue" d="M1217.42,-113C1234.38,-113 1252.24,-113 1268.74,-113"/>
<polygon fill="midnightblue" stroke="midnightblue" points="1217,-109.5 1207,-113 1217,-116.5 1217,-109.5"/>
</g>
<!-- Node17 -->
<g id="node17" class="node"><title>Node17</title>
<g id="a_node17"><a xlink:href="classVoxel_1_1TI_1_1TintinCDKCamera.xhtml#af5337f40c1a075c026263ea9871a20ee" target="_top" xlink:title="Voxel::TI::TintinCDKCamera\l::_init">
<polygon fill="none" stroke="black" points="1069.5,-49 1069.5,-79 1212.5,-79 1212.5,-49 1069.5,-49"/>
<text text-anchor="start" x="1077.5" y="-67" font-family="Helvetica,sans-Serif" font-size="10.00">Voxel::TI::TintinCDKCamera</text>
<text text-anchor="middle" x="1141" y="-56" font-family="Helvetica,sans-Serif" font-size="10.00">::_init</text>
</a>
</g>
</g>
<!-- Node16&#45;&gt;Node17 -->
<g id="edge16" class="edge"><title>Node16&#45;&gt;Node17</title>
<path fill="none" stroke="midnightblue" d="M1028.31,-64C1041.86,-64 1055.88,-64 1069.21,-64"/>
<polygon fill="midnightblue" stroke="midnightblue" points="1028.06,-60.5001 1018.06,-64 1028.06,-67.5001 1028.06,-60.5001"/>
</g>
<!-- Node19 -->
<g id="node19" class="node"><title>Node19</title>
<g id="a_node19"><a xlink:href="classVoxel_1_1TI_1_1VoxelDCamera.xhtml#a47b15c40c3fbcc52ae1eb3c9fe74d9f1" target="_top" xlink:title="Voxel::TI::VoxelDCamera\l::_init">
<polygon fill="none" stroke="black" points="1076.5,-0 1076.5,-30 1205.5,-30 1205.5,-0 1076.5,-0"/>
<text text-anchor="start" x="1084.5" y="-18" font-family="Helvetica,sans-Serif" font-size="10.00">Voxel::TI::VoxelDCamera</text>
<text text-anchor="middle" x="1141" y="-7" font-family="Helvetica,sans-Serif" font-size="10.00">::_init</text>
</a>
</g>
</g>
<!-- Node16&#45;&gt;Node19 -->
<g id="edge18" class="edge"><title>Node16&#45;&gt;Node19</title>
<path fill="none" stroke="midnightblue" d="M1018.05,-46.4502C1038.91,-41.0694 1061.67,-35.201 1081.81,-30.0062"/>
<polygon fill="midnightblue" stroke="midnightblue" points="1017.11,-43.079 1008.3,-48.9654 1018.85,-49.8572 1017.11,-43.079"/>
</g>
<!-- Node18 -->
<g id="node18" class="node"><title>Node18</title>
<g id="a_node18"><a xlink:href="classVoxel_1_1TI_1_1TintinCDKCamera.xhtml#a7a9918bb8b6d76bc3511536019847c1d" target="_top" xlink:title="Voxel::TI::TintinCDKCamera\l::TintinCDKCamera">
<polygon fill="none" stroke="black" points="1263.5,-49 1263.5,-79 1406.5,-79 1406.5,-49 1263.5,-49"/>
<text text-anchor="start" x="1271.5" y="-67" font-family="Helvetica,sans-Serif" font-size="10.00">Voxel::TI::TintinCDKCamera</text>
<text text-anchor="middle" x="1335" y="-56" font-family="Helvetica,sans-Serif" font-size="10.00">::TintinCDKCamera</text>
</a>
</g>
</g>
<!-- Node17&#45;&gt;Node18 -->
<g id="edge17" class="edge"><title>Node17&#45;&gt;Node18</title>
<path fill="none" stroke="midnightblue" d="M1222.89,-64C1236.38,-64 1250.27,-64 1263.47,-64"/>
<polygon fill="midnightblue" stroke="midnightblue" points="1222.68,-60.5001 1212.68,-64 1222.68,-67.5001 1222.68,-60.5001"/>
</g>
<!-- Node20 -->
<g id="node20" class="node"><title>Node20</title>
<g id="a_node20"><a xlink:href="classVoxel_1_1TI_1_1VoxelDCamera.xhtml#a4a95cf8257e2f9f5fd34386b87f6663a" target="_top" xlink:title="Voxel::TI::VoxelDCamera\l::VoxelDCamera">
<polygon fill="none" stroke="black" points="1270.5,-0 1270.5,-30 1399.5,-30 1399.5,-0 1270.5,-0"/>
<text text-anchor="start" x="1278.5" y="-18" font-family="Helvetica,sans-Serif" font-size="10.00">Voxel::TI::VoxelDCamera</text>
<text text-anchor="middle" x="1335" y="-7" font-family="Helvetica,sans-Serif" font-size="10.00">::VoxelDCamera</text>
</a>
</g>
</g>
<!-- Node19&#45;&gt;Node20 -->
<g id="edge19" class="edge"><title>Node19&#45;&gt;Node20</title>
<path fill="none" stroke="midnightblue" d="M1215.79,-15C1233.72,-15 1252.75,-15 1270.18,-15"/>
<polygon fill="midnightblue" stroke="midnightblue" points="1215.67,-11.5001 1205.67,-15 1215.67,-18.5001 1215.67,-11.5001"/>
</g>
<!-- Node22 -->
<g id="node22" class="node"><title>Node22</title>
<g id="a_node22"><a xlink:href="classVoxel_1_1MainConfigurationFile.xhtml#a4abe1141d3c441fc54cd870e09a22b2c" target="_top" xlink:title="Voxel::MainConfiguration\lFile::removeCameraProfile">
<polygon fill="none" stroke="black" points="546.5,-54 546.5,-84 679.5,-84 679.5,-54 546.5,-54"/>
<text text-anchor="start" x="554.5" y="-72" font-family="Helvetica,sans-Serif" font-size="10.00">Voxel::MainConfiguration</text>
<text text-anchor="middle" x="613" y="-61" font-family="Helvetica,sans-Serif" font-size="10.00">File::removeCameraProfile</text>
</a>
</g>
</g>
<!-- Node21&#45;&gt;Node22 -->
<g id="edge21" class="edge"><title>Node21&#45;&gt;Node22</title>
<path fill="none" stroke="midnightblue" d="M306.193,-95.4946C314.87,-96.5261 323.621,-97.4045 332,-98 410.025,-103.545 430.5,-108.603 508,-98 528.15,-95.2432 549.901,-89.614 568.277,-84.0423"/>
<polygon fill="midnightblue" stroke="midnightblue" points="306.427,-91.9966 296.069,-94.221 305.554,-98.9418 306.427,-91.9966"/>
</g>
<!-- Node24 -->
<g id="node24" class="node"><title>Node24</title>
<g id="a_node24"><a xlink:href="classVoxel_1_1MainConfigurationFile.xhtml#ae8ce6b155ffff0c4f33e1d7acfc01290" target="_top" xlink:title="Voxel::MainConfiguration\lFile::saveCameraProfileToHardware">
<polygon fill="none" stroke="black" points="332.5,-59 332.5,-89 507.5,-89 507.5,-59 332.5,-59"/>
<text text-anchor="start" x="340.5" y="-77" font-family="Helvetica,sans-Serif" font-size="10.00">Voxel::MainConfiguration</text>
<text text-anchor="middle" x="420" y="-66" font-family="Helvetica,sans-Serif" font-size="10.00">File::saveCameraProfileToHardware</text>
</a>
</g>
</g>
<!-- Node21&#45;&gt;Node24 -->
<g id="edge23" class="edge"><title>Node21&#45;&gt;Node24</title>
<path fill="none" stroke="midnightblue" d="M306.382,-80.0875C314.911,-79.6264 323.681,-79.1524 332.381,-78.6821"/>
<polygon fill="midnightblue" stroke="midnightblue" points="305.913,-76.6076 296.117,-80.6423 306.291,-83.5974 305.913,-76.6076"/>
</g>
<!-- Node25 -->
<g id="node25" class="node"><title>Node25</title>
<g id="a_node25"><a xlink:href="classVoxel_1_1MainConfigurationFile.xhtml#ad0ea67099cfd8a8e869b46b833e19800" target="_top" xlink:title="Voxel::MainConfiguration\lFile::setDefaultCameraProfile">
<polygon fill="none" stroke="black" points="347,-10 347,-40 493,-40 493,-10 347,-10"/>
<text text-anchor="start" x="355" y="-28" font-family="Helvetica,sans-Serif" font-size="10.00">Voxel::MainConfiguration</text>
<text text-anchor="middle" x="420" y="-17" font-family="Helvetica,sans-Serif" font-size="10.00">File::setDefaultCameraProfile</text>
</a>
</g>
</g>
<!-- Node21&#45;&gt;Node25 -->
<g id="edge24" class="edge"><title>Node21&#45;&gt;Node25</title>
<path fill="none" stroke="midnightblue" d="M284.09,-65.3075C299.389,-59.8157 316.314,-53.9571 332,-49 341.711,-45.931 352.099,-42.8733 362.195,-40.0189"/>
<polygon fill="midnightblue" stroke="midnightblue" points="282.513,-62.156 274.301,-68.8502 284.895,-68.7383 282.513,-62.156"/>
</g>
<!-- Node23 -->
<g id="node23" class="node"><title>Node23</title>
<g id="a_node23"><a xlink:href="classVoxel_1_1DepthCamera.xhtml#a51bc1371938f78ddc18af0b36850545c" target="_top" xlink:title="Voxel::DepthCamera\l::removeCameraProfile">
<polygon fill="none" stroke="black" points="718.5,-54 718.5,-84 835.5,-84 835.5,-54 718.5,-54"/>
<text text-anchor="start" x="726.5" y="-72" font-family="Helvetica,sans-Serif" font-size="10.00">Voxel::DepthCamera</text>
<text text-anchor="middle" x="777" y="-61" font-family="Helvetica,sans-Serif" font-size="10.00">::removeCameraProfile</text>
</a>
</g>
</g>
<!-- Node22&#45;&gt;Node23 -->
<g id="edge22" class="edge"><title>Node22&#45;&gt;Node23</title>
<path fill="none" stroke="midnightblue" d="M690.168,-69C699.695,-69 709.31,-69 718.486,-69"/>
<polygon fill="midnightblue" stroke="midnightblue" points="689.892,-65.5001 679.892,-69 689.892,-72.5001 689.892,-65.5001"/>
</g>
<!-- Node25&#45;&gt;Node22 -->
<g id="edge25" class="edge"><title>Node25&#45;&gt;Node22</title>
<path fill="none" stroke="midnightblue" d="M495.961,-42.2684C512.746,-46.1352 530.42,-50.2066 546.773,-53.9738"/>
<polygon fill="midnightblue" stroke="midnightblue" points="496.728,-38.8535 486.197,-40.0192 495.156,-45.6749 496.728,-38.8535"/>
</g>
</g>
</svg>
        <g id="navigator" transform="translate(0 0)" fill="#404254">
                <rect fill="#f2f5e9" fill-opacity="0.5" stroke="#606060" stroke-width=".5" x="0" y="0" width="60" height="60"/>
                <use id="zoomplus" xlink:href="#zoomPlus" x="17" y="9" onmousedown="handleZoom(evt,'in')"/>
                <use id="zoomminus" xlink:href="#zoomMin" x="42" y="9" onmousedown="handleZoom(evt,'out')"/>
                <use id="reset" xlink:href="#resetDef" x="30" y="36" onmousedown="handleReset()"/>
                <g id="arrowUp" xlink:href="#dirArrow" transform="translate(30 24)" onmousedown="handlePan(0,-1)">
                  <use xlink:href="#rim" fill="#404040">
                        <set attributeName="fill" to="#808080" begin="arrowUp.mouseover" end="arrowUp.mouseout"/>
                  </use>
                  <path fill="none" stroke="white" stroke-width="1.5" d="M0,-3.0v7 M-2.5,-0.5L0,-3.0L2.5,-0.5"/>
                </g>
                <g id="arrowRight" xlink:href="#dirArrow" transform="rotate(90) translate(36 -43)" onmousedown="handlePan(1,0)">
                  <use xlink:href="#rim" fill="#404040">
                        <set attributeName="fill" to="#808080" begin="arrowRight.mouseover" end="arrowRight.mouseout"/>
                  </use>
                  <path fill="none" stroke="white" stroke-width="1.5" d="M0,-3.0v7 M-2.5,-0.5L0,-3.0L2.5,-0.5"/>
                </g>
                <g id="arrowDown" xlink:href="#dirArrow" transform="rotate(180) translate(-30 -48)" onmousedown="handlePan(0,1)">
                  <use xlink:href="#rim" fill="#404040">
                        <set attributeName="fill" to="#808080" begin="arrowDown.mouseover" end="arrowDown.mouseout"/>
                  </use>
                  <path fill="none" stroke="white" stroke-width="1.5" d="M0,-3.0v7 M-2.5,-0.5L0,-3.0L2.5,-0.5"/>
                </g>
                <g id="arrowLeft" xlink:href="#dirArrow" transform="rotate(270) translate(-36 17)" onmousedown="handlePan(-1,0)">
                  <use xlink:href="#rim" fill="#404040">
                        <set attributeName="fill" to="#808080" begin="arrowLeft.mouseover" end="arrowLeft.mouseout"/>
                  </use>
                  <path fill="none" stroke="white" stroke-width="1.5" d="M0,-3.0v7 M-2.5,-0.5L0,-3.0L2.5,-0.5"/>
                </g>
        </g>
        <svg viewBox="0 0 15 15" width="100%" height="30px" preserveAspectRatio="xMaxYMin meet">
         <g id="arrow_out" transform="scale(0.3 0.3)">
          <a xlink:href="classVoxel_1_1MainConfigurationFile_a48e0e45a75ee7178d2814e34dd083db4_icgraph_org.svg" target="_base">
           <rect id="button" ry="5" rx="5" y="6" x="6" height="38" width="38"
                fill="#f2f5e9" fill-opacity="0.5" stroke="#606060" stroke-width="1.0"/>
           <path id="arrow"
             d="M 11.500037,31.436501 C 11.940474,20.09759 22.043105,11.32322 32.158766,21.979434 L 37.068811,17.246167 C 37.068811,17.246167 37.088388,32 37.088388,32 L 22.160133,31.978069 C 22.160133,31.978069 26.997745,27.140456 26.997745,27.140456 C 18.528582,18.264221 13.291696,25.230495 11.500037,31.436501 z"
             style="fill:#404040;"/>
          </a>
         </g>
        </svg>
</svg>
