<?xml version="1.0" encoding="UTF-8" standalone="no"?>
<!DOCTYPE svg PUBLIC "-//W3C//DTD SVG 1.1//EN"
 "http://www.w3.org/Graphics/SVG/1.1/DTD/svg11.dtd">
<!-- Generated by graphviz version 2.36.0 (20140111.2315)
 -->
<!-- Title: Voxel::LogLevelChanger::LogLevelChanger Pages: 1 -->
<svg width="296pt" height="87pt"
 viewBox="0.00 0.00 296.00 87.00" xmlns="http://www.w3.org/2000/svg" xmlns:xlink="http://www.w3.org/1999/xlink">
<g id="graph0" class="graph" transform="scale(1 1) rotate(0) translate(4 83)">
<title>Voxel::LogLevelChanger::LogLevelChanger</title>
<!-- Node1 -->
<g id="node1" class="node"><title>Node1</title>
<polygon fill="#bfbfbf" stroke="black" points="0.5,-24 0.5,-54 123.5,-54 123.5,-24 0.5,-24"/>
<text text-anchor="start" x="8.5" y="-42" font-family="Helvetica,sans-Serif" font-size="10.00">Voxel::LogLevelChanger</text>
<text text-anchor="middle" x="62" y="-31" font-family="Helvetica,sans-Serif" font-size="10.00">::LogLevelChanger</text>
</g>
<!-- Node2 -->
<g id="node2" class="node"><title>Node2</title>
<g id="a_node2"><a xlink:href="classVoxel_1_1Logger.xhtml#a47ae069aca3b2d9f4fad7231f5baf7c9" target="_top" xlink:title="Voxel::Logger::getDefault\lLogLevel">
<polygon fill="none" stroke="black" points="160,-49 160,-79 288,-79 288,-49 160,-49"/>
<text text-anchor="start" x="168" y="-67" font-family="Helvetica,sans-Serif" font-size="10.00">Voxel::Logger::getDefault</text>
<text text-anchor="middle" x="224" y="-56" font-family="Helvetica,sans-Serif" font-size="10.00">LogLevel</text>
</a>
</g>
</g>
<!-- Node1&#45;&gt;Node2 -->
<g id="edge1" class="edge"><title>Node1&#45;&gt;Node2</title>
<path fill="none" stroke="midnightblue" d="M123.946,-48.5227C132.388,-49.8418 141.13,-51.2079 149.767,-52.5574"/>
<polygon fill="midnightblue" stroke="midnightblue" points="149.412,-56.0443 159.833,-54.1301 150.493,-49.1282 149.412,-56.0443"/>
</g>
<!-- Node3 -->
<g id="node3" class="node"><title>Node3</title>
<g id="a_node3"><a xlink:href="classVoxel_1_1Logger.xhtml#a24cc93971582344584a5c9064d897cbe" target="_top" xlink:title="Voxel::Logger::setDefault\lLogLevel">
<polygon fill="none" stroke="black" points="160,-0 160,-30 288,-30 288,-0 160,-0"/>
<text text-anchor="start" x="168" y="-18" font-family="Helvetica,sans-Serif" font-size="10.00">Voxel::Logger::setDefault</text>
<text text-anchor="middle" x="224" y="-7" font-family="Helvetica,sans-Serif" font-size="10.00">LogLevel</text>
</a>
</g>
</g>
<!-- Node1&#45;&gt;Node3 -->
<g id="edge2" class="edge"><title>Node1&#45;&gt;Node3</title>
<path fill="none" stroke="midnightblue" d="M123.946,-29.8582C132.388,-28.5918 141.13,-27.2804 149.767,-25.9849"/>
<polygon fill="midnightblue" stroke="midnightblue" points="150.463,-29.4198 159.833,-24.4751 149.424,-22.4973 150.463,-29.4198"/>
</g>
</g>
</svg>
