<?xml version="1.0" encoding="UTF-8" standalone="no"?>
<!DOCTYPE svg PUBLIC "-//W3C//DTD SVG 1.1//EN"
 "http://www.w3.org/Graphics/SVG/1.1/DTD/svg11.dtd">
<!-- Generated by graphviz version 2.36.0 (20140111.2315)
 -->
<!-- Title: Voxel::UVCStreamer::setVideoMode Pages: 1 -->
<!--zoomable 322 -->
<svg id="main" version="1.1" xmlns="http://www.w3.org/2000/svg" xmlns:xlink="http://www.w3.org/1999/xlink" xml:space="preserve" onload="init(evt)">
<style type="text/css"><![CDATA[
.edge:hover path { stroke: red; }
.edge:hover polygon { stroke: red; fill: red; }
]]></style>
<script type="text/javascript"><![CDATA[
var edges = document.getElementsByTagName('g');
if (edges && edges.length) {
  for (var i=0;i<edges.length;i++) {
    if (edges[i].id.substr(0,4)=='edge') {
      edges[i].setAttribute('class','edge');
    }
  }
}
]]></script>
        <defs>
                <circle id="rim" cx="0" cy="0" r="7"/>
                <circle id="rim2" cx="0" cy="0" r="3.5"/>
                <g id="zoomPlus">
                        <use xlink:href="#rim" fill="#404040">
                                <set attributeName="fill" to="#808080" begin="zoomplus.mouseover" end="zoomplus.mouseout"/>
                        </use>
                        <path d="M-4,0h8M0,-4v8" fill="none" stroke="white" stroke-width="1.5" pointer-events="none"/>
                </g>
                <g id="zoomMin">
                        <use xlink:href="#rim" fill="#404040">
                                <set attributeName="fill" to="#808080" begin="zoomminus.mouseover" end="zoomminus.mouseout"/>
                        </use>
                        <path d="M-4,0h8" fill="none" stroke="white" stroke-width="1.5" pointer-events="none"/>
                </g>
                <g id="dirArrow">
                        <path fill="none" stroke="white" stroke-width="1.5" d="M0,-3.0v7 M-2.5,-0.5L0,-3.0L2.5,-0.5"/>
                </g>
               <g id="resetDef">
                       <use xlink:href="#rim2" fill="#404040">
                               <set attributeName="fill" to="#808080" begin="reset.mouseover" end="reset.mouseout"/>
                       </use>
               </g>
        </defs>

<script type="text/javascript">
var viewWidth = 522;
var viewHeight = 322;
var sectionId = 'dynsection-17';
</script>
<script xlink:href="svgpan.js"/>
<svg id="graph" class="graph">
<g id="viewport">
<title>Voxel::UVCStreamer::setVideoMode</title>
<!-- Node1 -->
<g id="node1" class="node"><title>Node1</title>
<polygon fill="#bfbfbf" stroke="black" points="0.5,-137 0.5,-167 109.5,-167 109.5,-137 0.5,-137"/>
<text text-anchor="start" x="8.5" y="-155" font-family="Helvetica,sans-Serif" font-size="10.00">Voxel::UVCStreamer</text>
<text text-anchor="middle" x="55" y="-144" font-family="Helvetica,sans-Serif" font-size="10.00">::setVideoMode</text>
</g>
<!-- Node2 -->
<g id="node2" class="node"><title>Node2</title>
<g id="a_node2"><a xlink:href="classVoxel_1_1UVCStreamer.xhtml#acc806ec3fc0f1e55739a844a0ff0f3c0" target="_top" xlink:title="Voxel::UVCStreamer\l::_initForCapture">
<polygon fill="none" stroke="black" points="202.5,-284 202.5,-314 311.5,-314 311.5,-284 202.5,-284"/>
<text text-anchor="start" x="210.5" y="-302" font-family="Helvetica,sans-Serif" font-size="10.00">Voxel::UVCStreamer</text>
<text text-anchor="middle" x="257" y="-291" font-family="Helvetica,sans-Serif" font-size="10.00">::_initForCapture</text>
</a>
</g>
</g>
<!-- Node1&#45;&gt;Node2 -->
<g id="edge1" class="edge"><title>Node1&#45;&gt;Node2</title>
<path fill="none" stroke="midnightblue" d="M67.2045,-176.223C81.456,-204.244 108.762,-249.638 146,-274 162.634,-284.883 183.37,-291.066 202.34,-294.565"/>
<polygon fill="midnightblue" stroke="midnightblue" points="70.2699,-174.525 62.7131,-167.099 63.9896,-177.617 70.2699,-174.525"/>
</g>
<!-- Node4 -->
<g id="node4" class="node"><title>Node4</title>
<g id="a_node4"><a xlink:href="classVoxel_1_1TI_1_1RTS5825Camera.xhtml#a317d118004c39f03a181cc5183b7b8ee" target="_top" xlink:title="Voxel::TI::RTS5825Camera\l::_setStreamerFrameSize">
<polygon fill="none" stroke="black" points="188,-235 188,-265 326,-265 326,-235 188,-235"/>
<text text-anchor="start" x="196" y="-253" font-family="Helvetica,sans-Serif" font-size="10.00">Voxel::TI::RTS5825Camera</text>
<text text-anchor="middle" x="257" y="-242" font-family="Helvetica,sans-Serif" font-size="10.00">::_setStreamerFrameSize</text>
</a>
</g>
</g>
<!-- Node1&#45;&gt;Node4 -->
<g id="edge3" class="edge"><title>Node1&#45;&gt;Node4</title>
<path fill="none" stroke="midnightblue" d="M77.3538,-174.139C94.4376,-190.574 119.796,-212.262 146,-225 158.946,-231.293 173.525,-236.033 187.734,-239.594"/>
<polygon fill="midnightblue" stroke="midnightblue" points="79.6942,-171.532 70.1135,-167.008 74.7824,-176.519 79.6942,-171.532"/>
</g>
<!-- Node5 -->
<g id="node5" class="node"><title>Node5</title>
<g id="a_node5"><a xlink:href="classVoxel_1_1TI_1_1Voxel14Camera.xhtml#afeb9b488760b3c32cf6d5decb25bfdcf" target="_top" xlink:title="Voxel::TI::Voxel14Camera\l::_setStreamerFrameSize">
<polygon fill="none" stroke="black" points="191,-186 191,-216 323,-216 323,-186 191,-186"/>
<text text-anchor="start" x="199" y="-204" font-family="Helvetica,sans-Serif" font-size="10.00">Voxel::TI::Voxel14Camera</text>
<text text-anchor="middle" x="257" y="-193" font-family="Helvetica,sans-Serif" font-size="10.00">::_setStreamerFrameSize</text>
</a>
</g>
</g>
<!-- Node1&#45;&gt;Node5 -->
<g id="edge4" class="edge"><title>Node1&#45;&gt;Node5</title>
<path fill="none" stroke="midnightblue" d="M119.601,-169.275C128.454,-171.588 137.445,-173.888 146,-176 160.45,-179.567 176.015,-183.22 190.76,-186.593"/>
<polygon fill="midnightblue" stroke="midnightblue" points="120.255,-165.828 109.694,-166.668 118.474,-172.597 120.255,-165.828"/>
</g>
<!-- Node6 -->
<g id="node6" class="node"><title>Node6</title>
<g id="a_node6"><a xlink:href="classVoxel_1_1TI_1_1VoxelDCamera.xhtml#aa13368de49716d5ec7ed82df1010a6b0" target="_top" xlink:title="Voxel::TI::VoxelDCamera\l::_setStreamerFrameSize">
<polygon fill="none" stroke="black" points="192.5,-137 192.5,-167 321.5,-167 321.5,-137 192.5,-137"/>
<text text-anchor="start" x="200.5" y="-155" font-family="Helvetica,sans-Serif" font-size="10.00">Voxel::TI::VoxelDCamera</text>
<text text-anchor="middle" x="257" y="-144" font-family="Helvetica,sans-Serif" font-size="10.00">::_setStreamerFrameSize</text>
</a>
</g>
</g>
<!-- Node1&#45;&gt;Node6 -->
<g id="edge5" class="edge"><title>Node1&#45;&gt;Node6</title>
<path fill="none" stroke="midnightblue" d="M119.678,-152C142.878,-152 169.096,-152 192.298,-152"/>
<polygon fill="midnightblue" stroke="midnightblue" points="119.596,-148.5 109.596,-152 119.596,-155.5 119.596,-148.5"/>
</g>
<!-- Node7 -->
<g id="node7" class="node"><title>Node7</title>
<g id="a_node7"><a xlink:href="classVoxel_1_1TI_1_1TintinCDKCamera.xhtml#a2ffbaceb53ded2b382116ac66b787698" target="_top" xlink:title="Voxel::TI::TintinCDKCamera\l::_setStreamerFrameSize">
<polygon fill="none" stroke="black" points="185.5,-88 185.5,-118 328.5,-118 328.5,-88 185.5,-88"/>
<text text-anchor="start" x="193.5" y="-106" font-family="Helvetica,sans-Serif" font-size="10.00">Voxel::TI::TintinCDKCamera</text>
<text text-anchor="middle" x="257" y="-95" font-family="Helvetica,sans-Serif" font-size="10.00">::_setStreamerFrameSize</text>
</a>
</g>
</g>
<!-- Node1&#45;&gt;Node7 -->
<g id="edge6" class="edge"><title>Node1&#45;&gt;Node7</title>
<path fill="none" stroke="midnightblue" d="M119.601,-134.725C128.454,-132.412 137.445,-130.112 146,-128 159.595,-124.644 174.176,-121.212 188.133,-118.009"/>
<polygon fill="midnightblue" stroke="midnightblue" points="118.474,-131.403 109.694,-137.332 120.255,-138.172 118.474,-131.403"/>
</g>
<!-- Node8 -->
<g id="node8" class="node"><title>Node8</title>
<g id="a_node8"><a xlink:href="UVCStreamerTest_8cpp.xhtml#a0ddf1224851353fc92bfbff6f499fa97" target="_top" xlink:title="main">
<polygon fill="none" stroke="black" points="238,-49.5 238,-68.5 276,-68.5 276,-49.5 238,-49.5"/>
<text text-anchor="middle" x="257" y="-56.5" font-family="Helvetica,sans-Serif" font-size="10.00">main</text>
</a>
</g>
</g>
<!-- Node1&#45;&gt;Node8 -->
<g id="edge7" class="edge"><title>Node1&#45;&gt;Node8</title>
<path fill="none" stroke="midnightblue" d="M77.2001,-129.536C94.2017,-112.927 119.525,-91.1636 146,-79 176.161,-65.1433 215.109,-60.8746 237.647,-59.5676"/>
<polygon fill="midnightblue" stroke="midnightblue" points="74.586,-127.2 69.9999,-136.751 79.541,-132.145 74.586,-127.2"/>
</g>
<!-- Node9 -->
<g id="node9" class="node"><title>Node9</title>
<g id="a_node9"><a xlink:href="classVoxel_1_1TI_1_1RTS5825CameraUVCStreamer.xhtml#a1fa44ca04c55a5013030131ee76aa776" target="_top" xlink:title="Voxel::TI::RTS5825Camera\lUVCStreamer::RTS5825CameraUVCStreamer">
<polygon fill="none" stroke="black" points="146.5,-0 146.5,-30 367.5,-30 367.5,-0 146.5,-0"/>
<text text-anchor="start" x="154.5" y="-18" font-family="Helvetica,sans-Serif" font-size="10.00">Voxel::TI::RTS5825Camera</text>
<text text-anchor="middle" x="257" y="-7" font-family="Helvetica,sans-Serif" font-size="10.00">UVCStreamer::RTS5825CameraUVCStreamer</text>
</a>
</g>
</g>
<!-- Node1&#45;&gt;Node9 -->
<g id="edge8" class="edge"><title>Node1&#45;&gt;Node9</title>
<path fill="none" stroke="midnightblue" d="M68.6235,-128.183C83.583,-102.358 110.961,-61.9035 146,-40 152.227,-36.1071 158.991,-32.8183 165.999,-30.0401"/>
<polygon fill="midnightblue" stroke="midnightblue" points="65.531,-126.541 63.6827,-136.974 71.6333,-129.971 65.531,-126.541"/>
</g>
<!-- Node3 -->
<g id="node3" class="node"><title>Node3</title>
<g id="a_node3"><a xlink:href="classVoxel_1_1UVCStreamer.xhtml#a3bf08c2dd6922d8e4a44a63840095d97" target="_top" xlink:title="Voxel::UVCStreamer\l::_start">
<polygon fill="none" stroke="black" points="404.5,-284 404.5,-314 513.5,-314 513.5,-284 404.5,-284"/>
<text text-anchor="start" x="412.5" y="-302" font-family="Helvetica,sans-Serif" font-size="10.00">Voxel::UVCStreamer</text>
<text text-anchor="middle" x="459" y="-291" font-family="Helvetica,sans-Serif" font-size="10.00">::_start</text>
</a>
</g>
</g>
<!-- Node2&#45;&gt;Node3 -->
<g id="edge2" class="edge"><title>Node2&#45;&gt;Node3</title>
<path fill="none" stroke="midnightblue" d="M321.933,-299C348.463,-299 378.903,-299 404.256,-299"/>
<polygon fill="midnightblue" stroke="midnightblue" points="321.596,-295.5 311.596,-299 321.596,-302.5 321.596,-295.5"/>
</g>
</g>
</svg>
        <g id="navigator" transform="translate(0 0)" fill="#404254">
                <rect fill="#f2f5e9" fill-opacity="0.5" stroke="#606060" stroke-width=".5" x="0" y="0" width="60" height="60"/>
                <use id="zoomplus" xlink:href="#zoomPlus" x="17" y="9" onmousedown="handleZoom(evt,'in')"/>
                <use id="zoomminus" xlink:href="#zoomMin" x="42" y="9" onmousedown="handleZoom(evt,'out')"/>
                <use id="reset" xlink:href="#resetDef" x="30" y="36" onmousedown="handleReset()"/>
                <g id="arrowUp" xlink:href="#dirArrow" transform="translate(30 24)" onmousedown="handlePan(0,-1)">
                  <use xlink:href="#rim" fill="#404040">
                        <set attributeName="fill" to="#808080" begin="arrowUp.mouseover" end="arrowUp.mouseout"/>
                  </use>
                  <path fill="none" stroke="white" stroke-width="1.5" d="M0,-3.0v7 M-2.5,-0.5L0,-3.0L2.5,-0.5"/>
                </g>
                <g id="arrowRight" xlink:href="#dirArrow" transform="rotate(90) translate(36 -43)" onmousedown="handlePan(1,0)">
                  <use xlink:href="#rim" fill="#404040">
                        <set attributeName="fill" to="#808080" begin="arrowRight.mouseover" end="arrowRight.mouseout"/>
                  </use>
                  <path fill="none" stroke="white" stroke-width="1.5" d="M0,-3.0v7 M-2.5,-0.5L0,-3.0L2.5,-0.5"/>
                </g>
                <g id="arrowDown" xlink:href="#dirArrow" transform="rotate(180) translate(-30 -48)" onmousedown="handlePan(0,1)">
                  <use xlink:href="#rim" fill="#404040">
                        <set attributeName="fill" to="#808080" begin="arrowDown.mouseover" end="arrowDown.mouseout"/>
                  </use>
                  <path fill="none" stroke="white" stroke-width="1.5" d="M0,-3.0v7 M-2.5,-0.5L0,-3.0L2.5,-0.5"/>
                </g>
                <g id="arrowLeft" xlink:href="#dirArrow" transform="rotate(270) translate(-36 17)" onmousedown="handlePan(-1,0)">
                  <use xlink:href="#rim" fill="#404040">
                        <set attributeName="fill" to="#808080" begin="arrowLeft.mouseover" end="arrowLeft.mouseout"/>
                  </use>
                  <path fill="none" stroke="white" stroke-width="1.5" d="M0,-3.0v7 M-2.5,-0.5L0,-3.0L2.5,-0.5"/>
                </g>
        </g>
        <svg viewBox="0 0 15 15" width="100%" height="30px" preserveAspectRatio="xMaxYMin meet">
         <g id="arrow_out" transform="scale(0.3 0.3)">
          <a xlink:href="classVoxel_1_1UVCStreamer_a7babd2f4cbe6152499b4c49b0137b6b4_icgraph_org.svg" target="_base">
           <rect id="button" ry="5" rx="5" y="6" x="6" height="38" width="38"
                fill="#f2f5e9" fill-opacity="0.5" stroke="#606060" stroke-width="1.0"/>
           <path id="arrow"
             d="M 11.500037,31.436501 C 11.940474,20.09759 22.043105,11.32322 32.158766,21.979434 L 37.068811,17.246167 C 37.068811,17.246167 37.088388,32 37.088388,32 L 22.160133,31.978069 C 22.160133,31.978069 26.997745,27.140456 26.997745,27.140456 C 18.528582,18.264221 13.291696,25.230495 11.500037,31.436501 z"
             style="fill:#404040;"/>
          </a>
         </g>
        </svg>
</svg>
