<?xml version="1.0" encoding="UTF-8" standalone="no"?>
<!DOCTYPE svg PUBLIC "-//W3C//DTD SVG 1.1//EN"
 "http://www.w3.org/Graphics/SVG/1.1/DTD/svg11.dtd">
<!-- Generated by graphviz version 2.36.0 (20140111.2315)
 -->
<!-- Title: Voxel::ConfigurationFile::getFile Pages: 1 -->
<!--zoomable 283 -->
<svg id="main" version="1.1" xmlns="http://www.w3.org/2000/svg" xmlns:xlink="http://www.w3.org/1999/xlink" xml:space="preserve" onload="init(evt)">
<style type="text/css"><![CDATA[
.edge:hover path { stroke: red; }
.edge:hover polygon { stroke: red; fill: red; }
]]></style>
<script type="text/javascript"><![CDATA[
var edges = document.getElementsByTagName('g');
if (edges && edges.length) {
  for (var i=0;i<edges.length;i++) {
    if (edges[i].id.substr(0,4)=='edge') {
      edges[i].setAttribute('class','edge');
    }
  }
}
]]></script>
        <defs>
                <circle id="rim" cx="0" cy="0" r="7"/>
                <circle id="rim2" cx="0" cy="0" r="3.5"/>
                <g id="zoomPlus">
                        <use xlink:href="#rim" fill="#404040">
                                <set attributeName="fill" to="#808080" begin="zoomplus.mouseover" end="zoomplus.mouseout"/>
                        </use>
                        <path d="M-4,0h8M0,-4v8" fill="none" stroke="white" stroke-width="1.5" pointer-events="none"/>
                </g>
                <g id="zoomMin">
                        <use xlink:href="#rim" fill="#404040">
                                <set attributeName="fill" to="#808080" begin="zoomminus.mouseover" end="zoomminus.mouseout"/>
                        </use>
                        <path d="M-4,0h8" fill="none" stroke="white" stroke-width="1.5" pointer-events="none"/>
                </g>
                <g id="dirArrow">
                        <path fill="none" stroke="white" stroke-width="1.5" d="M0,-3.0v7 M-2.5,-0.5L0,-3.0L2.5,-0.5"/>
                </g>
               <g id="resetDef">
                       <use xlink:href="#rim2" fill="#404040">
                               <set attributeName="fill" to="#808080" begin="reset.mouseover" end="reset.mouseout"/>
                       </use>
               </g>
        </defs>

<script type="text/javascript">
var viewWidth = 830;
var viewHeight = 283;
var sectionId = 'dynsection-21';
</script>
<script xlink:href="svgpan.js"/>
<svg id="graph" class="graph">
<g id="viewport">
<title>Voxel::ConfigurationFile::getFile</title>
<!-- Node1 -->
<g id="node1" class="node"><title>Node1</title>
<polygon fill="#bfbfbf" stroke="black" points="0.5,-147 0.5,-177 121.5,-177 121.5,-147 0.5,-147"/>
<text text-anchor="start" x="8.5" y="-165" font-family="Helvetica,sans-Serif" font-size="10.00">Voxel::ConfigurationFile</text>
<text text-anchor="middle" x="61" y="-154" font-family="Helvetica,sans-Serif" font-size="10.00">::getFile</text>
</g>
<!-- Node2 -->
<g id="node2" class="node"><title>Node2</title>
<g id="a_node2"><a xlink:href="classVoxel_1_1MainConfigurationFile.xhtml#a700e33f6f37c59f24bdea5db5a037898" target="_top" xlink:title="Voxel::MainConfiguration\lFile::getFile">
<polygon fill="none" stroke="black" points="158,-147 158,-177 284,-177 284,-147 158,-147"/>
<text text-anchor="start" x="166" y="-165" font-family="Helvetica,sans-Serif" font-size="10.00">Voxel::MainConfiguration</text>
<text text-anchor="middle" x="221" y="-154" font-family="Helvetica,sans-Serif" font-size="10.00">File::getFile</text>
</a>
</g>
</g>
<!-- Node1&#45;&gt;Node2 -->
<g id="edge1" class="edge"><title>Node1&#45;&gt;Node2</title>
<path fill="none" stroke="midnightblue" d="M131.807,-162C140.468,-162 149.279,-162 157.815,-162"/>
<polygon fill="midnightblue" stroke="midnightblue" points="131.733,-158.5 121.733,-162 131.733,-165.5 131.733,-158.5"/>
</g>
<!-- Node3 -->
<g id="node3" class="node"><title>Node3</title>
<g id="a_node3"><a xlink:href="classVoxel_1_1TI_1_1ToFCamera.xhtml#a52686f695d06876ef5a89e453c6a8ba3" target="_top" xlink:title="Voxel::TI::ToFCamera\l::_initStartParams">
<polygon fill="none" stroke="black" points="320,-147 320,-177 434,-177 434,-147 320,-147"/>
<text text-anchor="start" x="328" y="-165" font-family="Helvetica,sans-Serif" font-size="10.00">Voxel::TI::ToFCamera</text>
<text text-anchor="middle" x="377" y="-154" font-family="Helvetica,sans-Serif" font-size="10.00">::_initStartParams</text>
</a>
</g>
</g>
<!-- Node2&#45;&gt;Node3 -->
<g id="edge2" class="edge"><title>Node2&#45;&gt;Node3</title>
<path fill="none" stroke="midnightblue" d="M294.42,-162C302.855,-162 311.365,-162 319.541,-162"/>
<polygon fill="midnightblue" stroke="midnightblue" points="294.194,-158.5 284.194,-162 294.194,-165.5 294.194,-158.5"/>
</g>
<!-- Node4 -->
<g id="node4" class="node"><title>Node4</title>
<g id="a_node4"><a xlink:href="classVoxel_1_1TI_1_1HaddockCDKCamera.xhtml#a4e8e32000eca9b81bc6401a8d512cbc7" target="_top" xlink:title="Voxel::TI::HaddockCDKCamera\l::_initStartParams">
<polygon fill="none" stroke="black" points="470,-245 470,-275 628,-275 628,-245 470,-245"/>
<text text-anchor="start" x="478" y="-263" font-family="Helvetica,sans-Serif" font-size="10.00">Voxel::TI::HaddockCDKCamera</text>
<text text-anchor="middle" x="549" y="-252" font-family="Helvetica,sans-Serif" font-size="10.00">::_initStartParams</text>
</a>
</g>
</g>
<!-- Node3&#45;&gt;Node4 -->
<g id="edge3" class="edge"><title>Node3&#45;&gt;Node4</title>
<path fill="none" stroke="midnightblue" d="M400.885,-184.057C418.557,-200.072 444.265,-221.258 470,-235 477.025,-238.751 484.708,-242.057 492.427,-244.934"/>
<polygon fill="midnightblue" stroke="midnightblue" points="403.082,-181.321 393.361,-177.108 398.332,-186.463 403.082,-181.321"/>
</g>
<!-- Node5 -->
<g id="node5" class="node"><title>Node5</title>
<g id="a_node5"><a xlink:href="classVoxel_1_1TI_1_1RTS5825Camera.xhtml#a2df71f9665a9c5d5dd1f6c58654175cd" target="_top" xlink:title="Voxel::TI::RTS5825Camera\l::_initStartParams">
<polygon fill="none" stroke="black" points="480,-196 480,-226 618,-226 618,-196 480,-196"/>
<text text-anchor="start" x="488" y="-214" font-family="Helvetica,sans-Serif" font-size="10.00">Voxel::TI::RTS5825Camera</text>
<text text-anchor="middle" x="549" y="-203" font-family="Helvetica,sans-Serif" font-size="10.00">::_initStartParams</text>
</a>
</g>
</g>
<!-- Node3&#45;&gt;Node5 -->
<g id="edge4" class="edge"><title>Node3&#45;&gt;Node5</title>
<path fill="none" stroke="midnightblue" d="M440.082,-179.894C458.366,-185.164 478.18,-190.876 495.78,-195.948"/>
<polygon fill="midnightblue" stroke="midnightblue" points="440.971,-176.508 430.393,-177.101 439.032,-183.234 440.971,-176.508"/>
</g>
<!-- Node6 -->
<g id="node6" class="node"><title>Node6</title>
<g id="a_node6"><a xlink:href="classVoxel_1_1TI_1_1ToFCalculusCamera.xhtml#adf420ba5e95dcb0cbd3da90f446242d9" target="_top" xlink:title="Voxel::TI::ToFCalculusCamera\l::_initStartParams">
<polygon fill="none" stroke="black" points="473,-147 473,-177 625,-177 625,-147 473,-147"/>
<text text-anchor="start" x="481" y="-165" font-family="Helvetica,sans-Serif" font-size="10.00">Voxel::TI::ToFCalculusCamera</text>
<text text-anchor="middle" x="549" y="-154" font-family="Helvetica,sans-Serif" font-size="10.00">::_initStartParams</text>
</a>
</g>
</g>
<!-- Node3&#45;&gt;Node6 -->
<g id="edge5" class="edge"><title>Node3&#45;&gt;Node6</title>
<path fill="none" stroke="midnightblue" d="M444.173,-162C453.562,-162 463.273,-162 472.817,-162"/>
<polygon fill="midnightblue" stroke="midnightblue" points="444.136,-158.5 434.135,-162 444.135,-165.5 444.136,-158.5"/>
</g>
<!-- Node8 -->
<g id="node8" class="node"><title>Node8</title>
<g id="a_node8"><a xlink:href="classVoxel_1_1TI_1_1ToFHaddockCamera.xhtml#ae87b0ca3c8867d1b520c0165d526e79d" target="_top" xlink:title="Voxel::TI::ToFHaddockCamera\l::_initStartParams">
<polygon fill="none" stroke="black" points="472.5,-98 472.5,-128 625.5,-128 625.5,-98 472.5,-98"/>
<text text-anchor="start" x="480.5" y="-116" font-family="Helvetica,sans-Serif" font-size="10.00">Voxel::TI::ToFHaddockCamera</text>
<text text-anchor="middle" x="549" y="-105" font-family="Helvetica,sans-Serif" font-size="10.00">::_initStartParams</text>
</a>
</g>
</g>
<!-- Node3&#45;&gt;Node8 -->
<g id="edge7" class="edge"><title>Node3&#45;&gt;Node8</title>
<path fill="none" stroke="midnightblue" d="M440.082,-144.106C458.366,-138.836 478.18,-133.124 495.78,-128.052"/>
<polygon fill="midnightblue" stroke="midnightblue" points="439.032,-140.766 430.393,-146.899 440.971,-147.492 439.032,-140.766"/>
</g>
<!-- Node10 -->
<g id="node10" class="node"><title>Node10</title>
<g id="a_node10"><a xlink:href="classVoxel_1_1TI_1_1ToFTintinCamera.xhtml#a17729406fadceea890b4e0e079aede46" target="_top" xlink:title="Voxel::TI::ToFTintinCamera\l::_initStartParams">
<polygon fill="none" stroke="black" points="480,-49 480,-79 618,-79 618,-49 480,-49"/>
<text text-anchor="start" x="488" y="-67" font-family="Helvetica,sans-Serif" font-size="10.00">Voxel::TI::ToFTintinCamera</text>
<text text-anchor="middle" x="549" y="-56" font-family="Helvetica,sans-Serif" font-size="10.00">::_initStartParams</text>
</a>
</g>
</g>
<!-- Node3&#45;&gt;Node10 -->
<g id="edge9" class="edge"><title>Node3&#45;&gt;Node10</title>
<path fill="none" stroke="midnightblue" d="M400.885,-139.943C418.557,-123.928 444.265,-102.742 470,-89 477.025,-85.249 484.708,-81.9428 492.427,-79.0663"/>
<polygon fill="midnightblue" stroke="midnightblue" points="398.332,-137.537 393.361,-146.892 403.082,-142.679 398.332,-137.537"/>
</g>
<!-- Node7 -->
<g id="node7" class="node"><title>Node7</title>
<g id="a_node7"><a xlink:href="classVoxel_1_1TI_1_1CalculusCDKCamera.xhtml#a2474713056342fa6774ff5a165961052" target="_top" xlink:title="Voxel::TI::CalculusCDKCamera\l::_initStartParams">
<polygon fill="none" stroke="black" points="664.5,-147 664.5,-177 821.5,-177 821.5,-147 664.5,-147"/>
<text text-anchor="start" x="672.5" y="-165" font-family="Helvetica,sans-Serif" font-size="10.00">Voxel::TI::CalculusCDKCamera</text>
<text text-anchor="middle" x="743" y="-154" font-family="Helvetica,sans-Serif" font-size="10.00">::_initStartParams</text>
</a>
</g>
</g>
<!-- Node6&#45;&gt;Node7 -->
<g id="edge6" class="edge"><title>Node6&#45;&gt;Node7</title>
<path fill="none" stroke="midnightblue" d="M635.152,-162C644.908,-162 654.816,-162 664.465,-162"/>
<polygon fill="midnightblue" stroke="midnightblue" points="635.057,-158.5 625.057,-162 635.057,-165.5 635.057,-158.5"/>
</g>
<!-- Node9 -->
<g id="node9" class="node"><title>Node9</title>
<g id="a_node9"><a xlink:href="classVoxel_1_1TI_1_1Voxel14Camera.xhtml#ad5dcde935444ac28a6e0b5705f504573" target="_top" xlink:title="Voxel::TI::Voxel14Camera\l::_initStartParams">
<polygon fill="none" stroke="black" points="677,-98 677,-128 809,-128 809,-98 677,-98"/>
<text text-anchor="start" x="685" y="-116" font-family="Helvetica,sans-Serif" font-size="10.00">Voxel::TI::Voxel14Camera</text>
<text text-anchor="middle" x="743" y="-105" font-family="Helvetica,sans-Serif" font-size="10.00">::_initStartParams</text>
</a>
</g>
</g>
<!-- Node8&#45;&gt;Node9 -->
<g id="edge8" class="edge"><title>Node8&#45;&gt;Node9</title>
<path fill="none" stroke="midnightblue" d="M635.994,-113C649.67,-113 663.62,-113 676.718,-113"/>
<polygon fill="midnightblue" stroke="midnightblue" points="635.608,-109.5 625.608,-113 635.608,-116.5 635.608,-109.5"/>
</g>
<!-- Node11 -->
<g id="node11" class="node"><title>Node11</title>
<g id="a_node11"><a xlink:href="classVoxel_1_1TI_1_1TintinCDKCamera.xhtml#a35274b5fd95ea088be4bc0637328d5f4" target="_top" xlink:title="Voxel::TI::TintinCDKCamera\l::_initStartParams">
<polygon fill="none" stroke="black" points="671.5,-49 671.5,-79 814.5,-79 814.5,-49 671.5,-49"/>
<text text-anchor="start" x="679.5" y="-67" font-family="Helvetica,sans-Serif" font-size="10.00">Voxel::TI::TintinCDKCamera</text>
<text text-anchor="middle" x="743" y="-56" font-family="Helvetica,sans-Serif" font-size="10.00">::_initStartParams</text>
</a>
</g>
</g>
<!-- Node10&#45;&gt;Node11 -->
<g id="edge10" class="edge"><title>Node10&#45;&gt;Node11</title>
<path fill="none" stroke="midnightblue" d="M628.469,-64C642.68,-64 657.423,-64 671.392,-64"/>
<polygon fill="midnightblue" stroke="midnightblue" points="628.233,-60.5001 618.233,-64 628.233,-67.5001 628.233,-60.5001"/>
</g>
<!-- Node12 -->
<g id="node12" class="node"><title>Node12</title>
<g id="a_node12"><a xlink:href="classVoxel_1_1TI_1_1VoxelDCamera.xhtml#ae0706724a5ebbb978d41fb2633af5040" target="_top" xlink:title="Voxel::TI::VoxelDCamera\l::_initStartParams">
<polygon fill="none" stroke="black" points="678.5,-0 678.5,-30 807.5,-30 807.5,-0 678.5,-0"/>
<text text-anchor="start" x="686.5" y="-18" font-family="Helvetica,sans-Serif" font-size="10.00">Voxel::TI::VoxelDCamera</text>
<text text-anchor="middle" x="743" y="-7" font-family="Helvetica,sans-Serif" font-size="10.00">::_initStartParams</text>
</a>
</g>
</g>
<!-- Node10&#45;&gt;Node12 -->
<g id="edge11" class="edge"><title>Node10&#45;&gt;Node12</title>
<path fill="none" stroke="midnightblue" d="M618.767,-46.4502C639.851,-41.0694 662.845,-35.201 683.2,-30.0062"/>
<polygon fill="midnightblue" stroke="midnightblue" points="617.735,-43.1012 608.911,-48.9654 619.466,-49.8838 617.735,-43.1012"/>
</g>
</g>
</svg>
        <g id="navigator" transform="translate(0 0)" fill="#404254">
                <rect fill="#f2f5e9" fill-opacity="0.5" stroke="#606060" stroke-width=".5" x="0" y="0" width="60" height="60"/>
                <use id="zoomplus" xlink:href="#zoomPlus" x="17" y="9" onmousedown="handleZoom(evt,'in')"/>
                <use id="zoomminus" xlink:href="#zoomMin" x="42" y="9" onmousedown="handleZoom(evt,'out')"/>
                <use id="reset" xlink:href="#resetDef" x="30" y="36" onmousedown="handleReset()"/>
                <g id="arrowUp" xlink:href="#dirArrow" transform="translate(30 24)" onmousedown="handlePan(0,-1)">
                  <use xlink:href="#rim" fill="#404040">
                        <set attributeName="fill" to="#808080" begin="arrowUp.mouseover" end="arrowUp.mouseout"/>
                  </use>
                  <path fill="none" stroke="white" stroke-width="1.5" d="M0,-3.0v7 M-2.5,-0.5L0,-3.0L2.5,-0.5"/>
                </g>
                <g id="arrowRight" xlink:href="#dirArrow" transform="rotate(90) translate(36 -43)" onmousedown="handlePan(1,0)">
                  <use xlink:href="#rim" fill="#404040">
                        <set attributeName="fill" to="#808080" begin="arrowRight.mouseover" end="arrowRight.mouseout"/>
                  </use>
                  <path fill="none" stroke="white" stroke-width="1.5" d="M0,-3.0v7 M-2.5,-0.5L0,-3.0L2.5,-0.5"/>
                </g>
                <g id="arrowDown" xlink:href="#dirArrow" transform="rotate(180) translate(-30 -48)" onmousedown="handlePan(0,1)">
                  <use xlink:href="#rim" fill="#404040">
                        <set attributeName="fill" to="#808080" begin="arrowDown.mouseover" end="arrowDown.mouseout"/>
                  </use>
                  <path fill="none" stroke="white" stroke-width="1.5" d="M0,-3.0v7 M-2.5,-0.5L0,-3.0L2.5,-0.5"/>
                </g>
                <g id="arrowLeft" xlink:href="#dirArrow" transform="rotate(270) translate(-36 17)" onmousedown="handlePan(-1,0)">
                  <use xlink:href="#rim" fill="#404040">
                        <set attributeName="fill" to="#808080" begin="arrowLeft.mouseover" end="arrowLeft.mouseout"/>
                  </use>
                  <path fill="none" stroke="white" stroke-width="1.5" d="M0,-3.0v7 M-2.5,-0.5L0,-3.0L2.5,-0.5"/>
                </g>
        </g>
        <svg viewBox="0 0 15 15" width="100%" height="30px" preserveAspectRatio="xMaxYMin meet">
         <g id="arrow_out" transform="scale(0.3 0.3)">
          <a xlink:href="classVoxel_1_1ConfigurationFile_a49e5d191d816bda45d31e29a29272c9d_icgraph_org.svg" target="_base">
           <rect id="button" ry="5" rx="5" y="6" x="6" height="38" width="38"
                fill="#f2f5e9" fill-opacity="0.5" stroke="#606060" stroke-width="1.0"/>
           <path id="arrow"
             d="M 11.500037,31.436501 C 11.940474,20.09759 22.043105,11.32322 32.158766,21.979434 L 37.068811,17.246167 C 37.068811,17.246167 37.088388,32 37.088388,32 L 22.160133,31.978069 C 22.160133,31.978069 26.997745,27.140456 26.997745,27.140456 C 18.528582,18.264221 13.291696,25.230495 11.500037,31.436501 z"
             style="fill:#404040;"/>
          </a>
         </g>
        </svg>
</svg>
