<?xml version="1.0" encoding="UTF-8" standalone="no"?>
<!DOCTYPE svg PUBLIC "-//W3C//DTD SVG 1.1//EN"
 "http://www.w3.org/Graphics/SVG/1.1/DTD/svg11.dtd">
<!-- Generated by graphviz version 2.36.0 (20140111.2315)
 -->
<!-- Title: Voxel::TI::ToFCamera::_is16BitModeEnabled Pages: 1 -->
<!--zoomable 283 -->
<svg id="main" version="1.1" xmlns="http://www.w3.org/2000/svg" xmlns:xlink="http://www.w3.org/1999/xlink" xml:space="preserve" onload="init(evt)">
<style type="text/css"><![CDATA[
.edge:hover path { stroke: red; }
.edge:hover polygon { stroke: red; fill: red; }
]]></style>
<script type="text/javascript"><![CDATA[
var edges = document.getElementsByTagName('g');
if (edges && edges.length) {
  for (var i=0;i<edges.length;i++) {
    if (edges[i].id.substr(0,4)=='edge') {
      edges[i].setAttribute('class','edge');
    }
  }
}
]]></script>
        <defs>
                <circle id="rim" cx="0" cy="0" r="7"/>
                <circle id="rim2" cx="0" cy="0" r="3.5"/>
                <g id="zoomPlus">
                        <use xlink:href="#rim" fill="#404040">
                                <set attributeName="fill" to="#808080" begin="zoomplus.mouseover" end="zoomplus.mouseout"/>
                        </use>
                        <path d="M-4,0h8M0,-4v8" fill="none" stroke="white" stroke-width="1.5" pointer-events="none"/>
                </g>
                <g id="zoomMin">
                        <use xlink:href="#rim" fill="#404040">
                                <set attributeName="fill" to="#808080" begin="zoomminus.mouseover" end="zoomminus.mouseout"/>
                        </use>
                        <path d="M-4,0h8" fill="none" stroke="white" stroke-width="1.5" pointer-events="none"/>
                </g>
                <g id="dirArrow">
                        <path fill="none" stroke="white" stroke-width="1.5" d="M0,-3.0v7 M-2.5,-0.5L0,-3.0L2.5,-0.5"/>
                </g>
               <g id="resetDef">
                       <use xlink:href="#rim2" fill="#404040">
                               <set attributeName="fill" to="#808080" begin="reset.mouseover" end="reset.mouseout"/>
                       </use>
               </g>
        </defs>

<script type="text/javascript">
var viewWidth = 678;
var viewHeight = 283;
var sectionId = 'dynsection-24';
</script>
<script xlink:href="svgpan.js"/>
<svg id="graph" class="graph">
<g id="viewport">
<title>Voxel::TI::ToFCamera::_is16BitModeEnabled</title>
<!-- Node1 -->
<g id="node1" class="node"><title>Node1</title>
<polygon fill="#bfbfbf" stroke="black" points="0.5,-171 0.5,-201 117.5,-201 117.5,-171 0.5,-171"/>
<text text-anchor="start" x="8.5" y="-189" font-family="Helvetica,sans-Serif" font-size="10.00">Voxel::TI::ToFCamera</text>
<text text-anchor="middle" x="59" y="-178" font-family="Helvetica,sans-Serif" font-size="10.00">::_is16BitModeEnabled</text>
</g>
<!-- Node2 -->
<g id="node2" class="node"><title>Node2</title>
<g id="a_node2"><a xlink:href="classVoxel_1_1TI_1_1ToFCamera.xhtml#a6f61d229b9f83102d07d25d88ea03efa" target="_top" xlink:title="Voxel::TI::ToFCamera\l::_getDepthScalingFactor">
<polygon fill="none" stroke="black" points="154,-196 154,-226 282,-226 282,-196 154,-196"/>
<text text-anchor="start" x="162" y="-214" font-family="Helvetica,sans-Serif" font-size="10.00">Voxel::TI::ToFCamera</text>
<text text-anchor="middle" x="218" y="-203" font-family="Helvetica,sans-Serif" font-size="10.00">::_getDepthScalingFactor</text>
</a>
</g>
</g>
<!-- Node1&#45;&gt;Node2 -->
<g id="edge1" class="edge"><title>Node1&#45;&gt;Node2</title>
<path fill="none" stroke="midnightblue" d="M127.674,-196.776C136.374,-198.161 145.255,-199.576 153.879,-200.949"/>
<polygon fill="midnightblue" stroke="midnightblue" points="127.996,-193.283 117.57,-195.167 126.895,-200.196 127.996,-193.283"/>
</g>
<!-- Node3 -->
<g id="node3" class="node"><title>Node3</title>
<g id="a_node3"><a xlink:href="classVoxel_1_1TI_1_1ToFCamera.xhtml#a52686f695d06876ef5a89e453c6a8ba3" target="_top" xlink:title="Voxel::TI::ToFCamera\l::_initStartParams">
<polygon fill="none" stroke="black" points="161,-147 161,-177 275,-177 275,-147 161,-147"/>
<text text-anchor="start" x="169" y="-165" font-family="Helvetica,sans-Serif" font-size="10.00">Voxel::TI::ToFCamera</text>
<text text-anchor="middle" x="218" y="-154" font-family="Helvetica,sans-Serif" font-size="10.00">::_initStartParams</text>
</a>
</g>
</g>
<!-- Node1&#45;&gt;Node3 -->
<g id="edge2" class="edge"><title>Node1&#45;&gt;Node3</title>
<path fill="none" stroke="midnightblue" d="M127.611,-175.665C138.662,-173.975 150.008,-172.241 160.747,-170.599"/>
<polygon fill="midnightblue" stroke="midnightblue" points="126.926,-172.229 117.57,-177.2 127.984,-179.148 126.926,-172.229"/>
</g>
<!-- Node4 -->
<g id="node4" class="node"><title>Node4</title>
<g id="a_node4"><a xlink:href="classVoxel_1_1TI_1_1ToFHaddockCamera.xhtml#ae87b0ca3c8867d1b520c0165d526e79d" target="_top" xlink:title="Voxel::TI::ToFHaddockCamera\l::_initStartParams">
<polygon fill="none" stroke="black" points="320.5,-245 320.5,-275 473.5,-275 473.5,-245 320.5,-245"/>
<text text-anchor="start" x="328.5" y="-263" font-family="Helvetica,sans-Serif" font-size="10.00">Voxel::TI::ToFHaddockCamera</text>
<text text-anchor="middle" x="397" y="-252" font-family="Helvetica,sans-Serif" font-size="10.00">::_initStartParams</text>
</a>
</g>
</g>
<!-- Node3&#45;&gt;Node4 -->
<g id="edge3" class="edge"><title>Node3&#45;&gt;Node4</title>
<path fill="none" stroke="midnightblue" d="M274.654,-181.998C277.212,-183.559 279.677,-185.225 282,-187 303.188,-203.192 296.277,-219.533 318,-235 323.444,-238.876 329.519,-242.172 335.809,-244.97"/>
<polygon fill="midnightblue" stroke="midnightblue" points="276.123,-178.812 265.67,-177.086 272.765,-184.954 276.123,-178.812"/>
</g>
<!-- Node6 -->
<g id="node6" class="node"><title>Node6</title>
<g id="a_node6"><a xlink:href="classVoxel_1_1TI_1_1RTS5825Camera.xhtml#a2df71f9665a9c5d5dd1f6c58654175cd" target="_top" xlink:title="Voxel::TI::RTS5825Camera\l::_initStartParams">
<polygon fill="none" stroke="black" points="328,-196 328,-226 466,-226 466,-196 328,-196"/>
<text text-anchor="start" x="336" y="-214" font-family="Helvetica,sans-Serif" font-size="10.00">Voxel::TI::RTS5825Camera</text>
<text text-anchor="middle" x="397" y="-203" font-family="Helvetica,sans-Serif" font-size="10.00">::_initStartParams</text>
</a>
</g>
</g>
<!-- Node3&#45;&gt;Node6 -->
<g id="edge5" class="edge"><title>Node3&#45;&gt;Node6</title>
<path fill="none" stroke="midnightblue" d="M283.375,-179.821C302.485,-185.112 323.221,-190.852 341.63,-195.948"/>
<polygon fill="midnightblue" stroke="midnightblue" points="284.121,-176.396 273.55,-177.101 282.254,-183.143 284.121,-176.396"/>
</g>
<!-- Node7 -->
<g id="node7" class="node"><title>Node7</title>
<g id="a_node7"><a xlink:href="classVoxel_1_1TI_1_1HaddockCDKCamera.xhtml#a4e8e32000eca9b81bc6401a8d512cbc7" target="_top" xlink:title="Voxel::TI::HaddockCDKCamera\l::_initStartParams">
<polygon fill="none" stroke="black" points="318,-147 318,-177 476,-177 476,-147 318,-147"/>
<text text-anchor="start" x="326" y="-165" font-family="Helvetica,sans-Serif" font-size="10.00">Voxel::TI::HaddockCDKCamera</text>
<text text-anchor="middle" x="397" y="-154" font-family="Helvetica,sans-Serif" font-size="10.00">::_initStartParams</text>
</a>
</g>
</g>
<!-- Node3&#45;&gt;Node7 -->
<g id="edge6" class="edge"><title>Node3&#45;&gt;Node7</title>
<path fill="none" stroke="midnightblue" d="M285.051,-162C295.701,-162 306.816,-162 317.721,-162"/>
<polygon fill="midnightblue" stroke="midnightblue" points="285.004,-158.5 275.004,-162 285.004,-165.5 285.004,-158.5"/>
</g>
<!-- Node8 -->
<g id="node8" class="node"><title>Node8</title>
<g id="a_node8"><a xlink:href="classVoxel_1_1TI_1_1ToFCalculusCamera.xhtml#adf420ba5e95dcb0cbd3da90f446242d9" target="_top" xlink:title="Voxel::TI::ToFCalculusCamera\l::_initStartParams">
<polygon fill="none" stroke="black" points="321,-98 321,-128 473,-128 473,-98 321,-98"/>
<text text-anchor="start" x="329" y="-116" font-family="Helvetica,sans-Serif" font-size="10.00">Voxel::TI::ToFCalculusCamera</text>
<text text-anchor="middle" x="397" y="-105" font-family="Helvetica,sans-Serif" font-size="10.00">::_initStartParams</text>
</a>
</g>
</g>
<!-- Node3&#45;&gt;Node8 -->
<g id="edge7" class="edge"><title>Node3&#45;&gt;Node8</title>
<path fill="none" stroke="midnightblue" d="M283.375,-144.179C302.485,-138.888 323.221,-133.148 341.63,-128.052"/>
<polygon fill="midnightblue" stroke="midnightblue" points="282.254,-140.857 273.55,-146.899 284.121,-147.604 282.254,-140.857"/>
</g>
<!-- Node10 -->
<g id="node10" class="node"><title>Node10</title>
<g id="a_node10"><a xlink:href="classVoxel_1_1TI_1_1ToFTintinCamera.xhtml#a17729406fadceea890b4e0e079aede46" target="_top" xlink:title="Voxel::TI::ToFTintinCamera\l::_initStartParams">
<polygon fill="none" stroke="black" points="328,-49 328,-79 466,-79 466,-49 328,-49"/>
<text text-anchor="start" x="336" y="-67" font-family="Helvetica,sans-Serif" font-size="10.00">Voxel::TI::ToFTintinCamera</text>
<text text-anchor="middle" x="397" y="-56" font-family="Helvetica,sans-Serif" font-size="10.00">::_initStartParams</text>
</a>
</g>
</g>
<!-- Node3&#45;&gt;Node10 -->
<g id="edge9" class="edge"><title>Node3&#45;&gt;Node10</title>
<path fill="none" stroke="midnightblue" d="M243.397,-140.474C262.575,-124.461 290.551,-103.039 318,-89 325.216,-85.3091 333.086,-82.0224 340.961,-79.1429"/>
<polygon fill="midnightblue" stroke="midnightblue" points="241.104,-137.829 235.743,-146.967 245.633,-143.166 241.104,-137.829"/>
</g>
<!-- Node5 -->
<g id="node5" class="node"><title>Node5</title>
<g id="a_node5"><a xlink:href="classVoxel_1_1TI_1_1Voxel14Camera.xhtml#ad5dcde935444ac28a6e0b5705f504573" target="_top" xlink:title="Voxel::TI::Voxel14Camera\l::_initStartParams">
<polygon fill="none" stroke="black" points="525,-245 525,-275 657,-275 657,-245 525,-245"/>
<text text-anchor="start" x="533" y="-263" font-family="Helvetica,sans-Serif" font-size="10.00">Voxel::TI::Voxel14Camera</text>
<text text-anchor="middle" x="591" y="-252" font-family="Helvetica,sans-Serif" font-size="10.00">::_initStartParams</text>
</a>
</g>
</g>
<!-- Node4&#45;&gt;Node5 -->
<g id="edge4" class="edge"><title>Node4&#45;&gt;Node5</title>
<path fill="none" stroke="midnightblue" d="M483.994,-260C497.67,-260 511.62,-260 524.718,-260"/>
<polygon fill="midnightblue" stroke="midnightblue" points="483.608,-256.5 473.608,-260 483.608,-263.5 483.608,-256.5"/>
</g>
<!-- Node9 -->
<g id="node9" class="node"><title>Node9</title>
<g id="a_node9"><a xlink:href="classVoxel_1_1TI_1_1CalculusCDKCamera.xhtml#a2474713056342fa6774ff5a165961052" target="_top" xlink:title="Voxel::TI::CalculusCDKCamera\l::_initStartParams">
<polygon fill="none" stroke="black" points="512.5,-98 512.5,-128 669.5,-128 669.5,-98 512.5,-98"/>
<text text-anchor="start" x="520.5" y="-116" font-family="Helvetica,sans-Serif" font-size="10.00">Voxel::TI::CalculusCDKCamera</text>
<text text-anchor="middle" x="591" y="-105" font-family="Helvetica,sans-Serif" font-size="10.00">::_initStartParams</text>
</a>
</g>
</g>
<!-- Node8&#45;&gt;Node9 -->
<g id="edge8" class="edge"><title>Node8&#45;&gt;Node9</title>
<path fill="none" stroke="midnightblue" d="M483.152,-113C492.908,-113 502.816,-113 512.465,-113"/>
<polygon fill="midnightblue" stroke="midnightblue" points="483.057,-109.5 473.057,-113 483.057,-116.5 483.057,-109.5"/>
</g>
<!-- Node11 -->
<g id="node11" class="node"><title>Node11</title>
<g id="a_node11"><a xlink:href="classVoxel_1_1TI_1_1TintinCDKCamera.xhtml#a35274b5fd95ea088be4bc0637328d5f4" target="_top" xlink:title="Voxel::TI::TintinCDKCamera\l::_initStartParams">
<polygon fill="none" stroke="black" points="519.5,-49 519.5,-79 662.5,-79 662.5,-49 519.5,-49"/>
<text text-anchor="start" x="527.5" y="-67" font-family="Helvetica,sans-Serif" font-size="10.00">Voxel::TI::TintinCDKCamera</text>
<text text-anchor="middle" x="591" y="-56" font-family="Helvetica,sans-Serif" font-size="10.00">::_initStartParams</text>
</a>
</g>
</g>
<!-- Node10&#45;&gt;Node11 -->
<g id="edge10" class="edge"><title>Node10&#45;&gt;Node11</title>
<path fill="none" stroke="midnightblue" d="M476.469,-64C490.68,-64 505.423,-64 519.392,-64"/>
<polygon fill="midnightblue" stroke="midnightblue" points="476.233,-60.5001 466.233,-64 476.233,-67.5001 476.233,-60.5001"/>
</g>
<!-- Node12 -->
<g id="node12" class="node"><title>Node12</title>
<g id="a_node12"><a xlink:href="classVoxel_1_1TI_1_1VoxelDCamera.xhtml#ae0706724a5ebbb978d41fb2633af5040" target="_top" xlink:title="Voxel::TI::VoxelDCamera\l::_initStartParams">
<polygon fill="none" stroke="black" points="526.5,-0 526.5,-30 655.5,-30 655.5,-0 526.5,-0"/>
<text text-anchor="start" x="534.5" y="-18" font-family="Helvetica,sans-Serif" font-size="10.00">Voxel::TI::VoxelDCamera</text>
<text text-anchor="middle" x="591" y="-7" font-family="Helvetica,sans-Serif" font-size="10.00">::_initStartParams</text>
</a>
</g>
</g>
<!-- Node10&#45;&gt;Node12 -->
<g id="edge11" class="edge"><title>Node10&#45;&gt;Node12</title>
<path fill="none" stroke="midnightblue" d="M466.767,-46.4502C487.851,-41.0694 510.845,-35.201 531.2,-30.0062"/>
<polygon fill="midnightblue" stroke="midnightblue" points="465.735,-43.1012 456.911,-48.9654 467.466,-49.8838 465.735,-43.1012"/>
</g>
</g>
</svg>
        <g id="navigator" transform="translate(0 0)" fill="#404254">
                <rect fill="#f2f5e9" fill-opacity="0.5" stroke="#606060" stroke-width=".5" x="0" y="0" width="60" height="60"/>
                <use id="zoomplus" xlink:href="#zoomPlus" x="17" y="9" onmousedown="handleZoom(evt,'in')"/>
                <use id="zoomminus" xlink:href="#zoomMin" x="42" y="9" onmousedown="handleZoom(evt,'out')"/>
                <use id="reset" xlink:href="#resetDef" x="30" y="36" onmousedown="handleReset()"/>
                <g id="arrowUp" xlink:href="#dirArrow" transform="translate(30 24)" onmousedown="handlePan(0,-1)">
                  <use xlink:href="#rim" fill="#404040">
                        <set attributeName="fill" to="#808080" begin="arrowUp.mouseover" end="arrowUp.mouseout"/>
                  </use>
                  <path fill="none" stroke="white" stroke-width="1.5" d="M0,-3.0v7 M-2.5,-0.5L0,-3.0L2.5,-0.5"/>
                </g>
                <g id="arrowRight" xlink:href="#dirArrow" transform="rotate(90) translate(36 -43)" onmousedown="handlePan(1,0)">
                  <use xlink:href="#rim" fill="#404040">
                        <set attributeName="fill" to="#808080" begin="arrowRight.mouseover" end="arrowRight.mouseout"/>
                  </use>
                  <path fill="none" stroke="white" stroke-width="1.5" d="M0,-3.0v7 M-2.5,-0.5L0,-3.0L2.5,-0.5"/>
                </g>
                <g id="arrowDown" xlink:href="#dirArrow" transform="rotate(180) translate(-30 -48)" onmousedown="handlePan(0,1)">
                  <use xlink:href="#rim" fill="#404040">
                        <set attributeName="fill" to="#808080" begin="arrowDown.mouseover" end="arrowDown.mouseout"/>
                  </use>
                  <path fill="none" stroke="white" stroke-width="1.5" d="M0,-3.0v7 M-2.5,-0.5L0,-3.0L2.5,-0.5"/>
                </g>
                <g id="arrowLeft" xlink:href="#dirArrow" transform="rotate(270) translate(-36 17)" onmousedown="handlePan(-1,0)">
                  <use xlink:href="#rim" fill="#404040">
                        <set attributeName="fill" to="#808080" begin="arrowLeft.mouseover" end="arrowLeft.mouseout"/>
                  </use>
                  <path fill="none" stroke="white" stroke-width="1.5" d="M0,-3.0v7 M-2.5,-0.5L0,-3.0L2.5,-0.5"/>
                </g>
        </g>
        <svg viewBox="0 0 15 15" width="100%" height="30px" preserveAspectRatio="xMaxYMin meet">
         <g id="arrow_out" transform="scale(0.3 0.3)">
          <a xlink:href="classVoxel_1_1TI_1_1ToFCamera_af3a59471799f2526c520511f688d247c_icgraph_org.svg" target="_base">
           <rect id="button" ry="5" rx="5" y="6" x="6" height="38" width="38"
                fill="#f2f5e9" fill-opacity="0.5" stroke="#606060" stroke-width="1.0"/>
           <path id="arrow"
             d="M 11.500037,31.436501 C 11.940474,20.09759 22.043105,11.32322 32.158766,21.979434 L 37.068811,17.246167 C 37.068811,17.246167 37.088388,32 37.088388,32 L 22.160133,31.978069 C 22.160133,31.978069 26.997745,27.140456 26.997745,27.140456 C 18.528582,18.264221 13.291696,25.230495 11.500037,31.436501 z"
             style="fill:#404040;"/>
          </a>
         </g>
        </svg>
</svg>
