<?xml version="1.0" encoding="UTF-8" standalone="no"?>
<!DOCTYPE svg PUBLIC "-//W3C//DTD SVG 1.1//EN"
 "http://www.w3.org/Graphics/SVG/1.1/DTD/svg11.dtd">
<!-- Generated by graphviz version 2.36.0 (20140111.2315)
 -->
<!-- Title: Voxel::ConfigurationFile::setFile Pages: 1 -->
<svg width="820pt" height="101pt"
 viewBox="0.00 0.00 820.00 101.00" xmlns="http://www.w3.org/2000/svg" xmlns:xlink="http://www.w3.org/1999/xlink">
<g id="graph0" class="graph" transform="scale(1 1) rotate(0) translate(4 97)">
<title>Voxel::ConfigurationFile::setFile</title>
<!-- Node1 -->
<g id="node1" class="node"><title>Node1</title>
<polygon fill="#bfbfbf" stroke="black" points="0.5,-37 0.5,-67 121.5,-67 121.5,-37 0.5,-37"/>
<text text-anchor="start" x="8.5" y="-55" font-family="Helvetica,sans-Serif" font-size="10.00">Voxel::ConfigurationFile</text>
<text text-anchor="middle" x="61" y="-44" font-family="Helvetica,sans-Serif" font-size="10.00">::setFile</text>
</g>
<!-- Node2 -->
<g id="node2" class="node"><title>Node2</title>
<g id="a_node2"><a xlink:href="classVoxel_1_1ConfigurationFile.xhtml#ac398ce9d525c69b44afbd639d83be00f" target="_top" xlink:title="Voxel::ConfigurationFile\l::_setData">
<polygon fill="none" stroke="black" points="167.5,-60 167.5,-90 288.5,-90 288.5,-60 167.5,-60"/>
<text text-anchor="start" x="175.5" y="-78" font-family="Helvetica,sans-Serif" font-size="10.00">Voxel::ConfigurationFile</text>
<text text-anchor="middle" x="228" y="-67" font-family="Helvetica,sans-Serif" font-size="10.00">::_setData</text>
</a>
</g>
</g>
<!-- Node1&#45;&gt;Node2 -->
<g id="edge1" class="edge"><title>Node1&#45;&gt;Node2</title>
<path fill="none" stroke="midnightblue" d="M121.569,-60.3035C133.063,-61.9058 145.203,-63.598 156.994,-65.2416"/>
<polygon fill="midnightblue" stroke="midnightblue" points="156.854,-68.7559 167.242,-66.6701 157.821,-61.8229 156.854,-68.7559"/>
</g>
<!-- Node4 -->
<g id="node4" class="node"><title>Node4</title>
<g id="a_node4"><a xlink:href="classVoxel_1_1ConfigurationFile.xhtml#a440d9dd2f89d0c76c81f7285b31a5b94" target="_top" xlink:title="Voxel::ConfigurationFile::set">
<polygon fill="none" stroke="black" points="158,-19.5 158,-38.5 298,-38.5 298,-19.5 158,-19.5"/>
<text text-anchor="middle" x="228" y="-26.5" font-family="Helvetica,sans-Serif" font-size="10.00">Voxel::ConfigurationFile::set</text>
</a>
</g>
</g>
<!-- Node1&#45;&gt;Node4 -->
<g id="edge3" class="edge"><title>Node1&#45;&gt;Node4</title>
<path fill="none" stroke="midnightblue" d="M121.569,-43.6965C130.449,-42.4586 139.715,-41.167 148.907,-39.8857"/>
<polygon fill="midnightblue" stroke="midnightblue" points="149.41,-43.3495 158.831,-38.5023 148.444,-36.4165 149.41,-43.3495"/>
</g>
<!-- Node3 -->
<g id="node3" class="node"><title>Node3</title>
<g id="a_node3"><a xlink:href="classVoxel_1_1Configuration.xhtml#abfeffa3f26a5d905901c85a8889823d7" target="_top" xlink:title="Voxel::Configuration\l::getLocalConfFile">
<polygon fill="none" stroke="black" points="342.5,-63 342.5,-93 447.5,-93 447.5,-63 342.5,-63"/>
<text text-anchor="start" x="350.5" y="-81" font-family="Helvetica,sans-Serif" font-size="10.00">Voxel::Configuration</text>
<text text-anchor="middle" x="395" y="-70" font-family="Helvetica,sans-Serif" font-size="10.00">::getLocalConfFile</text>
</a>
</g>
</g>
<!-- Node2&#45;&gt;Node3 -->
<g id="edge2" class="edge"><title>Node2&#45;&gt;Node3</title>
<path fill="none" stroke="midnightblue" d="M288.569,-76.0831C302.756,-76.341 317.927,-76.6168 332.211,-76.8766"/>
<polygon fill="midnightblue" stroke="midnightblue" points="332.367,-80.3799 342.429,-77.0624 332.495,-73.381 332.367,-80.3799"/>
</g>
<!-- Node5 -->
<g id="node5" class="node"><title>Node5</title>
<g id="a_node5"><a xlink:href="classVoxel_1_1ConfigurationFile.xhtml#a3b9b573c1a3d9162fc0100c317ca0879" target="_top" xlink:title="Voxel::ConfigurationFile\l::_set">
<polygon fill="none" stroke="black" points="334.5,-14 334.5,-44 455.5,-44 455.5,-14 334.5,-14"/>
<text text-anchor="start" x="342.5" y="-32" font-family="Helvetica,sans-Serif" font-size="10.00">Voxel::ConfigurationFile</text>
<text text-anchor="middle" x="395" y="-21" font-family="Helvetica,sans-Serif" font-size="10.00">::_set</text>
</a>
</g>
</g>
<!-- Node4&#45;&gt;Node5 -->
<g id="edge4" class="edge"><title>Node4&#45;&gt;Node5</title>
<path fill="none" stroke="midnightblue" d="M298.019,-22.3307C306.715,-22.2257 315.616,-22.2231 324.321,-22.323"/>
<polygon fill="midnightblue" stroke="midnightblue" points="324.372,-25.8242 334.428,-22.4872 324.486,-18.8251 324.372,-25.8242"/>
</g>
<!-- Node5&#45;&gt;Node4 -->
<g id="edge9" class="edge"><title>Node5&#45;&gt;Node4</title>
<path fill="none" stroke="midnightblue" d="M334.428,-35.5128C325.936,-35.6928 317.092,-35.7703 308.297,-35.7455"/>
<polygon fill="midnightblue" stroke="midnightblue" points="308.045,-32.2436 298.019,-35.6693 307.993,-39.2434 308.045,-32.2436"/>
</g>
<!-- Node6 -->
<g id="node6" class="node"><title>Node6</title>
<g id="a_node6"><a xlink:href="classVoxel_1_1ConfigSet.xhtml#a8fb880c24ad7b0f04c84d4a33becb995" target="_top" xlink:title="Voxel::ConfigSet::_set">
<polygon fill="none" stroke="black" points="492,-19.5 492,-38.5 608,-38.5 608,-19.5 492,-19.5"/>
<text text-anchor="middle" x="550" y="-26.5" font-family="Helvetica,sans-Serif" font-size="10.00">Voxel::ConfigSet::_set</text>
</a>
</g>
</g>
<!-- Node5&#45;&gt;Node6 -->
<g id="edge5" class="edge"><title>Node5&#45;&gt;Node6</title>
<path fill="none" stroke="midnightblue" d="M455.592,-29C464.156,-29 473.017,-29 481.717,-29"/>
<polygon fill="midnightblue" stroke="midnightblue" points="481.828,-32.5001 491.828,-29 481.828,-25.5001 481.828,-32.5001"/>
</g>
<!-- Node7 -->
<g id="node7" class="node"><title>Node7</title>
<g id="a_node7"><a xlink:href="group__Util.xhtml#ga6b2a26aa983349496fedae9aa54ad034" target="_top" xlink:title="Trim. ">
<polygon fill="none" stroke="black" points="644,-19.5 644,-38.5 708,-38.5 708,-19.5 644,-19.5"/>
<text text-anchor="middle" x="676" y="-26.5" font-family="Helvetica,sans-Serif" font-size="10.00">Voxel::trim</text>
</a>
</g>
</g>
<!-- Node6&#45;&gt;Node7 -->
<g id="edge6" class="edge"><title>Node6&#45;&gt;Node7</title>
<path fill="none" stroke="midnightblue" d="M608.281,-29C616.753,-29 625.343,-29 633.413,-29"/>
<polygon fill="midnightblue" stroke="midnightblue" points="633.67,-32.5001 643.67,-29 633.669,-25.5001 633.67,-32.5001"/>
</g>
<!-- Node8 -->
<g id="node8" class="node"><title>Node8</title>
<g id="a_node8"><a xlink:href="group__Util.xhtml#gac9c04e18f7878dd82964bb489b7b1314" target="_top" xlink:title="Left Trim. ">
<polygon fill="none" stroke="black" points="745,-38.5 745,-57.5 811,-57.5 811,-38.5 745,-38.5"/>
<text text-anchor="middle" x="778" y="-45.5" font-family="Helvetica,sans-Serif" font-size="10.00">Voxel::ltrim</text>
</a>
</g>
</g>
<!-- Node7&#45;&gt;Node8 -->
<g id="edge7" class="edge"><title>Node7&#45;&gt;Node8</title>
<path fill="none" stroke="midnightblue" d="M708.092,-34.9076C716.591,-36.5222 725.943,-38.2992 734.943,-40.0092"/>
<polygon fill="midnightblue" stroke="midnightblue" points="734.413,-43.471 744.891,-41.8992 735.72,-36.5941 734.413,-43.471"/>
</g>
<!-- Node9 -->
<g id="node9" class="node"><title>Node9</title>
<g id="a_node9"><a xlink:href="group__Util.xhtml#ga3d95f05dde73bc9c54051437445e439b" target="_top" xlink:title="Right Trim. ">
<polygon fill="none" stroke="black" points="744.5,-0.5 744.5,-19.5 811.5,-19.5 811.5,-0.5 744.5,-0.5"/>
<text text-anchor="middle" x="778" y="-7.5" font-family="Helvetica,sans-Serif" font-size="10.00">Voxel::rtrim</text>
</a>
</g>
</g>
<!-- Node7&#45;&gt;Node9 -->
<g id="edge8" class="edge"><title>Node7&#45;&gt;Node9</title>
<path fill="none" stroke="midnightblue" d="M708.092,-23.0924C716.334,-21.5265 725.38,-19.8078 734.128,-18.1456"/>
<polygon fill="midnightblue" stroke="midnightblue" points="735.025,-21.538 744.196,-16.2328 733.718,-14.661 735.025,-21.538"/>
</g>
</g>
</svg>
