<?xml version="1.0" encoding="UTF-8" standalone="no"?>
<!DOCTYPE svg PUBLIC "-//W3C//DTD SVG 1.1//EN"
 "http://www.w3.org/Graphics/SVG/1.1/DTD/svg11.dtd">
<!-- Generated by graphviz version 2.36.0 (20140111.2315)
 -->
<!-- Title: Voxel::CameraSystem Pages: 1 -->
<svg width="418pt" height="140pt"
 viewBox="0.00 0.00 418.00 140.00" xmlns="http://www.w3.org/2000/svg" xmlns:xlink="http://www.w3.org/1999/xlink">
<g id="graph0" class="graph" transform="scale(1 1) rotate(0) translate(4 136)">
<title>Voxel::CameraSystem</title>
<!-- Node1 -->
<g id="node1" class="node"><title>Node1</title>
<polygon fill="#bfbfbf" stroke="black" points="128,-0.5 128,-19.5 244,-19.5 244,-0.5 128,-0.5"/>
<text text-anchor="middle" x="186" y="-7.5" font-family="Helvetica,sans-Serif" font-size="10.00">Voxel::CameraSystem</text>
</g>
<!-- Node2 -->
<g id="node2" class="node"><title>Node2</title>
<polygon fill="none" stroke="#bfbfbf" points="-0.5,-106.5 -0.5,-125.5 106.5,-125.5 106.5,-106.5 -0.5,-106.5"/>
<text text-anchor="middle" x="53" y="-113.5" font-family="Helvetica,sans-Serif" font-size="10.00">Vector&lt; Voxel::Ptr &gt;</text>
</g>
<!-- Node2&#45;&gt;Node1 -->
<g id="edge1" class="edge"><title>Node2&#45;&gt;Node1</title>
<path fill="none" stroke="#9a32cd" stroke-dasharray="5,2" d="M68.762,-99.0385C85.3861,-82.6617 112.758,-56.9663 139,-38 148.457,-31.1647 159.78,-24.6164 168.942,-19.6807"/>
<polygon fill="#9a32cd" stroke="#9a32cd" points="66.1291,-96.7211 61.5166,-106.259 71.0704,-101.679 66.1291,-96.7211"/>
<text text-anchor="middle" x="160.5" y="-57.5" font-family="Helvetica,sans-Serif" font-size="10.00"> _libraries</text>
</g>
<!-- Node3 -->
<g id="node3" class="node"><title>Node3</title>
<polygon fill="none" stroke="#bfbfbf" points="125,-101 125,-131 247,-131 247,-101 125,-101"/>
<text text-anchor="start" x="133" y="-119" font-family="Helvetica,sans-Serif" font-size="10.00">Map&lt; GeneratorIDType,</text>
<text text-anchor="middle" x="186" y="-108" font-family="Helvetica,sans-Serif" font-size="10.00"> Voxel::Ptr &gt;</text>
</g>
<!-- Node3&#45;&gt;Node1 -->
<g id="edge2" class="edge"><title>Node3&#45;&gt;Node1</title>
<path fill="none" stroke="#9a32cd" stroke-dasharray="5,2" d="M186,-90.712C186,-67.9212 186,-35.097 186,-19.6533"/>
<polygon fill="#9a32cd" stroke="#9a32cd" points="182.5,-90.9741 186,-100.974 189.5,-90.9741 182.5,-90.9741"/>
<text text-anchor="middle" x="239" y="-57.5" font-family="Helvetica,sans-Serif" font-size="10.00"> _factoryForGeneratorID</text>
</g>
<!-- Node4 -->
<g id="node4" class="node"><title>Node4</title>
<polygon fill="none" stroke="#bfbfbf" points="265.5,-101 265.5,-131 366.5,-131 366.5,-101 265.5,-101"/>
<text text-anchor="start" x="273.5" y="-119" font-family="Helvetica,sans-Serif" font-size="10.00">Map&lt; String, Voxel</text>
<text text-anchor="middle" x="316" y="-108" font-family="Helvetica,sans-Serif" font-size="10.00">::Ptr &gt;</text>
</g>
<!-- Node4&#45;&gt;Node1 -->
<g id="edge3" class="edge"><title>Node4&#45;&gt;Node1</title>
<path fill="none" stroke="#9a32cd" stroke-dasharray="5,2" d="M315.204,-90.6297C313.34,-73.6325 308.1,-51.6378 294,-38 280.664,-25.1007 262.142,-18.0791 244.2,-14.3407"/>
<polygon fill="#9a32cd" stroke="#9a32cd" points="311.741,-91.2388 316,-100.94 318.72,-90.6997 311.741,-91.2388"/>
<text text-anchor="middle" x="362" y="-74" font-family="Helvetica,sans-Serif" font-size="10.00"> _depthCameras</text>
<text text-anchor="middle" x="362" y="-63" font-family="Helvetica,sans-Serif" font-size="10.00">_downloaderFactories</text>
<text text-anchor="middle" x="362" y="-52" font-family="Helvetica,sans-Serif" font-size="10.00">_filterFactories</text>
<text text-anchor="middle" x="362" y="-41" font-family="Helvetica,sans-Serif" font-size="10.00">_factories</text>
</g>
</g>
</svg>
