<?xml version="1.0" encoding="UTF-8" standalone="no"?>
<!DOCTYPE svg PUBLIC "-//W3C//DTD SVG 1.1//EN"
 "http://www.w3.org/Graphics/SVG/1.1/DTD/svg11.dtd">
<!-- Generated by graphviz version 2.36.0 (20140111.2315)
 -->
<!-- Title: Voxel::VideoMode::getFrameRate Pages: 1 -->
<svg width="672pt" height="407pt"
 viewBox="0.00 0.00 672.00 407.00" xmlns="http://www.w3.org/2000/svg" xmlns:xlink="http://www.w3.org/1999/xlink">
<g id="graph0" class="graph" transform="scale(1 1) rotate(0) translate(4 403)">
<title>Voxel::VideoMode::getFrameRate</title>
<!-- Node1 -->
<g id="node1" class="node"><title>Node1</title>
<polygon fill="#bfbfbf" stroke="black" points="0,-259.5 0,-278.5 164,-278.5 164,-259.5 0,-259.5"/>
<text text-anchor="middle" x="82" y="-266.5" font-family="Helvetica,sans-Serif" font-size="10.00">Voxel::VideoMode::getFrameRate</text>
</g>
<!-- Node2 -->
<g id="node2" class="node"><title>Node2</title>
<g id="a_node2"><a xlink:href="classVoxel_1_1TI_1_1ToFCameraBase.xhtml#a4c7e80209e0a350ec9cfb601e7ec75e2" target="_top" xlink:title="Voxel::TI::ToFCameraBase\l::_onReset">
<polygon fill="none" stroke="black" points="200.5,-369 200.5,-399 337.5,-399 337.5,-369 200.5,-369"/>
<text text-anchor="start" x="208.5" y="-387" font-family="Helvetica,sans-Serif" font-size="10.00">Voxel::TI::ToFCameraBase</text>
<text text-anchor="middle" x="269" y="-376" font-family="Helvetica,sans-Serif" font-size="10.00">::_onReset</text>
</a>
</g>
</g>
<!-- Node1&#45;&gt;Node2 -->
<g id="edge1" class="edge"><title>Node1&#45;&gt;Node2</title>
<path fill="none" stroke="midnightblue" d="M100.728,-285.437C122.659,-305.08 161.795,-337.93 200,-359 206.608,-362.645 213.855,-365.954 221.076,-368.885"/>
<polygon fill="midnightblue" stroke="midnightblue" points="102.96,-282.736 93.2027,-278.607 98.2556,-287.919 102.96,-282.736"/>
</g>
<!-- Node3 -->
<g id="node3" class="node"><title>Node3</title>
<g id="a_node3"><a xlink:href="classVoxel_1_1TI_1_1ToFCameraBase.xhtml#a3a536998145a2cab4265de9e342a5920" target="_top" xlink:title="Voxel::TI::ToFCameraBase\l::_start">
<polygon fill="none" stroke="black" points="200.5,-320 200.5,-350 337.5,-350 337.5,-320 200.5,-320"/>
<text text-anchor="start" x="208.5" y="-338" font-family="Helvetica,sans-Serif" font-size="10.00">Voxel::TI::ToFCameraBase</text>
<text text-anchor="middle" x="269" y="-327" font-family="Helvetica,sans-Serif" font-size="10.00">::_start</text>
</a>
</g>
</g>
<!-- Node1&#45;&gt;Node3 -->
<g id="edge2" class="edge"><title>Node1&#45;&gt;Node3</title>
<path fill="none" stroke="midnightblue" d="M119.321,-281.958C149.855,-292.851 193.537,-308.435 225.654,-319.893"/>
<polygon fill="midnightblue" stroke="midnightblue" points="120.495,-278.661 109.901,-278.597 118.143,-285.254 120.495,-278.661"/>
</g>
<!-- Node4 -->
<g id="node4" class="node"><title>Node4</title>
<g id="a_node4"><a xlink:href="classVoxel_1_1CLIManager.xhtml#a1caa7d89cf577f4728a114e78d1a5ba3" target="_top" xlink:title="Voxel::CLIManager::\l_videoMode">
<polygon fill="none" stroke="black" points="392.5,-276 392.5,-306 499.5,-306 499.5,-276 392.5,-276"/>
<text text-anchor="start" x="400.5" y="-294" font-family="Helvetica,sans-Serif" font-size="10.00">Voxel::CLIManager::</text>
<text text-anchor="middle" x="446" y="-283" font-family="Helvetica,sans-Serif" font-size="10.00">_videoMode</text>
</a>
</g>
</g>
<!-- Node1&#45;&gt;Node4 -->
<g id="edge3" class="edge"><title>Node1&#45;&gt;Node4</title>
<path fill="none" stroke="midnightblue" d="M174.228,-274.544C243.114,-278.731 335.23,-284.329 392.307,-287.798"/>
<polygon fill="midnightblue" stroke="midnightblue" points="174.434,-271.05 164.24,-273.937 174.009,-278.037 174.434,-271.05"/>
</g>
<!-- Node6 -->
<g id="node6" class="node"><title>Node6</title>
<g id="a_node6"><a xlink:href="classVoxel_1_1CLIManager.xhtml#a2672bb26d3423d3cc587f7871a4741cd" target="_top" xlink:title="Voxel::CLIManager::\l_videoModeCapabilities">
<polygon fill="none" stroke="black" points="209,-232 209,-262 329,-262 329,-232 209,-232"/>
<text text-anchor="start" x="217" y="-250" font-family="Helvetica,sans-Serif" font-size="10.00">Voxel::CLIManager::</text>
<text text-anchor="middle" x="269" y="-239" font-family="Helvetica,sans-Serif" font-size="10.00">_videoModeCapabilities</text>
</a>
</g>
</g>
<!-- Node1&#45;&gt;Node6 -->
<g id="edge5" class="edge"><title>Node1&#45;&gt;Node6</title>
<path fill="none" stroke="midnightblue" d="M173.178,-258.276C185.249,-256.841 197.374,-255.399 208.728,-254.049"/>
<polygon fill="midnightblue" stroke="midnightblue" points="172.584,-254.822 163.068,-259.478 173.411,-261.773 172.584,-254.822"/>
</g>
<!-- Node7 -->
<g id="node7" class="node"><title>Node7</title>
<g id="a_node7"><a xlink:href="UVCStreamerTest_8cpp.xhtml#a0ddf1224851353fc92bfbff6f499fa97" target="_top" xlink:title="main">
<polygon fill="none" stroke="black" points="427,-196.5 427,-215.5 465,-215.5 465,-196.5 427,-196.5"/>
<text text-anchor="middle" x="446" y="-203.5" font-family="Helvetica,sans-Serif" font-size="10.00">main</text>
</a>
</g>
</g>
<!-- Node1&#45;&gt;Node7 -->
<g id="edge8" class="edge"><title>Node1&#45;&gt;Node7</title>
<path fill="none" stroke="midnightblue" d="M111.135,-255.116C134.366,-244.35 168.516,-230.104 200,-223 283.182,-204.229 385.928,-204.412 426.899,-205.39"/>
<polygon fill="midnightblue" stroke="midnightblue" points="109.433,-252.049 101.887,-259.486 112.424,-258.378 109.433,-252.049"/>
</g>
<!-- Node8 -->
<g id="node8" class="node"><title>Node8</title>
<g id="a_node8"><a xlink:href="classVoxel_1_1UVCStreamer.xhtml#a7babd2f4cbe6152499b4c49b0137b6b4" target="_top" xlink:title="Voxel::UVCStreamer\l::setVideoMode">
<polygon fill="none" stroke="black" points="214.5,-121 214.5,-151 323.5,-151 323.5,-121 214.5,-121"/>
<text text-anchor="start" x="222.5" y="-139" font-family="Helvetica,sans-Serif" font-size="10.00">Voxel::UVCStreamer</text>
<text text-anchor="middle" x="269" y="-128" font-family="Helvetica,sans-Serif" font-size="10.00">::setVideoMode</text>
</a>
</g>
</g>
<!-- Node1&#45;&gt;Node8 -->
<g id="edge9" class="edge"><title>Node1&#45;&gt;Node8</title>
<path fill="none" stroke="midnightblue" d="M104.589,-253.48C140.333,-227.782 211.376,-176.708 246.837,-151.214"/>
<polygon fill="midnightblue" stroke="midnightblue" points="102.381,-250.756 96.3047,-259.435 106.467,-256.439 102.381,-250.756"/>
</g>
<!-- Node5 -->
<g id="node5" class="node"><title>Node5</title>
<g id="a_node5"><a xlink:href="classVoxel_1_1CLIManager.xhtml#a7a7ce51202c00d16a0e1cac5dcceb1e0" target="_top" xlink:title="Voxel::CLIManager::\lCLIManager">
<polygon fill="none" stroke="black" points="555.5,-254 555.5,-284 662.5,-284 662.5,-254 555.5,-254"/>
<text text-anchor="start" x="563.5" y="-272" font-family="Helvetica,sans-Serif" font-size="10.00">Voxel::CLIManager::</text>
<text text-anchor="middle" x="609" y="-261" font-family="Helvetica,sans-Serif" font-size="10.00">CLIManager</text>
</a>
</g>
</g>
<!-- Node4&#45;&gt;Node5 -->
<g id="edge4" class="edge"><title>Node4&#45;&gt;Node5</title>
<path fill="none" stroke="midnightblue" d="M509.969,-282.396C525.015,-280.34 540.919,-278.166 555.439,-276.182"/>
<polygon fill="midnightblue" stroke="midnightblue" points="509.151,-278.975 499.717,-283.796 510.099,-285.91 509.151,-278.975"/>
</g>
<!-- Node6&#45;&gt;Node4 -->
<g id="edge6" class="edge"><title>Node6&#45;&gt;Node4</title>
<path fill="none" stroke="midnightblue" d="M338.971,-264.341C356.706,-268.8 375.506,-273.527 392.272,-277.743"/>
<polygon fill="midnightblue" stroke="midnightblue" points="339.799,-260.941 329.247,-261.896 338.092,-267.729 339.799,-260.941"/>
</g>
<!-- Node6&#45;&gt;Node5 -->
<g id="edge7" class="edge"><title>Node6&#45;&gt;Node5</title>
<path fill="none" stroke="midnightblue" d="M339.287,-251.51C403.409,-255.683 497.343,-261.797 555.476,-265.581"/>
<polygon fill="midnightblue" stroke="midnightblue" points="339.468,-248.014 329.262,-250.857 339.013,-254.999 339.468,-248.014"/>
</g>
<!-- Node8&#45;&gt;Node7 -->
<g id="edge15" class="edge"><title>Node8&#45;&gt;Node7</title>
<path fill="none" stroke="midnightblue" d="M307.261,-155.857C326.781,-165.758 351.292,-177.418 374,-186 391.609,-192.656 412.406,-198.262 426.923,-201.83"/>
<polygon fill="midnightblue" stroke="midnightblue" points="308.604,-152.612 298.109,-151.159 305.407,-158.839 308.604,-152.612"/>
</g>
<!-- Node9 -->
<g id="node9" class="node"><title>Node9</title>
<g id="a_node9"><a xlink:href="classVoxel_1_1UVCStreamer.xhtml#acc806ec3fc0f1e55739a844a0ff0f3c0" target="_top" xlink:title="Voxel::UVCStreamer\l::_initForCapture">
<polygon fill="none" stroke="black" points="391.5,-147 391.5,-177 500.5,-177 500.5,-147 391.5,-147"/>
<text text-anchor="start" x="399.5" y="-165" font-family="Helvetica,sans-Serif" font-size="10.00">Voxel::UVCStreamer</text>
<text text-anchor="middle" x="446" y="-154" font-family="Helvetica,sans-Serif" font-size="10.00">::_initForCapture</text>
</a>
</g>
</g>
<!-- Node8&#45;&gt;Node9 -->
<g id="edge10" class="edge"><title>Node8&#45;&gt;Node9</title>
<path fill="none" stroke="midnightblue" d="M333.907,-145.495C352.73,-148.291 373.127,-151.322 391.244,-154.013"/>
<polygon fill="midnightblue" stroke="midnightblue" points="334.34,-142.021 323.934,-144.013 333.311,-148.945 334.34,-142.021"/>
</g>
<!-- Node11 -->
<g id="node11" class="node"><title>Node11</title>
<g id="a_node11"><a xlink:href="classVoxel_1_1TI_1_1Voxel14Camera.xhtml#afeb9b488760b3c32cf6d5decb25bfdcf" target="_top" xlink:title="Voxel::TI::Voxel14Camera\l::_setStreamerFrameSize">
<polygon fill="none" stroke="black" points="380,-98 380,-128 512,-128 512,-98 380,-98"/>
<text text-anchor="start" x="388" y="-116" font-family="Helvetica,sans-Serif" font-size="10.00">Voxel::TI::Voxel14Camera</text>
<text text-anchor="middle" x="446" y="-105" font-family="Helvetica,sans-Serif" font-size="10.00">::_setStreamerFrameSize</text>
</a>
</g>
</g>
<!-- Node8&#45;&gt;Node11 -->
<g id="edge12" class="edge"><title>Node8&#45;&gt;Node11</title>
<path fill="none" stroke="midnightblue" d="M334.08,-127.578C348.995,-125.618 364.891,-123.529 379.852,-121.562"/>
<polygon fill="midnightblue" stroke="midnightblue" points="333.392,-124.138 323.934,-128.912 334.305,-131.079 333.392,-124.138"/>
</g>
<!-- Node12 -->
<g id="node12" class="node"><title>Node12</title>
<g id="a_node12"><a xlink:href="classVoxel_1_1TI_1_1VoxelDCamera.xhtml#aa13368de49716d5ec7ed82df1010a6b0" target="_top" xlink:title="Voxel::TI::VoxelDCamera\l::_setStreamerFrameSize">
<polygon fill="none" stroke="black" points="381.5,-49 381.5,-79 510.5,-79 510.5,-49 381.5,-49"/>
<text text-anchor="start" x="389.5" y="-67" font-family="Helvetica,sans-Serif" font-size="10.00">Voxel::TI::VoxelDCamera</text>
<text text-anchor="middle" x="446" y="-56" font-family="Helvetica,sans-Serif" font-size="10.00">::_setStreamerFrameSize</text>
</a>
</g>
</g>
<!-- Node8&#45;&gt;Node12 -->
<g id="edge13" class="edge"><title>Node8&#45;&gt;Node12</title>
<path fill="none" stroke="midnightblue" d="M309.632,-116.502C328.856,-107.356 352.409,-96.6033 374,-88 381.736,-84.9175 390.041,-81.8762 398.148,-79.0482"/>
<polygon fill="midnightblue" stroke="midnightblue" points="308.075,-113.367 300.57,-120.846 311.101,-119.679 308.075,-113.367"/>
</g>
<!-- Node13 -->
<g id="node13" class="node"><title>Node13</title>
<g id="a_node13"><a xlink:href="classVoxel_1_1TI_1_1TintinCDKCamera.xhtml#a2ffbaceb53ded2b382116ac66b787698" target="_top" xlink:title="Voxel::TI::TintinCDKCamera\l::_setStreamerFrameSize">
<polygon fill="none" stroke="black" points="374.5,-0 374.5,-30 517.5,-30 517.5,-0 374.5,-0"/>
<text text-anchor="start" x="382.5" y="-18" font-family="Helvetica,sans-Serif" font-size="10.00">Voxel::TI::TintinCDKCamera</text>
<text text-anchor="middle" x="446" y="-7" font-family="Helvetica,sans-Serif" font-size="10.00">::_setStreamerFrameSize</text>
</a>
</g>
</g>
<!-- Node8&#45;&gt;Node13 -->
<g id="edge14" class="edge"><title>Node8&#45;&gt;Node13</title>
<path fill="none" stroke="midnightblue" d="M289.389,-112.963C308.806,-91.194 340.541,-58.9782 374,-39 379.586,-35.6648 385.698,-32.7168 391.918,-30.1321"/>
<polygon fill="midnightblue" stroke="midnightblue" points="286.527,-110.918 282.572,-120.747 291.793,-115.53 286.527,-110.918"/>
</g>
<!-- Node10 -->
<g id="node10" class="node"><title>Node10</title>
<g id="a_node10"><a xlink:href="classVoxel_1_1UVCStreamer.xhtml#a3bf08c2dd6922d8e4a44a63840095d97" target="_top" xlink:title="Voxel::UVCStreamer\l::_start">
<polygon fill="none" stroke="black" points="554.5,-147 554.5,-177 663.5,-177 663.5,-147 554.5,-147"/>
<text text-anchor="start" x="562.5" y="-165" font-family="Helvetica,sans-Serif" font-size="10.00">Voxel::UVCStreamer</text>
<text text-anchor="middle" x="609" y="-154" font-family="Helvetica,sans-Serif" font-size="10.00">::_start</text>
</a>
</g>
</g>
<!-- Node9&#45;&gt;Node10 -->
<g id="edge11" class="edge"><title>Node9&#45;&gt;Node10</title>
<path fill="none" stroke="midnightblue" d="M510.927,-162C525.312,-162 540.435,-162 554.349,-162"/>
<polygon fill="midnightblue" stroke="midnightblue" points="510.611,-158.5 500.611,-162 510.611,-165.5 510.611,-158.5"/>
</g>
</g>
</svg>
