<?xml version="1.0" encoding="UTF-8" standalone="no"?>
<!DOCTYPE svg PUBLIC "-//W3C//DTD SVG 1.1//EN"
 "http://www.w3.org/Graphics/SVG/1.1/DTD/svg11.dtd">
<!-- Generated by graphviz version 2.36.0 (20140111.2315)
 -->
<!-- Title: Voxel::Data2DCodec::decompress Pages: 1 -->
<svg width="1326pt" height="283pt"
 viewBox="0.00 0.00 1326.00 283.00" xmlns="http://www.w3.org/2000/svg" xmlns:xlink="http://www.w3.org/1999/xlink">
<g id="graph0" class="graph" transform="scale(1 1) rotate(0) translate(4 279)">
<title>Voxel::Data2DCodec::decompress</title>
<!-- Node1 -->
<g id="node1" class="node"><title>Node1</title>
<polygon fill="#bfbfbf" stroke="black" points="0,-169 0,-199 110,-199 110,-169 0,-169"/>
<text text-anchor="start" x="8" y="-187" font-family="Helvetica,sans-Serif" font-size="10.00">Voxel::Data2DCodec</text>
<text text-anchor="middle" x="55" y="-176" font-family="Helvetica,sans-Serif" font-size="10.00">::decompress</text>
</g>
<!-- Node2 -->
<g id="node2" class="node"><title>Node2</title>
<g id="a_node2"><a xlink:href="Data2DCodecTest_8cpp.xhtml#a0ddf1224851353fc92bfbff6f499fa97" target="_top" xlink:title="main">
<polygon fill="none" stroke="black" points="190,-196.5 190,-215.5 228,-215.5 228,-196.5 190,-196.5"/>
<text text-anchor="middle" x="209" y="-203.5" font-family="Helvetica,sans-Serif" font-size="10.00">main</text>
</a>
</g>
</g>
<!-- Node1&#45;&gt;Node2 -->
<g id="edge1" class="edge"><title>Node1&#45;&gt;Node2</title>
<path fill="none" stroke="midnightblue" d="M120.009,-193.264C145.411,-196.941 172.647,-200.883 189.976,-203.391"/>
<polygon fill="midnightblue" stroke="midnightblue" points="120.416,-189.787 110.017,-191.818 119.413,-196.715 120.416,-189.787"/>
</g>
<!-- Node3 -->
<g id="node3" class="node"><title>Node3</title>
<g id="a_node3"><a xlink:href="classVoxel_1_1MainConfigurationFile.xhtml#ab801a8f7e2eabaf3f524877c5c257fa2" target="_top" xlink:title="Voxel::MainConfiguration\lFile::readFromHardware">
<polygon fill="none" stroke="black" points="146,-147 146,-177 272,-177 272,-147 146,-147"/>
<text text-anchor="start" x="154" y="-165" font-family="Helvetica,sans-Serif" font-size="10.00">Voxel::MainConfiguration</text>
<text text-anchor="middle" x="209" y="-154" font-family="Helvetica,sans-Serif" font-size="10.00">File::readFromHardware</text>
</a>
</g>
</g>
<!-- Node1&#45;&gt;Node3 -->
<g id="edge2" class="edge"><title>Node1&#45;&gt;Node3</title>
<path fill="none" stroke="midnightblue" d="M119.96,-174.743C128.534,-173.502 137.318,-172.23 145.861,-170.994"/>
<polygon fill="midnightblue" stroke="midnightblue" points="119.413,-171.285 110.017,-176.182 120.416,-178.213 119.413,-171.285"/>
</g>
<!-- Node4 -->
<g id="node4" class="node"><title>Node4</title>
<g id="a_node4"><a xlink:href="classVoxel_1_1DepthCamera.xhtml#aeca7a6cb1df8643f0b38745286ac2844" target="_top" xlink:title="Voxel::DepthCamera\l::_init">
<polygon fill="none" stroke="black" points="308,-147 308,-177 416,-177 416,-147 308,-147"/>
<text text-anchor="start" x="316" y="-165" font-family="Helvetica,sans-Serif" font-size="10.00">Voxel::DepthCamera</text>
<text text-anchor="middle" x="362" y="-154" font-family="Helvetica,sans-Serif" font-size="10.00">::_init</text>
</a>
</g>
</g>
<!-- Node3&#45;&gt;Node4 -->
<g id="edge3" class="edge"><title>Node3&#45;&gt;Node4</title>
<path fill="none" stroke="midnightblue" d="M282.376,-162C291.014,-162 299.705,-162 307.999,-162"/>
<polygon fill="midnightblue" stroke="midnightblue" points="282.289,-158.5 272.289,-162 282.289,-165.5 282.289,-158.5"/>
</g>
<!-- Node5 -->
<g id="node5" class="node"><title>Node5</title>
<g id="a_node5"><a xlink:href="classVoxel_1_1TI_1_1ToFCameraBase.xhtml#a34c90601da611e5cb61bd7a35f03a5f7" target="_top" xlink:title="Voxel::TI::ToFCameraBase\l::_init">
<polygon fill="none" stroke="black" points="452.5,-147 452.5,-177 589.5,-177 589.5,-147 452.5,-147"/>
<text text-anchor="start" x="460.5" y="-165" font-family="Helvetica,sans-Serif" font-size="10.00">Voxel::TI::ToFCameraBase</text>
<text text-anchor="middle" x="521" y="-154" font-family="Helvetica,sans-Serif" font-size="10.00">::_init</text>
</a>
</g>
</g>
<!-- Node4&#45;&gt;Node5 -->
<g id="edge4" class="edge"><title>Node4&#45;&gt;Node5</title>
<path fill="none" stroke="midnightblue" d="M426.157,-162C434.803,-162 443.708,-162 452.428,-162"/>
<polygon fill="midnightblue" stroke="midnightblue" points="426.153,-158.5 416.153,-162 426.153,-165.5 426.153,-158.5"/>
</g>
<!-- Node6 -->
<g id="node6" class="node"><title>Node6</title>
<g id="a_node6"><a xlink:href="classVoxel_1_1TI_1_1ToFCamera.xhtml#a8fd9aae6546d426f494b20633a881442" target="_top" xlink:title="Voxel::TI::ToFCamera\l::_init">
<polygon fill="none" stroke="black" points="626,-147 626,-177 740,-177 740,-147 626,-147"/>
<text text-anchor="start" x="634" y="-165" font-family="Helvetica,sans-Serif" font-size="10.00">Voxel::TI::ToFCamera</text>
<text text-anchor="middle" x="683" y="-154" font-family="Helvetica,sans-Serif" font-size="10.00">::_init</text>
</a>
</g>
</g>
<!-- Node5&#45;&gt;Node6 -->
<g id="edge5" class="edge"><title>Node5&#45;&gt;Node6</title>
<path fill="none" stroke="midnightblue" d="M599.978,-162C608.636,-162 617.325,-162 625.639,-162"/>
<polygon fill="midnightblue" stroke="midnightblue" points="599.854,-158.5 589.854,-162 599.854,-165.5 599.854,-158.5"/>
</g>
<!-- Node7 -->
<g id="node7" class="node"><title>Node7</title>
<g id="a_node7"><a xlink:href="classVoxel_1_1TI_1_1ToFCalculusCamera.xhtml#aa931ad7b5e4b84779df941814c2a5b17" target="_top" xlink:title="Voxel::TI::ToFCalculusCamera\l::_init">
<polygon fill="none" stroke="black" points="777,-220 777,-250 929,-250 929,-220 777,-220"/>
<text text-anchor="start" x="785" y="-238" font-family="Helvetica,sans-Serif" font-size="10.00">Voxel::TI::ToFCalculusCamera</text>
<text text-anchor="middle" x="853" y="-227" font-family="Helvetica,sans-Serif" font-size="10.00">::_init</text>
</a>
</g>
</g>
<!-- Node6&#45;&gt;Node7 -->
<g id="edge6" class="edge"><title>Node6&#45;&gt;Node7</title>
<path fill="none" stroke="midnightblue" d="M728.303,-181.251C756.11,-193.334 791.454,-208.691 817.235,-219.894"/>
<polygon fill="midnightblue" stroke="midnightblue" points="729.376,-177.901 718.81,-177.126 726.586,-184.321 729.376,-177.901"/>
</g>
<!-- Node10 -->
<g id="node10" class="node"><title>Node10</title>
<g id="a_node10"><a xlink:href="classVoxel_1_1TI_1_1ToFHaddockCamera.xhtml#a749a2bbcdbfa69054d523866504743d1" target="_top" xlink:title="Voxel::TI::ToFHaddockCamera\l::_init">
<polygon fill="none" stroke="black" points="776.5,-147 776.5,-177 929.5,-177 929.5,-147 776.5,-147"/>
<text text-anchor="start" x="784.5" y="-165" font-family="Helvetica,sans-Serif" font-size="10.00">Voxel::TI::ToFHaddockCamera</text>
<text text-anchor="middle" x="853" y="-154" font-family="Helvetica,sans-Serif" font-size="10.00">::_init</text>
</a>
</g>
</g>
<!-- Node6&#45;&gt;Node10 -->
<g id="edge9" class="edge"><title>Node6&#45;&gt;Node10</title>
<path fill="none" stroke="midnightblue" d="M750.582,-162C759.043,-162 767.751,-162 776.341,-162"/>
<polygon fill="midnightblue" stroke="midnightblue" points="750.409,-158.5 740.409,-162 750.409,-165.5 750.409,-158.5"/>
</g>
<!-- Node17 -->
<g id="node17" class="node"><title>Node17</title>
<g id="a_node17"><a xlink:href="classVoxel_1_1TI_1_1ToFTintinCamera.xhtml#af894a732f4beedc37144927eec93cc89" target="_top" xlink:title="Voxel::TI::ToFTintinCamera\l::_init">
<polygon fill="none" stroke="black" points="784,-49 784,-79 922,-79 922,-49 784,-49"/>
<text text-anchor="start" x="792" y="-67" font-family="Helvetica,sans-Serif" font-size="10.00">Voxel::TI::ToFTintinCamera</text>
<text text-anchor="middle" x="853" y="-56" font-family="Helvetica,sans-Serif" font-size="10.00">::_init</text>
</a>
</g>
</g>
<!-- Node6&#45;&gt;Node17 -->
<g id="edge16" class="edge"><title>Node6&#45;&gt;Node17</title>
<path fill="none" stroke="midnightblue" d="M718.88,-141.653C750.812,-123.026 797.343,-95.8834 826.089,-79.1149"/>
<polygon fill="midnightblue" stroke="midnightblue" points="716.756,-138.84 709.882,-146.902 720.283,-144.887 716.756,-138.84"/>
</g>
<!-- Node8 -->
<g id="node8" class="node"><title>Node8</title>
<g id="a_node8"><a xlink:href="classVoxel_1_1TI_1_1CalculusCDKCamera.xhtml#a82eb752fb0d4b63495d2e29b6b8aed2c" target="_top" xlink:title="Voxel::TI::CalculusCDKCamera\l::_init">
<polygon fill="none" stroke="black" points="966.5,-245 966.5,-275 1123.5,-275 1123.5,-245 966.5,-245"/>
<text text-anchor="start" x="974.5" y="-263" font-family="Helvetica,sans-Serif" font-size="10.00">Voxel::TI::CalculusCDKCamera</text>
<text text-anchor="middle" x="1045" y="-252" font-family="Helvetica,sans-Serif" font-size="10.00">::_init</text>
</a>
</g>
</g>
<!-- Node7&#45;&gt;Node8 -->
<g id="edge7" class="edge"><title>Node7&#45;&gt;Node8</title>
<path fill="none" stroke="midnightblue" d="M939.219,-246.213C948.249,-247.401 957.398,-248.605 966.334,-249.781"/>
<polygon fill="midnightblue" stroke="midnightblue" points="939.464,-242.715 929.093,-244.881 938.551,-249.655 939.464,-242.715"/>
</g>
<!-- Node9 -->
<g id="node9" class="node"><title>Node9</title>
<g id="a_node9"><a xlink:href="classVoxel_1_1TI_1_1CalculusCDKCamera.xhtml#af406b1427962d80da9af9fb24e89b239" target="_top" xlink:title="Voxel::TI::CalculusCDKCamera\l::CalculusCDKCamera">
<polygon fill="none" stroke="black" points="1160.5,-245 1160.5,-275 1317.5,-275 1317.5,-245 1160.5,-245"/>
<text text-anchor="start" x="1168.5" y="-263" font-family="Helvetica,sans-Serif" font-size="10.00">Voxel::TI::CalculusCDKCamera</text>
<text text-anchor="middle" x="1239" y="-252" font-family="Helvetica,sans-Serif" font-size="10.00">::CalculusCDKCamera</text>
</a>
</g>
</g>
<!-- Node8&#45;&gt;Node9 -->
<g id="edge8" class="edge"><title>Node8&#45;&gt;Node9</title>
<path fill="none" stroke="midnightblue" d="M1133.6,-260C1142.57,-260 1151.64,-260 1160.48,-260"/>
<polygon fill="midnightblue" stroke="midnightblue" points="1133.54,-256.5 1123.54,-260 1133.54,-263.5 1133.54,-256.5"/>
</g>
<!-- Node11 -->
<g id="node11" class="node"><title>Node11</title>
<g id="a_node11"><a xlink:href="classVoxel_1_1TI_1_1HaddockCDKCamera.xhtml#a7dff103da3145dd303a5bc0db75ae961" target="_top" xlink:title="Voxel::TI::HaddockCDKCamera\l::_init">
<polygon fill="none" stroke="black" points="966,-196 966,-226 1124,-226 1124,-196 966,-196"/>
<text text-anchor="start" x="974" y="-214" font-family="Helvetica,sans-Serif" font-size="10.00">Voxel::TI::HaddockCDKCamera</text>
<text text-anchor="middle" x="1045" y="-203" font-family="Helvetica,sans-Serif" font-size="10.00">::_init</text>
</a>
</g>
</g>
<!-- Node10&#45;&gt;Node11 -->
<g id="edge10" class="edge"><title>Node10&#45;&gt;Node11</title>
<path fill="none" stroke="midnightblue" d="M922.05,-179.55C942.915,-184.931 965.67,-190.799 985.813,-195.994"/>
<polygon fill="midnightblue" stroke="midnightblue" points="922.855,-176.143 912.297,-177.035 921.107,-182.921 922.855,-176.143"/>
</g>
<!-- Node13 -->
<g id="node13" class="node"><title>Node13</title>
<g id="a_node13"><a xlink:href="classVoxel_1_1TI_1_1RTS5825Camera.xhtml#af7d33e164feac1c63726d2757227c3bc" target="_top" xlink:title="Voxel::TI::RTS5825Camera\l::_init">
<polygon fill="none" stroke="black" points="976,-147 976,-177 1114,-177 1114,-147 976,-147"/>
<text text-anchor="start" x="984" y="-165" font-family="Helvetica,sans-Serif" font-size="10.00">Voxel::TI::RTS5825Camera</text>
<text text-anchor="middle" x="1045" y="-154" font-family="Helvetica,sans-Serif" font-size="10.00">::_init</text>
</a>
</g>
</g>
<!-- Node10&#45;&gt;Node13 -->
<g id="edge12" class="edge"><title>Node10&#45;&gt;Node13</title>
<path fill="none" stroke="midnightblue" d="M939.704,-162C951.764,-162 964.025,-162 975.7,-162"/>
<polygon fill="midnightblue" stroke="midnightblue" points="939.639,-158.5 929.639,-162 939.639,-165.5 939.639,-158.5"/>
</g>
<!-- Node15 -->
<g id="node15" class="node"><title>Node15</title>
<g id="a_node15"><a xlink:href="classVoxel_1_1TI_1_1Voxel14Camera.xhtml#a89011bfb795ff58d3fb8675364b91abe" target="_top" xlink:title="Voxel::TI::Voxel14Camera\l::_init">
<polygon fill="none" stroke="black" points="979,-98 979,-128 1111,-128 1111,-98 979,-98"/>
<text text-anchor="start" x="987" y="-116" font-family="Helvetica,sans-Serif" font-size="10.00">Voxel::TI::Voxel14Camera</text>
<text text-anchor="middle" x="1045" y="-105" font-family="Helvetica,sans-Serif" font-size="10.00">::_init</text>
</a>
</g>
</g>
<!-- Node10&#45;&gt;Node15 -->
<g id="edge14" class="edge"><title>Node10&#45;&gt;Node15</title>
<path fill="none" stroke="midnightblue" d="M922.05,-144.45C942.915,-139.069 965.67,-133.201 985.813,-128.006"/>
<polygon fill="midnightblue" stroke="midnightblue" points="921.107,-141.079 912.297,-146.965 922.855,-147.857 921.107,-141.079"/>
</g>
<!-- Node12 -->
<g id="node12" class="node"><title>Node12</title>
<g id="a_node12"><a xlink:href="classVoxel_1_1TI_1_1HaddockCDKCamera.xhtml#ac2c5e82486c4cc3f5edada38cd4274c5" target="_top" xlink:title="Voxel::TI::HaddockCDKCamera\l::HaddockCDKCamera">
<polygon fill="none" stroke="black" points="1160,-196 1160,-226 1318,-226 1318,-196 1160,-196"/>
<text text-anchor="start" x="1168" y="-214" font-family="Helvetica,sans-Serif" font-size="10.00">Voxel::TI::HaddockCDKCamera</text>
<text text-anchor="middle" x="1239" y="-203" font-family="Helvetica,sans-Serif" font-size="10.00">::HaddockCDKCamera</text>
</a>
</g>
</g>
<!-- Node11&#45;&gt;Node12 -->
<g id="edge11" class="edge"><title>Node11&#45;&gt;Node12</title>
<path fill="none" stroke="midnightblue" d="M1134.15,-211C1142.77,-211 1151.47,-211 1159.98,-211"/>
<polygon fill="midnightblue" stroke="midnightblue" points="1134.09,-207.5 1124.09,-211 1134.09,-214.5 1134.09,-207.5"/>
</g>
<!-- Node14 -->
<g id="node14" class="node"><title>Node14</title>
<g id="a_node14"><a xlink:href="classVoxel_1_1TI_1_1RTS5825Camera.xhtml#a7a242f28e79a95d9a918946beb0b0461" target="_top" xlink:title="Voxel::TI::RTS5825Camera\l::RTS5825Camera">
<polygon fill="none" stroke="black" points="1170,-147 1170,-177 1308,-177 1308,-147 1170,-147"/>
<text text-anchor="start" x="1178" y="-165" font-family="Helvetica,sans-Serif" font-size="10.00">Voxel::TI::RTS5825Camera</text>
<text text-anchor="middle" x="1239" y="-154" font-family="Helvetica,sans-Serif" font-size="10.00">::RTS5825Camera</text>
</a>
</g>
</g>
<!-- Node13&#45;&gt;Node14 -->
<g id="edge13" class="edge"><title>Node13&#45;&gt;Node14</title>
<path fill="none" stroke="midnightblue" d="M1124.55,-162C1139.62,-162 1155.28,-162 1169.99,-162"/>
<polygon fill="midnightblue" stroke="midnightblue" points="1124.23,-158.5 1114.23,-162 1124.23,-165.5 1124.23,-158.5"/>
</g>
<!-- Node16 -->
<g id="node16" class="node"><title>Node16</title>
<g id="a_node16"><a xlink:href="classVoxel_1_1TI_1_1Voxel14Camera.xhtml#a606f13ed73547ee43f585e241b42dd5d" target="_top" xlink:title="Voxel::TI::Voxel14Camera\l::Voxel14Camera">
<polygon fill="none" stroke="black" points="1173,-98 1173,-128 1305,-128 1305,-98 1173,-98"/>
<text text-anchor="start" x="1181" y="-116" font-family="Helvetica,sans-Serif" font-size="10.00">Voxel::TI::Voxel14Camera</text>
<text text-anchor="middle" x="1239" y="-105" font-family="Helvetica,sans-Serif" font-size="10.00">::Voxel14Camera</text>
</a>
</g>
</g>
<!-- Node15&#45;&gt;Node16 -->
<g id="edge15" class="edge"><title>Node15&#45;&gt;Node16</title>
<path fill="none" stroke="midnightblue" d="M1121.42,-113C1138.38,-113 1156.24,-113 1172.74,-113"/>
<polygon fill="midnightblue" stroke="midnightblue" points="1121,-109.5 1111,-113 1121,-116.5 1121,-109.5"/>
</g>
<!-- Node18 -->
<g id="node18" class="node"><title>Node18</title>
<g id="a_node18"><a xlink:href="classVoxel_1_1TI_1_1TintinCDKCamera.xhtml#af5337f40c1a075c026263ea9871a20ee" target="_top" xlink:title="Voxel::TI::TintinCDKCamera\l::_init">
<polygon fill="none" stroke="black" points="973.5,-49 973.5,-79 1116.5,-79 1116.5,-49 973.5,-49"/>
<text text-anchor="start" x="981.5" y="-67" font-family="Helvetica,sans-Serif" font-size="10.00">Voxel::TI::TintinCDKCamera</text>
<text text-anchor="middle" x="1045" y="-56" font-family="Helvetica,sans-Serif" font-size="10.00">::_init</text>
</a>
</g>
</g>
<!-- Node17&#45;&gt;Node18 -->
<g id="edge17" class="edge"><title>Node17&#45;&gt;Node18</title>
<path fill="none" stroke="midnightblue" d="M932.309,-64C945.859,-64 959.877,-64 973.213,-64"/>
<polygon fill="midnightblue" stroke="midnightblue" points="932.058,-60.5001 922.058,-64 932.058,-67.5001 932.058,-60.5001"/>
</g>
<!-- Node20 -->
<g id="node20" class="node"><title>Node20</title>
<g id="a_node20"><a xlink:href="classVoxel_1_1TI_1_1VoxelDCamera.xhtml#a47b15c40c3fbcc52ae1eb3c9fe74d9f1" target="_top" xlink:title="Voxel::TI::VoxelDCamera\l::_init">
<polygon fill="none" stroke="black" points="980.5,-0 980.5,-30 1109.5,-30 1109.5,-0 980.5,-0"/>
<text text-anchor="start" x="988.5" y="-18" font-family="Helvetica,sans-Serif" font-size="10.00">Voxel::TI::VoxelDCamera</text>
<text text-anchor="middle" x="1045" y="-7" font-family="Helvetica,sans-Serif" font-size="10.00">::_init</text>
</a>
</g>
</g>
<!-- Node17&#45;&gt;Node20 -->
<g id="edge19" class="edge"><title>Node17&#45;&gt;Node20</title>
<path fill="none" stroke="midnightblue" d="M922.05,-46.4502C942.915,-41.0694 965.67,-35.201 985.813,-30.0062"/>
<polygon fill="midnightblue" stroke="midnightblue" points="921.107,-43.079 912.297,-48.9654 922.855,-49.8572 921.107,-43.079"/>
</g>
<!-- Node19 -->
<g id="node19" class="node"><title>Node19</title>
<g id="a_node19"><a xlink:href="classVoxel_1_1TI_1_1TintinCDKCamera.xhtml#a7a9918bb8b6d76bc3511536019847c1d" target="_top" xlink:title="Voxel::TI::TintinCDKCamera\l::TintinCDKCamera">
<polygon fill="none" stroke="black" points="1167.5,-49 1167.5,-79 1310.5,-79 1310.5,-49 1167.5,-49"/>
<text text-anchor="start" x="1175.5" y="-67" font-family="Helvetica,sans-Serif" font-size="10.00">Voxel::TI::TintinCDKCamera</text>
<text text-anchor="middle" x="1239" y="-56" font-family="Helvetica,sans-Serif" font-size="10.00">::TintinCDKCamera</text>
</a>
</g>
</g>
<!-- Node18&#45;&gt;Node19 -->
<g id="edge18" class="edge"><title>Node18&#45;&gt;Node19</title>
<path fill="none" stroke="midnightblue" d="M1126.89,-64C1140.38,-64 1154.27,-64 1167.47,-64"/>
<polygon fill="midnightblue" stroke="midnightblue" points="1126.68,-60.5001 1116.68,-64 1126.68,-67.5001 1126.68,-60.5001"/>
</g>
<!-- Node21 -->
<g id="node21" class="node"><title>Node21</title>
<g id="a_node21"><a xlink:href="classVoxel_1_1TI_1_1VoxelDCamera.xhtml#a4a95cf8257e2f9f5fd34386b87f6663a" target="_top" xlink:title="Voxel::TI::VoxelDCamera\l::VoxelDCamera">
<polygon fill="none" stroke="black" points="1174.5,-0 1174.5,-30 1303.5,-30 1303.5,-0 1174.5,-0"/>
<text text-anchor="start" x="1182.5" y="-18" font-family="Helvetica,sans-Serif" font-size="10.00">Voxel::TI::VoxelDCamera</text>
<text text-anchor="middle" x="1239" y="-7" font-family="Helvetica,sans-Serif" font-size="10.00">::VoxelDCamera</text>
</a>
</g>
</g>
<!-- Node20&#45;&gt;Node21 -->
<g id="edge20" class="edge"><title>Node20&#45;&gt;Node21</title>
<path fill="none" stroke="midnightblue" d="M1119.79,-15C1137.72,-15 1156.75,-15 1174.18,-15"/>
<polygon fill="midnightblue" stroke="midnightblue" points="1119.67,-11.5001 1109.67,-15 1119.67,-18.5001 1119.67,-11.5001"/>
</g>
</g>
</svg>
