<?xml version="1.0" encoding="UTF-8" standalone="no"?>
<!DOCTYPE svg PUBLIC "-//W3C//DTD SVG 1.1//EN"
 "http://www.w3.org/Graphics/SVG/1.1/DTD/svg11.dtd">
<!-- Generated by graphviz version 2.36.0 (20140111.2315)
 -->
<!-- Title: TinyXML2::XMLNode::DeleteChild Pages: 1 -->
<!--zoomable 90 -->
<svg id="main" version="1.1" xmlns="http://www.w3.org/2000/svg" xmlns:xlink="http://www.w3.org/1999/xlink" xml:space="preserve" onload="init(evt)">
<style type="text/css"><![CDATA[
.edge:hover path { stroke: red; }
.edge:hover polygon { stroke: red; fill: red; }
]]></style>
<script type="text/javascript"><![CDATA[
var edges = document.getElementsByTagName('g');
if (edges && edges.length) {
  for (var i=0;i<edges.length;i++) {
    if (edges[i].id.substr(0,4)=='edge') {
      edges[i].setAttribute('class','edge');
    }
  }
}
]]></script>
        <defs>
                <circle id="rim" cx="0" cy="0" r="7"/>
                <circle id="rim2" cx="0" cy="0" r="3.5"/>
                <g id="zoomPlus">
                        <use xlink:href="#rim" fill="#404040">
                                <set attributeName="fill" to="#808080" begin="zoomplus.mouseover" end="zoomplus.mouseout"/>
                        </use>
                        <path d="M-4,0h8M0,-4v8" fill="none" stroke="white" stroke-width="1.5" pointer-events="none"/>
                </g>
                <g id="zoomMin">
                        <use xlink:href="#rim" fill="#404040">
                                <set attributeName="fill" to="#808080" begin="zoomminus.mouseover" end="zoomminus.mouseout"/>
                        </use>
                        <path d="M-4,0h8" fill="none" stroke="white" stroke-width="1.5" pointer-events="none"/>
                </g>
                <g id="dirArrow">
                        <path fill="none" stroke="white" stroke-width="1.5" d="M0,-3.0v7 M-2.5,-0.5L0,-3.0L2.5,-0.5"/>
                </g>
               <g id="resetDef">
                       <use xlink:href="#rim2" fill="#404040">
                               <set attributeName="fill" to="#808080" begin="reset.mouseover" end="reset.mouseout"/>
                       </use>
               </g>
        </defs>

<script type="text/javascript">
var viewWidth = 750;
var viewHeight = 90;
var sectionId = 'dynsection-4';
</script>
<script xlink:href="svgpan.js"/>
<svg id="graph" class="graph">
<g id="viewport">
<title>TinyXML2::XMLNode::DeleteChild</title>
<!-- Node1 -->
<g id="node1" class="node"><title>Node1</title>
<polygon fill="#bfbfbf" stroke="black" points="0,-8.49317 0,-38.4932 116,-38.4932 116,-8.49317 0,-8.49317"/>
<text text-anchor="start" x="8" y="-26.4932" font-family="Helvetica,sans-Serif" font-size="10.00">TinyXML2::XMLNode::</text>
<text text-anchor="middle" x="58" y="-15.4932" font-family="Helvetica,sans-Serif" font-size="10.00">DeleteChild</text>
</g>
<!-- Node2 -->
<g id="node2" class="node"><title>Node2</title>
<g id="a_node2"><a xlink:href="classTinyXML2_1_1XMLNode.xhtml#ae64fa52593db503652ee0258bf69d376" target="_top" xlink:title="TinyXML2::XMLNode::\lDeleteNode">
<polygon fill="none" stroke="black" points="152,-8.49317 152,-38.4932 268,-38.4932 268,-8.49317 152,-8.49317"/>
<text text-anchor="start" x="160" y="-26.4932" font-family="Helvetica,sans-Serif" font-size="10.00">TinyXML2::XMLNode::</text>
<text text-anchor="middle" x="210" y="-15.4932" font-family="Helvetica,sans-Serif" font-size="10.00">DeleteNode</text>
</a>
</g>
</g>
<!-- Node1&#45;&gt;Node2 -->
<g id="edge1" class="edge"><title>Node1&#45;&gt;Node2</title>
<path fill="none" stroke="midnightblue" d="M116.136,-23.4932C124.377,-23.4932 132.923,-23.4932 141.344,-23.4932"/>
<polygon fill="midnightblue" stroke="midnightblue" points="141.526,-26.9933 151.525,-23.4932 141.525,-19.9933 141.526,-26.9933"/>
</g>
<!-- Node3 -->
<g id="node3" class="node"><title>Node3</title>
<g id="a_node3"><a xlink:href="classTinyXML2_1_1XMLNode.xhtml#a5ce8791c0920489f9df667b0a0264935" target="_top" xlink:title="TinyXML2::XMLNode::\l~XMLNode">
<polygon fill="none" stroke="black" points="313,-52.4932 313,-82.4932 429,-82.4932 429,-52.4932 313,-52.4932"/>
<text text-anchor="start" x="321" y="-70.4932" font-family="Helvetica,sans-Serif" font-size="10.00">TinyXML2::XMLNode::</text>
<text text-anchor="middle" x="371" y="-59.4932" font-family="Helvetica,sans-Serif" font-size="10.00">~XMLNode</text>
</a>
</g>
</g>
<!-- Node2&#45;&gt;Node3 -->
<g id="edge2" class="edge"><title>Node2&#45;&gt;Node3</title>
<path fill="none" stroke="midnightblue" d="M265.274,-38.5124C278.377,-42.1384 292.5,-46.0466 306.002,-49.7831"/>
<polygon fill="midnightblue" stroke="midnightblue" points="305.129,-53.1731 315.701,-52.467 306.996,-46.4266 305.129,-53.1731"/>
</g>
<!-- Node6 -->
<g id="node6" class="node"><title>Node6</title>
<g id="a_node6"><a xlink:href="classTinyXML2_1_1MemPool.xhtml#af252371f4bf36310d2db949279b5ccf4" target="_top" xlink:title="TinyXML2::MemPool::Free">
<polygon fill="none" stroke="black" points="304,-13.9932 304,-32.9932 438,-32.9932 438,-13.9932 304,-13.9932"/>
<text text-anchor="middle" x="371" y="-20.9932" font-family="Helvetica,sans-Serif" font-size="10.00">TinyXML2::MemPool::Free</text>
</a>
</g>
</g>
<!-- Node2&#45;&gt;Node6 -->
<g id="edge7" class="edge"><title>Node2&#45;&gt;Node6</title>
<path fill="none" stroke="midnightblue" d="M268.403,-23.4932C276.561,-23.4932 285.056,-23.4932 293.505,-23.4932"/>
<polygon fill="midnightblue" stroke="midnightblue" points="293.764,-26.9933 303.764,-23.4932 293.764,-19.9933 293.764,-26.9933"/>
</g>
<!-- Node4 -->
<g id="node4" class="node"><title>Node4</title>
<g id="a_node4"><a xlink:href="classTinyXML2_1_1XMLNode.xhtml#ac71764a70bec2eb37ed1ee30c97b2b51" target="_top" xlink:title="TinyXML2::XMLNode::\lDeleteChildren">
<polygon fill="none" stroke="black" points="474,-8.49317 474,-38.4932 590,-38.4932 590,-8.49317 474,-8.49317"/>
<text text-anchor="start" x="482" y="-26.4932" font-family="Helvetica,sans-Serif" font-size="10.00">TinyXML2::XMLNode::</text>
<text text-anchor="middle" x="532" y="-15.4932" font-family="Helvetica,sans-Serif" font-size="10.00">DeleteChildren</text>
</a>
</g>
</g>
<!-- Node3&#45;&gt;Node4 -->
<g id="edge3" class="edge"><title>Node3&#45;&gt;Node4</title>
<path fill="none" stroke="midnightblue" d="M426.274,-52.4739C439.377,-48.848 453.5,-44.9397 467.002,-41.2033"/>
<polygon fill="midnightblue" stroke="midnightblue" points="467.996,-44.5597 476.701,-38.5194 466.129,-37.8133 467.996,-44.5597"/>
</g>
<!-- Node5 -->
<g id="node5" class="node"><title>Node5</title>
<g id="a_node5"><a xlink:href="classTinyXML2_1_1XMLNode.xhtml#a0fe718d6c3d1252c48992c1adc1ce93b" target="_top" xlink:title="TinyXML2::XMLNode::\lUnlink">
<polygon fill="none" stroke="black" points="626,-30.4932 626,-60.4932 742,-60.4932 742,-30.4932 626,-30.4932"/>
<text text-anchor="start" x="634" y="-48.4932" font-family="Helvetica,sans-Serif" font-size="10.00">TinyXML2::XMLNode::</text>
<text text-anchor="middle" x="684" y="-37.4932" font-family="Helvetica,sans-Serif" font-size="10.00">Unlink</text>
</a>
</g>
</g>
<!-- Node3&#45;&gt;Node5 -->
<g id="edge6" class="edge"><title>Node3&#45;&gt;Node5</title>
<path fill="none" stroke="midnightblue" d="M429.042,-63.458C481.704,-59.7328 559.958,-54.1971 615.665,-50.2564"/>
<polygon fill="midnightblue" stroke="midnightblue" points="616.066,-53.7369 625.794,-49.5399 615.572,-46.7544 616.066,-53.7369"/>
</g>
<!-- Node4&#45;&gt;Node2 -->
<g id="edge5" class="edge"><title>Node4&#45;&gt;Node2</title>
<path fill="none" stroke="midnightblue" d="M473.73,-9.91089C461.978,-7.65575 449.641,-5.67015 438,-4.49317 378.747,1.49772 363.253,1.49772 304,-4.49317 295.633,-5.33913 286.906,-6.60281 278.296,-8.08407"/>
<polygon fill="midnightblue" stroke="midnightblue" points="277.48,-4.67497 268.27,-9.91089 278.735,-11.5616 277.48,-4.67497"/>
</g>
<!-- Node4&#45;&gt;Node5 -->
<g id="edge4" class="edge"><title>Node4&#45;&gt;Node5</title>
<path fill="none" stroke="midnightblue" d="M590.136,-31.8732C598.468,-33.0951 607.111,-34.3628 615.622,-35.611"/>
<polygon fill="midnightblue" stroke="midnightblue" points="615.123,-39.0753 625.525,-37.0636 616.139,-32.1494 615.123,-39.0753"/>
</g>
</g>
</svg>
        <g id="navigator" transform="translate(0 0)" fill="#404254">
                <rect fill="#f2f5e9" fill-opacity="0.5" stroke="#606060" stroke-width=".5" x="0" y="0" width="60" height="60"/>
                <use id="zoomplus" xlink:href="#zoomPlus" x="17" y="9" onmousedown="handleZoom(evt,'in')"/>
                <use id="zoomminus" xlink:href="#zoomMin" x="42" y="9" onmousedown="handleZoom(evt,'out')"/>
                <use id="reset" xlink:href="#resetDef" x="30" y="36" onmousedown="handleReset()"/>
                <g id="arrowUp" xlink:href="#dirArrow" transform="translate(30 24)" onmousedown="handlePan(0,-1)">
                  <use xlink:href="#rim" fill="#404040">
                        <set attributeName="fill" to="#808080" begin="arrowUp.mouseover" end="arrowUp.mouseout"/>
                  </use>
                  <path fill="none" stroke="white" stroke-width="1.5" d="M0,-3.0v7 M-2.5,-0.5L0,-3.0L2.5,-0.5"/>
                </g>
                <g id="arrowRight" xlink:href="#dirArrow" transform="rotate(90) translate(36 -43)" onmousedown="handlePan(1,0)">
                  <use xlink:href="#rim" fill="#404040">
                        <set attributeName="fill" to="#808080" begin="arrowRight.mouseover" end="arrowRight.mouseout"/>
                  </use>
                  <path fill="none" stroke="white" stroke-width="1.5" d="M0,-3.0v7 M-2.5,-0.5L0,-3.0L2.5,-0.5"/>
                </g>
                <g id="arrowDown" xlink:href="#dirArrow" transform="rotate(180) translate(-30 -48)" onmousedown="handlePan(0,1)">
                  <use xlink:href="#rim" fill="#404040">
                        <set attributeName="fill" to="#808080" begin="arrowDown.mouseover" end="arrowDown.mouseout"/>
                  </use>
                  <path fill="none" stroke="white" stroke-width="1.5" d="M0,-3.0v7 M-2.5,-0.5L0,-3.0L2.5,-0.5"/>
                </g>
                <g id="arrowLeft" xlink:href="#dirArrow" transform="rotate(270) translate(-36 17)" onmousedown="handlePan(-1,0)">
                  <use xlink:href="#rim" fill="#404040">
                        <set attributeName="fill" to="#808080" begin="arrowLeft.mouseover" end="arrowLeft.mouseout"/>
                  </use>
                  <path fill="none" stroke="white" stroke-width="1.5" d="M0,-3.0v7 M-2.5,-0.5L0,-3.0L2.5,-0.5"/>
                </g>
        </g>
        <svg viewBox="0 0 15 15" width="100%" height="30px" preserveAspectRatio="xMaxYMin meet">
         <g id="arrow_out" transform="scale(0.3 0.3)">
          <a xlink:href="classTinyXML2_1_1XMLNode_a28b94200b666def2677964cb83df1569_cgraph_org.svg" target="_base">
           <rect id="button" ry="5" rx="5" y="6" x="6" height="38" width="38"
                fill="#f2f5e9" fill-opacity="0.5" stroke="#606060" stroke-width="1.0"/>
           <path id="arrow"
             d="M 11.500037,31.436501 C 11.940474,20.09759 22.043105,11.32322 32.158766,21.979434 L 37.068811,17.246167 C 37.068811,17.246167 37.088388,32 37.088388,32 L 22.160133,31.978069 C 22.160133,31.978069 26.997745,27.140456 26.997745,27.140456 C 18.528582,18.264221 13.291696,25.230495 11.500037,31.436501 z"
             style="fill:#404040;"/>
          </a>
         </g>
        </svg>
</svg>
