<?xml version="1.0" encoding="UTF-8" standalone="no"?>
<!DOCTYPE svg PUBLIC "-//W3C//DTD SVG 1.1//EN"
 "http://www.w3.org/Graphics/SVG/1.1/DTD/svg11.dtd">
<!-- Generated by graphviz version 2.36.0 (20140111.2315)
 -->
<!-- Title: Voxel::ToFRawFrame::amplitudeWordWidth Pages: 1 -->
<svg width="444pt" height="322pt"
 viewBox="0.00 0.00 444.00 322.00" xmlns="http://www.w3.org/2000/svg" xmlns:xlink="http://www.w3.org/1999/xlink">
<g id="graph0" class="graph" transform="scale(1 1) rotate(0) translate(4 318)">
<title>Voxel::ToFRawFrame::amplitudeWordWidth</title>
<!-- Node1 -->
<g id="node1" class="node"><title>Node1</title>
<polygon fill="#bfbfbf" stroke="black" points="0.5,-137 0.5,-167 113.5,-167 113.5,-137 0.5,-137"/>
<text text-anchor="start" x="8.5" y="-155" font-family="Helvetica,sans-Serif" font-size="10.00">Voxel::ToFRawFrame</text>
<text text-anchor="middle" x="57" y="-144" font-family="Helvetica,sans-Serif" font-size="10.00">::amplitudeWordWidth</text>
</g>
<!-- Node2 -->
<g id="node2" class="node"><title>Node2</title>
<g id="a_node2"><a xlink:href="classVoxel_1_1IIRFilter.xhtml#aa4bca190f415658c2208a17c8578ee79" target="_top" xlink:title="Voxel::IIRFilter::\l_filter">
<polygon fill="none" stroke="black" points="176.5,-284 176.5,-314 265.5,-314 265.5,-284 176.5,-284"/>
<text text-anchor="start" x="184.5" y="-302" font-family="Helvetica,sans-Serif" font-size="10.00">Voxel::IIRFilter::</text>
<text text-anchor="middle" x="221" y="-291" font-family="Helvetica,sans-Serif" font-size="10.00">_filter</text>
</a>
</g>
</g>
<!-- Node1&#45;&gt;Node2 -->
<g id="edge1" class="edge"><title>Node1&#45;&gt;Node2</title>
<path fill="none" stroke="midnightblue" d="M70.6076,-176.334C85.9353,-203.693 114.245,-247.719 150,-274 157.798,-279.732 167.036,-284.251 176.199,-287.776"/>
<polygon fill="midnightblue" stroke="midnightblue" points="73.5992,-174.509 65.7364,-167.408 67.4546,-177.863 73.5992,-174.509"/>
</g>
<!-- Node3 -->
<g id="node3" class="node"><title>Node3</title>
<g id="a_node3"><a xlink:href="classVoxel_1_1BilateralFilter.xhtml#a0cd1b7184773267bda5dcf78967b436e" target="_top" xlink:title="Voxel::BilateralFilter\l::_filter">
<polygon fill="none" stroke="black" points="169,-235 169,-265 273,-265 273,-235 169,-235"/>
<text text-anchor="start" x="177" y="-253" font-family="Helvetica,sans-Serif" font-size="10.00">Voxel::BilateralFilter</text>
<text text-anchor="middle" x="221" y="-242" font-family="Helvetica,sans-Serif" font-size="10.00">::_filter</text>
</a>
</g>
</g>
<!-- Node1&#45;&gt;Node3 -->
<g id="edge2" class="edge"><title>Node1&#45;&gt;Node3</title>
<path fill="none" stroke="midnightblue" d="M81.3427,-174.101C99.0709,-189.957 124.648,-210.923 150,-225 156.656,-228.696 163.963,-232.016 171.266,-234.938"/>
<polygon fill="midnightblue" stroke="midnightblue" points="83.5306,-171.359 73.7786,-167.218 78.8195,-176.537 83.5306,-171.359"/>
</g>
<!-- Node4 -->
<g id="node4" class="node"><title>Node4</title>
<g id="a_node4"><a xlink:href="classVoxel_1_1MedianFilter.xhtml#abbf1682df2beabebc42776cf2d9c472b" target="_top" xlink:title="Voxel::MedianFilter\l::_filter">
<polygon fill="none" stroke="black" points="170.5,-186 170.5,-216 271.5,-216 271.5,-186 170.5,-186"/>
<text text-anchor="start" x="178.5" y="-204" font-family="Helvetica,sans-Serif" font-size="10.00">Voxel::MedianFilter</text>
<text text-anchor="middle" x="221" y="-193" font-family="Helvetica,sans-Serif" font-size="10.00">::_filter</text>
</a>
</g>
</g>
<!-- Node1&#45;&gt;Node4 -->
<g id="edge3" class="edge"><title>Node1&#45;&gt;Node4</title>
<path fill="none" stroke="midnightblue" d="M117.884,-170.113C135.106,-175.322 153.698,-180.946 170.238,-185.948"/>
<polygon fill="midnightblue" stroke="midnightblue" points="118.512,-166.647 107.927,-167.101 116.486,-173.347 118.512,-166.647"/>
</g>
<!-- Node5 -->
<g id="node5" class="node"><title>Node5</title>
<g id="a_node5"><a xlink:href="classVoxel_1_1SmoothFilter.xhtml#a0fa087650bb0010d2a97a4897d8ed330" target="_top" xlink:title="Voxel::SmoothFilter\l::_filter">
<polygon fill="none" stroke="black" points="169.5,-137 169.5,-167 272.5,-167 272.5,-137 169.5,-137"/>
<text text-anchor="start" x="177.5" y="-155" font-family="Helvetica,sans-Serif" font-size="10.00">Voxel::SmoothFilter</text>
<text text-anchor="middle" x="221" y="-144" font-family="Helvetica,sans-Serif" font-size="10.00">::_filter</text>
</a>
</g>
</g>
<!-- Node1&#45;&gt;Node5 -->
<g id="edge4" class="edge"><title>Node1&#45;&gt;Node5</title>
<path fill="none" stroke="midnightblue" d="M124.062,-152C139.16,-152 154.975,-152 169.31,-152"/>
<polygon fill="midnightblue" stroke="midnightblue" points="123.751,-148.5 113.751,-152 123.751,-155.5 123.751,-148.5"/>
</g>
<!-- Node6 -->
<g id="node6" class="node"><title>Node6</title>
<g id="a_node6"><a xlink:href="classVoxel_1_1TemporalMedianFilter.xhtml#a50303d1acee8f1161879db089ce3c106" target="_top" xlink:title="Voxel::TemporalMedianFilter\l::_filter">
<polygon fill="none" stroke="black" points="150.5,-88 150.5,-118 291.5,-118 291.5,-88 150.5,-88"/>
<text text-anchor="start" x="158.5" y="-106" font-family="Helvetica,sans-Serif" font-size="10.00">Voxel::TemporalMedianFilter</text>
<text text-anchor="middle" x="221" y="-95" font-family="Helvetica,sans-Serif" font-size="10.00">::_filter</text>
</a>
</g>
</g>
<!-- Node1&#45;&gt;Node6 -->
<g id="edge5" class="edge"><title>Node1&#45;&gt;Node6</title>
<path fill="none" stroke="midnightblue" d="M117.884,-133.887C135.106,-128.678 153.698,-123.054 170.238,-118.052"/>
<polygon fill="midnightblue" stroke="midnightblue" points="116.486,-130.653 107.927,-136.899 118.512,-137.353 116.486,-130.653"/>
</g>
<!-- Node7 -->
<g id="node7" class="node"><title>Node7</title>
<g id="a_node7"><a xlink:href="classVoxel_1_1CLIManager.xhtml#ac5b3590f9259f86ee3cab93e563d3987" target="_top" xlink:title="Voxel::CLIManager::\l_save">
<polygon fill="none" stroke="black" points="167.5,-39 167.5,-69 274.5,-69 274.5,-39 167.5,-39"/>
<text text-anchor="start" x="175.5" y="-57" font-family="Helvetica,sans-Serif" font-size="10.00">Voxel::CLIManager::</text>
<text text-anchor="middle" x="221" y="-46" font-family="Helvetica,sans-Serif" font-size="10.00">_save</text>
</a>
</g>
</g>
<!-- Node1&#45;&gt;Node7 -->
<g id="edge6" class="edge"><title>Node1&#45;&gt;Node7</title>
<path fill="none" stroke="midnightblue" d="M81.3427,-129.899C99.0709,-114.043 124.648,-93.0772 150,-79 156.656,-75.3039 163.963,-71.9835 171.266,-69.0621"/>
<polygon fill="midnightblue" stroke="midnightblue" points="78.8195,-127.463 73.7786,-136.782 83.5306,-132.641 78.8195,-127.463"/>
</g>
<!-- Node9 -->
<g id="node9" class="node"><title>Node9</title>
<g id="a_node9"><a xlink:href="CameraSystemTest_8cpp.xhtml#a0ddf1224851353fc92bfbff6f499fa97" target="_top" xlink:title="main">
<polygon fill="none" stroke="black" points="202,-0.5 202,-19.5 240,-19.5 240,-0.5 202,-0.5"/>
<text text-anchor="middle" x="221" y="-7.5" font-family="Helvetica,sans-Serif" font-size="10.00">main</text>
</a>
</g>
</g>
<!-- Node1&#45;&gt;Node9 -->
<g id="edge8" class="edge"><title>Node1&#45;&gt;Node9</title>
<path fill="none" stroke="midnightblue" d="M70.0676,-127.688C85.0591,-99.9705 113.217,-55.2448 150,-30 165.631,-19.2719 186.977,-14.2493 201.974,-11.9293"/>
<polygon fill="midnightblue" stroke="midnightblue" points="66.8735,-126.242 65.3214,-136.723 73.0705,-129.498 66.8735,-126.242"/>
</g>
<!-- Node8 -->
<g id="node8" class="node"><title>Node8</title>
<g id="a_node8"><a xlink:href="classVoxel_1_1CLIManager.xhtml#a7a7ce51202c00d16a0e1cac5dcceb1e0" target="_top" xlink:title="Voxel::CLIManager::\lCLIManager">
<polygon fill="none" stroke="black" points="328.5,-39 328.5,-69 435.5,-69 435.5,-39 328.5,-39"/>
<text text-anchor="start" x="336.5" y="-57" font-family="Helvetica,sans-Serif" font-size="10.00">Voxel::CLIManager::</text>
<text text-anchor="middle" x="382" y="-46" font-family="Helvetica,sans-Serif" font-size="10.00">CLIManager</text>
</a>
</g>
</g>
<!-- Node7&#45;&gt;Node8 -->
<g id="edge7" class="edge"><title>Node7&#45;&gt;Node8</title>
<path fill="none" stroke="midnightblue" d="M284.819,-54C299.21,-54 314.365,-54 328.28,-54"/>
<polygon fill="midnightblue" stroke="midnightblue" points="284.503,-50.5001 274.503,-54 284.503,-57.5001 284.503,-50.5001"/>
</g>
</g>
</svg>
