<?xml version="1.0" encoding="UTF-8" standalone="no"?>
<!DOCTYPE svg PUBLIC "-//W3C//DTD SVG 1.1//EN"
 "http://www.w3.org/Graphics/SVG/1.1/DTD/svg11.dtd">
<!-- Generated by graphviz version 2.36.0 (20140111.2315)
 -->
<!-- Title: Voxel::TI::RTS5825CameraUVCStreamer Pages: 1 -->
<!--zoomable 385 -->
<svg id="main" version="1.1" xmlns="http://www.w3.org/2000/svg" xmlns:xlink="http://www.w3.org/1999/xlink" xml:space="preserve" onload="init(evt)">
<style type="text/css"><![CDATA[
.edge:hover path { stroke: red; }
.edge:hover polygon { stroke: red; fill: red; }
]]></style>
<script type="text/javascript"><![CDATA[
var edges = document.getElementsByTagName('g');
if (edges && edges.length) {
  for (var i=0;i<edges.length;i++) {
    if (edges[i].id.substr(0,4)=='edge') {
      edges[i].setAttribute('class','edge');
    }
  }
}
]]></script>
        <defs>
                <circle id="rim" cx="0" cy="0" r="7"/>
                <circle id="rim2" cx="0" cy="0" r="3.5"/>
                <g id="zoomPlus">
                        <use xlink:href="#rim" fill="#404040">
                                <set attributeName="fill" to="#808080" begin="zoomplus.mouseover" end="zoomplus.mouseout"/>
                        </use>
                        <path d="M-4,0h8M0,-4v8" fill="none" stroke="white" stroke-width="1.5" pointer-events="none"/>
                </g>
                <g id="zoomMin">
                        <use xlink:href="#rim" fill="#404040">
                                <set attributeName="fill" to="#808080" begin="zoomminus.mouseover" end="zoomminus.mouseout"/>
                        </use>
                        <path d="M-4,0h8" fill="none" stroke="white" stroke-width="1.5" pointer-events="none"/>
                </g>
                <g id="dirArrow">
                        <path fill="none" stroke="white" stroke-width="1.5" d="M0,-3.0v7 M-2.5,-0.5L0,-3.0L2.5,-0.5"/>
                </g>
               <g id="resetDef">
                       <use xlink:href="#rim2" fill="#404040">
                               <set attributeName="fill" to="#808080" begin="reset.mouseover" end="reset.mouseout"/>
                       </use>
               </g>
        </defs>

<script type="text/javascript">
var viewWidth = 1180;
var viewHeight = 385;
var sectionId = 'dynsection-1';
</script>
<script xlink:href="svgpan.js"/>
<svg id="graph" class="graph">
<g id="viewport">
<title>Voxel::TI::RTS5825CameraUVCStreamer</title>
<!-- Node1 -->
<g id="node1" class="node"><title>Node1</title>
<polygon fill="#bfbfbf" stroke="black" points="1034,-278 1034,-308 1172,-308 1172,-278 1034,-278"/>
<text text-anchor="start" x="1042" y="-296" font-family="Helvetica,sans-Serif" font-size="10.00">Voxel::TI::RTS5825Camera</text>
<text text-anchor="middle" x="1103" y="-285" font-family="Helvetica,sans-Serif" font-size="10.00">UVCStreamer</text>
</g>
<!-- Node2 -->
<g id="node2" class="node"><title>Node2</title>
<g id="a_node2"><a xlink:href="classVoxel_1_1UVCStreamer.xhtml" target="_top" xlink:title="Voxel::UVCStreamer">
<polygon fill="none" stroke="black" points="886.5,-123.5 886.5,-142.5 995.5,-142.5 995.5,-123.5 886.5,-123.5"/>
<text text-anchor="middle" x="941" y="-130.5" font-family="Helvetica,sans-Serif" font-size="10.00">Voxel::UVCStreamer</text>
</a>
</g>
</g>
<!-- Node2&#45;&gt;Node1 -->
<g id="edge1" class="edge"><title>Node2&#45;&gt;Node1</title>
<path fill="none" stroke="midnightblue" d="M958.663,-149.663C989.926,-180.926 1056.92,-247.92 1086.93,-277.925"/>
<polygon fill="midnightblue" stroke="midnightblue" points="961.076,-147.126 951.53,-142.53 956.126,-152.076 961.076,-147.126"/>
</g>
<!-- Node3 -->
<g id="node3" class="node"><title>Node3</title>
<g id="a_node3"><a xlink:href="classVoxel_1_1Streamer.xhtml" target="_top" xlink:title="Voxel::Streamer">
<polygon fill="none" stroke="black" points="756.5,-195.5 756.5,-214.5 843.5,-214.5 843.5,-195.5 756.5,-195.5"/>
<text text-anchor="middle" x="800" y="-202.5" font-family="Helvetica,sans-Serif" font-size="10.00">Voxel::Streamer</text>
</a>
</g>
</g>
<!-- Node3&#45;&gt;Node2 -->
<g id="edge2" class="edge"><title>Node3&#45;&gt;Node2</title>
<path fill="none" stroke="midnightblue" d="M828.559,-190.725C856.09,-176.464 897.646,-154.939 921.466,-142.601"/>
<polygon fill="midnightblue" stroke="midnightblue" points="826.728,-187.732 819.458,-195.439 829.947,-193.947 826.728,-187.732"/>
</g>
<!-- Node4 -->
<g id="node4" class="node"><title>Node4</title>
<polygon fill="none" stroke="#bfbfbf" points="214.5,-236.5 214.5,-255.5 265.5,-255.5 265.5,-236.5 214.5,-236.5"/>
<text text-anchor="middle" x="240" y="-243.5" font-family="Helvetica,sans-Serif" font-size="10.00">uint64_t</text>
</g>
<!-- Node4&#45;&gt;Node3 -->
<g id="edge3" class="edge"><title>Node4&#45;&gt;Node3</title>
<path fill="none" stroke="#9a32cd" stroke-dasharray="5,2" d="M275.916,-243.434C373.634,-236.254 649.673,-215.972 756.263,-208.14"/>
<polygon fill="#9a32cd" stroke="#9a32cd" points="275.413,-239.962 265.697,-244.185 275.926,-246.943 275.413,-239.962"/>
<text text-anchor="middle" x="573" y="-232" font-family="Helvetica,sans-Serif" font-size="10.00"> _currentTimeStamp</text>
</g>
<!-- Node5 -->
<g id="node5" class="node"><title>Node5</title>
<g id="a_node5"><a xlink:href="classVoxel_1_1Timer.xhtml" target="_top" xlink:title="Voxel::Timer">
<polygon fill="none" stroke="black" points="537,-252.5 537,-271.5 609,-271.5 609,-252.5 537,-252.5"/>
<text text-anchor="middle" x="573" y="-259.5" font-family="Helvetica,sans-Serif" font-size="10.00">Voxel::Timer</text>
</a>
</g>
</g>
<!-- Node4&#45;&gt;Node5 -->
<g id="edge5" class="edge"><title>Node4&#45;&gt;Node5</title>
<path fill="none" stroke="#9a32cd" stroke-dasharray="5,2" d="M275.892,-247.687C339.365,-250.755 473.031,-257.216 536.759,-260.297"/>
<polygon fill="#9a32cd" stroke="#9a32cd" points="275.766,-244.177 265.608,-247.19 275.428,-251.168 275.766,-244.177"/>
<text text-anchor="middle" x="408" y="-271" font-family="Helvetica,sans-Serif" font-size="10.00"> _realTimeStart</text>
<text text-anchor="middle" x="408" y="-260" font-family="Helvetica,sans-Serif" font-size="10.00">_monoticStart</text>
</g>
<!-- Node5&#45;&gt;Node3 -->
<g id="edge4" class="edge"><title>Node5&#45;&gt;Node3</title>
<path fill="none" stroke="#9a32cd" stroke-dasharray="5,2" d="M619.134,-258.616C651.652,-255.3 696.265,-248.931 734,-237 751.51,-231.464 770.189,-221.834 783.009,-214.581"/>
<polygon fill="#9a32cd" stroke="#9a32cd" points="618.644,-255.147 609.026,-259.589 619.315,-262.115 618.644,-255.147"/>
<text text-anchor="middle" x="709" y="-252" font-family="Helvetica,sans-Serif" font-size="10.00"> _time</text>
</g>
<!-- Node6 -->
<g id="node6" class="node"><title>Node6</title>
<g id="a_node6"><a xlink:href="classbool.xhtml" target="_top" xlink:title="bool">
<polygon fill="none" stroke="black" points="222.5,-317.5 222.5,-336.5 257.5,-336.5 257.5,-317.5 222.5,-317.5"/>
<text text-anchor="middle" x="240" y="-324.5" font-family="Helvetica,sans-Serif" font-size="10.00">bool</text>
</a>
</g>
</g>
<!-- Node6&#45;&gt;Node1 -->
<g id="edge19" class="edge"><title>Node6&#45;&gt;Node1</title>
<path fill="none" stroke="#9a32cd" stroke-dasharray="5,2" d="M267.634,-332.29C323.699,-342.948 458.117,-366 572,-366 572,-366 572,-366 942,-366 997.264,-366 1054.36,-329.508 1083.08,-308.126"/>
<polygon fill="#9a32cd" stroke="#9a32cd" points="268.278,-328.85 257.796,-330.393 266.953,-335.723 268.278,-328.85"/>
<text text-anchor="middle" x="800" y="-369" font-family="Helvetica,sans-Serif" font-size="10.00"> _isReallyRunning</text>
</g>
<!-- Node6&#45;&gt;Node3 -->
<g id="edge8" class="edge"><title>Node6&#45;&gt;Node3</title>
<path fill="none" stroke="#9a32cd" stroke-dasharray="5,2" d="M267.824,-326.1C309.478,-324.522 392.19,-320.67 462,-313 553.226,-302.977 576.059,-299.259 666,-281 696.53,-274.802 706.528,-278.689 734,-264 757.923,-251.209 780.003,-227.681 791.237,-214.532"/>
<polygon fill="#9a32cd" stroke="#9a32cd" points="267.545,-322.608 257.679,-326.47 267.8,-329.603 267.545,-322.608"/>
<text text-anchor="middle" x="573" y="-314" font-family="Helvetica,sans-Serif" font-size="10.00"> _isRunning</text>
</g>
<!-- Node6&#45;&gt;Node5 -->
<g id="edge6" class="edge"><title>Node6&#45;&gt;Node5</title>
<path fill="none" stroke="#9a32cd" stroke-dasharray="5,2" d="M267.787,-320.787C290.647,-315.553 324.418,-307.984 354,-302 418.304,-288.992 493.653,-275.568 536.811,-268.052"/>
<polygon fill="#9a32cd" stroke="#9a32cd" points="266.768,-317.429 257.807,-323.082 268.337,-324.251 266.768,-317.429"/>
<text text-anchor="middle" x="408" y="-305" font-family="Helvetica,sans-Serif" font-size="10.00"> _initialized</text>
</g>
<!-- Node7 -->
<g id="node7" class="node"><title>Node7</title>
<g id="a_node7"><a xlink:href="classint.xhtml" target="_top" xlink:title="int">
<polygon fill="none" stroke="black" points="558.5,-129.5 558.5,-148.5 587.5,-148.5 587.5,-129.5 558.5,-129.5"/>
<text text-anchor="middle" x="573" y="-136.5" font-family="Helvetica,sans-Serif" font-size="10.00">int</text>
</a>
</g>
</g>
<!-- Node7&#45;&gt;Node3 -->
<g id="edge7" class="edge"><title>Node7&#45;&gt;Node3</title>
<path fill="none" stroke="#9a32cd" stroke-dasharray="5,2" d="M597.609,-142.752C629.242,-148.162 686.861,-159.367 734,-176 749.731,-181.551 766.947,-189.312 779.707,-195.408"/>
<polygon fill="#9a32cd" stroke="#9a32cd" points="598.002,-139.269 587.563,-141.08 596.853,-146.174 598.002,-139.269"/>
<text text-anchor="middle" x="709" y="-179" font-family="Helvetica,sans-Serif" font-size="10.00"> _currentID</text>
</g>
<!-- Node8 -->
<g id="node8" class="node"><title>Node8</title>
<g id="a_node8"><a xlink:href="classVoxel_1_1Ptr.xhtml" target="_top" xlink:title="Voxel::Ptr\&lt; Device \&gt;">
<polygon fill="none" stroke="black" points="518.5,-167.5 518.5,-186.5 627.5,-186.5 627.5,-167.5 518.5,-167.5"/>
<text text-anchor="middle" x="573" y="-174.5" font-family="Helvetica,sans-Serif" font-size="10.00">Voxel::Ptr&lt; Device &gt;</text>
</a>
</g>
</g>
<!-- Node8&#45;&gt;Node3 -->
<g id="edge9" class="edge"><title>Node8&#45;&gt;Node3</title>
<path fill="none" stroke="#9a32cd" stroke-dasharray="5,2" d="M637.554,-184.909C675.544,-189.637 722.784,-195.515 756.326,-199.689"/>
<polygon fill="#9a32cd" stroke="#9a32cd" points="637.963,-181.433 627.607,-183.671 637.098,-188.379 637.963,-181.433"/>
<text text-anchor="middle" x="709" y="-200" font-family="Helvetica,sans-Serif" font-size="10.00"> _device</text>
</g>
<!-- Node9 -->
<g id="node9" class="node"><title>Node9</title>
<polygon fill="none" stroke="#bfbfbf" points="174.5,-187.5 174.5,-206.5 305.5,-206.5 305.5,-187.5 174.5,-187.5"/>
<text text-anchor="middle" x="240" y="-194.5" font-family="Helvetica,sans-Serif" font-size="10.00">std::shared_ptr&lt; Device &gt;</text>
</g>
<!-- Node9&#45;&gt;Node8 -->
<g id="edge10" class="edge"><title>Node9&#45;&gt;Node8</title>
<path fill="none" stroke="midnightblue" d="M315.674,-192.488C377.374,-188.76 463.473,-183.558 518.483,-180.234"/>
<polygon fill="midnightblue" stroke="midnightblue" points="315.377,-188.999 305.606,-193.096 315.799,-195.987 315.377,-188.999"/>
</g>
<!-- Node10 -->
<g id="node10" class="node"><title>Node10</title>
<g id="a_node10"><a xlink:href="classVoxel_1_1Ptr.xhtml" target="_top" xlink:title="Voxel::Ptr\&lt; T \&gt;">
<polygon fill="none" stroke="black" points="198,-72.5 198,-91.5 282,-91.5 282,-72.5 198,-72.5"/>
<text text-anchor="middle" x="240" y="-79.5" font-family="Helvetica,sans-Serif" font-size="10.00">Voxel::Ptr&lt; T &gt;</text>
</a>
</g>
</g>
<!-- Node10&#45;&gt;Node8 -->
<g id="edge11" class="edge"><title>Node10&#45;&gt;Node8</title>
<path fill="none" stroke="orange" stroke-dasharray="5,2" d="M277.62,-94.9587C324.223,-111.145 407.398,-139.015 480,-158 493.254,-161.466 507.716,-164.703 521.165,-167.488"/>
<polygon fill="orange" stroke="orange" points="278.566,-91.5818 267.971,-91.5926 276.26,-98.1911 278.566,-91.5818"/>
<text text-anchor="middle" x="408" y="-156" font-family="Helvetica,sans-Serif" font-size="10.00"> &lt; Device &gt;</text>
</g>
<!-- Node12 -->
<g id="node12" class="node"><title>Node12</title>
<g id="a_node12"><a xlink:href="classVoxel_1_1Ptr.xhtml" target="_top" xlink:title="Voxel::Ptr\&lt; Voxel::\lVideoMode \&gt;">
<polygon fill="none" stroke="black" points="523,-31 523,-61 623,-61 623,-31 523,-31"/>
<text text-anchor="start" x="531" y="-49" font-family="Helvetica,sans-Serif" font-size="10.00">Voxel::Ptr&lt; Voxel::</text>
<text text-anchor="middle" x="573" y="-38" font-family="Helvetica,sans-Serif" font-size="10.00">VideoMode &gt;</text>
</a>
</g>
</g>
<!-- Node10&#45;&gt;Node12 -->
<g id="edge15" class="edge"><title>Node10&#45;&gt;Node12</title>
<path fill="none" stroke="orange" stroke-dasharray="5,2" d="M292.365,-74.1833C311.665,-71.3895 333.815,-68.3536 354,-66 411.758,-59.2656 478.345,-53.4371 522.577,-49.8371"/>
<polygon fill="orange" stroke="orange" points="291.651,-70.7504 282.263,-75.6608 292.665,-77.6767 291.651,-70.7504"/>
<text text-anchor="middle" x="408" y="-69" font-family="Helvetica,sans-Serif" font-size="10.00"> &lt; Voxel::VideoMode &gt;</text>
</g>
<!-- Node14 -->
<g id="node14" class="node"><title>Node14</title>
<g id="a_node14"><a xlink:href="classVoxel_1_1Ptr.xhtml" target="_top" xlink:title="Voxel::Ptr\&lt; Voxel::\lUVCStreamer::UVCStreamerPrivate \&gt;">
<polygon fill="none" stroke="black" points="480.5,-80 480.5,-110 665.5,-110 665.5,-80 480.5,-80"/>
<text text-anchor="start" x="488.5" y="-98" font-family="Helvetica,sans-Serif" font-size="10.00">Voxel::Ptr&lt; Voxel::</text>
<text text-anchor="middle" x="573" y="-87" font-family="Helvetica,sans-Serif" font-size="10.00">UVCStreamer::UVCStreamerPrivate &gt;</text>
</a>
</g>
</g>
<!-- Node10&#45;&gt;Node14 -->
<g id="edge18" class="edge"><title>Node10&#45;&gt;Node14</title>
<path fill="none" stroke="orange" stroke-dasharray="5,2" d="M292.236,-80.723C337.058,-79.9661 403.894,-79.7081 462,-83 467.946,-83.3368 474.064,-83.7681 480.227,-84.2659"/>
<polygon fill="orange" stroke="orange" points="292.112,-77.2246 282.178,-80.9075 292.24,-84.2235 292.112,-77.2246"/>
<text text-anchor="start" x="354" y="-97" font-family="Helvetica,sans-Serif" font-size="10.00"> &lt; Voxel::UVCStreamer</text>
<text text-anchor="middle" x="408" y="-86" font-family="Helvetica,sans-Serif" font-size="10.00">::UVCStreamerPrivate &gt;</text>
</g>
<!-- Node11 -->
<g id="node11" class="node"><title>Node11</title>
<polygon fill="none" stroke="#bfbfbf" points="0,-72.5 0,-91.5 106,-91.5 106,-72.5 0,-72.5"/>
<text text-anchor="middle" x="53" y="-79.5" font-family="Helvetica,sans-Serif" font-size="10.00">std::shared_ptr&lt; T &gt;</text>
</g>
<!-- Node11&#45;&gt;Node10 -->
<g id="edge12" class="edge"><title>Node11&#45;&gt;Node10</title>
<path fill="none" stroke="midnightblue" d="M116.138,-82C143.075,-82 173.876,-82 197.899,-82"/>
<polygon fill="midnightblue" stroke="midnightblue" points="116.025,-78.5001 106.025,-82 116.025,-85.5001 116.025,-78.5001"/>
</g>
<!-- Node12&#45;&gt;Node2 -->
<g id="edge13" class="edge"><title>Node12&#45;&gt;Node2</title>
<path fill="none" stroke="#9a32cd" stroke-dasharray="5,2" d="M633.147,-54.5839C689.082,-63.3711 775.078,-78.6192 848,-99 872.107,-105.738 898.864,-115.948 917.278,-123.422"/>
<polygon fill="#9a32cd" stroke="#9a32cd" points="633.482,-51.094 623.063,-53.0186 632.408,-58.0111 633.482,-51.094"/>
<text text-anchor="middle" x="800" y="-102" font-family="Helvetica,sans-Serif" font-size="10.00"> _currentVideoMode</text>
</g>
<!-- Node13 -->
<g id="node13" class="node"><title>Node13</title>
<polygon fill="none" stroke="#bfbfbf" points="182,-0 182,-30 298,-30 298,-0 182,-0"/>
<text text-anchor="start" x="190" y="-18" font-family="Helvetica,sans-Serif" font-size="10.00">std::shared_ptr&lt; Voxel</text>
<text text-anchor="middle" x="240" y="-7" font-family="Helvetica,sans-Serif" font-size="10.00">::VideoMode &gt;</text>
</g>
<!-- Node13&#45;&gt;Node12 -->
<g id="edge14" class="edge"><title>Node13&#45;&gt;Node12</title>
<path fill="none" stroke="midnightblue" d="M308.608,-17.7029C352.428,-19.8443 410.694,-23.4219 462,-29 481.979,-31.1722 503.88,-34.3852 522.843,-37.4348"/>
<polygon fill="midnightblue" stroke="midnightblue" points="308.514,-14.1946 298.359,-17.2153 308.181,-21.1867 308.514,-14.1946"/>
</g>
<!-- Node14&#45;&gt;Node2 -->
<g id="edge16" class="edge"><title>Node14&#45;&gt;Node2</title>
<path fill="none" stroke="#9a32cd" stroke-dasharray="5,2" d="M676.236,-105.615C744.456,-112.698 831.409,-121.726 886.413,-127.436"/>
<polygon fill="#9a32cd" stroke="#9a32cd" points="676.193,-102.091 665.885,-104.54 675.47,-109.054 676.193,-102.091"/>
<text text-anchor="middle" x="800" y="-127" font-family="Helvetica,sans-Serif" font-size="10.00"> _uvcStreamerPrivate</text>
</g>
<!-- Node15 -->
<g id="node15" class="node"><title>Node15</title>
<polygon fill="none" stroke="#bfbfbf" points="144.5,-138 144.5,-168 335.5,-168 335.5,-138 144.5,-138"/>
<text text-anchor="start" x="152.5" y="-156" font-family="Helvetica,sans-Serif" font-size="10.00">std::shared_ptr&lt; Voxel</text>
<text text-anchor="middle" x="240" y="-145" font-family="Helvetica,sans-Serif" font-size="10.00">::UVCStreamer::UVCStreamerPrivate &gt;</text>
</g>
<!-- Node15&#45;&gt;Node14 -->
<g id="edge17" class="edge"><title>Node15&#45;&gt;Node14</title>
<path fill="none" stroke="midnightblue" d="M345.754,-161.954C383.894,-161.264 426.362,-155.684 462,-139 472.535,-134.068 470.016,-125.969 480,-120 486.393,-116.178 493.381,-112.927 500.557,-110.165"/>
<polygon fill="midnightblue" stroke="midnightblue" points="345.615,-158.454 335.64,-162.026 345.665,-165.454 345.615,-158.454"/>
</g>
</g>
</svg>
        <g id="navigator" transform="translate(0 0)" fill="#404254">
                <rect fill="#f2f5e9" fill-opacity="0.5" stroke="#606060" stroke-width=".5" x="0" y="0" width="60" height="60"/>
                <use id="zoomplus" xlink:href="#zoomPlus" x="17" y="9" onmousedown="handleZoom(evt,'in')"/>
                <use id="zoomminus" xlink:href="#zoomMin" x="42" y="9" onmousedown="handleZoom(evt,'out')"/>
                <use id="reset" xlink:href="#resetDef" x="30" y="36" onmousedown="handleReset()"/>
                <g id="arrowUp" xlink:href="#dirArrow" transform="translate(30 24)" onmousedown="handlePan(0,-1)">
                  <use xlink:href="#rim" fill="#404040">
                        <set attributeName="fill" to="#808080" begin="arrowUp.mouseover" end="arrowUp.mouseout"/>
                  </use>
                  <path fill="none" stroke="white" stroke-width="1.5" d="M0,-3.0v7 M-2.5,-0.5L0,-3.0L2.5,-0.5"/>
                </g>
                <g id="arrowRight" xlink:href="#dirArrow" transform="rotate(90) translate(36 -43)" onmousedown="handlePan(1,0)">
                  <use xlink:href="#rim" fill="#404040">
                        <set attributeName="fill" to="#808080" begin="arrowRight.mouseover" end="arrowRight.mouseout"/>
                  </use>
                  <path fill="none" stroke="white" stroke-width="1.5" d="M0,-3.0v7 M-2.5,-0.5L0,-3.0L2.5,-0.5"/>
                </g>
                <g id="arrowDown" xlink:href="#dirArrow" transform="rotate(180) translate(-30 -48)" onmousedown="handlePan(0,1)">
                  <use xlink:href="#rim" fill="#404040">
                        <set attributeName="fill" to="#808080" begin="arrowDown.mouseover" end="arrowDown.mouseout"/>
                  </use>
                  <path fill="none" stroke="white" stroke-width="1.5" d="M0,-3.0v7 M-2.5,-0.5L0,-3.0L2.5,-0.5"/>
                </g>
                <g id="arrowLeft" xlink:href="#dirArrow" transform="rotate(270) translate(-36 17)" onmousedown="handlePan(-1,0)">
                  <use xlink:href="#rim" fill="#404040">
                        <set attributeName="fill" to="#808080" begin="arrowLeft.mouseover" end="arrowLeft.mouseout"/>
                  </use>
                  <path fill="none" stroke="white" stroke-width="1.5" d="M0,-3.0v7 M-2.5,-0.5L0,-3.0L2.5,-0.5"/>
                </g>
        </g>
        <svg viewBox="0 0 15 15" width="100%" height="30px" preserveAspectRatio="xMaxYMin meet">
         <g id="arrow_out" transform="scale(0.3 0.3)">
          <a xlink:href="classVoxel_1_1TI_1_1RTS5825CameraUVCStreamer__coll__graph_org.svg" target="_base">
           <rect id="button" ry="5" rx="5" y="6" x="6" height="38" width="38"
                fill="#f2f5e9" fill-opacity="0.5" stroke="#606060" stroke-width="1.0"/>
           <path id="arrow"
             d="M 11.500037,31.436501 C 11.940474,20.09759 22.043105,11.32322 32.158766,21.979434 L 37.068811,17.246167 C 37.068811,17.246167 37.088388,32 37.088388,32 L 22.160133,31.978069 C 22.160133,31.978069 26.997745,27.140456 26.997745,27.140456 C 18.528582,18.264221 13.291696,25.230495 11.500037,31.436501 z"
             style="fill:#404040;"/>
          </a>
         </g>
        </svg>
</svg>
