<?xml version="1.0" encoding="UTF-8" standalone="no"?>
<!DOCTYPE svg PUBLIC "-//W3C//DTD SVG 1.1//EN"
 "http://www.w3.org/Graphics/SVG/1.1/DTD/svg11.dtd">
<!-- Generated by graphviz version 2.36.0 (20140111.2315)
 -->
<!-- Title: Voxel::FilterSet&lt; FrameType &gt; Pages: 1 -->
<svg width="950pt" height="257pt"
 viewBox="0.00 0.00 950.00 257.00" xmlns="http://www.w3.org/2000/svg" xmlns:xlink="http://www.w3.org/1999/xlink">
<g id="graph0" class="graph" transform="scale(1 1) rotate(0) translate(4 253)">
<title>Voxel::FilterSet&lt; FrameType &gt;</title>
<!-- Node1 -->
<g id="node1" class="node"><title>Node1</title>
<polygon fill="#bfbfbf" stroke="black" points="790,-153.5 790,-172.5 942,-172.5 942,-153.5 790,-153.5"/>
<text text-anchor="middle" x="866" y="-160.5" font-family="Helvetica,sans-Serif" font-size="10.00">Voxel::FilterSet&lt; FrameType &gt;</text>
</g>
<!-- Node2 -->
<g id="node2" class="node"><title>Node2</title>
<polygon fill="none" stroke="#bfbfbf" points="529.5,-229.5 529.5,-248.5 642.5,-248.5 642.5,-229.5 529.5,-229.5"/>
<text text-anchor="middle" x="586" y="-236.5" font-family="Helvetica,sans-Serif" font-size="10.00">Map&lt; int, Voxel::Ptr &gt;</text>
</g>
<!-- Node2&#45;&gt;Node1 -->
<g id="edge1" class="edge"><title>Node2&#45;&gt;Node1</title>
<path fill="none" stroke="#9a32cd" stroke-dasharray="5,2" d="M653.197,-230.811C688.896,-225.407 733.419,-217.06 772,-205 799.224,-196.49 828.989,-182.072 847.331,-172.543"/>
<polygon fill="#9a32cd" stroke="#9a32cd" points="652.281,-227.408 642.897,-232.326 653.3,-234.334 652.281,-227.408"/>
<text text-anchor="middle" x="723" y="-229" font-family="Helvetica,sans-Serif" font-size="10.00"> _filters</text>
</g>
<!-- Node3 -->
<g id="node3" class="node"><title>Node3</title>
<polygon fill="none" stroke="#bfbfbf" points="564,-191.5 564,-210.5 608,-210.5 608,-191.5 564,-191.5"/>
<text text-anchor="middle" x="586" y="-198.5" font-family="Helvetica,sans-Serif" font-size="10.00">mutex</text>
</g>
<!-- Node3&#45;&gt;Node1 -->
<g id="edge2" class="edge"><title>Node3&#45;&gt;Node1</title>
<path fill="none" stroke="#9a32cd" stroke-dasharray="5,2" d="M618.222,-197.468C655.037,-193.222 718.051,-185.702 772,-178 783.657,-176.336 796.113,-174.421 807.997,-172.529"/>
<polygon fill="#9a32cd" stroke="#9a32cd" points="617.655,-194.01 608.119,-198.627 618.453,-200.964 617.655,-194.01"/>
<text text-anchor="middle" x="723" y="-193" font-family="Helvetica,sans-Serif" font-size="10.00"> _accessMutex</text>
</g>
<!-- Node4 -->
<g id="node4" class="node"><title>Node4</title>
<g id="a_node4"><a xlink:href="classint.xhtml" target="_top" xlink:title="int">
<polygon fill="none" stroke="black" points="571.5,-153.5 571.5,-172.5 600.5,-172.5 600.5,-153.5 571.5,-153.5"/>
<text text-anchor="middle" x="586" y="-160.5" font-family="Helvetica,sans-Serif" font-size="10.00">int</text>
</a>
</g>
</g>
<!-- Node4&#45;&gt;Node1 -->
<g id="edge3" class="edge"><title>Node4&#45;&gt;Node1</title>
<path fill="none" stroke="#9a32cd" stroke-dasharray="5,2" d="M610.979,-163C650.329,-163 730.2,-163 789.932,-163"/>
<polygon fill="#9a32cd" stroke="#9a32cd" points="610.786,-159.5 600.786,-163 610.786,-166.5 610.786,-159.5"/>
<text text-anchor="middle" x="723" y="-166" font-family="Helvetica,sans-Serif" font-size="10.00"> _filterCounter</text>
</g>
<!-- Node5 -->
<g id="node5" class="node"><title>Node5</title>
<polygon fill="none" stroke="#bfbfbf" points="549,-115.5 549,-134.5 623,-134.5 623,-115.5 549,-115.5"/>
<text text-anchor="middle" x="586" y="-122.5" font-family="Helvetica,sans-Serif" font-size="10.00">Vector&lt; int &gt;</text>
</g>
<!-- Node5&#45;&gt;Node1 -->
<g id="edge4" class="edge"><title>Node5&#45;&gt;Node1</title>
<path fill="none" stroke="#9a32cd" stroke-dasharray="5,2" d="M633.314,-130.287C670.772,-134.676 724.848,-141.269 772,-148 783.657,-149.664 796.113,-151.579 807.997,-153.471"/>
<polygon fill="#9a32cd" stroke="#9a32cd" points="633.548,-126.79 623.21,-129.109 632.737,-133.743 633.548,-126.79"/>
<text text-anchor="middle" x="723" y="-151" font-family="Helvetica,sans-Serif" font-size="10.00"> _indices</text>
</g>
<!-- Node6 -->
<g id="node6" class="node"><title>Node6</title>
<g id="a_node6"><a xlink:href="classVoxel_1_1FrameBufferManager.xhtml" target="_top" xlink:title="Voxel::FrameBufferManager\l\&lt; FrameType \&gt;">
<polygon fill="none" stroke="black" points="516.5,-66 516.5,-96 655.5,-96 655.5,-66 516.5,-66"/>
<text text-anchor="start" x="524.5" y="-84" font-family="Helvetica,sans-Serif" font-size="10.00">Voxel::FrameBufferManager</text>
<text text-anchor="middle" x="586" y="-73" font-family="Helvetica,sans-Serif" font-size="10.00">&lt; FrameType &gt;</text>
</a>
</g>
</g>
<!-- Node6&#45;&gt;Node1 -->
<g id="edge5" class="edge"><title>Node6&#45;&gt;Node1</title>
<path fill="none" stroke="#9a32cd" stroke-dasharray="5,2" d="M665.7,-94.2056C698.932,-100.758 737.78,-109.714 772,-121 798.919,-129.878 828.518,-144.065 846.931,-153.456"/>
<polygon fill="#9a32cd" stroke="#9a32cd" points="666.06,-90.7106 655.578,-92.2495 664.732,-97.5835 666.06,-90.7106"/>
<text text-anchor="middle" x="723" y="-124" font-family="Helvetica,sans-Serif" font-size="10.00"> _frameBufferManager</text>
</g>
<!-- Node7 -->
<g id="node7" class="node"><title>Node7</title>
<polygon fill="none" stroke="#bfbfbf" points="272.5,-110.5 272.5,-129.5 403.5,-129.5 403.5,-110.5 272.5,-110.5"/>
<text text-anchor="middle" x="338" y="-117.5" font-family="Helvetica,sans-Serif" font-size="10.00">List&lt; Ptr&lt; FrameType &gt; &gt;</text>
</g>
<!-- Node7&#45;&gt;Node6 -->
<g id="edge6" class="edge"><title>Node7&#45;&gt;Node6</title>
<path fill="none" stroke="#9a32cd" stroke-dasharray="5,2" d="M409.731,-108.935C437.283,-104.61 469.121,-99.594 498,-95 503.892,-94.0627 510.008,-93.086 516.144,-92.1038"/>
<polygon fill="#9a32cd" stroke="#9a32cd" points="409.124,-105.487 399.788,-110.495 410.209,-112.402 409.124,-105.487"/>
<text text-anchor="middle" x="462" y="-121" font-family="Helvetica,sans-Serif" font-size="10.00"> _available</text>
<text text-anchor="middle" x="462" y="-110" font-family="Helvetica,sans-Serif" font-size="10.00">_inUse</text>
</g>
<!-- Node8 -->
<g id="node8" class="node"><title>Node8</title>
<polygon fill="none" stroke="#bfbfbf" points="43.5,-58.5 43.5,-77.5 86.5,-77.5 86.5,-58.5 43.5,-58.5"/>
<text text-anchor="middle" x="65" y="-65.5" font-family="Helvetica,sans-Serif" font-size="10.00">size_t</text>
</g>
<!-- Node8&#45;&gt;Node6 -->
<g id="edge7" class="edge"><title>Node8&#45;&gt;Node6</title>
<path fill="none" stroke="#9a32cd" stroke-dasharray="5,2" d="M96.7802,-68.771C178.414,-70.8158 401.971,-76.4155 516.055,-79.273"/>
<polygon fill="#9a32cd" stroke="#9a32cd" points="96.7502,-65.2692 86.6657,-68.5176 96.5749,-72.267 96.7502,-65.2692"/>
<text text-anchor="middle" x="338" y="-80" font-family="Helvetica,sans-Serif" font-size="10.00"> _minimumBufferCount</text>
</g>
<!-- Node9 -->
<g id="node9" class="node"><title>Node9</title>
<g id="a_node9"><a xlink:href="classVoxel_1_1FrameBufferManager.xhtml" target="_top" xlink:title="Voxel::FrameBufferManager\l\&lt; BufferType \&gt;">
<polygon fill="none" stroke="black" points="268.5,-14 268.5,-44 407.5,-44 407.5,-14 268.5,-14"/>
<text text-anchor="start" x="276.5" y="-32" font-family="Helvetica,sans-Serif" font-size="10.00">Voxel::FrameBufferManager</text>
<text text-anchor="middle" x="338" y="-21" font-family="Helvetica,sans-Serif" font-size="10.00">&lt; BufferType &gt;</text>
</a>
</g>
</g>
<!-- Node8&#45;&gt;Node9 -->
<g id="edge10" class="edge"><title>Node8&#45;&gt;Node9</title>
<path fill="none" stroke="#9a32cd" stroke-dasharray="5,2" d="M96.5886,-63.4983C112.006,-61.2358 130.993,-58.4593 148,-56 187.857,-50.2367 232.454,-43.8621 268.314,-38.7548"/>
<polygon fill="#9a32cd" stroke="#9a32cd" points="95.9389,-60.0561 86.5537,-64.9723 96.9562,-66.9818 95.9389,-60.0561"/>
<text text-anchor="middle" x="199" y="-59" font-family="Helvetica,sans-Serif" font-size="10.00"> _minimumBufferCount</text>
</g>
<!-- Node9&#45;&gt;Node6 -->
<g id="edge8" class="edge"><title>Node9&#45;&gt;Node6</title>
<path fill="none" stroke="orange" stroke-dasharray="5,2" d="M417.869,-40.6069C443.542,-44.8603 472.092,-50.0972 498,-56 510.411,-58.8278 523.679,-62.3689 536.017,-65.8889"/>
<polygon fill="orange" stroke="orange" points="418.243,-37.1218 407.81,-38.9658 417.116,-44.0304 418.243,-37.1218"/>
<text text-anchor="middle" x="462" y="-59" font-family="Helvetica,sans-Serif" font-size="10.00"> &lt; FrameType &gt;</text>
</g>
<!-- Node10 -->
<g id="node10" class="node"><title>Node10</title>
<polygon fill="none" stroke="#bfbfbf" points="0.5,-0.5 0.5,-19.5 129.5,-19.5 129.5,-0.5 0.5,-0.5"/>
<text text-anchor="middle" x="65" y="-7.5" font-family="Helvetica,sans-Serif" font-size="10.00">List&lt; Ptr&lt; BufferType &gt; &gt;</text>
</g>
<!-- Node10&#45;&gt;Node9 -->
<g id="edge9" class="edge"><title>Node10&#45;&gt;Node9</title>
<path fill="none" stroke="#9a32cd" stroke-dasharray="5,2" d="M139.839,-7.06443C173.522,-6.58133 213.867,-7.202 250,-11 256.903,-11.7256 264.067,-12.7522 271.188,-13.9517"/>
<polygon fill="#9a32cd" stroke="#9a32cd" points="139.548,-3.56899 129.612,-7.24749 139.673,-10.5679 139.548,-3.56899"/>
<text text-anchor="middle" x="199" y="-25" font-family="Helvetica,sans-Serif" font-size="10.00"> _available</text>
<text text-anchor="middle" x="199" y="-14" font-family="Helvetica,sans-Serif" font-size="10.00">_inUse</text>
</g>
</g>
</svg>
