<?xml version="1.0" encoding="UTF-8" standalone="no"?>
<!DOCTYPE svg PUBLIC "-//W3C//DTD SVG 1.1//EN"
 "http://www.w3.org/Graphics/SVG/1.1/DTD/svg11.dtd">
<!-- Generated by graphviz version 2.36.0 (20140111.2315)
 -->
<!-- Title: Voxel::FrameBufferManager::get Pages: 1 -->
<svg width="454pt" height="38pt"
 viewBox="0.00 0.00 454.00 38.00" xmlns="http://www.w3.org/2000/svg" xmlns:xlink="http://www.w3.org/1999/xlink">
<g id="graph0" class="graph" transform="scale(1 1) rotate(0) translate(4 34)">
<title>Voxel::FrameBufferManager::get</title>
<!-- Node1 -->
<g id="node1" class="node"><title>Node1</title>
<polygon fill="#bfbfbf" stroke="black" points="0,-5.5 0,-24.5 158,-24.5 158,-5.5 0,-5.5"/>
<text text-anchor="middle" x="79" y="-12.5" font-family="Helvetica,sans-Serif" font-size="10.00">Voxel::FrameBufferManager::get</text>
</g>
<!-- Node2 -->
<g id="node2" class="node"><title>Node2</title>
<g id="a_node2"><a xlink:href="classVoxel_1_1PCLGrabber.xhtml#a75f4b6ad255767769f0156150b7699ec" target="_top" xlink:title="Voxel::PCLGrabber::\l_callback">
<polygon fill="none" stroke="black" points="194.5,-0 194.5,-30 301.5,-30 301.5,-0 194.5,-0"/>
<text text-anchor="start" x="202.5" y="-18" font-family="Helvetica,sans-Serif" font-size="10.00">Voxel::PCLGrabber::</text>
<text text-anchor="middle" x="248" y="-7" font-family="Helvetica,sans-Serif" font-size="10.00">_callback</text>
</a>
</g>
</g>
<!-- Node1&#45;&gt;Node2 -->
<g id="edge1" class="edge"><title>Node1&#45;&gt;Node2</title>
<path fill="none" stroke="midnightblue" d="M168.162,-15C177.048,-15 185.863,-15 194.203,-15"/>
<polygon fill="midnightblue" stroke="midnightblue" points="168.122,-11.5001 158.121,-15 168.121,-18.5001 168.122,-11.5001"/>
</g>
<!-- Node3 -->
<g id="node3" class="node"><title>Node3</title>
<g id="a_node3"><a xlink:href="classVoxel_1_1PCLGrabber.xhtml#ab76691e58aeeeeefebb8cc73a35490cd" target="_top" xlink:title="Voxel::PCLGrabber::\lPCLGrabber">
<polygon fill="none" stroke="black" points="338.5,-0 338.5,-30 445.5,-30 445.5,-0 338.5,-0"/>
<text text-anchor="start" x="346.5" y="-18" font-family="Helvetica,sans-Serif" font-size="10.00">Voxel::PCLGrabber::</text>
<text text-anchor="middle" x="392" y="-7" font-family="Helvetica,sans-Serif" font-size="10.00">PCLGrabber</text>
</a>
</g>
</g>
<!-- Node2&#45;&gt;Node3 -->
<g id="edge2" class="edge"><title>Node2&#45;&gt;Node3</title>
<path fill="none" stroke="midnightblue" d="M311.994,-15C320.704,-15 329.578,-15 338.08,-15"/>
<polygon fill="midnightblue" stroke="midnightblue" points="311.876,-11.5001 301.876,-15 311.876,-18.5001 311.876,-11.5001"/>
</g>
</g>
</svg>
