<?xml version="1.0" encoding="UTF-8" standalone="no"?>
<!DOCTYPE svg PUBLIC "-//W3C//DTD SVG 1.1//EN"
 "http://www.w3.org/Graphics/SVG/1.1/DTD/svg11.dtd">
<!-- Generated by graphviz version 2.36.0 (20140111.2315)
 -->
<!-- Title: Voxel::FrameStreamWriter Pages: 1 -->
<svg width="958pt" height="339pt"
 viewBox="0.00 0.00 958.00 338.69" xmlns="http://www.w3.org/2000/svg" xmlns:xlink="http://www.w3.org/1999/xlink">
<g id="graph0" class="graph" transform="scale(1 1) rotate(0) translate(4 334.69)">
<title>Voxel::FrameStreamWriter</title>
<!-- Node1 -->
<g id="node1" class="node"><title>Node1</title>
<polygon fill="#bfbfbf" stroke="black" points="816.5,-177.19 816.5,-196.19 949.5,-196.19 949.5,-177.19 816.5,-177.19"/>
<text text-anchor="middle" x="883" y="-184.19" font-family="Helvetica,sans-Serif" font-size="10.00">Voxel::FrameStreamWriter</text>
</g>
<!-- Node2 -->
<g id="node2" class="node"><title>Node2</title>
<polygon fill="none" stroke="#bfbfbf" points="617.5,-311.19 617.5,-330.19 660.5,-330.19 660.5,-311.19 617.5,-311.19"/>
<text text-anchor="middle" x="639" y="-318.19" font-family="Helvetica,sans-Serif" font-size="10.00">size_t</text>
</g>
<!-- Node2&#45;&gt;Node1 -->
<g id="edge1" class="edge"><title>Node2&#45;&gt;Node1</title>
<path fill="none" stroke="#9a32cd" stroke-dasharray="5,2" d="M670.815,-319.084C704.29,-316.12 758.293,-307.684 798,-283.69 835.37,-261.108 864.756,-216.245 876.479,-196.456"/>
<polygon fill="#9a32cd" stroke="#9a32cd" points="670.411,-315.605 660.712,-319.867 670.952,-322.584 670.411,-315.605"/>
<text text-anchor="middle" x="762" y="-312.69" font-family="Helvetica,sans-Serif" font-size="10.00"> _frameCount</text>
</g>
<!-- Node3 -->
<g id="node3" class="node"><title>Node3</title>
<polygon fill="none" stroke="#bfbfbf" points="617,-273.19 617,-292.19 661,-292.19 661,-273.19 617,-273.19"/>
<text text-anchor="middle" x="639" y="-280.19" font-family="Helvetica,sans-Serif" font-size="10.00">mutex</text>
</g>
<!-- Node3&#45;&gt;Node1 -->
<g id="edge2" class="edge"><title>Node3&#45;&gt;Node1</title>
<path fill="none" stroke="#9a32cd" stroke-dasharray="5,2" d="M671.315,-278.95C704.033,-274.23 756.306,-264.368 798,-245.69 826.787,-232.794 855.922,-209.526 871.163,-196.394"/>
<polygon fill="#9a32cd" stroke="#9a32cd" points="670.446,-275.536 661.013,-280.358 671.395,-282.471 670.446,-275.536"/>
<text text-anchor="middle" x="762" y="-271.69" font-family="Helvetica,sans-Serif" font-size="10.00"> _mutex</text>
</g>
<!-- Node4 -->
<g id="node4" class="node"><title>Node4</title>
<polygon fill="none" stroke="#bfbfbf" points="587.5,-235.19 587.5,-254.19 690.5,-254.19 690.5,-235.19 587.5,-235.19"/>
<text text-anchor="middle" x="639" y="-242.19" font-family="Helvetica,sans-Serif" font-size="10.00">OutputFileStream &amp;</text>
</g>
<!-- Node4&#45;&gt;Node1 -->
<g id="edge3" class="edge"><title>Node4&#45;&gt;Node1</title>
<path fill="none" stroke="#9a32cd" stroke-dasharray="5,2" d="M700.722,-235.124C730.282,-229.969 766.216,-222.965 798,-214.69 817.785,-209.539 839.685,-202.182 856.162,-196.303"/>
<polygon fill="#9a32cd" stroke="#9a32cd" points="699.814,-231.728 690.55,-236.869 700.997,-238.627 699.814,-231.728"/>
<text text-anchor="middle" x="762" y="-233.69" font-family="Helvetica,sans-Serif" font-size="10.00"> _stream</text>
</g>
<!-- Node5 -->
<g id="node5" class="node"><title>Node5</title>
<g id="a_node5"><a xlink:href="classbool.xhtml" target="_top" xlink:title="bool">
<polygon fill="none" stroke="black" points="621.5,-197.19 621.5,-216.19 656.5,-216.19 656.5,-197.19 621.5,-197.19"/>
<text text-anchor="middle" x="639" y="-204.19" font-family="Helvetica,sans-Serif" font-size="10.00">bool</text>
</a>
</g>
</g>
<!-- Node5&#45;&gt;Node1 -->
<g id="edge4" class="edge"><title>Node5&#45;&gt;Node1</title>
<path fill="none" stroke="#9a32cd" stroke-dasharray="5,2" d="M666.775,-204.477C702.597,-201.517 767.303,-196.169 816.443,-192.108"/>
<polygon fill="#9a32cd" stroke="#9a32cd" points="666.311,-201.003 656.634,-205.315 666.888,-207.98 666.311,-201.003"/>
<text text-anchor="middle" x="762" y="-202.69" font-family="Helvetica,sans-Serif" font-size="10.00"> _isPaused</text>
</g>
<!-- Node6 -->
<g id="node6" class="node"><title>Node6</title>
<g id="a_node6"><a xlink:href="structVoxel_1_1GeneratorConfigurationSubPacket.xhtml" target="_top" xlink:title="Voxel::GeneratorConfiguration\lSubPacket">
<polygon fill="none" stroke="black" points="384,-208.69 384,-238.69 532,-238.69 532,-208.69 384,-208.69"/>
<text text-anchor="start" x="392" y="-226.69" font-family="Helvetica,sans-Serif" font-size="10.00">Voxel::GeneratorConfiguration</text>
<text text-anchor="middle" x="458" y="-215.69" font-family="Helvetica,sans-Serif" font-size="10.00">SubPacket</text>
</a>
</g>
</g>
<!-- Node6&#45;&gt;Node1 -->
<g id="edge5" class="edge"><title>Node6&#45;&gt;Node1</title>
<path fill="none" stroke="#9a32cd" stroke-dasharray="5,2" d="M495.22,-203.986C516.354,-193.618 543.917,-181.984 570,-176.69 658.032,-158.82 762.862,-168.283 825.834,-177.175"/>
<polygon fill="#9a32cd" stroke="#9a32cd" points="493.645,-200.86 486.285,-208.481 496.791,-207.113 493.645,-200.86"/>
<text text-anchor="middle" x="639" y="-179.69" font-family="Helvetica,sans-Serif" font-size="10.00"> _generatorConfigSubPacket</text>
</g>
<!-- Node7 -->
<g id="node7" class="node"><title>Node7</title>
<polygon fill="none" stroke="#bfbfbf" points="202.5,-95.1899 202.5,-114.19 253.5,-114.19 253.5,-95.1899 202.5,-95.1899"/>
<text text-anchor="middle" x="228" y="-102.19" font-family="Helvetica,sans-Serif" font-size="10.00">uint32_t</text>
</g>
<!-- Node7&#45;&gt;Node6 -->
<g id="edge6" class="edge"><title>Node7&#45;&gt;Node6</title>
<path fill="none" stroke="#9a32cd" stroke-dasharray="5,2" d="M243.723,-122.08C261.754,-142.987 291.663,-176.316 306,-184.69 319.677,-192.678 352.393,-201.511 383.888,-208.748"/>
<polygon fill="#9a32cd" stroke="#9a32cd" points="246.179,-119.566 237.018,-114.243 240.86,-124.117 246.179,-119.566"/>
<text text-anchor="middle" x="336" y="-207.69" font-family="Helvetica,sans-Serif" font-size="10.00"> size</text>
</g>
<!-- Node13 -->
<g id="node13" class="node"><title>Node13</title>
<g id="a_node13"><a xlink:href="structVoxel_1_1DataPacket.xhtml" target="_top" xlink:title="Voxel::DataPacket">
<polygon fill="none" stroke="black" points="408.5,-112.19 408.5,-131.19 507.5,-131.19 507.5,-112.19 408.5,-112.19"/>
<text text-anchor="middle" x="458" y="-119.19" font-family="Helvetica,sans-Serif" font-size="10.00">Voxel::DataPacket</text>
</a>
</g>
</g>
<!-- Node7&#45;&gt;Node13 -->
<g id="edge14" class="edge"><title>Node7&#45;&gt;Node13</title>
<path fill="none" stroke="#9a32cd" stroke-dasharray="5,2" d="M263.815,-103.348C291.551,-102.663 331.343,-102.539 366,-105.69 380.857,-107.041 396.929,-109.522 411.372,-112.133"/>
<polygon fill="#9a32cd" stroke="#9a32cd" points="263.707,-99.8493 253.81,-103.632 263.906,-106.846 263.707,-99.8493"/>
<text text-anchor="middle" x="336" y="-108.69" font-family="Helvetica,sans-Serif" font-size="10.00"> size</text>
</g>
<!-- Node15 -->
<g id="node15" class="node"><title>Node15</title>
<g id="a_node15"><a xlink:href="structVoxel_1_1FrameStreamHeader.xhtml" target="_top" xlink:title="Voxel::FrameStreamHeader">
<polygon fill="none" stroke="black" points="389,-27.1899 389,-46.1899 527,-46.1899 527,-27.1899 389,-27.1899"/>
<text text-anchor="middle" x="458" y="-34.1899" font-family="Helvetica,sans-Serif" font-size="10.00">Voxel::FrameStreamHeader</text>
</a>
</g>
</g>
<!-- Node7&#45;&gt;Node15 -->
<g id="edge19" class="edge"><title>Node7&#45;&gt;Node15</title>
<path fill="none" stroke="#9a32cd" stroke-dasharray="5,2" d="M248.094,-88.3019C259.673,-78.3342 274.727,-65.3243 288,-53.6899 296.049,-46.6343 296.008,-41.5268 306,-37.6899 332.799,-27.3994 364.298,-25.7291 391.574,-27.1875"/>
<polygon fill="#9a32cd" stroke="#9a32cd" points="245.652,-85.7856 240.351,-94.9591 250.215,-91.0934 245.652,-85.7856"/>
<text text-anchor="middle" x="336" y="-40.6899" font-family="Helvetica,sans-Serif" font-size="10.00"> generatorIDs</text>
</g>
<!-- Node8 -->
<g id="node8" class="node"><title>Node8</title>
<g id="a_node8"><a xlink:href="classVoxel_1_1SerializedObject.xhtml" target="_top" xlink:title="Voxel::SerializedObject">
<polygon fill="none" stroke="black" points="168.5,-180.19 168.5,-199.19 287.5,-199.19 287.5,-180.19 168.5,-180.19"/>
<text text-anchor="middle" x="228" y="-187.19" font-family="Helvetica,sans-Serif" font-size="10.00">Voxel::SerializedObject</text>
</a>
</g>
</g>
<!-- Node8&#45;&gt;Node6 -->
<g id="edge7" class="edge"><title>Node8&#45;&gt;Node6</title>
<path fill="none" stroke="#9a32cd" stroke-dasharray="5,2" d="M258.249,-203.29C272.36,-209.174 289.723,-215.447 306,-218.69 331.081,-223.687 358.96,-225.602 383.869,-226.059"/>
<polygon fill="#9a32cd" stroke="#9a32cd" points="259.622,-200.07 249.053,-199.32 256.847,-206.497 259.622,-200.07"/>
<text text-anchor="middle" x="336" y="-228.69" font-family="Helvetica,sans-Serif" font-size="10.00"> config</text>
</g>
<!-- Node8&#45;&gt;Node13 -->
<g id="edge15" class="edge"><title>Node8&#45;&gt;Node13</title>
<path fill="none" stroke="#9a32cd" stroke-dasharray="5,2" d="M247.994,-173.786C262.818,-162.3 284.451,-147.49 306,-139.69 338.893,-127.784 378.187,-123.381 408.445,-121.903"/>
<polygon fill="#9a32cd" stroke="#9a32cd" points="245.734,-171.111 240.104,-180.087 250.102,-176.581 245.734,-171.111"/>
<text text-anchor="middle" x="336" y="-142.69" font-family="Helvetica,sans-Serif" font-size="10.00"> object</text>
</g>
<!-- Node9 -->
<g id="node9" class="node"><title>Node9</title>
<polygon fill="none" stroke="#bfbfbf" points="0,-203.19 0,-222.19 82,-222.19 82,-203.19 0,-203.19"/>
<text text-anchor="middle" x="41" y="-210.19" font-family="Helvetica,sans-Serif" font-size="10.00">Vector&lt; char &gt;</text>
</g>
<!-- Node9&#45;&gt;Node8 -->
<g id="edge8" class="edge"><title>Node9&#45;&gt;Node8</title>
<path fill="none" stroke="#9a32cd" stroke-dasharray="5,2" d="M92.2402,-206.444C115.732,-203.523 143.856,-200.027 168.32,-196.985"/>
<polygon fill="#9a32cd" stroke="#9a32cd" points="91.634,-202.992 82.1422,-207.699 92.4977,-209.939 91.634,-202.992"/>
<text text-anchor="middle" x="125" y="-208.69" font-family="Helvetica,sans-Serif" font-size="10.00"> _bytes</text>
</g>
<!-- Node10 -->
<g id="node10" class="node"><title>Node10</title>
<polygon fill="none" stroke="#bfbfbf" points="25,-158.19 25,-177.19 57,-177.19 57,-158.19 25,-158.19"/>
<text text-anchor="middle" x="41" y="-165.19" font-family="Helvetica,sans-Serif" font-size="10.00">uint</text>
</g>
<!-- Node10&#45;&gt;Node8 -->
<g id="edge9" class="edge"><title>Node10&#45;&gt;Node8</title>
<path fill="none" stroke="#9a32cd" stroke-dasharray="5,2" d="M67.2656,-166.102C89.2389,-165.155 121.877,-164.791 150,-168.69 166.47,-170.973 184.418,-175.73 198.84,-180.14"/>
<polygon fill="#9a32cd" stroke="#9a32cd" points="66.9257,-162.615 57.1149,-166.615 67.2788,-169.606 66.9257,-162.615"/>
<text text-anchor="middle" x="125" y="-182.69" font-family="Helvetica,sans-Serif" font-size="10.00"> _putOffset</text>
<text text-anchor="middle" x="125" y="-171.69" font-family="Helvetica,sans-Serif" font-size="10.00">_getOffset</text>
</g>
<!-- Node11 -->
<g id="node11" class="node"><title>Node11</title>
<polygon fill="none" stroke="#bfbfbf" points="205,-241.19 205,-260.19 251,-260.19 251,-241.19 205,-241.19"/>
<text text-anchor="middle" x="228" y="-248.19" font-family="Helvetica,sans-Serif" font-size="10.00">uint8_t</text>
</g>
<!-- Node11&#45;&gt;Node6 -->
<g id="edge10" class="edge"><title>Node11&#45;&gt;Node6</title>
<path fill="none" stroke="#9a32cd" stroke-dasharray="5,2" d="M261.633,-251.725C275.335,-252.111 291.44,-252.501 306,-252.69 332.664,-253.036 339.65,-256.787 366,-252.69 383.695,-249.938 402.656,-244.347 418.666,-238.802"/>
<polygon fill="#9a32cd" stroke="#9a32cd" points="261.334,-248.215 251.236,-251.42 261.129,-255.212 261.334,-248.215"/>
<text text-anchor="middle" x="336" y="-257.69" font-family="Helvetica,sans-Serif" font-size="10.00"> frameType</text>
</g>
<!-- Node11&#45;&gt;Node13 -->
<g id="edge16" class="edge"><title>Node11&#45;&gt;Node13</title>
<path fill="none" stroke="#9a32cd" stroke-dasharray="5,2" d="M255.915,-235.62C266.88,-228.511 279.051,-219.261 288,-208.69 299.815,-194.732 292.238,-183.733 306,-171.69 308.364,-169.621 383.687,-145.222 427.035,-131.29"/>
<polygon fill="#9a32cd" stroke="#9a32cd" points="253.758,-232.839 247.087,-241.07 257.435,-238.795 253.758,-232.839"/>
<text text-anchor="middle" x="336" y="-174.69" font-family="Helvetica,sans-Serif" font-size="10.00"> type</text>
</g>
<!-- Node12 -->
<g id="node12" class="node"><title>Node12</title>
<g id="a_node12"><a xlink:href="structVoxel_1_1FrameStreamPacket.xhtml" target="_top" xlink:title="Voxel::FrameStreamPacket">
<polygon fill="none" stroke="black" points="570.5,-112.19 570.5,-131.19 707.5,-131.19 707.5,-112.19 570.5,-112.19"/>
<text text-anchor="middle" x="639" y="-119.19" font-family="Helvetica,sans-Serif" font-size="10.00">Voxel::FrameStreamPacket</text>
</a>
</g>
</g>
<!-- Node12&#45;&gt;Node1 -->
<g id="edge11" class="edge"><title>Node12&#45;&gt;Node1</title>
<path fill="none" stroke="#9a32cd" stroke-dasharray="5,2" d="M717.777,-118.719C743.83,-119.783 772.676,-123.257 798,-131.69 827.273,-141.438 856.222,-163.999 871.302,-176.994"/>
<polygon fill="#9a32cd" stroke="#9a32cd" points="717.663,-115.214 707.564,-118.417 717.456,-122.211 717.663,-115.214"/>
<text text-anchor="middle" x="762" y="-145.69" font-family="Helvetica,sans-Serif" font-size="10.00"> _rawpacket</text>
<text text-anchor="middle" x="762" y="-134.69" font-family="Helvetica,sans-Serif" font-size="10.00">_configPacket</text>
</g>
<!-- Node13&#45;&gt;Node12 -->
<g id="edge12" class="edge"><title>Node13&#45;&gt;Node12</title>
<path fill="none" stroke="midnightblue" d="M518.097,-121.69C534.828,-121.69 553.167,-121.69 570.36,-121.69"/>
<polygon fill="midnightblue" stroke="midnightblue" points="517.913,-118.19 507.913,-121.69 517.913,-125.19 517.913,-118.19"/>
</g>
<!-- Node14 -->
<g id="node14" class="node"><title>Node14</title>
<polygon fill="none" stroke="#bfbfbf" points="210.5,-25.1899 210.5,-44.1899 245.5,-44.1899 245.5,-25.1899 210.5,-25.1899"/>
<text text-anchor="middle" x="228" y="-32.1899" font-family="Helvetica,sans-Serif" font-size="10.00">char</text>
</g>
<!-- Node14&#45;&gt;Node13 -->
<g id="edge13" class="edge"><title>Node14&#45;&gt;Node13</title>
<path fill="none" stroke="#9a32cd" stroke-dasharray="5,2" d="M255.245,-44.7044C299.463,-61.5771 388.237,-95.4514 431.766,-112.061"/>
<polygon fill="#9a32cd" stroke="#9a32cd" points="256.356,-41.3823 245.765,-41.0872 253.861,-47.9223 256.356,-41.3823"/>
<text text-anchor="middle" x="336" y="-89.6899" font-family="Helvetica,sans-Serif" font-size="10.00"> magic</text>
</g>
<!-- Node14&#45;&gt;Node15 -->
<g id="edge18" class="edge"><title>Node14&#45;&gt;Node15</title>
<path fill="none" stroke="#9a32cd" stroke-dasharray="5,2" d="M254.917,-21.3569C269.505,-14.6024 288.298,-7.11956 306,-3.68987 332.18,1.38229 339.736,0.92529 366,-3.68987 391.324,-8.13983 418.883,-19.0581 436.959,-27.1235"/>
<polygon fill="#9a32cd" stroke="#9a32cd" points="253.051,-18.3707 245.554,-25.8579 256.084,-24.6795 253.051,-18.3707"/>
<text text-anchor="middle" x="336" y="-6.68987" font-family="Helvetica,sans-Serif" font-size="10.00"> version</text>
</g>
<!-- Node15&#45;&gt;Node1 -->
<g id="edge17" class="edge"><title>Node15&#45;&gt;Node1</title>
<path fill="none" stroke="#9a32cd" stroke-dasharray="5,2" d="M525.071,-48.0277C609.712,-63.2451 751.092,-91.1994 798,-115.69 829.145,-131.95 858.914,-161.515 873.195,-176.859"/>
<polygon fill="#9a32cd" stroke="#9a32cd" points="525.499,-44.549 515.04,-46.2362 524.269,-51.44 525.499,-44.549"/>
<text text-anchor="middle" x="639" y="-89.6899" font-family="Helvetica,sans-Serif" font-size="10.00"> _header</text>
</g>
<!-- Node16 -->
<g id="node16" class="node"><title>Node16</title>
<polygon fill="none" stroke="#bfbfbf" points="611.5,-27.1899 611.5,-46.1899 666.5,-46.1899 666.5,-27.1899 611.5,-27.1899"/>
<text text-anchor="middle" x="639" y="-34.1899" font-family="Helvetica,sans-Serif" font-size="10.00">ofstream</text>
</g>
<!-- Node16&#45;&gt;Node1 -->
<g id="edge20" class="edge"><title>Node16&#45;&gt;Node1</title>
<path fill="none" stroke="#9a32cd" stroke-dasharray="5,2" d="M676.565,-33.2635C710.593,-31.8841 761.415,-34.6063 798,-57.6899 844.335,-86.9251 870.327,-152.06 878.844,-176.851"/>
<polygon fill="#9a32cd" stroke="#9a32cd" points="676.374,-29.7686 666.578,-33.8053 676.753,-36.7584 676.374,-29.7686"/>
<text text-anchor="middle" x="762" y="-60.6899" font-family="Helvetica,sans-Serif" font-size="10.00"> _internalStream</text>
</g>
</g>
</svg>
