<?xml version="1.0" encoding="UTF-8" standalone="no"?>
<!DOCTYPE svg PUBLIC "-//W3C//DTD SVG 1.1//EN"
 "http://www.w3.org/Graphics/SVG/1.1/DTD/svg11.dtd">
<!-- Generated by graphviz version 2.36.0 (20140111.2315)
 -->
<!-- Title: Voxel::TI::TintinModulationFrequencyParameter::getOptimalMaximum Pages: 1 -->
<svg width="576pt" height="38pt"
 viewBox="0.00 0.00 576.00 38.00" xmlns="http://www.w3.org/2000/svg" xmlns:xlink="http://www.w3.org/1999/xlink">
<g id="graph0" class="graph" transform="scale(1 1) rotate(0) translate(4 34)">
<title>Voxel::TI::TintinModulationFrequencyParameter::getOptimalMaximum</title>
<!-- Node1 -->
<g id="node1" class="node"><title>Node1</title>
<polygon fill="#bfbfbf" stroke="black" points="0.5,-0 0.5,-30 203.5,-30 203.5,-0 0.5,-0"/>
<text text-anchor="start" x="8.5" y="-18" font-family="Helvetica,sans-Serif" font-size="10.00">Voxel::TI::TintinModulation</text>
<text text-anchor="middle" x="102" y="-7" font-family="Helvetica,sans-Serif" font-size="10.00">FrequencyParameter::getOptimalMaximum</text>
</g>
<!-- Node2 -->
<g id="node2" class="node"><title>Node2</title>
<g id="a_node2"><a xlink:href="classVoxel_1_1TI_1_1TintinUnambiguousRangeParameter.xhtml#a7eb6a456c15f184c66d942e5f19c938b" target="_top" xlink:title="Voxel::TI::TintinUnambiguous\lRangeParameter::set">
<polygon fill="none" stroke="black" points="240,-0 240,-30 386,-30 386,-0 240,-0"/>
<text text-anchor="start" x="248" y="-18" font-family="Helvetica,sans-Serif" font-size="10.00">Voxel::TI::TintinUnambiguous</text>
<text text-anchor="middle" x="313" y="-7" font-family="Helvetica,sans-Serif" font-size="10.00">RangeParameter::set</text>
</a>
</g>
</g>
<!-- Node1&#45;&gt;Node2 -->
<g id="edge1" class="edge"><title>Node1&#45;&gt;Node2</title>
<path fill="none" stroke="midnightblue" d="M213.56,-15C222.442,-15 231.266,-15 239.773,-15"/>
<polygon fill="midnightblue" stroke="midnightblue" points="213.521,-11.5001 203.521,-15 213.521,-18.5001 213.521,-11.5001"/>
</g>
<!-- Node3 -->
<g id="node3" class="node"><title>Node3</title>
<g id="a_node3"><a xlink:href="classVoxel_1_1TI_1_1TintinUnambiguousRangeParameter.xhtml#aee1307d07b01cdc5f3a34719e5b79ac0" target="_top" xlink:title="Voxel::TI::TintinUnambiguous\lRangeParameter::get">
<polygon fill="none" stroke="black" points="422,-0 422,-30 568,-30 568,-0 422,-0"/>
<text text-anchor="start" x="430" y="-18" font-family="Helvetica,sans-Serif" font-size="10.00">Voxel::TI::TintinUnambiguous</text>
<text text-anchor="middle" x="495" y="-7" font-family="Helvetica,sans-Serif" font-size="10.00">RangeParameter::get</text>
</a>
</g>
</g>
<!-- Node2&#45;&gt;Node3 -->
<g id="edge2" class="edge"><title>Node2&#45;&gt;Node3</title>
<path fill="none" stroke="midnightblue" d="M396.439,-15C404.906,-15 413.464,-15 421.808,-15"/>
<polygon fill="midnightblue" stroke="midnightblue" points="396.176,-11.5001 386.176,-15 396.176,-18.5001 396.176,-11.5001"/>
</g>
</g>
</svg>
