<?xml version="1.0" encoding="UTF-8" standalone="no"?>
<!DOCTYPE svg PUBLIC "-//W3C//DTD SVG 1.1//EN"
 "http://www.w3.org/Graphics/SVG/1.1/DTD/svg11.dtd">
<!-- Generated by graphviz version 2.36.0 (20140111.2315)
 -->
<!-- Title: ELFIO::note_section_accessor::note_section_accessor Pages: 1 -->
<svg width="478pt" height="66pt"
 viewBox="0.00 0.00 478.00 66.00" xmlns="http://www.w3.org/2000/svg" xmlns:xlink="http://www.w3.org/1999/xlink">
<g id="graph0" class="graph" transform="scale(1 1) rotate(0) translate(4 62)">
<title>ELFIO::note_section_accessor::note_section_accessor</title>
<!-- Node1 -->
<g id="node1" class="node"><title>Node1</title>
<polygon fill="#bfbfbf" stroke="black" points="0.5,-8.5 0.5,-49.5 123.5,-49.5 123.5,-8.5 0.5,-8.5"/>
<text text-anchor="start" x="8.5" y="-37.5" font-family="Helvetica,sans-Serif" font-size="10.00">ELFIO::note_section</text>
<text text-anchor="start" x="8.5" y="-26.5" font-family="Helvetica,sans-Serif" font-size="10.00">_accessor::note_section</text>
<text text-anchor="middle" x="62" y="-15.5" font-family="Helvetica,sans-Serif" font-size="10.00">_accessor</text>
</g>
<!-- Node2 -->
<g id="node2" class="node"><title>Node2</title>
<g id="a_node2"><a xlink:href="classELFIO_1_1note__section__accessor.xhtml#acf63426f706e3c5abf366aeb2c7f0f2d" target="_top" xlink:title="ELFIO::note_section\l_accessor::process_section">
<polygon fill="none" stroke="black" points="160.5,-14 160.5,-44 299.5,-44 299.5,-14 160.5,-14"/>
<text text-anchor="start" x="168.5" y="-32" font-family="Helvetica,sans-Serif" font-size="10.00">ELFIO::note_section</text>
<text text-anchor="middle" x="230" y="-21" font-family="Helvetica,sans-Serif" font-size="10.00">_accessor::process_section</text>
</a>
</g>
</g>
<!-- Node1&#45;&gt;Node2 -->
<g id="edge1" class="edge"><title>Node1&#45;&gt;Node2</title>
<path fill="none" stroke="midnightblue" d="M123.87,-29C132.383,-29 141.231,-29 150.018,-29"/>
<polygon fill="midnightblue" stroke="midnightblue" points="150.283,-32.5001 160.283,-29 150.283,-25.5001 150.283,-32.5001"/>
</g>
<!-- Node3 -->
<g id="node3" class="node"><title>Node3</title>
<g id="a_node3"><a xlink:href="classELFIO_1_1elfio.xhtml#af8a6706052d3029c76e5332eba10ad77" target="_top" xlink:title="ELFIO::elfio::get_convertor">
<polygon fill="none" stroke="black" points="336,-38.5 336,-57.5 470,-57.5 470,-38.5 336,-38.5"/>
<text text-anchor="middle" x="403" y="-45.5" font-family="Helvetica,sans-Serif" font-size="10.00">ELFIO::elfio::get_convertor</text>
</a>
</g>
</g>
<!-- Node2&#45;&gt;Node3 -->
<g id="edge2" class="edge"><title>Node2&#45;&gt;Node3</title>
<path fill="none" stroke="midnightblue" d="M299.567,-36.6185C308.182,-37.5758 317.036,-38.5596 325.76,-39.5289"/>
<polygon fill="midnightblue" stroke="midnightblue" points="325.594,-43.0319 335.919,-40.6577 326.367,-36.0747 325.594,-43.0319"/>
</g>
<!-- Node4 -->
<g id="node4" class="node"><title>Node4</title>
<g id="a_node4"><a xlink:href="classELFIO_1_1section.xhtml#accfaef20485ee803990b260130022bd2" target="_top" xlink:title="ELFIO::section::get_data">
<polygon fill="none" stroke="black" points="340,-0.5 340,-19.5 466,-19.5 466,-0.5 340,-0.5"/>
<text text-anchor="middle" x="403" y="-7.5" font-family="Helvetica,sans-Serif" font-size="10.00">ELFIO::section::get_data</text>
</a>
</g>
</g>
<!-- Node2&#45;&gt;Node4 -->
<g id="edge3" class="edge"><title>Node2&#45;&gt;Node4</title>
<path fill="none" stroke="midnightblue" d="M299.567,-21.3815C309.428,-20.2857 319.603,-19.1552 329.537,-18.0514"/>
<polygon fill="midnightblue" stroke="midnightblue" points="330.227,-21.4964 339.779,-16.9134 329.454,-14.5392 330.227,-21.4964"/>
</g>
</g>
</svg>
