<?xml version="1.0" encoding="UTF-8" standalone="no"?>
<!DOCTYPE svg PUBLIC "-//W3C//DTD SVG 1.1//EN"
 "http://www.w3.org/Graphics/SVG/1.1/DTD/svg11.dtd">
<!-- Generated by graphviz version 2.36.0 (20140111.2315)
 -->
<!-- Title: Voxel::TI::ToFCalculusCamera::_initStartParams Pages: 1 -->
<!--zoomable 871 -->
<svg id="main" version="1.1" xmlns="http://www.w3.org/2000/svg" xmlns:xlink="http://www.w3.org/1999/xlink" xml:space="preserve" onload="init(evt)">
<style type="text/css"><![CDATA[
.edge:hover path { stroke: red; }
.edge:hover polygon { stroke: red; fill: red; }
]]></style>
<script type="text/javascript"><![CDATA[
var edges = document.getElementsByTagName('g');
if (edges && edges.length) {
  for (var i=0;i<edges.length;i++) {
    if (edges[i].id.substr(0,4)=='edge') {
      edges[i].setAttribute('class','edge');
    }
  }
}
]]></script>
        <defs>
                <circle id="rim" cx="0" cy="0" r="7"/>
                <circle id="rim2" cx="0" cy="0" r="3.5"/>
                <g id="zoomPlus">
                        <use xlink:href="#rim" fill="#404040">
                                <set attributeName="fill" to="#808080" begin="zoomplus.mouseover" end="zoomplus.mouseout"/>
                        </use>
                        <path d="M-4,0h8M0,-4v8" fill="none" stroke="white" stroke-width="1.5" pointer-events="none"/>
                </g>
                <g id="zoomMin">
                        <use xlink:href="#rim" fill="#404040">
                                <set attributeName="fill" to="#808080" begin="zoomminus.mouseover" end="zoomminus.mouseout"/>
                        </use>
                        <path d="M-4,0h8" fill="none" stroke="white" stroke-width="1.5" pointer-events="none"/>
                </g>
                <g id="dirArrow">
                        <path fill="none" stroke="white" stroke-width="1.5" d="M0,-3.0v7 M-2.5,-0.5L0,-3.0L2.5,-0.5"/>
                </g>
               <g id="resetDef">
                       <use xlink:href="#rim2" fill="#404040">
                               <set attributeName="fill" to="#808080" begin="reset.mouseover" end="reset.mouseout"/>
                       </use>
               </g>
        </defs>

<script type="text/javascript">
var viewWidth = 1400;
var viewHeight = 871;
var sectionId = 'dynsection-9';
</script>
<script xlink:href="svgpan.js"/>
<svg id="graph" class="graph">
<g id="viewport">
<title>Voxel::TI::ToFCalculusCamera::_initStartParams</title>
<!-- Node1 -->
<g id="node1" class="node"><title>Node1</title>
<polygon fill="#bfbfbf" stroke="black" points="0,-561 0,-591 152,-591 152,-561 0,-561"/>
<text text-anchor="start" x="8" y="-579" font-family="Helvetica,sans-Serif" font-size="10.00">Voxel::TI::ToFCalculusCamera</text>
<text text-anchor="middle" x="76" y="-568" font-family="Helvetica,sans-Serif" font-size="10.00">::_initStartParams</text>
</g>
<!-- Node2 -->
<g id="node2" class="node"><title>Node2</title>
<g id="a_node2"><a xlink:href="classVoxel_1_1TI_1_1ToFCamera.xhtml#a52686f695d06876ef5a89e453c6a8ba3" target="_top" xlink:title="Voxel::TI::ToFCamera\l::_initStartParams">
<polygon fill="none" stroke="black" points="195,-465 195,-495 309,-495 309,-465 195,-465"/>
<text text-anchor="start" x="203" y="-483" font-family="Helvetica,sans-Serif" font-size="10.00">Voxel::TI::ToFCamera</text>
<text text-anchor="middle" x="252" y="-472" font-family="Helvetica,sans-Serif" font-size="10.00">::_initStartParams</text>
</a>
</g>
</g>
<!-- Node1&#45;&gt;Node2 -->
<g id="edge1" class="edge"><title>Node1&#45;&gt;Node2</title>
<path fill="none" stroke="midnightblue" d="M104.571,-560.789C134.352,-544.358 181.93,-518.108 214.727,-500.013"/>
<polygon fill="midnightblue" stroke="midnightblue" points="216.493,-503.036 223.558,-495.14 213.112,-496.907 216.493,-503.036"/>
</g>
<!-- Node4 -->
<g id="node4" class="node"><title>Node4</title>
<g id="a_node4"><a xlink:href="classVoxel_1_1DepthCamera.xhtml#ab2be6abc24dd344f63e082c19273d833" target="_top" xlink:title="Voxel::DepthCamera\l::getROI">
<polygon fill="none" stroke="black" points="367,-833 367,-863 475,-863 475,-833 367,-833"/>
<text text-anchor="start" x="375" y="-851" font-family="Helvetica,sans-Serif" font-size="10.00">Voxel::DepthCamera</text>
<text text-anchor="middle" x="421" y="-840" font-family="Helvetica,sans-Serif" font-size="10.00">::getROI</text>
</a>
</g>
</g>
<!-- Node1&#45;&gt;Node4 -->
<g id="edge48" class="edge"><title>Node1&#45;&gt;Node4</title>
<path fill="none" stroke="midnightblue" d="M85.8096,-591.242C102.805,-619.707 142.484,-681.789 188,-723 251.285,-780.299 275.126,-785.872 352,-823 356.371,-825.111 360.97,-827.154 365.628,-829.101"/>
<polygon fill="midnightblue" stroke="midnightblue" points="364.636,-832.474 375.22,-832.955 367.245,-825.979 364.636,-832.474"/>
</g>
<!-- Node10 -->
<g id="node10" class="node"><title>Node10</title>
<g id="a_node10"><a xlink:href="classVoxel_1_1DepthCamera.xhtml#a52d1041f172901ff9206b1b409d4711d" target="_top" xlink:title="Voxel::DepthCamera\l::getFrameSize">
<polygon fill="none" stroke="black" points="367,-784 367,-814 475,-814 475,-784 367,-784"/>
<text text-anchor="start" x="375" y="-802" font-family="Helvetica,sans-Serif" font-size="10.00">Voxel::DepthCamera</text>
<text text-anchor="middle" x="421" y="-791" font-family="Helvetica,sans-Serif" font-size="10.00">::getFrameSize</text>
</a>
</g>
</g>
<!-- Node1&#45;&gt;Node10 -->
<g id="edge47" class="edge"><title>Node1&#45;&gt;Node10</title>
<path fill="none" stroke="midnightblue" d="M94.2256,-591.007C135.954,-626.757 246.783,-718.126 352,-774 355.982,-776.115 360.182,-778.127 364.461,-780.025"/>
<polygon fill="midnightblue" stroke="midnightblue" points="363.325,-783.344 373.9,-783.99 366.036,-776.89 363.325,-783.344"/>
</g>
<!-- Node42 -->
<g id="node42" class="node"><title>Node42</title>
<g id="a_node42"><a xlink:href="classVoxel_1_1DepthCamera.xhtml#a4f1c6d826c1842d7bc3fbeea5ebb9616" target="_top" xlink:title="Voxel::DepthCamera::set">
<polygon fill="none" stroke="black" points="188,-228.5 188,-247.5 316,-247.5 316,-228.5 188,-228.5"/>
<text text-anchor="middle" x="252" y="-235.5" font-family="Helvetica,sans-Serif" font-size="10.00">Voxel::DepthCamera::set</text>
</a>
</g>
</g>
<!-- Node1&#45;&gt;Node42 -->
<g id="edge49" class="edge"><title>Node1&#45;&gt;Node42</title>
<path fill="none" stroke="midnightblue" d="M84.9286,-560.599C113.399,-505.295 210.417,-316.833 241.404,-256.641"/>
<polygon fill="midnightblue" stroke="midnightblue" points="244.627,-258.027 246.092,-247.533 238.403,-254.823 244.627,-258.027"/>
</g>
<!-- Node3 -->
<g id="node3" class="node"><title>Node3</title>
<g id="a_node3"><a xlink:href="classVoxel_1_1TI_1_1ToFCamera.xhtml#abb0e21a487e4d2ae08031d0078b0578d" target="_top" xlink:title="Voxel::TI::ToFCamera\l::_getBinning">
<polygon fill="none" stroke="black" points="364,-343 364,-373 478,-373 478,-343 364,-343"/>
<text text-anchor="start" x="372" y="-361" font-family="Helvetica,sans-Serif" font-size="10.00">Voxel::TI::ToFCamera</text>
<text text-anchor="middle" x="421" y="-350" font-family="Helvetica,sans-Serif" font-size="10.00">::_getBinning</text>
</a>
</g>
</g>
<!-- Node2&#45;&gt;Node3 -->
<g id="edge2" class="edge"><title>Node2&#45;&gt;Node3</title>
<path fill="none" stroke="midnightblue" d="M264.526,-464.975C281.532,-443.742 315.318,-404.988 352,-382 354.569,-380.39 357.261,-378.87 360.029,-377.437"/>
<polygon fill="midnightblue" stroke="midnightblue" points="361.533,-380.597 369.072,-373.154 358.537,-374.271 361.533,-380.597"/>
</g>
<!-- Node2&#45;&gt;Node4 -->
<g id="edge3" class="edge"><title>Node2&#45;&gt;Node4</title>
<path fill="none" stroke="midnightblue" d="M252.814,-495.329C253.011,-548.195 260.771,-725.021 352,-823 353.837,-824.973 355.844,-826.792 357.979,-828.467"/>
<polygon fill="midnightblue" stroke="midnightblue" points="356.481,-831.671 366.758,-834.245 360.329,-825.824 356.481,-831.671"/>
</g>
<!-- Node6 -->
<g id="node6" class="node"><title>Node6</title>
<g id="a_node6"><a xlink:href="classVoxel_1_1ConfigurationFile.xhtml#aeefbdefcac8743d6f08c25109480da2f" target="_top" xlink:title="Voxel::ConfigurationFile\l::getInteger">
<polygon fill="none" stroke="black" points="360.5,-294 360.5,-324 481.5,-324 481.5,-294 360.5,-294"/>
<text text-anchor="start" x="368.5" y="-312" font-family="Helvetica,sans-Serif" font-size="10.00">Voxel::ConfigurationFile</text>
<text text-anchor="middle" x="421" y="-301" font-family="Helvetica,sans-Serif" font-size="10.00">::getInteger</text>
</a>
</g>
</g>
<!-- Node2&#45;&gt;Node6 -->
<g id="edge5" class="edge"><title>Node2&#45;&gt;Node6</title>
<path fill="none" stroke="midnightblue" d="M259.302,-464.739C272.282,-435.116 304.796,-369.536 352,-333 353.81,-331.599 355.708,-330.276 357.673,-329.026"/>
<polygon fill="midnightblue" stroke="midnightblue" points="359.625,-331.945 366.644,-324.008 356.208,-325.835 359.625,-331.945"/>
</g>
<!-- Node7 -->
<g id="node7" class="node"><title>Node7</title>
<g id="a_node7"><a xlink:href="classVoxel_1_1ConfigurationFile.xhtml#a3145251f8115c7ada128556345a41c62" target="_top" xlink:title="Voxel::ConfigurationFile\l::getFloat">
<polygon fill="none" stroke="black" points="360.5,-245 360.5,-275 481.5,-275 481.5,-245 360.5,-245"/>
<text text-anchor="start" x="368.5" y="-263" font-family="Helvetica,sans-Serif" font-size="10.00">Voxel::ConfigurationFile</text>
<text text-anchor="middle" x="421" y="-252" font-family="Helvetica,sans-Serif" font-size="10.00">::getFloat</text>
</a>
</g>
</g>
<!-- Node2&#45;&gt;Node7 -->
<g id="edge6" class="edge"><title>Node2&#45;&gt;Node7</title>
<path fill="none" stroke="midnightblue" d="M256.5,-464.846C265.683,-428.402 293.88,-335.097 352,-284 353.325,-282.835 354.71,-281.726 356.145,-280.669"/>
<polygon fill="midnightblue" stroke="midnightblue" points="358.248,-283.481 364.831,-275.179 354.508,-277.563 358.248,-283.481"/>
</g>
<!-- Node8 -->
<g id="node8" class="node"><title>Node8</title>
<g id="a_node8"><a xlink:href="classVoxel_1_1DepthCamera.xhtml#aa229ee837c73aa2c78a8bd7a26fa0955" target="_top" xlink:title="Voxel::DepthCamera\l::getMaximumFrameSize">
<polygon fill="none" stroke="black" points="358,-441 358,-471 484,-471 484,-441 358,-441"/>
<text text-anchor="start" x="366" y="-459" font-family="Helvetica,sans-Serif" font-size="10.00">Voxel::DepthCamera</text>
<text text-anchor="middle" x="421" y="-448" font-family="Helvetica,sans-Serif" font-size="10.00">::getMaximumFrameSize</text>
</a>
</g>
</g>
<!-- Node2&#45;&gt;Node8 -->
<g id="edge7" class="edge"><title>Node2&#45;&gt;Node8</title>
<path fill="none" stroke="midnightblue" d="M309.073,-471.942C321.41,-470.169 334.645,-468.267 347.525,-466.416"/>
<polygon fill="midnightblue" stroke="midnightblue" points="348.353,-469.833 357.753,-464.946 347.357,-462.904 348.353,-469.833"/>
</g>
<!-- Node2&#45;&gt;Node10 -->
<g id="edge9" class="edge"><title>Node2&#45;&gt;Node10</title>
<path fill="none" stroke="midnightblue" d="M258.575,-495.262C269.79,-526.089 295.737,-598.037 316,-659 332.893,-709.823 315.067,-735.214 352,-774 353.859,-775.953 355.884,-777.754 358.034,-779.415"/>
<polygon fill="midnightblue" stroke="midnightblue" points="356.565,-782.635 366.857,-785.152 360.381,-776.766 356.565,-782.635"/>
</g>
<!-- Node12 -->
<g id="node12" class="node"><title>Node12</title>
<g id="a_node12"><a xlink:href="classVoxel_1_1TI_1_1ToFCamera.xhtml#acf6c3a732c5a47f38f2d461d76709091" target="_top" xlink:title="Voxel::TI::ToFCamera\l::_getBytesPerPixel">
<polygon fill="none" stroke="black" points="364,-98 364,-128 478,-128 478,-98 364,-98"/>
<text text-anchor="start" x="372" y="-116" font-family="Helvetica,sans-Serif" font-size="10.00">Voxel::TI::ToFCamera</text>
<text text-anchor="middle" x="421" y="-105" font-family="Helvetica,sans-Serif" font-size="10.00">::_getBytesPerPixel</text>
</a>
</g>
</g>
<!-- Node2&#45;&gt;Node12 -->
<g id="edge11" class="edge"><title>Node2&#45;&gt;Node12</title>
<path fill="none" stroke="midnightblue" d="M257.238,-464.971C275.787,-399.238 349.03,-140.149 352,-137 353.074,-135.862 354.205,-134.777 355.385,-133.744"/>
<polygon fill="midnightblue" stroke="midnightblue" points="357.757,-136.348 363.801,-127.645 353.65,-130.68 357.757,-136.348"/>
</g>
<!-- Node16 -->
<g id="node16" class="node"><title>Node16</title>
<g id="a_node16"><a xlink:href="classVoxel_1_1TI_1_1ToFCamera.xhtml#a8722e9125739af3cd8c9291b7b6f126a" target="_top" xlink:title="Voxel::TI::ToFCamera\l::_getOpDataArrangeMode">
<polygon fill="none" stroke="black" points="354.5,-49 354.5,-79 487.5,-79 487.5,-49 354.5,-49"/>
<text text-anchor="start" x="362.5" y="-67" font-family="Helvetica,sans-Serif" font-size="10.00">Voxel::TI::ToFCamera</text>
<text text-anchor="middle" x="421" y="-56" font-family="Helvetica,sans-Serif" font-size="10.00">::_getOpDataArrangeMode</text>
</a>
</g>
</g>
<!-- Node2&#45;&gt;Node16 -->
<g id="edge15" class="edge"><title>Node2&#45;&gt;Node16</title>
<path fill="none" stroke="midnightblue" d="M257.621,-464.949C268.539,-429.124 296.477,-335.886 316,-257 334.449,-182.453 301.322,-145.701 352,-88 352.744,-87.1534 353.519,-86.3367 354.323,-85.5488"/>
<polygon fill="midnightblue" stroke="midnightblue" points="356.626,-88.1887 362.245,-79.2071 352.251,-82.7238 356.626,-88.1887"/>
</g>
<!-- Node17 -->
<g id="node17" class="node"><title>Node17</title>
<g id="a_node17"><a xlink:href="classVoxel_1_1TI_1_1ToFCamera.xhtml#a53e0fb4c6f4d4b9ac37b6f1ca763a104" target="_top" xlink:title="Voxel::TI::ToFCamera\l::_getToFFrameType">
<polygon fill="none" stroke="black" points="364,-147 364,-177 478,-177 478,-147 364,-147"/>
<text text-anchor="start" x="372" y="-165" font-family="Helvetica,sans-Serif" font-size="10.00">Voxel::TI::ToFCamera</text>
<text text-anchor="middle" x="421" y="-154" font-family="Helvetica,sans-Serif" font-size="10.00">::_getToFFrameType</text>
</a>
</g>
</g>
<!-- Node2&#45;&gt;Node17 -->
<g id="edge16" class="edge"><title>Node2&#45;&gt;Node17</title>
<path fill="none" stroke="midnightblue" d="M257.309,-464.667C273.566,-407.228 331.301,-207.001 352,-186 353.099,-184.885 354.252,-183.823 355.452,-182.809"/>
<polygon fill="midnightblue" stroke="midnightblue" points="357.81,-185.429 363.969,-176.808 353.779,-179.706 357.81,-185.429"/>
</g>
<!-- Node18 -->
<g id="node18" class="node"><title>Node18</title>
<g id="a_node18"><a xlink:href="classVoxel_1_1TI_1_1ToFCamera.xhtml#af3a59471799f2526c520511f688d247c" target="_top" xlink:title="Voxel::TI::ToFCamera\l::_is16BitModeEnabled">
<polygon fill="none" stroke="black" points="362.5,-686 362.5,-716 479.5,-716 479.5,-686 362.5,-686"/>
<text text-anchor="start" x="370.5" y="-704" font-family="Helvetica,sans-Serif" font-size="10.00">Voxel::TI::ToFCamera</text>
<text text-anchor="middle" x="421" y="-693" font-family="Helvetica,sans-Serif" font-size="10.00">::_is16BitModeEnabled</text>
</a>
</g>
</g>
<!-- Node2&#45;&gt;Node18 -->
<g id="edge18" class="edge"><title>Node2&#45;&gt;Node18</title>
<path fill="none" stroke="midnightblue" d="M256.542,-495.105C265.822,-531.442 294.213,-624.526 352,-676 353.755,-677.563 355.616,-679.032 357.559,-680.411"/>
<polygon fill="midnightblue" stroke="midnightblue" points="356.164,-683.661 366.519,-685.901 359.821,-677.692 356.164,-683.661"/>
</g>
<!-- Node19 -->
<g id="node19" class="node"><title>Node19</title>
<g id="a_node19"><a xlink:href="classVoxel_1_1TI_1_1ToFCamera.xhtml#a89f0b37afd1c32c500cdd7496e46cf50" target="_top" xlink:title="Voxel::TI::ToFCamera\l::_getDealiasedPhaseMask">
<polygon fill="none" stroke="black" points="352.5,-637 352.5,-667 489.5,-667 489.5,-637 352.5,-637"/>
<text text-anchor="start" x="360.5" y="-655" font-family="Helvetica,sans-Serif" font-size="10.00">Voxel::TI::ToFCamera</text>
<text text-anchor="middle" x="421" y="-644" font-family="Helvetica,sans-Serif" font-size="10.00">::_getDealiasedPhaseMask</text>
</a>
</g>
</g>
<!-- Node2&#45;&gt;Node19 -->
<g id="edge19" class="edge"><title>Node2&#45;&gt;Node19</title>
<path fill="none" stroke="midnightblue" d="M259.344,-495.207C272.398,-524.735 305.035,-590.157 352,-627 354.273,-628.783 356.686,-630.448 359.194,-632"/>
<polygon fill="midnightblue" stroke="midnightblue" points="357.583,-635.108 368.032,-636.859 360.955,-628.974 357.583,-635.108"/>
</g>
<!-- Node20 -->
<g id="node20" class="node"><title>Node20</title>
<g id="a_node20"><a xlink:href="classVoxel_1_1MainConfigurationFile.xhtml#a0d061a6b01c29c40af3288f4783c3c07" target="_top" xlink:title="Voxel::MainConfiguration\lFile::isPresent">
<polygon fill="none" stroke="black" points="358,-539 358,-569 484,-569 484,-539 358,-539"/>
<text text-anchor="start" x="366" y="-557" font-family="Helvetica,sans-Serif" font-size="10.00">Voxel::MainConfiguration</text>
<text text-anchor="middle" x="421" y="-546" font-family="Helvetica,sans-Serif" font-size="10.00">File::isPresent</text>
</a>
</g>
</g>
<!-- Node2&#45;&gt;Node20 -->
<g id="edge20" class="edge"><title>Node2&#45;&gt;Node20</title>
<path fill="none" stroke="midnightblue" d="M281.641,-495.195C301.206,-505.321 327.862,-518.625 352,-529 356.983,-531.142 362.218,-533.272 367.477,-535.333"/>
<polygon fill="midnightblue" stroke="midnightblue" points="366.331,-538.642 376.921,-538.956 368.838,-532.106 366.331,-538.642"/>
</g>
<!-- Node30 -->
<g id="node30" class="node"><title>Node30</title>
<g id="a_node30"><a xlink:href="classVoxel_1_1MainConfigurationFile.xhtml#a700e33f6f37c59f24bdea5db5a037898" target="_top" xlink:title="Voxel::MainConfiguration\lFile::getFile">
<polygon fill="none" stroke="black" points="358,-735 358,-765 484,-765 484,-735 358,-735"/>
<text text-anchor="start" x="366" y="-753" font-family="Helvetica,sans-Serif" font-size="10.00">Voxel::MainConfiguration</text>
<text text-anchor="middle" x="421" y="-742" font-family="Helvetica,sans-Serif" font-size="10.00">File::getFile</text>
</a>
</g>
</g>
<!-- Node2&#45;&gt;Node30 -->
<g id="edge32" class="edge"><title>Node2&#45;&gt;Node30</title>
<path fill="none" stroke="midnightblue" d="M258.317,-495.164C276.23,-545.946 334.248,-707.803 352,-725 353.615,-726.564 355.336,-728.032 357.14,-729.409"/>
<polygon fill="midnightblue" stroke="midnightblue" points="355.229,-732.341 365.514,-734.884 359.059,-726.483 355.229,-732.341"/>
</g>
<!-- Node34 -->
<g id="node34" class="node"><title>Node34</title>
<g id="a_node34"><a xlink:href="classVoxel_1_1TI_1_1ToFCamera.xhtml#a3c35074af2f6b686cea15db188b9c53f" target="_top" xlink:title="Voxel::TI::ToFCamera\l::_isHistogramEnabled">
<polygon fill="none" stroke="black" points="363,-490 363,-520 479,-520 479,-490 363,-490"/>
<text text-anchor="start" x="371" y="-508" font-family="Helvetica,sans-Serif" font-size="10.00">Voxel::TI::ToFCamera</text>
<text text-anchor="middle" x="421" y="-497" font-family="Helvetica,sans-Serif" font-size="10.00">::_isHistogramEnabled</text>
</a>
</g>
</g>
<!-- Node2&#45;&gt;Node34 -->
<g id="edge36" class="edge"><title>Node2&#45;&gt;Node34</title>
<path fill="none" stroke="midnightblue" d="M309.073,-488.394C323.162,-490.503 338.423,-492.788 352.987,-494.968"/>
<polygon fill="midnightblue" stroke="midnightblue" points="352.528,-498.438 362.936,-496.457 353.564,-491.515 352.528,-498.438"/>
</g>
<!-- Node35 -->
<g id="node35" class="node"><title>Node35</title>
<g id="a_node35"><a xlink:href="classVoxel_1_1MainConfigurationFile.xhtml#a0450eaddb1180226c1a3e898e978aba4" target="_top" xlink:title="Voxel::MainConfiguration\lFile::get">
<polygon fill="none" stroke="black" points="358,-588 358,-618 484,-618 484,-588 358,-588"/>
<text text-anchor="start" x="366" y="-606" font-family="Helvetica,sans-Serif" font-size="10.00">Voxel::MainConfiguration</text>
<text text-anchor="middle" x="421" y="-595" font-family="Helvetica,sans-Serif" font-size="10.00">File::get</text>
</a>
</g>
</g>
<!-- Node2&#45;&gt;Node35 -->
<g id="edge37" class="edge"><title>Node2&#45;&gt;Node35</title>
<path fill="none" stroke="midnightblue" d="M264.854,-495.317C282,-516.547 315.672,-554.904 352,-578 355.158,-580.008 358.5,-581.886 361.941,-583.639"/>
<polygon fill="midnightblue" stroke="midnightblue" points="360.682,-586.914 371.222,-587.985 363.65,-580.575 360.682,-586.914"/>
</g>
<!-- Node38 -->
<g id="node38" class="node"><title>Node38</title>
<g id="a_node38"><a xlink:href="classVoxel_1_1TI_1_1ToFCamera.xhtml#a5ce6e98d8496efd0b62d926e73809034" target="_top" xlink:title="Voxel::TI::ToFCamera\l::_applyCalibrationParams">
<polygon fill="none" stroke="black" points="355.5,-392 355.5,-422 486.5,-422 486.5,-392 355.5,-392"/>
<text text-anchor="start" x="363.5" y="-410" font-family="Helvetica,sans-Serif" font-size="10.00">Voxel::TI::ToFCamera</text>
<text text-anchor="middle" x="421" y="-399" font-family="Helvetica,sans-Serif" font-size="10.00">::_applyCalibrationParams</text>
</a>
</g>
</g>
<!-- Node2&#45;&gt;Node38 -->
<g id="edge43" class="edge"><title>Node2&#45;&gt;Node38</title>
<path fill="none" stroke="midnightblue" d="M281.17,-464.926C300.755,-454.727 327.618,-441.292 352,-431 356.201,-429.227 360.583,-427.472 365.009,-425.767"/>
<polygon fill="midnightblue" stroke="midnightblue" points="366.584,-428.914 374.718,-422.125 364.125,-422.36 366.584,-428.914"/>
</g>
<!-- Node39 -->
<g id="node39" class="node"><title>Node39</title>
<g id="a_node39"><a xlink:href="classVoxel_1_1TI_1_1ToFCameraBase.xhtml#aceb0704d27455da6268e3d5b4a92c411" target="_top" xlink:title="Voxel::TI::ToFCameraBase\l::_initStartParams">
<polygon fill="none" stroke="black" points="352.5,-196 352.5,-226 489.5,-226 489.5,-196 352.5,-196"/>
<text text-anchor="start" x="360.5" y="-214" font-family="Helvetica,sans-Serif" font-size="10.00">Voxel::TI::ToFCameraBase</text>
<text text-anchor="middle" x="421" y="-203" font-family="Helvetica,sans-Serif" font-size="10.00">::_initStartParams</text>
</a>
</g>
</g>
<!-- Node2&#45;&gt;Node39 -->
<g id="edge44" class="edge"><title>Node2&#45;&gt;Node39</title>
<path fill="none" stroke="midnightblue" d="M254.778,-464.959C260.57,-422.629 282.703,-301.265 352,-235 353.131,-233.918 354.314,-232.885 355.54,-231.898"/>
<polygon fill="midnightblue" stroke="midnightblue" points="357.878,-234.542 364.192,-226.034 353.95,-228.748 357.878,-234.542"/>
</g>
<!-- Node5 -->
<g id="node5" class="node"><title>Node5</title>
<g id="a_node5"><a xlink:href="classVoxel_1_1DepthCamera.xhtml#ae09d2aaee73e56b4b488897f6081191e" target="_top" xlink:title="Voxel::DepthCamera\l::_getROI">
<polygon fill="none" stroke="black" points="554,-833 554,-863 662,-863 662,-833 554,-833"/>
<text text-anchor="start" x="562" y="-851" font-family="Helvetica,sans-Serif" font-size="10.00">Voxel::DepthCamera</text>
<text text-anchor="middle" x="608" y="-840" font-family="Helvetica,sans-Serif" font-size="10.00">::_getROI</text>
</a>
</g>
</g>
<!-- Node4&#45;&gt;Node5 -->
<g id="edge4" class="edge"><title>Node4&#45;&gt;Node5</title>
<path fill="none" stroke="midnightblue" d="M475.014,-848C496.495,-848 521.473,-848 543.884,-848"/>
<polygon fill="midnightblue" stroke="midnightblue" points="543.979,-851.5 553.979,-848 543.979,-844.5 543.979,-851.5"/>
</g>
<!-- Node9 -->
<g id="node9" class="node"><title>Node9</title>
<g id="a_node9"><a xlink:href="classVoxel_1_1DepthCamera.xhtml#a81260a37bfc6da411b8d3d71342a2eda" target="_top" xlink:title="Voxel::DepthCamera\l::_getMaximumFrameSize">
<polygon fill="none" stroke="black" points="542.5,-441 542.5,-471 673.5,-471 673.5,-441 542.5,-441"/>
<text text-anchor="start" x="550.5" y="-459" font-family="Helvetica,sans-Serif" font-size="10.00">Voxel::DepthCamera</text>
<text text-anchor="middle" x="608" y="-448" font-family="Helvetica,sans-Serif" font-size="10.00">::_getMaximumFrameSize</text>
</a>
</g>
</g>
<!-- Node8&#45;&gt;Node9 -->
<g id="edge8" class="edge"><title>Node8&#45;&gt;Node9</title>
<path fill="none" stroke="midnightblue" d="M484.117,-456C499.444,-456 516.023,-456 531.894,-456"/>
<polygon fill="midnightblue" stroke="midnightblue" points="532.201,-459.5 542.201,-456 532.201,-452.5 532.201,-459.5"/>
</g>
<!-- Node11 -->
<g id="node11" class="node"><title>Node11</title>
<g id="a_node11"><a xlink:href="classVoxel_1_1DepthCamera.xhtml#a7cca2c2413b60d0d2ef26e0cb8802118" target="_top" xlink:title="Voxel::DepthCamera\l::_getFrameSize">
<polygon fill="none" stroke="black" points="554,-784 554,-814 662,-814 662,-784 554,-784"/>
<text text-anchor="start" x="562" y="-802" font-family="Helvetica,sans-Serif" font-size="10.00">Voxel::DepthCamera</text>
<text text-anchor="middle" x="608" y="-791" font-family="Helvetica,sans-Serif" font-size="10.00">::_getFrameSize</text>
</a>
</g>
</g>
<!-- Node10&#45;&gt;Node11 -->
<g id="edge10" class="edge"><title>Node10&#45;&gt;Node11</title>
<path fill="none" stroke="midnightblue" d="M475.014,-799C496.495,-799 521.473,-799 543.884,-799"/>
<polygon fill="midnightblue" stroke="midnightblue" points="543.979,-802.5 553.979,-799 543.979,-795.5 543.979,-802.5"/>
</g>
<!-- Node13 -->
<g id="node13" class="node"><title>Node13</title>
<g id="a_node13"><a xlink:href="classVoxel_1_1DepthCamera.xhtml#ac850b3829f41e647686610c283197ea6" target="_top" xlink:title="Voxel::DepthCamera\l::_get">
<polygon fill="none" stroke="black" points="554,-98 554,-128 662,-128 662,-98 554,-98"/>
<text text-anchor="start" x="562" y="-116" font-family="Helvetica,sans-Serif" font-size="10.00">Voxel::DepthCamera</text>
<text text-anchor="middle" x="608" y="-105" font-family="Helvetica,sans-Serif" font-size="10.00">::_get</text>
</a>
</g>
</g>
<!-- Node12&#45;&gt;Node13 -->
<g id="edge12" class="edge"><title>Node12&#45;&gt;Node13</title>
<path fill="none" stroke="midnightblue" d="M478.008,-113C498.663,-113 522.209,-113 543.48,-113"/>
<polygon fill="midnightblue" stroke="midnightblue" points="543.717,-116.5 553.717,-113 543.717,-109.5 543.717,-116.5"/>
</g>
<!-- Node14 -->
<g id="node14" class="node"><title>Node14</title>
<g id="a_node14"><a xlink:href="classVoxel_1_1ParameterTemplate.xhtml#afa8896eaffbd2b87d1482c0967a0fe1d" target="_top" xlink:title="Voxel::ParameterTemplate::get">
<polygon fill="none" stroke="black" points="726,-103.5 726,-122.5 878,-122.5 878,-103.5 726,-103.5"/>
<text text-anchor="middle" x="802" y="-110.5" font-family="Helvetica,sans-Serif" font-size="10.00">Voxel::ParameterTemplate::get</text>
</a>
</g>
</g>
<!-- Node13&#45;&gt;Node14 -->
<g id="edge13" class="edge"><title>Node13&#45;&gt;Node14</title>
<path fill="none" stroke="midnightblue" d="M662.228,-113C678.802,-113 697.514,-113 715.707,-113"/>
<polygon fill="midnightblue" stroke="midnightblue" points="715.743,-116.5 725.743,-113 715.743,-109.5 715.743,-116.5"/>
</g>
<!-- Node15 -->
<g id="node15" class="node"><title>Node15</title>
<g id="a_node15"><a xlink:href="classVoxel_1_1DepthCamera.xhtml#ae3d6fcc6d4a20d1ad2de809ad65ecc34" target="_top" xlink:title="Voxel::DepthCamera\l::name">
<polygon fill="none" stroke="black" points="748,-50 748,-80 856,-80 856,-50 748,-50"/>
<text text-anchor="start" x="756" y="-68" font-family="Helvetica,sans-Serif" font-size="10.00">Voxel::DepthCamera</text>
<text text-anchor="middle" x="802" y="-57" font-family="Helvetica,sans-Serif" font-size="10.00">::name</text>
</a>
</g>
</g>
<!-- Node13&#45;&gt;Node15 -->
<g id="edge14" class="edge"><title>Node13&#45;&gt;Node15</title>
<path fill="none" stroke="midnightblue" d="M662.228,-99.6931C685.637,-93.8406 713.312,-86.9219 737.765,-80.8088"/>
<polygon fill="midnightblue" stroke="midnightblue" points="738.816,-84.1537 747.669,-78.3328 737.118,-77.3627 738.816,-84.1537"/>
</g>
<!-- Node17&#45;&gt;Node13 -->
<g id="edge17" class="edge"><title>Node17&#45;&gt;Node13</title>
<path fill="none" stroke="midnightblue" d="M478.008,-147.165C498.757,-141.67 522.423,-135.402 543.77,-129.747"/>
<polygon fill="midnightblue" stroke="midnightblue" points="544.947,-133.057 553.717,-127.113 543.154,-126.29 544.947,-133.057"/>
</g>
<!-- Node21 -->
<g id="node21" class="node"><title>Node21</title>
<g id="a_node21"><a xlink:href="classVoxel_1_1ConfigurationFile.xhtml#a00e007801296e76b05ef10f1c8176c2d" target="_top" xlink:title="Voxel::ConfigurationFile\l::isPresent">
<polygon fill="none" stroke="black" points="547.5,-530 547.5,-560 668.5,-560 668.5,-530 547.5,-530"/>
<text text-anchor="start" x="555.5" y="-548" font-family="Helvetica,sans-Serif" font-size="10.00">Voxel::ConfigurationFile</text>
<text text-anchor="middle" x="608" y="-537" font-family="Helvetica,sans-Serif" font-size="10.00">::isPresent</text>
</a>
</g>
</g>
<!-- Node20&#45;&gt;Node21 -->
<g id="edge21" class="edge"><title>Node20&#45;&gt;Node21</title>
<path fill="none" stroke="midnightblue" d="M484.117,-550.978C501.14,-550.15 519.708,-549.247 537.133,-548.399"/>
<polygon fill="midnightblue" stroke="midnightblue" points="537.423,-551.889 547.241,-547.907 537.083,-544.897 537.423,-551.889"/>
</g>
<!-- Node21&#45;&gt;Node21 -->
<g id="edge24" class="edge"><title>Node21&#45;&gt;Node21</title>
<path fill="none" stroke="midnightblue" d="M575.305,-560.275C568.039,-569.406 578.938,-578 608,-578 625.256,-578 636.108,-574.97 640.557,-570.598"/>
<polygon fill="midnightblue" stroke="midnightblue" points="644.061,-570.321 640.695,-560.275 637.062,-570.228 644.061,-570.321"/>
</g>
<!-- Node22 -->
<g id="node22" class="node"><title>Node22</title>
<g id="a_node22"><a xlink:href="classVoxel_1_1MainConfigurationFile.xhtml#ab24aaf7b18fea74c6f235da04fadbed0" target="_top" xlink:title="Voxel::MainConfiguration\lFile::getCameraProfile">
<polygon fill="none" stroke="black" points="739,-586 739,-616 865,-616 865,-586 739,-586"/>
<text text-anchor="start" x="747" y="-604" font-family="Helvetica,sans-Serif" font-size="10.00">Voxel::MainConfiguration</text>
<text text-anchor="middle" x="802" y="-593" font-family="Helvetica,sans-Serif" font-size="10.00">File::getCameraProfile</text>
</a>
</g>
</g>
<!-- Node21&#45;&gt;Node22 -->
<g id="edge22" class="edge"><title>Node21&#45;&gt;Node22</title>
<path fill="none" stroke="midnightblue" d="M660.452,-560.007C684.772,-567.1 713.992,-575.623 739.475,-583.055"/>
<polygon fill="midnightblue" stroke="midnightblue" points="738.825,-586.512 749.405,-585.952 740.786,-579.792 738.825,-586.512"/>
</g>
<!-- Node23 -->
<g id="node23" class="node"><title>Node23</title>
<g id="a_node23"><a xlink:href="classVoxel_1_1ConfigSet.xhtml#ab7930d0d21d160341d989ef998ecac73" target="_top" xlink:title="Voxel::ConfigSet::isPresent">
<polygon fill="none" stroke="black" points="733,-509.5 733,-528.5 871,-528.5 871,-509.5 733,-509.5"/>
<text text-anchor="middle" x="802" y="-516.5" font-family="Helvetica,sans-Serif" font-size="10.00">Voxel::ConfigSet::isPresent</text>
</a>
</g>
</g>
<!-- Node21&#45;&gt;Node23 -->
<g id="edge23" class="edge"><title>Node21&#45;&gt;Node23</title>
<path fill="none" stroke="midnightblue" d="M668.698,-536.916C685.881,-534.589 704.884,-532.016 722.999,-529.563"/>
<polygon fill="midnightblue" stroke="midnightblue" points="723.516,-533.025 732.955,-528.214 722.576,-526.088 723.516,-533.025"/>
</g>
<!-- Node24 -->
<g id="node24" class="node"><title>Node24</title>
<g id="a_node24"><a xlink:href="classVoxel_1_1ConfigurationFile.xhtml#a440d9dd2f89d0c76c81f7285b31a5b94" target="_top" xlink:title="Voxel::ConfigurationFile::set">
<polygon fill="none" stroke="black" points="732,-547.5 732,-566.5 872,-566.5 872,-547.5 732,-547.5"/>
<text text-anchor="middle" x="802" y="-554.5" font-family="Helvetica,sans-Serif" font-size="10.00">Voxel::ConfigurationFile::set</text>
</a>
</g>
</g>
<!-- Node21&#45;&gt;Node24 -->
<g id="edge25" class="edge"><title>Node21&#45;&gt;Node24</title>
<path fill="none" stroke="midnightblue" d="M668.698,-548.731C685.445,-549.778 703.922,-550.933 721.621,-552.039"/>
<polygon fill="midnightblue" stroke="midnightblue" points="721.735,-555.553 731.934,-552.683 722.171,-548.566 721.735,-555.553"/>
</g>
<!-- Node25 -->
<g id="node25" class="node"><title>Node25</title>
<g id="a_node25"><a xlink:href="classVoxel_1_1ConfigurationFile.xhtml#a3b9b573c1a3d9162fc0100c317ca0879" target="_top" xlink:title="Voxel::ConfigurationFile\l::_set">
<polygon fill="none" stroke="black" points="914.5,-542 914.5,-572 1035.5,-572 1035.5,-542 914.5,-542"/>
<text text-anchor="start" x="922.5" y="-560" font-family="Helvetica,sans-Serif" font-size="10.00">Voxel::ConfigurationFile</text>
<text text-anchor="middle" x="975" y="-549" font-family="Helvetica,sans-Serif" font-size="10.00">::_set</text>
</a>
</g>
</g>
<!-- Node24&#45;&gt;Node25 -->
<g id="edge26" class="edge"><title>Node24&#45;&gt;Node25</title>
<path fill="none" stroke="midnightblue" d="M872.059,-550.362C882.666,-550.216 893.624,-550.213 904.246,-550.353"/>
<polygon fill="midnightblue" stroke="midnightblue" points="904.244,-553.853 914.304,-550.531 904.368,-546.854 904.244,-553.853"/>
</g>
<!-- Node25&#45;&gt;Node24 -->
<g id="edge31" class="edge"><title>Node25&#45;&gt;Node24</title>
<path fill="none" stroke="midnightblue" d="M914.304,-563.469C903.967,-563.701 893.075,-563.789 882.314,-563.734"/>
<polygon fill="midnightblue" stroke="midnightblue" points="882.092,-560.232 872.059,-563.638 882.026,-567.232 882.092,-560.232"/>
</g>
<!-- Node26 -->
<g id="node26" class="node"><title>Node26</title>
<g id="a_node26"><a xlink:href="classVoxel_1_1ConfigSet.xhtml#a8fb880c24ad7b0f04c84d4a33becb995" target="_top" xlink:title="Voxel::ConfigSet::_set">
<polygon fill="none" stroke="black" points="1072,-547.5 1072,-566.5 1188,-566.5 1188,-547.5 1072,-547.5"/>
<text text-anchor="middle" x="1130" y="-554.5" font-family="Helvetica,sans-Serif" font-size="10.00">Voxel::ConfigSet::_set</text>
</a>
</g>
</g>
<!-- Node25&#45;&gt;Node26 -->
<g id="edge27" class="edge"><title>Node25&#45;&gt;Node26</title>
<path fill="none" stroke="midnightblue" d="M1035.59,-557C1044.16,-557 1053.02,-557 1061.72,-557"/>
<polygon fill="midnightblue" stroke="midnightblue" points="1061.83,-560.5 1071.83,-557 1061.83,-553.5 1061.83,-560.5"/>
</g>
<!-- Node27 -->
<g id="node27" class="node"><title>Node27</title>
<g id="a_node27"><a xlink:href="group__Util.xhtml#ga6b2a26aa983349496fedae9aa54ad034" target="_top" xlink:title="Trim. ">
<polygon fill="none" stroke="black" points="1224,-547.5 1224,-566.5 1288,-566.5 1288,-547.5 1224,-547.5"/>
<text text-anchor="middle" x="1256" y="-554.5" font-family="Helvetica,sans-Serif" font-size="10.00">Voxel::trim</text>
</a>
</g>
</g>
<!-- Node26&#45;&gt;Node27 -->
<g id="edge28" class="edge"><title>Node26&#45;&gt;Node27</title>
<path fill="none" stroke="midnightblue" d="M1188.28,-557C1196.75,-557 1205.34,-557 1213.41,-557"/>
<polygon fill="midnightblue" stroke="midnightblue" points="1213.67,-560.5 1223.67,-557 1213.67,-553.5 1213.67,-560.5"/>
</g>
<!-- Node28 -->
<g id="node28" class="node"><title>Node28</title>
<g id="a_node28"><a xlink:href="group__Util.xhtml#gac9c04e18f7878dd82964bb489b7b1314" target="_top" xlink:title="Left Trim. ">
<polygon fill="none" stroke="black" points="1325,-566.5 1325,-585.5 1391,-585.5 1391,-566.5 1325,-566.5"/>
<text text-anchor="middle" x="1358" y="-573.5" font-family="Helvetica,sans-Serif" font-size="10.00">Voxel::ltrim</text>
</a>
</g>
</g>
<!-- Node27&#45;&gt;Node28 -->
<g id="edge29" class="edge"><title>Node27&#45;&gt;Node28</title>
<path fill="none" stroke="midnightblue" d="M1288.09,-562.908C1296.59,-564.522 1305.94,-566.299 1314.94,-568.009"/>
<polygon fill="midnightblue" stroke="midnightblue" points="1314.41,-571.471 1324.89,-569.899 1315.72,-564.594 1314.41,-571.471"/>
</g>
<!-- Node29 -->
<g id="node29" class="node"><title>Node29</title>
<g id="a_node29"><a xlink:href="group__Util.xhtml#ga3d95f05dde73bc9c54051437445e439b" target="_top" xlink:title="Right Trim. ">
<polygon fill="none" stroke="black" points="1324.5,-528.5 1324.5,-547.5 1391.5,-547.5 1391.5,-528.5 1324.5,-528.5"/>
<text text-anchor="middle" x="1358" y="-535.5" font-family="Helvetica,sans-Serif" font-size="10.00">Voxel::rtrim</text>
</a>
</g>
</g>
<!-- Node27&#45;&gt;Node29 -->
<g id="edge30" class="edge"><title>Node27&#45;&gt;Node29</title>
<path fill="none" stroke="midnightblue" d="M1288.09,-551.092C1296.33,-549.526 1305.38,-547.808 1314.13,-546.146"/>
<polygon fill="midnightblue" stroke="midnightblue" points="1315.02,-549.538 1324.2,-544.233 1313.72,-542.661 1315.02,-549.538"/>
</g>
<!-- Node31 -->
<g id="node31" class="node"><title>Node31</title>
<g id="a_node31"><a xlink:href="classVoxel_1_1ConfigurationFile.xhtml#a49e5d191d816bda45d31e29a29272c9d" target="_top" xlink:title="Voxel::ConfigurationFile\l::getFile">
<polygon fill="none" stroke="black" points="547.5,-735 547.5,-765 668.5,-765 668.5,-735 547.5,-735"/>
<text text-anchor="start" x="555.5" y="-753" font-family="Helvetica,sans-Serif" font-size="10.00">Voxel::ConfigurationFile</text>
<text text-anchor="middle" x="608" y="-742" font-family="Helvetica,sans-Serif" font-size="10.00">::getFile</text>
</a>
</g>
</g>
<!-- Node30&#45;&gt;Node31 -->
<g id="edge33" class="edge"><title>Node30&#45;&gt;Node31</title>
<path fill="none" stroke="midnightblue" d="M484.117,-750C501.14,-750 519.708,-750 537.133,-750"/>
<polygon fill="midnightblue" stroke="midnightblue" points="537.241,-753.5 547.241,-750 537.241,-746.5 537.241,-753.5"/>
</g>
<!-- Node32 -->
<g id="node32" class="node"><title>Node32</title>
<g id="a_node32"><a xlink:href="classVoxel_1_1ConfigurationFile.xhtml#a69e6c29b1e3caafca6e783937834113b" target="_top" xlink:title="Voxel::ConfigurationFile\l::_getData">
<polygon fill="none" stroke="black" points="741.5,-735 741.5,-765 862.5,-765 862.5,-735 741.5,-735"/>
<text text-anchor="start" x="749.5" y="-753" font-family="Helvetica,sans-Serif" font-size="10.00">Voxel::ConfigurationFile</text>
<text text-anchor="middle" x="802" y="-742" font-family="Helvetica,sans-Serif" font-size="10.00">::_getData</text>
</a>
</g>
</g>
<!-- Node31&#45;&gt;Node32 -->
<g id="edge34" class="edge"><title>Node31&#45;&gt;Node32</title>
<path fill="none" stroke="midnightblue" d="M668.698,-750C688.474,-750 710.66,-750 731.131,-750"/>
<polygon fill="midnightblue" stroke="midnightblue" points="731.339,-753.5 741.339,-750 731.339,-746.5 731.339,-753.5"/>
</g>
<!-- Node33 -->
<g id="node33" class="node"><title>Node33</title>
<g id="a_node33"><a xlink:href="classVoxel_1_1Configuration.xhtml#aeed2f5638591b839dd233e8673a977e5" target="_top" xlink:title="Updates &quot;name&quot; to full path. ">
<polygon fill="none" stroke="black" points="922.5,-735 922.5,-765 1027.5,-765 1027.5,-735 922.5,-735"/>
<text text-anchor="start" x="930.5" y="-753" font-family="Helvetica,sans-Serif" font-size="10.00">Voxel::Configuration</text>
<text text-anchor="middle" x="975" y="-742" font-family="Helvetica,sans-Serif" font-size="10.00">::getConfFile</text>
</a>
</g>
</g>
<!-- Node32&#45;&gt;Node33 -->
<g id="edge35" class="edge"><title>Node32&#45;&gt;Node33</title>
<path fill="none" stroke="midnightblue" d="M862.808,-750C878.767,-750 896.042,-750 912.111,-750"/>
<polygon fill="midnightblue" stroke="midnightblue" points="912.47,-753.5 922.47,-750 912.47,-746.5 912.47,-753.5"/>
</g>
<!-- Node36 -->
<g id="node36" class="node"><title>Node36</title>
<g id="a_node36"><a xlink:href="classVoxel_1_1ConfigurationFile.xhtml#af5573f5dba76f1fde00220b892f8121c" target="_top" xlink:title="Voxel::ConfigurationFile\l::_get">
<polygon fill="none" stroke="black" points="547.5,-597 547.5,-627 668.5,-627 668.5,-597 547.5,-597"/>
<text text-anchor="start" x="555.5" y="-615" font-family="Helvetica,sans-Serif" font-size="10.00">Voxel::ConfigurationFile</text>
<text text-anchor="middle" x="608" y="-604" font-family="Helvetica,sans-Serif" font-size="10.00">::_get</text>
</a>
</g>
</g>
<!-- Node35&#45;&gt;Node36 -->
<g id="edge38" class="edge"><title>Node35&#45;&gt;Node36</title>
<path fill="none" stroke="midnightblue" d="M484.117,-606.022C501.14,-606.85 519.708,-607.753 537.133,-608.601"/>
<polygon fill="midnightblue" stroke="midnightblue" points="537.083,-612.103 547.241,-609.093 537.423,-605.111 537.083,-612.103"/>
</g>
<!-- Node36&#45;&gt;Node22 -->
<g id="edge41" class="edge"><title>Node36&#45;&gt;Node22</title>
<path fill="none" stroke="midnightblue" d="M668.698,-608.58C687.633,-607.495 708.779,-606.283 728.512,-605.153"/>
<polygon fill="midnightblue" stroke="midnightblue" points="728.9,-608.637 738.684,-604.57 728.5,-601.648 728.9,-608.637"/>
</g>
<!-- Node36&#45;&gt;Node24 -->
<g id="edge42" class="edge"><title>Node36&#45;&gt;Node24</title>
<path fill="none" stroke="midnightblue" d="M658.146,-596.94C679.026,-590.635 703.66,-583.318 726,-577 735.239,-574.387 745.145,-571.679 754.631,-569.132"/>
<polygon fill="midnightblue" stroke="midnightblue" points="755.559,-572.506 764.319,-566.546 753.754,-565.743 755.559,-572.506"/>
</g>
<!-- Node36&#45;&gt;Node36 -->
<g id="edge40" class="edge"><title>Node36&#45;&gt;Node36</title>
<path fill="none" stroke="midnightblue" d="M575.305,-627.275C568.039,-636.406 578.938,-645 608,-645 625.256,-645 636.108,-641.97 640.557,-637.598"/>
<polygon fill="midnightblue" stroke="midnightblue" points="644.061,-637.321 640.695,-627.275 637.062,-637.228 644.061,-637.321"/>
</g>
<!-- Node37 -->
<g id="node37" class="node"><title>Node37</title>
<g id="a_node37"><a xlink:href="classVoxel_1_1ConfigSet.xhtml#a49e4060aa2bc96690da36bdf5ef7b227" target="_top" xlink:title="Voxel::ConfigSet::_get">
<polygon fill="none" stroke="black" points="744,-635.5 744,-654.5 860,-654.5 860,-635.5 744,-635.5"/>
<text text-anchor="middle" x="802" y="-642.5" font-family="Helvetica,sans-Serif" font-size="10.00">Voxel::ConfigSet::_get</text>
</a>
</g>
</g>
<!-- Node36&#45;&gt;Node37 -->
<g id="edge39" class="edge"><title>Node36&#45;&gt;Node37</title>
<path fill="none" stroke="midnightblue" d="M668.698,-622.261C689.89,-625.903 713.85,-630.021 735.5,-633.742"/>
<polygon fill="midnightblue" stroke="midnightblue" points="735.144,-637.232 745.592,-635.477 736.33,-630.333 735.144,-637.232"/>
</g>
<!-- Node40 -->
<g id="node40" class="node"><title>Node40</title>
<g id="a_node40"><a xlink:href="classVoxel_1_1TI_1_1ToFCameraBase.xhtml#aff5c5aefff04e8514ab56adde5e25c28" target="_top" xlink:title="Voxel::TI::ToFCameraBase\l::_getAmplitudeNormalizingFactor">
<polygon fill="none" stroke="black" points="526,-172 526,-202 690,-202 690,-172 526,-172"/>
<text text-anchor="start" x="534" y="-190" font-family="Helvetica,sans-Serif" font-size="10.00">Voxel::TI::ToFCameraBase</text>
<text text-anchor="middle" x="608" y="-179" font-family="Helvetica,sans-Serif" font-size="10.00">::_getAmplitudeNormalizingFactor</text>
</a>
</g>
</g>
<!-- Node39&#45;&gt;Node40 -->
<g id="edge45" class="edge"><title>Node39&#45;&gt;Node40</title>
<path fill="none" stroke="midnightblue" d="M489.575,-202.234C498.124,-201.124 506.98,-199.976 515.821,-198.829"/>
<polygon fill="midnightblue" stroke="midnightblue" points="516.311,-202.294 525.777,-197.537 515.41,-195.353 516.311,-202.294"/>
</g>
<!-- Node41 -->
<g id="node41" class="node"><title>Node41</title>
<g id="a_node41"><a xlink:href="classVoxel_1_1TI_1_1ToFCameraBase.xhtml#a8e7ab32dbadf1d8c7fd4e7611e7e63c4" target="_top" xlink:title="Voxel::TI::ToFCameraBase\l::_getDepthScalingFactor">
<polygon fill="none" stroke="black" points="539.5,-221 539.5,-251 676.5,-251 676.5,-221 539.5,-221"/>
<text text-anchor="start" x="547.5" y="-239" font-family="Helvetica,sans-Serif" font-size="10.00">Voxel::TI::ToFCameraBase</text>
<text text-anchor="middle" x="608" y="-228" font-family="Helvetica,sans-Serif" font-size="10.00">::_getDepthScalingFactor</text>
</a>
</g>
</g>
<!-- Node39&#45;&gt;Node41 -->
<g id="edge46" class="edge"><title>Node39&#45;&gt;Node41</title>
<path fill="none" stroke="midnightblue" d="M489.575,-220.132C502.488,-221.877 516.102,-223.716 529.303,-225.5"/>
<polygon fill="midnightblue" stroke="midnightblue" points="528.92,-228.98 539.299,-226.851 529.858,-222.043 528.92,-228.98"/>
</g>
<!-- Node43 -->
<g id="node43" class="node"><title>Node43</title>
<g id="a_node43"><a xlink:href="classVoxel_1_1DepthCamera.xhtml#a474dfafecfd8b2a97a924aeab8a82a3c" target="_top" xlink:title="Voxel::DepthCamera\l::_set">
<polygon fill="none" stroke="black" points="367,-0 367,-30 475,-30 475,-0 367,-0"/>
<text text-anchor="start" x="375" y="-18" font-family="Helvetica,sans-Serif" font-size="10.00">Voxel::DepthCamera</text>
<text text-anchor="middle" x="421" y="-7" font-family="Helvetica,sans-Serif" font-size="10.00">::_set</text>
</a>
</g>
</g>
<!-- Node42&#45;&gt;Node43 -->
<g id="edge50" class="edge"><title>Node42&#45;&gt;Node43</title>
<path fill="none" stroke="midnightblue" d="M255.125,-228.106C262.525,-196.012 290.148,-93.7125 352,-39 353.928,-37.2944 355.985,-35.7079 358.138,-34.2325"/>
<polygon fill="midnightblue" stroke="midnightblue" points="360.026,-37.1821 366.847,-29.0748 356.459,-31.1591 360.026,-37.1821"/>
</g>
<!-- Node43&#45;&gt;Node15 -->
<g id="edge51" class="edge"><title>Node43&#45;&gt;Node15</title>
<path fill="none" stroke="midnightblue" d="M475.059,-25.417C491.362,-28.4226 509.386,-31.5488 526,-34 598.377,-44.6779 681.948,-53.621 737.789,-59.1152"/>
<polygon fill="midnightblue" stroke="midnightblue" points="737.592,-62.6124 747.885,-60.1006 738.272,-55.6456 737.592,-62.6124"/>
</g>
<!-- Node44 -->
<g id="node44" class="node"><title>Node44</title>
<g id="a_node44"><a xlink:href="classVoxel_1_1ParameterTemplate.xhtml#a64240b607339f55c4fac973fba8c8934" target="_top" xlink:title="Voxel::ParameterTemplate::set">
<polygon fill="none" stroke="black" points="532,-5.5 532,-24.5 684,-24.5 684,-5.5 532,-5.5"/>
<text text-anchor="middle" x="608" y="-12.5" font-family="Helvetica,sans-Serif" font-size="10.00">Voxel::ParameterTemplate::set</text>
</a>
</g>
</g>
<!-- Node43&#45;&gt;Node44 -->
<g id="edge52" class="edge"><title>Node43&#45;&gt;Node44</title>
<path fill="none" stroke="midnightblue" d="M475.014,-15C489.553,-15 505.694,-15 521.558,-15"/>
<polygon fill="midnightblue" stroke="midnightblue" points="521.922,-18.5001 531.922,-15 521.922,-11.5001 521.922,-18.5001"/>
</g>
</g>
</svg>
        <g id="navigator" transform="translate(0 0)" fill="#404254">
                <rect fill="#f2f5e9" fill-opacity="0.5" stroke="#606060" stroke-width=".5" x="0" y="0" width="60" height="60"/>
                <use id="zoomplus" xlink:href="#zoomPlus" x="17" y="9" onmousedown="handleZoom(evt,'in')"/>
                <use id="zoomminus" xlink:href="#zoomMin" x="42" y="9" onmousedown="handleZoom(evt,'out')"/>
                <use id="reset" xlink:href="#resetDef" x="30" y="36" onmousedown="handleReset()"/>
                <g id="arrowUp" xlink:href="#dirArrow" transform="translate(30 24)" onmousedown="handlePan(0,-1)">
                  <use xlink:href="#rim" fill="#404040">
                        <set attributeName="fill" to="#808080" begin="arrowUp.mouseover" end="arrowUp.mouseout"/>
                  </use>
                  <path fill="none" stroke="white" stroke-width="1.5" d="M0,-3.0v7 M-2.5,-0.5L0,-3.0L2.5,-0.5"/>
                </g>
                <g id="arrowRight" xlink:href="#dirArrow" transform="rotate(90) translate(36 -43)" onmousedown="handlePan(1,0)">
                  <use xlink:href="#rim" fill="#404040">
                        <set attributeName="fill" to="#808080" begin="arrowRight.mouseover" end="arrowRight.mouseout"/>
                  </use>
                  <path fill="none" stroke="white" stroke-width="1.5" d="M0,-3.0v7 M-2.5,-0.5L0,-3.0L2.5,-0.5"/>
                </g>
                <g id="arrowDown" xlink:href="#dirArrow" transform="rotate(180) translate(-30 -48)" onmousedown="handlePan(0,1)">
                  <use xlink:href="#rim" fill="#404040">
                        <set attributeName="fill" to="#808080" begin="arrowDown.mouseover" end="arrowDown.mouseout"/>
                  </use>
                  <path fill="none" stroke="white" stroke-width="1.5" d="M0,-3.0v7 M-2.5,-0.5L0,-3.0L2.5,-0.5"/>
                </g>
                <g id="arrowLeft" xlink:href="#dirArrow" transform="rotate(270) translate(-36 17)" onmousedown="handlePan(-1,0)">
                  <use xlink:href="#rim" fill="#404040">
                        <set attributeName="fill" to="#808080" begin="arrowLeft.mouseover" end="arrowLeft.mouseout"/>
                  </use>
                  <path fill="none" stroke="white" stroke-width="1.5" d="M0,-3.0v7 M-2.5,-0.5L0,-3.0L2.5,-0.5"/>
                </g>
        </g>
        <svg viewBox="0 0 15 15" width="100%" height="30px" preserveAspectRatio="xMaxYMin meet">
         <g id="arrow_out" transform="scale(0.3 0.3)">
          <a xlink:href="classVoxel_1_1TI_1_1ToFCalculusCamera_adf420ba5e95dcb0cbd3da90f446242d9_cgraph_org.svg" target="_base">
           <rect id="button" ry="5" rx="5" y="6" x="6" height="38" width="38"
                fill="#f2f5e9" fill-opacity="0.5" stroke="#606060" stroke-width="1.0"/>
           <path id="arrow"
             d="M 11.500037,31.436501 C 11.940474,20.09759 22.043105,11.32322 32.158766,21.979434 L 37.068811,17.246167 C 37.068811,17.246167 37.088388,32 37.088388,32 L 22.160133,31.978069 C 22.160133,31.978069 26.997745,27.140456 26.997745,27.140456 C 18.528582,18.264221 13.291696,25.230495 11.500037,31.436501 z"
             style="fill:#404040;"/>
          </a>
         </g>
        </svg>
</svg>
