<?xml version="1.0" encoding="UTF-8" standalone="no"?>
<!DOCTYPE svg PUBLIC "-//W3C//DTD SVG 1.1//EN"
 "http://www.w3.org/Graphics/SVG/1.1/DTD/svg11.dtd">
<!-- Generated by graphviz version 2.36.0 (20140111.2315)
 -->
<!-- Title: Voxel::TI::ToFCamera::_getBytesPerPixel Pages: 1 -->
<!--zoomable 283 -->
<svg id="main" version="1.1" xmlns="http://www.w3.org/2000/svg" xmlns:xlink="http://www.w3.org/1999/xlink" xml:space="preserve" onload="init(evt)">
<style type="text/css"><![CDATA[
.edge:hover path { stroke: red; }
.edge:hover polygon { stroke: red; fill: red; }
]]></style>
<script type="text/javascript"><![CDATA[
var edges = document.getElementsByTagName('g');
if (edges && edges.length) {
  for (var i=0;i<edges.length;i++) {
    if (edges[i].id.substr(0,4)=='edge') {
      edges[i].setAttribute('class','edge');
    }
  }
}
]]></script>
        <defs>
                <circle id="rim" cx="0" cy="0" r="7"/>
                <circle id="rim2" cx="0" cy="0" r="3.5"/>
                <g id="zoomPlus">
                        <use xlink:href="#rim" fill="#404040">
                                <set attributeName="fill" to="#808080" begin="zoomplus.mouseover" end="zoomplus.mouseout"/>
                        </use>
                        <path d="M-4,0h8M0,-4v8" fill="none" stroke="white" stroke-width="1.5" pointer-events="none"/>
                </g>
                <g id="zoomMin">
                        <use xlink:href="#rim" fill="#404040">
                                <set attributeName="fill" to="#808080" begin="zoomminus.mouseover" end="zoomminus.mouseout"/>
                        </use>
                        <path d="M-4,0h8" fill="none" stroke="white" stroke-width="1.5" pointer-events="none"/>
                </g>
                <g id="dirArrow">
                        <path fill="none" stroke="white" stroke-width="1.5" d="M0,-3.0v7 M-2.5,-0.5L0,-3.0L2.5,-0.5"/>
                </g>
               <g id="resetDef">
                       <use xlink:href="#rim2" fill="#404040">
                               <set attributeName="fill" to="#808080" begin="reset.mouseover" end="reset.mouseout"/>
                       </use>
               </g>
        </defs>

<script type="text/javascript">
var viewWidth = 680;
var viewHeight = 283;
var sectionId = 'dynsection-5';
</script>
<script xlink:href="svgpan.js"/>
<svg id="graph" class="graph">
<g id="viewport">
<title>Voxel::TI::ToFCamera::_getBytesPerPixel</title>
<!-- Node1 -->
<g id="node1" class="node"><title>Node1</title>
<polygon fill="#bfbfbf" stroke="black" points="0,-147 0,-177 114,-177 114,-147 0,-147"/>
<text text-anchor="start" x="8" y="-165" font-family="Helvetica,sans-Serif" font-size="10.00">Voxel::TI::ToFCamera</text>
<text text-anchor="middle" x="57" y="-154" font-family="Helvetica,sans-Serif" font-size="10.00">::_getBytesPerPixel</text>
</g>
<!-- Node2 -->
<g id="node2" class="node"><title>Node2</title>
<g id="a_node2"><a xlink:href="classVoxel_1_1TI_1_1ToFCamera.xhtml#a3e338b01dde4b43a180b6ebccd4272f5" target="_top" xlink:title="Voxel::TI::ToFCamera\l::_getMaximumFrameRate">
<polygon fill="none" stroke="black" points="150.5,-196 150.5,-226 283.5,-226 283.5,-196 150.5,-196"/>
<text text-anchor="start" x="158.5" y="-214" font-family="Helvetica,sans-Serif" font-size="10.00">Voxel::TI::ToFCamera</text>
<text text-anchor="middle" x="217" y="-203" font-family="Helvetica,sans-Serif" font-size="10.00">::_getMaximumFrameRate</text>
</a>
</g>
</g>
<!-- Node1&#45;&gt;Node2 -->
<g id="edge1" class="edge"><title>Node1&#45;&gt;Node2</title>
<path fill="none" stroke="midnightblue" d="M116.405,-180.113C133.202,-185.322 151.335,-190.946 167.466,-195.948"/>
<polygon fill="midnightblue" stroke="midnightblue" points="117.282,-176.721 106.694,-177.101 115.209,-183.407 117.282,-176.721"/>
</g>
<!-- Node3 -->
<g id="node3" class="node"><title>Node3</title>
<g id="a_node3"><a xlink:href="classVoxel_1_1TI_1_1ToFCamera.xhtml#a52686f695d06876ef5a89e453c6a8ba3" target="_top" xlink:title="Voxel::TI::ToFCamera\l::_initStartParams">
<polygon fill="none" stroke="black" points="160,-147 160,-177 274,-177 274,-147 160,-147"/>
<text text-anchor="start" x="168" y="-165" font-family="Helvetica,sans-Serif" font-size="10.00">Voxel::TI::ToFCamera</text>
<text text-anchor="middle" x="217" y="-154" font-family="Helvetica,sans-Serif" font-size="10.00">::_initStartParams</text>
</a>
</g>
</g>
<!-- Node1&#45;&gt;Node3 -->
<g id="edge2" class="edge"><title>Node1&#45;&gt;Node3</title>
<path fill="none" stroke="midnightblue" d="M124.371,-162C136.146,-162 148.305,-162 159.765,-162"/>
<polygon fill="midnightblue" stroke="midnightblue" points="124.15,-158.5 114.15,-162 124.15,-165.5 124.15,-158.5"/>
</g>
<!-- Node13 -->
<g id="node13" class="node"><title>Node13</title>
<g id="a_node13"><a xlink:href="classVoxel_1_1TI_1_1ToFCamera.xhtml#a732a6cb4d0a909776abf8004f2ddf4ee" target="_top" xlink:title="Voxel::TI::ToFCamera\l::_setFrameSize">
<polygon fill="none" stroke="black" points="160,-98 160,-128 274,-128 274,-98 160,-98"/>
<text text-anchor="start" x="168" y="-116" font-family="Helvetica,sans-Serif" font-size="10.00">Voxel::TI::ToFCamera</text>
<text text-anchor="middle" x="217" y="-105" font-family="Helvetica,sans-Serif" font-size="10.00">::_setFrameSize</text>
</a>
</g>
</g>
<!-- Node1&#45;&gt;Node13 -->
<g id="edge12" class="edge"><title>Node1&#45;&gt;Node13</title>
<path fill="none" stroke="midnightblue" d="M116.405,-143.887C133.202,-138.678 151.335,-133.054 167.466,-128.052"/>
<polygon fill="midnightblue" stroke="midnightblue" points="115.209,-140.593 106.694,-146.899 117.282,-147.279 115.209,-140.593"/>
</g>
<!-- Node4 -->
<g id="node4" class="node"><title>Node4</title>
<g id="a_node4"><a xlink:href="classVoxel_1_1TI_1_1HaddockCDKCamera.xhtml#a4e8e32000eca9b81bc6401a8d512cbc7" target="_top" xlink:title="Voxel::TI::HaddockCDKCamera\l::_initStartParams">
<polygon fill="none" stroke="black" points="320,-245 320,-275 478,-275 478,-245 320,-245"/>
<text text-anchor="start" x="328" y="-263" font-family="Helvetica,sans-Serif" font-size="10.00">Voxel::TI::HaddockCDKCamera</text>
<text text-anchor="middle" x="399" y="-252" font-family="Helvetica,sans-Serif" font-size="10.00">::_initStartParams</text>
</a>
</g>
</g>
<!-- Node3&#45;&gt;Node4 -->
<g id="edge3" class="edge"><title>Node3&#45;&gt;Node4</title>
<path fill="none" stroke="midnightblue" d="M276.193,-181.799C278.913,-183.414 281.533,-185.145 284,-187 305.314,-203.025 298.277,-219.533 320,-235 325.444,-238.876 331.519,-242.172 337.809,-244.97"/>
<polygon fill="midnightblue" stroke="midnightblue" points="277.707,-178.64 267.235,-177.03 274.418,-184.819 277.707,-178.64"/>
</g>
<!-- Node5 -->
<g id="node5" class="node"><title>Node5</title>
<g id="a_node5"><a xlink:href="classVoxel_1_1TI_1_1RTS5825Camera.xhtml#a2df71f9665a9c5d5dd1f6c58654175cd" target="_top" xlink:title="Voxel::TI::RTS5825Camera\l::_initStartParams">
<polygon fill="none" stroke="black" points="330,-196 330,-226 468,-226 468,-196 330,-196"/>
<text text-anchor="start" x="338" y="-214" font-family="Helvetica,sans-Serif" font-size="10.00">Voxel::TI::RTS5825Camera</text>
<text text-anchor="middle" x="399" y="-203" font-family="Helvetica,sans-Serif" font-size="10.00">::_initStartParams</text>
</a>
</g>
</g>
<!-- Node3&#45;&gt;Node5 -->
<g id="edge4" class="edge"><title>Node3&#45;&gt;Node5</title>
<path fill="none" stroke="midnightblue" d="M283.198,-179.748C302.707,-185.059 323.902,-190.829 342.708,-195.948"/>
<polygon fill="midnightblue" stroke="midnightblue" points="284.043,-176.351 273.475,-177.101 282.204,-183.105 284.043,-176.351"/>
</g>
<!-- Node6 -->
<g id="node6" class="node"><title>Node6</title>
<g id="a_node6"><a xlink:href="classVoxel_1_1TI_1_1ToFCalculusCamera.xhtml#adf420ba5e95dcb0cbd3da90f446242d9" target="_top" xlink:title="Voxel::TI::ToFCalculusCamera\l::_initStartParams">
<polygon fill="none" stroke="black" points="323,-147 323,-177 475,-177 475,-147 323,-147"/>
<text text-anchor="start" x="331" y="-165" font-family="Helvetica,sans-Serif" font-size="10.00">Voxel::TI::ToFCalculusCamera</text>
<text text-anchor="middle" x="399" y="-154" font-family="Helvetica,sans-Serif" font-size="10.00">::_initStartParams</text>
</a>
</g>
</g>
<!-- Node3&#45;&gt;Node6 -->
<g id="edge5" class="edge"><title>Node3&#45;&gt;Node6</title>
<path fill="none" stroke="midnightblue" d="M284.736,-162C297.176,-162 310.253,-162 322.923,-162"/>
<polygon fill="midnightblue" stroke="midnightblue" points="284.459,-158.5 274.459,-162 284.459,-165.5 284.459,-158.5"/>
</g>
<!-- Node8 -->
<g id="node8" class="node"><title>Node8</title>
<g id="a_node8"><a xlink:href="classVoxel_1_1TI_1_1ToFHaddockCamera.xhtml#ae87b0ca3c8867d1b520c0165d526e79d" target="_top" xlink:title="Voxel::TI::ToFHaddockCamera\l::_initStartParams">
<polygon fill="none" stroke="black" points="322.5,-98 322.5,-128 475.5,-128 475.5,-98 322.5,-98"/>
<text text-anchor="start" x="330.5" y="-116" font-family="Helvetica,sans-Serif" font-size="10.00">Voxel::TI::ToFHaddockCamera</text>
<text text-anchor="middle" x="399" y="-105" font-family="Helvetica,sans-Serif" font-size="10.00">::_initStartParams</text>
</a>
</g>
</g>
<!-- Node3&#45;&gt;Node8 -->
<g id="edge7" class="edge"><title>Node3&#45;&gt;Node8</title>
<path fill="none" stroke="midnightblue" d="M283.198,-144.252C302.707,-138.941 323.902,-133.171 342.708,-128.052"/>
<polygon fill="midnightblue" stroke="midnightblue" points="282.204,-140.895 273.475,-146.899 284.043,-147.649 282.204,-140.895"/>
</g>
<!-- Node10 -->
<g id="node10" class="node"><title>Node10</title>
<g id="a_node10"><a xlink:href="classVoxel_1_1TI_1_1ToFTintinCamera.xhtml#a17729406fadceea890b4e0e079aede46" target="_top" xlink:title="Voxel::TI::ToFTintinCamera\l::_initStartParams">
<polygon fill="none" stroke="black" points="330,-49 330,-79 468,-79 468,-49 330,-49"/>
<text text-anchor="start" x="338" y="-67" font-family="Helvetica,sans-Serif" font-size="10.00">Voxel::TI::ToFTintinCamera</text>
<text text-anchor="middle" x="399" y="-56" font-family="Helvetica,sans-Serif" font-size="10.00">::_initStartParams</text>
</a>
</g>
</g>
<!-- Node3&#45;&gt;Node10 -->
<g id="edge9" class="edge"><title>Node3&#45;&gt;Node10</title>
<path fill="none" stroke="midnightblue" d="M276.193,-142.201C278.913,-140.586 281.533,-138.855 284,-137 305.314,-120.975 298.277,-104.467 320,-89 325.444,-85.1236 331.519,-81.8278 337.809,-79.0302"/>
<polygon fill="midnightblue" stroke="midnightblue" points="274.418,-139.181 267.235,-146.97 277.707,-145.36 274.418,-139.181"/>
</g>
<!-- Node7 -->
<g id="node7" class="node"><title>Node7</title>
<g id="a_node7"><a xlink:href="classVoxel_1_1TI_1_1CalculusCDKCamera.xhtml#a2474713056342fa6774ff5a165961052" target="_top" xlink:title="Voxel::TI::CalculusCDKCamera\l::_initStartParams">
<polygon fill="none" stroke="black" points="514.5,-147 514.5,-177 671.5,-177 671.5,-147 514.5,-147"/>
<text text-anchor="start" x="522.5" y="-165" font-family="Helvetica,sans-Serif" font-size="10.00">Voxel::TI::CalculusCDKCamera</text>
<text text-anchor="middle" x="593" y="-154" font-family="Helvetica,sans-Serif" font-size="10.00">::_initStartParams</text>
</a>
</g>
</g>
<!-- Node6&#45;&gt;Node7 -->
<g id="edge6" class="edge"><title>Node6&#45;&gt;Node7</title>
<path fill="none" stroke="midnightblue" d="M485.152,-162C494.908,-162 504.816,-162 514.465,-162"/>
<polygon fill="midnightblue" stroke="midnightblue" points="485.057,-158.5 475.057,-162 485.057,-165.5 485.057,-158.5"/>
</g>
<!-- Node9 -->
<g id="node9" class="node"><title>Node9</title>
<g id="a_node9"><a xlink:href="classVoxel_1_1TI_1_1Voxel14Camera.xhtml#ad5dcde935444ac28a6e0b5705f504573" target="_top" xlink:title="Voxel::TI::Voxel14Camera\l::_initStartParams">
<polygon fill="none" stroke="black" points="527,-98 527,-128 659,-128 659,-98 527,-98"/>
<text text-anchor="start" x="535" y="-116" font-family="Helvetica,sans-Serif" font-size="10.00">Voxel::TI::Voxel14Camera</text>
<text text-anchor="middle" x="593" y="-105" font-family="Helvetica,sans-Serif" font-size="10.00">::_initStartParams</text>
</a>
</g>
</g>
<!-- Node8&#45;&gt;Node9 -->
<g id="edge8" class="edge"><title>Node8&#45;&gt;Node9</title>
<path fill="none" stroke="midnightblue" d="M485.994,-113C499.67,-113 513.62,-113 526.718,-113"/>
<polygon fill="midnightblue" stroke="midnightblue" points="485.608,-109.5 475.608,-113 485.608,-116.5 485.608,-109.5"/>
</g>
<!-- Node11 -->
<g id="node11" class="node"><title>Node11</title>
<g id="a_node11"><a xlink:href="classVoxel_1_1TI_1_1TintinCDKCamera.xhtml#a35274b5fd95ea088be4bc0637328d5f4" target="_top" xlink:title="Voxel::TI::TintinCDKCamera\l::_initStartParams">
<polygon fill="none" stroke="black" points="521.5,-49 521.5,-79 664.5,-79 664.5,-49 521.5,-49"/>
<text text-anchor="start" x="529.5" y="-67" font-family="Helvetica,sans-Serif" font-size="10.00">Voxel::TI::TintinCDKCamera</text>
<text text-anchor="middle" x="593" y="-56" font-family="Helvetica,sans-Serif" font-size="10.00">::_initStartParams</text>
</a>
</g>
</g>
<!-- Node10&#45;&gt;Node11 -->
<g id="edge10" class="edge"><title>Node10&#45;&gt;Node11</title>
<path fill="none" stroke="midnightblue" d="M478.469,-64C492.68,-64 507.423,-64 521.392,-64"/>
<polygon fill="midnightblue" stroke="midnightblue" points="478.233,-60.5001 468.233,-64 478.233,-67.5001 478.233,-60.5001"/>
</g>
<!-- Node12 -->
<g id="node12" class="node"><title>Node12</title>
<g id="a_node12"><a xlink:href="classVoxel_1_1TI_1_1VoxelDCamera.xhtml#ae0706724a5ebbb978d41fb2633af5040" target="_top" xlink:title="Voxel::TI::VoxelDCamera\l::_initStartParams">
<polygon fill="none" stroke="black" points="528.5,-0 528.5,-30 657.5,-30 657.5,-0 528.5,-0"/>
<text text-anchor="start" x="536.5" y="-18" font-family="Helvetica,sans-Serif" font-size="10.00">Voxel::TI::VoxelDCamera</text>
<text text-anchor="middle" x="593" y="-7" font-family="Helvetica,sans-Serif" font-size="10.00">::_initStartParams</text>
</a>
</g>
</g>
<!-- Node10&#45;&gt;Node12 -->
<g id="edge11" class="edge"><title>Node10&#45;&gt;Node12</title>
<path fill="none" stroke="midnightblue" d="M468.767,-46.4502C489.851,-41.0694 512.845,-35.201 533.2,-30.0062"/>
<polygon fill="midnightblue" stroke="midnightblue" points="467.735,-43.1012 458.911,-48.9654 469.466,-49.8838 467.735,-43.1012"/>
</g>
</g>
</svg>
        <g id="navigator" transform="translate(0 0)" fill="#404254">
                <rect fill="#f2f5e9" fill-opacity="0.5" stroke="#606060" stroke-width=".5" x="0" y="0" width="60" height="60"/>
                <use id="zoomplus" xlink:href="#zoomPlus" x="17" y="9" onmousedown="handleZoom(evt,'in')"/>
                <use id="zoomminus" xlink:href="#zoomMin" x="42" y="9" onmousedown="handleZoom(evt,'out')"/>
                <use id="reset" xlink:href="#resetDef" x="30" y="36" onmousedown="handleReset()"/>
                <g id="arrowUp" xlink:href="#dirArrow" transform="translate(30 24)" onmousedown="handlePan(0,-1)">
                  <use xlink:href="#rim" fill="#404040">
                        <set attributeName="fill" to="#808080" begin="arrowUp.mouseover" end="arrowUp.mouseout"/>
                  </use>
                  <path fill="none" stroke="white" stroke-width="1.5" d="M0,-3.0v7 M-2.5,-0.5L0,-3.0L2.5,-0.5"/>
                </g>
                <g id="arrowRight" xlink:href="#dirArrow" transform="rotate(90) translate(36 -43)" onmousedown="handlePan(1,0)">
                  <use xlink:href="#rim" fill="#404040">
                        <set attributeName="fill" to="#808080" begin="arrowRight.mouseover" end="arrowRight.mouseout"/>
                  </use>
                  <path fill="none" stroke="white" stroke-width="1.5" d="M0,-3.0v7 M-2.5,-0.5L0,-3.0L2.5,-0.5"/>
                </g>
                <g id="arrowDown" xlink:href="#dirArrow" transform="rotate(180) translate(-30 -48)" onmousedown="handlePan(0,1)">
                  <use xlink:href="#rim" fill="#404040">
                        <set attributeName="fill" to="#808080" begin="arrowDown.mouseover" end="arrowDown.mouseout"/>
                  </use>
                  <path fill="none" stroke="white" stroke-width="1.5" d="M0,-3.0v7 M-2.5,-0.5L0,-3.0L2.5,-0.5"/>
                </g>
                <g id="arrowLeft" xlink:href="#dirArrow" transform="rotate(270) translate(-36 17)" onmousedown="handlePan(-1,0)">
                  <use xlink:href="#rim" fill="#404040">
                        <set attributeName="fill" to="#808080" begin="arrowLeft.mouseover" end="arrowLeft.mouseout"/>
                  </use>
                  <path fill="none" stroke="white" stroke-width="1.5" d="M0,-3.0v7 M-2.5,-0.5L0,-3.0L2.5,-0.5"/>
                </g>
        </g>
        <svg viewBox="0 0 15 15" width="100%" height="30px" preserveAspectRatio="xMaxYMin meet">
         <g id="arrow_out" transform="scale(0.3 0.3)">
          <a xlink:href="classVoxel_1_1TI_1_1ToFCamera_acf6c3a732c5a47f38f2d461d76709091_icgraph_org.svg" target="_base">
           <rect id="button" ry="5" rx="5" y="6" x="6" height="38" width="38"
                fill="#f2f5e9" fill-opacity="0.5" stroke="#606060" stroke-width="1.0"/>
           <path id="arrow"
             d="M 11.500037,31.436501 C 11.940474,20.09759 22.043105,11.32322 32.158766,21.979434 L 37.068811,17.246167 C 37.068811,17.246167 37.088388,32 37.088388,32 L 22.160133,31.978069 C 22.160133,31.978069 26.997745,27.140456 26.997745,27.140456 C 18.528582,18.264221 13.291696,25.230495 11.500037,31.436501 z"
             style="fill:#404040;"/>
          </a>
         </g>
        </svg>
</svg>
