<?xml version="1.0" encoding="UTF-8" standalone="no"?>
<!DOCTYPE svg PUBLIC "-//W3C//DTD SVG 1.1//EN"
 "http://www.w3.org/Graphics/SVG/1.1/DTD/svg11.dtd">
<!-- Generated by graphviz version 2.36.0 (20140111.2315)
 -->
<!-- Title: Voxel::MainConfigurationFile::writeToHardware Pages: 1 -->
<svg width="670pt" height="103pt"
 viewBox="0.00 0.00 670.00 103.34" xmlns="http://www.w3.org/2000/svg" xmlns:xlink="http://www.w3.org/1999/xlink">
<g id="graph0" class="graph" transform="scale(1 1) rotate(0) translate(4 99.3439)">
<title>Voxel::MainConfigurationFile::writeToHardware</title>
<!-- Node1 -->
<g id="node1" class="node"><title>Node1</title>
<polygon fill="#bfbfbf" stroke="black" points="0,-49 0,-79 126,-79 126,-49 0,-49"/>
<text text-anchor="start" x="8" y="-67" font-family="Helvetica,sans-Serif" font-size="10.00">Voxel::MainConfiguration</text>
<text text-anchor="middle" x="63" y="-56" font-family="Helvetica,sans-Serif" font-size="10.00">File::writeToHardware</text>
</g>
<!-- Node2 -->
<g id="node2" class="node"><title>Node2</title>
<g id="a_node2"><a xlink:href="classVoxel_1_1MainConfigurationFile.xhtml#a4abe1141d3c441fc54cd870e09a22b2c" target="_top" xlink:title="Voxel::MainConfiguration\lFile::removeCameraProfile">
<polygon fill="none" stroke="black" points="374.5,-46 374.5,-76 507.5,-76 507.5,-46 374.5,-46"/>
<text text-anchor="start" x="382.5" y="-64" font-family="Helvetica,sans-Serif" font-size="10.00">Voxel::MainConfiguration</text>
<text text-anchor="middle" x="441" y="-53" font-family="Helvetica,sans-Serif" font-size="10.00">File::removeCameraProfile</text>
</a>
</g>
</g>
<!-- Node1&#45;&gt;Node2 -->
<g id="edge1" class="edge"><title>Node1&#45;&gt;Node2</title>
<path fill="none" stroke="midnightblue" d="M125.403,-81.4214C137.442,-84.1586 150.044,-86.5573 162,-88 239.659,-97.3708 260.432,-98.0926 338,-88 356.438,-85.601 376.289,-80.86 393.535,-76.0112"/>
<polygon fill="midnightblue" stroke="midnightblue" points="125.987,-77.9629 115.449,-79.0561 124.369,-84.7732 125.987,-77.9629"/>
</g>
<!-- Node4 -->
<g id="node4" class="node"><title>Node4</title>
<g id="a_node4"><a xlink:href="classVoxel_1_1MainConfigurationFile.xhtml#ae8ce6b155ffff0c4f33e1d7acfc01290" target="_top" xlink:title="Voxel::MainConfiguration\lFile::saveCameraProfileToHardware">
<polygon fill="none" stroke="black" points="162.5,-49 162.5,-79 337.5,-79 337.5,-49 162.5,-49"/>
<text text-anchor="start" x="170.5" y="-67" font-family="Helvetica,sans-Serif" font-size="10.00">Voxel::MainConfiguration</text>
<text text-anchor="middle" x="250" y="-56" font-family="Helvetica,sans-Serif" font-size="10.00">File::saveCameraProfileToHardware</text>
</a>
</g>
</g>
<!-- Node1&#45;&gt;Node4 -->
<g id="edge3" class="edge"><title>Node1&#45;&gt;Node4</title>
<path fill="none" stroke="midnightblue" d="M136.382,-64C144.911,-64 153.681,-64 162.381,-64"/>
<polygon fill="midnightblue" stroke="midnightblue" points="136.117,-60.5001 126.117,-64 136.117,-67.5001 136.117,-60.5001"/>
</g>
<!-- Node5 -->
<g id="node5" class="node"><title>Node5</title>
<g id="a_node5"><a xlink:href="classVoxel_1_1MainConfigurationFile.xhtml#ad0ea67099cfd8a8e869b46b833e19800" target="_top" xlink:title="Voxel::MainConfiguration\lFile::setDefaultCameraProfile">
<polygon fill="none" stroke="black" points="177,-0 177,-30 323,-30 323,-0 177,-0"/>
<text text-anchor="start" x="185" y="-18" font-family="Helvetica,sans-Serif" font-size="10.00">Voxel::MainConfiguration</text>
<text text-anchor="middle" x="250" y="-7" font-family="Helvetica,sans-Serif" font-size="10.00">File::setDefaultCameraProfile</text>
</a>
</g>
</g>
<!-- Node1&#45;&gt;Node5 -->
<g id="edge4" class="edge"><title>Node1&#45;&gt;Node5</title>
<path fill="none" stroke="midnightblue" d="M130.535,-46.3771C150.775,-41.0163 172.82,-35.1775 192.344,-30.0062"/>
<polygon fill="midnightblue" stroke="midnightblue" points="129.534,-43.0216 120.763,-48.9654 131.326,-49.7883 129.534,-43.0216"/>
</g>
<!-- Node3 -->
<g id="node3" class="node"><title>Node3</title>
<g id="a_node3"><a xlink:href="classVoxel_1_1DepthCamera.xhtml#a51bc1371938f78ddc18af0b36850545c" target="_top" xlink:title="Voxel::DepthCamera\l::removeCameraProfile">
<polygon fill="none" stroke="black" points="544.5,-46 544.5,-76 661.5,-76 661.5,-46 544.5,-46"/>
<text text-anchor="start" x="552.5" y="-64" font-family="Helvetica,sans-Serif" font-size="10.00">Voxel::DepthCamera</text>
<text text-anchor="middle" x="603" y="-53" font-family="Helvetica,sans-Serif" font-size="10.00">::removeCameraProfile</text>
</a>
</g>
</g>
<!-- Node2&#45;&gt;Node3 -->
<g id="edge2" class="edge"><title>Node2&#45;&gt;Node3</title>
<path fill="none" stroke="midnightblue" d="M517.601,-61C526.562,-61 535.596,-61 544.253,-61"/>
<polygon fill="midnightblue" stroke="midnightblue" points="517.54,-57.5001 507.54,-61 517.54,-64.5001 517.54,-57.5001"/>
</g>
<!-- Node5&#45;&gt;Node2 -->
<g id="edge5" class="edge"><title>Node5&#45;&gt;Node2</title>
<path fill="none" stroke="midnightblue" d="M322.633,-32.4345C340.964,-36.8959 360.515,-41.6546 378.298,-45.9826"/>
<polygon fill="midnightblue" stroke="midnightblue" points="323.43,-29.0263 312.886,-30.0621 321.774,-35.8278 323.43,-29.0263"/>
</g>
</g>
</svg>
