<?xml version="1.0" encoding="UTF-8" standalone="no"?>
<!DOCTYPE svg PUBLIC "-//W3C//DTD SVG 1.1//EN"
 "http://www.w3.org/Graphics/SVG/1.1/DTD/svg11.dtd">
<!-- Generated by graphviz version 2.36.0 (20140111.2315)
 -->
<!-- Title: Voxel::TI::ToFFrameGenerator::generate Pages: 1 -->
<svg width="346pt" height="87pt"
 viewBox="0.00 0.00 346.00 87.00" xmlns="http://www.w3.org/2000/svg" xmlns:xlink="http://www.w3.org/1999/xlink">
<g id="graph0" class="graph" transform="scale(1 1) rotate(0) translate(4 83)">
<title>Voxel::TI::ToFFrameGenerator::generate</title>
<!-- Node1 -->
<g id="node1" class="node"><title>Node1</title>
<polygon fill="#bfbfbf" stroke="black" points="0,-24 0,-54 150,-54 150,-24 0,-24"/>
<text text-anchor="start" x="8" y="-42" font-family="Helvetica,sans-Serif" font-size="10.00">Voxel::TI::ToFFrameGenerator</text>
<text text-anchor="middle" x="75" y="-31" font-family="Helvetica,sans-Serif" font-size="10.00">::generate</text>
</g>
<!-- Node2 -->
<g id="node2" class="node"><title>Node2</title>
<g id="a_node2"><a xlink:href="classVoxel_1_1TI_1_1ToFFrameGenerator.xhtml#a11744565adcb54697696e9dcc718a42c" target="_top" xlink:title="Voxel::TI::ToFFrameGenerator\l::_applyCrossTalkFilter">
<polygon fill="none" stroke="black" points="187,-49 187,-79 337,-79 337,-49 187,-49"/>
<text text-anchor="start" x="195" y="-67" font-family="Helvetica,sans-Serif" font-size="10.00">Voxel::TI::ToFFrameGenerator</text>
<text text-anchor="middle" x="262" y="-56" font-family="Helvetica,sans-Serif" font-size="10.00">::_applyCrossTalkFilter</text>
</a>
</g>
</g>
<!-- Node1&#45;&gt;Node2 -->
<g id="edge1" class="edge"><title>Node1&#45;&gt;Node2</title>
<path fill="none" stroke="midnightblue" d="M150.181,-49.0244C158.945,-50.2088 167.938,-51.4241 176.828,-52.6254"/>
<polygon fill="midnightblue" stroke="midnightblue" points="176.424,-56.1026 186.803,-53.9733 177.362,-49.1656 176.424,-56.1026"/>
</g>
<!-- Node3 -->
<g id="node3" class="node"><title>Node3</title>
<g id="a_node3"><a xlink:href="classVoxel_1_1TI_1_1ToFFrameGenerator.xhtml#a60d17ff59c645ec11280312b6bcfa8a6" target="_top" xlink:title="Voxel::TI::ToFFrameGenerator\l::_applyPhaseOffsetCorrection">
<polygon fill="none" stroke="black" points="186.5,-0 186.5,-30 337.5,-30 337.5,-0 186.5,-0"/>
<text text-anchor="start" x="194.5" y="-18" font-family="Helvetica,sans-Serif" font-size="10.00">Voxel::TI::ToFFrameGenerator</text>
<text text-anchor="middle" x="262" y="-7" font-family="Helvetica,sans-Serif" font-size="10.00">::_applyPhaseOffsetCorrection</text>
</a>
</g>
</g>
<!-- Node1&#45;&gt;Node3 -->
<g id="edge2" class="edge"><title>Node1&#45;&gt;Node3</title>
<path fill="none" stroke="midnightblue" d="M150.181,-29.3766C158.706,-28.2705 167.448,-27.1364 176.101,-26.0139"/>
<polygon fill="midnightblue" stroke="midnightblue" points="176.733,-29.4614 186.199,-24.7039 175.832,-22.5196 176.733,-29.4614"/>
</g>
</g>
</svg>
