<?xml version="1.0" encoding="UTF-8" standalone="no"?>
<!DOCTYPE svg PUBLIC "-//W3C//DTD SVG 1.1//EN"
 "http://www.w3.org/Graphics/SVG/1.1/DTD/svg11.dtd">
<!-- Generated by graphviz version 2.36.0 (20140111.2315)
 -->
<!-- Title: ELFIO::elfio::Sections::size Pages: 1 -->
<!--zoomable 459 -->
<svg id="main" version="1.1" xmlns="http://www.w3.org/2000/svg" xmlns:xlink="http://www.w3.org/1999/xlink" xml:space="preserve" onload="init(evt)">
<style type="text/css"><![CDATA[
.edge:hover path { stroke: red; }
.edge:hover polygon { stroke: red; fill: red; }
]]></style>
<script type="text/javascript"><![CDATA[
var edges = document.getElementsByTagName('g');
if (edges && edges.length) {
  for (var i=0;i<edges.length;i++) {
    if (edges[i].id.substr(0,4)=='edge') {
      edges[i].setAttribute('class','edge');
    }
  }
}
]]></script>
        <defs>
                <circle id="rim" cx="0" cy="0" r="7"/>
                <circle id="rim2" cx="0" cy="0" r="3.5"/>
                <g id="zoomPlus">
                        <use xlink:href="#rim" fill="#404040">
                                <set attributeName="fill" to="#808080" begin="zoomplus.mouseover" end="zoomplus.mouseout"/>
                        </use>
                        <path d="M-4,0h8M0,-4v8" fill="none" stroke="white" stroke-width="1.5" pointer-events="none"/>
                </g>
                <g id="zoomMin">
                        <use xlink:href="#rim" fill="#404040">
                                <set attributeName="fill" to="#808080" begin="zoomminus.mouseover" end="zoomminus.mouseout"/>
                        </use>
                        <path d="M-4,0h8" fill="none" stroke="white" stroke-width="1.5" pointer-events="none"/>
                </g>
                <g id="dirArrow">
                        <path fill="none" stroke="white" stroke-width="1.5" d="M0,-3.0v7 M-2.5,-0.5L0,-3.0L2.5,-0.5"/>
                </g>
               <g id="resetDef">
                       <use xlink:href="#rim2" fill="#404040">
                               <set attributeName="fill" to="#808080" begin="reset.mouseover" end="reset.mouseout"/>
                       </use>
               </g>
        </defs>

<script type="text/javascript">
var viewWidth = 482;
var viewHeight = 459;
var sectionId = 'dynsection-3';
</script>
<script xlink:href="svgpan.js"/>
<svg id="graph" class="graph">
<g id="viewport">
<title>ELFIO::elfio::Sections::size</title>
<!-- Node1 -->
<g id="node1" class="node"><title>Node1</title>
<polygon fill="#bfbfbf" stroke="black" points="0.5,-208 0.5,-238 113.5,-238 113.5,-208 0.5,-208"/>
<text text-anchor="start" x="8.5" y="-226" font-family="Helvetica,sans-Serif" font-size="10.00">ELFIO::elfio::Sections</text>
<text text-anchor="middle" x="57" y="-215" font-family="Helvetica,sans-Serif" font-size="10.00">::size</text>
</g>
<!-- Node2 -->
<g id="node2" class="node"><title>Node2</title>
<g id="a_node2"><a xlink:href="classELFIO_1_1dump.xhtml#a86b6fd3d926ec4ffd27e266836adf600" target="_top" xlink:title="ELFIO::dump::dynamic_tags">
<polygon fill="none" stroke="black" points="155,-431.5 155,-450.5 297,-450.5 297,-431.5 155,-431.5"/>
<text text-anchor="middle" x="226" y="-438.5" font-family="Helvetica,sans-Serif" font-size="10.00">ELFIO::dump::dynamic_tags</text>
</a>
</g>
</g>
<!-- Node1&#45;&gt;Node2 -->
<g id="edge1" class="edge"><title>Node1&#45;&gt;Node2</title>
<path fill="none" stroke="midnightblue" d="M62.5191,-248.018C71.4716,-290.185 95.5127,-375.272 150,-421 155.161,-425.331 161.167,-428.734 167.491,-431.405"/>
<polygon fill="midnightblue" stroke="midnightblue" points="65.915,-247.151 60.5141,-238.037 59.0521,-248.53 65.915,-247.151"/>
</g>
<!-- Node3 -->
<g id="node3" class="node"><title>Node3</title>
<g id="a_node3"><a xlink:href="classELFIO_1_1symbol__section__accessor.xhtml#a09505a4cbf75a47e14c78323ebc9efd5" target="_top" xlink:title="ELFIO::symbol_section\l_accessor::find_hash\l_section">
<polygon fill="none" stroke="black" points="166.5,-371.5 166.5,-412.5 285.5,-412.5 285.5,-371.5 166.5,-371.5"/>
<text text-anchor="start" x="174.5" y="-400.5" font-family="Helvetica,sans-Serif" font-size="10.00">ELFIO::symbol_section</text>
<text text-anchor="start" x="174.5" y="-389.5" font-family="Helvetica,sans-Serif" font-size="10.00">_accessor::find_hash</text>
<text text-anchor="middle" x="226" y="-378.5" font-family="Helvetica,sans-Serif" font-size="10.00">_section</text>
</a>
</g>
</g>
<!-- Node1&#45;&gt;Node3 -->
<g id="edge2" class="edge"><title>Node1&#45;&gt;Node3</title>
<path fill="none" stroke="midnightblue" d="M68.4363,-247.259C82.7284,-277.874 111.12,-330.345 150,-362 155.003,-366.073 160.629,-369.651 166.493,-372.78"/>
<polygon fill="midnightblue" stroke="midnightblue" points="71.6175,-245.799 64.296,-238.141 65.2438,-248.694 71.6175,-245.799"/>
</g>
<!-- Node5 -->
<g id="node5" class="node"><title>Node5</title>
<g id="a_node5"><a xlink:href="classVoxel_1_1DepthCameraLibrary.xhtml#a7e3111064a8cb071ec2d62c92b3cf672" target="_top" xlink:title="Voxel::DepthCameraLibrary\l::getABIVersion">
<polygon fill="none" stroke="black" points="157.5,-323 157.5,-353 294.5,-353 294.5,-323 157.5,-323"/>
<text text-anchor="start" x="165.5" y="-341" font-family="Helvetica,sans-Serif" font-size="10.00">Voxel::DepthCameraLibrary</text>
<text text-anchor="middle" x="226" y="-330" font-family="Helvetica,sans-Serif" font-size="10.00">::getABIVersion</text>
</a>
</g>
</g>
<!-- Node1&#45;&gt;Node5 -->
<g id="edge4" class="edge"><title>Node1&#45;&gt;Node5</title>
<path fill="none" stroke="midnightblue" d="M76.2535,-246.014C93.3713,-266.216 120.667,-295.093 150,-313 156.209,-316.79 163.061,-320.083 170.025,-322.921"/>
<polygon fill="midnightblue" stroke="midnightblue" points="78.8576,-243.671 69.7791,-238.21 73.4701,-248.141 78.8576,-243.671"/>
</g>
<!-- Node6 -->
<g id="node6" class="node"><title>Node6</title>
<g id="a_node6"><a xlink:href="classELFIO_1_1elfio.xhtml#afeb689c3a26b7c317e89f26a6390fce2" target="_top" xlink:title="ELFIO::elfio::layout\l_segments_and_their_sections">
<polygon fill="none" stroke="black" points="150,-274 150,-304 302,-304 302,-274 150,-274"/>
<text text-anchor="start" x="158" y="-292" font-family="Helvetica,sans-Serif" font-size="10.00">ELFIO::elfio::layout</text>
<text text-anchor="middle" x="226" y="-281" font-family="Helvetica,sans-Serif" font-size="10.00">_segments_and_their_sections</text>
</a>
</g>
</g>
<!-- Node1&#45;&gt;Node6 -->
<g id="edge5" class="edge"><title>Node1&#45;&gt;Node6</title>
<path fill="none" stroke="midnightblue" d="M105.867,-241.917C131.571,-252.076 162.821,-264.426 186.865,-273.929"/>
<polygon fill="midnightblue" stroke="midnightblue" points="106.9,-238.562 96.3132,-238.142 104.327,-245.072 106.9,-238.562"/>
</g>
<!-- Node7 -->
<g id="node7" class="node"><title>Node7</title>
<g id="a_node7"><a xlink:href="classELFIO_1_1elfio.xhtml#a4dfd167b10c72779390871865d16db61" target="_top" xlink:title="ELFIO::elfio::save">
<polygon fill="none" stroke="black" points="358,-257.5 358,-276.5 454,-276.5 454,-257.5 358,-257.5"/>
<text text-anchor="middle" x="406" y="-264.5" font-family="Helvetica,sans-Serif" font-size="10.00">ELFIO::elfio::save</text>
</a>
</g>
</g>
<!-- Node1&#45;&gt;Node7 -->
<g id="edge10" class="edge"><title>Node1&#45;&gt;Node7</title>
<path fill="none" stroke="midnightblue" d="M123.97,-231.365C192.279,-240.027 297.301,-253.344 357.748,-261.008"/>
<polygon fill="midnightblue" stroke="midnightblue" points="124.112,-227.855 113.752,-230.069 123.232,-234.8 124.112,-227.855"/>
</g>
<!-- Node8 -->
<g id="node8" class="node"><title>Node8</title>
<g id="a_node8"><a xlink:href="classELFIO_1_1elfio.xhtml#a0c0eab65897234841184372f1a472166" target="_top" xlink:title="ELFIO::elfio::load\l_segments">
<polygon fill="none" stroke="black" points="179.5,-186 179.5,-216 272.5,-216 272.5,-186 179.5,-186"/>
<text text-anchor="start" x="187.5" y="-204" font-family="Helvetica,sans-Serif" font-size="10.00">ELFIO::elfio::load</text>
<text text-anchor="middle" x="226" y="-193" font-family="Helvetica,sans-Serif" font-size="10.00">_segments</text>
</a>
</g>
</g>
<!-- Node1&#45;&gt;Node8 -->
<g id="edge7" class="edge"><title>Node1&#45;&gt;Node8</title>
<path fill="none" stroke="midnightblue" d="M123.534,-214.367C142.211,-211.906 162.148,-209.28 179.361,-207.012"/>
<polygon fill="midnightblue" stroke="midnightblue" points="123.066,-210.898 113.609,-215.674 123.98,-217.838 123.066,-210.898"/>
</g>
<!-- Node10 -->
<g id="node10" class="node"><title>Node10</title>
<g id="a_node10"><a xlink:href="classELFIO_1_1dump.xhtml#a9f3f44fe3ed3d5d88efd6f7229baa0e0" target="_top" xlink:title="ELFIO::dump::notes">
<polygon fill="none" stroke="black" points="173.5,-147.5 173.5,-166.5 278.5,-166.5 278.5,-147.5 173.5,-147.5"/>
<text text-anchor="middle" x="226" y="-154.5" font-family="Helvetica,sans-Serif" font-size="10.00">ELFIO::dump::notes</text>
</a>
</g>
</g>
<!-- Node1&#45;&gt;Node10 -->
<g id="edge9" class="edge"><title>Node1&#45;&gt;Node10</title>
<path fill="none" stroke="midnightblue" d="M93.6157,-203.072C110.369,-194.253 130.837,-184.259 150,-177 160.586,-172.99 172.299,-169.458 183.261,-166.522"/>
<polygon fill="midnightblue" stroke="midnightblue" points="91.8919,-200.024 84.7224,-207.825 95.1916,-206.198 91.8919,-200.024"/>
</g>
<!-- Node11 -->
<g id="node11" class="node"><title>Node11</title>
<g id="a_node11"><a xlink:href="classELFIO_1_1dump.xhtml#a7174e9f611a14c0b561a5c2ca7a9d340" target="_top" xlink:title="ELFIO::dump::section\l_datas">
<polygon fill="none" stroke="black" points="169.5,-98 169.5,-128 282.5,-128 282.5,-98 169.5,-98"/>
<text text-anchor="start" x="177.5" y="-116" font-family="Helvetica,sans-Serif" font-size="10.00">ELFIO::dump::section</text>
<text text-anchor="middle" x="226" y="-105" font-family="Helvetica,sans-Serif" font-size="10.00">_datas</text>
</a>
</g>
</g>
<!-- Node1&#45;&gt;Node11 -->
<g id="edge11" class="edge"><title>Node1&#45;&gt;Node11</title>
<path fill="none" stroke="midnightblue" d="M77.6412,-200.075C94.9817,-181.102 121.826,-154.652 150,-138 156.38,-134.229 163.406,-130.936 170.521,-128.088"/>
<polygon fill="midnightblue" stroke="midnightblue" points="74.8787,-197.913 70.8152,-207.698 80.0936,-202.583 74.8787,-197.913"/>
</g>
<!-- Node12 -->
<g id="node12" class="node"><title>Node12</title>
<g id="a_node12"><a xlink:href="classELFIO_1_1dump.xhtml#aee9c2e17dc9c709b78401f7a38a31c8e" target="_top" xlink:title="ELFIO::dump::section\l_headers">
<polygon fill="none" stroke="black" points="169.5,-49 169.5,-79 282.5,-79 282.5,-49 169.5,-49"/>
<text text-anchor="start" x="177.5" y="-67" font-family="Helvetica,sans-Serif" font-size="10.00">ELFIO::dump::section</text>
<text text-anchor="middle" x="226" y="-56" font-family="Helvetica,sans-Serif" font-size="10.00">_headers</text>
</a>
</g>
</g>
<!-- Node1&#45;&gt;Node12 -->
<g id="edge12" class="edge"><title>Node1&#45;&gt;Node12</title>
<path fill="none" stroke="midnightblue" d="M68.7918,-198.408C83.1558,-168.417 111.317,-118.13 150,-89 155.811,-84.6241 162.43,-80.9885 169.275,-77.9743"/>
<polygon fill="midnightblue" stroke="midnightblue" points="65.4949,-197.198 64.4542,-207.741 71.8428,-200.148 65.4949,-197.198"/>
</g>
<!-- Node13 -->
<g id="node13" class="node"><title>Node13</title>
<g id="a_node13"><a xlink:href="classELFIO_1_1dump.xhtml#ac2fee2fccc29233d6839b39a84805637" target="_top" xlink:title="ELFIO::dump::symbol\l_tables">
<polygon fill="none" stroke="black" points="169.5,-0 169.5,-30 282.5,-30 282.5,-0 169.5,-0"/>
<text text-anchor="start" x="177.5" y="-18" font-family="Helvetica,sans-Serif" font-size="10.00">ELFIO::dump::symbol</text>
<text text-anchor="middle" x="226" y="-7" font-family="Helvetica,sans-Serif" font-size="10.00">_tables</text>
</a>
</g>
</g>
<!-- Node1&#45;&gt;Node13 -->
<g id="edge13" class="edge"><title>Node1&#45;&gt;Node13</title>
<path fill="none" stroke="midnightblue" d="M63.977,-197.952C74.6088,-158.72 100.492,-82.8436 150,-40 155.708,-35.0602 162.425,-31.089 169.455,-27.8983"/>
<polygon fill="midnightblue" stroke="midnightblue" points="60.5545,-197.207 61.4308,-207.766 67.3302,-198.965 60.5545,-197.207"/>
</g>
<!-- Node4 -->
<g id="node4" class="node"><title>Node4</title>
<g id="a_node4"><a xlink:href="classELFIO_1_1symbol__section__accessor.xhtml#ac31279955d20fd7afd28425a5f405ce9" target="_top" xlink:title="ELFIO::symbol_section\l_accessor::symbol_section\l_accessor">
<polygon fill="none" stroke="black" points="338,-371.5 338,-412.5 474,-412.5 474,-371.5 338,-371.5"/>
<text text-anchor="start" x="346" y="-400.5" font-family="Helvetica,sans-Serif" font-size="10.00">ELFIO::symbol_section</text>
<text text-anchor="start" x="346" y="-389.5" font-family="Helvetica,sans-Serif" font-size="10.00">_accessor::symbol_section</text>
<text text-anchor="middle" x="406" y="-378.5" font-family="Helvetica,sans-Serif" font-size="10.00">_accessor</text>
</a>
</g>
</g>
<!-- Node3&#45;&gt;Node4 -->
<g id="edge3" class="edge"><title>Node3&#45;&gt;Node4</title>
<path fill="none" stroke="midnightblue" d="M296.135,-392C309.881,-392 324.293,-392 337.966,-392"/>
<polygon fill="midnightblue" stroke="midnightblue" points="295.777,-388.5 285.777,-392 295.777,-395.5 295.777,-388.5"/>
</g>
<!-- Node6&#45;&gt;Node7 -->
<g id="edge6" class="edge"><title>Node6&#45;&gt;Node7</title>
<path fill="none" stroke="midnightblue" d="M312.47,-278.436C328.116,-276.503 343.907,-274.551 357.906,-272.821"/>
<polygon fill="midnightblue" stroke="midnightblue" points="311.725,-275.002 302.23,-279.702 312.584,-281.949 311.725,-275.002"/>
</g>
<!-- Node9 -->
<g id="node9" class="node"><title>Node9</title>
<g id="a_node9"><a xlink:href="classELFIO_1_1elfio.xhtml#a1eb421b95b3deb91f7e4c28cbf094614" target="_top" xlink:title="ELFIO::elfio::load">
<polygon fill="none" stroke="black" points="359.5,-191.5 359.5,-210.5 452.5,-210.5 452.5,-191.5 359.5,-191.5"/>
<text text-anchor="middle" x="406" y="-198.5" font-family="Helvetica,sans-Serif" font-size="10.00">ELFIO::elfio::load</text>
</a>
</g>
</g>
<!-- Node8&#45;&gt;Node9 -->
<g id="edge8" class="edge"><title>Node8&#45;&gt;Node9</title>
<path fill="none" stroke="midnightblue" d="M283.097,-201C307.647,-201 336.085,-201 359.316,-201"/>
<polygon fill="midnightblue" stroke="midnightblue" points="282.839,-197.5 272.839,-201 282.839,-204.5 282.839,-197.5"/>
</g>
</g>
</svg>
        <g id="navigator" transform="translate(0 0)" fill="#404254">
                <rect fill="#f2f5e9" fill-opacity="0.5" stroke="#606060" stroke-width=".5" x="0" y="0" width="60" height="60"/>
                <use id="zoomplus" xlink:href="#zoomPlus" x="17" y="9" onmousedown="handleZoom(evt,'in')"/>
                <use id="zoomminus" xlink:href="#zoomMin" x="42" y="9" onmousedown="handleZoom(evt,'out')"/>
                <use id="reset" xlink:href="#resetDef" x="30" y="36" onmousedown="handleReset()"/>
                <g id="arrowUp" xlink:href="#dirArrow" transform="translate(30 24)" onmousedown="handlePan(0,-1)">
                  <use xlink:href="#rim" fill="#404040">
                        <set attributeName="fill" to="#808080" begin="arrowUp.mouseover" end="arrowUp.mouseout"/>
                  </use>
                  <path fill="none" stroke="white" stroke-width="1.5" d="M0,-3.0v7 M-2.5,-0.5L0,-3.0L2.5,-0.5"/>
                </g>
                <g id="arrowRight" xlink:href="#dirArrow" transform="rotate(90) translate(36 -43)" onmousedown="handlePan(1,0)">
                  <use xlink:href="#rim" fill="#404040">
                        <set attributeName="fill" to="#808080" begin="arrowRight.mouseover" end="arrowRight.mouseout"/>
                  </use>
                  <path fill="none" stroke="white" stroke-width="1.5" d="M0,-3.0v7 M-2.5,-0.5L0,-3.0L2.5,-0.5"/>
                </g>
                <g id="arrowDown" xlink:href="#dirArrow" transform="rotate(180) translate(-30 -48)" onmousedown="handlePan(0,1)">
                  <use xlink:href="#rim" fill="#404040">
                        <set attributeName="fill" to="#808080" begin="arrowDown.mouseover" end="arrowDown.mouseout"/>
                  </use>
                  <path fill="none" stroke="white" stroke-width="1.5" d="M0,-3.0v7 M-2.5,-0.5L0,-3.0L2.5,-0.5"/>
                </g>
                <g id="arrowLeft" xlink:href="#dirArrow" transform="rotate(270) translate(-36 17)" onmousedown="handlePan(-1,0)">
                  <use xlink:href="#rim" fill="#404040">
                        <set attributeName="fill" to="#808080" begin="arrowLeft.mouseover" end="arrowLeft.mouseout"/>
                  </use>
                  <path fill="none" stroke="white" stroke-width="1.5" d="M0,-3.0v7 M-2.5,-0.5L0,-3.0L2.5,-0.5"/>
                </g>
        </g>
        <svg viewBox="0 0 15 15" width="100%" height="30px" preserveAspectRatio="xMaxYMin meet">
         <g id="arrow_out" transform="scale(0.3 0.3)">
          <a xlink:href="classELFIO_1_1elfio_1_1Sections_a5c66bdb3ab662752c4968d8cd1a1a490_icgraph_org.svg" target="_base">
           <rect id="button" ry="5" rx="5" y="6" x="6" height="38" width="38"
                fill="#f2f5e9" fill-opacity="0.5" stroke="#606060" stroke-width="1.0"/>
           <path id="arrow"
             d="M 11.500037,31.436501 C 11.940474,20.09759 22.043105,11.32322 32.158766,21.979434 L 37.068811,17.246167 C 37.068811,17.246167 37.088388,32 37.088388,32 L 22.160133,31.978069 C 22.160133,31.978069 26.997745,27.140456 26.997745,27.140456 C 18.528582,18.264221 13.291696,25.230495 11.500037,31.436501 z"
             style="fill:#404040;"/>
          </a>
         </g>
        </svg>
</svg>
