<?xml version="1.0" encoding="UTF-8" standalone="no"?>
<!DOCTYPE svg PUBLIC "-//W3C//DTD SVG 1.1//EN"
 "http://www.w3.org/Graphics/SVG/1.1/DTD/svg11.dtd">
<!-- Generated by graphviz version 2.36.0 (20140111.2315)
 -->
<!-- Title: Voxel::TI::VoxelProgrammerBase::setValue Pages: 1 -->
<svg width="500pt" height="226pt"
 viewBox="0.00 0.00 500.00 226.00" xmlns="http://www.w3.org/2000/svg" xmlns:xlink="http://www.w3.org/1999/xlink">
<g id="graph0" class="graph" transform="scale(1 1) rotate(0) translate(4 222)">
<title>Voxel::TI::VoxelProgrammerBase::setValue</title>
<!-- Node1 -->
<g id="node1" class="node"><title>Node1</title>
<polygon fill="#bfbfbf" stroke="black" points="0,-117 0,-147 140,-147 140,-117 0,-117"/>
<text text-anchor="start" x="8" y="-135" font-family="Helvetica,sans-Serif" font-size="10.00">Voxel::TI::VoxelProgrammer</text>
<text text-anchor="middle" x="70" y="-124" font-family="Helvetica,sans-Serif" font-size="10.00">Base::setValue</text>
</g>
<!-- Node2 -->
<g id="node2" class="node"><title>Node2</title>
<g id="a_node2"><a xlink:href="classVoxel_1_1Parameter.xhtml#ae87f19fcc856d69680f0b7cbc495d20a" target="_top" xlink:title="Voxel::Parameter::address">
<polygon fill="none" stroke="black" points="179.5,-198.5 179.5,-217.5 312.5,-217.5 312.5,-198.5 179.5,-198.5"/>
<text text-anchor="middle" x="246" y="-205.5" font-family="Helvetica,sans-Serif" font-size="10.00">Voxel::Parameter::address</text>
</a>
</g>
</g>
<!-- Node1&#45;&gt;Node2 -->
<g id="edge1" class="edge"><title>Node1&#45;&gt;Node2</title>
<path fill="none" stroke="midnightblue" d="M95.2549,-147.244C116.053,-159.801 147.141,-177.372 176,-189 181.899,-191.377 188.198,-193.563 194.501,-195.539"/>
<polygon fill="midnightblue" stroke="midnightblue" points="193.768,-198.973 204.351,-198.47 195.764,-192.264 193.768,-198.973"/>
</g>
<!-- Node3 -->
<g id="node3" class="node"><title>Node3</title>
<g id="a_node3"><a xlink:href="classVoxel_1_1Parameter.xhtml#a2887f02c0a7415dc05b9b063a21389ff" target="_top" xlink:title="Voxel::Parameter::lsb">
<polygon fill="none" stroke="black" points="190.5,-160.5 190.5,-179.5 301.5,-179.5 301.5,-160.5 190.5,-160.5"/>
<text text-anchor="middle" x="246" y="-167.5" font-family="Helvetica,sans-Serif" font-size="10.00">Voxel::Parameter::lsb</text>
</a>
</g>
</g>
<!-- Node1&#45;&gt;Node3 -->
<g id="edge2" class="edge"><title>Node1&#45;&gt;Node3</title>
<path fill="none" stroke="midnightblue" d="M139.769,-147.019C156.997,-150.781 175.223,-154.761 191.579,-158.333"/>
<polygon fill="midnightblue" stroke="midnightblue" points="190.979,-161.785 201.496,-160.499 192.473,-154.946 190.979,-161.785"/>
</g>
<!-- Node4 -->
<g id="node4" class="node"><title>Node4</title>
<g id="a_node4"><a xlink:href="classVoxel_1_1Parameter.xhtml#a9a636ff878a110ce8f4951ee6935244d" target="_top" xlink:title="Voxel::Parameter::mask">
<polygon fill="none" stroke="black" points="185,-122.5 185,-141.5 307,-141.5 307,-122.5 185,-122.5"/>
<text text-anchor="middle" x="246" y="-129.5" font-family="Helvetica,sans-Serif" font-size="10.00">Voxel::Parameter::mask</text>
</a>
</g>
</g>
<!-- Node1&#45;&gt;Node4 -->
<g id="edge3" class="edge"><title>Node1&#45;&gt;Node4</title>
<path fill="none" stroke="midnightblue" d="M140.019,-132C151.352,-132 163.11,-132 174.478,-132"/>
<polygon fill="midnightblue" stroke="midnightblue" points="174.786,-135.5 184.786,-132 174.786,-128.5 174.786,-135.5"/>
</g>
<!-- Node5 -->
<g id="node5" class="node"><title>Node5</title>
<g id="a_node5"><a xlink:href="classVoxel_1_1TI_1_1VoxelProgrammerBase.xhtml#a7b01ce528713db194fad742a5d2a7976" target="_top" xlink:title="Voxel::TI::VoxelProgrammer\lBase::readRegister">
<polygon fill="none" stroke="black" points="176,-73 176,-103 316,-103 316,-73 176,-73"/>
<text text-anchor="start" x="184" y="-91" font-family="Helvetica,sans-Serif" font-size="10.00">Voxel::TI::VoxelProgrammer</text>
<text text-anchor="middle" x="246" y="-80" font-family="Helvetica,sans-Serif" font-size="10.00">Base::readRegister</text>
</a>
</g>
</g>
<!-- Node1&#45;&gt;Node5 -->
<g id="edge4" class="edge"><title>Node1&#45;&gt;Node5</title>
<path fill="none" stroke="midnightblue" d="M130.394,-116.981C145.012,-113.284 160.789,-109.295 175.825,-105.493"/>
<polygon fill="midnightblue" stroke="midnightblue" points="176.741,-108.871 185.578,-103.026 175.025,-102.085 176.741,-108.871"/>
</g>
<!-- Node8 -->
<g id="node8" class="node"><title>Node8</title>
<g id="a_node8"><a xlink:href="classVoxel_1_1TI_1_1VoxelProgrammerBase.xhtml#af25f669684ac5322aeda5cfced536af0" target="_top" xlink:title="Voxel::TI::VoxelProgrammer\lBase::writeRegister">
<polygon fill="none" stroke="black" points="176,-24 176,-54 316,-54 316,-24 176,-24"/>
<text text-anchor="start" x="184" y="-42" font-family="Helvetica,sans-Serif" font-size="10.00">Voxel::TI::VoxelProgrammer</text>
<text text-anchor="middle" x="246" y="-31" font-family="Helvetica,sans-Serif" font-size="10.00">Base::writeRegister</text>
</a>
</g>
</g>
<!-- Node1&#45;&gt;Node8 -->
<g id="edge7" class="edge"><title>Node1&#45;&gt;Node8</title>
<path fill="none" stroke="midnightblue" d="M91.4811,-116.728C112.06,-101.876 145.075,-79.366 176,-64 180.268,-61.8792 184.762,-59.8444 189.325,-57.9158"/>
<polygon fill="midnightblue" stroke="midnightblue" points="190.777,-61.1043 198.737,-54.1126 188.154,-54.6141 190.777,-61.1043"/>
</g>
<!-- Node6 -->
<g id="node6" class="node"><title>Node6</title>
<g id="a_node6"><a xlink:href="classVoxel_1_1TI_1_1VoxelProgrammerBase.xhtml#a5237ab869ef24b2e19610e2a47dcbe05" target="_top" xlink:title="Voxel::TI::VoxelProgrammer\lBase::_readRegister">
<polygon fill="none" stroke="black" points="352,-98 352,-128 492,-128 492,-98 352,-98"/>
<text text-anchor="start" x="360" y="-116" font-family="Helvetica,sans-Serif" font-size="10.00">Voxel::TI::VoxelProgrammer</text>
<text text-anchor="middle" x="422" y="-105" font-family="Helvetica,sans-Serif" font-size="10.00">Base::_readRegister</text>
</a>
</g>
</g>
<!-- Node5&#45;&gt;Node6 -->
<g id="edge5" class="edge"><title>Node5&#45;&gt;Node6</title>
<path fill="none" stroke="midnightblue" d="M316.019,-97.9166C324.476,-99.1316 333.169,-100.381 341.761,-101.615"/>
<polygon fill="midnightblue" stroke="midnightblue" points="341.383,-105.097 351.779,-103.055 342.379,-98.1678 341.383,-105.097"/>
</g>
<!-- Node7 -->
<g id="node7" class="node"><title>Node7</title>
<g id="a_node7"><a xlink:href="classVoxel_1_1RegisterProgrammer.xhtml#a65cd8b5334e47888543669af23590d1e" target="_top" xlink:title="Voxel::RegisterProgrammer\l::isInitialized">
<polygon fill="none" stroke="black" points="353.5,-49 353.5,-79 490.5,-79 490.5,-49 353.5,-49"/>
<text text-anchor="start" x="361.5" y="-67" font-family="Helvetica,sans-Serif" font-size="10.00">Voxel::RegisterProgrammer</text>
<text text-anchor="middle" x="422" y="-56" font-family="Helvetica,sans-Serif" font-size="10.00">::isInitialized</text>
</a>
</g>
</g>
<!-- Node5&#45;&gt;Node7 -->
<g id="edge6" class="edge"><title>Node5&#45;&gt;Node7</title>
<path fill="none" stroke="midnightblue" d="M316.019,-78.4801C324.981,-77.244 334.209,-75.9711 343.3,-74.7172"/>
<polygon fill="midnightblue" stroke="midnightblue" points="344.057,-78.1461 353.485,-73.3124 343.1,-71.2117 344.057,-78.1461"/>
</g>
<!-- Node8&#45;&gt;Node7 -->
<g id="edge8" class="edge"><title>Node8&#45;&gt;Node7</title>
<path fill="none" stroke="midnightblue" d="M316.019,-48.9166C324.981,-50.2042 334.209,-51.5301 343.3,-52.8363"/>
<polygon fill="midnightblue" stroke="midnightblue" points="343.089,-56.3417 353.485,-54.2995 344.084,-49.4129 343.089,-56.3417"/>
</g>
<!-- Node9 -->
<g id="node9" class="node"><title>Node9</title>
<g id="a_node9"><a xlink:href="classVoxel_1_1TI_1_1VoxelProgrammerBase.xhtml#a3fb6de6004b61707a4f4608e5c2107e6" target="_top" xlink:title="Voxel::TI::VoxelProgrammer\lBase::_writeRegister">
<polygon fill="none" stroke="black" points="352,-0 352,-30 492,-30 492,-0 352,-0"/>
<text text-anchor="start" x="360" y="-18" font-family="Helvetica,sans-Serif" font-size="10.00">Voxel::TI::VoxelProgrammer</text>
<text text-anchor="middle" x="422" y="-7" font-family="Helvetica,sans-Serif" font-size="10.00">Base::_writeRegister</text>
</a>
</g>
</g>
<!-- Node8&#45;&gt;Node9 -->
<g id="edge9" class="edge"><title>Node8&#45;&gt;Node9</title>
<path fill="none" stroke="midnightblue" d="M316.019,-29.4801C324.476,-28.3137 333.169,-27.1146 341.761,-25.9296"/>
<polygon fill="midnightblue" stroke="midnightblue" points="342.352,-29.3813 351.779,-24.5477 341.395,-22.4469 342.352,-29.3813"/>
</g>
</g>
</svg>
