<?xml version="1.0" encoding="UTF-8" standalone="no"?>
<!DOCTYPE svg PUBLIC "-//W3C//DTD SVG 1.1//EN"
 "http://www.w3.org/Graphics/SVG/1.1/DTD/svg11.dtd">
<!-- Generated by graphviz version 2.36.0 (20140111.2315)
 -->
<!-- Title: Voxel::DepthCamera::_getROI Pages: 1 -->
<svg width="804pt" height="283pt"
 viewBox="0.00 0.00 804.00 283.00" xmlns="http://www.w3.org/2000/svg" xmlns:xlink="http://www.w3.org/1999/xlink">
<g id="graph0" class="graph" transform="scale(1 1) rotate(0) translate(4 279)">
<title>Voxel::DepthCamera::_getROI</title>
<!-- Node1 -->
<g id="node1" class="node"><title>Node1</title>
<polygon fill="#bfbfbf" stroke="black" points="0,-219 0,-249 108,-249 108,-219 0,-219"/>
<text text-anchor="start" x="8" y="-237" font-family="Helvetica,sans-Serif" font-size="10.00">Voxel::DepthCamera</text>
<text text-anchor="middle" x="54" y="-226" font-family="Helvetica,sans-Serif" font-size="10.00">::_getROI</text>
</g>
<!-- Node2 -->
<g id="node2" class="node"><title>Node2</title>
<g id="a_node2"><a xlink:href="classVoxel_1_1TI_1_1ToFCamera.xhtml#a732a6cb4d0a909776abf8004f2ddf4ee" target="_top" xlink:title="Voxel::TI::ToFCamera\l::_setFrameSize">
<polygon fill="none" stroke="black" points="144,-244 144,-274 258,-274 258,-244 144,-244"/>
<text text-anchor="start" x="152" y="-262" font-family="Helvetica,sans-Serif" font-size="10.00">Voxel::TI::ToFCamera</text>
<text text-anchor="middle" x="201" y="-251" font-family="Helvetica,sans-Serif" font-size="10.00">::_setFrameSize</text>
</a>
</g>
</g>
<!-- Node1&#45;&gt;Node2 -->
<g id="edge1" class="edge"><title>Node1&#45;&gt;Node2</title>
<path fill="none" stroke="midnightblue" d="M118.13,-244.885C126.71,-246.364 135.469,-247.874 143.913,-249.33"/>
<polygon fill="midnightblue" stroke="midnightblue" points="118.619,-241.417 108.169,-243.167 117.429,-248.315 118.619,-241.417"/>
</g>
<!-- Node3 -->
<g id="node3" class="node"><title>Node3</title>
<g id="a_node3"><a xlink:href="classVoxel_1_1DepthCamera.xhtml#ab2be6abc24dd344f63e082c19273d833" target="_top" xlink:title="Voxel::DepthCamera\l::getROI">
<polygon fill="none" stroke="black" points="147,-195 147,-225 255,-225 255,-195 147,-195"/>
<text text-anchor="start" x="155" y="-213" font-family="Helvetica,sans-Serif" font-size="10.00">Voxel::DepthCamera</text>
<text text-anchor="middle" x="201" y="-202" font-family="Helvetica,sans-Serif" font-size="10.00">::getROI</text>
</a>
</g>
</g>
<!-- Node1&#45;&gt;Node3 -->
<g id="edge2" class="edge"><title>Node1&#45;&gt;Node3</title>
<path fill="none" stroke="midnightblue" d="M118.06,-223.562C127.658,-221.974 137.479,-220.348 146.837,-218.799"/>
<polygon fill="midnightblue" stroke="midnightblue" points="117.464,-220.114 108.169,-225.2 118.607,-227.02 117.464,-220.114"/>
</g>
<!-- Node4 -->
<g id="node4" class="node"><title>Node4</title>
<g id="a_node4"><a xlink:href="classVoxel_1_1TI_1_1ToFCalculusCamera.xhtml#adf420ba5e95dcb0cbd3da90f446242d9" target="_top" xlink:title="Voxel::TI::ToFCalculusCamera\l::_initStartParams">
<polygon fill="none" stroke="black" points="447,-245 447,-275 599,-275 599,-245 447,-245"/>
<text text-anchor="start" x="455" y="-263" font-family="Helvetica,sans-Serif" font-size="10.00">Voxel::TI::ToFCalculusCamera</text>
<text text-anchor="middle" x="523" y="-252" font-family="Helvetica,sans-Serif" font-size="10.00">::_initStartParams</text>
</a>
</g>
</g>
<!-- Node3&#45;&gt;Node4 -->
<g id="edge3" class="edge"><title>Node3&#45;&gt;Node4</title>
<path fill="none" stroke="midnightblue" d="M265.331,-219.895C317.505,-228.048 391.618,-239.628 446.802,-248.25"/>
<polygon fill="midnightblue" stroke="midnightblue" points="265.621,-216.398 255.201,-218.313 264.54,-223.315 265.621,-216.398"/>
</g>
<!-- Node6 -->
<g id="node6" class="node"><title>Node6</title>
<g id="a_node6"><a xlink:href="classVoxel_1_1TI_1_1ToFCamera.xhtml#a52686f695d06876ef5a89e453c6a8ba3" target="_top" xlink:title="Voxel::TI::ToFCamera\l::_initStartParams">
<polygon fill="none" stroke="black" points="294,-160 294,-190 408,-190 408,-160 294,-160"/>
<text text-anchor="start" x="302" y="-178" font-family="Helvetica,sans-Serif" font-size="10.00">Voxel::TI::ToFCamera</text>
<text text-anchor="middle" x="351" y="-167" font-family="Helvetica,sans-Serif" font-size="10.00">::_initStartParams</text>
</a>
</g>
</g>
<!-- Node3&#45;&gt;Node6 -->
<g id="edge5" class="edge"><title>Node3&#45;&gt;Node6</title>
<path fill="none" stroke="midnightblue" d="M264.913,-195.122C274.528,-192.848 284.399,-190.514 293.856,-188.277"/>
<polygon fill="midnightblue" stroke="midnightblue" points="263.939,-191.756 255.013,-197.463 265.55,-198.568 263.939,-191.756"/>
</g>
<!-- Node5 -->
<g id="node5" class="node"><title>Node5</title>
<g id="a_node5"><a xlink:href="classVoxel_1_1TI_1_1CalculusCDKCamera.xhtml#a2474713056342fa6774ff5a165961052" target="_top" xlink:title="Voxel::TI::CalculusCDKCamera\l::_initStartParams">
<polygon fill="none" stroke="black" points="638.5,-245 638.5,-275 795.5,-275 795.5,-245 638.5,-245"/>
<text text-anchor="start" x="646.5" y="-263" font-family="Helvetica,sans-Serif" font-size="10.00">Voxel::TI::CalculusCDKCamera</text>
<text text-anchor="middle" x="717" y="-252" font-family="Helvetica,sans-Serif" font-size="10.00">::_initStartParams</text>
</a>
</g>
</g>
<!-- Node4&#45;&gt;Node5 -->
<g id="edge4" class="edge"><title>Node4&#45;&gt;Node5</title>
<path fill="none" stroke="midnightblue" d="M609.152,-260C618.908,-260 628.816,-260 638.465,-260"/>
<polygon fill="midnightblue" stroke="midnightblue" points="609.057,-256.5 599.057,-260 609.057,-263.5 609.057,-256.5"/>
</g>
<!-- Node6&#45;&gt;Node4 -->
<g id="edge8" class="edge"><title>Node6&#45;&gt;Node4</title>
<path fill="none" stroke="midnightblue" d="M380.053,-196.131C397.706,-208.695 421.359,-224.229 444,-235 451.705,-238.665 460.083,-241.986 468.395,-244.922"/>
<polygon fill="midnightblue" stroke="midnightblue" points="382.055,-193.259 371.9,-190.236 377.953,-198.932 382.055,-193.259"/>
</g>
<!-- Node7 -->
<g id="node7" class="node"><title>Node7</title>
<g id="a_node7"><a xlink:href="classVoxel_1_1TI_1_1HaddockCDKCamera.xhtml#a4e8e32000eca9b81bc6401a8d512cbc7" target="_top" xlink:title="Voxel::TI::HaddockCDKCamera\l::_initStartParams">
<polygon fill="none" stroke="black" points="444,-196 444,-226 602,-226 602,-196 444,-196"/>
<text text-anchor="start" x="452" y="-214" font-family="Helvetica,sans-Serif" font-size="10.00">Voxel::TI::HaddockCDKCamera</text>
<text text-anchor="middle" x="523" y="-203" font-family="Helvetica,sans-Serif" font-size="10.00">::_initStartParams</text>
</a>
</g>
</g>
<!-- Node6&#45;&gt;Node7 -->
<g id="edge6" class="edge"><title>Node6&#45;&gt;Node7</title>
<path fill="none" stroke="midnightblue" d="M417.958,-188.968C428.811,-191.266 440.1,-193.657 451.068,-195.979"/>
<polygon fill="midnightblue" stroke="midnightblue" points="418.644,-185.535 408.135,-186.888 417.193,-192.383 418.644,-185.535"/>
</g>
<!-- Node8 -->
<g id="node8" class="node"><title>Node8</title>
<g id="a_node8"><a xlink:href="classVoxel_1_1TI_1_1RTS5825Camera.xhtml#a2df71f9665a9c5d5dd1f6c58654175cd" target="_top" xlink:title="Voxel::TI::RTS5825Camera\l::_initStartParams">
<polygon fill="none" stroke="black" points="454,-147 454,-177 592,-177 592,-147 454,-147"/>
<text text-anchor="start" x="462" y="-165" font-family="Helvetica,sans-Serif" font-size="10.00">Voxel::TI::RTS5825Camera</text>
<text text-anchor="middle" x="523" y="-154" font-family="Helvetica,sans-Serif" font-size="10.00">::_initStartParams</text>
</a>
</g>
</g>
<!-- Node6&#45;&gt;Node8 -->
<g id="edge7" class="edge"><title>Node6&#45;&gt;Node8</title>
<path fill="none" stroke="midnightblue" d="M418.236,-169.935C429.903,-169.043 442.066,-168.113 453.785,-167.216"/>
<polygon fill="midnightblue" stroke="midnightblue" points="417.839,-166.455 408.135,-170.707 418.373,-173.435 417.839,-166.455"/>
</g>
<!-- Node9 -->
<g id="node9" class="node"><title>Node9</title>
<g id="a_node9"><a xlink:href="classVoxel_1_1TI_1_1ToFHaddockCamera.xhtml#ae87b0ca3c8867d1b520c0165d526e79d" target="_top" xlink:title="Voxel::TI::ToFHaddockCamera\l::_initStartParams">
<polygon fill="none" stroke="black" points="446.5,-98 446.5,-128 599.5,-128 599.5,-98 446.5,-98"/>
<text text-anchor="start" x="454.5" y="-116" font-family="Helvetica,sans-Serif" font-size="10.00">Voxel::TI::ToFHaddockCamera</text>
<text text-anchor="middle" x="523" y="-105" font-family="Helvetica,sans-Serif" font-size="10.00">::_initStartParams</text>
</a>
</g>
</g>
<!-- Node6&#45;&gt;Node9 -->
<g id="edge9" class="edge"><title>Node6&#45;&gt;Node9</title>
<path fill="none" stroke="midnightblue" d="M395.842,-155.915C410.98,-149.587 428.125,-142.707 444,-137 452.533,-133.933 461.675,-130.899 470.587,-128.074"/>
<polygon fill="midnightblue" stroke="midnightblue" points="394.069,-152.864 386.217,-159.976 396.791,-159.313 394.069,-152.864"/>
</g>
<!-- Node11 -->
<g id="node11" class="node"><title>Node11</title>
<g id="a_node11"><a xlink:href="classVoxel_1_1TI_1_1ToFTintinCamera.xhtml#a17729406fadceea890b4e0e079aede46" target="_top" xlink:title="Voxel::TI::ToFTintinCamera\l::_initStartParams">
<polygon fill="none" stroke="black" points="454,-49 454,-79 592,-79 592,-49 454,-49"/>
<text text-anchor="start" x="462" y="-67" font-family="Helvetica,sans-Serif" font-size="10.00">Voxel::TI::ToFTintinCamera</text>
<text text-anchor="middle" x="523" y="-56" font-family="Helvetica,sans-Serif" font-size="10.00">::_initStartParams</text>
</a>
</g>
</g>
<!-- Node6&#45;&gt;Node11 -->
<g id="edge11" class="edge"><title>Node6&#45;&gt;Node11</title>
<path fill="none" stroke="midnightblue" d="M370.838,-152.022C388.026,-132.439 415.089,-104.861 444,-88 449.752,-84.6452 456.021,-81.7133 462.424,-79.1621"/>
<polygon fill="midnightblue" stroke="midnightblue" points="367.958,-150.004 364.1,-159.871 373.27,-154.563 367.958,-150.004"/>
</g>
<!-- Node10 -->
<g id="node10" class="node"><title>Node10</title>
<g id="a_node10"><a xlink:href="classVoxel_1_1TI_1_1Voxel14Camera.xhtml#ad5dcde935444ac28a6e0b5705f504573" target="_top" xlink:title="Voxel::TI::Voxel14Camera\l::_initStartParams">
<polygon fill="none" stroke="black" points="651,-98 651,-128 783,-128 783,-98 651,-98"/>
<text text-anchor="start" x="659" y="-116" font-family="Helvetica,sans-Serif" font-size="10.00">Voxel::TI::Voxel14Camera</text>
<text text-anchor="middle" x="717" y="-105" font-family="Helvetica,sans-Serif" font-size="10.00">::_initStartParams</text>
</a>
</g>
</g>
<!-- Node9&#45;&gt;Node10 -->
<g id="edge10" class="edge"><title>Node9&#45;&gt;Node10</title>
<path fill="none" stroke="midnightblue" d="M609.994,-113C623.67,-113 637.62,-113 650.718,-113"/>
<polygon fill="midnightblue" stroke="midnightblue" points="609.608,-109.5 599.608,-113 609.608,-116.5 609.608,-109.5"/>
</g>
<!-- Node12 -->
<g id="node12" class="node"><title>Node12</title>
<g id="a_node12"><a xlink:href="classVoxel_1_1TI_1_1TintinCDKCamera.xhtml#a35274b5fd95ea088be4bc0637328d5f4" target="_top" xlink:title="Voxel::TI::TintinCDKCamera\l::_initStartParams">
<polygon fill="none" stroke="black" points="645.5,-49 645.5,-79 788.5,-79 788.5,-49 645.5,-49"/>
<text text-anchor="start" x="653.5" y="-67" font-family="Helvetica,sans-Serif" font-size="10.00">Voxel::TI::TintinCDKCamera</text>
<text text-anchor="middle" x="717" y="-56" font-family="Helvetica,sans-Serif" font-size="10.00">::_initStartParams</text>
</a>
</g>
</g>
<!-- Node11&#45;&gt;Node12 -->
<g id="edge12" class="edge"><title>Node11&#45;&gt;Node12</title>
<path fill="none" stroke="midnightblue" d="M602.469,-64C616.68,-64 631.423,-64 645.392,-64"/>
<polygon fill="midnightblue" stroke="midnightblue" points="602.233,-60.5001 592.233,-64 602.233,-67.5001 602.233,-60.5001"/>
</g>
<!-- Node13 -->
<g id="node13" class="node"><title>Node13</title>
<g id="a_node13"><a xlink:href="classVoxel_1_1TI_1_1VoxelDCamera.xhtml#ae0706724a5ebbb978d41fb2633af5040" target="_top" xlink:title="Voxel::TI::VoxelDCamera\l::_initStartParams">
<polygon fill="none" stroke="black" points="652.5,-0 652.5,-30 781.5,-30 781.5,-0 652.5,-0"/>
<text text-anchor="start" x="660.5" y="-18" font-family="Helvetica,sans-Serif" font-size="10.00">Voxel::TI::VoxelDCamera</text>
<text text-anchor="middle" x="717" y="-7" font-family="Helvetica,sans-Serif" font-size="10.00">::_initStartParams</text>
</a>
</g>
</g>
<!-- Node11&#45;&gt;Node13 -->
<g id="edge13" class="edge"><title>Node11&#45;&gt;Node13</title>
<path fill="none" stroke="midnightblue" d="M592.767,-46.4502C613.851,-41.0694 636.845,-35.201 657.2,-30.0062"/>
<polygon fill="midnightblue" stroke="midnightblue" points="591.735,-43.1012 582.911,-48.9654 593.466,-49.8838 591.735,-43.1012"/>
</g>
</g>
</svg>
