<?xml version="1.0" encoding="UTF-8" standalone="no"?>
<!DOCTYPE svg PUBLIC "-//W3C//DTD SVG 1.1//EN"
 "http://www.w3.org/Graphics/SVG/1.1/DTD/svg11.dtd">
<!-- Generated by graphviz version 2.36.0 (20140111.2315)
 -->
<!-- Title: TinyXML2::XMLElement::Attribute Pages: 1 -->
<svg width="1066pt" height="284pt"
 viewBox="0.00 0.00 1066.00 284.00" xmlns="http://www.w3.org/2000/svg" xmlns:xlink="http://www.w3.org/1999/xlink">
<g id="graph0" class="graph" transform="scale(1 1) rotate(0) translate(4 280)">
<title>TinyXML2::XMLElement::Attribute</title>
<!-- Node1 -->
<g id="node1" class="node"><title>Node1</title>
<polygon fill="#bfbfbf" stroke="black" points="0.5,-149 0.5,-179 123.5,-179 123.5,-149 0.5,-149"/>
<text text-anchor="start" x="8.5" y="-167" font-family="Helvetica,sans-Serif" font-size="10.00">TinyXML2::XMLElement</text>
<text text-anchor="middle" x="62" y="-156" font-family="Helvetica,sans-Serif" font-size="10.00">::Attribute</text>
</g>
<!-- Node2 -->
<g id="node2" class="node"><title>Node2</title>
<g id="a_node2"><a xlink:href="classVoxel_1_1ParameterDMLParser.xhtml#a045dd911c20e776e52ca27a94e145cb3" target="_top" xlink:title="Voxel::ParameterDMLParser\l::_getParameter">
<polygon fill="none" stroke="black" points="160,-215 160,-245 302,-245 302,-215 160,-215"/>
<text text-anchor="start" x="168" y="-233" font-family="Helvetica,sans-Serif" font-size="10.00">Voxel::ParameterDMLParser</text>
<text text-anchor="middle" x="231" y="-222" font-family="Helvetica,sans-Serif" font-size="10.00">::_getParameter</text>
</a>
</g>
</g>
<!-- Node1&#45;&gt;Node2 -->
<g id="edge1" class="edge"><title>Node1&#45;&gt;Node2</title>
<path fill="none" stroke="midnightblue" d="M110.867,-182.917C136.571,-193.076 167.821,-205.426 191.865,-214.929"/>
<polygon fill="midnightblue" stroke="midnightblue" points="111.9,-179.562 101.313,-179.142 109.327,-186.072 111.9,-179.562"/>
</g>
<!-- Node3 -->
<g id="node3" class="node"><title>Node3</title>
<g id="a_node3"><a xlink:href="classVoxel_1_1ParameterDMLParser.xhtml#ad605e36f21f13ac72f59e58e64754e74" target="_top" xlink:title="Voxel::ParameterDMLParser\l::getParameters">
<polygon fill="none" stroke="black" points="338,-171 338,-201 480,-201 480,-171 338,-171"/>
<text text-anchor="start" x="346" y="-189" font-family="Helvetica,sans-Serif" font-size="10.00">Voxel::ParameterDMLParser</text>
<text text-anchor="middle" x="409" y="-178" font-family="Helvetica,sans-Serif" font-size="10.00">::getParameters</text>
</a>
</g>
</g>
<!-- Node1&#45;&gt;Node3 -->
<g id="edge21" class="edge"><title>Node1&#45;&gt;Node3</title>
<path fill="none" stroke="midnightblue" d="M133.98,-168.526C193.657,-172.332 278.5,-177.742 337.922,-181.531"/>
<polygon fill="midnightblue" stroke="midnightblue" points="134.087,-165.026 123.885,-167.883 133.642,-172.012 134.087,-165.026"/>
</g>
<!-- Node20 -->
<g id="node20" class="node"><title>Node20</title>
<g id="a_node20"><a xlink:href="classVoxel_1_1ParameterDMLParser.xhtml#a2d21730f3b40ad5dabbc0ad62c596705" target="_top" xlink:title="Voxel::ParameterDMLParser\l::_prepare">
<polygon fill="none" stroke="black" points="160,-127 160,-157 302,-157 302,-127 160,-127"/>
<text text-anchor="start" x="168" y="-145" font-family="Helvetica,sans-Serif" font-size="10.00">Voxel::ParameterDMLParser</text>
<text text-anchor="middle" x="231" y="-134" font-family="Helvetica,sans-Serif" font-size="10.00">::_prepare</text>
</a>
</g>
</g>
<!-- Node1&#45;&gt;Node20 -->
<g id="edge19" class="edge"><title>Node1&#45;&gt;Node20</title>
<path fill="none" stroke="midnightblue" d="M133.809,-154.672C142.46,-153.532 151.296,-152.368 159.935,-151.23"/>
<polygon fill="midnightblue" stroke="midnightblue" points="133.22,-151.219 123.763,-155.995 134.135,-158.159 133.22,-151.219"/>
</g>
<!-- Node21 -->
<g id="node21" class="node"><title>Node21</title>
<g id="a_node21"><a xlink:href="classTinyXML2_1_1XMLElement.xhtml#a2b7dddea778d54aa6a213abed7ef7ab7" target="_top" xlink:title="TinyXML2::XMLElement\l::ParseAttributes">
<polygon fill="none" stroke="black" points="169.5,-78 169.5,-108 292.5,-108 292.5,-78 169.5,-78"/>
<text text-anchor="start" x="177.5" y="-96" font-family="Helvetica,sans-Serif" font-size="10.00">TinyXML2::XMLElement</text>
<text text-anchor="middle" x="231" y="-85" font-family="Helvetica,sans-Serif" font-size="10.00">::ParseAttributes</text>
</a>
</g>
</g>
<!-- Node1&#45;&gt;Node21 -->
<g id="edge22" class="edge"><title>Node1&#45;&gt;Node21</title>
<path fill="none" stroke="midnightblue" d="M101.262,-144.138C118.918,-135.317 140.291,-125.119 160,-117 167.484,-113.917 175.523,-110.898 183.392,-108.098"/>
<polygon fill="midnightblue" stroke="midnightblue" points="99.2231,-141.246 91.8704,-148.875 102.375,-147.497 99.2231,-141.246"/>
</g>
<!-- Node2&#45;&gt;Node3 -->
<g id="edge2" class="edge"><title>Node2&#45;&gt;Node3</title>
<path fill="none" stroke="midnightblue" d="M301.942,-212.515C317.149,-208.713 333.108,-204.723 347.895,-201.026"/>
<polygon fill="midnightblue" stroke="midnightblue" points="300.929,-209.16 292.077,-214.981 302.627,-215.951 300.929,-209.16"/>
</g>
<!-- Node4 -->
<g id="node4" class="node"><title>Node4</title>
<g id="a_node4"><a xlink:href="DMLParseTest_8cpp.xhtml#a0ddf1224851353fc92bfbff6f499fa97" target="_top" xlink:title="main">
<polygon fill="none" stroke="black" points="574,-245.5 574,-264.5 612,-264.5 612,-245.5 574,-245.5"/>
<text text-anchor="middle" x="593" y="-252.5" font-family="Helvetica,sans-Serif" font-size="10.00">main</text>
</a>
</g>
</g>
<!-- Node3&#45;&gt;Node4 -->
<g id="edge3" class="edge"><title>Node3&#45;&gt;Node4</title>
<path fill="none" stroke="midnightblue" d="M448.154,-205.617C468.03,-215.326 492.942,-226.709 516,-235 535.387,-241.971 558.345,-247.676 573.916,-251.184"/>
<polygon fill="midnightblue" stroke="midnightblue" points="449.632,-202.443 439.117,-201.149 446.53,-208.719 449.632,-202.443"/>
</g>
<!-- Node5 -->
<g id="node5" class="node"><title>Node5</title>
<g id="a_node5"><a xlink:href="classVoxel_1_1TI_1_1ToFCalculusCamera.xhtml#aa931ad7b5e4b84779df941814c2a5b17" target="_top" xlink:title="Voxel::TI::ToFCalculusCamera\l::_init">
<polygon fill="none" stroke="black" points="517,-196 517,-226 669,-226 669,-196 517,-196"/>
<text text-anchor="start" x="525" y="-214" font-family="Helvetica,sans-Serif" font-size="10.00">Voxel::TI::ToFCalculusCamera</text>
<text text-anchor="middle" x="593" y="-203" font-family="Helvetica,sans-Serif" font-size="10.00">::_init</text>
</a>
</g>
</g>
<!-- Node3&#45;&gt;Node5 -->
<g id="edge4" class="edge"><title>Node3&#45;&gt;Node5</title>
<path fill="none" stroke="midnightblue" d="M490.06,-196.997C498.946,-198.218 507.973,-199.458 516.795,-200.67"/>
<polygon fill="midnightblue" stroke="midnightblue" points="490.489,-193.523 480.106,-195.63 489.536,-200.458 490.489,-193.523"/>
</g>
<!-- Node8 -->
<g id="node8" class="node"><title>Node8</title>
<g id="a_node8"><a xlink:href="classVoxel_1_1TI_1_1ToFHaddockCamera.xhtml#a749a2bbcdbfa69054d523866504743d1" target="_top" xlink:title="Voxel::TI::ToFHaddockCamera\l::_init">
<polygon fill="none" stroke="black" points="516.5,-147 516.5,-177 669.5,-177 669.5,-147 516.5,-147"/>
<text text-anchor="start" x="524.5" y="-165" font-family="Helvetica,sans-Serif" font-size="10.00">Voxel::TI::ToFHaddockCamera</text>
<text text-anchor="middle" x="593" y="-154" font-family="Helvetica,sans-Serif" font-size="10.00">::_init</text>
</a>
</g>
</g>
<!-- Node3&#45;&gt;Node8 -->
<g id="edge7" class="edge"><title>Node3&#45;&gt;Node8</title>
<path fill="none" stroke="midnightblue" d="M490.26,-175.416C498.98,-174.266 507.832,-173.099 516.492,-171.957"/>
<polygon fill="midnightblue" stroke="midnightblue" points="489.562,-171.978 480.106,-176.755 490.477,-178.918 489.562,-171.978"/>
</g>
<!-- Node15 -->
<g id="node15" class="node"><title>Node15</title>
<g id="a_node15"><a xlink:href="classVoxel_1_1TI_1_1ToFTintinCamera.xhtml#af894a732f4beedc37144927eec93cc89" target="_top" xlink:title="Voxel::TI::ToFTintinCamera\l::_init">
<polygon fill="none" stroke="black" points="524,-49 524,-79 662,-79 662,-49 524,-49"/>
<text text-anchor="start" x="532" y="-67" font-family="Helvetica,sans-Serif" font-size="10.00">Voxel::TI::ToFTintinCamera</text>
<text text-anchor="middle" x="593" y="-56" font-family="Helvetica,sans-Serif" font-size="10.00">::_init</text>
</a>
</g>
</g>
<!-- Node3&#45;&gt;Node15 -->
<g id="edge14" class="edge"><title>Node3&#45;&gt;Node15</title>
<path fill="none" stroke="midnightblue" d="M440.991,-165.226C477.512,-140.745 537.301,-100.667 569.603,-79.0131"/>
<polygon fill="midnightblue" stroke="midnightblue" points="439.04,-162.32 432.682,-170.795 442.938,-168.134 439.04,-162.32"/>
</g>
<!-- Node6 -->
<g id="node6" class="node"><title>Node6</title>
<g id="a_node6"><a xlink:href="classVoxel_1_1TI_1_1CalculusCDKCamera.xhtml#a82eb752fb0d4b63495d2e29b6b8aed2c" target="_top" xlink:title="Voxel::TI::CalculusCDKCamera\l::_init">
<polygon fill="none" stroke="black" points="706.5,-245 706.5,-275 863.5,-275 863.5,-245 706.5,-245"/>
<text text-anchor="start" x="714.5" y="-263" font-family="Helvetica,sans-Serif" font-size="10.00">Voxel::TI::CalculusCDKCamera</text>
<text text-anchor="middle" x="785" y="-252" font-family="Helvetica,sans-Serif" font-size="10.00">::_init</text>
</a>
</g>
</g>
<!-- Node5&#45;&gt;Node6 -->
<g id="edge5" class="edge"><title>Node5&#45;&gt;Node6</title>
<path fill="none" stroke="midnightblue" d="M662.05,-228.55C682.915,-233.931 705.67,-239.799 725.813,-244.994"/>
<polygon fill="midnightblue" stroke="midnightblue" points="662.855,-225.143 652.297,-226.035 661.107,-231.921 662.855,-225.143"/>
</g>
<!-- Node7 -->
<g id="node7" class="node"><title>Node7</title>
<g id="a_node7"><a xlink:href="classVoxel_1_1TI_1_1CalculusCDKCamera.xhtml#af406b1427962d80da9af9fb24e89b239" target="_top" xlink:title="Voxel::TI::CalculusCDKCamera\l::CalculusCDKCamera">
<polygon fill="none" stroke="black" points="900.5,-245 900.5,-275 1057.5,-275 1057.5,-245 900.5,-245"/>
<text text-anchor="start" x="908.5" y="-263" font-family="Helvetica,sans-Serif" font-size="10.00">Voxel::TI::CalculusCDKCamera</text>
<text text-anchor="middle" x="979" y="-252" font-family="Helvetica,sans-Serif" font-size="10.00">::CalculusCDKCamera</text>
</a>
</g>
</g>
<!-- Node6&#45;&gt;Node7 -->
<g id="edge6" class="edge"><title>Node6&#45;&gt;Node7</title>
<path fill="none" stroke="midnightblue" d="M873.605,-260C882.571,-260 891.635,-260 900.482,-260"/>
<polygon fill="midnightblue" stroke="midnightblue" points="873.54,-256.5 863.54,-260 873.54,-263.5 873.54,-256.5"/>
</g>
<!-- Node9 -->
<g id="node9" class="node"><title>Node9</title>
<g id="a_node9"><a xlink:href="classVoxel_1_1TI_1_1HaddockCDKCamera.xhtml#a7dff103da3145dd303a5bc0db75ae961" target="_top" xlink:title="Voxel::TI::HaddockCDKCamera\l::_init">
<polygon fill="none" stroke="black" points="706,-196 706,-226 864,-226 864,-196 706,-196"/>
<text text-anchor="start" x="714" y="-214" font-family="Helvetica,sans-Serif" font-size="10.00">Voxel::TI::HaddockCDKCamera</text>
<text text-anchor="middle" x="785" y="-203" font-family="Helvetica,sans-Serif" font-size="10.00">::_init</text>
</a>
</g>
</g>
<!-- Node8&#45;&gt;Node9 -->
<g id="edge8" class="edge"><title>Node8&#45;&gt;Node9</title>
<path fill="none" stroke="midnightblue" d="M662.05,-179.55C682.915,-184.931 705.67,-190.799 725.813,-195.994"/>
<polygon fill="midnightblue" stroke="midnightblue" points="662.855,-176.143 652.297,-177.035 661.107,-182.921 662.855,-176.143"/>
</g>
<!-- Node11 -->
<g id="node11" class="node"><title>Node11</title>
<g id="a_node11"><a xlink:href="classVoxel_1_1TI_1_1RTS5825Camera.xhtml#af7d33e164feac1c63726d2757227c3bc" target="_top" xlink:title="Voxel::TI::RTS5825Camera\l::_init">
<polygon fill="none" stroke="black" points="716,-147 716,-177 854,-177 854,-147 716,-147"/>
<text text-anchor="start" x="724" y="-165" font-family="Helvetica,sans-Serif" font-size="10.00">Voxel::TI::RTS5825Camera</text>
<text text-anchor="middle" x="785" y="-154" font-family="Helvetica,sans-Serif" font-size="10.00">::_init</text>
</a>
</g>
</g>
<!-- Node8&#45;&gt;Node11 -->
<g id="edge10" class="edge"><title>Node8&#45;&gt;Node11</title>
<path fill="none" stroke="midnightblue" d="M679.704,-162C691.764,-162 704.025,-162 715.7,-162"/>
<polygon fill="midnightblue" stroke="midnightblue" points="679.639,-158.5 669.639,-162 679.639,-165.5 679.639,-158.5"/>
</g>
<!-- Node13 -->
<g id="node13" class="node"><title>Node13</title>
<g id="a_node13"><a xlink:href="classVoxel_1_1TI_1_1Voxel14Camera.xhtml#a89011bfb795ff58d3fb8675364b91abe" target="_top" xlink:title="Voxel::TI::Voxel14Camera\l::_init">
<polygon fill="none" stroke="black" points="719,-98 719,-128 851,-128 851,-98 719,-98"/>
<text text-anchor="start" x="727" y="-116" font-family="Helvetica,sans-Serif" font-size="10.00">Voxel::TI::Voxel14Camera</text>
<text text-anchor="middle" x="785" y="-105" font-family="Helvetica,sans-Serif" font-size="10.00">::_init</text>
</a>
</g>
</g>
<!-- Node8&#45;&gt;Node13 -->
<g id="edge12" class="edge"><title>Node8&#45;&gt;Node13</title>
<path fill="none" stroke="midnightblue" d="M662.05,-144.45C682.915,-139.069 705.67,-133.201 725.813,-128.006"/>
<polygon fill="midnightblue" stroke="midnightblue" points="661.107,-141.079 652.297,-146.965 662.855,-147.857 661.107,-141.079"/>
</g>
<!-- Node10 -->
<g id="node10" class="node"><title>Node10</title>
<g id="a_node10"><a xlink:href="classVoxel_1_1TI_1_1HaddockCDKCamera.xhtml#ac2c5e82486c4cc3f5edada38cd4274c5" target="_top" xlink:title="Voxel::TI::HaddockCDKCamera\l::HaddockCDKCamera">
<polygon fill="none" stroke="black" points="900,-196 900,-226 1058,-226 1058,-196 900,-196"/>
<text text-anchor="start" x="908" y="-214" font-family="Helvetica,sans-Serif" font-size="10.00">Voxel::TI::HaddockCDKCamera</text>
<text text-anchor="middle" x="979" y="-203" font-family="Helvetica,sans-Serif" font-size="10.00">::HaddockCDKCamera</text>
</a>
</g>
</g>
<!-- Node9&#45;&gt;Node10 -->
<g id="edge9" class="edge"><title>Node9&#45;&gt;Node10</title>
<path fill="none" stroke="midnightblue" d="M874.153,-211C882.769,-211 891.47,-211 899.975,-211"/>
<polygon fill="midnightblue" stroke="midnightblue" points="874.094,-207.5 864.094,-211 874.094,-214.5 874.094,-207.5"/>
</g>
<!-- Node12 -->
<g id="node12" class="node"><title>Node12</title>
<g id="a_node12"><a xlink:href="classVoxel_1_1TI_1_1RTS5825Camera.xhtml#a7a242f28e79a95d9a918946beb0b0461" target="_top" xlink:title="Voxel::TI::RTS5825Camera\l::RTS5825Camera">
<polygon fill="none" stroke="black" points="910,-147 910,-177 1048,-177 1048,-147 910,-147"/>
<text text-anchor="start" x="918" y="-165" font-family="Helvetica,sans-Serif" font-size="10.00">Voxel::TI::RTS5825Camera</text>
<text text-anchor="middle" x="979" y="-154" font-family="Helvetica,sans-Serif" font-size="10.00">::RTS5825Camera</text>
</a>
</g>
</g>
<!-- Node11&#45;&gt;Node12 -->
<g id="edge11" class="edge"><title>Node11&#45;&gt;Node12</title>
<path fill="none" stroke="midnightblue" d="M864.551,-162C879.621,-162 895.284,-162 909.987,-162"/>
<polygon fill="midnightblue" stroke="midnightblue" points="864.233,-158.5 854.233,-162 864.233,-165.5 864.233,-158.5"/>
</g>
<!-- Node14 -->
<g id="node14" class="node"><title>Node14</title>
<g id="a_node14"><a xlink:href="classVoxel_1_1TI_1_1Voxel14Camera.xhtml#a606f13ed73547ee43f585e241b42dd5d" target="_top" xlink:title="Voxel::TI::Voxel14Camera\l::Voxel14Camera">
<polygon fill="none" stroke="black" points="913,-98 913,-128 1045,-128 1045,-98 913,-98"/>
<text text-anchor="start" x="921" y="-116" font-family="Helvetica,sans-Serif" font-size="10.00">Voxel::TI::Voxel14Camera</text>
<text text-anchor="middle" x="979" y="-105" font-family="Helvetica,sans-Serif" font-size="10.00">::Voxel14Camera</text>
</a>
</g>
</g>
<!-- Node13&#45;&gt;Node14 -->
<g id="edge13" class="edge"><title>Node13&#45;&gt;Node14</title>
<path fill="none" stroke="midnightblue" d="M861.424,-113C878.381,-113 896.237,-113 912.738,-113"/>
<polygon fill="midnightblue" stroke="midnightblue" points="861.002,-109.5 851.002,-113 861.002,-116.5 861.002,-109.5"/>
</g>
<!-- Node16 -->
<g id="node16" class="node"><title>Node16</title>
<g id="a_node16"><a xlink:href="classVoxel_1_1TI_1_1TintinCDKCamera.xhtml#af5337f40c1a075c026263ea9871a20ee" target="_top" xlink:title="Voxel::TI::TintinCDKCamera\l::_init">
<polygon fill="none" stroke="black" points="713.5,-49 713.5,-79 856.5,-79 856.5,-49 713.5,-49"/>
<text text-anchor="start" x="721.5" y="-67" font-family="Helvetica,sans-Serif" font-size="10.00">Voxel::TI::TintinCDKCamera</text>
<text text-anchor="middle" x="785" y="-56" font-family="Helvetica,sans-Serif" font-size="10.00">::_init</text>
</a>
</g>
</g>
<!-- Node15&#45;&gt;Node16 -->
<g id="edge15" class="edge"><title>Node15&#45;&gt;Node16</title>
<path fill="none" stroke="midnightblue" d="M672.309,-64C685.859,-64 699.877,-64 713.213,-64"/>
<polygon fill="midnightblue" stroke="midnightblue" points="672.058,-60.5001 662.058,-64 672.058,-67.5001 672.058,-60.5001"/>
</g>
<!-- Node18 -->
<g id="node18" class="node"><title>Node18</title>
<g id="a_node18"><a xlink:href="classVoxel_1_1TI_1_1VoxelDCamera.xhtml#a47b15c40c3fbcc52ae1eb3c9fe74d9f1" target="_top" xlink:title="Voxel::TI::VoxelDCamera\l::_init">
<polygon fill="none" stroke="black" points="720.5,-0 720.5,-30 849.5,-30 849.5,-0 720.5,-0"/>
<text text-anchor="start" x="728.5" y="-18" font-family="Helvetica,sans-Serif" font-size="10.00">Voxel::TI::VoxelDCamera</text>
<text text-anchor="middle" x="785" y="-7" font-family="Helvetica,sans-Serif" font-size="10.00">::_init</text>
</a>
</g>
</g>
<!-- Node15&#45;&gt;Node18 -->
<g id="edge17" class="edge"><title>Node15&#45;&gt;Node18</title>
<path fill="none" stroke="midnightblue" d="M662.05,-46.4502C682.915,-41.0694 705.67,-35.201 725.813,-30.0062"/>
<polygon fill="midnightblue" stroke="midnightblue" points="661.107,-43.079 652.297,-48.9654 662.855,-49.8572 661.107,-43.079"/>
</g>
<!-- Node17 -->
<g id="node17" class="node"><title>Node17</title>
<g id="a_node17"><a xlink:href="classVoxel_1_1TI_1_1TintinCDKCamera.xhtml#a7a9918bb8b6d76bc3511536019847c1d" target="_top" xlink:title="Voxel::TI::TintinCDKCamera\l::TintinCDKCamera">
<polygon fill="none" stroke="black" points="907.5,-49 907.5,-79 1050.5,-79 1050.5,-49 907.5,-49"/>
<text text-anchor="start" x="915.5" y="-67" font-family="Helvetica,sans-Serif" font-size="10.00">Voxel::TI::TintinCDKCamera</text>
<text text-anchor="middle" x="979" y="-56" font-family="Helvetica,sans-Serif" font-size="10.00">::TintinCDKCamera</text>
</a>
</g>
</g>
<!-- Node16&#45;&gt;Node17 -->
<g id="edge16" class="edge"><title>Node16&#45;&gt;Node17</title>
<path fill="none" stroke="midnightblue" d="M866.891,-64C880.378,-64 894.272,-64 907.474,-64"/>
<polygon fill="midnightblue" stroke="midnightblue" points="866.676,-60.5001 856.676,-64 866.676,-67.5001 866.676,-60.5001"/>
</g>
<!-- Node19 -->
<g id="node19" class="node"><title>Node19</title>
<g id="a_node19"><a xlink:href="classVoxel_1_1TI_1_1VoxelDCamera.xhtml#a4a95cf8257e2f9f5fd34386b87f6663a" target="_top" xlink:title="Voxel::TI::VoxelDCamera\l::VoxelDCamera">
<polygon fill="none" stroke="black" points="914.5,-0 914.5,-30 1043.5,-30 1043.5,-0 914.5,-0"/>
<text text-anchor="start" x="922.5" y="-18" font-family="Helvetica,sans-Serif" font-size="10.00">Voxel::TI::VoxelDCamera</text>
<text text-anchor="middle" x="979" y="-7" font-family="Helvetica,sans-Serif" font-size="10.00">::VoxelDCamera</text>
</a>
</g>
</g>
<!-- Node18&#45;&gt;Node19 -->
<g id="edge18" class="edge"><title>Node18&#45;&gt;Node19</title>
<path fill="none" stroke="midnightblue" d="M859.788,-15C877.722,-15 896.75,-15 914.178,-15"/>
<polygon fill="midnightblue" stroke="midnightblue" points="859.667,-11.5001 849.667,-15 859.666,-18.5001 859.667,-11.5001"/>
</g>
<!-- Node20&#45;&gt;Node3 -->
<g id="edge20" class="edge"><title>Node20&#45;&gt;Node3</title>
<path fill="none" stroke="midnightblue" d="M301.942,-159.485C317.149,-163.287 333.108,-167.277 347.895,-170.974"/>
<polygon fill="midnightblue" stroke="midnightblue" points="302.627,-156.049 292.077,-157.019 300.929,-162.84 302.627,-156.049"/>
</g>
<!-- Node22 -->
<g id="node22" class="node"><title>Node22</title>
<g id="a_node22"><a xlink:href="classTinyXML2_1_1XMLElement.xhtml#a1f37b0bb41320c4121515755b8a057a4" target="_top" xlink:title="TinyXML2::XMLElement\l::ParseDeep">
<polygon fill="none" stroke="black" points="347.5,-78 347.5,-108 470.5,-108 470.5,-78 347.5,-78"/>
<text text-anchor="start" x="355.5" y="-96" font-family="Helvetica,sans-Serif" font-size="10.00">TinyXML2::XMLElement</text>
<text text-anchor="middle" x="409" y="-85" font-family="Helvetica,sans-Serif" font-size="10.00">::ParseDeep</text>
</a>
</g>
</g>
<!-- Node21&#45;&gt;Node22 -->
<g id="edge23" class="edge"><title>Node21&#45;&gt;Node22</title>
<path fill="none" stroke="midnightblue" d="M302.677,-93C317.465,-93 332.933,-93 347.319,-93"/>
<polygon fill="midnightblue" stroke="midnightblue" points="302.569,-89.5001 292.569,-93 302.569,-96.5001 302.569,-89.5001"/>
</g>
</g>
</svg>
