<?xml version="1.0" encoding="UTF-8" standalone="no"?>
<!DOCTYPE svg PUBLIC "-//W3C//DTD SVG 1.1//EN"
 "http://www.w3.org/Graphics/SVG/1.1/DTD/svg11.dtd">
<!-- Generated by graphviz version 2.36.0 (20140111.2315)
 -->
<!-- Title: Voxel::DepthCameraLibrary::getABIVersion Pages: 1 -->
<!--zoomable 214 -->
<svg id="main" version="1.1" xmlns="http://www.w3.org/2000/svg" xmlns:xlink="http://www.w3.org/1999/xlink" xml:space="preserve" onload="init(evt)">
<style type="text/css"><![CDATA[
.edge:hover path { stroke: red; }
.edge:hover polygon { stroke: red; fill: red; }
]]></style>
<script type="text/javascript"><![CDATA[
var edges = document.getElementsByTagName('g');
if (edges && edges.length) {
  for (var i=0;i<edges.length;i++) {
    if (edges[i].id.substr(0,4)=='edge') {
      edges[i].setAttribute('class','edge');
    }
  }
}
]]></script>
        <defs>
                <circle id="rim" cx="0" cy="0" r="7"/>
                <circle id="rim2" cx="0" cy="0" r="3.5"/>
                <g id="zoomPlus">
                        <use xlink:href="#rim" fill="#404040">
                                <set attributeName="fill" to="#808080" begin="zoomplus.mouseover" end="zoomplus.mouseout"/>
                        </use>
                        <path d="M-4,0h8M0,-4v8" fill="none" stroke="white" stroke-width="1.5" pointer-events="none"/>
                </g>
                <g id="zoomMin">
                        <use xlink:href="#rim" fill="#404040">
                                <set attributeName="fill" to="#808080" begin="zoomminus.mouseover" end="zoomminus.mouseout"/>
                        </use>
                        <path d="M-4,0h8" fill="none" stroke="white" stroke-width="1.5" pointer-events="none"/>
                </g>
                <g id="dirArrow">
                        <path fill="none" stroke="white" stroke-width="1.5" d="M0,-3.0v7 M-2.5,-0.5L0,-3.0L2.5,-0.5"/>
                </g>
               <g id="resetDef">
                       <use xlink:href="#rim2" fill="#404040">
                               <set attributeName="fill" to="#808080" begin="reset.mouseover" end="reset.mouseout"/>
                       </use>
               </g>
        </defs>

<script type="text/javascript">
var viewWidth = 646;
var viewHeight = 214;
var sectionId = 'dynsection-2';
</script>
<script xlink:href="svgpan.js"/>
<svg id="graph" class="graph">
<g id="viewport">
<title>Voxel::DepthCameraLibrary::getABIVersion</title>
<!-- Node1 -->
<g id="node1" class="node"><title>Node1</title>
<polygon fill="#bfbfbf" stroke="black" points="0.5,-61 0.5,-91 137.5,-91 137.5,-61 0.5,-61"/>
<text text-anchor="start" x="8.5" y="-79" font-family="Helvetica,sans-Serif" font-size="10.00">Voxel::DepthCameraLibrary</text>
<text text-anchor="middle" x="69" y="-68" font-family="Helvetica,sans-Serif" font-size="10.00">::getABIVersion</text>
</g>
<!-- Node2 -->
<g id="node2" class="node"><title>Node2</title>
<g id="a_node2"><a xlink:href="classELFIO_1_1dynamic__section__accessor.xhtml#a96572acd12da838914034ab7c6993d65" target="_top" xlink:title="ELFIO::dynamic_section\l_accessor::get_entry">
<polygon fill="none" stroke="black" points="174.5,-127 174.5,-157 299.5,-157 299.5,-127 174.5,-127"/>
<text text-anchor="start" x="182.5" y="-145" font-family="Helvetica,sans-Serif" font-size="10.00">ELFIO::dynamic_section</text>
<text text-anchor="middle" x="237" y="-134" font-family="Helvetica,sans-Serif" font-size="10.00">_accessor::get_entry</text>
</a>
</g>
</g>
<!-- Node1&#45;&gt;Node2 -->
<g id="edge1" class="edge"><title>Node1&#45;&gt;Node2</title>
<path fill="none" stroke="midnightblue" d="M108.084,-91.1417C132.019,-100.658 163.086,-113.01 188.609,-123.158"/>
<polygon fill="midnightblue" stroke="midnightblue" points="187.508,-126.486 198.093,-126.929 190.094,-119.982 187.508,-126.486"/>
</g>
<!-- Node7 -->
<g id="node7" class="node"><title>Node7</title>
<g id="a_node7"><a xlink:href="classELFIO_1_1elfio.xhtml#af313dfceaf57ca8342e1cebba19a986e" target="_top" xlink:title="ELFIO::elfio::load">
<polygon fill="none" stroke="black" points="190.5,-88.5 190.5,-107.5 283.5,-107.5 283.5,-88.5 190.5,-88.5"/>
<text text-anchor="middle" x="237" y="-95.5" font-family="Helvetica,sans-Serif" font-size="10.00">ELFIO::elfio::load</text>
</a>
</g>
</g>
<!-- Node1&#45;&gt;Node7 -->
<g id="edge6" class="edge"><title>Node1&#45;&gt;Node7</title>
<path fill="none" stroke="midnightblue" d="M137.519,-84.9482C151.681,-86.8252 166.467,-88.7848 180.148,-90.5979"/>
<polygon fill="midnightblue" stroke="midnightblue" points="179.992,-94.1078 190.365,-91.952 180.912,-87.1685 179.992,-94.1078"/>
</g>
<!-- Node8 -->
<g id="node8" class="node"><title>Node8</title>
<g id="a_node8"><a xlink:href="classELFIO_1_1elfio_1_1Sections.xhtml#a5c66bdb3ab662752c4968d8cd1a1a490" target="_top" xlink:title="ELFIO::elfio::Sections\l::size">
<polygon fill="none" stroke="black" points="180.5,-39 180.5,-69 293.5,-69 293.5,-39 180.5,-39"/>
<text text-anchor="start" x="188.5" y="-57" font-family="Helvetica,sans-Serif" font-size="10.00">ELFIO::elfio::Sections</text>
<text text-anchor="middle" x="237" y="-46" font-family="Helvetica,sans-Serif" font-size="10.00">::size</text>
</a>
</g>
</g>
<!-- Node1&#45;&gt;Node8 -->
<g id="edge7" class="edge"><title>Node1&#45;&gt;Node8</title>
<path fill="none" stroke="midnightblue" d="M137.519,-67.0518C148.334,-65.6184 159.513,-64.1368 170.286,-62.7091"/>
<polygon fill="midnightblue" stroke="midnightblue" points="171.011,-66.1437 180.465,-61.3601 170.092,-59.2043 171.011,-66.1437"/>
</g>
<!-- Node9 -->
<g id="node9" class="node"><title>Node9</title>
<g id="a_node9"><a xlink:href="group__Util.xhtml#gadd67e5b1a02a8a07764793e4598922d4" target="_top" xlink:title="Voxel::split">
<polygon fill="none" stroke="black" points="204.5,-0.5 204.5,-19.5 269.5,-19.5 269.5,-0.5 204.5,-0.5"/>
<text text-anchor="middle" x="237" y="-7.5" font-family="Helvetica,sans-Serif" font-size="10.00">Voxel::split</text>
</a>
</g>
</g>
<!-- Node1&#45;&gt;Node9 -->
<g id="edge8" class="edge"><title>Node1&#45;&gt;Node9</title>
<path fill="none" stroke="midnightblue" d="M100.513,-60.9727C121.013,-51.1855 148.789,-38.5155 174,-29 180.511,-26.5427 187.492,-24.1643 194.337,-21.97"/>
<polygon fill="midnightblue" stroke="midnightblue" points="195.69,-25.2143 204.197,-18.8991 193.609,-18.531 195.69,-25.2143"/>
</g>
<!-- Node3 -->
<g id="node3" class="node"><title>Node3</title>
<g id="a_node3"><a xlink:href="classELFIO_1_1dynamic__section__accessor.xhtml#a4a1f80115e8385d2ebfe0820c4862bd0" target="_top" xlink:title="ELFIO::dynamic_section\l_accessor::get_entries_num">
<polygon fill="none" stroke="black" points="336,-176 336,-206 476,-206 476,-176 336,-176"/>
<text text-anchor="start" x="344" y="-194" font-family="Helvetica,sans-Serif" font-size="10.00">ELFIO::dynamic_section</text>
<text text-anchor="middle" x="406" y="-183" font-family="Helvetica,sans-Serif" font-size="10.00">_accessor::get_entries_num</text>
</a>
</g>
</g>
<!-- Node2&#45;&gt;Node3 -->
<g id="edge2" class="edge"><title>Node2&#45;&gt;Node3</title>
<path fill="none" stroke="midnightblue" d="M289.468,-157.101C306.692,-162.155 326.059,-167.838 343.942,-173.085"/>
<polygon fill="midnightblue" stroke="midnightblue" points="343.121,-176.491 353.702,-175.948 345.092,-169.774 343.121,-176.491"/>
</g>
<!-- Node4 -->
<g id="node4" class="node"><title>Node4</title>
<g id="a_node4"><a xlink:href="classELFIO_1_1string__section__accessor.xhtml#abf7ba3e0d2d1e200f13ec4b4bdff96d1" target="_top" xlink:title="ELFIO::string_section\l_accessor::get_string">
<polygon fill="none" stroke="black" points="350,-127 350,-157 462,-157 462,-127 350,-127"/>
<text text-anchor="start" x="358" y="-145" font-family="Helvetica,sans-Serif" font-size="10.00">ELFIO::string_section</text>
<text text-anchor="middle" x="406" y="-134" font-family="Helvetica,sans-Serif" font-size="10.00">_accessor::get_string</text>
</a>
</g>
</g>
<!-- Node2&#45;&gt;Node4 -->
<g id="edge3" class="edge"><title>Node2&#45;&gt;Node4</title>
<path fill="none" stroke="midnightblue" d="M299.71,-142C312.687,-142 326.419,-142 339.528,-142"/>
<polygon fill="midnightblue" stroke="midnightblue" points="339.881,-145.5 349.881,-142 339.881,-138.5 339.881,-145.5"/>
</g>
<!-- Node6 -->
<g id="node6" class="node"><title>Node6</title>
<g id="a_node6"><a xlink:href="classELFIO_1_1dynamic__section__accessor.xhtml#a516030175a15e0f8aff06217e3ae5f85" target="_top" xlink:title="ELFIO::dynamic_section\l_accessor::get_string\l_table_index">
<polygon fill="none" stroke="black" points="343.5,-67.5 343.5,-108.5 468.5,-108.5 468.5,-67.5 343.5,-67.5"/>
<text text-anchor="start" x="351.5" y="-96.5" font-family="Helvetica,sans-Serif" font-size="10.00">ELFIO::dynamic_section</text>
<text text-anchor="start" x="351.5" y="-85.5" font-family="Helvetica,sans-Serif" font-size="10.00">_accessor::get_string</text>
<text text-anchor="middle" x="406" y="-74.5" font-family="Helvetica,sans-Serif" font-size="10.00">_table_index</text>
</a>
</g>
</g>
<!-- Node2&#45;&gt;Node6 -->
<g id="edge5" class="edge"><title>Node2&#45;&gt;Node6</title>
<path fill="none" stroke="midnightblue" d="M284.519,-126.958C299.767,-122.027 317.077,-116.43 333.724,-111.047"/>
<polygon fill="midnightblue" stroke="midnightblue" points="334.991,-114.316 343.429,-107.909 332.837,-107.656 334.991,-114.316"/>
</g>
<!-- Node5 -->
<g id="node5" class="node"><title>Node5</title>
<g id="a_node5"><a xlink:href="classELFIO_1_1section.xhtml#accfaef20485ee803990b260130022bd2" target="_top" xlink:title="ELFIO::section::get_data">
<polygon fill="none" stroke="black" points="512,-132.5 512,-151.5 638,-151.5 638,-132.5 512,-132.5"/>
<text text-anchor="middle" x="575" y="-139.5" font-family="Helvetica,sans-Serif" font-size="10.00">ELFIO::section::get_data</text>
</a>
</g>
</g>
<!-- Node4&#45;&gt;Node5 -->
<g id="edge4" class="edge"><title>Node4&#45;&gt;Node5</title>
<path fill="none" stroke="midnightblue" d="M462.145,-142C474.864,-142 488.579,-142 501.9,-142"/>
<polygon fill="midnightblue" stroke="midnightblue" points="501.986,-145.5 511.986,-142 501.986,-138.5 501.986,-145.5"/>
</g>
</g>
</svg>
        <g id="navigator" transform="translate(0 0)" fill="#404254">
                <rect fill="#f2f5e9" fill-opacity="0.5" stroke="#606060" stroke-width=".5" x="0" y="0" width="60" height="60"/>
                <use id="zoomplus" xlink:href="#zoomPlus" x="17" y="9" onmousedown="handleZoom(evt,'in')"/>
                <use id="zoomminus" xlink:href="#zoomMin" x="42" y="9" onmousedown="handleZoom(evt,'out')"/>
                <use id="reset" xlink:href="#resetDef" x="30" y="36" onmousedown="handleReset()"/>
                <g id="arrowUp" xlink:href="#dirArrow" transform="translate(30 24)" onmousedown="handlePan(0,-1)">
                  <use xlink:href="#rim" fill="#404040">
                        <set attributeName="fill" to="#808080" begin="arrowUp.mouseover" end="arrowUp.mouseout"/>
                  </use>
                  <path fill="none" stroke="white" stroke-width="1.5" d="M0,-3.0v7 M-2.5,-0.5L0,-3.0L2.5,-0.5"/>
                </g>
                <g id="arrowRight" xlink:href="#dirArrow" transform="rotate(90) translate(36 -43)" onmousedown="handlePan(1,0)">
                  <use xlink:href="#rim" fill="#404040">
                        <set attributeName="fill" to="#808080" begin="arrowRight.mouseover" end="arrowRight.mouseout"/>
                  </use>
                  <path fill="none" stroke="white" stroke-width="1.5" d="M0,-3.0v7 M-2.5,-0.5L0,-3.0L2.5,-0.5"/>
                </g>
                <g id="arrowDown" xlink:href="#dirArrow" transform="rotate(180) translate(-30 -48)" onmousedown="handlePan(0,1)">
                  <use xlink:href="#rim" fill="#404040">
                        <set attributeName="fill" to="#808080" begin="arrowDown.mouseover" end="arrowDown.mouseout"/>
                  </use>
                  <path fill="none" stroke="white" stroke-width="1.5" d="M0,-3.0v7 M-2.5,-0.5L0,-3.0L2.5,-0.5"/>
                </g>
                <g id="arrowLeft" xlink:href="#dirArrow" transform="rotate(270) translate(-36 17)" onmousedown="handlePan(-1,0)">
                  <use xlink:href="#rim" fill="#404040">
                        <set attributeName="fill" to="#808080" begin="arrowLeft.mouseover" end="arrowLeft.mouseout"/>
                  </use>
                  <path fill="none" stroke="white" stroke-width="1.5" d="M0,-3.0v7 M-2.5,-0.5L0,-3.0L2.5,-0.5"/>
                </g>
        </g>
        <svg viewBox="0 0 15 15" width="100%" height="30px" preserveAspectRatio="xMaxYMin meet">
         <g id="arrow_out" transform="scale(0.3 0.3)">
          <a xlink:href="classVoxel_1_1DepthCameraLibrary_a7e3111064a8cb071ec2d62c92b3cf672_cgraph_org.svg" target="_base">
           <rect id="button" ry="5" rx="5" y="6" x="6" height="38" width="38"
                fill="#f2f5e9" fill-opacity="0.5" stroke="#606060" stroke-width="1.0"/>
           <path id="arrow"
             d="M 11.500037,31.436501 C 11.940474,20.09759 22.043105,11.32322 32.158766,21.979434 L 37.068811,17.246167 C 37.068811,17.246167 37.088388,32 37.088388,32 L 22.160133,31.978069 C 22.160133,31.978069 26.997745,27.140456 26.997745,27.140456 C 18.528582,18.264221 13.291696,25.230495 11.500037,31.436501 z"
             style="fill:#404040;"/>
          </a>
         </g>
        </svg>
</svg>
