<?xml version="1.0" encoding="UTF-8" standalone="no"?>
<!DOCTYPE svg PUBLIC "-//W3C//DTD SVG 1.1//EN"
 "http://www.w3.org/Graphics/SVG/1.1/DTD/svg11.dtd">
<!-- Generated by graphviz version 2.36.0 (20140111.2315)
 -->
<!-- Title: Voxel::FrameRate::getFrameRate Pages: 1 -->
<svg width="950pt" height="410pt"
 viewBox="0.00 0.00 950.00 410.00" xmlns="http://www.w3.org/2000/svg" xmlns:xlink="http://www.w3.org/1999/xlink">
<g id="graph0" class="graph" transform="scale(1 1) rotate(0) translate(4 406)">
<title>Voxel::FrameRate::getFrameRate</title>
<!-- Node1 -->
<g id="node1" class="node"><title>Node1</title>
<polygon fill="#bfbfbf" stroke="black" points="0,-194.5 0,-213.5 164,-213.5 164,-194.5 0,-194.5"/>
<text text-anchor="middle" x="82" y="-201.5" font-family="Helvetica,sans-Serif" font-size="10.00">Voxel::FrameRate::getFrameRate</text>
</g>
<!-- Node2 -->
<g id="node2" class="node"><title>Node2</title>
<g id="a_node2"><a xlink:href="classVoxel_1_1VideoMode.xhtml#a99b3955c15011399b66cbf609afdbacb" target="_top" xlink:title="Voxel::VideoMode::getFrameRate">
<polygon fill="none" stroke="black" points="200,-238.5 200,-257.5 364,-257.5 364,-238.5 200,-238.5"/>
<text text-anchor="middle" x="282" y="-245.5" font-family="Helvetica,sans-Serif" font-size="10.00">Voxel::VideoMode::getFrameRate</text>
</a>
</g>
</g>
<!-- Node1&#45;&gt;Node2 -->
<g id="edge1" class="edge"><title>Node1&#45;&gt;Node2</title>
<path fill="none" stroke="midnightblue" d="M136.028,-215.784C167.991,-222.887 208.172,-231.816 238.121,-238.471"/>
<polygon fill="midnightblue" stroke="midnightblue" points="136.484,-212.3 125.963,-213.547 134.966,-219.133 136.484,-212.3"/>
</g>
<!-- Node17 -->
<g id="node17" class="node"><title>Node17</title>
<g id="a_node17"><a xlink:href="classVoxel_1_1PCLGrabber.xhtml#a4146a4668a6ac958a4d233dccfacba1c" target="_top" xlink:title="Voxel::PCLGrabber::\lgetFramesPerSecond">
<polygon fill="none" stroke="black" points="226.5,-189 226.5,-219 337.5,-219 337.5,-189 226.5,-189"/>
<text text-anchor="start" x="234.5" y="-207" font-family="Helvetica,sans-Serif" font-size="10.00">Voxel::PCLGrabber::</text>
<text text-anchor="middle" x="282" y="-196" font-family="Helvetica,sans-Serif" font-size="10.00">getFramesPerSecond</text>
</a>
</g>
</g>
<!-- Node1&#45;&gt;Node17 -->
<g id="edge19" class="edge"><title>Node1&#45;&gt;Node17</title>
<path fill="none" stroke="midnightblue" d="M174.48,-204C192.193,-204 210.229,-204 226.302,-204"/>
<polygon fill="midnightblue" stroke="midnightblue" points="174.106,-200.5 164.105,-204 174.105,-207.5 174.106,-200.5"/>
</g>
<!-- Node18 -->
<g id="node18" class="node"><title>Node18</title>
<g id="a_node18"><a xlink:href="CameraSystemSaveStreamTest_8cpp.xhtml#a0ddf1224851353fc92bfbff6f499fa97" target="_top" xlink:title="main">
<polygon fill="none" stroke="black" points="263,-150.5 263,-169.5 301,-169.5 301,-150.5 263,-150.5"/>
<text text-anchor="middle" x="282" y="-157.5" font-family="Helvetica,sans-Serif" font-size="10.00">main</text>
</a>
</g>
</g>
<!-- Node1&#45;&gt;Node18 -->
<g id="edge20" class="edge"><title>Node1&#45;&gt;Node18</title>
<path fill="none" stroke="midnightblue" d="M135.753,-192.277C177.693,-182.957 233.915,-170.463 262.553,-164.099"/>
<polygon fill="midnightblue" stroke="midnightblue" points="134.966,-188.867 125.963,-194.453 136.484,-195.7 134.966,-188.867"/>
</g>
<!-- Node3 -->
<g id="node3" class="node"><title>Node3</title>
<g id="a_node3"><a xlink:href="classVoxel_1_1CLIManager.xhtml#a2672bb26d3423d3cc587f7871a4741cd" target="_top" xlink:title="Voxel::CLIManager::\l_videoModeCapabilities">
<polygon fill="none" stroke="black" points="409,-328 409,-358 529,-358 529,-328 409,-328"/>
<text text-anchor="start" x="417" y="-346" font-family="Helvetica,sans-Serif" font-size="10.00">Voxel::CLIManager::</text>
<text text-anchor="middle" x="469" y="-335" font-family="Helvetica,sans-Serif" font-size="10.00">_videoModeCapabilities</text>
</a>
</g>
</g>
<!-- Node2&#45;&gt;Node3 -->
<g id="edge2" class="edge"><title>Node2&#45;&gt;Node3</title>
<path fill="none" stroke="midnightblue" d="M310.782,-262.266C345.167,-279.924 403.467,-309.861 438.588,-327.897"/>
<polygon fill="midnightblue" stroke="midnightblue" points="312.251,-259.087 301.757,-257.632 309.054,-265.313 312.251,-259.087"/>
</g>
<!-- Node4 -->
<g id="node4" class="node"><title>Node4</title>
<g id="a_node4"><a xlink:href="classVoxel_1_1CLIManager.xhtml#a1caa7d89cf577f4728a114e78d1a5ba3" target="_top" xlink:title="Voxel::CLIManager::\l_videoMode">
<polygon fill="none" stroke="black" points="631.5,-372 631.5,-402 738.5,-402 738.5,-372 631.5,-372"/>
<text text-anchor="start" x="639.5" y="-390" font-family="Helvetica,sans-Serif" font-size="10.00">Voxel::CLIManager::</text>
<text text-anchor="middle" x="685" y="-379" font-family="Helvetica,sans-Serif" font-size="10.00">_videoMode</text>
</a>
</g>
</g>
<!-- Node2&#45;&gt;Node4 -->
<g id="edge6" class="edge"><title>Node2&#45;&gt;Node4</title>
<path fill="none" stroke="midnightblue" d="M294.526,-266.327C312.974,-293.817 351.988,-344.859 400,-367 474.621,-401.412 572.096,-399.563 631.271,-394.038"/>
<polygon fill="midnightblue" stroke="midnightblue" points="297.274,-264.133 288.878,-257.671 291.412,-267.959 297.274,-264.133"/>
</g>
<!-- Node6 -->
<g id="node6" class="node"><title>Node6</title>
<g id="a_node6"><a xlink:href="classVoxel_1_1TI_1_1ToFCameraBase.xhtml#a4c7e80209e0a350ec9cfb601e7ec75e2" target="_top" xlink:title="Voxel::TI::ToFCameraBase\l::_onReset">
<polygon fill="none" stroke="black" points="400.5,-257 400.5,-287 537.5,-287 537.5,-257 400.5,-257"/>
<text text-anchor="start" x="408.5" y="-275" font-family="Helvetica,sans-Serif" font-size="10.00">Voxel::TI::ToFCameraBase</text>
<text text-anchor="middle" x="469" y="-264" font-family="Helvetica,sans-Serif" font-size="10.00">::_onReset</text>
</a>
</g>
</g>
<!-- Node2&#45;&gt;Node6 -->
<g id="edge7" class="edge"><title>Node2&#45;&gt;Node6</title>
<path fill="none" stroke="midnightblue" d="M366.34,-258.812C377.746,-260.291 389.339,-261.795 400.417,-263.233"/>
<polygon fill="midnightblue" stroke="midnightblue" points="366.75,-255.336 356.383,-257.52 365.849,-262.277 366.75,-255.336"/>
</g>
<!-- Node7 -->
<g id="node7" class="node"><title>Node7</title>
<g id="a_node7"><a xlink:href="classVoxel_1_1TI_1_1ToFCameraBase.xhtml#a3a536998145a2cab4265de9e342a5920" target="_top" xlink:title="Voxel::TI::ToFCameraBase\l::_start">
<polygon fill="none" stroke="black" points="400.5,-208 400.5,-238 537.5,-238 537.5,-208 400.5,-208"/>
<text text-anchor="start" x="408.5" y="-226" font-family="Helvetica,sans-Serif" font-size="10.00">Voxel::TI::ToFCameraBase</text>
<text text-anchor="middle" x="469" y="-215" font-family="Helvetica,sans-Serif" font-size="10.00">::_start</text>
</a>
</g>
</g>
<!-- Node2&#45;&gt;Node7 -->
<g id="edge8" class="edge"><title>Node2&#45;&gt;Node7</title>
<path fill="none" stroke="midnightblue" d="M363.692,-237.096C375.965,-235.437 388.52,-233.741 400.474,-232.125"/>
<polygon fill="midnightblue" stroke="midnightblue" points="362.909,-233.67 353.468,-238.477 363.847,-240.606 362.909,-233.67"/>
</g>
<!-- Node8 -->
<g id="node8" class="node"><title>Node8</title>
<g id="a_node8"><a xlink:href="classVoxel_1_1UVCStreamer.xhtml#a7babd2f4cbe6152499b4c49b0137b6b4" target="_top" xlink:title="Voxel::UVCStreamer\l::setVideoMode">
<polygon fill="none" stroke="black" points="414.5,-148 414.5,-178 523.5,-178 523.5,-148 414.5,-148"/>
<text text-anchor="start" x="422.5" y="-166" font-family="Helvetica,sans-Serif" font-size="10.00">Voxel::UVCStreamer</text>
<text text-anchor="middle" x="469" y="-155" font-family="Helvetica,sans-Serif" font-size="10.00">::setVideoMode</text>
</a>
</g>
</g>
<!-- Node2&#45;&gt;Node8 -->
<g id="edge9" class="edge"><title>Node2&#45;&gt;Node8</title>
<path fill="none" stroke="midnightblue" d="M345.909,-235.387C352.158,-233.274 358.293,-230.828 364,-228 382.409,-218.877 382.843,-210.303 400,-199 411.49,-191.431 424.742,-184.125 436.478,-178.096"/>
<polygon fill="midnightblue" stroke="midnightblue" points="344.56,-232.141 336.041,-238.439 346.628,-238.828 344.56,-232.141"/>
</g>
<!-- Node14 -->
<g id="node14" class="node"><title>Node14</title>
<g id="a_node14"><a xlink:href="UVCStreamerTest_8cpp.xhtml#a0ddf1224851353fc92bfbff6f499fa97" target="_top" xlink:title="main">
<polygon fill="none" stroke="black" points="666,-0.5 666,-19.5 704,-19.5 704,-0.5 666,-0.5"/>
<text text-anchor="middle" x="685" y="-7.5" font-family="Helvetica,sans-Serif" font-size="10.00">main</text>
</a>
</g>
</g>
<!-- Node2&#45;&gt;Node14 -->
<g id="edge18" class="edge"><title>Node2&#45;&gt;Node14</title>
<path fill="none" stroke="midnightblue" d="M356.359,-233.615C359.055,-231.938 361.618,-230.073 364,-228 396.497,-199.717 372.384,-171.066 400,-138 458.496,-67.9608 488.768,-61.6017 574,-29 604.953,-17.1604 643.635,-12.6603 665.909,-10.9772"/>
<polygon fill="midnightblue" stroke="midnightblue" points="354.569,-230.602 347.351,-238.358 357.83,-236.795 354.569,-230.602"/>
</g>
<!-- Node3&#45;&gt;Node4 -->
<g id="edge3" class="edge"><title>Node3&#45;&gt;Node4</title>
<path fill="none" stroke="midnightblue" d="M539.013,-357.19C568.978,-363.351 603.51,-370.451 631.355,-376.176"/>
<polygon fill="midnightblue" stroke="midnightblue" points="539.543,-353.725 529.043,-355.14 538.133,-360.582 539.543,-353.725"/>
</g>
<!-- Node5 -->
<g id="node5" class="node"><title>Node5</title>
<g id="a_node5"><a xlink:href="classVoxel_1_1CLIManager.xhtml#a7a7ce51202c00d16a0e1cac5dcceb1e0" target="_top" xlink:title="Voxel::CLIManager::\lCLIManager">
<polygon fill="none" stroke="black" points="833.5,-350 833.5,-380 940.5,-380 940.5,-350 833.5,-350"/>
<text text-anchor="start" x="841.5" y="-368" font-family="Helvetica,sans-Serif" font-size="10.00">Voxel::CLIManager::</text>
<text text-anchor="middle" x="887" y="-357" font-family="Helvetica,sans-Serif" font-size="10.00">CLIManager</text>
</a>
</g>
</g>
<!-- Node3&#45;&gt;Node5 -->
<g id="edge5" class="edge"><title>Node3&#45;&gt;Node5</title>
<path fill="none" stroke="midnightblue" d="M539.226,-346.661C621.983,-351.038 758.636,-358.264 833.294,-362.213"/>
<polygon fill="midnightblue" stroke="midnightblue" points="539.332,-343.162 529.161,-346.129 538.962,-350.152 539.332,-343.162"/>
</g>
<!-- Node4&#45;&gt;Node5 -->
<g id="edge4" class="edge"><title>Node4&#45;&gt;Node5</title>
<path fill="none" stroke="midnightblue" d="M748.75,-380.097C775.973,-377.103 807.493,-373.636 833.456,-370.78"/>
<polygon fill="midnightblue" stroke="midnightblue" points="748.105,-376.647 738.548,-381.22 748.87,-383.605 748.105,-376.647"/>
</g>
<!-- Node9 -->
<g id="node9" class="node"><title>Node9</title>
<g id="a_node9"><a xlink:href="classVoxel_1_1TI_1_1RTS5825CameraUVCStreamer.xhtml#a1fa44ca04c55a5013030131ee76aa776" target="_top" xlink:title="Voxel::TI::RTS5825Camera\lUVCStreamer::RTS5825CameraUVCStreamer">
<polygon fill="none" stroke="black" points="574.5,-284 574.5,-314 795.5,-314 795.5,-284 574.5,-284"/>
<text text-anchor="start" x="582.5" y="-302" font-family="Helvetica,sans-Serif" font-size="10.00">Voxel::TI::RTS5825Camera</text>
<text text-anchor="middle" x="685" y="-291" font-family="Helvetica,sans-Serif" font-size="10.00">UVCStreamer::RTS5825CameraUVCStreamer</text>
</a>
</g>
</g>
<!-- Node8&#45;&gt;Node9 -->
<g id="edge10" class="edge"><title>Node8&#45;&gt;Node9</title>
<path fill="none" stroke="midnightblue" d="M517.388,-182.982C524.87,-187.511 532.078,-192.84 538,-199 563.625,-225.655 545.096,-250.942 574,-274 578.822,-277.847 584.124,-281.126 589.713,-283.918"/>
<polygon fill="midnightblue" stroke="midnightblue" points="518.975,-179.859 508.539,-178.031 515.557,-185.968 518.975,-179.859"/>
</g>
<!-- Node10 -->
<g id="node10" class="node"><title>Node10</title>
<g id="a_node10"><a xlink:href="classVoxel_1_1TI_1_1RTS5825Camera.xhtml#a317d118004c39f03a181cc5183b7b8ee" target="_top" xlink:title="Voxel::TI::RTS5825Camera\l::_setStreamerFrameSize">
<polygon fill="none" stroke="black" points="616,-235 616,-265 754,-265 754,-235 616,-235"/>
<text text-anchor="start" x="624" y="-253" font-family="Helvetica,sans-Serif" font-size="10.00">Voxel::TI::RTS5825Camera</text>
<text text-anchor="middle" x="685" y="-242" font-family="Helvetica,sans-Serif" font-size="10.00">::_setStreamerFrameSize</text>
</a>
</g>
</g>
<!-- Node8&#45;&gt;Node10 -->
<g id="edge11" class="edge"><title>Node8&#45;&gt;Node10</title>
<path fill="none" stroke="midnightblue" d="M509.513,-182.732C518.988,-187.787 528.973,-193.388 538,-199 554.762,-209.42 556.015,-216.872 574,-225 587.117,-230.928 601.769,-235.513 615.994,-239.038"/>
<polygon fill="midnightblue" stroke="midnightblue" points="511.114,-179.619 500.633,-178.07 507.86,-185.817 511.114,-179.619"/>
</g>
<!-- Node11 -->
<g id="node11" class="node"><title>Node11</title>
<g id="a_node11"><a xlink:href="classVoxel_1_1TI_1_1TintinCDKCamera.xhtml#a2ffbaceb53ded2b382116ac66b787698" target="_top" xlink:title="Voxel::TI::TintinCDKCamera\l::_setStreamerFrameSize">
<polygon fill="none" stroke="black" points="613.5,-186 613.5,-216 756.5,-216 756.5,-186 613.5,-186"/>
<text text-anchor="start" x="621.5" y="-204" font-family="Helvetica,sans-Serif" font-size="10.00">Voxel::TI::TintinCDKCamera</text>
<text text-anchor="middle" x="685" y="-193" font-family="Helvetica,sans-Serif" font-size="10.00">::_setStreamerFrameSize</text>
</a>
</g>
</g>
<!-- Node8&#45;&gt;Node11 -->
<g id="edge12" class="edge"><title>Node8&#45;&gt;Node11</title>
<path fill="none" stroke="midnightblue" d="M533.827,-174.334C558.831,-178.774 587.614,-183.885 613.249,-188.437"/>
<polygon fill="midnightblue" stroke="midnightblue" points="534.183,-170.842 523.725,-172.54 532.959,-177.734 534.183,-170.842"/>
</g>
<!-- Node12 -->
<g id="node12" class="node"><title>Node12</title>
<g id="a_node12"><a xlink:href="classVoxel_1_1UVCStreamer.xhtml#acc806ec3fc0f1e55739a844a0ff0f3c0" target="_top" xlink:title="Voxel::UVCStreamer\l::_initForCapture">
<polygon fill="none" stroke="black" points="630.5,-137 630.5,-167 739.5,-167 739.5,-137 630.5,-137"/>
<text text-anchor="start" x="638.5" y="-155" font-family="Helvetica,sans-Serif" font-size="10.00">Voxel::UVCStreamer</text>
<text text-anchor="middle" x="685" y="-144" font-family="Helvetica,sans-Serif" font-size="10.00">::_initForCapture</text>
</a>
</g>
</g>
<!-- Node8&#45;&gt;Node12 -->
<g id="edge13" class="edge"><title>Node8&#45;&gt;Node12</title>
<path fill="none" stroke="midnightblue" d="M533.901,-159.715C564.605,-158.137 600.994,-156.267 630.253,-154.763"/>
<polygon fill="midnightblue" stroke="midnightblue" points="533.532,-156.23 523.725,-160.238 533.892,-163.22 533.532,-156.23"/>
</g>
<!-- Node8&#45;&gt;Node14 -->
<g id="edge15" class="edge"><title>Node8&#45;&gt;Node14</title>
<path fill="none" stroke="midnightblue" d="M490.985,-140.246C504.868,-124.809 523.174,-103.701 538,-84 555.567,-60.6565 549.581,-45.0384 574,-29 602.024,-10.5943 642.406,-8.38815 665.646,-8.89234"/>
<polygon fill="midnightblue" stroke="midnightblue" points="488.293,-138.004 484.171,-147.764 493.48,-142.705 488.293,-138.004"/>
</g>
<!-- Node15 -->
<g id="node15" class="node"><title>Node15</title>
<g id="a_node15"><a xlink:href="classVoxel_1_1TI_1_1Voxel14Camera.xhtml#afeb9b488760b3c32cf6d5decb25bfdcf" target="_top" xlink:title="Voxel::TI::Voxel14Camera\l::_setStreamerFrameSize">
<polygon fill="none" stroke="black" points="619,-88 619,-118 751,-118 751,-88 619,-88"/>
<text text-anchor="start" x="627" y="-106" font-family="Helvetica,sans-Serif" font-size="10.00">Voxel::TI::Voxel14Camera</text>
<text text-anchor="middle" x="685" y="-95" font-family="Helvetica,sans-Serif" font-size="10.00">::_setStreamerFrameSize</text>
</a>
</g>
</g>
<!-- Node8&#45;&gt;Node15 -->
<g id="edge16" class="edge"><title>Node8&#45;&gt;Node15</title>
<path fill="none" stroke="midnightblue" d="M519.89,-144.387C536.918,-138.394 556.164,-132.014 574,-127 588.395,-122.954 604.01,-119.182 618.83,-115.883"/>
<polygon fill="midnightblue" stroke="midnightblue" points="518.393,-141.205 510.147,-147.857 520.742,-147.799 518.393,-141.205"/>
</g>
<!-- Node16 -->
<g id="node16" class="node"><title>Node16</title>
<g id="a_node16"><a xlink:href="classVoxel_1_1TI_1_1VoxelDCamera.xhtml#aa13368de49716d5ec7ed82df1010a6b0" target="_top" xlink:title="Voxel::TI::VoxelDCamera\l::_setStreamerFrameSize">
<polygon fill="none" stroke="black" points="620.5,-39 620.5,-69 749.5,-69 749.5,-39 620.5,-39"/>
<text text-anchor="start" x="628.5" y="-57" font-family="Helvetica,sans-Serif" font-size="10.00">Voxel::TI::VoxelDCamera</text>
<text text-anchor="middle" x="685" y="-46" font-family="Helvetica,sans-Serif" font-size="10.00">::_setStreamerFrameSize</text>
</a>
</g>
</g>
<!-- Node8&#45;&gt;Node16 -->
<g id="edge17" class="edge"><title>Node8&#45;&gt;Node16</title>
<path fill="none" stroke="midnightblue" d="M491.124,-140.562C510.755,-121.067 541.746,-93.5808 574,-78 588.344,-71.0707 604.704,-66.1209 620.342,-62.5926"/>
<polygon fill="midnightblue" stroke="midnightblue" points="488.46,-138.279 483.93,-147.856 493.444,-143.194 488.46,-138.279"/>
</g>
<!-- Node13 -->
<g id="node13" class="node"><title>Node13</title>
<g id="a_node13"><a xlink:href="classVoxel_1_1UVCStreamer.xhtml#a3bf08c2dd6922d8e4a44a63840095d97" target="_top" xlink:title="Voxel::UVCStreamer\l::_start">
<polygon fill="none" stroke="black" points="832.5,-137 832.5,-167 941.5,-167 941.5,-137 832.5,-137"/>
<text text-anchor="start" x="840.5" y="-155" font-family="Helvetica,sans-Serif" font-size="10.00">Voxel::UVCStreamer</text>
<text text-anchor="middle" x="887" y="-144" font-family="Helvetica,sans-Serif" font-size="10.00">::_start</text>
</a>
</g>
</g>
<!-- Node12&#45;&gt;Node13 -->
<g id="edge14" class="edge"><title>Node12&#45;&gt;Node13</title>
<path fill="none" stroke="midnightblue" d="M749.933,-152C776.463,-152 806.903,-152 832.256,-152"/>
<polygon fill="midnightblue" stroke="midnightblue" points="749.596,-148.5 739.596,-152 749.596,-155.5 749.596,-148.5"/>
</g>
</g>
</svg>
