<?xml version="1.0" encoding="UTF-8" standalone="no"?>
<!DOCTYPE svg PUBLIC "-//W3C//DTD SVG 1.1//EN"
 "http://www.w3.org/Graphics/SVG/1.1/DTD/svg11.dtd">
<!-- Generated by graphviz version 2.36.0 (20140111.2315)
 -->
<!-- Title: TinyXML2::XMLPrinter::PushText Pages: 1 -->
<svg width="572pt" height="101pt"
 viewBox="0.00 0.00 572.00 100.87" xmlns="http://www.w3.org/2000/svg" xmlns:xlink="http://www.w3.org/1999/xlink">
<g id="graph0" class="graph" transform="scale(1 1) rotate(0) translate(4 96.8697)">
<title>TinyXML2::XMLPrinter::PushText</title>
<!-- Node1 -->
<g id="node1" class="node"><title>Node1</title>
<polygon fill="#bfbfbf" stroke="black" points="0,-49 0,-79 116,-79 116,-49 0,-49"/>
<text text-anchor="start" x="8" y="-67" font-family="Helvetica,sans-Serif" font-size="10.00">TinyXML2::XMLPrinter</text>
<text text-anchor="middle" x="58" y="-56" font-family="Helvetica,sans-Serif" font-size="10.00">::PushText</text>
</g>
<!-- Node2 -->
<g id="node2" class="node"><title>Node2</title>
<g id="a_node2"><a xlink:href="classTinyXML2_1_1XMLPrinter.xhtml#adc0b55a75420e8cbc9268bca2b8e40ac" target="_top" xlink:title="TinyXML2::XMLPrinter\l::Print">
<polygon fill="none" stroke="black" points="304,-49 304,-79 420,-79 420,-49 304,-49"/>
<text text-anchor="start" x="312" y="-67" font-family="Helvetica,sans-Serif" font-size="10.00">TinyXML2::XMLPrinter</text>
<text text-anchor="middle" x="362" y="-56" font-family="Helvetica,sans-Serif" font-size="10.00">::Print</text>
</a>
</g>
</g>
<!-- Node1&#45;&gt;Node2 -->
<g id="edge1" class="edge"><title>Node1&#45;&gt;Node2</title>
<path fill="none" stroke="midnightblue" d="M107.78,-79.0542C121.905,-82.7385 137.443,-86.152 152,-88 203.145,-94.493 216.855,-94.493 268,-88 279.259,-86.5707 291.105,-84.2049 302.43,-81.5016"/>
<polygon fill="midnightblue" stroke="midnightblue" points="303.368,-84.875 312.22,-79.0542 301.67,-78.084 303.368,-84.875"/>
</g>
<!-- Node4 -->
<g id="node4" class="node"><title>Node4</title>
<g id="a_node4"><a xlink:href="classTinyXML2_1_1XMLPrinter.xhtml#a2db7bb356f93036da79d719cd13c96e5" target="_top" xlink:title="TinyXML2::XMLPrinter\l::PrintString">
<polygon fill="none" stroke="black" points="152,-49 152,-79 268,-79 268,-49 152,-49"/>
<text text-anchor="start" x="160" y="-67" font-family="Helvetica,sans-Serif" font-size="10.00">TinyXML2::XMLPrinter</text>
<text text-anchor="middle" x="210" y="-56" font-family="Helvetica,sans-Serif" font-size="10.00">::PrintString</text>
</a>
</g>
</g>
<!-- Node1&#45;&gt;Node4 -->
<g id="edge3" class="edge"><title>Node1&#45;&gt;Node4</title>
<path fill="none" stroke="midnightblue" d="M116.136,-64C124.377,-64 132.923,-64 141.344,-64"/>
<polygon fill="midnightblue" stroke="midnightblue" points="141.526,-67.5001 151.525,-64 141.525,-60.5001 141.526,-67.5001"/>
</g>
<!-- Node5 -->
<g id="node5" class="node"><title>Node5</title>
<g id="a_node5"><a xlink:href="classTinyXML2_1_1XMLPrinter.xhtml#a4eb457bcdc4e24dbc7fdbdb22e3e00cc" target="_top" xlink:title="TinyXML2::XMLPrinter\l::SealElement">
<polygon fill="none" stroke="black" points="152,-0 152,-30 268,-30 268,-0 152,-0"/>
<text text-anchor="start" x="160" y="-18" font-family="Helvetica,sans-Serif" font-size="10.00">TinyXML2::XMLPrinter</text>
<text text-anchor="middle" x="210" y="-7" font-family="Helvetica,sans-Serif" font-size="10.00">::SealElement</text>
</a>
</g>
</g>
<!-- Node1&#45;&gt;Node5 -->
<g id="edge5" class="edge"><title>Node1&#45;&gt;Node5</title>
<path fill="none" stroke="midnightblue" d="M105.229,-48.8986C120.413,-43.9385 137.451,-38.3726 153.264,-33.2071"/>
<polygon fill="midnightblue" stroke="midnightblue" points="154.505,-36.4838 162.924,-30.0516 152.331,-29.8298 154.505,-36.4838"/>
</g>
<!-- Node3 -->
<g id="node3" class="node"><title>Node3</title>
<g id="a_node3"><a xlink:href="classTinyXML2_1_1DynArray.xhtml#aa57d94f1bc348e58f6f1381187807ffa" target="_top" xlink:title="TinyXML2::DynArray\l::PushArr">
<polygon fill="none" stroke="black" points="456,-49 456,-79 564,-79 564,-49 456,-49"/>
<text text-anchor="start" x="464" y="-67" font-family="Helvetica,sans-Serif" font-size="10.00">TinyXML2::DynArray</text>
<text text-anchor="middle" x="510" y="-56" font-family="Helvetica,sans-Serif" font-size="10.00">::PushArr</text>
</a>
</g>
</g>
<!-- Node2&#45;&gt;Node3 -->
<g id="edge2" class="edge"><title>Node2&#45;&gt;Node3</title>
<path fill="none" stroke="midnightblue" d="M420.284,-64C428.576,-64 437.152,-64 445.557,-64"/>
<polygon fill="midnightblue" stroke="midnightblue" points="445.692,-67.5001 455.692,-64 445.692,-60.5001 445.692,-67.5001"/>
</g>
<!-- Node4&#45;&gt;Node2 -->
<g id="edge4" class="edge"><title>Node4&#45;&gt;Node2</title>
<path fill="none" stroke="midnightblue" d="M268.136,-64C276.377,-64 284.923,-64 293.344,-64"/>
<polygon fill="midnightblue" stroke="midnightblue" points="293.526,-67.5001 303.525,-64 293.525,-60.5001 293.526,-67.5001"/>
</g>
<!-- Node5&#45;&gt;Node2 -->
<g id="edge6" class="edge"><title>Node5&#45;&gt;Node2</title>
<path fill="none" stroke="midnightblue" d="M257.229,-30.1014C272.413,-35.0615 289.451,-40.6274 305.264,-45.7929"/>
<polygon fill="midnightblue" stroke="midnightblue" points="304.331,-49.1702 314.924,-48.9484 306.505,-42.5162 304.331,-49.1702"/>
</g>
</g>
</svg>
