<?xml version="1.0" encoding="UTF-8" standalone="no"?>
<!DOCTYPE svg PUBLIC "-//W3C//DTD SVG 1.1//EN"
 "http://www.w3.org/Graphics/SVG/1.1/DTD/svg11.dtd">
<!-- Generated by graphviz version 2.36.0 (20140111.2315)
 -->
<!-- Title: ELFIO::dump::notes Pages: 1 -->
<svg width="454pt" height="189pt"
 viewBox="0.00 0.00 454.00 189.00" xmlns="http://www.w3.org/2000/svg" xmlns:xlink="http://www.w3.org/1999/xlink">
<g id="graph0" class="graph" transform="scale(1 1) rotate(0) translate(4 185)">
<title>ELFIO::dump::notes</title>
<!-- Node1 -->
<g id="node1" class="node"><title>Node1</title>
<polygon fill="#bfbfbf" stroke="black" points="0.5,-71.5 0.5,-90.5 105.5,-90.5 105.5,-71.5 0.5,-71.5"/>
<text text-anchor="middle" x="53" y="-78.5" font-family="Helvetica,sans-Serif" font-size="10.00">ELFIO::dump::notes</text>
</g>
<!-- Node2 -->
<g id="node2" class="node"><title>Node2</title>
<g id="a_node2"><a xlink:href="classELFIO_1_1note__section__accessor.xhtml#afd087fe8678e7b7f05bcc69be2ed88f0" target="_top" xlink:title="ELFIO::note_section\l_accessor::get_note">
<polygon fill="none" stroke="black" points="155.5,-137 155.5,-167 262.5,-167 262.5,-137 155.5,-137"/>
<text text-anchor="start" x="163.5" y="-155" font-family="Helvetica,sans-Serif" font-size="10.00">ELFIO::note_section</text>
<text text-anchor="middle" x="209" y="-144" font-family="Helvetica,sans-Serif" font-size="10.00">_accessor::get_note</text>
</a>
</g>
</g>
<!-- Node1&#45;&gt;Node2 -->
<g id="edge1" class="edge"><title>Node1&#45;&gt;Node2</title>
<path fill="none" stroke="midnightblue" d="M70.9002,-90.6073C88.4006,-100.371 116.678,-115.635 142,-127 146.632,-129.079 151.494,-131.14 156.39,-133.134"/>
<polygon fill="midnightblue" stroke="midnightblue" points="155.209,-136.431 165.795,-136.875 157.796,-129.927 155.209,-136.431"/>
</g>
<!-- Node5 -->
<g id="node5" class="node"><title>Node5</title>
<g id="a_node5"><a xlink:href="classELFIO_1_1note__section__accessor.xhtml#ac96de265ea12f801797638f17092db76" target="_top" xlink:title="ELFIO::note_section\l_accessor::get_notes_num">
<polygon fill="none" stroke="black" points="142,-88 142,-118 276,-118 276,-88 142,-88"/>
<text text-anchor="start" x="150" y="-106" font-family="Helvetica,sans-Serif" font-size="10.00">ELFIO::note_section</text>
<text text-anchor="middle" x="209" y="-95" font-family="Helvetica,sans-Serif" font-size="10.00">_accessor::get_notes_num</text>
</a>
</g>
</g>
<!-- Node1&#45;&gt;Node5 -->
<g id="edge4" class="edge"><title>Node1&#45;&gt;Node5</title>
<path fill="none" stroke="midnightblue" d="M105.708,-88.3869C114.152,-89.5931 123.052,-90.8646 131.936,-92.1337"/>
<polygon fill="midnightblue" stroke="midnightblue" points="131.539,-95.6125 141.934,-93.5619 132.529,-88.6828 131.539,-95.6125"/>
</g>
<!-- Node6 -->
<g id="node6" class="node"><title>Node6</title>
<g id="a_node6"><a xlink:href="classELFIO_1_1dump.xhtml#a056b95608d0bf7b982c5601713e7ad52" target="_top" xlink:title="ELFIO::dump::note">
<polygon fill="none" stroke="black" points="159,-49.5 159,-68.5 259,-68.5 259,-49.5 159,-49.5"/>
<text text-anchor="middle" x="209" y="-56.5" font-family="Helvetica,sans-Serif" font-size="10.00">ELFIO::dump::note</text>
</a>
</g>
</g>
<!-- Node1&#45;&gt;Node6 -->
<g id="edge5" class="edge"><title>Node1&#45;&gt;Node6</title>
<path fill="none" stroke="midnightblue" d="M105.708,-73.6131C119.49,-71.6443 134.487,-69.5018 148.644,-67.4795"/>
<polygon fill="midnightblue" stroke="midnightblue" points="149.369,-70.9114 158.774,-66.0323 148.379,-63.9818 149.369,-70.9114"/>
</g>
<!-- Node7 -->
<g id="node7" class="node"><title>Node7</title>
<g id="a_node7"><a xlink:href="classELFIO_1_1elfio_1_1Sections.xhtml#a5c66bdb3ab662752c4968d8cd1a1a490" target="_top" xlink:title="ELFIO::elfio::Sections\l::size">
<polygon fill="none" stroke="black" points="152.5,-0 152.5,-30 265.5,-30 265.5,-0 152.5,-0"/>
<text text-anchor="start" x="160.5" y="-18" font-family="Helvetica,sans-Serif" font-size="10.00">ELFIO::elfio::Sections</text>
<text text-anchor="middle" x="209" y="-7" font-family="Helvetica,sans-Serif" font-size="10.00">::size</text>
</a>
</g>
</g>
<!-- Node1&#45;&gt;Node7 -->
<g id="edge6" class="edge"><title>Node1&#45;&gt;Node7</title>
<path fill="none" stroke="midnightblue" d="M73.3876,-71.4632C91.0961,-62.8734 118.083,-50.085 142,-40 147.01,-37.8874 152.266,-35.7561 157.533,-33.6759"/>
<polygon fill="midnightblue" stroke="midnightblue" points="158.923,-36.8907 166.973,-30.0021 156.384,-30.3673 158.923,-36.8907"/>
</g>
<!-- Node3 -->
<g id="node3" class="node"><title>Node3</title>
<g id="a_node3"><a xlink:href="classELFIO_1_1section.xhtml#accfaef20485ee803990b260130022bd2" target="_top" xlink:title="ELFIO::section::get_data">
<polygon fill="none" stroke="black" points="316,-161.5 316,-180.5 442,-180.5 442,-161.5 316,-161.5"/>
<text text-anchor="middle" x="379" y="-168.5" font-family="Helvetica,sans-Serif" font-size="10.00">ELFIO::section::get_data</text>
</a>
</g>
</g>
<!-- Node2&#45;&gt;Node3 -->
<g id="edge2" class="edge"><title>Node2&#45;&gt;Node3</title>
<path fill="none" stroke="midnightblue" d="M262.695,-157.96C276.246,-159.492 291.065,-161.168 305.43,-162.793"/>
<polygon fill="midnightblue" stroke="midnightblue" points="305.455,-166.318 315.785,-163.964 306.242,-159.362 305.455,-166.318"/>
</g>
<!-- Node4 -->
<g id="node4" class="node"><title>Node4</title>
<g id="a_node4"><a xlink:href="classELFIO_1_1elfio.xhtml#af8a6706052d3029c76e5332eba10ad77" target="_top" xlink:title="ELFIO::elfio::get_convertor">
<polygon fill="none" stroke="black" points="312,-123.5 312,-142.5 446,-142.5 446,-123.5 312,-123.5"/>
<text text-anchor="middle" x="379" y="-130.5" font-family="Helvetica,sans-Serif" font-size="10.00">ELFIO::elfio::get_convertor</text>
</a>
</g>
</g>
<!-- Node2&#45;&gt;Node4 -->
<g id="edge3" class="edge"><title>Node2&#45;&gt;Node4</title>
<path fill="none" stroke="midnightblue" d="M262.695,-146.04C275.118,-144.635 288.606,-143.11 301.833,-141.614"/>
<polygon fill="midnightblue" stroke="midnightblue" points="302.332,-145.08 311.875,-140.478 301.545,-138.124 302.332,-145.08"/>
</g>
</g>
</svg>
