<?xml version="1.0" encoding="UTF-8" standalone="no"?>
<!DOCTYPE svg PUBLIC "-//W3C//DTD SVG 1.1//EN"
 "http://www.w3.org/Graphics/SVG/1.1/DTD/svg11.dtd">
<!-- Generated by graphviz version 2.36.0 (20140111.2315)
 -->
<!-- Title: Voxel::TI::ToFCamera::_initStartParams Pages: 1 -->
<!--zoomable 822 -->
<svg id="main" version="1.1" xmlns="http://www.w3.org/2000/svg" xmlns:xlink="http://www.w3.org/1999/xlink" xml:space="preserve" onload="init(evt)">
<style type="text/css"><![CDATA[
.edge:hover path { stroke: red; }
.edge:hover polygon { stroke: red; fill: red; }
]]></style>
<script type="text/javascript"><![CDATA[
var edges = document.getElementsByTagName('g');
if (edges && edges.length) {
  for (var i=0;i<edges.length;i++) {
    if (edges[i].id.substr(0,4)=='edge') {
      edges[i].setAttribute('class','edge');
    }
  }
}
]]></script>
        <defs>
                <circle id="rim" cx="0" cy="0" r="7"/>
                <circle id="rim2" cx="0" cy="0" r="3.5"/>
                <g id="zoomPlus">
                        <use xlink:href="#rim" fill="#404040">
                                <set attributeName="fill" to="#808080" begin="zoomplus.mouseover" end="zoomplus.mouseout"/>
                        </use>
                        <path d="M-4,0h8M0,-4v8" fill="none" stroke="white" stroke-width="1.5" pointer-events="none"/>
                </g>
                <g id="zoomMin">
                        <use xlink:href="#rim" fill="#404040">
                                <set attributeName="fill" to="#808080" begin="zoomminus.mouseover" end="zoomminus.mouseout"/>
                        </use>
                        <path d="M-4,0h8" fill="none" stroke="white" stroke-width="1.5" pointer-events="none"/>
                </g>
                <g id="dirArrow">
                        <path fill="none" stroke="white" stroke-width="1.5" d="M0,-3.0v7 M-2.5,-0.5L0,-3.0L2.5,-0.5"/>
                </g>
               <g id="resetDef">
                       <use xlink:href="#rim2" fill="#404040">
                               <set attributeName="fill" to="#808080" begin="reset.mouseover" end="reset.mouseout"/>
                       </use>
               </g>
        </defs>

<script type="text/javascript">
var viewWidth = 1198;
var viewHeight = 822;
var sectionId = 'dynsection-22';
</script>
<script xlink:href="svgpan.js"/>
<svg id="graph" class="graph">
<g id="viewport">
<title>Voxel::TI::ToFCamera::_initStartParams</title>
<!-- Node1 -->
<g id="node1" class="node"><title>Node1</title>
<polygon fill="#bfbfbf" stroke="black" points="0,-392 0,-422 114,-422 114,-392 0,-392"/>
<text text-anchor="start" x="8" y="-410" font-family="Helvetica,sans-Serif" font-size="10.00">Voxel::TI::ToFCamera</text>
<text text-anchor="middle" x="57" y="-399" font-family="Helvetica,sans-Serif" font-size="10.00">::_initStartParams</text>
</g>
<!-- Node2 -->
<g id="node2" class="node"><title>Node2</title>
<g id="a_node2"><a xlink:href="classVoxel_1_1TI_1_1ToFCamera.xhtml#a5ce6e98d8496efd0b62d926e73809034" target="_top" xlink:title="Voxel::TI::ToFCamera\l::_applyCalibrationParams">
<polygon fill="none" stroke="black" points="153.5,-784 153.5,-814 284.5,-814 284.5,-784 153.5,-784"/>
<text text-anchor="start" x="161.5" y="-802" font-family="Helvetica,sans-Serif" font-size="10.00">Voxel::TI::ToFCamera</text>
<text text-anchor="middle" x="219" y="-791" font-family="Helvetica,sans-Serif" font-size="10.00">::_applyCalibrationParams</text>
</a>
</g>
</g>
<!-- Node1&#45;&gt;Node2 -->
<g id="edge1" class="edge"><title>Node1&#45;&gt;Node2</title>
<path fill="none" stroke="midnightblue" d="M59.913,-422.251C68.0201,-484.668 101.375,-719.89 150,-774 151.185,-775.319 152.445,-776.568 153.77,-777.751"/>
<polygon fill="midnightblue" stroke="midnightblue" points="151.852,-780.686 161.968,-783.835 156.023,-775.065 151.852,-780.686"/>
</g>
<!-- Node3 -->
<g id="node3" class="node"><title>Node3</title>
<g id="a_node3"><a xlink:href="classVoxel_1_1TI_1_1ToFCamera.xhtml#abb0e21a487e4d2ae08031d0078b0578d" target="_top" xlink:title="Voxel::TI::ToFCamera\l::_getBinning">
<polygon fill="none" stroke="black" points="162,-735 162,-765 276,-765 276,-735 162,-735"/>
<text text-anchor="start" x="170" y="-753" font-family="Helvetica,sans-Serif" font-size="10.00">Voxel::TI::ToFCamera</text>
<text text-anchor="middle" x="219" y="-742" font-family="Helvetica,sans-Serif" font-size="10.00">::_getBinning</text>
</a>
</g>
</g>
<!-- Node1&#45;&gt;Node3 -->
<g id="edge2" class="edge"><title>Node1&#45;&gt;Node3</title>
<path fill="none" stroke="midnightblue" d="M57.844,-422.25C58.1644,-472.501 65.964,-634.803 150,-725 151.238,-726.329 152.552,-727.587 153.931,-728.779"/>
<polygon fill="midnightblue" stroke="midnightblue" points="152.278,-731.901 162.44,-734.901 156.367,-726.219 152.278,-731.901"/>
</g>
<!-- Node4 -->
<g id="node4" class="node"><title>Node4</title>
<g id="a_node4"><a xlink:href="classVoxel_1_1TI_1_1ToFCamera.xhtml#acf6c3a732c5a47f38f2d461d76709091" target="_top" xlink:title="Voxel::TI::ToFCamera\l::_getBytesPerPixel">
<polygon fill="none" stroke="black" points="162,-637 162,-667 276,-667 276,-637 162,-637"/>
<text text-anchor="start" x="170" y="-655" font-family="Helvetica,sans-Serif" font-size="10.00">Voxel::TI::ToFCamera</text>
<text text-anchor="middle" x="219" y="-644" font-family="Helvetica,sans-Serif" font-size="10.00">::_getBytesPerPixel</text>
</a>
</g>
</g>
<!-- Node1&#45;&gt;Node4 -->
<g id="edge3" class="edge"><title>Node1&#45;&gt;Node4</title>
<path fill="none" stroke="midnightblue" d="M60.107,-422.15C66.3617,-461.51 88.3904,-568.03 150,-627 151.624,-628.555 153.353,-630.014 155.164,-631.384"/>
<polygon fill="midnightblue" stroke="midnightblue" points="153.268,-634.326 163.561,-636.835 157.079,-628.454 153.268,-634.326"/>
</g>
<!-- Node8 -->
<g id="node8" class="node"><title>Node8</title>
<g id="a_node8"><a xlink:href="classVoxel_1_1TI_1_1ToFCamera.xhtml#a89f0b37afd1c32c500cdd7496e46cf50" target="_top" xlink:title="Voxel::TI::ToFCamera\l::_getDealiasedPhaseMask">
<polygon fill="none" stroke="black" points="150.5,-588 150.5,-618 287.5,-618 287.5,-588 150.5,-588"/>
<text text-anchor="start" x="158.5" y="-606" font-family="Helvetica,sans-Serif" font-size="10.00">Voxel::TI::ToFCamera</text>
<text text-anchor="middle" x="219" y="-595" font-family="Helvetica,sans-Serif" font-size="10.00">::_getDealiasedPhaseMask</text>
</a>
</g>
</g>
<!-- Node1&#45;&gt;Node8 -->
<g id="edge7" class="edge"><title>Node1&#45;&gt;Node8</title>
<path fill="none" stroke="midnightblue" d="M62.1163,-422.118C71.8453,-455.09 99.3333,-534.03 150,-578 151.953,-579.695 154.032,-581.279 156.202,-582.759"/>
<polygon fill="midnightblue" stroke="midnightblue" points="154.578,-585.865 164.962,-587.966 158.154,-579.848 154.578,-585.865"/>
</g>
<!-- Node9 -->
<g id="node9" class="node"><title>Node9</title>
<g id="a_node9"><a xlink:href="classVoxel_1_1TI_1_1ToFCamera.xhtml#a8722e9125739af3cd8c9291b7b6f126a" target="_top" xlink:title="Voxel::TI::ToFCamera\l::_getOpDataArrangeMode">
<polygon fill="none" stroke="black" points="152.5,-539 152.5,-569 285.5,-569 285.5,-539 152.5,-539"/>
<text text-anchor="start" x="160.5" y="-557" font-family="Helvetica,sans-Serif" font-size="10.00">Voxel::TI::ToFCamera</text>
<text text-anchor="middle" x="219" y="-546" font-family="Helvetica,sans-Serif" font-size="10.00">::_getOpDataArrangeMode</text>
</a>
</g>
</g>
<!-- Node1&#45;&gt;Node9 -->
<g id="edge8" class="edge"><title>Node1&#45;&gt;Node9</title>
<path fill="none" stroke="midnightblue" d="M65.7662,-422.368C79.4371,-447.965 110.166,-499.435 150,-529 152.495,-530.852 155.142,-532.579 157.888,-534.189"/>
<polygon fill="midnightblue" stroke="midnightblue" points="156.45,-537.387 166.93,-538.936 159.703,-531.189 156.45,-537.387"/>
</g>
<!-- Node10 -->
<g id="node10" class="node"><title>Node10</title>
<g id="a_node10"><a xlink:href="classVoxel_1_1TI_1_1ToFCamera.xhtml#a53e0fb4c6f4d4b9ac37b6f1ca763a104" target="_top" xlink:title="Voxel::TI::ToFCamera\l::_getToFFrameType">
<polygon fill="none" stroke="black" points="162,-686 162,-716 276,-716 276,-686 162,-686"/>
<text text-anchor="start" x="170" y="-704" font-family="Helvetica,sans-Serif" font-size="10.00">Voxel::TI::ToFCamera</text>
<text text-anchor="middle" x="219" y="-693" font-family="Helvetica,sans-Serif" font-size="10.00">::_getToFFrameType</text>
</a>
</g>
</g>
<!-- Node1&#45;&gt;Node10 -->
<g id="edge9" class="edge"><title>Node1&#45;&gt;Node10</title>
<path fill="none" stroke="midnightblue" d="M58.7806,-422.11C61.9082,-467.076 77.2025,-601.526 150,-676 151.418,-677.45 152.927,-678.817 154.51,-680.105"/>
<polygon fill="midnightblue" stroke="midnightblue" points="152.738,-683.135 162.963,-685.912 156.702,-677.365 152.738,-683.135"/>
</g>
<!-- Node11 -->
<g id="node11" class="node"><title>Node11</title>
<g id="a_node11"><a xlink:href="classVoxel_1_1TI_1_1ToFCameraBase.xhtml#aceb0704d27455da6268e3d5b4a92c411" target="_top" xlink:title="Voxel::TI::ToFCameraBase\l::_initStartParams">
<polygon fill="none" stroke="black" points="150.5,-490 150.5,-520 287.5,-520 287.5,-490 150.5,-490"/>
<text text-anchor="start" x="158.5" y="-508" font-family="Helvetica,sans-Serif" font-size="10.00">Voxel::TI::ToFCameraBase</text>
<text text-anchor="middle" x="219" y="-497" font-family="Helvetica,sans-Serif" font-size="10.00">::_initStartParams</text>
</a>
</g>
</g>
<!-- Node1&#45;&gt;Node11 -->
<g id="edge11" class="edge"><title>Node1&#45;&gt;Node11</title>
<path fill="none" stroke="midnightblue" d="M73.8079,-422.166C91.2855,-438.276 120.841,-463.631 150,-480 153.702,-482.078 157.609,-484.043 161.604,-485.888"/>
<polygon fill="midnightblue" stroke="midnightblue" points="160.461,-489.207 171.028,-489.973 163.245,-482.784 160.461,-489.207"/>
</g>
<!-- Node14 -->
<g id="node14" class="node"><title>Node14</title>
<g id="a_node14"><a xlink:href="classVoxel_1_1TI_1_1ToFCamera.xhtml#af3a59471799f2526c520511f688d247c" target="_top" xlink:title="Voxel::TI::ToFCamera\l::_is16BitModeEnabled">
<polygon fill="none" stroke="black" points="160.5,-441 160.5,-471 277.5,-471 277.5,-441 160.5,-441"/>
<text text-anchor="start" x="168.5" y="-459" font-family="Helvetica,sans-Serif" font-size="10.00">Voxel::TI::ToFCamera</text>
<text text-anchor="middle" x="219" y="-448" font-family="Helvetica,sans-Serif" font-size="10.00">::_is16BitModeEnabled</text>
</a>
</g>
</g>
<!-- Node1&#45;&gt;Node14 -->
<g id="edge14" class="edge"><title>Node1&#45;&gt;Node14</title>
<path fill="none" stroke="midnightblue" d="M107.311,-422.101C123.66,-427.108 142.024,-432.732 159.025,-437.939"/>
<polygon fill="midnightblue" stroke="midnightblue" points="158.265,-441.367 168.852,-440.948 160.315,-434.674 158.265,-441.367"/>
</g>
<!-- Node15 -->
<g id="node15" class="node"><title>Node15</title>
<g id="a_node15"><a xlink:href="classVoxel_1_1TI_1_1ToFCamera.xhtml#a3c35074af2f6b686cea15db188b9c53f" target="_top" xlink:title="Voxel::TI::ToFCamera\l::_isHistogramEnabled">
<polygon fill="none" stroke="black" points="161,-392 161,-422 277,-422 277,-392 161,-392"/>
<text text-anchor="start" x="169" y="-410" font-family="Helvetica,sans-Serif" font-size="10.00">Voxel::TI::ToFCamera</text>
<text text-anchor="middle" x="219" y="-399" font-family="Helvetica,sans-Serif" font-size="10.00">::_isHistogramEnabled</text>
</a>
</g>
</g>
<!-- Node1&#45;&gt;Node15 -->
<g id="edge15" class="edge"><title>Node1&#45;&gt;Node15</title>
<path fill="none" stroke="midnightblue" d="M114.41,-407C126.148,-407 138.631,-407 150.716,-407"/>
<polygon fill="midnightblue" stroke="midnightblue" points="150.749,-410.5 160.749,-407 150.749,-403.5 150.749,-410.5"/>
</g>
<!-- Node16 -->
<g id="node16" class="node"><title>Node16</title>
<g id="a_node16"><a xlink:href="classVoxel_1_1MainConfigurationFile.xhtml#a0450eaddb1180226c1a3e898e978aba4" target="_top" xlink:title="Voxel::MainConfiguration\lFile::get">
<polygon fill="none" stroke="black" points="156,-343 156,-373 282,-373 282,-343 156,-343"/>
<text text-anchor="start" x="164" y="-361" font-family="Helvetica,sans-Serif" font-size="10.00">Voxel::MainConfiguration</text>
<text text-anchor="middle" x="219" y="-350" font-family="Helvetica,sans-Serif" font-size="10.00">File::get</text>
</a>
</g>
</g>
<!-- Node1&#45;&gt;Node16 -->
<g id="edge16" class="edge"><title>Node1&#45;&gt;Node16</title>
<path fill="none" stroke="midnightblue" d="M107.311,-391.899C123.66,-386.892 142.024,-381.268 159.025,-376.061"/>
<polygon fill="midnightblue" stroke="midnightblue" points="160.315,-379.326 168.852,-373.052 158.265,-372.633 160.315,-379.326"/>
</g>
<!-- Node26 -->
<g id="node26" class="node"><title>Node26</title>
<g id="a_node26"><a xlink:href="classVoxel_1_1MainConfigurationFile.xhtml#a700e33f6f37c59f24bdea5db5a037898" target="_top" xlink:title="Voxel::MainConfiguration\lFile::getFile">
<polygon fill="none" stroke="black" points="156,-245 156,-275 282,-275 282,-245 156,-245"/>
<text text-anchor="start" x="164" y="-263" font-family="Helvetica,sans-Serif" font-size="10.00">Voxel::MainConfiguration</text>
<text text-anchor="middle" x="219" y="-252" font-family="Helvetica,sans-Serif" font-size="10.00">File::getFile</text>
</a>
</g>
</g>
<!-- Node1&#45;&gt;Node26 -->
<g id="edge28" class="edge"><title>Node1&#45;&gt;Node26</title>
<path fill="none" stroke="midnightblue" d="M65.4753,-391.861C78.9254,-366.11 109.608,-313.695 150,-284 151.885,-282.614 153.857,-281.303 155.894,-280.062"/>
<polygon fill="midnightblue" stroke="midnightblue" points="158.021,-282.892 165.164,-275.068 154.701,-276.73 158.021,-282.892"/>
</g>
<!-- Node30 -->
<g id="node30" class="node"><title>Node30</title>
<g id="a_node30"><a xlink:href="classVoxel_1_1ConfigurationFile.xhtml#a3145251f8115c7ada128556345a41c62" target="_top" xlink:title="Voxel::ConfigurationFile\l::getFloat">
<polygon fill="none" stroke="black" points="158.5,-196 158.5,-226 279.5,-226 279.5,-196 158.5,-196"/>
<text text-anchor="start" x="166.5" y="-214" font-family="Helvetica,sans-Serif" font-size="10.00">Voxel::ConfigurationFile</text>
<text text-anchor="middle" x="219" y="-203" font-family="Helvetica,sans-Serif" font-size="10.00">::getFloat</text>
</a>
</g>
</g>
<!-- Node1&#45;&gt;Node30 -->
<g id="edge32" class="edge"><title>Node1&#45;&gt;Node30</title>
<path fill="none" stroke="midnightblue" d="M61.9755,-391.995C71.5024,-358.883 98.7418,-279.01 150,-235 151.496,-233.716 153.065,-232.498 154.693,-231.345"/>
<polygon fill="midnightblue" stroke="midnightblue" points="156.56,-234.306 163.254,-226.093 152.9,-228.339 156.56,-234.306"/>
</g>
<!-- Node31 -->
<g id="node31" class="node"><title>Node31</title>
<g id="a_node31"><a xlink:href="classVoxel_1_1DepthCamera.xhtml#a52d1041f172901ff9206b1b409d4711d" target="_top" xlink:title="Voxel::DepthCamera\l::getFrameSize">
<polygon fill="none" stroke="black" points="165,-147 165,-177 273,-177 273,-147 165,-147"/>
<text text-anchor="start" x="173" y="-165" font-family="Helvetica,sans-Serif" font-size="10.00">Voxel::DepthCamera</text>
<text text-anchor="middle" x="219" y="-154" font-family="Helvetica,sans-Serif" font-size="10.00">::getFrameSize</text>
</a>
</g>
</g>
<!-- Node1&#45;&gt;Node31 -->
<g id="edge33" class="edge"><title>Node1&#45;&gt;Node31</title>
<path fill="none" stroke="midnightblue" d="M60.0412,-391.736C66.1371,-352.089 87.8154,-244.845 150,-186 151.91,-184.193 153.963,-182.521 156.125,-180.974"/>
<polygon fill="midnightblue" stroke="midnightblue" points="158.208,-183.803 164.92,-175.605 154.561,-177.828 158.208,-183.803"/>
</g>
<!-- Node33 -->
<g id="node33" class="node"><title>Node33</title>
<g id="a_node33"><a xlink:href="classVoxel_1_1ConfigurationFile.xhtml#aeefbdefcac8743d6f08c25109480da2f" target="_top" xlink:title="Voxel::ConfigurationFile\l::getInteger">
<polygon fill="none" stroke="black" points="158.5,-98 158.5,-128 279.5,-128 279.5,-98 158.5,-98"/>
<text text-anchor="start" x="166.5" y="-116" font-family="Helvetica,sans-Serif" font-size="10.00">Voxel::ConfigurationFile</text>
<text text-anchor="middle" x="219" y="-105" font-family="Helvetica,sans-Serif" font-size="10.00">::getInteger</text>
</a>
</g>
</g>
<!-- Node1&#45;&gt;Node33 -->
<g id="edge35" class="edge"><title>Node1&#45;&gt;Node33</title>
<path fill="none" stroke="midnightblue" d="M58.7171,-391.791C61.6674,-346.537 76.5176,-211.287 150,-137 151.073,-135.915 152.198,-134.879 153.367,-133.89"/>
<polygon fill="midnightblue" stroke="midnightblue" points="155.52,-136.654 161.655,-128.016 151.473,-130.943 155.52,-136.654"/>
</g>
<!-- Node34 -->
<g id="node34" class="node"><title>Node34</title>
<g id="a_node34"><a xlink:href="classVoxel_1_1DepthCamera.xhtml#aa229ee837c73aa2c78a8bd7a26fa0955" target="_top" xlink:title="Voxel::DepthCamera\l::getMaximumFrameSize">
<polygon fill="none" stroke="black" points="156,-49 156,-79 282,-79 282,-49 156,-49"/>
<text text-anchor="start" x="164" y="-67" font-family="Helvetica,sans-Serif" font-size="10.00">Voxel::DepthCamera</text>
<text text-anchor="middle" x="219" y="-56" font-family="Helvetica,sans-Serif" font-size="10.00">::getMaximumFrameSize</text>
</a>
</g>
</g>
<!-- Node1&#45;&gt;Node34 -->
<g id="edge36" class="edge"><title>Node1&#45;&gt;Node34</title>
<path fill="none" stroke="midnightblue" d="M57.7815,-391.66C57.9072,-341.119 65.1708,-177.944 150,-88 150.918,-87.0266 151.878,-86.0927 152.875,-85.1966"/>
<polygon fill="midnightblue" stroke="midnightblue" points="155.215,-87.8176 161.151,-79.0415 151.038,-82.2006 155.215,-87.8176"/>
</g>
<!-- Node36 -->
<g id="node36" class="node"><title>Node36</title>
<g id="a_node36"><a xlink:href="classVoxel_1_1DepthCamera.xhtml#ab2be6abc24dd344f63e082c19273d833" target="_top" xlink:title="Voxel::DepthCamera\l::getROI">
<polygon fill="none" stroke="black" points="165,-0 165,-30 273,-30 273,-0 165,-0"/>
<text text-anchor="start" x="173" y="-18" font-family="Helvetica,sans-Serif" font-size="10.00">Voxel::DepthCamera</text>
<text text-anchor="middle" x="219" y="-7" font-family="Helvetica,sans-Serif" font-size="10.00">::getROI</text>
</a>
</g>
</g>
<!-- Node1&#45;&gt;Node36 -->
<g id="edge38" class="edge"><title>Node1&#45;&gt;Node36</title>
<path fill="none" stroke="midnightblue" d="M59.8879,-391.69C67.8963,-329.036 100.916,-92.9463 150,-39 151.975,-36.8297 154.158,-34.8556 156.495,-33.0601"/>
<polygon fill="midnightblue" stroke="midnightblue" points="158.437,-35.9721 164.952,-27.617 154.649,-30.0857 158.437,-35.9721"/>
</g>
<!-- Node38 -->
<g id="node38" class="node"><title>Node38</title>
<g id="a_node38"><a xlink:href="classVoxel_1_1MainConfigurationFile.xhtml#a0d061a6b01c29c40af3288f4783c3c07" target="_top" xlink:title="Voxel::MainConfiguration\lFile::isPresent">
<polygon fill="none" stroke="black" points="156,-294 156,-324 282,-324 282,-294 156,-294"/>
<text text-anchor="start" x="164" y="-312" font-family="Helvetica,sans-Serif" font-size="10.00">Voxel::MainConfiguration</text>
<text text-anchor="middle" x="219" y="-301" font-family="Helvetica,sans-Serif" font-size="10.00">File::isPresent</text>
</a>
</g>
</g>
<!-- Node1&#45;&gt;Node38 -->
<g id="edge40" class="edge"><title>Node1&#45;&gt;Node38</title>
<path fill="none" stroke="midnightblue" d="M73.4105,-391.836C90.7767,-375.444 120.455,-349.462 150,-333 153.045,-331.303 156.232,-329.692 159.494,-328.167"/>
<polygon fill="midnightblue" stroke="midnightblue" points="161.061,-331.303 168.831,-324.101 158.265,-324.885 161.061,-331.303"/>
</g>
<!-- Node5 -->
<g id="node5" class="node"><title>Node5</title>
<g id="a_node5"><a xlink:href="classVoxel_1_1DepthCamera.xhtml#ac850b3829f41e647686610c283197ea6" target="_top" xlink:title="Voxel::DepthCamera\l::_get">
<polygon fill="none" stroke="black" points="352,-661 352,-691 460,-691 460,-661 352,-661"/>
<text text-anchor="start" x="360" y="-679" font-family="Helvetica,sans-Serif" font-size="10.00">Voxel::DepthCamera</text>
<text text-anchor="middle" x="406" y="-668" font-family="Helvetica,sans-Serif" font-size="10.00">::_get</text>
</a>
</g>
</g>
<!-- Node4&#45;&gt;Node5 -->
<g id="edge4" class="edge"><title>Node4&#45;&gt;Node5</title>
<path fill="none" stroke="midnightblue" d="M276.008,-659.266C296.757,-661.958 320.423,-665.028 341.77,-667.797"/>
<polygon fill="midnightblue" stroke="midnightblue" points="341.35,-671.272 351.717,-669.088 342.251,-664.33 341.35,-671.272"/>
</g>
<!-- Node6 -->
<g id="node6" class="node"><title>Node6</title>
<g id="a_node6"><a xlink:href="classVoxel_1_1ParameterTemplate.xhtml#afa8896eaffbd2b87d1482c0967a0fe1d" target="_top" xlink:title="Voxel::ParameterTemplate::get">
<polygon fill="none" stroke="black" points="524,-644.5 524,-663.5 676,-663.5 676,-644.5 524,-644.5"/>
<text text-anchor="middle" x="600" y="-651.5" font-family="Helvetica,sans-Serif" font-size="10.00">Voxel::ParameterTemplate::get</text>
</a>
</g>
</g>
<!-- Node5&#45;&gt;Node6 -->
<g id="edge5" class="edge"><title>Node5&#45;&gt;Node6</title>
<path fill="none" stroke="midnightblue" d="M460.228,-669.901C476.802,-668.002 495.514,-665.858 513.707,-663.773"/>
<polygon fill="midnightblue" stroke="midnightblue" points="514.207,-667.239 523.743,-662.623 513.41,-660.284 514.207,-667.239"/>
</g>
<!-- Node7 -->
<g id="node7" class="node"><title>Node7</title>
<g id="a_node7"><a xlink:href="classVoxel_1_1DepthCamera.xhtml#ae3d6fcc6d4a20d1ad2de809ad65ecc34" target="_top" xlink:title="Voxel::DepthCamera\l::name">
<polygon fill="none" stroke="black" points="546,-683 546,-713 654,-713 654,-683 546,-683"/>
<text text-anchor="start" x="554" y="-701" font-family="Helvetica,sans-Serif" font-size="10.00">Voxel::DepthCamera</text>
<text text-anchor="middle" x="600" y="-690" font-family="Helvetica,sans-Serif" font-size="10.00">::name</text>
</a>
</g>
</g>
<!-- Node5&#45;&gt;Node7 -->
<g id="edge6" class="edge"><title>Node5&#45;&gt;Node7</title>
<path fill="none" stroke="midnightblue" d="M460.228,-682.099C483.533,-684.769 511.067,-687.924 535.439,-690.717"/>
<polygon fill="midnightblue" stroke="midnightblue" points="535.335,-694.228 545.669,-691.889 536.132,-687.273 535.335,-694.228"/>
</g>
<!-- Node10&#45;&gt;Node5 -->
<g id="edge10" class="edge"><title>Node10&#45;&gt;Node5</title>
<path fill="none" stroke="midnightblue" d="M276.008,-693.431C296.757,-690.627 320.423,-687.429 341.77,-684.545"/>
<polygon fill="midnightblue" stroke="midnightblue" points="342.276,-688.008 351.717,-683.2 341.339,-681.071 342.276,-688.008"/>
</g>
<!-- Node12 -->
<g id="node12" class="node"><title>Node12</title>
<g id="a_node12"><a xlink:href="classVoxel_1_1TI_1_1ToFCameraBase.xhtml#aff5c5aefff04e8514ab56adde5e25c28" target="_top" xlink:title="Voxel::TI::ToFCameraBase\l::_getAmplitudeNormalizingFactor">
<polygon fill="none" stroke="black" points="324,-465 324,-495 488,-495 488,-465 324,-465"/>
<text text-anchor="start" x="332" y="-483" font-family="Helvetica,sans-Serif" font-size="10.00">Voxel::TI::ToFCameraBase</text>
<text text-anchor="middle" x="406" y="-472" font-family="Helvetica,sans-Serif" font-size="10.00">::_getAmplitudeNormalizingFactor</text>
</a>
</g>
</g>
<!-- Node11&#45;&gt;Node12 -->
<g id="edge12" class="edge"><title>Node11&#45;&gt;Node12</title>
<path fill="none" stroke="midnightblue" d="M287.575,-495.868C296.124,-494.713 304.98,-493.516 313.821,-492.322"/>
<polygon fill="midnightblue" stroke="midnightblue" points="314.336,-495.784 323.777,-490.976 313.399,-488.847 314.336,-495.784"/>
</g>
<!-- Node13 -->
<g id="node13" class="node"><title>Node13</title>
<g id="a_node13"><a xlink:href="classVoxel_1_1TI_1_1ToFCameraBase.xhtml#a8e7ab32dbadf1d8c7fd4e7611e7e63c4" target="_top" xlink:title="Voxel::TI::ToFCameraBase\l::_getDepthScalingFactor">
<polygon fill="none" stroke="black" points="337.5,-514 337.5,-544 474.5,-544 474.5,-514 337.5,-514"/>
<text text-anchor="start" x="345.5" y="-532" font-family="Helvetica,sans-Serif" font-size="10.00">Voxel::TI::ToFCameraBase</text>
<text text-anchor="middle" x="406" y="-521" font-family="Helvetica,sans-Serif" font-size="10.00">::_getDepthScalingFactor</text>
</a>
</g>
</g>
<!-- Node11&#45;&gt;Node13 -->
<g id="edge13" class="edge"><title>Node11&#45;&gt;Node13</title>
<path fill="none" stroke="midnightblue" d="M287.575,-513.766C300.488,-515.442 314.102,-517.208 327.303,-518.92"/>
<polygon fill="midnightblue" stroke="midnightblue" points="326.932,-522.401 337.299,-520.217 327.832,-515.46 326.932,-522.401"/>
</g>
<!-- Node17 -->
<g id="node17" class="node"><title>Node17</title>
<g id="a_node17"><a xlink:href="classVoxel_1_1ConfigurationFile.xhtml#af5573f5dba76f1fde00220b892f8121c" target="_top" xlink:title="Voxel::ConfigurationFile\l::_get">
<polygon fill="none" stroke="black" points="345.5,-361 345.5,-391 466.5,-391 466.5,-361 345.5,-361"/>
<text text-anchor="start" x="353.5" y="-379" font-family="Helvetica,sans-Serif" font-size="10.00">Voxel::ConfigurationFile</text>
<text text-anchor="middle" x="406" y="-368" font-family="Helvetica,sans-Serif" font-size="10.00">::_get</text>
</a>
</g>
</g>
<!-- Node16&#45;&gt;Node17 -->
<g id="edge17" class="edge"><title>Node16&#45;&gt;Node17</title>
<path fill="none" stroke="midnightblue" d="M282.117,-364.044C299.14,-365.7 317.708,-367.507 335.133,-369.202"/>
<polygon fill="midnightblue" stroke="midnightblue" points="334.949,-372.701 345.241,-370.186 335.627,-365.734 334.949,-372.701"/>
</g>
<!-- Node17&#45;&gt;Node17 -->
<g id="edge19" class="edge"><title>Node17&#45;&gt;Node17</title>
<path fill="none" stroke="midnightblue" d="M373.305,-391.275C366.039,-400.406 376.938,-409 406,-409 423.256,-409 434.108,-405.97 438.557,-401.598"/>
<polygon fill="midnightblue" stroke="midnightblue" points="442.061,-401.321 438.695,-391.275 435.062,-401.228 442.061,-401.321"/>
</g>
<!-- Node18 -->
<g id="node18" class="node"><title>Node18</title>
<g id="a_node18"><a xlink:href="classVoxel_1_1ConfigSet.xhtml#a49e4060aa2bc96690da36bdf5ef7b227" target="_top" xlink:title="Voxel::ConfigSet::_get">
<polygon fill="none" stroke="black" points="542,-404.5 542,-423.5 658,-423.5 658,-404.5 542,-404.5"/>
<text text-anchor="middle" x="600" y="-411.5" font-family="Helvetica,sans-Serif" font-size="10.00">Voxel::ConfigSet::_get</text>
</a>
</g>
</g>
<!-- Node17&#45;&gt;Node18 -->
<g id="edge18" class="edge"><title>Node17&#45;&gt;Node18</title>
<path fill="none" stroke="midnightblue" d="M466.698,-387.815C490.393,-392.505 517.548,-397.879 541.067,-402.534"/>
<polygon fill="midnightblue" stroke="midnightblue" points="540.413,-405.973 550.903,-404.481 541.772,-399.106 540.413,-405.973"/>
</g>
<!-- Node19 -->
<g id="node19" class="node"><title>Node19</title>
<g id="a_node19"><a xlink:href="classVoxel_1_1MainConfigurationFile.xhtml#ab24aaf7b18fea74c6f235da04fadbed0" target="_top" xlink:title="Voxel::MainConfiguration\lFile::getCameraProfile">
<polygon fill="none" stroke="black" points="537,-317 537,-347 663,-347 663,-317 537,-317"/>
<text text-anchor="start" x="545" y="-335" font-family="Helvetica,sans-Serif" font-size="10.00">Voxel::MainConfiguration</text>
<text text-anchor="middle" x="600" y="-324" font-family="Helvetica,sans-Serif" font-size="10.00">File::getCameraProfile</text>
</a>
</g>
</g>
<!-- Node17&#45;&gt;Node19 -->
<g id="edge20" class="edge"><title>Node17&#45;&gt;Node19</title>
<path fill="none" stroke="midnightblue" d="M466.698,-362.319C485.72,-357.96 506.973,-353.089 526.784,-348.55"/>
<polygon fill="midnightblue" stroke="midnightblue" points="527.718,-351.926 536.684,-346.281 526.155,-345.103 527.718,-351.926"/>
</g>
<!-- Node20 -->
<g id="node20" class="node"><title>Node20</title>
<g id="a_node20"><a xlink:href="classVoxel_1_1ConfigurationFile.xhtml#a440d9dd2f89d0c76c81f7285b31a5b94" target="_top" xlink:title="Voxel::ConfigurationFile::set">
<polygon fill="none" stroke="black" points="530,-366.5 530,-385.5 670,-385.5 670,-366.5 530,-366.5"/>
<text text-anchor="middle" x="600" y="-373.5" font-family="Helvetica,sans-Serif" font-size="10.00">Voxel::ConfigurationFile::set</text>
</a>
</g>
</g>
<!-- Node17&#45;&gt;Node20 -->
<g id="edge21" class="edge"><title>Node17&#45;&gt;Node20</title>
<path fill="none" stroke="midnightblue" d="M466.698,-376C483.445,-376 501.922,-376 519.621,-376"/>
<polygon fill="midnightblue" stroke="midnightblue" points="519.934,-379.5 529.934,-376 519.934,-372.5 519.934,-379.5"/>
</g>
<!-- Node21 -->
<g id="node21" class="node"><title>Node21</title>
<g id="a_node21"><a xlink:href="classVoxel_1_1ConfigurationFile.xhtml#a3b9b573c1a3d9162fc0100c317ca0879" target="_top" xlink:title="Voxel::ConfigurationFile\l::_set">
<polygon fill="none" stroke="black" points="712.5,-361 712.5,-391 833.5,-391 833.5,-361 712.5,-361"/>
<text text-anchor="start" x="720.5" y="-379" font-family="Helvetica,sans-Serif" font-size="10.00">Voxel::ConfigurationFile</text>
<text text-anchor="middle" x="773" y="-368" font-family="Helvetica,sans-Serif" font-size="10.00">::_set</text>
</a>
</g>
</g>
<!-- Node20&#45;&gt;Node21 -->
<g id="edge22" class="edge"><title>Node20&#45;&gt;Node21</title>
<path fill="none" stroke="midnightblue" d="M670.059,-369.362C680.666,-369.216 691.624,-369.213 702.246,-369.353"/>
<polygon fill="midnightblue" stroke="midnightblue" points="702.244,-372.853 712.304,-369.531 702.368,-365.854 702.244,-372.853"/>
</g>
<!-- Node21&#45;&gt;Node20 -->
<g id="edge27" class="edge"><title>Node21&#45;&gt;Node20</title>
<path fill="none" stroke="midnightblue" d="M712.304,-382.469C701.967,-382.701 691.075,-382.789 680.314,-382.734"/>
<polygon fill="midnightblue" stroke="midnightblue" points="680.092,-379.232 670.059,-382.638 680.026,-386.232 680.092,-379.232"/>
</g>
<!-- Node22 -->
<g id="node22" class="node"><title>Node22</title>
<g id="a_node22"><a xlink:href="classVoxel_1_1ConfigSet.xhtml#a8fb880c24ad7b0f04c84d4a33becb995" target="_top" xlink:title="Voxel::ConfigSet::_set">
<polygon fill="none" stroke="black" points="870,-366.5 870,-385.5 986,-385.5 986,-366.5 870,-366.5"/>
<text text-anchor="middle" x="928" y="-373.5" font-family="Helvetica,sans-Serif" font-size="10.00">Voxel::ConfigSet::_set</text>
</a>
</g>
</g>
<!-- Node21&#45;&gt;Node22 -->
<g id="edge23" class="edge"><title>Node21&#45;&gt;Node22</title>
<path fill="none" stroke="midnightblue" d="M833.592,-376C842.156,-376 851.017,-376 859.717,-376"/>
<polygon fill="midnightblue" stroke="midnightblue" points="859.828,-379.5 869.828,-376 859.828,-372.5 859.828,-379.5"/>
</g>
<!-- Node23 -->
<g id="node23" class="node"><title>Node23</title>
<g id="a_node23"><a xlink:href="group__Util.xhtml#ga6b2a26aa983349496fedae9aa54ad034" target="_top" xlink:title="Trim. ">
<polygon fill="none" stroke="black" points="1022,-366.5 1022,-385.5 1086,-385.5 1086,-366.5 1022,-366.5"/>
<text text-anchor="middle" x="1054" y="-373.5" font-family="Helvetica,sans-Serif" font-size="10.00">Voxel::trim</text>
</a>
</g>
</g>
<!-- Node22&#45;&gt;Node23 -->
<g id="edge24" class="edge"><title>Node22&#45;&gt;Node23</title>
<path fill="none" stroke="midnightblue" d="M986.281,-376C994.753,-376 1003.34,-376 1011.41,-376"/>
<polygon fill="midnightblue" stroke="midnightblue" points="1011.67,-379.5 1021.67,-376 1011.67,-372.5 1011.67,-379.5"/>
</g>
<!-- Node24 -->
<g id="node24" class="node"><title>Node24</title>
<g id="a_node24"><a xlink:href="group__Util.xhtml#gac9c04e18f7878dd82964bb489b7b1314" target="_top" xlink:title="Left Trim. ">
<polygon fill="none" stroke="black" points="1123,-385.5 1123,-404.5 1189,-404.5 1189,-385.5 1123,-385.5"/>
<text text-anchor="middle" x="1156" y="-392.5" font-family="Helvetica,sans-Serif" font-size="10.00">Voxel::ltrim</text>
</a>
</g>
</g>
<!-- Node23&#45;&gt;Node24 -->
<g id="edge25" class="edge"><title>Node23&#45;&gt;Node24</title>
<path fill="none" stroke="midnightblue" d="M1086.09,-381.908C1094.59,-383.522 1103.94,-385.299 1112.94,-387.009"/>
<polygon fill="midnightblue" stroke="midnightblue" points="1112.41,-390.471 1122.89,-388.899 1113.72,-383.594 1112.41,-390.471"/>
</g>
<!-- Node25 -->
<g id="node25" class="node"><title>Node25</title>
<g id="a_node25"><a xlink:href="group__Util.xhtml#ga3d95f05dde73bc9c54051437445e439b" target="_top" xlink:title="Right Trim. ">
<polygon fill="none" stroke="black" points="1122.5,-347.5 1122.5,-366.5 1189.5,-366.5 1189.5,-347.5 1122.5,-347.5"/>
<text text-anchor="middle" x="1156" y="-354.5" font-family="Helvetica,sans-Serif" font-size="10.00">Voxel::rtrim</text>
</a>
</g>
</g>
<!-- Node23&#45;&gt;Node25 -->
<g id="edge26" class="edge"><title>Node23&#45;&gt;Node25</title>
<path fill="none" stroke="midnightblue" d="M1086.09,-370.092C1094.33,-368.526 1103.38,-366.808 1112.13,-365.146"/>
<polygon fill="midnightblue" stroke="midnightblue" points="1113.02,-368.538 1122.2,-363.233 1111.72,-361.661 1113.02,-368.538"/>
</g>
<!-- Node27 -->
<g id="node27" class="node"><title>Node27</title>
<g id="a_node27"><a xlink:href="classVoxel_1_1ConfigurationFile.xhtml#a49e5d191d816bda45d31e29a29272c9d" target="_top" xlink:title="Voxel::ConfigurationFile\l::getFile">
<polygon fill="none" stroke="black" points="345.5,-237 345.5,-267 466.5,-267 466.5,-237 345.5,-237"/>
<text text-anchor="start" x="353.5" y="-255" font-family="Helvetica,sans-Serif" font-size="10.00">Voxel::ConfigurationFile</text>
<text text-anchor="middle" x="406" y="-244" font-family="Helvetica,sans-Serif" font-size="10.00">::getFile</text>
</a>
</g>
</g>
<!-- Node26&#45;&gt;Node27 -->
<g id="edge29" class="edge"><title>Node26&#45;&gt;Node27</title>
<path fill="none" stroke="midnightblue" d="M282.117,-257.314C299.14,-256.578 317.708,-255.775 335.133,-255.021"/>
<polygon fill="midnightblue" stroke="midnightblue" points="335.402,-258.513 345.241,-254.584 335.099,-251.52 335.402,-258.513"/>
</g>
<!-- Node28 -->
<g id="node28" class="node"><title>Node28</title>
<g id="a_node28"><a xlink:href="classVoxel_1_1ConfigurationFile.xhtml#a69e6c29b1e3caafca6e783937834113b" target="_top" xlink:title="Voxel::ConfigurationFile\l::_getData">
<polygon fill="none" stroke="black" points="539.5,-229 539.5,-259 660.5,-259 660.5,-229 539.5,-229"/>
<text text-anchor="start" x="547.5" y="-247" font-family="Helvetica,sans-Serif" font-size="10.00">Voxel::ConfigurationFile</text>
<text text-anchor="middle" x="600" y="-236" font-family="Helvetica,sans-Serif" font-size="10.00">::_getData</text>
</a>
</g>
</g>
<!-- Node27&#45;&gt;Node28 -->
<g id="edge30" class="edge"><title>Node27&#45;&gt;Node28</title>
<path fill="none" stroke="midnightblue" d="M466.698,-249.513C486.474,-248.689 508.66,-247.764 529.131,-246.911"/>
<polygon fill="midnightblue" stroke="midnightblue" points="529.494,-250.399 539.339,-246.486 529.202,-243.405 529.494,-250.399"/>
</g>
<!-- Node29 -->
<g id="node29" class="node"><title>Node29</title>
<g id="a_node29"><a xlink:href="classVoxel_1_1Configuration.xhtml#aeed2f5638591b839dd233e8673a977e5" target="_top" xlink:title="Updates &quot;name&quot; to full path. ">
<polygon fill="none" stroke="black" points="720.5,-229 720.5,-259 825.5,-259 825.5,-229 720.5,-229"/>
<text text-anchor="start" x="728.5" y="-247" font-family="Helvetica,sans-Serif" font-size="10.00">Voxel::Configuration</text>
<text text-anchor="middle" x="773" y="-236" font-family="Helvetica,sans-Serif" font-size="10.00">::getConfFile</text>
</a>
</g>
</g>
<!-- Node28&#45;&gt;Node29 -->
<g id="edge31" class="edge"><title>Node28&#45;&gt;Node29</title>
<path fill="none" stroke="midnightblue" d="M660.808,-244C676.767,-244 694.042,-244 710.111,-244"/>
<polygon fill="midnightblue" stroke="midnightblue" points="710.47,-247.5 720.47,-244 710.47,-240.5 710.47,-247.5"/>
</g>
<!-- Node32 -->
<g id="node32" class="node"><title>Node32</title>
<g id="a_node32"><a xlink:href="classVoxel_1_1DepthCamera.xhtml#a7cca2c2413b60d0d2ef26e0cb8802118" target="_top" xlink:title="Voxel::DepthCamera\l::_getFrameSize">
<polygon fill="none" stroke="black" points="352,-147 352,-177 460,-177 460,-147 352,-147"/>
<text text-anchor="start" x="360" y="-165" font-family="Helvetica,sans-Serif" font-size="10.00">Voxel::DepthCamera</text>
<text text-anchor="middle" x="406" y="-154" font-family="Helvetica,sans-Serif" font-size="10.00">::_getFrameSize</text>
</a>
</g>
</g>
<!-- Node31&#45;&gt;Node32 -->
<g id="edge34" class="edge"><title>Node31&#45;&gt;Node32</title>
<path fill="none" stroke="midnightblue" d="M273.014,-162C294.495,-162 319.473,-162 341.884,-162"/>
<polygon fill="midnightblue" stroke="midnightblue" points="341.979,-165.5 351.979,-162 341.979,-158.5 341.979,-165.5"/>
</g>
<!-- Node35 -->
<g id="node35" class="node"><title>Node35</title>
<g id="a_node35"><a xlink:href="classVoxel_1_1DepthCamera.xhtml#a81260a37bfc6da411b8d3d71342a2eda" target="_top" xlink:title="Voxel::DepthCamera\l::_getMaximumFrameSize">
<polygon fill="none" stroke="black" points="340.5,-49 340.5,-79 471.5,-79 471.5,-49 340.5,-49"/>
<text text-anchor="start" x="348.5" y="-67" font-family="Helvetica,sans-Serif" font-size="10.00">Voxel::DepthCamera</text>
<text text-anchor="middle" x="406" y="-56" font-family="Helvetica,sans-Serif" font-size="10.00">::_getMaximumFrameSize</text>
</a>
</g>
</g>
<!-- Node34&#45;&gt;Node35 -->
<g id="edge37" class="edge"><title>Node34&#45;&gt;Node35</title>
<path fill="none" stroke="midnightblue" d="M282.117,-64C297.444,-64 314.023,-64 329.894,-64"/>
<polygon fill="midnightblue" stroke="midnightblue" points="330.201,-67.5001 340.201,-64 330.201,-60.5001 330.201,-67.5001"/>
</g>
<!-- Node37 -->
<g id="node37" class="node"><title>Node37</title>
<g id="a_node37"><a xlink:href="classVoxel_1_1DepthCamera.xhtml#ae09d2aaee73e56b4b488897f6081191e" target="_top" xlink:title="Voxel::DepthCamera\l::_getROI">
<polygon fill="none" stroke="black" points="352,-0 352,-30 460,-30 460,-0 352,-0"/>
<text text-anchor="start" x="360" y="-18" font-family="Helvetica,sans-Serif" font-size="10.00">Voxel::DepthCamera</text>
<text text-anchor="middle" x="406" y="-7" font-family="Helvetica,sans-Serif" font-size="10.00">::_getROI</text>
</a>
</g>
</g>
<!-- Node36&#45;&gt;Node37 -->
<g id="edge39" class="edge"><title>Node36&#45;&gt;Node37</title>
<path fill="none" stroke="midnightblue" d="M273.014,-15C294.495,-15 319.473,-15 341.884,-15"/>
<polygon fill="midnightblue" stroke="midnightblue" points="341.979,-18.5001 351.979,-15 341.979,-11.5001 341.979,-18.5001"/>
</g>
<!-- Node39 -->
<g id="node39" class="node"><title>Node39</title>
<g id="a_node39"><a xlink:href="classVoxel_1_1ConfigurationFile.xhtml#a00e007801296e76b05ef10f1c8176c2d" target="_top" xlink:title="Voxel::ConfigurationFile\l::isPresent">
<polygon fill="none" stroke="black" points="345.5,-294 345.5,-324 466.5,-324 466.5,-294 345.5,-294"/>
<text text-anchor="start" x="353.5" y="-312" font-family="Helvetica,sans-Serif" font-size="10.00">Voxel::ConfigurationFile</text>
<text text-anchor="middle" x="406" y="-301" font-family="Helvetica,sans-Serif" font-size="10.00">::isPresent</text>
</a>
</g>
</g>
<!-- Node38&#45;&gt;Node39 -->
<g id="edge41" class="edge"><title>Node38&#45;&gt;Node39</title>
<path fill="none" stroke="midnightblue" d="M282.117,-309C299.14,-309 317.708,-309 335.133,-309"/>
<polygon fill="midnightblue" stroke="midnightblue" points="335.241,-312.5 345.241,-309 335.241,-305.5 335.241,-312.5"/>
</g>
<!-- Node39&#45;&gt;Node19 -->
<g id="edge42" class="edge"><title>Node39&#45;&gt;Node19</title>
<path fill="none" stroke="midnightblue" d="M466.698,-316.151C485.633,-318.42 506.779,-320.953 526.512,-323.317"/>
<polygon fill="midnightblue" stroke="midnightblue" points="526.338,-326.821 536.684,-324.535 527.171,-319.87 526.338,-326.821"/>
</g>
<!-- Node39&#45;&gt;Node20 -->
<g id="edge45" class="edge"><title>Node39&#45;&gt;Node20</title>
<path fill="none" stroke="midnightblue" d="M441.403,-324.103C464.498,-333.922 495.753,-346.599 524,-356 532.179,-358.722 540.954,-361.333 549.515,-363.718"/>
<polygon fill="midnightblue" stroke="midnightblue" points="548.852,-367.164 559.42,-366.406 550.686,-360.409 548.852,-367.164"/>
</g>
<!-- Node39&#45;&gt;Node39 -->
<g id="edge44" class="edge"><title>Node39&#45;&gt;Node39</title>
<path fill="none" stroke="midnightblue" d="M373.305,-324.275C366.039,-333.406 376.938,-342 406,-342 423.256,-342 434.108,-338.97 438.557,-334.598"/>
<polygon fill="midnightblue" stroke="midnightblue" points="442.061,-334.321 438.695,-324.275 435.062,-334.228 442.061,-334.321"/>
</g>
<!-- Node40 -->
<g id="node40" class="node"><title>Node40</title>
<g id="a_node40"><a xlink:href="classVoxel_1_1ConfigSet.xhtml#ab7930d0d21d160341d989ef998ecac73" target="_top" xlink:title="Voxel::ConfigSet::isPresent">
<polygon fill="none" stroke="black" points="531,-278.5 531,-297.5 669,-297.5 669,-278.5 531,-278.5"/>
<text text-anchor="middle" x="600" y="-285.5" font-family="Helvetica,sans-Serif" font-size="10.00">Voxel::ConfigSet::isPresent</text>
</a>
</g>
</g>
<!-- Node39&#45;&gt;Node40 -->
<g id="edge43" class="edge"><title>Node39&#45;&gt;Node40</title>
<path fill="none" stroke="midnightblue" d="M466.698,-302.471C483.881,-300.591 502.884,-298.513 520.999,-296.531"/>
<polygon fill="midnightblue" stroke="midnightblue" points="521.395,-300.009 530.955,-295.442 520.634,-293.05 521.395,-300.009"/>
</g>
</g>
</svg>
        <g id="navigator" transform="translate(0 0)" fill="#404254">
                <rect fill="#f2f5e9" fill-opacity="0.5" stroke="#606060" stroke-width=".5" x="0" y="0" width="60" height="60"/>
                <use id="zoomplus" xlink:href="#zoomPlus" x="17" y="9" onmousedown="handleZoom(evt,'in')"/>
                <use id="zoomminus" xlink:href="#zoomMin" x="42" y="9" onmousedown="handleZoom(evt,'out')"/>
                <use id="reset" xlink:href="#resetDef" x="30" y="36" onmousedown="handleReset()"/>
                <g id="arrowUp" xlink:href="#dirArrow" transform="translate(30 24)" onmousedown="handlePan(0,-1)">
                  <use xlink:href="#rim" fill="#404040">
                        <set attributeName="fill" to="#808080" begin="arrowUp.mouseover" end="arrowUp.mouseout"/>
                  </use>
                  <path fill="none" stroke="white" stroke-width="1.5" d="M0,-3.0v7 M-2.5,-0.5L0,-3.0L2.5,-0.5"/>
                </g>
                <g id="arrowRight" xlink:href="#dirArrow" transform="rotate(90) translate(36 -43)" onmousedown="handlePan(1,0)">
                  <use xlink:href="#rim" fill="#404040">
                        <set attributeName="fill" to="#808080" begin="arrowRight.mouseover" end="arrowRight.mouseout"/>
                  </use>
                  <path fill="none" stroke="white" stroke-width="1.5" d="M0,-3.0v7 M-2.5,-0.5L0,-3.0L2.5,-0.5"/>
                </g>
                <g id="arrowDown" xlink:href="#dirArrow" transform="rotate(180) translate(-30 -48)" onmousedown="handlePan(0,1)">
                  <use xlink:href="#rim" fill="#404040">
                        <set attributeName="fill" to="#808080" begin="arrowDown.mouseover" end="arrowDown.mouseout"/>
                  </use>
                  <path fill="none" stroke="white" stroke-width="1.5" d="M0,-3.0v7 M-2.5,-0.5L0,-3.0L2.5,-0.5"/>
                </g>
                <g id="arrowLeft" xlink:href="#dirArrow" transform="rotate(270) translate(-36 17)" onmousedown="handlePan(-1,0)">
                  <use xlink:href="#rim" fill="#404040">
                        <set attributeName="fill" to="#808080" begin="arrowLeft.mouseover" end="arrowLeft.mouseout"/>
                  </use>
                  <path fill="none" stroke="white" stroke-width="1.5" d="M0,-3.0v7 M-2.5,-0.5L0,-3.0L2.5,-0.5"/>
                </g>
        </g>
        <svg viewBox="0 0 15 15" width="100%" height="30px" preserveAspectRatio="xMaxYMin meet">
         <g id="arrow_out" transform="scale(0.3 0.3)">
          <a xlink:href="classVoxel_1_1TI_1_1ToFCamera_a52686f695d06876ef5a89e453c6a8ba3_cgraph_org.svg" target="_base">
           <rect id="button" ry="5" rx="5" y="6" x="6" height="38" width="38"
                fill="#f2f5e9" fill-opacity="0.5" stroke="#606060" stroke-width="1.0"/>
           <path id="arrow"
             d="M 11.500037,31.436501 C 11.940474,20.09759 22.043105,11.32322 32.158766,21.979434 L 37.068811,17.246167 C 37.068811,17.246167 37.088388,32 37.088388,32 L 22.160133,31.978069 C 22.160133,31.978069 26.997745,27.140456 26.997745,27.140456 C 18.528582,18.264221 13.291696,25.230495 11.500037,31.436501 z"
             style="fill:#404040;"/>
          </a>
         </g>
        </svg>
</svg>
