<?xml version="1.0" encoding="UTF-8" standalone="no"?>
<!DOCTYPE svg PUBLIC "-//W3C//DTD SVG 1.1//EN"
 "http://www.w3.org/Graphics/SVG/1.1/DTD/svg11.dtd">
<!-- Generated by graphviz version 2.36.0 (20140111.2315)
 -->
<!-- Title: Voxel::Timer::getCurentRealTime Pages: 1 -->
<svg width="898pt" height="332pt"
 viewBox="0.00 0.00 898.00 332.00" xmlns="http://www.w3.org/2000/svg" xmlns:xlink="http://www.w3.org/1999/xlink">
<g id="graph0" class="graph" transform="scale(1 1) rotate(0) translate(4 328)">
<title>Voxel::Timer::getCurentRealTime</title>
<!-- Node1 -->
<g id="node1" class="node"><title>Node1</title>
<polygon fill="#bfbfbf" stroke="black" points="0.5,-174.5 0.5,-193.5 163.5,-193.5 163.5,-174.5 0.5,-174.5"/>
<text text-anchor="middle" x="82" y="-181.5" font-family="Helvetica,sans-Serif" font-size="10.00">Voxel::Timer::getCurentRealTime</text>
</g>
<!-- Node2 -->
<g id="node2" class="node"><title>Node2</title>
<g id="a_node2"><a xlink:href="classVoxel_1_1UVCStreamer.xhtml#a5a3e48eab120d389b3970c64877f7f98" target="_top" xlink:title="Voxel::UVCStreamer\l::_capture">
<polygon fill="none" stroke="black" points="217.5,-294 217.5,-324 326.5,-324 326.5,-294 217.5,-294"/>
<text text-anchor="start" x="225.5" y="-312" font-family="Helvetica,sans-Serif" font-size="10.00">Voxel::UVCStreamer</text>
<text text-anchor="middle" x="272" y="-301" font-family="Helvetica,sans-Serif" font-size="10.00">::_capture</text>
</a>
</g>
</g>
<!-- Node1&#45;&gt;Node2 -->
<g id="edge1" class="edge"><title>Node1&#45;&gt;Node2</title>
<path fill="none" stroke="midnightblue" d="M98.7185,-200.849C119.887,-222.683 159.588,-260.706 200,-284 206.454,-287.72 213.553,-291.023 220.691,-293.91"/>
<polygon fill="midnightblue" stroke="midnightblue" points="101.228,-198.409 91.7908,-193.595 96.1659,-203.244 101.228,-198.409"/>
</g>
<!-- Node3 -->
<g id="node3" class="node"><title>Node3</title>
<g id="a_node3"><a xlink:href="classVoxel_1_1TI_1_1TintinCDKCamera.xhtml#afd26c09edefbc8f80a8e30868c50228c" target="_top" xlink:title="Voxel::TI::TintinCDKCamera\l::_readConfigFromHardware">
<polygon fill="none" stroke="black" points="200.5,-245 200.5,-275 343.5,-275 343.5,-245 200.5,-245"/>
<text text-anchor="start" x="208.5" y="-263" font-family="Helvetica,sans-Serif" font-size="10.00">Voxel::TI::TintinCDKCamera</text>
<text text-anchor="middle" x="272" y="-252" font-family="Helvetica,sans-Serif" font-size="10.00">::_readConfigFromHardware</text>
</a>
</g>
</g>
<!-- Node1&#45;&gt;Node3 -->
<g id="edge2" class="edge"><title>Node1&#45;&gt;Node3</title>
<path fill="none" stroke="midnightblue" d="M113.355,-197.953C136.826,-208.566 170.23,-223.288 200,-235 208.513,-238.349 217.679,-241.736 226.504,-244.889"/>
<polygon fill="midnightblue" stroke="midnightblue" points="114.496,-194.627 103.944,-193.677 111.601,-201 114.496,-194.627"/>
</g>
<!-- Node6 -->
<g id="node6" class="node"><title>Node6</title>
<g id="a_node6"><a xlink:href="classVoxel_1_1TI_1_1TintinCDKCamera.xhtml#aec613f395444d16e127b34aa406af267" target="_top" xlink:title="Voxel::TI::TintinCDKCamera\l::_writeConfigFromHardware">
<polygon fill="none" stroke="black" points="200.5,-196 200.5,-226 343.5,-226 343.5,-196 200.5,-196"/>
<text text-anchor="start" x="208.5" y="-214" font-family="Helvetica,sans-Serif" font-size="10.00">Voxel::TI::TintinCDKCamera</text>
<text text-anchor="middle" x="272" y="-203" font-family="Helvetica,sans-Serif" font-size="10.00">::_writeConfigFromHardware</text>
</a>
</g>
</g>
<!-- Node1&#45;&gt;Node6 -->
<g id="edge5" class="edge"><title>Node1&#45;&gt;Node6</title>
<path fill="none" stroke="midnightblue" d="M159.467,-194.982C172.938,-196.917 186.907,-198.923 200.214,-200.834"/>
<polygon fill="midnightblue" stroke="midnightblue" points="159.678,-191.476 149.282,-193.519 158.683,-198.405 159.678,-191.476"/>
</g>
<!-- Node7 -->
<g id="node7" class="node"><title>Node7</title>
<g id="a_node7"><a xlink:href="classVoxel_1_1USBBulkStreamer_1_1USBBulkStreamerPrivate.xhtml#a235bc52293ca4e14a639f58c61777de1" target="_top" xlink:title="Voxel::USBBulkStreamer\l::USBBulkStreamerPrivate\l::putBuffer">
<polygon fill="none" stroke="black" points="205,-136.5 205,-177.5 339,-177.5 339,-136.5 205,-136.5"/>
<text text-anchor="start" x="213" y="-165.5" font-family="Helvetica,sans-Serif" font-size="10.00">Voxel::USBBulkStreamer</text>
<text text-anchor="start" x="213" y="-154.5" font-family="Helvetica,sans-Serif" font-size="10.00">::USBBulkStreamerPrivate</text>
<text text-anchor="middle" x="272" y="-143.5" font-family="Helvetica,sans-Serif" font-size="10.00">::putBuffer</text>
</a>
</g>
</g>
<!-- Node1&#45;&gt;Node7 -->
<g id="edge7" class="edge"><title>Node1&#45;&gt;Node7</title>
<path fill="none" stroke="midnightblue" d="M159.528,-173.009C174.497,-170.859 190.08,-168.622 204.683,-166.524"/>
<polygon fill="midnightblue" stroke="midnightblue" points="158.683,-169.595 149.282,-174.481 159.678,-176.524 158.683,-169.595"/>
</g>
<!-- Node8 -->
<g id="node8" class="node"><title>Node8</title>
<g id="a_node8"><a xlink:href="classVoxel_1_1USBBulkStreamer_1_1USBBulkStreamerPrivate.xhtml#a7a720971513791da40aa79f424498949" target="_top" xlink:title="Voxel::USBBulkStreamer\l::USBBulkStreamerPrivate::run">
<polygon fill="none" stroke="black" points="391.5,-140 391.5,-170 544.5,-170 544.5,-140 391.5,-140"/>
<text text-anchor="start" x="399.5" y="-158" font-family="Helvetica,sans-Serif" font-size="10.00">Voxel::USBBulkStreamer</text>
<text text-anchor="middle" x="468" y="-147" font-family="Helvetica,sans-Serif" font-size="10.00">::USBBulkStreamerPrivate::run</text>
</a>
</g>
</g>
<!-- Node1&#45;&gt;Node8 -->
<g id="edge10" class="edge"><title>Node1&#45;&gt;Node8</title>
<path fill="none" stroke="midnightblue" d="M105.929,-168.917C128.705,-154.906 165.169,-135.033 200,-127 274.255,-109.874 362.571,-126.045 416.698,-139.967"/>
<polygon fill="midnightblue" stroke="midnightblue" points="103.932,-166.039 97.3343,-174.328 107.662,-171.962 103.932,-166.039"/>
</g>
<!-- Node10 -->
<g id="node10" class="node"><title>Node10</title>
<g id="a_node10"><a xlink:href="classVoxel_1_1MainConfigurationFile.xhtml#a65f9abd83851d372ef62958de4774415" target="_top" xlink:title="Voxel::MainConfiguration\lFile::writeToHardware">
<polygon fill="none" stroke="black" points="209,-49 209,-79 335,-79 335,-49 209,-49"/>
<text text-anchor="start" x="217" y="-67" font-family="Helvetica,sans-Serif" font-size="10.00">Voxel::MainConfiguration</text>
<text text-anchor="middle" x="272" y="-56" font-family="Helvetica,sans-Serif" font-size="10.00">File::writeToHardware</text>
</a>
</g>
</g>
<!-- Node1&#45;&gt;Node10 -->
<g id="edge11" class="edge"><title>Node1&#45;&gt;Node10</title>
<path fill="none" stroke="midnightblue" d="M101.247,-167.563C123.411,-148.185 162.502,-115.857 200,-94 209.48,-88.4743 220.171,-83.4104 230.326,-79.0796"/>
<polygon fill="midnightblue" stroke="midnightblue" points="98.7925,-165.061 93.6194,-174.307 103.429,-170.305 98.7925,-165.061"/>
</g>
<!-- Node4 -->
<g id="node4" class="node"><title>Node4</title>
<g id="a_node4"><a xlink:href="classVoxel_1_1TI_1_1TintinCDKCamera.xhtml#af5337f40c1a075c026263ea9871a20ee" target="_top" xlink:title="Voxel::TI::TintinCDKCamera\l::_init">
<polygon fill="none" stroke="black" points="396.5,-196 396.5,-226 539.5,-226 539.5,-196 396.5,-196"/>
<text text-anchor="start" x="404.5" y="-214" font-family="Helvetica,sans-Serif" font-size="10.00">Voxel::TI::TintinCDKCamera</text>
<text text-anchor="middle" x="468" y="-203" font-family="Helvetica,sans-Serif" font-size="10.00">::_init</text>
</a>
</g>
</g>
<!-- Node3&#45;&gt;Node4 -->
<g id="edge3" class="edge"><title>Node3&#45;&gt;Node4</title>
<path fill="none" stroke="midnightblue" d="M342.483,-242.45C363.787,-237.069 387.021,-231.201 407.588,-226.006"/>
<polygon fill="midnightblue" stroke="midnightblue" points="341.363,-239.123 332.525,-244.965 343.077,-245.91 341.363,-239.123"/>
</g>
<!-- Node5 -->
<g id="node5" class="node"><title>Node5</title>
<g id="a_node5"><a xlink:href="classVoxel_1_1TI_1_1TintinCDKCamera.xhtml#a7a9918bb8b6d76bc3511536019847c1d" target="_top" xlink:title="Voxel::TI::TintinCDKCamera\l::TintinCDKCamera">
<polygon fill="none" stroke="black" points="592.5,-196 592.5,-226 735.5,-226 735.5,-196 592.5,-196"/>
<text text-anchor="start" x="600.5" y="-214" font-family="Helvetica,sans-Serif" font-size="10.00">Voxel::TI::TintinCDKCamera</text>
<text text-anchor="middle" x="664" y="-203" font-family="Helvetica,sans-Serif" font-size="10.00">::TintinCDKCamera</text>
</a>
</g>
</g>
<!-- Node4&#45;&gt;Node5 -->
<g id="edge4" class="edge"><title>Node4&#45;&gt;Node5</title>
<path fill="none" stroke="midnightblue" d="M549.8,-211C563.966,-211 578.606,-211 592.465,-211"/>
<polygon fill="midnightblue" stroke="midnightblue" points="549.587,-207.5 539.587,-211 549.587,-214.5 549.587,-207.5"/>
</g>
<!-- Node6&#45;&gt;Node4 -->
<g id="edge6" class="edge"><title>Node6&#45;&gt;Node4</title>
<path fill="none" stroke="midnightblue" d="M353.8,-211C367.966,-211 382.606,-211 396.465,-211"/>
<polygon fill="midnightblue" stroke="midnightblue" points="353.587,-207.5 343.587,-211 353.587,-214.5 353.587,-207.5"/>
</g>
<!-- Node7&#45;&gt;Node8 -->
<g id="edge8" class="edge"><title>Node7&#45;&gt;Node8</title>
<path fill="none" stroke="midnightblue" d="M349.606,-156.21C363.357,-156.068 377.681,-155.921 391.403,-155.779"/>
<polygon fill="midnightblue" stroke="midnightblue" points="349.185,-152.714 339.221,-156.317 349.257,-159.714 349.185,-152.714"/>
</g>
<!-- Node9 -->
<g id="node9" class="node"><title>Node9</title>
<g id="a_node9"><a xlink:href="classVoxel_1_1USBBulkStreamer_1_1USBBulkStreamerPrivate.xhtml#a0e4da1908d928a1d22fd4cfb5c9e7909" target="_top" xlink:title="Voxel::USBBulkStreamer\l::USBBulkStreamerPrivate\l::start">
<polygon fill="none" stroke="black" points="597,-134.5 597,-175.5 731,-175.5 731,-134.5 597,-134.5"/>
<text text-anchor="start" x="605" y="-163.5" font-family="Helvetica,sans-Serif" font-size="10.00">Voxel::USBBulkStreamer</text>
<text text-anchor="start" x="605" y="-152.5" font-family="Helvetica,sans-Serif" font-size="10.00">::USBBulkStreamerPrivate</text>
<text text-anchor="middle" x="664" y="-141.5" font-family="Helvetica,sans-Serif" font-size="10.00">::start</text>
</a>
</g>
</g>
<!-- Node8&#45;&gt;Node9 -->
<g id="edge9" class="edge"><title>Node8&#45;&gt;Node9</title>
<path fill="none" stroke="midnightblue" d="M554.751,-155C568.848,-155 583.265,-155 596.792,-155"/>
<polygon fill="midnightblue" stroke="midnightblue" points="554.561,-151.5 544.561,-155 554.561,-158.5 554.561,-151.5"/>
</g>
<!-- Node11 -->
<g id="node11" class="node"><title>Node11</title>
<g id="a_node11"><a xlink:href="classVoxel_1_1MainConfigurationFile.xhtml#a4abe1141d3c441fc54cd870e09a22b2c" target="_top" xlink:title="Voxel::MainConfiguration\lFile::removeCameraProfile">
<polygon fill="none" stroke="black" points="597.5,-42 597.5,-72 730.5,-72 730.5,-42 597.5,-42"/>
<text text-anchor="start" x="605.5" y="-60" font-family="Helvetica,sans-Serif" font-size="10.00">Voxel::MainConfiguration</text>
<text text-anchor="middle" x="664" y="-49" font-family="Helvetica,sans-Serif" font-size="10.00">File::removeCameraProfile</text>
</a>
</g>
</g>
<!-- Node10&#45;&gt;Node11 -->
<g id="edge12" class="edge"><title>Node10&#45;&gt;Node11</title>
<path fill="none" stroke="midnightblue" d="M339.326,-81.2594C352.702,-84.0647 366.731,-86.5301 380,-88 457.747,-96.6123 478.554,-98.9928 556,-88 578.021,-84.8744 601.849,-78.3012 621.418,-72.0086"/>
<polygon fill="midnightblue" stroke="midnightblue" points="339.765,-77.7727 329.248,-79.0588 338.271,-84.6115 339.765,-77.7727"/>
</g>
<!-- Node13 -->
<g id="node13" class="node"><title>Node13</title>
<g id="a_node13"><a xlink:href="classVoxel_1_1MainConfigurationFile.xhtml#ae8ce6b155ffff0c4f33e1d7acfc01290" target="_top" xlink:title="Voxel::MainConfiguration\lFile::saveCameraProfileToHardware">
<polygon fill="none" stroke="black" points="380.5,-49 380.5,-79 555.5,-79 555.5,-49 380.5,-49"/>
<text text-anchor="start" x="388.5" y="-67" font-family="Helvetica,sans-Serif" font-size="10.00">Voxel::MainConfiguration</text>
<text text-anchor="middle" x="468" y="-56" font-family="Helvetica,sans-Serif" font-size="10.00">File::saveCameraProfileToHardware</text>
</a>
</g>
</g>
<!-- Node10&#45;&gt;Node13 -->
<g id="edge14" class="edge"><title>Node10&#45;&gt;Node13</title>
<path fill="none" stroke="midnightblue" d="M345.489,-64C356.879,-64 368.753,-64 380.422,-64"/>
<polygon fill="midnightblue" stroke="midnightblue" points="345.183,-60.5001 335.183,-64 345.183,-67.5001 345.183,-60.5001"/>
</g>
<!-- Node14 -->
<g id="node14" class="node"><title>Node14</title>
<g id="a_node14"><a xlink:href="classVoxel_1_1MainConfigurationFile.xhtml#ad0ea67099cfd8a8e869b46b833e19800" target="_top" xlink:title="Voxel::MainConfiguration\lFile::setDefaultCameraProfile">
<polygon fill="none" stroke="black" points="395,-0 395,-30 541,-30 541,-0 395,-0"/>
<text text-anchor="start" x="403" y="-18" font-family="Helvetica,sans-Serif" font-size="10.00">Voxel::MainConfiguration</text>
<text text-anchor="middle" x="468" y="-7" font-family="Helvetica,sans-Serif" font-size="10.00">File::setDefaultCameraProfile</text>
</a>
</g>
</g>
<!-- Node10&#45;&gt;Node14 -->
<g id="edge15" class="edge"><title>Node10&#45;&gt;Node14</title>
<path fill="none" stroke="midnightblue" d="M342.483,-46.4502C363.787,-41.0694 387.021,-35.201 407.588,-30.0062"/>
<polygon fill="midnightblue" stroke="midnightblue" points="341.363,-43.123 332.525,-48.9654 343.077,-49.9099 341.363,-43.123"/>
</g>
<!-- Node12 -->
<g id="node12" class="node"><title>Node12</title>
<g id="a_node12"><a xlink:href="classVoxel_1_1DepthCamera.xhtml#a51bc1371938f78ddc18af0b36850545c" target="_top" xlink:title="Voxel::DepthCamera\l::removeCameraProfile">
<polygon fill="none" stroke="black" points="772.5,-42 772.5,-72 889.5,-72 889.5,-42 772.5,-42"/>
<text text-anchor="start" x="780.5" y="-60" font-family="Helvetica,sans-Serif" font-size="10.00">Voxel::DepthCamera</text>
<text text-anchor="middle" x="831" y="-49" font-family="Helvetica,sans-Serif" font-size="10.00">::removeCameraProfile</text>
</a>
</g>
</g>
<!-- Node11&#45;&gt;Node12 -->
<g id="edge13" class="edge"><title>Node11&#45;&gt;Node12</title>
<path fill="none" stroke="midnightblue" d="M740.768,-57C751.355,-57 762.091,-57 772.272,-57"/>
<polygon fill="midnightblue" stroke="midnightblue" points="740.687,-53.5001 730.686,-57 740.686,-60.5001 740.687,-53.5001"/>
</g>
<!-- Node14&#45;&gt;Node11 -->
<g id="edge16" class="edge"><title>Node14&#45;&gt;Node11</title>
<path fill="none" stroke="midnightblue" d="M548.478,-32.2066C564.686,-35.7156 581.57,-39.3707 597.236,-42.7624"/>
<polygon fill="midnightblue" stroke="midnightblue" points="549.005,-28.7396 538.49,-30.0443 547.523,-35.5811 549.005,-28.7396"/>
</g>
</g>
</svg>
