<?xml version="1.0" encoding="UTF-8" standalone="no"?>
<!DOCTYPE svg PUBLIC "-//W3C//DTD SVG 1.1//EN"
 "http://www.w3.org/Graphics/SVG/1.1/DTD/svg11.dtd">
<!-- Generated by graphviz version 2.36.0 (20140111.2315)
 -->
<!-- Title: Voxel::Filter::_addParameters Pages: 1 -->
<svg width="332pt" height="224pt"
 viewBox="0.00 0.00 332.00 224.00" xmlns="http://www.w3.org/2000/svg" xmlns:xlink="http://www.w3.org/1999/xlink">
<g id="graph0" class="graph" transform="scale(1 1) rotate(0) translate(4 220)">
<title>Voxel::Filter::_addParameters</title>
<!-- Node1 -->
<g id="node1" class="node"><title>Node1</title>
<polygon fill="#bfbfbf" stroke="black" points="0,-103.5 0,-122.5 146,-122.5 146,-103.5 0,-103.5"/>
<text text-anchor="middle" x="73" y="-110.5" font-family="Helvetica,sans-Serif" font-size="10.00">Voxel::Filter::_addParameters</text>
</g>
<!-- Node2 -->
<g id="node2" class="node"><title>Node2</title>
<g id="a_node2"><a xlink:href="classVoxel_1_1BilateralFilter.xhtml#a4786aa72c4a60b5d39176e6e68b9aadc" target="_top" xlink:title="Voxel::BilateralFilter\l::BilateralFilter">
<polygon fill="none" stroke="black" points="201,-186 201,-216 305,-216 305,-186 201,-186"/>
<text text-anchor="start" x="209" y="-204" font-family="Helvetica,sans-Serif" font-size="10.00">Voxel::BilateralFilter</text>
<text text-anchor="middle" x="253" y="-193" font-family="Helvetica,sans-Serif" font-size="10.00">::BilateralFilter</text>
</a>
</g>
</g>
<!-- Node1&#45;&gt;Node2 -->
<g id="edge1" class="edge"><title>Node1&#45;&gt;Node2</title>
<path fill="none" stroke="midnightblue" d="M96.9748,-128.085C118.392,-141.736 151.52,-161.816 182,-176 189.605,-179.539 197.861,-182.892 205.947,-185.927"/>
<polygon fill="midnightblue" stroke="midnightblue" points="98.8579,-125.135 88.5551,-122.665 95.0685,-131.021 98.8579,-125.135"/>
</g>
<!-- Node3 -->
<g id="node3" class="node"><title>Node3</title>
<g id="a_node3"><a xlink:href="classVoxel_1_1IIRFilter.xhtml#a2e9215a8fbffd8afe02f3b051f8aa748" target="_top" xlink:title="Voxel::IIRFilter::IIRFilter">
<polygon fill="none" stroke="black" points="191,-147.5 191,-166.5 315,-166.5 315,-147.5 191,-147.5"/>
<text text-anchor="middle" x="253" y="-154.5" font-family="Helvetica,sans-Serif" font-size="10.00">Voxel::IIRFilter::IIRFilter</text>
</a>
</g>
</g>
<!-- Node1&#45;&gt;Node3 -->
<g id="edge2" class="edge"><title>Node1&#45;&gt;Node3</title>
<path fill="none" stroke="midnightblue" d="M122.42,-124.969C151.031,-132.041 186.761,-140.874 213.452,-147.471"/>
<polygon fill="midnightblue" stroke="midnightblue" points="123.171,-121.549 112.623,-122.547 121.491,-128.345 123.171,-121.549"/>
</g>
<!-- Node4 -->
<g id="node4" class="node"><title>Node4</title>
<g id="a_node4"><a xlink:href="classVoxel_1_1MedianFilter.xhtml#afe7a38f899ce3883ab14b74abbb618e6" target="_top" xlink:title="Voxel::MedianFilter\l::MedianFilter">
<polygon fill="none" stroke="black" points="202.5,-98 202.5,-128 303.5,-128 303.5,-98 202.5,-98"/>
<text text-anchor="start" x="210.5" y="-116" font-family="Helvetica,sans-Serif" font-size="10.00">Voxel::MedianFilter</text>
<text text-anchor="middle" x="253" y="-105" font-family="Helvetica,sans-Serif" font-size="10.00">::MedianFilter</text>
</a>
</g>
</g>
<!-- Node1&#45;&gt;Node4 -->
<g id="edge3" class="edge"><title>Node1&#45;&gt;Node4</title>
<path fill="none" stroke="midnightblue" d="M156.406,-113C172.116,-113 188.101,-113 202.389,-113"/>
<polygon fill="midnightblue" stroke="midnightblue" points="156.143,-109.5 146.143,-113 156.143,-116.5 156.143,-109.5"/>
</g>
<!-- Node5 -->
<g id="node5" class="node"><title>Node5</title>
<g id="a_node5"><a xlink:href="classVoxel_1_1SmoothFilter.xhtml#add7a44dbb53a846ca852137bb1dd97aa" target="_top" xlink:title="Voxel::SmoothFilter\l::SmoothFilter">
<polygon fill="none" stroke="black" points="201.5,-49 201.5,-79 304.5,-79 304.5,-49 201.5,-49"/>
<text text-anchor="start" x="209.5" y="-67" font-family="Helvetica,sans-Serif" font-size="10.00">Voxel::SmoothFilter</text>
<text text-anchor="middle" x="253" y="-56" font-family="Helvetica,sans-Serif" font-size="10.00">::SmoothFilter</text>
</a>
</g>
</g>
<!-- Node1&#45;&gt;Node5 -->
<g id="edge4" class="edge"><title>Node1&#45;&gt;Node5</title>
<path fill="none" stroke="midnightblue" d="M118.384,-100.782C143.515,-93.8639 175.047,-85.1838 201.167,-77.9933"/>
<polygon fill="midnightblue" stroke="midnightblue" points="117.455,-97.4074 108.743,-103.436 119.313,-104.156 117.455,-97.4074"/>
</g>
<!-- Node6 -->
<g id="node6" class="node"><title>Node6</title>
<g id="a_node6"><a xlink:href="classVoxel_1_1TemporalMedianFilter.xhtml#afc8e595bd3dea027bc1cdfb17a9aa857" target="_top" xlink:title="Voxel::TemporalMedianFilter\l::TemporalMedianFilter">
<polygon fill="none" stroke="black" points="182.5,-0 182.5,-30 323.5,-30 323.5,-0 182.5,-0"/>
<text text-anchor="start" x="190.5" y="-18" font-family="Helvetica,sans-Serif" font-size="10.00">Voxel::TemporalMedianFilter</text>
<text text-anchor="middle" x="253" y="-7" font-family="Helvetica,sans-Serif" font-size="10.00">::TemporalMedianFilter</text>
</a>
</g>
</g>
<!-- Node1&#45;&gt;Node6 -->
<g id="edge5" class="edge"><title>Node1&#45;&gt;Node6</title>
<path fill="none" stroke="midnightblue" d="M94.1501,-97.1025C115.157,-81.0893 149.493,-56.4596 182,-40 189.138,-36.3858 196.924,-33.0558 204.626,-30.0844"/>
<polygon fill="midnightblue" stroke="midnightblue" points="91.7841,-94.5074 86.0074,-103.389 96.0618,-100.048 91.7841,-94.5074"/>
</g>
</g>
</svg>
