<?xml version="1.0" encoding="UTF-8" standalone="no"?>
<!DOCTYPE svg PUBLIC "-//W3C//DTD SVG 1.1//EN"
 "http://www.w3.org/Graphics/SVG/1.1/DTD/svg11.dtd">
<!-- Generated by graphviz version 2.36.0 (20140111.2315)
 -->
<!-- Title: Voxel::VideoMode::getFrameRate Pages: 1 -->
<!--zoomable 505 -->
<svg id="main" version="1.1" xmlns="http://www.w3.org/2000/svg" xmlns:xlink="http://www.w3.org/1999/xlink" xml:space="preserve" onload="init(evt)">
<style type="text/css"><![CDATA[
.edge:hover path { stroke: red; }
.edge:hover polygon { stroke: red; fill: red; }
]]></style>
<script type="text/javascript"><![CDATA[
var edges = document.getElementsByTagName('g');
if (edges && edges.length) {
  for (var i=0;i<edges.length;i++) {
    if (edges[i].id.substr(0,4)=='edge') {
      edges[i].setAttribute('class','edge');
    }
  }
}
]]></script>
        <defs>
                <circle id="rim" cx="0" cy="0" r="7"/>
                <circle id="rim2" cx="0" cy="0" r="3.5"/>
                <g id="zoomPlus">
                        <use xlink:href="#rim" fill="#404040">
                                <set attributeName="fill" to="#808080" begin="zoomplus.mouseover" end="zoomplus.mouseout"/>
                        </use>
                        <path d="M-4,0h8M0,-4v8" fill="none" stroke="white" stroke-width="1.5" pointer-events="none"/>
                </g>
                <g id="zoomMin">
                        <use xlink:href="#rim" fill="#404040">
                                <set attributeName="fill" to="#808080" begin="zoomminus.mouseover" end="zoomminus.mouseout"/>
                        </use>
                        <path d="M-4,0h8" fill="none" stroke="white" stroke-width="1.5" pointer-events="none"/>
                </g>
                <g id="dirArrow">
                        <path fill="none" stroke="white" stroke-width="1.5" d="M0,-3.0v7 M-2.5,-0.5L0,-3.0L2.5,-0.5"/>
                </g>
               <g id="resetDef">
                       <use xlink:href="#rim2" fill="#404040">
                               <set attributeName="fill" to="#808080" begin="reset.mouseover" end="reset.mouseout"/>
                       </use>
               </g>
        </defs>

<script type="text/javascript">
var viewWidth = 750;
var viewHeight = 505;
var sectionId = 'dynsection-3';
</script>
<script xlink:href="svgpan.js"/>
<svg id="graph" class="graph">
<g id="viewport">
<title>Voxel::VideoMode::getFrameRate</title>
<!-- Node1 -->
<g id="node1" class="node"><title>Node1</title>
<polygon fill="#bfbfbf" stroke="black" points="0,-357.5 0,-376.5 164,-376.5 164,-357.5 0,-357.5"/>
<text text-anchor="middle" x="82" y="-364.5" font-family="Helvetica,sans-Serif" font-size="10.00">Voxel::VideoMode::getFrameRate</text>
</g>
<!-- Node2 -->
<g id="node2" class="node"><title>Node2</title>
<g id="a_node2"><a xlink:href="classVoxel_1_1TI_1_1ToFCameraBase.xhtml#a4c7e80209e0a350ec9cfb601e7ec75e2" target="_top" xlink:title="Voxel::TI::ToFCameraBase\l::_onReset">
<polygon fill="none" stroke="black" points="200.5,-467 200.5,-497 337.5,-497 337.5,-467 200.5,-467"/>
<text text-anchor="start" x="208.5" y="-485" font-family="Helvetica,sans-Serif" font-size="10.00">Voxel::TI::ToFCameraBase</text>
<text text-anchor="middle" x="269" y="-474" font-family="Helvetica,sans-Serif" font-size="10.00">::_onReset</text>
</a>
</g>
</g>
<!-- Node1&#45;&gt;Node2 -->
<g id="edge1" class="edge"><title>Node1&#45;&gt;Node2</title>
<path fill="none" stroke="midnightblue" d="M100.728,-383.437C122.659,-403.08 161.795,-435.93 200,-457 206.608,-460.645 213.855,-463.954 221.076,-466.885"/>
<polygon fill="midnightblue" stroke="midnightblue" points="102.96,-380.736 93.2027,-376.607 98.2556,-385.919 102.96,-380.736"/>
</g>
<!-- Node3 -->
<g id="node3" class="node"><title>Node3</title>
<g id="a_node3"><a xlink:href="classVoxel_1_1TI_1_1ToFCameraBase.xhtml#a3a536998145a2cab4265de9e342a5920" target="_top" xlink:title="Voxel::TI::ToFCameraBase\l::_start">
<polygon fill="none" stroke="black" points="200.5,-418 200.5,-448 337.5,-448 337.5,-418 200.5,-418"/>
<text text-anchor="start" x="208.5" y="-436" font-family="Helvetica,sans-Serif" font-size="10.00">Voxel::TI::ToFCameraBase</text>
<text text-anchor="middle" x="269" y="-425" font-family="Helvetica,sans-Serif" font-size="10.00">::_start</text>
</a>
</g>
</g>
<!-- Node1&#45;&gt;Node3 -->
<g id="edge2" class="edge"><title>Node1&#45;&gt;Node3</title>
<path fill="none" stroke="midnightblue" d="M119.321,-379.958C149.855,-390.851 193.537,-406.435 225.654,-417.893"/>
<polygon fill="midnightblue" stroke="midnightblue" points="120.495,-376.661 109.901,-376.597 118.143,-383.254 120.495,-376.661"/>
</g>
<!-- Node4 -->
<g id="node4" class="node"><title>Node4</title>
<g id="a_node4"><a xlink:href="classVoxel_1_1CLIManager.xhtml#a1caa7d89cf577f4728a114e78d1a5ba3" target="_top" xlink:title="Voxel::CLIManager::\l_videoMode">
<polygon fill="none" stroke="black" points="431.5,-374 431.5,-404 538.5,-404 538.5,-374 431.5,-374"/>
<text text-anchor="start" x="439.5" y="-392" font-family="Helvetica,sans-Serif" font-size="10.00">Voxel::CLIManager::</text>
<text text-anchor="middle" x="485" y="-381" font-family="Helvetica,sans-Serif" font-size="10.00">_videoMode</text>
</a>
</g>
</g>
<!-- Node1&#45;&gt;Node4 -->
<g id="edge3" class="edge"><title>Node1&#45;&gt;Node4</title>
<path fill="none" stroke="midnightblue" d="M174.156,-372.001C253.61,-376.36 366.068,-382.53 431.38,-386.113"/>
<polygon fill="midnightblue" stroke="midnightblue" points="174.325,-368.505 164.148,-371.452 173.942,-375.495 174.325,-368.505"/>
</g>
<!-- Node6 -->
<g id="node6" class="node"><title>Node6</title>
<g id="a_node6"><a xlink:href="classVoxel_1_1CLIManager.xhtml#a2672bb26d3423d3cc587f7871a4741cd" target="_top" xlink:title="Voxel::CLIManager::\l_videoModeCapabilities">
<polygon fill="none" stroke="black" points="209,-330 209,-360 329,-360 329,-330 209,-330"/>
<text text-anchor="start" x="217" y="-348" font-family="Helvetica,sans-Serif" font-size="10.00">Voxel::CLIManager::</text>
<text text-anchor="middle" x="269" y="-337" font-family="Helvetica,sans-Serif" font-size="10.00">_videoModeCapabilities</text>
</a>
</g>
</g>
<!-- Node1&#45;&gt;Node6 -->
<g id="edge5" class="edge"><title>Node1&#45;&gt;Node6</title>
<path fill="none" stroke="midnightblue" d="M173.178,-356.276C185.249,-354.841 197.374,-353.399 208.728,-352.049"/>
<polygon fill="midnightblue" stroke="midnightblue" points="172.584,-352.822 163.068,-357.478 173.411,-359.773 172.584,-352.822"/>
</g>
<!-- Node7 -->
<g id="node7" class="node"><title>Node7</title>
<g id="a_node7"><a xlink:href="UVCStreamerTest_8cpp.xhtml#a0ddf1224851353fc92bfbff6f499fa97" target="_top" xlink:title="main">
<polygon fill="none" stroke="black" points="466,-294.5 466,-313.5 504,-313.5 504,-294.5 466,-294.5"/>
<text text-anchor="middle" x="485" y="-301.5" font-family="Helvetica,sans-Serif" font-size="10.00">main</text>
</a>
</g>
</g>
<!-- Node1&#45;&gt;Node7 -->
<g id="edge8" class="edge"><title>Node1&#45;&gt;Node7</title>
<path fill="none" stroke="midnightblue" d="M111.117,-353.036C134.338,-342.224 168.483,-327.955 200,-321 298.396,-299.287 420.316,-301.384 465.786,-303.132"/>
<polygon fill="midnightblue" stroke="midnightblue" points="109.405,-349.975 101.874,-357.427 112.408,-356.297 109.405,-349.975"/>
</g>
<!-- Node8 -->
<g id="node8" class="node"><title>Node8</title>
<g id="a_node8"><a xlink:href="classVoxel_1_1UVCStreamer.xhtml#a7babd2f4cbe6152499b4c49b0137b6b4" target="_top" xlink:title="Voxel::UVCStreamer\l::setVideoMode">
<polygon fill="none" stroke="black" points="214.5,-171 214.5,-201 323.5,-201 323.5,-171 214.5,-171"/>
<text text-anchor="start" x="222.5" y="-189" font-family="Helvetica,sans-Serif" font-size="10.00">Voxel::UVCStreamer</text>
<text text-anchor="middle" x="269" y="-178" font-family="Helvetica,sans-Serif" font-size="10.00">::setVideoMode</text>
</a>
</g>
</g>
<!-- Node1&#45;&gt;Node8 -->
<g id="edge9" class="edge"><title>Node1&#45;&gt;Node8</title>
<path fill="none" stroke="midnightblue" d="M100.249,-350.124C136.112,-315.036 218.23,-234.694 252.515,-201.15"/>
<polygon fill="midnightblue" stroke="midnightblue" points="97.6467,-347.773 92.9464,-357.269 102.542,-352.777 97.6467,-347.773"/>
</g>
<!-- Node5 -->
<g id="node5" class="node"><title>Node5</title>
<g id="a_node5"><a xlink:href="classVoxel_1_1CLIManager.xhtml#a7a7ce51202c00d16a0e1cac5dcceb1e0" target="_top" xlink:title="Voxel::CLIManager::\lCLIManager">
<polygon fill="none" stroke="black" points="633.5,-352 633.5,-382 740.5,-382 740.5,-352 633.5,-352"/>
<text text-anchor="start" x="641.5" y="-370" font-family="Helvetica,sans-Serif" font-size="10.00">Voxel::CLIManager::</text>
<text text-anchor="middle" x="687" y="-359" font-family="Helvetica,sans-Serif" font-size="10.00">CLIManager</text>
</a>
</g>
</g>
<!-- Node4&#45;&gt;Node5 -->
<g id="edge4" class="edge"><title>Node4&#45;&gt;Node5</title>
<path fill="none" stroke="midnightblue" d="M548.75,-382.097C575.973,-379.103 607.493,-375.636 633.456,-372.78"/>
<polygon fill="midnightblue" stroke="midnightblue" points="548.105,-378.647 538.548,-383.22 548.87,-385.605 548.105,-378.647"/>
</g>
<!-- Node6&#45;&gt;Node4 -->
<g id="edge6" class="edge"><title>Node6&#45;&gt;Node4</title>
<path fill="none" stroke="midnightblue" d="M339.013,-359.19C368.978,-365.351 403.51,-372.451 431.355,-378.176"/>
<polygon fill="midnightblue" stroke="midnightblue" points="339.543,-355.725 329.043,-357.14 338.133,-362.582 339.543,-355.725"/>
</g>
<!-- Node6&#45;&gt;Node5 -->
<g id="edge7" class="edge"><title>Node6&#45;&gt;Node5</title>
<path fill="none" stroke="midnightblue" d="M339.226,-348.661C421.983,-353.038 558.636,-360.264 633.294,-364.213"/>
<polygon fill="midnightblue" stroke="midnightblue" points="339.332,-345.162 329.161,-348.129 338.962,-352.152 339.332,-345.162"/>
</g>
<!-- Node8&#45;&gt;Node7 -->
<g id="edge16" class="edge"><title>Node8&#45;&gt;Node7</title>
<path fill="none" stroke="midnightblue" d="M287.536,-208.944C306.325,-231.786 338.304,-265.967 374,-284 403.799,-299.054 443.211,-302.907 465.867,-303.815"/>
<polygon fill="midnightblue" stroke="midnightblue" points="290.22,-206.696 281.229,-201.092 284.763,-211.08 290.22,-206.696"/>
</g>
<!-- Node9 -->
<g id="node9" class="node"><title>Node9</title>
<g id="a_node9"><a xlink:href="classVoxel_1_1UVCStreamer.xhtml#acc806ec3fc0f1e55739a844a0ff0f3c0" target="_top" xlink:title="Voxel::UVCStreamer\l::_initForCapture">
<polygon fill="none" stroke="black" points="430.5,-245 430.5,-275 539.5,-275 539.5,-245 430.5,-245"/>
<text text-anchor="start" x="438.5" y="-263" font-family="Helvetica,sans-Serif" font-size="10.00">Voxel::UVCStreamer</text>
<text text-anchor="middle" x="485" y="-252" font-family="Helvetica,sans-Serif" font-size="10.00">::_initForCapture</text>
</a>
</g>
</g>
<!-- Node8&#45;&gt;Node9 -->
<g id="edge10" class="edge"><title>Node8&#45;&gt;Node9</title>
<path fill="none" stroke="midnightblue" d="M306.716,-205.692C326.267,-215.56 350.973,-227.064 374,-235 392.053,-241.222 412.31,-246.33 430.474,-250.272"/>
<polygon fill="midnightblue" stroke="midnightblue" points="308.058,-202.447 297.562,-201.003 304.866,-208.677 308.058,-202.447"/>
</g>
<!-- Node11 -->
<g id="node11" class="node"><title>Node11</title>
<g id="a_node11"><a xlink:href="classVoxel_1_1TI_1_1RTS5825Camera.xhtml#a317d118004c39f03a181cc5183b7b8ee" target="_top" xlink:title="Voxel::TI::RTS5825Camera\l::_setStreamerFrameSize">
<polygon fill="none" stroke="black" points="416,-196 416,-226 554,-226 554,-196 416,-196"/>
<text text-anchor="start" x="424" y="-214" font-family="Helvetica,sans-Serif" font-size="10.00">Voxel::TI::RTS5825Camera</text>
<text text-anchor="middle" x="485" y="-203" font-family="Helvetica,sans-Serif" font-size="10.00">::_setStreamerFrameSize</text>
</a>
</g>
</g>
<!-- Node8&#45;&gt;Node11 -->
<g id="edge12" class="edge"><title>Node8&#45;&gt;Node11</title>
<path fill="none" stroke="midnightblue" d="M333.767,-193.449C359.564,-196.463 389.392,-199.948 415.637,-203.014"/>
<polygon fill="midnightblue" stroke="midnightblue" points="334.064,-189.96 323.725,-192.276 333.251,-196.913 334.064,-189.96"/>
</g>
<!-- Node12 -->
<g id="node12" class="node"><title>Node12</title>
<g id="a_node12"><a xlink:href="classVoxel_1_1TI_1_1Voxel14Camera.xhtml#afeb9b488760b3c32cf6d5decb25bfdcf" target="_top" xlink:title="Voxel::TI::Voxel14Camera\l::_setStreamerFrameSize">
<polygon fill="none" stroke="black" points="419,-147 419,-177 551,-177 551,-147 419,-147"/>
<text text-anchor="start" x="427" y="-165" font-family="Helvetica,sans-Serif" font-size="10.00">Voxel::TI::Voxel14Camera</text>
<text text-anchor="middle" x="485" y="-154" font-family="Helvetica,sans-Serif" font-size="10.00">::_setStreamerFrameSize</text>
</a>
</g>
</g>
<!-- Node8&#45;&gt;Node12 -->
<g id="edge13" class="edge"><title>Node8&#45;&gt;Node12</title>
<path fill="none" stroke="midnightblue" d="M333.778,-178.847C360.612,-175.838 391.804,-172.34 418.79,-169.313"/>
<polygon fill="midnightblue" stroke="midnightblue" points="333.273,-175.382 323.725,-179.975 334.053,-182.338 333.273,-175.382"/>
</g>
<!-- Node13 -->
<g id="node13" class="node"><title>Node13</title>
<g id="a_node13"><a xlink:href="classVoxel_1_1TI_1_1VoxelDCamera.xhtml#aa13368de49716d5ec7ed82df1010a6b0" target="_top" xlink:title="Voxel::TI::VoxelDCamera\l::_setStreamerFrameSize">
<polygon fill="none" stroke="black" points="420.5,-98 420.5,-128 549.5,-128 549.5,-98 420.5,-98"/>
<text text-anchor="start" x="428.5" y="-116" font-family="Helvetica,sans-Serif" font-size="10.00">Voxel::TI::VoxelDCamera</text>
<text text-anchor="middle" x="485" y="-105" font-family="Helvetica,sans-Serif" font-size="10.00">::_setStreamerFrameSize</text>
</a>
</g>
</g>
<!-- Node8&#45;&gt;Node13 -->
<g id="edge14" class="edge"><title>Node8&#45;&gt;Node13</title>
<path fill="none" stroke="midnightblue" d="M307.59,-166.335C327.019,-156.771 351.35,-145.706 374,-138 388.74,-132.985 404.933,-128.674 420.256,-125.113"/>
<polygon fill="midnightblue" stroke="midnightblue" points="305.856,-163.289 298.474,-170.889 308.984,-169.551 305.856,-163.289"/>
</g>
<!-- Node14 -->
<g id="node14" class="node"><title>Node14</title>
<g id="a_node14"><a xlink:href="classVoxel_1_1TI_1_1TintinCDKCamera.xhtml#a2ffbaceb53ded2b382116ac66b787698" target="_top" xlink:title="Voxel::TI::TintinCDKCamera\l::_setStreamerFrameSize">
<polygon fill="none" stroke="black" points="413.5,-49 413.5,-79 556.5,-79 556.5,-49 413.5,-49"/>
<text text-anchor="start" x="421.5" y="-67" font-family="Helvetica,sans-Serif" font-size="10.00">Voxel::TI::TintinCDKCamera</text>
<text text-anchor="middle" x="485" y="-56" font-family="Helvetica,sans-Serif" font-size="10.00">::_setStreamerFrameSize</text>
</a>
</g>
</g>
<!-- Node8&#45;&gt;Node14 -->
<g id="edge15" class="edge"><title>Node8&#45;&gt;Node14</title>
<path fill="none" stroke="midnightblue" d="M287.983,-162.936C306.917,-140.299 338.82,-106.551 374,-88 386.103,-81.6179 399.812,-76.9316 413.343,-73.4909"/>
<polygon fill="midnightblue" stroke="midnightblue" points="285.234,-160.768 281.612,-170.724 290.652,-165.2 285.234,-160.768"/>
</g>
<!-- Node15 -->
<g id="node15" class="node"><title>Node15</title>
<g id="a_node15"><a xlink:href="classVoxel_1_1TI_1_1RTS5825CameraUVCStreamer.xhtml#a1fa44ca04c55a5013030131ee76aa776" target="_top" xlink:title="Voxel::TI::RTS5825Camera\lUVCStreamer::RTS5825CameraUVCStreamer">
<polygon fill="none" stroke="black" points="374.5,-0 374.5,-30 595.5,-30 595.5,-0 374.5,-0"/>
<text text-anchor="start" x="382.5" y="-18" font-family="Helvetica,sans-Serif" font-size="10.00">Voxel::TI::RTS5825Camera</text>
<text text-anchor="middle" x="485" y="-7" font-family="Helvetica,sans-Serif" font-size="10.00">UVCStreamer::RTS5825CameraUVCStreamer</text>
</a>
</g>
</g>
<!-- Node8&#45;&gt;Node15 -->
<g id="edge17" class="edge"><title>Node8&#45;&gt;Node15</title>
<path fill="none" stroke="midnightblue" d="M280.493,-161.213C295.912,-127.943 327.939,-69.504 374,-39 379.215,-35.5464 384.845,-32.5812 390.705,-30.0362"/>
<polygon fill="midnightblue" stroke="midnightblue" points="277.149,-160.116 276.243,-170.672 283.534,-162.984 277.149,-160.116"/>
</g>
<!-- Node10 -->
<g id="node10" class="node"><title>Node10</title>
<g id="a_node10"><a xlink:href="classVoxel_1_1UVCStreamer.xhtml#a3bf08c2dd6922d8e4a44a63840095d97" target="_top" xlink:title="Voxel::UVCStreamer\l::_start">
<polygon fill="none" stroke="black" points="632.5,-245 632.5,-275 741.5,-275 741.5,-245 632.5,-245"/>
<text text-anchor="start" x="640.5" y="-263" font-family="Helvetica,sans-Serif" font-size="10.00">Voxel::UVCStreamer</text>
<text text-anchor="middle" x="687" y="-252" font-family="Helvetica,sans-Serif" font-size="10.00">::_start</text>
</a>
</g>
</g>
<!-- Node9&#45;&gt;Node10 -->
<g id="edge11" class="edge"><title>Node9&#45;&gt;Node10</title>
<path fill="none" stroke="midnightblue" d="M549.933,-260C576.463,-260 606.903,-260 632.256,-260"/>
<polygon fill="midnightblue" stroke="midnightblue" points="549.596,-256.5 539.596,-260 549.596,-263.5 549.596,-256.5"/>
</g>
</g>
</svg>
        <g id="navigator" transform="translate(0 0)" fill="#404254">
                <rect fill="#f2f5e9" fill-opacity="0.5" stroke="#606060" stroke-width=".5" x="0" y="0" width="60" height="60"/>
                <use id="zoomplus" xlink:href="#zoomPlus" x="17" y="9" onmousedown="handleZoom(evt,'in')"/>
                <use id="zoomminus" xlink:href="#zoomMin" x="42" y="9" onmousedown="handleZoom(evt,'out')"/>
                <use id="reset" xlink:href="#resetDef" x="30" y="36" onmousedown="handleReset()"/>
                <g id="arrowUp" xlink:href="#dirArrow" transform="translate(30 24)" onmousedown="handlePan(0,-1)">
                  <use xlink:href="#rim" fill="#404040">
                        <set attributeName="fill" to="#808080" begin="arrowUp.mouseover" end="arrowUp.mouseout"/>
                  </use>
                  <path fill="none" stroke="white" stroke-width="1.5" d="M0,-3.0v7 M-2.5,-0.5L0,-3.0L2.5,-0.5"/>
                </g>
                <g id="arrowRight" xlink:href="#dirArrow" transform="rotate(90) translate(36 -43)" onmousedown="handlePan(1,0)">
                  <use xlink:href="#rim" fill="#404040">
                        <set attributeName="fill" to="#808080" begin="arrowRight.mouseover" end="arrowRight.mouseout"/>
                  </use>
                  <path fill="none" stroke="white" stroke-width="1.5" d="M0,-3.0v7 M-2.5,-0.5L0,-3.0L2.5,-0.5"/>
                </g>
                <g id="arrowDown" xlink:href="#dirArrow" transform="rotate(180) translate(-30 -48)" onmousedown="handlePan(0,1)">
                  <use xlink:href="#rim" fill="#404040">
                        <set attributeName="fill" to="#808080" begin="arrowDown.mouseover" end="arrowDown.mouseout"/>
                  </use>
                  <path fill="none" stroke="white" stroke-width="1.5" d="M0,-3.0v7 M-2.5,-0.5L0,-3.0L2.5,-0.5"/>
                </g>
                <g id="arrowLeft" xlink:href="#dirArrow" transform="rotate(270) translate(-36 17)" onmousedown="handlePan(-1,0)">
                  <use xlink:href="#rim" fill="#404040">
                        <set attributeName="fill" to="#808080" begin="arrowLeft.mouseover" end="arrowLeft.mouseout"/>
                  </use>
                  <path fill="none" stroke="white" stroke-width="1.5" d="M0,-3.0v7 M-2.5,-0.5L0,-3.0L2.5,-0.5"/>
                </g>
        </g>
        <svg viewBox="0 0 15 15" width="100%" height="30px" preserveAspectRatio="xMaxYMin meet">
         <g id="arrow_out" transform="scale(0.3 0.3)">
          <a xlink:href="classVoxel_1_1VideoMode_a99b3955c15011399b66cbf609afdbacb_icgraph_org.svg" target="_base">
           <rect id="button" ry="5" rx="5" y="6" x="6" height="38" width="38"
                fill="#f2f5e9" fill-opacity="0.5" stroke="#606060" stroke-width="1.0"/>
           <path id="arrow"
             d="M 11.500037,31.436501 C 11.940474,20.09759 22.043105,11.32322 32.158766,21.979434 L 37.068811,17.246167 C 37.068811,17.246167 37.088388,32 37.088388,32 L 22.160133,31.978069 C 22.160133,31.978069 26.997745,27.140456 26.997745,27.140456 C 18.528582,18.264221 13.291696,25.230495 11.500037,31.436501 z"
             style="fill:#404040;"/>
          </a>
         </g>
        </svg>
</svg>
