<?xml version="1.0" encoding="UTF-8" standalone="no"?>
<!DOCTYPE svg PUBLIC "-//W3C//DTD SVG 1.1//EN"
 "http://www.w3.org/Graphics/SVG/1.1/DTD/svg11.dtd">
<!-- Generated by graphviz version 2.36.0 (20140111.2315)
 -->
<!-- Title: Voxel::PCLGrabber::PCLGrabber Pages: 1 -->
<svg width="454pt" height="87pt"
 viewBox="0.00 0.00 454.00 87.00" xmlns="http://www.w3.org/2000/svg" xmlns:xlink="http://www.w3.org/1999/xlink">
<g id="graph0" class="graph" transform="scale(1 1) rotate(0) translate(4 83)">
<title>Voxel::PCLGrabber::PCLGrabber</title>
<!-- Node1 -->
<g id="node1" class="node"><title>Node1</title>
<polygon fill="#bfbfbf" stroke="black" points="0.5,-24 0.5,-54 107.5,-54 107.5,-24 0.5,-24"/>
<text text-anchor="start" x="8.5" y="-42" font-family="Helvetica,sans-Serif" font-size="10.00">Voxel::PCLGrabber::</text>
<text text-anchor="middle" x="54" y="-31" font-family="Helvetica,sans-Serif" font-size="10.00">PCLGrabber</text>
</g>
<!-- Node2 -->
<g id="node2" class="node"><title>Node2</title>
<g id="a_node2"><a xlink:href="classVoxel_1_1PCLGrabber.xhtml#a75f4b6ad255767769f0156150b7699ec" target="_top" xlink:title="Voxel::PCLGrabber::\l_callback">
<polygon fill="none" stroke="black" points="144.5,-49 144.5,-79 251.5,-79 251.5,-49 144.5,-49"/>
<text text-anchor="start" x="152.5" y="-67" font-family="Helvetica,sans-Serif" font-size="10.00">Voxel::PCLGrabber::</text>
<text text-anchor="middle" x="198" y="-56" font-family="Helvetica,sans-Serif" font-size="10.00">_callback</text>
</a>
</g>
</g>
<!-- Node1&#45;&gt;Node2 -->
<g id="edge1" class="edge"><title>Node1&#45;&gt;Node2</title>
<path fill="none" stroke="midnightblue" d="M107.876,-48.3091C116.377,-49.8058 125.25,-51.3679 133.961,-52.9015"/>
<polygon fill="midnightblue" stroke="midnightblue" points="133.625,-56.3962 144.08,-54.6831 134.839,-49.5022 133.625,-56.3962"/>
</g>
<!-- Node4 -->
<g id="node4" class="node"><title>Node4</title>
<g id="a_node4"><a xlink:href="classVoxel_1_1DepthCamera.xhtml#a76b787f9ef331cf412c8c6d8a2aa330e" target="_top" xlink:title="Voxel::DepthCamera\l::registerCallback">
<polygon fill="none" stroke="black" points="144,-0 144,-30 252,-30 252,-0 144,-0"/>
<text text-anchor="start" x="152" y="-18" font-family="Helvetica,sans-Serif" font-size="10.00">Voxel::DepthCamera</text>
<text text-anchor="middle" x="198" y="-7" font-family="Helvetica,sans-Serif" font-size="10.00">::registerCallback</text>
</a>
</g>
</g>
<!-- Node1&#45;&gt;Node4 -->
<g id="edge3" class="edge"><title>Node1&#45;&gt;Node4</title>
<path fill="none" stroke="midnightblue" d="M107.876,-30.0633C116.264,-28.6456 125.013,-27.1668 133.612,-25.7134"/>
<polygon fill="midnightblue" stroke="midnightblue" points="134.33,-29.1419 143.607,-24.0242 133.163,-22.2397 134.33,-29.1419"/>
</g>
<!-- Node3 -->
<g id="node3" class="node"><title>Node3</title>
<g id="a_node3"><a xlink:href="classVoxel_1_1FrameBufferManager.xhtml#a1ee65c5853ea7548e9d122de95f59cf5" target="_top" xlink:title="Voxel::FrameBufferManager::get">
<polygon fill="none" stroke="black" points="288,-54.5 288,-73.5 446,-73.5 446,-54.5 288,-54.5"/>
<text text-anchor="middle" x="367" y="-61.5" font-family="Helvetica,sans-Serif" font-size="10.00">Voxel::FrameBufferManager::get</text>
</a>
</g>
</g>
<!-- Node2&#45;&gt;Node3 -->
<g id="edge2" class="edge"><title>Node2&#45;&gt;Node3</title>
<path fill="none" stroke="midnightblue" d="M251.84,-64C260.171,-64 268.976,-64 277.85,-64"/>
<polygon fill="midnightblue" stroke="midnightblue" points="277.879,-67.5001 287.879,-64 277.878,-60.5001 277.879,-67.5001"/>
</g>
<!-- Node5 -->
<g id="node5" class="node"><title>Node5</title>
<g id="a_node5"><a xlink:href="classVoxel_1_1DepthCamera.xhtml#ad9fa96ac56384c771fcdfcc76c0e3b2b" target="_top" xlink:title="Voxel::DepthCamera::id">
<polygon fill="none" stroke="black" points="306,-5.5 306,-24.5 428,-24.5 428,-5.5 306,-5.5"/>
<text text-anchor="middle" x="367" y="-12.5" font-family="Helvetica,sans-Serif" font-size="10.00">Voxel::DepthCamera::id</text>
</a>
</g>
</g>
<!-- Node4&#45;&gt;Node5 -->
<g id="edge4" class="edge"><title>Node4&#45;&gt;Node5</title>
<path fill="none" stroke="midnightblue" d="M252.299,-15C266.048,-15 281.061,-15 295.537,-15"/>
<polygon fill="midnightblue" stroke="midnightblue" points="295.957,-18.5001 305.957,-15 295.957,-11.5001 295.957,-18.5001"/>
</g>
</g>
</svg>
