<?xml version="1.0" encoding="UTF-8" standalone="no"?>
<!DOCTYPE svg PUBLIC "-//W3C//DTD SVG 1.1//EN"
 "http://www.w3.org/Graphics/SVG/1.1/DTD/svg11.dtd">
<!-- Generated by graphviz version 2.36.0 (20140111.2315)
 -->
<!-- Title: Voxel::PointCloudTransform::_computeClippingPlanes Pages: 1 -->
<svg width="346pt" height="126pt"
 viewBox="0.00 0.00 346.00 126.00" xmlns="http://www.w3.org/2000/svg" xmlns:xlink="http://www.w3.org/1999/xlink">
<g id="graph0" class="graph" transform="scale(1 1) rotate(0) translate(4 122)">
<title>Voxel::PointCloudTransform::_computeClippingPlanes</title>
<!-- Node1 -->
<g id="node1" class="node"><title>Node1</title>
<polygon fill="#bfbfbf" stroke="black" points="0,-39 0,-69 140,-69 140,-39 0,-39"/>
<text text-anchor="start" x="8" y="-57" font-family="Helvetica,sans-Serif" font-size="10.00">Voxel::PointCloudTransform</text>
<text text-anchor="middle" x="70" y="-46" font-family="Helvetica,sans-Serif" font-size="10.00">::_computeClippingPlanes</text>
</g>
<!-- Node2 -->
<g id="node2" class="node"><title>Node2</title>
<g id="a_node2"><a xlink:href="classVoxel_1_1PointCloudTransform.xhtml#a9b7d7e7da98f4a59601c7ff82d6f4574" target="_top" xlink:title="Voxel::PointCloudTransform\l::_normalizedScreenToUnitWorld">
<polygon fill="none" stroke="black" points="176.5,-88 176.5,-118 337.5,-118 337.5,-88 176.5,-88"/>
<text text-anchor="start" x="184.5" y="-106" font-family="Helvetica,sans-Serif" font-size="10.00">Voxel::PointCloudTransform</text>
<text text-anchor="middle" x="257" y="-95" font-family="Helvetica,sans-Serif" font-size="10.00">::_normalizedScreenToUnitWorld</text>
</a>
</g>
</g>
<!-- Node1&#45;&gt;Node2 -->
<g id="edge1" class="edge"><title>Node1&#45;&gt;Node2</title>
<path fill="none" stroke="midnightblue" d="M127.763,-69.0346C147.297,-74.2083 169.343,-80.0475 189.576,-85.4066"/>
<polygon fill="midnightblue" stroke="midnightblue" points="188.781,-88.8167 199.344,-87.9938 190.573,-82.05 188.781,-88.8167"/>
</g>
<!-- Node3 -->
<g id="node3" class="node"><title>Node3</title>
<g id="a_node3"><a xlink:href="classVoxel_1_1PointCloudTransform.xhtml#adfcedf51d50b5173b1fdbb6e92da438f" target="_top" xlink:title="Voxel::PointCloudTransform\l::_screenToNormalizedScreen">
<polygon fill="none" stroke="black" points="182.5,-39 182.5,-69 331.5,-69 331.5,-39 182.5,-39"/>
<text text-anchor="start" x="190.5" y="-57" font-family="Helvetica,sans-Serif" font-size="10.00">Voxel::PointCloudTransform</text>
<text text-anchor="middle" x="257" y="-46" font-family="Helvetica,sans-Serif" font-size="10.00">::_screenToNormalizedScreen</text>
</a>
</g>
</g>
<!-- Node1&#45;&gt;Node3 -->
<g id="edge2" class="edge"><title>Node1&#45;&gt;Node3</title>
<path fill="none" stroke="midnightblue" d="M140.15,-54C150.572,-54 161.417,-54 172.107,-54"/>
<polygon fill="midnightblue" stroke="midnightblue" points="172.29,-57.5001 182.29,-54 172.29,-50.5001 172.29,-57.5001"/>
</g>
<!-- Node4 -->
<g id="node4" class="node"><title>Node4</title>
<g id="a_node4"><a xlink:href="group__Frm.xhtml#gac16545a9c8de820f61d87c0599ebb984" target="_top" xlink:title="Voxel::Point::cross">
<polygon fill="none" stroke="black" points="207,-0.5 207,-19.5 307,-19.5 307,-0.5 207,-0.5"/>
<text text-anchor="middle" x="257" y="-7.5" font-family="Helvetica,sans-Serif" font-size="10.00">Voxel::Point::cross</text>
</a>
</g>
</g>
<!-- Node1&#45;&gt;Node4 -->
<g id="edge3" class="edge"><title>Node1&#45;&gt;Node4</title>
<path fill="none" stroke="midnightblue" d="M134.149,-38.9808C157.659,-33.3892 183.991,-27.1265 206.145,-21.8574"/>
<polygon fill="midnightblue" stroke="midnightblue" points="207.086,-25.2313 216.005,-19.5124 205.466,-18.4213 207.086,-25.2313"/>
</g>
</g>
</svg>
