<?xml version="1.0" encoding="UTF-8" standalone="no"?>
<!DOCTYPE svg PUBLIC "-//W3C//DTD SVG 1.1//EN"
 "http://www.w3.org/Graphics/SVG/1.1/DTD/svg11.dtd">
<!-- Generated by graphviz version 2.36.0 (20140111.2315)
 -->
<!-- Title: Voxel::TI::ToFCameraBase Pages: 1 -->
<!--zoomable 218 -->
<svg id="main" version="1.1" xmlns="http://www.w3.org/2000/svg" xmlns:xlink="http://www.w3.org/1999/xlink" xml:space="preserve" onload="init(evt)">
<style type="text/css"><![CDATA[
.edge:hover path { stroke: red; }
.edge:hover polygon { stroke: red; fill: red; }
]]></style>
<script type="text/javascript"><![CDATA[
var edges = document.getElementsByTagName('g');
if (edges && edges.length) {
  for (var i=0;i<edges.length;i++) {
    if (edges[i].id.substr(0,4)=='edge') {
      edges[i].setAttribute('class','edge');
    }
  }
}
]]></script>
        <defs>
                <circle id="rim" cx="0" cy="0" r="7"/>
                <circle id="rim2" cx="0" cy="0" r="3.5"/>
                <g id="zoomPlus">
                        <use xlink:href="#rim" fill="#404040">
                                <set attributeName="fill" to="#808080" begin="zoomplus.mouseover" end="zoomplus.mouseout"/>
                        </use>
                        <path d="M-4,0h8M0,-4v8" fill="none" stroke="white" stroke-width="1.5" pointer-events="none"/>
                </g>
                <g id="zoomMin">
                        <use xlink:href="#rim" fill="#404040">
                                <set attributeName="fill" to="#808080" begin="zoomminus.mouseover" end="zoomminus.mouseout"/>
                        </use>
                        <path d="M-4,0h8" fill="none" stroke="white" stroke-width="1.5" pointer-events="none"/>
                </g>
                <g id="dirArrow">
                        <path fill="none" stroke="white" stroke-width="1.5" d="M0,-3.0v7 M-2.5,-0.5L0,-3.0L2.5,-0.5"/>
                </g>
               <g id="resetDef">
                       <use xlink:href="#rim2" fill="#404040">
                               <set attributeName="fill" to="#808080" begin="reset.mouseover" end="reset.mouseout"/>
                       </use>
               </g>
        </defs>

<script type="text/javascript">
var viewWidth = 824;
var viewHeight = 218;
var sectionId = 'dynsection-0';
</script>
<script xlink:href="svgpan.js"/>
<svg id="graph" class="graph">
<g id="viewport">
<title>Voxel::TI::ToFCameraBase</title>
<!-- Node1 -->
<g id="node1" class="node"><title>Node1</title>
<polygon fill="#bfbfbf" stroke="black" points="144.5,-114.5 144.5,-133.5 281.5,-133.5 281.5,-114.5 144.5,-114.5"/>
<text text-anchor="middle" x="213" y="-121.5" font-family="Helvetica,sans-Serif" font-size="10.00">Voxel::TI::ToFCameraBase</text>
</g>
<!-- Node3 -->
<g id="node3" class="node"><title>Node3</title>
<g id="a_node3"><a xlink:href="classVoxel_1_1TI_1_1ToFCamera.xhtml" target="_top" xlink:title="Voxel::TI::ToFCamera">
<polygon fill="none" stroke="black" points="318,-114.5 318,-133.5 432,-133.5 432,-114.5 318,-114.5"/>
<text text-anchor="middle" x="375" y="-121.5" font-family="Helvetica,sans-Serif" font-size="10.00">Voxel::TI::ToFCamera</text>
</a>
</g>
</g>
<!-- Node1&#45;&gt;Node3 -->
<g id="edge2" class="edge"><title>Node1&#45;&gt;Node3</title>
<path fill="none" stroke="midnightblue" d="M291.978,-124C300.636,-124 309.325,-124 317.639,-124"/>
<polygon fill="midnightblue" stroke="midnightblue" points="291.854,-120.5 281.854,-124 291.854,-127.5 291.854,-120.5"/>
</g>
<!-- Node2 -->
<g id="node2" class="node"><title>Node2</title>
<g id="a_node2"><a xlink:href="classVoxel_1_1DepthCamera.xhtml" target="_top" xlink:title="This is primary class which provides API for a depth camera. ">
<polygon fill="none" stroke="black" points="0,-114.5 0,-133.5 108,-133.5 108,-114.5 0,-114.5"/>
<text text-anchor="middle" x="54" y="-121.5" font-family="Helvetica,sans-Serif" font-size="10.00">Voxel::DepthCamera</text>
</a>
</g>
</g>
<!-- Node2&#45;&gt;Node1 -->
<g id="edge1" class="edge"><title>Node2&#45;&gt;Node1</title>
<path fill="none" stroke="midnightblue" d="M118.157,-124C126.803,-124 135.708,-124 144.428,-124"/>
<polygon fill="midnightblue" stroke="midnightblue" points="118.153,-120.5 108.153,-124 118.153,-127.5 118.153,-120.5"/>
</g>
<!-- Node4 -->
<g id="node4" class="node"><title>Node4</title>
<g id="a_node4"><a xlink:href="classVoxel_1_1TI_1_1ToFCalculusCamera.xhtml" target="_top" xlink:title="Voxel::TI::ToFCalculusCamera">
<polygon fill="none" stroke="black" points="469,-171.5 469,-190.5 621,-190.5 621,-171.5 469,-171.5"/>
<text text-anchor="middle" x="545" y="-178.5" font-family="Helvetica,sans-Serif" font-size="10.00">Voxel::TI::ToFCalculusCamera</text>
</a>
</g>
</g>
<!-- Node3&#45;&gt;Node4 -->
<g id="edge3" class="edge"><title>Node3&#45;&gt;Node4</title>
<path fill="none" stroke="midnightblue" d="M413.702,-136.792C444.644,-147.29 487.772,-161.923 515.789,-171.428"/>
<polygon fill="midnightblue" stroke="midnightblue" points="414.714,-133.439 404.119,-133.541 412.465,-140.068 414.714,-133.439"/>
</g>
<!-- Node6 -->
<g id="node6" class="node"><title>Node6</title>
<g id="a_node6"><a xlink:href="classVoxel_1_1TI_1_1ToFHaddockCamera.xhtml" target="_top" xlink:title="Voxel::TI::ToFHaddockCamera">
<polygon fill="none" stroke="black" points="468.5,-114.5 468.5,-133.5 621.5,-133.5 621.5,-114.5 468.5,-114.5"/>
<text text-anchor="middle" x="545" y="-121.5" font-family="Helvetica,sans-Serif" font-size="10.00">Voxel::TI::ToFHaddockCamera</text>
</a>
</g>
</g>
<!-- Node3&#45;&gt;Node6 -->
<g id="edge5" class="edge"><title>Node3&#45;&gt;Node6</title>
<path fill="none" stroke="midnightblue" d="M442.582,-124C451.043,-124 459.751,-124 468.341,-124"/>
<polygon fill="midnightblue" stroke="midnightblue" points="442.409,-120.5 432.409,-124 442.409,-127.5 442.409,-120.5"/>
</g>
<!-- Node10 -->
<g id="node10" class="node"><title>Node10</title>
<g id="a_node10"><a xlink:href="classVoxel_1_1TI_1_1ToFTintinCamera.xhtml" target="_top" xlink:title="Voxel::TI::ToFTintinCamera">
<polygon fill="none" stroke="black" points="476,-38.5 476,-57.5 614,-57.5 614,-38.5 476,-38.5"/>
<text text-anchor="middle" x="545" y="-45.5" font-family="Helvetica,sans-Serif" font-size="10.00">Voxel::TI::ToFTintinCamera</text>
</a>
</g>
</g>
<!-- Node3&#45;&gt;Node10 -->
<g id="edge9" class="edge"><title>Node3&#45;&gt;Node10</title>
<path fill="none" stroke="midnightblue" d="M406.642,-110.138C440.337,-94.8952 493.577,-70.8104 522.895,-57.5473"/>
<polygon fill="midnightblue" stroke="midnightblue" points="404.946,-107.064 397.277,-114.375 407.831,-113.442 404.946,-107.064"/>
</g>
<!-- Node5 -->
<g id="node5" class="node"><title>Node5</title>
<g id="a_node5"><a xlink:href="classVoxel_1_1TI_1_1CalculusCDKCamera.xhtml" target="_top" xlink:title="Voxel::TI::CalculusCDKCamera">
<polygon fill="none" stroke="black" points="658.5,-190.5 658.5,-209.5 815.5,-209.5 815.5,-190.5 658.5,-190.5"/>
<text text-anchor="middle" x="737" y="-197.5" font-family="Helvetica,sans-Serif" font-size="10.00">Voxel::TI::CalculusCDKCamera</text>
</a>
</g>
</g>
<!-- Node4&#45;&gt;Node5 -->
<g id="edge4" class="edge"><title>Node4&#45;&gt;Node5</title>
<path fill="none" stroke="midnightblue" d="M631.219,-189.522C640.249,-190.425 649.398,-191.34 658.334,-192.233"/>
<polygon fill="midnightblue" stroke="midnightblue" points="631.392,-186.022 621.093,-188.509 630.695,-192.987 631.392,-186.022"/>
</g>
<!-- Node7 -->
<g id="node7" class="node"><title>Node7</title>
<g id="a_node7"><a xlink:href="classVoxel_1_1TI_1_1HaddockCDKCamera.xhtml" target="_top" xlink:title="Voxel::TI::HaddockCDKCamera">
<polygon fill="none" stroke="black" points="658,-152.5 658,-171.5 816,-171.5 816,-152.5 658,-152.5"/>
<text text-anchor="middle" x="737" y="-159.5" font-family="Helvetica,sans-Serif" font-size="10.00">Voxel::TI::HaddockCDKCamera</text>
</a>
</g>
</g>
<!-- Node6&#45;&gt;Node7 -->
<g id="edge6" class="edge"><title>Node6&#45;&gt;Node7</title>
<path fill="none" stroke="midnightblue" d="M604.048,-135.61C631.07,-141.014 662.818,-147.364 688.4,-152.48"/>
<polygon fill="midnightblue" stroke="midnightblue" points="604.437,-132.118 593.945,-133.589 603.064,-138.982 604.437,-132.118"/>
</g>
<!-- Node8 -->
<g id="node8" class="node"><title>Node8</title>
<g id="a_node8"><a xlink:href="classVoxel_1_1TI_1_1RTS5825Camera.xhtml" target="_top" xlink:title="Voxel::TI::RTS5825Camera">
<polygon fill="none" stroke="black" points="668,-114.5 668,-133.5 806,-133.5 806,-114.5 668,-114.5"/>
<text text-anchor="middle" x="737" y="-121.5" font-family="Helvetica,sans-Serif" font-size="10.00">Voxel::TI::RTS5825Camera</text>
</a>
</g>
</g>
<!-- Node6&#45;&gt;Node8 -->
<g id="edge7" class="edge"><title>Node6&#45;&gt;Node8</title>
<path fill="none" stroke="midnightblue" d="M631.704,-124C643.764,-124 656.025,-124 667.7,-124"/>
<polygon fill="midnightblue" stroke="midnightblue" points="631.639,-120.5 621.639,-124 631.639,-127.5 631.639,-120.5"/>
</g>
<!-- Node9 -->
<g id="node9" class="node"><title>Node9</title>
<g id="a_node9"><a xlink:href="classVoxel_1_1TI_1_1Voxel14Camera.xhtml" target="_top" xlink:title="Voxel::TI::Voxel14Camera">
<polygon fill="none" stroke="black" points="671,-76.5 671,-95.5 803,-95.5 803,-76.5 671,-76.5"/>
<text text-anchor="middle" x="737" y="-83.5" font-family="Helvetica,sans-Serif" font-size="10.00">Voxel::TI::Voxel14Camera</text>
</a>
</g>
</g>
<!-- Node6&#45;&gt;Node9 -->
<g id="edge8" class="edge"><title>Node6&#45;&gt;Node9</title>
<path fill="none" stroke="midnightblue" d="M604.048,-112.39C631.07,-106.986 662.818,-100.636 688.4,-95.5201"/>
<polygon fill="midnightblue" stroke="midnightblue" points="603.064,-109.018 593.945,-114.411 604.437,-115.882 603.064,-109.018"/>
</g>
<!-- Node11 -->
<g id="node11" class="node"><title>Node11</title>
<g id="a_node11"><a xlink:href="classVoxel_1_1TI_1_1TintinCDKCamera.xhtml" target="_top" xlink:title="Voxel::TI::TintinCDKCamera">
<polygon fill="none" stroke="black" points="665.5,-38.5 665.5,-57.5 808.5,-57.5 808.5,-38.5 665.5,-38.5"/>
<text text-anchor="middle" x="737" y="-45.5" font-family="Helvetica,sans-Serif" font-size="10.00">Voxel::TI::TintinCDKCamera</text>
</a>
</g>
</g>
<!-- Node10&#45;&gt;Node11 -->
<g id="edge10" class="edge"><title>Node10&#45;&gt;Node11</title>
<path fill="none" stroke="midnightblue" d="M624.309,-48C637.859,-48 651.877,-48 665.213,-48"/>
<polygon fill="midnightblue" stroke="midnightblue" points="624.058,-44.5001 614.058,-48 624.058,-51.5001 624.058,-44.5001"/>
</g>
<!-- Node12 -->
<g id="node12" class="node"><title>Node12</title>
<g id="a_node12"><a xlink:href="classVoxel_1_1TI_1_1VoxelDCamera.xhtml" target="_top" xlink:title="Voxel::TI::VoxelDCamera">
<polygon fill="none" stroke="black" points="672.5,-0.5 672.5,-19.5 801.5,-19.5 801.5,-0.5 672.5,-0.5"/>
<text text-anchor="middle" x="737" y="-7.5" font-family="Helvetica,sans-Serif" font-size="10.00">Voxel::TI::VoxelDCamera</text>
</a>
</g>
</g>
<!-- Node10&#45;&gt;Node12 -->
<g id="edge11" class="edge"><title>Node10&#45;&gt;Node12</title>
<path fill="none" stroke="midnightblue" d="M604.048,-36.3905C631.07,-30.986 662.818,-24.6365 688.4,-19.5201"/>
<polygon fill="midnightblue" stroke="midnightblue" points="603.064,-33.0177 593.945,-38.411 604.437,-39.8818 603.064,-33.0177"/>
</g>
</g>
</svg>
        <g id="navigator" transform="translate(0 0)" fill="#404254">
                <rect fill="#f2f5e9" fill-opacity="0.5" stroke="#606060" stroke-width=".5" x="0" y="0" width="60" height="60"/>
                <use id="zoomplus" xlink:href="#zoomPlus" x="17" y="9" onmousedown="handleZoom(evt,'in')"/>
                <use id="zoomminus" xlink:href="#zoomMin" x="42" y="9" onmousedown="handleZoom(evt,'out')"/>
                <use id="reset" xlink:href="#resetDef" x="30" y="36" onmousedown="handleReset()"/>
                <g id="arrowUp" xlink:href="#dirArrow" transform="translate(30 24)" onmousedown="handlePan(0,-1)">
                  <use xlink:href="#rim" fill="#404040">
                        <set attributeName="fill" to="#808080" begin="arrowUp.mouseover" end="arrowUp.mouseout"/>
                  </use>
                  <path fill="none" stroke="white" stroke-width="1.5" d="M0,-3.0v7 M-2.5,-0.5L0,-3.0L2.5,-0.5"/>
                </g>
                <g id="arrowRight" xlink:href="#dirArrow" transform="rotate(90) translate(36 -43)" onmousedown="handlePan(1,0)">
                  <use xlink:href="#rim" fill="#404040">
                        <set attributeName="fill" to="#808080" begin="arrowRight.mouseover" end="arrowRight.mouseout"/>
                  </use>
                  <path fill="none" stroke="white" stroke-width="1.5" d="M0,-3.0v7 M-2.5,-0.5L0,-3.0L2.5,-0.5"/>
                </g>
                <g id="arrowDown" xlink:href="#dirArrow" transform="rotate(180) translate(-30 -48)" onmousedown="handlePan(0,1)">
                  <use xlink:href="#rim" fill="#404040">
                        <set attributeName="fill" to="#808080" begin="arrowDown.mouseover" end="arrowDown.mouseout"/>
                  </use>
                  <path fill="none" stroke="white" stroke-width="1.5" d="M0,-3.0v7 M-2.5,-0.5L0,-3.0L2.5,-0.5"/>
                </g>
                <g id="arrowLeft" xlink:href="#dirArrow" transform="rotate(270) translate(-36 17)" onmousedown="handlePan(-1,0)">
                  <use xlink:href="#rim" fill="#404040">
                        <set attributeName="fill" to="#808080" begin="arrowLeft.mouseover" end="arrowLeft.mouseout"/>
                  </use>
                  <path fill="none" stroke="white" stroke-width="1.5" d="M0,-3.0v7 M-2.5,-0.5L0,-3.0L2.5,-0.5"/>
                </g>
        </g>
        <svg viewBox="0 0 15 15" width="100%" height="30px" preserveAspectRatio="xMaxYMin meet">
         <g id="arrow_out" transform="scale(0.3 0.3)">
          <a xlink:href="classVoxel_1_1TI_1_1ToFCameraBase__inherit__graph_org.svg" target="_base">
           <rect id="button" ry="5" rx="5" y="6" x="6" height="38" width="38"
                fill="#f2f5e9" fill-opacity="0.5" stroke="#606060" stroke-width="1.0"/>
           <path id="arrow"
             d="M 11.500037,31.436501 C 11.940474,20.09759 22.043105,11.32322 32.158766,21.979434 L 37.068811,17.246167 C 37.068811,17.246167 37.088388,32 37.088388,32 L 22.160133,31.978069 C 22.160133,31.978069 26.997745,27.140456 26.997745,27.140456 C 18.528582,18.264221 13.291696,25.230495 11.500037,31.436501 z"
             style="fill:#404040;"/>
          </a>
         </g>
        </svg>
</svg>
