<?xml version="1.0" encoding="UTF-8" standalone="no"?>
<!DOCTYPE svg PUBLIC "-//W3C//DTD SVG 1.1//EN"
 "http://www.w3.org/Graphics/SVG/1.1/DTD/svg11.dtd">
<!-- Generated by graphviz version 2.36.0 (20140111.2315)
 -->
<!-- Title: ELFIO::elfio::create_header Pages: 1 -->
<svg width="378pt" height="66pt"
 viewBox="0.00 0.00 378.00 66.00" xmlns="http://www.w3.org/2000/svg" xmlns:xlink="http://www.w3.org/1999/xlink">
<g id="graph0" class="graph" transform="scale(1 1) rotate(0) translate(4 62)">
<title>ELFIO::elfio::create_header</title>
<!-- Node1 -->
<g id="node1" class="node"><title>Node1</title>
<polygon fill="#bfbfbf" stroke="black" points="0,-14 0,-44 102,-44 102,-14 0,-14"/>
<text text-anchor="start" x="8" y="-32" font-family="Helvetica,sans-Serif" font-size="10.00">ELFIO::elfio::create</text>
<text text-anchor="middle" x="51" y="-21" font-family="Helvetica,sans-Serif" font-size="10.00">_header</text>
</g>
<!-- Node2 -->
<g id="node2" class="node"><title>Node2</title>
<g id="a_node2"><a xlink:href="classELFIO_1_1elfio.xhtml#a505f88e23277cb7945d4f411fe2b4d85" target="_top" xlink:title="ELFIO::elfio::create">
<polygon fill="none" stroke="black" points="138,-38.5 138,-57.5 240,-57.5 240,-38.5 138,-38.5"/>
<text text-anchor="middle" x="189" y="-45.5" font-family="Helvetica,sans-Serif" font-size="10.00">ELFIO::elfio::create</text>
</a>
</g>
</g>
<!-- Node1&#45;&gt;Node2 -->
<g id="edge1" class="edge"><title>Node1&#45;&gt;Node2</title>
<path fill="none" stroke="midnightblue" d="M112.231,-37.4146C120.823,-38.615 129.583,-39.8387 137.952,-41.0079"/>
<polygon fill="midnightblue" stroke="midnightblue" points="112.643,-33.9383 102.255,-36.0209 111.675,-40.871 112.643,-33.9383"/>
</g>
<!-- Node4 -->
<g id="node4" class="node"><title>Node4</title>
<g id="a_node4"><a xlink:href="classELFIO_1_1elfio.xhtml#a1eb421b95b3deb91f7e4c28cbf094614" target="_top" xlink:title="ELFIO::elfio::load">
<polygon fill="none" stroke="black" points="142.5,-0.5 142.5,-19.5 235.5,-19.5 235.5,-0.5 142.5,-0.5"/>
<text text-anchor="middle" x="189" y="-7.5" font-family="Helvetica,sans-Serif" font-size="10.00">ELFIO::elfio::load</text>
</a>
</g>
</g>
<!-- Node1&#45;&gt;Node4 -->
<g id="edge3" class="edge"><title>Node1&#45;&gt;Node4</title>
<path fill="none" stroke="midnightblue" d="M112.275,-20.5793C122.405,-19.164 132.768,-17.7163 142.447,-16.3641"/>
<polygon fill="midnightblue" stroke="midnightblue" points="111.675,-17.129 102.255,-21.9791 112.643,-24.0617 111.675,-17.129"/>
</g>
<!-- Node3 -->
<g id="node3" class="node"><title>Node3</title>
<g id="a_node3"><a xlink:href="classELFIO_1_1elfio.xhtml#ab5d99cd44a973c1adabdba1c1e7c086b" target="_top" xlink:title="ELFIO::elfio::elfio">
<polygon fill="none" stroke="black" points="276.5,-38.5 276.5,-57.5 369.5,-57.5 369.5,-38.5 276.5,-38.5"/>
<text text-anchor="middle" x="323" y="-45.5" font-family="Helvetica,sans-Serif" font-size="10.00">ELFIO::elfio::elfio</text>
</a>
</g>
</g>
<!-- Node2&#45;&gt;Node3 -->
<g id="edge2" class="edge"><title>Node2&#45;&gt;Node3</title>
<path fill="none" stroke="midnightblue" d="M250.372,-48C259.05,-48 267.859,-48 276.193,-48"/>
<polygon fill="midnightblue" stroke="midnightblue" points="250.28,-44.5001 240.28,-48 250.28,-51.5001 250.28,-44.5001"/>
</g>
</g>
</svg>
