<?xml version="1.0" encoding="UTF-8" standalone="no"?>
<!DOCTYPE svg PUBLIC "-//W3C//DTD SVG 1.1//EN"
 "http://www.w3.org/Graphics/SVG/1.1/DTD/svg11.dtd">
<!-- Generated by graphviz version 2.36.0 (20140111.2315)
 -->
<!-- Title: TinyXML2::DynArray::PushArr Pages: 1 -->
<svg width="876pt" height="446pt"
 viewBox="0.00 0.00 876.00 446.00" xmlns="http://www.w3.org/2000/svg" xmlns:xlink="http://www.w3.org/1999/xlink">
<g id="graph0" class="graph" transform="scale(1 1) rotate(0) translate(4 442)">
<title>TinyXML2::DynArray::PushArr</title>
<!-- Node1 -->
<g id="node1" class="node"><title>Node1</title>
<polygon fill="#bfbfbf" stroke="black" points="0,-193 0,-223 108,-223 108,-193 0,-193"/>
<text text-anchor="start" x="8" y="-211" font-family="Helvetica,sans-Serif" font-size="10.00">TinyXML2::DynArray</text>
<text text-anchor="middle" x="54" y="-200" font-family="Helvetica,sans-Serif" font-size="10.00">::PushArr</text>
</g>
<!-- Node2 -->
<g id="node2" class="node"><title>Node2</title>
<g id="a_node2"><a xlink:href="classTinyXML2_1_1XMLPrinter.xhtml#adc0b55a75420e8cbc9268bca2b8e40ac" target="_top" xlink:title="TinyXML2::XMLPrinter\l::Print">
<polygon fill="none" stroke="black" points="144,-193 144,-223 260,-223 260,-193 144,-193"/>
<text text-anchor="start" x="152" y="-211" font-family="Helvetica,sans-Serif" font-size="10.00">TinyXML2::XMLPrinter</text>
<text text-anchor="middle" x="202" y="-200" font-family="Helvetica,sans-Serif" font-size="10.00">::Print</text>
</a>
</g>
</g>
<!-- Node1&#45;&gt;Node2 -->
<g id="edge1" class="edge"><title>Node1&#45;&gt;Node2</title>
<path fill="none" stroke="midnightblue" d="M118.312,-208C126.763,-208 135.391,-208 143.731,-208"/>
<polygon fill="midnightblue" stroke="midnightblue" points="118.122,-204.5 108.122,-208 118.122,-211.5 118.122,-204.5"/>
</g>
<!-- Node3 -->
<g id="node3" class="node"><title>Node3</title>
<g id="a_node3"><a xlink:href="classTinyXML2_1_1XMLPrinter.xhtml#aed3f30b7b9c09a84cfd6ae8f4bb1f1de" target="_top" xlink:title="TinyXML2::XMLPrinter\l::PrintSpace">
<polygon fill="none" stroke="black" points="296,-111 296,-141 412,-141 412,-111 296,-111"/>
<text text-anchor="start" x="304" y="-129" font-family="Helvetica,sans-Serif" font-size="10.00">TinyXML2::XMLPrinter</text>
<text text-anchor="middle" x="354" y="-118" font-family="Helvetica,sans-Serif" font-size="10.00">::PrintSpace</text>
</a>
</g>
</g>
<!-- Node2&#45;&gt;Node3 -->
<g id="edge2" class="edge"><title>Node2&#45;&gt;Node3</title>
<path fill="none" stroke="midnightblue" d="M238.904,-187.646C256.119,-177.958 277.068,-166.273 296,-156 305.043,-151.093 314.948,-145.839 323.927,-141.12"/>
<polygon fill="midnightblue" stroke="midnightblue" points="236.752,-184.841 229.76,-192.801 240.19,-190.938 236.752,-184.841"/>
</g>
<!-- Node4 -->
<g id="node4" class="node"><title>Node4</title>
<g id="a_node4"><a xlink:href="classTinyXML2_1_1XMLPrinter.xhtml#a51e42981371b82b64cac08d1248a7df7" target="_top" xlink:title="TinyXML2::XMLPrinter\l::OpenElement">
<polygon fill="none" stroke="black" points="448,-261 448,-291 564,-291 564,-261 448,-261"/>
<text text-anchor="start" x="456" y="-279" font-family="Helvetica,sans-Serif" font-size="10.00">TinyXML2::XMLPrinter</text>
<text text-anchor="middle" x="506" y="-268" font-family="Helvetica,sans-Serif" font-size="10.00">::OpenElement</text>
</a>
</g>
</g>
<!-- Node2&#45;&gt;Node4 -->
<g id="edge23" class="edge"><title>Node2&#45;&gt;Node4</title>
<path fill="none" stroke="midnightblue" d="M224.807,-230.248C242.321,-246.427 268.465,-267.007 296,-276 345.323,-292.109 404.757,-290.221 447.615,-285.416"/>
<polygon fill="midnightblue" stroke="midnightblue" points="227.046,-227.548 217.393,-223.182 222.216,-232.615 227.046,-227.548"/>
</g>
<!-- Node6 -->
<g id="node6" class="node"><title>Node6</title>
<g id="a_node6"><a xlink:href="classTinyXML2_1_1XMLPrinter.xhtml#a410f06cffa2fd3ce75481b125b64344d" target="_top" xlink:title="If streaming, close the Element. ">
<polygon fill="none" stroke="black" points="448,-0 448,-30 564,-30 564,-0 448,-0"/>
<text text-anchor="start" x="456" y="-18" font-family="Helvetica,sans-Serif" font-size="10.00">TinyXML2::XMLPrinter</text>
<text text-anchor="middle" x="506" y="-7" font-family="Helvetica,sans-Serif" font-size="10.00">::CloseElement</text>
</a>
</g>
</g>
<!-- Node2&#45;&gt;Node6 -->
<g id="edge25" class="edge"><title>Node2&#45;&gt;Node6</title>
<path fill="none" stroke="midnightblue" d="M211.331,-183.381C224.047,-149.735 251.609,-90.0353 296,-59 340.673,-27.7677 402.954,-17.8957 447.893,-15.1512"/>
<polygon fill="midnightblue" stroke="midnightblue" points="207.988,-182.332 207.859,-192.926 214.567,-184.725 207.988,-182.332"/>
</g>
<!-- Node8 -->
<g id="node8" class="node"><title>Node8</title>
<g id="a_node8"><a xlink:href="classTinyXML2_1_1XMLPrinter.xhtml#af22c1599559dfcf088cb83d496954254" target="_top" xlink:title="Add a comment. ">
<polygon fill="none" stroke="black" points="448,-202 448,-232 564,-232 564,-202 448,-202"/>
<text text-anchor="start" x="456" y="-220" font-family="Helvetica,sans-Serif" font-size="10.00">TinyXML2::XMLPrinter</text>
<text text-anchor="middle" x="506" y="-209" font-family="Helvetica,sans-Serif" font-size="10.00">::PushComment</text>
</a>
</g>
</g>
<!-- Node2&#45;&gt;Node8 -->
<g id="edge33" class="edge"><title>Node2&#45;&gt;Node8</title>
<path fill="none" stroke="midnightblue" d="M270.205,-210.003C323.541,-211.592 397.288,-213.79 447.819,-215.296"/>
<polygon fill="midnightblue" stroke="midnightblue" points="270.259,-206.503 260.159,-209.703 270.05,-213.5 270.259,-206.503"/>
</g>
<!-- Node10 -->
<g id="node10" class="node"><title>Node10</title>
<g id="a_node10"><a xlink:href="classTinyXML2_1_1XMLPrinter.xhtml#aaa3f679452ae4803a75e8fb27dd1598b" target="_top" xlink:title="TinyXML2::XMLPrinter\l::PushDeclaration">
<polygon fill="none" stroke="black" points="448,-111 448,-141 564,-141 564,-111 448,-111"/>
<text text-anchor="start" x="456" y="-129" font-family="Helvetica,sans-Serif" font-size="10.00">TinyXML2::XMLPrinter</text>
<text text-anchor="middle" x="506" y="-118" font-family="Helvetica,sans-Serif" font-size="10.00">::PushDeclaration</text>
</a>
</g>
</g>
<!-- Node2&#45;&gt;Node10 -->
<g id="edge34" class="edge"><title>Node2&#45;&gt;Node10</title>
<path fill="none" stroke="midnightblue" d="M215.711,-183.745C230.872,-157.739 258.9,-117.909 296,-101 352.862,-75.0841 427.012,-94.9448 469.983,-110.991"/>
<polygon fill="midnightblue" stroke="midnightblue" points="212.564,-182.201 210.714,-192.633 218.665,-185.631 212.564,-182.201"/>
</g>
<!-- Node11 -->
<g id="node11" class="node"><title>Node11</title>
<g id="a_node11"><a xlink:href="classTinyXML2_1_1XMLPrinter.xhtml#a69111df3f67a582ee8b7d15de0cf08ea" target="_top" xlink:title="TinyXML2::XMLPrinter\l::PushHeader">
<polygon fill="none" stroke="black" points="600,-155 600,-185 716,-185 716,-155 600,-155"/>
<text text-anchor="start" x="608" y="-173" font-family="Helvetica,sans-Serif" font-size="10.00">TinyXML2::XMLPrinter</text>
<text text-anchor="middle" x="658" y="-162" font-family="Helvetica,sans-Serif" font-size="10.00">::PushHeader</text>
</a>
</g>
</g>
<!-- Node2&#45;&gt;Node11 -->
<g id="edge22" class="edge"><title>Node2&#45;&gt;Node11</title>
<path fill="none" stroke="midnightblue" d="M270.059,-202.387C359.372,-194.912 515.835,-181.816 599.837,-174.785"/>
<polygon fill="midnightblue" stroke="midnightblue" points="269.713,-198.904 260.04,-203.226 270.297,-205.879 269.713,-198.904"/>
</g>
<!-- Node14 -->
<g id="node14" class="node"><title>Node14</title>
<g id="a_node14"><a xlink:href="classTinyXML2_1_1XMLPrinter.xhtml#ae4b518424d5c7907f02232f2b4c51eca" target="_top" xlink:title="TinyXML2::XMLPrinter\l::PushUnknown">
<polygon fill="none" stroke="black" points="448,-60 448,-90 564,-90 564,-60 448,-60"/>
<text text-anchor="start" x="456" y="-78" font-family="Helvetica,sans-Serif" font-size="10.00">TinyXML2::XMLPrinter</text>
<text text-anchor="middle" x="506" y="-67" font-family="Helvetica,sans-Serif" font-size="10.00">::PushUnknown</text>
</a>
</g>
</g>
<!-- Node2&#45;&gt;Node14 -->
<g id="edge35" class="edge"><title>Node2&#45;&gt;Node14</title>
<path fill="none" stroke="midnightblue" d="M213.412,-183.7C227.424,-154.405 255.371,-106.442 296,-85 342.744,-60.3303 403.867,-60.4728 447.924,-65.1921"/>
<polygon fill="midnightblue" stroke="midnightblue" points="210.2,-182.307 209.196,-192.854 216.558,-185.235 210.2,-182.307"/>
</g>
<!-- Node16 -->
<g id="node16" class="node"><title>Node16</title>
<g id="a_node16"><a xlink:href="classTinyXML2_1_1XMLPrinter.xhtml#a2db7bb356f93036da79d719cd13c96e5" target="_top" xlink:title="TinyXML2::XMLPrinter\l::PrintString">
<polygon fill="none" stroke="black" points="296,-363 296,-393 412,-393 412,-363 296,-363"/>
<text text-anchor="start" x="304" y="-381" font-family="Helvetica,sans-Serif" font-size="10.00">TinyXML2::XMLPrinter</text>
<text text-anchor="middle" x="354" y="-370" font-family="Helvetica,sans-Serif" font-size="10.00">::PrintString</text>
</a>
</g>
</g>
<!-- Node2&#45;&gt;Node16 -->
<g id="edge15" class="edge"><title>Node2&#45;&gt;Node16</title>
<path fill="none" stroke="midnightblue" d="M214.345,-232.28C229.455,-262.519 258.675,-314.296 296,-348 302.391,-353.771 310.094,-358.784 317.742,-362.974"/>
<polygon fill="midnightblue" stroke="midnightblue" points="217.477,-230.718 209.942,-223.269 211.187,-233.791 217.477,-230.718"/>
</g>
<!-- Node17 -->
<g id="node17" class="node"><title>Node17</title>
<g id="a_node17"><a xlink:href="classTinyXML2_1_1XMLPrinter.xhtml#a2b2e57355330eb95489fa05dac639da1" target="_top" xlink:title="If streaming, add an attribute to an open element. ">
<polygon fill="none" stroke="black" points="448,-381 448,-411 564,-411 564,-381 448,-381"/>
<text text-anchor="start" x="456" y="-399" font-family="Helvetica,sans-Serif" font-size="10.00">TinyXML2::XMLPrinter</text>
<text text-anchor="middle" x="506" y="-388" font-family="Helvetica,sans-Serif" font-size="10.00">::PushAttribute</text>
</a>
</g>
</g>
<!-- Node2&#45;&gt;Node17 -->
<g id="edge24" class="edge"><title>Node2&#45;&gt;Node17</title>
<path fill="none" stroke="midnightblue" d="M206.502,-233.192C214.044,-276.586 236.266,-364.392 296,-402 344.996,-432.847 414.07,-422.927 459.183,-411.065"/>
<polygon fill="midnightblue" stroke="midnightblue" points="209.934,-232.489 204.887,-223.174 203.024,-233.603 209.934,-232.489"/>
</g>
<!-- Node19 -->
<g id="node19" class="node"><title>Node19</title>
<g id="a_node19"><a xlink:href="classTinyXML2_1_1XMLPrinter.xhtml#a0434e8616034c33d17083d8113a294b4" target="_top" xlink:title="Add a text node. ">
<polygon fill="none" stroke="black" points="448,-310 448,-340 564,-340 564,-310 448,-310"/>
<text text-anchor="start" x="456" y="-328" font-family="Helvetica,sans-Serif" font-size="10.00">TinyXML2::XMLPrinter</text>
<text text-anchor="middle" x="506" y="-317" font-family="Helvetica,sans-Serif" font-size="10.00">::PushText</text>
</a>
</g>
</g>
<!-- Node2&#45;&gt;Node19 -->
<g id="edge32" class="edge"><title>Node2&#45;&gt;Node19</title>
<path fill="none" stroke="midnightblue" d="M220.244,-231.389C237.074,-252.311 264.669,-281.931 296,-297 343.673,-319.929 404.116,-325.894 447.725,-326.741"/>
<polygon fill="midnightblue" stroke="midnightblue" points="222.835,-229.02 213.919,-223.297 217.32,-233.331 222.835,-229.02"/>
</g>
<!-- Node22 -->
<g id="node22" class="node"><title>Node22</title>
<g id="a_node22"><a xlink:href="classTinyXML2_1_1XMLPrinter.xhtml#a4eb457bcdc4e24dbc7fdbdb22e3e00cc" target="_top" xlink:title="TinyXML2::XMLPrinter\l::SealElement">
<polygon fill="none" stroke="black" points="296,-237 296,-267 412,-267 412,-237 296,-237"/>
<text text-anchor="start" x="304" y="-255" font-family="Helvetica,sans-Serif" font-size="10.00">TinyXML2::XMLPrinter</text>
<text text-anchor="middle" x="354" y="-244" font-family="Helvetica,sans-Serif" font-size="10.00">::SealElement</text>
</a>
</g>
</g>
<!-- Node2&#45;&gt;Node22 -->
<g id="edge26" class="edge"><title>Node2&#45;&gt;Node22</title>
<path fill="none" stroke="midnightblue" d="M264.093,-225.921C276.605,-229.591 289.652,-233.418 301.774,-236.974"/>
<polygon fill="midnightblue" stroke="midnightblue" points="264.783,-222.476 254.202,-223.019 262.812,-229.193 264.783,-222.476"/>
</g>
<!-- Node3&#45;&gt;Node4 -->
<g id="edge3" class="edge"><title>Node3&#45;&gt;Node4</title>
<path fill="none" stroke="midnightblue" d="M370.458,-149.576C387.455,-174.317 416.558,-213.382 448,-241 456.463,-248.434 466.696,-255.259 476.143,-260.869"/>
<polygon fill="midnightblue" stroke="midnightblue" points="373.264,-147.477 364.762,-141.156 367.466,-151.4 373.264,-147.477"/>
</g>
<!-- Node3&#45;&gt;Node6 -->
<g id="edge5" class="edge"><title>Node3&#45;&gt;Node6</title>
<path fill="none" stroke="midnightblue" d="M379.796,-104.198C398.129,-88.4645 423.976,-67.0751 448,-50 457.749,-43.0707 468.881,-36.0515 478.704,-30.1364"/>
<polygon fill="midnightblue" stroke="midnightblue" points="377.211,-101.806 371.935,-110.993 381.789,-107.101 377.211,-101.806"/>
</g>
<!-- Node3&#45;&gt;Node8 -->
<g id="edge7" class="edge"><title>Node3&#45;&gt;Node8</title>
<path fill="none" stroke="midnightblue" d="M388.367,-146.243C416.154,-163.1 455.102,-186.728 480.194,-201.951"/>
<polygon fill="midnightblue" stroke="midnightblue" points="390.135,-143.221 379.769,-141.027 386.504,-149.206 390.135,-143.221"/>
</g>
<!-- Node3&#45;&gt;Node10 -->
<g id="edge9" class="edge"><title>Node3&#45;&gt;Node10</title>
<path fill="none" stroke="midnightblue" d="M422.311,-126C430.728,-126 439.277,-126 447.525,-126"/>
<polygon fill="midnightblue" stroke="midnightblue" points="422.137,-122.5 412.136,-126 422.136,-129.5 422.137,-122.5"/>
</g>
<!-- Node3&#45;&gt;Node14 -->
<g id="edge13" class="edge"><title>Node3&#45;&gt;Node14</title>
<path fill="none" stroke="midnightblue" d="M409.004,-107.639C426.025,-101.852 444.615,-95.531 460.863,-90.0065"/>
<polygon fill="midnightblue" stroke="midnightblue" points="407.535,-104.441 399.194,-110.974 409.788,-111.069 407.535,-104.441"/>
</g>
<!-- Node5 -->
<g id="node5" class="node"><title>Node5</title>
<g id="a_node5"><a xlink:href="classTinyXML2_1_1XMLPrinter.xhtml#a4b451a18ff455a3ba120179017af44de" target="_top" xlink:title="Visit an element. ">
<polygon fill="none" stroke="black" points="600,-359 600,-389 716,-389 716,-359 600,-359"/>
<text text-anchor="start" x="608" y="-377" font-family="Helvetica,sans-Serif" font-size="10.00">TinyXML2::XMLPrinter</text>
<text text-anchor="middle" x="658" y="-366" font-family="Helvetica,sans-Serif" font-size="10.00">::VisitEnter</text>
</a>
</g>
</g>
<!-- Node4&#45;&gt;Node5 -->
<g id="edge4" class="edge"><title>Node4&#45;&gt;Node5</title>
<path fill="none" stroke="midnightblue" d="M559.055,-296.42C560.764,-297.56 562.419,-298.753 564,-300 585.218,-316.736 578.907,-332.108 600,-349 604.723,-352.783 610.108,-356.107 615.638,-358.992"/>
<polygon fill="midnightblue" stroke="midnightblue" points="560.528,-293.225 550.138,-291.152 556.967,-299.252 560.528,-293.225"/>
</g>
<!-- Node7 -->
<g id="node7" class="node"><title>Node7</title>
<g id="a_node7"><a xlink:href="classTinyXML2_1_1XMLPrinter.xhtml#a2040dcd08333a4d06e5ff20ae7076e30" target="_top" xlink:title="Visit an element. ">
<polygon fill="none" stroke="black" points="600,-0 600,-30 716,-30 716,-0 600,-0"/>
<text text-anchor="start" x="608" y="-18" font-family="Helvetica,sans-Serif" font-size="10.00">TinyXML2::XMLPrinter</text>
<text text-anchor="middle" x="658" y="-7" font-family="Helvetica,sans-Serif" font-size="10.00">::VisitExit</text>
</a>
</g>
</g>
<!-- Node6&#45;&gt;Node7 -->
<g id="edge6" class="edge"><title>Node6&#45;&gt;Node7</title>
<path fill="none" stroke="midnightblue" d="M574.311,-15C582.728,-15 591.277,-15 599.525,-15"/>
<polygon fill="midnightblue" stroke="midnightblue" points="574.137,-11.5001 564.136,-15 574.136,-18.5001 574.137,-11.5001"/>
</g>
<!-- Node9 -->
<g id="node9" class="node"><title>Node9</title>
<g id="a_node9"><a xlink:href="classTinyXML2_1_1XMLPrinter.xhtml#abcfc8b0af0a714ade80976275f530ae7" target="_top" xlink:title="Visit a comment node. ">
<polygon fill="none" stroke="black" points="600,-204 600,-234 716,-234 716,-204 600,-204"/>
<text text-anchor="start" x="608" y="-222" font-family="Helvetica,sans-Serif" font-size="10.00">TinyXML2::XMLPrinter</text>
<text text-anchor="middle" x="658" y="-211" font-family="Helvetica,sans-Serif" font-size="10.00">::Visit</text>
</a>
</g>
</g>
<!-- Node8&#45;&gt;Node9 -->
<g id="edge8" class="edge"><title>Node8&#45;&gt;Node9</title>
<path fill="none" stroke="midnightblue" d="M574.311,-217.897C582.728,-218.01 591.277,-218.124 599.525,-218.234"/>
<polygon fill="midnightblue" stroke="midnightblue" points="574.182,-214.396 564.136,-217.762 574.089,-221.395 574.182,-214.396"/>
</g>
<!-- Node10&#45;&gt;Node11 -->
<g id="edge10" class="edge"><title>Node10&#45;&gt;Node11</title>
<path fill="none" stroke="midnightblue" d="M568.093,-143.921C580.605,-147.591 593.652,-151.418 605.774,-154.974"/>
<polygon fill="midnightblue" stroke="midnightblue" points="568.783,-140.476 558.202,-141.019 566.812,-147.193 568.783,-140.476"/>
</g>
<!-- Node13 -->
<g id="node13" class="node"><title>Node13</title>
<g id="a_node13"><a xlink:href="classTinyXML2_1_1XMLPrinter.xhtml#aa1df6579573094ba842131bd37294005" target="_top" xlink:title="Visit a declaration. ">
<polygon fill="none" stroke="black" points="600,-106 600,-136 716,-136 716,-106 600,-106"/>
<text text-anchor="start" x="608" y="-124" font-family="Helvetica,sans-Serif" font-size="10.00">TinyXML2::XMLPrinter</text>
<text text-anchor="middle" x="658" y="-113" font-family="Helvetica,sans-Serif" font-size="10.00">::Visit</text>
</a>
</g>
</g>
<!-- Node10&#45;&gt;Node13 -->
<g id="edge12" class="edge"><title>Node10&#45;&gt;Node13</title>
<path fill="none" stroke="midnightblue" d="M574.311,-123.756C582.728,-123.476 591.277,-123.191 599.525,-122.916"/>
<polygon fill="midnightblue" stroke="midnightblue" points="574.014,-120.264 564.136,-124.095 574.248,-127.26 574.014,-120.264"/>
</g>
<!-- Node12 -->
<g id="node12" class="node"><title>Node12</title>
<g id="a_node12"><a xlink:href="classTinyXML2_1_1XMLPrinter.xhtml#ad435597c3719cf0521c39d0720ffdf77" target="_top" xlink:title="Visit a document. ">
<polygon fill="none" stroke="black" points="752,-155 752,-185 868,-185 868,-155 752,-155"/>
<text text-anchor="start" x="760" y="-173" font-family="Helvetica,sans-Serif" font-size="10.00">TinyXML2::XMLPrinter</text>
<text text-anchor="middle" x="810" y="-162" font-family="Helvetica,sans-Serif" font-size="10.00">::VisitEnter</text>
</a>
</g>
</g>
<!-- Node11&#45;&gt;Node12 -->
<g id="edge11" class="edge"><title>Node11&#45;&gt;Node12</title>
<path fill="none" stroke="midnightblue" d="M726.311,-170C734.728,-170 743.277,-170 751.525,-170"/>
<polygon fill="midnightblue" stroke="midnightblue" points="726.137,-166.5 716.136,-170 726.136,-173.5 726.137,-166.5"/>
</g>
<!-- Node15 -->
<g id="node15" class="node"><title>Node15</title>
<g id="a_node15"><a xlink:href="classTinyXML2_1_1XMLPrinter.xhtml#a100e317bedf55f9ccba58554c9c0b39b" target="_top" xlink:title="Visit an unknown node. ">
<polygon fill="none" stroke="black" points="600,-57 600,-87 716,-87 716,-57 600,-57"/>
<text text-anchor="start" x="608" y="-75" font-family="Helvetica,sans-Serif" font-size="10.00">TinyXML2::XMLPrinter</text>
<text text-anchor="middle" x="658" y="-64" font-family="Helvetica,sans-Serif" font-size="10.00">::Visit</text>
</a>
</g>
</g>
<!-- Node14&#45;&gt;Node15 -->
<g id="edge14" class="edge"><title>Node14&#45;&gt;Node15</title>
<path fill="none" stroke="midnightblue" d="M574.311,-73.6538C582.728,-73.4854 591.277,-73.3145 599.525,-73.1495"/>
<polygon fill="midnightblue" stroke="midnightblue" points="574.064,-70.1579 564.136,-73.8573 574.204,-77.1565 574.064,-70.1579"/>
</g>
<!-- Node16&#45;&gt;Node17 -->
<g id="edge16" class="edge"><title>Node16&#45;&gt;Node17</title>
<path fill="none" stroke="midnightblue" d="M422.311,-386.077C430.728,-387.087 439.277,-388.113 447.525,-389.103"/>
<polygon fill="midnightblue" stroke="midnightblue" points="422.482,-382.573 412.136,-384.856 421.648,-389.523 422.482,-382.573"/>
</g>
<!-- Node16&#45;&gt;Node19 -->
<g id="edge19" class="edge"><title>Node16&#45;&gt;Node19</title>
<path fill="none" stroke="midnightblue" d="M407.34,-359.507C425.311,-353.157 445.198,-346.13 462.311,-340.084"/>
<polygon fill="midnightblue" stroke="midnightblue" points="405.845,-356.322 397.583,-362.954 408.178,-362.923 405.845,-356.322"/>
</g>
<!-- Node17&#45;&gt;Node5 -->
<g id="edge18" class="edge"><title>Node17&#45;&gt;Node5</title>
<path fill="none" stroke="midnightblue" d="M574.033,-386.168C582.54,-384.921 591.186,-383.653 599.525,-382.43"/>
<polygon fill="midnightblue" stroke="midnightblue" points="573.523,-382.706 564.136,-387.62 574.539,-389.632 573.523,-382.706"/>
</g>
<!-- Node18 -->
<g id="node18" class="node"><title>Node18</title>
<g id="a_node18"><a xlink:href="classTinyXML2_1_1XMLPrinter.xhtml#aa93650b98d80cae0beac2117b3de17ed" target="_top" xlink:title="TinyXML2::XMLPrinter\l::PushAttribute">
<polygon fill="none" stroke="black" points="600,-408 600,-438 716,-438 716,-408 600,-408"/>
<text text-anchor="start" x="608" y="-426" font-family="Helvetica,sans-Serif" font-size="10.00">TinyXML2::XMLPrinter</text>
<text text-anchor="middle" x="658" y="-415" font-family="Helvetica,sans-Serif" font-size="10.00">::PushAttribute</text>
</a>
</g>
</g>
<!-- Node17&#45;&gt;Node18 -->
<g id="edge17" class="edge"><title>Node17&#45;&gt;Node18</title>
<path fill="none" stroke="midnightblue" d="M574.033,-408.066C582.54,-409.597 591.186,-411.153 599.525,-412.655"/>
<polygon fill="midnightblue" stroke="midnightblue" points="574.598,-404.612 564.136,-406.285 573.358,-411.501 574.598,-404.612"/>
</g>
<!-- Node20 -->
<g id="node20" class="node"><title>Node20</title>
<g id="a_node20"><a xlink:href="classTinyXML2_1_1XMLPrinter.xhtml#ac9af8629ac88bfdc9bf79a6aef4680cd" target="_top" xlink:title="Add a text node from an integer. ">
<polygon fill="none" stroke="black" points="600,-310 600,-340 716,-340 716,-310 600,-310"/>
<text text-anchor="start" x="608" y="-328" font-family="Helvetica,sans-Serif" font-size="10.00">TinyXML2::XMLPrinter</text>
<text text-anchor="middle" x="658" y="-317" font-family="Helvetica,sans-Serif" font-size="10.00">::PushText</text>
</a>
</g>
</g>
<!-- Node19&#45;&gt;Node20 -->
<g id="edge20" class="edge"><title>Node19&#45;&gt;Node20</title>
<path fill="none" stroke="midnightblue" d="M574.311,-325C582.728,-325 591.277,-325 599.525,-325"/>
<polygon fill="midnightblue" stroke="midnightblue" points="574.137,-321.5 564.136,-325 574.136,-328.5 574.137,-321.5"/>
</g>
<!-- Node21 -->
<g id="node21" class="node"><title>Node21</title>
<g id="a_node21"><a xlink:href="classTinyXML2_1_1XMLPrinter.xhtml#ae2661fa12bc3d2a0907d2d6aed03020b" target="_top" xlink:title="Visit a text node. ">
<polygon fill="none" stroke="black" points="600,-261 600,-291 716,-291 716,-261 600,-261"/>
<text text-anchor="start" x="608" y="-279" font-family="Helvetica,sans-Serif" font-size="10.00">TinyXML2::XMLPrinter</text>
<text text-anchor="middle" x="658" y="-268" font-family="Helvetica,sans-Serif" font-size="10.00">::Visit</text>
</a>
</g>
</g>
<!-- Node19&#45;&gt;Node21 -->
<g id="edge21" class="edge"><title>Node19&#45;&gt;Node21</title>
<path fill="none" stroke="midnightblue" d="M562.895,-306.741C578.716,-301.573 595.752,-296.008 610.924,-291.052"/>
<polygon fill="midnightblue" stroke="midnightblue" points="561.648,-303.466 553.229,-309.899 563.821,-310.12 561.648,-303.466"/>
</g>
<!-- Node22&#45;&gt;Node4 -->
<g id="edge27" class="edge"><title>Node22&#45;&gt;Node4</title>
<path fill="none" stroke="midnightblue" d="M422.033,-262.725C430.54,-264.086 439.186,-265.47 447.525,-266.804"/>
<polygon fill="midnightblue" stroke="midnightblue" points="422.564,-259.266 412.136,-261.142 421.458,-266.178 422.564,-259.266"/>
</g>
<!-- Node22&#45;&gt;Node8 -->
<g id="edge29" class="edge"><title>Node22&#45;&gt;Node8</title>
<path fill="none" stroke="midnightblue" d="M422.033,-236.359C430.54,-234.374 439.186,-232.357 447.525,-230.411"/>
<polygon fill="midnightblue" stroke="midnightblue" points="421.08,-232.987 412.136,-238.668 422.67,-239.804 421.08,-232.987"/>
</g>
<!-- Node22&#45;&gt;Node10 -->
<g id="edge30" class="edge"><title>Node22&#45;&gt;Node10</title>
<path fill="none" stroke="midnightblue" d="M381.095,-230.08C411.357,-204.66 460.452,-163.42 486.842,-141.252"/>
<polygon fill="midnightblue" stroke="midnightblue" points="378.499,-227.69 373.094,-236.801 383.002,-233.049 378.499,-227.69"/>
</g>
<!-- Node22&#45;&gt;Node14 -->
<g id="edge31" class="edge"><title>Node22&#45;&gt;Node14</title>
<path fill="none" stroke="midnightblue" d="M368.757,-227.979C391.892,-187.849 437.13,-110.598 448,-101 452.729,-96.8244 458.241,-93.2062 463.938,-90.1073"/>
<polygon fill="midnightblue" stroke="midnightblue" points="365.6,-226.448 363.648,-236.861 371.668,-229.938 365.6,-226.448"/>
</g>
<!-- Node22&#45;&gt;Node19 -->
<g id="edge28" class="edge"><title>Node22&#45;&gt;Node19</title>
<path fill="none" stroke="midnightblue" d="M392.26,-271.913C409.153,-280.765 429.457,-291.159 448,-300 454.925,-303.302 462.394,-306.695 469.571,-309.875"/>
<polygon fill="midnightblue" stroke="midnightblue" points="393.738,-268.736 383.259,-267.175 390.477,-274.93 393.738,-268.736"/>
</g>
</g>
</svg>
