<?xml version="1.0" encoding="UTF-8" standalone="no"?>
<!DOCTYPE svg PUBLIC "-//W3C//DTD SVG 1.1//EN"
 "http://www.w3.org/Graphics/SVG/1.1/DTD/svg11.dtd">
<!-- Generated by graphviz version 2.36.0 (20140111.2315)
 -->
<!-- Title: Voxel::ConfigurationFile::getConfigSet Pages: 1 -->
<!--zoomable 283 -->
<svg id="main" version="1.1" xmlns="http://www.w3.org/2000/svg" xmlns:xlink="http://www.w3.org/1999/xlink" xml:space="preserve" onload="init(evt)">
<style type="text/css"><![CDATA[
.edge:hover path { stroke: red; }
.edge:hover polygon { stroke: red; fill: red; }
]]></style>
<script type="text/javascript"><![CDATA[
var edges = document.getElementsByTagName('g');
if (edges && edges.length) {
  for (var i=0;i<edges.length;i++) {
    if (edges[i].id.substr(0,4)=='edge') {
      edges[i].setAttribute('class','edge');
    }
  }
}
]]></script>
        <defs>
                <circle id="rim" cx="0" cy="0" r="7"/>
                <circle id="rim2" cx="0" cy="0" r="3.5"/>
                <g id="zoomPlus">
                        <use xlink:href="#rim" fill="#404040">
                                <set attributeName="fill" to="#808080" begin="zoomplus.mouseover" end="zoomplus.mouseout"/>
                        </use>
                        <path d="M-4,0h8M0,-4v8" fill="none" stroke="white" stroke-width="1.5" pointer-events="none"/>
                </g>
                <g id="zoomMin">
                        <use xlink:href="#rim" fill="#404040">
                                <set attributeName="fill" to="#808080" begin="zoomminus.mouseover" end="zoomminus.mouseout"/>
                        </use>
                        <path d="M-4,0h8" fill="none" stroke="white" stroke-width="1.5" pointer-events="none"/>
                </g>
                <g id="dirArrow">
                        <path fill="none" stroke="white" stroke-width="1.5" d="M0,-3.0v7 M-2.5,-0.5L0,-3.0L2.5,-0.5"/>
                </g>
               <g id="resetDef">
                       <use xlink:href="#rim2" fill="#404040">
                               <set attributeName="fill" to="#808080" begin="reset.mouseover" end="reset.mouseout"/>
                       </use>
               </g>
        </defs>

<script type="text/javascript">
var viewWidth = 1320;
var viewHeight = 283;
var sectionId = 'dynsection-19';
</script>
<script xlink:href="svgpan.js"/>
<svg id="graph" class="graph">
<g id="viewport">
<title>Voxel::ConfigurationFile::getConfigSet</title>
<!-- Node1 -->
<g id="node1" class="node"><title>Node1</title>
<polygon fill="#bfbfbf" stroke="black" points="0.5,-147 0.5,-177 121.5,-177 121.5,-147 0.5,-147"/>
<text text-anchor="start" x="8.5" y="-165" font-family="Helvetica,sans-Serif" font-size="10.00">Voxel::ConfigurationFile</text>
<text text-anchor="middle" x="61" y="-154" font-family="Helvetica,sans-Serif" font-size="10.00">::getConfigSet</text>
</g>
<!-- Node1&#45;&gt;Node1 -->
<g id="edge1" class="edge"><title>Node1&#45;&gt;Node1</title>
<path fill="none" stroke="midnightblue" d="M34.7444,-187.598C38.3321,-191.97 47.084,-195 61,-195 84.4375,-195 93.2266,-186.406 87.3672,-177.275"/>
<polygon fill="midnightblue" stroke="midnightblue" points="38.2408,-187.237 34.6328,-177.275 31.2412,-187.313 38.2408,-187.237"/>
</g>
<!-- Node2 -->
<g id="node2" class="node"><title>Node2</title>
<g id="a_node2"><a xlink:href="classVoxel_1_1DepthCamera.xhtml#ab0e9ecccc5da44339aafaee4c17b9e44" target="_top" xlink:title="Voxel::DepthCamera\l::setCameraProfile">
<polygon fill="none" stroke="black" points="158,-147 158,-177 266,-177 266,-147 158,-147"/>
<text text-anchor="start" x="166" y="-165" font-family="Helvetica,sans-Serif" font-size="10.00">Voxel::DepthCamera</text>
<text text-anchor="middle" x="212" y="-154" font-family="Helvetica,sans-Serif" font-size="10.00">::setCameraProfile</text>
</a>
</g>
</g>
<!-- Node1&#45;&gt;Node2 -->
<g id="edge2" class="edge"><title>Node1&#45;&gt;Node2</title>
<path fill="none" stroke="midnightblue" d="M131.952,-162C140.705,-162 149.542,-162 157.976,-162"/>
<polygon fill="midnightblue" stroke="midnightblue" points="131.746,-158.5 121.745,-162 131.745,-165.5 131.746,-158.5"/>
</g>
<!-- Node3 -->
<g id="node3" class="node"><title>Node3</title>
<g id="a_node3"><a xlink:href="classVoxel_1_1DepthCamera.xhtml#aeca7a6cb1df8643f0b38745286ac2844" target="_top" xlink:title="Voxel::DepthCamera\l::_init">
<polygon fill="none" stroke="black" points="302,-147 302,-177 410,-177 410,-147 302,-147"/>
<text text-anchor="start" x="310" y="-165" font-family="Helvetica,sans-Serif" font-size="10.00">Voxel::DepthCamera</text>
<text text-anchor="middle" x="356" y="-154" font-family="Helvetica,sans-Serif" font-size="10.00">::_init</text>
</a>
</g>
</g>
<!-- Node2&#45;&gt;Node3 -->
<g id="edge3" class="edge"><title>Node2&#45;&gt;Node3</title>
<path fill="none" stroke="midnightblue" d="M276.517,-162C284.996,-162 293.618,-162 301.894,-162"/>
<polygon fill="midnightblue" stroke="midnightblue" points="276.28,-158.5 266.28,-162 276.28,-165.5 276.28,-158.5"/>
</g>
<!-- Node4 -->
<g id="node4" class="node"><title>Node4</title>
<g id="a_node4"><a xlink:href="classVoxel_1_1TI_1_1ToFCameraBase.xhtml#a34c90601da611e5cb61bd7a35f03a5f7" target="_top" xlink:title="Voxel::TI::ToFCameraBase\l::_init">
<polygon fill="none" stroke="black" points="446.5,-147 446.5,-177 583.5,-177 583.5,-147 446.5,-147"/>
<text text-anchor="start" x="454.5" y="-165" font-family="Helvetica,sans-Serif" font-size="10.00">Voxel::TI::ToFCameraBase</text>
<text text-anchor="middle" x="515" y="-154" font-family="Helvetica,sans-Serif" font-size="10.00">::_init</text>
</a>
</g>
</g>
<!-- Node3&#45;&gt;Node4 -->
<g id="edge4" class="edge"><title>Node3&#45;&gt;Node4</title>
<path fill="none" stroke="midnightblue" d="M420.157,-162C428.803,-162 437.708,-162 446.428,-162"/>
<polygon fill="midnightblue" stroke="midnightblue" points="420.153,-158.5 410.153,-162 420.153,-165.5 420.153,-158.5"/>
</g>
<!-- Node5 -->
<g id="node5" class="node"><title>Node5</title>
<g id="a_node5"><a xlink:href="classVoxel_1_1TI_1_1ToFCamera.xhtml#a8fd9aae6546d426f494b20633a881442" target="_top" xlink:title="Voxel::TI::ToFCamera\l::_init">
<polygon fill="none" stroke="black" points="620,-147 620,-177 734,-177 734,-147 620,-147"/>
<text text-anchor="start" x="628" y="-165" font-family="Helvetica,sans-Serif" font-size="10.00">Voxel::TI::ToFCamera</text>
<text text-anchor="middle" x="677" y="-154" font-family="Helvetica,sans-Serif" font-size="10.00">::_init</text>
</a>
</g>
</g>
<!-- Node4&#45;&gt;Node5 -->
<g id="edge5" class="edge"><title>Node4&#45;&gt;Node5</title>
<path fill="none" stroke="midnightblue" d="M593.978,-162C602.636,-162 611.325,-162 619.639,-162"/>
<polygon fill="midnightblue" stroke="midnightblue" points="593.854,-158.5 583.854,-162 593.854,-165.5 593.854,-158.5"/>
</g>
<!-- Node6 -->
<g id="node6" class="node"><title>Node6</title>
<g id="a_node6"><a xlink:href="classVoxel_1_1TI_1_1ToFCalculusCamera.xhtml#aa931ad7b5e4b84779df941814c2a5b17" target="_top" xlink:title="Voxel::TI::ToFCalculusCamera\l::_init">
<polygon fill="none" stroke="black" points="771,-220 771,-250 923,-250 923,-220 771,-220"/>
<text text-anchor="start" x="779" y="-238" font-family="Helvetica,sans-Serif" font-size="10.00">Voxel::TI::ToFCalculusCamera</text>
<text text-anchor="middle" x="847" y="-227" font-family="Helvetica,sans-Serif" font-size="10.00">::_init</text>
</a>
</g>
</g>
<!-- Node5&#45;&gt;Node6 -->
<g id="edge6" class="edge"><title>Node5&#45;&gt;Node6</title>
<path fill="none" stroke="midnightblue" d="M722.303,-181.251C750.11,-193.334 785.454,-208.691 811.235,-219.894"/>
<polygon fill="midnightblue" stroke="midnightblue" points="723.376,-177.901 712.81,-177.126 720.586,-184.321 723.376,-177.901"/>
</g>
<!-- Node9 -->
<g id="node9" class="node"><title>Node9</title>
<g id="a_node9"><a xlink:href="classVoxel_1_1TI_1_1ToFHaddockCamera.xhtml#a749a2bbcdbfa69054d523866504743d1" target="_top" xlink:title="Voxel::TI::ToFHaddockCamera\l::_init">
<polygon fill="none" stroke="black" points="770.5,-147 770.5,-177 923.5,-177 923.5,-147 770.5,-147"/>
<text text-anchor="start" x="778.5" y="-165" font-family="Helvetica,sans-Serif" font-size="10.00">Voxel::TI::ToFHaddockCamera</text>
<text text-anchor="middle" x="847" y="-154" font-family="Helvetica,sans-Serif" font-size="10.00">::_init</text>
</a>
</g>
</g>
<!-- Node5&#45;&gt;Node9 -->
<g id="edge9" class="edge"><title>Node5&#45;&gt;Node9</title>
<path fill="none" stroke="midnightblue" d="M744.582,-162C753.043,-162 761.751,-162 770.341,-162"/>
<polygon fill="midnightblue" stroke="midnightblue" points="744.409,-158.5 734.409,-162 744.409,-165.5 744.409,-158.5"/>
</g>
<!-- Node16 -->
<g id="node16" class="node"><title>Node16</title>
<g id="a_node16"><a xlink:href="classVoxel_1_1TI_1_1ToFTintinCamera.xhtml#af894a732f4beedc37144927eec93cc89" target="_top" xlink:title="Voxel::TI::ToFTintinCamera\l::_init">
<polygon fill="none" stroke="black" points="778,-49 778,-79 916,-79 916,-49 778,-49"/>
<text text-anchor="start" x="786" y="-67" font-family="Helvetica,sans-Serif" font-size="10.00">Voxel::TI::ToFTintinCamera</text>
<text text-anchor="middle" x="847" y="-56" font-family="Helvetica,sans-Serif" font-size="10.00">::_init</text>
</a>
</g>
</g>
<!-- Node5&#45;&gt;Node16 -->
<g id="edge16" class="edge"><title>Node5&#45;&gt;Node16</title>
<path fill="none" stroke="midnightblue" d="M712.88,-141.653C744.812,-123.026 791.343,-95.8834 820.089,-79.1149"/>
<polygon fill="midnightblue" stroke="midnightblue" points="710.756,-138.84 703.882,-146.902 714.283,-144.887 710.756,-138.84"/>
</g>
<!-- Node7 -->
<g id="node7" class="node"><title>Node7</title>
<g id="a_node7"><a xlink:href="classVoxel_1_1TI_1_1CalculusCDKCamera.xhtml#a82eb752fb0d4b63495d2e29b6b8aed2c" target="_top" xlink:title="Voxel::TI::CalculusCDKCamera\l::_init">
<polygon fill="none" stroke="black" points="960.5,-245 960.5,-275 1117.5,-275 1117.5,-245 960.5,-245"/>
<text text-anchor="start" x="968.5" y="-263" font-family="Helvetica,sans-Serif" font-size="10.00">Voxel::TI::CalculusCDKCamera</text>
<text text-anchor="middle" x="1039" y="-252" font-family="Helvetica,sans-Serif" font-size="10.00">::_init</text>
</a>
</g>
</g>
<!-- Node6&#45;&gt;Node7 -->
<g id="edge7" class="edge"><title>Node6&#45;&gt;Node7</title>
<path fill="none" stroke="midnightblue" d="M933.219,-246.213C942.249,-247.401 951.398,-248.605 960.334,-249.781"/>
<polygon fill="midnightblue" stroke="midnightblue" points="933.464,-242.715 923.093,-244.881 932.551,-249.655 933.464,-242.715"/>
</g>
<!-- Node8 -->
<g id="node8" class="node"><title>Node8</title>
<g id="a_node8"><a xlink:href="classVoxel_1_1TI_1_1CalculusCDKCamera.xhtml#af406b1427962d80da9af9fb24e89b239" target="_top" xlink:title="Voxel::TI::CalculusCDKCamera\l::CalculusCDKCamera">
<polygon fill="none" stroke="black" points="1154.5,-245 1154.5,-275 1311.5,-275 1311.5,-245 1154.5,-245"/>
<text text-anchor="start" x="1162.5" y="-263" font-family="Helvetica,sans-Serif" font-size="10.00">Voxel::TI::CalculusCDKCamera</text>
<text text-anchor="middle" x="1233" y="-252" font-family="Helvetica,sans-Serif" font-size="10.00">::CalculusCDKCamera</text>
</a>
</g>
</g>
<!-- Node7&#45;&gt;Node8 -->
<g id="edge8" class="edge"><title>Node7&#45;&gt;Node8</title>
<path fill="none" stroke="midnightblue" d="M1127.6,-260C1136.57,-260 1145.64,-260 1154.48,-260"/>
<polygon fill="midnightblue" stroke="midnightblue" points="1127.54,-256.5 1117.54,-260 1127.54,-263.5 1127.54,-256.5"/>
</g>
<!-- Node10 -->
<g id="node10" class="node"><title>Node10</title>
<g id="a_node10"><a xlink:href="classVoxel_1_1TI_1_1HaddockCDKCamera.xhtml#a7dff103da3145dd303a5bc0db75ae961" target="_top" xlink:title="Voxel::TI::HaddockCDKCamera\l::_init">
<polygon fill="none" stroke="black" points="960,-196 960,-226 1118,-226 1118,-196 960,-196"/>
<text text-anchor="start" x="968" y="-214" font-family="Helvetica,sans-Serif" font-size="10.00">Voxel::TI::HaddockCDKCamera</text>
<text text-anchor="middle" x="1039" y="-203" font-family="Helvetica,sans-Serif" font-size="10.00">::_init</text>
</a>
</g>
</g>
<!-- Node9&#45;&gt;Node10 -->
<g id="edge10" class="edge"><title>Node9&#45;&gt;Node10</title>
<path fill="none" stroke="midnightblue" d="M916.05,-179.55C936.915,-184.931 959.67,-190.799 979.813,-195.994"/>
<polygon fill="midnightblue" stroke="midnightblue" points="916.855,-176.143 906.297,-177.035 915.107,-182.921 916.855,-176.143"/>
</g>
<!-- Node12 -->
<g id="node12" class="node"><title>Node12</title>
<g id="a_node12"><a xlink:href="classVoxel_1_1TI_1_1RTS5825Camera.xhtml#af7d33e164feac1c63726d2757227c3bc" target="_top" xlink:title="Voxel::TI::RTS5825Camera\l::_init">
<polygon fill="none" stroke="black" points="970,-147 970,-177 1108,-177 1108,-147 970,-147"/>
<text text-anchor="start" x="978" y="-165" font-family="Helvetica,sans-Serif" font-size="10.00">Voxel::TI::RTS5825Camera</text>
<text text-anchor="middle" x="1039" y="-154" font-family="Helvetica,sans-Serif" font-size="10.00">::_init</text>
</a>
</g>
</g>
<!-- Node9&#45;&gt;Node12 -->
<g id="edge12" class="edge"><title>Node9&#45;&gt;Node12</title>
<path fill="none" stroke="midnightblue" d="M933.704,-162C945.764,-162 958.025,-162 969.7,-162"/>
<polygon fill="midnightblue" stroke="midnightblue" points="933.639,-158.5 923.639,-162 933.639,-165.5 933.639,-158.5"/>
</g>
<!-- Node14 -->
<g id="node14" class="node"><title>Node14</title>
<g id="a_node14"><a xlink:href="classVoxel_1_1TI_1_1Voxel14Camera.xhtml#a89011bfb795ff58d3fb8675364b91abe" target="_top" xlink:title="Voxel::TI::Voxel14Camera\l::_init">
<polygon fill="none" stroke="black" points="973,-98 973,-128 1105,-128 1105,-98 973,-98"/>
<text text-anchor="start" x="981" y="-116" font-family="Helvetica,sans-Serif" font-size="10.00">Voxel::TI::Voxel14Camera</text>
<text text-anchor="middle" x="1039" y="-105" font-family="Helvetica,sans-Serif" font-size="10.00">::_init</text>
</a>
</g>
</g>
<!-- Node9&#45;&gt;Node14 -->
<g id="edge14" class="edge"><title>Node9&#45;&gt;Node14</title>
<path fill="none" stroke="midnightblue" d="M916.05,-144.45C936.915,-139.069 959.67,-133.201 979.813,-128.006"/>
<polygon fill="midnightblue" stroke="midnightblue" points="915.107,-141.079 906.297,-146.965 916.855,-147.857 915.107,-141.079"/>
</g>
<!-- Node11 -->
<g id="node11" class="node"><title>Node11</title>
<g id="a_node11"><a xlink:href="classVoxel_1_1TI_1_1HaddockCDKCamera.xhtml#ac2c5e82486c4cc3f5edada38cd4274c5" target="_top" xlink:title="Voxel::TI::HaddockCDKCamera\l::HaddockCDKCamera">
<polygon fill="none" stroke="black" points="1154,-196 1154,-226 1312,-226 1312,-196 1154,-196"/>
<text text-anchor="start" x="1162" y="-214" font-family="Helvetica,sans-Serif" font-size="10.00">Voxel::TI::HaddockCDKCamera</text>
<text text-anchor="middle" x="1233" y="-203" font-family="Helvetica,sans-Serif" font-size="10.00">::HaddockCDKCamera</text>
</a>
</g>
</g>
<!-- Node10&#45;&gt;Node11 -->
<g id="edge11" class="edge"><title>Node10&#45;&gt;Node11</title>
<path fill="none" stroke="midnightblue" d="M1128.15,-211C1136.77,-211 1145.47,-211 1153.98,-211"/>
<polygon fill="midnightblue" stroke="midnightblue" points="1128.09,-207.5 1118.09,-211 1128.09,-214.5 1128.09,-207.5"/>
</g>
<!-- Node13 -->
<g id="node13" class="node"><title>Node13</title>
<g id="a_node13"><a xlink:href="classVoxel_1_1TI_1_1RTS5825Camera.xhtml#a7a242f28e79a95d9a918946beb0b0461" target="_top" xlink:title="Voxel::TI::RTS5825Camera\l::RTS5825Camera">
<polygon fill="none" stroke="black" points="1164,-147 1164,-177 1302,-177 1302,-147 1164,-147"/>
<text text-anchor="start" x="1172" y="-165" font-family="Helvetica,sans-Serif" font-size="10.00">Voxel::TI::RTS5825Camera</text>
<text text-anchor="middle" x="1233" y="-154" font-family="Helvetica,sans-Serif" font-size="10.00">::RTS5825Camera</text>
</a>
</g>
</g>
<!-- Node12&#45;&gt;Node13 -->
<g id="edge13" class="edge"><title>Node12&#45;&gt;Node13</title>
<path fill="none" stroke="midnightblue" d="M1118.55,-162C1133.62,-162 1149.28,-162 1163.99,-162"/>
<polygon fill="midnightblue" stroke="midnightblue" points="1118.23,-158.5 1108.23,-162 1118.23,-165.5 1118.23,-158.5"/>
</g>
<!-- Node15 -->
<g id="node15" class="node"><title>Node15</title>
<g id="a_node15"><a xlink:href="classVoxel_1_1TI_1_1Voxel14Camera.xhtml#a606f13ed73547ee43f585e241b42dd5d" target="_top" xlink:title="Voxel::TI::Voxel14Camera\l::Voxel14Camera">
<polygon fill="none" stroke="black" points="1167,-98 1167,-128 1299,-128 1299,-98 1167,-98"/>
<text text-anchor="start" x="1175" y="-116" font-family="Helvetica,sans-Serif" font-size="10.00">Voxel::TI::Voxel14Camera</text>
<text text-anchor="middle" x="1233" y="-105" font-family="Helvetica,sans-Serif" font-size="10.00">::Voxel14Camera</text>
</a>
</g>
</g>
<!-- Node14&#45;&gt;Node15 -->
<g id="edge15" class="edge"><title>Node14&#45;&gt;Node15</title>
<path fill="none" stroke="midnightblue" d="M1115.42,-113C1132.38,-113 1150.24,-113 1166.74,-113"/>
<polygon fill="midnightblue" stroke="midnightblue" points="1115,-109.5 1105,-113 1115,-116.5 1115,-109.5"/>
</g>
<!-- Node17 -->
<g id="node17" class="node"><title>Node17</title>
<g id="a_node17"><a xlink:href="classVoxel_1_1TI_1_1TintinCDKCamera.xhtml#af5337f40c1a075c026263ea9871a20ee" target="_top" xlink:title="Voxel::TI::TintinCDKCamera\l::_init">
<polygon fill="none" stroke="black" points="967.5,-49 967.5,-79 1110.5,-79 1110.5,-49 967.5,-49"/>
<text text-anchor="start" x="975.5" y="-67" font-family="Helvetica,sans-Serif" font-size="10.00">Voxel::TI::TintinCDKCamera</text>
<text text-anchor="middle" x="1039" y="-56" font-family="Helvetica,sans-Serif" font-size="10.00">::_init</text>
</a>
</g>
</g>
<!-- Node16&#45;&gt;Node17 -->
<g id="edge17" class="edge"><title>Node16&#45;&gt;Node17</title>
<path fill="none" stroke="midnightblue" d="M926.309,-64C939.859,-64 953.877,-64 967.213,-64"/>
<polygon fill="midnightblue" stroke="midnightblue" points="926.058,-60.5001 916.058,-64 926.058,-67.5001 926.058,-60.5001"/>
</g>
<!-- Node19 -->
<g id="node19" class="node"><title>Node19</title>
<g id="a_node19"><a xlink:href="classVoxel_1_1TI_1_1VoxelDCamera.xhtml#a47b15c40c3fbcc52ae1eb3c9fe74d9f1" target="_top" xlink:title="Voxel::TI::VoxelDCamera\l::_init">
<polygon fill="none" stroke="black" points="974.5,-0 974.5,-30 1103.5,-30 1103.5,-0 974.5,-0"/>
<text text-anchor="start" x="982.5" y="-18" font-family="Helvetica,sans-Serif" font-size="10.00">Voxel::TI::VoxelDCamera</text>
<text text-anchor="middle" x="1039" y="-7" font-family="Helvetica,sans-Serif" font-size="10.00">::_init</text>
</a>
</g>
</g>
<!-- Node16&#45;&gt;Node19 -->
<g id="edge19" class="edge"><title>Node16&#45;&gt;Node19</title>
<path fill="none" stroke="midnightblue" d="M916.05,-46.4502C936.915,-41.0694 959.67,-35.201 979.813,-30.0062"/>
<polygon fill="midnightblue" stroke="midnightblue" points="915.107,-43.079 906.297,-48.9654 916.855,-49.8572 915.107,-43.079"/>
</g>
<!-- Node18 -->
<g id="node18" class="node"><title>Node18</title>
<g id="a_node18"><a xlink:href="classVoxel_1_1TI_1_1TintinCDKCamera.xhtml#a7a9918bb8b6d76bc3511536019847c1d" target="_top" xlink:title="Voxel::TI::TintinCDKCamera\l::TintinCDKCamera">
<polygon fill="none" stroke="black" points="1161.5,-49 1161.5,-79 1304.5,-79 1304.5,-49 1161.5,-49"/>
<text text-anchor="start" x="1169.5" y="-67" font-family="Helvetica,sans-Serif" font-size="10.00">Voxel::TI::TintinCDKCamera</text>
<text text-anchor="middle" x="1233" y="-56" font-family="Helvetica,sans-Serif" font-size="10.00">::TintinCDKCamera</text>
</a>
</g>
</g>
<!-- Node17&#45;&gt;Node18 -->
<g id="edge18" class="edge"><title>Node17&#45;&gt;Node18</title>
<path fill="none" stroke="midnightblue" d="M1120.89,-64C1134.38,-64 1148.27,-64 1161.47,-64"/>
<polygon fill="midnightblue" stroke="midnightblue" points="1120.68,-60.5001 1110.68,-64 1120.68,-67.5001 1120.68,-60.5001"/>
</g>
<!-- Node20 -->
<g id="node20" class="node"><title>Node20</title>
<g id="a_node20"><a xlink:href="classVoxel_1_1TI_1_1VoxelDCamera.xhtml#a4a95cf8257e2f9f5fd34386b87f6663a" target="_top" xlink:title="Voxel::TI::VoxelDCamera\l::VoxelDCamera">
<polygon fill="none" stroke="black" points="1168.5,-0 1168.5,-30 1297.5,-30 1297.5,-0 1168.5,-0"/>
<text text-anchor="start" x="1176.5" y="-18" font-family="Helvetica,sans-Serif" font-size="10.00">Voxel::TI::VoxelDCamera</text>
<text text-anchor="middle" x="1233" y="-7" font-family="Helvetica,sans-Serif" font-size="10.00">::VoxelDCamera</text>
</a>
</g>
</g>
<!-- Node19&#45;&gt;Node20 -->
<g id="edge20" class="edge"><title>Node19&#45;&gt;Node20</title>
<path fill="none" stroke="midnightblue" d="M1113.79,-15C1131.72,-15 1150.75,-15 1168.18,-15"/>
<polygon fill="midnightblue" stroke="midnightblue" points="1113.67,-11.5001 1103.67,-15 1113.67,-18.5001 1113.67,-11.5001"/>
</g>
</g>
</svg>
        <g id="navigator" transform="translate(0 0)" fill="#404254">
                <rect fill="#f2f5e9" fill-opacity="0.5" stroke="#606060" stroke-width=".5" x="0" y="0" width="60" height="60"/>
                <use id="zoomplus" xlink:href="#zoomPlus" x="17" y="9" onmousedown="handleZoom(evt,'in')"/>
                <use id="zoomminus" xlink:href="#zoomMin" x="42" y="9" onmousedown="handleZoom(evt,'out')"/>
                <use id="reset" xlink:href="#resetDef" x="30" y="36" onmousedown="handleReset()"/>
                <g id="arrowUp" xlink:href="#dirArrow" transform="translate(30 24)" onmousedown="handlePan(0,-1)">
                  <use xlink:href="#rim" fill="#404040">
                        <set attributeName="fill" to="#808080" begin="arrowUp.mouseover" end="arrowUp.mouseout"/>
                  </use>
                  <path fill="none" stroke="white" stroke-width="1.5" d="M0,-3.0v7 M-2.5,-0.5L0,-3.0L2.5,-0.5"/>
                </g>
                <g id="arrowRight" xlink:href="#dirArrow" transform="rotate(90) translate(36 -43)" onmousedown="handlePan(1,0)">
                  <use xlink:href="#rim" fill="#404040">
                        <set attributeName="fill" to="#808080" begin="arrowRight.mouseover" end="arrowRight.mouseout"/>
                  </use>
                  <path fill="none" stroke="white" stroke-width="1.5" d="M0,-3.0v7 M-2.5,-0.5L0,-3.0L2.5,-0.5"/>
                </g>
                <g id="arrowDown" xlink:href="#dirArrow" transform="rotate(180) translate(-30 -48)" onmousedown="handlePan(0,1)">
                  <use xlink:href="#rim" fill="#404040">
                        <set attributeName="fill" to="#808080" begin="arrowDown.mouseover" end="arrowDown.mouseout"/>
                  </use>
                  <path fill="none" stroke="white" stroke-width="1.5" d="M0,-3.0v7 M-2.5,-0.5L0,-3.0L2.5,-0.5"/>
                </g>
                <g id="arrowLeft" xlink:href="#dirArrow" transform="rotate(270) translate(-36 17)" onmousedown="handlePan(-1,0)">
                  <use xlink:href="#rim" fill="#404040">
                        <set attributeName="fill" to="#808080" begin="arrowLeft.mouseover" end="arrowLeft.mouseout"/>
                  </use>
                  <path fill="none" stroke="white" stroke-width="1.5" d="M0,-3.0v7 M-2.5,-0.5L0,-3.0L2.5,-0.5"/>
                </g>
        </g>
        <svg viewBox="0 0 15 15" width="100%" height="30px" preserveAspectRatio="xMaxYMin meet">
         <g id="arrow_out" transform="scale(0.3 0.3)">
          <a xlink:href="classVoxel_1_1ConfigurationFile_ab19da121144ed967232770576b8f4e5f_icgraph_org.svg" target="_base">
           <rect id="button" ry="5" rx="5" y="6" x="6" height="38" width="38"
                fill="#f2f5e9" fill-opacity="0.5" stroke="#606060" stroke-width="1.0"/>
           <path id="arrow"
             d="M 11.500037,31.436501 C 11.940474,20.09759 22.043105,11.32322 32.158766,21.979434 L 37.068811,17.246167 C 37.068811,17.246167 37.088388,32 37.088388,32 L 22.160133,31.978069 C 22.160133,31.978069 26.997745,27.140456 26.997745,27.140456 C 18.528582,18.264221 13.291696,25.230495 11.500037,31.436501 z"
             style="fill:#404040;"/>
          </a>
         </g>
        </svg>
</svg>
