<?xml version="1.0" encoding="UTF-8" standalone="no"?>
<!DOCTYPE svg PUBLIC "-//W3C//DTD SVG 1.1//EN"
 "http://www.w3.org/Graphics/SVG/1.1/DTD/svg11.dtd">
<!-- Generated by graphviz version 2.36.0 (20140111.2315)
 -->
<!-- Title: ELFIO::string_section_accessor::get_string Pages: 1 -->
<svg width="460pt" height="147pt"
 viewBox="0.00 0.00 460.00 147.00" xmlns="http://www.w3.org/2000/svg" xmlns:xlink="http://www.w3.org/1999/xlink">
<g id="graph0" class="graph" transform="scale(1 1) rotate(0) translate(4 143)">
<title>ELFIO::string_section_accessor::get_string</title>
<!-- Node1 -->
<g id="node1" class="node"><title>Node1</title>
<polygon fill="#bfbfbf" stroke="black" points="0,-49 0,-79 112,-79 112,-49 0,-49"/>
<text text-anchor="start" x="8" y="-67" font-family="Helvetica,sans-Serif" font-size="10.00">ELFIO::string_section</text>
<text text-anchor="middle" x="56" y="-56" font-family="Helvetica,sans-Serif" font-size="10.00">_accessor::get_string</text>
</g>
<!-- Node2 -->
<g id="node2" class="node"><title>Node2</title>
<g id="a_node2"><a xlink:href="classELFIO_1_1symbol__section__accessor.xhtml#aa6654ae16f8c2cd7aee6315d115dda52" target="_top" xlink:title="ELFIO::symbol_section\l_accessor::generic_get\l_symbol">
<polygon fill="none" stroke="black" points="151.5,-97.5 151.5,-138.5 270.5,-138.5 270.5,-97.5 151.5,-97.5"/>
<text text-anchor="start" x="159.5" y="-126.5" font-family="Helvetica,sans-Serif" font-size="10.00">ELFIO::symbol_section</text>
<text text-anchor="start" x="159.5" y="-115.5" font-family="Helvetica,sans-Serif" font-size="10.00">_accessor::generic_get</text>
<text text-anchor="middle" x="211" y="-104.5" font-family="Helvetica,sans-Serif" font-size="10.00">_symbol</text>
</a>
</g>
</g>
<!-- Node1&#45;&gt;Node2 -->
<g id="edge1" class="edge"><title>Node1&#45;&gt;Node2</title>
<path fill="none" stroke="midnightblue" d="M109.361,-82.4804C123.059,-87.3151 137.908,-92.5558 151.886,-97.4893"/>
<polygon fill="midnightblue" stroke="midnightblue" points="110.214,-79.0698 99.619,-79.042 107.884,-85.6707 110.214,-79.0698"/>
</g>
<!-- Node3 -->
<g id="node3" class="node"><title>Node3</title>
<g id="a_node3"><a xlink:href="classELFIO_1_1dynamic__section__accessor.xhtml#a96572acd12da838914034ab7c6993d65" target="_top" xlink:title="ELFIO::dynamic_section\l_accessor::get_entry">
<polygon fill="none" stroke="black" points="148.5,-49 148.5,-79 273.5,-79 273.5,-49 148.5,-49"/>
<text text-anchor="start" x="156.5" y="-67" font-family="Helvetica,sans-Serif" font-size="10.00">ELFIO::dynamic_section</text>
<text text-anchor="middle" x="211" y="-56" font-family="Helvetica,sans-Serif" font-size="10.00">_accessor::get_entry</text>
</a>
</g>
</g>
<!-- Node1&#45;&gt;Node3 -->
<g id="edge2" class="edge"><title>Node1&#45;&gt;Node3</title>
<path fill="none" stroke="midnightblue" d="M122.275,-64C130.927,-64 139.774,-64 148.362,-64"/>
<polygon fill="midnightblue" stroke="midnightblue" points="122.237,-60.5001 112.237,-64 122.236,-67.5001 122.237,-60.5001"/>
</g>
<!-- Node6 -->
<g id="node6" class="node"><title>Node6</title>
<g id="a_node6"><a xlink:href="classELFIO_1_1elfio.xhtml#a38fb57bbcfaec1219a0a59061f85a98b" target="_top" xlink:title="ELFIO::elfio::load\l_sections">
<polygon fill="none" stroke="black" points="164.5,-0 164.5,-30 257.5,-30 257.5,-0 164.5,-0"/>
<text text-anchor="start" x="172.5" y="-18" font-family="Helvetica,sans-Serif" font-size="10.00">ELFIO::elfio::load</text>
<text text-anchor="middle" x="211" y="-7" font-family="Helvetica,sans-Serif" font-size="10.00">_sections</text>
</a>
</g>
</g>
<!-- Node1&#45;&gt;Node6 -->
<g id="edge5" class="edge"><title>Node1&#45;&gt;Node6</title>
<path fill="none" stroke="midnightblue" d="M113.782,-45.8151C130.441,-40.4796 148.44,-34.7153 164.314,-29.6316"/>
<polygon fill="midnightblue" stroke="midnightblue" points="112.609,-42.5152 104.153,-48.8986 114.745,-49.1817 112.609,-42.5152"/>
</g>
<!-- Node4 -->
<g id="node4" class="node"><title>Node4</title>
<g id="a_node4"><a xlink:href="classELFIO_1_1dump.xhtml#a86b6fd3d926ec4ffd27e266836adf600" target="_top" xlink:title="ELFIO::dump::dynamic_tags">
<polygon fill="none" stroke="black" points="310,-95.5 310,-114.5 452,-114.5 452,-95.5 310,-95.5"/>
<text text-anchor="middle" x="381" y="-102.5" font-family="Helvetica,sans-Serif" font-size="10.00">ELFIO::dump::dynamic_tags</text>
</a>
</g>
</g>
<!-- Node3&#45;&gt;Node4 -->
<g id="edge3" class="edge"><title>Node3&#45;&gt;Node4</title>
<path fill="none" stroke="midnightblue" d="M283.471,-81.4424C303.142,-86.243 323.75,-91.2724 340.85,-95.4455"/>
<polygon fill="midnightblue" stroke="midnightblue" points="284.148,-78.0048 273.603,-79.0341 282.488,-84.8053 284.148,-78.0048"/>
</g>
<!-- Node5 -->
<g id="node5" class="node"><title>Node5</title>
<g id="a_node5"><a xlink:href="classVoxel_1_1DepthCameraLibrary.xhtml#a7e3111064a8cb071ec2d62c92b3cf672" target="_top" xlink:title="Voxel::DepthCameraLibrary\l::getABIVersion">
<polygon fill="none" stroke="black" points="312.5,-46 312.5,-76 449.5,-76 449.5,-46 312.5,-46"/>
<text text-anchor="start" x="320.5" y="-64" font-family="Helvetica,sans-Serif" font-size="10.00">Voxel::DepthCameraLibrary</text>
<text text-anchor="middle" x="381" y="-53" font-family="Helvetica,sans-Serif" font-size="10.00">::getABIVersion</text>
</a>
</g>
</g>
<!-- Node3&#45;&gt;Node5 -->
<g id="edge4" class="edge"><title>Node3&#45;&gt;Node5</title>
<path fill="none" stroke="midnightblue" d="M283.808,-62.7177C293.312,-62.548 303.028,-62.3745 312.457,-62.2061"/>
<polygon fill="midnightblue" stroke="midnightblue" points="283.539,-59.2219 273.603,-62.8999 283.664,-66.2207 283.539,-59.2219"/>
</g>
<!-- Node7 -->
<g id="node7" class="node"><title>Node7</title>
<g id="a_node7"><a xlink:href="classELFIO_1_1elfio.xhtml#a1eb421b95b3deb91f7e4c28cbf094614" target="_top" xlink:title="ELFIO::elfio::load">
<polygon fill="none" stroke="black" points="334.5,-5.5 334.5,-24.5 427.5,-24.5 427.5,-5.5 334.5,-5.5"/>
<text text-anchor="middle" x="381" y="-12.5" font-family="Helvetica,sans-Serif" font-size="10.00">ELFIO::elfio::load</text>
</a>
</g>
</g>
<!-- Node6&#45;&gt;Node7 -->
<g id="edge6" class="edge"><title>Node6&#45;&gt;Node7</title>
<path fill="none" stroke="midnightblue" d="M267.933,-15C289.535,-15 313.936,-15 334.44,-15"/>
<polygon fill="midnightblue" stroke="midnightblue" points="267.907,-11.5001 257.907,-15 267.907,-18.5001 267.907,-11.5001"/>
</g>
</g>
</svg>
