<?xml version="1.0" encoding="UTF-8" standalone="no"?>
<!DOCTYPE svg PUBLIC "-//W3C//DTD SVG 1.1//EN"
 "http://www.w3.org/Graphics/SVG/1.1/DTD/svg11.dtd">
<!-- Generated by graphviz version 2.36.0 (20140111.2315)
 -->
<!-- Title: Voxel::TI::HaddockCDKCamera::_initStartParams Pages: 1 -->
<svg width="1440pt" height="998pt"
 viewBox="0.00 0.00 1440.00 998.00" xmlns="http://www.w3.org/2000/svg" xmlns:xlink="http://www.w3.org/1999/xlink">
<g id="graph0" class="graph" transform="scale(1 1) rotate(0) translate(4 994)">
<title>Voxel::TI::HaddockCDKCamera::_initStartParams</title>
<!-- Node1 -->
<g id="node1" class="node"><title>Node1</title>
<polygon fill="#bfbfbf" stroke="black" points="0,-88 0,-118 158,-118 158,-88 0,-88"/>
<text text-anchor="start" x="8" y="-106" font-family="Helvetica,sans-Serif" font-size="10.00">Voxel::TI::HaddockCDKCamera</text>
<text text-anchor="middle" x="79" y="-95" font-family="Helvetica,sans-Serif" font-size="10.00">::_initStartParams</text>
</g>
<!-- Node2 -->
<g id="node2" class="node"><title>Node2</title>
<g id="a_node2"><a xlink:href="classVoxel_1_1TI_1_1ToFCamera.xhtml#a0a0a64555070bb8804baacb1cdaabfc9" target="_top" xlink:title="Voxel::TI::ToFCamera\l::_getFrameSize">
<polygon fill="none" stroke="black" points="216,-59 216,-89 330,-89 330,-59 216,-59"/>
<text text-anchor="start" x="224" y="-77" font-family="Helvetica,sans-Serif" font-size="10.00">Voxel::TI::ToFCamera</text>
<text text-anchor="middle" x="273" y="-66" font-family="Helvetica,sans-Serif" font-size="10.00">::_getFrameSize</text>
</a>
</g>
</g>
<!-- Node1&#45;&gt;Node2 -->
<g id="edge1" class="edge"><title>Node1&#45;&gt;Node2</title>
<path fill="none" stroke="midnightblue" d="M158.094,-91.2046C173.935,-88.812 190.45,-86.3175 205.831,-83.9943"/>
<polygon fill="midnightblue" stroke="midnightblue" points="206.391,-87.4496 215.756,-82.4952 205.345,-80.5281 206.391,-87.4496"/>
</g>
<!-- Node6 -->
<g id="node6" class="node"><title>Node6</title>
<g id="a_node6"><a xlink:href="classVoxel_1_1TI_1_1ToFCamera.xhtml#a52686f695d06876ef5a89e453c6a8ba3" target="_top" xlink:title="Voxel::TI::ToFCamera\l::_initStartParams">
<polygon fill="none" stroke="black" points="216,-543 216,-573 330,-573 330,-543 216,-543"/>
<text text-anchor="start" x="224" y="-561" font-family="Helvetica,sans-Serif" font-size="10.00">Voxel::TI::ToFCamera</text>
<text text-anchor="middle" x="273" y="-550" font-family="Helvetica,sans-Serif" font-size="10.00">::_initStartParams</text>
</a>
</g>
</g>
<!-- Node1&#45;&gt;Node6 -->
<g id="edge5" class="edge"><title>Node1&#45;&gt;Node6</title>
<path fill="none" stroke="midnightblue" d="M86.3882,-118.139C114.434,-184.602 226.802,-450.89 261.644,-533.459"/>
<polygon fill="midnightblue" stroke="midnightblue" points="258.475,-534.952 265.588,-542.804 264.925,-532.23 258.475,-534.952"/>
</g>
<!-- Node43 -->
<g id="node43" class="node"><title>Node43</title>
<g id="a_node43"><a xlink:href="classVoxel_1_1TI_1_1HaddockCDKCamera.xhtml#a70d14d1308b84e604c0da43e994efa53" target="_top" xlink:title="Voxel::TI::HaddockCDKCamera\l::_setStreamerFrameSize">
<polygon fill="none" stroke="black" points="194,-113 194,-143 352,-143 352,-113 194,-113"/>
<text text-anchor="start" x="202" y="-131" font-family="Helvetica,sans-Serif" font-size="10.00">Voxel::TI::HaddockCDKCamera</text>
<text text-anchor="middle" x="273" y="-120" font-family="Helvetica,sans-Serif" font-size="10.00">::_setStreamerFrameSize</text>
</a>
</g>
</g>
<!-- Node1&#45;&gt;Node43 -->
<g id="edge51" class="edge"><title>Node1&#45;&gt;Node43</title>
<path fill="none" stroke="midnightblue" d="M158.094,-113.168C166.601,-114.276 175.302,-115.409 183.918,-116.531"/>
<polygon fill="midnightblue" stroke="midnightblue" points="183.607,-120.02 193.975,-117.841 184.511,-113.079 183.607,-120.02"/>
</g>
<!-- Node45 -->
<g id="node45" class="node"><title>Node45</title>
<g id="a_node45"><a xlink:href="classVoxel_1_1DepthCamera.xhtml#a4f1c6d826c1842d7bc3fbeea5ebb9616" target="_top" xlink:title="Voxel::DepthCamera::set">
<polygon fill="none" stroke="black" points="209,-10.5 209,-29.5 337,-29.5 337,-10.5 209,-10.5"/>
<text text-anchor="middle" x="273" y="-17.5" font-family="Helvetica,sans-Serif" font-size="10.00">Voxel::DepthCamera::set</text>
</a>
</g>
</g>
<!-- Node1&#45;&gt;Node45 -->
<g id="edge55" class="edge"><title>Node1&#45;&gt;Node45</title>
<path fill="none" stroke="midnightblue" d="M110.16,-87.8387C132.956,-76.5944 165.145,-61.1712 194,-49 207.153,-43.4517 221.774,-37.866 234.769,-33.0983"/>
<polygon fill="midnightblue" stroke="midnightblue" points="236.132,-36.3272 244.338,-29.6261 233.744,-29.7469 236.132,-36.3272"/>
</g>
<!-- Node3 -->
<g id="node3" class="node"><title>Node3</title>
<g id="a_node3"><a xlink:href="classVoxel_1_1DepthCamera.xhtml#ac850b3829f41e647686610c283197ea6" target="_top" xlink:title="Voxel::DepthCamera\l::_get">
<polygon fill="none" stroke="black" points="590,-132 590,-162 698,-162 698,-132 590,-132"/>
<text text-anchor="start" x="598" y="-150" font-family="Helvetica,sans-Serif" font-size="10.00">Voxel::DepthCamera</text>
<text text-anchor="middle" x="644" y="-139" font-family="Helvetica,sans-Serif" font-size="10.00">::_get</text>
</a>
</g>
</g>
<!-- Node2&#45;&gt;Node3 -->
<g id="edge2" class="edge"><title>Node2&#45;&gt;Node3</title>
<path fill="none" stroke="midnightblue" d="M330.239,-66.7962C382.105,-62.0349 460.716,-59.6253 526,-78 559.816,-87.5176 593.894,-109.323 616.479,-125.893"/>
<polygon fill="midnightblue" stroke="midnightblue" points="614.45,-128.745 624.548,-131.95 618.652,-123.147 614.45,-128.745"/>
</g>
<!-- Node4 -->
<g id="node4" class="node"><title>Node4</title>
<g id="a_node4"><a xlink:href="classVoxel_1_1ParameterTemplate.xhtml#afa8896eaffbd2b87d1482c0967a0fe1d" target="_top" xlink:title="Voxel::ParameterTemplate::get">
<polygon fill="none" stroke="black" points="762,-137.5 762,-156.5 914,-156.5 914,-137.5 762,-137.5"/>
<text text-anchor="middle" x="838" y="-144.5" font-family="Helvetica,sans-Serif" font-size="10.00">Voxel::ParameterTemplate::get</text>
</a>
</g>
</g>
<!-- Node3&#45;&gt;Node4 -->
<g id="edge3" class="edge"><title>Node3&#45;&gt;Node4</title>
<path fill="none" stroke="midnightblue" d="M698.228,-147C714.802,-147 733.514,-147 751.707,-147"/>
<polygon fill="midnightblue" stroke="midnightblue" points="751.743,-150.5 761.743,-147 751.743,-143.5 751.743,-150.5"/>
</g>
<!-- Node5 -->
<g id="node5" class="node"><title>Node5</title>
<g id="a_node5"><a xlink:href="classVoxel_1_1DepthCamera.xhtml#ae3d6fcc6d4a20d1ad2de809ad65ecc34" target="_top" xlink:title="Voxel::DepthCamera\l::name">
<polygon fill="none" stroke="black" points="784,-44 784,-74 892,-74 892,-44 784,-44"/>
<text text-anchor="start" x="792" y="-62" font-family="Helvetica,sans-Serif" font-size="10.00">Voxel::DepthCamera</text>
<text text-anchor="middle" x="838" y="-51" font-family="Helvetica,sans-Serif" font-size="10.00">::name</text>
</a>
</g>
</g>
<!-- Node3&#45;&gt;Node5 -->
<g id="edge4" class="edge"><title>Node3&#45;&gt;Node5</title>
<path fill="none" stroke="midnightblue" d="M678.006,-131.872C710.249,-117.094 759.467,-94.536 794.595,-78.4354"/>
<polygon fill="midnightblue" stroke="midnightblue" points="796.472,-81.4257 804.104,-74.0773 793.555,-75.0622 796.472,-81.4257"/>
</g>
<!-- Node7 -->
<g id="node7" class="node"><title>Node7</title>
<g id="a_node7"><a xlink:href="classVoxel_1_1TI_1_1ToFCamera.xhtml#abb0e21a487e4d2ae08031d0078b0578d" target="_top" xlink:title="Voxel::TI::ToFCamera\l::_getBinning">
<polygon fill="none" stroke="black" points="400,-960 400,-990 514,-990 514,-960 400,-960"/>
<text text-anchor="start" x="408" y="-978" font-family="Helvetica,sans-Serif" font-size="10.00">Voxel::TI::ToFCamera</text>
<text text-anchor="middle" x="457" y="-967" font-family="Helvetica,sans-Serif" font-size="10.00">::_getBinning</text>
</a>
</g>
</g>
<!-- Node6&#45;&gt;Node7 -->
<g id="edge6" class="edge"><title>Node6&#45;&gt;Node7</title>
<path fill="none" stroke="midnightblue" d="M273.82,-573.087C273.964,-630.318 282.114,-836.509 388,-950 389.239,-951.328 390.554,-952.585 391.934,-953.776"/>
<polygon fill="midnightblue" stroke="midnightblue" points="390.283,-956.9 400.445,-959.896 394.369,-951.216 390.283,-956.9"/>
</g>
<!-- Node8 -->
<g id="node8" class="node"><title>Node8</title>
<g id="a_node8"><a xlink:href="classVoxel_1_1DepthCamera.xhtml#ab2be6abc24dd344f63e082c19273d833" target="_top" xlink:title="Voxel::DepthCamera\l::getROI">
<polygon fill="none" stroke="black" points="403,-421 403,-451 511,-451 511,-421 403,-421"/>
<text text-anchor="start" x="411" y="-439" font-family="Helvetica,sans-Serif" font-size="10.00">Voxel::DepthCamera</text>
<text text-anchor="middle" x="457" y="-428" font-family="Helvetica,sans-Serif" font-size="10.00">::getROI</text>
</a>
</g>
</g>
<!-- Node6&#45;&gt;Node8 -->
<g id="edge7" class="edge"><title>Node6&#45;&gt;Node8</title>
<path fill="none" stroke="midnightblue" d="M288.102,-542.732C308.384,-521.56 347.792,-483.272 388,-460 390.871,-458.338 393.877,-456.763 396.958,-455.275"/>
<polygon fill="midnightblue" stroke="midnightblue" points="398.667,-458.345 406.37,-451.07 395.812,-451.953 398.667,-458.345"/>
</g>
<!-- Node10 -->
<g id="node10" class="node"><title>Node10</title>
<g id="a_node10"><a xlink:href="classVoxel_1_1ConfigurationFile.xhtml#aeefbdefcac8743d6f08c25109480da2f" target="_top" xlink:title="Voxel::ConfigurationFile\l::getInteger">
<polygon fill="none" stroke="black" points="396.5,-862 396.5,-892 517.5,-892 517.5,-862 396.5,-862"/>
<text text-anchor="start" x="404.5" y="-880" font-family="Helvetica,sans-Serif" font-size="10.00">Voxel::ConfigurationFile</text>
<text text-anchor="middle" x="457" y="-869" font-family="Helvetica,sans-Serif" font-size="10.00">::getInteger</text>
</a>
</g>
</g>
<!-- Node6&#45;&gt;Node10 -->
<g id="edge9" class="edge"><title>Node6&#45;&gt;Node10</title>
<path fill="none" stroke="midnightblue" d="M275.529,-573.181C281.139,-621.017 304.825,-770.276 388,-852 389.48,-853.455 391.052,-854.825 392.698,-856.117"/>
<polygon fill="midnightblue" stroke="midnightblue" points="391.193,-859.319 401.458,-861.942 395.068,-853.49 391.193,-859.319"/>
</g>
<!-- Node11 -->
<g id="node11" class="node"><title>Node11</title>
<g id="a_node11"><a xlink:href="classVoxel_1_1ConfigurationFile.xhtml#a3145251f8115c7ada128556345a41c62" target="_top" xlink:title="Voxel::ConfigurationFile\l::getFloat">
<polygon fill="none" stroke="black" points="396.5,-813 396.5,-843 517.5,-843 517.5,-813 396.5,-813"/>
<text text-anchor="start" x="404.5" y="-831" font-family="Helvetica,sans-Serif" font-size="10.00">Voxel::ConfigurationFile</text>
<text text-anchor="middle" x="457" y="-820" font-family="Helvetica,sans-Serif" font-size="10.00">::getFloat</text>
</a>
</g>
</g>
<!-- Node6&#45;&gt;Node11 -->
<g id="edge10" class="edge"><title>Node6&#45;&gt;Node11</title>
<path fill="none" stroke="midnightblue" d="M276.82,-573.029C285.522,-615.326 315.845,-736.612 388,-803 389.692,-804.557 391.489,-806.019 393.368,-807.392"/>
<polygon fill="midnightblue" stroke="midnightblue" points="391.726,-810.493 402.054,-812.856 395.453,-804.569 391.726,-810.493"/>
</g>
<!-- Node12 -->
<g id="node12" class="node"><title>Node12</title>
<g id="a_node12"><a xlink:href="classVoxel_1_1DepthCamera.xhtml#aa229ee837c73aa2c78a8bd7a26fa0955" target="_top" xlink:title="Voxel::DepthCamera\l::getMaximumFrameSize">
<polygon fill="none" stroke="black" points="394,-323 394,-353 520,-353 520,-323 394,-323"/>
<text text-anchor="start" x="402" y="-341" font-family="Helvetica,sans-Serif" font-size="10.00">Voxel::DepthCamera</text>
<text text-anchor="middle" x="457" y="-330" font-family="Helvetica,sans-Serif" font-size="10.00">::getMaximumFrameSize</text>
</a>
</g>
</g>
<!-- Node6&#45;&gt;Node12 -->
<g id="edge11" class="edge"><title>Node6&#45;&gt;Node12</title>
<path fill="none" stroke="midnightblue" d="M278.721,-542.829C290.832,-506.348 326.453,-412.967 388,-362 389.555,-360.712 391.184,-359.492 392.871,-358.335"/>
<polygon fill="midnightblue" stroke="midnightblue" points="394.92,-361.188 401.722,-353.065 391.339,-355.174 394.92,-361.188"/>
</g>
<!-- Node14 -->
<g id="node14" class="node"><title>Node14</title>
<g id="a_node14"><a xlink:href="classVoxel_1_1DepthCamera.xhtml#a52d1041f172901ff9206b1b409d4711d" target="_top" xlink:title="Voxel::DepthCamera\l::getFrameSize">
<polygon fill="none" stroke="black" points="403,-911 403,-941 511,-941 511,-911 403,-911"/>
<text text-anchor="start" x="411" y="-929" font-family="Helvetica,sans-Serif" font-size="10.00">Voxel::DepthCamera</text>
<text text-anchor="middle" x="457" y="-918" font-family="Helvetica,sans-Serif" font-size="10.00">::getFrameSize</text>
</a>
</g>
</g>
<!-- Node6&#45;&gt;Node14 -->
<g id="edge13" class="edge"><title>Node6&#45;&gt;Node14</title>
<path fill="none" stroke="midnightblue" d="M274.552,-573.01C277.29,-625.574 293.456,-803.437 388,-901 389.876,-902.936 391.916,-904.724 394.077,-906.374"/>
<polygon fill="midnightblue" stroke="midnightblue" points="392.631,-909.605 402.933,-912.079 396.422,-903.721 392.631,-909.605"/>
</g>
<!-- Node16 -->
<g id="node16" class="node"><title>Node16</title>
<g id="a_node16"><a xlink:href="classVoxel_1_1TI_1_1ToFCamera.xhtml#acf6c3a732c5a47f38f2d461d76709091" target="_top" xlink:title="Voxel::TI::ToFCamera\l::_getBytesPerPixel">
<polygon fill="none" stroke="black" points="400,-225 400,-255 514,-255 514,-225 400,-225"/>
<text text-anchor="start" x="408" y="-243" font-family="Helvetica,sans-Serif" font-size="10.00">Voxel::TI::ToFCamera</text>
<text text-anchor="middle" x="457" y="-232" font-family="Helvetica,sans-Serif" font-size="10.00">::_getBytesPerPixel</text>
</a>
</g>
</g>
<!-- Node6&#45;&gt;Node16 -->
<g id="edge15" class="edge"><title>Node6&#45;&gt;Node16</title>
<path fill="none" stroke="midnightblue" d="M275.484,-542.773C280.961,-494.801 304.295,-345.181 388,-264 389.095,-262.938 390.24,-261.922 391.428,-260.951"/>
<polygon fill="midnightblue" stroke="midnightblue" points="393.564,-263.73 399.809,-255.171 389.59,-257.968 393.564,-263.73"/>
</g>
<!-- Node17 -->
<g id="node17" class="node"><title>Node17</title>
<g id="a_node17"><a xlink:href="classVoxel_1_1TI_1_1ToFCamera.xhtml#a8722e9125739af3cd8c9291b7b6f126a" target="_top" xlink:title="Voxel::TI::ToFCamera\l::_getOpDataArrangeMode">
<polygon fill="none" stroke="black" points="390.5,-666 390.5,-696 523.5,-696 523.5,-666 390.5,-666"/>
<text text-anchor="start" x="398.5" y="-684" font-family="Helvetica,sans-Serif" font-size="10.00">Voxel::TI::ToFCamera</text>
<text text-anchor="middle" x="457" y="-673" font-family="Helvetica,sans-Serif" font-size="10.00">::_getOpDataArrangeMode</text>
</a>
</g>
</g>
<!-- Node6&#45;&gt;Node17 -->
<g id="edge17" class="edge"><title>Node6&#45;&gt;Node17</title>
<path fill="none" stroke="midnightblue" d="M288.145,-573.195C308.477,-594.28 347.944,-632.467 388,-656 391.44,-658.021 395.071,-659.925 398.794,-661.71"/>
<polygon fill="midnightblue" stroke="midnightblue" points="397.62,-665.019 408.178,-665.9 400.474,-658.627 397.62,-665.019"/>
</g>
<!-- Node18 -->
<g id="node18" class="node"><title>Node18</title>
<g id="a_node18"><a xlink:href="classVoxel_1_1TI_1_1ToFCamera.xhtml#a53e0fb4c6f4d4b9ac37b6f1ca763a104" target="_top" xlink:title="Voxel::TI::ToFCamera\l::_getToFFrameType">
<polygon fill="none" stroke="black" points="400,-176 400,-206 514,-206 514,-176 400,-176"/>
<text text-anchor="start" x="408" y="-194" font-family="Helvetica,sans-Serif" font-size="10.00">Voxel::TI::ToFCamera</text>
<text text-anchor="middle" x="457" y="-183" font-family="Helvetica,sans-Serif" font-size="10.00">::_getToFFrameType</text>
</a>
</g>
</g>
<!-- Node6&#45;&gt;Node18 -->
<g id="edge18" class="edge"><title>Node6&#45;&gt;Node18</title>
<path fill="none" stroke="midnightblue" d="M274.507,-542.946C277.095,-490.235 292.823,-311.946 388,-215 389.096,-213.883 390.248,-212.818 391.446,-211.803"/>
<polygon fill="midnightblue" stroke="midnightblue" points="393.806,-214.421 399.954,-205.793 389.767,-208.704 393.806,-214.421"/>
</g>
<!-- Node19 -->
<g id="node19" class="node"><title>Node19</title>
<g id="a_node19"><a xlink:href="classVoxel_1_1TI_1_1ToFCamera.xhtml#af3a59471799f2526c520511f688d247c" target="_top" xlink:title="Voxel::TI::ToFCamera\l::_is16BitModeEnabled">
<polygon fill="none" stroke="black" points="398.5,-617 398.5,-647 515.5,-647 515.5,-617 398.5,-617"/>
<text text-anchor="start" x="406.5" y="-635" font-family="Helvetica,sans-Serif" font-size="10.00">Voxel::TI::ToFCamera</text>
<text text-anchor="middle" x="457" y="-624" font-family="Helvetica,sans-Serif" font-size="10.00">::_is16BitModeEnabled</text>
</a>
</g>
</g>
<!-- Node6&#45;&gt;Node19 -->
<g id="edge20" class="edge"><title>Node6&#45;&gt;Node19</title>
<path fill="none" stroke="midnightblue" d="M307.722,-573.058C330.31,-583.005 360.783,-596.157 388,-607 393.185,-609.066 398.616,-611.167 404.051,-613.228"/>
<polygon fill="midnightblue" stroke="midnightblue" points="403.196,-616.645 413.788,-616.881 405.654,-610.091 403.196,-616.645"/>
</g>
<!-- Node20 -->
<g id="node20" class="node"><title>Node20</title>
<g id="a_node20"><a xlink:href="classVoxel_1_1TI_1_1ToFCamera.xhtml#a89f0b37afd1c32c500cdd7496e46cf50" target="_top" xlink:title="Voxel::TI::ToFCamera\l::_getDealiasedPhaseMask">
<polygon fill="none" stroke="black" points="388.5,-568 388.5,-598 525.5,-598 525.5,-568 388.5,-568"/>
<text text-anchor="start" x="396.5" y="-586" font-family="Helvetica,sans-Serif" font-size="10.00">Voxel::TI::ToFCamera</text>
<text text-anchor="middle" x="457" y="-575" font-family="Helvetica,sans-Serif" font-size="10.00">::_getDealiasedPhaseMask</text>
</a>
</g>
</g>
<!-- Node6&#45;&gt;Node20 -->
<g id="edge21" class="edge"><title>Node6&#45;&gt;Node20</title>
<path fill="none" stroke="midnightblue" d="M330.091,-565.705C345.314,-567.796 362.073,-570.098 378.26,-572.321"/>
<polygon fill="midnightblue" stroke="midnightblue" points="377.863,-575.8 388.246,-573.693 378.815,-568.865 377.863,-575.8"/>
</g>
<!-- Node21 -->
<g id="node21" class="node"><title>Node21</title>
<g id="a_node21"><a xlink:href="classVoxel_1_1MainConfigurationFile.xhtml#a0d061a6b01c29c40af3288f4783c3c07" target="_top" xlink:title="Voxel::MainConfiguration\lFile::isPresent">
<polygon fill="none" stroke="black" points="394,-715 394,-745 520,-745 520,-715 394,-715"/>
<text text-anchor="start" x="402" y="-733" font-family="Helvetica,sans-Serif" font-size="10.00">Voxel::MainConfiguration</text>
<text text-anchor="middle" x="457" y="-722" font-family="Helvetica,sans-Serif" font-size="10.00">File::isPresent</text>
</a>
</g>
</g>
<!-- Node6&#45;&gt;Node21 -->
<g id="edge22" class="edge"><title>Node6&#45;&gt;Node21</title>
<path fill="none" stroke="midnightblue" d="M281.924,-573.18C298.041,-602.659 337.438,-668 388,-705 390.508,-706.835 393.164,-708.549 395.918,-710.147"/>
<polygon fill="midnightblue" stroke="midnightblue" points="394.494,-713.352 404.98,-714.869 397.729,-707.144 394.494,-713.352"/>
</g>
<!-- Node31 -->
<g id="node31" class="node"><title>Node31</title>
<g id="a_node31"><a xlink:href="classVoxel_1_1MainConfigurationFile.xhtml#a700e33f6f37c59f24bdea5db5a037898" target="_top" xlink:title="Voxel::MainConfiguration\lFile::getFile">
<polygon fill="none" stroke="black" points="394,-764 394,-794 520,-794 520,-764 394,-764"/>
<text text-anchor="start" x="402" y="-782" font-family="Helvetica,sans-Serif" font-size="10.00">Voxel::MainConfiguration</text>
<text text-anchor="middle" x="457" y="-771" font-family="Helvetica,sans-Serif" font-size="10.00">File::getFile</text>
</a>
</g>
</g>
<!-- Node6&#45;&gt;Node31 -->
<g id="edge34" class="edge"><title>Node6&#45;&gt;Node31</title>
<path fill="none" stroke="midnightblue" d="M278.764,-573.119C290.97,-609.486 326.786,-702.633 388,-754 390.023,-755.698 392.172,-757.285 394.413,-758.769"/>
<polygon fill="midnightblue" stroke="midnightblue" points="393.027,-762.011 403.435,-763.993 396.535,-755.953 393.027,-762.011"/>
</g>
<!-- Node35 -->
<g id="node35" class="node"><title>Node35</title>
<g id="a_node35"><a xlink:href="classVoxel_1_1TI_1_1ToFCamera.xhtml#a3c35074af2f6b686cea15db188b9c53f" target="_top" xlink:title="Voxel::TI::ToFCamera\l::_isHistogramEnabled">
<polygon fill="none" stroke="black" points="399,-372 399,-402 515,-402 515,-372 399,-372"/>
<text text-anchor="start" x="407" y="-390" font-family="Helvetica,sans-Serif" font-size="10.00">Voxel::TI::ToFCamera</text>
<text text-anchor="middle" x="457" y="-379" font-family="Helvetica,sans-Serif" font-size="10.00">::_isHistogramEnabled</text>
</a>
</g>
</g>
<!-- Node6&#45;&gt;Node35 -->
<g id="edge40" class="edge"><title>Node6&#45;&gt;Node35</title>
<path fill="none" stroke="midnightblue" d="M281.882,-542.762C297.925,-513.181 337.198,-447.67 388,-411 389.897,-409.631 391.879,-408.333 393.925,-407.105"/>
<polygon fill="midnightblue" stroke="midnightblue" points="396.045,-409.941 403.224,-402.149 392.753,-403.763 396.045,-409.941"/>
</g>
<!-- Node36 -->
<g id="node36" class="node"><title>Node36</title>
<g id="a_node36"><a xlink:href="classVoxel_1_1MainConfigurationFile.xhtml#a0450eaddb1180226c1a3e898e978aba4" target="_top" xlink:title="Voxel::MainConfiguration\lFile::get">
<polygon fill="none" stroke="black" points="394,-519 394,-549 520,-549 520,-519 394,-519"/>
<text text-anchor="start" x="402" y="-537" font-family="Helvetica,sans-Serif" font-size="10.00">Voxel::MainConfiguration</text>
<text text-anchor="middle" x="457" y="-526" font-family="Helvetica,sans-Serif" font-size="10.00">File::get</text>
</a>
</g>
</g>
<!-- Node6&#45;&gt;Node36 -->
<g id="edge41" class="edge"><title>Node6&#45;&gt;Node36</title>
<path fill="none" stroke="midnightblue" d="M330.091,-550.603C346.942,-548.381 365.675,-545.911 383.431,-543.57"/>
<polygon fill="midnightblue" stroke="midnightblue" points="384.294,-546.986 393.751,-542.209 383.379,-540.046 384.294,-546.986"/>
</g>
<!-- Node39 -->
<g id="node39" class="node"><title>Node39</title>
<g id="a_node39"><a xlink:href="classVoxel_1_1TI_1_1ToFCamera.xhtml#a5ce6e98d8496efd0b62d926e73809034" target="_top" xlink:title="Voxel::TI::ToFCamera\l::_applyCalibrationParams">
<polygon fill="none" stroke="black" points="391.5,-274 391.5,-304 522.5,-304 522.5,-274 391.5,-274"/>
<text text-anchor="start" x="399.5" y="-292" font-family="Helvetica,sans-Serif" font-size="10.00">Voxel::TI::ToFCamera</text>
<text text-anchor="middle" x="457" y="-281" font-family="Helvetica,sans-Serif" font-size="10.00">::_applyCalibrationParams</text>
</a>
</g>
</g>
<!-- Node6&#45;&gt;Node39 -->
<g id="edge47" class="edge"><title>Node6&#45;&gt;Node39</title>
<path fill="none" stroke="midnightblue" d="M276.777,-542.923C285.364,-500.501 315.414,-378.917 388,-313 389.306,-311.814 390.675,-310.685 392.095,-309.612"/>
<polygon fill="midnightblue" stroke="midnightblue" points="394.211,-312.412 400.714,-304.049 390.415,-306.531 394.211,-312.412"/>
</g>
<!-- Node40 -->
<g id="node40" class="node"><title>Node40</title>
<g id="a_node40"><a xlink:href="classVoxel_1_1TI_1_1ToFCameraBase.xhtml#aceb0704d27455da6268e3d5b4a92c411" target="_top" xlink:title="Voxel::TI::ToFCameraBase\l::_initStartParams">
<polygon fill="none" stroke="black" points="388.5,-470 388.5,-500 525.5,-500 525.5,-470 388.5,-470"/>
<text text-anchor="start" x="396.5" y="-488" font-family="Helvetica,sans-Serif" font-size="10.00">Voxel::TI::ToFCameraBase</text>
<text text-anchor="middle" x="457" y="-477" font-family="Helvetica,sans-Serif" font-size="10.00">::_initStartParams</text>
</a>
</g>
</g>
<!-- Node6&#45;&gt;Node40 -->
<g id="edge48" class="edge"><title>Node6&#45;&gt;Node40</title>
<path fill="none" stroke="midnightblue" d="M307.676,-542.825C330.244,-532.829 360.713,-519.666 388,-509 392.69,-507.167 397.584,-505.317 402.503,-503.502"/>
<polygon fill="midnightblue" stroke="midnightblue" points="403.746,-506.774 411.946,-500.066 401.352,-500.196 403.746,-506.774"/>
</g>
<!-- Node9 -->
<g id="node9" class="node"><title>Node9</title>
<g id="a_node9"><a xlink:href="classVoxel_1_1DepthCamera.xhtml#ae09d2aaee73e56b4b488897f6081191e" target="_top" xlink:title="Voxel::DepthCamera\l::_getROI">
<polygon fill="none" stroke="black" points="590,-421 590,-451 698,-451 698,-421 590,-421"/>
<text text-anchor="start" x="598" y="-439" font-family="Helvetica,sans-Serif" font-size="10.00">Voxel::DepthCamera</text>
<text text-anchor="middle" x="644" y="-428" font-family="Helvetica,sans-Serif" font-size="10.00">::_getROI</text>
</a>
</g>
</g>
<!-- Node8&#45;&gt;Node9 -->
<g id="edge8" class="edge"><title>Node8&#45;&gt;Node9</title>
<path fill="none" stroke="midnightblue" d="M511.014,-436C532.495,-436 557.473,-436 579.884,-436"/>
<polygon fill="midnightblue" stroke="midnightblue" points="579.979,-439.5 589.979,-436 579.979,-432.5 579.979,-439.5"/>
</g>
<!-- Node13 -->
<g id="node13" class="node"><title>Node13</title>
<g id="a_node13"><a xlink:href="classVoxel_1_1DepthCamera.xhtml#a81260a37bfc6da411b8d3d71342a2eda" target="_top" xlink:title="Voxel::DepthCamera\l::_getMaximumFrameSize">
<polygon fill="none" stroke="black" points="578.5,-323 578.5,-353 709.5,-353 709.5,-323 578.5,-323"/>
<text text-anchor="start" x="586.5" y="-341" font-family="Helvetica,sans-Serif" font-size="10.00">Voxel::DepthCamera</text>
<text text-anchor="middle" x="644" y="-330" font-family="Helvetica,sans-Serif" font-size="10.00">::_getMaximumFrameSize</text>
</a>
</g>
</g>
<!-- Node12&#45;&gt;Node13 -->
<g id="edge12" class="edge"><title>Node12&#45;&gt;Node13</title>
<path fill="none" stroke="midnightblue" d="M520.117,-338C535.444,-338 552.023,-338 567.894,-338"/>
<polygon fill="midnightblue" stroke="midnightblue" points="568.201,-341.5 578.201,-338 568.201,-334.5 568.201,-341.5"/>
</g>
<!-- Node15 -->
<g id="node15" class="node"><title>Node15</title>
<g id="a_node15"><a xlink:href="classVoxel_1_1DepthCamera.xhtml#a7cca2c2413b60d0d2ef26e0cb8802118" target="_top" xlink:title="Voxel::DepthCamera\l::_getFrameSize">
<polygon fill="none" stroke="black" points="590,-911 590,-941 698,-941 698,-911 590,-911"/>
<text text-anchor="start" x="598" y="-929" font-family="Helvetica,sans-Serif" font-size="10.00">Voxel::DepthCamera</text>
<text text-anchor="middle" x="644" y="-918" font-family="Helvetica,sans-Serif" font-size="10.00">::_getFrameSize</text>
</a>
</g>
</g>
<!-- Node14&#45;&gt;Node15 -->
<g id="edge14" class="edge"><title>Node14&#45;&gt;Node15</title>
<path fill="none" stroke="midnightblue" d="M511.014,-926C532.495,-926 557.473,-926 579.884,-926"/>
<polygon fill="midnightblue" stroke="midnightblue" points="579.979,-929.5 589.979,-926 579.979,-922.5 579.979,-929.5"/>
</g>
<!-- Node16&#45;&gt;Node3 -->
<g id="edge16" class="edge"><title>Node16&#45;&gt;Node3</title>
<path fill="none" stroke="midnightblue" d="M502.356,-224.964C510.328,-221.904 518.487,-218.531 526,-215 555.845,-200.972 588.137,-181.883 611.219,-167.501"/>
<polygon fill="midnightblue" stroke="midnightblue" points="613.294,-170.331 619.897,-162.046 609.569,-164.405 613.294,-170.331"/>
</g>
<!-- Node18&#45;&gt;Node3 -->
<g id="edge19" class="edge"><title>Node18&#45;&gt;Node3</title>
<path fill="none" stroke="midnightblue" d="M514.008,-177.679C534.757,-172.744 558.423,-167.116 579.77,-162.038"/>
<polygon fill="midnightblue" stroke="midnightblue" points="580.798,-165.392 589.717,-159.673 579.179,-158.582 580.798,-165.392"/>
</g>
<!-- Node22 -->
<g id="node22" class="node"><title>Node22</title>
<g id="a_node22"><a xlink:href="classVoxel_1_1ConfigurationFile.xhtml#a00e007801296e76b05ef10f1c8176c2d" target="_top" xlink:title="Voxel::ConfigurationFile\l::isPresent">
<polygon fill="none" stroke="black" points="583.5,-690 583.5,-720 704.5,-720 704.5,-690 583.5,-690"/>
<text text-anchor="start" x="591.5" y="-708" font-family="Helvetica,sans-Serif" font-size="10.00">Voxel::ConfigurationFile</text>
<text text-anchor="middle" x="644" y="-697" font-family="Helvetica,sans-Serif" font-size="10.00">::isPresent</text>
</a>
</g>
</g>
<!-- Node21&#45;&gt;Node22 -->
<g id="edge23" class="edge"><title>Node21&#45;&gt;Node22</title>
<path fill="none" stroke="midnightblue" d="M520.117,-721.606C537.14,-719.305 555.708,-716.796 573.133,-714.441"/>
<polygon fill="midnightblue" stroke="midnightblue" points="573.8,-717.883 583.241,-713.076 572.862,-710.946 573.8,-717.883"/>
</g>
<!-- Node22&#45;&gt;Node22 -->
<g id="edge26" class="edge"><title>Node22&#45;&gt;Node22</title>
<path fill="none" stroke="midnightblue" d="M611.305,-720.275C604.039,-729.406 614.938,-738 644,-738 661.256,-738 672.108,-734.97 676.557,-730.598"/>
<polygon fill="midnightblue" stroke="midnightblue" points="680.061,-730.321 676.695,-720.275 673.062,-730.228 680.061,-730.321"/>
</g>
<!-- Node23 -->
<g id="node23" class="node"><title>Node23</title>
<g id="a_node23"><a xlink:href="classVoxel_1_1MainConfigurationFile.xhtml#ab24aaf7b18fea74c6f235da04fadbed0" target="_top" xlink:title="Voxel::MainConfiguration\lFile::getCameraProfile">
<polygon fill="none" stroke="black" points="950,-682 950,-712 1076,-712 1076,-682 950,-682"/>
<text text-anchor="start" x="958" y="-700" font-family="Helvetica,sans-Serif" font-size="10.00">Voxel::MainConfiguration</text>
<text text-anchor="middle" x="1013" y="-689" font-family="Helvetica,sans-Serif" font-size="10.00">File::getCameraProfile</text>
</a>
</g>
</g>
<!-- Node22&#45;&gt;Node23 -->
<g id="edge24" class="edge"><title>Node22&#45;&gt;Node23</title>
<path fill="none" stroke="midnightblue" d="M704.782,-703.697C768.923,-702.299 870.812,-700.078 939.485,-698.581"/>
<polygon fill="midnightblue" stroke="midnightblue" points="939.868,-702.073 949.789,-698.356 939.715,-695.075 939.868,-702.073"/>
</g>
<!-- Node24 -->
<g id="node24" class="node"><title>Node24</title>
<g id="a_node24"><a xlink:href="classVoxel_1_1ConfigSet.xhtml#ab7930d0d21d160341d989ef998ecac73" target="_top" xlink:title="Voxel::ConfigSet::isPresent">
<polygon fill="none" stroke="black" points="769,-725.5 769,-744.5 907,-744.5 907,-725.5 769,-725.5"/>
<text text-anchor="middle" x="838" y="-732.5" font-family="Helvetica,sans-Serif" font-size="10.00">Voxel::ConfigSet::isPresent</text>
</a>
</g>
</g>
<!-- Node22&#45;&gt;Node24 -->
<g id="edge25" class="edge"><title>Node22&#45;&gt;Node24</title>
<path fill="none" stroke="midnightblue" d="M704.698,-714.328C724.097,-717.359 745.816,-720.752 765.959,-723.9"/>
<polygon fill="midnightblue" stroke="midnightblue" points="765.595,-727.385 776.015,-725.471 766.675,-720.469 765.595,-727.385"/>
</g>
<!-- Node25 -->
<g id="node25" class="node"><title>Node25</title>
<g id="a_node25"><a xlink:href="classVoxel_1_1ConfigurationFile.xhtml#a440d9dd2f89d0c76c81f7285b31a5b94" target="_top" xlink:title="Voxel::ConfigurationFile::set">
<polygon fill="none" stroke="black" points="768,-611.5 768,-630.5 908,-630.5 908,-611.5 768,-611.5"/>
<text text-anchor="middle" x="838" y="-618.5" font-family="Helvetica,sans-Serif" font-size="10.00">Voxel::ConfigurationFile::set</text>
</a>
</g>
</g>
<!-- Node22&#45;&gt;Node25 -->
<g id="edge27" class="edge"><title>Node22&#45;&gt;Node25</title>
<path fill="none" stroke="midnightblue" d="M679.326,-689.982C715.312,-674.238 771.351,-649.722 806.027,-634.55"/>
<polygon fill="midnightblue" stroke="midnightblue" points="807.449,-637.749 815.207,-630.534 804.643,-631.336 807.449,-637.749"/>
</g>
<!-- Node26 -->
<g id="node26" class="node"><title>Node26</title>
<g id="a_node26"><a xlink:href="classVoxel_1_1ConfigurationFile.xhtml#a3b9b573c1a3d9162fc0100c317ca0879" target="_top" xlink:title="Voxel::ConfigurationFile\l::_set">
<polygon fill="none" stroke="black" points="952.5,-606 952.5,-636 1073.5,-636 1073.5,-606 952.5,-606"/>
<text text-anchor="start" x="960.5" y="-624" font-family="Helvetica,sans-Serif" font-size="10.00">Voxel::ConfigurationFile</text>
<text text-anchor="middle" x="1013" y="-613" font-family="Helvetica,sans-Serif" font-size="10.00">::_set</text>
</a>
</g>
</g>
<!-- Node25&#45;&gt;Node26 -->
<g id="edge28" class="edge"><title>Node25&#45;&gt;Node26</title>
<path fill="none" stroke="midnightblue" d="M908.369,-614.369C919.525,-614.212 931.076,-614.21 942.241,-614.364"/>
<polygon fill="midnightblue" stroke="midnightblue" points="942.301,-617.865 952.363,-614.548 942.428,-610.866 942.301,-617.865"/>
</g>
<!-- Node26&#45;&gt;Node25 -->
<g id="edge33" class="edge"><title>Node26&#45;&gt;Node25</title>
<path fill="none" stroke="midnightblue" d="M952.363,-627.452C941.508,-627.7 930.027,-627.793 918.703,-627.731"/>
<polygon fill="midnightblue" stroke="midnightblue" points="918.402,-624.228 908.369,-627.631 918.334,-631.228 918.402,-624.228"/>
</g>
<!-- Node27 -->
<g id="node27" class="node"><title>Node27</title>
<g id="a_node27"><a xlink:href="classVoxel_1_1ConfigSet.xhtml#a8fb880c24ad7b0f04c84d4a33becb995" target="_top" xlink:title="Voxel::ConfigSet::_set">
<polygon fill="none" stroke="black" points="1112,-611.5 1112,-630.5 1228,-630.5 1228,-611.5 1112,-611.5"/>
<text text-anchor="middle" x="1170" y="-618.5" font-family="Helvetica,sans-Serif" font-size="10.00">Voxel::ConfigSet::_set</text>
</a>
</g>
</g>
<!-- Node26&#45;&gt;Node27 -->
<g id="edge29" class="edge"><title>Node26&#45;&gt;Node27</title>
<path fill="none" stroke="midnightblue" d="M1073.93,-621C1082.96,-621 1092.34,-621 1101.52,-621"/>
<polygon fill="midnightblue" stroke="midnightblue" points="1101.78,-624.5 1111.78,-621 1101.78,-617.5 1101.78,-624.5"/>
</g>
<!-- Node28 -->
<g id="node28" class="node"><title>Node28</title>
<g id="a_node28"><a xlink:href="group__Util.xhtml#ga6b2a26aa983349496fedae9aa54ad034" target="_top" xlink:title="Trim. ">
<polygon fill="none" stroke="black" points="1264,-611.5 1264,-630.5 1328,-630.5 1328,-611.5 1264,-611.5"/>
<text text-anchor="middle" x="1296" y="-618.5" font-family="Helvetica,sans-Serif" font-size="10.00">Voxel::trim</text>
</a>
</g>
</g>
<!-- Node27&#45;&gt;Node28 -->
<g id="edge30" class="edge"><title>Node27&#45;&gt;Node28</title>
<path fill="none" stroke="midnightblue" d="M1228.28,-621C1236.75,-621 1245.34,-621 1253.41,-621"/>
<polygon fill="midnightblue" stroke="midnightblue" points="1253.67,-624.5 1263.67,-621 1253.67,-617.5 1253.67,-624.5"/>
</g>
<!-- Node29 -->
<g id="node29" class="node"><title>Node29</title>
<g id="a_node29"><a xlink:href="group__Util.xhtml#gac9c04e18f7878dd82964bb489b7b1314" target="_top" xlink:title="Left Trim. ">
<polygon fill="none" stroke="black" points="1365,-630.5 1365,-649.5 1431,-649.5 1431,-630.5 1365,-630.5"/>
<text text-anchor="middle" x="1398" y="-637.5" font-family="Helvetica,sans-Serif" font-size="10.00">Voxel::ltrim</text>
</a>
</g>
</g>
<!-- Node28&#45;&gt;Node29 -->
<g id="edge31" class="edge"><title>Node28&#45;&gt;Node29</title>
<path fill="none" stroke="midnightblue" d="M1328.09,-626.908C1336.59,-628.522 1345.94,-630.299 1354.94,-632.009"/>
<polygon fill="midnightblue" stroke="midnightblue" points="1354.41,-635.471 1364.89,-633.899 1355.72,-628.594 1354.41,-635.471"/>
</g>
<!-- Node30 -->
<g id="node30" class="node"><title>Node30</title>
<g id="a_node30"><a xlink:href="group__Util.xhtml#ga3d95f05dde73bc9c54051437445e439b" target="_top" xlink:title="Right Trim. ">
<polygon fill="none" stroke="black" points="1364.5,-592.5 1364.5,-611.5 1431.5,-611.5 1431.5,-592.5 1364.5,-592.5"/>
<text text-anchor="middle" x="1398" y="-599.5" font-family="Helvetica,sans-Serif" font-size="10.00">Voxel::rtrim</text>
</a>
</g>
</g>
<!-- Node28&#45;&gt;Node30 -->
<g id="edge32" class="edge"><title>Node28&#45;&gt;Node30</title>
<path fill="none" stroke="midnightblue" d="M1328.09,-615.092C1336.33,-613.526 1345.38,-611.808 1354.13,-610.146"/>
<polygon fill="midnightblue" stroke="midnightblue" points="1355.02,-613.538 1364.2,-608.233 1353.72,-606.661 1355.02,-613.538"/>
</g>
<!-- Node32 -->
<g id="node32" class="node"><title>Node32</title>
<g id="a_node32"><a xlink:href="classVoxel_1_1ConfigurationFile.xhtml#a49e5d191d816bda45d31e29a29272c9d" target="_top" xlink:title="Voxel::ConfigurationFile\l::getFile">
<polygon fill="none" stroke="black" points="583.5,-764 583.5,-794 704.5,-794 704.5,-764 583.5,-764"/>
<text text-anchor="start" x="591.5" y="-782" font-family="Helvetica,sans-Serif" font-size="10.00">Voxel::ConfigurationFile</text>
<text text-anchor="middle" x="644" y="-771" font-family="Helvetica,sans-Serif" font-size="10.00">::getFile</text>
</a>
</g>
</g>
<!-- Node31&#45;&gt;Node32 -->
<g id="edge35" class="edge"><title>Node31&#45;&gt;Node32</title>
<path fill="none" stroke="midnightblue" d="M520.117,-779C537.14,-779 555.708,-779 573.133,-779"/>
<polygon fill="midnightblue" stroke="midnightblue" points="573.241,-782.5 583.241,-779 573.241,-775.5 573.241,-782.5"/>
</g>
<!-- Node33 -->
<g id="node33" class="node"><title>Node33</title>
<g id="a_node33"><a xlink:href="classVoxel_1_1ConfigurationFile.xhtml#a69e6c29b1e3caafca6e783937834113b" target="_top" xlink:title="Voxel::ConfigurationFile\l::_getData">
<polygon fill="none" stroke="black" points="777.5,-764 777.5,-794 898.5,-794 898.5,-764 777.5,-764"/>
<text text-anchor="start" x="785.5" y="-782" font-family="Helvetica,sans-Serif" font-size="10.00">Voxel::ConfigurationFile</text>
<text text-anchor="middle" x="838" y="-771" font-family="Helvetica,sans-Serif" font-size="10.00">::_getData</text>
</a>
</g>
</g>
<!-- Node32&#45;&gt;Node33 -->
<g id="edge36" class="edge"><title>Node32&#45;&gt;Node33</title>
<path fill="none" stroke="midnightblue" d="M704.698,-779C724.474,-779 746.66,-779 767.131,-779"/>
<polygon fill="midnightblue" stroke="midnightblue" points="767.339,-782.5 777.339,-779 767.339,-775.5 767.339,-782.5"/>
</g>
<!-- Node33&#45;&gt;Node23 -->
<g id="edge38" class="edge"><title>Node33&#45;&gt;Node23</title>
<path fill="none" stroke="midnightblue" d="M889.172,-763.866C897.576,-760.881 906.12,-757.56 914,-754 936.968,-743.625 961.478,-729.368 980.24,-717.709"/>
<polygon fill="midnightblue" stroke="midnightblue" points="982.359,-720.511 988.958,-712.222 978.63,-714.587 982.359,-720.511"/>
</g>
<!-- Node33&#45;&gt;Node33 -->
<g id="edge37" class="edge"><title>Node33&#45;&gt;Node33</title>
<path fill="none" stroke="midnightblue" d="M807.414,-794.275C800.617,-803.406 810.812,-812 838,-812 854.143,-812 864.295,-808.97 868.457,-804.598"/>
<polygon fill="midnightblue" stroke="midnightblue" points="871.96,-804.319 868.586,-794.275 864.961,-804.231 871.96,-804.319"/>
</g>
<!-- Node34 -->
<g id="node34" class="node"><title>Node34</title>
<g id="a_node34"><a xlink:href="classVoxel_1_1Configuration.xhtml#aee8855b651aed3783dbd8aa4453b1a4d" target="_top" xlink:title="Updates &quot;name&quot; to full path. ">
<polygon fill="none" stroke="black" points="960.5,-764 960.5,-794 1065.5,-794 1065.5,-764 960.5,-764"/>
<text text-anchor="start" x="968.5" y="-782" font-family="Helvetica,sans-Serif" font-size="10.00">Voxel::Configuration</text>
<text text-anchor="middle" x="1013" y="-771" font-family="Helvetica,sans-Serif" font-size="10.00">::getConfFile</text>
</a>
</g>
</g>
<!-- Node33&#45;&gt;Node34 -->
<g id="edge39" class="edge"><title>Node33&#45;&gt;Node34</title>
<path fill="none" stroke="midnightblue" d="M898.537,-779C915.211,-779 933.369,-779 950.173,-779"/>
<polygon fill="midnightblue" stroke="midnightblue" points="950.435,-782.5 960.435,-779 950.435,-775.5 950.435,-782.5"/>
</g>
<!-- Node37 -->
<g id="node37" class="node"><title>Node37</title>
<g id="a_node37"><a xlink:href="classVoxel_1_1ConfigurationFile.xhtml#af5573f5dba76f1fde00220b892f8121c" target="_top" xlink:title="Voxel::ConfigurationFile\l::_get">
<polygon fill="none" stroke="black" points="583.5,-587 583.5,-617 704.5,-617 704.5,-587 583.5,-587"/>
<text text-anchor="start" x="591.5" y="-605" font-family="Helvetica,sans-Serif" font-size="10.00">Voxel::ConfigurationFile</text>
<text text-anchor="middle" x="644" y="-594" font-family="Helvetica,sans-Serif" font-size="10.00">::_get</text>
</a>
</g>
</g>
<!-- Node36&#45;&gt;Node37 -->
<g id="edge42" class="edge"><title>Node36&#45;&gt;Node37</title>
<path fill="none" stroke="midnightblue" d="M501.214,-549.103C509.454,-552.025 518.002,-555.085 526,-558 548.354,-566.147 573.021,-575.386 593.919,-583.288"/>
<polygon fill="midnightblue" stroke="midnightblue" points="592.949,-586.663 603.54,-586.931 595.428,-580.117 592.949,-586.663"/>
</g>
<!-- Node37&#45;&gt;Node23 -->
<g id="edge45" class="edge"><title>Node37&#45;&gt;Node23</title>
<path fill="none" stroke="midnightblue" d="M688.059,-617.01C710.042,-624.411 737.294,-633.186 762,-640 821.544,-656.422 889.982,-671.787 940.182,-682.416"/>
<polygon fill="midnightblue" stroke="midnightblue" points="939.464,-685.842 949.971,-684.478 940.907,-678.992 939.464,-685.842"/>
</g>
<!-- Node37&#45;&gt;Node25 -->
<g id="edge46" class="edge"><title>Node37&#45;&gt;Node25</title>
<path fill="none" stroke="midnightblue" d="M704.698,-607.908C721.445,-609.565 739.922,-611.393 757.621,-613.145"/>
<polygon fill="midnightblue" stroke="midnightblue" points="757.638,-616.663 767.934,-614.165 758.327,-609.697 757.638,-616.663"/>
</g>
<!-- Node37&#45;&gt;Node37 -->
<g id="edge44" class="edge"><title>Node37&#45;&gt;Node37</title>
<path fill="none" stroke="midnightblue" d="M611.305,-617.275C604.039,-626.406 614.938,-635 644,-635 661.256,-635 672.108,-631.97 676.557,-627.598"/>
<polygon fill="midnightblue" stroke="midnightblue" points="680.061,-627.321 676.695,-617.275 673.062,-627.228 680.061,-627.321"/>
</g>
<!-- Node38 -->
<g id="node38" class="node"><title>Node38</title>
<g id="a_node38"><a xlink:href="classVoxel_1_1ConfigSet.xhtml#a49e4060aa2bc96690da36bdf5ef7b227" target="_top" xlink:title="Voxel::ConfigSet::_get">
<polygon fill="none" stroke="black" points="780,-573.5 780,-592.5 896,-592.5 896,-573.5 780,-573.5"/>
<text text-anchor="middle" x="838" y="-580.5" font-family="Helvetica,sans-Serif" font-size="10.00">Voxel::ConfigSet::_get</text>
</a>
</g>
</g>
<!-- Node37&#45;&gt;Node38 -->
<g id="edge43" class="edge"><title>Node37&#45;&gt;Node38</title>
<path fill="none" stroke="midnightblue" d="M704.698,-596.092C725.321,-594.052 748.565,-591.751 769.752,-589.655"/>
<polygon fill="midnightblue" stroke="midnightblue" points="770.36,-593.112 779.966,-588.644 769.67,-586.146 770.36,-593.112"/>
</g>
<!-- Node41 -->
<g id="node41" class="node"><title>Node41</title>
<g id="a_node41"><a xlink:href="classVoxel_1_1TI_1_1ToFCameraBase.xhtml#aff5c5aefff04e8514ab56adde5e25c28" target="_top" xlink:title="Voxel::TI::ToFCameraBase\l::_getAmplitudeNormalizingFactor">
<polygon fill="none" stroke="black" points="562,-470 562,-500 726,-500 726,-470 562,-470"/>
<text text-anchor="start" x="570" y="-488" font-family="Helvetica,sans-Serif" font-size="10.00">Voxel::TI::ToFCameraBase</text>
<text text-anchor="middle" x="644" y="-477" font-family="Helvetica,sans-Serif" font-size="10.00">::_getAmplitudeNormalizingFactor</text>
</a>
</g>
</g>
<!-- Node40&#45;&gt;Node41 -->
<g id="edge49" class="edge"><title>Node40&#45;&gt;Node41</title>
<path fill="none" stroke="midnightblue" d="M525.575,-485C534.032,-485 542.79,-485 551.535,-485"/>
<polygon fill="midnightblue" stroke="midnightblue" points="551.777,-488.5 561.777,-485 551.777,-481.5 551.777,-488.5"/>
</g>
<!-- Node42 -->
<g id="node42" class="node"><title>Node42</title>
<g id="a_node42"><a xlink:href="classVoxel_1_1TI_1_1ToFCameraBase.xhtml#a8e7ab32dbadf1d8c7fd4e7611e7e63c4" target="_top" xlink:title="Voxel::TI::ToFCameraBase\l::_getDepthScalingFactor">
<polygon fill="none" stroke="black" points="575.5,-519 575.5,-549 712.5,-549 712.5,-519 575.5,-519"/>
<text text-anchor="start" x="583.5" y="-537" font-family="Helvetica,sans-Serif" font-size="10.00">Voxel::TI::ToFCameraBase</text>
<text text-anchor="middle" x="644" y="-526" font-family="Helvetica,sans-Serif" font-size="10.00">::_getDepthScalingFactor</text>
</a>
</g>
</g>
<!-- Node40&#45;&gt;Node42 -->
<g id="edge50" class="edge"><title>Node40&#45;&gt;Node42</title>
<path fill="none" stroke="midnightblue" d="M514.763,-500.035C534.297,-505.208 556.343,-511.048 576.576,-516.407"/>
<polygon fill="midnightblue" stroke="midnightblue" points="575.781,-519.817 586.344,-518.994 577.573,-513.05 575.781,-519.817"/>
</g>
<!-- Node43&#45;&gt;Node3 -->
<g id="edge52" class="edge"><title>Node43&#45;&gt;Node3</title>
<path fill="none" stroke="midnightblue" d="M352.255,-132.029C419.99,-135.517 516.707,-140.497 579.67,-143.739"/>
<polygon fill="midnightblue" stroke="midnightblue" points="579.694,-147.245 589.861,-144.264 580.054,-140.254 579.694,-147.245"/>
</g>
<!-- Node43&#45;&gt;Node18 -->
<g id="edge53" class="edge"><title>Node43&#45;&gt;Node18</title>
<path fill="none" stroke="midnightblue" d="M317.594,-143.09C343.163,-151.941 375.66,-163.19 402.739,-172.563"/>
<polygon fill="midnightblue" stroke="midnightblue" points="401.852,-175.96 412.447,-175.924 404.142,-169.345 401.852,-175.96"/>
</g>
<!-- Node44 -->
<g id="node44" class="node"><title>Node44</title>
<g id="a_node44"><a xlink:href="classVoxel_1_1USBBulkStreamer.xhtml#a55df2d845b54f4e800e4e79ebeb37cbd" target="_top" xlink:title="Voxel::USBBulkStreamer\l::setBufferSize">
<polygon fill="none" stroke="black" points="393,-88 393,-118 521,-118 521,-88 393,-88"/>
<text text-anchor="start" x="401" y="-106" font-family="Helvetica,sans-Serif" font-size="10.00">Voxel::USBBulkStreamer</text>
<text text-anchor="middle" x="457" y="-95" font-family="Helvetica,sans-Serif" font-size="10.00">::setBufferSize</text>
</a>
</g>
</g>
<!-- Node43&#45;&gt;Node44 -->
<g id="edge54" class="edge"><title>Node43&#45;&gt;Node44</title>
<path fill="none" stroke="midnightblue" d="M352.241,-117.253C362.429,-115.853 372.835,-114.424 382.934,-113.036"/>
<polygon fill="midnightblue" stroke="midnightblue" points="383.481,-116.494 392.912,-111.666 382.529,-109.559 383.481,-116.494"/>
</g>
<!-- Node46 -->
<g id="node46" class="node"><title>Node46</title>
<g id="a_node46"><a xlink:href="classVoxel_1_1DepthCamera.xhtml#a474dfafecfd8b2a97a924aeab8a82a3c" target="_top" xlink:title="Voxel::DepthCamera\l::_set">
<polygon fill="none" stroke="black" points="403,-0 403,-30 511,-30 511,-0 403,-0"/>
<text text-anchor="start" x="411" y="-18" font-family="Helvetica,sans-Serif" font-size="10.00">Voxel::DepthCamera</text>
<text text-anchor="middle" x="457" y="-7" font-family="Helvetica,sans-Serif" font-size="10.00">::_set</text>
</a>
</g>
</g>
<!-- Node45&#45;&gt;Node46 -->
<g id="edge56" class="edge"><title>Node45&#45;&gt;Node46</title>
<path fill="none" stroke="midnightblue" d="M337.144,-18.2653C355.165,-17.7702 374.799,-17.2308 392.822,-16.7357"/>
<polygon fill="midnightblue" stroke="midnightblue" points="393.035,-20.2312 402.935,-16.4578 392.842,-13.2339 393.035,-20.2312"/>
</g>
<!-- Node46&#45;&gt;Node5 -->
<g id="edge57" class="edge"><title>Node46&#45;&gt;Node5</title>
<path fill="none" stroke="midnightblue" d="M511.139,-16.4078C565.397,-18.3972 651.934,-23.0972 726,-34 741.631,-36.3009 758.329,-39.6042 773.902,-43.0591"/>
<polygon fill="midnightblue" stroke="midnightblue" points="773.424,-46.5397 783.951,-45.3424 774.975,-39.7136 773.424,-46.5397"/>
</g>
<!-- Node47 -->
<g id="node47" class="node"><title>Node47</title>
<g id="a_node47"><a xlink:href="classVoxel_1_1ParameterTemplate.xhtml#a64240b607339f55c4fac973fba8c8934" target="_top" xlink:title="Voxel::ParameterTemplate::set">
<polygon fill="none" stroke="black" points="568,-43.5 568,-62.5 720,-62.5 720,-43.5 568,-43.5"/>
<text text-anchor="middle" x="644" y="-50.5" font-family="Helvetica,sans-Serif" font-size="10.00">Voxel::ParameterTemplate::set</text>
</a>
</g>
</g>
<!-- Node46&#45;&gt;Node47 -->
<g id="edge58" class="edge"><title>Node46&#45;&gt;Node47</title>
<path fill="none" stroke="midnightblue" d="M511.014,-25.8893C534.65,-30.7444 562.522,-36.4693 586.547,-41.4042"/>
<polygon fill="midnightblue" stroke="midnightblue" points="586.085,-44.8823 596.584,-43.466 587.493,-38.0254 586.085,-44.8823"/>
</g>
</g>
</svg>
