<?xml version="1.0" encoding="UTF-8" standalone="no"?>
<!DOCTYPE svg PUBLIC "-//W3C//DTD SVG 1.1//EN"
 "http://www.w3.org/Graphics/SVG/1.1/DTD/svg11.dtd">
<!-- Generated by graphviz version 2.36.0 (20140111.2315)
 -->
<!-- Title: Voxel::TI::ToFHaddockCamera Pages: 1 -->
<svg width="472pt" height="252pt"
 viewBox="0.00 0.00 472.00 252.00" xmlns="http://www.w3.org/2000/svg" xmlns:xlink="http://www.w3.org/1999/xlink">
<g id="graph0" class="graph" transform="scale(1 1) rotate(0) translate(4 248)">
<title>Voxel::TI::ToFHaddockCamera</title>
<!-- Node1 -->
<g id="node1" class="node"><title>Node1</title>
<polygon fill="#bfbfbf" stroke="black" points="168.5,-56.5 168.5,-75.5 321.5,-75.5 321.5,-56.5 168.5,-56.5"/>
<text text-anchor="middle" x="245" y="-63.5" font-family="Helvetica,sans-Serif" font-size="10.00">Voxel::TI::ToFHaddockCamera</text>
</g>
<!-- Node5 -->
<g id="node5" class="node"><title>Node5</title>
<g id="a_node5"><a xlink:href="classVoxel_1_1TI_1_1HaddockCDKCamera.xhtml" target="_top" xlink:title="Voxel::TI::HaddockCDKCamera">
<polygon fill="none" stroke="black" points="0,-0.5 0,-19.5 158,-19.5 158,-0.5 0,-0.5"/>
<text text-anchor="middle" x="79" y="-7.5" font-family="Helvetica,sans-Serif" font-size="10.00">Voxel::TI::HaddockCDKCamera</text>
</a>
</g>
</g>
<!-- Node1&#45;&gt;Node5 -->
<g id="edge4" class="edge"><title>Node1&#45;&gt;Node5</title>
<path fill="none" stroke="midnightblue" d="M209.047,-53.3044C177.768,-43.1294 133.179,-28.6246 105.18,-19.5164"/>
<polygon fill="midnightblue" stroke="midnightblue" points="208.105,-56.6783 218.697,-56.4435 210.27,-50.0217 208.105,-56.6783"/>
</g>
<!-- Node6 -->
<g id="node6" class="node"><title>Node6</title>
<g id="a_node6"><a xlink:href="classVoxel_1_1TI_1_1RTS5825Camera.xhtml" target="_top" xlink:title="Voxel::TI::RTS5825Camera">
<polygon fill="none" stroke="black" points="176,-0.5 176,-19.5 314,-19.5 314,-0.5 176,-0.5"/>
<text text-anchor="middle" x="245" y="-7.5" font-family="Helvetica,sans-Serif" font-size="10.00">Voxel::TI::RTS5825Camera</text>
</a>
</g>
</g>
<!-- Node1&#45;&gt;Node6 -->
<g id="edge5" class="edge"><title>Node1&#45;&gt;Node6</title>
<path fill="none" stroke="midnightblue" d="M245,-45.8045C245,-36.9102 245,-26.7798 245,-19.7511"/>
<polygon fill="midnightblue" stroke="midnightblue" points="241.5,-46.083 245,-56.083 248.5,-46.083 241.5,-46.083"/>
</g>
<!-- Node7 -->
<g id="node7" class="node"><title>Node7</title>
<g id="a_node7"><a xlink:href="classVoxel_1_1TI_1_1Voxel14Camera.xhtml" target="_top" xlink:title="Voxel::TI::Voxel14Camera">
<polygon fill="none" stroke="black" points="332,-0.5 332,-19.5 464,-19.5 464,-0.5 332,-0.5"/>
<text text-anchor="middle" x="398" y="-7.5" font-family="Helvetica,sans-Serif" font-size="10.00">Voxel::TI::Voxel14Camera</text>
</a>
</g>
</g>
<!-- Node1&#45;&gt;Node7 -->
<g id="edge6" class="edge"><title>Node1&#45;&gt;Node7</title>
<path fill="none" stroke="midnightblue" d="M278.889,-53.0392C307.677,-42.8786 348.287,-28.5457 373.87,-19.5164"/>
<polygon fill="midnightblue" stroke="midnightblue" points="277.508,-49.8148 269.243,-56.4435 279.838,-56.4157 277.508,-49.8148"/>
</g>
<!-- Node2 -->
<g id="node2" class="node"><title>Node2</title>
<g id="a_node2"><a xlink:href="classVoxel_1_1TI_1_1ToFCamera.xhtml" target="_top" xlink:title="Voxel::TI::ToFCamera">
<polygon fill="none" stroke="black" points="188,-112.5 188,-131.5 302,-131.5 302,-112.5 188,-112.5"/>
<text text-anchor="middle" x="245" y="-119.5" font-family="Helvetica,sans-Serif" font-size="10.00">Voxel::TI::ToFCamera</text>
</a>
</g>
</g>
<!-- Node2&#45;&gt;Node1 -->
<g id="edge1" class="edge"><title>Node2&#45;&gt;Node1</title>
<path fill="none" stroke="midnightblue" d="M245,-101.805C245,-92.9102 245,-82.7798 245,-75.7511"/>
<polygon fill="midnightblue" stroke="midnightblue" points="241.5,-102.083 245,-112.083 248.5,-102.083 241.5,-102.083"/>
</g>
<!-- Node3 -->
<g id="node3" class="node"><title>Node3</title>
<g id="a_node3"><a xlink:href="classVoxel_1_1TI_1_1ToFCameraBase.xhtml" target="_top" xlink:title="This is a generic ToFCamera which is not strictly dependent on TI&#39;s ToF chips. ">
<polygon fill="none" stroke="black" points="176.5,-168.5 176.5,-187.5 313.5,-187.5 313.5,-168.5 176.5,-168.5"/>
<text text-anchor="middle" x="245" y="-175.5" font-family="Helvetica,sans-Serif" font-size="10.00">Voxel::TI::ToFCameraBase</text>
</a>
</g>
</g>
<!-- Node3&#45;&gt;Node2 -->
<g id="edge2" class="edge"><title>Node3&#45;&gt;Node2</title>
<path fill="none" stroke="midnightblue" d="M245,-157.805C245,-148.91 245,-138.78 245,-131.751"/>
<polygon fill="midnightblue" stroke="midnightblue" points="241.5,-158.083 245,-168.083 248.5,-158.083 241.5,-158.083"/>
</g>
<!-- Node4 -->
<g id="node4" class="node"><title>Node4</title>
<g id="a_node4"><a xlink:href="classVoxel_1_1DepthCamera.xhtml" target="_top" xlink:title="This is primary class which provides API for a depth camera. ">
<polygon fill="none" stroke="black" points="191,-224.5 191,-243.5 299,-243.5 299,-224.5 191,-224.5"/>
<text text-anchor="middle" x="245" y="-231.5" font-family="Helvetica,sans-Serif" font-size="10.00">Voxel::DepthCamera</text>
</a>
</g>
</g>
<!-- Node4&#45;&gt;Node3 -->
<g id="edge3" class="edge"><title>Node4&#45;&gt;Node3</title>
<path fill="none" stroke="midnightblue" d="M245,-213.805C245,-204.91 245,-194.78 245,-187.751"/>
<polygon fill="midnightblue" stroke="midnightblue" points="241.5,-214.083 245,-224.083 248.5,-214.083 241.5,-214.083"/>
</g>
</g>
</svg>
