<?xml version="1.0" encoding="UTF-8" standalone="no"?>
<!DOCTYPE svg PUBLIC "-//W3C//DTD SVG 1.1//EN"
 "http://www.w3.org/Graphics/SVG/1.1/DTD/svg11.dtd">
<!-- Generated by graphviz version 2.36.0 (20140111.2315)
 -->
<!-- Title: Voxel::USBSystemPrivate::_iterateOverAllDevices Pages: 1 -->
<svg width="482pt" height="136pt"
 viewBox="0.00 0.00 482.00 136.00" xmlns="http://www.w3.org/2000/svg" xmlns:xlink="http://www.w3.org/1999/xlink">
<g id="graph0" class="graph" transform="scale(1 1) rotate(0) translate(4 132)">
<title>Voxel::USBSystemPrivate::_iterateOverAllDevices</title>
<!-- Node1 -->
<g id="node1" class="node"><title>Node1</title>
<polygon fill="#bfbfbf" stroke="black" points="0.5,-49 0.5,-79 133.5,-79 133.5,-49 0.5,-49"/>
<text text-anchor="start" x="8.5" y="-67" font-family="Helvetica,sans-Serif" font-size="10.00">Voxel::USBSystemPrivate</text>
<text text-anchor="middle" x="67" y="-56" font-family="Helvetica,sans-Serif" font-size="10.00">::_iterateOverAllDevices</text>
</g>
<!-- Node2 -->
<g id="node2" class="node"><title>Node2</title>
<g id="a_node2"><a xlink:href="classVoxel_1_1USBSystemPrivate.xhtml#a11c3f6b340a600180de9642fa693955e" target="_top" xlink:title="Voxel::USBSystemPrivate\l::_enumerateHub">
<polygon fill="none" stroke="black" points="170.5,-98 170.5,-128 303.5,-128 303.5,-98 170.5,-98"/>
<text text-anchor="start" x="178.5" y="-116" font-family="Helvetica,sans-Serif" font-size="10.00">Voxel::USBSystemPrivate</text>
<text text-anchor="middle" x="237" y="-105" font-family="Helvetica,sans-Serif" font-size="10.00">::_enumerateHub</text>
</a>
</g>
</g>
<!-- Node1&#45;&gt;Node2 -->
<g id="edge1" class="edge"><title>Node1&#45;&gt;Node2</title>
<path fill="none" stroke="midnightblue" d="M119.776,-79.1014C137.103,-84.1551 156.586,-89.8376 174.577,-95.0848"/>
<polygon fill="midnightblue" stroke="midnightblue" points="173.815,-98.5084 184.395,-97.9484 175.775,-91.7884 173.815,-98.5084"/>
</g>
<!-- Node4 -->
<g id="node4" class="node"><title>Node4</title>
<g id="a_node4"><a xlink:href="classVoxel_1_1USBSystemPrivate.xhtml#a5cc528607175a1d2848e99cac4b29b96" target="_top" xlink:title="Voxel::USBSystemPrivate\l::_getDeviceProperty">
<polygon fill="none" stroke="black" points="170.5,-49 170.5,-79 303.5,-79 303.5,-49 170.5,-49"/>
<text text-anchor="start" x="178.5" y="-67" font-family="Helvetica,sans-Serif" font-size="10.00">Voxel::USBSystemPrivate</text>
<text text-anchor="middle" x="237" y="-56" font-family="Helvetica,sans-Serif" font-size="10.00">::_getDeviceProperty</text>
</a>
</g>
</g>
<!-- Node1&#45;&gt;Node4 -->
<g id="edge3" class="edge"><title>Node1&#45;&gt;Node4</title>
<path fill="none" stroke="midnightblue" d="M133.916,-64C142.505,-64 151.359,-64 160.096,-64"/>
<polygon fill="midnightblue" stroke="midnightblue" points="160.274,-67.5001 170.274,-64 160.274,-60.5001 160.274,-67.5001"/>
</g>
<!-- Node5 -->
<g id="node5" class="node"><title>Node5</title>
<g id="a_node5"><a xlink:href="classVoxel_1_1USBSystemPrivate.xhtml#af36cb7f956e2d2a79a9912b725ebada9" target="_top" xlink:title="Voxel::USBSystemPrivate\l::_iterateSetupAPI">
<polygon fill="none" stroke="black" points="170.5,-0 170.5,-30 303.5,-30 303.5,-0 170.5,-0"/>
<text text-anchor="start" x="178.5" y="-18" font-family="Helvetica,sans-Serif" font-size="10.00">Voxel::USBSystemPrivate</text>
<text text-anchor="middle" x="237" y="-7" font-family="Helvetica,sans-Serif" font-size="10.00">::_iterateSetupAPI</text>
</a>
</g>
</g>
<!-- Node1&#45;&gt;Node5 -->
<g id="edge4" class="edge"><title>Node1&#45;&gt;Node5</title>
<path fill="none" stroke="midnightblue" d="M119.776,-48.8986C137.103,-43.8449 156.586,-38.1624 174.577,-32.9152"/>
<polygon fill="midnightblue" stroke="midnightblue" points="175.775,-36.2116 184.395,-30.0516 173.815,-29.4916 175.775,-36.2116"/>
</g>
<!-- Node3 -->
<g id="node3" class="node"><title>Node3</title>
<g id="a_node3"><a xlink:href="classVoxel_1_1USBSystemPrivate.xhtml#ad30c8db8ace81c4954ba33bdbf3b76b0" target="_top" xlink:title="Voxel::USBSystemPrivate\l::_getStringDescriptor">
<polygon fill="none" stroke="black" points="340.5,-98 340.5,-128 473.5,-128 473.5,-98 340.5,-98"/>
<text text-anchor="start" x="348.5" y="-116" font-family="Helvetica,sans-Serif" font-size="10.00">Voxel::USBSystemPrivate</text>
<text text-anchor="middle" x="407" y="-105" font-family="Helvetica,sans-Serif" font-size="10.00">::_getStringDescriptor</text>
</a>
</g>
</g>
<!-- Node2&#45;&gt;Node3 -->
<g id="edge2" class="edge"><title>Node2&#45;&gt;Node3</title>
<path fill="none" stroke="midnightblue" d="M303.916,-113C312.505,-113 321.359,-113 330.096,-113"/>
<polygon fill="midnightblue" stroke="midnightblue" points="330.274,-116.5 340.274,-113 330.274,-109.5 330.274,-116.5"/>
</g>
<!-- Node6 -->
<g id="node6" class="node"><title>Node6</title>
<g id="a_node6"><a xlink:href="group__IO.xhtml#gab6c3a2c7db631983faa923d68084fb1d" target="_top" xlink:title="Voxel::getDeviceError">
<polygon fill="none" stroke="black" points="350.5,-5.5 350.5,-24.5 463.5,-24.5 463.5,-5.5 350.5,-5.5"/>
<text text-anchor="middle" x="407" y="-12.5" font-family="Helvetica,sans-Serif" font-size="10.00">Voxel::getDeviceError</text>
</a>
</g>
</g>
<!-- Node5&#45;&gt;Node6 -->
<g id="edge5" class="edge"><title>Node5&#45;&gt;Node6</title>
<path fill="none" stroke="midnightblue" d="M303.916,-15C315.789,-15 328.169,-15 340.044,-15"/>
<polygon fill="midnightblue" stroke="midnightblue" points="340.324,-18.5001 350.324,-15 340.324,-11.5001 340.324,-18.5001"/>
</g>
</g>
</svg>
