<?xml version="1.0" encoding="UTF-8" standalone="no"?>
<!DOCTYPE svg PUBLIC "-//W3C//DTD SVG 1.1//EN"
 "http://www.w3.org/Graphics/SVG/1.1/DTD/svg11.dtd">
<!-- Generated by graphviz version 2.36.0 (20140111.2315)
 -->
<!-- Title: Voxel::DepthCamera::start Pages: 1 -->
<svg width="626pt" height="470pt"
 viewBox="0.00 0.00 626.00 470.00" xmlns="http://www.w3.org/2000/svg" xmlns:xlink="http://www.w3.org/1999/xlink">
<g id="graph0" class="graph" transform="scale(1 1) rotate(0) translate(4 466)">
<title>Voxel::DepthCamera::start</title>
<!-- Node1 -->
<g id="node1" class="node"><title>Node1</title>
<polygon fill="#bfbfbf" stroke="black" points="0,-113 0,-143 108,-143 108,-113 0,-113"/>
<text text-anchor="start" x="8" y="-131" font-family="Helvetica,sans-Serif" font-size="10.00">Voxel::DepthCamera</text>
<text text-anchor="middle" x="54" y="-120" font-family="Helvetica,sans-Serif" font-size="10.00">::start</text>
</g>
<!-- Node2 -->
<g id="node2" class="node"><title>Node2</title>
<g id="a_node2"><a xlink:href="classVoxel_1_1DepthCamera.xhtml#a6cf4eb0a80d99bb828a7939ba1eb1cf4" target="_top" xlink:title="Voxel::DepthCamera\l::_captureThreadWrapper">
<polygon fill="none" stroke="black" points="144.5,-211 144.5,-241 271.5,-241 271.5,-211 144.5,-211"/>
<text text-anchor="start" x="152.5" y="-229" font-family="Helvetica,sans-Serif" font-size="10.00">Voxel::DepthCamera</text>
<text text-anchor="middle" x="208" y="-218" font-family="Helvetica,sans-Serif" font-size="10.00">::_captureThreadWrapper</text>
</a>
</g>
</g>
<!-- Node1&#45;&gt;Node2 -->
<g id="edge1" class="edge"><title>Node1&#45;&gt;Node2</title>
<path fill="none" stroke="midnightblue" d="M70.2805,-143.062C87.178,-159.084 115.762,-184.365 144,-201 147.382,-202.992 150.953,-204.89 154.605,-206.684"/>
<polygon fill="midnightblue" stroke="midnightblue" points="153.245,-209.911 163.792,-210.924 156.179,-203.555 153.245,-209.911"/>
</g>
<!-- Node14 -->
<g id="node14" class="node"><title>Node14</title>
<g id="a_node14"><a xlink:href="classVoxel_1_1DepthCamera.xhtml#a829bcbfbcbe6e7bf12cc0fe88a8f1acb" target="_top" xlink:title="Voxel::DepthCamera\l::_start">
<polygon fill="none" stroke="black" points="154,-162 154,-192 262,-192 262,-162 154,-162"/>
<text text-anchor="start" x="162" y="-180" font-family="Helvetica,sans-Serif" font-size="10.00">Voxel::DepthCamera</text>
<text text-anchor="middle" x="208" y="-169" font-family="Helvetica,sans-Serif" font-size="10.00">::_start</text>
</a>
</g>
</g>
<!-- Node1&#45;&gt;Node14 -->
<g id="edge13" class="edge"><title>Node1&#45;&gt;Node14</title>
<path fill="none" stroke="midnightblue" d="M101.845,-143.101C117.232,-148.062 134.497,-153.627 150.521,-158.793"/>
<polygon fill="midnightblue" stroke="midnightblue" points="149.718,-162.211 160.309,-161.948 151.866,-155.549 149.718,-162.211"/>
</g>
<!-- Node15 -->
<g id="node15" class="node"><title>Node15</title>
<g id="a_node15"><a xlink:href="classVoxel_1_1DepthCamera.xhtml#a1ff46a5643f0a02a6970236e0b6a7634" target="_top" xlink:title="Voxel::DepthCamera\l::isRunning">
<polygon fill="none" stroke="black" points="154,-113 154,-143 262,-143 262,-113 154,-113"/>
<text text-anchor="start" x="162" y="-131" font-family="Helvetica,sans-Serif" font-size="10.00">Voxel::DepthCamera</text>
<text text-anchor="middle" x="208" y="-120" font-family="Helvetica,sans-Serif" font-size="10.00">::isRunning</text>
</a>
</g>
</g>
<!-- Node1&#45;&gt;Node15 -->
<g id="edge14" class="edge"><title>Node1&#45;&gt;Node15</title>
<path fill="none" stroke="midnightblue" d="M108.162,-128C119.617,-128 131.835,-128 143.635,-128"/>
<polygon fill="midnightblue" stroke="midnightblue" points="143.868,-131.5 153.868,-128 143.868,-124.5 143.868,-131.5"/>
</g>
<!-- Node16 -->
<g id="node16" class="node"><title>Node16</title>
<g id="a_node16"><a xlink:href="classVoxel_1_1DepthCamera.xhtml#a4724cd30f939a4b633ba7b8c3dcfe307" target="_top" xlink:title="Voxel::DepthCamera\l::resetFilters">
<polygon fill="none" stroke="black" points="154,-64 154,-94 262,-94 262,-64 154,-64"/>
<text text-anchor="start" x="162" y="-82" font-family="Helvetica,sans-Serif" font-size="10.00">Voxel::DepthCamera</text>
<text text-anchor="middle" x="208" y="-71" font-family="Helvetica,sans-Serif" font-size="10.00">::resetFilters</text>
</a>
</g>
</g>
<!-- Node1&#45;&gt;Node16 -->
<g id="edge15" class="edge"><title>Node1&#45;&gt;Node16</title>
<path fill="none" stroke="midnightblue" d="M101.845,-112.899C117.232,-107.938 134.497,-102.373 150.521,-97.2071"/>
<polygon fill="midnightblue" stroke="midnightblue" points="151.866,-100.451 160.309,-94.0516 149.718,-93.7887 151.866,-100.451"/>
</g>
<!-- Node17 -->
<g id="node17" class="node"><title>Node17</title>
<g id="a_node17"><a xlink:href="classVoxel_1_1DepthCamera.xhtml#a64f96bea2198d2060978523da6b0abcd" target="_top" xlink:title="Voxel::DepthCamera\l::wait">
<polygon fill="none" stroke="black" points="154,-15 154,-45 262,-45 262,-15 154,-15"/>
<text text-anchor="start" x="162" y="-33" font-family="Helvetica,sans-Serif" font-size="10.00">Voxel::DepthCamera</text>
<text text-anchor="middle" x="208" y="-22" font-family="Helvetica,sans-Serif" font-size="10.00">::wait</text>
</a>
</g>
</g>
<!-- Node1&#45;&gt;Node17 -->
<g id="edge16" class="edge"><title>Node1&#45;&gt;Node17</title>
<path fill="none" stroke="midnightblue" d="M70.2805,-112.938C87.178,-96.9156 115.762,-71.635 144,-55 147.382,-53.0076 150.953,-51.1099 154.605,-49.3161"/>
<polygon fill="midnightblue" stroke="midnightblue" points="156.179,-52.4447 163.792,-45.0764 153.245,-46.0889 156.179,-52.4447"/>
</g>
<!-- Node3 -->
<g id="node3" class="node"><title>Node3</title>
<g id="a_node3"><a xlink:href="classVoxel_1_1DepthCamera.xhtml#a5f7b78a2c00ba1ff45f1f18e71ac9811" target="_top" xlink:title="Voxel::DepthCamera\l::_captureLoop">
<polygon fill="none" stroke="black" points="308,-211 308,-241 416,-241 416,-211 308,-211"/>
<text text-anchor="start" x="316" y="-229" font-family="Helvetica,sans-Serif" font-size="10.00">Voxel::DepthCamera</text>
<text text-anchor="middle" x="362" y="-218" font-family="Helvetica,sans-Serif" font-size="10.00">::_captureLoop</text>
</a>
</g>
</g>
<!-- Node2&#45;&gt;Node3 -->
<g id="edge2" class="edge"><title>Node2&#45;&gt;Node3</title>
<path fill="none" stroke="midnightblue" d="M271.702,-226C280.19,-226 288.907,-226 297.41,-226"/>
<polygon fill="midnightblue" stroke="midnightblue" points="297.648,-229.5 307.648,-226 297.648,-222.5 297.648,-229.5"/>
</g>
<!-- Node4 -->
<g id="node4" class="node"><title>Node4</title>
<g id="a_node4"><a xlink:href="classVoxel_1_1DepthCamera.xhtml#abcda3ef7cd9bfd167706016cd96e5daa" target="_top" xlink:title="Voxel::DepthCamera\l::_callbackAndContinue">
<polygon fill="none" stroke="black" points="475,-432 475,-462 595,-462 595,-432 475,-432"/>
<text text-anchor="start" x="483" y="-450" font-family="Helvetica,sans-Serif" font-size="10.00">Voxel::DepthCamera</text>
<text text-anchor="middle" x="535" y="-439" font-family="Helvetica,sans-Serif" font-size="10.00">::_callbackAndContinue</text>
</a>
</g>
</g>
<!-- Node3&#45;&gt;Node4 -->
<g id="edge3" class="edge"><title>Node3&#45;&gt;Node4</title>
<path fill="none" stroke="midnightblue" d="M365.482,-241.02C372.315,-277.574 394.836,-371.839 452,-422 456.125,-425.62 460.763,-428.715 465.681,-431.363"/>
<polygon fill="midnightblue" stroke="midnightblue" points="464.247,-434.556 474.784,-435.661 467.236,-428.226 464.247,-434.556"/>
</g>
<!-- Node5 -->
<g id="node5" class="node"><title>Node5</title>
<g id="a_node5"><a xlink:href="classVoxel_1_1DepthCamera.xhtml#aad3c91ec9bc399ca76238409a8818907" target="_top" xlink:title="Voxel::DepthCamera\l::_captureRawUnprocessedFrame">
<polygon fill="none" stroke="black" points="452,-383 452,-413 618,-413 618,-383 452,-383"/>
<text text-anchor="start" x="460" y="-401" font-family="Helvetica,sans-Serif" font-size="10.00">Voxel::DepthCamera</text>
<text text-anchor="middle" x="535" y="-390" font-family="Helvetica,sans-Serif" font-size="10.00">::_captureRawUnprocessedFrame</text>
</a>
</g>
</g>
<!-- Node3&#45;&gt;Node5 -->
<g id="edge4" class="edge"><title>Node3&#45;&gt;Node5</title>
<path fill="none" stroke="midnightblue" d="M368.094,-241.437C378.762,-271.367 406.318,-337.461 452,-373 454.313,-374.799 456.755,-376.469 459.292,-378.02"/>
<polygon fill="midnightblue" stroke="midnightblue" points="457.777,-381.179 468.24,-382.844 461.099,-375.018 457.777,-381.179"/>
</g>
<!-- Node6 -->
<g id="node6" class="node"><title>Node6</title>
<g id="a_node6"><a xlink:href="classVoxel_1_1DepthCamera.xhtml#a75aceaa2e348f2449c99e982a3d52907" target="_top" xlink:title="Voxel::DepthCamera\l::_convertToDepthFrame">
<polygon fill="none" stroke="black" points="472.5,-334 472.5,-364 597.5,-364 597.5,-334 472.5,-334"/>
<text text-anchor="start" x="480.5" y="-352" font-family="Helvetica,sans-Serif" font-size="10.00">Voxel::DepthCamera</text>
<text text-anchor="middle" x="535" y="-341" font-family="Helvetica,sans-Serif" font-size="10.00">::_convertToDepthFrame</text>
</a>
</g>
</g>
<!-- Node3&#45;&gt;Node6 -->
<g id="edge5" class="edge"><title>Node3&#45;&gt;Node6</title>
<path fill="none" stroke="midnightblue" d="M372.88,-241.289C387.582,-262.843 417.248,-301.983 452,-324 455.536,-326.24 459.285,-328.29 463.157,-330.164"/>
<polygon fill="midnightblue" stroke="midnightblue" points="461.811,-333.396 472.374,-334.225 464.634,-326.99 461.811,-333.396"/>
</g>
<!-- Node7 -->
<g id="node7" class="node"><title>Node7</title>
<g id="a_node7"><a xlink:href="classVoxel_1_1DepthCamera.xhtml#a9d0303d4bcac0324076b3dd8c25779ee" target="_top" xlink:title="Voxel::DepthCamera\l::_convertToPointCloudFrame">
<polygon fill="none" stroke="black" points="461.5,-285 461.5,-315 608.5,-315 608.5,-285 461.5,-285"/>
<text text-anchor="start" x="469.5" y="-303" font-family="Helvetica,sans-Serif" font-size="10.00">Voxel::DepthCamera</text>
<text text-anchor="middle" x="535" y="-292" font-family="Helvetica,sans-Serif" font-size="10.00">::_convertToPointCloudFrame</text>
</a>
</g>
</g>
<!-- Node3&#45;&gt;Node7 -->
<g id="edge6" class="edge"><title>Node3&#45;&gt;Node7</title>
<path fill="none" stroke="midnightblue" d="M387.248,-241.147C404.767,-251.639 429.252,-265.393 452,-275 457.446,-277.3 463.175,-279.488 468.97,-281.543"/>
<polygon fill="midnightblue" stroke="midnightblue" points="468.15,-284.961 478.744,-284.874 470.408,-278.335 468.15,-284.961"/>
</g>
<!-- Node8 -->
<g id="node8" class="node"><title>Node8</title>
<g id="a_node8"><a xlink:href="classVoxel_1_1DepthCamera.xhtml#ae261f29fddf1a44937aa60953adbceb3" target="_top" xlink:title="Voxel::DepthCamera\l::_processRawFrame">
<polygon fill="none" stroke="black" points="480,-236 480,-266 590,-266 590,-236 480,-236"/>
<text text-anchor="start" x="488" y="-254" font-family="Helvetica,sans-Serif" font-size="10.00">Voxel::DepthCamera</text>
<text text-anchor="middle" x="535" y="-243" font-family="Helvetica,sans-Serif" font-size="10.00">::_processRawFrame</text>
</a>
</g>
</g>
<!-- Node3&#45;&gt;Node8 -->
<g id="edge7" class="edge"><title>Node3&#45;&gt;Node8</title>
<path fill="none" stroke="midnightblue" d="M416.168,-233.773C433.133,-236.253 452.09,-239.025 469.754,-241.607"/>
<polygon fill="midnightblue" stroke="midnightblue" points="469.58,-245.119 479.981,-243.102 470.592,-238.193 469.58,-245.119"/>
</g>
<!-- Node9 -->
<g id="node9" class="node"><title>Node9</title>
<g id="a_node9"><a xlink:href="classVoxel_1_1DepthCamera.xhtml#afd3f7e398a56ff45aef57ed0449d92a3" target="_top" xlink:title="Voxel::DepthCamera\l::_stop">
<polygon fill="none" stroke="black" points="481,-187 481,-217 589,-217 589,-187 481,-187"/>
<text text-anchor="start" x="489" y="-205" font-family="Helvetica,sans-Serif" font-size="10.00">Voxel::DepthCamera</text>
<text text-anchor="middle" x="535" y="-194" font-family="Helvetica,sans-Serif" font-size="10.00">::_stop</text>
</a>
</g>
</g>
<!-- Node3&#45;&gt;Node9 -->
<g id="edge8" class="edge"><title>Node3&#45;&gt;Node9</title>
<path fill="none" stroke="midnightblue" d="M416.168,-218.538C433.459,-216.111 452.82,-213.394 470.772,-210.874"/>
<polygon fill="midnightblue" stroke="midnightblue" points="471.448,-214.314 480.865,-209.458 470.475,-207.382 471.448,-214.314"/>
</g>
<!-- Node10 -->
<g id="node10" class="node"><title>Node10</title>
<g id="a_node10"><a xlink:href="classVoxel_1_1DepthCamera.xhtml#a4c6537c591d1ca2d8b8974856173c77f" target="_top" xlink:title="Voxel::DepthCamera\l::_writeToFrameStream">
<polygon fill="none" stroke="black" points="475.5,-138 475.5,-168 594.5,-168 594.5,-138 475.5,-138"/>
<text text-anchor="start" x="483.5" y="-156" font-family="Helvetica,sans-Serif" font-size="10.00">Voxel::DepthCamera</text>
<text text-anchor="middle" x="535" y="-145" font-family="Helvetica,sans-Serif" font-size="10.00">::_writeToFrameStream</text>
</a>
</g>
</g>
<!-- Node3&#45;&gt;Node10 -->
<g id="edge9" class="edge"><title>Node3&#45;&gt;Node10</title>
<path fill="none" stroke="midnightblue" d="M387.666,-210.974C405.176,-200.74 429.48,-187.396 452,-178 457.679,-175.631 463.662,-173.375 469.703,-171.257"/>
<polygon fill="midnightblue" stroke="midnightblue" points="470.855,-174.562 479.209,-168.047 468.615,-167.93 470.855,-174.562"/>
</g>
<!-- Node11 -->
<g id="node11" class="node"><title>Node11</title>
<g id="a_node11"><a xlink:href="classVoxel_1_1DepthCamera.xhtml#af854b5cc3863750cd9f7df7633ce540f" target="_top" xlink:title="Voxel::DepthCamera\l::closeFrameStream">
<polygon fill="none" stroke="black" points="481,-89 481,-119 589,-119 589,-89 481,-89"/>
<text text-anchor="start" x="489" y="-107" font-family="Helvetica,sans-Serif" font-size="10.00">Voxel::DepthCamera</text>
<text text-anchor="middle" x="535" y="-96" font-family="Helvetica,sans-Serif" font-size="10.00">::closeFrameStream</text>
</a>
</g>
</g>
<!-- Node3&#45;&gt;Node11 -->
<g id="edge10" class="edge"><title>Node3&#45;&gt;Node11</title>
<path fill="none" stroke="midnightblue" d="M372.917,-210.871C387.665,-189.541 417.386,-150.805 452,-129 458.06,-125.182 464.74,-121.917 471.592,-119.13"/>
<polygon fill="midnightblue" stroke="midnightblue" points="472.854,-122.395 481,-115.62 470.407,-115.836 472.854,-122.395"/>
</g>
<!-- Node12 -->
<g id="node12" class="node"><title>Node12</title>
<g id="a_node12"><a xlink:href="classVoxel_1_1DepthCamera.xhtml#ad9fa96ac56384c771fcdfcc76c0e3b2b" target="_top" xlink:title="Voxel::DepthCamera::id">
<polygon fill="none" stroke="black" points="474,-50.5 474,-69.5 596,-69.5 596,-50.5 474,-50.5"/>
<text text-anchor="middle" x="535" y="-57.5" font-family="Helvetica,sans-Serif" font-size="10.00">Voxel::DepthCamera::id</text>
</a>
</g>
</g>
<!-- Node3&#45;&gt;Node12 -->
<g id="edge11" class="edge"><title>Node3&#45;&gt;Node12</title>
<path fill="none" stroke="midnightblue" d="M367.792,-210.901C378.091,-180.993 405.27,-114.164 452,-80 455.863,-77.1758 460.075,-74.7467 464.483,-72.6578"/>
<polygon fill="midnightblue" stroke="midnightblue" points="465.851,-75.8796 473.761,-68.8303 463.182,-69.4087 465.851,-75.8796"/>
</g>
<!-- Node13 -->
<g id="node13" class="node"><title>Node13</title>
<g id="a_node13"><a xlink:href="classVoxel_1_1DepthCamera.xhtml#a211a5061db7f2252ba240f4c250cd241" target="_top" xlink:title="Voxel::DepthCamera\l::isSavingFrameStream">
<polygon fill="none" stroke="black" points="475.5,-1 475.5,-31 594.5,-31 594.5,-1 475.5,-1"/>
<text text-anchor="start" x="483.5" y="-19" font-family="Helvetica,sans-Serif" font-size="10.00">Voxel::DepthCamera</text>
<text text-anchor="middle" x="535" y="-8" font-family="Helvetica,sans-Serif" font-size="10.00">::isSavingFrameStream</text>
</a>
</g>
</g>
<!-- Node3&#45;&gt;Node13 -->
<g id="edge12" class="edge"><title>Node3&#45;&gt;Node13</title>
<path fill="none" stroke="midnightblue" d="M365.973,-210.775C373.655,-175.528 397.497,-87.7675 452,-41 456.236,-37.3656 460.99,-34.2595 466.02,-31.6049"/>
<polygon fill="midnightblue" stroke="midnightblue" points="467.716,-34.6764 475.319,-27.2978 464.774,-28.3246 467.716,-34.6764"/>
</g>
</g>
</svg>
