<?xml version="1.0" encoding="UTF-8" standalone="no"?>
<!DOCTYPE svg PUBLIC "-//W3C//DTD SVG 1.1//EN"
 "http://www.w3.org/Graphics/SVG/1.1/DTD/svg11.dtd">
<!-- Generated by graphviz version 2.36.0 (20140111.2315)
 -->
<!-- Title: Voxel::USBDevice::getDevices Pages: 1 -->
<svg width="358pt" height="218pt"
 viewBox="0.00 0.00 358.00 218.00" xmlns="http://www.w3.org/2000/svg" xmlns:xlink="http://www.w3.org/1999/xlink">
<g id="graph0" class="graph" transform="scale(1 1) rotate(0) translate(4 214)">
<title>Voxel::USBDevice::getDevices</title>
<!-- Node1 -->
<g id="node1" class="node"><title>Node1</title>
<polygon fill="#bfbfbf" stroke="black" points="0.5,-95.5 0.5,-114.5 155.5,-114.5 155.5,-95.5 0.5,-95.5"/>
<text text-anchor="middle" x="78" y="-102.5" font-family="Helvetica,sans-Serif" font-size="10.00">Voxel::USBDevice::getDevices</text>
</g>
<!-- Node2 -->
<g id="node2" class="node"><title>Node2</title>
<g id="a_node2"><a xlink:href="classVoxel_1_1Device.xhtml#aedf97df8a9dfb00efb05f8b58c190dc2" target="_top" xlink:title="Voxel::Device::description">
<polygon fill="none" stroke="black" points="205.5,-190.5 205.5,-209.5 336.5,-209.5 336.5,-190.5 205.5,-190.5"/>
<text text-anchor="middle" x="271" y="-197.5" font-family="Helvetica,sans-Serif" font-size="10.00">Voxel::Device::description</text>
</a>
</g>
</g>
<!-- Node1&#45;&gt;Node2 -->
<g id="edge1" class="edge"><title>Node1&#45;&gt;Node2</title>
<path fill="none" stroke="midnightblue" d="M90.3865,-114.698C109.9,-130.827 151.551,-163.154 192,-181 197.69,-183.511 203.767,-185.723 209.923,-187.666"/>
<polygon fill="midnightblue" stroke="midnightblue" points="209.035,-191.053 219.616,-190.499 211,-184.334 209.035,-191.053"/>
</g>
<!-- Node3 -->
<g id="node3" class="node"><title>Node3</title>
<g id="a_node3"><a xlink:href="classVoxel_1_1USBDevice.xhtml#a733db00843f6522b28a07719c943e1fe" target="_top" xlink:title="Voxel::USBDevice::productID">
<polygon fill="none" stroke="black" points="197,-152.5 197,-171.5 345,-171.5 345,-152.5 197,-152.5"/>
<text text-anchor="middle" x="271" y="-159.5" font-family="Helvetica,sans-Serif" font-size="10.00">Voxel::USBDevice::productID</text>
</a>
</g>
</g>
<!-- Node1&#45;&gt;Node3 -->
<g id="edge2" class="edge"><title>Node1&#45;&gt;Node3</title>
<path fill="none" stroke="midnightblue" d="M105.284,-114.55C128.058,-122.653 161.978,-134.313 192,-143 200.463,-145.449 209.502,-147.847 218.317,-150.07"/>
<polygon fill="midnightblue" stroke="midnightblue" points="217.583,-153.494 228.131,-152.498 219.265,-146.699 217.583,-153.494"/>
</g>
<!-- Node4 -->
<g id="node4" class="node"><title>Node4</title>
<g id="a_node4"><a xlink:href="classVoxel_1_1Device.xhtml#a015328649745ae11a52afaecbf6a6de5" target="_top" xlink:title="Voxel::Device::serialIndex">
<polygon fill="none" stroke="black" points="205.5,-114.5 205.5,-133.5 336.5,-133.5 336.5,-114.5 205.5,-114.5"/>
<text text-anchor="middle" x="271" y="-121.5" font-family="Helvetica,sans-Serif" font-size="10.00">Voxel::Device::serialIndex</text>
</a>
</g>
</g>
<!-- Node1&#45;&gt;Node4 -->
<g id="edge3" class="edge"><title>Node1&#45;&gt;Node4</title>
<path fill="none" stroke="midnightblue" d="M155.586,-112.619C168.607,-113.914 182.117,-115.258 195.094,-116.549"/>
<polygon fill="midnightblue" stroke="midnightblue" points="195.07,-120.063 205.367,-117.571 195.763,-113.098 195.07,-120.063"/>
</g>
<!-- Node5 -->
<g id="node5" class="node"><title>Node5</title>
<g id="a_node5"><a xlink:href="classVoxel_1_1Device.xhtml#af5b725547c816ee4bac357b3ff049a80" target="_top" xlink:title="Voxel::Device::serialNumber">
<polygon fill="none" stroke="black" points="200,-76.5 200,-95.5 342,-95.5 342,-76.5 200,-76.5"/>
<text text-anchor="middle" x="271" y="-83.5" font-family="Helvetica,sans-Serif" font-size="10.00">Voxel::Device::serialNumber</text>
</a>
</g>
</g>
<!-- Node1&#45;&gt;Node5 -->
<g id="edge4" class="edge"><title>Node1&#45;&gt;Node5</title>
<path fill="none" stroke="midnightblue" d="M155.586,-97.3815C166.79,-96.2669 178.356,-95.1164 189.633,-93.9946"/>
<polygon fill="midnightblue" stroke="midnightblue" points="190.285,-97.4472 199.889,-92.9744 189.592,-90.4815 190.285,-97.4472"/>
</g>
<!-- Node6 -->
<g id="node6" class="node"><title>Node6</title>
<g id="a_node6"><a xlink:href="classVoxel_1_1USBDevice.xhtml#af7514fb809427188c3bfd5f0bb6c9cf3" target="_top" xlink:title="Voxel::USBDevice::USBDevice">
<polygon fill="none" stroke="black" points="192.5,-38.5 192.5,-57.5 349.5,-57.5 349.5,-38.5 192.5,-38.5"/>
<text text-anchor="middle" x="271" y="-45.5" font-family="Helvetica,sans-Serif" font-size="10.00">Voxel::USBDevice::USBDevice</text>
</a>
</g>
</g>
<!-- Node1&#45;&gt;Node6 -->
<g id="edge5" class="edge"><title>Node1&#45;&gt;Node6</title>
<path fill="none" stroke="midnightblue" d="M105.284,-95.4503C128.058,-87.347 161.978,-75.6872 192,-67 200.463,-64.5511 209.502,-62.1532 218.317,-59.9304"/>
<polygon fill="midnightblue" stroke="midnightblue" points="219.265,-63.3015 228.131,-57.5017 217.583,-56.5064 219.265,-63.3015"/>
</g>
<!-- Node7 -->
<g id="node7" class="node"><title>Node7</title>
<g id="a_node7"><a xlink:href="classVoxel_1_1USBDevice.xhtml#ad7edff89623a9ecf8a2840b5181c67ac" target="_top" xlink:title="Voxel::USBDevice::vendorID">
<polygon fill="none" stroke="black" points="198.5,-0.5 198.5,-19.5 343.5,-19.5 343.5,-0.5 198.5,-0.5"/>
<text text-anchor="middle" x="271" y="-7.5" font-family="Helvetica,sans-Serif" font-size="10.00">Voxel::USBDevice::vendorID</text>
</a>
</g>
</g>
<!-- Node1&#45;&gt;Node7 -->
<g id="edge6" class="edge"><title>Node1&#45;&gt;Node7</title>
<path fill="none" stroke="midnightblue" d="M90.3865,-95.3021C109.9,-79.1725 151.551,-46.846 192,-29 197.69,-26.4894 203.767,-24.2768 209.923,-22.3345"/>
<polygon fill="midnightblue" stroke="midnightblue" points="211,-25.6662 219.616,-19.5008 209.035,-18.9474 211,-25.6662"/>
</g>
</g>
</svg>
