<?xml version="1.0" encoding="UTF-8" standalone="no"?>
<!DOCTYPE svg PUBLIC "-//W3C//DTD SVG 1.1//EN"
 "http://www.w3.org/Graphics/SVG/1.1/DTD/svg11.dtd">
<!-- Generated by graphviz version 2.36.0 (20140111.2315)
 -->
<!-- Title: Voxel::USBBulkStreamer::USBBulkStreamerPrivate Pages: 1 -->
<!--zoomable 587 -->
<svg id="main" version="1.1" xmlns="http://www.w3.org/2000/svg" xmlns:xlink="http://www.w3.org/1999/xlink" xml:space="preserve" onload="init(evt)">
<style type="text/css"><![CDATA[
.edge:hover path { stroke: red; }
.edge:hover polygon { stroke: red; fill: red; }
]]></style>
<script type="text/javascript"><![CDATA[
var edges = document.getElementsByTagName('g');
if (edges && edges.length) {
  for (var i=0;i<edges.length;i++) {
    if (edges[i].id.substr(0,4)=='edge') {
      edges[i].setAttribute('class','edge');
    }
  }
}
]]></script>
        <defs>
                <circle id="rim" cx="0" cy="0" r="7"/>
                <circle id="rim2" cx="0" cy="0" r="3.5"/>
                <g id="zoomPlus">
                        <use xlink:href="#rim" fill="#404040">
                                <set attributeName="fill" to="#808080" begin="zoomplus.mouseover" end="zoomplus.mouseout"/>
                        </use>
                        <path d="M-4,0h8M0,-4v8" fill="none" stroke="white" stroke-width="1.5" pointer-events="none"/>
                </g>
                <g id="zoomMin">
                        <use xlink:href="#rim" fill="#404040">
                                <set attributeName="fill" to="#808080" begin="zoomminus.mouseover" end="zoomminus.mouseout"/>
                        </use>
                        <path d="M-4,0h8" fill="none" stroke="white" stroke-width="1.5" pointer-events="none"/>
                </g>
                <g id="dirArrow">
                        <path fill="none" stroke="white" stroke-width="1.5" d="M0,-3.0v7 M-2.5,-0.5L0,-3.0L2.5,-0.5"/>
                </g>
               <g id="resetDef">
                       <use xlink:href="#rim2" fill="#404040">
                               <set attributeName="fill" to="#808080" begin="reset.mouseover" end="reset.mouseout"/>
                       </use>
               </g>
        </defs>

<script type="text/javascript">
var viewWidth = 998;
var viewHeight = 587;
var sectionId = 'dynsection-0';
</script>
<script xlink:href="svgpan.js"/>
<svg id="graph" class="graph">
<g id="viewport">
<title>Voxel::USBBulkStreamer::USBBulkStreamerPrivate</title>
<!-- Node1 -->
<g id="node1" class="node"><title>Node1</title>
<polygon fill="#bfbfbf" stroke="black" points="856,-264.105 856,-294.105 990,-294.105 990,-264.105 856,-264.105"/>
<text text-anchor="start" x="864" y="-282.105" font-family="Helvetica,sans-Serif" font-size="10.00">Voxel::USBBulkStreamer</text>
<text text-anchor="middle" x="923" y="-271.105" font-family="Helvetica,sans-Serif" font-size="10.00">::USBBulkStreamerPrivate</text>
</g>
<!-- Node2 -->
<g id="node2" class="node"><title>Node2</title>
<polygon fill="none" stroke="#bfbfbf" points="592,-550.605 592,-569.605 684,-569.605 684,-550.605 592,-550.605"/>
<text text-anchor="middle" x="638" y="-557.605" font-family="Helvetica,sans-Serif" font-size="10.00">Vector&lt; uint8_t &gt;</text>
</g>
<!-- Node2&#45;&gt;Node1 -->
<g id="edge1" class="edge"><title>Node2&#45;&gt;Node1</title>
<path fill="none" stroke="#9a32cd" stroke-dasharray="5,2" d="M694.457,-567.699C738.242,-570.515 798.361,-566.903 838,-534.105 913.773,-471.407 921.703,-338.832 922.15,-294.161"/>
<polygon fill="#9a32cd" stroke="#9a32cd" points="694.501,-564.192 684.26,-566.909 693.96,-571.171 694.501,-564.192"/>
<text text-anchor="middle" x="783" y="-571.105" font-family="Helvetica,sans-Serif" font-size="10.00"> usbBuffer</text>
</g>
<!-- Node3 -->
<g id="node3" class="node"><title>Node3</title>
<polygon fill="none" stroke="#bfbfbf" points="590.5,-512.605 590.5,-531.605 685.5,-531.605 685.5,-512.605 590.5,-512.605"/>
<text text-anchor="middle" x="638" y="-519.605" font-family="Helvetica,sans-Serif" font-size="10.00">condition_variable</text>
</g>
<!-- Node3&#45;&gt;Node1 -->
<g id="edge2" class="edge"><title>Node3&#45;&gt;Node1</title>
<path fill="none" stroke="#9a32cd" stroke-dasharray="5,2" d="M695.894,-521.327C746.768,-519.515 816.514,-513.918 838,-497.105 904.121,-445.364 918.233,-334.764 921.213,-294.321"/>
<polygon fill="#9a32cd" stroke="#9a32cd" points="695.555,-517.836 685.67,-521.651 695.776,-524.833 695.555,-517.836"/>
<text text-anchor="middle" x="783" y="-522.105" font-family="Helvetica,sans-Serif" font-size="10.00"> _dataAvailableCondition</text>
</g>
<!-- Node4 -->
<g id="node4" class="node"><title>Node4</title>
<polygon fill="none" stroke="#bfbfbf" points="312.5,-438.605 312.5,-457.605 363.5,-457.605 363.5,-438.605 312.5,-438.605"/>
<text text-anchor="middle" x="338" y="-445.605" font-family="Helvetica,sans-Serif" font-size="10.00">uint64_t</text>
</g>
<!-- Node4&#45;&gt;Node1 -->
<g id="edge3" class="edge"><title>Node4&#45;&gt;Node1</title>
<path fill="none" stroke="#9a32cd" stroke-dasharray="5,2" d="M373.706,-458.478C389.503,-462.68 408.534,-467.027 426,-469.105 517.109,-479.945 761.959,-493.449 838,-442.105 890.636,-406.564 912.247,-327.426 919.223,-294.226"/>
<polygon fill="#9a32cd" stroke="#9a32cd" points="374.412,-455.042 363.841,-455.762 372.554,-461.791 374.412,-455.042"/>
<text text-anchor="middle" x="638" y="-482.105" font-family="Helvetica,sans-Serif" font-size="10.00"> _sampleStart</text>
</g>
<!-- Node11 -->
<g id="node11" class="node"><title>Node11</title>
<g id="a_node11"><a xlink:href="classVoxel_1_1Timer.xhtml" target="_top" xlink:title="Voxel::Timer">
<polygon fill="none" stroke="black" points="602,-419.605 602,-438.605 674,-438.605 674,-419.605 602,-419.605"/>
<text text-anchor="middle" x="638" y="-426.605" font-family="Helvetica,sans-Serif" font-size="10.00">Voxel::Timer</text>
</a>
</g>
</g>
<!-- Node4&#45;&gt;Node11 -->
<g id="edge12" class="edge"><title>Node4&#45;&gt;Node11</title>
<path fill="none" stroke="#9a32cd" stroke-dasharray="5,2" d="M373.64,-445.896C430.851,-442.248 544.462,-435.005 601.944,-431.34"/>
<polygon fill="#9a32cd" stroke="#9a32cd" points="373.397,-442.404 363.64,-446.534 373.843,-449.39 373.397,-442.404"/>
<text text-anchor="middle" x="487" y="-457.105" font-family="Helvetica,sans-Serif" font-size="10.00"> _realTimeStart</text>
<text text-anchor="middle" x="487" y="-446.105" font-family="Helvetica,sans-Serif" font-size="10.00">_monoticStart</text>
</g>
<!-- Node5 -->
<g id="node5" class="node"><title>Node5</title>
<g id="a_node5"><a xlink:href="classVoxel_1_1FrameBufferManager.xhtml" target="_top" xlink:title="Voxel::FrameBufferManager\l\&lt; Voxel::RawDataFrame \&gt;">
<polygon fill="none" stroke="black" points="568.5,-312.105 568.5,-342.105 707.5,-342.105 707.5,-312.105 568.5,-312.105"/>
<text text-anchor="start" x="576.5" y="-330.105" font-family="Helvetica,sans-Serif" font-size="10.00">Voxel::FrameBufferManager</text>
<text text-anchor="middle" x="638" y="-319.105" font-family="Helvetica,sans-Serif" font-size="10.00">&lt; Voxel::RawDataFrame &gt;</text>
</a>
</g>
</g>
<!-- Node5&#45;&gt;Node1 -->
<g id="edge4" class="edge"><title>Node5&#45;&gt;Node1</title>
<path fill="none" stroke="#9a32cd" stroke-dasharray="5,2" d="M717.758,-314.275C754.341,-308.256 798.409,-300.922 838,-294.105 843.84,-293.099 849.905,-292.042 855.983,-290.973"/>
<polygon fill="#9a32cd" stroke="#9a32cd" points="716.949,-310.861 707.648,-315.936 718.084,-317.768 716.949,-310.861"/>
<text text-anchor="middle" x="783" y="-316.105" font-family="Helvetica,sans-Serif" font-size="10.00"> _rawBuffers</text>
</g>
<!-- Node6 -->
<g id="node6" class="node"><title>Node6</title>
<polygon fill="none" stroke="#bfbfbf" points="270.5,-238.105 270.5,-268.105 405.5,-268.105 405.5,-238.105 270.5,-238.105"/>
<text text-anchor="start" x="278.5" y="-256.105" font-family="Helvetica,sans-Serif" font-size="10.00">List&lt; Ptr&lt; Voxel::RawData</text>
<text text-anchor="middle" x="338" y="-245.105" font-family="Helvetica,sans-Serif" font-size="10.00">Frame &gt; &gt;</text>
</g>
<!-- Node6&#45;&gt;Node5 -->
<g id="edge5" class="edge"><title>Node6&#45;&gt;Node5</title>
<path fill="none" stroke="#9a32cd" stroke-dasharray="5,2" d="M415.999,-253.02C457.073,-255.743 507.374,-263.656 548,-284.105 558.106,-289.191 556.426,-296.076 566,-302.105 571.972,-305.865 578.583,-309.151 585.299,-311.996"/>
<polygon fill="#9a32cd" stroke="#9a32cd" points="415.95,-249.512 405.767,-252.435 415.551,-256.5 415.95,-249.512"/>
<text text-anchor="middle" x="487" y="-298.105" font-family="Helvetica,sans-Serif" font-size="10.00"> _available</text>
<text text-anchor="middle" x="487" y="-287.105" font-family="Helvetica,sans-Serif" font-size="10.00">_inUse</text>
</g>
<!-- Node7 -->
<g id="node7" class="node"><title>Node7</title>
<polygon fill="none" stroke="#bfbfbf" points="43.5,-331.605 43.5,-350.605 86.5,-350.605 86.5,-331.605 43.5,-331.605"/>
<text text-anchor="middle" x="65" y="-338.605" font-family="Helvetica,sans-Serif" font-size="10.00">size_t</text>
</g>
<!-- Node7&#45;&gt;Node5 -->
<g id="edge6" class="edge"><title>Node7&#45;&gt;Node5</title>
<path fill="none" stroke="#9a32cd" stroke-dasharray="5,2" d="M97.047,-341.402C173.672,-341.971 377.906,-342.499 548,-334.105 554.502,-333.784 561.266,-333.38 568.031,-332.929"/>
<polygon fill="#9a32cd" stroke="#9a32cd" points="96.7148,-337.899 86.6869,-341.318 96.6584,-344.899 96.7148,-337.899"/>
<text text-anchor="middle" x="338" y="-345.105" font-family="Helvetica,sans-Serif" font-size="10.00"> _minimumBufferCount</text>
</g>
<!-- Node8 -->
<g id="node8" class="node"><title>Node8</title>
<g id="a_node8"><a xlink:href="classVoxel_1_1FrameBufferManager.xhtml" target="_top" xlink:title="Voxel::FrameBufferManager\l\&lt; BufferType \&gt;">
<polygon fill="none" stroke="black" points="268.5,-287.105 268.5,-317.105 407.5,-317.105 407.5,-287.105 268.5,-287.105"/>
<text text-anchor="start" x="276.5" y="-305.105" font-family="Helvetica,sans-Serif" font-size="10.00">Voxel::FrameBufferManager</text>
<text text-anchor="middle" x="338" y="-294.105" font-family="Helvetica,sans-Serif" font-size="10.00">&lt; BufferType &gt;</text>
</a>
</g>
</g>
<!-- Node7&#45;&gt;Node8 -->
<g id="edge9" class="edge"><title>Node7&#45;&gt;Node8</title>
<path fill="none" stroke="#9a32cd" stroke-dasharray="5,2" d="M96.5886,-336.603C112.006,-334.341 130.993,-331.564 148,-329.105 187.857,-323.341 232.454,-316.967 268.314,-311.86"/>
<polygon fill="#9a32cd" stroke="#9a32cd" points="95.9389,-333.161 86.5537,-338.077 96.9562,-340.087 95.9389,-333.161"/>
<text text-anchor="middle" x="199" y="-332.105" font-family="Helvetica,sans-Serif" font-size="10.00"> _minimumBufferCount</text>
</g>
<!-- Node8&#45;&gt;Node5 -->
<g id="edge7" class="edge"><title>Node8&#45;&gt;Node5</title>
<path fill="none" stroke="orange" stroke-dasharray="5,2" d="M417.843,-308.719C464.658,-312.647 523.446,-317.578 568.347,-321.345"/>
<polygon fill="orange" stroke="orange" points="417.999,-305.22 407.741,-307.872 417.414,-312.195 417.999,-305.22"/>
<text text-anchor="middle" x="487" y="-322.105" font-family="Helvetica,sans-Serif" font-size="10.00"> &lt; Voxel::RawDataFrame &gt;</text>
</g>
<!-- Node9 -->
<g id="node9" class="node"><title>Node9</title>
<polygon fill="none" stroke="#bfbfbf" points="0.5,-273.605 0.5,-292.605 129.5,-292.605 129.5,-273.605 0.5,-273.605"/>
<text text-anchor="middle" x="65" y="-280.605" font-family="Helvetica,sans-Serif" font-size="10.00">List&lt; Ptr&lt; BufferType &gt; &gt;</text>
</g>
<!-- Node9&#45;&gt;Node8 -->
<g id="edge8" class="edge"><title>Node9&#45;&gt;Node8</title>
<path fill="none" stroke="#9a32cd" stroke-dasharray="5,2" d="M139.839,-280.169C173.522,-279.686 213.867,-280.307 250,-284.105 256.903,-284.83 264.067,-285.857 271.188,-287.056"/>
<polygon fill="#9a32cd" stroke="#9a32cd" points="139.548,-276.674 129.612,-280.352 139.673,-283.673 139.548,-276.674"/>
<text text-anchor="middle" x="199" y="-298.105" font-family="Helvetica,sans-Serif" font-size="10.00"> _available</text>
<text text-anchor="middle" x="199" y="-287.105" font-family="Helvetica,sans-Serif" font-size="10.00">_inUse</text>
</g>
<!-- Node10 -->
<g id="node10" class="node"><title>Node10</title>
<polygon fill="none" stroke="#bfbfbf" points="566.5,-263.105 566.5,-293.105 709.5,-293.105 709.5,-263.105 566.5,-263.105"/>
<text text-anchor="start" x="574.5" y="-281.105" font-family="Helvetica,sans-Serif" font-size="10.00">List&lt; Voxel::FrameBuffer</text>
<text text-anchor="middle" x="638" y="-270.105" font-family="Helvetica,sans-Serif" font-size="10.00">&lt; Voxel::RawDataFrame &gt; &gt;</text>
</g>
<!-- Node10&#45;&gt;Node1 -->
<g id="edge10" class="edge"><title>Node10&#45;&gt;Node1</title>
<path fill="none" stroke="#9a32cd" stroke-dasharray="5,2" d="M719.833,-278.39C762.822,-278.542 815.026,-278.727 855.617,-278.87"/>
<polygon fill="#9a32cd" stroke="#9a32cd" points="719.695,-274.89 709.683,-278.354 719.67,-281.89 719.695,-274.89"/>
<text text-anchor="middle" x="783" y="-282.105" font-family="Helvetica,sans-Serif" font-size="10.00"> _inUseBuffers</text>
</g>
<!-- Node11&#45;&gt;Node1 -->
<g id="edge11" class="edge"><title>Node11&#45;&gt;Node1</title>
<path fill="none" stroke="#9a32cd" stroke-dasharray="5,2" d="M684.235,-430.2C726.931,-429.2 791.206,-422.271 838,-393.105 877.015,-368.787 903.852,-319.167 915.485,-294.186"/>
<polygon fill="#9a32cd" stroke="#9a32cd" points="684.088,-426.701 674.136,-430.335 684.182,-433.701 684.088,-426.701"/>
<text text-anchor="middle" x="783" y="-430.105" font-family="Helvetica,sans-Serif" font-size="10.00"> _timer</text>
</g>
<!-- Node12 -->
<g id="node12" class="node"><title>Node12</title>
<g id="a_node12"><a xlink:href="classbool.xhtml" target="_top" xlink:title="bool">
<polygon fill="none" stroke="black" points="320.5,-392.605 320.5,-411.605 355.5,-411.605 355.5,-392.605 320.5,-392.605"/>
<text text-anchor="middle" x="338" y="-399.605" font-family="Helvetica,sans-Serif" font-size="10.00">bool</text>
</a>
</g>
</g>
<!-- Node12&#45;&gt;Node1 -->
<g id="edge21" class="edge"><title>Node12&#45;&gt;Node1</title>
<path fill="none" stroke="#9a32cd" stroke-dasharray="5,2" d="M365.577,-399.611C455.753,-390.928 749.355,-360.758 838,-328.105 860.813,-319.701 884.54,-305.248 900.934,-294.21"/>
<polygon fill="#9a32cd" stroke="#9a32cd" points="365.238,-396.128 355.616,-400.563 365.903,-403.096 365.238,-396.128"/>
<text text-anchor="middle" x="638" y="-391.105" font-family="Helvetica,sans-Serif" font-size="10.00"> initialized</text>
<text text-anchor="middle" x="638" y="-380.105" font-family="Helvetica,sans-Serif" font-size="10.00">captureRunning</text>
</g>
<!-- Node12&#45;&gt;Node11 -->
<g id="edge13" class="edge"><title>Node12&#45;&gt;Node11</title>
<path fill="none" stroke="#9a32cd" stroke-dasharray="5,2" d="M366.062,-404.557C420.201,-409.462 541.792,-420.478 601.939,-425.928"/>
<polygon fill="#9a32cd" stroke="#9a32cd" points="366.151,-401.05 355.876,-403.634 365.519,-408.022 366.151,-401.05"/>
<text text-anchor="middle" x="487" y="-424.105" font-family="Helvetica,sans-Serif" font-size="10.00"> _initialized</text>
</g>
<!-- Node13 -->
<g id="node13" class="node"><title>Node13</title>
<polygon fill="none" stroke="#bfbfbf" points="616,-224.605 616,-243.605 660,-243.605 660,-224.605 616,-224.605"/>
<text text-anchor="middle" x="638" y="-231.605" font-family="Helvetica,sans-Serif" font-size="10.00">mutex</text>
</g>
<!-- Node13&#45;&gt;Node1 -->
<g id="edge14" class="edge"><title>Node13&#45;&gt;Node1</title>
<path fill="none" stroke="#9a32cd" stroke-dasharray="5,2" d="M670.232,-238.546C709.454,-244.185 778.788,-254.357 838,-264.105 843.847,-265.067 849.917,-266.095 855.999,-267.145"/>
<polygon fill="#9a32cd" stroke="#9a32cd" points="670.63,-235.067 660.235,-237.113 669.637,-241.997 670.63,-235.067"/>
<text text-anchor="middle" x="783" y="-267.105" font-family="Helvetica,sans-Serif" font-size="10.00"> _dataAccessMutex</text>
</g>
<!-- Node14 -->
<g id="node14" class="node"><title>Node14</title>
<g id="a_node14"><a xlink:href="classVoxel_1_1Ptr.xhtml" target="_top" xlink:title="Voxel::Ptr\&lt; USBIO \&gt;">
<polygon fill="none" stroke="black" points="583,-139.605 583,-158.605 693,-158.605 693,-139.605 583,-139.605"/>
<text text-anchor="middle" x="638" y="-146.605" font-family="Helvetica,sans-Serif" font-size="10.00">Voxel::Ptr&lt; USBIO &gt;</text>
</a>
</g>
</g>
<!-- Node14&#45;&gt;Node1 -->
<g id="edge15" class="edge"><title>Node14&#45;&gt;Node1</title>
<path fill="none" stroke="#9a32cd" stroke-dasharray="5,2" d="M703.191,-153.386C743.927,-158.348 796.574,-169.048 838,-192.105 870.104,-209.973 897.569,-244.067 911.735,-263.854"/>
<polygon fill="#9a32cd" stroke="#9a32cd" points="703.435,-149.891 693.105,-152.244 702.647,-156.846 703.435,-149.891"/>
<text text-anchor="middle" x="783" y="-195.105" font-family="Helvetica,sans-Serif" font-size="10.00"> usbIO</text>
</g>
<!-- Node15 -->
<g id="node15" class="node"><title>Node15</title>
<polygon fill="none" stroke="#bfbfbf" points="272.5,-106.605 272.5,-125.605 403.5,-125.605 403.5,-106.605 272.5,-106.605"/>
<text text-anchor="middle" x="338" y="-113.605" font-family="Helvetica,sans-Serif" font-size="10.00">std::shared_ptr&lt; USBIO &gt;</text>
</g>
<!-- Node15&#45;&gt;Node14 -->
<g id="edge16" class="edge"><title>Node15&#45;&gt;Node14</title>
<path fill="none" stroke="midnightblue" d="M413.622,-124.368C466.265,-130.198 535.568,-137.872 582.935,-143.118"/>
<polygon fill="midnightblue" stroke="midnightblue" points="413.986,-120.887 403.662,-123.265 413.216,-127.845 413.986,-120.887"/>
</g>
<!-- Node16 -->
<g id="node16" class="node"><title>Node16</title>
<g id="a_node16"><a xlink:href="classVoxel_1_1Ptr.xhtml" target="_top" xlink:title="Voxel::Ptr\&lt; T \&gt;">
<polygon fill="none" stroke="black" points="296,-153.605 296,-172.605 380,-172.605 380,-153.605 296,-153.605"/>
<text text-anchor="middle" x="338" y="-160.605" font-family="Helvetica,sans-Serif" font-size="10.00">Voxel::Ptr&lt; T &gt;</text>
</a>
</g>
</g>
<!-- Node16&#45;&gt;Node14 -->
<g id="edge17" class="edge"><title>Node16&#45;&gt;Node14</title>
<path fill="none" stroke="orange" stroke-dasharray="5,2" d="M390.123,-154.216C401.873,-152.521 414.341,-150.999 426,-150.105 479.144,-146.029 540.038,-146.264 582.705,-147.225"/>
<polygon fill="orange" stroke="orange" points="389.388,-150.787 380.021,-155.738 390.431,-157.709 389.388,-150.787"/>
<text text-anchor="middle" x="487" y="-153.105" font-family="Helvetica,sans-Serif" font-size="10.00"> &lt; USBIO &gt;</text>
</g>
<!-- Node21 -->
<g id="node21" class="node"><title>Node21</title>
<g id="a_node21"><a xlink:href="classVoxel_1_1Ptr.xhtml" target="_top" xlink:title="Voxel::Ptr\&lt; Thread \&gt;">
<polygon fill="none" stroke="black" points="584,-186.605 584,-205.605 692,-205.605 692,-186.605 584,-186.605"/>
<text text-anchor="middle" x="638" y="-193.605" font-family="Helvetica,sans-Serif" font-size="10.00">Voxel::Ptr&lt; Thread &gt;</text>
</a>
</g>
</g>
<!-- Node16&#45;&gt;Node21 -->
<g id="edge25" class="edge"><title>Node16&#45;&gt;Node21</title>
<path fill="none" stroke="orange" stroke-dasharray="5,2" d="M390.303,-168.717C432.613,-173.354 494.206,-180.123 548,-186.105 559.59,-187.394 572.028,-188.786 583.822,-190.11"/>
<polygon fill="orange" stroke="orange" points="390.567,-165.226 380.245,-167.616 389.804,-172.184 390.567,-165.226"/>
<text text-anchor="middle" x="487" y="-189.105" font-family="Helvetica,sans-Serif" font-size="10.00"> &lt; Thread &gt;</text>
</g>
<!-- Node17 -->
<g id="node17" class="node"><title>Node17</title>
<polygon fill="none" stroke="#bfbfbf" points="12,-153.605 12,-172.605 118,-172.605 118,-153.605 12,-153.605"/>
<text text-anchor="middle" x="65" y="-160.605" font-family="Helvetica,sans-Serif" font-size="10.00">std::shared_ptr&lt; T &gt;</text>
</g>
<!-- Node17&#45;&gt;Node16 -->
<g id="edge18" class="edge"><title>Node17&#45;&gt;Node16</title>
<path fill="none" stroke="midnightblue" d="M128.267,-163.105C179.76,-163.105 251.423,-163.105 295.97,-163.105"/>
<polygon fill="midnightblue" stroke="midnightblue" points="128.252,-159.605 118.252,-163.105 128.251,-166.605 128.252,-159.605"/>
</g>
<!-- Node18 -->
<g id="node18" class="node"><title>Node18</title>
<g id="a_node18"><a xlink:href="classint.xhtml" target="_top" xlink:title="int">
<polygon fill="none" stroke="black" points="623.5,-100.605 623.5,-119.605 652.5,-119.605 652.5,-100.605 623.5,-100.605"/>
<text text-anchor="middle" x="638" y="-107.605" font-family="Helvetica,sans-Serif" font-size="10.00">int</text>
</a>
</g>
</g>
<!-- Node18&#45;&gt;Node1 -->
<g id="edge19" class="edge"><title>Node18&#45;&gt;Node1</title>
<path fill="none" stroke="#9a32cd" stroke-dasharray="5,2" d="M662.702,-102.471C702.349,-91.2358 783.161,-75.0337 838,-109.105 894.345,-144.112 914.032,-229.332 919.861,-264.031"/>
<polygon fill="#9a32cd" stroke="#9a32cd" points="661.472,-99.1855 652.886,-105.394 663.469,-105.894 661.472,-99.1855"/>
<text text-anchor="middle" x="783" y="-145.105" font-family="Helvetica,sans-Serif" font-size="10.00"> droppedFrames</text>
<text text-anchor="middle" x="783" y="-134.105" font-family="Helvetica,sans-Serif" font-size="10.00">retriesCount</text>
<text text-anchor="middle" x="783" y="-123.105" font-family="Helvetica,sans-Serif" font-size="10.00">validFrames</text>
<text text-anchor="middle" x="783" y="-112.105" font-family="Helvetica,sans-Serif" font-size="10.00">resetCount</text>
</g>
<!-- Node19 -->
<g id="node19" class="node"><title>Node19</title>
<polygon fill="none" stroke="#bfbfbf" points="615,-62.6047 615,-81.6047 661,-81.6047 661,-62.6047 615,-62.6047"/>
<text text-anchor="middle" x="638" y="-69.6047" font-family="Helvetica,sans-Serif" font-size="10.00">uint8_t</text>
</g>
<!-- Node19&#45;&gt;Node1 -->
<g id="edge20" class="edge"><title>Node19&#45;&gt;Node1</title>
<path fill="none" stroke="#9a32cd" stroke-dasharray="5,2" d="M671.127,-68.2562C720.4,-63.0352 811.694,-56.2626 838,-74.1047 903.732,-118.687 918.076,-224.733 921.165,-264.076"/>
<polygon fill="#9a32cd" stroke="#9a32cd" points="670.559,-64.7975 661.002,-69.3701 671.325,-71.7555 670.559,-64.7975"/>
<text text-anchor="middle" x="783" y="-77.1047" font-family="Helvetica,sans-Serif" font-size="10.00"> endpoint</text>
</g>
<!-- Node20 -->
<g id="node20" class="node"><title>Node20</title>
<polygon fill="none" stroke="#bfbfbf" points="620.5,-8.60473 620.5,-27.6047 655.5,-27.6047 655.5,-8.60473 620.5,-8.60473"/>
<text text-anchor="middle" x="638" y="-15.6047" font-family="Helvetica,sans-Serif" font-size="10.00">long</text>
</g>
<!-- Node20&#45;&gt;Node1 -->
<g id="edge22" class="edge"><title>Node20&#45;&gt;Node1</title>
<path fill="none" stroke="#9a32cd" stroke-dasharray="5,2" d="M665.628,-10.4896C707.02,-0.386308 787.3,12.0556 838,-26.1047 916.023,-84.8299 922.494,-218.622 922.358,-263.844"/>
<polygon fill="#9a32cd" stroke="#9a32cd" points="664.555,-7.15165 655.747,-13.04 666.305,-13.9295 664.555,-7.15165"/>
<text text-anchor="middle" x="783" y="-51.1047" font-family="Helvetica,sans-Serif" font-size="10.00"> timeout</text>
<text text-anchor="middle" x="783" y="-40.1047" font-family="Helvetica,sans-Serif" font-size="10.00">transferred</text>
<text text-anchor="middle" x="783" y="-29.1047" font-family="Helvetica,sans-Serif" font-size="10.00">bufSize</text>
</g>
<!-- Node21&#45;&gt;Node1 -->
<g id="edge23" class="edge"><title>Node21&#45;&gt;Node1</title>
<path fill="none" stroke="#9a32cd" stroke-dasharray="5,2" d="M702.248,-202.662C742.039,-208.048 794,-217.42 838,-233.105 859.77,-240.865 882.663,-253.759 899.042,-263.925"/>
<polygon fill="#9a32cd" stroke="#9a32cd" points="702.516,-199.167 692.147,-201.344 701.61,-206.108 702.516,-199.167"/>
<text text-anchor="middle" x="783" y="-236.105" font-family="Helvetica,sans-Serif" font-size="10.00"> captureThread</text>
</g>
<!-- Node22 -->
<g id="node22" class="node"><title>Node22</title>
<polygon fill="none" stroke="#bfbfbf" points="273,-199.605 273,-218.605 403,-218.605 403,-199.605 273,-199.605"/>
<text text-anchor="middle" x="338" y="-206.605" font-family="Helvetica,sans-Serif" font-size="10.00">std::shared_ptr&lt; Thread &gt;</text>
</g>
<!-- Node22&#45;&gt;Node21 -->
<g id="edge24" class="edge"><title>Node22&#45;&gt;Node21</title>
<path fill="none" stroke="midnightblue" d="M413.317,-205.863C466.306,-203.551 536.29,-200.498 583.766,-198.427"/>
<polygon fill="midnightblue" stroke="midnightblue" points="413.133,-202.367 403.295,-206.3 413.438,-209.361 413.133,-202.367"/>
</g>
</g>
</svg>
        <g id="navigator" transform="translate(0 0)" fill="#404254">
                <rect fill="#f2f5e9" fill-opacity="0.5" stroke="#606060" stroke-width=".5" x="0" y="0" width="60" height="60"/>
                <use id="zoomplus" xlink:href="#zoomPlus" x="17" y="9" onmousedown="handleZoom(evt,'in')"/>
                <use id="zoomminus" xlink:href="#zoomMin" x="42" y="9" onmousedown="handleZoom(evt,'out')"/>
                <use id="reset" xlink:href="#resetDef" x="30" y="36" onmousedown="handleReset()"/>
                <g id="arrowUp" xlink:href="#dirArrow" transform="translate(30 24)" onmousedown="handlePan(0,-1)">
                  <use xlink:href="#rim" fill="#404040">
                        <set attributeName="fill" to="#808080" begin="arrowUp.mouseover" end="arrowUp.mouseout"/>
                  </use>
                  <path fill="none" stroke="white" stroke-width="1.5" d="M0,-3.0v7 M-2.5,-0.5L0,-3.0L2.5,-0.5"/>
                </g>
                <g id="arrowRight" xlink:href="#dirArrow" transform="rotate(90) translate(36 -43)" onmousedown="handlePan(1,0)">
                  <use xlink:href="#rim" fill="#404040">
                        <set attributeName="fill" to="#808080" begin="arrowRight.mouseover" end="arrowRight.mouseout"/>
                  </use>
                  <path fill="none" stroke="white" stroke-width="1.5" d="M0,-3.0v7 M-2.5,-0.5L0,-3.0L2.5,-0.5"/>
                </g>
                <g id="arrowDown" xlink:href="#dirArrow" transform="rotate(180) translate(-30 -48)" onmousedown="handlePan(0,1)">
                  <use xlink:href="#rim" fill="#404040">
                        <set attributeName="fill" to="#808080" begin="arrowDown.mouseover" end="arrowDown.mouseout"/>
                  </use>
                  <path fill="none" stroke="white" stroke-width="1.5" d="M0,-3.0v7 M-2.5,-0.5L0,-3.0L2.5,-0.5"/>
                </g>
                <g id="arrowLeft" xlink:href="#dirArrow" transform="rotate(270) translate(-36 17)" onmousedown="handlePan(-1,0)">
                  <use xlink:href="#rim" fill="#404040">
                        <set attributeName="fill" to="#808080" begin="arrowLeft.mouseover" end="arrowLeft.mouseout"/>
                  </use>
                  <path fill="none" stroke="white" stroke-width="1.5" d="M0,-3.0v7 M-2.5,-0.5L0,-3.0L2.5,-0.5"/>
                </g>
        </g>
        <svg viewBox="0 0 15 15" width="100%" height="30px" preserveAspectRatio="xMaxYMin meet">
         <g id="arrow_out" transform="scale(0.3 0.3)">
          <a xlink:href="classVoxel_1_1USBBulkStreamer_1_1USBBulkStreamerPrivate__coll__graph_org.svg" target="_base">
           <rect id="button" ry="5" rx="5" y="6" x="6" height="38" width="38"
                fill="#f2f5e9" fill-opacity="0.5" stroke="#606060" stroke-width="1.0"/>
           <path id="arrow"
             d="M 11.500037,31.436501 C 11.940474,20.09759 22.043105,11.32322 32.158766,21.979434 L 37.068811,17.246167 C 37.068811,17.246167 37.088388,32 37.088388,32 L 22.160133,31.978069 C 22.160133,31.978069 26.997745,27.140456 26.997745,27.140456 C 18.528582,18.264221 13.291696,25.230495 11.500037,31.436501 z"
             style="fill:#404040;"/>
          </a>
         </g>
        </svg>
</svg>
