<?xml version="1.0" encoding="UTF-8" standalone="no"?>
<!DOCTYPE svg PUBLIC "-//W3C//DTD SVG 1.1//EN"
 "http://www.w3.org/Graphics/SVG/1.1/DTD/svg11.dtd">
<!-- Generated by graphviz version 2.36.0 (20140111.2315)
 -->
<!-- Title: Voxel::ConfigurationFile::_serializeAllDataFiles Pages: 1 -->
<svg width="620pt" height="336pt"
 viewBox="0.00 0.00 620.00 336.24" xmlns="http://www.w3.org/2000/svg" xmlns:xlink="http://www.w3.org/1999/xlink">
<g id="graph0" class="graph" transform="scale(1 1) rotate(0) translate(4 332.239)">
<title>Voxel::ConfigurationFile::_serializeAllDataFiles</title>
<!-- Node1 -->
<g id="node1" class="node"><title>Node1</title>
<polygon fill="#bfbfbf" stroke="black" points="0.5,-137 0.5,-167 121.5,-167 121.5,-137 0.5,-137"/>
<text text-anchor="start" x="8.5" y="-155" font-family="Helvetica,sans-Serif" font-size="10.00">Voxel::ConfigurationFile</text>
<text text-anchor="middle" x="61" y="-144" font-family="Helvetica,sans-Serif" font-size="10.00">::_serializeAllDataFiles</text>
</g>
<!-- Node2 -->
<g id="node2" class="node"><title>Node2</title>
<g id="a_node2"><a xlink:href="classVoxel_1_1Data2DCodec.xhtml#a371575e583f23b65cc1a50e8ae78d6b8" target="_top" xlink:title="Voxel::Data2DCodec\l::compress">
<polygon fill="none" stroke="black" points="165,-186 165,-216 275,-216 275,-186 165,-186"/>
<text text-anchor="start" x="173" y="-204" font-family="Helvetica,sans-Serif" font-size="10.00">Voxel::Data2DCodec</text>
<text text-anchor="middle" x="220" y="-193" font-family="Helvetica,sans-Serif" font-size="10.00">::compress</text>
</a>
</g>
</g>
<!-- Node1&#45;&gt;Node2 -->
<g id="edge1" class="edge"><title>Node1&#45;&gt;Node2</title>
<path fill="none" stroke="midnightblue" d="M110.386,-167.101C126.429,-172.108 144.449,-177.732 161.131,-182.939"/>
<polygon fill="midnightblue" stroke="midnightblue" points="160.185,-186.31 170.774,-185.948 162.27,-179.628 160.185,-186.31"/>
</g>
<!-- Node3 -->
<g id="node3" class="node"><title>Node3</title>
<g id="a_node3"><a xlink:href="classVoxel_1_1SerializedObject.xhtml#a28bffcfa230e90768ea678269a782381" target="_top" xlink:title="Voxel::SerializedObject\l::resize">
<polygon fill="none" stroke="black" points="327.5,-254 327.5,-284 446.5,-284 446.5,-254 327.5,-254"/>
<text text-anchor="start" x="335.5" y="-272" font-family="Helvetica,sans-Serif" font-size="10.00">Voxel::SerializedObject</text>
<text text-anchor="middle" x="387" y="-261" font-family="Helvetica,sans-Serif" font-size="10.00">::resize</text>
</a>
</g>
</g>
<!-- Node1&#45;&gt;Node3 -->
<g id="edge8" class="edge"><title>Node1&#45;&gt;Node3</title>
<path fill="none" stroke="midnightblue" d="M77.1666,-167.16C94.9513,-184.012 126.078,-210.73 158,-225 208.574,-247.609 270.549,-258.623 317.113,-263.977"/>
<polygon fill="midnightblue" stroke="midnightblue" points="316.783,-267.461 327.103,-265.066 317.541,-260.503 316.783,-267.461"/>
</g>
<!-- Node4 -->
<g id="node4" class="node"><title>Node4</title>
<g id="a_node4"><a xlink:href="classVoxel_1_1SerializedObject.xhtml#a93bedaae4489eeac130ea6a98be2589c" target="_top" xlink:title="Voxel::SerializedObject::put">
<polygon fill="none" stroke="black" points="318,-79.5 318,-98.5 456,-98.5 456,-79.5 318,-79.5"/>
<text text-anchor="middle" x="387" y="-86.5" font-family="Helvetica,sans-Serif" font-size="10.00">Voxel::SerializedObject::put</text>
</a>
</g>
</g>
<!-- Node1&#45;&gt;Node4 -->
<g id="edge7" class="edge"><title>Node1&#45;&gt;Node4</title>
<path fill="none" stroke="midnightblue" d="M119.199,-136.948C131.93,-133.808 145.391,-130.651 158,-128 209.333,-117.209 267.64,-107.277 312.44,-100.136"/>
<polygon fill="midnightblue" stroke="midnightblue" points="313.035,-103.586 322.365,-98.5646 311.94,-96.6717 313.035,-103.586"/>
</g>
<!-- Node5 -->
<g id="node5" class="node"><title>Node5</title>
<g id="a_node5"><a xlink:href="classVoxel_1_1SerializedObject.xhtml#adf11acb91f4adf3fe582a778c12b6286" target="_top" xlink:title="Voxel::SerializedObject\l::size">
<polygon fill="none" stroke="black" points="492.5,-112 492.5,-142 611.5,-142 611.5,-112 492.5,-112"/>
<text text-anchor="start" x="500.5" y="-130" font-family="Helvetica,sans-Serif" font-size="10.00">Voxel::SerializedObject</text>
<text text-anchor="middle" x="552" y="-119" font-family="Helvetica,sans-Serif" font-size="10.00">::size</text>
</a>
</g>
</g>
<!-- Node1&#45;&gt;Node5 -->
<g id="edge10" class="edge"><title>Node1&#45;&gt;Node5</title>
<path fill="none" stroke="midnightblue" d="M71.7872,-167.236C87.2462,-190.008 119.544,-232.629 158,-255 273.41,-322.136 340.498,-359.978 456,-293 508.775,-262.396 534.73,-190.219 545.179,-151.904"/>
<polygon fill="midnightblue" stroke="midnightblue" points="548.61,-152.616 547.724,-142.058 541.833,-150.864 548.61,-152.616"/>
</g>
<!-- Node8 -->
<g id="node8" class="node"><title>Node8</title>
<g id="a_node8"><a xlink:href="classVoxel_1_1SerializableString.xhtml#a4c016611564d3ccd4a3f788472c1d750" target="_top" xlink:title="Voxel::SerializableString\l::serializedSize">
<polygon fill="none" stroke="black" points="158.5,-49 158.5,-79 281.5,-79 281.5,-49 158.5,-49"/>
<text text-anchor="start" x="166.5" y="-67" font-family="Helvetica,sans-Serif" font-size="10.00">Voxel::SerializableString</text>
<text text-anchor="middle" x="220" y="-56" font-family="Helvetica,sans-Serif" font-size="10.00">::serializedSize</text>
</a>
</g>
</g>
<!-- Node1&#45;&gt;Node8 -->
<g id="edge9" class="edge"><title>Node1&#45;&gt;Node8</title>
<path fill="none" stroke="midnightblue" d="M85.7309,-136.877C104.958,-124.816 132.884,-107.73 158,-94 164.407,-90.4973 171.281,-86.9353 178.021,-83.5472"/>
<polygon fill="midnightblue" stroke="midnightblue" points="179.67,-86.6362 187.073,-79.0568 176.56,-80.3654 179.67,-86.6362"/>
</g>
<!-- Node9 -->
<g id="node9" class="node"><title>Node9</title>
<g id="a_node9"><a xlink:href="structVoxel_1_1DataPacket.xhtml#a2e4fcc8c2b6fa1ec9bbe823a91d534c7" target="_top" xlink:title="Voxel::DataPacket::\lwrite">
<polygon fill="none" stroke="black" points="167.5,-137 167.5,-167 272.5,-167 272.5,-137 167.5,-137"/>
<text text-anchor="start" x="175.5" y="-155" font-family="Helvetica,sans-Serif" font-size="10.00">Voxel::DataPacket::</text>
<text text-anchor="middle" x="220" y="-144" font-family="Helvetica,sans-Serif" font-size="10.00">write</text>
</a>
</g>
</g>
<!-- Node1&#45;&gt;Node9 -->
<g id="edge11" class="edge"><title>Node1&#45;&gt;Node9</title>
<path fill="none" stroke="midnightblue" d="M121.803,-152C133.398,-152 145.571,-152 157.228,-152"/>
<polygon fill="midnightblue" stroke="midnightblue" points="157.311,-155.5 167.311,-152 157.311,-148.5 157.311,-155.5"/>
</g>
<!-- Node10 -->
<g id="node10" class="node"><title>Node10</title>
<g id="a_node10"><a xlink:href="classVoxel_1_1SerializableString.xhtml#aec2bd51be91672ec951f45a93a602af7" target="_top" xlink:title="Voxel::SerializableString\l::write">
<polygon fill="none" stroke="black" points="158.5,-0 158.5,-30 281.5,-30 281.5,-0 158.5,-0"/>
<text text-anchor="start" x="166.5" y="-18" font-family="Helvetica,sans-Serif" font-size="10.00">Voxel::SerializableString</text>
<text text-anchor="middle" x="220" y="-7" font-family="Helvetica,sans-Serif" font-size="10.00">::write</text>
</a>
</g>
</g>
<!-- Node1&#45;&gt;Node10 -->
<g id="edge15" class="edge"><title>Node1&#45;&gt;Node10</title>
<path fill="none" stroke="midnightblue" d="M71.3664,-136.75C86.733,-112.872 119.47,-66.5478 158,-39 160.066,-37.5232 162.235,-36.1214 164.473,-34.7929"/>
<polygon fill="midnightblue" stroke="midnightblue" points="166.214,-37.831 173.381,-30.028 162.913,-31.6585 166.214,-37.831"/>
</g>
<!-- Node2&#45;&gt;Node3 -->
<g id="edge2" class="edge"><title>Node2&#45;&gt;Node3</title>
<path fill="none" stroke="midnightblue" d="M253.55,-216.063C272.274,-224.567 296.316,-235.219 318,-244 323.173,-246.095 328.596,-248.215 334.027,-250.288"/>
<polygon fill="midnightblue" stroke="midnightblue" points="333.167,-253.704 343.759,-253.954 335.634,-247.154 333.167,-253.704"/>
</g>
<!-- Node2&#45;&gt;Node4 -->
<g id="edge3" class="edge"><title>Node2&#45;&gt;Node4</title>
<path fill="none" stroke="midnightblue" d="M262.854,-185.859C269.429,-182.913 276.022,-179.606 282,-176 286.632,-173.206 338.251,-129.553 366.978,-105.17"/>
<polygon fill="midnightblue" stroke="midnightblue" points="369.393,-107.711 374.749,-98.5702 364.861,-102.376 369.393,-107.711"/>
</g>
<!-- Node6 -->
<g id="node6" class="node"><title>Node6</title>
<g id="a_node6"><a xlink:href="classVoxel_1_1SerializedObject.xhtml#a602414fea53034e304c0e6fcae5bb71b" target="_top" xlink:title="Voxel::SerializedObject\l::currentPutOffset">
<polygon fill="none" stroke="black" points="327.5,-156 327.5,-186 446.5,-186 446.5,-156 327.5,-156"/>
<text text-anchor="start" x="335.5" y="-174" font-family="Helvetica,sans-Serif" font-size="10.00">Voxel::SerializedObject</text>
<text text-anchor="middle" x="387" y="-163" font-family="Helvetica,sans-Serif" font-size="10.00">::currentPutOffset</text>
</a>
</g>
</g>
<!-- Node2&#45;&gt;Node6 -->
<g id="edge5" class="edge"><title>Node2&#45;&gt;Node6</title>
<path fill="none" stroke="midnightblue" d="M275.027,-191.177C288.489,-188.729 303.104,-186.072 317.173,-183.514"/>
<polygon fill="midnightblue" stroke="midnightblue" points="318.085,-186.906 327.297,-181.673 316.832,-180.019 318.085,-186.906"/>
</g>
<!-- Node7 -->
<g id="node7" class="node"><title>Node7</title>
<g id="a_node7"><a xlink:href="classVoxel_1_1SerializedObject.xhtml#aac0058e6b0ea0cb6ac86f4e986f6de25" target="_top" xlink:title="Voxel::SerializedObject\l::getBytes">
<polygon fill="none" stroke="black" points="327.5,-205 327.5,-235 446.5,-235 446.5,-205 327.5,-205"/>
<text text-anchor="start" x="335.5" y="-223" font-family="Helvetica,sans-Serif" font-size="10.00">Voxel::SerializedObject</text>
<text text-anchor="middle" x="387" y="-212" font-family="Helvetica,sans-Serif" font-size="10.00">::getBytes</text>
</a>
</g>
</g>
<!-- Node2&#45;&gt;Node7 -->
<g id="edge6" class="edge"><title>Node2&#45;&gt;Node7</title>
<path fill="none" stroke="midnightblue" d="M275.027,-207.221C288.489,-208.771 303.104,-210.454 317.173,-212.075"/>
<polygon fill="midnightblue" stroke="midnightblue" points="316.962,-215.573 327.297,-213.24 317.763,-208.619 316.962,-215.573"/>
</g>
<!-- Node4&#45;&gt;Node5 -->
<g id="edge4" class="edge"><title>Node4&#45;&gt;Node5</title>
<path fill="none" stroke="midnightblue" d="M429.132,-98.589C445.286,-102.355 464.27,-106.781 482.383,-111.003"/>
<polygon fill="midnightblue" stroke="midnightblue" points="481.8,-114.461 492.333,-113.323 483.389,-107.644 481.8,-114.461"/>
</g>
<!-- Node9&#45;&gt;Node4 -->
<g id="edge14" class="edge"><title>Node9&#45;&gt;Node4</title>
<path fill="none" stroke="midnightblue" d="M257.244,-136.998C275.411,-129.588 297.792,-120.625 318,-113 327.839,-109.288 338.543,-105.428 348.484,-101.916"/>
<polygon fill="midnightblue" stroke="midnightblue" points="349.833,-105.152 358.111,-98.5399 347.516,-98.5469 349.833,-105.152"/>
</g>
<!-- Node9&#45;&gt;Node5 -->
<g id="edge12" class="edge"><title>Node9&#45;&gt;Node5</title>
<path fill="none" stroke="midnightblue" d="M272.562,-148.094C328.971,-143.82 419.662,-136.95 482.129,-132.218"/>
<polygon fill="midnightblue" stroke="midnightblue" points="482.581,-135.693 492.288,-131.448 482.052,-128.713 482.581,-135.693"/>
</g>
<!-- Node9&#45;&gt;Node6 -->
<g id="edge13" class="edge"><title>Node9&#45;&gt;Node6</title>
<path fill="none" stroke="midnightblue" d="M272.754,-157.96C286.807,-159.578 302.248,-161.356 317.086,-163.064"/>
<polygon fill="midnightblue" stroke="midnightblue" points="316.903,-166.566 327.238,-164.233 317.704,-159.612 316.903,-166.566"/>
</g>
</g>
</svg>
