<?xml version="1.0" encoding="UTF-8" standalone="no"?>
<!DOCTYPE svg PUBLIC "-//W3C//DTD SVG 1.1//EN"
 "http://www.w3.org/Graphics/SVG/1.1/DTD/svg11.dtd">
<!-- Generated by graphviz version 2.36.0 (20140111.2315)
 -->
<!-- Title: Voxel::MedianFilter Pages: 1 -->
<svg width="697pt" height="356pt"
 viewBox="0.00 0.00 697.00 356.00" xmlns="http://www.w3.org/2000/svg" xmlns:xlink="http://www.w3.org/1999/xlink">
<g id="graph0" class="graph" transform="scale(1 1) rotate(0) translate(4 352)">
<title>Voxel::MedianFilter</title>
<!-- Node1 -->
<g id="node1" class="node"><title>Node1</title>
<polygon fill="#bfbfbf" stroke="black" points="404.5,-0.5 404.5,-19.5 505.5,-19.5 505.5,-0.5 404.5,-0.5"/>
<text text-anchor="middle" x="455" y="-7.5" font-family="Helvetica,sans-Serif" font-size="10.00">Voxel::MedianFilter</text>
</g>
<!-- Node2 -->
<g id="node2" class="node"><title>Node2</title>
<g id="a_node2"><a xlink:href="classVoxel_1_1Filter.xhtml" target="_top" xlink:title="Voxel::Filter">
<polygon fill="none" stroke="black" points="173.5,-90.5 173.5,-109.5 242.5,-109.5 242.5,-90.5 173.5,-90.5"/>
<text text-anchor="middle" x="208" y="-97.5" font-family="Helvetica,sans-Serif" font-size="10.00">Voxel::Filter</text>
</a>
</g>
</g>
<!-- Node2&#45;&gt;Node1 -->
<g id="edge1" class="edge"><title>Node2&#45;&gt;Node1</title>
<path fill="none" stroke="midnightblue" d="M241.652,-87.0106C292.317,-68.9599 386.951,-35.2442 431.133,-19.5034"/>
<polygon fill="midnightblue" stroke="midnightblue" points="240.378,-83.7488 232.133,-90.402 242.728,-90.3428 240.378,-83.7488"/>
</g>
<!-- Node3 -->
<g id="node3" class="node"><title>Node3</title>
<polygon fill="none" stroke="#bfbfbf" points="0,-196.5 0,-215.5 44,-215.5 44,-196.5 0,-196.5"/>
<text text-anchor="middle" x="22" y="-203.5" font-family="Helvetica,sans-Serif" font-size="10.00">mutex</text>
</g>
<!-- Node3&#45;&gt;Node2 -->
<g id="edge2" class="edge"><title>Node3&#45;&gt;Node2</title>
<path fill="none" stroke="#9a32cd" stroke-dasharray="5,2" d="M21.7335,-186.062C22.5746,-168.387 26.7867,-142.608 43,-128 61.7073,-111.145 130.846,-104.734 173.465,-102.353"/>
<polygon fill="#9a32cd" stroke="#9a32cd" points="18.2302,-186.255 21.5754,-196.308 25.2294,-186.363 18.2302,-186.255"/>
<text text-anchor="middle" x="76.5" y="-147.5" font-family="Helvetica,sans-Serif" font-size="10.00"> _accessMutex</text>
</g>
<!-- Node4 -->
<g id="node4" class="node"><title>Node4</title>
<polygon fill="none" stroke="#bfbfbf" points="79.5,-196.5 79.5,-215.5 120.5,-215.5 120.5,-196.5 79.5,-196.5"/>
<text text-anchor="middle" x="100" y="-203.5" font-family="Helvetica,sans-Serif" font-size="10.00">string</text>
</g>
<!-- Node4&#45;&gt;Node2 -->
<g id="edge3" class="edge"><title>Node4&#45;&gt;Node2</title>
<path fill="none" stroke="#9a32cd" stroke-dasharray="5,2" d="M106.116,-186.917C112.762,-169.705 124.915,-144.107 143,-128 152.308,-119.711 164.517,-113.74 175.839,-109.557"/>
<polygon fill="#9a32cd" stroke="#9a32cd" points="102.799,-185.796 102.685,-196.39 109.381,-188.18 102.799,-185.796"/>
<text text-anchor="middle" x="173.5" y="-164" font-family="Helvetica,sans-Serif" font-size="10.00"> _nameScope</text>
<text text-anchor="middle" x="173.5" y="-153" font-family="Helvetica,sans-Serif" font-size="10.00">_id</text>
<text text-anchor="middle" x="173.5" y="-142" font-family="Helvetica,sans-Serif" font-size="10.00">_description</text>
<text text-anchor="middle" x="173.5" y="-131" font-family="Helvetica,sans-Serif" font-size="10.00">_name</text>
</g>
<!-- Node5 -->
<g id="node5" class="node"><title>Node5</title>
<g id="a_node5"><a xlink:href="classVoxel_1_1Ptr.xhtml" target="_top" xlink:title="Voxel::Ptr\&lt; DepthCamera \&gt;">
<polygon fill="none" stroke="black" points="138.5,-196.5 138.5,-215.5 277.5,-215.5 277.5,-196.5 138.5,-196.5"/>
<text text-anchor="middle" x="208" y="-203.5" font-family="Helvetica,sans-Serif" font-size="10.00">Voxel::Ptr&lt; DepthCamera &gt;</text>
</a>
</g>
</g>
<!-- Node5&#45;&gt;Node2 -->
<g id="edge4" class="edge"><title>Node5&#45;&gt;Node2</title>
<path fill="none" stroke="#9a32cd" stroke-dasharray="5,2" d="M208,-186.434C208,-163.774 208,-126.408 208,-109.628"/>
<polygon fill="#9a32cd" stroke="#9a32cd" points="204.5,-186.489 208,-196.489 211.5,-186.489 204.5,-186.489"/>
<text text-anchor="middle" x="241.5" y="-147.5" font-family="Helvetica,sans-Serif" font-size="10.00"> _depthCamera</text>
</g>
<!-- Node6 -->
<g id="node6" class="node"><title>Node6</title>
<polygon fill="none" stroke="#bfbfbf" points="111.5,-270.5 111.5,-289.5 272.5,-289.5 272.5,-270.5 111.5,-270.5"/>
<text text-anchor="middle" x="192" y="-277.5" font-family="Helvetica,sans-Serif" font-size="10.00">std::shared_ptr&lt; DepthCamera &gt;</text>
</g>
<!-- Node6&#45;&gt;Node5 -->
<g id="edge5" class="edge"><title>Node6&#45;&gt;Node5</title>
<path fill="none" stroke="midnightblue" d="M196.092,-260.584C199.312,-246.094 203.652,-226.568 206.104,-215.531"/>
<polygon fill="midnightblue" stroke="midnightblue" points="192.651,-259.937 193.898,-270.458 199.484,-261.455 192.651,-259.937"/>
</g>
<!-- Node7 -->
<g id="node7" class="node"><title>Node7</title>
<g id="a_node7"><a xlink:href="classVoxel_1_1Ptr.xhtml" target="_top" xlink:title="Voxel::Ptr\&lt; T \&gt;">
<polygon fill="none" stroke="black" points="291,-270.5 291,-289.5 375,-289.5 375,-270.5 291,-270.5"/>
<text text-anchor="middle" x="333" y="-277.5" font-family="Helvetica,sans-Serif" font-size="10.00">Voxel::Ptr&lt; T &gt;</text>
</a>
</g>
</g>
<!-- Node7&#45;&gt;Node5 -->
<g id="edge6" class="edge"><title>Node7&#45;&gt;Node5</title>
<path fill="none" stroke="orange" stroke-dasharray="5,2" d="M309.504,-265.466C284.053,-250.806 244.226,-227.866 222.811,-215.531"/>
<polygon fill="orange" stroke="orange" points="307.758,-268.5 318.17,-270.458 311.252,-262.434 307.758,-268.5"/>
<text text-anchor="middle" x="327" y="-243.5" font-family="Helvetica,sans-Serif" font-size="10.00"> &lt; DepthCamera &gt;</text>
</g>
<!-- Node8 -->
<g id="node8" class="node"><title>Node8</title>
<polygon fill="none" stroke="#bfbfbf" points="280,-328.5 280,-347.5 386,-347.5 386,-328.5 280,-328.5"/>
<text text-anchor="middle" x="333" y="-335.5" font-family="Helvetica,sans-Serif" font-size="10.00">std::shared_ptr&lt; T &gt;</text>
</g>
<!-- Node8&#45;&gt;Node7 -->
<g id="edge7" class="edge"><title>Node8&#45;&gt;Node7</title>
<path fill="none" stroke="midnightblue" d="M333,-317.953C333,-308.287 333,-297.031 333,-289.505"/>
<polygon fill="midnightblue" stroke="midnightblue" points="329.5,-318.25 333,-328.25 336.5,-318.25 329.5,-318.25"/>
</g>
<!-- Node9 -->
<g id="node9" class="node"><title>Node9</title>
<polygon fill="none" stroke="#bfbfbf" points="295.5,-191 295.5,-221 396.5,-221 396.5,-191 295.5,-191"/>
<text text-anchor="start" x="303.5" y="-209" font-family="Helvetica,sans-Serif" font-size="10.00">Map&lt; String, Voxel</text>
<text text-anchor="middle" x="346" y="-198" font-family="Helvetica,sans-Serif" font-size="10.00">::Ptr &gt;</text>
</g>
<!-- Node9&#45;&gt;Node2 -->
<g id="edge8" class="edge"><title>Node9&#45;&gt;Node2</title>
<path fill="none" stroke="#9a32cd" stroke-dasharray="5,2" d="M331.177,-182.632C318.929,-165.644 300.164,-142.762 279,-128 267.427,-119.927 253.124,-113.886 240.396,-109.588"/>
<polygon fill="#9a32cd" stroke="#9a32cd" points="328.364,-184.718 336.966,-190.904 334.1,-180.704 328.364,-184.718"/>
<text text-anchor="middle" x="351" y="-147.5" font-family="Helvetica,sans-Serif" font-size="10.00"> _parameters</text>
</g>
<!-- Node10 -->
<g id="node10" class="node"><title>Node10</title>
<g id="a_node10"><a xlink:href="classVoxel_1_1FrameSize.xhtml" target="_top" xlink:title="Voxel::FrameSize">
<polygon fill="none" stroke="black" points="326.5,-90.5 326.5,-109.5 421.5,-109.5 421.5,-90.5 326.5,-90.5"/>
<text text-anchor="middle" x="374" y="-97.5" font-family="Helvetica,sans-Serif" font-size="10.00">Voxel::FrameSize</text>
</a>
</g>
</g>
<!-- Node10&#45;&gt;Node1 -->
<g id="edge9" class="edge"><title>Node10&#45;&gt;Node1</title>
<path fill="none" stroke="#9a32cd" stroke-dasharray="5,2" d="M386.981,-82.2047C396.944,-69.6356 411.276,-52.2335 425,-38 431.225,-31.5433 438.725,-24.7933 444.669,-19.6575"/>
<polygon fill="#9a32cd" stroke="#9a32cd" points="383.981,-80.358 380.569,-90.3884 389.491,-84.6752 383.981,-80.358"/>
<text text-anchor="middle" x="438.5" y="-52.5" font-family="Helvetica,sans-Serif" font-size="10.00"> _size</text>
</g>
<!-- Node11 -->
<g id="node11" class="node"><title>Node11</title>
<polygon fill="none" stroke="#bfbfbf" points="414.5,-196.5 414.5,-215.5 465.5,-215.5 465.5,-196.5 414.5,-196.5"/>
<text text-anchor="middle" x="440" y="-203.5" font-family="Helvetica,sans-Serif" font-size="10.00">uint32_t</text>
</g>
<!-- Node11&#45;&gt;Node10 -->
<g id="edge10" class="edge"><title>Node11&#45;&gt;Node10</title>
<path fill="none" stroke="#9a32cd" stroke-dasharray="5,2" d="M435.086,-186.139C430.142,-169.649 421.325,-145.647 408,-128 402.549,-120.782 394.738,-114.398 387.977,-109.652"/>
<polygon fill="#9a32cd" stroke="#9a32cd" points="431.831,-187.499 437.897,-196.185 438.572,-185.612 431.831,-187.499"/>
<text text-anchor="middle" x="444.5" y="-153" font-family="Helvetica,sans-Serif" font-size="10.00"> width</text>
<text text-anchor="middle" x="444.5" y="-142" font-family="Helvetica,sans-Serif" font-size="10.00">height</text>
</g>
<!-- Node12 -->
<g id="node12" class="node"><title>Node12</title>
<g id="a_node12"><a xlink:href="classfloat.xhtml" target="_top" xlink:title="float">
<polygon fill="none" stroke="black" points="439.5,-90.5 439.5,-109.5 474.5,-109.5 474.5,-90.5 439.5,-90.5"/>
<text text-anchor="middle" x="457" y="-97.5" font-family="Helvetica,sans-Serif" font-size="10.00">float</text>
</a>
</g>
</g>
<!-- Node12&#45;&gt;Node1 -->
<g id="edge11" class="edge"><title>Node12&#45;&gt;Node1</title>
<path fill="none" stroke="#9a32cd" stroke-dasharray="5,2" d="M456.26,-80.3741C456.163,-77.5681 456.072,-74.7079 456,-72 455.502,-53.3653 455.216,-31.5213 455.086,-19.6886"/>
<polygon fill="#9a32cd" stroke="#9a32cd" points="452.767,-80.6276 456.64,-90.4892 459.762,-80.3648 452.767,-80.6276"/>
<text text-anchor="middle" x="490" y="-63.5" font-family="Helvetica,sans-Serif" font-size="10.00"> _stability</text>
<text text-anchor="middle" x="490" y="-52.5" font-family="Helvetica,sans-Serif" font-size="10.00">_deadbandStep</text>
<text text-anchor="middle" x="490" y="-41.5" font-family="Helvetica,sans-Serif" font-size="10.00">_deadband</text>
</g>
<!-- Node13 -->
<g id="node13" class="node"><title>Node13</title>
<polygon fill="none" stroke="#bfbfbf" points="493.5,-90.5 493.5,-109.5 598.5,-109.5 598.5,-90.5 493.5,-90.5"/>
<text text-anchor="middle" x="546" y="-97.5" font-family="Helvetica,sans-Serif" font-size="10.00">Vector&lt; ByteType &gt;</text>
</g>
<!-- Node13&#45;&gt;Node1 -->
<g id="edge12" class="edge"><title>Node13&#45;&gt;Node1</title>
<path fill="none" stroke="#9a32cd" stroke-dasharray="5,2" d="M543.442,-80.3513C540.715,-67.0166 535.166,-49.4699 524,-38 515.745,-29.5201 504.512,-23.6481 493.507,-19.6047"/>
<polygon fill="#9a32cd" stroke="#9a32cd" points="540.012,-81.0595 545.131,-90.336 546.914,-79.8924 540.012,-81.0595"/>
<text text-anchor="middle" x="561.5" y="-58" font-family="Helvetica,sans-Serif" font-size="10.00"> _current</text>
<text text-anchor="middle" x="561.5" y="-47" font-family="Helvetica,sans-Serif" font-size="10.00">_hist</text>
</g>
<!-- Node14 -->
<g id="node14" class="node"><title>Node14</title>
<polygon fill="none" stroke="#bfbfbf" points="617,-90.5 617,-109.5 649,-109.5 649,-90.5 617,-90.5"/>
<text text-anchor="middle" x="633" y="-97.5" font-family="Helvetica,sans-Serif" font-size="10.00">uint</text>
</g>
<!-- Node14&#45;&gt;Node1 -->
<g id="edge13" class="edge"><title>Node14&#45;&gt;Node1</title>
<path fill="none" stroke="#9a32cd" stroke-dasharray="5,2" d="M623.643,-81.2143C615.361,-67.2632 601.964,-48.5045 585,-38 561.287,-23.3158 530.947,-16.4809 505.543,-13.3557"/>
<polygon fill="#9a32cd" stroke="#9a32cd" points="620.81,-83.3188 628.748,-90.3364 626.919,-79.9006 620.81,-83.3188"/>
<text text-anchor="middle" x="653" y="-52.5" font-family="Helvetica,sans-Serif" font-size="10.00"> _halfKernelSize</text>
</g>
</g>
</svg>
