<?xml version="1.0" encoding="UTF-8" standalone="no"?>
<!DOCTYPE svg PUBLIC "-//W3C//DTD SVG 1.1//EN"
 "http://www.w3.org/Graphics/SVG/1.1/DTD/svg11.dtd">
<!-- Generated by graphviz version 2.36.0 (20140111.2315)
 -->
<!-- Title: TinyXML2::XMLAttribute::ParseDeep Pages: 1 -->
<svg width="570pt" height="183pt"
 viewBox="0.00 0.00 570.00 183.00" xmlns="http://www.w3.org/2000/svg" xmlns:xlink="http://www.w3.org/1999/xlink">
<g id="graph0" class="graph" transform="scale(1 1) rotate(0) translate(4 179)">
<title>TinyXML2::XMLAttribute::ParseDeep</title>
<!-- Node1 -->
<g id="node1" class="node"><title>Node1</title>
<polygon fill="#bfbfbf" stroke="black" points="0,-49 0,-79 124,-79 124,-49 0,-49"/>
<text text-anchor="start" x="8" y="-67" font-family="Helvetica,sans-Serif" font-size="10.00">TinyXML2::XMLAttribute</text>
<text text-anchor="middle" x="62" y="-56" font-family="Helvetica,sans-Serif" font-size="10.00">::ParseDeep</text>
</g>
<!-- Node2 -->
<g id="node2" class="node"><title>Node2</title>
<g id="a_node2"><a xlink:href="classTinyXML2_1_1StrPair.xhtml#a323f7549e32dd8102eafc04a748041fc" target="_top" xlink:title="TinyXML2::StrPair::\lParseName">
<polygon fill="none" stroke="black" points="162.5,-98 162.5,-128 265.5,-128 265.5,-98 162.5,-98"/>
<text text-anchor="start" x="170.5" y="-116" font-family="Helvetica,sans-Serif" font-size="10.00">TinyXML2::StrPair::</text>
<text text-anchor="middle" x="214" y="-105" font-family="Helvetica,sans-Serif" font-size="10.00">ParseName</text>
</a>
</g>
</g>
<!-- Node1&#45;&gt;Node2 -->
<g id="edge1" class="edge"><title>Node1&#45;&gt;Node2</title>
<path fill="none" stroke="midnightblue" d="M109.229,-79.1014C124.413,-84.0615 141.451,-89.6274 157.264,-94.7929"/>
<polygon fill="midnightblue" stroke="midnightblue" points="156.331,-98.1702 166.924,-97.9484 158.505,-91.5162 156.331,-98.1702"/>
</g>
<!-- Node7 -->
<g id="node7" class="node"><title>Node7</title>
<g id="a_node7"><a xlink:href="classTinyXML2_1_1StrPair.xhtml#a758cab9c11619f17dbf4758d62bd2310" target="_top" xlink:title="TinyXML2::StrPair::\lParseText">
<polygon fill="none" stroke="black" points="162.5,-49 162.5,-79 265.5,-79 265.5,-49 162.5,-49"/>
<text text-anchor="start" x="170.5" y="-67" font-family="Helvetica,sans-Serif" font-size="10.00">TinyXML2::StrPair::</text>
<text text-anchor="middle" x="214" y="-56" font-family="Helvetica,sans-Serif" font-size="10.00">ParseText</text>
</a>
</g>
</g>
<!-- Node1&#45;&gt;Node7 -->
<g id="edge6" class="edge"><title>Node1&#45;&gt;Node7</title>
<path fill="none" stroke="midnightblue" d="M124.011,-64C133.204,-64 142.688,-64 151.884,-64"/>
<polygon fill="midnightblue" stroke="midnightblue" points="152.112,-67.5001 162.112,-64 152.112,-60.5001 152.112,-67.5001"/>
</g>
<!-- Node8 -->
<g id="node8" class="node"><title>Node8</title>
<g id="a_node8"><a xlink:href="classTinyXML2_1_1XMLUtil.xhtml#a151c32ae2f90003379a2fc78a80da4f1" target="_top" xlink:title="TinyXML2::XMLUtil::\lSkipWhiteSpace">
<polygon fill="none" stroke="black" points="160,-0 160,-30 268,-30 268,-0 160,-0"/>
<text text-anchor="start" x="168" y="-18" font-family="Helvetica,sans-Serif" font-size="10.00">TinyXML2::XMLUtil::</text>
<text text-anchor="middle" x="214" y="-7" font-family="Helvetica,sans-Serif" font-size="10.00">SkipWhiteSpace</text>
</a>
</g>
</g>
<!-- Node1&#45;&gt;Node8 -->
<g id="edge8" class="edge"><title>Node1&#45;&gt;Node8</title>
<path fill="none" stroke="midnightblue" d="M109.229,-48.8986C124.413,-43.9385 141.451,-38.3726 157.264,-33.2071"/>
<polygon fill="midnightblue" stroke="midnightblue" points="158.505,-36.4838 166.924,-30.0516 156.331,-29.8298 158.505,-36.4838"/>
</g>
<!-- Node3 -->
<g id="node3" class="node"><title>Node3</title>
<g id="a_node3"><a xlink:href="classTinyXML2_1_1XMLUtil.xhtml#aba48680e0f80b37e9d9bab73ffedc548" target="_top" xlink:title="TinyXML2::XMLUtil::\lIsNameChar">
<polygon fill="none" stroke="black" points="309,-145 309,-175 417,-175 417,-145 309,-145"/>
<text text-anchor="start" x="317" y="-163" font-family="Helvetica,sans-Serif" font-size="10.00">TinyXML2::XMLUtil::</text>
<text text-anchor="middle" x="363" y="-152" font-family="Helvetica,sans-Serif" font-size="10.00">IsNameChar</text>
</a>
</g>
</g>
<!-- Node2&#45;&gt;Node3 -->
<g id="edge2" class="edge"><title>Node2&#45;&gt;Node3</title>
<path fill="none" stroke="midnightblue" d="M261.916,-128C275.706,-132.41 290.94,-137.28 305.274,-141.863"/>
<polygon fill="midnightblue" stroke="midnightblue" points="304.435,-145.269 315.026,-144.981 306.567,-138.602 304.435,-145.269"/>
</g>
<!-- Node4 -->
<g id="node4" class="node"><title>Node4</title>
<g id="a_node4"><a xlink:href="classTinyXML2_1_1XMLUtil.xhtml#adc18aa919e561a1b17677bbc6ff30702" target="_top" xlink:title="TinyXML2::XMLUtil::\lIsNameStartChar">
<polygon fill="none" stroke="black" points="309,-96 309,-126 417,-126 417,-96 309,-96"/>
<text text-anchor="start" x="317" y="-114" font-family="Helvetica,sans-Serif" font-size="10.00">TinyXML2::XMLUtil::</text>
<text text-anchor="middle" x="363" y="-103" font-family="Helvetica,sans-Serif" font-size="10.00">IsNameStartChar</text>
</a>
</g>
</g>
<!-- Node2&#45;&gt;Node4 -->
<g id="edge3" class="edge"><title>Node2&#45;&gt;Node4</title>
<path fill="none" stroke="midnightblue" d="M265.589,-112.312C276.271,-112.166 287.671,-112.011 298.754,-111.86"/>
<polygon fill="midnightblue" stroke="midnightblue" points="298.861,-115.359 308.813,-111.724 298.766,-108.36 298.861,-115.359"/>
</g>
<!-- Node5 -->
<g id="node5" class="node"><title>Node5</title>
<g id="a_node5"><a xlink:href="classTinyXML2_1_1StrPair.xhtml#acb766a3f2144ff1e37aaf3a130db993e" target="_top" xlink:title="TinyXML2::StrPair::Set">
<polygon fill="none" stroke="black" points="304,-56.5 304,-75.5 422,-75.5 422,-56.5 304,-56.5"/>
<text text-anchor="middle" x="363" y="-63.5" font-family="Helvetica,sans-Serif" font-size="10.00">TinyXML2::StrPair::Set</text>
</a>
</g>
</g>
<!-- Node2&#45;&gt;Node5 -->
<g id="edge4" class="edge"><title>Node2&#45;&gt;Node5</title>
<path fill="none" stroke="midnightblue" d="M261.916,-97.9997C281.431,-91.7601 303.836,-84.5965 322.494,-78.6313"/>
<polygon fill="midnightblue" stroke="midnightblue" points="323.692,-81.9227 332.151,-75.5434 321.56,-75.2552 323.692,-81.9227"/>
</g>
<!-- Node6 -->
<g id="node6" class="node"><title>Node6</title>
<g id="a_node6"><a xlink:href="classTinyXML2_1_1StrPair.xhtml#afbc7a4f921afeff8ef2aca24765ed24f" target="_top" xlink:title="TinyXML2::StrPair::\lReset">
<polygon fill="none" stroke="black" points="458.5,-51 458.5,-81 561.5,-81 561.5,-51 458.5,-51"/>
<text text-anchor="start" x="466.5" y="-69" font-family="Helvetica,sans-Serif" font-size="10.00">TinyXML2::StrPair::</text>
<text text-anchor="middle" x="510" y="-58" font-family="Helvetica,sans-Serif" font-size="10.00">Reset</text>
</a>
</g>
</g>
<!-- Node5&#45;&gt;Node6 -->
<g id="edge5" class="edge"><title>Node5&#45;&gt;Node6</title>
<path fill="none" stroke="midnightblue" d="M422.142,-66C430.749,-66 439.638,-66 448.297,-66"/>
<polygon fill="midnightblue" stroke="midnightblue" points="448.324,-69.5001 458.324,-66 448.324,-62.5001 448.324,-69.5001"/>
</g>
<!-- Node7&#45;&gt;Node5 -->
<g id="edge7" class="edge"><title>Node7&#45;&gt;Node5</title>
<path fill="none" stroke="midnightblue" d="M265.589,-64.6883C274.677,-64.8119 284.283,-64.9426 293.772,-65.0717"/>
<polygon fill="midnightblue" stroke="midnightblue" points="293.946,-68.5743 303.992,-65.2108 294.041,-61.575 293.946,-68.5743"/>
</g>
</g>
</svg>
