<?xml version="1.0" encoding="UTF-8" standalone="no"?>
<!DOCTYPE svg PUBLIC "-//W3C//DTD SVG 1.1//EN"
 "http://www.w3.org/Graphics/SVG/1.1/DTD/svg11.dtd">
<!-- Generated by graphviz version 2.36.0 (20140111.2315)
 -->
<!-- Title: Voxel::MainConfigurationFile::_getNewCameraProfileID Pages: 1 -->
<svg width="514pt" height="87pt"
 viewBox="0.00 0.00 514.00 87.00" xmlns="http://www.w3.org/2000/svg" xmlns:xlink="http://www.w3.org/1999/xlink">
<g id="graph0" class="graph" transform="scale(1 1) rotate(0) translate(4 83)">
<title>Voxel::MainConfigurationFile::_getNewCameraProfileID</title>
<!-- Node1 -->
<g id="node1" class="node"><title>Node1</title>
<polygon fill="#bfbfbf" stroke="black" points="0,-24 0,-54 150,-54 150,-24 0,-24"/>
<text text-anchor="start" x="8" y="-42" font-family="Helvetica,sans-Serif" font-size="10.00">Voxel::MainConfiguration</text>
<text text-anchor="middle" x="75" y="-31" font-family="Helvetica,sans-Serif" font-size="10.00">File::_getNewCameraProfileID</text>
</g>
<!-- Node2 -->
<g id="node2" class="node"><title>Node2</title>
<g id="a_node2"><a xlink:href="classVoxel_1_1MainConfigurationFile.xhtml#a0c502b35bba7ac18c4018d6ad24ca86b" target="_top" xlink:title="Voxel::MainConfiguration\lFile::addCameraProfile">
<polygon fill="none" stroke="black" points="211,-49 211,-79 337,-79 337,-49 211,-49"/>
<text text-anchor="start" x="219" y="-67" font-family="Helvetica,sans-Serif" font-size="10.00">Voxel::MainConfiguration</text>
<text text-anchor="middle" x="274" y="-56" font-family="Helvetica,sans-Serif" font-size="10.00">File::addCameraProfile</text>
</a>
</g>
</g>
<!-- Node1&#45;&gt;Node2 -->
<g id="edge1" class="edge"><title>Node1&#45;&gt;Node2</title>
<path fill="none" stroke="midnightblue" d="M160.119,-49.675C177.114,-51.8317 194.692,-54.0624 210.771,-56.1029"/>
<polygon fill="midnightblue" stroke="midnightblue" points="160.558,-46.2027 150.197,-48.4158 159.676,-53.147 160.558,-46.2027"/>
</g>
<!-- Node4 -->
<g id="node4" class="node"><title>Node4</title>
<g id="a_node4"><a xlink:href="classVoxel_1_1MainConfigurationFile.xhtml#ae8ce6b155ffff0c4f33e1d7acfc01290" target="_top" xlink:title="Voxel::MainConfiguration\lFile::saveCameraProfileToHardware">
<polygon fill="none" stroke="black" points="186.5,-0 186.5,-30 361.5,-30 361.5,-0 186.5,-0"/>
<text text-anchor="start" x="194.5" y="-18" font-family="Helvetica,sans-Serif" font-size="10.00">Voxel::MainConfiguration</text>
<text text-anchor="middle" x="274" y="-7" font-family="Helvetica,sans-Serif" font-size="10.00">File::saveCameraProfileToHardware</text>
</a>
</g>
</g>
<!-- Node1&#45;&gt;Node4 -->
<g id="edge3" class="edge"><title>Node1&#45;&gt;Node4</title>
<path fill="none" stroke="midnightblue" d="M160.237,-28.7377C168.861,-27.6869 177.635,-26.618 186.286,-25.5641"/>
<polygon fill="midnightblue" stroke="midnightblue" points="159.7,-25.2771 150.197,-29.9608 160.546,-32.2257 159.7,-25.2771"/>
</g>
<!-- Node3 -->
<g id="node3" class="node"><title>Node3</title>
<g id="a_node3"><a xlink:href="classVoxel_1_1DepthCamera.xhtml#afd88098930492a61560db37abdfacac1" target="_top" xlink:title="Voxel::DepthCamera\l::addCameraProfile">
<polygon fill="none" stroke="black" points="398,-49 398,-79 506,-79 506,-49 398,-49"/>
<text text-anchor="start" x="406" y="-67" font-family="Helvetica,sans-Serif" font-size="10.00">Voxel::DepthCamera</text>
<text text-anchor="middle" x="452" y="-56" font-family="Helvetica,sans-Serif" font-size="10.00">::addCameraProfile</text>
</a>
</g>
</g>
<!-- Node2&#45;&gt;Node3 -->
<g id="edge2" class="edge"><title>Node2&#45;&gt;Node3</title>
<path fill="none" stroke="midnightblue" d="M347.457,-64C364.371,-64 382.077,-64 397.966,-64"/>
<polygon fill="midnightblue" stroke="midnightblue" points="347.051,-60.5001 337.051,-64 347.051,-67.5001 347.051,-60.5001"/>
</g>
</g>
</svg>
