<?xml version="1.0" encoding="UTF-8" standalone="no"?>
<!DOCTYPE svg PUBLIC "-//W3C//DTD SVG 1.1//EN"
 "http://www.w3.org/Graphics/SVG/1.1/DTD/svg11.dtd">
<!-- Generated by graphviz version 2.36.0 (20140111.2315)
 -->
<!-- Title: ELFIO::string_section_accessor::add_string Pages: 1 -->
<svg width="708pt" height="180pt"
 viewBox="0.00 0.00 708.00 180.00" xmlns="http://www.w3.org/2000/svg" xmlns:xlink="http://www.w3.org/1999/xlink">
<g id="graph0" class="graph" transform="scale(1 1) rotate(0) translate(4 176)">
<title>ELFIO::string_section_accessor::add_string</title>
<!-- Node1 -->
<g id="node1" class="node"><title>Node1</title>
<polygon fill="#bfbfbf" stroke="black" points="0.5,-73 0.5,-103 113.5,-103 113.5,-73 0.5,-73"/>
<text text-anchor="start" x="8.5" y="-91" font-family="Helvetica,sans-Serif" font-size="10.00">ELFIO::string_section</text>
<text text-anchor="middle" x="57" y="-80" font-family="Helvetica,sans-Serif" font-size="10.00">_accessor::add_string</text>
</g>
<!-- Node2 -->
<g id="node2" class="node"><title>Node2</title>
<g id="a_node2"><a xlink:href="classELFIO_1_1elfio_1_1Sections.xhtml#af60206f1e95ae37985df476419ce875e" target="_top" xlink:title="ELFIO::elfio::Sections::add">
<polygon fill="none" stroke="black" points="150.5,-147.5 150.5,-166.5 285.5,-166.5 285.5,-147.5 150.5,-147.5"/>
<text text-anchor="middle" x="218" y="-154.5" font-family="Helvetica,sans-Serif" font-size="10.00">ELFIO::elfio::Sections::add</text>
</a>
</g>
</g>
<!-- Node1&#45;&gt;Node2 -->
<g id="edge1" class="edge"><title>Node1&#45;&gt;Node2</title>
<path fill="none" stroke="midnightblue" d="M92.1062,-108.262C109.113,-117.819 130.227,-128.878 150,-137 159.544,-140.92 170.137,-144.442 180.03,-147.398"/>
<polygon fill="midnightblue" stroke="midnightblue" points="93.5358,-105.048 83.115,-103.136 90.0685,-111.129 93.5358,-105.048"/>
</g>
<!-- Node6 -->
<g id="node6" class="node"><title>Node6</title>
<g id="a_node6"><a xlink:href="classELFIO_1_1dynamic__section__accessor.xhtml#a1b39689421c68493e3582bf432db4351" target="_top" xlink:title="ELFIO::dynamic_section\l_accessor::add_entry">
<polygon fill="none" stroke="black" points="155.5,-98 155.5,-128 280.5,-128 280.5,-98 155.5,-98"/>
<text text-anchor="start" x="163.5" y="-116" font-family="Helvetica,sans-Serif" font-size="10.00">ELFIO::dynamic_section</text>
<text text-anchor="middle" x="218" y="-105" font-family="Helvetica,sans-Serif" font-size="10.00">_accessor::add_entry</text>
</a>
</g>
</g>
<!-- Node1&#45;&gt;Node6 -->
<g id="edge5" class="edge"><title>Node1&#45;&gt;Node6</title>
<path fill="none" stroke="midnightblue" d="M123.589,-98.3127C134.131,-99.9702 145.009,-101.681 155.452,-103.323"/>
<polygon fill="midnightblue" stroke="midnightblue" points="124.033,-94.8396 113.61,-96.7438 122.945,-101.755 124.033,-94.8396"/>
</g>
<!-- Node7 -->
<g id="node7" class="node"><title>Node7</title>
<g id="a_node7"><a xlink:href="classELFIO_1_1relocation__section__accessor.xhtml#a28378f46b0a5fcf3aa17f229bd9b3cdd" target="_top" xlink:title="ELFIO::relocation_section\l_accessor::add_entry">
<polygon fill="none" stroke="black" points="153,-49 153,-79 283,-79 283,-49 153,-49"/>
<text text-anchor="start" x="161" y="-67" font-family="Helvetica,sans-Serif" font-size="10.00">ELFIO::relocation_section</text>
<text text-anchor="middle" x="218" y="-56" font-family="Helvetica,sans-Serif" font-size="10.00">_accessor::add_entry</text>
</a>
</g>
</g>
<!-- Node1&#45;&gt;Node7 -->
<g id="edge6" class="edge"><title>Node1&#45;&gt;Node7</title>
<path fill="none" stroke="midnightblue" d="M123.6,-78.0981C133.309,-76.6326 143.304,-75.124 152.98,-73.6634"/>
<polygon fill="midnightblue" stroke="midnightblue" points="122.976,-74.6526 113.61,-79.606 124.021,-81.5742 122.976,-74.6526"/>
</g>
<!-- Node8 -->
<g id="node8" class="node"><title>Node8</title>
<g id="a_node8"><a xlink:href="classELFIO_1_1symbol__section__accessor.xhtml#ae68036ebd3d43a8d94aff3ce847c3123" target="_top" xlink:title="ELFIO::symbol_section\l_accessor::add_symbol">
<polygon fill="none" stroke="black" points="158,-0 158,-30 278,-30 278,-0 158,-0"/>
<text text-anchor="start" x="166" y="-18" font-family="Helvetica,sans-Serif" font-size="10.00">ELFIO::symbol_section</text>
<text text-anchor="middle" x="218" y="-7" font-family="Helvetica,sans-Serif" font-size="10.00">_accessor::add_symbol</text>
</a>
</g>
</g>
<!-- Node1&#45;&gt;Node8 -->
<g id="edge7" class="edge"><title>Node1&#45;&gt;Node8</title>
<path fill="none" stroke="midnightblue" d="M93.8698,-67.9685C110.676,-58.9257 131.116,-48.4108 150,-40 157.712,-36.5651 166.054,-33.1911 174.148,-30.088"/>
<polygon fill="midnightblue" stroke="midnightblue" points="92.0572,-64.97 84.9397,-72.818 95.3978,-71.1214 92.0572,-64.97"/>
</g>
<!-- Node3 -->
<g id="node3" class="node"><title>Node3</title>
<g id="a_node3"><a xlink:href="classELFIO_1_1elfio.xhtml#a905e7d6672f7109423309f05c941cf80" target="_top" xlink:title="ELFIO::elfio::create\l_mandatory_sections">
<polygon fill="none" stroke="black" points="322,-142 322,-172 432,-172 432,-142 322,-142"/>
<text text-anchor="start" x="330" y="-160" font-family="Helvetica,sans-Serif" font-size="10.00">ELFIO::elfio::create</text>
<text text-anchor="middle" x="377" y="-149" font-family="Helvetica,sans-Serif" font-size="10.00">_mandatory_sections</text>
</a>
</g>
</g>
<!-- Node2&#45;&gt;Node3 -->
<g id="edge2" class="edge"><title>Node2&#45;&gt;Node3</title>
<path fill="none" stroke="midnightblue" d="M295.801,-157C304.54,-157 313.306,-157 321.667,-157"/>
<polygon fill="midnightblue" stroke="midnightblue" points="295.582,-153.5 285.582,-157 295.582,-160.5 295.582,-153.5"/>
</g>
<!-- Node4 -->
<g id="node4" class="node"><title>Node4</title>
<g id="a_node4"><a xlink:href="classELFIO_1_1elfio.xhtml#a505f88e23277cb7945d4f411fe2b4d85" target="_top" xlink:title="ELFIO::elfio::create">
<polygon fill="none" stroke="black" points="468,-147.5 468,-166.5 570,-166.5 570,-147.5 468,-147.5"/>
<text text-anchor="middle" x="519" y="-154.5" font-family="Helvetica,sans-Serif" font-size="10.00">ELFIO::elfio::create</text>
</a>
</g>
</g>
<!-- Node3&#45;&gt;Node4 -->
<g id="edge3" class="edge"><title>Node3&#45;&gt;Node4</title>
<path fill="none" stroke="midnightblue" d="M442.393,-157C450.881,-157 459.48,-157 467.685,-157"/>
<polygon fill="midnightblue" stroke="midnightblue" points="442.128,-153.5 432.128,-157 442.128,-160.5 442.128,-153.5"/>
</g>
<!-- Node5 -->
<g id="node5" class="node"><title>Node5</title>
<g id="a_node5"><a xlink:href="classELFIO_1_1elfio.xhtml#ab5d99cd44a973c1adabdba1c1e7c086b" target="_top" xlink:title="ELFIO::elfio::elfio">
<polygon fill="none" stroke="black" points="606.5,-147.5 606.5,-166.5 699.5,-166.5 699.5,-147.5 606.5,-147.5"/>
<text text-anchor="middle" x="653" y="-154.5" font-family="Helvetica,sans-Serif" font-size="10.00">ELFIO::elfio::elfio</text>
</a>
</g>
</g>
<!-- Node4&#45;&gt;Node5 -->
<g id="edge4" class="edge"><title>Node4&#45;&gt;Node5</title>
<path fill="none" stroke="midnightblue" d="M580.372,-157C589.05,-157 597.859,-157 606.193,-157"/>
<polygon fill="midnightblue" stroke="midnightblue" points="580.28,-153.5 570.28,-157 580.28,-160.5 580.28,-153.5"/>
</g>
</g>
</svg>
