<?xml version="1.0" encoding="UTF-8" standalone="no"?>
<!DOCTYPE svg PUBLIC "-//W3C//DTD SVG 1.1//EN"
 "http://www.w3.org/Graphics/SVG/1.1/DTD/svg11.dtd">
<!-- Generated by graphviz version 2.36.0 (20140111.2315)
 -->
<!-- Title: Voxel::FilterSet::begin Pages: 1 -->
<svg width="554pt" height="38pt"
 viewBox="0.00 0.00 554.00 38.00" xmlns="http://www.w3.org/2000/svg" xmlns:xlink="http://www.w3.org/1999/xlink">
<g id="graph0" class="graph" transform="scale(1 1) rotate(0) translate(4 34)">
<title>Voxel::FilterSet::begin</title>
<!-- Node1 -->
<g id="node1" class="node"><title>Node1</title>
<polygon fill="#bfbfbf" stroke="black" points="0.5,-5.5 0.5,-24.5 113.5,-24.5 113.5,-5.5 0.5,-5.5"/>
<text text-anchor="middle" x="57" y="-12.5" font-family="Helvetica,sans-Serif" font-size="10.00">Voxel::FilterSet::begin</text>
</g>
<!-- Node2 -->
<g id="node2" class="node"><title>Node2</title>
<g id="a_node2"><a xlink:href="classVoxel_1_1CLIManager.xhtml#a7405f3b9c1589d2f343e93f13eadec3e" target="_top" xlink:title="Voxel::CLIManager::\l_showFilterSet">
<polygon fill="none" stroke="black" points="150.5,-0 150.5,-30 257.5,-30 257.5,-0 150.5,-0"/>
<text text-anchor="start" x="158.5" y="-18" font-family="Helvetica,sans-Serif" font-size="10.00">Voxel::CLIManager::</text>
<text text-anchor="middle" x="204" y="-7" font-family="Helvetica,sans-Serif" font-size="10.00">_showFilterSet</text>
</a>
</g>
</g>
<!-- Node1&#45;&gt;Node2 -->
<g id="edge1" class="edge"><title>Node1&#45;&gt;Node2</title>
<path fill="none" stroke="midnightblue" d="M123.877,-15C132.67,-15 141.594,-15 150.126,-15"/>
<polygon fill="midnightblue" stroke="midnightblue" points="123.646,-11.5001 113.646,-15 123.646,-18.5001 123.646,-11.5001"/>
</g>
<!-- Node3 -->
<g id="node3" class="node"><title>Node3</title>
<g id="a_node3"><a xlink:href="classVoxel_1_1CLIManager.xhtml#a98d69d7bd3e122d61cce89369c2c8a15" target="_top" xlink:title="Voxel::CLIManager::\l_filters">
<polygon fill="none" stroke="black" points="294.5,-0 294.5,-30 401.5,-30 401.5,-0 294.5,-0"/>
<text text-anchor="start" x="302.5" y="-18" font-family="Helvetica,sans-Serif" font-size="10.00">Voxel::CLIManager::</text>
<text text-anchor="middle" x="348" y="-7" font-family="Helvetica,sans-Serif" font-size="10.00">_filters</text>
</a>
</g>
</g>
<!-- Node2&#45;&gt;Node3 -->
<g id="edge2" class="edge"><title>Node2&#45;&gt;Node3</title>
<path fill="none" stroke="midnightblue" d="M267.994,-15C276.704,-15 285.578,-15 294.08,-15"/>
<polygon fill="midnightblue" stroke="midnightblue" points="267.876,-11.5001 257.876,-15 267.876,-18.5001 267.876,-11.5001"/>
</g>
<!-- Node4 -->
<g id="node4" class="node"><title>Node4</title>
<g id="a_node4"><a xlink:href="classVoxel_1_1CLIManager.xhtml#a7a7ce51202c00d16a0e1cac5dcceb1e0" target="_top" xlink:title="Voxel::CLIManager::\lCLIManager">
<polygon fill="none" stroke="black" points="438.5,-0 438.5,-30 545.5,-30 545.5,-0 438.5,-0"/>
<text text-anchor="start" x="446.5" y="-18" font-family="Helvetica,sans-Serif" font-size="10.00">Voxel::CLIManager::</text>
<text text-anchor="middle" x="492" y="-7" font-family="Helvetica,sans-Serif" font-size="10.00">CLIManager</text>
</a>
</g>
</g>
<!-- Node3&#45;&gt;Node4 -->
<g id="edge3" class="edge"><title>Node3&#45;&gt;Node4</title>
<path fill="none" stroke="midnightblue" d="M411.994,-15C420.704,-15 429.578,-15 438.08,-15"/>
<polygon fill="midnightblue" stroke="midnightblue" points="411.876,-11.5001 401.876,-15 411.876,-18.5001 411.876,-11.5001"/>
</g>
</g>
</svg>
