<?xml version="1.0" encoding="UTF-8" standalone="no"?>
<!DOCTYPE svg PUBLIC "-//W3C//DTD SVG 1.1//EN"
 "http://www.w3.org/Graphics/SVG/1.1/DTD/svg11.dtd">
<!-- Generated by graphviz version 2.36.0 (20140111.2315)
 -->
<!-- Title: Voxel::CameraSystem::_loadLibraries Pages: 1 -->
<svg width="428pt" height="38pt"
 viewBox="0.00 0.00 428.00 38.00" xmlns="http://www.w3.org/2000/svg" xmlns:xlink="http://www.w3.org/1999/xlink">
<g id="graph0" class="graph" transform="scale(1 1) rotate(0) translate(4 34)">
<title>Voxel::CameraSystem::_loadLibraries</title>
<!-- Node1 -->
<g id="node1" class="node"><title>Node1</title>
<polygon fill="#bfbfbf" stroke="black" points="0,-0 0,-30 116,-30 116,-0 0,-0"/>
<text text-anchor="start" x="8" y="-18" font-family="Helvetica,sans-Serif" font-size="10.00">Voxel::CameraSystem</text>
<text text-anchor="middle" x="58" y="-7" font-family="Helvetica,sans-Serif" font-size="10.00">::_loadLibraries</text>
</g>
<!-- Node2 -->
<g id="node2" class="node"><title>Node2</title>
<g id="a_node2"><a xlink:href="classVoxel_1_1CameraSystem.xhtml#aacbfc55e4928ea6ccfb55a308345c425" target="_top" xlink:title="Voxel::CameraSystem\l::_init">
<polygon fill="none" stroke="black" points="152,-0 152,-30 268,-30 268,-0 152,-0"/>
<text text-anchor="start" x="160" y="-18" font-family="Helvetica,sans-Serif" font-size="10.00">Voxel::CameraSystem</text>
<text text-anchor="middle" x="210" y="-7" font-family="Helvetica,sans-Serif" font-size="10.00">::_init</text>
</a>
</g>
</g>
<!-- Node1&#45;&gt;Node2 -->
<g id="edge1" class="edge"><title>Node1&#45;&gt;Node2</title>
<path fill="none" stroke="midnightblue" d="M126.311,-15C134.728,-15 143.277,-15 151.525,-15"/>
<polygon fill="midnightblue" stroke="midnightblue" points="126.137,-11.5001 116.136,-15 126.136,-18.5001 126.137,-11.5001"/>
</g>
<!-- Node3 -->
<g id="node3" class="node"><title>Node3</title>
<g id="a_node3"><a xlink:href="classVoxel_1_1CameraSystem.xhtml#a08b33ae635abd444dd482568bbbe10f2" target="_top" xlink:title="Voxel::CameraSystem\l::CameraSystem">
<polygon fill="none" stroke="black" points="304,-0 304,-30 420,-30 420,-0 304,-0"/>
<text text-anchor="start" x="312" y="-18" font-family="Helvetica,sans-Serif" font-size="10.00">Voxel::CameraSystem</text>
<text text-anchor="middle" x="362" y="-7" font-family="Helvetica,sans-Serif" font-size="10.00">::CameraSystem</text>
</a>
</g>
</g>
<!-- Node2&#45;&gt;Node3 -->
<g id="edge2" class="edge"><title>Node2&#45;&gt;Node3</title>
<path fill="none" stroke="midnightblue" d="M278.311,-15C286.728,-15 295.277,-15 303.525,-15"/>
<polygon fill="midnightblue" stroke="midnightblue" points="278.137,-11.5001 268.136,-15 278.136,-18.5001 278.137,-11.5001"/>
</g>
</g>
</svg>
