<?xml version="1.0" encoding="UTF-8" standalone="no"?>
<!DOCTYPE svg PUBLIC "-//W3C//DTD SVG 1.1//EN"
 "http://www.w3.org/Graphics/SVG/1.1/DTD/svg11.dtd">
<!-- Generated by graphviz version 2.36.0 (20140111.2315)
 -->
<!-- Title: TinyXML2::StrPair::ParseName Pages: 1 -->
<svg width="592pt" height="60pt"
 viewBox="0.00 0.00 592.00 60.00" xmlns="http://www.w3.org/2000/svg" xmlns:xlink="http://www.w3.org/1999/xlink">
<g id="graph0" class="graph" transform="scale(1 1) rotate(0) translate(4 56)">
<title>TinyXML2::StrPair::ParseName</title>
<!-- Node1 -->
<g id="node1" class="node"><title>Node1</title>
<polygon fill="#bfbfbf" stroke="black" points="0.5,-0 0.5,-30 103.5,-30 103.5,-0 0.5,-0"/>
<text text-anchor="start" x="8.5" y="-18" font-family="Helvetica,sans-Serif" font-size="10.00">TinyXML2::StrPair::</text>
<text text-anchor="middle" x="52" y="-7" font-family="Helvetica,sans-Serif" font-size="10.00">ParseName</text>
</g>
<!-- Node2 -->
<g id="node2" class="node"><title>Node2</title>
<g id="a_node2"><a xlink:href="classTinyXML2_1_1XMLAttribute.xhtml#ab27bee7ca972cfb7b33a57ae150c9f46" target="_top" xlink:title="TinyXML2::XMLAttribute\l::ParseDeep">
<polygon fill="none" stroke="black" points="140,-22 140,-52 264,-52 264,-22 140,-22"/>
<text text-anchor="start" x="148" y="-40" font-family="Helvetica,sans-Serif" font-size="10.00">TinyXML2::XMLAttribute</text>
<text text-anchor="middle" x="202" y="-29" font-family="Helvetica,sans-Serif" font-size="10.00">::ParseDeep</text>
</a>
</g>
</g>
<!-- Node1&#45;&gt;Node2 -->
<g id="edge1" class="edge"><title>Node1&#45;&gt;Node2</title>
<path fill="none" stroke="midnightblue" d="M113.589,-24.0065C122.293,-25.3003 131.253,-26.6321 139.965,-27.9272"/>
<polygon fill="midnightblue" stroke="midnightblue" points="113.925,-20.5181 103.519,-22.5096 112.896,-27.442 113.925,-20.5181"/>
</g>
<!-- Node4 -->
<g id="node4" class="node"><title>Node4</title>
<g id="a_node4"><a xlink:href="classTinyXML2_1_1XMLElement.xhtml#a1f37b0bb41320c4121515755b8a057a4" target="_top" xlink:title="TinyXML2::XMLElement\l::ParseDeep">
<polygon fill="none" stroke="black" points="460.5,-0 460.5,-30 583.5,-30 583.5,-0 460.5,-0"/>
<text text-anchor="start" x="468.5" y="-18" font-family="Helvetica,sans-Serif" font-size="10.00">TinyXML2::XMLElement</text>
<text text-anchor="middle" x="522" y="-7" font-family="Helvetica,sans-Serif" font-size="10.00">::ParseDeep</text>
</a>
</g>
</g>
<!-- Node1&#45;&gt;Node4 -->
<g id="edge4" class="edge"><title>Node1&#45;&gt;Node4</title>
<path fill="none" stroke="midnightblue" d="M113.808,-12.6358C122.595,-12.372 131.528,-12.146 140,-12 266.203,-9.82472 297.793,-10.0488 424,-12 435.792,-12.1823 448.388,-12.4892 460.467,-12.839"/>
<polygon fill="midnightblue" stroke="midnightblue" points="113.481,-9.14436 103.597,-12.9604 113.703,-16.1408 113.481,-9.14436"/>
</g>
<!-- Node3 -->
<g id="node3" class="node"><title>Node3</title>
<g id="a_node3"><a xlink:href="classTinyXML2_1_1XMLElement.xhtml#a2b7dddea778d54aa6a213abed7ef7ab7" target="_top" xlink:title="TinyXML2::XMLElement\l::ParseAttributes">
<polygon fill="none" stroke="black" points="300.5,-22 300.5,-52 423.5,-52 423.5,-22 300.5,-22"/>
<text text-anchor="start" x="308.5" y="-40" font-family="Helvetica,sans-Serif" font-size="10.00">TinyXML2::XMLElement</text>
<text text-anchor="middle" x="362" y="-29" font-family="Helvetica,sans-Serif" font-size="10.00">::ParseAttributes</text>
</a>
</g>
</g>
<!-- Node2&#45;&gt;Node3 -->
<g id="edge2" class="edge"><title>Node2&#45;&gt;Node3</title>
<path fill="none" stroke="midnightblue" d="M274.235,-37C282.951,-37 291.795,-37 300.336,-37"/>
<polygon fill="midnightblue" stroke="midnightblue" points="274.087,-33.5001 264.087,-37 274.087,-40.5001 274.087,-33.5001"/>
</g>
<!-- Node3&#45;&gt;Node4 -->
<g id="edge3" class="edge"><title>Node3&#45;&gt;Node4</title>
<path fill="none" stroke="midnightblue" d="M433.597,-27.1701C442.495,-25.931 451.538,-24.6719 460.266,-23.4566"/>
<polygon fill="midnightblue" stroke="midnightblue" points="433.057,-23.7114 423.635,-28.5571 434.022,-30.6445 433.057,-23.7114"/>
</g>
</g>
</svg>
