<?xml version="1.0" encoding="UTF-8" standalone="no"?>
<!DOCTYPE svg PUBLIC "-//W3C//DTD SVG 1.1//EN"
 "http://www.w3.org/Graphics/SVG/1.1/DTD/svg11.dtd">
<!-- Generated by graphviz version 2.36.0 (20140111.2315)
 -->
<!-- Title: TinyXML2::XMLDocument::LoadFile Pages: 1 -->
<svg width="952pt" height="724pt"
 viewBox="0.00 0.00 952.00 724.00" xmlns="http://www.w3.org/2000/svg" xmlns:xlink="http://www.w3.org/1999/xlink">
<g id="graph0" class="graph" transform="scale(1 1) rotate(0) translate(4 720)">
<title>TinyXML2::XMLDocument::LoadFile</title>
<!-- Node1 -->
<g id="node1" class="node"><title>Node1</title>
<polygon fill="#bfbfbf" stroke="black" points="0,-88 0,-118 132,-118 132,-88 0,-88"/>
<text text-anchor="start" x="8" y="-106" font-family="Helvetica,sans-Serif" font-size="10.00">TinyXML2::XMLDocument</text>
<text text-anchor="middle" x="66" y="-95" font-family="Helvetica,sans-Serif" font-size="10.00">::LoadFile</text>
</g>
<!-- Node2 -->
<g id="node2" class="node"><title>Node2</title>
<g id="a_node2"><a xlink:href="classTinyXML2_1_1XMLDocument.xhtml#a20554f58b1fbdc5a5e4986ca59126837" target="_top" xlink:title="Clear the document, resetting it to the initial state. ">
<polygon fill="none" stroke="black" points="168,-636 168,-666 300,-666 300,-636 168,-636"/>
<text text-anchor="start" x="176" y="-654" font-family="Helvetica,sans-Serif" font-size="10.00">TinyXML2::XMLDocument</text>
<text text-anchor="middle" x="234" y="-643" font-family="Helvetica,sans-Serif" font-size="10.00">::Clear</text>
</a>
</g>
</g>
<!-- Node1&#45;&gt;Node2 -->
<g id="edge1" class="edge"><title>Node1&#45;&gt;Node2</title>
<path fill="none" stroke="midnightblue" d="M71.613,-118.229C94.6029,-194.123 196.835,-531.611 225.503,-626.252"/>
<polygon fill="midnightblue" stroke="midnightblue" points="222.16,-627.289 228.409,-635.845 228.86,-625.26 222.16,-627.289"/>
</g>
<!-- Node9 -->
<g id="node9" class="node"><title>Node9</title>
<g id="a_node9"><a xlink:href="classTinyXML2_1_1XMLNode.xhtml#a666a962d4e7ce40fad31a0d273659176" target="_top" xlink:title="TinyXML2::XMLNode::\lParseDeep">
<polygon fill="none" stroke="black" points="176,-340 176,-370 292,-370 292,-340 176,-340"/>
<text text-anchor="start" x="184" y="-358" font-family="Helvetica,sans-Serif" font-size="10.00">TinyXML2::XMLNode::</text>
<text text-anchor="middle" x="234" y="-347" font-family="Helvetica,sans-Serif" font-size="10.00">ParseDeep</text>
</a>
</g>
</g>
<!-- Node1&#45;&gt;Node9 -->
<g id="edge10" class="edge"><title>Node1&#45;&gt;Node9</title>
<path fill="none" stroke="midnightblue" d="M76.8869,-118.009C104.673,-160.191 183.63,-280.052 217.385,-331.295"/>
<polygon fill="midnightblue" stroke="midnightblue" points="214.531,-333.325 222.955,-339.751 220.377,-329.475 214.531,-333.325"/>
</g>
<!-- Node12 -->
<g id="node12" class="node"><title>Node12</title>
<g id="a_node12"><a xlink:href="classTinyXML2_1_1XMLUtil.xhtml#a151c32ae2f90003379a2fc78a80da4f1" target="_top" xlink:title="TinyXML2::XMLUtil::\lSkipWhiteSpace">
<polygon fill="none" stroke="black" points="831,-103 831,-133 939,-133 939,-103 831,-103"/>
<text text-anchor="start" x="839" y="-121" font-family="Helvetica,sans-Serif" font-size="10.00">TinyXML2::XMLUtil::</text>
<text text-anchor="middle" x="885" y="-110" font-family="Helvetica,sans-Serif" font-size="10.00">SkipWhiteSpace</text>
</a>
</g>
</g>
<!-- Node1&#45;&gt;Node12 -->
<g id="edge39" class="edge"><title>Node1&#45;&gt;Node12</title>
<path fill="none" stroke="midnightblue" d="M132.259,-89.2591C199.343,-76.349 306.982,-59 401,-59 401,-59 401,-59 563,-59 655.242,-59 759.973,-82.8579 824.01,-100.231"/>
<polygon fill="midnightblue" stroke="midnightblue" points="823.36,-103.682 833.93,-102.959 825.216,-96.9328 823.36,-103.682"/>
</g>
<!-- Node14 -->
<g id="node14" class="node"><title>Node14</title>
<g id="a_node14"><a xlink:href="classTinyXML2_1_1XMLDocument.xhtml#a38edba63c6f6b5de49f4ece2ba14dd8d" target="_top" xlink:title="TinyXML2::XMLDocument\l::SetError">
<polygon fill="none" stroke="black" points="336,-88 336,-118 468,-118 468,-88 336,-88"/>
<text text-anchor="start" x="344" y="-106" font-family="Helvetica,sans-Serif" font-size="10.00">TinyXML2::XMLDocument</text>
<text text-anchor="middle" x="402" y="-95" font-family="Helvetica,sans-Serif" font-size="10.00">::SetError</text>
</a>
</g>
</g>
<!-- Node1&#45;&gt;Node14 -->
<g id="edge38" class="edge"><title>Node1&#45;&gt;Node14</title>
<path fill="none" stroke="midnightblue" d="M132.191,-103C187.71,-103 267.503,-103 325.728,-103"/>
<polygon fill="midnightblue" stroke="midnightblue" points="325.973,-106.5 335.973,-103 325.973,-99.5001 325.973,-106.5"/>
</g>
<!-- Node28 -->
<g id="node28" class="node"><title>Node28</title>
<g id="a_node28"><a xlink:href="classTinyXML2_1_1XMLUtil.xhtml#add0878731f4c713ac43af19b24e569a7" target="_top" xlink:title="TinyXML2::XMLUtil::\lReadBOM">
<polygon fill="none" stroke="black" points="180,-0 180,-30 288,-30 288,-0 180,-0"/>
<text text-anchor="start" x="188" y="-18" font-family="Helvetica,sans-Serif" font-size="10.00">TinyXML2::XMLUtil::</text>
<text text-anchor="middle" x="234" y="-7" font-family="Helvetica,sans-Serif" font-size="10.00">ReadBOM</text>
</a>
</g>
</g>
<!-- Node1&#45;&gt;Node28 -->
<g id="edge37" class="edge"><title>Node1&#45;&gt;Node28</title>
<path fill="none" stroke="midnightblue" d="M91.9759,-87.8293C112.209,-75.7416 141.592,-58.6425 168,-45 174.988,-41.3901 182.492,-37.7318 189.832,-34.2696"/>
<polygon fill="midnightblue" stroke="midnightblue" points="191.4,-37.4005 198.988,-30.0073 188.445,-31.0544 191.4,-37.4005"/>
</g>
<!-- Node3 -->
<g id="node3" class="node"><title>Node3</title>
<g id="a_node3"><a xlink:href="classTinyXML2_1_1XMLNode.xhtml#ac71764a70bec2eb37ed1ee30c97b2b51" target="_top" xlink:title="TinyXML2::XMLNode::\lDeleteChildren">
<polygon fill="none" stroke="black" points="344,-685 344,-715 460,-715 460,-685 344,-685"/>
<text text-anchor="start" x="352" y="-703" font-family="Helvetica,sans-Serif" font-size="10.00">TinyXML2::XMLNode::</text>
<text text-anchor="middle" x="402" y="-692" font-family="Helvetica,sans-Serif" font-size="10.00">DeleteChildren</text>
</a>
</g>
</g>
<!-- Node2&#45;&gt;Node3 -->
<g id="edge2" class="edge"><title>Node2&#45;&gt;Node3</title>
<path fill="none" stroke="midnightblue" d="M286.16,-666.101C303.281,-671.155 322.532,-676.838 340.308,-682.085"/>
<polygon fill="midnightblue" stroke="midnightblue" points="339.427,-685.474 350.009,-684.948 341.409,-678.76 339.427,-685.474"/>
</g>
<!-- Node8 -->
<g id="node8" class="node"><title>Node8</title>
<g id="a_node8"><a xlink:href="classTinyXML2_1_1XMLDocument.xhtml#a8302f8ca7f1ed6dd2690e3875f968a32" target="_top" xlink:title="Return true if there was an error parsing the document. ">
<polygon fill="none" stroke="black" points="336,-636 336,-666 468,-666 468,-636 336,-636"/>
<text text-anchor="start" x="344" y="-654" font-family="Helvetica,sans-Serif" font-size="10.00">TinyXML2::XMLDocument</text>
<text text-anchor="middle" x="402" y="-643" font-family="Helvetica,sans-Serif" font-size="10.00">::Error</text>
</a>
</g>
</g>
<!-- Node2&#45;&gt;Node8 -->
<g id="edge9" class="edge"><title>Node2&#45;&gt;Node8</title>
<path fill="none" stroke="midnightblue" d="M300.131,-651C308.461,-651 317.044,-651 325.521,-651"/>
<polygon fill="midnightblue" stroke="midnightblue" points="325.784,-654.5 335.784,-651 325.784,-647.5 325.784,-654.5"/>
</g>
<!-- Node4 -->
<g id="node4" class="node"><title>Node4</title>
<g id="a_node4"><a xlink:href="classTinyXML2_1_1XMLNode.xhtml#a0fe718d6c3d1252c48992c1adc1ce93b" target="_top" xlink:title="TinyXML2::XMLNode::\lUnlink">
<polygon fill="none" stroke="black" points="827,-641 827,-671 943,-671 943,-641 827,-641"/>
<text text-anchor="start" x="835" y="-659" font-family="Helvetica,sans-Serif" font-size="10.00">TinyXML2::XMLNode::</text>
<text text-anchor="middle" x="885" y="-648" font-family="Helvetica,sans-Serif" font-size="10.00">Unlink</text>
</a>
</g>
</g>
<!-- Node3&#45;&gt;Node4 -->
<g id="edge3" class="edge"><title>Node3&#45;&gt;Node4</title>
<path fill="none" stroke="midnightblue" d="M460.08,-700.572C535.891,-700.531 673.768,-697.663 790,-680 800.709,-678.373 811.97,-676.048 822.83,-673.48"/>
<polygon fill="midnightblue" stroke="midnightblue" points="823.786,-676.849 832.663,-671.065 822.117,-670.051 823.786,-676.849"/>
</g>
<!-- Node5 -->
<g id="node5" class="node"><title>Node5</title>
<g id="a_node5"><a xlink:href="classTinyXML2_1_1XMLNode.xhtml#ae64fa52593db503652ee0258bf69d376" target="_top" xlink:title="TinyXML2::XMLNode::\lDeleteNode">
<polygon fill="none" stroke="black" points="504,-599 504,-629 620,-629 620,-599 504,-599"/>
<text text-anchor="start" x="512" y="-617" font-family="Helvetica,sans-Serif" font-size="10.00">TinyXML2::XMLNode::</text>
<text text-anchor="middle" x="562" y="-606" font-family="Helvetica,sans-Serif" font-size="10.00">DeleteNode</text>
</a>
</g>
</g>
<!-- Node3&#45;&gt;Node5 -->
<g id="edge4" class="edge"><title>Node3&#45;&gt;Node5</title>
<path fill="none" stroke="midnightblue" d="M447.509,-684.895C454.526,-681.945 461.578,-678.627 468,-675 485.65,-665.032 487.19,-658.326 504,-647 510.389,-642.695 517.363,-638.37 524.172,-634.334"/>
<polygon fill="midnightblue" stroke="midnightblue" points="526.397,-637.09 533.284,-629.039 522.879,-631.038 526.397,-637.09"/>
</g>
<!-- Node6 -->
<g id="node6" class="node"><title>Node6</title>
<g id="a_node6"><a xlink:href="classTinyXML2_1_1XMLNode.xhtml#a5ce8791c0920489f9df667b0a0264935" target="_top" xlink:title="TinyXML2::XMLNode::\l~XMLNode">
<polygon fill="none" stroke="black" points="665,-641 665,-671 781,-671 781,-641 665,-641"/>
<text text-anchor="start" x="673" y="-659" font-family="Helvetica,sans-Serif" font-size="10.00">TinyXML2::XMLNode::</text>
<text text-anchor="middle" x="723" y="-648" font-family="Helvetica,sans-Serif" font-size="10.00">~XMLNode</text>
</a>
</g>
</g>
<!-- Node5&#45;&gt;Node6 -->
<g id="edge5" class="edge"><title>Node5&#45;&gt;Node6</title>
<path fill="none" stroke="midnightblue" d="M619.954,-629.044C631.44,-632.079 643.611,-635.294 655.394,-638.406"/>
<polygon fill="midnightblue" stroke="midnightblue" points="654.615,-641.82 665.177,-640.99 656.403,-635.052 654.615,-641.82"/>
</g>
<!-- Node7 -->
<g id="node7" class="node"><title>Node7</title>
<g id="a_node7"><a xlink:href="classTinyXML2_1_1MemPool.xhtml#af252371f4bf36310d2db949279b5ccf4" target="_top" xlink:title="TinyXML2::MemPool::Free">
<polygon fill="none" stroke="black" points="656,-602.5 656,-621.5 790,-621.5 790,-602.5 656,-602.5"/>
<text text-anchor="middle" x="723" y="-609.5" font-family="Helvetica,sans-Serif" font-size="10.00">TinyXML2::MemPool::Free</text>
</a>
</g>
</g>
<!-- Node5&#45;&gt;Node7 -->
<g id="edge8" class="edge"><title>Node5&#45;&gt;Node7</title>
<path fill="none" stroke="midnightblue" d="M620.403,-613.278C628.561,-613.175 637.056,-613.068 645.505,-612.962"/>
<polygon fill="midnightblue" stroke="midnightblue" points="645.809,-616.459 655.764,-612.833 645.721,-609.459 645.809,-616.459"/>
</g>
<!-- Node6&#45;&gt;Node3 -->
<g id="edge6" class="edge"><title>Node6&#45;&gt;Node3</title>
<path fill="none" stroke="midnightblue" d="M664.624,-663.88C620.661,-669.922 558.496,-678.473 504,-686 493.125,-687.502 481.592,-689.098 470.357,-690.654"/>
<polygon fill="midnightblue" stroke="midnightblue" points="469.577,-687.229 460.152,-692.068 470.537,-694.162 469.577,-687.229"/>
</g>
<!-- Node6&#45;&gt;Node4 -->
<g id="edge7" class="edge"><title>Node6&#45;&gt;Node4</title>
<path fill="none" stroke="midnightblue" d="M781.312,-656C792.755,-656 804.873,-656 816.62,-656"/>
<polygon fill="midnightblue" stroke="midnightblue" points="816.82,-659.5 826.82,-656 816.82,-652.5 816.82,-659.5"/>
</g>
<!-- Node9&#45;&gt;Node5 -->
<g id="edge16" class="edge"><title>Node9&#45;&gt;Node5</title>
<path fill="none" stroke="midnightblue" d="M236.515,-370.045C241.637,-412.24 262.348,-532.184 336,-587 380.787,-620.333 445.058,-625.008 493.449,-622.554"/>
<polygon fill="midnightblue" stroke="midnightblue" points="493.758,-626.042 503.522,-621.93 493.325,-619.055 493.758,-626.042"/>
</g>
<!-- Node9&#45;&gt;Node8 -->
<g id="edge17" class="edge"><title>Node9&#45;&gt;Node8</title>
<path fill="none" stroke="midnightblue" d="M236.716,-370.016C242.5,-414.123 265.074,-544.963 336,-621 339.322,-624.562 343.15,-627.736 347.252,-630.558"/>
<polygon fill="midnightblue" stroke="midnightblue" points="345.617,-633.66 355.98,-635.866 349.255,-627.679 345.617,-633.66"/>
</g>
<!-- Node9&#45;&gt;Node9 -->
<g id="edge15" class="edge"><title>Node9&#45;&gt;Node9</title>
<path fill="none" stroke="midnightblue" d="M204.469,-370.275C197.906,-379.406 207.75,-388 234,-388 249.586,-388 259.388,-384.97 263.406,-380.598"/>
<polygon fill="midnightblue" stroke="midnightblue" points="266.91,-380.317 263.531,-370.275 259.91,-380.232 266.91,-380.317"/>
</g>
<!-- Node10 -->
<g id="node10" class="node"><title>Node10</title>
<g id="a_node10"><a xlink:href="classTinyXML2_1_1XMLDocument.xhtml#a0a09219933989db01f4e0cff84ce5af2" target="_top" xlink:title="TinyXML2::XMLDocument\l::Identify">
<polygon fill="none" stroke="black" points="336,-137 336,-167 468,-167 468,-137 336,-137"/>
<text text-anchor="start" x="344" y="-155" font-family="Helvetica,sans-Serif" font-size="10.00">TinyXML2::XMLDocument</text>
<text text-anchor="middle" x="402" y="-144" font-family="Helvetica,sans-Serif" font-size="10.00">::Identify</text>
</a>
</g>
</g>
<!-- Node9&#45;&gt;Node10 -->
<g id="edge11" class="edge"><title>Node9&#45;&gt;Node10</title>
<path fill="none" stroke="midnightblue" d="M239.503,-339.949C250.428,-305.911 281.531,-222.383 336,-176 337.511,-174.713 339.098,-173.492 340.743,-172.335"/>
<polygon fill="midnightblue" stroke="midnightblue" points="342.679,-175.254 349.391,-167.057 339.032,-169.279 342.679,-175.254"/>
</g>
<!-- Node13 -->
<g id="node13" class="node"><title>Node13</title>
<g id="a_node13"><a xlink:href="classTinyXML2_1_1XMLUtil.xhtml#af0f1d719f7e1067ec06eeb2d687520a5" target="_top" xlink:title="TinyXML2::XMLUtil::\lStringEqual">
<polygon fill="none" stroke="black" points="508,-215 508,-245 616,-245 616,-215 508,-215"/>
<text text-anchor="start" x="516" y="-233" font-family="Helvetica,sans-Serif" font-size="10.00">TinyXML2::XMLUtil::</text>
<text text-anchor="middle" x="562" y="-222" font-family="Helvetica,sans-Serif" font-size="10.00">StringEqual</text>
</a>
</g>
</g>
<!-- Node9&#45;&gt;Node13 -->
<g id="edge25" class="edge"><title>Node9&#45;&gt;Node13</title>
<path fill="none" stroke="midnightblue" d="M246.838,-339.805C264.026,-318.938 298.02,-281.958 336,-264 386.802,-239.98 450.613,-232.156 497.293,-229.945"/>
<polygon fill="midnightblue" stroke="midnightblue" points="497.725,-233.431 507.577,-229.535 497.446,-226.436 497.725,-233.431"/>
</g>
<!-- Node9&#45;&gt;Node14 -->
<g id="edge18" class="edge"><title>Node9&#45;&gt;Node14</title>
<path fill="none" stroke="midnightblue" d="M237.503,-339.879C244.95,-299.55 270.658,-188.332 336,-127 337.266,-125.811 338.597,-124.681 339.979,-123.605"/>
<polygon fill="midnightblue" stroke="midnightblue" points="341.996,-126.467 348.397,-118.025 338.128,-120.633 341.996,-126.467"/>
</g>
<!-- Node15 -->
<g id="node15" class="node"><title>Node15</title>
<g id="a_node15"><a xlink:href="classTinyXML2_1_1XMLNode.xhtml#a2ef2c6efbc6c9c76767770160d2d123d" target="_top" xlink:title="Safely cast to an Element, or null. ">
<polygon fill="none" stroke="black" points="344,-450 344,-480 460,-480 460,-450 344,-450"/>
<text text-anchor="start" x="352" y="-468" font-family="Helvetica,sans-Serif" font-size="10.00">TinyXML2::XMLNode::</text>
<text text-anchor="middle" x="402" y="-457" font-family="Helvetica,sans-Serif" font-size="10.00">ToElement</text>
</a>
</g>
</g>
<!-- Node9&#45;&gt;Node15 -->
<g id="edge19" class="edge"><title>Node9&#45;&gt;Node15</title>
<path fill="none" stroke="midnightblue" d="M251.595,-370.191C270.891,-387.354 304.176,-415.438 336,-435 341.976,-438.673 348.476,-442.185 354.979,-445.428"/>
<polygon fill="midnightblue" stroke="midnightblue" points="353.917,-448.801 364.447,-449.974 356.947,-442.49 353.917,-448.801"/>
</g>
<!-- Node16 -->
<g id="node16" class="node"><title>Node16</title>
<g id="a_node16"><a xlink:href="classTinyXML2_1_1XMLElement.xhtml#a66fb22f8dcc79b96229572b2149e22d8" target="_top" xlink:title="TinyXML2::XMLElement\l::ClosingType">
<polygon fill="none" stroke="black" points="340.5,-362 340.5,-392 463.5,-392 463.5,-362 340.5,-362"/>
<text text-anchor="start" x="348.5" y="-380" font-family="Helvetica,sans-Serif" font-size="10.00">TinyXML2::XMLElement</text>
<text text-anchor="middle" x="402" y="-369" font-family="Helvetica,sans-Serif" font-size="10.00">::ClosingType</text>
</a>
</g>
</g>
<!-- Node9&#45;&gt;Node16 -->
<g id="edge20" class="edge"><title>Node9&#45;&gt;Node16</title>
<path fill="none" stroke="midnightblue" d="M292.128,-362.571C304.412,-364.199 317.537,-365.939 330.267,-367.626"/>
<polygon fill="midnightblue" stroke="midnightblue" points="329.996,-371.12 340.369,-368.965 330.916,-364.181 329.996,-371.12"/>
</g>
<!-- Node17 -->
<g id="node17" class="node"><title>Node17</title>
<g id="a_node17"><a xlink:href="classTinyXML2_1_1StrPair.xhtml#aa49c81c2847e30ec02d2cb971de60eab" target="_top" xlink:title="TinyXML2::StrPair::\lTransferTo">
<polygon fill="none" stroke="black" points="350.5,-548 350.5,-578 453.5,-578 453.5,-548 350.5,-548"/>
<text text-anchor="start" x="358.5" y="-566" font-family="Helvetica,sans-Serif" font-size="10.00">TinyXML2::StrPair::</text>
<text text-anchor="middle" x="402" y="-555" font-family="Helvetica,sans-Serif" font-size="10.00">TransferTo</text>
</a>
</g>
</g>
<!-- Node9&#45;&gt;Node17 -->
<g id="edge21" class="edge"><title>Node9&#45;&gt;Node17</title>
<path fill="none" stroke="midnightblue" d="M239.368,-370.075C250.109,-404.595 281.011,-490.079 336,-538 337.914,-539.668 339.952,-541.231 342.079,-542.694"/>
<polygon fill="midnightblue" stroke="midnightblue" points="340.29,-545.702 350.664,-547.858 343.899,-539.704 340.29,-545.702"/>
</g>
<!-- Node19 -->
<g id="node19" class="node"><title>Node19</title>
<g id="a_node19"><a xlink:href="classTinyXML2_1_1MemPool.xhtml#a97d309d72afeb96d9e54186285c26705" target="_top" xlink:title="TinyXML2::MemPool::\lSetTracked">
<polygon fill="none" stroke="black" points="505,-432 505,-462 619,-462 619,-432 505,-432"/>
<text text-anchor="start" x="513" y="-450" font-family="Helvetica,sans-Serif" font-size="10.00">TinyXML2::MemPool::</text>
<text text-anchor="middle" x="562" y="-439" font-family="Helvetica,sans-Serif" font-size="10.00">SetTracked</text>
</a>
</g>
</g>
<!-- Node9&#45;&gt;Node19 -->
<g id="edge23" class="edge"><title>Node9&#45;&gt;Node19</title>
<path fill="none" stroke="midnightblue" d="M263.478,-370.067C283.341,-380.05 310.715,-392.774 336,-401 388.168,-417.971 449.256,-429.988 494.605,-437.473"/>
<polygon fill="midnightblue" stroke="midnightblue" points="494.183,-440.95 504.614,-439.094 495.302,-434.04 494.183,-440.95"/>
</g>
<!-- Node20 -->
<g id="node20" class="node"><title>Node20</title>
<g id="a_node20"><a xlink:href="classTinyXML2_1_1StrPair.xhtml#a1afb202191668ec8e922e875c35c8c94" target="_top" xlink:title="TinyXML2::StrPair::\lEmpty">
<polygon fill="none" stroke="black" points="350.5,-186 350.5,-216 453.5,-216 453.5,-186 350.5,-186"/>
<text text-anchor="start" x="358.5" y="-204" font-family="Helvetica,sans-Serif" font-size="10.00">TinyXML2::StrPair::</text>
<text text-anchor="middle" x="402" y="-193" font-family="Helvetica,sans-Serif" font-size="10.00">Empty</text>
</a>
</g>
</g>
<!-- Node9&#45;&gt;Node20 -->
<g id="edge24" class="edge"><title>Node9&#45;&gt;Node20</title>
<path fill="none" stroke="midnightblue" d="M244.116,-339.768C259.994,-314.321 294.978,-262.827 336,-231 340.898,-227.2 346.354,-223.742 351.966,-220.637"/>
<polygon fill="midnightblue" stroke="midnightblue" points="353.573,-223.747 360.854,-216.05 350.362,-217.526 353.573,-223.747"/>
</g>
<!-- Node21 -->
<g id="node21" class="node"><title>Node21</title>
<g id="a_node21"><a xlink:href="classTinyXML2_1_1StrPair.xhtml#a5e2c5bd32ba79f32f219cf9301c2bce6" target="_top" xlink:title="TinyXML2::StrPair::\lGetStr">
<polygon fill="none" stroke="black" points="510.5,-274 510.5,-304 613.5,-304 613.5,-274 510.5,-274"/>
<text text-anchor="start" x="518.5" y="-292" font-family="Helvetica,sans-Serif" font-size="10.00">TinyXML2::StrPair::</text>
<text text-anchor="middle" x="562" y="-281" font-family="Helvetica,sans-Serif" font-size="10.00">GetStr</text>
</a>
</g>
</g>
<!-- Node9&#45;&gt;Node21 -->
<g id="edge26" class="edge"><title>Node9&#45;&gt;Node21</title>
<path fill="none" stroke="midnightblue" d="M292.209,-345.905C339.52,-338.092 408.373,-326.049 468,-313 478.601,-310.68 489.822,-307.989 500.663,-305.265"/>
<polygon fill="midnightblue" stroke="midnightblue" points="501.656,-308.623 510.483,-302.763 499.929,-301.84 501.656,-308.623"/>
</g>
<!-- Node26 -->
<g id="node26" class="node"><title>Node26</title>
<g id="a_node26"><a xlink:href="classTinyXML2_1_1XMLNode.xhtml#a76031498d32776e907d2ba79b7029b18" target="_top" xlink:title="TinyXML2::XMLNode::\lValue">
<polygon fill="none" stroke="black" points="344,-274 344,-304 460,-304 460,-274 344,-274"/>
<text text-anchor="start" x="352" y="-292" font-family="Helvetica,sans-Serif" font-size="10.00">TinyXML2::XMLNode::</text>
<text text-anchor="middle" x="402" y="-281" font-family="Helvetica,sans-Serif" font-size="10.00">Value</text>
</a>
</g>
</g>
<!-- Node9&#45;&gt;Node26 -->
<g id="edge32" class="edge"><title>Node9&#45;&gt;Node26</title>
<path fill="none" stroke="midnightblue" d="M273.084,-339.858C297.019,-330.342 328.086,-317.99 353.609,-307.842"/>
<polygon fill="midnightblue" stroke="midnightblue" points="355.094,-311.018 363.093,-304.071 352.508,-304.514 355.094,-311.018"/>
</g>
<!-- Node27 -->
<g id="node27" class="node"><title>Node27</title>
<g id="a_node27"><a xlink:href="classTinyXML2_1_1XMLNode.xhtml#a8ae11185b5fbb9620d71114c70b31368" target="_top" xlink:title="TinyXML2::XMLNode::\lInsertEndChild">
<polygon fill="none" stroke="black" points="344,-499 344,-529 460,-529 460,-499 344,-499"/>
<text text-anchor="start" x="352" y="-517" font-family="Helvetica,sans-Serif" font-size="10.00">TinyXML2::XMLNode::</text>
<text text-anchor="middle" x="402" y="-506" font-family="Helvetica,sans-Serif" font-size="10.00">InsertEndChild</text>
</a>
</g>
</g>
<!-- Node9&#45;&gt;Node27 -->
<g id="edge34" class="edge"><title>Node9&#45;&gt;Node27</title>
<path fill="none" stroke="midnightblue" d="M242.635,-370.051C257.216,-397.397 291.571,-455.502 336,-489 338.432,-490.833 341.014,-492.548 343.694,-494.149"/>
<polygon fill="midnightblue" stroke="midnightblue" points="342.053,-497.241 352.52,-498.886 345.363,-491.073 342.053,-497.241"/>
</g>
<!-- Node11 -->
<g id="node11" class="node"><title>Node11</title>
<g id="a_node11"><a xlink:href="classTinyXML2_1_1XMLText.xhtml#a44acb8346adaa28c3ed043a22104b917" target="_top" xlink:title="Declare whether this should be CDATA or standard text. ">
<polygon fill="none" stroke="black" points="505.5,-147 505.5,-177 618.5,-177 618.5,-147 505.5,-147"/>
<text text-anchor="start" x="513.5" y="-165" font-family="Helvetica,sans-Serif" font-size="10.00">TinyXML2::XMLText::</text>
<text text-anchor="middle" x="562" y="-154" font-family="Helvetica,sans-Serif" font-size="10.00">SetCData</text>
</a>
</g>
</g>
<!-- Node10&#45;&gt;Node11 -->
<g id="edge12" class="edge"><title>Node10&#45;&gt;Node11</title>
<path fill="none" stroke="midnightblue" d="M468.177,-156.125C476.975,-156.682 486.009,-157.254 494.824,-157.812"/>
<polygon fill="midnightblue" stroke="midnightblue" points="494.844,-161.32 505.045,-158.459 495.286,-154.334 494.844,-161.32"/>
</g>
<!-- Node10&#45;&gt;Node12 -->
<g id="edge13" class="edge"><title>Node10&#45;&gt;Node12</title>
<path fill="none" stroke="midnightblue" d="M468.082,-141.382C480.004,-139.708 492.357,-138.153 504,-137 614.964,-126.012 744.82,-121.254 820.402,-119.287"/>
<polygon fill="midnightblue" stroke="midnightblue" points="820.791,-122.778 830.7,-119.028 820.615,-115.781 820.791,-122.778"/>
</g>
<!-- Node10&#45;&gt;Node13 -->
<g id="edge14" class="edge"><title>Node10&#45;&gt;Node13</title>
<path fill="none" stroke="midnightblue" d="M447.13,-167.122C454.195,-169.877 461.361,-172.875 468,-176 488.859,-185.817 511.232,-198.727 528.805,-209.462"/>
<polygon fill="midnightblue" stroke="midnightblue" points="527.178,-212.57 537.524,-214.849 530.857,-206.615 527.178,-212.57"/>
</g>
<!-- Node18 -->
<g id="node18" class="node"><title>Node18</title>
<g id="a_node18"><a xlink:href="classTinyXML2_1_1StrPair.xhtml#afbc7a4f921afeff8ef2aca24765ed24f" target="_top" xlink:title="TinyXML2::StrPair::\lReset">
<polygon fill="none" stroke="black" points="510.5,-548 510.5,-578 613.5,-578 613.5,-548 510.5,-548"/>
<text text-anchor="start" x="518.5" y="-566" font-family="Helvetica,sans-Serif" font-size="10.00">TinyXML2::StrPair::</text>
<text text-anchor="middle" x="562" y="-555" font-family="Helvetica,sans-Serif" font-size="10.00">Reset</text>
</a>
</g>
</g>
<!-- Node17&#45;&gt;Node18 -->
<g id="edge22" class="edge"><title>Node17&#45;&gt;Node18</title>
<path fill="none" stroke="midnightblue" d="M453.862,-563C468.521,-563 484.668,-563 499.88,-563"/>
<polygon fill="midnightblue" stroke="midnightblue" points="500.233,-566.5 510.233,-563 500.233,-559.5 500.233,-566.5"/>
</g>
<!-- Node22 -->
<g id="node22" class="node"><title>Node22</title>
<g id="a_node22"><a xlink:href="classTinyXML2_1_1StrPair.xhtml#a7d56cd79475b9e7e6349134b89331311" target="_top" xlink:title="TinyXML2::StrPair::\lCollapseWhitespace">
<polygon fill="none" stroke="black" points="669.5,-203 669.5,-233 776.5,-233 776.5,-203 669.5,-203"/>
<text text-anchor="start" x="677.5" y="-221" font-family="Helvetica,sans-Serif" font-size="10.00">TinyXML2::StrPair::</text>
<text text-anchor="middle" x="723" y="-210" font-family="Helvetica,sans-Serif" font-size="10.00">CollapseWhitespace</text>
</a>
</g>
</g>
<!-- Node21&#45;&gt;Node22 -->
<g id="edge27" class="edge"><title>Node21&#45;&gt;Node22</title>
<path fill="none" stroke="midnightblue" d="M596.72,-273.943C620.751,-263.212 653.249,-248.7 679.124,-237.146"/>
<polygon fill="midnightblue" stroke="midnightblue" points="680.625,-240.309 688.329,-233.036 677.771,-233.917 680.625,-240.309"/>
</g>
<!-- Node24 -->
<g id="node24" class="node"><title>Node24</title>
<g id="a_node24"><a xlink:href="classTinyXML2_1_1XMLUtil.xhtml#a7b69ac5d9474c28a4b2fd675d692ea43" target="_top" xlink:title="TinyXML2::XMLUtil::\lGetCharacterRef">
<polygon fill="none" stroke="black" points="669,-274 669,-304 777,-304 777,-274 669,-274"/>
<text text-anchor="start" x="677" y="-292" font-family="Helvetica,sans-Serif" font-size="10.00">TinyXML2::XMLUtil::</text>
<text text-anchor="middle" x="723" y="-281" font-family="Helvetica,sans-Serif" font-size="10.00">GetCharacterRef</text>
</a>
</g>
</g>
<!-- Node21&#45;&gt;Node24 -->
<g id="edge30" class="edge"><title>Node21&#45;&gt;Node24</title>
<path fill="none" stroke="midnightblue" d="M613.746,-289C628.071,-289 643.836,-289 658.797,-289"/>
<polygon fill="midnightblue" stroke="midnightblue" points="658.998,-292.5 668.998,-289 658.998,-285.5 658.998,-292.5"/>
</g>
<!-- Node22&#45;&gt;Node12 -->
<g id="edge29" class="edge"><title>Node22&#45;&gt;Node12</title>
<path fill="none" stroke="midnightblue" d="M748.301,-202.812C775.831,-185.606 820.831,-157.481 851.396,-138.377"/>
<polygon fill="midnightblue" stroke="midnightblue" points="853.37,-141.271 859.995,-133.003 849.66,-135.335 853.37,-141.271"/>
</g>
<!-- Node23 -->
<g id="node23" class="node"><title>Node23</title>
<g id="a_node23"><a xlink:href="classTinyXML2_1_1XMLUtil.xhtml#aa1b7cab8abab24f6deeb0b34a31b5a86" target="_top" xlink:title="TinyXML2::XMLUtil::\lIsWhiteSpace">
<polygon fill="none" stroke="black" points="831,-203 831,-233 939,-233 939,-203 831,-203"/>
<text text-anchor="start" x="839" y="-221" font-family="Helvetica,sans-Serif" font-size="10.00">TinyXML2::XMLUtil::</text>
<text text-anchor="middle" x="885" y="-210" font-family="Helvetica,sans-Serif" font-size="10.00">IsWhiteSpace</text>
</a>
</g>
</g>
<!-- Node22&#45;&gt;Node23 -->
<g id="edge28" class="edge"><title>Node22&#45;&gt;Node23</title>
<path fill="none" stroke="midnightblue" d="M776.833,-218C790.823,-218 806.071,-218 820.561,-218"/>
<polygon fill="midnightblue" stroke="midnightblue" points="820.949,-221.5 830.949,-218 820.949,-214.5 820.949,-221.5"/>
</g>
<!-- Node25 -->
<g id="node25" class="node"><title>Node25</title>
<g id="a_node25"><a xlink:href="classTinyXML2_1_1XMLUtil.xhtml#a568fea7b3c469d8fae0e1f3480a0d96c" target="_top" xlink:title="TinyXML2::XMLUtil::\lConvertUTF32ToUTF8">
<polygon fill="none" stroke="black" points="826.5,-274 826.5,-304 943.5,-304 943.5,-274 826.5,-274"/>
<text text-anchor="start" x="834.5" y="-292" font-family="Helvetica,sans-Serif" font-size="10.00">TinyXML2::XMLUtil::</text>
<text text-anchor="middle" x="885" y="-281" font-family="Helvetica,sans-Serif" font-size="10.00">ConvertUTF32ToUTF8</text>
</a>
</g>
</g>
<!-- Node24&#45;&gt;Node25 -->
<g id="edge31" class="edge"><title>Node24&#45;&gt;Node25</title>
<path fill="none" stroke="midnightblue" d="M777.278,-289C789.687,-289 803.066,-289 816.015,-289"/>
<polygon fill="midnightblue" stroke="midnightblue" points="816.281,-292.5 826.28,-289 816.28,-285.5 816.281,-292.5"/>
</g>
<!-- Node26&#45;&gt;Node21 -->
<g id="edge33" class="edge"><title>Node26&#45;&gt;Node21</title>
<path fill="none" stroke="midnightblue" d="M460.042,-289C473.015,-289 486.846,-289 499.977,-289"/>
<polygon fill="midnightblue" stroke="midnightblue" points="500.329,-292.5 510.329,-289 500.329,-285.5 500.329,-292.5"/>
</g>
<!-- Node27&#45;&gt;Node4 -->
<g id="edge35" class="edge"><title>Node27&#45;&gt;Node4</title>
<path fill="none" stroke="midnightblue" d="M460.161,-517.148C504.216,-520.337 566.45,-526.501 620,-538 697.641,-554.673 718.552,-558.339 790,-593 813.696,-604.496 838.353,-621.228 856.465,-634.561"/>
<polygon fill="midnightblue" stroke="midnightblue" points="854.694,-637.607 864.798,-640.794 858.887,-632.002 854.694,-637.607"/>
</g>
<!-- Node27&#45;&gt;Node19 -->
<g id="edge36" class="edge"><title>Node27&#45;&gt;Node19</title>
<path fill="none" stroke="midnightblue" d="M443.364,-498.886C451.552,-495.705 460.079,-492.309 468,-489 485.081,-481.865 503.713,-473.557 519.783,-466.223"/>
<polygon fill="midnightblue" stroke="midnightblue" points="521.287,-469.383 528.918,-462.033 518.369,-463.021 521.287,-469.383"/>
</g>
</g>
</svg>
