<?xml version="1.0" encoding="UTF-8" standalone="no"?>
<!DOCTYPE svg PUBLIC "-//W3C//DTD SVG 1.1//EN"
 "http://www.w3.org/Graphics/SVG/1.1/DTD/svg11.dtd">
<!-- Generated by graphviz version 2.36.0 (20140111.2315)
 -->
<!-- Title: Voxel::ParameterDMLParser::_prepare Pages: 1 -->
<svg width="946pt" height="248pt"
 viewBox="0.00 0.00 946.00 248.00" xmlns="http://www.w3.org/2000/svg" xmlns:xlink="http://www.w3.org/1999/xlink">
<g id="graph0" class="graph" transform="scale(1 1) rotate(0) translate(4 244)">
<title>Voxel::ParameterDMLParser::_prepare</title>
<!-- Node1 -->
<g id="node1" class="node"><title>Node1</title>
<polygon fill="#bfbfbf" stroke="black" points="0,-95 0,-125 142,-125 142,-95 0,-95"/>
<text text-anchor="start" x="8" y="-113" font-family="Helvetica,sans-Serif" font-size="10.00">Voxel::ParameterDMLParser</text>
<text text-anchor="middle" x="71" y="-102" font-family="Helvetica,sans-Serif" font-size="10.00">::_prepare</text>
</g>
<!-- Node2 -->
<g id="node2" class="node"><title>Node2</title>
<g id="a_node2"><a xlink:href="classVoxel_1_1ParameterDMLParser.xhtml#a4201ee5ff558a4f8c7d2091676fa0182" target="_top" xlink:title="Voxel::ParameterDMLParser\l::_goTo">
<polygon fill="none" stroke="black" points="178,-161 178,-191 320,-191 320,-161 178,-161"/>
<text text-anchor="start" x="186" y="-179" font-family="Helvetica,sans-Serif" font-size="10.00">Voxel::ParameterDMLParser</text>
<text text-anchor="middle" x="249" y="-168" font-family="Helvetica,sans-Serif" font-size="10.00">::_goTo</text>
</a>
</g>
</g>
<!-- Node1&#45;&gt;Node2 -->
<g id="edge1" class="edge"><title>Node1&#45;&gt;Node2</title>
<path fill="none" stroke="midnightblue" d="M112.378,-125.142C137.867,-134.7 170.984,-147.119 198.112,-157.292"/>
<polygon fill="midnightblue" stroke="midnightblue" points="197.218,-160.695 207.81,-160.929 199.676,-154.14 197.218,-160.695"/>
</g>
<!-- Node3 -->
<g id="node3" class="node"><title>Node3</title>
<g id="a_node3"><a xlink:href="classTinyXML2_1_1XMLNode.xhtml#a86cc8875788543eee38da2b8f35efabc" target="_top" xlink:title="TinyXML2::XMLNode::\lFirstChildElement">
<polygon fill="none" stroke="black" points="360,-161 360,-191 476,-191 476,-161 360,-161"/>
<text text-anchor="start" x="368" y="-179" font-family="Helvetica,sans-Serif" font-size="10.00">TinyXML2::XMLNode::</text>
<text text-anchor="middle" x="418" y="-168" font-family="Helvetica,sans-Serif" font-size="10.00">FirstChildElement</text>
</a>
</g>
</g>
<!-- Node1&#45;&gt;Node3 -->
<g id="edge17" class="edge"><title>Node1&#45;&gt;Node3</title>
<path fill="none" stroke="midnightblue" d="M142.013,-120.425C191.832,-128.193 260.253,-139.568 320,-152 329.745,-154.028 339.994,-156.352 350.032,-158.738"/>
<polygon fill="midnightblue" stroke="midnightblue" points="349.431,-162.194 359.973,-161.136 351.072,-155.389 349.431,-162.194"/>
</g>
<!-- Node7 -->
<g id="node7" class="node"><title>Node7</title>
<g id="a_node7"><a xlink:href="classTinyXML2_1_1XMLElement.xhtml#a824774b2d0c2b797d028a5e2434d3759" target="_top" xlink:title="TinyXML2::XMLElement\l::Attribute">
<polygon fill="none" stroke="black" points="187.5,-73 187.5,-103 310.5,-103 310.5,-73 187.5,-73"/>
<text text-anchor="start" x="195.5" y="-91" font-family="Helvetica,sans-Serif" font-size="10.00">TinyXML2::XMLElement</text>
<text text-anchor="middle" x="249" y="-80" font-family="Helvetica,sans-Serif" font-size="10.00">::Attribute</text>
</a>
</g>
</g>
<!-- Node1&#45;&gt;Node7 -->
<g id="edge6" class="edge"><title>Node1&#45;&gt;Node7</title>
<path fill="none" stroke="midnightblue" d="M142.066,-101.242C153.632,-99.796 165.63,-98.2963 177.213,-96.8483"/>
<polygon fill="midnightblue" stroke="midnightblue" points="177.777,-100.305 187.265,-95.5918 176.908,-93.3593 177.777,-100.305"/>
</g>
<!-- Node16 -->
<g id="node16" class="node"><title>Node16</title>
<g id="a_node16"><a xlink:href="classTinyXML2_1_1XMLElement.xhtml#a500100ed17cf94334286acf8f4ee73d9" target="_top" xlink:title="TinyXML2::XMLElement\l::IntAttribute">
<polygon fill="none" stroke="black" points="187.5,-24 187.5,-54 310.5,-54 310.5,-24 187.5,-24"/>
<text text-anchor="start" x="195.5" y="-42" font-family="Helvetica,sans-Serif" font-size="10.00">TinyXML2::XMLElement</text>
<text text-anchor="middle" x="249" y="-31" font-family="Helvetica,sans-Serif" font-size="10.00">::IntAttribute</text>
</a>
</g>
</g>
<!-- Node1&#45;&gt;Node16 -->
<g id="edge18" class="edge"><title>Node1&#45;&gt;Node16</title>
<path fill="none" stroke="midnightblue" d="M105.182,-94.9259C125.959,-85.6553 153.372,-73.7294 178,-64 183.459,-61.8434 189.188,-59.664 194.919,-57.5379"/>
<polygon fill="midnightblue" stroke="midnightblue" points="196.33,-60.7484 204.517,-54.0236 193.923,-54.1752 196.33,-60.7484"/>
</g>
<!-- Node2&#45;&gt;Node3 -->
<g id="edge2" class="edge"><title>Node2&#45;&gt;Node3</title>
<path fill="none" stroke="midnightblue" d="M320.339,-176C330.131,-176 340.17,-176 349.9,-176"/>
<polygon fill="midnightblue" stroke="midnightblue" points="349.904,-179.5 359.904,-176 349.904,-172.5 349.904,-179.5"/>
</g>
<!-- Node4 -->
<g id="node4" class="node"><title>Node4</title>
<g id="a_node4"><a xlink:href="classTinyXML2_1_1XMLElement.xhtml#afd22b33b33e7128f217f96ec5b2f1871" target="_top" xlink:title="Get the name of an element (which is the Value() of the node.) ">
<polygon fill="none" stroke="black" points="516.5,-210 516.5,-240 639.5,-240 639.5,-210 516.5,-210"/>
<text text-anchor="start" x="524.5" y="-228" font-family="Helvetica,sans-Serif" font-size="10.00">TinyXML2::XMLElement</text>
<text text-anchor="middle" x="578" y="-217" font-family="Helvetica,sans-Serif" font-size="10.00">::Name</text>
</a>
</g>
</g>
<!-- Node3&#45;&gt;Node4 -->
<g id="edge3" class="edge"><title>Node3&#45;&gt;Node4</title>
<path fill="none" stroke="midnightblue" d="M467.694,-191.101C483.839,-196.108 501.974,-201.732 518.762,-206.939"/>
<polygon fill="midnightblue" stroke="midnightblue" points="517.878,-210.329 528.466,-209.948 519.952,-203.643 517.878,-210.329"/>
</g>
<!-- Node5 -->
<g id="node5" class="node"><title>Node5</title>
<g id="a_node5"><a xlink:href="classTinyXML2_1_1XMLUtil.xhtml#af0f1d719f7e1067ec06eeb2d687520a5" target="_top" xlink:title="TinyXML2::XMLUtil::\lStringEqual">
<polygon fill="none" stroke="black" points="524,-112 524,-142 632,-142 632,-112 524,-112"/>
<text text-anchor="start" x="532" y="-130" font-family="Helvetica,sans-Serif" font-size="10.00">TinyXML2::XMLUtil::</text>
<text text-anchor="middle" x="578" y="-119" font-family="Helvetica,sans-Serif" font-size="10.00">StringEqual</text>
</a>
</g>
</g>
<!-- Node3&#45;&gt;Node5 -->
<g id="edge4" class="edge"><title>Node3&#45;&gt;Node5</title>
<path fill="none" stroke="midnightblue" d="M467.694,-160.899C483.839,-155.892 501.974,-150.268 518.762,-145.061"/>
<polygon fill="midnightblue" stroke="midnightblue" points="519.952,-148.357 528.466,-142.052 517.878,-141.671 519.952,-148.357"/>
</g>
<!-- Node6 -->
<g id="node6" class="node"><title>Node6</title>
<g id="a_node6"><a xlink:href="classTinyXML2_1_1XMLElement.xhtml#a6ab4f6a3ad156db7daab35c9218d9f4a" target="_top" xlink:title="Safely cast to an Element, or null. ">
<polygon fill="none" stroke="black" points="516.5,-161 516.5,-191 639.5,-191 639.5,-161 516.5,-161"/>
<text text-anchor="start" x="524.5" y="-179" font-family="Helvetica,sans-Serif" font-size="10.00">TinyXML2::XMLElement</text>
<text text-anchor="middle" x="578" y="-168" font-family="Helvetica,sans-Serif" font-size="10.00">::ToElement</text>
</a>
</g>
</g>
<!-- Node3&#45;&gt;Node6 -->
<g id="edge5" class="edge"><title>Node3&#45;&gt;Node6</title>
<path fill="none" stroke="midnightblue" d="M476.042,-176C485.853,-176 496.156,-176 506.275,-176"/>
<polygon fill="midnightblue" stroke="midnightblue" points="506.309,-179.5 516.308,-176 506.308,-172.5 506.309,-179.5"/>
</g>
<!-- Node7&#45;&gt;Node5 -->
<g id="edge9" class="edge"><title>Node7&#45;&gt;Node5</title>
<path fill="none" stroke="midnightblue" d="M308.845,-103.025C324.113,-106.454 340.597,-109.747 356,-112 408.776,-119.718 469.236,-123.476 513.562,-125.3"/>
<polygon fill="midnightblue" stroke="midnightblue" points="513.486,-128.799 523.615,-125.691 513.759,-121.804 513.486,-128.799"/>
</g>
<!-- Node8 -->
<g id="node8" class="node"><title>Node8</title>
<g id="a_node8"><a xlink:href="classTinyXML2_1_1XMLElement.xhtml#a6461265b324c3901b5d83d51e9560693" target="_top" xlink:title="Query a specific attribute in the list. ">
<polygon fill="none" stroke="black" points="356.5,-73 356.5,-103 479.5,-103 479.5,-73 356.5,-73"/>
<text text-anchor="start" x="364.5" y="-91" font-family="Helvetica,sans-Serif" font-size="10.00">TinyXML2::XMLElement</text>
<text text-anchor="middle" x="418" y="-80" font-family="Helvetica,sans-Serif" font-size="10.00">::FindAttribute</text>
</a>
</g>
</g>
<!-- Node7&#45;&gt;Node8 -->
<g id="edge7" class="edge"><title>Node7&#45;&gt;Node8</title>
<path fill="none" stroke="midnightblue" d="M310.763,-88C322.232,-88 334.32,-88 346.069,-88"/>
<polygon fill="midnightblue" stroke="midnightblue" points="346.282,-91.5001 356.282,-88 346.282,-84.5001 346.282,-91.5001"/>
</g>
<!-- Node9 -->
<g id="node9" class="node"><title>Node9</title>
<g id="a_node9"><a xlink:href="classTinyXML2_1_1XMLAttribute.xhtml#a446d3d65226fa84cca9c038521bfa0e6" target="_top" xlink:title="The value of the attribute. ">
<polygon fill="none" stroke="black" points="356,-24 356,-54 480,-54 480,-24 356,-24"/>
<text text-anchor="start" x="364" y="-42" font-family="Helvetica,sans-Serif" font-size="10.00">TinyXML2::XMLAttribute</text>
<text text-anchor="middle" x="418" y="-31" font-family="Helvetica,sans-Serif" font-size="10.00">::Value</text>
</a>
</g>
</g>
<!-- Node7&#45;&gt;Node9 -->
<g id="edge10" class="edge"><title>Node7&#45;&gt;Node9</title>
<path fill="none" stroke="midnightblue" d="M301.468,-72.8986C318.692,-67.8449 338.059,-62.1624 355.942,-56.9152"/>
<polygon fill="midnightblue" stroke="midnightblue" points="357.092,-60.2255 365.702,-54.0516 355.121,-53.5087 357.092,-60.2255"/>
</g>
<!-- Node8&#45;&gt;Node5 -->
<g id="edge8" class="edge"><title>Node8&#45;&gt;Node5</title>
<path fill="none" stroke="midnightblue" d="M479.635,-102.967C490.876,-105.741 502.641,-108.646 513.952,-111.437"/>
<polygon fill="midnightblue" stroke="midnightblue" points="513.202,-114.857 523.749,-113.856 514.879,-108.061 513.202,-114.857"/>
</g>
<!-- Node10 -->
<g id="node10" class="node"><title>Node10</title>
<g id="a_node10"><a xlink:href="classTinyXML2_1_1StrPair.xhtml#a5e2c5bd32ba79f32f219cf9301c2bce6" target="_top" xlink:title="TinyXML2::StrPair::\lGetStr">
<polygon fill="none" stroke="black" points="526.5,-24 526.5,-54 629.5,-54 629.5,-24 526.5,-24"/>
<text text-anchor="start" x="534.5" y="-42" font-family="Helvetica,sans-Serif" font-size="10.00">TinyXML2::StrPair::</text>
<text text-anchor="middle" x="578" y="-31" font-family="Helvetica,sans-Serif" font-size="10.00">GetStr</text>
</a>
</g>
</g>
<!-- Node9&#45;&gt;Node10 -->
<g id="edge11" class="edge"><title>Node9&#45;&gt;Node10</title>
<path fill="none" stroke="midnightblue" d="M480.087,-39C491.908,-39 504.293,-39 516.108,-39"/>
<polygon fill="midnightblue" stroke="midnightblue" points="516.315,-42.5001 526.315,-39 516.315,-35.5001 516.315,-42.5001"/>
</g>
<!-- Node11 -->
<g id="node11" class="node"><title>Node11</title>
<g id="a_node11"><a xlink:href="classTinyXML2_1_1StrPair.xhtml#a7d56cd79475b9e7e6349134b89331311" target="_top" xlink:title="TinyXML2::StrPair::\lCollapseWhitespace">
<polygon fill="none" stroke="black" points="676.5,-49 676.5,-79 783.5,-79 783.5,-49 676.5,-49"/>
<text text-anchor="start" x="684.5" y="-67" font-family="Helvetica,sans-Serif" font-size="10.00">TinyXML2::StrPair::</text>
<text text-anchor="middle" x="730" y="-56" font-family="Helvetica,sans-Serif" font-size="10.00">CollapseWhitespace</text>
</a>
</g>
</g>
<!-- Node10&#45;&gt;Node11 -->
<g id="edge12" class="edge"><title>Node10&#45;&gt;Node11</title>
<path fill="none" stroke="midnightblue" d="M629.783,-47.4639C641.536,-49.4227 654.178,-51.5296 666.371,-53.5618"/>
<polygon fill="midnightblue" stroke="midnightblue" points="666.039,-57.0546 676.478,-55.2463 667.19,-50.1499 666.039,-57.0546"/>
</g>
<!-- Node14 -->
<g id="node14" class="node"><title>Node14</title>
<g id="a_node14"><a xlink:href="classTinyXML2_1_1XMLUtil.xhtml#a7b69ac5d9474c28a4b2fd675d692ea43" target="_top" xlink:title="TinyXML2::XMLUtil::\lGetCharacterRef">
<polygon fill="none" stroke="black" points="676,-0 676,-30 784,-30 784,-0 676,-0"/>
<text text-anchor="start" x="684" y="-18" font-family="Helvetica,sans-Serif" font-size="10.00">TinyXML2::XMLUtil::</text>
<text text-anchor="middle" x="730" y="-7" font-family="Helvetica,sans-Serif" font-size="10.00">GetCharacterRef</text>
</a>
</g>
</g>
<!-- Node10&#45;&gt;Node14 -->
<g id="edge15" class="edge"><title>Node10&#45;&gt;Node14</title>
<path fill="none" stroke="midnightblue" d="M629.783,-30.8747C641.403,-29.0155 653.892,-27.0173 665.957,-25.0868"/>
<polygon fill="midnightblue" stroke="midnightblue" points="666.642,-28.5218 675.964,-23.4858 665.537,-21.6097 666.642,-28.5218"/>
</g>
<!-- Node12 -->
<g id="node12" class="node"><title>Node12</title>
<g id="a_node12"><a xlink:href="classTinyXML2_1_1XMLUtil.xhtml#aa1b7cab8abab24f6deeb0b34a31b5a86" target="_top" xlink:title="TinyXML2::XMLUtil::\lIsWhiteSpace">
<polygon fill="none" stroke="black" points="825,-98 825,-128 933,-128 933,-98 825,-98"/>
<text text-anchor="start" x="833" y="-116" font-family="Helvetica,sans-Serif" font-size="10.00">TinyXML2::XMLUtil::</text>
<text text-anchor="middle" x="879" y="-105" font-family="Helvetica,sans-Serif" font-size="10.00">IsWhiteSpace</text>
</a>
</g>
</g>
<!-- Node11&#45;&gt;Node12 -->
<g id="edge13" class="edge"><title>Node11&#45;&gt;Node12</title>
<path fill="none" stroke="midnightblue" d="M776.304,-79.1014C791.044,-84.0147 807.567,-89.5224 822.94,-94.6466"/>
<polygon fill="midnightblue" stroke="midnightblue" points="822.252,-98.1065 832.845,-97.9484 824.465,-91.4657 822.252,-98.1065"/>
</g>
<!-- Node13 -->
<g id="node13" class="node"><title>Node13</title>
<g id="a_node13"><a xlink:href="classTinyXML2_1_1XMLUtil.xhtml#a151c32ae2f90003379a2fc78a80da4f1" target="_top" xlink:title="TinyXML2::XMLUtil::\lSkipWhiteSpace">
<polygon fill="none" stroke="black" points="825,-49 825,-79 933,-79 933,-49 825,-49"/>
<text text-anchor="start" x="833" y="-67" font-family="Helvetica,sans-Serif" font-size="10.00">TinyXML2::XMLUtil::</text>
<text text-anchor="middle" x="879" y="-56" font-family="Helvetica,sans-Serif" font-size="10.00">SkipWhiteSpace</text>
</a>
</g>
</g>
<!-- Node11&#45;&gt;Node13 -->
<g id="edge14" class="edge"><title>Node11&#45;&gt;Node13</title>
<path fill="none" stroke="midnightblue" d="M783.655,-64C793.665,-64 804.237,-64 814.54,-64"/>
<polygon fill="midnightblue" stroke="midnightblue" points="814.723,-67.5001 824.723,-64 814.723,-60.5001 814.723,-67.5001"/>
</g>
<!-- Node15 -->
<g id="node15" class="node"><title>Node15</title>
<g id="a_node15"><a xlink:href="classTinyXML2_1_1XMLUtil.xhtml#a568fea7b3c469d8fae0e1f3480a0d96c" target="_top" xlink:title="TinyXML2::XMLUtil::\lConvertUTF32ToUTF8">
<polygon fill="none" stroke="black" points="820.5,-0 820.5,-30 937.5,-30 937.5,-0 820.5,-0"/>
<text text-anchor="start" x="828.5" y="-18" font-family="Helvetica,sans-Serif" font-size="10.00">TinyXML2::XMLUtil::</text>
<text text-anchor="middle" x="879" y="-7" font-family="Helvetica,sans-Serif" font-size="10.00">ConvertUTF32ToUTF8</text>
</a>
</g>
</g>
<!-- Node14&#45;&gt;Node15 -->
<g id="edge16" class="edge"><title>Node14&#45;&gt;Node15</title>
<path fill="none" stroke="midnightblue" d="M784.07,-15C792.523,-15 801.367,-15 810.105,-15"/>
<polygon fill="midnightblue" stroke="midnightblue" points="810.284,-18.5001 820.284,-15 810.284,-11.5001 810.284,-18.5001"/>
</g>
</g>
</svg>
