<?xml version="1.0" encoding="UTF-8" standalone="no"?>
<!DOCTYPE svg PUBLIC "-//W3C//DTD SVG 1.1//EN"
 "http://www.w3.org/Graphics/SVG/1.1/DTD/svg11.dtd">
<!-- Generated by graphviz version 2.36.0 (20140111.2315)
 -->
<!-- Title: ELFIO::elfio::Segments::size Pages: 1 -->
<!--zoomable 224 -->
<svg id="main" version="1.1" xmlns="http://www.w3.org/2000/svg" xmlns:xlink="http://www.w3.org/1999/xlink" xml:space="preserve" onload="init(evt)">
<style type="text/css"><![CDATA[
.edge:hover path { stroke: red; }
.edge:hover polygon { stroke: red; fill: red; }
]]></style>
<script type="text/javascript"><![CDATA[
var edges = document.getElementsByTagName('g');
if (edges && edges.length) {
  for (var i=0;i<edges.length;i++) {
    if (edges[i].id.substr(0,4)=='edge') {
      edges[i].setAttribute('class','edge');
    }
  }
}
]]></script>
        <defs>
                <circle id="rim" cx="0" cy="0" r="7"/>
                <circle id="rim2" cx="0" cy="0" r="3.5"/>
                <g id="zoomPlus">
                        <use xlink:href="#rim" fill="#404040">
                                <set attributeName="fill" to="#808080" begin="zoomplus.mouseover" end="zoomplus.mouseout"/>
                        </use>
                        <path d="M-4,0h8M0,-4v8" fill="none" stroke="white" stroke-width="1.5" pointer-events="none"/>
                </g>
                <g id="zoomMin">
                        <use xlink:href="#rim" fill="#404040">
                                <set attributeName="fill" to="#808080" begin="zoomminus.mouseover" end="zoomminus.mouseout"/>
                        </use>
                        <path d="M-4,0h8" fill="none" stroke="white" stroke-width="1.5" pointer-events="none"/>
                </g>
                <g id="dirArrow">
                        <path fill="none" stroke="white" stroke-width="1.5" d="M0,-3.0v7 M-2.5,-0.5L0,-3.0L2.5,-0.5"/>
                </g>
               <g id="resetDef">
                       <use xlink:href="#rim2" fill="#404040">
                               <set attributeName="fill" to="#808080" begin="reset.mouseover" end="reset.mouseout"/>
                       </use>
               </g>
        </defs>

<script type="text/javascript">
var viewWidth = 610;
var viewHeight = 224;
var sectionId = 'dynsection-2';
</script>
<script xlink:href="svgpan.js"/>
<svg id="graph" class="graph">
<g id="viewport">
<title>ELFIO::elfio::Segments::size</title>
<!-- Node1 -->
<g id="node1" class="node"><title>Node1</title>
<polygon fill="#bfbfbf" stroke="black" points="0.5,-98 0.5,-128 119.5,-128 119.5,-98 0.5,-98"/>
<text text-anchor="start" x="8.5" y="-116" font-family="Helvetica,sans-Serif" font-size="10.00">ELFIO::elfio::Segments</text>
<text text-anchor="middle" x="60" y="-105" font-family="Helvetica,sans-Serif" font-size="10.00">::size</text>
</g>
<!-- Node2 -->
<g id="node2" class="node"><title>Node2</title>
<g id="a_node2"><a xlink:href="classELFIO_1_1elfio.xhtml#a6ae5a2aeca80ad4ddac396673e3fa745" target="_top" xlink:title="ELFIO::elfio::get_ordered\l_segments">
<polygon fill="none" stroke="black" points="156,-186 156,-216 282,-216 282,-186 156,-186"/>
<text text-anchor="start" x="164" y="-204" font-family="Helvetica,sans-Serif" font-size="10.00">ELFIO::elfio::get_ordered</text>
<text text-anchor="middle" x="219" y="-193" font-family="Helvetica,sans-Serif" font-size="10.00">_segments</text>
</a>
</g>
</g>
<!-- Node1&#45;&gt;Node2 -->
<g id="edge1" class="edge"><title>Node1&#45;&gt;Node2</title>
<path fill="none" stroke="midnightblue" d="M92.9353,-133.57C111.156,-145.033 134.57,-159.309 156,-171 165.343,-176.097 175.683,-181.275 185.198,-185.863"/>
<polygon fill="midnightblue" stroke="midnightblue" points="94.7605,-130.583 84.439,-128.192 91.0167,-136.498 94.7605,-130.583"/>
</g>
<!-- Node4 -->
<g id="node4" class="node"><title>Node4</title>
<g id="a_node4"><a xlink:href="classELFIO_1_1elfio.xhtml#a4dfd167b10c72779390871865d16db61" target="_top" xlink:title="ELFIO::elfio::save">
<polygon fill="none" stroke="black" points="506,-147.5 506,-166.5 602,-166.5 602,-147.5 506,-147.5"/>
<text text-anchor="middle" x="554" y="-154.5" font-family="Helvetica,sans-Serif" font-size="10.00">ELFIO::elfio::save</text>
</a>
</g>
</g>
<!-- Node1&#45;&gt;Node4 -->
<g id="edge7" class="edge"><title>Node1&#45;&gt;Node4</title>
<path fill="none" stroke="midnightblue" d="M122.827,-130.487C133.802,-133.055 145.181,-135.377 156,-137 281.405,-155.811 431.319,-157.922 505.95,-157.615"/>
<polygon fill="midnightblue" stroke="midnightblue" points="123.434,-127.033 112.89,-128.073 121.781,-133.835 123.434,-127.033"/>
</g>
<!-- Node5 -->
<g id="node5" class="node"><title>Node5</title>
<g id="a_node5"><a xlink:href="classELFIO_1_1elfio.xhtml#addb0a18fc070853b97cc3a3a6b51391f" target="_top" xlink:title="ELFIO::elfio::is_section\l_without_segment">
<polygon fill="none" stroke="black" points="159.5,-98 159.5,-128 278.5,-128 278.5,-98 159.5,-98"/>
<text text-anchor="start" x="167.5" y="-116" font-family="Helvetica,sans-Serif" font-size="10.00">ELFIO::elfio::is_section</text>
<text text-anchor="middle" x="219" y="-105" font-family="Helvetica,sans-Serif" font-size="10.00">_without_segment</text>
</a>
</g>
</g>
<!-- Node1&#45;&gt;Node5 -->
<g id="edge4" class="edge"><title>Node1&#45;&gt;Node5</title>
<path fill="none" stroke="midnightblue" d="M129.992,-113C139.762,-113 149.732,-113 159.284,-113"/>
<polygon fill="midnightblue" stroke="midnightblue" points="129.908,-109.5 119.908,-113 129.908,-116.5 129.908,-109.5"/>
</g>
<!-- Node7 -->
<g id="node7" class="node"><title>Node7</title>
<g id="a_node7"><a xlink:href="classELFIO_1_1dump.xhtml#a057132b6114ffffe9cf5266307727af1" target="_top" xlink:title="ELFIO::dump::segment\l_datas">
<polygon fill="none" stroke="black" points="159.5,-49 159.5,-79 278.5,-79 278.5,-49 159.5,-49"/>
<text text-anchor="start" x="167.5" y="-67" font-family="Helvetica,sans-Serif" font-size="10.00">ELFIO::dump::segment</text>
<text text-anchor="middle" x="219" y="-56" font-family="Helvetica,sans-Serif" font-size="10.00">_datas</text>
</a>
</g>
</g>
<!-- Node1&#45;&gt;Node7 -->
<g id="edge8" class="edge"><title>Node1&#45;&gt;Node7</title>
<path fill="none" stroke="midnightblue" d="M119.035,-94.8871C135.726,-89.6778 153.744,-84.0543 169.774,-79.0516"/>
<polygon fill="midnightblue" stroke="midnightblue" points="117.889,-91.5781 109.386,-97.8986 119.975,-98.2603 117.889,-91.5781"/>
</g>
<!-- Node8 -->
<g id="node8" class="node"><title>Node8</title>
<g id="a_node8"><a xlink:href="classELFIO_1_1dump.xhtml#ad1a6efd3db614d85b0c50a54451e696a" target="_top" xlink:title="ELFIO::dump::segment\l_headers">
<polygon fill="none" stroke="black" points="159.5,-0 159.5,-30 278.5,-30 278.5,-0 159.5,-0"/>
<text text-anchor="start" x="167.5" y="-18" font-family="Helvetica,sans-Serif" font-size="10.00">ELFIO::dump::segment</text>
<text text-anchor="middle" x="219" y="-7" font-family="Helvetica,sans-Serif" font-size="10.00">_headers</text>
</a>
</g>
</g>
<!-- Node1&#45;&gt;Node8 -->
<g id="edge9" class="edge"><title>Node1&#45;&gt;Node8</title>
<path fill="none" stroke="midnightblue" d="M85.4873,-91.1797C103.936,-75.5103 130.359,-54.6551 156,-40 162.348,-36.3718 169.327,-33.0153 176.241,-30.0165"/>
<polygon fill="midnightblue" stroke="midnightblue" points="83.142,-88.5804 77.8491,-97.7584 87.7102,-93.8844 83.142,-88.5804"/>
</g>
<!-- Node3 -->
<g id="node3" class="node"><title>Node3</title>
<g id="a_node3"><a xlink:href="classELFIO_1_1elfio.xhtml#afeb689c3a26b7c317e89f26a6390fce2" target="_top" xlink:title="ELFIO::elfio::layout\l_segments_and_their_sections">
<polygon fill="none" stroke="black" points="318,-186 318,-216 470,-216 470,-186 318,-186"/>
<text text-anchor="start" x="326" y="-204" font-family="Helvetica,sans-Serif" font-size="10.00">ELFIO::elfio::layout</text>
<text text-anchor="middle" x="394" y="-193" font-family="Helvetica,sans-Serif" font-size="10.00">_segments_and_their_sections</text>
</a>
</g>
</g>
<!-- Node2&#45;&gt;Node3 -->
<g id="edge2" class="edge"><title>Node2&#45;&gt;Node3</title>
<path fill="none" stroke="midnightblue" d="M292.578,-201C300.966,-201 309.533,-201 317.953,-201"/>
<polygon fill="midnightblue" stroke="midnightblue" points="292.457,-197.5 282.457,-201 292.457,-204.5 292.457,-197.5"/>
</g>
<!-- Node3&#45;&gt;Node4 -->
<g id="edge3" class="edge"><title>Node3&#45;&gt;Node4</title>
<path fill="none" stroke="midnightblue" d="M458.827,-183.226C479.262,-177.535 501.106,-171.452 518.605,-166.578"/>
<polygon fill="midnightblue" stroke="midnightblue" points="457.627,-179.926 448.933,-185.981 459.505,-186.67 457.627,-179.926"/>
</g>
<!-- Node6 -->
<g id="node6" class="node"><title>Node6</title>
<g id="a_node6"><a xlink:href="classELFIO_1_1elfio.xhtml#a4fc135345793b514b770826a4f276267" target="_top" xlink:title="ELFIO::elfio::layout\l_sections_without_segments">
<polygon fill="none" stroke="black" points="322.5,-98 322.5,-128 465.5,-128 465.5,-98 322.5,-98"/>
<text text-anchor="start" x="330.5" y="-116" font-family="Helvetica,sans-Serif" font-size="10.00">ELFIO::elfio::layout</text>
<text text-anchor="middle" x="394" y="-105" font-family="Helvetica,sans-Serif" font-size="10.00">_sections_without_segments</text>
</a>
</g>
</g>
<!-- Node5&#45;&gt;Node6 -->
<g id="edge5" class="edge"><title>Node5&#45;&gt;Node6</title>
<path fill="none" stroke="midnightblue" d="M288.585,-113C299.639,-113 311.101,-113 322.205,-113"/>
<polygon fill="midnightblue" stroke="midnightblue" points="288.57,-109.5 278.57,-113 288.57,-116.5 288.57,-109.5"/>
</g>
<!-- Node6&#45;&gt;Node4 -->
<g id="edge6" class="edge"><title>Node6&#45;&gt;Node4</title>
<path fill="none" stroke="midnightblue" d="M458.827,-130.774C479.262,-136.465 501.106,-142.548 518.605,-147.422"/>
<polygon fill="midnightblue" stroke="midnightblue" points="459.505,-127.33 448.933,-128.019 457.627,-134.074 459.505,-127.33"/>
</g>
</g>
</svg>
        <g id="navigator" transform="translate(0 0)" fill="#404254">
                <rect fill="#f2f5e9" fill-opacity="0.5" stroke="#606060" stroke-width=".5" x="0" y="0" width="60" height="60"/>
                <use id="zoomplus" xlink:href="#zoomPlus" x="17" y="9" onmousedown="handleZoom(evt,'in')"/>
                <use id="zoomminus" xlink:href="#zoomMin" x="42" y="9" onmousedown="handleZoom(evt,'out')"/>
                <use id="reset" xlink:href="#resetDef" x="30" y="36" onmousedown="handleReset()"/>
                <g id="arrowUp" xlink:href="#dirArrow" transform="translate(30 24)" onmousedown="handlePan(0,-1)">
                  <use xlink:href="#rim" fill="#404040">
                        <set attributeName="fill" to="#808080" begin="arrowUp.mouseover" end="arrowUp.mouseout"/>
                  </use>
                  <path fill="none" stroke="white" stroke-width="1.5" d="M0,-3.0v7 M-2.5,-0.5L0,-3.0L2.5,-0.5"/>
                </g>
                <g id="arrowRight" xlink:href="#dirArrow" transform="rotate(90) translate(36 -43)" onmousedown="handlePan(1,0)">
                  <use xlink:href="#rim" fill="#404040">
                        <set attributeName="fill" to="#808080" begin="arrowRight.mouseover" end="arrowRight.mouseout"/>
                  </use>
                  <path fill="none" stroke="white" stroke-width="1.5" d="M0,-3.0v7 M-2.5,-0.5L0,-3.0L2.5,-0.5"/>
                </g>
                <g id="arrowDown" xlink:href="#dirArrow" transform="rotate(180) translate(-30 -48)" onmousedown="handlePan(0,1)">
                  <use xlink:href="#rim" fill="#404040">
                        <set attributeName="fill" to="#808080" begin="arrowDown.mouseover" end="arrowDown.mouseout"/>
                  </use>
                  <path fill="none" stroke="white" stroke-width="1.5" d="M0,-3.0v7 M-2.5,-0.5L0,-3.0L2.5,-0.5"/>
                </g>
                <g id="arrowLeft" xlink:href="#dirArrow" transform="rotate(270) translate(-36 17)" onmousedown="handlePan(-1,0)">
                  <use xlink:href="#rim" fill="#404040">
                        <set attributeName="fill" to="#808080" begin="arrowLeft.mouseover" end="arrowLeft.mouseout"/>
                  </use>
                  <path fill="none" stroke="white" stroke-width="1.5" d="M0,-3.0v7 M-2.5,-0.5L0,-3.0L2.5,-0.5"/>
                </g>
        </g>
        <svg viewBox="0 0 15 15" width="100%" height="30px" preserveAspectRatio="xMaxYMin meet">
         <g id="arrow_out" transform="scale(0.3 0.3)">
          <a xlink:href="classELFIO_1_1elfio_1_1Segments_a18257fed02ff029ccca28e70b7eabfa6_icgraph_org.svg" target="_base">
           <rect id="button" ry="5" rx="5" y="6" x="6" height="38" width="38"
                fill="#f2f5e9" fill-opacity="0.5" stroke="#606060" stroke-width="1.0"/>
           <path id="arrow"
             d="M 11.500037,31.436501 C 11.940474,20.09759 22.043105,11.32322 32.158766,21.979434 L 37.068811,17.246167 C 37.068811,17.246167 37.088388,32 37.088388,32 L 22.160133,31.978069 C 22.160133,31.978069 26.997745,27.140456 26.997745,27.140456 C 18.528582,18.264221 13.291696,25.230495 11.500037,31.436501 z"
             style="fill:#404040;"/>
          </a>
         </g>
        </svg>
</svg>
