<?xml version="1.0" encoding="UTF-8" standalone="no"?>
<!DOCTYPE svg PUBLIC "-//W3C//DTD SVG 1.1//EN"
 "http://www.w3.org/Graphics/SVG/1.1/DTD/svg11.dtd">
<!-- Generated by graphviz version 2.36.0 (20140111.2315)
 -->
<!-- Title: Voxel::DepthCamera::reset Pages: 1 -->
<svg width="274pt" height="175pt"
 viewBox="0.00 0.00 274.00 175.00" xmlns="http://www.w3.org/2000/svg" xmlns:xlink="http://www.w3.org/1999/xlink">
<g id="graph0" class="graph" transform="scale(1 1) rotate(0) translate(4 171)">
<title>Voxel::DepthCamera::reset</title>
<!-- Node1 -->
<g id="node1" class="node"><title>Node1</title>
<polygon fill="#bfbfbf" stroke="black" points="0,-71 0,-101 108,-101 108,-71 0,-71"/>
<text text-anchor="start" x="8" y="-89" font-family="Helvetica,sans-Serif" font-size="10.00">Voxel::DepthCamera</text>
<text text-anchor="middle" x="54" y="-78" font-family="Helvetica,sans-Serif" font-size="10.00">::reset</text>
</g>
<!-- Node2 -->
<g id="node2" class="node"><title>Node2</title>
<g id="a_node2"><a xlink:href="classVoxel_1_1DepthCamera.xhtml#ac90898776b55e5f4174dc8bae46c7a95" target="_top" xlink:title="Voxel::DepthCamera\l::_reset">
<polygon fill="none" stroke="black" points="151,-137 151,-167 259,-167 259,-137 151,-137"/>
<text text-anchor="start" x="159" y="-155" font-family="Helvetica,sans-Serif" font-size="10.00">Voxel::DepthCamera</text>
<text text-anchor="middle" x="205" y="-144" font-family="Helvetica,sans-Serif" font-size="10.00">::_reset</text>
</a>
</g>
</g>
<!-- Node1&#45;&gt;Node2 -->
<g id="edge1" class="edge"><title>Node1&#45;&gt;Node2</title>
<path fill="none" stroke="midnightblue" d="M87.003,-101.09C103.888,-108.963 124.992,-118.665 144,-127 148.418,-128.937 153.034,-130.925 157.658,-132.892"/>
<polygon fill="midnightblue" stroke="midnightblue" points="156.527,-136.213 167.101,-136.877 159.249,-129.764 156.527,-136.213"/>
</g>
<!-- Node3 -->
<g id="node3" class="node"><title>Node3</title>
<g id="a_node3"><a xlink:href="classVoxel_1_1DepthCamera.xhtml#ad9fa96ac56384c771fcdfcc76c0e3b2b" target="_top" xlink:title="Voxel::DepthCamera::id">
<polygon fill="none" stroke="black" points="144,-98.5 144,-117.5 266,-117.5 266,-98.5 144,-98.5"/>
<text text-anchor="middle" x="205" y="-105.5" font-family="Helvetica,sans-Serif" font-size="10.00">Voxel::DepthCamera::id</text>
</a>
</g>
</g>
<!-- Node1&#45;&gt;Node3 -->
<g id="edge2" class="edge"><title>Node1&#45;&gt;Node3</title>
<path fill="none" stroke="midnightblue" d="M108.372,-93.8804C116.654,-95.1033 125.316,-96.3823 133.901,-97.6498"/>
<polygon fill="midnightblue" stroke="midnightblue" points="133.51,-101.13 143.914,-99.1283 134.533,-94.2051 133.51,-101.13"/>
</g>
<!-- Node4 -->
<g id="node4" class="node"><title>Node4</title>
<g id="a_node4"><a xlink:href="classVoxel_1_1DepthCamera.xhtml#a1ff46a5643f0a02a6970236e0b6a7634" target="_top" xlink:title="Voxel::DepthCamera\l::isRunning">
<polygon fill="none" stroke="black" points="151,-49 151,-79 259,-79 259,-49 151,-49"/>
<text text-anchor="start" x="159" y="-67" font-family="Helvetica,sans-Serif" font-size="10.00">Voxel::DepthCamera</text>
<text text-anchor="middle" x="205" y="-56" font-family="Helvetica,sans-Serif" font-size="10.00">::isRunning</text>
</a>
</g>
</g>
<!-- Node1&#45;&gt;Node4 -->
<g id="edge3" class="edge"><title>Node1&#45;&gt;Node4</title>
<path fill="none" stroke="midnightblue" d="M108.372,-78.1196C118.813,-76.578 129.858,-74.9472 140.589,-73.3628"/>
<polygon fill="midnightblue" stroke="midnightblue" points="141.369,-76.7855 150.751,-71.8623 140.347,-69.8606 141.369,-76.7855"/>
</g>
<!-- Node5 -->
<g id="node5" class="node"><title>Node5</title>
<g id="a_node5"><a xlink:href="classVoxel_1_1DepthCamera.xhtml#a4724cd30f939a4b633ba7b8c3dcfe307" target="_top" xlink:title="Voxel::DepthCamera\l::resetFilters">
<polygon fill="none" stroke="black" points="151,-0 151,-30 259,-30 259,-0 151,-0"/>
<text text-anchor="start" x="159" y="-18" font-family="Helvetica,sans-Serif" font-size="10.00">Voxel::DepthCamera</text>
<text text-anchor="middle" x="205" y="-7" font-family="Helvetica,sans-Serif" font-size="10.00">::resetFilters</text>
</a>
</g>
</g>
<!-- Node1&#45;&gt;Node5 -->
<g id="edge4" class="edge"><title>Node1&#45;&gt;Node5</title>
<path fill="none" stroke="midnightblue" d="M82.7661,-70.9011C100.176,-61.6213 123.188,-49.6942 144,-40 148.14,-38.0717 152.47,-36.1283 156.827,-34.2228"/>
<polygon fill="midnightblue" stroke="midnightblue" points="158.539,-37.2965 166.345,-30.1324 155.776,-30.8653 158.539,-37.2965"/>
</g>
</g>
</svg>
