<?xml version="1.0" encoding="UTF-8" standalone="no"?>
<!DOCTYPE svg PUBLIC "-//W3C//DTD SVG 1.1//EN"
 "http://www.w3.org/Graphics/SVG/1.1/DTD/svg11.dtd">
<!-- Generated by graphviz version 2.36.0 (20140111.2315)
 -->
<!-- Title: TinyXML2::XMLPrinter Pages: 1 -->
<svg width="720pt" height="422pt"
 viewBox="0.00 0.00 720.00 422.00" xmlns="http://www.w3.org/2000/svg" xmlns:xlink="http://www.w3.org/1999/xlink">
<g id="graph0" class="graph" transform="scale(1 1) rotate(0) translate(4 418)">
<title>TinyXML2::XMLPrinter</title>
<!-- Node1 -->
<g id="node1" class="node"><title>Node1</title>
<polygon fill="#bfbfbf" stroke="black" points="596,-277.5 596,-296.5 712,-296.5 712,-277.5 596,-277.5"/>
<text text-anchor="middle" x="654" y="-284.5" font-family="Helvetica,sans-Serif" font-size="10.00">TinyXML2::XMLPrinter</text>
</g>
<!-- Node2 -->
<g id="node2" class="node"><title>Node2</title>
<g id="a_node2"><a xlink:href="classTinyXML2_1_1XMLVisitor.xhtml" target="_top" xlink:title="TinyXML2::XMLVisitor">
<polygon fill="none" stroke="black" points="348.5,-394.5 348.5,-413.5 463.5,-413.5 463.5,-394.5 348.5,-394.5"/>
<text text-anchor="middle" x="406" y="-401.5" font-family="Helvetica,sans-Serif" font-size="10.00">TinyXML2::XMLVisitor</text>
</a>
</g>
</g>
<!-- Node2&#45;&gt;Node1 -->
<g id="edge1" class="edge"><title>Node2&#45;&gt;Node1</title>
<path fill="none" stroke="midnightblue" d="M473.926,-405.375C507.102,-403.377 546.664,-396.776 578,-379 613.131,-359.071 638.431,-315.73 648.361,-296.508"/>
<polygon fill="midnightblue" stroke="midnightblue" points="473.673,-401.882 463.851,-405.854 474.006,-408.875 473.673,-401.882"/>
</g>
<!-- Node3 -->
<g id="node3" class="node"><title>Node3</title>
<polygon fill="none" stroke="#bfbfbf" points="384,-356.5 384,-375.5 428,-375.5 428,-356.5 384,-356.5"/>
<text text-anchor="middle" x="406" y="-363.5" font-family="Helvetica,sans-Serif" font-size="10.00">FILE *</text>
</g>
<!-- Node3&#45;&gt;Node1 -->
<g id="edge2" class="edge"><title>Node3&#45;&gt;Node1</title>
<path fill="none" stroke="#9a32cd" stroke-dasharray="5,2" d="M438.262,-366.14C473.476,-365.284 531.817,-360.773 578,-342 604.326,-331.298 629.903,-309.315 643.318,-296.621"/>
<polygon fill="#9a32cd" stroke="#9a32cd" points="438.058,-362.643 428.115,-366.3 438.169,-369.642 438.058,-362.643"/>
<text text-anchor="middle" x="530" y="-367" font-family="Helvetica,sans-Serif" font-size="10.00"> _fp</text>
</g>
<!-- Node4 -->
<g id="node4" class="node"><title>Node4</title>
<g id="a_node4"><a xlink:href="classint.xhtml" target="_top" xlink:title="int">
<polygon fill="none" stroke="black" points="0.5,-169.5 0.5,-188.5 29.5,-188.5 29.5,-169.5 0.5,-169.5"/>
<text text-anchor="middle" x="15" y="-176.5" font-family="Helvetica,sans-Serif" font-size="10.00">int</text>
</a>
</g>
</g>
<!-- Node4&#45;&gt;Node1 -->
<g id="edge3" class="edge"><title>Node4&#45;&gt;Node1</title>
<path fill="none" stroke="#9a32cd" stroke-dasharray="5,2" d="M23.3657,-197.902C36.1971,-227.861 65.7791,-285.281 112,-309 258.319,-384.084 317.544,-312.889 482,-314 524.666,-314.288 535.969,-321.335 578,-314 597.086,-310.669 617.727,-302.906 632.514,-296.555"/>
<polygon fill="#9a32cd" stroke="#9a32cd" points="26.562,-196.472 19.5258,-188.551 20.0867,-199.131 26.562,-196.472"/>
<text text-anchor="middle" x="284" y="-358" font-family="Helvetica,sans-Serif" font-size="10.00"> _depth</text>
<text text-anchor="middle" x="284" y="-347" font-family="Helvetica,sans-Serif" font-size="10.00">_textDepth</text>
</g>
<!-- Node6 -->
<g id="node6" class="node"><title>Node6</title>
<g id="a_node6"><a xlink:href="classTinyXML2_1_1DynArray.xhtml" target="_top" xlink:title="TinyXML2::DynArray\l\&lt; const char *, 10 \&gt;">
<polygon fill="none" stroke="black" points="352,-188 352,-218 460,-218 460,-188 352,-188"/>
<text text-anchor="start" x="360" y="-206" font-family="Helvetica,sans-Serif" font-size="10.00">TinyXML2::DynArray</text>
<text text-anchor="middle" x="406" y="-195" font-family="Helvetica,sans-Serif" font-size="10.00">&lt; const char *, 10 &gt;</text>
</a>
</g>
</g>
<!-- Node4&#45;&gt;Node6 -->
<g id="edge6" class="edge"><title>Node4&#45;&gt;Node6</title>
<path fill="none" stroke="#9a32cd" stroke-dasharray="5,2" d="M39.4651,-186.266C42.3189,-186.952 45.211,-187.555 48,-188 154.899,-205.041 281.939,-205.82 351.993,-204.589"/>
<polygon fill="#9a32cd" stroke="#9a32cd" points="40.1164,-182.816 29.5479,-183.562 38.2749,-189.57 40.1164,-182.816"/>
<text text-anchor="middle" x="166" y="-218" font-family="Helvetica,sans-Serif" font-size="10.00"> _size</text>
<text text-anchor="middle" x="166" y="-207" font-family="Helvetica,sans-Serif" font-size="10.00">_allocated</text>
</g>
<!-- Node9 -->
<g id="node9" class="node"><title>Node9</title>
<g id="a_node9"><a xlink:href="classTinyXML2_1_1DynArray.xhtml" target="_top" xlink:title="TinyXML2::DynArray\l\&lt; T, INIT \&gt;">
<polygon fill="none" stroke="black" points="112,-135 112,-165 220,-165 220,-135 112,-135"/>
<text text-anchor="start" x="120" y="-153" font-family="Helvetica,sans-Serif" font-size="10.00">TinyXML2::DynArray</text>
<text text-anchor="middle" x="166" y="-142" font-family="Helvetica,sans-Serif" font-size="10.00">&lt; T, INIT &gt;</text>
</a>
</g>
</g>
<!-- Node4&#45;&gt;Node9 -->
<g id="edge10" class="edge"><title>Node4&#45;&gt;Node9</title>
<path fill="none" stroke="#9a32cd" stroke-dasharray="5,2" d="M39.2425,-168.777C42.1546,-167.728 45.1213,-166.769 48,-166 68.501,-160.527 91.5494,-156.864 111.734,-154.442"/>
<polygon fill="#9a32cd" stroke="#9a32cd" points="37.7696,-165.595 29.7592,-172.529 40.3455,-172.104 37.7696,-165.595"/>
<text text-anchor="middle" x="71" y="-180" font-family="Helvetica,sans-Serif" font-size="10.00"> _size</text>
<text text-anchor="middle" x="71" y="-169" font-family="Helvetica,sans-Serif" font-size="10.00">_allocated</text>
</g>
<!-- Node11 -->
<g id="node11" class="node"><title>Node11</title>
<g id="a_node11"><a xlink:href="classTinyXML2_1_1DynArray.xhtml" target="_top" xlink:title="TinyXML2::DynArray\l\&lt; char, 20 \&gt;">
<polygon fill="none" stroke="black" points="352,-79 352,-109 460,-109 460,-79 352,-79"/>
<text text-anchor="start" x="360" y="-97" font-family="Helvetica,sans-Serif" font-size="10.00">TinyXML2::DynArray</text>
<text text-anchor="middle" x="406" y="-86" font-family="Helvetica,sans-Serif" font-size="10.00">&lt; char, 20 &gt;</text>
</a>
</g>
</g>
<!-- Node4&#45;&gt;Node11 -->
<g id="edge14" class="edge"><title>Node4&#45;&gt;Node11</title>
<path fill="none" stroke="#9a32cd" stroke-dasharray="5,2" d="M30.8442,-162.04C48.1899,-143.597 78.7787,-115.133 112,-103 191.593,-73.9307 291.594,-78.8671 351.789,-85.8718"/>
<polygon fill="#9a32cd" stroke="#9a32cd" points="28.2059,-159.738 24.0481,-169.483 33.3754,-164.458 28.2059,-159.738"/>
<text text-anchor="middle" x="166" y="-117" font-family="Helvetica,sans-Serif" font-size="10.00"> _size</text>
<text text-anchor="middle" x="166" y="-106" font-family="Helvetica,sans-Serif" font-size="10.00">_allocated</text>
</g>
<!-- Node5 -->
<g id="node5" class="node"><title>Node5</title>
<g id="a_node5"><a xlink:href="classbool.xhtml" target="_top" xlink:title="bool">
<polygon fill="none" stroke="black" points="388.5,-237.5 388.5,-256.5 423.5,-256.5 423.5,-237.5 388.5,-237.5"/>
<text text-anchor="middle" x="406" y="-244.5" font-family="Helvetica,sans-Serif" font-size="10.00">bool</text>
</a>
</g>
</g>
<!-- Node5&#45;&gt;Node1 -->
<g id="edge4" class="edge"><title>Node5&#45;&gt;Node1</title>
<path fill="none" stroke="#9a32cd" stroke-dasharray="5,2" d="M433.934,-243.312C468.036,-239.511 528.333,-235.704 578,-248 601.078,-253.713 624.982,-267.813 639.425,-277.398"/>
<polygon fill="#9a32cd" stroke="#9a32cd" points="433.34,-239.858 423.829,-244.525 434.175,-246.808 433.34,-239.858"/>
<text text-anchor="middle" x="530" y="-306" font-family="Helvetica,sans-Serif" font-size="10.00"> _elementJustOpened</text>
<text text-anchor="middle" x="530" y="-295" font-family="Helvetica,sans-Serif" font-size="10.00">_processEntities</text>
<text text-anchor="middle" x="530" y="-284" font-family="Helvetica,sans-Serif" font-size="10.00">_restrictedEntityFlag</text>
<text text-anchor="middle" x="530" y="-273" font-family="Helvetica,sans-Serif" font-size="10.00">_compactMode</text>
<text text-anchor="middle" x="530" y="-262" font-family="Helvetica,sans-Serif" font-size="10.00">_entityFlag</text>
<text text-anchor="middle" x="530" y="-251" font-family="Helvetica,sans-Serif" font-size="10.00">_firstElement</text>
</g>
<!-- Node6&#45;&gt;Node1 -->
<g id="edge5" class="edge"><title>Node6&#45;&gt;Node1</title>
<path fill="none" stroke="#9a32cd" stroke-dasharray="5,2" d="M470.324,-202.788C503.566,-204.713 544.281,-210.37 578,-225 605.896,-237.104 631.642,-262.838 644.47,-277.052"/>
<polygon fill="#9a32cd" stroke="#9a32cd" points="470.42,-199.288 460.263,-202.304 470.084,-206.28 470.42,-199.288"/>
<text text-anchor="middle" x="530" y="-228" font-family="Helvetica,sans-Serif" font-size="10.00"> _stack</text>
</g>
<!-- Node7 -->
<g id="node7" class="node"><title>Node7</title>
<polygon fill="none" stroke="#bfbfbf" points="131.5,-280.5 131.5,-299.5 200.5,-299.5 200.5,-280.5 131.5,-280.5"/>
<text text-anchor="middle" x="166" y="-287.5" font-family="Helvetica,sans-Serif" font-size="10.00">const char *</text>
</g>
<!-- Node7&#45;&gt;Node6 -->
<g id="edge7" class="edge"><title>Node7&#45;&gt;Node6</title>
<path fill="none" stroke="#9a32cd" stroke-dasharray="5,2" d="M210.843,-287.914C245.617,-284.44 294.163,-275.385 330,-252 341.166,-244.713 337.552,-236.283 348,-228 352.742,-224.241 358.137,-220.93 363.672,-218.051"/>
<polygon fill="#9a32cd" stroke="#9a32cd" points="210.177,-284.459 200.523,-288.822 210.791,-291.432 210.177,-284.459"/>
<text text-anchor="middle" x="284" y="-287" font-family="Helvetica,sans-Serif" font-size="10.00"> _pool</text>
</g>
<!-- Node8 -->
<g id="node8" class="node"><title>Node8</title>
<polygon fill="none" stroke="#bfbfbf" points="129.5,-242.5 129.5,-261.5 202.5,-261.5 202.5,-242.5 129.5,-242.5"/>
<text text-anchor="middle" x="166" y="-249.5" font-family="Helvetica,sans-Serif" font-size="10.00">const char **</text>
</g>
<!-- Node8&#45;&gt;Node6 -->
<g id="edge8" class="edge"><title>Node8&#45;&gt;Node6</title>
<path fill="none" stroke="#9a32cd" stroke-dasharray="5,2" d="M212.585,-242.615C252.351,-234.428 310.067,-222.545 351.906,-213.931"/>
<polygon fill="#9a32cd" stroke="#9a32cd" points="211.72,-239.219 202.631,-244.664 213.131,-246.076 211.72,-239.219"/>
<text text-anchor="middle" x="284" y="-240" font-family="Helvetica,sans-Serif" font-size="10.00"> _mem</text>
</g>
<!-- Node9&#45;&gt;Node6 -->
<g id="edge9" class="edge"><title>Node9&#45;&gt;Node6</title>
<path fill="none" stroke="orange" stroke-dasharray="5,2" d="M230.371,-157.946C260.76,-162.404 297.53,-168.746 330,-177 341.754,-179.988 354.289,-183.994 365.68,-187.965"/>
<polygon fill="orange" stroke="orange" points="230.721,-154.461 220.325,-156.507 229.728,-161.39 230.721,-154.461"/>
<text text-anchor="middle" x="284" y="-180" font-family="Helvetica,sans-Serif" font-size="10.00"> &lt; const char *, 10 &gt;</text>
</g>
<!-- Node9&#45;&gt;Node11 -->
<g id="edge16" class="edge"><title>Node9&#45;&gt;Node11</title>
<path fill="none" stroke="orange" stroke-dasharray="5,2" d="M230.024,-135.171C267.916,-126.255 315.614,-115.032 351.636,-106.556"/>
<polygon fill="orange" stroke="orange" points="229.048,-131.805 220.116,-137.502 230.651,-138.619 229.048,-131.805"/>
<text text-anchor="middle" x="284" y="-135" font-family="Helvetica,sans-Serif" font-size="10.00"> &lt; char, 20 &gt;</text>
</g>
<!-- Node10 -->
<g id="node10" class="node"><title>Node10</title>
<polygon fill="none" stroke="#bfbfbf" points="0.5,-47.5 0.5,-66.5 29.5,-66.5 29.5,-47.5 0.5,-47.5"/>
<text text-anchor="middle" x="15" y="-54.5" font-family="Helvetica,sans-Serif" font-size="10.00">T</text>
</g>
<!-- Node10&#45;&gt;Node9 -->
<g id="edge11" class="edge"><title>Node10&#45;&gt;Node9</title>
<path fill="none" stroke="#9a32cd" stroke-dasharray="5,2" d="M38.2052,-72.1683C57.4935,-85.1997 86.292,-104.312 112,-120 120.213,-125.012 129.284,-130.251 137.565,-134.923"/>
<polygon fill="#9a32cd" stroke="#9a32cd" points="40.0474,-69.1887 29.8067,-66.4722 36.1182,-74.9819 40.0474,-69.1887"/>
<text text-anchor="middle" x="71" y="-123" font-family="Helvetica,sans-Serif" font-size="10.00"> _mem</text>
<text text-anchor="middle" x="71" y="-112" font-family="Helvetica,sans-Serif" font-size="10.00">_pool</text>
</g>
<!-- Node11&#45;&gt;Node1 -->
<g id="edge12" class="edge"><title>Node11&#45;&gt;Node1</title>
<path fill="none" stroke="#9a32cd" stroke-dasharray="5,2" d="M453.146,-113.298C489.528,-129.935 540.248,-156.398 578,-189 609.457,-216.166 636.308,-258.438 647.469,-277.32"/>
<polygon fill="#9a32cd" stroke="#9a32cd" points="454.312,-109.984 443.756,-109.075 451.441,-116.368 454.312,-109.984"/>
<text text-anchor="middle" x="530" y="-192" font-family="Helvetica,sans-Serif" font-size="10.00"> _buffer</text>
</g>
<!-- Node12 -->
<g id="node12" class="node"><title>Node12</title>
<polygon fill="none" stroke="#bfbfbf" points="148.5,-38.5 148.5,-57.5 183.5,-57.5 183.5,-38.5 148.5,-38.5"/>
<text text-anchor="middle" x="166" y="-45.5" font-family="Helvetica,sans-Serif" font-size="10.00">char</text>
</g>
<!-- Node12&#45;&gt;Node11 -->
<g id="edge13" class="edge"><title>Node12&#45;&gt;Node11</title>
<path fill="none" stroke="#9a32cd" stroke-dasharray="5,2" d="M193.93,-49.8636C226.481,-52.4836 282.771,-58.1935 330,-69 341.372,-71.6022 353.461,-75.2324 364.537,-78.9212"/>
<polygon fill="#9a32cd" stroke="#9a32cd" points="194.087,-46.3655 183.849,-49.0907 193.552,-53.345 194.087,-46.3655"/>
<text text-anchor="middle" x="284" y="-72" font-family="Helvetica,sans-Serif" font-size="10.00"> _pool</text>
</g>
<!-- Node13 -->
<g id="node13" class="node"><title>Node13</title>
<polygon fill="none" stroke="#bfbfbf" points="145,-0.5 145,-19.5 187,-19.5 187,-0.5 145,-0.5"/>
<text text-anchor="middle" x="166" y="-7.5" font-family="Helvetica,sans-Serif" font-size="10.00">char *</text>
</g>
<!-- Node13&#45;&gt;Node11 -->
<g id="edge15" class="edge"><title>Node13&#45;&gt;Node11</title>
<path fill="none" stroke="#9a32cd" stroke-dasharray="5,2" d="M197.237,-11.5907C230.85,-14.2499 286.173,-21.3143 330,-40 352.286,-49.5019 374.376,-66.582 388.746,-78.9945"/>
<polygon fill="#9a32cd" stroke="#9a32cd" points="197.351,-8.09007 187.128,-10.8729 196.855,-15.0725 197.351,-8.09007"/>
<text text-anchor="middle" x="284" y="-43" font-family="Helvetica,sans-Serif" font-size="10.00"> _mem</text>
</g>
</g>
</svg>
