<?xml version="1.0" encoding="UTF-8" standalone="no"?>
<!DOCTYPE svg PUBLIC "-//W3C//DTD SVG 1.1//EN"
 "http://www.w3.org/Graphics/SVG/1.1/DTD/svg11.dtd">
<!-- Generated by graphviz version 2.36.0 (20140111.2315)
 -->
<!-- Title: Voxel::TemporalMedianFilter Pages: 1 -->
<!--zoomable 346 -->
<svg id="main" version="1.1" xmlns="http://www.w3.org/2000/svg" xmlns:xlink="http://www.w3.org/1999/xlink" xml:space="preserve" onload="init(evt)">
<style type="text/css"><![CDATA[
.edge:hover path { stroke: red; }
.edge:hover polygon { stroke: red; fill: red; }
]]></style>
<script type="text/javascript"><![CDATA[
var edges = document.getElementsByTagName('g');
if (edges && edges.length) {
  for (var i=0;i<edges.length;i++) {
    if (edges[i].id.substr(0,4)=='edge') {
      edges[i].setAttribute('class','edge');
    }
  }
}
]]></script>
        <defs>
                <circle id="rim" cx="0" cy="0" r="7"/>
                <circle id="rim2" cx="0" cy="0" r="3.5"/>
                <g id="zoomPlus">
                        <use xlink:href="#rim" fill="#404040">
                                <set attributeName="fill" to="#808080" begin="zoomplus.mouseover" end="zoomplus.mouseout"/>
                        </use>
                        <path d="M-4,0h8M0,-4v8" fill="none" stroke="white" stroke-width="1.5" pointer-events="none"/>
                </g>
                <g id="zoomMin">
                        <use xlink:href="#rim" fill="#404040">
                                <set attributeName="fill" to="#808080" begin="zoomminus.mouseover" end="zoomminus.mouseout"/>
                        </use>
                        <path d="M-4,0h8" fill="none" stroke="white" stroke-width="1.5" pointer-events="none"/>
                </g>
                <g id="dirArrow">
                        <path fill="none" stroke="white" stroke-width="1.5" d="M0,-3.0v7 M-2.5,-0.5L0,-3.0L2.5,-0.5"/>
                </g>
               <g id="resetDef">
                       <use xlink:href="#rim2" fill="#404040">
                               <set attributeName="fill" to="#808080" begin="reset.mouseover" end="reset.mouseout"/>
                       </use>
               </g>
        </defs>

<script type="text/javascript">
var viewWidth = 1046;
var viewHeight = 346;
var sectionId = 'dynsection-1';
</script>
<script xlink:href="svgpan.js"/>
<svg id="graph" class="graph">
<g id="viewport">
<title>Voxel::TemporalMedianFilter</title>
<!-- Node1 -->
<g id="node1" class="node"><title>Node1</title>
<polygon fill="#bfbfbf" stroke="black" points="896.5,-95.5 896.5,-114.5 1037.5,-114.5 1037.5,-95.5 896.5,-95.5"/>
<text text-anchor="middle" x="967" y="-102.5" font-family="Helvetica,sans-Serif" font-size="10.00">Voxel::TemporalMedianFilter</text>
</g>
<!-- Node2 -->
<g id="node2" class="node"><title>Node2</title>
<g id="a_node2"><a xlink:href="classVoxel_1_1Filter.xhtml" target="_top" xlink:title="Voxel::Filter">
<polygon fill="none" stroke="black" points="703.5,-215.5 703.5,-234.5 772.5,-234.5 772.5,-215.5 703.5,-215.5"/>
<text text-anchor="middle" x="738" y="-222.5" font-family="Helvetica,sans-Serif" font-size="10.00">Voxel::Filter</text>
</a>
</g>
</g>
<!-- Node2&#45;&gt;Node1 -->
<g id="edge1" class="edge"><title>Node2&#45;&gt;Node1</title>
<path fill="none" stroke="midnightblue" d="M770.469,-211.221C798.958,-198.474 841.867,-178.591 878,-159 904.473,-144.646 934.098,-125.876 951.338,-114.667"/>
<polygon fill="midnightblue" stroke="midnightblue" points="768.743,-208.158 761.029,-215.42 771.588,-214.554 768.743,-208.158"/>
</g>
<!-- Node3 -->
<g id="node3" class="node"><title>Node3</title>
<polygon fill="none" stroke="#bfbfbf" points="472,-318.5 472,-337.5 516,-337.5 516,-318.5 472,-318.5"/>
<text text-anchor="middle" x="494" y="-325.5" font-family="Helvetica,sans-Serif" font-size="10.00">mutex</text>
</g>
<!-- Node3&#45;&gt;Node2 -->
<g id="edge2" class="edge"><title>Node3&#45;&gt;Node2</title>
<path fill="none" stroke="#9a32cd" stroke-dasharray="5,2" d="M526.28,-326.246C558.631,-323.423 609.93,-316.078 650,-297 682.925,-281.323 713.933,-250.419 728.428,-234.69"/>
<polygon fill="#9a32cd" stroke="#9a32cd" points="525.777,-322.775 516.079,-327.04 526.321,-329.753 525.777,-322.775"/>
<text text-anchor="middle" x="616" y="-321" font-family="Helvetica,sans-Serif" font-size="10.00"> _accessMutex</text>
</g>
<!-- Node4 -->
<g id="node4" class="node"><title>Node4</title>
<polygon fill="none" stroke="#bfbfbf" points="473.5,-253.5 473.5,-272.5 514.5,-272.5 514.5,-253.5 473.5,-253.5"/>
<text text-anchor="middle" x="494" y="-260.5" font-family="Helvetica,sans-Serif" font-size="10.00">string</text>
</g>
<!-- Node4&#45;&gt;Node2 -->
<g id="edge3" class="edge"><title>Node4&#45;&gt;Node2</title>
<path fill="none" stroke="#9a32cd" stroke-dasharray="5,2" d="M524.775,-258.443C555.987,-253.654 606.451,-245.875 650,-239 667.529,-236.233 687.036,-233.099 703.128,-230.498"/>
<polygon fill="#9a32cd" stroke="#9a32cd" points="523.934,-255.031 514.58,-260.006 524.995,-261.95 523.934,-255.031"/>
<text text-anchor="middle" x="616" y="-285" font-family="Helvetica,sans-Serif" font-size="10.00"> _nameScope</text>
<text text-anchor="middle" x="616" y="-274" font-family="Helvetica,sans-Serif" font-size="10.00">_id</text>
<text text-anchor="middle" x="616" y="-263" font-family="Helvetica,sans-Serif" font-size="10.00">_description</text>
<text text-anchor="middle" x="616" y="-252" font-family="Helvetica,sans-Serif" font-size="10.00">_name</text>
</g>
<!-- Node5 -->
<g id="node5" class="node"><title>Node5</title>
<g id="a_node5"><a xlink:href="classVoxel_1_1Ptr.xhtml" target="_top" xlink:title="Voxel::Ptr\&lt; DepthCamera \&gt;">
<polygon fill="none" stroke="black" points="424.5,-215.5 424.5,-234.5 563.5,-234.5 563.5,-215.5 424.5,-215.5"/>
<text text-anchor="middle" x="494" y="-222.5" font-family="Helvetica,sans-Serif" font-size="10.00">Voxel::Ptr&lt; DepthCamera &gt;</text>
</a>
</g>
</g>
<!-- Node5&#45;&gt;Node2 -->
<g id="edge4" class="edge"><title>Node5&#45;&gt;Node2</title>
<path fill="none" stroke="#9a32cd" stroke-dasharray="5,2" d="M573.787,-225C617.664,-225 670.009,-225 703.371,-225"/>
<polygon fill="#9a32cd" stroke="#9a32cd" points="573.7,-221.5 563.7,-225 573.7,-228.5 573.7,-221.5"/>
<text text-anchor="middle" x="616" y="-228" font-family="Helvetica,sans-Serif" font-size="10.00"> _depthCamera</text>
</g>
<!-- Node6 -->
<g id="node6" class="node"><title>Node6</title>
<polygon fill="none" stroke="#bfbfbf" points="144.5,-228.5 144.5,-247.5 305.5,-247.5 305.5,-228.5 144.5,-228.5"/>
<text text-anchor="middle" x="225" y="-235.5" font-family="Helvetica,sans-Serif" font-size="10.00">std::shared_ptr&lt; DepthCamera &gt;</text>
</g>
<!-- Node6&#45;&gt;Node5 -->
<g id="edge5" class="edge"><title>Node6&#45;&gt;Node5</title>
<path fill="none" stroke="midnightblue" d="M316.092,-233.614C351.513,-231.889 391.509,-229.942 424.5,-228.335"/>
<polygon fill="midnightblue" stroke="midnightblue" points="315.565,-230.135 305.747,-234.117 315.906,-237.127 315.565,-230.135"/>
</g>
<!-- Node7 -->
<g id="node7" class="node"><title>Node7</title>
<g id="a_node7"><a xlink:href="classVoxel_1_1Ptr.xhtml" target="_top" xlink:title="Voxel::Ptr\&lt; T \&gt;">
<polygon fill="none" stroke="black" points="183,-190.5 183,-209.5 267,-209.5 267,-190.5 183,-190.5"/>
<text text-anchor="middle" x="225" y="-197.5" font-family="Helvetica,sans-Serif" font-size="10.00">Voxel::Ptr&lt; T &gt;</text>
</a>
</g>
</g>
<!-- Node7&#45;&gt;Node5 -->
<g id="edge6" class="edge"><title>Node7&#45;&gt;Node5</title>
<path fill="none" stroke="orange" stroke-dasharray="5,2" d="M277.403,-203.854C313.428,-206.66 362.687,-210.707 406,-215 411.9,-215.585 418.022,-216.224 424.161,-216.886"/>
<polygon fill="orange" stroke="orange" points="277.38,-200.342 267.14,-203.06 276.84,-207.321 277.38,-200.342"/>
<text text-anchor="middle" x="365" y="-218" font-family="Helvetica,sans-Serif" font-size="10.00"> &lt; DepthCamera &gt;</text>
</g>
<!-- Node8 -->
<g id="node8" class="node"><title>Node8</title>
<polygon fill="none" stroke="#bfbfbf" points="0,-190.5 0,-209.5 106,-209.5 106,-190.5 0,-190.5"/>
<text text-anchor="middle" x="53" y="-197.5" font-family="Helvetica,sans-Serif" font-size="10.00">std::shared_ptr&lt; T &gt;</text>
</g>
<!-- Node8&#45;&gt;Node7 -->
<g id="edge7" class="edge"><title>Node8&#45;&gt;Node7</title>
<path fill="none" stroke="midnightblue" d="M116.691,-200C138.763,-200 162.994,-200 182.838,-200"/>
<polygon fill="midnightblue" stroke="midnightblue" points="116.393,-196.5 106.393,-200 116.393,-203.5 116.393,-196.5"/>
</g>
<!-- Node9 -->
<g id="node9" class="node"><title>Node9</title>
<polygon fill="none" stroke="#bfbfbf" points="443.5,-166 443.5,-196 544.5,-196 544.5,-166 443.5,-166"/>
<text text-anchor="start" x="451.5" y="-184" font-family="Helvetica,sans-Serif" font-size="10.00">Map&lt; String, Voxel</text>
<text text-anchor="middle" x="494" y="-173" font-family="Helvetica,sans-Serif" font-size="10.00">::Ptr &gt;</text>
</g>
<!-- Node9&#45;&gt;Node2 -->
<g id="edge8" class="edge"><title>Node9&#45;&gt;Node2</title>
<path fill="none" stroke="#9a32cd" stroke-dasharray="5,2" d="M554.587,-191.834C601.456,-200.356 665.053,-211.919 703.443,-218.899"/>
<polygon fill="#9a32cd" stroke="#9a32cd" points="555.021,-188.356 544.556,-190.01 553.769,-195.243 555.021,-188.356"/>
<text text-anchor="middle" x="616" y="-212" font-family="Helvetica,sans-Serif" font-size="10.00"> _parameters</text>
</g>
<!-- Node10 -->
<g id="node10" class="node"><title>Node10</title>
<g id="a_node10"><a xlink:href="classVoxel_1_1FrameSize.xhtml" target="_top" xlink:title="Voxel::FrameSize">
<polygon fill="none" stroke="black" points="690.5,-152.5 690.5,-171.5 785.5,-171.5 785.5,-152.5 690.5,-152.5"/>
<text text-anchor="middle" x="738" y="-159.5" font-family="Helvetica,sans-Serif" font-size="10.00">Voxel::FrameSize</text>
</a>
</g>
</g>
<!-- Node10&#45;&gt;Node1 -->
<g id="edge9" class="edge"><title>Node10&#45;&gt;Node1</title>
<path fill="none" stroke="#9a32cd" stroke-dasharray="5,2" d="M795.392,-150.966C820.76,-145.711 851.006,-139.04 878,-132 897.948,-126.797 920.137,-119.982 937.244,-114.5"/>
<polygon fill="#9a32cd" stroke="#9a32cd" points="794.66,-147.543 785.567,-152.981 796.066,-154.4 794.66,-147.543"/>
<text text-anchor="middle" x="852" y="-147" font-family="Helvetica,sans-Serif" font-size="10.00"> _size</text>
</g>
<!-- Node11 -->
<g id="node11" class="node"><title>Node11</title>
<polygon fill="none" stroke="#bfbfbf" points="468.5,-127.5 468.5,-146.5 519.5,-146.5 519.5,-127.5 468.5,-127.5"/>
<text text-anchor="middle" x="494" y="-134.5" font-family="Helvetica,sans-Serif" font-size="10.00">uint32_t</text>
</g>
<!-- Node11&#45;&gt;Node10 -->
<g id="edge10" class="edge"><title>Node11&#45;&gt;Node10</title>
<path fill="none" stroke="#9a32cd" stroke-dasharray="5,2" d="M529.614,-134.623C561.151,-133.073 608.934,-132.267 650,-138 658.223,-139.148 659.998,-140.787 668,-143 679.137,-146.08 691.289,-149.43 702.248,-152.447"/>
<polygon fill="#9a32cd" stroke="#9a32cd" points="529.369,-131.132 519.574,-135.169 529.75,-138.121 529.369,-131.132"/>
<text text-anchor="middle" x="616" y="-152" font-family="Helvetica,sans-Serif" font-size="10.00"> width</text>
<text text-anchor="middle" x="616" y="-141" font-family="Helvetica,sans-Serif" font-size="10.00">height</text>
</g>
<!-- Node12 -->
<g id="node12" class="node"><title>Node12</title>
<g id="a_node12"><a xlink:href="classfloat.xhtml" target="_top" xlink:title="float">
<polygon fill="none" stroke="black" points="720.5,-114.5 720.5,-133.5 755.5,-133.5 755.5,-114.5 720.5,-114.5"/>
<text text-anchor="middle" x="738" y="-121.5" font-family="Helvetica,sans-Serif" font-size="10.00">float</text>
</a>
</g>
</g>
<!-- Node12&#45;&gt;Node1 -->
<g id="edge11" class="edge"><title>Node12&#45;&gt;Node1</title>
<path fill="none" stroke="#9a32cd" stroke-dasharray="5,2" d="M766.001,-121.74C797.949,-119.066 852.354,-114.512 896.362,-110.829"/>
<polygon fill="#9a32cd" stroke="#9a32cd" points="765.365,-118.281 755.692,-122.603 765.949,-125.257 765.365,-118.281"/>
<text text-anchor="middle" x="852" y="-120" font-family="Helvetica,sans-Serif" font-size="10.00"> _deadband</text>
</g>
<!-- Node13 -->
<g id="node13" class="node"><title>Node13</title>
<polygon fill="none" stroke="#bfbfbf" points="685.5,-76.5 685.5,-95.5 790.5,-95.5 790.5,-76.5 685.5,-76.5"/>
<text text-anchor="middle" x="738" y="-83.5" font-family="Helvetica,sans-Serif" font-size="10.00">Vector&lt; ByteType &gt;</text>
</g>
<!-- Node13&#45;&gt;Node1 -->
<g id="edge12" class="edge"><title>Node13&#45;&gt;Node1</title>
<path fill="none" stroke="#9a32cd" stroke-dasharray="5,2" d="M800.686,-91.1631C830.208,-93.6342 865.686,-96.6036 896.193,-99.1571"/>
<polygon fill="#9a32cd" stroke="#9a32cd" points="800.767,-87.6578 790.51,-90.3114 800.183,-94.6334 800.767,-87.6578"/>
<text text-anchor="middle" x="852" y="-101" font-family="Helvetica,sans-Serif" font-size="10.00"> _current</text>
</g>
<!-- Node14 -->
<g id="node14" class="node"><title>Node14</title>
<polygon fill="none" stroke="#bfbfbf" points="722,-38.5 722,-57.5 754,-57.5 754,-38.5 722,-38.5"/>
<text text-anchor="middle" x="738" y="-45.5" font-family="Helvetica,sans-Serif" font-size="10.00">uint</text>
</g>
<!-- Node14&#45;&gt;Node1 -->
<g id="edge13" class="edge"><title>Node14&#45;&gt;Node1</title>
<path fill="none" stroke="#9a32cd" stroke-dasharray="5,2" d="M764.19,-53.0812C792.131,-58.8418 838.486,-68.769 878,-79 897.278,-83.9914 918.71,-90.3072 935.597,-95.4641"/>
<polygon fill="#9a32cd" stroke="#9a32cd" points="764.594,-49.5915 754.095,-51.0164 763.191,-56.4495 764.594,-49.5915"/>
<text text-anchor="middle" x="852" y="-82" font-family="Helvetica,sans-Serif" font-size="10.00"> _order</text>
</g>
<!-- Node15 -->
<g id="node15" class="node"><title>Node15</title>
<polygon fill="none" stroke="#bfbfbf" points="668.5,-0.5 668.5,-19.5 807.5,-19.5 807.5,-0.5 668.5,-0.5"/>
<text text-anchor="middle" x="738" y="-7.5" font-family="Helvetica,sans-Serif" font-size="10.00">List&lt; Vector&lt; ByteType &gt; &gt;</text>
</g>
<!-- Node15&#45;&gt;Node1 -->
<g id="edge14" class="edge"><title>Node15&#45;&gt;Node1</title>
<path fill="none" stroke="#9a32cd" stroke-dasharray="5,2" d="M785.181,-22.293C792.827,-24.4494 800.653,-26.7314 808,-29 839.425,-38.7036 848.133,-39.2297 878,-53 905.235,-65.5567 934.862,-84.1965 951.854,-95.4156"/>
<polygon fill="#9a32cd" stroke="#9a32cd" points="785.863,-18.8497 775.29,-19.5421 783.987,-25.5937 785.863,-18.8497"/>
<text text-anchor="middle" x="852" y="-56" font-family="Helvetica,sans-Serif" font-size="10.00"> _history</text>
</g>
</g>
</svg>
        <g id="navigator" transform="translate(0 0)" fill="#404254">
                <rect fill="#f2f5e9" fill-opacity="0.5" stroke="#606060" stroke-width=".5" x="0" y="0" width="60" height="60"/>
                <use id="zoomplus" xlink:href="#zoomPlus" x="17" y="9" onmousedown="handleZoom(evt,'in')"/>
                <use id="zoomminus" xlink:href="#zoomMin" x="42" y="9" onmousedown="handleZoom(evt,'out')"/>
                <use id="reset" xlink:href="#resetDef" x="30" y="36" onmousedown="handleReset()"/>
                <g id="arrowUp" xlink:href="#dirArrow" transform="translate(30 24)" onmousedown="handlePan(0,-1)">
                  <use xlink:href="#rim" fill="#404040">
                        <set attributeName="fill" to="#808080" begin="arrowUp.mouseover" end="arrowUp.mouseout"/>
                  </use>
                  <path fill="none" stroke="white" stroke-width="1.5" d="M0,-3.0v7 M-2.5,-0.5L0,-3.0L2.5,-0.5"/>
                </g>
                <g id="arrowRight" xlink:href="#dirArrow" transform="rotate(90) translate(36 -43)" onmousedown="handlePan(1,0)">
                  <use xlink:href="#rim" fill="#404040">
                        <set attributeName="fill" to="#808080" begin="arrowRight.mouseover" end="arrowRight.mouseout"/>
                  </use>
                  <path fill="none" stroke="white" stroke-width="1.5" d="M0,-3.0v7 M-2.5,-0.5L0,-3.0L2.5,-0.5"/>
                </g>
                <g id="arrowDown" xlink:href="#dirArrow" transform="rotate(180) translate(-30 -48)" onmousedown="handlePan(0,1)">
                  <use xlink:href="#rim" fill="#404040">
                        <set attributeName="fill" to="#808080" begin="arrowDown.mouseover" end="arrowDown.mouseout"/>
                  </use>
                  <path fill="none" stroke="white" stroke-width="1.5" d="M0,-3.0v7 M-2.5,-0.5L0,-3.0L2.5,-0.5"/>
                </g>
                <g id="arrowLeft" xlink:href="#dirArrow" transform="rotate(270) translate(-36 17)" onmousedown="handlePan(-1,0)">
                  <use xlink:href="#rim" fill="#404040">
                        <set attributeName="fill" to="#808080" begin="arrowLeft.mouseover" end="arrowLeft.mouseout"/>
                  </use>
                  <path fill="none" stroke="white" stroke-width="1.5" d="M0,-3.0v7 M-2.5,-0.5L0,-3.0L2.5,-0.5"/>
                </g>
        </g>
        <svg viewBox="0 0 15 15" width="100%" height="30px" preserveAspectRatio="xMaxYMin meet">
         <g id="arrow_out" transform="scale(0.3 0.3)">
          <a xlink:href="classVoxel_1_1TemporalMedianFilter__coll__graph_org.svg" target="_base">
           <rect id="button" ry="5" rx="5" y="6" x="6" height="38" width="38"
                fill="#f2f5e9" fill-opacity="0.5" stroke="#606060" stroke-width="1.0"/>
           <path id="arrow"
             d="M 11.500037,31.436501 C 11.940474,20.09759 22.043105,11.32322 32.158766,21.979434 L 37.068811,17.246167 C 37.068811,17.246167 37.088388,32 37.088388,32 L 22.160133,31.978069 C 22.160133,31.978069 26.997745,27.140456 26.997745,27.140456 C 18.528582,18.264221 13.291696,25.230495 11.500037,31.436501 z"
             style="fill:#404040;"/>
          </a>
         </g>
        </svg>
</svg>
