<?xml version="1.0" encoding="UTF-8" standalone="no"?>
<!DOCTYPE svg PUBLIC "-//W3C//DTD SVG 1.1//EN"
 "http://www.w3.org/Graphics/SVG/1.1/DTD/svg11.dtd">
<!-- Generated by graphviz version 2.36.0 (20140111.2315)
 -->
<!-- Title: Voxel::FrameBuffer&lt; BufferType &gt; Pages: 1 -->
<svg width="287pt" height="246pt"
 viewBox="0.00 0.00 287.00 246.00" xmlns="http://www.w3.org/2000/svg" xmlns:xlink="http://www.w3.org/1999/xlink">
<g id="graph0" class="graph" transform="scale(1 1) rotate(0) translate(4 242)">
<title>Voxel::FrameBuffer&lt; BufferType &gt;</title>
<!-- Node1 -->
<g id="node1" class="node"><title>Node1</title>
<polygon fill="#bfbfbf" stroke="black" points="72.5,-1 72.5,-31 173.5,-31 173.5,-1 72.5,-1"/>
<text text-anchor="start" x="80.5" y="-19" font-family="Helvetica,sans-Serif" font-size="10.00">Voxel::FrameBuffer</text>
<text text-anchor="middle" x="123" y="-8" font-family="Helvetica,sans-Serif" font-size="10.00">&lt; BufferType &gt;</text>
</g>
<!-- Node2 -->
<g id="node2" class="node"><title>Node2</title>
<g id="a_node2"><a xlink:href="classVoxel_1_1Ptr.xhtml" target="_top" xlink:title="Voxel::Ptr\&lt; BufferType \&gt;">
<polygon fill="none" stroke="black" points="27,-86.5 27,-105.5 153,-105.5 153,-86.5 27,-86.5"/>
<text text-anchor="middle" x="90" y="-93.5" font-family="Helvetica,sans-Serif" font-size="10.00">Voxel::Ptr&lt; BufferType &gt;</text>
</a>
</g>
</g>
<!-- Node2&#45;&gt;Node1 -->
<g id="edge1" class="edge"><title>Node2&#45;&gt;Node1</title>
<path fill="none" stroke="midnightblue" d="M94.7818,-76.4145C97.1561,-68.1703 100.309,-58.4449 104,-50 106.806,-43.5788 110.546,-36.8174 113.965,-31.0984"/>
<polygon fill="midnightblue" stroke="midnightblue" points="91.3766,-75.5985 92.1296,-86.1666 98.1313,-77.4356 91.3766,-75.5985"/>
</g>
<!-- Node2&#45;&gt;Node1 -->
<g id="edge6" class="edge"><title>Node2&#45;&gt;Node1</title>
<path fill="none" stroke="#9a32cd" stroke-dasharray="5,2" d="M97.6638,-76.8856C103.546,-62.9816 111.554,-44.054 116.981,-31.227"/>
<polygon fill="#9a32cd" stroke="#9a32cd" points="94.3307,-75.7812 93.6577,-86.3546 100.778,-78.5087 94.3307,-75.7812"/>
<text text-anchor="middle" x="126" y="-53.5" font-family="Helvetica,sans-Serif" font-size="10.00"> _buffer</text>
</g>
<!-- Node3 -->
<g id="node3" class="node"><title>Node3</title>
<polygon fill="none" stroke="#bfbfbf" points="0,-160.5 0,-179.5 148,-179.5 148,-160.5 0,-160.5"/>
<text text-anchor="middle" x="74" y="-167.5" font-family="Helvetica,sans-Serif" font-size="10.00">std::shared_ptr&lt; BufferType &gt;</text>
</g>
<!-- Node3&#45;&gt;Node2 -->
<g id="edge2" class="edge"><title>Node3&#45;&gt;Node2</title>
<path fill="none" stroke="midnightblue" d="M78.0925,-150.584C81.3124,-136.094 85.6516,-116.568 88.1042,-105.531"/>
<polygon fill="midnightblue" stroke="midnightblue" points="74.651,-149.937 75.8982,-160.458 81.4843,-151.455 74.651,-149.937"/>
</g>
<!-- Node4 -->
<g id="node4" class="node"><title>Node4</title>
<g id="a_node4"><a xlink:href="classVoxel_1_1Ptr.xhtml" target="_top" xlink:title="Voxel::Ptr\&lt; T \&gt;">
<polygon fill="none" stroke="black" points="166,-160.5 166,-179.5 250,-179.5 250,-160.5 166,-160.5"/>
<text text-anchor="middle" x="208" y="-167.5" font-family="Helvetica,sans-Serif" font-size="10.00">Voxel::Ptr&lt; T &gt;</text>
</a>
</g>
</g>
<!-- Node4&#45;&gt;Node2 -->
<g id="edge3" class="edge"><title>Node4&#45;&gt;Node2</title>
<path fill="none" stroke="orange" stroke-dasharray="5,2" d="M185.185,-155.079C161.136,-140.405 124.02,-117.758 103.981,-105.531"/>
<polygon fill="orange" stroke="orange" points="183.641,-158.237 194,-160.458 187.287,-152.261 183.641,-158.237"/>
<text text-anchor="middle" x="199" y="-133.5" font-family="Helvetica,sans-Serif" font-size="10.00"> &lt; BufferType &gt;</text>
</g>
<!-- Node5 -->
<g id="node5" class="node"><title>Node5</title>
<polygon fill="none" stroke="#bfbfbf" points="155,-218.5 155,-237.5 261,-237.5 261,-218.5 155,-218.5"/>
<text text-anchor="middle" x="208" y="-225.5" font-family="Helvetica,sans-Serif" font-size="10.00">std::shared_ptr&lt; T &gt;</text>
</g>
<!-- Node5&#45;&gt;Node4 -->
<g id="edge4" class="edge"><title>Node5&#45;&gt;Node4</title>
<path fill="none" stroke="midnightblue" d="M208,-207.953C208,-198.287 208,-187.031 208,-179.505"/>
<polygon fill="midnightblue" stroke="midnightblue" points="204.5,-208.25 208,-218.25 211.5,-208.25 204.5,-208.25"/>
</g>
<!-- Node6 -->
<g id="node6" class="node"><title>Node6</title>
<polygon fill="none" stroke="#bfbfbf" points="171,-81 171,-111 279,-111 279,-81 171,-81"/>
<text text-anchor="start" x="179" y="-99" font-family="Helvetica,sans-Serif" font-size="10.00">FrameBufferManager</text>
<text text-anchor="middle" x="225" y="-88" font-family="Helvetica,sans-Serif" font-size="10.00">&lt; BufferType &gt; &amp;</text>
</g>
<!-- Node6&#45;&gt;Node1 -->
<g id="edge5" class="edge"><title>Node6&#45;&gt;Node1</title>
<path fill="none" stroke="#9a32cd" stroke-dasharray="5,2" d="M198.015,-74.3645C180.22,-60.7566 157.37,-43.2833 141.59,-31.2157"/>
<polygon fill="#9a32cd" stroke="#9a32cd" points="196.222,-77.3993 206.292,-80.6936 200.474,-71.8388 196.222,-77.3993"/>
<text text-anchor="middle" x="204" y="-53.5" font-family="Helvetica,sans-Serif" font-size="10.00"> _manager</text>
</g>
</g>
</svg>
