<?xml version="1.0" encoding="UTF-8" standalone="no"?>
<!DOCTYPE svg PUBLIC "-//W3C//DTD SVG 1.1//EN"
 "http://www.w3.org/Graphics/SVG/1.1/DTD/svg11.dtd">
<!-- Generated by graphviz version 2.36.0 (20140111.2315)
 -->
<!-- Title: Voxel::PointCloudTransform::imageToWorld Pages: 1 -->
<svg width="346pt" height="136pt"
 viewBox="0.00 0.00 346.00 136.00" xmlns="http://www.w3.org/2000/svg" xmlns:xlink="http://www.w3.org/1999/xlink">
<g id="graph0" class="graph" transform="scale(1 1) rotate(0) translate(4 132)">
<title>Voxel::PointCloudTransform::imageToWorld</title>
<!-- Node1 -->
<g id="node1" class="node"><title>Node1</title>
<polygon fill="#bfbfbf" stroke="black" points="0,-49 0,-79 140,-79 140,-49 0,-49"/>
<text text-anchor="start" x="8" y="-67" font-family="Helvetica,sans-Serif" font-size="10.00">Voxel::PointCloudTransform</text>
<text text-anchor="middle" x="70" y="-56" font-family="Helvetica,sans-Serif" font-size="10.00">::imageToWorld</text>
</g>
<!-- Node2 -->
<g id="node2" class="node"><title>Node2</title>
<g id="a_node2"><a xlink:href="classVoxel_1_1PointCloudTransform.xhtml#a9b7d7e7da98f4a59601c7ff82d6f4574" target="_top" xlink:title="Voxel::PointCloudTransform\l::_normalizedScreenToUnitWorld">
<polygon fill="none" stroke="black" points="176.5,-98 176.5,-128 337.5,-128 337.5,-98 176.5,-98"/>
<text text-anchor="start" x="184.5" y="-116" font-family="Helvetica,sans-Serif" font-size="10.00">Voxel::PointCloudTransform</text>
<text text-anchor="middle" x="257" y="-105" font-family="Helvetica,sans-Serif" font-size="10.00">::_normalizedScreenToUnitWorld</text>
</a>
</g>
</g>
<!-- Node1&#45;&gt;Node2 -->
<g id="edge1" class="edge"><title>Node1&#45;&gt;Node2</title>
<path fill="none" stroke="midnightblue" d="M127.763,-79.0346C147.297,-84.2083 169.343,-90.0475 189.576,-95.4066"/>
<polygon fill="midnightblue" stroke="midnightblue" points="188.781,-98.8167 199.344,-97.9938 190.573,-92.05 188.781,-98.8167"/>
</g>
<!-- Node3 -->
<g id="node3" class="node"><title>Node3</title>
<g id="a_node3"><a xlink:href="classVoxel_1_1PointCloudTransform.xhtml#adfcedf51d50b5173b1fdbb6e92da438f" target="_top" xlink:title="Voxel::PointCloudTransform\l::_screenToNormalizedScreen">
<polygon fill="none" stroke="black" points="182.5,-49 182.5,-79 331.5,-79 331.5,-49 182.5,-49"/>
<text text-anchor="start" x="190.5" y="-67" font-family="Helvetica,sans-Serif" font-size="10.00">Voxel::PointCloudTransform</text>
<text text-anchor="middle" x="257" y="-56" font-family="Helvetica,sans-Serif" font-size="10.00">::_screenToNormalizedScreen</text>
</a>
</g>
</g>
<!-- Node1&#45;&gt;Node3 -->
<g id="edge2" class="edge"><title>Node1&#45;&gt;Node3</title>
<path fill="none" stroke="midnightblue" d="M140.15,-64C150.572,-64 161.417,-64 172.107,-64"/>
<polygon fill="midnightblue" stroke="midnightblue" points="172.29,-67.5001 182.29,-64 172.29,-60.5001 172.29,-67.5001"/>
</g>
<!-- Node4 -->
<g id="node4" class="node"><title>Node4</title>
<g id="a_node4"><a xlink:href="classVoxel_1_1PointCloudTransform.xhtml#ac74d88887d797fce8403736eb320bc8f" target="_top" xlink:title="Voxel::PointCloudTransform\l::getDirection">
<polygon fill="none" stroke="black" points="187,-0 187,-30 327,-30 327,-0 187,-0"/>
<text text-anchor="start" x="195" y="-18" font-family="Helvetica,sans-Serif" font-size="10.00">Voxel::PointCloudTransform</text>
<text text-anchor="middle" x="257" y="-7" font-family="Helvetica,sans-Serif" font-size="10.00">::getDirection</text>
</a>
</g>
</g>
<!-- Node1&#45;&gt;Node4 -->
<g id="edge3" class="edge"><title>Node1&#45;&gt;Node4</title>
<path fill="none" stroke="midnightblue" d="M127.763,-48.9654C147.297,-43.7917 169.343,-37.9525 189.576,-32.5934"/>
<polygon fill="midnightblue" stroke="midnightblue" points="190.573,-35.95 199.344,-30.0062 188.781,-29.1833 190.573,-35.95"/>
</g>
</g>
</svg>
