<?xml version="1.0" encoding="UTF-8" standalone="no"?>
<!DOCTYPE svg PUBLIC "-//W3C//DTD SVG 1.1//EN"
 "http://www.w3.org/Graphics/SVG/1.1/DTD/svg11.dtd">
<!-- Generated by graphviz version 2.36.0 (20140111.2315)
 -->
<!-- Title: ELFIO::elf_header_impl&lt; T &gt; Pages: 1 -->
<svg width="311pt" height="164pt"
 viewBox="0.00 0.00 311.00 164.00" xmlns="http://www.w3.org/2000/svg" xmlns:xlink="http://www.w3.org/1999/xlink">
<g id="graph0" class="graph" transform="scale(1 1) rotate(0) translate(4 160)">
<title>ELFIO::elf_header_impl&lt; T &gt;</title>
<!-- Node1 -->
<g id="node1" class="node"><title>Node1</title>
<polygon fill="#bfbfbf" stroke="black" points="113.5,-0.5 113.5,-19.5 256.5,-19.5 256.5,-0.5 113.5,-0.5"/>
<text text-anchor="middle" x="185" y="-7.5" font-family="Helvetica,sans-Serif" font-size="10.00">ELFIO::elf_header_impl&lt; T &gt;</text>
</g>
<!-- Node2 -->
<g id="node2" class="node"><title>Node2</title>
<g id="a_node2"><a xlink:href="classELFIO_1_1elf__header.xhtml" target="_top" xlink:title="ELFIO::elf_header">
<polygon fill="none" stroke="black" points="0,-68.5 0,-87.5 96,-87.5 96,-68.5 0,-68.5"/>
<text text-anchor="middle" x="48" y="-75.5" font-family="Helvetica,sans-Serif" font-size="10.00">ELFIO::elf_header</text>
</a>
</g>
</g>
<!-- Node2&#45;&gt;Node1 -->
<g id="edge1" class="edge"><title>Node2&#45;&gt;Node1</title>
<path fill="none" stroke="midnightblue" d="M75.271,-63.8621C102.543,-50.7239 143.699,-30.8969 167.085,-19.6305"/>
<polygon fill="midnightblue" stroke="midnightblue" points="73.4004,-60.8783 65.9104,-68.3717 76.4385,-67.1846 73.4004,-60.8783"/>
</g>
<!-- Node3 -->
<g id="node3" class="node"><title>Node3</title>
<g id="a_node3"><a xlink:href="classELFIO_1_1endianess__convertor.xhtml" target="_top" xlink:title="ELFIO::endianess_convertor">
<polygon fill="none" stroke="black" points="114.5,-68.5 114.5,-87.5 255.5,-87.5 255.5,-68.5 114.5,-68.5"/>
<text text-anchor="middle" x="185" y="-75.5" font-family="Helvetica,sans-Serif" font-size="10.00">ELFIO::endianess_convertor</text>
</a>
</g>
</g>
<!-- Node3&#45;&gt;Node1 -->
<g id="edge2" class="edge"><title>Node3&#45;&gt;Node1</title>
<path fill="none" stroke="#9a32cd" stroke-dasharray="5,2" d="M185,-58.0413C185,-45.4724 185,-29.5631 185,-19.8411"/>
<polygon fill="#9a32cd" stroke="#9a32cd" points="181.5,-58.3716 185,-68.3717 188.5,-58.3717 181.5,-58.3716"/>
<text text-anchor="middle" x="207" y="-41.5" font-family="Helvetica,sans-Serif" font-size="10.00"> convertor</text>
</g>
<!-- Node4 -->
<g id="node4" class="node"><title>Node4</title>
<g id="a_node4"><a xlink:href="classbool.xhtml" target="_top" xlink:title="bool">
<polygon fill="none" stroke="black" points="167.5,-136.5 167.5,-155.5 202.5,-155.5 202.5,-136.5 167.5,-136.5"/>
<text text-anchor="middle" x="185" y="-143.5" font-family="Helvetica,sans-Serif" font-size="10.00">bool</text>
</a>
</g>
</g>
<!-- Node4&#45;&gt;Node3 -->
<g id="edge3" class="edge"><title>Node4&#45;&gt;Node3</title>
<path fill="none" stroke="#9a32cd" stroke-dasharray="5,2" d="M185,-126.041C185,-113.472 185,-97.5631 185,-87.8411"/>
<polygon fill="#9a32cd" stroke="#9a32cd" points="181.5,-126.372 185,-136.372 188.5,-126.372 181.5,-126.372"/>
<text text-anchor="middle" x="223.5" y="-109.5" font-family="Helvetica,sans-Serif" font-size="10.00"> need_conversion</text>
</g>
<!-- Node5 -->
<g id="node5" class="node"><title>Node5</title>
<polygon fill="none" stroke="#bfbfbf" points="273.5,-68.5 273.5,-87.5 302.5,-87.5 302.5,-68.5 273.5,-68.5"/>
<text text-anchor="middle" x="288" y="-75.5" font-family="Helvetica,sans-Serif" font-size="10.00">T</text>
</g>
<!-- Node5&#45;&gt;Node1 -->
<g id="edge4" class="edge"><title>Node5&#45;&gt;Node1</title>
<path fill="none" stroke="#9a32cd" stroke-dasharray="5,2" d="M268.141,-62.1605C257.834,-54.654 244.932,-45.5571 233,-38 222.661,-31.4516 210.661,-24.7016 201.246,-19.5887"/>
<polygon fill="#9a32cd" stroke="#9a32cd" points="266.313,-65.1607 276.441,-68.2691 270.462,-59.5229 266.313,-65.1607"/>
<text text-anchor="middle" x="266.5" y="-41.5" font-family="Helvetica,sans-Serif" font-size="10.00"> header</text>
</g>
</g>
</svg>
