<?xml version="1.0" encoding="UTF-8" standalone="no"?>
<!DOCTYPE svg PUBLIC "-//W3C//DTD SVG 1.1//EN"
 "http://www.w3.org/Graphics/SVG/1.1/DTD/svg11.dtd">
<!-- Generated by graphviz version 2.36.0 (20140111.2315)
 -->
<!-- Title: Voxel::FilterParameterEnumTemplate::valueMeaning Pages: 1 -->
<svg width="580pt" height="38pt"
 viewBox="0.00 0.00 580.00 38.00" xmlns="http://www.w3.org/2000/svg" xmlns:xlink="http://www.w3.org/1999/xlink">
<g id="graph0" class="graph" transform="scale(1 1) rotate(0) translate(4 34)">
<title>Voxel::FilterParameterEnumTemplate::valueMeaning</title>
<!-- Node1 -->
<g id="node1" class="node"><title>Node1</title>
<polygon fill="#bfbfbf" stroke="black" points="0,-0 0,-30 140,-30 140,-0 0,-0"/>
<text text-anchor="start" x="8" y="-18" font-family="Helvetica,sans-Serif" font-size="10.00">Voxel::FilterParameterEnum</text>
<text text-anchor="middle" x="70" y="-7" font-family="Helvetica,sans-Serif" font-size="10.00">Template::valueMeaning</text>
</g>
<!-- Node2 -->
<g id="node2" class="node"><title>Node2</title>
<g id="a_node2"><a xlink:href="classVoxel_1_1CLIManager.xhtml#a7405f3b9c1589d2f343e93f13eadec3e" target="_top" xlink:title="Voxel::CLIManager::\l_showFilterSet">
<polygon fill="none" stroke="black" points="176.5,-0 176.5,-30 283.5,-30 283.5,-0 176.5,-0"/>
<text text-anchor="start" x="184.5" y="-18" font-family="Helvetica,sans-Serif" font-size="10.00">Voxel::CLIManager::</text>
<text text-anchor="middle" x="230" y="-7" font-family="Helvetica,sans-Serif" font-size="10.00">_showFilterSet</text>
</a>
</g>
</g>
<!-- Node1&#45;&gt;Node2 -->
<g id="edge1" class="edge"><title>Node1&#45;&gt;Node2</title>
<path fill="none" stroke="midnightblue" d="M150.563,-15C159.322,-15 168.073,-15 176.383,-15"/>
<polygon fill="midnightblue" stroke="midnightblue" points="150.301,-11.5001 140.301,-15 150.301,-18.5001 150.301,-11.5001"/>
</g>
<!-- Node3 -->
<g id="node3" class="node"><title>Node3</title>
<g id="a_node3"><a xlink:href="classVoxel_1_1CLIManager.xhtml#a98d69d7bd3e122d61cce89369c2c8a15" target="_top" xlink:title="Voxel::CLIManager::\l_filters">
<polygon fill="none" stroke="black" points="320.5,-0 320.5,-30 427.5,-30 427.5,-0 320.5,-0"/>
<text text-anchor="start" x="328.5" y="-18" font-family="Helvetica,sans-Serif" font-size="10.00">Voxel::CLIManager::</text>
<text text-anchor="middle" x="374" y="-7" font-family="Helvetica,sans-Serif" font-size="10.00">_filters</text>
</a>
</g>
</g>
<!-- Node2&#45;&gt;Node3 -->
<g id="edge2" class="edge"><title>Node2&#45;&gt;Node3</title>
<path fill="none" stroke="midnightblue" d="M293.994,-15C302.704,-15 311.578,-15 320.08,-15"/>
<polygon fill="midnightblue" stroke="midnightblue" points="293.876,-11.5001 283.876,-15 293.876,-18.5001 293.876,-11.5001"/>
</g>
<!-- Node4 -->
<g id="node4" class="node"><title>Node4</title>
<g id="a_node4"><a xlink:href="classVoxel_1_1CLIManager.xhtml#a7a7ce51202c00d16a0e1cac5dcceb1e0" target="_top" xlink:title="Voxel::CLIManager::\lCLIManager">
<polygon fill="none" stroke="black" points="464.5,-0 464.5,-30 571.5,-30 571.5,-0 464.5,-0"/>
<text text-anchor="start" x="472.5" y="-18" font-family="Helvetica,sans-Serif" font-size="10.00">Voxel::CLIManager::</text>
<text text-anchor="middle" x="518" y="-7" font-family="Helvetica,sans-Serif" font-size="10.00">CLIManager</text>
</a>
</g>
</g>
<!-- Node3&#45;&gt;Node4 -->
<g id="edge3" class="edge"><title>Node3&#45;&gt;Node4</title>
<path fill="none" stroke="midnightblue" d="M437.994,-15C446.704,-15 455.578,-15 464.08,-15"/>
<polygon fill="midnightblue" stroke="midnightblue" points="437.876,-11.5001 427.876,-15 437.876,-18.5001 437.876,-11.5001"/>
</g>
</g>
</svg>
