<?xml version="1.0" encoding="UTF-8" standalone="no"?>
<!DOCTYPE svg PUBLIC "-//W3C//DTD SVG 1.1//EN"
 "http://www.w3.org/Graphics/SVG/1.1/DTD/svg11.dtd">
<!-- Generated by graphviz version 2.36.0 (20140111.2315)
 -->
<!-- Title: Voxel::TI::ToFCamera::_isHistogramEnabled Pages: 1 -->
<!--zoomable 283 -->
<svg id="main" version="1.1" xmlns="http://www.w3.org/2000/svg" xmlns:xlink="http://www.w3.org/1999/xlink" xml:space="preserve" onload="init(evt)">
<style type="text/css"><![CDATA[
.edge:hover path { stroke: red; }
.edge:hover polygon { stroke: red; fill: red; }
]]></style>
<script type="text/javascript"><![CDATA[
var edges = document.getElementsByTagName('g');
if (edges && edges.length) {
  for (var i=0;i<edges.length;i++) {
    if (edges[i].id.substr(0,4)=='edge') {
      edges[i].setAttribute('class','edge');
    }
  }
}
]]></script>
        <defs>
                <circle id="rim" cx="0" cy="0" r="7"/>
                <circle id="rim2" cx="0" cy="0" r="3.5"/>
                <g id="zoomPlus">
                        <use xlink:href="#rim" fill="#404040">
                                <set attributeName="fill" to="#808080" begin="zoomplus.mouseover" end="zoomplus.mouseout"/>
                        </use>
                        <path d="M-4,0h8M0,-4v8" fill="none" stroke="white" stroke-width="1.5" pointer-events="none"/>
                </g>
                <g id="zoomMin">
                        <use xlink:href="#rim" fill="#404040">
                                <set attributeName="fill" to="#808080" begin="zoomminus.mouseover" end="zoomminus.mouseout"/>
                        </use>
                        <path d="M-4,0h8" fill="none" stroke="white" stroke-width="1.5" pointer-events="none"/>
                </g>
                <g id="dirArrow">
                        <path fill="none" stroke="white" stroke-width="1.5" d="M0,-3.0v7 M-2.5,-0.5L0,-3.0L2.5,-0.5"/>
                </g>
               <g id="resetDef">
                       <use xlink:href="#rim2" fill="#404040">
                               <set attributeName="fill" to="#808080" begin="reset.mouseover" end="reset.mouseout"/>
                       </use>
               </g>
        </defs>

<script type="text/javascript">
var viewWidth = 662;
var viewHeight = 283;
var sectionId = 'dynsection-25';
</script>
<script xlink:href="svgpan.js"/>
<svg id="graph" class="graph">
<g id="viewport">
<title>Voxel::TI::ToFCamera::_isHistogramEnabled</title>
<!-- Node1 -->
<g id="node1" class="node"><title>Node1</title>
<polygon fill="#bfbfbf" stroke="black" points="0,-147 0,-177 116,-177 116,-147 0,-147"/>
<text text-anchor="start" x="8" y="-165" font-family="Helvetica,sans-Serif" font-size="10.00">Voxel::TI::ToFCamera</text>
<text text-anchor="middle" x="58" y="-154" font-family="Helvetica,sans-Serif" font-size="10.00">::_isHistogramEnabled</text>
</g>
<!-- Node2 -->
<g id="node2" class="node"><title>Node2</title>
<g id="a_node2"><a xlink:href="classVoxel_1_1TI_1_1ToFCamera.xhtml#a52686f695d06876ef5a89e453c6a8ba3" target="_top" xlink:title="Voxel::TI::ToFCamera\l::_initStartParams">
<polygon fill="none" stroke="black" points="152,-147 152,-177 266,-177 266,-147 152,-147"/>
<text text-anchor="start" x="160" y="-165" font-family="Helvetica,sans-Serif" font-size="10.00">Voxel::TI::ToFCamera</text>
<text text-anchor="middle" x="209" y="-154" font-family="Helvetica,sans-Serif" font-size="10.00">::_initStartParams</text>
</a>
</g>
</g>
<!-- Node1&#45;&gt;Node2 -->
<g id="edge1" class="edge"><title>Node1&#45;&gt;Node2</title>
<path fill="none" stroke="midnightblue" d="M126.407,-162C134.865,-162 143.447,-162 151.709,-162"/>
<polygon fill="midnightblue" stroke="midnightblue" points="126.181,-158.5 116.181,-162 126.181,-165.5 126.181,-158.5"/>
</g>
<!-- Node3 -->
<g id="node3" class="node"><title>Node3</title>
<g id="a_node3"><a xlink:href="classVoxel_1_1TI_1_1ToFHaddockCamera.xhtml#ae87b0ca3c8867d1b520c0165d526e79d" target="_top" xlink:title="Voxel::TI::ToFHaddockCamera\l::_initStartParams">
<polygon fill="none" stroke="black" points="304.5,-245 304.5,-275 457.5,-275 457.5,-245 304.5,-245"/>
<text text-anchor="start" x="312.5" y="-263" font-family="Helvetica,sans-Serif" font-size="10.00">Voxel::TI::ToFHaddockCamera</text>
<text text-anchor="middle" x="381" y="-252" font-family="Helvetica,sans-Serif" font-size="10.00">::_initStartParams</text>
</a>
</g>
</g>
<!-- Node2&#45;&gt;Node3 -->
<g id="edge2" class="edge"><title>Node2&#45;&gt;Node3</title>
<path fill="none" stroke="midnightblue" d="M232.885,-184.057C250.557,-200.072 276.265,-221.258 302,-235 309.025,-238.751 316.708,-242.057 324.427,-244.934"/>
<polygon fill="midnightblue" stroke="midnightblue" points="235.082,-181.321 225.361,-177.108 230.332,-186.463 235.082,-181.321"/>
</g>
<!-- Node5 -->
<g id="node5" class="node"><title>Node5</title>
<g id="a_node5"><a xlink:href="classVoxel_1_1TI_1_1RTS5825Camera.xhtml#a2df71f9665a9c5d5dd1f6c58654175cd" target="_top" xlink:title="Voxel::TI::RTS5825Camera\l::_initStartParams">
<polygon fill="none" stroke="black" points="312,-196 312,-226 450,-226 450,-196 312,-196"/>
<text text-anchor="start" x="320" y="-214" font-family="Helvetica,sans-Serif" font-size="10.00">Voxel::TI::RTS5825Camera</text>
<text text-anchor="middle" x="381" y="-203" font-family="Helvetica,sans-Serif" font-size="10.00">::_initStartParams</text>
</a>
</g>
</g>
<!-- Node2&#45;&gt;Node5 -->
<g id="edge4" class="edge"><title>Node2&#45;&gt;Node5</title>
<path fill="none" stroke="midnightblue" d="M272.082,-179.894C290.366,-185.164 310.18,-190.876 327.78,-195.948"/>
<polygon fill="midnightblue" stroke="midnightblue" points="272.971,-176.508 262.393,-177.101 271.032,-183.234 272.971,-176.508"/>
</g>
<!-- Node6 -->
<g id="node6" class="node"><title>Node6</title>
<g id="a_node6"><a xlink:href="classVoxel_1_1TI_1_1HaddockCDKCamera.xhtml#a4e8e32000eca9b81bc6401a8d512cbc7" target="_top" xlink:title="Voxel::TI::HaddockCDKCamera\l::_initStartParams">
<polygon fill="none" stroke="black" points="302,-147 302,-177 460,-177 460,-147 302,-147"/>
<text text-anchor="start" x="310" y="-165" font-family="Helvetica,sans-Serif" font-size="10.00">Voxel::TI::HaddockCDKCamera</text>
<text text-anchor="middle" x="381" y="-154" font-family="Helvetica,sans-Serif" font-size="10.00">::_initStartParams</text>
</a>
</g>
</g>
<!-- Node2&#45;&gt;Node6 -->
<g id="edge5" class="edge"><title>Node2&#45;&gt;Node6</title>
<path fill="none" stroke="midnightblue" d="M276.206,-162C284.586,-162 293.222,-162 301.766,-162"/>
<polygon fill="midnightblue" stroke="midnightblue" points="276.136,-158.5 266.135,-162 276.135,-165.5 276.136,-158.5"/>
</g>
<!-- Node7 -->
<g id="node7" class="node"><title>Node7</title>
<g id="a_node7"><a xlink:href="classVoxel_1_1TI_1_1ToFCalculusCamera.xhtml#adf420ba5e95dcb0cbd3da90f446242d9" target="_top" xlink:title="Voxel::TI::ToFCalculusCamera\l::_initStartParams">
<polygon fill="none" stroke="black" points="305,-98 305,-128 457,-128 457,-98 305,-98"/>
<text text-anchor="start" x="313" y="-116" font-family="Helvetica,sans-Serif" font-size="10.00">Voxel::TI::ToFCalculusCamera</text>
<text text-anchor="middle" x="381" y="-105" font-family="Helvetica,sans-Serif" font-size="10.00">::_initStartParams</text>
</a>
</g>
</g>
<!-- Node2&#45;&gt;Node7 -->
<g id="edge6" class="edge"><title>Node2&#45;&gt;Node7</title>
<path fill="none" stroke="midnightblue" d="M272.082,-144.106C290.366,-138.836 310.18,-133.124 327.78,-128.052"/>
<polygon fill="midnightblue" stroke="midnightblue" points="271.032,-140.766 262.393,-146.899 272.971,-147.492 271.032,-140.766"/>
</g>
<!-- Node9 -->
<g id="node9" class="node"><title>Node9</title>
<g id="a_node9"><a xlink:href="classVoxel_1_1TI_1_1ToFTintinCamera.xhtml#a17729406fadceea890b4e0e079aede46" target="_top" xlink:title="Voxel::TI::ToFTintinCamera\l::_initStartParams">
<polygon fill="none" stroke="black" points="312,-49 312,-79 450,-79 450,-49 312,-49"/>
<text text-anchor="start" x="320" y="-67" font-family="Helvetica,sans-Serif" font-size="10.00">Voxel::TI::ToFTintinCamera</text>
<text text-anchor="middle" x="381" y="-56" font-family="Helvetica,sans-Serif" font-size="10.00">::_initStartParams</text>
</a>
</g>
</g>
<!-- Node2&#45;&gt;Node9 -->
<g id="edge8" class="edge"><title>Node2&#45;&gt;Node9</title>
<path fill="none" stroke="midnightblue" d="M232.885,-139.943C250.557,-123.928 276.265,-102.742 302,-89 309.025,-85.249 316.708,-81.9428 324.427,-79.0663"/>
<polygon fill="midnightblue" stroke="midnightblue" points="230.332,-137.537 225.361,-146.892 235.082,-142.679 230.332,-137.537"/>
</g>
<!-- Node4 -->
<g id="node4" class="node"><title>Node4</title>
<g id="a_node4"><a xlink:href="classVoxel_1_1TI_1_1Voxel14Camera.xhtml#ad5dcde935444ac28a6e0b5705f504573" target="_top" xlink:title="Voxel::TI::Voxel14Camera\l::_initStartParams">
<polygon fill="none" stroke="black" points="509,-245 509,-275 641,-275 641,-245 509,-245"/>
<text text-anchor="start" x="517" y="-263" font-family="Helvetica,sans-Serif" font-size="10.00">Voxel::TI::Voxel14Camera</text>
<text text-anchor="middle" x="575" y="-252" font-family="Helvetica,sans-Serif" font-size="10.00">::_initStartParams</text>
</a>
</g>
</g>
<!-- Node3&#45;&gt;Node4 -->
<g id="edge3" class="edge"><title>Node3&#45;&gt;Node4</title>
<path fill="none" stroke="midnightblue" d="M467.994,-260C481.67,-260 495.62,-260 508.718,-260"/>
<polygon fill="midnightblue" stroke="midnightblue" points="467.608,-256.5 457.608,-260 467.608,-263.5 467.608,-256.5"/>
</g>
<!-- Node8 -->
<g id="node8" class="node"><title>Node8</title>
<g id="a_node8"><a xlink:href="classVoxel_1_1TI_1_1CalculusCDKCamera.xhtml#a2474713056342fa6774ff5a165961052" target="_top" xlink:title="Voxel::TI::CalculusCDKCamera\l::_initStartParams">
<polygon fill="none" stroke="black" points="496.5,-98 496.5,-128 653.5,-128 653.5,-98 496.5,-98"/>
<text text-anchor="start" x="504.5" y="-116" font-family="Helvetica,sans-Serif" font-size="10.00">Voxel::TI::CalculusCDKCamera</text>
<text text-anchor="middle" x="575" y="-105" font-family="Helvetica,sans-Serif" font-size="10.00">::_initStartParams</text>
</a>
</g>
</g>
<!-- Node7&#45;&gt;Node8 -->
<g id="edge7" class="edge"><title>Node7&#45;&gt;Node8</title>
<path fill="none" stroke="midnightblue" d="M467.152,-113C476.908,-113 486.816,-113 496.465,-113"/>
<polygon fill="midnightblue" stroke="midnightblue" points="467.057,-109.5 457.057,-113 467.057,-116.5 467.057,-109.5"/>
</g>
<!-- Node10 -->
<g id="node10" class="node"><title>Node10</title>
<g id="a_node10"><a xlink:href="classVoxel_1_1TI_1_1TintinCDKCamera.xhtml#a35274b5fd95ea088be4bc0637328d5f4" target="_top" xlink:title="Voxel::TI::TintinCDKCamera\l::_initStartParams">
<polygon fill="none" stroke="black" points="503.5,-49 503.5,-79 646.5,-79 646.5,-49 503.5,-49"/>
<text text-anchor="start" x="511.5" y="-67" font-family="Helvetica,sans-Serif" font-size="10.00">Voxel::TI::TintinCDKCamera</text>
<text text-anchor="middle" x="575" y="-56" font-family="Helvetica,sans-Serif" font-size="10.00">::_initStartParams</text>
</a>
</g>
</g>
<!-- Node9&#45;&gt;Node10 -->
<g id="edge9" class="edge"><title>Node9&#45;&gt;Node10</title>
<path fill="none" stroke="midnightblue" d="M460.469,-64C474.68,-64 489.423,-64 503.392,-64"/>
<polygon fill="midnightblue" stroke="midnightblue" points="460.233,-60.5001 450.233,-64 460.233,-67.5001 460.233,-60.5001"/>
</g>
<!-- Node11 -->
<g id="node11" class="node"><title>Node11</title>
<g id="a_node11"><a xlink:href="classVoxel_1_1TI_1_1VoxelDCamera.xhtml#ae0706724a5ebbb978d41fb2633af5040" target="_top" xlink:title="Voxel::TI::VoxelDCamera\l::_initStartParams">
<polygon fill="none" stroke="black" points="510.5,-0 510.5,-30 639.5,-30 639.5,-0 510.5,-0"/>
<text text-anchor="start" x="518.5" y="-18" font-family="Helvetica,sans-Serif" font-size="10.00">Voxel::TI::VoxelDCamera</text>
<text text-anchor="middle" x="575" y="-7" font-family="Helvetica,sans-Serif" font-size="10.00">::_initStartParams</text>
</a>
</g>
</g>
<!-- Node9&#45;&gt;Node11 -->
<g id="edge10" class="edge"><title>Node9&#45;&gt;Node11</title>
<path fill="none" stroke="midnightblue" d="M450.767,-46.4502C471.851,-41.0694 494.845,-35.201 515.2,-30.0062"/>
<polygon fill="midnightblue" stroke="midnightblue" points="449.735,-43.1012 440.911,-48.9654 451.466,-49.8838 449.735,-43.1012"/>
</g>
</g>
</svg>
        <g id="navigator" transform="translate(0 0)" fill="#404254">
                <rect fill="#f2f5e9" fill-opacity="0.5" stroke="#606060" stroke-width=".5" x="0" y="0" width="60" height="60"/>
                <use id="zoomplus" xlink:href="#zoomPlus" x="17" y="9" onmousedown="handleZoom(evt,'in')"/>
                <use id="zoomminus" xlink:href="#zoomMin" x="42" y="9" onmousedown="handleZoom(evt,'out')"/>
                <use id="reset" xlink:href="#resetDef" x="30" y="36" onmousedown="handleReset()"/>
                <g id="arrowUp" xlink:href="#dirArrow" transform="translate(30 24)" onmousedown="handlePan(0,-1)">
                  <use xlink:href="#rim" fill="#404040">
                        <set attributeName="fill" to="#808080" begin="arrowUp.mouseover" end="arrowUp.mouseout"/>
                  </use>
                  <path fill="none" stroke="white" stroke-width="1.5" d="M0,-3.0v7 M-2.5,-0.5L0,-3.0L2.5,-0.5"/>
                </g>
                <g id="arrowRight" xlink:href="#dirArrow" transform="rotate(90) translate(36 -43)" onmousedown="handlePan(1,0)">
                  <use xlink:href="#rim" fill="#404040">
                        <set attributeName="fill" to="#808080" begin="arrowRight.mouseover" end="arrowRight.mouseout"/>
                  </use>
                  <path fill="none" stroke="white" stroke-width="1.5" d="M0,-3.0v7 M-2.5,-0.5L0,-3.0L2.5,-0.5"/>
                </g>
                <g id="arrowDown" xlink:href="#dirArrow" transform="rotate(180) translate(-30 -48)" onmousedown="handlePan(0,1)">
                  <use xlink:href="#rim" fill="#404040">
                        <set attributeName="fill" to="#808080" begin="arrowDown.mouseover" end="arrowDown.mouseout"/>
                  </use>
                  <path fill="none" stroke="white" stroke-width="1.5" d="M0,-3.0v7 M-2.5,-0.5L0,-3.0L2.5,-0.5"/>
                </g>
                <g id="arrowLeft" xlink:href="#dirArrow" transform="rotate(270) translate(-36 17)" onmousedown="handlePan(-1,0)">
                  <use xlink:href="#rim" fill="#404040">
                        <set attributeName="fill" to="#808080" begin="arrowLeft.mouseover" end="arrowLeft.mouseout"/>
                  </use>
                  <path fill="none" stroke="white" stroke-width="1.5" d="M0,-3.0v7 M-2.5,-0.5L0,-3.0L2.5,-0.5"/>
                </g>
        </g>
        <svg viewBox="0 0 15 15" width="100%" height="30px" preserveAspectRatio="xMaxYMin meet">
         <g id="arrow_out" transform="scale(0.3 0.3)">
          <a xlink:href="classVoxel_1_1TI_1_1ToFCamera_a3c35074af2f6b686cea15db188b9c53f_icgraph_org.svg" target="_base">
           <rect id="button" ry="5" rx="5" y="6" x="6" height="38" width="38"
                fill="#f2f5e9" fill-opacity="0.5" stroke="#606060" stroke-width="1.0"/>
           <path id="arrow"
             d="M 11.500037,31.436501 C 11.940474,20.09759 22.043105,11.32322 32.158766,21.979434 L 37.068811,17.246167 C 37.068811,17.246167 37.088388,32 37.088388,32 L 22.160133,31.978069 C 22.160133,31.978069 26.997745,27.140456 26.997745,27.140456 C 18.528582,18.264221 13.291696,25.230495 11.500037,31.436501 z"
             style="fill:#404040;"/>
          </a>
         </g>
        </svg>
</svg>
