<?xml version="1.0" encoding="UTF-8" standalone="no"?>
<!DOCTYPE svg PUBLIC "-//W3C//DTD SVG 1.1//EN"
 "http://www.w3.org/Graphics/SVG/1.1/DTD/svg11.dtd">
<!-- Generated by graphviz version 2.36.0 (20140111.2315)
 -->
<!-- Title: Voxel::ParameterTemplate&lt; T &gt; Pages: 1 -->
<svg width="556pt" height="186pt"
 viewBox="0.00 0.00 556.00 186.00" xmlns="http://www.w3.org/2000/svg" xmlns:xlink="http://www.w3.org/1999/xlink">
<g id="graph0" class="graph" transform="scale(1 1) rotate(0) translate(4 182)">
<title>Voxel::ParameterTemplate&lt; T &gt;</title>
<!-- Node1 -->
<g id="node1" class="node"><title>Node1</title>
<polygon fill="#bfbfbf" stroke="black" points="266.5,-0.5 266.5,-19.5 423.5,-19.5 423.5,-0.5 266.5,-0.5"/>
<text text-anchor="middle" x="345" y="-7.5" font-family="Helvetica,sans-Serif" font-size="10.00">Voxel::ParameterTemplate&lt; T &gt;</text>
</g>
<!-- Node2 -->
<g id="node2" class="node"><title>Node2</title>
<g id="a_node2"><a xlink:href="classVoxel_1_1Parameter.xhtml" target="_top" xlink:title="Voxel::Parameter">
<polygon fill="none" stroke="black" points="240,-68.5 240,-87.5 332,-87.5 332,-68.5 240,-68.5"/>
<text text-anchor="middle" x="286" y="-75.5" font-family="Helvetica,sans-Serif" font-size="10.00">Voxel::Parameter</text>
</a>
</g>
</g>
<!-- Node2&#45;&gt;Node1 -->
<g id="edge1" class="edge"><title>Node2&#45;&gt;Node1</title>
<path fill="none" stroke="midnightblue" d="M300.589,-60.68C312.124,-47.7768 327.785,-30.2575 337.097,-19.8411"/>
<polygon fill="midnightblue" stroke="midnightblue" points="297.769,-58.5836 293.713,-68.3717 302.987,-63.2489 297.769,-58.5836"/>
</g>
<!-- Node3 -->
<g id="node3" class="node"><title>Node3</title>
<g id="a_node3"><a xlink:href="classVoxel_1_1RegisterProgrammer.xhtml" target="_top" xlink:title="Voxel::RegisterProgrammer">
<polygon fill="none" stroke="black" points="-0.5,-158.5 -0.5,-177.5 136.5,-177.5 136.5,-158.5 -0.5,-158.5"/>
<text text-anchor="middle" x="68" y="-165.5" font-family="Helvetica,sans-Serif" font-size="10.00">Voxel::RegisterProgrammer</text>
</a>
</g>
</g>
<!-- Node3&#45;&gt;Node2 -->
<g id="edge2" class="edge"><title>Node3&#45;&gt;Node2</title>
<path fill="none" stroke="#9a32cd" stroke-dasharray="5,2" d="M76.9892,-149.408C85.1743,-135.289 98.6258,-116.199 116,-106 136.424,-94.011 196.724,-86.5177 239.694,-82.549"/>
<polygon fill="#9a32cd" stroke="#9a32cd" points="73.8995,-147.763 72.1804,-158.217 80.0438,-151.117 73.8995,-147.763"/>
<text text-anchor="middle" x="146.5" y="-120.5" font-family="Helvetica,sans-Serif" font-size="10.00"> _programmer</text>
</g>
<!-- Node4 -->
<g id="node4" class="node"><title>Node4</title>
<polygon fill="none" stroke="#bfbfbf" points="154.5,-158.5 154.5,-177.5 205.5,-177.5 205.5,-158.5 154.5,-158.5"/>
<text text-anchor="middle" x="180" y="-165.5" font-family="Helvetica,sans-Serif" font-size="10.00">uint32_t</text>
</g>
<!-- Node4&#45;&gt;Node2 -->
<g id="edge3" class="edge"><title>Node4&#45;&gt;Node2</title>
<path fill="none" stroke="#9a32cd" stroke-dasharray="5,2" d="M179.912,-148.204C180.856,-134.795 184.298,-117.221 195,-106 206.715,-93.7172 223.734,-86.9475 239.893,-83.2428"/>
<polygon fill="#9a32cd" stroke="#9a32cd" points="176.412,-148.153 179.602,-158.256 183.409,-148.369 176.412,-148.153"/>
<text text-anchor="middle" x="215" y="-126" font-family="Helvetica,sans-Serif" font-size="10.00"> _mask</text>
<text text-anchor="middle" x="215" y="-115" font-family="Helvetica,sans-Serif" font-size="10.00">_address</text>
</g>
<!-- Node5 -->
<g id="node5" class="node"><title>Node5</title>
<polygon fill="none" stroke="#bfbfbf" points="223.5,-158.5 223.5,-177.5 264.5,-177.5 264.5,-158.5 223.5,-158.5"/>
<text text-anchor="middle" x="244" y="-165.5" font-family="Helvetica,sans-Serif" font-size="10.00">string</text>
</g>
<!-- Node5&#45;&gt;Node2 -->
<g id="edge4" class="edge"><title>Node5&#45;&gt;Node2</title>
<path fill="none" stroke="#9a32cd" stroke-dasharray="5,2" d="M239.589,-148.578C237.554,-135.847 236.935,-118.941 244,-106 248.403,-97.9351 256.361,-91.9199 264.174,-87.6396"/>
<polygon fill="#9a32cd" stroke="#9a32cd" points="236.179,-149.375 241.585,-158.487 243.042,-147.993 236.179,-149.375"/>
<text text-anchor="middle" x="275.5" y="-131.5" font-family="Helvetica,sans-Serif" font-size="10.00"> _description</text>
<text text-anchor="middle" x="275.5" y="-120.5" font-family="Helvetica,sans-Serif" font-size="10.00">_name</text>
<text text-anchor="middle" x="275.5" y="-109.5" font-family="Helvetica,sans-Serif" font-size="10.00">_displayName</text>
</g>
<!-- Node6 -->
<g id="node6" class="node"><title>Node6</title>
<polygon fill="none" stroke="#bfbfbf" points="306,-158.5 306,-177.5 352,-177.5 352,-158.5 306,-158.5"/>
<text text-anchor="middle" x="329" y="-165.5" font-family="Helvetica,sans-Serif" font-size="10.00">uint8_t</text>
</g>
<!-- Node6&#45;&gt;Node2 -->
<g id="edge5" class="edge"><title>Node6&#45;&gt;Node2</title>
<path fill="none" stroke="#9a32cd" stroke-dasharray="5,2" d="M324.038,-148.651C320.277,-136.191 314.479,-119.575 307,-106 303.332,-99.3425 298.082,-92.5925 293.749,-87.5069"/>
<polygon fill="#9a32cd" stroke="#9a32cd" points="320.697,-149.697 326.811,-158.35 327.427,-147.773 320.697,-149.697"/>
<text text-anchor="middle" x="357" y="-131.5" font-family="Helvetica,sans-Serif" font-size="10.00"> _registerLength</text>
<text text-anchor="middle" x="357" y="-120.5" font-family="Helvetica,sans-Serif" font-size="10.00">_lsb</text>
<text text-anchor="middle" x="357" y="-109.5" font-family="Helvetica,sans-Serif" font-size="10.00">_msb</text>
</g>
<!-- Node7 -->
<g id="node7" class="node"><title>Node7</title>
<g id="a_node7"><a xlink:href="classVector_3_01String_01_4.xhtml" target="_top" xlink:title="Vector\&lt; String \&gt;">
<polygon fill="none" stroke="black" points="377.5,-158.5 377.5,-177.5 466.5,-177.5 466.5,-158.5 377.5,-158.5"/>
<text text-anchor="middle" x="422" y="-165.5" font-family="Helvetica,sans-Serif" font-size="10.00">Vector&lt; String &gt;</text>
</a>
</g>
</g>
<!-- Node7&#45;&gt;Node2 -->
<g id="edge6" class="edge"><title>Node7&#45;&gt;Node2</title>
<path fill="none" stroke="#9a32cd" stroke-dasharray="5,2" d="M418.762,-148.69C415.39,-134.99 408.737,-116.822 396,-106 390.661,-101.464 357.183,-93.612 328.546,-87.541"/>
<polygon fill="#9a32cd" stroke="#9a32cd" points="415.34,-149.424 420.818,-158.493 422.191,-147.988 415.34,-149.424"/>
<text text-anchor="middle" x="450.5" y="-120.5" font-family="Helvetica,sans-Serif" font-size="10.00"> _dependencies</text>
</g>
<!-- Node8 -->
<g id="node8" class="node"><title>Node8</title>
<polygon fill="none" stroke="#bfbfbf" points="489.5,-158.5 489.5,-177.5 538.5,-177.5 538.5,-158.5 489.5,-158.5"/>
<text text-anchor="middle" x="514" y="-165.5" font-family="Helvetica,sans-Serif" font-size="10.00">IOType</text>
</g>
<!-- Node8&#45;&gt;Node2 -->
<g id="edge7" class="edge"><title>Node8&#45;&gt;Node2</title>
<path fill="none" stroke="#9a32cd" stroke-dasharray="5,2" d="M511.43,-148.27C508.481,-134.343 502.214,-116.075 489,-106 462.654,-85.9116 373.8,-92.6761 341,-88 338.126,-87.5903 335.171,-87.1531 332.192,-86.7003"/>
<polygon fill="#9a32cd" stroke="#9a32cd" points="508.006,-149.009 513.154,-158.269 514.904,-147.819 508.006,-149.009"/>
<text text-anchor="middle" x="529" y="-120.5" font-family="Helvetica,sans-Serif" font-size="10.00"> _ioType</text>
</g>
<!-- Node9 -->
<g id="node9" class="node"><title>Node9</title>
<polygon fill="none" stroke="#bfbfbf" points="350.5,-68.5 350.5,-87.5 379.5,-87.5 379.5,-68.5 350.5,-68.5"/>
<text text-anchor="middle" x="365" y="-75.5" font-family="Helvetica,sans-Serif" font-size="10.00">T</text>
</g>
<!-- Node9&#45;&gt;Node1 -->
<g id="edge8" class="edge"><title>Node9&#45;&gt;Node1</title>
<path fill="none" stroke="#9a32cd" stroke-dasharray="5,2" d="M359.371,-58.425C355.545,-45.7978 350.655,-29.6623 347.679,-19.8411"/>
<polygon fill="#9a32cd" stroke="#9a32cd" points="356.136,-59.8165 362.385,-68.3717 362.835,-57.7864 356.136,-59.8165"/>
<text text-anchor="middle" x="373" y="-41.5" font-family="Helvetica,sans-Serif" font-size="10.00"> _value</text>
</g>
</g>
</svg>
