<?xml version="1.0" encoding="UTF-8" standalone="no"?>
<!DOCTYPE svg PUBLIC "-//W3C//DTD SVG 1.1//EN"
 "http://www.w3.org/Graphics/SVG/1.1/DTD/svg11.dtd">
<!-- Generated by graphviz version 2.36.0 (20140111.2315)
 -->
<!-- Title: Voxel::FilterParameter Pages: 1 -->
<svg width="960pt" height="136pt"
 viewBox="0.00 0.00 960.00 136.00" xmlns="http://www.w3.org/2000/svg" xmlns:xlink="http://www.w3.org/1999/xlink">
<g id="graph0" class="graph" transform="scale(1 1) rotate(0) translate(4 132)">
<title>Voxel::FilterParameter</title>
<!-- Node1 -->
<g id="node1" class="node"><title>Node1</title>
<polygon fill="#bfbfbf" stroke="black" points="0,-87.5 0,-106.5 114,-106.5 114,-87.5 0,-87.5"/>
<text text-anchor="middle" x="57" y="-94.5" font-family="Helvetica,sans-Serif" font-size="10.00">Voxel::FilterParameter</text>
</g>
<!-- Node2 -->
<g id="node2" class="node"><title>Node2</title>
<g id="a_node2"><a xlink:href="classVoxel_1_1FilterParameterTemplate.xhtml" target="_top" xlink:title="Voxel::FilterParameterTemplate\l\&lt; bool \&gt;">
<polygon fill="none" stroke="black" points="408.5,-98 408.5,-128 563.5,-128 563.5,-98 408.5,-98"/>
<text text-anchor="start" x="416.5" y="-116" font-family="Helvetica,sans-Serif" font-size="10.00">Voxel::FilterParameterTemplate</text>
<text text-anchor="middle" x="486" y="-105" font-family="Helvetica,sans-Serif" font-size="10.00">&lt; bool &gt;</text>
</a>
</g>
</g>
<!-- Node1&#45;&gt;Node2 -->
<g id="edge1" class="edge"><title>Node1&#45;&gt;Node2</title>
<path fill="none" stroke="midnightblue" d="M124.3,-99.4843C201.11,-102.362 327.451,-107.097 408.394,-110.13"/>
<polygon fill="midnightblue" stroke="midnightblue" points="124.386,-95.9852 114.262,-99.1082 124.124,-102.98 124.386,-95.9852"/>
</g>
<!-- Node5 -->
<g id="node5" class="node"><title>Node5</title>
<g id="a_node5"><a xlink:href="classVoxel_1_1FilterParameterTemplate.xhtml" target="_top" xlink:title="Voxel::FilterParameterTemplate\&lt; T \&gt;">
<polygon fill="none" stroke="black" points="152.5,-57.5 152.5,-76.5 331.5,-76.5 331.5,-57.5 152.5,-57.5"/>
<text text-anchor="middle" x="242" y="-64.5" font-family="Helvetica,sans-Serif" font-size="10.00">Voxel::FilterParameterTemplate&lt; T &gt;</text>
</a>
</g>
</g>
<!-- Node1&#45;&gt;Node5 -->
<g id="edge4" class="edge"><title>Node1&#45;&gt;Node5</title>
<path fill="none" stroke="midnightblue" d="M124.53,-86.0934C143.642,-82.9603 164.329,-79.5691 182.89,-76.5262"/>
<polygon fill="midnightblue" stroke="midnightblue" points="123.701,-82.6825 114.399,-87.7542 124.834,-89.5903 123.701,-82.6825"/>
</g>
<!-- Node3 -->
<g id="node3" class="node"><title>Node3</title>
<g id="a_node3"><a xlink:href="classVoxel_1_1FilterParameterEnumTemplate.xhtml" target="_top" xlink:title="Voxel::FilterParameterEnum\lTemplate\&lt; bool \&gt;">
<polygon fill="none" stroke="black" points="640,-76 640,-106 780,-106 780,-76 640,-76"/>
<text text-anchor="start" x="648" y="-94" font-family="Helvetica,sans-Serif" font-size="10.00">Voxel::FilterParameterEnum</text>
<text text-anchor="middle" x="710" y="-83" font-family="Helvetica,sans-Serif" font-size="10.00">Template&lt; bool &gt;</text>
</a>
</g>
</g>
<!-- Node2&#45;&gt;Node3 -->
<g id="edge2" class="edge"><title>Node2&#45;&gt;Node3</title>
<path fill="none" stroke="midnightblue" d="M573.668,-104.411C595.571,-102.241 618.804,-99.9384 639.723,-97.8653"/>
<polygon fill="midnightblue" stroke="midnightblue" points="573.317,-100.929 563.711,-105.398 574.007,-107.895 573.317,-100.929"/>
</g>
<!-- Node4 -->
<g id="node4" class="node"><title>Node4</title>
<g id="a_node4"><a xlink:href="classVoxel_1_1BoolFilterParameter.xhtml" target="_top" xlink:title="Voxel::BoolFilterParameter">
<polygon fill="none" stroke="black" points="818,-81.5 818,-100.5 952,-100.5 952,-81.5 818,-81.5"/>
<text text-anchor="middle" x="885" y="-88.5" font-family="Helvetica,sans-Serif" font-size="10.00">Voxel::BoolFilterParameter</text>
</a>
</g>
</g>
<!-- Node3&#45;&gt;Node4 -->
<g id="edge3" class="edge"><title>Node3&#45;&gt;Node4</title>
<path fill="none" stroke="midnightblue" d="M790.636,-91C799.787,-91 809.042,-91 817.987,-91"/>
<polygon fill="midnightblue" stroke="midnightblue" points="790.369,-87.5001 780.369,-91 790.369,-94.5001 790.369,-87.5001"/>
</g>
<!-- Node5&#45;&gt;Node2 -->
<g id="edge8" class="edge"><title>Node5&#45;&gt;Node2</title>
<path fill="none" stroke="orange" stroke-dasharray="5,2" d="M309.14,-78.2284C334.467,-82.6511 363.607,-87.889 390,-93 398.108,-94.5701 406.593,-96.2719 415.013,-97.9974"/>
<polygon fill="orange" stroke="orange" points="309.723,-74.7773 299.271,-76.5124 308.524,-81.6738 309.723,-74.7773"/>
<text text-anchor="middle" x="370" y="-96" font-family="Helvetica,sans-Serif" font-size="10.00"> &lt; bool &gt;</text>
</g>
<!-- Node6 -->
<g id="node6" class="node"><title>Node6</title>
<g id="a_node6"><a xlink:href="classVoxel_1_1FilterParameterEnumTemplate.xhtml" target="_top" xlink:title="Voxel::FilterParameterEnum\lTemplate\&lt; T \&gt;">
<polygon fill="none" stroke="black" points="416,-49 416,-79 556,-79 556,-49 416,-49"/>
<text text-anchor="start" x="424" y="-67" font-family="Helvetica,sans-Serif" font-size="10.00">Voxel::FilterParameterEnum</text>
<text text-anchor="middle" x="486" y="-56" font-family="Helvetica,sans-Serif" font-size="10.00">Template&lt; T &gt;</text>
</a>
</g>
</g>
<!-- Node5&#45;&gt;Node6 -->
<g id="edge5" class="edge"><title>Node5&#45;&gt;Node6</title>
<path fill="none" stroke="midnightblue" d="M341.929,-65.7736C366.79,-65.4654 392.939,-65.1413 415.981,-64.8556"/>
<polygon fill="midnightblue" stroke="midnightblue" points="341.694,-62.2762 331.738,-65.8999 341.78,-69.2756 341.694,-62.2762"/>
</g>
<!-- Node7 -->
<g id="node7" class="node"><title>Node7</title>
<g id="a_node7"><a xlink:href="classVoxel_1_1FilterParameterRangeTemplate.xhtml" target="_top" xlink:title="Voxel::FilterParameterRange\lTemplate\&lt; T \&gt;">
<polygon fill="none" stroke="black" points="414.5,-0 414.5,-30 557.5,-30 557.5,-0 414.5,-0"/>
<text text-anchor="start" x="422.5" y="-18" font-family="Helvetica,sans-Serif" font-size="10.00">Voxel::FilterParameterRange</text>
<text text-anchor="middle" x="486" y="-7" font-family="Helvetica,sans-Serif" font-size="10.00">Template&lt; T &gt;</text>
</a>
</g>
</g>
<!-- Node5&#45;&gt;Node7 -->
<g id="edge7" class="edge"><title>Node5&#45;&gt;Node7</title>
<path fill="none" stroke="midnightblue" d="M297.332,-55.3253C332.026,-47.8705 377.35,-38.1314 414.765,-30.0918"/>
<polygon fill="midnightblue" stroke="midnightblue" points="296.428,-51.9396 287.387,-57.4624 297.899,-58.7834 296.428,-51.9396"/>
</g>
<!-- Node6&#45;&gt;Node3 -->
<g id="edge6" class="edge"><title>Node6&#45;&gt;Node3</title>
<path fill="none" stroke="orange" stroke-dasharray="5,2" d="M566.163,-73.628C590.162,-76.5468 616.331,-79.7294 639.635,-82.5638"/>
<polygon fill="orange" stroke="orange" points="566.375,-70.128 556.025,-72.395 565.53,-77.0768 566.375,-70.128"/>
<text text-anchor="middle" x="602" y="-83" font-family="Helvetica,sans-Serif" font-size="10.00"> &lt; bool &gt;</text>
</g>
</g>
</svg>
