<?xml version="1.0" encoding="UTF-8" standalone="no"?>
<!DOCTYPE svg PUBLIC "-//W3C//DTD SVG 1.1//EN"
 "http://www.w3.org/Graphics/SVG/1.1/DTD/svg11.dtd">
<!-- Generated by graphviz version 2.36.0 (20140111.2315)
 -->
<!-- Title: Voxel::FilterFactory Pages: 1 -->
<svg width="181pt" height="108pt"
 viewBox="0.00 0.00 181.00 108.00" xmlns="http://www.w3.org/2000/svg" xmlns:xlink="http://www.w3.org/1999/xlink">
<g id="graph0" class="graph" transform="scale(1 1) rotate(0) translate(4 104)">
<title>Voxel::FilterFactory</title>
<!-- Node1 -->
<g id="node1" class="node"><title>Node1</title>
<polygon fill="#bfbfbf" stroke="black" points="51,-0.5 51,-19.5 153,-19.5 153,-0.5 51,-0.5"/>
<text text-anchor="middle" x="102" y="-7.5" font-family="Helvetica,sans-Serif" font-size="10.00">Voxel::FilterFactory</text>
</g>
<!-- Node2 -->
<g id="node2" class="node"><title>Node2</title>
<polygon fill="none" stroke="#bfbfbf" points="-0.5,-69 -0.5,-99 102.5,-99 102.5,-69 -0.5,-69"/>
<text text-anchor="start" x="7.5" y="-87" font-family="Helvetica,sans-Serif" font-size="10.00">Map&lt; String, Voxel</text>
<text text-anchor="middle" x="51" y="-76" font-family="Helvetica,sans-Serif" font-size="10.00">::FilterDescription &gt;</text>
</g>
<!-- Node2&#45;&gt;Node1 -->
<g id="edge1" class="edge"><title>Node2&#45;&gt;Node1</title>
<path fill="none" stroke="#9a32cd" stroke-dasharray="5,2" d="M47.0876,-58.9763C47.0462,-51.7875 48.2194,-44.1809 52,-38 57.0961,-29.6683 65.7282,-23.7427 74.3994,-19.6084"/>
<polygon fill="#9a32cd" stroke="#9a32cd" points="43.6014,-59.2916 47.855,-68.995 50.5809,-58.7569 43.6014,-59.2916"/>
<text text-anchor="middle" x="91.5" y="-41.5" font-family="Helvetica,sans-Serif" font-size="10.00"> _supportedFilters</text>
</g>
<!-- Node3 -->
<g id="node3" class="node"><title>Node3</title>
<polygon fill="none" stroke="#bfbfbf" points="132.5,-74.5 132.5,-93.5 173.5,-93.5 173.5,-74.5 132.5,-74.5"/>
<text text-anchor="middle" x="153" y="-81.5" font-family="Helvetica,sans-Serif" font-size="10.00">string</text>
</g>
<!-- Node3&#45;&gt;Node1 -->
<g id="edge2" class="edge"><title>Node3&#45;&gt;Node1</title>
<path fill="none" stroke="#9a32cd" stroke-dasharray="5,2" d="M145.905,-64.7466C142.14,-56.2054 137.038,-46.1452 131,-38 125.92,-31.1475 118.958,-24.5986 113.128,-19.667"/>
<polygon fill="#9a32cd" stroke="#9a32cd" points="142.751,-66.279 149.809,-74.181 149.219,-63.6025 142.751,-66.279"/>
<text text-anchor="middle" x="154.5" y="-41.5" font-family="Helvetica,sans-Serif" font-size="10.00"> _name</text>
</g>
</g>
</svg>
