<?xml version="1.0" encoding="UTF-8" standalone="no"?>
<!DOCTYPE svg PUBLIC "-//W3C//DTD SVG 1.1//EN"
 "http://www.w3.org/Graphics/SVG/1.1/DTD/svg11.dtd">
<!-- Generated by graphviz version 2.36.0 (20140111.2315)
 -->
<!-- Title: Voxel::TI::ToFCamera::_setFrameSize Pages: 1 -->
<svg width="312pt" height="136pt"
 viewBox="0.00 0.00 312.00 136.00" xmlns="http://www.w3.org/2000/svg" xmlns:xlink="http://www.w3.org/1999/xlink">
<g id="graph0" class="graph" transform="scale(1 1) rotate(0) translate(4 132)">
<title>Voxel::TI::ToFCamera::_setFrameSize</title>
<!-- Node1 -->
<g id="node1" class="node"><title>Node1</title>
<polygon fill="#bfbfbf" stroke="black" points="0,-49 0,-79 114,-79 114,-49 0,-49"/>
<text text-anchor="start" x="8" y="-67" font-family="Helvetica,sans-Serif" font-size="10.00">Voxel::TI::ToFCamera</text>
<text text-anchor="middle" x="57" y="-56" font-family="Helvetica,sans-Serif" font-size="10.00">::_setFrameSize</text>
</g>
<!-- Node2 -->
<g id="node2" class="node"><title>Node2</title>
<g id="a_node2"><a xlink:href="classVoxel_1_1TI_1_1ToFHaddockCamera.xhtml#a20618f833669a08a58cf5d73d9e3ab2e" target="_top" xlink:title="Voxel::TI::ToFHaddockCamera\l::_setROI">
<polygon fill="none" stroke="black" points="150.5,-98 150.5,-128 303.5,-128 303.5,-98 150.5,-98"/>
<text text-anchor="start" x="158.5" y="-116" font-family="Helvetica,sans-Serif" font-size="10.00">Voxel::TI::ToFHaddockCamera</text>
<text text-anchor="middle" x="227" y="-105" font-family="Helvetica,sans-Serif" font-size="10.00">::_setROI</text>
</a>
</g>
</g>
<!-- Node1&#45;&gt;Node2 -->
<g id="edge1" class="edge"><title>Node1&#45;&gt;Node2</title>
<path fill="none" stroke="midnightblue" d="M119.601,-81.967C137.601,-87.217 157.082,-92.8989 174.395,-97.9484"/>
<polygon fill="midnightblue" stroke="midnightblue" points="120.356,-78.5415 109.776,-79.1014 118.396,-85.2615 120.356,-78.5415"/>
</g>
<!-- Node3 -->
<g id="node3" class="node"><title>Node3</title>
<g id="a_node3"><a xlink:href="classVoxel_1_1TI_1_1ToFCalculusCamera.xhtml#ab3a325f63d04ecbed499c50933fed22f" target="_top" xlink:title="Voxel::TI::ToFCalculusCamera\l::_setROI">
<polygon fill="none" stroke="black" points="151,-49 151,-79 303,-79 303,-49 151,-49"/>
<text text-anchor="start" x="159" y="-67" font-family="Helvetica,sans-Serif" font-size="10.00">Voxel::TI::ToFCalculusCamera</text>
<text text-anchor="middle" x="227" y="-56" font-family="Helvetica,sans-Serif" font-size="10.00">::_setROI</text>
</a>
</g>
</g>
<!-- Node1&#45;&gt;Node3 -->
<g id="edge2" class="edge"><title>Node1&#45;&gt;Node3</title>
<path fill="none" stroke="midnightblue" d="M124.47,-64C133.162,-64 142.117,-64 150.939,-64"/>
<polygon fill="midnightblue" stroke="midnightblue" points="124.409,-60.5001 114.409,-64 124.409,-67.5001 124.409,-60.5001"/>
</g>
<!-- Node4 -->
<g id="node4" class="node"><title>Node4</title>
<g id="a_node4"><a xlink:href="classVoxel_1_1TI_1_1ToFTintinCamera.xhtml#a33b90eab74150037971aba980a810554" target="_top" xlink:title="Voxel::TI::ToFTintinCamera\l::_setROI">
<polygon fill="none" stroke="black" points="158,-0 158,-30 296,-30 296,-0 158,-0"/>
<text text-anchor="start" x="166" y="-18" font-family="Helvetica,sans-Serif" font-size="10.00">Voxel::TI::ToFTintinCamera</text>
<text text-anchor="middle" x="227" y="-7" font-family="Helvetica,sans-Serif" font-size="10.00">::_setROI</text>
</a>
</g>
</g>
<!-- Node1&#45;&gt;Node4 -->
<g id="edge3" class="edge"><title>Node1&#45;&gt;Node4</title>
<path fill="none" stroke="midnightblue" d="M119.601,-46.033C137.601,-40.783 157.082,-35.1011 174.395,-30.0516"/>
<polygon fill="midnightblue" stroke="midnightblue" points="118.396,-42.7385 109.776,-48.8986 120.356,-49.4585 118.396,-42.7385"/>
</g>
</g>
</svg>
