<?xml version="1.0" encoding="UTF-8" standalone="no"?>
<!DOCTYPE svg PUBLIC "-//W3C//DTD SVG 1.1//EN"
 "http://www.w3.org/Graphics/SVG/1.1/DTD/svg11.dtd">
<!-- Generated by graphviz version 2.36.0 (20140111.2315)
 -->
<!-- Title: Voxel::CLIManager::_videoMode Pages: 1 -->
<!--zoomable 153 -->
<svg id="main" version="1.1" xmlns="http://www.w3.org/2000/svg" xmlns:xlink="http://www.w3.org/1999/xlink" xml:space="preserve" onload="init(evt)">
<style type="text/css"><![CDATA[
.edge:hover path { stroke: red; }
.edge:hover polygon { stroke: red; fill: red; }
]]></style>
<script type="text/javascript"><![CDATA[
var edges = document.getElementsByTagName('g');
if (edges && edges.length) {
  for (var i=0;i<edges.length;i++) {
    if (edges[i].id.substr(0,4)=='edge') {
      edges[i].setAttribute('class','edge');
    }
  }
}
]]></script>
        <defs>
                <circle id="rim" cx="0" cy="0" r="7"/>
                <circle id="rim2" cx="0" cy="0" r="3.5"/>
                <g id="zoomPlus">
                        <use xlink:href="#rim" fill="#404040">
                                <set attributeName="fill" to="#808080" begin="zoomplus.mouseover" end="zoomplus.mouseout"/>
                        </use>
                        <path d="M-4,0h8M0,-4v8" fill="none" stroke="white" stroke-width="1.5" pointer-events="none"/>
                </g>
                <g id="zoomMin">
                        <use xlink:href="#rim" fill="#404040">
                                <set attributeName="fill" to="#808080" begin="zoomminus.mouseover" end="zoomminus.mouseout"/>
                        </use>
                        <path d="M-4,0h8" fill="none" stroke="white" stroke-width="1.5" pointer-events="none"/>
                </g>
                <g id="dirArrow">
                        <path fill="none" stroke="white" stroke-width="1.5" d="M0,-3.0v7 M-2.5,-0.5L0,-3.0L2.5,-0.5"/>
                </g>
               <g id="resetDef">
                       <use xlink:href="#rim2" fill="#404040">
                               <set attributeName="fill" to="#808080" begin="reset.mouseover" end="reset.mouseout"/>
                       </use>
               </g>
        </defs>

<script type="text/javascript">
var viewWidth = 672;
var viewHeight = 153;
var sectionId = 'dynsection-89';
</script>
<script xlink:href="svgpan.js"/>
<svg id="graph" class="graph">
<g id="viewport">
<title>Voxel::CLIManager::_videoMode</title>
<!-- Node1 -->
<g id="node1" class="node"><title>Node1</title>
<polygon fill="#bfbfbf" stroke="black" points="0.5,-52 0.5,-82 107.5,-82 107.5,-52 0.5,-52"/>
<text text-anchor="start" x="8.5" y="-70" font-family="Helvetica,sans-Serif" font-size="10.00">Voxel::CLIManager::</text>
<text text-anchor="middle" x="54" y="-59" font-family="Helvetica,sans-Serif" font-size="10.00">_videoMode</text>
</g>
<!-- Node2 -->
<g id="node2" class="node"><title>Node2</title>
<g id="a_node2"><a xlink:href="classVoxel_1_1CLIManager.xhtml#a2672bb26d3423d3cc587f7871a4741cd" target="_top" xlink:title="Voxel::CLIManager::\l_videoModeCapabilities">
<polygon fill="none" stroke="black" points="144,-115 144,-145 264,-145 264,-115 144,-115"/>
<text text-anchor="start" x="152" y="-133" font-family="Helvetica,sans-Serif" font-size="10.00">Voxel::CLIManager::</text>
<text text-anchor="middle" x="204" y="-122" font-family="Helvetica,sans-Serif" font-size="10.00">_videoModeCapabilities</text>
</a>
</g>
</g>
<!-- Node1&#45;&gt;Node2 -->
<g id="edge1" class="edge"><title>Node1&#45;&gt;Node2</title>
<path fill="none" stroke="midnightblue" d="M90.4497,-82.0901C110.786,-90.7469 136.512,-101.698 158.234,-110.944"/>
<polygon fill="midnightblue" stroke="midnightblue" points="157.011,-114.228 167.583,-114.924 159.753,-107.787 157.011,-114.228"/>
</g>
<!-- Node4 -->
<g id="node4" class="node"><title>Node4</title>
<g id="a_node4"><a xlink:href="classVoxel_1_1VideoMode.xhtml#a99b3955c15011399b66cbf609afdbacb" target="_top" xlink:title="Voxel::VideoMode::getFrameRate">
<polygon fill="none" stroke="black" points="300,-79.5 300,-98.5 464,-98.5 464,-79.5 300,-79.5"/>
<text text-anchor="middle" x="382" y="-86.5" font-family="Helvetica,sans-Serif" font-size="10.00">Voxel::VideoMode::getFrameRate</text>
</a>
</g>
</g>
<!-- Node1&#45;&gt;Node4 -->
<g id="edge6" class="edge"><title>Node1&#45;&gt;Node4</title>
<path fill="none" stroke="midnightblue" d="M107.74,-70.5591C156.886,-73.8757 231.207,-78.8913 289.94,-82.8548"/>
<polygon fill="midnightblue" stroke="midnightblue" points="289.756,-86.3503 299.969,-83.5316 290.227,-79.3662 289.756,-86.3503"/>
</g>
<!-- Node6 -->
<g id="node6" class="node"><title>Node6</title>
<g id="a_node6"><a xlink:href="group__Util.xhtml#ga148a066c676b3c831918800b78a2f056" target="_top" xlink:title="Voxel::gcd">
<polygon fill="none" stroke="black" points="172.5,-38.5 172.5,-57.5 235.5,-57.5 235.5,-38.5 172.5,-38.5"/>
<text text-anchor="middle" x="204" y="-45.5" font-family="Helvetica,sans-Serif" font-size="10.00">Voxel::gcd</text>
</a>
</g>
</g>
<!-- Node1&#45;&gt;Node6 -->
<g id="edge5" class="edge"><title>Node1&#45;&gt;Node6</title>
<path fill="none" stroke="midnightblue" d="M107.596,-60.2478C125.485,-57.9512 145.2,-55.4202 162.042,-53.2581"/>
<polygon fill="midnightblue" stroke="midnightblue" points="162.642,-56.7099 172.115,-51.965 161.751,-49.7669 162.642,-56.7099"/>
</g>
<!-- Node7 -->
<g id="node7" class="node"><title>Node7</title>
<g id="a_node7"><a xlink:href="group__Util.xhtml#gadd67e5b1a02a8a07764793e4598922d4" target="_top" xlink:title="Voxel::split">
<polygon fill="none" stroke="black" points="171.5,-0.5 171.5,-19.5 236.5,-19.5 236.5,-0.5 171.5,-0.5"/>
<text text-anchor="middle" x="204" y="-7.5" font-family="Helvetica,sans-Serif" font-size="10.00">Voxel::split</text>
</a>
</g>
</g>
<!-- Node1&#45;&gt;Node7 -->
<g id="edge7" class="edge"><title>Node1&#45;&gt;Node7</title>
<path fill="none" stroke="midnightblue" d="M88.5144,-51.8264C105.069,-44.5538 125.429,-35.9382 144,-29 149.683,-26.8769 155.724,-24.7674 161.69,-22.7686"/>
<polygon fill="midnightblue" stroke="midnightblue" points="163.171,-25.9667 171.583,-19.5263 160.99,-19.3148 163.171,-25.9667"/>
</g>
<!-- Node3 -->
<g id="node3" class="node"><title>Node3</title>
<g id="a_node3"><a xlink:href="group__Util.xhtml#ga74d91a42f62a7b69d841b6cfeabeb415" target="_top" xlink:title="Voxel::breakLines">
<polygon fill="none" stroke="black" points="334.5,-120.5 334.5,-139.5 429.5,-139.5 429.5,-120.5 334.5,-120.5"/>
<text text-anchor="middle" x="382" y="-127.5" font-family="Helvetica,sans-Serif" font-size="10.00">Voxel::breakLines</text>
</a>
</g>
</g>
<!-- Node2&#45;&gt;Node3 -->
<g id="edge2" class="edge"><title>Node2&#45;&gt;Node3</title>
<path fill="none" stroke="midnightblue" d="M264.095,-130C283.48,-130 304.97,-130 324.182,-130"/>
<polygon fill="midnightblue" stroke="midnightblue" points="324.295,-133.5 334.295,-130 324.295,-126.5 324.295,-133.5"/>
</g>
<!-- Node2&#45;&gt;Node4 -->
<g id="edge3" class="edge"><title>Node2&#45;&gt;Node4</title>
<path fill="none" stroke="midnightblue" d="M264.095,-116.234C285.55,-111.236 309.584,-105.637 330.254,-100.821"/>
<polygon fill="midnightblue" stroke="midnightblue" points="331.16,-104.204 340.105,-98.5266 329.572,-97.3868 331.16,-104.204"/>
</g>
<!-- Node5 -->
<g id="node5" class="node"><title>Node5</title>
<g id="a_node5"><a xlink:href="classVoxel_1_1FrameRate.xhtml#aad990de42e35d9c41ced1d4104e64c27" target="_top" xlink:title="Voxel::FrameRate::getFrameRate">
<polygon fill="none" stroke="black" points="500,-79.5 500,-98.5 664,-98.5 664,-79.5 500,-79.5"/>
<text text-anchor="middle" x="582" y="-86.5" font-family="Helvetica,sans-Serif" font-size="10.00">Voxel::FrameRate::getFrameRate</text>
</a>
</g>
</g>
<!-- Node4&#45;&gt;Node5 -->
<g id="edge4" class="edge"><title>Node4&#45;&gt;Node5</title>
<path fill="none" stroke="midnightblue" d="M464.105,-89C472.457,-89 480.985,-89 489.44,-89"/>
<polygon fill="midnightblue" stroke="midnightblue" points="489.7,-92.5001 499.7,-89 489.7,-85.5001 489.7,-92.5001"/>
</g>
</g>
</svg>
        <g id="navigator" transform="translate(0 0)" fill="#404254">
                <rect fill="#f2f5e9" fill-opacity="0.5" stroke="#606060" stroke-width=".5" x="0" y="0" width="60" height="60"/>
                <use id="zoomplus" xlink:href="#zoomPlus" x="17" y="9" onmousedown="handleZoom(evt,'in')"/>
                <use id="zoomminus" xlink:href="#zoomMin" x="42" y="9" onmousedown="handleZoom(evt,'out')"/>
                <use id="reset" xlink:href="#resetDef" x="30" y="36" onmousedown="handleReset()"/>
                <g id="arrowUp" xlink:href="#dirArrow" transform="translate(30 24)" onmousedown="handlePan(0,-1)">
                  <use xlink:href="#rim" fill="#404040">
                        <set attributeName="fill" to="#808080" begin="arrowUp.mouseover" end="arrowUp.mouseout"/>
                  </use>
                  <path fill="none" stroke="white" stroke-width="1.5" d="M0,-3.0v7 M-2.5,-0.5L0,-3.0L2.5,-0.5"/>
                </g>
                <g id="arrowRight" xlink:href="#dirArrow" transform="rotate(90) translate(36 -43)" onmousedown="handlePan(1,0)">
                  <use xlink:href="#rim" fill="#404040">
                        <set attributeName="fill" to="#808080" begin="arrowRight.mouseover" end="arrowRight.mouseout"/>
                  </use>
                  <path fill="none" stroke="white" stroke-width="1.5" d="M0,-3.0v7 M-2.5,-0.5L0,-3.0L2.5,-0.5"/>
                </g>
                <g id="arrowDown" xlink:href="#dirArrow" transform="rotate(180) translate(-30 -48)" onmousedown="handlePan(0,1)">
                  <use xlink:href="#rim" fill="#404040">
                        <set attributeName="fill" to="#808080" begin="arrowDown.mouseover" end="arrowDown.mouseout"/>
                  </use>
                  <path fill="none" stroke="white" stroke-width="1.5" d="M0,-3.0v7 M-2.5,-0.5L0,-3.0L2.5,-0.5"/>
                </g>
                <g id="arrowLeft" xlink:href="#dirArrow" transform="rotate(270) translate(-36 17)" onmousedown="handlePan(-1,0)">
                  <use xlink:href="#rim" fill="#404040">
                        <set attributeName="fill" to="#808080" begin="arrowLeft.mouseover" end="arrowLeft.mouseout"/>
                  </use>
                  <path fill="none" stroke="white" stroke-width="1.5" d="M0,-3.0v7 M-2.5,-0.5L0,-3.0L2.5,-0.5"/>
                </g>
        </g>
        <svg viewBox="0 0 15 15" width="100%" height="30px" preserveAspectRatio="xMaxYMin meet">
         <g id="arrow_out" transform="scale(0.3 0.3)">
          <a xlink:href="classVoxel_1_1CLIManager_a1caa7d89cf577f4728a114e78d1a5ba3_cgraph_org.svg" target="_base">
           <rect id="button" ry="5" rx="5" y="6" x="6" height="38" width="38"
                fill="#f2f5e9" fill-opacity="0.5" stroke="#606060" stroke-width="1.0"/>
           <path id="arrow"
             d="M 11.500037,31.436501 C 11.940474,20.09759 22.043105,11.32322 32.158766,21.979434 L 37.068811,17.246167 C 37.068811,17.246167 37.088388,32 37.088388,32 L 22.160133,31.978069 C 22.160133,31.978069 26.997745,27.140456 26.997745,27.140456 C 18.528582,18.264221 13.291696,25.230495 11.500037,31.436501 z"
             style="fill:#404040;"/>
          </a>
         </g>
        </svg>
</svg>
