<?xml version="1.0" encoding="UTF-8" standalone="no"?>
<!DOCTYPE svg PUBLIC "-//W3C//DTD SVG 1.1//EN"
 "http://www.w3.org/Graphics/SVG/1.1/DTD/svg11.dtd">
<!-- Generated by graphviz version 2.36.0 (20140111.2315)
 -->
<!-- Title: Voxel::MainConfigurationFile::_updateCameraProfileList Pages: 1 -->
<!--zoomable 238 -->
<svg id="main" version="1.1" xmlns="http://www.w3.org/2000/svg" xmlns:xlink="http://www.w3.org/1999/xlink" xml:space="preserve" onload="init(evt)">
<style type="text/css"><![CDATA[
.edge:hover path { stroke: red; }
.edge:hover polygon { stroke: red; fill: red; }
]]></style>
<script type="text/javascript"><![CDATA[
var edges = document.getElementsByTagName('g');
if (edges && edges.length) {
  for (var i=0;i<edges.length;i++) {
    if (edges[i].id.substr(0,4)=='edge') {
      edges[i].setAttribute('class','edge');
    }
  }
}
]]></script>
        <defs>
                <circle id="rim" cx="0" cy="0" r="7"/>
                <circle id="rim2" cx="0" cy="0" r="3.5"/>
                <g id="zoomPlus">
                        <use xlink:href="#rim" fill="#404040">
                                <set attributeName="fill" to="#808080" begin="zoomplus.mouseover" end="zoomplus.mouseout"/>
                        </use>
                        <path d="M-4,0h8M0,-4v8" fill="none" stroke="white" stroke-width="1.5" pointer-events="none"/>
                </g>
                <g id="zoomMin">
                        <use xlink:href="#rim" fill="#404040">
                                <set attributeName="fill" to="#808080" begin="zoomminus.mouseover" end="zoomminus.mouseout"/>
                        </use>
                        <path d="M-4,0h8" fill="none" stroke="white" stroke-width="1.5" pointer-events="none"/>
                </g>
                <g id="dirArrow">
                        <path fill="none" stroke="white" stroke-width="1.5" d="M0,-3.0v7 M-2.5,-0.5L0,-3.0L2.5,-0.5"/>
                </g>
               <g id="resetDef">
                       <use xlink:href="#rim2" fill="#404040">
                               <set attributeName="fill" to="#808080" begin="reset.mouseover" end="reset.mouseout"/>
                       </use>
               </g>
        </defs>

<script type="text/javascript">
var viewWidth = 850;
var viewHeight = 238;
var sectionId = 'dynsection-5';
</script>
<script xlink:href="svgpan.js"/>
<svg id="graph" class="graph">
<g id="viewport">
<title>Voxel::MainConfigurationFile::_updateCameraProfileList</title>
<!-- Node1 -->
<g id="node1" class="node"><title>Node1</title>
<polygon fill="#bfbfbf" stroke="black" points="0.5,-142 0.5,-172 151.5,-172 151.5,-142 0.5,-142"/>
<text text-anchor="start" x="8.5" y="-160" font-family="Helvetica,sans-Serif" font-size="10.00">Voxel::MainConfiguration</text>
<text text-anchor="middle" x="76" y="-149" font-family="Helvetica,sans-Serif" font-size="10.00">File::_updateCameraProfileList</text>
</g>
<!-- Node2 -->
<g id="node2" class="node"><title>Node2</title>
<g id="a_node2"><a xlink:href="group__Util.xhtml#gad19078fe2a67a3174aaa6b4ab8e49292" target="_top" xlink:title="Voxel::basename">
<polygon fill="none" stroke="black" points="379,-147.5 379,-166.5 471,-166.5 471,-147.5 379,-147.5"/>
<text text-anchor="middle" x="425" y="-154.5" font-family="Helvetica,sans-Serif" font-size="10.00">Voxel::basename</text>
</a>
</g>
</g>
<!-- Node1&#45;&gt;Node2 -->
<g id="edge1" class="edge"><title>Node1&#45;&gt;Node2</title>
<path fill="none" stroke="midnightblue" d="M151.867,-157C217.085,-157 310.148,-157 368.791,-157"/>
<polygon fill="midnightblue" stroke="midnightblue" points="368.969,-160.5 378.969,-157 368.969,-153.5 368.969,-160.5"/>
</g>
<!-- Node3 -->
<g id="node3" class="node"><title>Node3</title>
<g id="a_node3"><a xlink:href="classVoxel_1_1ConfigurationFile.xhtml#a440d9dd2f89d0c76c81f7285b31a5b94" target="_top" xlink:title="Voxel::ConfigurationFile::set">
<polygon fill="none" stroke="black" points="188,-191.5 188,-210.5 328,-210.5 328,-191.5 188,-191.5"/>
<text text-anchor="middle" x="258" y="-198.5" font-family="Helvetica,sans-Serif" font-size="10.00">Voxel::ConfigurationFile::set</text>
</a>
</g>
</g>
<!-- Node1&#45;&gt;Node3 -->
<g id="edge2" class="edge"><title>Node1&#45;&gt;Node3</title>
<path fill="none" stroke="midnightblue" d="M138.442,-172.019C161.214,-177.586 186.706,-183.817 208.201,-189.071"/>
<polygon fill="midnightblue" stroke="midnightblue" points="207.54,-192.513 218.086,-191.488 209.203,-185.713 207.54,-192.513"/>
</g>
<!-- Node9 -->
<g id="node9" class="node"><title>Node9</title>
<g id="a_node9"><a xlink:href="classVoxel_1_1ConfigurationFile.xhtml#a978b37f6995656a3fd39a35e70867bf0" target="_top" xlink:title="Voxel::ConfigurationFile\l::write">
<polygon fill="none" stroke="black" points="197.5,-98 197.5,-128 318.5,-128 318.5,-98 197.5,-98"/>
<text text-anchor="start" x="205.5" y="-116" font-family="Helvetica,sans-Serif" font-size="10.00">Voxel::ConfigurationFile</text>
<text text-anchor="middle" x="258" y="-105" font-family="Helvetica,sans-Serif" font-size="10.00">::write</text>
</a>
</g>
</g>
<!-- Node1&#45;&gt;Node9 -->
<g id="edge9" class="edge"><title>Node1&#45;&gt;Node9</title>
<path fill="none" stroke="midnightblue" d="M138.442,-141.981C154.214,-138.125 171.291,-133.951 187.441,-130.003"/>
<polygon fill="midnightblue" stroke="midnightblue" points="188.474,-133.354 197.357,-127.58 186.811,-126.554 188.474,-133.354"/>
</g>
<!-- Node4 -->
<g id="node4" class="node"><title>Node4</title>
<g id="a_node4"><a xlink:href="classVoxel_1_1ConfigurationFile.xhtml#a3b9b573c1a3d9162fc0100c317ca0879" target="_top" xlink:title="Voxel::ConfigurationFile\l::_set">
<polygon fill="none" stroke="black" points="364.5,-186 364.5,-216 485.5,-216 485.5,-186 364.5,-186"/>
<text text-anchor="start" x="372.5" y="-204" font-family="Helvetica,sans-Serif" font-size="10.00">Voxel::ConfigurationFile</text>
<text text-anchor="middle" x="425" y="-193" font-family="Helvetica,sans-Serif" font-size="10.00">::_set</text>
</a>
</g>
</g>
<!-- Node3&#45;&gt;Node4 -->
<g id="edge3" class="edge"><title>Node3&#45;&gt;Node4</title>
<path fill="none" stroke="midnightblue" d="M328.019,-194.331C336.715,-194.226 345.616,-194.223 354.321,-194.323"/>
<polygon fill="midnightblue" stroke="midnightblue" points="354.372,-197.824 364.428,-194.487 354.486,-190.825 354.372,-197.824"/>
</g>
<!-- Node4&#45;&gt;Node3 -->
<g id="edge8" class="edge"><title>Node4&#45;&gt;Node3</title>
<path fill="none" stroke="midnightblue" d="M364.428,-207.513C355.936,-207.693 347.092,-207.77 338.297,-207.745"/>
<polygon fill="midnightblue" stroke="midnightblue" points="338.045,-204.244 328.019,-207.669 337.993,-211.243 338.045,-204.244"/>
</g>
<!-- Node5 -->
<g id="node5" class="node"><title>Node5</title>
<g id="a_node5"><a xlink:href="classVoxel_1_1ConfigSet.xhtml#a8fb880c24ad7b0f04c84d4a33becb995" target="_top" xlink:title="Voxel::ConfigSet::_set">
<polygon fill="none" stroke="black" points="522,-191.5 522,-210.5 638,-210.5 638,-191.5 522,-191.5"/>
<text text-anchor="middle" x="580" y="-198.5" font-family="Helvetica,sans-Serif" font-size="10.00">Voxel::ConfigSet::_set</text>
</a>
</g>
</g>
<!-- Node4&#45;&gt;Node5 -->
<g id="edge4" class="edge"><title>Node4&#45;&gt;Node5</title>
<path fill="none" stroke="midnightblue" d="M485.592,-201C494.156,-201 503.017,-201 511.717,-201"/>
<polygon fill="midnightblue" stroke="midnightblue" points="511.828,-204.5 521.828,-201 511.828,-197.5 511.828,-204.5"/>
</g>
<!-- Node6 -->
<g id="node6" class="node"><title>Node6</title>
<g id="a_node6"><a xlink:href="group__Util.xhtml#ga6b2a26aa983349496fedae9aa54ad034" target="_top" xlink:title="Trim. ">
<polygon fill="none" stroke="black" points="674,-191.5 674,-210.5 738,-210.5 738,-191.5 674,-191.5"/>
<text text-anchor="middle" x="706" y="-198.5" font-family="Helvetica,sans-Serif" font-size="10.00">Voxel::trim</text>
</a>
</g>
</g>
<!-- Node5&#45;&gt;Node6 -->
<g id="edge5" class="edge"><title>Node5&#45;&gt;Node6</title>
<path fill="none" stroke="midnightblue" d="M638.281,-201C646.753,-201 655.343,-201 663.413,-201"/>
<polygon fill="midnightblue" stroke="midnightblue" points="663.67,-204.5 673.67,-201 663.669,-197.5 663.67,-204.5"/>
</g>
<!-- Node7 -->
<g id="node7" class="node"><title>Node7</title>
<g id="a_node7"><a xlink:href="group__Util.xhtml#gac9c04e18f7878dd82964bb489b7b1314" target="_top" xlink:title="Left Trim. ">
<polygon fill="none" stroke="black" points="775,-210.5 775,-229.5 841,-229.5 841,-210.5 775,-210.5"/>
<text text-anchor="middle" x="808" y="-217.5" font-family="Helvetica,sans-Serif" font-size="10.00">Voxel::ltrim</text>
</a>
</g>
</g>
<!-- Node6&#45;&gt;Node7 -->
<g id="edge6" class="edge"><title>Node6&#45;&gt;Node7</title>
<path fill="none" stroke="midnightblue" d="M738.092,-206.908C746.591,-208.522 755.943,-210.299 764.943,-212.009"/>
<polygon fill="midnightblue" stroke="midnightblue" points="764.413,-215.471 774.891,-213.899 765.72,-208.594 764.413,-215.471"/>
</g>
<!-- Node8 -->
<g id="node8" class="node"><title>Node8</title>
<g id="a_node8"><a xlink:href="group__Util.xhtml#ga3d95f05dde73bc9c54051437445e439b" target="_top" xlink:title="Right Trim. ">
<polygon fill="none" stroke="black" points="774.5,-172.5 774.5,-191.5 841.5,-191.5 841.5,-172.5 774.5,-172.5"/>
<text text-anchor="middle" x="808" y="-179.5" font-family="Helvetica,sans-Serif" font-size="10.00">Voxel::rtrim</text>
</a>
</g>
</g>
<!-- Node6&#45;&gt;Node8 -->
<g id="edge7" class="edge"><title>Node6&#45;&gt;Node8</title>
<path fill="none" stroke="midnightblue" d="M738.092,-195.092C746.334,-193.526 755.38,-191.808 764.128,-190.146"/>
<polygon fill="midnightblue" stroke="midnightblue" points="765.025,-193.538 774.196,-188.233 763.718,-186.661 765.025,-193.538"/>
</g>
<!-- Node9&#45;&gt;Node2 -->
<g id="edge11" class="edge"><title>Node9&#45;&gt;Node2</title>
<path fill="none" stroke="midnightblue" d="M315.322,-128.019C335.833,-133.489 358.753,-139.601 378.237,-144.796"/>
<polygon fill="midnightblue" stroke="midnightblue" points="377.517,-148.227 388.081,-147.422 379.321,-141.463 377.517,-148.227"/>
</g>
<!-- Node10 -->
<g id="node10" class="node"><title>Node10</title>
<g id="a_node10"><a xlink:href="classVoxel_1_1ConfigurationFile.xhtml#a3946cbd4206d722e401708eb1546b413" target="_top" xlink:title="Voxel::ConfigurationFile\l::_saveAllDataFiles">
<polygon fill="none" stroke="black" points="364.5,-0 364.5,-30 485.5,-30 485.5,-0 364.5,-0"/>
<text text-anchor="start" x="372.5" y="-18" font-family="Helvetica,sans-Serif" font-size="10.00">Voxel::ConfigurationFile</text>
<text text-anchor="middle" x="425" y="-7" font-family="Helvetica,sans-Serif" font-size="10.00">::_saveAllDataFiles</text>
</a>
</g>
</g>
<!-- Node9&#45;&gt;Node10 -->
<g id="edge10" class="edge"><title>Node9&#45;&gt;Node10</title>
<path fill="none" stroke="midnightblue" d="M277.481,-97.9569C297.803,-81.9083 331.854,-56.4451 364,-39 367.051,-37.3445 370.24,-35.7386 373.491,-34.1945"/>
<polygon fill="midnightblue" stroke="midnightblue" points="375.072,-37.3207 382.747,-30.0167 372.192,-30.9404 375.072,-37.3207"/>
</g>
<!-- Node11 -->
<g id="node11" class="node"><title>Node11</title>
<g id="a_node11"><a xlink:href="classVoxel_1_1Configuration.xhtml#a9bdd772364ff790be2acba9a27b09549" target="_top" xlink:title="Voxel::Configuration\l::getLocalConfFile">
<polygon fill="none" stroke="black" points="372.5,-98 372.5,-128 477.5,-128 477.5,-98 372.5,-98"/>
<text text-anchor="start" x="380.5" y="-116" font-family="Helvetica,sans-Serif" font-size="10.00">Voxel::Configuration</text>
<text text-anchor="middle" x="425" y="-105" font-family="Helvetica,sans-Serif" font-size="10.00">::getLocalConfFile</text>
</a>
</g>
</g>
<!-- Node9&#45;&gt;Node11 -->
<g id="edge12" class="edge"><title>Node9&#45;&gt;Node11</title>
<path fill="none" stroke="midnightblue" d="M318.569,-113C332.756,-113 347.927,-113 362.211,-113"/>
<polygon fill="midnightblue" stroke="midnightblue" points="362.429,-116.5 372.429,-113 362.429,-109.5 362.429,-116.5"/>
</g>
<!-- Node12 -->
<g id="node12" class="node"><title>Node12</title>
<g id="a_node12"><a xlink:href="classVoxel_1_1ConfigurationFile.xhtml#af3cd57258007019ac09e45919cfc19c3" target="_top" xlink:title="Voxel::ConfigurationFile\l::getLocation">
<polygon fill="none" stroke="black" points="364.5,-49 364.5,-79 485.5,-79 485.5,-49 364.5,-49"/>
<text text-anchor="start" x="372.5" y="-67" font-family="Helvetica,sans-Serif" font-size="10.00">Voxel::ConfigurationFile</text>
<text text-anchor="middle" x="425" y="-56" font-family="Helvetica,sans-Serif" font-size="10.00">::getLocation</text>
</a>
</g>
</g>
<!-- Node9&#45;&gt;Node12 -->
<g id="edge13" class="edge"><title>Node9&#45;&gt;Node12</title>
<path fill="none" stroke="midnightblue" d="M309.852,-97.8986C326.869,-92.8449 346.004,-87.1624 363.673,-81.9152"/>
<polygon fill="midnightblue" stroke="midnightblue" points="364.726,-85.2536 373.316,-79.0516 362.733,-78.5433 364.726,-85.2536"/>
</g>
</g>
</svg>
        <g id="navigator" transform="translate(0 0)" fill="#404254">
                <rect fill="#f2f5e9" fill-opacity="0.5" stroke="#606060" stroke-width=".5" x="0" y="0" width="60" height="60"/>
                <use id="zoomplus" xlink:href="#zoomPlus" x="17" y="9" onmousedown="handleZoom(evt,'in')"/>
                <use id="zoomminus" xlink:href="#zoomMin" x="42" y="9" onmousedown="handleZoom(evt,'out')"/>
                <use id="reset" xlink:href="#resetDef" x="30" y="36" onmousedown="handleReset()"/>
                <g id="arrowUp" xlink:href="#dirArrow" transform="translate(30 24)" onmousedown="handlePan(0,-1)">
                  <use xlink:href="#rim" fill="#404040">
                        <set attributeName="fill" to="#808080" begin="arrowUp.mouseover" end="arrowUp.mouseout"/>
                  </use>
                  <path fill="none" stroke="white" stroke-width="1.5" d="M0,-3.0v7 M-2.5,-0.5L0,-3.0L2.5,-0.5"/>
                </g>
                <g id="arrowRight" xlink:href="#dirArrow" transform="rotate(90) translate(36 -43)" onmousedown="handlePan(1,0)">
                  <use xlink:href="#rim" fill="#404040">
                        <set attributeName="fill" to="#808080" begin="arrowRight.mouseover" end="arrowRight.mouseout"/>
                  </use>
                  <path fill="none" stroke="white" stroke-width="1.5" d="M0,-3.0v7 M-2.5,-0.5L0,-3.0L2.5,-0.5"/>
                </g>
                <g id="arrowDown" xlink:href="#dirArrow" transform="rotate(180) translate(-30 -48)" onmousedown="handlePan(0,1)">
                  <use xlink:href="#rim" fill="#404040">
                        <set attributeName="fill" to="#808080" begin="arrowDown.mouseover" end="arrowDown.mouseout"/>
                  </use>
                  <path fill="none" stroke="white" stroke-width="1.5" d="M0,-3.0v7 M-2.5,-0.5L0,-3.0L2.5,-0.5"/>
                </g>
                <g id="arrowLeft" xlink:href="#dirArrow" transform="rotate(270) translate(-36 17)" onmousedown="handlePan(-1,0)">
                  <use xlink:href="#rim" fill="#404040">
                        <set attributeName="fill" to="#808080" begin="arrowLeft.mouseover" end="arrowLeft.mouseout"/>
                  </use>
                  <path fill="none" stroke="white" stroke-width="1.5" d="M0,-3.0v7 M-2.5,-0.5L0,-3.0L2.5,-0.5"/>
                </g>
        </g>
        <svg viewBox="0 0 15 15" width="100%" height="30px" preserveAspectRatio="xMaxYMin meet">
         <g id="arrow_out" transform="scale(0.3 0.3)">
          <a xlink:href="classVoxel_1_1MainConfigurationFile_ae2f3f66b632fa462d8b9f873f416f12b_cgraph_org.svg" target="_base">
           <rect id="button" ry="5" rx="5" y="6" x="6" height="38" width="38"
                fill="#f2f5e9" fill-opacity="0.5" stroke="#606060" stroke-width="1.0"/>
           <path id="arrow"
             d="M 11.500037,31.436501 C 11.940474,20.09759 22.043105,11.32322 32.158766,21.979434 L 37.068811,17.246167 C 37.068811,17.246167 37.088388,32 37.088388,32 L 22.160133,31.978069 C 22.160133,31.978069 26.997745,27.140456 26.997745,27.140456 C 18.528582,18.264221 13.291696,25.230495 11.500037,31.436501 z"
             style="fill:#404040;"/>
          </a>
         </g>
        </svg>
</svg>
