<?xml version="1.0" encoding="UTF-8" standalone="no"?>
<!DOCTYPE svg PUBLIC "-//W3C//DTD SVG 1.1//EN"
 "http://www.w3.org/Graphics/SVG/1.1/DTD/svg11.dtd">
<!-- Generated by graphviz version 2.36.0 (20140111.2315)
 -->
<!-- Title: TinyXML2::XMLDocument::Parse Pages: 1 -->
<!--zoomable 723 -->
<svg id="main" version="1.1" xmlns="http://www.w3.org/2000/svg" xmlns:xlink="http://www.w3.org/1999/xlink" xml:space="preserve" onload="init(evt)">
<style type="text/css"><![CDATA[
.edge:hover path { stroke: red; }
.edge:hover polygon { stroke: red; fill: red; }
]]></style>
<script type="text/javascript"><![CDATA[
var edges = document.getElementsByTagName('g');
if (edges && edges.length) {
  for (var i=0;i<edges.length;i++) {
    if (edges[i].id.substr(0,4)=='edge') {
      edges[i].setAttribute('class','edge');
    }
  }
}
]]></script>
        <defs>
                <circle id="rim" cx="0" cy="0" r="7"/>
                <circle id="rim2" cx="0" cy="0" r="3.5"/>
                <g id="zoomPlus">
                        <use xlink:href="#rim" fill="#404040">
                                <set attributeName="fill" to="#808080" begin="zoomplus.mouseover" end="zoomplus.mouseout"/>
                        </use>
                        <path d="M-4,0h8M0,-4v8" fill="none" stroke="white" stroke-width="1.5" pointer-events="none"/>
                </g>
                <g id="zoomMin">
                        <use xlink:href="#rim" fill="#404040">
                                <set attributeName="fill" to="#808080" begin="zoomminus.mouseover" end="zoomminus.mouseout"/>
                        </use>
                        <path d="M-4,0h8" fill="none" stroke="white" stroke-width="1.5" pointer-events="none"/>
                </g>
                <g id="dirArrow">
                        <path fill="none" stroke="white" stroke-width="1.5" d="M0,-3.0v7 M-2.5,-0.5L0,-3.0L2.5,-0.5"/>
                </g>
               <g id="resetDef">
                       <use xlink:href="#rim2" fill="#404040">
                               <set attributeName="fill" to="#808080" begin="reset.mouseover" end="reset.mouseout"/>
                       </use>
               </g>
        </defs>

<script type="text/javascript">
var viewWidth = 952;
var viewHeight = 723;
var sectionId = 'dynsection-26';
</script>
<script xlink:href="svgpan.js"/>
<svg id="graph" class="graph">
<g id="viewport">
<title>TinyXML2::XMLDocument::Parse</title>
<!-- Node1 -->
<g id="node1" class="node"><title>Node1</title>
<polygon fill="#bfbfbf" stroke="black" points="0,-367 0,-397 132,-397 132,-367 0,-367"/>
<text text-anchor="start" x="8" y="-385" font-family="Helvetica,sans-Serif" font-size="10.00">TinyXML2::XMLDocument</text>
<text text-anchor="middle" x="66" y="-374" font-family="Helvetica,sans-Serif" font-size="10.00">::Parse</text>
</g>
<!-- Node2 -->
<g id="node2" class="node"><title>Node2</title>
<g id="a_node2"><a xlink:href="classTinyXML2_1_1XMLDocument.xhtml#a20554f58b1fbdc5a5e4986ca59126837" target="_top" xlink:title="Clear the document, resetting it to the initial state. ">
<polygon fill="none" stroke="black" points="168,-636 168,-666 300,-666 300,-636 168,-636"/>
<text text-anchor="start" x="176" y="-654" font-family="Helvetica,sans-Serif" font-size="10.00">TinyXML2::XMLDocument</text>
<text text-anchor="middle" x="234" y="-643" font-family="Helvetica,sans-Serif" font-size="10.00">::Clear</text>
</a>
</g>
</g>
<!-- Node1&#45;&gt;Node2 -->
<g id="edge1" class="edge"><title>Node1&#45;&gt;Node2</title>
<path fill="none" stroke="midnightblue" d="M76.4005,-397.233C104.02,-441.991 185.07,-573.33 218.414,-627.364"/>
<polygon fill="midnightblue" stroke="midnightblue" points="215.472,-629.262 223.703,-635.934 221.43,-625.586 215.472,-629.262"/>
</g>
<!-- Node3 -->
<g id="node3" class="node"><title>Node3</title>
<g id="a_node3"><a xlink:href="classTinyXML2_1_1XMLNode.xhtml#ac71764a70bec2eb37ed1ee30c97b2b51" target="_top" xlink:title="TinyXML2::XMLNode::\lDeleteChildren">
<polygon fill="none" stroke="black" points="344,-636 344,-666 460,-666 460,-636 344,-636"/>
<text text-anchor="start" x="352" y="-654" font-family="Helvetica,sans-Serif" font-size="10.00">TinyXML2::XMLNode::</text>
<text text-anchor="middle" x="402" y="-643" font-family="Helvetica,sans-Serif" font-size="10.00">DeleteChildren</text>
</a>
</g>
</g>
<!-- Node1&#45;&gt;Node3 -->
<g id="edge10" class="edge"><title>Node1&#45;&gt;Node3</title>
<path fill="none" stroke="midnightblue" d="M82.0591,-397.28C121.382,-436.674 231.372,-543.66 336,-616 343.742,-621.353 352.391,-626.515 360.79,-631.155"/>
<polygon fill="midnightblue" stroke="midnightblue" points="359.285,-634.319 369.75,-635.969 362.598,-628.153 359.285,-634.319"/>
</g>
<!-- Node8 -->
<g id="node8" class="node"><title>Node8</title>
<g id="a_node8"><a xlink:href="classTinyXML2_1_1XMLDocument.xhtml#a8302f8ca7f1ed6dd2690e3875f968a32" target="_top" xlink:title="Return true if there was an error parsing the document. ">
<polygon fill="none" stroke="black" points="336,-685 336,-715 468,-715 468,-685 336,-685"/>
<text text-anchor="start" x="344" y="-703" font-family="Helvetica,sans-Serif" font-size="10.00">TinyXML2::XMLDocument</text>
<text text-anchor="middle" x="402" y="-692" font-family="Helvetica,sans-Serif" font-size="10.00">::Error</text>
</a>
</g>
</g>
<!-- Node1&#45;&gt;Node8 -->
<g id="edge11" class="edge"><title>Node1&#45;&gt;Node8</title>
<path fill="none" stroke="midnightblue" d="M66.9924,-397.277C67.8754,-446.708 77.9531,-603.239 168,-675 211.83,-709.929 275.959,-714.505 325.849,-711.281"/>
<polygon fill="midnightblue" stroke="midnightblue" points="326.241,-714.762 335.946,-710.511 325.709,-707.782 326.241,-714.762"/>
</g>
<!-- Node9 -->
<g id="node9" class="node"><title>Node9</title>
<g id="a_node9"><a xlink:href="classTinyXML2_1_1XMLNode.xhtml#a666a962d4e7ce40fad31a0d273659176" target="_top" xlink:title="TinyXML2::XMLNode::\lParseDeep">
<polygon fill="none" stroke="black" points="176,-367 176,-397 292,-397 292,-367 176,-367"/>
<text text-anchor="start" x="184" y="-385" font-family="Helvetica,sans-Serif" font-size="10.00">TinyXML2::XMLNode::</text>
<text text-anchor="middle" x="234" y="-374" font-family="Helvetica,sans-Serif" font-size="10.00">ParseDeep</text>
</a>
</g>
</g>
<!-- Node1&#45;&gt;Node9 -->
<g id="edge12" class="edge"><title>Node1&#45;&gt;Node9</title>
<path fill="none" stroke="midnightblue" d="M132.131,-382C143.188,-382 154.69,-382 165.799,-382"/>
<polygon fill="midnightblue" stroke="midnightblue" points="165.868,-385.5 175.868,-382 165.868,-378.5 165.868,-385.5"/>
</g>
<!-- Node12 -->
<g id="node12" class="node"><title>Node12</title>
<g id="a_node12"><a xlink:href="classTinyXML2_1_1XMLUtil.xhtml#a151c32ae2f90003379a2fc78a80da4f1" target="_top" xlink:title="TinyXML2::XMLUtil::\lSkipWhiteSpace">
<polygon fill="none" stroke="black" points="831,-191 831,-221 939,-221 939,-191 831,-191"/>
<text text-anchor="start" x="839" y="-209" font-family="Helvetica,sans-Serif" font-size="10.00">TinyXML2::XMLUtil::</text>
<text text-anchor="middle" x="885" y="-198" font-family="Helvetica,sans-Serif" font-size="10.00">SkipWhiteSpace</text>
</a>
</g>
</g>
<!-- Node1&#45;&gt;Node12 -->
<g id="edge41" class="edge"><title>Node1&#45;&gt;Node12</title>
<path fill="none" stroke="midnightblue" d="M69.6723,-366.967C77.5412,-326.83 104.202,-215.87 168,-152 246.798,-73.1133 289.5,-59 401,-59 401,-59 401,-59 563,-59 682.028,-59 805.182,-143.584 857.714,-184.429"/>
<polygon fill="midnightblue" stroke="midnightblue" points="855.798,-187.376 865.817,-190.822 860.134,-181.881 855.798,-187.376"/>
</g>
<!-- Node14 -->
<g id="node14" class="node"><title>Node14</title>
<g id="a_node14"><a xlink:href="classTinyXML2_1_1XMLDocument.xhtml#a38edba63c6f6b5de49f4ece2ba14dd8d" target="_top" xlink:title="TinyXML2::XMLDocument\l::SetError">
<polygon fill="none" stroke="black" points="336,-88 336,-118 468,-118 468,-88 336,-88"/>
<text text-anchor="start" x="344" y="-106" font-family="Helvetica,sans-Serif" font-size="10.00">TinyXML2::XMLDocument</text>
<text text-anchor="middle" x="402" y="-95" font-family="Helvetica,sans-Serif" font-size="10.00">::SetError</text>
</a>
</g>
</g>
<!-- Node1&#45;&gt;Node14 -->
<g id="edge40" class="edge"><title>Node1&#45;&gt;Node14</title>
<path fill="none" stroke="midnightblue" d="M79.0689,-366.861C114.254,-323.633 221.507,-198.176 336,-127 338.573,-125.4 341.269,-123.883 344.039,-122.448"/>
<polygon fill="midnightblue" stroke="midnightblue" points="345.555,-125.602 353.076,-118.14 342.543,-119.283 345.555,-125.602"/>
</g>
<!-- Node28 -->
<g id="node28" class="node"><title>Node28</title>
<g id="a_node28"><a xlink:href="classTinyXML2_1_1XMLUtil.xhtml#add0878731f4c713ac43af19b24e569a7" target="_top" xlink:title="TinyXML2::XMLUtil::\lReadBOM">
<polygon fill="none" stroke="black" points="180,-0 180,-30 288,-30 288,-0 180,-0"/>
<text text-anchor="start" x="188" y="-18" font-family="Helvetica,sans-Serif" font-size="10.00">TinyXML2::XMLUtil::</text>
<text text-anchor="middle" x="234" y="-7" font-family="Helvetica,sans-Serif" font-size="10.00">ReadBOM</text>
</a>
</g>
</g>
<!-- Node1&#45;&gt;Node28 -->
<g id="edge39" class="edge"><title>Node1&#45;&gt;Node28</title>
<path fill="none" stroke="midnightblue" d="M67.3059,-366.829C69.1318,-315.258 81.7267,-144.406 168,-45 171.014,-41.527 174.515,-38.4312 178.299,-35.6762"/>
<polygon fill="midnightblue" stroke="midnightblue" points="180.392,-38.4928 186.954,-30.175 176.637,-32.5849 180.392,-38.4928"/>
</g>
<!-- Node2&#45;&gt;Node3 -->
<g id="edge2" class="edge"><title>Node2&#45;&gt;Node3</title>
<path fill="none" stroke="midnightblue" d="M300.131,-651C311.188,-651 322.69,-651 333.799,-651"/>
<polygon fill="midnightblue" stroke="midnightblue" points="333.868,-654.5 343.868,-651 333.868,-647.5 333.868,-654.5"/>
</g>
<!-- Node2&#45;&gt;Node8 -->
<g id="edge9" class="edge"><title>Node2&#45;&gt;Node8</title>
<path fill="none" stroke="midnightblue" d="M286.16,-666.101C303.281,-671.155 322.532,-676.838 340.308,-682.085"/>
<polygon fill="midnightblue" stroke="midnightblue" points="339.427,-685.474 350.009,-684.948 341.409,-678.76 339.427,-685.474"/>
</g>
<!-- Node4 -->
<g id="node4" class="node"><title>Node4</title>
<g id="a_node4"><a xlink:href="classTinyXML2_1_1XMLNode.xhtml#a0fe718d6c3d1252c48992c1adc1ce93b" target="_top" xlink:title="TinyXML2::XMLNode::\lUnlink">
<polygon fill="none" stroke="black" points="827,-630 827,-660 943,-660 943,-630 827,-630"/>
<text text-anchor="start" x="835" y="-648" font-family="Helvetica,sans-Serif" font-size="10.00">TinyXML2::XMLNode::</text>
<text text-anchor="middle" x="885" y="-637" font-family="Helvetica,sans-Serif" font-size="10.00">Unlink</text>
</a>
</g>
</g>
<!-- Node3&#45;&gt;Node4 -->
<g id="edge3" class="edge"><title>Node3&#45;&gt;Node4</title>
<path fill="none" stroke="midnightblue" d="M460.288,-659.76C536.039,-669.953 673.547,-683.632 790,-669 801.374,-667.571 813.345,-665.205 824.791,-662.502"/>
<polygon fill="midnightblue" stroke="midnightblue" points="825.819,-665.853 834.686,-660.055 824.138,-659.058 825.819,-665.853"/>
</g>
<!-- Node5 -->
<g id="node5" class="node"><title>Node5</title>
<g id="a_node5"><a xlink:href="classTinyXML2_1_1XMLNode.xhtml#ae64fa52593db503652ee0258bf69d376" target="_top" xlink:title="TinyXML2::XMLNode::\lDeleteNode">
<polygon fill="none" stroke="black" points="504,-592 504,-622 620,-622 620,-592 504,-592"/>
<text text-anchor="start" x="512" y="-610" font-family="Helvetica,sans-Serif" font-size="10.00">TinyXML2::XMLNode::</text>
<text text-anchor="middle" x="562" y="-599" font-family="Helvetica,sans-Serif" font-size="10.00">DeleteNode</text>
</a>
</g>
</g>
<!-- Node3&#45;&gt;Node5 -->
<g id="edge4" class="edge"><title>Node3&#45;&gt;Node5</title>
<path fill="none" stroke="midnightblue" d="M456.933,-635.981C469.953,-632.355 483.987,-628.447 497.405,-624.71"/>
<polygon fill="midnightblue" stroke="midnightblue" points="498.348,-628.081 507.042,-622.026 496.47,-621.337 498.348,-628.081"/>
</g>
<!-- Node6 -->
<g id="node6" class="node"><title>Node6</title>
<g id="a_node6"><a xlink:href="classTinyXML2_1_1XMLNode.xhtml#a5ce8791c0920489f9df667b0a0264935" target="_top" xlink:title="TinyXML2::XMLNode::\l~XMLNode">
<polygon fill="none" stroke="black" points="665,-630 665,-660 781,-660 781,-630 665,-630"/>
<text text-anchor="start" x="673" y="-648" font-family="Helvetica,sans-Serif" font-size="10.00">TinyXML2::XMLNode::</text>
<text text-anchor="middle" x="723" y="-637" font-family="Helvetica,sans-Serif" font-size="10.00">~XMLNode</text>
</a>
</g>
</g>
<!-- Node5&#45;&gt;Node6 -->
<g id="edge5" class="edge"><title>Node5&#45;&gt;Node6</title>
<path fill="none" stroke="midnightblue" d="M620.403,-620.719C631.617,-623.399 643.468,-626.231 654.963,-628.979"/>
<polygon fill="midnightblue" stroke="midnightblue" points="654.409,-632.445 664.948,-631.365 656.036,-625.636 654.409,-632.445"/>
</g>
<!-- Node7 -->
<g id="node7" class="node"><title>Node7</title>
<g id="a_node7"><a xlink:href="classTinyXML2_1_1MemPool.xhtml#af252371f4bf36310d2db949279b5ccf4" target="_top" xlink:title="TinyXML2::MemPool::Free">
<polygon fill="none" stroke="black" points="656,-591.5 656,-610.5 790,-610.5 790,-591.5 656,-591.5"/>
<text text-anchor="middle" x="723" y="-598.5" font-family="Helvetica,sans-Serif" font-size="10.00">TinyXML2::MemPool::Free</text>
</a>
</g>
</g>
<!-- Node5&#45;&gt;Node7 -->
<g id="edge8" class="edge"><title>Node5&#45;&gt;Node7</title>
<path fill="none" stroke="midnightblue" d="M620.403,-604.834C628.561,-604.526 637.056,-604.205 645.505,-603.887"/>
<polygon fill="midnightblue" stroke="midnightblue" points="645.903,-607.374 655.764,-603.499 645.639,-600.379 645.903,-607.374"/>
</g>
<!-- Node6&#45;&gt;Node3 -->
<g id="edge6" class="edge"><title>Node6&#45;&gt;Node3</title>
<path fill="none" stroke="midnightblue" d="M664.926,-646.073C610.305,-647.101 527.91,-648.651 470.156,-649.737"/>
<polygon fill="midnightblue" stroke="midnightblue" points="469.963,-646.24 460.031,-649.927 470.095,-653.239 469.963,-646.24"/>
</g>
<!-- Node6&#45;&gt;Node4 -->
<g id="edge7" class="edge"><title>Node6&#45;&gt;Node4</title>
<path fill="none" stroke="midnightblue" d="M781.312,-645C792.755,-645 804.873,-645 816.62,-645"/>
<polygon fill="midnightblue" stroke="midnightblue" points="816.82,-648.5 826.82,-645 816.82,-641.5 816.82,-648.5"/>
</g>
<!-- Node9&#45;&gt;Node5 -->
<g id="edge18" class="edge"><title>Node9&#45;&gt;Node5</title>
<path fill="none" stroke="midnightblue" d="M242.685,-397.171C254.93,-421.389 279.572,-470.306 300,-512 316.268,-545.203 305.609,-565.941 336,-587 381.592,-618.592 445.487,-621.38 493.543,-617.549"/>
<polygon fill="midnightblue" stroke="midnightblue" points="493.904,-621.031 503.545,-616.639 493.269,-614.059 493.904,-621.031"/>
</g>
<!-- Node9&#45;&gt;Node8 -->
<g id="edge19" class="edge"><title>Node9&#45;&gt;Node8</title>
<path fill="none" stroke="midnightblue" d="M238.408,-397.031C250.871,-450.84 295.36,-632.903 336,-675 337.386,-676.435 338.863,-677.789 340.413,-679.067"/>
<polygon fill="midnightblue" stroke="midnightblue" points="338.495,-681.996 348.702,-684.836 342.494,-676.251 338.495,-681.996"/>
</g>
<!-- Node9&#45;&gt;Node9 -->
<g id="edge17" class="edge"><title>Node9&#45;&gt;Node9</title>
<path fill="none" stroke="midnightblue" d="M204.469,-397.275C197.906,-406.406 207.75,-415 234,-415 249.586,-415 259.388,-411.97 263.406,-407.598"/>
<polygon fill="midnightblue" stroke="midnightblue" points="266.91,-407.317 263.531,-397.275 259.91,-407.232 266.91,-407.317"/>
</g>
<!-- Node10 -->
<g id="node10" class="node"><title>Node10</title>
<g id="a_node10"><a xlink:href="classTinyXML2_1_1XMLDocument.xhtml#a0a09219933989db01f4e0cff84ce5af2" target="_top" xlink:title="TinyXML2::XMLDocument\l::Identify">
<polygon fill="none" stroke="black" points="336,-235 336,-265 468,-265 468,-235 336,-235"/>
<text text-anchor="start" x="344" y="-253" font-family="Helvetica,sans-Serif" font-size="10.00">TinyXML2::XMLDocument</text>
<text text-anchor="middle" x="402" y="-242" font-family="Helvetica,sans-Serif" font-size="10.00">::Identify</text>
</a>
</g>
</g>
<!-- Node9&#45;&gt;Node10 -->
<g id="edge13" class="edge"><title>Node9&#45;&gt;Node10</title>
<path fill="none" stroke="midnightblue" d="M247.001,-366.817C264.646,-345.271 299.472,-305.605 336,-280 341.276,-276.302 347.081,-272.871 352.985,-269.751"/>
<polygon fill="midnightblue" stroke="midnightblue" points="354.896,-272.708 362.28,-265.11 351.77,-266.445 354.896,-272.708"/>
</g>
<!-- Node13 -->
<g id="node13" class="node"><title>Node13</title>
<g id="a_node13"><a xlink:href="classTinyXML2_1_1XMLUtil.xhtml#af0f1d719f7e1067ec06eeb2d687520a5" target="_top" xlink:title="TinyXML2::XMLUtil::\lStringEqual">
<polygon fill="none" stroke="black" points="508,-284 508,-314 616,-314 616,-284 508,-284"/>
<text text-anchor="start" x="516" y="-302" font-family="Helvetica,sans-Serif" font-size="10.00">TinyXML2::XMLUtil::</text>
<text text-anchor="middle" x="562" y="-291" font-family="Helvetica,sans-Serif" font-size="10.00">StringEqual</text>
</a>
</g>
</g>
<!-- Node9&#45;&gt;Node13 -->
<g id="edge27" class="edge"><title>Node9&#45;&gt;Node13</title>
<path fill="none" stroke="midnightblue" d="M250.972,-366.956C269.697,-350.371 302.458,-324.517 336,-313 388.309,-295.039 451.428,-292.641 497.483,-294.098"/>
<polygon fill="midnightblue" stroke="midnightblue" points="497.5,-297.601 507.628,-294.489 497.77,-290.606 497.5,-297.601"/>
</g>
<!-- Node9&#45;&gt;Node14 -->
<g id="edge20" class="edge"><title>Node9&#45;&gt;Node14</title>
<path fill="none" stroke="midnightblue" d="M242.317,-366.751C254.892,-340.271 281.076,-283.928 300,-235 318.251,-187.81 300.799,-163.344 336,-127 337.046,-125.92 338.145,-124.888 339.289,-123.902"/>
<polygon fill="midnightblue" stroke="midnightblue" points="341.35,-126.731 347.415,-118.043 337.256,-121.053 341.35,-126.731"/>
</g>
<!-- Node15 -->
<g id="node15" class="node"><title>Node15</title>
<g id="a_node15"><a xlink:href="classTinyXML2_1_1XMLNode.xhtml#a2ef2c6efbc6c9c76767770160d2d123d" target="_top" xlink:title="Safely cast to an Element, or null. ">
<polygon fill="none" stroke="black" points="344,-137 344,-167 460,-167 460,-137 344,-137"/>
<text text-anchor="start" x="352" y="-155" font-family="Helvetica,sans-Serif" font-size="10.00">TinyXML2::XMLNode::</text>
<text text-anchor="middle" x="402" y="-144" font-family="Helvetica,sans-Serif" font-size="10.00">ToElement</text>
</a>
</g>
</g>
<!-- Node9&#45;&gt;Node15 -->
<g id="edge21" class="edge"><title>Node9&#45;&gt;Node15</title>
<path fill="none" stroke="midnightblue" d="M241.677,-366.77C261.627,-321.514 320.367,-190.112 336,-176 337.289,-174.836 338.64,-173.727 340.04,-172.671"/>
<polygon fill="midnightblue" stroke="midnightblue" points="342.04,-175.546 348.537,-167.177 338.239,-169.668 342.04,-175.546"/>
</g>
<!-- Node16 -->
<g id="node16" class="node"><title>Node16</title>
<g id="a_node16"><a xlink:href="classTinyXML2_1_1XMLElement.xhtml#a66fb22f8dcc79b96229572b2149e22d8" target="_top" xlink:title="TinyXML2::XMLElement\l::ClosingType">
<polygon fill="none" stroke="black" points="340.5,-548 340.5,-578 463.5,-578 463.5,-548 340.5,-548"/>
<text text-anchor="start" x="348.5" y="-566" font-family="Helvetica,sans-Serif" font-size="10.00">TinyXML2::XMLElement</text>
<text text-anchor="middle" x="402" y="-555" font-family="Helvetica,sans-Serif" font-size="10.00">::ClosingType</text>
</a>
</g>
</g>
<!-- Node9&#45;&gt;Node16 -->
<g id="edge22" class="edge"><title>Node9&#45;&gt;Node16</title>
<path fill="none" stroke="midnightblue" d="M240.951,-397.125C253.778,-427.877 286.896,-498.153 336,-538 338.054,-539.667 340.231,-541.231 342.496,-542.698"/>
<polygon fill="midnightblue" stroke="midnightblue" points="341.169,-545.971 351.589,-547.888 344.639,-539.891 341.169,-545.971"/>
</g>
<!-- Node17 -->
<g id="node17" class="node"><title>Node17</title>
<g id="a_node17"><a xlink:href="classTinyXML2_1_1StrPair.xhtml#aa49c81c2847e30ec02d2cb971de60eab" target="_top" xlink:title="TinyXML2::StrPair::\lTransferTo">
<polygon fill="none" stroke="black" points="350.5,-186 350.5,-216 453.5,-216 453.5,-186 350.5,-186"/>
<text text-anchor="start" x="358.5" y="-204" font-family="Helvetica,sans-Serif" font-size="10.00">TinyXML2::StrPair::</text>
<text text-anchor="middle" x="402" y="-193" font-family="Helvetica,sans-Serif" font-size="10.00">TransferTo</text>
</a>
</g>
</g>
<!-- Node9&#45;&gt;Node17 -->
<g id="edge23" class="edge"><title>Node9&#45;&gt;Node17</title>
<path fill="none" stroke="midnightblue" d="M240.88,-366.723C253.575,-335.671 286.463,-264.766 336,-225 337.753,-223.593 339.596,-222.263 341.508,-221.007"/>
<polygon fill="midnightblue" stroke="midnightblue" points="343.341,-223.99 350.253,-215.961 339.842,-217.927 343.341,-223.99"/>
</g>
<!-- Node19 -->
<g id="node19" class="node"><title>Node19</title>
<g id="a_node19"><a xlink:href="classTinyXML2_1_1MemPool.xhtml#a97d309d72afeb96d9e54186285c26705" target="_top" xlink:title="TinyXML2::MemPool::\lSetTracked">
<polygon fill="none" stroke="black" points="505,-477 505,-507 619,-507 619,-477 505,-477"/>
<text text-anchor="start" x="513" y="-495" font-family="Helvetica,sans-Serif" font-size="10.00">TinyXML2::MemPool::</text>
<text text-anchor="middle" x="562" y="-484" font-family="Helvetica,sans-Serif" font-size="10.00">SetTracked</text>
</a>
</g>
</g>
<!-- Node9&#45;&gt;Node19 -->
<g id="edge25" class="edge"><title>Node9&#45;&gt;Node19</title>
<path fill="none" stroke="midnightblue" d="M252.678,-397.234C271.885,-412.948 304.113,-436.947 336,-450 386.942,-470.854 448.633,-481.437 494.525,-486.758"/>
<polygon fill="midnightblue" stroke="midnightblue" points="494.331,-490.258 504.655,-487.878 495.1,-483.3 494.331,-490.258"/>
</g>
<!-- Node20 -->
<g id="node20" class="node"><title>Node20</title>
<g id="a_node20"><a xlink:href="classTinyXML2_1_1StrPair.xhtml#a1afb202191668ec8e922e875c35c8c94" target="_top" xlink:title="TinyXML2::StrPair::\lEmpty">
<polygon fill="none" stroke="black" points="350.5,-323 350.5,-353 453.5,-353 453.5,-323 350.5,-323"/>
<text text-anchor="start" x="358.5" y="-341" font-family="Helvetica,sans-Serif" font-size="10.00">TinyXML2::StrPair::</text>
<text text-anchor="middle" x="402" y="-330" font-family="Helvetica,sans-Serif" font-size="10.00">Empty</text>
</a>
</g>
</g>
<!-- Node9&#45;&gt;Node20 -->
<g id="edge26" class="edge"><title>Node9&#45;&gt;Node20</title>
<path fill="none" stroke="midnightblue" d="M291.663,-366.981C307.453,-362.796 324.661,-358.234 340.654,-353.995"/>
<polygon fill="midnightblue" stroke="midnightblue" points="341.662,-357.349 350.431,-351.404 339.868,-350.583 341.662,-357.349"/>
</g>
<!-- Node21 -->
<g id="node21" class="node"><title>Node21</title>
<g id="a_node21"><a xlink:href="classTinyXML2_1_1StrPair.xhtml#a5e2c5bd32ba79f32f219cf9301c2bce6" target="_top" xlink:title="TinyXML2::StrPair::\lGetStr">
<polygon fill="none" stroke="black" points="510.5,-367 510.5,-397 613.5,-397 613.5,-367 510.5,-367"/>
<text text-anchor="start" x="518.5" y="-385" font-family="Helvetica,sans-Serif" font-size="10.00">TinyXML2::StrPair::</text>
<text text-anchor="middle" x="562" y="-374" font-family="Helvetica,sans-Serif" font-size="10.00">GetStr</text>
</a>
</g>
</g>
<!-- Node9&#45;&gt;Node21 -->
<g id="edge28" class="edge"><title>Node9&#45;&gt;Node21</title>
<path fill="none" stroke="midnightblue" d="M292.158,-382C350.504,-382 440.727,-382 500.318,-382"/>
<polygon fill="midnightblue" stroke="midnightblue" points="500.341,-385.5 510.341,-382 500.341,-378.5 500.341,-385.5"/>
</g>
<!-- Node26 -->
<g id="node26" class="node"><title>Node26</title>
<g id="a_node26"><a xlink:href="classTinyXML2_1_1XMLNode.xhtml#a76031498d32776e907d2ba79b7029b18" target="_top" xlink:title="TinyXML2::XMLNode::\lValue">
<polygon fill="none" stroke="black" points="344,-411 344,-441 460,-441 460,-411 344,-411"/>
<text text-anchor="start" x="352" y="-429" font-family="Helvetica,sans-Serif" font-size="10.00">TinyXML2::XMLNode::</text>
<text text-anchor="middle" x="402" y="-418" font-family="Helvetica,sans-Serif" font-size="10.00">Value</text>
</a>
</g>
</g>
<!-- Node9&#45;&gt;Node26 -->
<g id="edge34" class="edge"><title>Node9&#45;&gt;Node26</title>
<path fill="none" stroke="midnightblue" d="M291.663,-397.019C305.476,-400.68 320.374,-404.629 334.595,-408.399"/>
<polygon fill="midnightblue" stroke="midnightblue" points="333.747,-411.795 344.31,-410.974 335.541,-405.028 333.747,-411.795"/>
</g>
<!-- Node27 -->
<g id="node27" class="node"><title>Node27</title>
<g id="a_node27"><a xlink:href="classTinyXML2_1_1XMLNode.xhtml#a8ae11185b5fbb9620d71114c70b31368" target="_top" xlink:title="TinyXML2::XMLNode::\lInsertEndChild">
<polygon fill="none" stroke="black" points="344,-499 344,-529 460,-529 460,-499 344,-499"/>
<text text-anchor="start" x="352" y="-517" font-family="Helvetica,sans-Serif" font-size="10.00">TinyXML2::XMLNode::</text>
<text text-anchor="middle" x="402" y="-506" font-family="Helvetica,sans-Serif" font-size="10.00">InsertEndChild</text>
</a>
</g>
</g>
<!-- Node9&#45;&gt;Node27 -->
<g id="edge36" class="edge"><title>Node9&#45;&gt;Node27</title>
<path fill="none" stroke="midnightblue" d="M247.001,-397.183C264.646,-418.729 299.472,-458.395 336,-484 341.276,-487.698 347.081,-491.129 352.985,-494.249"/>
<polygon fill="midnightblue" stroke="midnightblue" points="351.77,-497.555 362.28,-498.89 354.896,-491.292 351.77,-497.555"/>
</g>
<!-- Node11 -->
<g id="node11" class="node"><title>Node11</title>
<g id="a_node11"><a xlink:href="classTinyXML2_1_1XMLText.xhtml#a44acb8346adaa28c3ed043a22104b917" target="_top" xlink:title="Declare whether this should be CDATA or standard text. ">
<polygon fill="none" stroke="black" points="505.5,-235 505.5,-265 618.5,-265 618.5,-235 505.5,-235"/>
<text text-anchor="start" x="513.5" y="-253" font-family="Helvetica,sans-Serif" font-size="10.00">TinyXML2::XMLText::</text>
<text text-anchor="middle" x="562" y="-242" font-family="Helvetica,sans-Serif" font-size="10.00">SetCData</text>
</a>
</g>
</g>
<!-- Node10&#45;&gt;Node11 -->
<g id="edge14" class="edge"><title>Node10&#45;&gt;Node11</title>
<path fill="none" stroke="midnightblue" d="M468.177,-250C476.975,-250 486.009,-250 494.824,-250"/>
<polygon fill="midnightblue" stroke="midnightblue" points="495.045,-253.5 505.045,-250 495.045,-246.5 495.045,-253.5"/>
</g>
<!-- Node10&#45;&gt;Node12 -->
<g id="edge15" class="edge"><title>Node10&#45;&gt;Node12</title>
<path fill="none" stroke="midnightblue" d="M455.56,-234.956C471.041,-231.079 488.095,-227.344 504,-225 614.472,-208.721 744.746,-205.657 820.498,-205.453"/>
<polygon fill="midnightblue" stroke="midnightblue" points="820.821,-208.953 830.817,-205.442 820.814,-201.953 820.821,-208.953"/>
</g>
<!-- Node10&#45;&gt;Node13 -->
<g id="edge16" class="edge"><title>Node10&#45;&gt;Node13</title>
<path fill="none" stroke="midnightblue" d="M451.694,-265.101C467.839,-270.108 485.974,-275.732 502.762,-280.939"/>
<polygon fill="midnightblue" stroke="midnightblue" points="501.878,-284.329 512.466,-283.948 503.952,-277.643 501.878,-284.329"/>
</g>
<!-- Node18 -->
<g id="node18" class="node"><title>Node18</title>
<g id="a_node18"><a xlink:href="classTinyXML2_1_1StrPair.xhtml#afbc7a4f921afeff8ef2aca24765ed24f" target="_top" xlink:title="TinyXML2::StrPair::\lReset">
<polygon fill="none" stroke="black" points="510.5,-147 510.5,-177 613.5,-177 613.5,-147 510.5,-147"/>
<text text-anchor="start" x="518.5" y="-165" font-family="Helvetica,sans-Serif" font-size="10.00">TinyXML2::StrPair::</text>
<text text-anchor="middle" x="562" y="-154" font-family="Helvetica,sans-Serif" font-size="10.00">Reset</text>
</a>
</g>
</g>
<!-- Node17&#45;&gt;Node18 -->
<g id="edge24" class="edge"><title>Node17&#45;&gt;Node18</title>
<path fill="none" stroke="midnightblue" d="M453.862,-188.445C468.662,-184.792 484.978,-180.765 500.319,-176.978"/>
<polygon fill="midnightblue" stroke="midnightblue" points="501.364,-180.326 510.233,-174.531 499.686,-173.529 501.364,-180.326"/>
</g>
<!-- Node22 -->
<g id="node22" class="node"><title>Node22</title>
<g id="a_node22"><a xlink:href="classTinyXML2_1_1StrPair.xhtml#a7d56cd79475b9e7e6349134b89331311" target="_top" xlink:title="TinyXML2::StrPair::\lCollapseWhitespace">
<polygon fill="none" stroke="black" points="669.5,-279 669.5,-309 776.5,-309 776.5,-279 669.5,-279"/>
<text text-anchor="start" x="677.5" y="-297" font-family="Helvetica,sans-Serif" font-size="10.00">TinyXML2::StrPair::</text>
<text text-anchor="middle" x="723" y="-286" font-family="Helvetica,sans-Serif" font-size="10.00">CollapseWhitespace</text>
</a>
</g>
</g>
<!-- Node21&#45;&gt;Node22 -->
<g id="edge29" class="edge"><title>Node21&#45;&gt;Node22</title>
<path fill="none" stroke="midnightblue" d="M590.333,-366.872C616.692,-352.284 656.75,-330.113 685.759,-314.058"/>
<polygon fill="midnightblue" stroke="midnightblue" points="687.704,-316.982 694.758,-309.077 684.314,-310.858 687.704,-316.982"/>
</g>
<!-- Node24 -->
<g id="node24" class="node"><title>Node24</title>
<g id="a_node24"><a xlink:href="classTinyXML2_1_1XMLUtil.xhtml#a7b69ac5d9474c28a4b2fd675d692ea43" target="_top" xlink:title="TinyXML2::XMLUtil::\lGetCharacterRef">
<polygon fill="none" stroke="black" points="669,-367 669,-397 777,-397 777,-367 669,-367"/>
<text text-anchor="start" x="677" y="-385" font-family="Helvetica,sans-Serif" font-size="10.00">TinyXML2::XMLUtil::</text>
<text text-anchor="middle" x="723" y="-374" font-family="Helvetica,sans-Serif" font-size="10.00">GetCharacterRef</text>
</a>
</g>
</g>
<!-- Node21&#45;&gt;Node24 -->
<g id="edge32" class="edge"><title>Node21&#45;&gt;Node24</title>
<path fill="none" stroke="midnightblue" d="M613.746,-382C628.071,-382 643.836,-382 658.797,-382"/>
<polygon fill="midnightblue" stroke="midnightblue" points="658.998,-385.5 668.998,-382 658.998,-378.5 658.998,-385.5"/>
</g>
<!-- Node22&#45;&gt;Node12 -->
<g id="edge31" class="edge"><title>Node22&#45;&gt;Node12</title>
<path fill="none" stroke="midnightblue" d="M751.505,-278.872C778.03,-264.284 818.34,-242.113 847.531,-226.058"/>
<polygon fill="midnightblue" stroke="midnightblue" points="849.511,-228.963 856.587,-221.077 846.138,-222.83 849.511,-228.963"/>
</g>
<!-- Node23 -->
<g id="node23" class="node"><title>Node23</title>
<g id="a_node23"><a xlink:href="classTinyXML2_1_1XMLUtil.xhtml#aa1b7cab8abab24f6deeb0b34a31b5a86" target="_top" xlink:title="TinyXML2::XMLUtil::\lIsWhiteSpace">
<polygon fill="none" stroke="black" points="831,-279 831,-309 939,-309 939,-279 831,-279"/>
<text text-anchor="start" x="839" y="-297" font-family="Helvetica,sans-Serif" font-size="10.00">TinyXML2::XMLUtil::</text>
<text text-anchor="middle" x="885" y="-286" font-family="Helvetica,sans-Serif" font-size="10.00">IsWhiteSpace</text>
</a>
</g>
</g>
<!-- Node22&#45;&gt;Node23 -->
<g id="edge30" class="edge"><title>Node22&#45;&gt;Node23</title>
<path fill="none" stroke="midnightblue" d="M776.833,-294C790.823,-294 806.071,-294 820.561,-294"/>
<polygon fill="midnightblue" stroke="midnightblue" points="820.949,-297.5 830.949,-294 820.949,-290.5 820.949,-297.5"/>
</g>
<!-- Node25 -->
<g id="node25" class="node"><title>Node25</title>
<g id="a_node25"><a xlink:href="classTinyXML2_1_1XMLUtil.xhtml#a568fea7b3c469d8fae0e1f3480a0d96c" target="_top" xlink:title="TinyXML2::XMLUtil::\lConvertUTF32ToUTF8">
<polygon fill="none" stroke="black" points="826.5,-367 826.5,-397 943.5,-397 943.5,-367 826.5,-367"/>
<text text-anchor="start" x="834.5" y="-385" font-family="Helvetica,sans-Serif" font-size="10.00">TinyXML2::XMLUtil::</text>
<text text-anchor="middle" x="885" y="-374" font-family="Helvetica,sans-Serif" font-size="10.00">ConvertUTF32ToUTF8</text>
</a>
</g>
</g>
<!-- Node24&#45;&gt;Node25 -->
<g id="edge33" class="edge"><title>Node24&#45;&gt;Node25</title>
<path fill="none" stroke="midnightblue" d="M777.278,-382C789.687,-382 803.066,-382 816.015,-382"/>
<polygon fill="midnightblue" stroke="midnightblue" points="816.281,-385.5 826.28,-382 816.28,-378.5 816.281,-385.5"/>
</g>
<!-- Node26&#45;&gt;Node21 -->
<g id="edge35" class="edge"><title>Node26&#45;&gt;Node21</title>
<path fill="none" stroke="midnightblue" d="M456.933,-410.981C470.951,-407.077 486.145,-402.846 500.478,-398.854"/>
<polygon fill="midnightblue" stroke="midnightblue" points="501.545,-402.19 510.239,-396.136 499.667,-395.447 501.545,-402.19"/>
</g>
<!-- Node27&#45;&gt;Node4 -->
<g id="edge37" class="edge"><title>Node27&#45;&gt;Node4</title>
<path fill="none" stroke="midnightblue" d="M460.122,-516.653C537.458,-521.873 678.601,-537.222 790,-582 814.907,-592.012 840.006,-609.284 857.995,-623.214"/>
<polygon fill="midnightblue" stroke="midnightblue" points="856.213,-626.267 866.224,-629.737 860.562,-620.782 856.213,-626.267"/>
</g>
<!-- Node27&#45;&gt;Node19 -->
<g id="edge38" class="edge"><title>Node27&#45;&gt;Node19</title>
<path fill="none" stroke="midnightblue" d="M460.042,-506.057C471.322,-504.487 483.251,-502.826 494.805,-501.217"/>
<polygon fill="midnightblue" stroke="midnightblue" points="495.415,-504.666 504.836,-499.82 494.449,-497.733 495.415,-504.666"/>
</g>
</g>
</svg>
        <g id="navigator" transform="translate(0 0)" fill="#404254">
                <rect fill="#f2f5e9" fill-opacity="0.5" stroke="#606060" stroke-width=".5" x="0" y="0" width="60" height="60"/>
                <use id="zoomplus" xlink:href="#zoomPlus" x="17" y="9" onmousedown="handleZoom(evt,'in')"/>
                <use id="zoomminus" xlink:href="#zoomMin" x="42" y="9" onmousedown="handleZoom(evt,'out')"/>
                <use id="reset" xlink:href="#resetDef" x="30" y="36" onmousedown="handleReset()"/>
                <g id="arrowUp" xlink:href="#dirArrow" transform="translate(30 24)" onmousedown="handlePan(0,-1)">
                  <use xlink:href="#rim" fill="#404040">
                        <set attributeName="fill" to="#808080" begin="arrowUp.mouseover" end="arrowUp.mouseout"/>
                  </use>
                  <path fill="none" stroke="white" stroke-width="1.5" d="M0,-3.0v7 M-2.5,-0.5L0,-3.0L2.5,-0.5"/>
                </g>
                <g id="arrowRight" xlink:href="#dirArrow" transform="rotate(90) translate(36 -43)" onmousedown="handlePan(1,0)">
                  <use xlink:href="#rim" fill="#404040">
                        <set attributeName="fill" to="#808080" begin="arrowRight.mouseover" end="arrowRight.mouseout"/>
                  </use>
                  <path fill="none" stroke="white" stroke-width="1.5" d="M0,-3.0v7 M-2.5,-0.5L0,-3.0L2.5,-0.5"/>
                </g>
                <g id="arrowDown" xlink:href="#dirArrow" transform="rotate(180) translate(-30 -48)" onmousedown="handlePan(0,1)">
                  <use xlink:href="#rim" fill="#404040">
                        <set attributeName="fill" to="#808080" begin="arrowDown.mouseover" end="arrowDown.mouseout"/>
                  </use>
                  <path fill="none" stroke="white" stroke-width="1.5" d="M0,-3.0v7 M-2.5,-0.5L0,-3.0L2.5,-0.5"/>
                </g>
                <g id="arrowLeft" xlink:href="#dirArrow" transform="rotate(270) translate(-36 17)" onmousedown="handlePan(-1,0)">
                  <use xlink:href="#rim" fill="#404040">
                        <set attributeName="fill" to="#808080" begin="arrowLeft.mouseover" end="arrowLeft.mouseout"/>
                  </use>
                  <path fill="none" stroke="white" stroke-width="1.5" d="M0,-3.0v7 M-2.5,-0.5L0,-3.0L2.5,-0.5"/>
                </g>
        </g>
        <svg viewBox="0 0 15 15" width="100%" height="30px" preserveAspectRatio="xMaxYMin meet">
         <g id="arrow_out" transform="scale(0.3 0.3)">
          <a xlink:href="classTinyXML2_1_1XMLDocument_a2734f0824ea57c5c26f61b4f3ff2514a_cgraph_org.svg" target="_base">
           <rect id="button" ry="5" rx="5" y="6" x="6" height="38" width="38"
                fill="#f2f5e9" fill-opacity="0.5" stroke="#606060" stroke-width="1.0"/>
           <path id="arrow"
             d="M 11.500037,31.436501 C 11.940474,20.09759 22.043105,11.32322 32.158766,21.979434 L 37.068811,17.246167 C 37.068811,17.246167 37.088388,32 37.088388,32 L 22.160133,31.978069 C 22.160133,31.978069 26.997745,27.140456 26.997745,27.140456 C 18.528582,18.264221 13.291696,25.230495 11.500037,31.436501 z"
             style="fill:#404040;"/>
          </a>
         </g>
        </svg>
</svg>
