<?xml version="1.0" encoding="UTF-8" standalone="no"?>
<!DOCTYPE svg PUBLIC "-//W3C//DTD SVG 1.1//EN"
 "http://www.w3.org/Graphics/SVG/1.1/DTD/svg11.dtd">
<!-- Generated by graphviz version 2.36.0 (20140111.2315)
 -->
<!-- Title: Voxel::FrameStreamReader::_init Pages: 1 -->
<!--zoomable 337 -->
<svg id="main" version="1.1" xmlns="http://www.w3.org/2000/svg" xmlns:xlink="http://www.w3.org/1999/xlink" xml:space="preserve" onload="init(evt)">
<style type="text/css"><![CDATA[
.edge:hover path { stroke: red; }
.edge:hover polygon { stroke: red; fill: red; }
]]></style>
<script type="text/javascript"><![CDATA[
var edges = document.getElementsByTagName('g');
if (edges && edges.length) {
  for (var i=0;i<edges.length;i++) {
    if (edges[i].id.substr(0,4)=='edge') {
      edges[i].setAttribute('class','edge');
    }
  }
}
]]></script>
        <defs>
                <circle id="rim" cx="0" cy="0" r="7"/>
                <circle id="rim2" cx="0" cy="0" r="3.5"/>
                <g id="zoomPlus">
                        <use xlink:href="#rim" fill="#404040">
                                <set attributeName="fill" to="#808080" begin="zoomplus.mouseover" end="zoomplus.mouseout"/>
                        </use>
                        <path d="M-4,0h8M0,-4v8" fill="none" stroke="white" stroke-width="1.5" pointer-events="none"/>
                </g>
                <g id="zoomMin">
                        <use xlink:href="#rim" fill="#404040">
                                <set attributeName="fill" to="#808080" begin="zoomminus.mouseover" end="zoomminus.mouseout"/>
                        </use>
                        <path d="M-4,0h8" fill="none" stroke="white" stroke-width="1.5" pointer-events="none"/>
                </g>
                <g id="dirArrow">
                        <path fill="none" stroke="white" stroke-width="1.5" d="M0,-3.0v7 M-2.5,-0.5L0,-3.0L2.5,-0.5"/>
                </g>
               <g id="resetDef">
                       <use xlink:href="#rim2" fill="#404040">
                               <set attributeName="fill" to="#808080" begin="reset.mouseover" end="reset.mouseout"/>
                       </use>
               </g>
        </defs>

<script type="text/javascript">
var viewWidth = 1310;
var viewHeight = 337;
var sectionId = 'dynsection-5';
</script>
<script xlink:href="svgpan.js"/>
<svg id="graph" class="graph">
<g id="viewport">
<title>Voxel::FrameStreamReader::_init</title>
<!-- Node1 -->
<g id="node1" class="node"><title>Node1</title>
<polygon fill="#bfbfbf" stroke="black" points="0,-82 0,-112 138,-112 138,-82 0,-82"/>
<text text-anchor="start" x="8" y="-100" font-family="Helvetica,sans-Serif" font-size="10.00">Voxel::FrameStreamReader</text>
<text text-anchor="middle" x="69" y="-89" font-family="Helvetica,sans-Serif" font-size="10.00">::_init</text>
</g>
<!-- Node2 -->
<g id="node2" class="node"><title>Node2</title>
<g id="a_node2"><a xlink:href="classVoxel_1_1CameraSystem.xhtml#a6dc72b84584c64361b6ffa3179506bf3" target="_top" xlink:title="Voxel::CameraSystem\l::getFrameGenerator">
<polygon fill="none" stroke="black" points="185,-200 185,-230 301,-230 301,-200 185,-200"/>
<text text-anchor="start" x="193" y="-218" font-family="Helvetica,sans-Serif" font-size="10.00">Voxel::CameraSystem</text>
<text text-anchor="middle" x="243" y="-207" font-family="Helvetica,sans-Serif" font-size="10.00">::getFrameGenerator</text>
</a>
</g>
</g>
<!-- Node1&#45;&gt;Node2 -->
<g id="edge1" class="edge"><title>Node1&#45;&gt;Node2</title>
<path fill="none" stroke="midnightblue" d="M83.4151,-112.138C102.004,-132.322 137.457,-168.047 174,-190 177.361,-192.019 180.912,-193.917 184.556,-195.694"/>
<polygon fill="midnightblue" stroke="midnightblue" points="183.2,-198.922 193.753,-199.859 186.088,-192.545 183.2,-198.922"/>
</g>
<!-- Node3 -->
<g id="node3" class="node"><title>Node3</title>
<g id="a_node3"><a xlink:href="structVoxel_1_1DataPacket.xhtml#a6b513813ba962f331cb8a2683fbf5b85" target="_top" xlink:title="Voxel::DataPacket::\lreadHeader">
<polygon fill="none" stroke="black" points="866.5,-111 866.5,-141 971.5,-141 971.5,-111 866.5,-111"/>
<text text-anchor="start" x="874.5" y="-129" font-family="Helvetica,sans-Serif" font-size="10.00">Voxel::DataPacket::</text>
<text text-anchor="middle" x="919" y="-118" font-family="Helvetica,sans-Serif" font-size="10.00">readHeader</text>
</a>
</g>
</g>
<!-- Node1&#45;&gt;Node3 -->
<g id="edge2" class="edge"><title>Node1&#45;&gt;Node3</title>
<path fill="none" stroke="midnightblue" d="M138.034,-85.0808C207.633,-73.9367 319.009,-59 416,-59 416,-59 416,-59 597,-59 692.92,-59 801.625,-88.0218 864.738,-107.864"/>
<polygon fill="midnightblue" stroke="midnightblue" points="863.876,-111.263 874.466,-110.964 866.001,-104.593 863.876,-111.263"/>
</g>
<!-- Node7 -->
<g id="node7" class="node"><title>Node7</title>
<g id="a_node7"><a xlink:href="classVoxel_1_1FrameStreamReader.xhtml#ab5d800095472ead3dd70924b32c0e5e8" target="_top" xlink:title="Voxel::FrameStreamReader\l::readNext">
<polygon fill="none" stroke="black" points="174,-151 174,-181 312,-181 312,-151 174,-151"/>
<text text-anchor="start" x="182" y="-169" font-family="Helvetica,sans-Serif" font-size="10.00">Voxel::FrameStreamReader</text>
<text text-anchor="middle" x="243" y="-158" font-family="Helvetica,sans-Serif" font-size="10.00">::readNext</text>
</a>
</g>
</g>
<!-- Node1&#45;&gt;Node7 -->
<g id="edge7" class="edge"><title>Node1&#45;&gt;Node7</title>
<path fill="none" stroke="midnightblue" d="M107.746,-112.142C133.399,-122.433 167.522,-136.122 194.946,-147.124"/>
<polygon fill="midnightblue" stroke="midnightblue" points="193.758,-150.418 204.342,-150.893 196.364,-143.921 193.758,-150.418"/>
</g>
<!-- Node12 -->
<g id="node12" class="node"><title>Node12</title>
<g id="a_node12"><a xlink:href="structVoxel_1_1DataPacket.xhtml#a1eecb53d40b7db5c0bc40a55d57b9c72" target="_top" xlink:title="Voxel::DataPacket::\lverifyMagic">
<polygon fill="none" stroke="black" points="715.5,-129 715.5,-159 820.5,-159 820.5,-129 715.5,-129"/>
<text text-anchor="start" x="723.5" y="-147" font-family="Helvetica,sans-Serif" font-size="10.00">Voxel::DataPacket::</text>
<text text-anchor="middle" x="768" y="-136" font-family="Helvetica,sans-Serif" font-size="10.00">verifyMagic</text>
</a>
</g>
</g>
<!-- Node1&#45;&gt;Node12 -->
<g id="edge23" class="edge"><title>Node1&#45;&gt;Node12</title>
<path fill="none" stroke="midnightblue" d="M138.161,-98.9905C220.613,-101.658 363.597,-107.113 486,-116 561.493,-121.481 648.132,-130.535 705.015,-136.859"/>
<polygon fill="midnightblue" stroke="midnightblue" points="704.954,-140.374 715.281,-138.006 705.732,-133.417 704.954,-140.374"/>
</g>
<!-- Node17 -->
<g id="node17" class="node"><title>Node17</title>
<g id="a_node17"><a xlink:href="classVoxel_1_1FrameStreamReader.xhtml#a850f53a860d60896de28dfee9845cbc7" target="_top" xlink:title="Voxel::FrameStreamReader\l::seekTo">
<polygon fill="none" stroke="black" points="174,-0 174,-30 312,-30 312,-0 174,-0"/>
<text text-anchor="start" x="182" y="-18" font-family="Helvetica,sans-Serif" font-size="10.00">Voxel::FrameStreamReader</text>
<text text-anchor="middle" x="243" y="-7" font-family="Helvetica,sans-Serif" font-size="10.00">::seekTo</text>
</a>
</g>
</g>
<!-- Node1&#45;&gt;Node17 -->
<g id="edge22" class="edge"><title>Node1&#45;&gt;Node17</title>
<path fill="none" stroke="midnightblue" d="M99.4019,-81.8258C120.129,-71.245 148.608,-56.9407 174,-45 181.637,-41.4085 189.811,-37.6939 197.748,-34.1536"/>
<polygon fill="midnightblue" stroke="midnightblue" points="199.185,-37.3452 206.911,-30.0954 196.35,-30.9448 199.185,-37.3452"/>
</g>
<!-- Node4 -->
<g id="node4" class="node"><title>Node4</title>
<g id="a_node4"><a xlink:href="classVoxel_1_1SerializedObject.xhtml#a5b4f523481053034ad119a0dd8798eb4" target="_top" xlink:title="Voxel::SerializedObject\l::currentGetOffset">
<polygon fill="none" stroke="black" points="1017.5,-190 1017.5,-220 1136.5,-220 1136.5,-190 1017.5,-190"/>
<text text-anchor="start" x="1025.5" y="-208" font-family="Helvetica,sans-Serif" font-size="10.00">Voxel::SerializedObject</text>
<text text-anchor="middle" x="1077" y="-197" font-family="Helvetica,sans-Serif" font-size="10.00">::currentGetOffset</text>
</a>
</g>
</g>
<!-- Node3&#45;&gt;Node4 -->
<g id="edge3" class="edge"><title>Node3&#45;&gt;Node4</title>
<path fill="none" stroke="midnightblue" d="M941.736,-141.02C959.139,-152.626 984.45,-168.585 1008,-180 1012.37,-182.117 1016.96,-184.165 1021.62,-186.114"/>
<polygon fill="midnightblue" stroke="midnightblue" points="1020.63,-189.487 1031.21,-189.972 1023.24,-182.993 1020.63,-189.487"/>
</g>
<!-- Node5 -->
<g id="node5" class="node"><title>Node5</title>
<g id="a_node5"><a xlink:href="classVoxel_1_1SerializedObject.xhtml#a2044534dbfab4e75452288a0223dae7b" target="_top" xlink:title="Voxel::SerializedObject::get">
<polygon fill="none" stroke="black" points="1008,-151.5 1008,-170.5 1146,-170.5 1146,-151.5 1008,-151.5"/>
<text text-anchor="middle" x="1077" y="-158.5" font-family="Helvetica,sans-Serif" font-size="10.00">Voxel::SerializedObject::get</text>
</a>
</g>
</g>
<!-- Node3&#45;&gt;Node5 -->
<g id="edge4" class="edge"><title>Node3&#45;&gt;Node5</title>
<path fill="none" stroke="midnightblue" d="M971.513,-137.557C988.196,-141.3 1006.71,-145.455 1023.47,-149.214"/>
<polygon fill="midnightblue" stroke="midnightblue" points="1023.12,-152.723 1033.64,-151.497 1024.65,-145.893 1023.12,-152.723"/>
</g>
<!-- Node6 -->
<g id="node6" class="node"><title>Node6</title>
<g id="a_node6"><a xlink:href="classVoxel_1_1SerializedObject.xhtml#adf11acb91f4adf3fe582a778c12b6286" target="_top" xlink:title="Voxel::SerializedObject\l::size">
<polygon fill="none" stroke="black" points="1182.5,-146 1182.5,-176 1301.5,-176 1301.5,-146 1182.5,-146"/>
<text text-anchor="start" x="1190.5" y="-164" font-family="Helvetica,sans-Serif" font-size="10.00">Voxel::SerializedObject</text>
<text text-anchor="middle" x="1242" y="-153" font-family="Helvetica,sans-Serif" font-size="10.00">::size</text>
</a>
</g>
</g>
<!-- Node3&#45;&gt;Node6 -->
<g id="edge6" class="edge"><title>Node3&#45;&gt;Node6</title>
<path fill="none" stroke="midnightblue" d="M971.802,-127.8C1017.73,-129.84 1086.55,-133.984 1146,-142 1154.6,-143.16 1163.59,-144.623 1172.47,-146.221"/>
<polygon fill="midnightblue" stroke="midnightblue" points="1171.94,-149.683 1182.41,-148.074 1173.22,-142.802 1171.94,-149.683"/>
</g>
<!-- Node5&#45;&gt;Node6 -->
<g id="edge5" class="edge"><title>Node5&#45;&gt;Node6</title>
<path fill="none" stroke="midnightblue" d="M1146.18,-161C1154.84,-161 1163.69,-161 1172.35,-161"/>
<polygon fill="midnightblue" stroke="midnightblue" points="1172.41,-164.5 1182.41,-161 1172.41,-157.5 1172.41,-164.5"/>
</g>
<!-- Node8 -->
<g id="node8" class="node"><title>Node8</title>
<g id="a_node8"><a xlink:href="classVoxel_1_1FrameStreamReader.xhtml#a6b3d87061e0c1bcd7a4ec970bc609afd" target="_top" xlink:title="Voxel::FrameStreamReader\l::size">
<polygon fill="none" stroke="black" points="348,-126 348,-156 486,-156 486,-126 348,-126"/>
<text text-anchor="start" x="356" y="-144" font-family="Helvetica,sans-Serif" font-size="10.00">Voxel::FrameStreamReader</text>
<text text-anchor="middle" x="417" y="-133" font-family="Helvetica,sans-Serif" font-size="10.00">::size</text>
</a>
</g>
</g>
<!-- Node7&#45;&gt;Node8 -->
<g id="edge8" class="edge"><title>Node7&#45;&gt;Node8</title>
<path fill="none" stroke="midnightblue" d="M312.473,-156.048C320.732,-154.847 329.216,-153.614 337.602,-152.395"/>
<polygon fill="midnightblue" stroke="midnightblue" points="338.37,-155.82 347.762,-150.918 337.363,-148.893 338.37,-155.82"/>
</g>
<!-- Node9 -->
<g id="node9" class="node"><title>Node9</title>
<g id="a_node9"><a xlink:href="classVoxel_1_1FrameStreamReader.xhtml#a619ea63e8db183e17465fab3fd246f56" target="_top" xlink:title="Voxel::FrameStreamReader\l::_readConfigPacket">
<polygon fill="none" stroke="black" points="348,-263 348,-293 486,-293 486,-263 348,-263"/>
<text text-anchor="start" x="356" y="-281" font-family="Helvetica,sans-Serif" font-size="10.00">Voxel::FrameStreamReader</text>
<text text-anchor="middle" x="417" y="-270" font-family="Helvetica,sans-Serif" font-size="10.00">::_readConfigPacket</text>
</a>
</g>
</g>
<!-- Node7&#45;&gt;Node9 -->
<g id="edge9" class="edge"><title>Node7&#45;&gt;Node9</title>
<path fill="none" stroke="midnightblue" d="M297.833,-181.014C302.882,-183.573 307.707,-186.548 312,-190 335.643,-209.014 325.099,-228.1 348,-248 352.261,-251.703 357.052,-255.016 362.067,-257.965"/>
<polygon fill="midnightblue" stroke="midnightblue" points="360.801,-261.257 371.27,-262.885 364.101,-255.084 360.801,-261.257"/>
</g>
<!-- Node10 -->
<g id="node10" class="node"><title>Node10</title>
<g id="a_node10"><a xlink:href="classVoxel_1_1FrameStreamReader.xhtml#a542b1d8bc2419e5a2f63ba9c132e569e" target="_top" xlink:title="Voxel::FrameStreamReader\l::_getPacket">
<polygon fill="none" stroke="black" points="527,-203 527,-233 665,-233 665,-203 527,-203"/>
<text text-anchor="start" x="535" y="-221" font-family="Helvetica,sans-Serif" font-size="10.00">Voxel::FrameStreamReader</text>
<text text-anchor="middle" x="596" y="-210" font-family="Helvetica,sans-Serif" font-size="10.00">::_getPacket</text>
</a>
</g>
</g>
<!-- Node7&#45;&gt;Node10 -->
<g id="edge20" class="edge"><title>Node7&#45;&gt;Node10</title>
<path fill="none" stroke="midnightblue" d="M291.455,-181.035C298.463,-183.745 305.505,-186.753 312,-190 329.199,-198.6 329.641,-208.279 348,-214 402.587,-231.011 467.305,-231.389 516.799,-227.845"/>
<polygon fill="midnightblue" stroke="midnightblue" points="517.107,-231.332 526.803,-227.061 516.56,-224.353 517.107,-231.332"/>
</g>
<!-- Node16 -->
<g id="node16" class="node"><title>Node16</title>
<g id="a_node16"><a xlink:href="classVoxel_1_1RawDataFrame.xhtml#a56f5db6fdd8b92640d8c50f57de6de3a" target="_top" xlink:title="Voxel::RawDataFrame\l::deserialize">
<polygon fill="none" stroke="black" points="359,-175 359,-205 475,-205 475,-175 359,-175"/>
<text text-anchor="start" x="367" y="-193" font-family="Helvetica,sans-Serif" font-size="10.00">Voxel::RawDataFrame</text>
<text text-anchor="middle" x="417" y="-182" font-family="Helvetica,sans-Serif" font-size="10.00">::deserialize</text>
</a>
</g>
</g>
<!-- Node7&#45;&gt;Node16 -->
<g id="edge21" class="edge"><title>Node7&#45;&gt;Node16</title>
<path fill="none" stroke="midnightblue" d="M312.473,-175.554C324.476,-177.229 336.955,-178.97 348.92,-180.64"/>
<polygon fill="midnightblue" stroke="midnightblue" points="348.44,-184.107 358.827,-182.022 349.407,-177.174 348.44,-184.107"/>
</g>
<!-- Node9&#45;&gt;Node10 -->
<g id="edge10" class="edge"><title>Node9&#45;&gt;Node10</title>
<path fill="none" stroke="midnightblue" d="M462.665,-262.859C486.442,-254.799 515.868,-244.824 540.93,-236.329"/>
<polygon fill="midnightblue" stroke="midnightblue" points="542.31,-239.557 550.657,-233.032 540.062,-232.927 542.31,-239.557"/>
</g>
<!-- Node13 -->
<g id="node13" class="node"><title>Node13</title>
<g id="a_node13"><a xlink:href="structVoxel_1_1GeneratorConfigurationSubPacket.xhtml#a253f162d98db8c99d09400e766280aa4" target="_top" xlink:title="Voxel::GeneratorConfiguration\lSubPacket::read">
<polygon fill="none" stroke="black" points="522,-263 522,-293 670,-293 670,-263 522,-263"/>
<text text-anchor="start" x="530" y="-281" font-family="Helvetica,sans-Serif" font-size="10.00">Voxel::GeneratorConfiguration</text>
<text text-anchor="middle" x="596" y="-270" font-family="Helvetica,sans-Serif" font-size="10.00">SubPacket::read</text>
</a>
</g>
</g>
<!-- Node9&#45;&gt;Node13 -->
<g id="edge17" class="edge"><title>Node9&#45;&gt;Node13</title>
<path fill="none" stroke="midnightblue" d="M486.18,-278C494.579,-278 503.237,-278 511.827,-278"/>
<polygon fill="midnightblue" stroke="midnightblue" points="511.862,-281.5 521.862,-278 511.862,-274.5 511.862,-281.5"/>
</g>
<!-- Node11 -->
<g id="node11" class="node"><title>Node11</title>
<g id="a_node11"><a xlink:href="structVoxel_1_1DataPacket.xhtml#a3e9f061054a9cad39f3232febaea292a" target="_top" xlink:title="Voxel::DataPacket::read">
<polygon fill="none" stroke="black" points="706,-198.5 706,-217.5 830,-217.5 830,-198.5 706,-198.5"/>
<text text-anchor="middle" x="768" y="-205.5" font-family="Helvetica,sans-Serif" font-size="10.00">Voxel::DataPacket::read</text>
</a>
</g>
</g>
<!-- Node10&#45;&gt;Node11 -->
<g id="edge11" class="edge"><title>Node10&#45;&gt;Node11</title>
<path fill="none" stroke="midnightblue" d="M665.166,-213.99C675.281,-213.395 685.727,-212.781 695.9,-212.182"/>
<polygon fill="midnightblue" stroke="midnightblue" points="696.183,-215.672 705.96,-211.591 695.772,-208.684 696.183,-215.672"/>
</g>
<!-- Node10&#45;&gt;Node12 -->
<g id="edge16" class="edge"><title>Node10&#45;&gt;Node12</title>
<path fill="none" stroke="midnightblue" d="M631.812,-202.846C658.256,-191.335 694.797,-175.429 723.223,-163.056"/>
<polygon fill="midnightblue" stroke="midnightblue" points="724.753,-166.207 732.525,-159.007 721.959,-159.789 724.753,-166.207"/>
</g>
<!-- Node11&#45;&gt;Node3 -->
<g id="edge14" class="edge"><title>Node11&#45;&gt;Node3</title>
<path fill="none" stroke="midnightblue" d="M786.384,-198.433C809.62,-185.645 851.383,-162.662 881.645,-146.007"/>
<polygon fill="midnightblue" stroke="midnightblue" points="883.561,-148.948 890.635,-141.06 880.186,-142.815 883.561,-148.948"/>
</g>
<!-- Node11&#45;&gt;Node4 -->
<g id="edge12" class="edge"><title>Node11&#45;&gt;Node4</title>
<path fill="none" stroke="midnightblue" d="M830.02,-207.404C881.193,-206.904 954.226,-206.19 1007.41,-205.67"/>
<polygon fill="midnightblue" stroke="midnightblue" points="1007.47,-209.17 1017.44,-205.572 1007.4,-202.17 1007.47,-209.17"/>
</g>
<!-- Node11&#45;&gt;Node5 -->
<g id="edge13" class="edge"><title>Node11&#45;&gt;Node5</title>
<path fill="none" stroke="midnightblue" d="M830.02,-198.658C880.043,-191 950.955,-180.144 1003.8,-172.054"/>
<polygon fill="midnightblue" stroke="midnightblue" points="1004.42,-175.499 1013.78,-170.526 1003.37,-168.579 1004.42,-175.499"/>
</g>
<!-- Node11&#45;&gt;Node6 -->
<g id="edge15" class="edge"><title>Node11&#45;&gt;Node6</title>
<path fill="none" stroke="midnightblue" d="M801.77,-217.527C868.461,-235.267 1023.98,-268.171 1146,-229 1173.97,-220.022 1200.69,-199.44 1218.63,-183.257"/>
<polygon fill="midnightblue" stroke="midnightblue" points="1221.29,-185.562 1226.23,-176.188 1216.53,-180.437 1221.29,-185.562"/>
</g>
<!-- Node14 -->
<g id="node14" class="node"><title>Node14</title>
<g id="a_node14"><a xlink:href="classVoxel_1_1SerializedObject.xhtml#a28bffcfa230e90768ea678269a782381" target="_top" xlink:title="Voxel::SerializedObject\l::resize">
<polygon fill="none" stroke="black" points="708.5,-250 708.5,-280 827.5,-280 827.5,-250 708.5,-250"/>
<text text-anchor="start" x="716.5" y="-268" font-family="Helvetica,sans-Serif" font-size="10.00">Voxel::SerializedObject</text>
<text text-anchor="middle" x="768" y="-257" font-family="Helvetica,sans-Serif" font-size="10.00">::resize</text>
</a>
</g>
</g>
<!-- Node13&#45;&gt;Node14 -->
<g id="edge18" class="edge"><title>Node13&#45;&gt;Node14</title>
<path fill="none" stroke="midnightblue" d="M670.082,-272.411C679.466,-271.694 689.049,-270.961 698.359,-270.249"/>
<polygon fill="midnightblue" stroke="midnightblue" points="698.628,-273.739 708.332,-269.486 698.094,-266.759 698.628,-273.739"/>
</g>
<!-- Node15 -->
<g id="node15" class="node"><title>Node15</title>
<g id="a_node15"><a xlink:href="classVoxel_1_1SerializedObject.xhtml#aac0058e6b0ea0cb6ac86f4e986f6de25" target="_top" xlink:title="Voxel::SerializedObject\l::getBytes">
<polygon fill="none" stroke="black" points="708.5,-299 708.5,-329 827.5,-329 827.5,-299 708.5,-299"/>
<text text-anchor="start" x="716.5" y="-317" font-family="Helvetica,sans-Serif" font-size="10.00">Voxel::SerializedObject</text>
<text text-anchor="middle" x="768" y="-306" font-family="Helvetica,sans-Serif" font-size="10.00">::getBytes</text>
</a>
</g>
</g>
<!-- Node13&#45;&gt;Node15 -->
<g id="edge19" class="edge"><title>Node13&#45;&gt;Node15</title>
<path fill="none" stroke="midnightblue" d="M668.11,-293.059C678.141,-295.183 688.438,-297.363 698.42,-299.477"/>
<polygon fill="midnightblue" stroke="midnightblue" points="697.768,-302.917 708.276,-301.564 699.218,-296.069 697.768,-302.917"/>
</g>
</g>
</svg>
        <g id="navigator" transform="translate(0 0)" fill="#404254">
                <rect fill="#f2f5e9" fill-opacity="0.5" stroke="#606060" stroke-width=".5" x="0" y="0" width="60" height="60"/>
                <use id="zoomplus" xlink:href="#zoomPlus" x="17" y="9" onmousedown="handleZoom(evt,'in')"/>
                <use id="zoomminus" xlink:href="#zoomMin" x="42" y="9" onmousedown="handleZoom(evt,'out')"/>
                <use id="reset" xlink:href="#resetDef" x="30" y="36" onmousedown="handleReset()"/>
                <g id="arrowUp" xlink:href="#dirArrow" transform="translate(30 24)" onmousedown="handlePan(0,-1)">
                  <use xlink:href="#rim" fill="#404040">
                        <set attributeName="fill" to="#808080" begin="arrowUp.mouseover" end="arrowUp.mouseout"/>
                  </use>
                  <path fill="none" stroke="white" stroke-width="1.5" d="M0,-3.0v7 M-2.5,-0.5L0,-3.0L2.5,-0.5"/>
                </g>
                <g id="arrowRight" xlink:href="#dirArrow" transform="rotate(90) translate(36 -43)" onmousedown="handlePan(1,0)">
                  <use xlink:href="#rim" fill="#404040">
                        <set attributeName="fill" to="#808080" begin="arrowRight.mouseover" end="arrowRight.mouseout"/>
                  </use>
                  <path fill="none" stroke="white" stroke-width="1.5" d="M0,-3.0v7 M-2.5,-0.5L0,-3.0L2.5,-0.5"/>
                </g>
                <g id="arrowDown" xlink:href="#dirArrow" transform="rotate(180) translate(-30 -48)" onmousedown="handlePan(0,1)">
                  <use xlink:href="#rim" fill="#404040">
                        <set attributeName="fill" to="#808080" begin="arrowDown.mouseover" end="arrowDown.mouseout"/>
                  </use>
                  <path fill="none" stroke="white" stroke-width="1.5" d="M0,-3.0v7 M-2.5,-0.5L0,-3.0L2.5,-0.5"/>
                </g>
                <g id="arrowLeft" xlink:href="#dirArrow" transform="rotate(270) translate(-36 17)" onmousedown="handlePan(-1,0)">
                  <use xlink:href="#rim" fill="#404040">
                        <set attributeName="fill" to="#808080" begin="arrowLeft.mouseover" end="arrowLeft.mouseout"/>
                  </use>
                  <path fill="none" stroke="white" stroke-width="1.5" d="M0,-3.0v7 M-2.5,-0.5L0,-3.0L2.5,-0.5"/>
                </g>
        </g>
        <svg viewBox="0 0 15 15" width="100%" height="30px" preserveAspectRatio="xMaxYMin meet">
         <g id="arrow_out" transform="scale(0.3 0.3)">
          <a xlink:href="classVoxel_1_1FrameStreamReader_abc6eb2a299b0990a73b970d93c4bfed7_cgraph_org.svg" target="_base">
           <rect id="button" ry="5" rx="5" y="6" x="6" height="38" width="38"
                fill="#f2f5e9" fill-opacity="0.5" stroke="#606060" stroke-width="1.0"/>
           <path id="arrow"
             d="M 11.500037,31.436501 C 11.940474,20.09759 22.043105,11.32322 32.158766,21.979434 L 37.068811,17.246167 C 37.068811,17.246167 37.088388,32 37.088388,32 L 22.160133,31.978069 C 22.160133,31.978069 26.997745,27.140456 26.997745,27.140456 C 18.528582,18.264221 13.291696,25.230495 11.500037,31.436501 z"
             style="fill:#404040;"/>
          </a>
         </g>
        </svg>
</svg>
