<?xml version="1.0" encoding="UTF-8" standalone="no"?>
<!DOCTYPE svg PUBLIC "-//W3C//DTD SVG 1.1//EN"
 "http://www.w3.org/Graphics/SVG/1.1/DTD/svg11.dtd">
<!-- Generated by graphviz version 2.36.0 (20140111.2315)
 -->
<!-- Title: Voxel::TI::CalculusIntegDutyCycle::set Pages: 1 -->
<svg width="650pt" height="116pt"
 viewBox="0.00 0.00 650.00 116.00" xmlns="http://www.w3.org/2000/svg" xmlns:xlink="http://www.w3.org/1999/xlink">
<g id="graph0" class="graph" transform="scale(1 1) rotate(0) translate(4 112)">
<title>Voxel::TI::CalculusIntegDutyCycle::set</title>
<!-- Node1 -->
<g id="node1" class="node"><title>Node1</title>
<polygon fill="#bfbfbf" stroke="black" points="0,-38 0,-68 122,-68 122,-38 0,-38"/>
<text text-anchor="start" x="8" y="-56" font-family="Helvetica,sans-Serif" font-size="10.00">Voxel::TI::CalculusInteg</text>
<text text-anchor="middle" x="61" y="-45" font-family="Helvetica,sans-Serif" font-size="10.00">DutyCycle::set</text>
</g>
<!-- Node2 -->
<g id="node2" class="node"><title>Node2</title>
<g id="a_node2"><a xlink:href="classVoxel_1_1TI_1_1ToFCalculusCamera.xhtml#a8ec2cf6b38e17f982d3f12233c05e653" target="_top" xlink:title="Voxel::TI::ToFCalculusCamera\l::_updateEasyConf">
<polygon fill="none" stroke="black" points="158,-38 158,-68 310,-68 310,-38 158,-38"/>
<text text-anchor="start" x="166" y="-56" font-family="Helvetica,sans-Serif" font-size="10.00">Voxel::TI::ToFCalculusCamera</text>
<text text-anchor="middle" x="234" y="-45" font-family="Helvetica,sans-Serif" font-size="10.00">::_updateEasyConf</text>
</a>
</g>
</g>
<!-- Node1&#45;&gt;Node2 -->
<g id="edge1" class="edge"><title>Node1&#45;&gt;Node2</title>
<path fill="none" stroke="midnightblue" d="M122.288,-53C130.582,-53 139.223,-53 147.859,-53"/>
<polygon fill="midnightblue" stroke="midnightblue" points="147.974,-56.5001 157.974,-53 147.974,-49.5001 147.974,-56.5001"/>
</g>
<!-- Node3 -->
<g id="node3" class="node"><title>Node3</title>
<g id="a_node3"><a xlink:href="classVoxel_1_1DepthCamera.xhtml#ac850b3829f41e647686610c283197ea6" target="_top" xlink:title="Voxel::DepthCamera\l::_get">
<polygon fill="none" stroke="black" points="346,-63 346,-93 454,-93 454,-63 346,-63"/>
<text text-anchor="start" x="354" y="-81" font-family="Helvetica,sans-Serif" font-size="10.00">Voxel::DepthCamera</text>
<text text-anchor="middle" x="400" y="-70" font-family="Helvetica,sans-Serif" font-size="10.00">::_get</text>
</a>
</g>
</g>
<!-- Node2&#45;&gt;Node3 -->
<g id="edge2" class="edge"><title>Node2&#45;&gt;Node3</title>
<path fill="none" stroke="midnightblue" d="M310.28,-64.4756C318.781,-65.7715 327.379,-67.0821 335.705,-68.3513"/>
<polygon fill="midnightblue" stroke="midnightblue" points="335.288,-71.8281 345.701,-69.8751 336.342,-64.908 335.288,-71.8281"/>
</g>
<!-- Node6 -->
<g id="node6" class="node"><title>Node6</title>
<g id="a_node6"><a xlink:href="classVoxel_1_1DepthCamera.xhtml#a474dfafecfd8b2a97a924aeab8a82a3c" target="_top" xlink:title="Voxel::DepthCamera\l::_set">
<polygon fill="none" stroke="black" points="346,-14 346,-44 454,-44 454,-14 346,-14"/>
<text text-anchor="start" x="354" y="-32" font-family="Helvetica,sans-Serif" font-size="10.00">Voxel::DepthCamera</text>
<text text-anchor="middle" x="400" y="-21" font-family="Helvetica,sans-Serif" font-size="10.00">::_set</text>
</a>
</g>
</g>
<!-- Node2&#45;&gt;Node6 -->
<g id="edge5" class="edge"><title>Node2&#45;&gt;Node6</title>
<path fill="none" stroke="midnightblue" d="M310.28,-41.9834C318.781,-40.7394 327.379,-39.4812 335.705,-38.2628"/>
<polygon fill="midnightblue" stroke="midnightblue" points="336.313,-41.7111 345.701,-36.7999 335.299,-34.7848 336.313,-41.7111"/>
</g>
<!-- Node4 -->
<g id="node4" class="node"><title>Node4</title>
<g id="a_node4"><a xlink:href="classVoxel_1_1ParameterTemplate.xhtml#afa8896eaffbd2b87d1482c0967a0fe1d" target="_top" xlink:title="Voxel::ParameterTemplate::get">
<polygon fill="none" stroke="black" points="490,-88.5 490,-107.5 642,-107.5 642,-88.5 490,-88.5"/>
<text text-anchor="middle" x="566" y="-95.5" font-family="Helvetica,sans-Serif" font-size="10.00">Voxel::ParameterTemplate::get</text>
</a>
</g>
</g>
<!-- Node3&#45;&gt;Node4 -->
<g id="edge3" class="edge"><title>Node3&#45;&gt;Node4</title>
<path fill="none" stroke="midnightblue" d="M454.246,-84.4934C462.447,-85.4936 471.088,-86.5473 479.777,-87.607"/>
<polygon fill="midnightblue" stroke="midnightblue" points="479.626,-91.1144 489.976,-88.8508 480.473,-84.1659 479.626,-91.1144"/>
</g>
<!-- Node5 -->
<g id="node5" class="node"><title>Node5</title>
<g id="a_node5"><a xlink:href="classVoxel_1_1DepthCamera.xhtml#ae3d6fcc6d4a20d1ad2de809ad65ecc34" target="_top" xlink:title="Voxel::DepthCamera\l::name">
<polygon fill="none" stroke="black" points="512,-39 512,-69 620,-69 620,-39 512,-39"/>
<text text-anchor="start" x="520" y="-57" font-family="Helvetica,sans-Serif" font-size="10.00">Voxel::DepthCamera</text>
<text text-anchor="middle" x="566" y="-46" font-family="Helvetica,sans-Serif" font-size="10.00">::name</text>
</a>
</g>
</g>
<!-- Node3&#45;&gt;Node5 -->
<g id="edge4" class="edge"><title>Node3&#45;&gt;Node5</title>
<path fill="none" stroke="midnightblue" d="M454.246,-70.2079C469.361,-67.996 485.967,-65.5658 501.619,-63.2753"/>
<polygon fill="midnightblue" stroke="midnightblue" points="502.353,-66.7052 511.741,-61.7941 501.339,-59.779 502.353,-66.7052"/>
</g>
<!-- Node6&#45;&gt;Node5 -->
<g id="edge6" class="edge"><title>Node6&#45;&gt;Node5</title>
<path fill="none" stroke="midnightblue" d="M454.246,-37.1168C469.361,-39.4208 485.967,-41.9523 501.619,-44.3382"/>
<polygon fill="midnightblue" stroke="midnightblue" points="501.327,-47.8342 511.741,-45.8812 502.382,-40.9141 501.327,-47.8342"/>
</g>
<!-- Node7 -->
<g id="node7" class="node"><title>Node7</title>
<g id="a_node7"><a xlink:href="classVoxel_1_1ParameterTemplate.xhtml#a64240b607339f55c4fac973fba8c8934" target="_top" xlink:title="Voxel::ParameterTemplate::set">
<polygon fill="none" stroke="black" points="490,-0.5 490,-19.5 642,-19.5 642,-0.5 490,-0.5"/>
<text text-anchor="middle" x="566" y="-7.5" font-family="Helvetica,sans-Serif" font-size="10.00">Voxel::ParameterTemplate::set</text>
</a>
</g>
</g>
<!-- Node6&#45;&gt;Node7 -->
<g id="edge7" class="edge"><title>Node6&#45;&gt;Node7</title>
<path fill="none" stroke="midnightblue" d="M454.246,-22.8312C462.447,-21.8811 471.088,-20.88 479.777,-19.8734"/>
<polygon fill="midnightblue" stroke="midnightblue" points="480.445,-23.3195 489.976,-18.6918 479.64,-16.366 480.445,-23.3195"/>
</g>
</g>
</svg>
