<?xml version="1.0" encoding="UTF-8" standalone="no"?>
<!DOCTYPE svg PUBLIC "-//W3C//DTD SVG 1.1//EN"
 "http://www.w3.org/Graphics/SVG/1.1/DTD/svg11.dtd">
<!-- Generated by graphviz version 2.36.0 (20140111.2315)
 -->
<!-- Title: Voxel::Device::id Pages: 1 -->
<svg width="454pt" height="61pt"
 viewBox="0.00 0.00 454.00 61.00" xmlns="http://www.w3.org/2000/svg" xmlns:xlink="http://www.w3.org/1999/xlink">
<g id="graph0" class="graph" transform="scale(1 1) rotate(0) translate(4 57)">
<title>Voxel::Device::id</title>
<!-- Node1 -->
<g id="node1" class="node"><title>Node1</title>
<polygon fill="#bfbfbf" stroke="black" points="0,-6.5 0,-25.5 92,-25.5 92,-6.5 0,-6.5"/>
<text text-anchor="middle" x="46" y="-13.5" font-family="Helvetica,sans-Serif" font-size="10.00">Voxel::Device::id</text>
</g>
<!-- Node2 -->
<g id="node2" class="node"><title>Node2</title>
<g id="a_node2"><a xlink:href="classVoxel_1_1USBSystemPrivate.xhtml#a0a4343643663e5cb000014b35bec5802" target="_top" xlink:title="This does not look at the channel to determine which channel to use. ">
<polygon fill="none" stroke="black" points="128.5,-23 128.5,-53 261.5,-53 261.5,-23 128.5,-23"/>
<text text-anchor="start" x="136.5" y="-41" font-family="Helvetica,sans-Serif" font-size="10.00">Voxel::USBSystemPrivate</text>
<text text-anchor="middle" x="195" y="-30" font-family="Helvetica,sans-Serif" font-size="10.00">::getDeviceHandle</text>
</a>
</g>
</g>
<!-- Node1&#45;&gt;Node2 -->
<g id="edge1" class="edge"><title>Node1&#45;&gt;Node2</title>
<path fill="none" stroke="midnightblue" d="M102.414,-24.2933C110.868,-25.5585 119.662,-26.8746 128.31,-28.1689"/>
<polygon fill="midnightblue" stroke="midnightblue" points="102.712,-20.799 92.3043,-22.7802 101.676,-27.7219 102.712,-20.799"/>
</g>
<!-- Node3 -->
<g id="node3" class="node"><title>Node3</title>
<g id="a_node3"><a xlink:href="classVoxel_1_1USBIO_1_1USBIOPrivate.xhtml#a72862681db5fbc61c173f711b60e76f3" target="_top" xlink:title="Voxel::USBIO::USBIOPrivate\l::USBIOPrivate">
<polygon fill="none" stroke="black" points="298.5,-1 298.5,-31 445.5,-31 445.5,-1 298.5,-1"/>
<text text-anchor="start" x="306.5" y="-19" font-family="Helvetica,sans-Serif" font-size="10.00">Voxel::USBIO::USBIOPrivate</text>
<text text-anchor="middle" x="372" y="-8" font-family="Helvetica,sans-Serif" font-size="10.00">::USBIOPrivate</text>
</a>
</g>
</g>
<!-- Node1&#45;&gt;Node3 -->
<g id="edge3" class="edge"><title>Node1&#45;&gt;Node3</title>
<path fill="none" stroke="midnightblue" d="M102.64,-14.445C111.134,-14.2601 119.8,-14.1012 128,-14 187.551,-13.2649 202.447,-13.4537 262,-14 273.734,-14.1076 286.178,-14.2805 298.299,-14.4806"/>
<polygon fill="midnightblue" stroke="midnightblue" points="102.324,-10.9513 92.4071,-14.6815 102.485,-17.9494 102.324,-10.9513"/>
</g>
<!-- Node2&#45;&gt;Node3 -->
<g id="edge2" class="edge"><title>Node2&#45;&gt;Node3</title>
<path fill="none" stroke="midnightblue" d="M271.843,-28.4655C280.596,-27.3651 289.507,-26.2448 298.219,-25.1497"/>
<polygon fill="midnightblue" stroke="midnightblue" points="271.147,-25.0253 261.661,-29.7454 272.02,-31.9707 271.147,-25.0253"/>
</g>
</g>
</svg>
