<?xml version="1.0" encoding="UTF-8" standalone="no"?>
<!DOCTYPE svg PUBLIC "-//W3C//DTD SVG 1.1//EN"
 "http://www.w3.org/Graphics/SVG/1.1/DTD/svg11.dtd">
<!-- Generated by graphviz version 2.36.0 (20140111.2315)
 -->
<!-- Title: TinyXML2::XMLDocument::Error Pages: 1 -->
<!--zoomable 260 -->
<svg id="main" version="1.1" xmlns="http://www.w3.org/2000/svg" xmlns:xlink="http://www.w3.org/1999/xlink" xml:space="preserve" onload="init(evt)">
<style type="text/css"><![CDATA[
.edge:hover path { stroke: red; }
.edge:hover polygon { stroke: red; fill: red; }
]]></style>
<script type="text/javascript"><![CDATA[
var edges = document.getElementsByTagName('g');
if (edges && edges.length) {
  for (var i=0;i<edges.length;i++) {
    if (edges[i].id.substr(0,4)=='edge') {
      edges[i].setAttribute('class','edge');
    }
  }
}
]]></script>
        <defs>
                <circle id="rim" cx="0" cy="0" r="7"/>
                <circle id="rim2" cx="0" cy="0" r="3.5"/>
                <g id="zoomPlus">
                        <use xlink:href="#rim" fill="#404040">
                                <set attributeName="fill" to="#808080" begin="zoomplus.mouseover" end="zoomplus.mouseout"/>
                        </use>
                        <path d="M-4,0h8M0,-4v8" fill="none" stroke="white" stroke-width="1.5" pointer-events="none"/>
                </g>
                <g id="zoomMin">
                        <use xlink:href="#rim" fill="#404040">
                                <set attributeName="fill" to="#808080" begin="zoomminus.mouseover" end="zoomminus.mouseout"/>
                        </use>
                        <path d="M-4,0h8" fill="none" stroke="white" stroke-width="1.5" pointer-events="none"/>
                </g>
                <g id="dirArrow">
                        <path fill="none" stroke="white" stroke-width="1.5" d="M0,-3.0v7 M-2.5,-0.5L0,-3.0L2.5,-0.5"/>
                </g>
               <g id="resetDef">
                       <use xlink:href="#rim2" fill="#404040">
                               <set attributeName="fill" to="#808080" begin="reset.mouseover" end="reset.mouseout"/>
                       </use>
               </g>
        </defs>

<script type="text/javascript">
var viewWidth = 654;
var viewHeight = 260;
var sectionId = 'dynsection-8';
</script>
<script xlink:href="svgpan.js"/>
<svg id="graph" class="graph">
<g id="viewport">
<title>TinyXML2::XMLDocument::Error</title>
<!-- Node1 -->
<g id="node1" class="node"><title>Node1</title>
<polygon fill="#bfbfbf" stroke="black" points="0,-111 0,-141 132,-141 132,-111 0,-111"/>
<text text-anchor="start" x="8" y="-129" font-family="Helvetica,sans-Serif" font-size="10.00">TinyXML2::XMLDocument</text>
<text text-anchor="middle" x="66" y="-118" font-family="Helvetica,sans-Serif" font-size="10.00">::Error</text>
</g>
<!-- Node2 -->
<g id="node2" class="node"><title>Node2</title>
<g id="a_node2"><a xlink:href="classTinyXML2_1_1XMLDocument.xhtml#a20554f58b1fbdc5a5e4986ca59126837" target="_top" xlink:title="Clear the document, resetting it to the initial state. ">
<polygon fill="none" stroke="black" points="168,-155 168,-185 300,-185 300,-155 168,-155"/>
<text text-anchor="start" x="176" y="-173" font-family="Helvetica,sans-Serif" font-size="10.00">TinyXML2::XMLDocument</text>
<text text-anchor="middle" x="234" y="-162" font-family="Helvetica,sans-Serif" font-size="10.00">::Clear</text>
</a>
</g>
</g>
<!-- Node1&#45;&gt;Node2 -->
<g id="edge1" class="edge"><title>Node1&#45;&gt;Node2</title>
<path fill="none" stroke="midnightblue" d="M133.378,-143.594C147.598,-147.363 162.496,-151.312 176.31,-154.974"/>
<polygon fill="midnightblue" stroke="midnightblue" points="134.226,-140.198 123.663,-141.019 132.433,-146.965 134.226,-140.198"/>
</g>
<!-- Node4 -->
<g id="node4" class="node"><title>Node4</title>
<g id="a_node4"><a xlink:href="classVoxel_1_1ParameterDMLParser.xhtml#ad7b846eaea75affd17c95cbbf860f80a" target="_top" xlink:title="Voxel::ParameterDMLParser\l::ParameterDMLParser">
<polygon fill="none" stroke="black" points="504,-222 504,-252 646,-252 646,-222 504,-222"/>
<text text-anchor="start" x="512" y="-240" font-family="Helvetica,sans-Serif" font-size="10.00">Voxel::ParameterDMLParser</text>
<text text-anchor="middle" x="575" y="-229" font-family="Helvetica,sans-Serif" font-size="10.00">::ParameterDMLParser</text>
</a>
</g>
</g>
<!-- Node1&#45;&gt;Node4 -->
<g id="edge6" class="edge"><title>Node1&#45;&gt;Node4</title>
<path fill="none" stroke="midnightblue" d="M93.3615,-147.326C112.942,-162.246 140.85,-181.642 168,-194 290.712,-249.853 333.181,-240.272 468,-239 479.595,-238.891 491.903,-238.714 503.871,-238.51"/>
<polygon fill="midnightblue" stroke="midnightblue" points="95.293,-144.395 85.2454,-141.034 91.004,-149.927 95.293,-144.395"/>
</g>
<!-- Node5 -->
<g id="node5" class="node"><title>Node5</title>
<g id="a_node5"><a xlink:href="classTinyXML2_1_1XMLDocument.xhtml#a2734f0824ea57c5c26f61b4f3ff2514a" target="_top" xlink:title="TinyXML2::XMLDocument\l::Parse">
<polygon fill="none" stroke="black" points="336,-102 336,-132 468,-132 468,-102 336,-102"/>
<text text-anchor="start" x="344" y="-120" font-family="Helvetica,sans-Serif" font-size="10.00">TinyXML2::XMLDocument</text>
<text text-anchor="middle" x="402" y="-109" font-family="Helvetica,sans-Serif" font-size="10.00">::Parse</text>
</a>
</g>
</g>
<!-- Node1&#45;&gt;Node5 -->
<g id="edge7" class="edge"><title>Node1&#45;&gt;Node5</title>
<path fill="none" stroke="midnightblue" d="M142.444,-123.967C200.712,-122.397 280.503,-120.247 335.973,-118.752"/>
<polygon fill="midnightblue" stroke="midnightblue" points="142.094,-120.475 132.191,-124.243 142.282,-127.473 142.094,-120.475"/>
</g>
<!-- Node7 -->
<g id="node7" class="node"><title>Node7</title>
<g id="a_node7"><a xlink:href="classTinyXML2_1_1XMLNode.xhtml#a666a962d4e7ce40fad31a0d273659176" target="_top" xlink:title="TinyXML2::XMLNode::\lParseDeep">
<polygon fill="none" stroke="black" points="176,-49 176,-79 292,-79 292,-49 176,-49"/>
<text text-anchor="start" x="184" y="-67" font-family="Helvetica,sans-Serif" font-size="10.00">TinyXML2::XMLNode::</text>
<text text-anchor="middle" x="234" y="-56" font-family="Helvetica,sans-Serif" font-size="10.00">ParseDeep</text>
</a>
</g>
</g>
<!-- Node1&#45;&gt;Node7 -->
<g id="edge8" class="edge"><title>Node1&#45;&gt;Node7</title>
<path fill="none" stroke="midnightblue" d="M116.583,-107.481C140.855,-98.4156 169.704,-87.6408 192.611,-79.0851"/>
<polygon fill="midnightblue" stroke="midnightblue" points="115.327,-104.214 107.184,-110.992 117.777,-110.771 115.327,-104.214"/>
</g>
<!-- Node10 -->
<g id="node10" class="node"><title>Node10</title>
<g id="a_node10"><a xlink:href="classTinyXML2_1_1XMLDocument.xhtml#a358e6212710ba0ab608aec8f8b4aa999" target="_top" xlink:title="If there is an error, print it to stdout. ">
<polygon fill="none" stroke="black" points="168,-0 168,-30 300,-30 300,-0 168,-0"/>
<text text-anchor="start" x="176" y="-18" font-family="Helvetica,sans-Serif" font-size="10.00">TinyXML2::XMLDocument</text>
<text text-anchor="middle" x="234" y="-7" font-family="Helvetica,sans-Serif" font-size="10.00">::PrintError</text>
</a>
</g>
</g>
<!-- Node1&#45;&gt;Node10 -->
<g id="edge13" class="edge"><title>Node1&#45;&gt;Node10</title>
<path fill="none" stroke="midnightblue" d="M88.1807,-103.707C107.482,-84.4401 137.546,-56.9411 168,-39 173.597,-35.7028 179.725,-32.7287 185.91,-30.0881"/>
<polygon fill="midnightblue" stroke="midnightblue" points="85.615,-101.324 81.0878,-110.903 90.6004,-106.238 85.615,-101.324"/>
</g>
<!-- Node3 -->
<g id="node3" class="node"><title>Node3</title>
<g id="a_node3"><a xlink:href="classTinyXML2_1_1XMLDocument.xhtml#a6665d0d689e8b8290a0cd6d8f340c19d" target="_top" xlink:title="TinyXML2::XMLDocument\l::LoadFile">
<polygon fill="none" stroke="black" points="336,-200 336,-230 468,-230 468,-200 336,-200"/>
<text text-anchor="start" x="344" y="-218" font-family="Helvetica,sans-Serif" font-size="10.00">TinyXML2::XMLDocument</text>
<text text-anchor="middle" x="402" y="-207" font-family="Helvetica,sans-Serif" font-size="10.00">::LoadFile</text>
</a>
</g>
</g>
<!-- Node2&#45;&gt;Node3 -->
<g id="edge2" class="edge"><title>Node2&#45;&gt;Node3</title>
<path fill="none" stroke="midnightblue" d="M300.389,-187.726C315.283,-191.763 330.97,-196.016 345.41,-199.93"/>
<polygon fill="midnightblue" stroke="midnightblue" points="301.305,-184.348 290.737,-185.11 299.473,-191.104 301.305,-184.348"/>
</g>
<!-- Node2&#45;&gt;Node5 -->
<g id="edge4" class="edge"><title>Node2&#45;&gt;Node5</title>
<path fill="none" stroke="midnightblue" d="M291.82,-151.859C311.995,-145.417 334.469,-138.242 353.757,-132.084"/>
<polygon fill="midnightblue" stroke="midnightblue" points="290.587,-148.578 282.125,-154.954 292.716,-155.247 290.587,-148.578"/>
</g>
<!-- Node6 -->
<g id="node6" class="node"><title>Node6</title>
<g id="a_node6"><a xlink:href="classTinyXML2_1_1XMLDocument.xhtml#a6f714d611df15326a1ff41e31a39490d" target="_top" xlink:title="TinyXML2::XMLDocument\l::~XMLDocument">
<polygon fill="none" stroke="black" points="336,-151 336,-181 468,-181 468,-151 336,-151"/>
<text text-anchor="start" x="344" y="-169" font-family="Helvetica,sans-Serif" font-size="10.00">TinyXML2::XMLDocument</text>
<text text-anchor="middle" x="402" y="-158" font-family="Helvetica,sans-Serif" font-size="10.00">::~XMLDocument</text>
</a>
</g>
</g>
<!-- Node2&#45;&gt;Node6 -->
<g id="edge5" class="edge"><title>Node2&#45;&gt;Node6</title>
<path fill="none" stroke="midnightblue" d="M310.393,-168.183C318.869,-167.979 327.452,-167.772 335.784,-167.571"/>
<polygon fill="midnightblue" stroke="midnightblue" points="310.044,-164.691 300.131,-168.431 310.213,-171.689 310.044,-164.691"/>
</g>
<!-- Node3&#45;&gt;Node4 -->
<g id="edge3" class="edge"><title>Node3&#45;&gt;Node4</title>
<path fill="none" stroke="midnightblue" d="M478.118,-224.664C486.694,-225.768 495.412,-226.889 503.92,-227.984"/>
<polygon fill="midnightblue" stroke="midnightblue" points="478.5,-221.185 468.136,-223.38 477.607,-228.128 478.5,-221.185"/>
</g>
<!-- Node7&#45;&gt;Node5 -->
<g id="edge10" class="edge"><title>Node7&#45;&gt;Node5</title>
<path fill="none" stroke="midnightblue" d="M291.82,-82.1414C311.995,-88.5827 334.469,-95.7581 353.757,-101.916"/>
<polygon fill="midnightblue" stroke="midnightblue" points="292.716,-78.7533 282.125,-79.0459 290.587,-85.4217 292.716,-78.7533"/>
</g>
<!-- Node7&#45;&gt;Node7 -->
<g id="edge11" class="edge"><title>Node7&#45;&gt;Node7</title>
<path fill="none" stroke="midnightblue" d="M204.594,-89.5975C208.612,-93.9704 218.414,-97 234,-97 260.25,-97 270.094,-88.4062 263.531,-79.2754"/>
<polygon fill="midnightblue" stroke="midnightblue" points="208.09,-89.2323 204.469,-79.2754 201.09,-89.3171 208.09,-89.2323"/>
</g>
<!-- Node8 -->
<g id="node8" class="node"><title>Node8</title>
<g id="a_node8"><a xlink:href="classTinyXML2_1_1XMLDocument.xhtml#a25c1fd4903914444fc31fb1b90dcffdb" target="_top" xlink:title="TinyXML2::XMLDocument\l::LoadFile">
<polygon fill="none" stroke="black" points="336,-51 336,-81 468,-81 468,-51 336,-51"/>
<text text-anchor="start" x="344" y="-69" font-family="Helvetica,sans-Serif" font-size="10.00">TinyXML2::XMLDocument</text>
<text text-anchor="middle" x="402" y="-58" font-family="Helvetica,sans-Serif" font-size="10.00">::LoadFile</text>
</a>
</g>
</g>
<!-- Node7&#45;&gt;Node8 -->
<g id="edge9" class="edge"><title>Node7&#45;&gt;Node8</title>
<path fill="none" stroke="midnightblue" d="M302.177,-64.8094C313.265,-64.943 324.744,-65.0813 335.783,-65.2143"/>
<polygon fill="midnightblue" stroke="midnightblue" points="302.169,-61.3091 292.128,-64.6883 302.085,-68.3086 302.169,-61.3091"/>
</g>
<!-- Node9 -->
<g id="node9" class="node"><title>Node9</title>
<g id="a_node9"><a xlink:href="classTinyXML2_1_1XMLElement.xhtml#a1f37b0bb41320c4121515755b8a057a4" target="_top" xlink:title="TinyXML2::XMLElement\l::ParseDeep">
<polygon fill="none" stroke="black" points="340.5,-2 340.5,-32 463.5,-32 463.5,-2 340.5,-2"/>
<text text-anchor="start" x="348.5" y="-20" font-family="Helvetica,sans-Serif" font-size="10.00">TinyXML2::XMLElement</text>
<text text-anchor="middle" x="402" y="-9" font-family="Helvetica,sans-Serif" font-size="10.00">::ParseDeep</text>
</a>
</g>
</g>
<!-- Node7&#45;&gt;Node9 -->
<g id="edge12" class="edge"><title>Node7&#45;&gt;Node9</title>
<path fill="none" stroke="midnightblue" d="M298.056,-46.1467C314.511,-41.4879 332.077,-36.5144 347.954,-32.019"/>
<polygon fill="midnightblue" stroke="midnightblue" points="296.648,-42.9078 287.98,-48.9997 298.555,-49.643 296.648,-42.9078"/>
</g>
</g>
</svg>
        <g id="navigator" transform="translate(0 0)" fill="#404254">
                <rect fill="#f2f5e9" fill-opacity="0.5" stroke="#606060" stroke-width=".5" x="0" y="0" width="60" height="60"/>
                <use id="zoomplus" xlink:href="#zoomPlus" x="17" y="9" onmousedown="handleZoom(evt,'in')"/>
                <use id="zoomminus" xlink:href="#zoomMin" x="42" y="9" onmousedown="handleZoom(evt,'out')"/>
                <use id="reset" xlink:href="#resetDef" x="30" y="36" onmousedown="handleReset()"/>
                <g id="arrowUp" xlink:href="#dirArrow" transform="translate(30 24)" onmousedown="handlePan(0,-1)">
                  <use xlink:href="#rim" fill="#404040">
                        <set attributeName="fill" to="#808080" begin="arrowUp.mouseover" end="arrowUp.mouseout"/>
                  </use>
                  <path fill="none" stroke="white" stroke-width="1.5" d="M0,-3.0v7 M-2.5,-0.5L0,-3.0L2.5,-0.5"/>
                </g>
                <g id="arrowRight" xlink:href="#dirArrow" transform="rotate(90) translate(36 -43)" onmousedown="handlePan(1,0)">
                  <use xlink:href="#rim" fill="#404040">
                        <set attributeName="fill" to="#808080" begin="arrowRight.mouseover" end="arrowRight.mouseout"/>
                  </use>
                  <path fill="none" stroke="white" stroke-width="1.5" d="M0,-3.0v7 M-2.5,-0.5L0,-3.0L2.5,-0.5"/>
                </g>
                <g id="arrowDown" xlink:href="#dirArrow" transform="rotate(180) translate(-30 -48)" onmousedown="handlePan(0,1)">
                  <use xlink:href="#rim" fill="#404040">
                        <set attributeName="fill" to="#808080" begin="arrowDown.mouseover" end="arrowDown.mouseout"/>
                  </use>
                  <path fill="none" stroke="white" stroke-width="1.5" d="M0,-3.0v7 M-2.5,-0.5L0,-3.0L2.5,-0.5"/>
                </g>
                <g id="arrowLeft" xlink:href="#dirArrow" transform="rotate(270) translate(-36 17)" onmousedown="handlePan(-1,0)">
                  <use xlink:href="#rim" fill="#404040">
                        <set attributeName="fill" to="#808080" begin="arrowLeft.mouseover" end="arrowLeft.mouseout"/>
                  </use>
                  <path fill="none" stroke="white" stroke-width="1.5" d="M0,-3.0v7 M-2.5,-0.5L0,-3.0L2.5,-0.5"/>
                </g>
        </g>
        <svg viewBox="0 0 15 15" width="100%" height="30px" preserveAspectRatio="xMaxYMin meet">
         <g id="arrow_out" transform="scale(0.3 0.3)">
          <a xlink:href="classTinyXML2_1_1XMLDocument_a8302f8ca7f1ed6dd2690e3875f968a32_icgraph_org.svg" target="_base">
           <rect id="button" ry="5" rx="5" y="6" x="6" height="38" width="38"
                fill="#f2f5e9" fill-opacity="0.5" stroke="#606060" stroke-width="1.0"/>
           <path id="arrow"
             d="M 11.500037,31.436501 C 11.940474,20.09759 22.043105,11.32322 32.158766,21.979434 L 37.068811,17.246167 C 37.068811,17.246167 37.088388,32 37.088388,32 L 22.160133,31.978069 C 22.160133,31.978069 26.997745,27.140456 26.997745,27.140456 C 18.528582,18.264221 13.291696,25.230495 11.500037,31.436501 z"
             style="fill:#404040;"/>
          </a>
         </g>
        </svg>
</svg>
