<?xml version="1.0" encoding="UTF-8" standalone="no"?>
<!DOCTYPE svg PUBLIC "-//W3C//DTD SVG 1.1//EN"
 "http://www.w3.org/Graphics/SVG/1.1/DTD/svg11.dtd">
<!-- Generated by graphviz version 2.36.0 (20140111.2315)
 -->
<!-- Title: Voxel::MainConfigurationFile::addCameraProfile Pages: 1 -->
<!--zoomable 238 -->
<svg id="main" version="1.1" xmlns="http://www.w3.org/2000/svg" xmlns:xlink="http://www.w3.org/1999/xlink" xml:space="preserve" onload="init(evt)">
<style type="text/css"><![CDATA[
.edge:hover path { stroke: red; }
.edge:hover polygon { stroke: red; fill: red; }
]]></style>
<script type="text/javascript"><![CDATA[
var edges = document.getElementsByTagName('g');
if (edges && edges.length) {
  for (var i=0;i<edges.length;i++) {
    if (edges[i].id.substr(0,4)=='edge') {
      edges[i].setAttribute('class','edge');
    }
  }
}
]]></script>
        <defs>
                <circle id="rim" cx="0" cy="0" r="7"/>
                <circle id="rim2" cx="0" cy="0" r="3.5"/>
                <g id="zoomPlus">
                        <use xlink:href="#rim" fill="#404040">
                                <set attributeName="fill" to="#808080" begin="zoomplus.mouseover" end="zoomplus.mouseout"/>
                        </use>
                        <path d="M-4,0h8M0,-4v8" fill="none" stroke="white" stroke-width="1.5" pointer-events="none"/>
                </g>
                <g id="zoomMin">
                        <use xlink:href="#rim" fill="#404040">
                                <set attributeName="fill" to="#808080" begin="zoomminus.mouseover" end="zoomminus.mouseout"/>
                        </use>
                        <path d="M-4,0h8" fill="none" stroke="white" stroke-width="1.5" pointer-events="none"/>
                </g>
                <g id="dirArrow">
                        <path fill="none" stroke="white" stroke-width="1.5" d="M0,-3.0v7 M-2.5,-0.5L0,-3.0L2.5,-0.5"/>
                </g>
               <g id="resetDef">
                       <use xlink:href="#rim2" fill="#404040">
                               <set attributeName="fill" to="#808080" begin="reset.mouseover" end="reset.mouseout"/>
                       </use>
               </g>
        </defs>

<script type="text/javascript">
var viewWidth = 1012;
var viewHeight = 238;
var sectionId = 'dynsection-7';
</script>
<script xlink:href="svgpan.js"/>
<svg id="graph" class="graph">
<g id="viewport">
<title>Voxel::MainConfigurationFile::addCameraProfile</title>
<!-- Node1 -->
<g id="node1" class="node"><title>Node1</title>
<polygon fill="#bfbfbf" stroke="black" points="0,-120 0,-150 126,-150 126,-120 0,-120"/>
<text text-anchor="start" x="8" y="-138" font-family="Helvetica,sans-Serif" font-size="10.00">Voxel::MainConfiguration</text>
<text text-anchor="middle" x="63" y="-127" font-family="Helvetica,sans-Serif" font-size="10.00">File::addCameraProfile</text>
</g>
<!-- Node2 -->
<g id="node2" class="node"><title>Node2</title>
<g id="a_node2"><a xlink:href="classVoxel_1_1MainConfigurationFile.xhtml#af80a0ee93926dcdae895f5ddccbc7418" target="_top" xlink:title="Voxel::MainConfiguration\lFile::_getNewCameraProfileID">
<polygon fill="none" stroke="black" points="163,-191 163,-221 313,-221 313,-191 163,-191"/>
<text text-anchor="start" x="171" y="-209" font-family="Helvetica,sans-Serif" font-size="10.00">Voxel::MainConfiguration</text>
<text text-anchor="middle" x="238" y="-198" font-family="Helvetica,sans-Serif" font-size="10.00">File::_getNewCameraProfileID</text>
</a>
</g>
</g>
<!-- Node1&#45;&gt;Node2 -->
<g id="edge1" class="edge"><title>Node1&#45;&gt;Node2</title>
<path fill="none" stroke="midnightblue" d="M93.6236,-150.014C112.86,-159.486 138.614,-171.651 162,-181 167.552,-183.219 173.386,-185.407 179.245,-187.51"/>
<polygon fill="midnightblue" stroke="midnightblue" points="178.491,-190.955 189.085,-190.96 180.806,-184.349 178.491,-190.955"/>
</g>
<!-- Node3 -->
<g id="node3" class="node"><title>Node3</title>
<g id="a_node3"><a xlink:href="classVoxel_1_1MainConfigurationFile.xhtml#ae2f3f66b632fa462d8b9f873f416f12b" target="_top" xlink:title="Voxel::MainConfiguration\lFile::_updateCameraProfileList">
<polygon fill="none" stroke="black" points="162.5,-142 162.5,-172 313.5,-172 313.5,-142 162.5,-142"/>
<text text-anchor="start" x="170.5" y="-160" font-family="Helvetica,sans-Serif" font-size="10.00">Voxel::MainConfiguration</text>
<text text-anchor="middle" x="238" y="-149" font-family="Helvetica,sans-Serif" font-size="10.00">File::_updateCameraProfileList</text>
</a>
</g>
</g>
<!-- Node1&#45;&gt;Node3 -->
<g id="edge2" class="edge"><title>Node1&#45;&gt;Node3</title>
<path fill="none" stroke="midnightblue" d="M126.457,-142.943C134.805,-144.004 143.477,-145.107 152.127,-146.207"/>
<polygon fill="midnightblue" stroke="midnightblue" points="151.89,-149.705 162.252,-147.494 152.773,-142.761 151.89,-149.705"/>
</g>
<!-- Node11 -->
<g id="node11" class="node"><title>Node11</title>
<g id="a_node11"><a xlink:href="classVoxel_1_1ConfigurationFile.xhtml#a978b37f6995656a3fd39a35e70867bf0" target="_top" xlink:title="Voxel::ConfigurationFile\l::write">
<polygon fill="none" stroke="black" points="359.5,-98 359.5,-128 480.5,-128 480.5,-98 359.5,-98"/>
<text text-anchor="start" x="367.5" y="-116" font-family="Helvetica,sans-Serif" font-size="10.00">Voxel::ConfigurationFile</text>
<text text-anchor="middle" x="420" y="-105" font-family="Helvetica,sans-Serif" font-size="10.00">::write</text>
</a>
</g>
</g>
<!-- Node1&#45;&gt;Node11 -->
<g id="edge17" class="edge"><title>Node1&#45;&gt;Node11</title>
<path fill="none" stroke="midnightblue" d="M126.243,-131.143C188.626,-127.277 284.473,-121.337 349.354,-117.316"/>
<polygon fill="midnightblue" stroke="midnightblue" points="349.727,-120.8 359.492,-116.688 349.294,-113.813 349.727,-120.8"/>
</g>
<!-- Node15 -->
<g id="node15" class="node"><title>Node15</title>
<g id="a_node15"><a xlink:href="classVoxel_1_1ConfigurationFile.xhtml#a64145f61597015135dd217be1adf9034" target="_top" xlink:title="Voxel::ConfigurationFile\l::ConfigurationFile">
<polygon fill="none" stroke="black" points="177.5,-54 177.5,-84 298.5,-84 298.5,-54 177.5,-54"/>
<text text-anchor="start" x="185.5" y="-72" font-family="Helvetica,sans-Serif" font-size="10.00">Voxel::ConfigurationFile</text>
<text text-anchor="middle" x="238" y="-61" font-family="Helvetica,sans-Serif" font-size="10.00">::ConfigurationFile</text>
</a>
</g>
</g>
<!-- Node1&#45;&gt;Node15 -->
<g id="edge16" class="edge"><title>Node1&#45;&gt;Node15</title>
<path fill="none" stroke="midnightblue" d="M103.69,-119.858C128.744,-110.3 161.297,-97.8811 187.962,-87.7081"/>
<polygon fill="midnightblue" stroke="midnightblue" points="189.399,-90.9059 197.495,-84.0713 186.904,-84.3657 189.399,-90.9059"/>
</g>
<!-- Node4 -->
<g id="node4" class="node"><title>Node4</title>
<g id="a_node4"><a xlink:href="group__Util.xhtml#gad19078fe2a67a3174aaa6b4ab8e49292" target="_top" xlink:title="Voxel::basename">
<polygon fill="none" stroke="black" points="541,-147.5 541,-166.5 633,-166.5 633,-147.5 541,-147.5"/>
<text text-anchor="middle" x="587" y="-154.5" font-family="Helvetica,sans-Serif" font-size="10.00">Voxel::basename</text>
</a>
</g>
</g>
<!-- Node3&#45;&gt;Node4 -->
<g id="edge3" class="edge"><title>Node3&#45;&gt;Node4</title>
<path fill="none" stroke="midnightblue" d="M313.867,-157C379.085,-157 472.148,-157 530.791,-157"/>
<polygon fill="midnightblue" stroke="midnightblue" points="530.969,-160.5 540.969,-157 530.969,-153.5 530.969,-160.5"/>
</g>
<!-- Node5 -->
<g id="node5" class="node"><title>Node5</title>
<g id="a_node5"><a xlink:href="classVoxel_1_1ConfigurationFile.xhtml#a440d9dd2f89d0c76c81f7285b31a5b94" target="_top" xlink:title="Voxel::ConfigurationFile::set">
<polygon fill="none" stroke="black" points="350,-191.5 350,-210.5 490,-210.5 490,-191.5 350,-191.5"/>
<text text-anchor="middle" x="420" y="-198.5" font-family="Helvetica,sans-Serif" font-size="10.00">Voxel::ConfigurationFile::set</text>
</a>
</g>
</g>
<!-- Node3&#45;&gt;Node5 -->
<g id="edge4" class="edge"><title>Node3&#45;&gt;Node5</title>
<path fill="none" stroke="midnightblue" d="M300.442,-172.019C323.214,-177.586 348.706,-183.817 370.201,-189.071"/>
<polygon fill="midnightblue" stroke="midnightblue" points="369.54,-192.513 380.086,-191.488 371.203,-185.713 369.54,-192.513"/>
</g>
<!-- Node3&#45;&gt;Node11 -->
<g id="edge11" class="edge"><title>Node3&#45;&gt;Node11</title>
<path fill="none" stroke="midnightblue" d="M300.442,-141.981C316.214,-138.125 333.291,-133.951 349.441,-130.003"/>
<polygon fill="midnightblue" stroke="midnightblue" points="350.474,-133.354 359.357,-127.58 348.811,-126.554 350.474,-133.354"/>
</g>
<!-- Node6 -->
<g id="node6" class="node"><title>Node6</title>
<g id="a_node6"><a xlink:href="classVoxel_1_1ConfigurationFile.xhtml#a3b9b573c1a3d9162fc0100c317ca0879" target="_top" xlink:title="Voxel::ConfigurationFile\l::_set">
<polygon fill="none" stroke="black" points="526.5,-186 526.5,-216 647.5,-216 647.5,-186 526.5,-186"/>
<text text-anchor="start" x="534.5" y="-204" font-family="Helvetica,sans-Serif" font-size="10.00">Voxel::ConfigurationFile</text>
<text text-anchor="middle" x="587" y="-193" font-family="Helvetica,sans-Serif" font-size="10.00">::_set</text>
</a>
</g>
</g>
<!-- Node5&#45;&gt;Node6 -->
<g id="edge5" class="edge"><title>Node5&#45;&gt;Node6</title>
<path fill="none" stroke="midnightblue" d="M490.019,-194.331C498.715,-194.226 507.616,-194.223 516.321,-194.323"/>
<polygon fill="midnightblue" stroke="midnightblue" points="516.372,-197.824 526.428,-194.487 516.486,-190.825 516.372,-197.824"/>
</g>
<!-- Node6&#45;&gt;Node5 -->
<g id="edge10" class="edge"><title>Node6&#45;&gt;Node5</title>
<path fill="none" stroke="midnightblue" d="M526.428,-207.513C517.936,-207.693 509.092,-207.77 500.297,-207.745"/>
<polygon fill="midnightblue" stroke="midnightblue" points="500.045,-204.244 490.019,-207.669 499.993,-211.243 500.045,-204.244"/>
</g>
<!-- Node7 -->
<g id="node7" class="node"><title>Node7</title>
<g id="a_node7"><a xlink:href="classVoxel_1_1ConfigSet.xhtml#a8fb880c24ad7b0f04c84d4a33becb995" target="_top" xlink:title="Voxel::ConfigSet::_set">
<polygon fill="none" stroke="black" points="684,-191.5 684,-210.5 800,-210.5 800,-191.5 684,-191.5"/>
<text text-anchor="middle" x="742" y="-198.5" font-family="Helvetica,sans-Serif" font-size="10.00">Voxel::ConfigSet::_set</text>
</a>
</g>
</g>
<!-- Node6&#45;&gt;Node7 -->
<g id="edge6" class="edge"><title>Node6&#45;&gt;Node7</title>
<path fill="none" stroke="midnightblue" d="M647.592,-201C656.156,-201 665.017,-201 673.717,-201"/>
<polygon fill="midnightblue" stroke="midnightblue" points="673.828,-204.5 683.828,-201 673.828,-197.5 673.828,-204.5"/>
</g>
<!-- Node8 -->
<g id="node8" class="node"><title>Node8</title>
<g id="a_node8"><a xlink:href="group__Util.xhtml#ga6b2a26aa983349496fedae9aa54ad034" target="_top" xlink:title="Trim. ">
<polygon fill="none" stroke="black" points="836,-191.5 836,-210.5 900,-210.5 900,-191.5 836,-191.5"/>
<text text-anchor="middle" x="868" y="-198.5" font-family="Helvetica,sans-Serif" font-size="10.00">Voxel::trim</text>
</a>
</g>
</g>
<!-- Node7&#45;&gt;Node8 -->
<g id="edge7" class="edge"><title>Node7&#45;&gt;Node8</title>
<path fill="none" stroke="midnightblue" d="M800.281,-201C808.753,-201 817.343,-201 825.413,-201"/>
<polygon fill="midnightblue" stroke="midnightblue" points="825.67,-204.5 835.67,-201 825.669,-197.5 825.67,-204.5"/>
</g>
<!-- Node9 -->
<g id="node9" class="node"><title>Node9</title>
<g id="a_node9"><a xlink:href="group__Util.xhtml#gac9c04e18f7878dd82964bb489b7b1314" target="_top" xlink:title="Left Trim. ">
<polygon fill="none" stroke="black" points="937,-210.5 937,-229.5 1003,-229.5 1003,-210.5 937,-210.5"/>
<text text-anchor="middle" x="970" y="-217.5" font-family="Helvetica,sans-Serif" font-size="10.00">Voxel::ltrim</text>
</a>
</g>
</g>
<!-- Node8&#45;&gt;Node9 -->
<g id="edge8" class="edge"><title>Node8&#45;&gt;Node9</title>
<path fill="none" stroke="midnightblue" d="M900.092,-206.908C908.591,-208.522 917.943,-210.299 926.943,-212.009"/>
<polygon fill="midnightblue" stroke="midnightblue" points="926.413,-215.471 936.891,-213.899 927.72,-208.594 926.413,-215.471"/>
</g>
<!-- Node10 -->
<g id="node10" class="node"><title>Node10</title>
<g id="a_node10"><a xlink:href="group__Util.xhtml#ga3d95f05dde73bc9c54051437445e439b" target="_top" xlink:title="Right Trim. ">
<polygon fill="none" stroke="black" points="936.5,-172.5 936.5,-191.5 1003.5,-191.5 1003.5,-172.5 936.5,-172.5"/>
<text text-anchor="middle" x="970" y="-179.5" font-family="Helvetica,sans-Serif" font-size="10.00">Voxel::rtrim</text>
</a>
</g>
</g>
<!-- Node8&#45;&gt;Node10 -->
<g id="edge9" class="edge"><title>Node8&#45;&gt;Node10</title>
<path fill="none" stroke="midnightblue" d="M900.092,-195.092C908.334,-193.526 917.38,-191.808 926.128,-190.146"/>
<polygon fill="midnightblue" stroke="midnightblue" points="927.025,-193.538 936.196,-188.233 925.718,-186.661 927.025,-193.538"/>
</g>
<!-- Node11&#45;&gt;Node4 -->
<g id="edge13" class="edge"><title>Node11&#45;&gt;Node4</title>
<path fill="none" stroke="midnightblue" d="M477.322,-128.019C497.833,-133.489 520.753,-139.601 540.237,-144.796"/>
<polygon fill="midnightblue" stroke="midnightblue" points="539.517,-148.227 550.081,-147.422 541.321,-141.463 539.517,-148.227"/>
</g>
<!-- Node12 -->
<g id="node12" class="node"><title>Node12</title>
<g id="a_node12"><a xlink:href="classVoxel_1_1ConfigurationFile.xhtml#a3946cbd4206d722e401708eb1546b413" target="_top" xlink:title="Voxel::ConfigurationFile\l::_saveAllDataFiles">
<polygon fill="none" stroke="black" points="526.5,-0 526.5,-30 647.5,-30 647.5,-0 526.5,-0"/>
<text text-anchor="start" x="534.5" y="-18" font-family="Helvetica,sans-Serif" font-size="10.00">Voxel::ConfigurationFile</text>
<text text-anchor="middle" x="587" y="-7" font-family="Helvetica,sans-Serif" font-size="10.00">::_saveAllDataFiles</text>
</a>
</g>
</g>
<!-- Node11&#45;&gt;Node12 -->
<g id="edge12" class="edge"><title>Node11&#45;&gt;Node12</title>
<path fill="none" stroke="midnightblue" d="M439.481,-97.9569C459.803,-81.9083 493.854,-56.4451 526,-39 529.051,-37.3445 532.24,-35.7386 535.491,-34.1945"/>
<polygon fill="midnightblue" stroke="midnightblue" points="537.072,-37.3207 544.747,-30.0167 534.192,-30.9404 537.072,-37.3207"/>
</g>
<!-- Node13 -->
<g id="node13" class="node"><title>Node13</title>
<g id="a_node13"><a xlink:href="classVoxel_1_1Configuration.xhtml#abfeffa3f26a5d905901c85a8889823d7" target="_top" xlink:title="Voxel::Configuration\l::getLocalConfFile">
<polygon fill="none" stroke="black" points="534.5,-98 534.5,-128 639.5,-128 639.5,-98 534.5,-98"/>
<text text-anchor="start" x="542.5" y="-116" font-family="Helvetica,sans-Serif" font-size="10.00">Voxel::Configuration</text>
<text text-anchor="middle" x="587" y="-105" font-family="Helvetica,sans-Serif" font-size="10.00">::getLocalConfFile</text>
</a>
</g>
</g>
<!-- Node11&#45;&gt;Node13 -->
<g id="edge14" class="edge"><title>Node11&#45;&gt;Node13</title>
<path fill="none" stroke="midnightblue" d="M480.569,-113C494.756,-113 509.927,-113 524.211,-113"/>
<polygon fill="midnightblue" stroke="midnightblue" points="524.429,-116.5 534.429,-113 524.429,-109.5 524.429,-116.5"/>
</g>
<!-- Node14 -->
<g id="node14" class="node"><title>Node14</title>
<g id="a_node14"><a xlink:href="classVoxel_1_1ConfigurationFile.xhtml#af3cd57258007019ac09e45919cfc19c3" target="_top" xlink:title="Voxel::ConfigurationFile\l::getLocation">
<polygon fill="none" stroke="black" points="526.5,-49 526.5,-79 647.5,-79 647.5,-49 526.5,-49"/>
<text text-anchor="start" x="534.5" y="-67" font-family="Helvetica,sans-Serif" font-size="10.00">Voxel::ConfigurationFile</text>
<text text-anchor="middle" x="587" y="-56" font-family="Helvetica,sans-Serif" font-size="10.00">::getLocation</text>
</a>
</g>
</g>
<!-- Node11&#45;&gt;Node14 -->
<g id="edge15" class="edge"><title>Node11&#45;&gt;Node14</title>
<path fill="none" stroke="midnightblue" d="M471.852,-97.8986C488.869,-92.8449 508.004,-87.1624 525.673,-81.9152"/>
<polygon fill="midnightblue" stroke="midnightblue" points="526.726,-85.2536 535.316,-79.0516 524.733,-78.5433 526.726,-85.2536"/>
</g>
</g>
</svg>
        <g id="navigator" transform="translate(0 0)" fill="#404254">
                <rect fill="#f2f5e9" fill-opacity="0.5" stroke="#606060" stroke-width=".5" x="0" y="0" width="60" height="60"/>
                <use id="zoomplus" xlink:href="#zoomPlus" x="17" y="9" onmousedown="handleZoom(evt,'in')"/>
                <use id="zoomminus" xlink:href="#zoomMin" x="42" y="9" onmousedown="handleZoom(evt,'out')"/>
                <use id="reset" xlink:href="#resetDef" x="30" y="36" onmousedown="handleReset()"/>
                <g id="arrowUp" xlink:href="#dirArrow" transform="translate(30 24)" onmousedown="handlePan(0,-1)">
                  <use xlink:href="#rim" fill="#404040">
                        <set attributeName="fill" to="#808080" begin="arrowUp.mouseover" end="arrowUp.mouseout"/>
                  </use>
                  <path fill="none" stroke="white" stroke-width="1.5" d="M0,-3.0v7 M-2.5,-0.5L0,-3.0L2.5,-0.5"/>
                </g>
                <g id="arrowRight" xlink:href="#dirArrow" transform="rotate(90) translate(36 -43)" onmousedown="handlePan(1,0)">
                  <use xlink:href="#rim" fill="#404040">
                        <set attributeName="fill" to="#808080" begin="arrowRight.mouseover" end="arrowRight.mouseout"/>
                  </use>
                  <path fill="none" stroke="white" stroke-width="1.5" d="M0,-3.0v7 M-2.5,-0.5L0,-3.0L2.5,-0.5"/>
                </g>
                <g id="arrowDown" xlink:href="#dirArrow" transform="rotate(180) translate(-30 -48)" onmousedown="handlePan(0,1)">
                  <use xlink:href="#rim" fill="#404040">
                        <set attributeName="fill" to="#808080" begin="arrowDown.mouseover" end="arrowDown.mouseout"/>
                  </use>
                  <path fill="none" stroke="white" stroke-width="1.5" d="M0,-3.0v7 M-2.5,-0.5L0,-3.0L2.5,-0.5"/>
                </g>
                <g id="arrowLeft" xlink:href="#dirArrow" transform="rotate(270) translate(-36 17)" onmousedown="handlePan(-1,0)">
                  <use xlink:href="#rim" fill="#404040">
                        <set attributeName="fill" to="#808080" begin="arrowLeft.mouseover" end="arrowLeft.mouseout"/>
                  </use>
                  <path fill="none" stroke="white" stroke-width="1.5" d="M0,-3.0v7 M-2.5,-0.5L0,-3.0L2.5,-0.5"/>
                </g>
        </g>
        <svg viewBox="0 0 15 15" width="100%" height="30px" preserveAspectRatio="xMaxYMin meet">
         <g id="arrow_out" transform="scale(0.3 0.3)">
          <a xlink:href="classVoxel_1_1MainConfigurationFile_a0c502b35bba7ac18c4018d6ad24ca86b_cgraph_org.svg" target="_base">
           <rect id="button" ry="5" rx="5" y="6" x="6" height="38" width="38"
                fill="#f2f5e9" fill-opacity="0.5" stroke="#606060" stroke-width="1.0"/>
           <path id="arrow"
             d="M 11.500037,31.436501 C 11.940474,20.09759 22.043105,11.32322 32.158766,21.979434 L 37.068811,17.246167 C 37.068811,17.246167 37.088388,32 37.088388,32 L 22.160133,31.978069 C 22.160133,31.978069 26.997745,27.140456 26.997745,27.140456 C 18.528582,18.264221 13.291696,25.230495 11.500037,31.436501 z"
             style="fill:#404040;"/>
          </a>
         </g>
        </svg>
</svg>
