<?xml version="1.0" encoding="UTF-8" standalone="no"?>
<!DOCTYPE svg PUBLIC "-//W3C//DTD SVG 1.1//EN"
 "http://www.w3.org/Graphics/SVG/1.1/DTD/svg11.dtd">
<!-- Generated by graphviz version 2.36.0 (20140111.2315)
 -->
<!-- Title: Voxel::ConfigSet::get Pages: 1 -->
<svg width="1458pt" height="234pt"
 viewBox="0.00 0.00 1458.00 234.00" xmlns="http://www.w3.org/2000/svg" xmlns:xlink="http://www.w3.org/1999/xlink">
<g id="graph0" class="graph" transform="scale(1 1) rotate(0) translate(4 230)">
<title>Voxel::ConfigSet::get</title>
<!-- Node1 -->
<g id="node1" class="node"><title>Node1</title>
<polygon fill="#bfbfbf" stroke="black" points="0,-127.5 0,-146.5 110,-146.5 110,-127.5 0,-127.5"/>
<text text-anchor="middle" x="55" y="-134.5" font-family="Helvetica,sans-Serif" font-size="10.00">Voxel::ConfigSet::get</text>
</g>
<!-- Node2 -->
<g id="node2" class="node"><title>Node2</title>
<g id="a_node2"><a xlink:href="classVoxel_1_1DepthCamera.xhtml#a6175ce727cf70df66f06ae1d9b3a3266" target="_top" xlink:title="Voxel::DepthCamera\l::_applyConfigParams">
<polygon fill="none" stroke="black" points="146.5,-122 146.5,-152 259.5,-152 259.5,-122 146.5,-122"/>
<text text-anchor="start" x="154.5" y="-140" font-family="Helvetica,sans-Serif" font-size="10.00">Voxel::DepthCamera</text>
<text text-anchor="middle" x="203" y="-129" font-family="Helvetica,sans-Serif" font-size="10.00">::_applyConfigParams</text>
</a>
</g>
</g>
<!-- Node1&#45;&gt;Node2 -->
<g id="edge1" class="edge"><title>Node1&#45;&gt;Node2</title>
<path fill="none" stroke="midnightblue" d="M120.628,-137C129.131,-137 137.787,-137 146.127,-137"/>
<polygon fill="midnightblue" stroke="midnightblue" points="120.365,-133.5 110.365,-137 120.365,-140.5 120.365,-133.5"/>
</g>
<!-- Node3 -->
<g id="node3" class="node"><title>Node3</title>
<g id="a_node3"><a xlink:href="classVoxel_1_1DepthCamera.xhtml#ab0e9ecccc5da44339aafaee4c17b9e44" target="_top" xlink:title="Voxel::DepthCamera\l::setCameraProfile">
<polygon fill="none" stroke="black" points="296,-122 296,-152 404,-152 404,-122 296,-122"/>
<text text-anchor="start" x="304" y="-140" font-family="Helvetica,sans-Serif" font-size="10.00">Voxel::DepthCamera</text>
<text text-anchor="middle" x="350" y="-129" font-family="Helvetica,sans-Serif" font-size="10.00">::setCameraProfile</text>
</a>
</g>
</g>
<!-- Node2&#45;&gt;Node3 -->
<g id="edge2" class="edge"><title>Node2&#45;&gt;Node3</title>
<path fill="none" stroke="midnightblue" d="M269.739,-137C278.414,-137 287.218,-137 295.651,-137"/>
<polygon fill="midnightblue" stroke="midnightblue" points="269.646,-133.5 259.646,-137 269.646,-140.5 269.646,-133.5"/>
</g>
<!-- Node4 -->
<g id="node4" class="node"><title>Node4</title>
<g id="a_node4"><a xlink:href="classVoxel_1_1DepthCamera.xhtml#aeca7a6cb1df8643f0b38745286ac2844" target="_top" xlink:title="Voxel::DepthCamera\l::_init">
<polygon fill="none" stroke="black" points="440,-122 440,-152 548,-152 548,-122 440,-122"/>
<text text-anchor="start" x="448" y="-140" font-family="Helvetica,sans-Serif" font-size="10.00">Voxel::DepthCamera</text>
<text text-anchor="middle" x="494" y="-129" font-family="Helvetica,sans-Serif" font-size="10.00">::_init</text>
</a>
</g>
</g>
<!-- Node3&#45;&gt;Node4 -->
<g id="edge3" class="edge"><title>Node3&#45;&gt;Node4</title>
<path fill="none" stroke="midnightblue" d="M414.517,-137C422.996,-137 431.618,-137 439.894,-137"/>
<polygon fill="midnightblue" stroke="midnightblue" points="414.28,-133.5 404.28,-137 414.28,-140.5 414.28,-133.5"/>
</g>
<!-- Node5 -->
<g id="node5" class="node"><title>Node5</title>
<g id="a_node5"><a xlink:href="classVoxel_1_1TI_1_1ToFCameraBase.xhtml#a34c90601da611e5cb61bd7a35f03a5f7" target="_top" xlink:title="Voxel::TI::ToFCameraBase\l::_init">
<polygon fill="none" stroke="black" points="584.5,-122 584.5,-152 721.5,-152 721.5,-122 584.5,-122"/>
<text text-anchor="start" x="592.5" y="-140" font-family="Helvetica,sans-Serif" font-size="10.00">Voxel::TI::ToFCameraBase</text>
<text text-anchor="middle" x="653" y="-129" font-family="Helvetica,sans-Serif" font-size="10.00">::_init</text>
</a>
</g>
</g>
<!-- Node4&#45;&gt;Node5 -->
<g id="edge4" class="edge"><title>Node4&#45;&gt;Node5</title>
<path fill="none" stroke="midnightblue" d="M558.157,-137C566.803,-137 575.708,-137 584.428,-137"/>
<polygon fill="midnightblue" stroke="midnightblue" points="558.153,-133.5 548.153,-137 558.153,-140.5 558.153,-133.5"/>
</g>
<!-- Node6 -->
<g id="node6" class="node"><title>Node6</title>
<g id="a_node6"><a xlink:href="classVoxel_1_1TI_1_1ToFCamera.xhtml#a8fd9aae6546d426f494b20633a881442" target="_top" xlink:title="Voxel::TI::ToFCamera\l::_init">
<polygon fill="none" stroke="black" points="758,-122 758,-152 872,-152 872,-122 758,-122"/>
<text text-anchor="start" x="766" y="-140" font-family="Helvetica,sans-Serif" font-size="10.00">Voxel::TI::ToFCamera</text>
<text text-anchor="middle" x="815" y="-129" font-family="Helvetica,sans-Serif" font-size="10.00">::_init</text>
</a>
</g>
</g>
<!-- Node5&#45;&gt;Node6 -->
<g id="edge5" class="edge"><title>Node5&#45;&gt;Node6</title>
<path fill="none" stroke="midnightblue" d="M731.978,-137C740.636,-137 749.325,-137 757.639,-137"/>
<polygon fill="midnightblue" stroke="midnightblue" points="731.854,-133.5 721.854,-137 731.854,-140.5 731.854,-133.5"/>
</g>
<!-- Node7 -->
<g id="node7" class="node"><title>Node7</title>
<g id="a_node7"><a xlink:href="classVoxel_1_1TI_1_1ToFCalculusCamera.xhtml#aa931ad7b5e4b84779df941814c2a5b17" target="_top" xlink:title="Voxel::TI::ToFCalculusCamera\l::_init">
<polygon fill="none" stroke="black" points="909,-183 909,-213 1061,-213 1061,-183 909,-183"/>
<text text-anchor="start" x="917" y="-201" font-family="Helvetica,sans-Serif" font-size="10.00">Voxel::TI::ToFCalculusCamera</text>
<text text-anchor="middle" x="985" y="-190" font-family="Helvetica,sans-Serif" font-size="10.00">::_init</text>
</a>
</g>
</g>
<!-- Node6&#45;&gt;Node7 -->
<g id="edge6" class="edge"><title>Node6&#45;&gt;Node7</title>
<path fill="none" stroke="midnightblue" d="M867.25,-155.608C891.423,-164.386 919.888,-174.721 942.659,-182.989"/>
<polygon fill="midnightblue" stroke="midnightblue" points="868.122,-152.202 857.528,-152.079 865.733,-158.782 868.122,-152.202"/>
</g>
<!-- Node10 -->
<g id="node10" class="node"><title>Node10</title>
<g id="a_node10"><a xlink:href="classVoxel_1_1TI_1_1ToFHaddockCamera.xhtml#a749a2bbcdbfa69054d523866504743d1" target="_top" xlink:title="Voxel::TI::ToFHaddockCamera\l::_init">
<polygon fill="none" stroke="black" points="908.5,-122 908.5,-152 1061.5,-152 1061.5,-122 908.5,-122"/>
<text text-anchor="start" x="916.5" y="-140" font-family="Helvetica,sans-Serif" font-size="10.00">Voxel::TI::ToFHaddockCamera</text>
<text text-anchor="middle" x="985" y="-129" font-family="Helvetica,sans-Serif" font-size="10.00">::_init</text>
</a>
</g>
</g>
<!-- Node6&#45;&gt;Node10 -->
<g id="edge9" class="edge"><title>Node6&#45;&gt;Node10</title>
<path fill="none" stroke="midnightblue" d="M882.582,-137C891.043,-137 899.751,-137 908.341,-137"/>
<polygon fill="midnightblue" stroke="midnightblue" points="882.409,-133.5 872.409,-137 882.409,-140.5 882.409,-133.5"/>
</g>
<!-- Node15 -->
<g id="node15" class="node"><title>Node15</title>
<g id="a_node15"><a xlink:href="classVoxel_1_1TI_1_1ToFTintinCamera.xhtml#af894a732f4beedc37144927eec93cc89" target="_top" xlink:title="Voxel::TI::ToFTintinCamera\l::_init">
<polygon fill="none" stroke="black" points="916,-49 916,-79 1054,-79 1054,-49 916,-49"/>
<text text-anchor="start" x="924" y="-67" font-family="Helvetica,sans-Serif" font-size="10.00">Voxel::TI::ToFTintinCamera</text>
<text text-anchor="middle" x="985" y="-56" font-family="Helvetica,sans-Serif" font-size="10.00">::_init</text>
</a>
</g>
</g>
<!-- Node6&#45;&gt;Node15 -->
<g id="edge14" class="edge"><title>Node6&#45;&gt;Node15</title>
<path fill="none" stroke="midnightblue" d="M860.303,-117.749C888.11,-105.666 923.454,-90.3087 949.235,-79.1063"/>
<polygon fill="midnightblue" stroke="midnightblue" points="858.586,-114.679 850.81,-121.874 861.376,-121.099 858.586,-114.679"/>
</g>
<!-- Node8 -->
<g id="node8" class="node"><title>Node8</title>
<g id="a_node8"><a xlink:href="classVoxel_1_1TI_1_1CalculusCDKCamera.xhtml#a82eb752fb0d4b63495d2e29b6b8aed2c" target="_top" xlink:title="Voxel::TI::CalculusCDKCamera\l::_init">
<polygon fill="none" stroke="black" points="1098.5,-196 1098.5,-226 1255.5,-226 1255.5,-196 1098.5,-196"/>
<text text-anchor="start" x="1106.5" y="-214" font-family="Helvetica,sans-Serif" font-size="10.00">Voxel::TI::CalculusCDKCamera</text>
<text text-anchor="middle" x="1177" y="-203" font-family="Helvetica,sans-Serif" font-size="10.00">::_init</text>
</a>
</g>
</g>
<!-- Node7&#45;&gt;Node8 -->
<g id="edge7" class="edge"><title>Node7&#45;&gt;Node8</title>
<path fill="none" stroke="midnightblue" d="M1071.22,-203.831C1080.25,-204.449 1089.4,-205.075 1098.33,-205.686"/>
<polygon fill="midnightblue" stroke="midnightblue" points="1071.31,-200.329 1061.09,-203.138 1070.83,-207.312 1071.31,-200.329"/>
</g>
<!-- Node9 -->
<g id="node9" class="node"><title>Node9</title>
<g id="a_node9"><a xlink:href="classVoxel_1_1TI_1_1CalculusCDKCamera.xhtml#af406b1427962d80da9af9fb24e89b239" target="_top" xlink:title="Voxel::TI::CalculusCDKCamera\l::CalculusCDKCamera">
<polygon fill="none" stroke="black" points="1292.5,-196 1292.5,-226 1449.5,-226 1449.5,-196 1292.5,-196"/>
<text text-anchor="start" x="1300.5" y="-214" font-family="Helvetica,sans-Serif" font-size="10.00">Voxel::TI::CalculusCDKCamera</text>
<text text-anchor="middle" x="1371" y="-203" font-family="Helvetica,sans-Serif" font-size="10.00">::CalculusCDKCamera</text>
</a>
</g>
</g>
<!-- Node8&#45;&gt;Node9 -->
<g id="edge8" class="edge"><title>Node8&#45;&gt;Node9</title>
<path fill="none" stroke="midnightblue" d="M1265.6,-211C1274.57,-211 1283.64,-211 1292.48,-211"/>
<polygon fill="midnightblue" stroke="midnightblue" points="1265.54,-207.5 1255.54,-211 1265.54,-214.5 1265.54,-207.5"/>
</g>
<!-- Node11 -->
<g id="node11" class="node"><title>Node11</title>
<g id="a_node11"><a xlink:href="classVoxel_1_1TI_1_1HaddockCDKCamera.xhtml#a7dff103da3145dd303a5bc0db75ae961" target="_top" xlink:title="Voxel::TI::HaddockCDKCamera\l::_init">
<polygon fill="none" stroke="black" points="1098,-147 1098,-177 1256,-177 1256,-147 1098,-147"/>
<text text-anchor="start" x="1106" y="-165" font-family="Helvetica,sans-Serif" font-size="10.00">Voxel::TI::HaddockCDKCamera</text>
<text text-anchor="middle" x="1177" y="-154" font-family="Helvetica,sans-Serif" font-size="10.00">::_init</text>
</a>
</g>
</g>
<!-- Node10&#45;&gt;Node11 -->
<g id="edge10" class="edge"><title>Node10&#45;&gt;Node11</title>
<path fill="none" stroke="midnightblue" d="M1071.76,-148.285C1080.44,-149.427 1089.23,-150.583 1097.82,-151.713"/>
<polygon fill="midnightblue" stroke="midnightblue" points="1072.01,-144.787 1061.64,-146.952 1071.1,-151.727 1072.01,-144.787"/>
</g>
<!-- Node13 -->
<g id="node13" class="node"><title>Node13</title>
<g id="a_node13"><a xlink:href="classVoxel_1_1TI_1_1Voxel14Camera.xhtml#a89011bfb795ff58d3fb8675364b91abe" target="_top" xlink:title="Voxel::TI::Voxel14Camera\l::_init">
<polygon fill="none" stroke="black" points="1111,-98 1111,-128 1243,-128 1243,-98 1111,-98"/>
<text text-anchor="start" x="1119" y="-116" font-family="Helvetica,sans-Serif" font-size="10.00">Voxel::TI::Voxel14Camera</text>
<text text-anchor="middle" x="1177" y="-105" font-family="Helvetica,sans-Serif" font-size="10.00">::_init</text>
</a>
</g>
</g>
<!-- Node10&#45;&gt;Node13 -->
<g id="edge12" class="edge"><title>Node10&#45;&gt;Node13</title>
<path fill="none" stroke="midnightblue" d="M1071.62,-126.185C1084.76,-124.525 1098.13,-122.836 1110.74,-121.244"/>
<polygon fill="midnightblue" stroke="midnightblue" points="1071.12,-122.72 1061.64,-127.446 1072,-129.665 1071.12,-122.72"/>
</g>
<!-- Node12 -->
<g id="node12" class="node"><title>Node12</title>
<g id="a_node12"><a xlink:href="classVoxel_1_1TI_1_1HaddockCDKCamera.xhtml#ac2c5e82486c4cc3f5edada38cd4274c5" target="_top" xlink:title="Voxel::TI::HaddockCDKCamera\l::HaddockCDKCamera">
<polygon fill="none" stroke="black" points="1292,-147 1292,-177 1450,-177 1450,-147 1292,-147"/>
<text text-anchor="start" x="1300" y="-165" font-family="Helvetica,sans-Serif" font-size="10.00">Voxel::TI::HaddockCDKCamera</text>
<text text-anchor="middle" x="1371" y="-154" font-family="Helvetica,sans-Serif" font-size="10.00">::HaddockCDKCamera</text>
</a>
</g>
</g>
<!-- Node11&#45;&gt;Node12 -->
<g id="edge11" class="edge"><title>Node11&#45;&gt;Node12</title>
<path fill="none" stroke="midnightblue" d="M1266.15,-162C1274.77,-162 1283.47,-162 1291.98,-162"/>
<polygon fill="midnightblue" stroke="midnightblue" points="1266.09,-158.5 1256.09,-162 1266.09,-165.5 1266.09,-158.5"/>
</g>
<!-- Node14 -->
<g id="node14" class="node"><title>Node14</title>
<g id="a_node14"><a xlink:href="classVoxel_1_1TI_1_1Voxel14Camera.xhtml#a606f13ed73547ee43f585e241b42dd5d" target="_top" xlink:title="Voxel::TI::Voxel14Camera\l::Voxel14Camera">
<polygon fill="none" stroke="black" points="1305,-98 1305,-128 1437,-128 1437,-98 1305,-98"/>
<text text-anchor="start" x="1313" y="-116" font-family="Helvetica,sans-Serif" font-size="10.00">Voxel::TI::Voxel14Camera</text>
<text text-anchor="middle" x="1371" y="-105" font-family="Helvetica,sans-Serif" font-size="10.00">::Voxel14Camera</text>
</a>
</g>
</g>
<!-- Node13&#45;&gt;Node14 -->
<g id="edge13" class="edge"><title>Node13&#45;&gt;Node14</title>
<path fill="none" stroke="midnightblue" d="M1253.42,-113C1270.38,-113 1288.24,-113 1304.74,-113"/>
<polygon fill="midnightblue" stroke="midnightblue" points="1253,-109.5 1243,-113 1253,-116.5 1253,-109.5"/>
</g>
<!-- Node16 -->
<g id="node16" class="node"><title>Node16</title>
<g id="a_node16"><a xlink:href="classVoxel_1_1TI_1_1TintinCDKCamera.xhtml#af5337f40c1a075c026263ea9871a20ee" target="_top" xlink:title="Voxel::TI::TintinCDKCamera\l::_init">
<polygon fill="none" stroke="black" points="1105.5,-49 1105.5,-79 1248.5,-79 1248.5,-49 1105.5,-49"/>
<text text-anchor="start" x="1113.5" y="-67" font-family="Helvetica,sans-Serif" font-size="10.00">Voxel::TI::TintinCDKCamera</text>
<text text-anchor="middle" x="1177" y="-56" font-family="Helvetica,sans-Serif" font-size="10.00">::_init</text>
</a>
</g>
</g>
<!-- Node15&#45;&gt;Node16 -->
<g id="edge15" class="edge"><title>Node15&#45;&gt;Node16</title>
<path fill="none" stroke="midnightblue" d="M1064.31,-64C1077.86,-64 1091.88,-64 1105.21,-64"/>
<polygon fill="midnightblue" stroke="midnightblue" points="1064.06,-60.5001 1054.06,-64 1064.06,-67.5001 1064.06,-60.5001"/>
</g>
<!-- Node18 -->
<g id="node18" class="node"><title>Node18</title>
<g id="a_node18"><a xlink:href="classVoxel_1_1TI_1_1VoxelDCamera.xhtml#a47b15c40c3fbcc52ae1eb3c9fe74d9f1" target="_top" xlink:title="Voxel::TI::VoxelDCamera\l::_init">
<polygon fill="none" stroke="black" points="1112.5,-0 1112.5,-30 1241.5,-30 1241.5,-0 1112.5,-0"/>
<text text-anchor="start" x="1120.5" y="-18" font-family="Helvetica,sans-Serif" font-size="10.00">Voxel::TI::VoxelDCamera</text>
<text text-anchor="middle" x="1177" y="-7" font-family="Helvetica,sans-Serif" font-size="10.00">::_init</text>
</a>
</g>
</g>
<!-- Node15&#45;&gt;Node18 -->
<g id="edge17" class="edge"><title>Node15&#45;&gt;Node18</title>
<path fill="none" stroke="midnightblue" d="M1054.05,-46.4502C1074.91,-41.0694 1097.67,-35.201 1117.81,-30.0062"/>
<polygon fill="midnightblue" stroke="midnightblue" points="1053.11,-43.079 1044.3,-48.9654 1054.85,-49.8572 1053.11,-43.079"/>
</g>
<!-- Node17 -->
<g id="node17" class="node"><title>Node17</title>
<g id="a_node17"><a xlink:href="classVoxel_1_1TI_1_1TintinCDKCamera.xhtml#a7a9918bb8b6d76bc3511536019847c1d" target="_top" xlink:title="Voxel::TI::TintinCDKCamera\l::TintinCDKCamera">
<polygon fill="none" stroke="black" points="1299.5,-49 1299.5,-79 1442.5,-79 1442.5,-49 1299.5,-49"/>
<text text-anchor="start" x="1307.5" y="-67" font-family="Helvetica,sans-Serif" font-size="10.00">Voxel::TI::TintinCDKCamera</text>
<text text-anchor="middle" x="1371" y="-56" font-family="Helvetica,sans-Serif" font-size="10.00">::TintinCDKCamera</text>
</a>
</g>
</g>
<!-- Node16&#45;&gt;Node17 -->
<g id="edge16" class="edge"><title>Node16&#45;&gt;Node17</title>
<path fill="none" stroke="midnightblue" d="M1258.89,-64C1272.38,-64 1286.27,-64 1299.47,-64"/>
<polygon fill="midnightblue" stroke="midnightblue" points="1258.68,-60.5001 1248.68,-64 1258.68,-67.5001 1258.68,-60.5001"/>
</g>
<!-- Node19 -->
<g id="node19" class="node"><title>Node19</title>
<g id="a_node19"><a xlink:href="classVoxel_1_1TI_1_1VoxelDCamera.xhtml#a4a95cf8257e2f9f5fd34386b87f6663a" target="_top" xlink:title="Voxel::TI::VoxelDCamera\l::VoxelDCamera">
<polygon fill="none" stroke="black" points="1306.5,-0 1306.5,-30 1435.5,-30 1435.5,-0 1306.5,-0"/>
<text text-anchor="start" x="1314.5" y="-18" font-family="Helvetica,sans-Serif" font-size="10.00">Voxel::TI::VoxelDCamera</text>
<text text-anchor="middle" x="1371" y="-7" font-family="Helvetica,sans-Serif" font-size="10.00">::VoxelDCamera</text>
</a>
</g>
</g>
<!-- Node18&#45;&gt;Node19 -->
<g id="edge18" class="edge"><title>Node18&#45;&gt;Node19</title>
<path fill="none" stroke="midnightblue" d="M1251.79,-15C1269.72,-15 1288.75,-15 1306.18,-15"/>
<polygon fill="midnightblue" stroke="midnightblue" points="1251.67,-11.5001 1241.67,-15 1251.67,-18.5001 1251.67,-11.5001"/>
</g>
</g>
</svg>
