<?xml version="1.0" encoding="UTF-8" standalone="no"?>
<!DOCTYPE svg PUBLIC "-//W3C//DTD SVG 1.1//EN"
 "http://www.w3.org/Graphics/SVG/1.1/DTD/svg11.dtd">
<!-- Generated by graphviz version 2.36.0 (20140111.2315)
 -->
<!-- Title: Voxel::RangeParameterTemplate::lowerLimit Pages: 1 -->
<svg width="768pt" height="312pt"
 viewBox="0.00 0.00 768.00 312.00" xmlns="http://www.w3.org/2000/svg" xmlns:xlink="http://www.w3.org/1999/xlink">
<g id="graph0" class="graph" transform="scale(1 1) rotate(0) translate(4 308)">
<title>Voxel::RangeParameterTemplate::lowerLimit</title>
<!-- Node1 -->
<g id="node1" class="node"><title>Node1</title>
<polygon fill="#bfbfbf" stroke="black" points="0.5,-132 0.5,-162 161.5,-162 161.5,-132 0.5,-132"/>
<text text-anchor="start" x="8.5" y="-150" font-family="Helvetica,sans-Serif" font-size="10.00">Voxel::RangeParameterTemplate</text>
<text text-anchor="middle" x="81" y="-139" font-family="Helvetica,sans-Serif" font-size="10.00">::lowerLimit</text>
</g>
<!-- Node2 -->
<g id="node2" class="node"><title>Node2</title>
<g id="a_node2"><a xlink:href="classVoxel_1_1TI_1_1TintinCDKIlluminationPowerParameter.xhtml#aaa5b6d4c663f1e35e14c5a00d4eae529" target="_top" xlink:title="Voxel::TI::TintinCDKIllumination\lPowerParameter::_fromRawValue">
<polygon fill="none" stroke="black" points="198.5,-274 198.5,-304 363.5,-304 363.5,-274 198.5,-274"/>
<text text-anchor="start" x="206.5" y="-292" font-family="Helvetica,sans-Serif" font-size="10.00">Voxel::TI::TintinCDKIllumination</text>
<text text-anchor="middle" x="281" y="-281" font-family="Helvetica,sans-Serif" font-size="10.00">PowerParameter::_fromRawValue</text>
</a>
</g>
</g>
<!-- Node1&#45;&gt;Node2 -->
<g id="edge1" class="edge"><title>Node1&#45;&gt;Node2</title>
<path fill="none" stroke="midnightblue" d="M99.1717,-170.249C119.827,-196.63 156.893,-239.202 198,-264 204.372,-267.844 211.383,-271.14 218.54,-273.955"/>
<polygon fill="midnightblue" stroke="midnightblue" points="101.927,-168.091 93.0579,-162.295 96.3775,-172.357 101.927,-168.091"/>
</g>
<!-- Node3 -->
<g id="node3" class="node"><title>Node3</title>
<g id="a_node3"><a xlink:href="classVoxel_1_1CLIManager.xhtml#a6aa5863de7fb0da3578d60a46de46033" target="_top" xlink:title="Voxel::CLIManager::\l_showParameterInfo">
<polygon fill="none" stroke="black" points="227.5,-225 227.5,-255 334.5,-255 334.5,-225 227.5,-225"/>
<text text-anchor="start" x="235.5" y="-243" font-family="Helvetica,sans-Serif" font-size="10.00">Voxel::CLIManager::</text>
<text text-anchor="middle" x="281" y="-232" font-family="Helvetica,sans-Serif" font-size="10.00">_showParameterInfo</text>
</a>
</g>
</g>
<!-- Node1&#45;&gt;Node3 -->
<g id="edge2" class="edge"><title>Node1&#45;&gt;Node3</title>
<path fill="none" stroke="midnightblue" d="M112.823,-167.761C135.611,-182.432 167.8,-201.764 198,-215 207.269,-219.063 217.4,-222.731 227.28,-225.928"/>
<polygon fill="midnightblue" stroke="midnightblue" points="114.561,-164.716 104.271,-162.19 110.74,-170.581 114.561,-164.716"/>
</g>
<!-- Node6 -->
<g id="node6" class="node"><title>Node6</title>
<g id="a_node6"><a xlink:href="classVoxel_1_1TI_1_1HaddockModulationFrequencyParameter.xhtml#a8d5c94e049e33f64004a99498511472b" target="_top" xlink:title="Voxel::TI::HaddockModulation\lFrequencyParameter::set">
<polygon fill="none" stroke="black" points="206.5,-176 206.5,-206 355.5,-206 355.5,-176 206.5,-176"/>
<text text-anchor="start" x="214.5" y="-194" font-family="Helvetica,sans-Serif" font-size="10.00">Voxel::TI::HaddockModulation</text>
<text text-anchor="middle" x="281" y="-183" font-family="Helvetica,sans-Serif" font-size="10.00">FrequencyParameter::set</text>
</a>
</g>
</g>
<!-- Node1&#45;&gt;Node6 -->
<g id="edge5" class="edge"><title>Node1&#45;&gt;Node6</title>
<path fill="none" stroke="midnightblue" d="M159.708,-164.268C177.108,-168.135 195.43,-172.207 212.382,-175.974"/>
<polygon fill="midnightblue" stroke="midnightblue" points="160.108,-160.772 149.587,-162.019 158.589,-167.605 160.108,-160.772"/>
</g>
<!-- Node7 -->
<g id="node7" class="node"><title>Node7</title>
<g id="a_node7"><a xlink:href="classVoxel_1_1TI_1_1HaddockUnambiguousRangeParameter.xhtml#a0da082fe30df06fe3a29cfbc5908c55c" target="_top" xlink:title="Voxel::TI::HaddockUnambiguous\lRangeParameter::set">
<polygon fill="none" stroke="black" points="400.5,-144 400.5,-174 561.5,-174 561.5,-144 400.5,-144"/>
<text text-anchor="start" x="408.5" y="-162" font-family="Helvetica,sans-Serif" font-size="10.00">Voxel::TI::HaddockUnambiguous</text>
<text text-anchor="middle" x="481" y="-151" font-family="Helvetica,sans-Serif" font-size="10.00">RangeParameter::set</text>
</a>
</g>
</g>
<!-- Node1&#45;&gt;Node7 -->
<g id="edge11" class="edge"><title>Node1&#45;&gt;Node7</title>
<path fill="none" stroke="midnightblue" d="M171.949,-149.712C240.576,-151.781 334.238,-154.605 400.213,-156.594"/>
<polygon fill="midnightblue" stroke="midnightblue" points="171.686,-146.203 161.585,-149.4 171.475,-153.199 171.686,-146.203"/>
</g>
<!-- Node9 -->
<g id="node9" class="node"><title>Node9</title>
<g id="a_node9"><a xlink:href="classVoxel_1_1TI_1_1TintinModulationFrequencyParameter.xhtml#a6b0d9a1d0144d396ce0a62e93bf58db7" target="_top" xlink:title="Voxel::TI::TintinModulation\lFrequencyParameter::set">
<polygon fill="none" stroke="black" points="214,-88 214,-118 348,-118 348,-88 214,-88"/>
<text text-anchor="start" x="222" y="-106" font-family="Helvetica,sans-Serif" font-size="10.00">Voxel::TI::TintinModulation</text>
<text text-anchor="middle" x="281" y="-95" font-family="Helvetica,sans-Serif" font-size="10.00">FrequencyParameter::set</text>
</a>
</g>
</g>
<!-- Node1&#45;&gt;Node9 -->
<g id="edge8" class="edge"><title>Node1&#45;&gt;Node9</title>
<path fill="none" stroke="midnightblue" d="M159.436,-129.792C177.377,-125.805 196.311,-121.598 213.724,-117.728"/>
<polygon fill="midnightblue" stroke="midnightblue" points="158.589,-126.395 149.587,-131.981 160.108,-133.228 158.589,-126.395"/>
</g>
<!-- Node10 -->
<g id="node10" class="node"><title>Node10</title>
<g id="a_node10"><a xlink:href="classVoxel_1_1TI_1_1TintinUnambiguousRangeParameter.xhtml#a7eb6a456c15f184c66d942e5f19c938b" target="_top" xlink:title="Voxel::TI::TintinUnambiguous\lRangeParameter::set">
<polygon fill="none" stroke="black" points="408,-76 408,-106 554,-106 554,-76 408,-76"/>
<text text-anchor="start" x="416" y="-94" font-family="Helvetica,sans-Serif" font-size="10.00">Voxel::TI::TintinUnambiguous</text>
<text text-anchor="middle" x="481" y="-83" font-family="Helvetica,sans-Serif" font-size="10.00">RangeParameter::set</text>
</a>
</g>
</g>
<!-- Node1&#45;&gt;Node10 -->
<g id="edge12" class="edge"><title>Node1&#45;&gt;Node10</title>
<path fill="none" stroke="midnightblue" d="M108.225,-125.754C130.576,-109.102 164.342,-87.2537 198,-78 268.531,-58.6088 352.673,-66.2467 410.582,-75.9884"/>
<polygon fill="midnightblue" stroke="midnightblue" points="106.069,-122.997 100.242,-131.845 110.315,-128.562 106.069,-122.997"/>
</g>
<!-- Node12 -->
<g id="node12" class="node"><title>Node12</title>
<g id="a_node12"><a xlink:href="classVoxel_1_1RangeParameterTemplate.xhtml#a1c45c34e90fef3116410bf1a5ed1afcf" target="_top" xlink:title="Voxel::RangeParameterTemplate\l\&lt; int \&gt;::setLowerLimit">
<polygon fill="none" stroke="black" points="200.5,-0 200.5,-30 361.5,-30 361.5,-0 200.5,-0"/>
<text text-anchor="start" x="208.5" y="-18" font-family="Helvetica,sans-Serif" font-size="10.00">Voxel::RangeParameterTemplate</text>
<text text-anchor="middle" x="281" y="-7" font-family="Helvetica,sans-Serif" font-size="10.00">&lt; int &gt;::setLowerLimit</text>
</a>
</g>
</g>
<!-- Node1&#45;&gt;Node12 -->
<g id="edge13" class="edge"><title>Node1&#45;&gt;Node12</title>
<path fill="none" stroke="midnightblue" d="M102.725,-124.402C124.562,-101.715 160.876,-67.0519 198,-45 207.775,-39.1938 218.86,-34.2147 229.65,-30.0765"/>
<polygon fill="midnightblue" stroke="midnightblue" points="99.9688,-122.222 95.6275,-131.886 105.048,-127.039 99.9688,-122.222"/>
</g>
<!-- Node4 -->
<g id="node4" class="node"><title>Node4</title>
<g id="a_node4"><a xlink:href="classVoxel_1_1CLIManager.xhtml#afce3e4d2158d643e933f3b85f366a42a" target="_top" xlink:title="Voxel::CLIManager::\l_capabilities">
<polygon fill="none" stroke="black" points="427.5,-225 427.5,-255 534.5,-255 534.5,-225 427.5,-225"/>
<text text-anchor="start" x="435.5" y="-243" font-family="Helvetica,sans-Serif" font-size="10.00">Voxel::CLIManager::</text>
<text text-anchor="middle" x="481" y="-232" font-family="Helvetica,sans-Serif" font-size="10.00">_capabilities</text>
</a>
</g>
</g>
<!-- Node3&#45;&gt;Node4 -->
<g id="edge3" class="edge"><title>Node3&#45;&gt;Node4</title>
<path fill="none" stroke="midnightblue" d="M344.865,-240C371.376,-240 401.895,-240 427.214,-240"/>
<polygon fill="midnightblue" stroke="midnightblue" points="344.541,-236.5 334.541,-240 344.54,-243.5 344.541,-236.5"/>
</g>
<!-- Node5 -->
<g id="node5" class="node"><title>Node5</title>
<g id="a_node5"><a xlink:href="classVoxel_1_1CLIManager.xhtml#a7a7ce51202c00d16a0e1cac5dcceb1e0" target="_top" xlink:title="Voxel::CLIManager::\lCLIManager">
<polygon fill="none" stroke="black" points="625.5,-225 625.5,-255 732.5,-255 732.5,-225 625.5,-225"/>
<text text-anchor="start" x="633.5" y="-243" font-family="Helvetica,sans-Serif" font-size="10.00">Voxel::CLIManager::</text>
<text text-anchor="middle" x="679" y="-232" font-family="Helvetica,sans-Serif" font-size="10.00">CLIManager</text>
</a>
</g>
</g>
<!-- Node4&#45;&gt;Node5 -->
<g id="edge4" class="edge"><title>Node4&#45;&gt;Node5</title>
<path fill="none" stroke="midnightblue" d="M544.655,-240C570.654,-240 600.485,-240 625.331,-240"/>
<polygon fill="midnightblue" stroke="midnightblue" points="544.524,-236.5 534.524,-240 544.524,-243.5 544.524,-236.5"/>
</g>
<!-- Node6&#45;&gt;Node7 -->
<g id="edge6" class="edge"><title>Node6&#45;&gt;Node7</title>
<path fill="none" stroke="midnightblue" d="M365.696,-177.473C377.139,-175.624 388.862,-173.729 400.233,-171.892"/>
<polygon fill="midnightblue" stroke="midnightblue" points="365.041,-174.034 355.728,-179.084 366.158,-180.944 365.041,-174.034"/>
</g>
<!-- Node8 -->
<g id="node8" class="node"><title>Node8</title>
<g id="a_node8"><a xlink:href="classVoxel_1_1TI_1_1HaddockUnambiguousRangeParameter.xhtml#a651affc3a71f50f73cd47963d30ed18b" target="_top" xlink:title="Voxel::TI::HaddockUnambiguous\lRangeParameter::get">
<polygon fill="none" stroke="black" points="598.5,-144 598.5,-174 759.5,-174 759.5,-144 598.5,-144"/>
<text text-anchor="start" x="606.5" y="-162" font-family="Helvetica,sans-Serif" font-size="10.00">Voxel::TI::HaddockUnambiguous</text>
<text text-anchor="middle" x="679" y="-151" font-family="Helvetica,sans-Serif" font-size="10.00">RangeParameter::get</text>
</a>
</g>
</g>
<!-- Node7&#45;&gt;Node8 -->
<g id="edge7" class="edge"><title>Node7&#45;&gt;Node8</title>
<path fill="none" stroke="midnightblue" d="M571.989,-159C580.785,-159 589.667,-159 598.35,-159"/>
<polygon fill="midnightblue" stroke="midnightblue" points="571.721,-155.5 561.721,-159 571.721,-162.5 571.721,-155.5"/>
</g>
<!-- Node9&#45;&gt;Node10 -->
<g id="edge9" class="edge"><title>Node9&#45;&gt;Node10</title>
<path fill="none" stroke="midnightblue" d="M358.207,-98.3814C374.476,-97.3954 391.613,-96.3568 407.728,-95.3801"/>
<polygon fill="midnightblue" stroke="midnightblue" points="357.976,-94.8889 348.206,-98.9875 358.4,-101.876 357.976,-94.8889"/>
</g>
<!-- Node11 -->
<g id="node11" class="node"><title>Node11</title>
<g id="a_node11"><a xlink:href="classVoxel_1_1TI_1_1TintinUnambiguousRangeParameter.xhtml#aee1307d07b01cdc5f3a34719e5b79ac0" target="_top" xlink:title="Voxel::TI::TintinUnambiguous\lRangeParameter::get">
<polygon fill="none" stroke="black" points="606,-76 606,-106 752,-106 752,-76 606,-76"/>
<text text-anchor="start" x="614" y="-94" font-family="Helvetica,sans-Serif" font-size="10.00">Voxel::TI::TintinUnambiguous</text>
<text text-anchor="middle" x="679" y="-83" font-family="Helvetica,sans-Serif" font-size="10.00">RangeParameter::get</text>
</a>
</g>
</g>
<!-- Node10&#45;&gt;Node11 -->
<g id="edge10" class="edge"><title>Node10&#45;&gt;Node11</title>
<path fill="none" stroke="midnightblue" d="M564.508,-91C578.186,-91 592.276,-91 605.677,-91"/>
<polygon fill="midnightblue" stroke="midnightblue" points="564.148,-87.5001 554.148,-91 564.148,-94.5001 564.148,-87.5001"/>
</g>
</g>
</svg>
