<?xml version="1.0" encoding="UTF-8" standalone="no"?>
<!DOCTYPE svg PUBLIC "-//W3C//DTD SVG 1.1//EN"
 "http://www.w3.org/Graphics/SVG/1.1/DTD/svg11.dtd">
<!-- Generated by graphviz version 2.36.0 (20140111.2315)
 -->
<!-- Title: Voxel::Streamer::isRunning Pages: 1 -->
<!--zoomable 420 -->
<svg id="main" version="1.1" xmlns="http://www.w3.org/2000/svg" xmlns:xlink="http://www.w3.org/1999/xlink" xml:space="preserve" onload="init(evt)">
<style type="text/css"><![CDATA[
.edge:hover path { stroke: red; }
.edge:hover polygon { stroke: red; fill: red; }
]]></style>
<script type="text/javascript"><![CDATA[
var edges = document.getElementsByTagName('g');
if (edges && edges.length) {
  for (var i=0;i<edges.length;i++) {
    if (edges[i].id.substr(0,4)=='edge') {
      edges[i].setAttribute('class','edge');
    }
  }
}
]]></script>
        <defs>
                <circle id="rim" cx="0" cy="0" r="7"/>
                <circle id="rim2" cx="0" cy="0" r="3.5"/>
                <g id="zoomPlus">
                        <use xlink:href="#rim" fill="#404040">
                                <set attributeName="fill" to="#808080" begin="zoomplus.mouseover" end="zoomplus.mouseout"/>
                        </use>
                        <path d="M-4,0h8M0,-4v8" fill="none" stroke="white" stroke-width="1.5" pointer-events="none"/>
                </g>
                <g id="zoomMin">
                        <use xlink:href="#rim" fill="#404040">
                                <set attributeName="fill" to="#808080" begin="zoomminus.mouseover" end="zoomminus.mouseout"/>
                        </use>
                        <path d="M-4,0h8" fill="none" stroke="white" stroke-width="1.5" pointer-events="none"/>
                </g>
                <g id="dirArrow">
                        <path fill="none" stroke="white" stroke-width="1.5" d="M0,-3.0v7 M-2.5,-0.5L0,-3.0L2.5,-0.5"/>
                </g>
               <g id="resetDef">
                       <use xlink:href="#rim2" fill="#404040">
                               <set attributeName="fill" to="#808080" begin="reset.mouseover" end="reset.mouseout"/>
                       </use>
               </g>
        </defs>

<script type="text/javascript">
var viewWidth = 718;
var viewHeight = 420;
var sectionId = 'dynsection-8';
</script>
<script xlink:href="svgpan.js"/>
<svg id="graph" class="graph">
<g id="viewport">
<title>Voxel::Streamer::isRunning</title>
<!-- Node1 -->
<g id="node1" class="node"><title>Node1</title>
<polygon fill="#bfbfbf" stroke="black" points="0.5,-75.5 0.5,-94.5 137.5,-94.5 137.5,-75.5 0.5,-75.5"/>
<text text-anchor="middle" x="69" y="-82.5" font-family="Helvetica,sans-Serif" font-size="10.00">Voxel::Streamer::isRunning</text>
</g>
<!-- Node2 -->
<g id="node2" class="node"><title>Node2</title>
<g id="a_node2"><a xlink:href="classVoxel_1_1Streamer.xhtml#a22a51cee97c9db6de5a1ab5e87cc9c9d" target="_top" xlink:title="Voxel::Streamer::capture">
<polygon fill="none" stroke="black" points="174.5,-95.5 174.5,-114.5 299.5,-114.5 299.5,-95.5 174.5,-95.5"/>
<text text-anchor="middle" x="237" y="-102.5" font-family="Helvetica,sans-Serif" font-size="10.00">Voxel::Streamer::capture</text>
</a>
</g>
</g>
<!-- Node1&#45;&gt;Node2 -->
<g id="edge1" class="edge"><title>Node1&#45;&gt;Node2</title>
<path fill="none" stroke="midnightblue" d="M147.614,-94.3511C156.607,-95.4346 165.686,-96.5284 174.424,-97.5812"/>
<polygon fill="midnightblue" stroke="midnightblue" points="147.865,-90.8562 137.519,-93.1348 147.028,-97.8059 147.865,-90.8562"/>
</g>
<!-- Node4 -->
<g id="node4" class="node"><title>Node4</title>
<g id="a_node4"><a xlink:href="classVoxel_1_1UVCStreamer.xhtml#a7babd2f4cbe6152499b4c49b0137b6b4" target="_top" xlink:title="Voxel::UVCStreamer\l::setVideoMode">
<polygon fill="none" stroke="black" points="182.5,-210 182.5,-240 291.5,-240 291.5,-210 182.5,-210"/>
<text text-anchor="start" x="190.5" y="-228" font-family="Helvetica,sans-Serif" font-size="10.00">Voxel::UVCStreamer</text>
<text text-anchor="middle" x="237" y="-217" font-family="Helvetica,sans-Serif" font-size="10.00">::setVideoMode</text>
</a>
</g>
</g>
<!-- Node1&#45;&gt;Node4 -->
<g id="edge3" class="edge"><title>Node1&#45;&gt;Node4</title>
<path fill="none" stroke="midnightblue" d="M89.2795,-101.26C121.723,-128.622 186.763,-183.475 218.191,-209.98"/>
<polygon fill="midnightblue" stroke="midnightblue" points="91.3107,-98.3943 81.4099,-94.6228 86.7977,-103.745 91.3107,-98.3943"/>
</g>
<!-- Node12 -->
<g id="node12" class="node"><title>Node12</title>
<g id="a_node12"><a xlink:href="classVoxel_1_1Streamer.xhtml#a3cb2a1d6b7ae774f34726a079c6e032e" target="_top" xlink:title="Voxel::Streamer::stop">
<polygon fill="none" stroke="black" points="181,-55.5 181,-74.5 293,-74.5 293,-55.5 181,-55.5"/>
<text text-anchor="middle" x="237" y="-62.5" font-family="Helvetica,sans-Serif" font-size="10.00">Voxel::Streamer::stop</text>
</a>
</g>
</g>
<!-- Node1&#45;&gt;Node12 -->
<g id="edge12" class="edge"><title>Node1&#45;&gt;Node12</title>
<path fill="none" stroke="midnightblue" d="M147.763,-75.6309C158.983,-74.2791 170.332,-72.9118 180.984,-71.6285"/>
<polygon fill="midnightblue" stroke="midnightblue" points="147.028,-72.1941 137.519,-76.8652 147.865,-79.1439 147.028,-72.1941"/>
</g>
<!-- Node14 -->
<g id="node14" class="node"><title>Node14</title>
<g id="a_node14"><a xlink:href="classVoxel_1_1UVCStreamer.xhtml#a3310a4b702610446c70967ccc6b23b14" target="_top" xlink:title="Voxel::UVCStreamer\l::~UVCStreamer">
<polygon fill="none" stroke="black" points="395.5,-0 395.5,-30 504.5,-30 504.5,-0 395.5,-0"/>
<text text-anchor="start" x="403.5" y="-18" font-family="Helvetica,sans-Serif" font-size="10.00">Voxel::UVCStreamer</text>
<text text-anchor="middle" x="450" y="-7" font-family="Helvetica,sans-Serif" font-size="10.00">::~UVCStreamer</text>
</a>
</g>
</g>
<!-- Node1&#45;&gt;Node14 -->
<g id="edge16" class="edge"><title>Node1&#45;&gt;Node14</title>
<path fill="none" stroke="midnightblue" d="M100.42,-71.318C120.83,-62.7097 148.54,-52.1096 174,-46 249.568,-27.8663 339.428,-20.2719 395.351,-17.1379"/>
<polygon fill="midnightblue" stroke="midnightblue" points="98.8331,-68.1903 91.0286,-75.3555 101.598,-74.6212 98.8331,-68.1903"/>
</g>
<!-- Node3 -->
<g id="node3" class="node"><title>Node3</title>
<g id="a_node3"><a xlink:href="UVCStreamerTest_8cpp.xhtml#a0ddf1224851353fc92bfbff6f499fa97" target="_top" xlink:title="main">
<polygon fill="none" stroke="black" points="431,-98.5 431,-117.5 469,-117.5 469,-98.5 431,-98.5"/>
<text text-anchor="middle" x="450" y="-105.5" font-family="Helvetica,sans-Serif" font-size="10.00">main</text>
</a>
</g>
</g>
<!-- Node2&#45;&gt;Node3 -->
<g id="edge2" class="edge"><title>Node2&#45;&gt;Node3</title>
<path fill="none" stroke="midnightblue" d="M309.759,-106.02C352.752,-106.632 404.1,-107.362 430.816,-107.741"/>
<polygon fill="midnightblue" stroke="midnightblue" points="309.646,-102.518 299.597,-105.876 309.546,-109.518 309.646,-102.518"/>
</g>
<!-- Node4&#45;&gt;Node3 -->
<g id="edge9" class="edge"><title>Node4&#45;&gt;Node3</title>
<path fill="none" stroke="midnightblue" d="M254.41,-201.647C271.871,-178.722 301.675,-144.695 336,-127 366.59,-111.23 407.441,-108.097 430.714,-107.724"/>
<polygon fill="midnightblue" stroke="midnightblue" points="251.484,-199.716 248.338,-209.833 257.107,-203.886 251.484,-199.716"/>
</g>
<!-- Node5 -->
<g id="node5" class="node"><title>Node5</title>
<g id="a_node5"><a xlink:href="classVoxel_1_1TI_1_1RTS5825CameraUVCStreamer.xhtml#a1fa44ca04c55a5013030131ee76aa776" target="_top" xlink:title="Voxel::TI::RTS5825Camera\lUVCStreamer::RTS5825CameraUVCStreamer">
<polygon fill="none" stroke="black" points="339.5,-284 339.5,-314 560.5,-314 560.5,-284 339.5,-284"/>
<text text-anchor="start" x="347.5" y="-302" font-family="Helvetica,sans-Serif" font-size="10.00">Voxel::TI::RTS5825Camera</text>
<text text-anchor="middle" x="450" y="-291" font-family="Helvetica,sans-Serif" font-size="10.00">UVCStreamer::RTS5825CameraUVCStreamer</text>
</a>
</g>
</g>
<!-- Node4&#45;&gt;Node5 -->
<g id="edge4" class="edge"><title>Node4&#45;&gt;Node5</title>
<path fill="none" stroke="midnightblue" d="M272.701,-244.975C291.044,-254.852 314.221,-266.279 336,-274 346.605,-277.76 357.978,-281.071 369.274,-283.95"/>
<polygon fill="midnightblue" stroke="midnightblue" points="274.299,-241.86 263.847,-240.127 270.937,-248 274.299,-241.86"/>
</g>
<!-- Node6 -->
<g id="node6" class="node"><title>Node6</title>
<g id="a_node6"><a xlink:href="classVoxel_1_1TI_1_1RTS5825Camera.xhtml#a317d118004c39f03a181cc5183b7b8ee" target="_top" xlink:title="Voxel::TI::RTS5825Camera\l::_setStreamerFrameSize">
<polygon fill="none" stroke="black" points="381,-235 381,-265 519,-265 519,-235 381,-235"/>
<text text-anchor="start" x="389" y="-253" font-family="Helvetica,sans-Serif" font-size="10.00">Voxel::TI::RTS5825Camera</text>
<text text-anchor="middle" x="450" y="-242" font-family="Helvetica,sans-Serif" font-size="10.00">::_setStreamerFrameSize</text>
</a>
</g>
</g>
<!-- Node4&#45;&gt;Node6 -->
<g id="edge5" class="edge"><title>Node4&#45;&gt;Node6</title>
<path fill="none" stroke="midnightblue" d="M301.614,-232.537C326.601,-235.498 355.331,-238.902 380.75,-241.914"/>
<polygon fill="midnightblue" stroke="midnightblue" points="301.859,-229.042 291.517,-231.341 301.036,-235.993 301.859,-229.042"/>
</g>
<!-- Node7 -->
<g id="node7" class="node"><title>Node7</title>
<g id="a_node7"><a xlink:href="classVoxel_1_1TI_1_1TintinCDKCamera.xhtml#a2ffbaceb53ded2b382116ac66b787698" target="_top" xlink:title="Voxel::TI::TintinCDKCamera\l::_setStreamerFrameSize">
<polygon fill="none" stroke="black" points="378.5,-186 378.5,-216 521.5,-216 521.5,-186 378.5,-186"/>
<text text-anchor="start" x="386.5" y="-204" font-family="Helvetica,sans-Serif" font-size="10.00">Voxel::TI::TintinCDKCamera</text>
<text text-anchor="middle" x="450" y="-193" font-family="Helvetica,sans-Serif" font-size="10.00">::_setStreamerFrameSize</text>
</a>
</g>
</g>
<!-- Node4&#45;&gt;Node7 -->
<g id="edge6" class="edge"><title>Node4&#45;&gt;Node7</title>
<path fill="none" stroke="midnightblue" d="M301.659,-217.759C325.867,-215.006 353.583,-211.853 378.396,-209.031"/>
<polygon fill="midnightblue" stroke="midnightblue" points="301.057,-214.305 291.517,-218.913 301.848,-221.26 301.057,-214.305"/>
</g>
<!-- Node8 -->
<g id="node8" class="node"><title>Node8</title>
<g id="a_node8"><a xlink:href="classVoxel_1_1UVCStreamer.xhtml#acc806ec3fc0f1e55739a844a0ff0f3c0" target="_top" xlink:title="Voxel::UVCStreamer\l::_initForCapture">
<polygon fill="none" stroke="black" points="395.5,-137 395.5,-167 504.5,-167 504.5,-137 395.5,-137"/>
<text text-anchor="start" x="403.5" y="-155" font-family="Helvetica,sans-Serif" font-size="10.00">Voxel::UVCStreamer</text>
<text text-anchor="middle" x="450" y="-144" font-family="Helvetica,sans-Serif" font-size="10.00">::_initForCapture</text>
</a>
</g>
</g>
<!-- Node4&#45;&gt;Node8 -->
<g id="edge7" class="edge"><title>Node4&#45;&gt;Node8</title>
<path fill="none" stroke="midnightblue" d="M273.136,-205.259C291.43,-195.639 314.431,-184.547 336,-177 354.965,-170.364 376.356,-165.098 395.384,-161.144"/>
<polygon fill="midnightblue" stroke="midnightblue" points="271.465,-202.183 264.297,-209.985 274.766,-208.357 271.465,-202.183"/>
</g>
<!-- Node10 -->
<g id="node10" class="node"><title>Node10</title>
<g id="a_node10"><a xlink:href="classVoxel_1_1TI_1_1Voxel14Camera.xhtml#afeb9b488760b3c32cf6d5decb25bfdcf" target="_top" xlink:title="Voxel::TI::Voxel14Camera\l::_setStreamerFrameSize">
<polygon fill="none" stroke="black" points="384,-382 384,-412 516,-412 516,-382 384,-382"/>
<text text-anchor="start" x="392" y="-400" font-family="Helvetica,sans-Serif" font-size="10.00">Voxel::TI::Voxel14Camera</text>
<text text-anchor="middle" x="450" y="-389" font-family="Helvetica,sans-Serif" font-size="10.00">::_setStreamerFrameSize</text>
</a>
</g>
</g>
<!-- Node4&#45;&gt;Node10 -->
<g id="edge10" class="edge"><title>Node4&#45;&gt;Node10</title>
<path fill="none" stroke="midnightblue" d="M247.506,-249.754C261.597,-282.987 291.272,-341.383 336,-372 350.093,-381.647 367.285,-387.644 383.964,-391.351"/>
<polygon fill="midnightblue" stroke="midnightblue" points="250.665,-248.232 243.634,-240.307 244.188,-250.887 250.665,-248.232"/>
</g>
<!-- Node11 -->
<g id="node11" class="node"><title>Node11</title>
<g id="a_node11"><a xlink:href="classVoxel_1_1TI_1_1VoxelDCamera.xhtml#aa13368de49716d5ec7ed82df1010a6b0" target="_top" xlink:title="Voxel::TI::VoxelDCamera\l::_setStreamerFrameSize">
<polygon fill="none" stroke="black" points="385.5,-333 385.5,-363 514.5,-363 514.5,-333 385.5,-333"/>
<text text-anchor="start" x="393.5" y="-351" font-family="Helvetica,sans-Serif" font-size="10.00">Voxel::TI::VoxelDCamera</text>
<text text-anchor="middle" x="450" y="-340" font-family="Helvetica,sans-Serif" font-size="10.00">::_setStreamerFrameSize</text>
</a>
</g>
</g>
<!-- Node4&#45;&gt;Node11 -->
<g id="edge11" class="edge"><title>Node4&#45;&gt;Node11</title>
<path fill="none" stroke="midnightblue" d="M254.896,-248.365C272.547,-271.001 302.326,-304.535 336,-323 351.063,-331.26 368.669,-336.791 385.439,-340.495"/>
<polygon fill="midnightblue" stroke="midnightblue" points="257.583,-246.116 248.742,-240.277 252.012,-250.355 257.583,-246.116"/>
</g>
<!-- Node9 -->
<g id="node9" class="node"><title>Node9</title>
<g id="a_node9"><a xlink:href="classVoxel_1_1UVCStreamer.xhtml#a3bf08c2dd6922d8e4a44a63840095d97" target="_top" xlink:title="Voxel::UVCStreamer\l::_start">
<polygon fill="none" stroke="black" points="600.5,-137 600.5,-167 709.5,-167 709.5,-137 600.5,-137"/>
<text text-anchor="start" x="608.5" y="-155" font-family="Helvetica,sans-Serif" font-size="10.00">Voxel::UVCStreamer</text>
<text text-anchor="middle" x="655" y="-144" font-family="Helvetica,sans-Serif" font-size="10.00">::_start</text>
</a>
</g>
</g>
<!-- Node8&#45;&gt;Node9 -->
<g id="edge8" class="edge"><title>Node8&#45;&gt;Node9</title>
<path fill="none" stroke="midnightblue" d="M514.912,-152C542.417,-152 574.21,-152 600.45,-152"/>
<polygon fill="midnightblue" stroke="midnightblue" points="514.601,-148.5 504.601,-152 514.601,-155.5 514.601,-148.5"/>
</g>
<!-- Node12&#45;&gt;Node3 -->
<g id="edge15" class="edge"><title>Node12&#45;&gt;Node3</title>
<path fill="none" stroke="midnightblue" d="M286.565,-76.9586C302.297,-80.6819 319.852,-84.6786 336,-88 369.37,-94.8634 408.578,-101.481 430.936,-105.119"/>
<polygon fill="midnightblue" stroke="midnightblue" points="287.063,-73.4791 276.524,-74.5611 285.438,-80.2878 287.063,-73.4791"/>
</g>
<!-- Node13 -->
<g id="node13" class="node"><title>Node13</title>
<g id="a_node13"><a xlink:href="classVoxel_1_1TI_1_1RTS5825CameraUVCStreamer.xhtml#afe68c9f9d41f76de511e93d1b3e0ca27" target="_top" xlink:title="Voxel::TI::RTS5825Camera\lUVCStreamer::~RTS5825CameraUVCStreamer">
<polygon fill="none" stroke="black" points="336.5,-49 336.5,-79 563.5,-79 563.5,-49 336.5,-49"/>
<text text-anchor="start" x="344.5" y="-67" font-family="Helvetica,sans-Serif" font-size="10.00">Voxel::TI::RTS5825Camera</text>
<text text-anchor="middle" x="450" y="-56" font-family="Helvetica,sans-Serif" font-size="10.00">UVCStreamer::~RTS5825CameraUVCStreamer</text>
</a>
</g>
</g>
<!-- Node12&#45;&gt;Node13 -->
<g id="edge13" class="edge"><title>Node12&#45;&gt;Node13</title>
<path fill="none" stroke="midnightblue" d="M303.483,-64.6897C314.032,-64.6397 325.208,-64.5867 336.491,-64.5332"/>
<polygon fill="midnightblue" stroke="midnightblue" points="303.145,-61.1911 293.162,-64.7386 303.179,-68.191 303.145,-61.1911"/>
</g>
<!-- Node12&#45;&gt;Node14 -->
<g id="edge14" class="edge"><title>Node12&#45;&gt;Node14</title>
<path fill="none" stroke="midnightblue" d="M282.428,-52.7094C299.173,-48.2098 318.418,-43.1966 336,-39 355.313,-34.3903 376.587,-29.7567 395.419,-25.807"/>
<polygon fill="midnightblue" stroke="midnightblue" points="281.101,-49.4425 272.362,-55.4327 282.929,-56.1996 281.101,-49.4425"/>
</g>
</g>
</svg>
        <g id="navigator" transform="translate(0 0)" fill="#404254">
                <rect fill="#f2f5e9" fill-opacity="0.5" stroke="#606060" stroke-width=".5" x="0" y="0" width="60" height="60"/>
                <use id="zoomplus" xlink:href="#zoomPlus" x="17" y="9" onmousedown="handleZoom(evt,'in')"/>
                <use id="zoomminus" xlink:href="#zoomMin" x="42" y="9" onmousedown="handleZoom(evt,'out')"/>
                <use id="reset" xlink:href="#resetDef" x="30" y="36" onmousedown="handleReset()"/>
                <g id="arrowUp" xlink:href="#dirArrow" transform="translate(30 24)" onmousedown="handlePan(0,-1)">
                  <use xlink:href="#rim" fill="#404040">
                        <set attributeName="fill" to="#808080" begin="arrowUp.mouseover" end="arrowUp.mouseout"/>
                  </use>
                  <path fill="none" stroke="white" stroke-width="1.5" d="M0,-3.0v7 M-2.5,-0.5L0,-3.0L2.5,-0.5"/>
                </g>
                <g id="arrowRight" xlink:href="#dirArrow" transform="rotate(90) translate(36 -43)" onmousedown="handlePan(1,0)">
                  <use xlink:href="#rim" fill="#404040">
                        <set attributeName="fill" to="#808080" begin="arrowRight.mouseover" end="arrowRight.mouseout"/>
                  </use>
                  <path fill="none" stroke="white" stroke-width="1.5" d="M0,-3.0v7 M-2.5,-0.5L0,-3.0L2.5,-0.5"/>
                </g>
                <g id="arrowDown" xlink:href="#dirArrow" transform="rotate(180) translate(-30 -48)" onmousedown="handlePan(0,1)">
                  <use xlink:href="#rim" fill="#404040">
                        <set attributeName="fill" to="#808080" begin="arrowDown.mouseover" end="arrowDown.mouseout"/>
                  </use>
                  <path fill="none" stroke="white" stroke-width="1.5" d="M0,-3.0v7 M-2.5,-0.5L0,-3.0L2.5,-0.5"/>
                </g>
                <g id="arrowLeft" xlink:href="#dirArrow" transform="rotate(270) translate(-36 17)" onmousedown="handlePan(-1,0)">
                  <use xlink:href="#rim" fill="#404040">
                        <set attributeName="fill" to="#808080" begin="arrowLeft.mouseover" end="arrowLeft.mouseout"/>
                  </use>
                  <path fill="none" stroke="white" stroke-width="1.5" d="M0,-3.0v7 M-2.5,-0.5L0,-3.0L2.5,-0.5"/>
                </g>
        </g>
        <svg viewBox="0 0 15 15" width="100%" height="30px" preserveAspectRatio="xMaxYMin meet">
         <g id="arrow_out" transform="scale(0.3 0.3)">
          <a xlink:href="classVoxel_1_1Streamer_ab1cfea9ca2c261a33c38ccc00bc97c77_icgraph_org.svg" target="_base">
           <rect id="button" ry="5" rx="5" y="6" x="6" height="38" width="38"
                fill="#f2f5e9" fill-opacity="0.5" stroke="#606060" stroke-width="1.0"/>
           <path id="arrow"
             d="M 11.500037,31.436501 C 11.940474,20.09759 22.043105,11.32322 32.158766,21.979434 L 37.068811,17.246167 C 37.068811,17.246167 37.088388,32 37.088388,32 L 22.160133,31.978069 C 22.160133,31.978069 26.997745,27.140456 26.997745,27.140456 C 18.528582,18.264221 13.291696,25.230495 11.500037,31.436501 z"
             style="fill:#404040;"/>
          </a>
         </g>
        </svg>
</svg>
