<?xml version="1.0" encoding="UTF-8" standalone="no"?>
<!DOCTYPE svg PUBLIC "-//W3C//DTD SVG 1.1//EN"
 "http://www.w3.org/Graphics/SVG/1.1/DTD/svg11.dtd">
<!-- Generated by graphviz version 2.36.0 (20140111.2315)
 -->
<!-- Title: TinyXML2::XMLText::SetCData Pages: 1 -->
<svg width="610pt" height="137pt"
 viewBox="0.00 0.00 610.00 137.00" xmlns="http://www.w3.org/2000/svg" xmlns:xlink="http://www.w3.org/1999/xlink">
<g id="graph0" class="graph" transform="scale(1 1) rotate(0) translate(4 133)">
<title>TinyXML2::XMLText::SetCData</title>
<!-- Node1 -->
<g id="node1" class="node"><title>Node1</title>
<polygon fill="#bfbfbf" stroke="black" points="0.5,-25 0.5,-55 113.5,-55 113.5,-25 0.5,-25"/>
<text text-anchor="start" x="8.5" y="-43" font-family="Helvetica,sans-Serif" font-size="10.00">TinyXML2::XMLText::</text>
<text text-anchor="middle" x="57" y="-32" font-family="Helvetica,sans-Serif" font-size="10.00">SetCData</text>
</g>
<!-- Node2 -->
<g id="node2" class="node"><title>Node2</title>
<g id="a_node2"><a xlink:href="classTinyXML2_1_1XMLDocument.xhtml#a0a09219933989db01f4e0cff84ce5af2" target="_top" xlink:title="TinyXML2::XMLDocument\l::Identify">
<polygon fill="none" stroke="black" points="150,-50 150,-80 282,-80 282,-50 150,-50"/>
<text text-anchor="start" x="158" y="-68" font-family="Helvetica,sans-Serif" font-size="10.00">TinyXML2::XMLDocument</text>
<text text-anchor="middle" x="216" y="-57" font-family="Helvetica,sans-Serif" font-size="10.00">::Identify</text>
</a>
</g>
</g>
<!-- Node1&#45;&gt;Node2 -->
<g id="edge1" class="edge"><title>Node1&#45;&gt;Node2</title>
<path fill="none" stroke="midnightblue" d="M123.758,-50.471C132.349,-51.839 141.149,-53.2403 149.732,-54.607"/>
<polygon fill="midnightblue" stroke="midnightblue" points="124.22,-47.0006 113.794,-48.8845 123.12,-53.9135 124.22,-47.0006"/>
</g>
<!-- Node7 -->
<g id="node7" class="node"><title>Node7</title>
<g id="a_node7"><a xlink:href="classTinyXML2_1_1XMLText.xhtml#a30e358bdfd667629b483d014ed2f92a7" target="_top" xlink:title="TinyXML2::XMLText::\lShallowClone">
<polygon fill="none" stroke="black" points="159.5,-1 159.5,-31 272.5,-31 272.5,-1 159.5,-1"/>
<text text-anchor="start" x="167.5" y="-19" font-family="Helvetica,sans-Serif" font-size="10.00">TinyXML2::XMLText::</text>
<text text-anchor="middle" x="216" y="-8" font-family="Helvetica,sans-Serif" font-size="10.00">ShallowClone</text>
</a>
</g>
</g>
<!-- Node1&#45;&gt;Node7 -->
<g id="edge7" class="edge"><title>Node1&#45;&gt;Node7</title>
<path fill="none" stroke="midnightblue" d="M124.013,-29.9089C135.784,-28.1094 147.94,-26.2512 159.385,-24.5016"/>
<polygon fill="midnightblue" stroke="midnightblue" points="123.151,-26.4999 113.794,-31.4709 124.208,-33.4195 123.151,-26.4999"/>
</g>
<!-- Node3 -->
<g id="node3" class="node"><title>Node3</title>
<g id="a_node3"><a xlink:href="classTinyXML2_1_1XMLNode.xhtml#a666a962d4e7ce40fad31a0d273659176" target="_top" xlink:title="TinyXML2::XMLNode::\lParseDeep">
<polygon fill="none" stroke="black" points="318,-50 318,-80 434,-80 434,-50 318,-50"/>
<text text-anchor="start" x="326" y="-68" font-family="Helvetica,sans-Serif" font-size="10.00">TinyXML2::XMLNode::</text>
<text text-anchor="middle" x="376" y="-57" font-family="Helvetica,sans-Serif" font-size="10.00">ParseDeep</text>
</a>
</g>
</g>
<!-- Node2&#45;&gt;Node3 -->
<g id="edge2" class="edge"><title>Node2&#45;&gt;Node3</title>
<path fill="none" stroke="midnightblue" d="M292.429,-65C300.877,-65 309.38,-65 317.55,-65"/>
<polygon fill="midnightblue" stroke="midnightblue" points="292.177,-61.5001 282.177,-65 292.177,-68.5001 292.177,-61.5001"/>
</g>
<!-- Node3&#45;&gt;Node3 -->
<g id="edge5" class="edge"><title>Node3&#45;&gt;Node3</title>
<path fill="none" stroke="midnightblue" d="M347.994,-90.5975C351.821,-94.9704 361.156,-98 376,-98 401,-98 410.375,-89.4062 404.125,-80.2754"/>
<polygon fill="midnightblue" stroke="midnightblue" points="351.49,-90.2343 347.875,-80.2754 344.491,-90.3151 351.49,-90.2343"/>
</g>
<!-- Node4 -->
<g id="node4" class="node"><title>Node4</title>
<g id="a_node4"><a xlink:href="classTinyXML2_1_1XMLDocument.xhtml#a25c1fd4903914444fc31fb1b90dcffdb" target="_top" xlink:title="TinyXML2::XMLDocument\l::LoadFile">
<polygon fill="none" stroke="black" points="470,-99 470,-129 602,-129 602,-99 470,-99"/>
<text text-anchor="start" x="478" y="-117" font-family="Helvetica,sans-Serif" font-size="10.00">TinyXML2::XMLDocument</text>
<text text-anchor="middle" x="536" y="-106" font-family="Helvetica,sans-Serif" font-size="10.00">::LoadFile</text>
</a>
</g>
</g>
<!-- Node3&#45;&gt;Node4 -->
<g id="edge3" class="edge"><title>Node3&#45;&gt;Node4</title>
<path fill="none" stroke="midnightblue" d="M435.405,-83.1129C452.202,-88.3222 470.335,-93.9457 486.466,-98.9484"/>
<polygon fill="midnightblue" stroke="midnightblue" points="436.282,-79.7207 425.694,-80.1014 434.209,-86.4065 436.282,-79.7207"/>
</g>
<!-- Node5 -->
<g id="node5" class="node"><title>Node5</title>
<g id="a_node5"><a xlink:href="classTinyXML2_1_1XMLDocument.xhtml#a2734f0824ea57c5c26f61b4f3ff2514a" target="_top" xlink:title="TinyXML2::XMLDocument\l::Parse">
<polygon fill="none" stroke="black" points="470,-50 470,-80 602,-80 602,-50 470,-50"/>
<text text-anchor="start" x="478" y="-68" font-family="Helvetica,sans-Serif" font-size="10.00">TinyXML2::XMLDocument</text>
<text text-anchor="middle" x="536" y="-57" font-family="Helvetica,sans-Serif" font-size="10.00">::Parse</text>
</a>
</g>
</g>
<!-- Node3&#45;&gt;Node5 -->
<g id="edge4" class="edge"><title>Node3&#45;&gt;Node5</title>
<path fill="none" stroke="midnightblue" d="M444.306,-65C452.82,-65 461.518,-65 469.994,-65"/>
<polygon fill="midnightblue" stroke="midnightblue" points="444.042,-61.5001 434.042,-65 444.042,-68.5001 444.042,-61.5001"/>
</g>
<!-- Node6 -->
<g id="node6" class="node"><title>Node6</title>
<g id="a_node6"><a xlink:href="classTinyXML2_1_1XMLElement.xhtml#a1f37b0bb41320c4121515755b8a057a4" target="_top" xlink:title="TinyXML2::XMLElement\l::ParseDeep">
<polygon fill="none" stroke="black" points="474.5,-1 474.5,-31 597.5,-31 597.5,-1 474.5,-1"/>
<text text-anchor="start" x="482.5" y="-19" font-family="Helvetica,sans-Serif" font-size="10.00">TinyXML2::XMLElement</text>
<text text-anchor="middle" x="536" y="-8" font-family="Helvetica,sans-Serif" font-size="10.00">::ParseDeep</text>
</a>
</g>
</g>
<!-- Node3&#45;&gt;Node6 -->
<g id="edge6" class="edge"><title>Node3&#45;&gt;Node6</title>
<path fill="none" stroke="midnightblue" d="M435.405,-46.8871C452.202,-41.6778 470.335,-36.0543 486.466,-31.0516"/>
<polygon fill="midnightblue" stroke="midnightblue" points="434.209,-43.5935 425.694,-49.8986 436.282,-50.2793 434.209,-43.5935"/>
</g>
</g>
</svg>
