<?xml version="1.0" encoding="UTF-8" standalone="no"?>
<!DOCTYPE svg PUBLIC "-//W3C//DTD SVG 1.1//EN"
 "http://www.w3.org/Graphics/SVG/1.1/DTD/svg11.dtd">
<!-- Generated by graphviz version 2.36.0 (20140111.2315)
 -->
<!-- Title: Voxel::TI::HaddockVCOFrequency::get Pages: 1 -->
<svg width="582pt" height="202pt"
 viewBox="0.00 0.00 582.00 202.00" xmlns="http://www.w3.org/2000/svg" xmlns:xlink="http://www.w3.org/1999/xlink">
<g id="graph0" class="graph" transform="scale(1 1) rotate(0) translate(4 198)">
<title>Voxel::TI::HaddockVCOFrequency::get</title>
<!-- Node1 -->
<g id="node1" class="node"><title>Node1</title>
<polygon fill="#bfbfbf" stroke="black" points="0,-78.5 0,-97.5 188,-97.5 188,-78.5 0,-78.5"/>
<text text-anchor="middle" x="94" y="-85.5" font-family="Helvetica,sans-Serif" font-size="10.00">Voxel::TI::HaddockVCOFrequency::get</text>
</g>
<!-- Node2 -->
<g id="node2" class="node"><title>Node2</title>
<g id="a_node2"><a xlink:href="classVoxel_1_1DepthCamera.xhtml#ac850b3829f41e647686610c283197ea6" target="_top" xlink:title="Voxel::DepthCamera\l::_get">
<polygon fill="none" stroke="black" points="251,-147 251,-177 359,-177 359,-147 251,-147"/>
<text text-anchor="start" x="259" y="-165" font-family="Helvetica,sans-Serif" font-size="10.00">Voxel::DepthCamera</text>
<text text-anchor="middle" x="305" y="-154" font-family="Helvetica,sans-Serif" font-size="10.00">::_get</text>
</a>
</g>
</g>
<!-- Node1&#45;&gt;Node2 -->
<g id="edge1" class="edge"><title>Node1&#45;&gt;Node2</title>
<path fill="none" stroke="midnightblue" d="M119.093,-97.6486C144.888,-107.862 187.094,-124.237 224,-137 230.713,-139.321 237.774,-141.666 244.807,-143.942"/>
<polygon fill="midnightblue" stroke="midnightblue" points="243.754,-147.279 254.345,-146.992 245.886,-140.612 243.754,-147.279"/>
</g>
<!-- Node5 -->
<g id="node5" class="node"><title>Node5</title>
<g id="a_node5"><a xlink:href="classVoxel_1_1TI_1_1ToFHaddockCamera.xhtml#a01be99984c412b2deb15f736a4cd2fef" target="_top" xlink:title="Voxel::TI::ToFHaddockCamera\l::_getSystemClockFrequency">
<polygon fill="none" stroke="black" points="228.5,-98 228.5,-128 381.5,-128 381.5,-98 228.5,-98"/>
<text text-anchor="start" x="236.5" y="-116" font-family="Helvetica,sans-Serif" font-size="10.00">Voxel::TI::ToFHaddockCamera</text>
<text text-anchor="middle" x="305" y="-105" font-family="Helvetica,sans-Serif" font-size="10.00">::_getSystemClockFrequency</text>
</a>
</g>
</g>
<!-- Node1&#45;&gt;Node5 -->
<g id="edge4" class="edge"><title>Node1&#45;&gt;Node5</title>
<path fill="none" stroke="midnightblue" d="M174.61,-97.5227C188.951,-99.2381 203.955,-101.033 218.456,-102.767"/>
<polygon fill="midnightblue" stroke="midnightblue" points="218.055,-106.244 228.4,-103.957 218.886,-99.2939 218.055,-106.244"/>
</g>
<!-- Node6 -->
<g id="node6" class="node"><title>Node6</title>
<g id="a_node6"><a xlink:href="classVoxel_1_1ParameterTemplate.xhtml#a3f4472338de2a9fc48cddf389b85fb1b" target="_top" xlink:title="Voxel::ParameterTemplate\l\&lt; float \&gt;::refresh">
<polygon fill="none" stroke="black" points="238.5,-49 238.5,-79 371.5,-79 371.5,-49 238.5,-49"/>
<text text-anchor="start" x="246.5" y="-67" font-family="Helvetica,sans-Serif" font-size="10.00">Voxel::ParameterTemplate</text>
<text text-anchor="middle" x="305" y="-56" font-family="Helvetica,sans-Serif" font-size="10.00">&lt; float &gt;::refresh</text>
</a>
</g>
</g>
<!-- Node1&#45;&gt;Node6 -->
<g id="edge5" class="edge"><title>Node1&#45;&gt;Node6</title>
<path fill="none" stroke="midnightblue" d="M177.903,-78.4801C194.513,-76.5726 211.885,-74.5778 228.239,-72.6998"/>
<polygon fill="midnightblue" stroke="midnightblue" points="228.739,-76.1655 238.274,-71.5474 227.94,-69.2112 228.739,-76.1655"/>
</g>
<!-- Node7 -->
<g id="node7" class="node"><title>Node7</title>
<g id="a_node7"><a xlink:href="classVoxel_1_1RangeParameterTemplate.xhtml#a1fa782d7135e9d20267cb18fe98cbfd5" target="_top" xlink:title="Voxel::RangeParameterTemplate\l\&lt; float \&gt;::validate">
<polygon fill="none" stroke="black" points="224.5,-0 224.5,-30 385.5,-30 385.5,-0 224.5,-0"/>
<text text-anchor="start" x="232.5" y="-18" font-family="Helvetica,sans-Serif" font-size="10.00">Voxel::RangeParameterTemplate</text>
<text text-anchor="middle" x="305" y="-7" font-family="Helvetica,sans-Serif" font-size="10.00">&lt; float &gt;::validate</text>
</a>
</g>
</g>
<!-- Node1&#45;&gt;Node7 -->
<g id="edge6" class="edge"><title>Node1&#45;&gt;Node7</title>
<path fill="none" stroke="midnightblue" d="M119.59,-78.4048C145.443,-68.4218 187.372,-52.5278 224,-40 230.721,-37.7014 237.787,-35.3704 244.823,-33.103"/>
<polygon fill="midnightblue" stroke="midnightblue" points="245.899,-36.4334 254.363,-30.0595 243.772,-29.7645 245.899,-36.4334"/>
</g>
<!-- Node3 -->
<g id="node3" class="node"><title>Node3</title>
<g id="a_node3"><a xlink:href="classVoxel_1_1ParameterTemplate.xhtml#afa8896eaffbd2b87d1482c0967a0fe1d" target="_top" xlink:title="Voxel::ParameterTemplate::get">
<polygon fill="none" stroke="black" points="422,-174.5 422,-193.5 574,-193.5 574,-174.5 422,-174.5"/>
<text text-anchor="middle" x="498" y="-181.5" font-family="Helvetica,sans-Serif" font-size="10.00">Voxel::ParameterTemplate::get</text>
</a>
</g>
</g>
<!-- Node2&#45;&gt;Node3 -->
<g id="edge2" class="edge"><title>Node2&#45;&gt;Node3</title>
<path fill="none" stroke="midnightblue" d="M359.204,-168.128C375.444,-169.999 393.729,-172.105 411.542,-174.157"/>
<polygon fill="midnightblue" stroke="midnightblue" points="411.622,-177.689 421.957,-175.356 412.423,-170.735 411.622,-177.689"/>
</g>
<!-- Node4 -->
<g id="node4" class="node"><title>Node4</title>
<g id="a_node4"><a xlink:href="classVoxel_1_1DepthCamera.xhtml#ae3d6fcc6d4a20d1ad2de809ad65ecc34" target="_top" xlink:title="Voxel::DepthCamera\l::name">
<polygon fill="none" stroke="black" points="444,-125 444,-155 552,-155 552,-125 444,-125"/>
<text text-anchor="start" x="452" y="-143" font-family="Helvetica,sans-Serif" font-size="10.00">Voxel::DepthCamera</text>
<text text-anchor="middle" x="498" y="-132" font-family="Helvetica,sans-Serif" font-size="10.00">::name</text>
</a>
</g>
</g>
<!-- Node2&#45;&gt;Node4 -->
<g id="edge3" class="edge"><title>Node2&#45;&gt;Node4</title>
<path fill="none" stroke="midnightblue" d="M359.204,-155.872C382.288,-153.213 409.503,-150.078 433.623,-147.3"/>
<polygon fill="midnightblue" stroke="midnightblue" points="434.216,-150.755 443.75,-146.133 433.415,-143.801 434.216,-150.755"/>
</g>
</g>
</svg>
