<?xml version="1.0" encoding="UTF-8" standalone="no"?>
<!DOCTYPE svg PUBLIC "-//W3C//DTD SVG 1.1//EN"
 "http://www.w3.org/Graphics/SVG/1.1/DTD/svg11.dtd">
<!-- Generated by graphviz version 2.36.0 (20140111.2315)
 -->
<!-- Title: Voxel::Configuration::getLocalPath Pages: 1 -->
<svg width="262pt" height="66pt"
 viewBox="0.00 0.00 262.00 66.00" xmlns="http://www.w3.org/2000/svg" xmlns:xlink="http://www.w3.org/1999/xlink">
<g id="graph0" class="graph" transform="scale(1 1) rotate(0) translate(4 62)">
<title>Voxel::Configuration::getLocalPath</title>
<!-- Node1 -->
<g id="node1" class="node"><title>Node1</title>
<polygon fill="#bfbfbf" stroke="black" points="0.5,-14 0.5,-44 105.5,-44 105.5,-14 0.5,-14"/>
<text text-anchor="start" x="8.5" y="-32" font-family="Helvetica,sans-Serif" font-size="10.00">Voxel::Configuration</text>
<text text-anchor="middle" x="53" y="-21" font-family="Helvetica,sans-Serif" font-size="10.00">::getLocalPath</text>
</g>
<!-- Node2 -->
<g id="node2" class="node"><title>Node2</title>
<g id="a_node2"><a xlink:href="group__Util.xhtml#ga36148965f675233e100e0915a2e36160" target="_top" xlink:title="Voxel::isFilePresent">
<polygon fill="none" stroke="black" points="146,-38.5 146,-57.5 250,-57.5 250,-38.5 146,-38.5"/>
<text text-anchor="middle" x="198" y="-45.5" font-family="Helvetica,sans-Serif" font-size="10.00">Voxel::isFilePresent</text>
</a>
</g>
</g>
<!-- Node1&#45;&gt;Node2 -->
<g id="edge1" class="edge"><title>Node1&#45;&gt;Node2</title>
<path fill="none" stroke="midnightblue" d="M105.626,-35.8594C115.466,-37.1669 125.852,-38.5468 135.953,-39.8889"/>
<polygon fill="midnightblue" stroke="midnightblue" points="135.555,-43.3667 145.929,-41.2143 136.477,-36.4276 135.555,-43.3667"/>
</g>
<!-- Node3 -->
<g id="node3" class="node"><title>Node3</title>
<g id="a_node3"><a xlink:href="group__Util.xhtml#gaed6651f54ac7aeb2169fc9b604db0b06" target="_top" xlink:title="Voxel::makeDirectory">
<polygon fill="none" stroke="black" points="142.5,-0.5 142.5,-19.5 253.5,-19.5 253.5,-0.5 142.5,-0.5"/>
<text text-anchor="middle" x="198" y="-7.5" font-family="Helvetica,sans-Serif" font-size="10.00">Voxel::makeDirectory</text>
</a>
</g>
</g>
<!-- Node1&#45;&gt;Node3 -->
<g id="edge2" class="edge"><title>Node1&#45;&gt;Node3</title>
<path fill="none" stroke="midnightblue" d="M105.626,-22.1406C114.229,-20.9976 123.248,-19.7992 132.13,-18.619"/>
<polygon fill="midnightblue" stroke="midnightblue" points="132.618,-22.085 142.07,-17.2983 131.696,-15.146 132.618,-22.085"/>
</g>
</g>
</svg>
