<?xml version="1.0" encoding="UTF-8" standalone="no"?>
<!DOCTYPE svg PUBLIC "-//W3C//DTD SVG 1.1//EN"
 "http://www.w3.org/Graphics/SVG/1.1/DTD/svg11.dtd">
<!-- Generated by graphviz version 2.36.0 (20140111.2315)
 -->
<!-- Title: Voxel::TI::ToFCameraFactoryBase Pages: 1 -->
<svg width="554pt" height="273pt"
 viewBox="0.00 0.00 554.00 273.00" xmlns="http://www.w3.org/2000/svg" xmlns:xlink="http://www.w3.org/1999/xlink">
<g id="graph0" class="graph" transform="scale(1 1) rotate(0) translate(4 269)">
<title>Voxel::TI::ToFCameraFactoryBase</title>
<!-- Node1 -->
<g id="node1" class="node"><title>Node1</title>
<polygon fill="#bfbfbf" stroke="black" points="178,-117.5 178,-136.5 348,-136.5 348,-117.5 178,-117.5"/>
<text text-anchor="middle" x="263" y="-124.5" font-family="Helvetica,sans-Serif" font-size="10.00">Voxel::TI::ToFCameraFactoryBase</text>
</g>
<!-- Node3 -->
<g id="node3" class="node"><title>Node3</title>
<g id="a_node3"><a xlink:href="classVoxel_1_1TI_1_1CalculusCDKCameraFactory.xhtml" target="_top" xlink:title="Voxel::TI::CalculusCDKCamera\lFactory">
<polygon fill="none" stroke="black" points="386.5,-235 386.5,-265 543.5,-265 543.5,-235 386.5,-235"/>
<text text-anchor="start" x="394.5" y="-253" font-family="Helvetica,sans-Serif" font-size="10.00">Voxel::TI::CalculusCDKCamera</text>
<text text-anchor="middle" x="465" y="-242" font-family="Helvetica,sans-Serif" font-size="10.00">Factory</text>
</a>
</g>
</g>
<!-- Node1&#45;&gt;Node3 -->
<g id="edge2" class="edge"><title>Node1&#45;&gt;Node3</title>
<path fill="none" stroke="midnightblue" d="M280.153,-143.685C301.9,-165.273 342.657,-202.743 384,-225 391.047,-228.794 398.758,-232.111 406.524,-234.982"/>
<polygon fill="midnightblue" stroke="midnightblue" points="282.562,-141.144 273.036,-136.508 277.592,-146.073 282.562,-141.144"/>
</g>
<!-- Node4 -->
<g id="node4" class="node"><title>Node4</title>
<g id="a_node4"><a xlink:href="classVoxel_1_1TI_1_1HaddockCDKCameraFactory.xhtml" target="_top" xlink:title="Voxel::TI::HaddockCDKCamera\lFactory">
<polygon fill="none" stroke="black" points="386,-186 386,-216 544,-216 544,-186 386,-186"/>
<text text-anchor="start" x="394" y="-204" font-family="Helvetica,sans-Serif" font-size="10.00">Voxel::TI::HaddockCDKCamera</text>
<text text-anchor="middle" x="465" y="-193" font-family="Helvetica,sans-Serif" font-size="10.00">Factory</text>
</a>
</g>
</g>
<!-- Node1&#45;&gt;Node4 -->
<g id="edge3" class="edge"><title>Node1&#45;&gt;Node4</title>
<path fill="none" stroke="midnightblue" d="M295.229,-140.602C319.284,-150.872 353.478,-165.022 384,-176 393.448,-179.398 403.614,-182.781 413.426,-185.909"/>
<polygon fill="midnightblue" stroke="midnightblue" points="296.47,-137.326 285.9,-136.597 293.708,-143.758 296.47,-137.326"/>
</g>
<!-- Node5 -->
<g id="node5" class="node"><title>Node5</title>
<g id="a_node5"><a xlink:href="classVoxel_1_1TI_1_1RTS5825CameraFactory.xhtml" target="_top" xlink:title="Voxel::TI::RTS5825Camera\lFactory">
<polygon fill="none" stroke="black" points="396,-137 396,-167 534,-167 534,-137 396,-137"/>
<text text-anchor="start" x="404" y="-155" font-family="Helvetica,sans-Serif" font-size="10.00">Voxel::TI::RTS5825Camera</text>
<text text-anchor="middle" x="465" y="-144" font-family="Helvetica,sans-Serif" font-size="10.00">Factory</text>
</a>
</g>
</g>
<!-- Node1&#45;&gt;Node5 -->
<g id="edge4" class="edge"><title>Node1&#45;&gt;Node5</title>
<path fill="none" stroke="midnightblue" d="M350.154,-137.769C365.45,-139.681 381.186,-141.648 395.894,-143.487"/>
<polygon fill="midnightblue" stroke="midnightblue" points="350.539,-134.29 340.182,-136.523 349.671,-141.236 350.539,-134.29"/>
</g>
<!-- Node6 -->
<g id="node6" class="node"><title>Node6</title>
<g id="a_node6"><a xlink:href="classVoxel_1_1TI_1_1TintinCDKCameraFactory.xhtml" target="_top" xlink:title="Voxel::TI::TintinCDKCamera\lFactory">
<polygon fill="none" stroke="black" points="393.5,-88 393.5,-118 536.5,-118 536.5,-88 393.5,-88"/>
<text text-anchor="start" x="401.5" y="-106" font-family="Helvetica,sans-Serif" font-size="10.00">Voxel::TI::TintinCDKCamera</text>
<text text-anchor="middle" x="465" y="-95" font-family="Helvetica,sans-Serif" font-size="10.00">Factory</text>
</a>
</g>
</g>
<!-- Node1&#45;&gt;Node6 -->
<g id="edge5" class="edge"><title>Node1&#45;&gt;Node6</title>
<path fill="none" stroke="midnightblue" d="M353.449,-116.266C366.763,-114.668 380.329,-113.041 393.189,-111.497"/>
<polygon fill="midnightblue" stroke="midnightblue" points="352.844,-112.813 343.333,-117.48 353.678,-119.764 352.844,-112.813"/>
</g>
<!-- Node7 -->
<g id="node7" class="node"><title>Node7</title>
<g id="a_node7"><a xlink:href="classVoxel_1_1TI_1_1Voxel14CameraFactory.xhtml" target="_top" xlink:title="Voxel::TI::Voxel14Camera\lFactory">
<polygon fill="none" stroke="black" points="399,-39 399,-69 531,-69 531,-39 399,-39"/>
<text text-anchor="start" x="407" y="-57" font-family="Helvetica,sans-Serif" font-size="10.00">Voxel::TI::Voxel14Camera</text>
<text text-anchor="middle" x="465" y="-46" font-family="Helvetica,sans-Serif" font-size="10.00">Factory</text>
</a>
</g>
</g>
<!-- Node1&#45;&gt;Node7 -->
<g id="edge6" class="edge"><title>Node1&#45;&gt;Node7</title>
<path fill="none" stroke="midnightblue" d="M295.193,-113.298C319.229,-102.976 353.416,-88.8037 384,-78 392.75,-74.909 402.126,-71.8635 411.266,-69.0339"/>
<polygon fill="midnightblue" stroke="midnightblue" points="293.663,-110.146 285.872,-117.326 296.44,-116.572 293.663,-110.146"/>
</g>
<!-- Node8 -->
<g id="node8" class="node"><title>Node8</title>
<g id="a_node8"><a xlink:href="classVoxel_1_1TI_1_1VoxelDCameraFactory.xhtml" target="_top" xlink:title="Voxel::TI::VoxelDCameraFactory">
<polygon fill="none" stroke="black" points="384,-0.5 384,-19.5 546,-19.5 546,-0.5 384,-0.5"/>
<text text-anchor="middle" x="465" y="-7.5" font-family="Helvetica,sans-Serif" font-size="10.00">Voxel::TI::VoxelDCameraFactory</text>
</a>
</g>
</g>
<!-- Node1&#45;&gt;Node8 -->
<g id="edge7" class="edge"><title>Node1&#45;&gt;Node8</title>
<path fill="none" stroke="midnightblue" d="M279.926,-109.873C301.423,-87.8022 341.906,-49.803 384,-29 391.807,-25.142 400.435,-22.0437 409.051,-19.5623"/>
<polygon fill="midnightblue" stroke="midnightblue" points="277.279,-107.577 272.897,-117.223 282.338,-112.415 277.279,-107.577"/>
</g>
<!-- Node2 -->
<g id="node2" class="node"><title>Node2</title>
<g id="a_node2"><a xlink:href="classVoxel_1_1DepthCameraFactory.xhtml" target="_top" xlink:title="Voxel::DepthCameraFactory">
<polygon fill="none" stroke="black" points="0.5,-117.5 0.5,-136.5 141.5,-136.5 141.5,-117.5 0.5,-117.5"/>
<text text-anchor="middle" x="71" y="-124.5" font-family="Helvetica,sans-Serif" font-size="10.00">Voxel::DepthCameraFactory</text>
</a>
</g>
</g>
<!-- Node2&#45;&gt;Node1 -->
<g id="edge1" class="edge"><title>Node2&#45;&gt;Node1</title>
<path fill="none" stroke="midnightblue" d="M151.704,-127C160.334,-127 169.137,-127 177.818,-127"/>
<polygon fill="midnightblue" stroke="midnightblue" points="151.67,-123.5 141.67,-127 151.67,-130.5 151.67,-123.5"/>
</g>
</g>
</svg>
