<?xml version="1.0" encoding="UTF-8" standalone="no"?>
<!DOCTYPE svg PUBLIC "-//W3C//DTD SVG 1.1//EN"
 "http://www.w3.org/Graphics/SVG/1.1/DTD/svg11.dtd">
<!-- Generated by graphviz version 2.36.0 (20140111.2315)
 -->
<!-- Title: ELFIO::segment::save Pages: 1 -->
<svg width="388pt" height="38pt"
 viewBox="0.00 0.00 388.00 38.00" xmlns="http://www.w3.org/2000/svg" xmlns:xlink="http://www.w3.org/1999/xlink">
<g id="graph0" class="graph" transform="scale(1 1) rotate(0) translate(4 34)">
<title>ELFIO::segment::save</title>
<!-- Node1 -->
<g id="node1" class="node"><title>Node1</title>
<polygon fill="#bfbfbf" stroke="black" points="0,-5.5 0,-24.5 116,-24.5 116,-5.5 0,-5.5"/>
<text text-anchor="middle" x="58" y="-12.5" font-family="Helvetica,sans-Serif" font-size="10.00">ELFIO::segment::save</text>
</g>
<!-- Node2 -->
<g id="node2" class="node"><title>Node2</title>
<g id="a_node2"><a xlink:href="classELFIO_1_1elfio.xhtml#ae4681b3161b1cfa4ed545eb8181887b3" target="_top" xlink:title="ELFIO::elfio::save\l_segments">
<polygon fill="none" stroke="black" points="152,-0 152,-30 248,-30 248,-0 152,-0"/>
<text text-anchor="start" x="160" y="-18" font-family="Helvetica,sans-Serif" font-size="10.00">ELFIO::elfio::save</text>
<text text-anchor="middle" x="200" y="-7" font-family="Helvetica,sans-Serif" font-size="10.00">_segments</text>
</a>
</g>
</g>
<!-- Node1&#45;&gt;Node2 -->
<g id="edge1" class="edge"><title>Node1&#45;&gt;Node2</title>
<path fill="none" stroke="midnightblue" d="M126.373,-15C134.961,-15 143.601,-15 151.776,-15"/>
<polygon fill="midnightblue" stroke="midnightblue" points="126.347,-11.5001 116.347,-15 126.347,-18.5001 126.347,-11.5001"/>
</g>
<!-- Node3 -->
<g id="node3" class="node"><title>Node3</title>
<g id="a_node3"><a xlink:href="classELFIO_1_1elfio.xhtml#a4dfd167b10c72779390871865d16db61" target="_top" xlink:title="ELFIO::elfio::save">
<polygon fill="none" stroke="black" points="284,-5.5 284,-24.5 380,-24.5 380,-5.5 284,-5.5"/>
<text text-anchor="middle" x="332" y="-12.5" font-family="Helvetica,sans-Serif" font-size="10.00">ELFIO::elfio::save</text>
</a>
</g>
</g>
<!-- Node2&#45;&gt;Node3 -->
<g id="edge2" class="edge"><title>Node2&#45;&gt;Node3</title>
<path fill="none" stroke="midnightblue" d="M258.539,-15C267.034,-15 275.703,-15 283.952,-15"/>
<polygon fill="midnightblue" stroke="midnightblue" points="258.301,-11.5001 248.301,-15 258.301,-18.5001 258.301,-11.5001"/>
</g>
</g>
</svg>
