<?xml version="1.0" encoding="UTF-8" standalone="no"?>
<!DOCTYPE svg PUBLIC "-//W3C//DTD SVG 1.1//EN"
 "http://www.w3.org/Graphics/SVG/1.1/DTD/svg11.dtd">
<!-- Generated by graphviz version 2.36.0 (20140111.2315)
 -->
<!-- Title: TinyXML2::XMLElement::Name Pages: 1 -->
<!--zoomable 255 -->
<svg id="main" version="1.1" xmlns="http://www.w3.org/2000/svg" xmlns:xlink="http://www.w3.org/1999/xlink" xml:space="preserve" onload="init(evt)">
<style type="text/css"><![CDATA[
.edge:hover path { stroke: red; }
.edge:hover polygon { stroke: red; fill: red; }
]]></style>
<script type="text/javascript"><![CDATA[
var edges = document.getElementsByTagName('g');
if (edges && edges.length) {
  for (var i=0;i<edges.length;i++) {
    if (edges[i].id.substr(0,4)=='edge') {
      edges[i].setAttribute('class','edge');
    }
  }
}
]]></script>
        <defs>
                <circle id="rim" cx="0" cy="0" r="7"/>
                <circle id="rim2" cx="0" cy="0" r="3.5"/>
                <g id="zoomPlus">
                        <use xlink:href="#rim" fill="#404040">
                                <set attributeName="fill" to="#808080" begin="zoomplus.mouseover" end="zoomplus.mouseout"/>
                        </use>
                        <path d="M-4,0h8M0,-4v8" fill="none" stroke="white" stroke-width="1.5" pointer-events="none"/>
                </g>
                <g id="zoomMin">
                        <use xlink:href="#rim" fill="#404040">
                                <set attributeName="fill" to="#808080" begin="zoomminus.mouseover" end="zoomminus.mouseout"/>
                        </use>
                        <path d="M-4,0h8" fill="none" stroke="white" stroke-width="1.5" pointer-events="none"/>
                </g>
                <g id="dirArrow">
                        <path fill="none" stroke="white" stroke-width="1.5" d="M0,-3.0v7 M-2.5,-0.5L0,-3.0L2.5,-0.5"/>
                </g>
               <g id="resetDef">
                       <use xlink:href="#rim2" fill="#404040">
                               <set attributeName="fill" to="#808080" begin="reset.mouseover" end="reset.mouseout"/>
                       </use>
               </g>
        </defs>

<script type="text/javascript">
var viewWidth = 1404;
var viewHeight = 255;
var sectionId = 'dynsection-16';
</script>
<script xlink:href="svgpan.js"/>
<svg id="graph" class="graph">
<g id="viewport">
<title>TinyXML2::XMLElement::Name</title>
<!-- Node1 -->
<g id="node1" class="node"><title>Node1</title>
<polygon fill="#bfbfbf" stroke="black" points="0.5,-73 0.5,-103 123.5,-103 123.5,-73 0.5,-73"/>
<text text-anchor="start" x="8.5" y="-91" font-family="Helvetica,sans-Serif" font-size="10.00">TinyXML2::XMLElement</text>
<text text-anchor="middle" x="62" y="-80" font-family="Helvetica,sans-Serif" font-size="10.00">::Name</text>
</g>
<!-- Node2 -->
<g id="node2" class="node"><title>Node2</title>
<g id="a_node2"><a xlink:href="classTinyXML2_1_1XMLNode.xhtml#a86cc8875788543eee38da2b8f35efabc" target="_top" xlink:title="TinyXML2::XMLNode::\lFirstChildElement">
<polygon fill="none" stroke="black" points="164,-151 164,-181 280,-181 280,-151 164,-151"/>
<text text-anchor="start" x="172" y="-169" font-family="Helvetica,sans-Serif" font-size="10.00">TinyXML2::XMLNode::</text>
<text text-anchor="middle" x="222" y="-158" font-family="Helvetica,sans-Serif" font-size="10.00">FirstChildElement</text>
</a>
</g>
</g>
<!-- Node1&#45;&gt;Node2 -->
<g id="edge1" class="edge"><title>Node1&#45;&gt;Node2</title>
<path fill="none" stroke="midnightblue" d="M101.548,-107.739C119.298,-116.76 140.669,-127.524 160,-137 169.371,-141.594 179.599,-146.498 188.955,-150.943"/>
<polygon fill="midnightblue" stroke="midnightblue" points="103.125,-104.615 92.6253,-103.197 99.949,-110.853 103.125,-104.615"/>
</g>
<!-- Node21 -->
<g id="node21" class="node"><title>Node21</title>
<g id="a_node21"><a xlink:href="classTinyXML2_1_1XMLNode.xhtml#a8b1ca00b71ef6447eb27f63d81ce548d" target="_top" xlink:title="TinyXML2::XMLNode::\lLastChildElement">
<polygon fill="none" stroke="black" points="164,-98 164,-128 280,-128 280,-98 164,-98"/>
<text text-anchor="start" x="172" y="-116" font-family="Helvetica,sans-Serif" font-size="10.00">TinyXML2::XMLNode::</text>
<text text-anchor="middle" x="222" y="-105" font-family="Helvetica,sans-Serif" font-size="10.00">LastChildElement</text>
</a>
</g>
</g>
<!-- Node1&#45;&gt;Node21 -->
<g id="edge24" class="edge"><title>Node1&#45;&gt;Node21</title>
<path fill="none" stroke="midnightblue" d="M133.667,-99.1815C143.786,-100.783 154.089,-102.413 163.903,-103.966"/>
<polygon fill="midnightblue" stroke="midnightblue" points="134.059,-95.7001 123.635,-97.5942 132.965,-102.614 134.059,-95.7001"/>
</g>
<!-- Node22 -->
<g id="node22" class="node"><title>Node22</title>
<g id="a_node22"><a xlink:href="classTinyXML2_1_1XMLElement.xhtml#a2b7dddea778d54aa6a213abed7ef7ab7" target="_top" xlink:title="TinyXML2::XMLElement\l::ParseAttributes">
<polygon fill="none" stroke="black" points="160.5,-49 160.5,-79 283.5,-79 283.5,-49 160.5,-49"/>
<text text-anchor="start" x="168.5" y="-67" font-family="Helvetica,sans-Serif" font-size="10.00">TinyXML2::XMLElement</text>
<text text-anchor="middle" x="222" y="-56" font-family="Helvetica,sans-Serif" font-size="10.00">::ParseAttributes</text>
</a>
</g>
</g>
<!-- Node1&#45;&gt;Node22 -->
<g id="edge25" class="edge"><title>Node1&#45;&gt;Node22</title>
<path fill="none" stroke="midnightblue" d="M133.597,-77.2765C142.495,-75.9247 151.538,-74.5512 160.266,-73.2254"/>
<polygon fill="midnightblue" stroke="midnightblue" points="132.996,-73.8275 123.635,-78.7896 134.047,-80.7481 132.996,-73.8275"/>
</g>
<!-- Node24 -->
<g id="node24" class="node"><title>Node24</title>
<g id="a_node24"><a xlink:href="classTinyXML2_1_1XMLPrinter.xhtml#a4b451a18ff455a3ba120179017af44de" target="_top" xlink:title="Visit an element. ">
<polygon fill="none" stroke="black" points="164,-0 164,-30 280,-30 280,-0 164,-0"/>
<text text-anchor="start" x="172" y="-18" font-family="Helvetica,sans-Serif" font-size="10.00">TinyXML2::XMLPrinter</text>
<text text-anchor="middle" x="222" y="-7" font-family="Helvetica,sans-Serif" font-size="10.00">::VisitEnter</text>
</a>
</g>
</g>
<!-- Node1&#45;&gt;Node24 -->
<g id="edge27" class="edge"><title>Node1&#45;&gt;Node24</title>
<path fill="none" stroke="midnightblue" d="M100.96,-68.4417C118.748,-59.4767 140.314,-48.8913 160,-40 167.406,-36.6551 175.396,-33.2426 183.076,-30.0573"/>
<polygon fill="midnightblue" stroke="midnightblue" points="99.371,-65.323 92.0321,-72.9645 102.534,-71.5675 99.371,-65.323"/>
</g>
<!-- Node3 -->
<g id="node3" class="node"><title>Node3</title>
<g id="a_node3"><a xlink:href="classVoxel_1_1ParameterDMLParser.xhtml#a4201ee5ff558a4f8c7d2091676fa0182" target="_top" xlink:title="Voxel::ParameterDMLParser\l::_goTo">
<polygon fill="none" stroke="black" points="320,-153 320,-183 462,-183 462,-153 320,-153"/>
<text text-anchor="start" x="328" y="-171" font-family="Helvetica,sans-Serif" font-size="10.00">Voxel::ParameterDMLParser</text>
<text text-anchor="middle" x="391" y="-160" font-family="Helvetica,sans-Serif" font-size="10.00">::_goTo</text>
</a>
</g>
</g>
<!-- Node2&#45;&gt;Node3 -->
<g id="edge2" class="edge"><title>Node2&#45;&gt;Node3</title>
<path fill="none" stroke="midnightblue" d="M290.106,-166.804C299.932,-166.921 310.073,-167.043 319.956,-167.161"/>
<polygon fill="midnightblue" stroke="midnightblue" points="290.046,-163.303 280.005,-166.683 289.962,-170.302 290.046,-163.303"/>
</g>
<!-- Node4 -->
<g id="node4" class="node"><title>Node4</title>
<g id="a_node4"><a xlink:href="classVoxel_1_1ParameterDMLParser.xhtml#a2d21730f3b40ad5dabbc0ad62c596705" target="_top" xlink:title="Voxel::ParameterDMLParser\l::_prepare">
<polygon fill="none" stroke="black" points="498,-217 498,-247 640,-247 640,-217 498,-217"/>
<text text-anchor="start" x="506" y="-235" font-family="Helvetica,sans-Serif" font-size="10.00">Voxel::ParameterDMLParser</text>
<text text-anchor="middle" x="569" y="-224" font-family="Helvetica,sans-Serif" font-size="10.00">::_prepare</text>
</a>
</g>
</g>
<!-- Node2&#45;&gt;Node4 -->
<g id="edge22" class="edge"><title>Node2&#45;&gt;Node4</title>
<path fill="none" stroke="midnightblue" d="M285.12,-183.656C296.665,-186.651 308.66,-189.572 320,-192 379.597,-204.759 448.032,-215.508 497.895,-222.639"/>
<polygon fill="midnightblue" stroke="midnightblue" points="285.68,-180.184 275.118,-181.016 283.894,-186.953 285.68,-180.184"/>
</g>
<!-- Node5 -->
<g id="node5" class="node"><title>Node5</title>
<g id="a_node5"><a xlink:href="classVoxel_1_1ParameterDMLParser.xhtml#ad605e36f21f13ac72f59e58e64754e74" target="_top" xlink:title="Voxel::ParameterDMLParser\l::getParameters">
<polygon fill="none" stroke="black" points="676,-151 676,-181 818,-181 818,-151 676,-151"/>
<text text-anchor="start" x="684" y="-169" font-family="Helvetica,sans-Serif" font-size="10.00">Voxel::ParameterDMLParser</text>
<text text-anchor="middle" x="747" y="-158" font-family="Helvetica,sans-Serif" font-size="10.00">::getParameters</text>
</a>
</g>
</g>
<!-- Node2&#45;&gt;Node5 -->
<g id="edge23" class="edge"><title>Node2&#45;&gt;Node5</title>
<path fill="none" stroke="midnightblue" d="M281.325,-148.14C362.457,-125.877 513.651,-93.7665 640,-120 668.481,-125.913 698.705,-139.886 719.56,-150.89"/>
<polygon fill="midnightblue" stroke="midnightblue" points="279.998,-144.876 271.307,-150.937 281.88,-151.618 279.998,-144.876"/>
</g>
<!-- Node3&#45;&gt;Node4 -->
<g id="edge3" class="edge"><title>Node3&#45;&gt;Node4</title>
<path fill="none" stroke="midnightblue" d="M442.798,-186.472C469.422,-196.154 501.615,-207.86 526.69,-216.978"/>
<polygon fill="midnightblue" stroke="midnightblue" points="443.858,-183.133 433.264,-183.005 441.466,-189.712 443.858,-183.133"/>
</g>
<!-- Node3&#45;&gt;Node5 -->
<g id="edge21" class="edge"><title>Node3&#45;&gt;Node5</title>
<path fill="none" stroke="midnightblue" d="M472.154,-168.383C520.723,-168.52 583.929,-168.529 640,-168 651.595,-167.891 663.903,-167.714 675.871,-167.51"/>
<polygon fill="midnightblue" stroke="midnightblue" points="472.03,-164.883 462.02,-168.352 472.009,-171.883 472.03,-164.883"/>
</g>
<!-- Node20 -->
<g id="node20" class="node"><title>Node20</title>
<g id="a_node20"><a xlink:href="classVoxel_1_1ParameterDMLParser.xhtml#a045dd911c20e776e52ca27a94e145cb3" target="_top" xlink:title="Voxel::ParameterDMLParser\l::_getParameter">
<polygon fill="none" stroke="black" points="498,-129 498,-159 640,-159 640,-129 498,-129"/>
<text text-anchor="start" x="506" y="-147" font-family="Helvetica,sans-Serif" font-size="10.00">Voxel::ParameterDMLParser</text>
<text text-anchor="middle" x="569" y="-136" font-family="Helvetica,sans-Serif" font-size="10.00">::_getParameter</text>
</a>
</g>
</g>
<!-- Node3&#45;&gt;Node20 -->
<g id="edge19" class="edge"><title>Node3&#45;&gt;Node20</title>
<path fill="none" stroke="midnightblue" d="M472.101,-157.077C480.706,-155.904 489.412,-154.716 497.888,-153.561"/>
<polygon fill="midnightblue" stroke="midnightblue" points="471.501,-153.626 462.066,-158.446 472.447,-160.562 471.501,-153.626"/>
</g>
<!-- Node4&#45;&gt;Node5 -->
<g id="edge4" class="edge"><title>Node4&#45;&gt;Node5</title>
<path fill="none" stroke="midnightblue" d="M620.089,-213.217C647.246,-203.033 680.358,-190.616 705.81,-181.071"/>
<polygon fill="midnightblue" stroke="midnightblue" points="618.512,-210.07 610.378,-216.858 620.97,-216.624 618.512,-210.07"/>
</g>
<!-- Node6 -->
<g id="node6" class="node"><title>Node6</title>
<g id="a_node6"><a xlink:href="DMLParseTest_8cpp.xhtml#a0ddf1224851353fc92bfbff6f499fa97" target="_top" xlink:title="main">
<polygon fill="none" stroke="black" points="912,-225.5 912,-244.5 950,-244.5 950,-225.5 912,-225.5"/>
<text text-anchor="middle" x="931" y="-232.5" font-family="Helvetica,sans-Serif" font-size="10.00">main</text>
</a>
</g>
</g>
<!-- Node5&#45;&gt;Node6 -->
<g id="edge5" class="edge"><title>Node5&#45;&gt;Node6</title>
<path fill="none" stroke="midnightblue" d="M786.154,-185.617C806.03,-195.326 830.942,-206.709 854,-215 873.387,-221.971 896.345,-227.676 911.916,-231.184"/>
<polygon fill="midnightblue" stroke="midnightblue" points="787.632,-182.443 777.117,-181.149 784.53,-188.719 787.632,-182.443"/>
</g>
<!-- Node7 -->
<g id="node7" class="node"><title>Node7</title>
<g id="a_node7"><a xlink:href="classVoxel_1_1TI_1_1ToFCalculusCamera.xhtml#aa931ad7b5e4b84779df941814c2a5b17" target="_top" xlink:title="Voxel::TI::ToFCalculusCamera\l::_init">
<polygon fill="none" stroke="black" points="855,-176 855,-206 1007,-206 1007,-176 855,-176"/>
<text text-anchor="start" x="863" y="-194" font-family="Helvetica,sans-Serif" font-size="10.00">Voxel::TI::ToFCalculusCamera</text>
<text text-anchor="middle" x="931" y="-183" font-family="Helvetica,sans-Serif" font-size="10.00">::_init</text>
</a>
</g>
</g>
<!-- Node5&#45;&gt;Node7 -->
<g id="edge6" class="edge"><title>Node5&#45;&gt;Node7</title>
<path fill="none" stroke="midnightblue" d="M828.06,-176.997C836.946,-178.218 845.973,-179.458 854.795,-180.67"/>
<polygon fill="midnightblue" stroke="midnightblue" points="828.489,-173.523 818.106,-175.63 827.536,-180.458 828.489,-173.523"/>
</g>
<!-- Node10 -->
<g id="node10" class="node"><title>Node10</title>
<g id="a_node10"><a xlink:href="classVoxel_1_1TI_1_1ToFHaddockCamera.xhtml#a749a2bbcdbfa69054d523866504743d1" target="_top" xlink:title="Voxel::TI::ToFHaddockCamera\l::_init">
<polygon fill="none" stroke="black" points="854.5,-127 854.5,-157 1007.5,-157 1007.5,-127 854.5,-127"/>
<text text-anchor="start" x="862.5" y="-145" font-family="Helvetica,sans-Serif" font-size="10.00">Voxel::TI::ToFHaddockCamera</text>
<text text-anchor="middle" x="931" y="-134" font-family="Helvetica,sans-Serif" font-size="10.00">::_init</text>
</a>
</g>
</g>
<!-- Node5&#45;&gt;Node10 -->
<g id="edge9" class="edge"><title>Node5&#45;&gt;Node10</title>
<path fill="none" stroke="midnightblue" d="M828.26,-155.416C836.98,-154.266 845.832,-153.099 854.492,-151.957"/>
<polygon fill="midnightblue" stroke="midnightblue" points="827.562,-151.978 818.106,-156.755 828.477,-158.918 827.562,-151.978"/>
</g>
<!-- Node15 -->
<g id="node15" class="node"><title>Node15</title>
<g id="a_node15"><a xlink:href="classVoxel_1_1TI_1_1ToFTintinCamera.xhtml#af894a732f4beedc37144927eec93cc89" target="_top" xlink:title="Voxel::TI::ToFTintinCamera\l::_init">
<polygon fill="none" stroke="black" points="862,-54 862,-84 1000,-84 1000,-54 862,-54"/>
<text text-anchor="start" x="870" y="-72" font-family="Helvetica,sans-Serif" font-size="10.00">Voxel::TI::ToFTintinCamera</text>
<text text-anchor="middle" x="931" y="-61" font-family="Helvetica,sans-Serif" font-size="10.00">::_init</text>
</a>
</g>
</g>
<!-- Node5&#45;&gt;Node15 -->
<g id="edge14" class="edge"><title>Node5&#45;&gt;Node15</title>
<path fill="none" stroke="midnightblue" d="M785.288,-146.127C819.831,-127.716 870.457,-100.734 901.762,-84.0498"/>
<polygon fill="midnightblue" stroke="midnightblue" points="783.616,-143.052 776.438,-150.844 786.909,-149.229 783.616,-143.052"/>
</g>
<!-- Node8 -->
<g id="node8" class="node"><title>Node8</title>
<g id="a_node8"><a xlink:href="classVoxel_1_1TI_1_1CalculusCDKCamera.xhtml#a82eb752fb0d4b63495d2e29b6b8aed2c" target="_top" xlink:title="Voxel::TI::CalculusCDKCamera\l::_init">
<polygon fill="none" stroke="black" points="1044.5,-201 1044.5,-231 1201.5,-231 1201.5,-201 1044.5,-201"/>
<text text-anchor="start" x="1052.5" y="-219" font-family="Helvetica,sans-Serif" font-size="10.00">Voxel::TI::CalculusCDKCamera</text>
<text text-anchor="middle" x="1123" y="-208" font-family="Helvetica,sans-Serif" font-size="10.00">::_init</text>
</a>
</g>
</g>
<!-- Node7&#45;&gt;Node8 -->
<g id="edge7" class="edge"><title>Node7&#45;&gt;Node8</title>
<path fill="none" stroke="midnightblue" d="M1017.22,-202.213C1026.25,-203.401 1035.4,-204.605 1044.33,-205.781"/>
<polygon fill="midnightblue" stroke="midnightblue" points="1017.46,-198.715 1007.09,-200.881 1016.55,-205.655 1017.46,-198.715"/>
</g>
<!-- Node9 -->
<g id="node9" class="node"><title>Node9</title>
<g id="a_node9"><a xlink:href="classVoxel_1_1TI_1_1CalculusCDKCamera.xhtml#af406b1427962d80da9af9fb24e89b239" target="_top" xlink:title="Voxel::TI::CalculusCDKCamera\l::CalculusCDKCamera">
<polygon fill="none" stroke="black" points="1238.5,-201 1238.5,-231 1395.5,-231 1395.5,-201 1238.5,-201"/>
<text text-anchor="start" x="1246.5" y="-219" font-family="Helvetica,sans-Serif" font-size="10.00">Voxel::TI::CalculusCDKCamera</text>
<text text-anchor="middle" x="1317" y="-208" font-family="Helvetica,sans-Serif" font-size="10.00">::CalculusCDKCamera</text>
</a>
</g>
</g>
<!-- Node8&#45;&gt;Node9 -->
<g id="edge8" class="edge"><title>Node8&#45;&gt;Node9</title>
<path fill="none" stroke="midnightblue" d="M1211.6,-216C1220.57,-216 1229.64,-216 1238.48,-216"/>
<polygon fill="midnightblue" stroke="midnightblue" points="1211.54,-212.5 1201.54,-216 1211.54,-219.5 1211.54,-212.5"/>
</g>
<!-- Node11 -->
<g id="node11" class="node"><title>Node11</title>
<g id="a_node11"><a xlink:href="classVoxel_1_1TI_1_1HaddockCDKCamera.xhtml#a7dff103da3145dd303a5bc0db75ae961" target="_top" xlink:title="Voxel::TI::HaddockCDKCamera\l::_init">
<polygon fill="none" stroke="black" points="1044,-152 1044,-182 1202,-182 1202,-152 1044,-152"/>
<text text-anchor="start" x="1052" y="-170" font-family="Helvetica,sans-Serif" font-size="10.00">Voxel::TI::HaddockCDKCamera</text>
<text text-anchor="middle" x="1123" y="-159" font-family="Helvetica,sans-Serif" font-size="10.00">::_init</text>
</a>
</g>
</g>
<!-- Node10&#45;&gt;Node11 -->
<g id="edge10" class="edge"><title>Node10&#45;&gt;Node11</title>
<path fill="none" stroke="midnightblue" d="M1017.76,-153.285C1026.44,-154.427 1035.23,-155.583 1043.82,-156.713"/>
<polygon fill="midnightblue" stroke="midnightblue" points="1018.01,-149.787 1007.64,-151.952 1017.1,-156.727 1018.01,-149.787"/>
</g>
<!-- Node13 -->
<g id="node13" class="node"><title>Node13</title>
<g id="a_node13"><a xlink:href="classVoxel_1_1TI_1_1Voxel14Camera.xhtml#a89011bfb795ff58d3fb8675364b91abe" target="_top" xlink:title="Voxel::TI::Voxel14Camera\l::_init">
<polygon fill="none" stroke="black" points="1057,-103 1057,-133 1189,-133 1189,-103 1057,-103"/>
<text text-anchor="start" x="1065" y="-121" font-family="Helvetica,sans-Serif" font-size="10.00">Voxel::TI::Voxel14Camera</text>
<text text-anchor="middle" x="1123" y="-110" font-family="Helvetica,sans-Serif" font-size="10.00">::_init</text>
</a>
</g>
</g>
<!-- Node10&#45;&gt;Node13 -->
<g id="edge12" class="edge"><title>Node10&#45;&gt;Node13</title>
<path fill="none" stroke="midnightblue" d="M1017.62,-131.185C1030.76,-129.525 1044.13,-127.836 1056.74,-126.244"/>
<polygon fill="midnightblue" stroke="midnightblue" points="1017.12,-127.72 1007.64,-132.446 1018,-134.665 1017.12,-127.72"/>
</g>
<!-- Node12 -->
<g id="node12" class="node"><title>Node12</title>
<g id="a_node12"><a xlink:href="classVoxel_1_1TI_1_1HaddockCDKCamera.xhtml#ac2c5e82486c4cc3f5edada38cd4274c5" target="_top" xlink:title="Voxel::TI::HaddockCDKCamera\l::HaddockCDKCamera">
<polygon fill="none" stroke="black" points="1238,-152 1238,-182 1396,-182 1396,-152 1238,-152"/>
<text text-anchor="start" x="1246" y="-170" font-family="Helvetica,sans-Serif" font-size="10.00">Voxel::TI::HaddockCDKCamera</text>
<text text-anchor="middle" x="1317" y="-159" font-family="Helvetica,sans-Serif" font-size="10.00">::HaddockCDKCamera</text>
</a>
</g>
</g>
<!-- Node11&#45;&gt;Node12 -->
<g id="edge11" class="edge"><title>Node11&#45;&gt;Node12</title>
<path fill="none" stroke="midnightblue" d="M1212.15,-167C1220.77,-167 1229.47,-167 1237.98,-167"/>
<polygon fill="midnightblue" stroke="midnightblue" points="1212.09,-163.5 1202.09,-167 1212.09,-170.5 1212.09,-163.5"/>
</g>
<!-- Node14 -->
<g id="node14" class="node"><title>Node14</title>
<g id="a_node14"><a xlink:href="classVoxel_1_1TI_1_1Voxel14Camera.xhtml#a606f13ed73547ee43f585e241b42dd5d" target="_top" xlink:title="Voxel::TI::Voxel14Camera\l::Voxel14Camera">
<polygon fill="none" stroke="black" points="1251,-103 1251,-133 1383,-133 1383,-103 1251,-103"/>
<text text-anchor="start" x="1259" y="-121" font-family="Helvetica,sans-Serif" font-size="10.00">Voxel::TI::Voxel14Camera</text>
<text text-anchor="middle" x="1317" y="-110" font-family="Helvetica,sans-Serif" font-size="10.00">::Voxel14Camera</text>
</a>
</g>
</g>
<!-- Node13&#45;&gt;Node14 -->
<g id="edge13" class="edge"><title>Node13&#45;&gt;Node14</title>
<path fill="none" stroke="midnightblue" d="M1199.42,-118C1216.38,-118 1234.24,-118 1250.74,-118"/>
<polygon fill="midnightblue" stroke="midnightblue" points="1199,-114.5 1189,-118 1199,-121.5 1199,-114.5"/>
</g>
<!-- Node16 -->
<g id="node16" class="node"><title>Node16</title>
<g id="a_node16"><a xlink:href="classVoxel_1_1TI_1_1TintinCDKCamera.xhtml#af5337f40c1a075c026263ea9871a20ee" target="_top" xlink:title="Voxel::TI::TintinCDKCamera\l::_init">
<polygon fill="none" stroke="black" points="1051.5,-54 1051.5,-84 1194.5,-84 1194.5,-54 1051.5,-54"/>
<text text-anchor="start" x="1059.5" y="-72" font-family="Helvetica,sans-Serif" font-size="10.00">Voxel::TI::TintinCDKCamera</text>
<text text-anchor="middle" x="1123" y="-61" font-family="Helvetica,sans-Serif" font-size="10.00">::_init</text>
</a>
</g>
</g>
<!-- Node15&#45;&gt;Node16 -->
<g id="edge15" class="edge"><title>Node15&#45;&gt;Node16</title>
<path fill="none" stroke="midnightblue" d="M1010.31,-69C1023.86,-69 1037.88,-69 1051.21,-69"/>
<polygon fill="midnightblue" stroke="midnightblue" points="1010.06,-65.5001 1000.06,-69 1010.06,-72.5001 1010.06,-65.5001"/>
</g>
<!-- Node18 -->
<g id="node18" class="node"><title>Node18</title>
<g id="a_node18"><a xlink:href="classVoxel_1_1TI_1_1VoxelDCamera.xhtml#a47b15c40c3fbcc52ae1eb3c9fe74d9f1" target="_top" xlink:title="Voxel::TI::VoxelDCamera\l::_init">
<polygon fill="none" stroke="black" points="1058.5,-5 1058.5,-35 1187.5,-35 1187.5,-5 1058.5,-5"/>
<text text-anchor="start" x="1066.5" y="-23" font-family="Helvetica,sans-Serif" font-size="10.00">Voxel::TI::VoxelDCamera</text>
<text text-anchor="middle" x="1123" y="-12" font-family="Helvetica,sans-Serif" font-size="10.00">::_init</text>
</a>
</g>
</g>
<!-- Node15&#45;&gt;Node18 -->
<g id="edge17" class="edge"><title>Node15&#45;&gt;Node18</title>
<path fill="none" stroke="midnightblue" d="M1000.05,-51.4502C1020.91,-46.0694 1043.67,-40.201 1063.81,-35.0062"/>
<polygon fill="midnightblue" stroke="midnightblue" points="999.107,-48.079 990.297,-53.9654 1000.85,-54.8572 999.107,-48.079"/>
</g>
<!-- Node17 -->
<g id="node17" class="node"><title>Node17</title>
<g id="a_node17"><a xlink:href="classVoxel_1_1TI_1_1TintinCDKCamera.xhtml#a7a9918bb8b6d76bc3511536019847c1d" target="_top" xlink:title="Voxel::TI::TintinCDKCamera\l::TintinCDKCamera">
<polygon fill="none" stroke="black" points="1245.5,-54 1245.5,-84 1388.5,-84 1388.5,-54 1245.5,-54"/>
<text text-anchor="start" x="1253.5" y="-72" font-family="Helvetica,sans-Serif" font-size="10.00">Voxel::TI::TintinCDKCamera</text>
<text text-anchor="middle" x="1317" y="-61" font-family="Helvetica,sans-Serif" font-size="10.00">::TintinCDKCamera</text>
</a>
</g>
</g>
<!-- Node16&#45;&gt;Node17 -->
<g id="edge16" class="edge"><title>Node16&#45;&gt;Node17</title>
<path fill="none" stroke="midnightblue" d="M1204.89,-69C1218.38,-69 1232.27,-69 1245.47,-69"/>
<polygon fill="midnightblue" stroke="midnightblue" points="1204.68,-65.5001 1194.68,-69 1204.68,-72.5001 1204.68,-65.5001"/>
</g>
<!-- Node19 -->
<g id="node19" class="node"><title>Node19</title>
<g id="a_node19"><a xlink:href="classVoxel_1_1TI_1_1VoxelDCamera.xhtml#a4a95cf8257e2f9f5fd34386b87f6663a" target="_top" xlink:title="Voxel::TI::VoxelDCamera\l::VoxelDCamera">
<polygon fill="none" stroke="black" points="1252.5,-5 1252.5,-35 1381.5,-35 1381.5,-5 1252.5,-5"/>
<text text-anchor="start" x="1260.5" y="-23" font-family="Helvetica,sans-Serif" font-size="10.00">Voxel::TI::VoxelDCamera</text>
<text text-anchor="middle" x="1317" y="-12" font-family="Helvetica,sans-Serif" font-size="10.00">::VoxelDCamera</text>
</a>
</g>
</g>
<!-- Node18&#45;&gt;Node19 -->
<g id="edge18" class="edge"><title>Node18&#45;&gt;Node19</title>
<path fill="none" stroke="midnightblue" d="M1197.79,-20C1215.72,-20 1234.75,-20 1252.18,-20"/>
<polygon fill="midnightblue" stroke="midnightblue" points="1197.67,-16.5001 1187.67,-20 1197.67,-23.5001 1197.67,-16.5001"/>
</g>
<!-- Node20&#45;&gt;Node5 -->
<g id="edge20" class="edge"><title>Node20&#45;&gt;Node5</title>
<path fill="none" stroke="midnightblue" d="M650.101,-154.013C658.706,-155.088 667.412,-156.177 675.888,-157.236"/>
<polygon fill="midnightblue" stroke="midnightblue" points="650.423,-150.526 640.066,-152.758 649.554,-157.472 650.423,-150.526"/>
</g>
<!-- Node23 -->
<g id="node23" class="node"><title>Node23</title>
<g id="a_node23"><a xlink:href="classTinyXML2_1_1XMLElement.xhtml#a1f37b0bb41320c4121515755b8a057a4" target="_top" xlink:title="TinyXML2::XMLElement\l::ParseDeep">
<polygon fill="none" stroke="black" points="329.5,-41 329.5,-71 452.5,-71 452.5,-41 329.5,-41"/>
<text text-anchor="start" x="337.5" y="-59" font-family="Helvetica,sans-Serif" font-size="10.00">TinyXML2::XMLElement</text>
<text text-anchor="middle" x="391" y="-48" font-family="Helvetica,sans-Serif" font-size="10.00">::ParseDeep</text>
</a>
</g>
</g>
<!-- Node22&#45;&gt;Node23 -->
<g id="edge26" class="edge"><title>Node22&#45;&gt;Node23</title>
<path fill="none" stroke="midnightblue" d="M293.977,-60.5999C305.727,-60.037 317.815,-59.458 329.282,-58.9086"/>
<polygon fill="midnightblue" stroke="midnightblue" points="293.584,-57.1146 283.763,-61.0892 293.919,-64.1066 293.584,-57.1146"/>
</g>
</g>
</svg>
        <g id="navigator" transform="translate(0 0)" fill="#404254">
                <rect fill="#f2f5e9" fill-opacity="0.5" stroke="#606060" stroke-width=".5" x="0" y="0" width="60" height="60"/>
                <use id="zoomplus" xlink:href="#zoomPlus" x="17" y="9" onmousedown="handleZoom(evt,'in')"/>
                <use id="zoomminus" xlink:href="#zoomMin" x="42" y="9" onmousedown="handleZoom(evt,'out')"/>
                <use id="reset" xlink:href="#resetDef" x="30" y="36" onmousedown="handleReset()"/>
                <g id="arrowUp" xlink:href="#dirArrow" transform="translate(30 24)" onmousedown="handlePan(0,-1)">
                  <use xlink:href="#rim" fill="#404040">
                        <set attributeName="fill" to="#808080" begin="arrowUp.mouseover" end="arrowUp.mouseout"/>
                  </use>
                  <path fill="none" stroke="white" stroke-width="1.5" d="M0,-3.0v7 M-2.5,-0.5L0,-3.0L2.5,-0.5"/>
                </g>
                <g id="arrowRight" xlink:href="#dirArrow" transform="rotate(90) translate(36 -43)" onmousedown="handlePan(1,0)">
                  <use xlink:href="#rim" fill="#404040">
                        <set attributeName="fill" to="#808080" begin="arrowRight.mouseover" end="arrowRight.mouseout"/>
                  </use>
                  <path fill="none" stroke="white" stroke-width="1.5" d="M0,-3.0v7 M-2.5,-0.5L0,-3.0L2.5,-0.5"/>
                </g>
                <g id="arrowDown" xlink:href="#dirArrow" transform="rotate(180) translate(-30 -48)" onmousedown="handlePan(0,1)">
                  <use xlink:href="#rim" fill="#404040">
                        <set attributeName="fill" to="#808080" begin="arrowDown.mouseover" end="arrowDown.mouseout"/>
                  </use>
                  <path fill="none" stroke="white" stroke-width="1.5" d="M0,-3.0v7 M-2.5,-0.5L0,-3.0L2.5,-0.5"/>
                </g>
                <g id="arrowLeft" xlink:href="#dirArrow" transform="rotate(270) translate(-36 17)" onmousedown="handlePan(-1,0)">
                  <use xlink:href="#rim" fill="#404040">
                        <set attributeName="fill" to="#808080" begin="arrowLeft.mouseover" end="arrowLeft.mouseout"/>
                  </use>
                  <path fill="none" stroke="white" stroke-width="1.5" d="M0,-3.0v7 M-2.5,-0.5L0,-3.0L2.5,-0.5"/>
                </g>
        </g>
        <svg viewBox="0 0 15 15" width="100%" height="30px" preserveAspectRatio="xMaxYMin meet">
         <g id="arrow_out" transform="scale(0.3 0.3)">
          <a xlink:href="classTinyXML2_1_1XMLElement_afd22b33b33e7128f217f96ec5b2f1871_icgraph_org.svg" target="_base">
           <rect id="button" ry="5" rx="5" y="6" x="6" height="38" width="38"
                fill="#f2f5e9" fill-opacity="0.5" stroke="#606060" stroke-width="1.0"/>
           <path id="arrow"
             d="M 11.500037,31.436501 C 11.940474,20.09759 22.043105,11.32322 32.158766,21.979434 L 37.068811,17.246167 C 37.068811,17.246167 37.088388,32 37.088388,32 L 22.160133,31.978069 C 22.160133,31.978069 26.997745,27.140456 26.997745,27.140456 C 18.528582,18.264221 13.291696,25.230495 11.500037,31.436501 z"
             style="fill:#404040;"/>
          </a>
         </g>
        </svg>
</svg>
