<?xml version="1.0" encoding="UTF-8" standalone="no"?>
<!DOCTYPE svg PUBLIC "-//W3C//DTD SVG 1.1//EN"
 "http://www.w3.org/Graphics/SVG/1.1/DTD/svg11.dtd">
<!-- Generated by graphviz version 2.36.0 (20140111.2315)
 -->
<!-- Title: Voxel::USBBulkStreamer::USBBulkStreamerPrivate::run Pages: 1 -->
<svg width="532pt" height="67pt"
 viewBox="0.00 0.00 532.00 67.00" xmlns="http://www.w3.org/2000/svg" xmlns:xlink="http://www.w3.org/1999/xlink">
<g id="graph0" class="graph" transform="scale(1 1) rotate(0) translate(4 63)">
<title>Voxel::USBBulkStreamer::USBBulkStreamerPrivate::run</title>
<!-- Node1 -->
<g id="node1" class="node"><title>Node1</title>
<polygon fill="#bfbfbf" stroke="black" points="0.5,-29 0.5,-59 153.5,-59 153.5,-29 0.5,-29"/>
<text text-anchor="start" x="8.5" y="-47" font-family="Helvetica,sans-Serif" font-size="10.00">Voxel::USBBulkStreamer</text>
<text text-anchor="middle" x="77" y="-36" font-family="Helvetica,sans-Serif" font-size="10.00">::USBBulkStreamerPrivate::run</text>
</g>
<!-- Node2 -->
<g id="node2" class="node"><title>Node2</title>
<g id="a_node2"><a xlink:href="classVoxel_1_1Timer.xhtml#a363a248fe7dd94ae58681cf145b23a23" target="_top" xlink:title="Voxel::Timer::getCurentRealTime">
<polygon fill="none" stroke="black" points="360.5,-34.5 360.5,-53.5 523.5,-53.5 523.5,-34.5 360.5,-34.5"/>
<text text-anchor="middle" x="442" y="-41.5" font-family="Helvetica,sans-Serif" font-size="10.00">Voxel::Timer::getCurentRealTime</text>
</a>
</g>
</g>
<!-- Node1&#45;&gt;Node2 -->
<g id="edge1" class="edge"><title>Node1&#45;&gt;Node2</title>
<path fill="none" stroke="midnightblue" d="M153.593,-47.8347C165.764,-48.3196 178.227,-48.7373 190,-49 249.541,-50.3284 264.458,-50.2717 324,-49 332.566,-48.8171 341.482,-48.5589 350.401,-48.2551"/>
<polygon fill="midnightblue" stroke="midnightblue" points="350.585,-51.7509 360.453,-47.8945 350.334,-44.7554 350.585,-51.7509"/>
</g>
<!-- Node3 -->
<g id="node3" class="node"><title>Node3</title>
<g id="a_node3"><a xlink:href="classVoxel_1_1USBBulkStreamer_1_1USBBulkStreamerPrivate.xhtml#a235bc52293ca4e14a639f58c61777de1" target="_top" xlink:title="Voxel::USBBulkStreamer\l::USBBulkStreamerPrivate\l::putBuffer">
<polygon fill="none" stroke="black" points="190,0.5 190,-40.5 324,-40.5 324,0.5 190,0.5"/>
<text text-anchor="start" x="198" y="-28.5" font-family="Helvetica,sans-Serif" font-size="10.00">Voxel::USBBulkStreamer</text>
<text text-anchor="start" x="198" y="-17.5" font-family="Helvetica,sans-Serif" font-size="10.00">::USBBulkStreamerPrivate</text>
<text text-anchor="middle" x="257" y="-6.5" font-family="Helvetica,sans-Serif" font-size="10.00">::putBuffer</text>
</a>
</g>
</g>
<!-- Node1&#45;&gt;Node3 -->
<g id="edge2" class="edge"><title>Node1&#45;&gt;Node3</title>
<path fill="none" stroke="midnightblue" d="M153.746,-33.787C162.383,-32.6225 171.191,-31.4349 179.834,-30.2696"/>
<polygon fill="midnightblue" stroke="midnightblue" points="180.441,-33.7195 189.884,-28.9145 179.506,-26.7822 180.441,-33.7195"/>
</g>
<!-- Node3&#45;&gt;Node2 -->
<g id="edge3" class="edge"><title>Node3&#45;&gt;Node2</title>
<path fill="none" stroke="midnightblue" d="M324.067,-28.6646C335.232,-30.1288 346.946,-31.665 358.468,-33.1761"/>
<polygon fill="midnightblue" stroke="midnightblue" points="358.155,-36.665 368.526,-34.4952 359.066,-29.7245 358.155,-36.665"/>
</g>
</g>
</svg>
