<?xml version="1.0" encoding="UTF-8" standalone="no"?>
<!DOCTYPE svg PUBLIC "-//W3C//DTD SVG 1.1//EN"
 "http://www.w3.org/Graphics/SVG/1.1/DTD/svg11.dtd">
<!-- Generated by graphviz version 2.36.0 (20140111.2315)
 -->
<!-- Title: Voxel::Streamer::isInitialized Pages: 1 -->
<svg width="576pt" height="175pt"
 viewBox="0.00 0.00 576.00 175.00" xmlns="http://www.w3.org/2000/svg" xmlns:xlink="http://www.w3.org/1999/xlink">
<g id="graph0" class="graph" transform="scale(1 1) rotate(0) translate(4 171)">
<title>Voxel::Streamer::isInitialized</title>
<!-- Node1 -->
<g id="node1" class="node"><title>Node1</title>
<polygon fill="#bfbfbf" stroke="black" points="0,-96.5 0,-115.5 142,-115.5 142,-96.5 0,-96.5"/>
<text text-anchor="middle" x="71" y="-103.5" font-family="Helvetica,sans-Serif" font-size="10.00">Voxel::Streamer::isInitialized</text>
</g>
<!-- Node2 -->
<g id="node2" class="node"><title>Node2</title>
<g id="a_node2"><a xlink:href="classVoxel_1_1Streamer.xhtml#a22a51cee97c9db6de5a1ab5e87cc9c9d" target="_top" xlink:title="Voxel::Streamer::capture">
<polygon fill="none" stroke="black" points="178.5,-96.5 178.5,-115.5 303.5,-115.5 303.5,-96.5 178.5,-96.5"/>
<text text-anchor="middle" x="241" y="-103.5" font-family="Helvetica,sans-Serif" font-size="10.00">Voxel::Streamer::capture</text>
</a>
</g>
</g>
<!-- Node1&#45;&gt;Node2 -->
<g id="edge1" class="edge"><title>Node1&#45;&gt;Node2</title>
<path fill="none" stroke="midnightblue" d="M152.432,-106C161.124,-106 169.868,-106 178.289,-106"/>
<polygon fill="midnightblue" stroke="midnightblue" points="152.274,-102.5 142.274,-106 152.274,-109.5 152.274,-102.5"/>
</g>
<!-- Node4 -->
<g id="node4" class="node"><title>Node4</title>
<g id="a_node4"><a xlink:href="classVoxel_1_1Streamer.xhtml#a68c34331e30aa486949d145be3bd4e99" target="_top" xlink:title="Voxel::Streamer::start">
<polygon fill="none" stroke="black" points="184.5,-134.5 184.5,-153.5 297.5,-153.5 297.5,-134.5 184.5,-134.5"/>
<text text-anchor="middle" x="241" y="-141.5" font-family="Helvetica,sans-Serif" font-size="10.00">Voxel::Streamer::start</text>
</a>
</g>
</g>
<!-- Node1&#45;&gt;Node4 -->
<g id="edge3" class="edge"><title>Node1&#45;&gt;Node4</title>
<path fill="none" stroke="midnightblue" d="M124.276,-117.824C147.961,-123.182 175.59,-129.431 197.911,-134.48"/>
<polygon fill="midnightblue" stroke="midnightblue" points="124.919,-114.381 114.393,-115.589 123.375,-121.209 124.919,-114.381"/>
</g>
<!-- Node6 -->
<g id="node6" class="node"><title>Node6</title>
<g id="a_node6"><a xlink:href="classVoxel_1_1Streamer.xhtml#a3cb2a1d6b7ae774f34726a079c6e032e" target="_top" xlink:title="Voxel::Streamer::stop">
<polygon fill="none" stroke="black" points="185,-55.5 185,-74.5 297,-74.5 297,-55.5 185,-55.5"/>
<text text-anchor="middle" x="241" y="-62.5" font-family="Helvetica,sans-Serif" font-size="10.00">Voxel::Streamer::stop</text>
</a>
</g>
</g>
<!-- Node1&#45;&gt;Node6 -->
<g id="edge6" class="edge"><title>Node1&#45;&gt;Node6</title>
<path fill="none" stroke="midnightblue" d="M120.808,-94.0884C146.298,-87.8677 177.066,-80.3589 200.956,-74.5286"/>
<polygon fill="midnightblue" stroke="midnightblue" points="119.85,-90.7195 110.965,-96.4907 121.51,-97.52 119.85,-90.7195"/>
</g>
<!-- Node3 -->
<g id="node3" class="node"><title>Node3</title>
<g id="a_node3"><a xlink:href="UVCStreamerTest_8cpp.xhtml#a0ddf1224851353fc92bfbff6f499fa97" target="_top" xlink:title="main">
<polygon fill="none" stroke="black" points="435,-98.5 435,-117.5 473,-117.5 473,-98.5 435,-98.5"/>
<text text-anchor="middle" x="454" y="-105.5" font-family="Helvetica,sans-Serif" font-size="10.00">main</text>
</a>
</g>
</g>
<!-- Node2&#45;&gt;Node3 -->
<g id="edge2" class="edge"><title>Node2&#45;&gt;Node3</title>
<path fill="none" stroke="midnightblue" d="M313.759,-106.68C356.752,-107.088 408.1,-107.574 434.816,-107.828"/>
<polygon fill="midnightblue" stroke="midnightblue" points="313.63,-103.179 303.597,-106.584 313.563,-110.179 313.63,-103.179"/>
</g>
<!-- Node4&#45;&gt;Node3 -->
<g id="edge5" class="edge"><title>Node4&#45;&gt;Node3</title>
<path fill="none" stroke="midnightblue" d="M307.793,-132.775C351.844,-125.259 406.708,-115.898 434.706,-111.121"/>
<polygon fill="midnightblue" stroke="midnightblue" points="306.983,-129.362 297.714,-134.494 308.16,-136.263 306.983,-129.362"/>
</g>
<!-- Node5 -->
<g id="node5" class="node"><title>Node5</title>
<g id="a_node5"><a xlink:href="classVoxel_1_1TI_1_1RTS5825CameraUVCStreamer.xhtml#a1fa44ca04c55a5013030131ee76aa776" target="_top" xlink:title="Voxel::TI::RTS5825Camera\lUVCStreamer::RTS5825CameraUVCStreamer">
<polygon fill="none" stroke="black" points="343.5,-137 343.5,-167 564.5,-167 564.5,-137 343.5,-137"/>
<text text-anchor="start" x="351.5" y="-155" font-family="Helvetica,sans-Serif" font-size="10.00">Voxel::TI::RTS5825Camera</text>
<text text-anchor="middle" x="454" y="-144" font-family="Helvetica,sans-Serif" font-size="10.00">UVCStreamer::RTS5825CameraUVCStreamer</text>
</a>
</g>
</g>
<!-- Node4&#45;&gt;Node5 -->
<g id="edge4" class="edge"><title>Node4&#45;&gt;Node5</title>
<path fill="none" stroke="midnightblue" d="M307.91,-146.499C319.251,-146.929 331.306,-147.386 343.432,-147.846"/>
<polygon fill="midnightblue" stroke="midnightblue" points="307.839,-142.994 297.714,-146.112 307.574,-149.989 307.839,-142.994"/>
</g>
<!-- Node6&#45;&gt;Node3 -->
<g id="edge9" class="edge"><title>Node6&#45;&gt;Node3</title>
<path fill="none" stroke="midnightblue" d="M290.565,-76.9586C306.297,-80.6819 323.852,-84.6786 340,-88 373.37,-94.8634 412.578,-101.481 434.936,-105.119"/>
<polygon fill="midnightblue" stroke="midnightblue" points="291.063,-73.4791 280.524,-74.5611 289.438,-80.2878 291.063,-73.4791"/>
</g>
<!-- Node7 -->
<g id="node7" class="node"><title>Node7</title>
<g id="a_node7"><a xlink:href="classVoxel_1_1TI_1_1RTS5825CameraUVCStreamer.xhtml#afe68c9f9d41f76de511e93d1b3e0ca27" target="_top" xlink:title="Voxel::TI::RTS5825Camera\lUVCStreamer::~RTS5825CameraUVCStreamer">
<polygon fill="none" stroke="black" points="340.5,-49 340.5,-79 567.5,-79 567.5,-49 340.5,-49"/>
<text text-anchor="start" x="348.5" y="-67" font-family="Helvetica,sans-Serif" font-size="10.00">Voxel::TI::RTS5825Camera</text>
<text text-anchor="middle" x="454" y="-56" font-family="Helvetica,sans-Serif" font-size="10.00">UVCStreamer::~RTS5825CameraUVCStreamer</text>
</a>
</g>
</g>
<!-- Node6&#45;&gt;Node7 -->
<g id="edge7" class="edge"><title>Node6&#45;&gt;Node7</title>
<path fill="none" stroke="midnightblue" d="M307.483,-64.6897C318.032,-64.6397 329.208,-64.5867 340.491,-64.5332"/>
<polygon fill="midnightblue" stroke="midnightblue" points="307.145,-61.1911 297.162,-64.7386 307.179,-68.191 307.145,-61.1911"/>
</g>
<!-- Node8 -->
<g id="node8" class="node"><title>Node8</title>
<g id="a_node8"><a xlink:href="classVoxel_1_1UVCStreamer.xhtml#a3310a4b702610446c70967ccc6b23b14" target="_top" xlink:title="Voxel::UVCStreamer\l::~UVCStreamer">
<polygon fill="none" stroke="black" points="399.5,-0 399.5,-30 508.5,-30 508.5,-0 399.5,-0"/>
<text text-anchor="start" x="407.5" y="-18" font-family="Helvetica,sans-Serif" font-size="10.00">Voxel::UVCStreamer</text>
<text text-anchor="middle" x="454" y="-7" font-family="Helvetica,sans-Serif" font-size="10.00">::~UVCStreamer</text>
</a>
</g>
</g>
<!-- Node6&#45;&gt;Node8 -->
<g id="edge8" class="edge"><title>Node6&#45;&gt;Node8</title>
<path fill="none" stroke="midnightblue" d="M286.428,-52.7094C303.173,-48.2098 322.418,-43.1966 340,-39 359.313,-34.3903 380.587,-29.7567 399.419,-25.807"/>
<polygon fill="midnightblue" stroke="midnightblue" points="285.101,-49.4425 276.362,-55.4327 286.929,-56.1996 285.101,-49.4425"/>
</g>
</g>
</svg>
