<?xml version="1.0" encoding="UTF-8" standalone="no"?>
<!DOCTYPE svg PUBLIC "-//W3C//DTD SVG 1.1//EN"
 "http://www.w3.org/Graphics/SVG/1.1/DTD/svg11.dtd">
<!-- Generated by graphviz version 2.36.0 (20140111.2315)
 -->
<!-- Title: Voxel::PCLViewer::start Pages: 1 -->
<svg width="282pt" height="87pt"
 viewBox="0.00 0.00 282.00 87.00" xmlns="http://www.w3.org/2000/svg" xmlns:xlink="http://www.w3.org/1999/xlink">
<g id="graph0" class="graph" transform="scale(1 1) rotate(0) translate(4 83)">
<title>Voxel::PCLViewer::start</title>
<!-- Node1 -->
<g id="node1" class="node"><title>Node1</title>
<polygon fill="#bfbfbf" stroke="black" points="0,-29.5 0,-48.5 122,-48.5 122,-29.5 0,-29.5"/>
<text text-anchor="middle" x="61" y="-36.5" font-family="Helvetica,sans-Serif" font-size="10.00">Voxel::PCLViewer::start</text>
</g>
<!-- Node2 -->
<g id="node2" class="node"><title>Node2</title>
<g id="a_node2"><a xlink:href="classVoxel_1_1PCLViewer.xhtml#ae1a7fb4413b4cac99350cc9093820544" target="_top" xlink:title="Voxel::PCLViewer::\l_cloudRenderCallback">
<polygon fill="none" stroke="black" points="158.5,-49 158.5,-79 273.5,-79 273.5,-49 158.5,-49"/>
<text text-anchor="start" x="166.5" y="-67" font-family="Helvetica,sans-Serif" font-size="10.00">Voxel::PCLViewer::</text>
<text text-anchor="middle" x="216" y="-56" font-family="Helvetica,sans-Serif" font-size="10.00">_cloudRenderCallback</text>
</a>
</g>
</g>
<!-- Node1&#45;&gt;Node2 -->
<g id="edge1" class="edge"><title>Node1&#45;&gt;Node2</title>
<path fill="none" stroke="midnightblue" d="M120.279,-48.5227C129.458,-50.0225 139.008,-51.583 148.358,-53.1108"/>
<polygon fill="midnightblue" stroke="midnightblue" points="147.965,-56.5929 158.399,-54.7514 149.094,-49.6845 147.965,-56.5929"/>
</g>
<!-- Node3 -->
<g id="node3" class="node"><title>Node3</title>
<g id="a_node3"><a xlink:href="classVoxel_1_1PCLViewer.xhtml#a059851bce755b00c6ad964c3b3bfe429" target="_top" xlink:title="Voxel::PCLViewer::\l_renderLoop">
<polygon fill="none" stroke="black" points="164.5,-0 164.5,-30 267.5,-30 267.5,-0 164.5,-0"/>
<text text-anchor="start" x="172.5" y="-18" font-family="Helvetica,sans-Serif" font-size="10.00">Voxel::PCLViewer::</text>
<text text-anchor="middle" x="216" y="-7" font-family="Helvetica,sans-Serif" font-size="10.00">_renderLoop</text>
</a>
</g>
</g>
<!-- Node1&#45;&gt;Node3 -->
<g id="edge2" class="edge"><title>Node1&#45;&gt;Node3</title>
<path fill="none" stroke="midnightblue" d="M122.031,-29.5834C132.562,-27.9314 143.531,-26.2109 154.086,-24.5551"/>
<polygon fill="midnightblue" stroke="midnightblue" points="154.715,-27.9994 164.052,-22.9919 153.63,-21.084 154.715,-27.9994"/>
</g>
</g>
</svg>
