<?xml version="1.0" encoding="UTF-8" standalone="no"?>
<!DOCTYPE svg PUBLIC "-//W3C//DTD SVG 1.1//EN"
 "http://www.w3.org/Graphics/SVG/1.1/DTD/svg11.dtd">
<!-- Generated by graphviz version 2.36.0 (20140111.2315)
 -->
<!-- Title: Voxel::TI::ToFDepthFrameGenerator Pages: 1 -->
<svg width="152pt" height="152pt"
 viewBox="0.00 0.00 152.00 152.00" xmlns="http://www.w3.org/2000/svg" xmlns:xlink="http://www.w3.org/1999/xlink">
<g id="graph0" class="graph" transform="scale(1 1) rotate(0) translate(4 148)">
<title>Voxel::TI::ToFDepthFrameGenerator</title>
<!-- Node1 -->
<g id="node1" class="node"><title>Node1</title>
<polygon fill="#bfbfbf" stroke="black" points="5,-1 5,-31 139,-31 139,-1 5,-1"/>
<text text-anchor="start" x="13" y="-19" font-family="Helvetica,sans-Serif" font-size="10.00">Voxel::TI::ToFDepthFrame</text>
<text text-anchor="middle" x="72" y="-8" font-family="Helvetica,sans-Serif" font-size="10.00">Generator</text>
</g>
<!-- Node2 -->
<g id="node2" class="node"><title>Node2</title>
<g id="a_node2"><a xlink:href="classVoxel_1_1DepthFrameGenerator.xhtml" target="_top" xlink:title="Voxel::DepthFrameGenerator">
<polygon fill="none" stroke="black" points="0,-68.5 0,-87.5 144,-87.5 144,-68.5 0,-68.5"/>
<text text-anchor="middle" x="72" y="-75.5" font-family="Helvetica,sans-Serif" font-size="10.00">Voxel::DepthFrameGenerator</text>
</a>
</g>
</g>
<!-- Node2&#45;&gt;Node1 -->
<g id="edge1" class="edge"><title>Node2&#45;&gt;Node1</title>
<path fill="none" stroke="midnightblue" d="M72,-58.3707C72,-49.5849 72,-39.2721 72,-31.1408"/>
<polygon fill="midnightblue" stroke="midnightblue" points="68.5001,-58.4034 72,-68.4035 75.5001,-58.4035 68.5001,-58.4034"/>
</g>
<!-- Node3 -->
<g id="node3" class="node"><title>Node3</title>
<g id="a_node3"><a xlink:href="classVoxel_1_1FrameGenerator.xhtml" target="_top" xlink:title="Voxel::FrameGenerator">
<polygon fill="none" stroke="black" points="13,-124.5 13,-143.5 131,-143.5 131,-124.5 13,-124.5"/>
<text text-anchor="middle" x="72" y="-131.5" font-family="Helvetica,sans-Serif" font-size="10.00">Voxel::FrameGenerator</text>
</a>
</g>
</g>
<!-- Node3&#45;&gt;Node2 -->
<g id="edge2" class="edge"><title>Node3&#45;&gt;Node2</title>
<path fill="none" stroke="midnightblue" d="M72,-113.805C72,-104.91 72,-94.7798 72,-87.7511"/>
<polygon fill="midnightblue" stroke="midnightblue" points="68.5001,-114.083 72,-124.083 75.5001,-114.083 68.5001,-114.083"/>
</g>
</g>
</svg>
