<?xml version="1.0" encoding="UTF-8" standalone="no"?>
<!DOCTYPE svg PUBLIC "-//W3C//DTD SVG 1.1//EN"
 "http://www.w3.org/Graphics/SVG/1.1/DTD/svg11.dtd">
<!-- Generated by graphviz version 2.36.0 (20140111.2315)
 -->
<!-- Title: Voxel::DepthCamera::_getCurrentProfileID Pages: 1 -->
<!--zoomable 283 -->
<svg id="main" version="1.1" xmlns="http://www.w3.org/2000/svg" xmlns:xlink="http://www.w3.org/1999/xlink" xml:space="preserve" onload="init(evt)">
<style type="text/css"><![CDATA[
.edge:hover path { stroke: red; }
.edge:hover polygon { stroke: red; fill: red; }
]]></style>
<script type="text/javascript"><![CDATA[
var edges = document.getElementsByTagName('g');
if (edges && edges.length) {
  for (var i=0;i<edges.length;i++) {
    if (edges[i].id.substr(0,4)=='edge') {
      edges[i].setAttribute('class','edge');
    }
  }
}
]]></script>
        <defs>
                <circle id="rim" cx="0" cy="0" r="7"/>
                <circle id="rim2" cx="0" cy="0" r="3.5"/>
                <g id="zoomPlus">
                        <use xlink:href="#rim" fill="#404040">
                                <set attributeName="fill" to="#808080" begin="zoomplus.mouseover" end="zoomplus.mouseout"/>
                        </use>
                        <path d="M-4,0h8M0,-4v8" fill="none" stroke="white" stroke-width="1.5" pointer-events="none"/>
                </g>
                <g id="zoomMin">
                        <use xlink:href="#rim" fill="#404040">
                                <set attributeName="fill" to="#808080" begin="zoomminus.mouseover" end="zoomminus.mouseout"/>
                        </use>
                        <path d="M-4,0h8" fill="none" stroke="white" stroke-width="1.5" pointer-events="none"/>
                </g>
                <g id="dirArrow">
                        <path fill="none" stroke="white" stroke-width="1.5" d="M0,-3.0v7 M-2.5,-0.5L0,-3.0L2.5,-0.5"/>
                </g>
               <g id="resetDef">
                       <use xlink:href="#rim2" fill="#404040">
                               <set attributeName="fill" to="#808080" begin="reset.mouseover" end="reset.mouseout"/>
                       </use>
               </g>
        </defs>

<script type="text/javascript">
var viewWidth = 1166;
var viewHeight = 283;
var sectionId = 'dynsection-20';
</script>
<script xlink:href="svgpan.js"/>
<svg id="graph" class="graph">
<g id="viewport">
<title>Voxel::DepthCamera::_getCurrentProfileID</title>
<!-- Node1 -->
<g id="node1" class="node"><title>Node1</title>
<polygon fill="#bfbfbf" stroke="black" points="0,-147 0,-177 112,-177 112,-147 0,-147"/>
<text text-anchor="start" x="8" y="-165" font-family="Helvetica,sans-Serif" font-size="10.00">Voxel::DepthCamera</text>
<text text-anchor="middle" x="56" y="-154" font-family="Helvetica,sans-Serif" font-size="10.00">::_getCurrentProfileID</text>
</g>
<!-- Node2 -->
<g id="node2" class="node"><title>Node2</title>
<g id="a_node2"><a xlink:href="classVoxel_1_1DepthCamera.xhtml#aeca7a6cb1df8643f0b38745286ac2844" target="_top" xlink:title="Voxel::DepthCamera\l::_init">
<polygon fill="none" stroke="black" points="148,-147 148,-177 256,-177 256,-147 148,-147"/>
<text text-anchor="start" x="156" y="-165" font-family="Helvetica,sans-Serif" font-size="10.00">Voxel::DepthCamera</text>
<text text-anchor="middle" x="202" y="-154" font-family="Helvetica,sans-Serif" font-size="10.00">::_init</text>
</a>
</g>
</g>
<!-- Node1&#45;&gt;Node2 -->
<g id="edge1" class="edge"><title>Node1&#45;&gt;Node2</title>
<path fill="none" stroke="midnightblue" d="M122.426,-162C130.834,-162 139.361,-162 147.546,-162"/>
<polygon fill="midnightblue" stroke="midnightblue" points="122.262,-158.5 112.262,-162 122.262,-165.5 122.262,-158.5"/>
</g>
<!-- Node3 -->
<g id="node3" class="node"><title>Node3</title>
<g id="a_node3"><a xlink:href="classVoxel_1_1TI_1_1ToFCameraBase.xhtml#a34c90601da611e5cb61bd7a35f03a5f7" target="_top" xlink:title="Voxel::TI::ToFCameraBase\l::_init">
<polygon fill="none" stroke="black" points="292.5,-147 292.5,-177 429.5,-177 429.5,-147 292.5,-147"/>
<text text-anchor="start" x="300.5" y="-165" font-family="Helvetica,sans-Serif" font-size="10.00">Voxel::TI::ToFCameraBase</text>
<text text-anchor="middle" x="361" y="-154" font-family="Helvetica,sans-Serif" font-size="10.00">::_init</text>
</a>
</g>
</g>
<!-- Node2&#45;&gt;Node3 -->
<g id="edge2" class="edge"><title>Node2&#45;&gt;Node3</title>
<path fill="none" stroke="midnightblue" d="M266.157,-162C274.803,-162 283.708,-162 292.428,-162"/>
<polygon fill="midnightblue" stroke="midnightblue" points="266.153,-158.5 256.153,-162 266.153,-165.5 266.153,-158.5"/>
</g>
<!-- Node4 -->
<g id="node4" class="node"><title>Node4</title>
<g id="a_node4"><a xlink:href="classVoxel_1_1TI_1_1ToFCamera.xhtml#a8fd9aae6546d426f494b20633a881442" target="_top" xlink:title="Voxel::TI::ToFCamera\l::_init">
<polygon fill="none" stroke="black" points="466,-147 466,-177 580,-177 580,-147 466,-147"/>
<text text-anchor="start" x="474" y="-165" font-family="Helvetica,sans-Serif" font-size="10.00">Voxel::TI::ToFCamera</text>
<text text-anchor="middle" x="523" y="-154" font-family="Helvetica,sans-Serif" font-size="10.00">::_init</text>
</a>
</g>
</g>
<!-- Node3&#45;&gt;Node4 -->
<g id="edge3" class="edge"><title>Node3&#45;&gt;Node4</title>
<path fill="none" stroke="midnightblue" d="M439.978,-162C448.636,-162 457.325,-162 465.639,-162"/>
<polygon fill="midnightblue" stroke="midnightblue" points="439.854,-158.5 429.854,-162 439.854,-165.5 439.854,-158.5"/>
</g>
<!-- Node5 -->
<g id="node5" class="node"><title>Node5</title>
<g id="a_node5"><a xlink:href="classVoxel_1_1TI_1_1ToFCalculusCamera.xhtml#aa931ad7b5e4b84779df941814c2a5b17" target="_top" xlink:title="Voxel::TI::ToFCalculusCamera\l::_init">
<polygon fill="none" stroke="black" points="617,-220 617,-250 769,-250 769,-220 617,-220"/>
<text text-anchor="start" x="625" y="-238" font-family="Helvetica,sans-Serif" font-size="10.00">Voxel::TI::ToFCalculusCamera</text>
<text text-anchor="middle" x="693" y="-227" font-family="Helvetica,sans-Serif" font-size="10.00">::_init</text>
</a>
</g>
</g>
<!-- Node4&#45;&gt;Node5 -->
<g id="edge4" class="edge"><title>Node4&#45;&gt;Node5</title>
<path fill="none" stroke="midnightblue" d="M568.303,-181.251C596.11,-193.334 631.454,-208.691 657.235,-219.894"/>
<polygon fill="midnightblue" stroke="midnightblue" points="569.376,-177.901 558.81,-177.126 566.586,-184.321 569.376,-177.901"/>
</g>
<!-- Node8 -->
<g id="node8" class="node"><title>Node8</title>
<g id="a_node8"><a xlink:href="classVoxel_1_1TI_1_1ToFHaddockCamera.xhtml#a749a2bbcdbfa69054d523866504743d1" target="_top" xlink:title="Voxel::TI::ToFHaddockCamera\l::_init">
<polygon fill="none" stroke="black" points="616.5,-147 616.5,-177 769.5,-177 769.5,-147 616.5,-147"/>
<text text-anchor="start" x="624.5" y="-165" font-family="Helvetica,sans-Serif" font-size="10.00">Voxel::TI::ToFHaddockCamera</text>
<text text-anchor="middle" x="693" y="-154" font-family="Helvetica,sans-Serif" font-size="10.00">::_init</text>
</a>
</g>
</g>
<!-- Node4&#45;&gt;Node8 -->
<g id="edge7" class="edge"><title>Node4&#45;&gt;Node8</title>
<path fill="none" stroke="midnightblue" d="M590.582,-162C599.043,-162 607.751,-162 616.341,-162"/>
<polygon fill="midnightblue" stroke="midnightblue" points="590.409,-158.5 580.409,-162 590.409,-165.5 590.409,-158.5"/>
</g>
<!-- Node15 -->
<g id="node15" class="node"><title>Node15</title>
<g id="a_node15"><a xlink:href="classVoxel_1_1TI_1_1ToFTintinCamera.xhtml#af894a732f4beedc37144927eec93cc89" target="_top" xlink:title="Voxel::TI::ToFTintinCamera\l::_init">
<polygon fill="none" stroke="black" points="624,-49 624,-79 762,-79 762,-49 624,-49"/>
<text text-anchor="start" x="632" y="-67" font-family="Helvetica,sans-Serif" font-size="10.00">Voxel::TI::ToFTintinCamera</text>
<text text-anchor="middle" x="693" y="-56" font-family="Helvetica,sans-Serif" font-size="10.00">::_init</text>
</a>
</g>
</g>
<!-- Node4&#45;&gt;Node15 -->
<g id="edge14" class="edge"><title>Node4&#45;&gt;Node15</title>
<path fill="none" stroke="midnightblue" d="M558.88,-141.653C590.812,-123.026 637.343,-95.8834 666.089,-79.1149"/>
<polygon fill="midnightblue" stroke="midnightblue" points="556.756,-138.84 549.882,-146.902 560.283,-144.887 556.756,-138.84"/>
</g>
<!-- Node6 -->
<g id="node6" class="node"><title>Node6</title>
<g id="a_node6"><a xlink:href="classVoxel_1_1TI_1_1CalculusCDKCamera.xhtml#a82eb752fb0d4b63495d2e29b6b8aed2c" target="_top" xlink:title="Voxel::TI::CalculusCDKCamera\l::_init">
<polygon fill="none" stroke="black" points="806.5,-245 806.5,-275 963.5,-275 963.5,-245 806.5,-245"/>
<text text-anchor="start" x="814.5" y="-263" font-family="Helvetica,sans-Serif" font-size="10.00">Voxel::TI::CalculusCDKCamera</text>
<text text-anchor="middle" x="885" y="-252" font-family="Helvetica,sans-Serif" font-size="10.00">::_init</text>
</a>
</g>
</g>
<!-- Node5&#45;&gt;Node6 -->
<g id="edge5" class="edge"><title>Node5&#45;&gt;Node6</title>
<path fill="none" stroke="midnightblue" d="M779.219,-246.213C788.249,-247.401 797.398,-248.605 806.334,-249.781"/>
<polygon fill="midnightblue" stroke="midnightblue" points="779.464,-242.715 769.093,-244.881 778.551,-249.655 779.464,-242.715"/>
</g>
<!-- Node7 -->
<g id="node7" class="node"><title>Node7</title>
<g id="a_node7"><a xlink:href="classVoxel_1_1TI_1_1CalculusCDKCamera.xhtml#af406b1427962d80da9af9fb24e89b239" target="_top" xlink:title="Voxel::TI::CalculusCDKCamera\l::CalculusCDKCamera">
<polygon fill="none" stroke="black" points="1000.5,-245 1000.5,-275 1157.5,-275 1157.5,-245 1000.5,-245"/>
<text text-anchor="start" x="1008.5" y="-263" font-family="Helvetica,sans-Serif" font-size="10.00">Voxel::TI::CalculusCDKCamera</text>
<text text-anchor="middle" x="1079" y="-252" font-family="Helvetica,sans-Serif" font-size="10.00">::CalculusCDKCamera</text>
</a>
</g>
</g>
<!-- Node6&#45;&gt;Node7 -->
<g id="edge6" class="edge"><title>Node6&#45;&gt;Node7</title>
<path fill="none" stroke="midnightblue" d="M973.605,-260C982.571,-260 991.635,-260 1000.48,-260"/>
<polygon fill="midnightblue" stroke="midnightblue" points="973.54,-256.5 963.54,-260 973.54,-263.5 973.54,-256.5"/>
</g>
<!-- Node9 -->
<g id="node9" class="node"><title>Node9</title>
<g id="a_node9"><a xlink:href="classVoxel_1_1TI_1_1HaddockCDKCamera.xhtml#a7dff103da3145dd303a5bc0db75ae961" target="_top" xlink:title="Voxel::TI::HaddockCDKCamera\l::_init">
<polygon fill="none" stroke="black" points="806,-196 806,-226 964,-226 964,-196 806,-196"/>
<text text-anchor="start" x="814" y="-214" font-family="Helvetica,sans-Serif" font-size="10.00">Voxel::TI::HaddockCDKCamera</text>
<text text-anchor="middle" x="885" y="-203" font-family="Helvetica,sans-Serif" font-size="10.00">::_init</text>
</a>
</g>
</g>
<!-- Node8&#45;&gt;Node9 -->
<g id="edge8" class="edge"><title>Node8&#45;&gt;Node9</title>
<path fill="none" stroke="midnightblue" d="M762.05,-179.55C782.915,-184.931 805.67,-190.799 825.813,-195.994"/>
<polygon fill="midnightblue" stroke="midnightblue" points="762.855,-176.143 752.297,-177.035 761.107,-182.921 762.855,-176.143"/>
</g>
<!-- Node11 -->
<g id="node11" class="node"><title>Node11</title>
<g id="a_node11"><a xlink:href="classVoxel_1_1TI_1_1RTS5825Camera.xhtml#af7d33e164feac1c63726d2757227c3bc" target="_top" xlink:title="Voxel::TI::RTS5825Camera\l::_init">
<polygon fill="none" stroke="black" points="816,-147 816,-177 954,-177 954,-147 816,-147"/>
<text text-anchor="start" x="824" y="-165" font-family="Helvetica,sans-Serif" font-size="10.00">Voxel::TI::RTS5825Camera</text>
<text text-anchor="middle" x="885" y="-154" font-family="Helvetica,sans-Serif" font-size="10.00">::_init</text>
</a>
</g>
</g>
<!-- Node8&#45;&gt;Node11 -->
<g id="edge10" class="edge"><title>Node8&#45;&gt;Node11</title>
<path fill="none" stroke="midnightblue" d="M779.704,-162C791.764,-162 804.025,-162 815.7,-162"/>
<polygon fill="midnightblue" stroke="midnightblue" points="779.639,-158.5 769.639,-162 779.639,-165.5 779.639,-158.5"/>
</g>
<!-- Node13 -->
<g id="node13" class="node"><title>Node13</title>
<g id="a_node13"><a xlink:href="classVoxel_1_1TI_1_1Voxel14Camera.xhtml#a89011bfb795ff58d3fb8675364b91abe" target="_top" xlink:title="Voxel::TI::Voxel14Camera\l::_init">
<polygon fill="none" stroke="black" points="819,-98 819,-128 951,-128 951,-98 819,-98"/>
<text text-anchor="start" x="827" y="-116" font-family="Helvetica,sans-Serif" font-size="10.00">Voxel::TI::Voxel14Camera</text>
<text text-anchor="middle" x="885" y="-105" font-family="Helvetica,sans-Serif" font-size="10.00">::_init</text>
</a>
</g>
</g>
<!-- Node8&#45;&gt;Node13 -->
<g id="edge12" class="edge"><title>Node8&#45;&gt;Node13</title>
<path fill="none" stroke="midnightblue" d="M762.05,-144.45C782.915,-139.069 805.67,-133.201 825.813,-128.006"/>
<polygon fill="midnightblue" stroke="midnightblue" points="761.107,-141.079 752.297,-146.965 762.855,-147.857 761.107,-141.079"/>
</g>
<!-- Node10 -->
<g id="node10" class="node"><title>Node10</title>
<g id="a_node10"><a xlink:href="classVoxel_1_1TI_1_1HaddockCDKCamera.xhtml#ac2c5e82486c4cc3f5edada38cd4274c5" target="_top" xlink:title="Voxel::TI::HaddockCDKCamera\l::HaddockCDKCamera">
<polygon fill="none" stroke="black" points="1000,-196 1000,-226 1158,-226 1158,-196 1000,-196"/>
<text text-anchor="start" x="1008" y="-214" font-family="Helvetica,sans-Serif" font-size="10.00">Voxel::TI::HaddockCDKCamera</text>
<text text-anchor="middle" x="1079" y="-203" font-family="Helvetica,sans-Serif" font-size="10.00">::HaddockCDKCamera</text>
</a>
</g>
</g>
<!-- Node9&#45;&gt;Node10 -->
<g id="edge9" class="edge"><title>Node9&#45;&gt;Node10</title>
<path fill="none" stroke="midnightblue" d="M974.153,-211C982.769,-211 991.47,-211 999.975,-211"/>
<polygon fill="midnightblue" stroke="midnightblue" points="974.094,-207.5 964.094,-211 974.094,-214.5 974.094,-207.5"/>
</g>
<!-- Node12 -->
<g id="node12" class="node"><title>Node12</title>
<g id="a_node12"><a xlink:href="classVoxel_1_1TI_1_1RTS5825Camera.xhtml#a7a242f28e79a95d9a918946beb0b0461" target="_top" xlink:title="Voxel::TI::RTS5825Camera\l::RTS5825Camera">
<polygon fill="none" stroke="black" points="1010,-147 1010,-177 1148,-177 1148,-147 1010,-147"/>
<text text-anchor="start" x="1018" y="-165" font-family="Helvetica,sans-Serif" font-size="10.00">Voxel::TI::RTS5825Camera</text>
<text text-anchor="middle" x="1079" y="-154" font-family="Helvetica,sans-Serif" font-size="10.00">::RTS5825Camera</text>
</a>
</g>
</g>
<!-- Node11&#45;&gt;Node12 -->
<g id="edge11" class="edge"><title>Node11&#45;&gt;Node12</title>
<path fill="none" stroke="midnightblue" d="M964.551,-162C979.621,-162 995.284,-162 1009.99,-162"/>
<polygon fill="midnightblue" stroke="midnightblue" points="964.233,-158.5 954.233,-162 964.233,-165.5 964.233,-158.5"/>
</g>
<!-- Node14 -->
<g id="node14" class="node"><title>Node14</title>
<g id="a_node14"><a xlink:href="classVoxel_1_1TI_1_1Voxel14Camera.xhtml#a606f13ed73547ee43f585e241b42dd5d" target="_top" xlink:title="Voxel::TI::Voxel14Camera\l::Voxel14Camera">
<polygon fill="none" stroke="black" points="1013,-98 1013,-128 1145,-128 1145,-98 1013,-98"/>
<text text-anchor="start" x="1021" y="-116" font-family="Helvetica,sans-Serif" font-size="10.00">Voxel::TI::Voxel14Camera</text>
<text text-anchor="middle" x="1079" y="-105" font-family="Helvetica,sans-Serif" font-size="10.00">::Voxel14Camera</text>
</a>
</g>
</g>
<!-- Node13&#45;&gt;Node14 -->
<g id="edge13" class="edge"><title>Node13&#45;&gt;Node14</title>
<path fill="none" stroke="midnightblue" d="M961.424,-113C978.381,-113 996.237,-113 1012.74,-113"/>
<polygon fill="midnightblue" stroke="midnightblue" points="961.002,-109.5 951.002,-113 961.002,-116.5 961.002,-109.5"/>
</g>
<!-- Node16 -->
<g id="node16" class="node"><title>Node16</title>
<g id="a_node16"><a xlink:href="classVoxel_1_1TI_1_1TintinCDKCamera.xhtml#af5337f40c1a075c026263ea9871a20ee" target="_top" xlink:title="Voxel::TI::TintinCDKCamera\l::_init">
<polygon fill="none" stroke="black" points="813.5,-49 813.5,-79 956.5,-79 956.5,-49 813.5,-49"/>
<text text-anchor="start" x="821.5" y="-67" font-family="Helvetica,sans-Serif" font-size="10.00">Voxel::TI::TintinCDKCamera</text>
<text text-anchor="middle" x="885" y="-56" font-family="Helvetica,sans-Serif" font-size="10.00">::_init</text>
</a>
</g>
</g>
<!-- Node15&#45;&gt;Node16 -->
<g id="edge15" class="edge"><title>Node15&#45;&gt;Node16</title>
<path fill="none" stroke="midnightblue" d="M772.309,-64C785.859,-64 799.877,-64 813.213,-64"/>
<polygon fill="midnightblue" stroke="midnightblue" points="772.058,-60.5001 762.058,-64 772.058,-67.5001 772.058,-60.5001"/>
</g>
<!-- Node18 -->
<g id="node18" class="node"><title>Node18</title>
<g id="a_node18"><a xlink:href="classVoxel_1_1TI_1_1VoxelDCamera.xhtml#a47b15c40c3fbcc52ae1eb3c9fe74d9f1" target="_top" xlink:title="Voxel::TI::VoxelDCamera\l::_init">
<polygon fill="none" stroke="black" points="820.5,-0 820.5,-30 949.5,-30 949.5,-0 820.5,-0"/>
<text text-anchor="start" x="828.5" y="-18" font-family="Helvetica,sans-Serif" font-size="10.00">Voxel::TI::VoxelDCamera</text>
<text text-anchor="middle" x="885" y="-7" font-family="Helvetica,sans-Serif" font-size="10.00">::_init</text>
</a>
</g>
</g>
<!-- Node15&#45;&gt;Node18 -->
<g id="edge17" class="edge"><title>Node15&#45;&gt;Node18</title>
<path fill="none" stroke="midnightblue" d="M762.05,-46.4502C782.915,-41.0694 805.67,-35.201 825.813,-30.0062"/>
<polygon fill="midnightblue" stroke="midnightblue" points="761.107,-43.079 752.297,-48.9654 762.855,-49.8572 761.107,-43.079"/>
</g>
<!-- Node17 -->
<g id="node17" class="node"><title>Node17</title>
<g id="a_node17"><a xlink:href="classVoxel_1_1TI_1_1TintinCDKCamera.xhtml#a7a9918bb8b6d76bc3511536019847c1d" target="_top" xlink:title="Voxel::TI::TintinCDKCamera\l::TintinCDKCamera">
<polygon fill="none" stroke="black" points="1007.5,-49 1007.5,-79 1150.5,-79 1150.5,-49 1007.5,-49"/>
<text text-anchor="start" x="1015.5" y="-67" font-family="Helvetica,sans-Serif" font-size="10.00">Voxel::TI::TintinCDKCamera</text>
<text text-anchor="middle" x="1079" y="-56" font-family="Helvetica,sans-Serif" font-size="10.00">::TintinCDKCamera</text>
</a>
</g>
</g>
<!-- Node16&#45;&gt;Node17 -->
<g id="edge16" class="edge"><title>Node16&#45;&gt;Node17</title>
<path fill="none" stroke="midnightblue" d="M966.891,-64C980.378,-64 994.272,-64 1007.47,-64"/>
<polygon fill="midnightblue" stroke="midnightblue" points="966.676,-60.5001 956.676,-64 966.676,-67.5001 966.676,-60.5001"/>
</g>
<!-- Node19 -->
<g id="node19" class="node"><title>Node19</title>
<g id="a_node19"><a xlink:href="classVoxel_1_1TI_1_1VoxelDCamera.xhtml#a4a95cf8257e2f9f5fd34386b87f6663a" target="_top" xlink:title="Voxel::TI::VoxelDCamera\l::VoxelDCamera">
<polygon fill="none" stroke="black" points="1014.5,-0 1014.5,-30 1143.5,-30 1143.5,-0 1014.5,-0"/>
<text text-anchor="start" x="1022.5" y="-18" font-family="Helvetica,sans-Serif" font-size="10.00">Voxel::TI::VoxelDCamera</text>
<text text-anchor="middle" x="1079" y="-7" font-family="Helvetica,sans-Serif" font-size="10.00">::VoxelDCamera</text>
</a>
</g>
</g>
<!-- Node18&#45;&gt;Node19 -->
<g id="edge18" class="edge"><title>Node18&#45;&gt;Node19</title>
<path fill="none" stroke="midnightblue" d="M959.788,-15C977.722,-15 996.75,-15 1014.18,-15"/>
<polygon fill="midnightblue" stroke="midnightblue" points="959.667,-11.5001 949.667,-15 959.666,-18.5001 959.667,-11.5001"/>
</g>
</g>
</svg>
        <g id="navigator" transform="translate(0 0)" fill="#404254">
                <rect fill="#f2f5e9" fill-opacity="0.5" stroke="#606060" stroke-width=".5" x="0" y="0" width="60" height="60"/>
                <use id="zoomplus" xlink:href="#zoomPlus" x="17" y="9" onmousedown="handleZoom(evt,'in')"/>
                <use id="zoomminus" xlink:href="#zoomMin" x="42" y="9" onmousedown="handleZoom(evt,'out')"/>
                <use id="reset" xlink:href="#resetDef" x="30" y="36" onmousedown="handleReset()"/>
                <g id="arrowUp" xlink:href="#dirArrow" transform="translate(30 24)" onmousedown="handlePan(0,-1)">
                  <use xlink:href="#rim" fill="#404040">
                        <set attributeName="fill" to="#808080" begin="arrowUp.mouseover" end="arrowUp.mouseout"/>
                  </use>
                  <path fill="none" stroke="white" stroke-width="1.5" d="M0,-3.0v7 M-2.5,-0.5L0,-3.0L2.5,-0.5"/>
                </g>
                <g id="arrowRight" xlink:href="#dirArrow" transform="rotate(90) translate(36 -43)" onmousedown="handlePan(1,0)">
                  <use xlink:href="#rim" fill="#404040">
                        <set attributeName="fill" to="#808080" begin="arrowRight.mouseover" end="arrowRight.mouseout"/>
                  </use>
                  <path fill="none" stroke="white" stroke-width="1.5" d="M0,-3.0v7 M-2.5,-0.5L0,-3.0L2.5,-0.5"/>
                </g>
                <g id="arrowDown" xlink:href="#dirArrow" transform="rotate(180) translate(-30 -48)" onmousedown="handlePan(0,1)">
                  <use xlink:href="#rim" fill="#404040">
                        <set attributeName="fill" to="#808080" begin="arrowDown.mouseover" end="arrowDown.mouseout"/>
                  </use>
                  <path fill="none" stroke="white" stroke-width="1.5" d="M0,-3.0v7 M-2.5,-0.5L0,-3.0L2.5,-0.5"/>
                </g>
                <g id="arrowLeft" xlink:href="#dirArrow" transform="rotate(270) translate(-36 17)" onmousedown="handlePan(-1,0)">
                  <use xlink:href="#rim" fill="#404040">
                        <set attributeName="fill" to="#808080" begin="arrowLeft.mouseover" end="arrowLeft.mouseout"/>
                  </use>
                  <path fill="none" stroke="white" stroke-width="1.5" d="M0,-3.0v7 M-2.5,-0.5L0,-3.0L2.5,-0.5"/>
                </g>
        </g>
        <svg viewBox="0 0 15 15" width="100%" height="30px" preserveAspectRatio="xMaxYMin meet">
         <g id="arrow_out" transform="scale(0.3 0.3)">
          <a xlink:href="classVoxel_1_1DepthCamera_a3b88dacf88d024f94764b2643b05e7f8_icgraph_org.svg" target="_base">
           <rect id="button" ry="5" rx="5" y="6" x="6" height="38" width="38"
                fill="#f2f5e9" fill-opacity="0.5" stroke="#606060" stroke-width="1.0"/>
           <path id="arrow"
             d="M 11.500037,31.436501 C 11.940474,20.09759 22.043105,11.32322 32.158766,21.979434 L 37.068811,17.246167 C 37.068811,17.246167 37.088388,32 37.088388,32 L 22.160133,31.978069 C 22.160133,31.978069 26.997745,27.140456 26.997745,27.140456 C 18.528582,18.264221 13.291696,25.230495 11.500037,31.436501 z"
             style="fill:#404040;"/>
          </a>
         </g>
        </svg>
</svg>
