<?xml version="1.0" encoding="UTF-8" standalone="no"?>
<!DOCTYPE svg PUBLIC "-//W3C//DTD SVG 1.1//EN"
 "http://www.w3.org/Graphics/SVG/1.1/DTD/svg11.dtd">
<!-- Generated by graphviz version 2.36.0 (20140111.2315)
 -->
<!-- Title: Voxel::CLIManager::run Pages: 1 -->
<svg width="686pt" height="384pt"
 viewBox="0.00 0.00 686.00 384.12" xmlns="http://www.w3.org/2000/svg" xmlns:xlink="http://www.w3.org/1999/xlink">
<g id="graph0" class="graph" transform="scale(1 1) rotate(0) translate(4 380.116)">
<title>Voxel::CLIManager::run</title>
<!-- Node1 -->
<g id="node1" class="node"><title>Node1</title>
<polygon fill="#bfbfbf" stroke="black" points="0,-174.5 0,-193.5 120,-193.5 120,-174.5 0,-174.5"/>
<text text-anchor="middle" x="60" y="-181.5" font-family="Helvetica,sans-Serif" font-size="10.00">Voxel::CLIManager::run</text>
</g>
<!-- Node2 -->
<g id="node2" class="node"><title>Node2</title>
<g id="a_node2"><a xlink:href="classVoxel_1_1CLIManager.xhtml#accc24e532a9fb16cb7f5df81bd2709c9" target="_top" xlink:title="Voxel::CLIManager::\l_commandLoop">
<polygon fill="none" stroke="black" points="156.5,-169 156.5,-199 263.5,-199 263.5,-169 156.5,-169"/>
<text text-anchor="start" x="164.5" y="-187" font-family="Helvetica,sans-Serif" font-size="10.00">Voxel::CLIManager::</text>
<text text-anchor="middle" x="210" y="-176" font-family="Helvetica,sans-Serif" font-size="10.00">_commandLoop</text>
</a>
</g>
</g>
<!-- Node1&#45;&gt;Node2 -->
<g id="edge1" class="edge"><title>Node1&#45;&gt;Node2</title>
<path fill="none" stroke="midnightblue" d="M120.344,-184C128.806,-184 137.534,-184 146.062,-184"/>
<polygon fill="midnightblue" stroke="midnightblue" points="146.332,-187.5 156.332,-184 146.332,-180.5 146.332,-187.5"/>
</g>
<!-- Node3 -->
<g id="node3" class="node"><title>Node3</title>
<g id="a_node3"><a xlink:href="classVoxel_1_1CLIManager.xhtml#a82c90ebee06e7444323318eeaa41e18d" target="_top" xlink:title="Voxel::CLIManager::\l_completionCallback">
<polygon fill="none" stroke="black" points="331.5,-300 331.5,-330 438.5,-330 438.5,-300 331.5,-300"/>
<text text-anchor="start" x="339.5" y="-318" font-family="Helvetica,sans-Serif" font-size="10.00">Voxel::CLIManager::</text>
<text text-anchor="middle" x="385" y="-307" font-family="Helvetica,sans-Serif" font-size="10.00">_completionCallback</text>
</a>
</g>
</g>
<!-- Node2&#45;&gt;Node3 -->
<g id="edge2" class="edge"><title>Node2&#45;&gt;Node3</title>
<path fill="none" stroke="midnightblue" d="M219.616,-199.056C233.555,-222.073 263.237,-265.871 300,-290 306.692,-294.392 314.181,-298.035 321.857,-301.051"/>
<polygon fill="midnightblue" stroke="midnightblue" points="320.677,-304.346 331.272,-304.427 323.04,-297.757 320.677,-304.346"/>
</g>
<!-- Node4 -->
<g id="node4" class="node"><title>Node4</title>
<g id="a_node4"><a xlink:href="classVoxel_1_1CLIManager.xhtml#aa88324c7fb0c96ece91f5125f0cd071c" target="_top" xlink:title="Voxel::CLIManager::\l_getTokens">
<polygon fill="none" stroke="black" points="538.5,-344 538.5,-374 645.5,-374 645.5,-344 538.5,-344"/>
<text text-anchor="start" x="546.5" y="-362" font-family="Helvetica,sans-Serif" font-size="10.00">Voxel::CLIManager::</text>
<text text-anchor="middle" x="592" y="-351" font-family="Helvetica,sans-Serif" font-size="10.00">_getTokens</text>
</a>
</g>
</g>
<!-- Node2&#45;&gt;Node4 -->
<g id="edge6" class="edge"><title>Node2&#45;&gt;Node4</title>
<path fill="none" stroke="midnightblue" d="M214.615,-199.245C223.159,-231.511 247.915,-306.411 300,-339 368.826,-382.064 465.579,-379.033 528.285,-370.752"/>
<polygon fill="midnightblue" stroke="midnightblue" points="529.014,-374.184 538.43,-369.328 528.04,-367.252 529.014,-374.184"/>
</g>
<!-- Node6 -->
<g id="node6" class="node"><title>Node6</title>
<g id="a_node6"><a xlink:href="classVoxel_1_1CLIManager.xhtml#aa09c2ce6a3468458e8e949b61fb63350" target="_top" xlink:title="Voxel::CLIManager::\l_getPrompt">
<polygon fill="none" stroke="black" points="331.5,-251 331.5,-281 438.5,-281 438.5,-251 331.5,-251"/>
<text text-anchor="start" x="339.5" y="-269" font-family="Helvetica,sans-Serif" font-size="10.00">Voxel::CLIManager::</text>
<text text-anchor="middle" x="385" y="-258" font-family="Helvetica,sans-Serif" font-size="10.00">_getPrompt</text>
</a>
</g>
</g>
<!-- Node2&#45;&gt;Node6 -->
<g id="edge5" class="edge"><title>Node2&#45;&gt;Node6</title>
<path fill="none" stroke="midnightblue" d="M230.922,-199.079C248.371,-211.706 274.809,-229.464 300,-241 306.753,-244.092 313.984,-246.914 321.266,-249.457"/>
<polygon fill="midnightblue" stroke="midnightblue" points="320.594,-252.921 331.188,-252.749 322.799,-246.278 320.594,-252.921"/>
</g>
<!-- Node7 -->
<g id="node7" class="node"><title>Node7</title>
<g id="a_node7"><a xlink:href="namespaceLineNoise.xhtml#a1a1a8da73f602e753f773163db344b47" target="_top" xlink:title="LineNoise::linenoise">
<polygon fill="none" stroke="black" points="333,-212.5 333,-231.5 437,-231.5 437,-212.5 333,-212.5"/>
<text text-anchor="middle" x="385" y="-219.5" font-family="Helvetica,sans-Serif" font-size="10.00">LineNoise::linenoise</text>
</a>
</g>
</g>
<!-- Node2&#45;&gt;Node7 -->
<g id="edge7" class="edge"><title>Node2&#45;&gt;Node7</title>
<path fill="none" stroke="midnightblue" d="M263.846,-195.608C285.034,-200.262 309.414,-205.617 330.652,-210.282"/>
<polygon fill="midnightblue" stroke="midnightblue" points="329.963,-213.714 340.481,-212.441 331.465,-206.877 329.963,-213.714"/>
</g>
<!-- Node8 -->
<g id="node8" class="node"><title>Node8</title>
<g id="a_node8"><a xlink:href="namespaceLineNoise.xhtml#ae0d170e5b6e0ea50d5f722551cb09ec5" target="_top" xlink:title="LineNoise::linenoiseHistoryAdd">
<polygon fill="none" stroke="black" points="515.5,-155.5 515.5,-174.5 668.5,-174.5 668.5,-155.5 515.5,-155.5"/>
<text text-anchor="middle" x="592" y="-162.5" font-family="Helvetica,sans-Serif" font-size="10.00">LineNoise::linenoiseHistoryAdd</text>
</a>
</g>
</g>
<!-- Node2&#45;&gt;Node8 -->
<g id="edge8" class="edge"><title>Node2&#45;&gt;Node8</title>
<path fill="none" stroke="midnightblue" d="M263.837,-181.358C326.262,-178.237 430.983,-173.001 505.114,-169.294"/>
<polygon fill="midnightblue" stroke="midnightblue" points="505.551,-172.777 515.363,-168.782 505.201,-165.786 505.551,-172.777"/>
</g>
<!-- Node9 -->
<g id="node9" class="node"><title>Node9</title>
<g id="a_node9"><a xlink:href="namespaceLineNoise.xhtml#ab0652a666cb260a0b487bc9df5638c7a" target="_top" xlink:title="LineNoise::linenoiseHistoryLoad">
<polygon fill="none" stroke="black" points="306.5,-136.5 306.5,-155.5 463.5,-155.5 463.5,-136.5 306.5,-136.5"/>
<text text-anchor="middle" x="385" y="-143.5" font-family="Helvetica,sans-Serif" font-size="10.00">LineNoise::linenoiseHistoryLoad</text>
</a>
</g>
</g>
<!-- Node2&#45;&gt;Node9 -->
<g id="edge9" class="edge"><title>Node2&#45;&gt;Node9</title>
<path fill="none" stroke="midnightblue" d="M263.846,-172.392C285.034,-167.738 309.414,-162.383 330.652,-157.718"/>
<polygon fill="midnightblue" stroke="midnightblue" points="331.465,-161.123 340.481,-155.559 329.963,-154.286 331.465,-161.123"/>
</g>
<!-- Node10 -->
<g id="node10" class="node"><title>Node10</title>
<g id="a_node10"><a xlink:href="namespaceLineNoise.xhtml#a238647bb456e72d40b364b093758aafc" target="_top" xlink:title="LineNoise::linenoiseHistorySave">
<polygon fill="none" stroke="black" points="306,-98.5 306,-117.5 464,-117.5 464,-98.5 306,-98.5"/>
<text text-anchor="middle" x="385" y="-105.5" font-family="Helvetica,sans-Serif" font-size="10.00">LineNoise::linenoiseHistorySave</text>
</a>
</g>
</g>
<!-- Node2&#45;&gt;Node10 -->
<g id="edge11" class="edge"><title>Node2&#45;&gt;Node10</title>
<path fill="none" stroke="midnightblue" d="M230.391,-168.749C247.717,-155.836 274.269,-137.759 300,-127 306.117,-124.442 312.635,-122.201 319.232,-120.242"/>
<polygon fill="midnightblue" stroke="midnightblue" points="320.206,-123.604 328.916,-117.572 318.345,-116.856 320.206,-123.604"/>
</g>
<!-- Node11 -->
<g id="node11" class="node"><title>Node11</title>
<g id="a_node11"><a xlink:href="namespaceLineNoise.xhtml#ae3fa94e62f15b4f0d105753027521dcf" target="_top" xlink:title="LineNoise::linenoiseHistory\lSetMaxLen">
<polygon fill="none" stroke="black" points="317,-49 317,-79 453,-79 453,-49 317,-49"/>
<text text-anchor="start" x="325" y="-67" font-family="Helvetica,sans-Serif" font-size="10.00">LineNoise::linenoiseHistory</text>
<text text-anchor="middle" x="385" y="-56" font-family="Helvetica,sans-Serif" font-size="10.00">SetMaxLen</text>
</a>
</g>
</g>
<!-- Node2&#45;&gt;Node11 -->
<g id="edge12" class="edge"><title>Node2&#45;&gt;Node11</title>
<path fill="none" stroke="midnightblue" d="M221.222,-168.807C236.12,-147.818 265.781,-110.151 300,-89 303.397,-86.9 306.981,-84.9678 310.678,-83.1911"/>
<polygon fill="midnightblue" stroke="midnightblue" points="312.297,-86.303 320.056,-79.0878 309.491,-79.89 312.297,-86.303"/>
</g>
<!-- Node12 -->
<g id="node12" class="node"><title>Node12</title>
<g id="a_node12"><a xlink:href="namespaceLineNoise.xhtml#a77ae76b19f91154937daaf925e725a44" target="_top" xlink:title="LineNoise::linenoiseSetCompletion\lCallback">
<polygon fill="none" stroke="black" points="300.5,-0 300.5,-30 469.5,-30 469.5,-0 300.5,-0"/>
<text text-anchor="start" x="308.5" y="-18" font-family="Helvetica,sans-Serif" font-size="10.00">LineNoise::linenoiseSetCompletion</text>
<text text-anchor="middle" x="385" y="-7" font-family="Helvetica,sans-Serif" font-size="10.00">Callback</text>
</a>
</g>
</g>
<!-- Node2&#45;&gt;Node12 -->
<g id="edge13" class="edge"><title>Node2&#45;&gt;Node12</title>
<path fill="none" stroke="midnightblue" d="M216.165,-168.85C226.958,-139.481 254.723,-74.652 300,-40 302.458,-38.1187 305.056,-36.3786 307.756,-34.769"/>
<polygon fill="midnightblue" stroke="midnightblue" points="309.469,-37.8225 316.68,-30.0599 306.202,-31.6316 309.469,-37.8225"/>
</g>
<!-- Node3&#45;&gt;Node4 -->
<g id="edge3" class="edge"><title>Node3&#45;&gt;Node4</title>
<path fill="none" stroke="midnightblue" d="M438.526,-326.274C465.905,-332.15 499.581,-339.378 528.315,-345.546"/>
<polygon fill="midnightblue" stroke="midnightblue" points="527.742,-349.002 538.254,-347.679 529.211,-342.158 527.742,-349.002"/>
</g>
<!-- Node5 -->
<g id="node5" class="node"><title>Node5</title>
<g id="a_node5"><a xlink:href="namespaceLineNoise.xhtml#a5648e21adbd7aa937a3e50c32961ade4" target="_top" xlink:title="LineNoise::linenoiseAddCompletion">
<polygon fill="none" stroke="black" points="506.5,-305.5 506.5,-324.5 677.5,-324.5 677.5,-305.5 506.5,-305.5"/>
<text text-anchor="middle" x="592" y="-312.5" font-family="Helvetica,sans-Serif" font-size="10.00">LineNoise::linenoiseAddCompletion</text>
</a>
</g>
</g>
<!-- Node3&#45;&gt;Node5 -->
<g id="edge4" class="edge"><title>Node3&#45;&gt;Node5</title>
<path fill="none" stroke="midnightblue" d="M438.526,-315C456.185,-315 476.463,-315 496.345,-315"/>
<polygon fill="midnightblue" stroke="midnightblue" points="496.374,-318.5 506.374,-315 496.374,-311.5 496.374,-318.5"/>
</g>
<!-- Node9&#45;&gt;Node8 -->
<g id="edge10" class="edge"><title>Node9&#45;&gt;Node8</title>
<path fill="none" stroke="midnightblue" d="M463.502,-153.183C477.187,-154.452 491.506,-155.779 505.399,-157.066"/>
<polygon fill="midnightblue" stroke="midnightblue" points="505.145,-160.558 515.425,-157.996 505.791,-153.587 505.145,-160.558"/>
</g>
</g>
</svg>
