<?xml version="1.0" encoding="UTF-8" standalone="no"?>
<!DOCTYPE svg PUBLIC "-//W3C//DTD SVG 1.1//EN"
 "http://www.w3.org/Graphics/SVG/1.1/DTD/svg11.dtd">
<!-- Generated by graphviz version 2.36.0 (20140111.2315)
 -->
<!-- Title: Voxel::MainConfigurationFile::readFromHardware Pages: 1 -->
<!--zoomable 852 -->
<svg id="main" version="1.1" xmlns="http://www.w3.org/2000/svg" xmlns:xlink="http://www.w3.org/1999/xlink" xml:space="preserve" onload="init(evt)">
<style type="text/css"><![CDATA[
.edge:hover path { stroke: red; }
.edge:hover polygon { stroke: red; fill: red; }
]]></style>
<script type="text/javascript"><![CDATA[
var edges = document.getElementsByTagName('g');
if (edges && edges.length) {
  for (var i=0;i<edges.length;i++) {
    if (edges[i].id.substr(0,4)=='edge') {
      edges[i].setAttribute('class','edge');
    }
  }
}
]]></script>
        <defs>
                <circle id="rim" cx="0" cy="0" r="7"/>
                <circle id="rim2" cx="0" cy="0" r="3.5"/>
                <g id="zoomPlus">
                        <use xlink:href="#rim" fill="#404040">
                                <set attributeName="fill" to="#808080" begin="zoomplus.mouseover" end="zoomplus.mouseout"/>
                        </use>
                        <path d="M-4,0h8M0,-4v8" fill="none" stroke="white" stroke-width="1.5" pointer-events="none"/>
                </g>
                <g id="zoomMin">
                        <use xlink:href="#rim" fill="#404040">
                                <set attributeName="fill" to="#808080" begin="zoomminus.mouseover" end="zoomminus.mouseout"/>
                        </use>
                        <path d="M-4,0h8" fill="none" stroke="white" stroke-width="1.5" pointer-events="none"/>
                </g>
                <g id="dirArrow">
                        <path fill="none" stroke="white" stroke-width="1.5" d="M0,-3.0v7 M-2.5,-0.5L0,-3.0L2.5,-0.5"/>
                </g>
               <g id="resetDef">
                       <use xlink:href="#rim2" fill="#404040">
                               <set attributeName="fill" to="#808080" begin="reset.mouseover" end="reset.mouseout"/>
                       </use>
               </g>
        </defs>

<script type="text/javascript">
var viewWidth = 1158;
var viewHeight = 852;
var sectionId = 'dynsection-21';
</script>
<script xlink:href="svgpan.js"/>
<svg id="graph" class="graph">
<g id="viewport">
<title>Voxel::MainConfigurationFile::readFromHardware</title>
<!-- Node1 -->
<g id="node1" class="node"><title>Node1</title>
<polygon fill="#bfbfbf" stroke="black" points="0,-332 0,-362 126,-362 126,-332 0,-332"/>
<text text-anchor="start" x="8" y="-350" font-family="Helvetica,sans-Serif" font-size="10.00">Voxel::MainConfiguration</text>
<text text-anchor="middle" x="63" y="-339" font-family="Helvetica,sans-Serif" font-size="10.00">File::readFromHardware</text>
</g>
<!-- Node2 -->
<g id="node2" class="node"><title>Node2</title>
<g id="a_node2"><a xlink:href="classVoxel_1_1MainConfigurationFile.xhtml#a48e0e45a75ee7178d2814e34dd083db4" target="_top" xlink:title="Voxel::MainConfiguration\lFile::_saveHardwareImage">
<polygon fill="none" stroke="black" points="165,-746 165,-776 299,-776 299,-746 165,-746"/>
<text text-anchor="start" x="173" y="-764" font-family="Helvetica,sans-Serif" font-size="10.00">Voxel::MainConfiguration</text>
<text text-anchor="middle" x="232" y="-753" font-family="Helvetica,sans-Serif" font-size="10.00">File::_saveHardwareImage</text>
</a>
</g>
</g>
<!-- Node1&#45;&gt;Node2 -->
<g id="edge1" class="edge"><title>Node1&#45;&gt;Node2</title>
<path fill="none" stroke="midnightblue" d="M64.4856,-362.059C66.8759,-414.962 80.88,-595.39 162,-712 169.823,-723.245 181.099,-732.799 192.277,-740.401"/>
<polygon fill="midnightblue" stroke="midnightblue" points="190.438,-743.38 200.746,-745.83 194.216,-737.487 190.438,-743.38"/>
</g>
<!-- Node3 -->
<g id="node3" class="node"><title>Node3</title>
<g id="a_node3"><a xlink:href="classVoxel_1_1SerializedObject.xhtml#aac0058e6b0ea0cb6ac86f4e986f6de25" target="_top" xlink:title="Voxel::SerializedObject\l::getBytes">
<polygon fill="none" stroke="black" points="339.5,-814 339.5,-844 458.5,-844 458.5,-814 339.5,-814"/>
<text text-anchor="start" x="347.5" y="-832" font-family="Helvetica,sans-Serif" font-size="10.00">Voxel::SerializedObject</text>
<text text-anchor="middle" x="399" y="-821" font-family="Helvetica,sans-Serif" font-size="10.00">::getBytes</text>
</a>
</g>
</g>
<!-- Node1&#45;&gt;Node3 -->
<g id="edge26" class="edge"><title>Node1&#45;&gt;Node3</title>
<path fill="none" stroke="midnightblue" d="M65.1879,-362.035C71.0187,-431.914 98.9142,-724.133 162,-785 205.795,-827.255 276.408,-835.622 328.999,-835.012"/>
<polygon fill="midnightblue" stroke="midnightblue" points="329.346,-838.505 339.263,-834.778 329.186,-831.507 329.346,-838.505"/>
</g>
<!-- Node5 -->
<g id="node5" class="node"><title>Node5</title>
<g id="a_node5"><a xlink:href="classVoxel_1_1SerializedObject.xhtml#adf11acb91f4adf3fe582a778c12b6286" target="_top" xlink:title="Voxel::SerializedObject\l::size">
<polygon fill="none" stroke="black" points="673.5,-551 673.5,-581 792.5,-581 792.5,-551 673.5,-551"/>
<text text-anchor="start" x="681.5" y="-569" font-family="Helvetica,sans-Serif" font-size="10.00">Voxel::SerializedObject</text>
<text text-anchor="middle" x="733" y="-558" font-family="Helvetica,sans-Serif" font-size="10.00">::size</text>
</a>
</g>
</g>
<!-- Node1&#45;&gt;Node5 -->
<g id="edge51" class="edge"><title>Node1&#45;&gt;Node5</title>
<path fill="none" stroke="midnightblue" d="M63.5095,-362.143C62.7506,-413.434 67.8033,-581.802 162,-661 242.676,-728.829 541.006,-723.668 636,-678 674.816,-659.339 704.062,-616.863 719.561,-589.914"/>
<polygon fill="midnightblue" stroke="midnightblue" points="722.664,-591.534 724.463,-581.093 716.546,-588.134 722.664,-591.534"/>
</g>
<!-- Node6 -->
<g id="node6" class="node"><title>Node6</title>
<g id="a_node6"><a xlink:href="classVoxel_1_1SerializedObject.xhtml#a5b4f523481053034ad119a0dd8798eb4" target="_top" xlink:title="Voxel::SerializedObject\l::currentGetOffset">
<polygon fill="none" stroke="black" points="506.5,-551 506.5,-581 625.5,-581 625.5,-551 506.5,-551"/>
<text text-anchor="start" x="514.5" y="-569" font-family="Helvetica,sans-Serif" font-size="10.00">Voxel::SerializedObject</text>
<text text-anchor="middle" x="566" y="-558" font-family="Helvetica,sans-Serif" font-size="10.00">::currentGetOffset</text>
</a>
</g>
</g>
<!-- Node1&#45;&gt;Node6 -->
<g id="edge5" class="edge"><title>Node1&#45;&gt;Node6</title>
<path fill="none" stroke="midnightblue" d="M73.4141,-362.274C89.1419,-386.74 122.916,-435.008 162,-465 230.313,-517.422 254.777,-523.896 338,-546 389.9,-559.785 450.58,-564.574 496.138,-566.032"/>
<polygon fill="midnightblue" stroke="midnightblue" points="496.113,-569.533 506.205,-566.308 496.305,-562.535 496.113,-569.533"/>
</g>
<!-- Node7 -->
<g id="node7" class="node"><title>Node7</title>
<g id="a_node7"><a xlink:href="classVoxel_1_1Data2DCodec.xhtml#af19bf3b5b14e9010e924a7d2125120c9" target="_top" xlink:title="Voxel::Data2DCodec\l::decompress">
<polygon fill="none" stroke="black" points="344,-601 344,-631 454,-631 454,-601 344,-601"/>
<text text-anchor="start" x="352" y="-619" font-family="Helvetica,sans-Serif" font-size="10.00">Voxel::Data2DCodec</text>
<text text-anchor="middle" x="399" y="-608" font-family="Helvetica,sans-Serif" font-size="10.00">::decompress</text>
</a>
</g>
</g>
<!-- Node1&#45;&gt;Node7 -->
<g id="edge6" class="edge"><title>Node1&#45;&gt;Node7</title>
<path fill="none" stroke="midnightblue" d="M65.1452,-362.134C69.281,-405.173 87.4374,-528.839 162,-586 210.706,-623.339 282.382,-627.439 333.953,-624.307"/>
<polygon fill="midnightblue" stroke="midnightblue" points="334.26,-627.794 343.986,-623.592 333.762,-620.812 334.26,-627.794"/>
</g>
<!-- Node8 -->
<g id="node8" class="node"><title>Node8</title>
<g id="a_node8"><a xlink:href="classVoxel_1_1SerializedObject.xhtml#a28bffcfa230e90768ea678269a782381" target="_top" xlink:title="Voxel::SerializedObject\l::resize">
<polygon fill="none" stroke="black" points="506.5,-639 506.5,-669 625.5,-669 625.5,-639 506.5,-639"/>
<text text-anchor="start" x="514.5" y="-657" font-family="Helvetica,sans-Serif" font-size="10.00">Voxel::SerializedObject</text>
<text text-anchor="middle" x="566" y="-646" font-family="Helvetica,sans-Serif" font-size="10.00">::resize</text>
</a>
</g>
</g>
<!-- Node1&#45;&gt;Node8 -->
<g id="edge50" class="edge"><title>Node1&#45;&gt;Node8</title>
<path fill="none" stroke="midnightblue" d="M64.2598,-362.215C65.9625,-409.322 78.1009,-553.578 162,-620 257.581,-695.67 408.887,-684.337 496.363,-669.209"/>
<polygon fill="midnightblue" stroke="midnightblue" points="497.222,-672.611 506.446,-667.399 495.985,-665.721 497.222,-672.611"/>
</g>
<!-- Node10 -->
<g id="node10" class="node"><title>Node10</title>
<g id="a_node10"><a xlink:href="classVoxel_1_1SerializedObject.xhtml#a2044534dbfab4e75452288a0223dae7b" target="_top" xlink:title="Voxel::SerializedObject::get">
<polygon fill="none" stroke="black" points="497,-474.5 497,-493.5 635,-493.5 635,-474.5 497,-474.5"/>
<text text-anchor="middle" x="566" y="-481.5" font-family="Helvetica,sans-Serif" font-size="10.00">Voxel::SerializedObject::get</text>
</a>
</g>
</g>
<!-- Node1&#45;&gt;Node10 -->
<g id="edge13" class="edge"><title>Node1&#45;&gt;Node10</title>
<path fill="none" stroke="midnightblue" d="M126.041,-361.94C204.263,-381.052 342.703,-415.787 460,-450 482.502,-456.564 507.476,-464.618 527.42,-471.24"/>
<polygon fill="midnightblue" stroke="midnightblue" points="526.468,-474.612 537.062,-474.459 528.685,-467.972 526.468,-474.612"/>
</g>
<!-- Node11 -->
<g id="node11" class="node"><title>Node11</title>
<g id="a_node11"><a xlink:href="classVoxel_1_1ConfigurationFile.xhtml#ac104a6730605a5926e9d9ce9ec7bb60a" target="_top" xlink:title="Voxel::ConfigurationFile::get">
<polygon fill="none" stroke="black" points="162,-315.5 162,-334.5 302,-334.5 302,-315.5 162,-315.5"/>
<text text-anchor="middle" x="232" y="-322.5" font-family="Helvetica,sans-Serif" font-size="10.00">Voxel::ConfigurationFile::get</text>
</a>
</g>
</g>
<!-- Node1&#45;&gt;Node11 -->
<g id="edge14" class="edge"><title>Node1&#45;&gt;Node11</title>
<path fill="none" stroke="midnightblue" d="M126.185,-338.808C134.516,-337.71 143.151,-336.573 151.727,-335.443"/>
<polygon fill="midnightblue" stroke="midnightblue" points="152.288,-338.9 161.745,-334.123 151.373,-331.96 152.288,-338.9"/>
</g>
<!-- Node14 -->
<g id="node14" class="node"><title>Node14</title>
<g id="a_node14"><a xlink:href="classVoxel_1_1MainConfigurationFile.xhtml#ab24aaf7b18fea74c6f235da04fadbed0" target="_top" xlink:title="Voxel::MainConfiguration\lFile::getCameraProfile">
<polygon fill="none" stroke="black" points="503,-232 503,-262 629,-262 629,-232 503,-232"/>
<text text-anchor="start" x="511" y="-250" font-family="Helvetica,sans-Serif" font-size="10.00">Voxel::MainConfiguration</text>
<text text-anchor="middle" x="566" y="-239" font-family="Helvetica,sans-Serif" font-size="10.00">File::getCameraProfile</text>
</a>
</g>
</g>
<!-- Node1&#45;&gt;Node14 -->
<g id="edge27" class="edge"><title>Node1&#45;&gt;Node14</title>
<path fill="none" stroke="midnightblue" d="M94.6268,-331.843C113.604,-323.048 138.72,-312.463 162,-306 275.201,-274.573 411.211,-259.087 492.744,-252.088"/>
<polygon fill="midnightblue" stroke="midnightblue" points="493.228,-255.56 502.9,-251.236 492.642,-248.585 493.228,-255.56"/>
</g>
<!-- Node21 -->
<g id="node21" class="node"><title>Node21</title>
<g id="a_node21"><a xlink:href="classVoxel_1_1Configuration.xhtml#aeed2f5638591b839dd233e8673a977e5" target="_top" xlink:title="Updates &quot;name&quot; to full path. ">
<polygon fill="none" stroke="black" points="346.5,-25 346.5,-55 451.5,-55 451.5,-25 346.5,-25"/>
<text text-anchor="start" x="354.5" y="-43" font-family="Helvetica,sans-Serif" font-size="10.00">Voxel::Configuration</text>
<text text-anchor="middle" x="399" y="-32" font-family="Helvetica,sans-Serif" font-size="10.00">::getConfFile</text>
</a>
</g>
</g>
<!-- Node1&#45;&gt;Node21 -->
<g id="edge28" class="edge"><title>Node1&#45;&gt;Node21</title>
<path fill="none" stroke="midnightblue" d="M66.0641,-331.847C72.3862,-291.499 95.2856,-180.675 162,-124 210.963,-82.4045 241.819,-110.492 302,-88 322.809,-80.2227 345.057,-69.2791 362.89,-59.8051"/>
<polygon fill="midnightblue" stroke="midnightblue" points="364.642,-62.8367 371.782,-55.0093 361.319,-56.6757 364.642,-62.8367"/>
</g>
<!-- Node22 -->
<g id="node22" class="node"><title>Node22</title>
<g id="a_node22"><a xlink:href="classVoxel_1_1ConfigurationFile.xhtml#aeefbdefcac8743d6f08c25109480da2f" target="_top" xlink:title="Voxel::ConfigurationFile\l::getInteger">
<polygon fill="none" stroke="black" points="338.5,-205 338.5,-235 459.5,-235 459.5,-205 338.5,-205"/>
<text text-anchor="start" x="346.5" y="-223" font-family="Helvetica,sans-Serif" font-size="10.00">Voxel::ConfigurationFile</text>
<text text-anchor="middle" x="399" y="-212" font-family="Helvetica,sans-Serif" font-size="10.00">::getInteger</text>
</a>
</g>
</g>
<!-- Node1&#45;&gt;Node22 -->
<g id="edge29" class="edge"><title>Node1&#45;&gt;Node22</title>
<path fill="none" stroke="midnightblue" d="M75.7652,-331.844C92.5276,-311.432 125.343,-275.639 162,-258 214.194,-232.885 279.626,-223.86 328.346,-220.846"/>
<polygon fill="midnightblue" stroke="midnightblue" points="328.685,-224.333 338.478,-220.291 328.301,-217.343 328.685,-224.333"/>
</g>
<!-- Node23 -->
<g id="node23" class="node"><title>Node23</title>
<g id="a_node23"><a xlink:href="classVoxel_1_1ConfigurationFile.xhtml#a00e007801296e76b05ef10f1c8176c2d" target="_top" xlink:title="Voxel::ConfigurationFile\l::isPresent">
<polygon fill="none" stroke="black" points="338.5,-99 338.5,-129 459.5,-129 459.5,-99 338.5,-99"/>
<text text-anchor="start" x="346.5" y="-117" font-family="Helvetica,sans-Serif" font-size="10.00">Voxel::ConfigurationFile</text>
<text text-anchor="middle" x="399" y="-106" font-family="Helvetica,sans-Serif" font-size="10.00">::isPresent</text>
</a>
</g>
</g>
<!-- Node1&#45;&gt;Node23 -->
<g id="edge30" class="edge"><title>Node1&#45;&gt;Node23</title>
<path fill="none" stroke="midnightblue" d="M67.5085,-331.939C76.5421,-296.699 104.065,-208.572 162,-165 187.849,-145.559 268.295,-131.024 328.119,-122.544"/>
<polygon fill="midnightblue" stroke="midnightblue" points="328.856,-125.976 338.28,-121.134 327.894,-119.042 328.856,-125.976"/>
</g>
<!-- Node25 -->
<g id="node25" class="node"><title>Node25</title>
<g id="a_node25"><a xlink:href="classVoxel_1_1ConfigurationFile.xhtml#aed32106b59668d21743c241255d1a92a" target="_top" xlink:title="Voxel::ConfigurationFile\l::isValidCameraProfile">
<polygon fill="none" stroke="black" points="171.5,-175 171.5,-205 292.5,-205 292.5,-175 171.5,-175"/>
<text text-anchor="start" x="179.5" y="-193" font-family="Helvetica,sans-Serif" font-size="10.00">Voxel::ConfigurationFile</text>
<text text-anchor="middle" x="232" y="-182" font-family="Helvetica,sans-Serif" font-size="10.00">::isValidCameraProfile</text>
</a>
</g>
</g>
<!-- Node1&#45;&gt;Node25 -->
<g id="edge35" class="edge"><title>Node1&#45;&gt;Node25</title>
<path fill="none" stroke="midnightblue" d="M72.3278,-331.689C87.2059,-305.587 120.697,-252.178 162,-220 166.936,-216.154 172.442,-212.697 178.13,-209.618"/>
<polygon fill="midnightblue" stroke="midnightblue" points="179.793,-212.7 187.164,-205.089 176.656,-206.442 179.793,-212.7"/>
</g>
<!-- Node26 -->
<g id="node26" class="node"><title>Node26</title>
<g id="a_node26"><a xlink:href="structVoxel_1_1DataPacket.xhtml#a3e9f061054a9cad39f3232febaea292a" target="_top" xlink:title="Voxel::DataPacket::read">
<polygon fill="none" stroke="black" points="170,-436.5 170,-455.5 294,-455.5 294,-436.5 170,-436.5"/>
<text text-anchor="middle" x="232" y="-443.5" font-family="Helvetica,sans-Serif" font-size="10.00">Voxel::DataPacket::read</text>
</a>
</g>
</g>
<!-- Node1&#45;&gt;Node26 -->
<g id="edge39" class="edge"><title>Node1&#45;&gt;Node26</title>
<path fill="none" stroke="midnightblue" d="M89.3637,-362.036C120.922,-380.744 174.474,-412.491 205.906,-431.124"/>
<polygon fill="midnightblue" stroke="midnightblue" points="204.139,-434.145 214.526,-436.234 207.708,-428.124 204.139,-434.145"/>
</g>
<!-- Node28 -->
<g id="node28" class="node"><title>Node28</title>
<g id="a_node28"><a xlink:href="classVoxel_1_1SerializableString.xhtml#a1088ed1a25a98e352583060e9ec55fac" target="_top" xlink:title="Voxel::SerializableString\l::read">
<polygon fill="none" stroke="black" points="170.5,-49 170.5,-79 293.5,-79 293.5,-49 170.5,-49"/>
<text text-anchor="start" x="178.5" y="-67" font-family="Helvetica,sans-Serif" font-size="10.00">Voxel::SerializableString</text>
<text text-anchor="middle" x="232" y="-56" font-family="Helvetica,sans-Serif" font-size="10.00">::read</text>
</a>
</g>
</g>
<!-- Node1&#45;&gt;Node28 -->
<g id="edge47" class="edge"><title>Node1&#45;&gt;Node28</title>
<path fill="none" stroke="midnightblue" d="M65.8019,-331.728C71.6441,-288.703 93.8141,-165.01 162,-94 165.528,-90.3254 169.583,-87.0742 173.922,-84.2026"/>
<polygon fill="midnightblue" stroke="midnightblue" points="175.7,-87.2174 182.552,-79.1367 172.156,-81.1806 175.7,-87.2174"/>
</g>
<!-- Node29 -->
<g id="node29" class="node"><title>Node29</title>
<g id="a_node29"><a xlink:href="classVoxel_1_1ConfigurationFile.xhtml#a4654f11cc71f197b3163de706ded30a9" target="_top" xlink:title="Voxel::ConfigurationFile\l::read">
<polygon fill="none" stroke="black" points="171.5,-0 171.5,-30 292.5,-30 292.5,-0 171.5,-0"/>
<text text-anchor="start" x="179.5" y="-18" font-family="Helvetica,sans-Serif" font-size="10.00">Voxel::ConfigurationFile</text>
<text text-anchor="middle" x="232" y="-7" font-family="Helvetica,sans-Serif" font-size="10.00">::read</text>
</a>
</g>
</g>
<!-- Node1&#45;&gt;Node29 -->
<g id="edge48" class="edge"><title>Node1&#45;&gt;Node29</title>
<path fill="none" stroke="midnightblue" d="M64.2834,-331.797C66.031,-282.459 78.2286,-125.037 162,-39 163.051,-37.9209 164.152,-36.8903 165.298,-35.9059"/>
<polygon fill="midnightblue" stroke="midnightblue" points="167.352,-38.7403 173.424,-30.0584 163.263,-33.0585 167.352,-38.7403"/>
</g>
<!-- Node2&#45;&gt;Node3 -->
<g id="edge2" class="edge"><title>Node2&#45;&gt;Node3</title>
<path fill="none" stroke="midnightblue" d="M269.619,-776.091C293.971,-786.128 326.145,-799.387 352.191,-810.121"/>
<polygon fill="midnightblue" stroke="midnightblue" points="350.904,-813.376 361.484,-813.951 353.572,-806.904 350.904,-813.376"/>
</g>
<!-- Node4 -->
<g id="node4" class="node"><title>Node4</title>
<g id="a_node4"><a xlink:href="classVoxel_1_1Configuration.xhtml#abfeffa3f26a5d905901c85a8889823d7" target="_top" xlink:title="Voxel::Configuration\l::getLocalConfFile">
<polygon fill="none" stroke="black" points="346.5,-765 346.5,-795 451.5,-795 451.5,-765 346.5,-765"/>
<text text-anchor="start" x="354.5" y="-783" font-family="Helvetica,sans-Serif" font-size="10.00">Voxel::Configuration</text>
<text text-anchor="middle" x="399" y="-772" font-family="Helvetica,sans-Serif" font-size="10.00">::getLocalConfFile</text>
</a>
</g>
</g>
<!-- Node2&#45;&gt;Node4 -->
<g id="edge3" class="edge"><title>Node2&#45;&gt;Node4</title>
<path fill="none" stroke="midnightblue" d="M299.161,-768.619C311.419,-770.03 324.178,-771.499 336.297,-772.895"/>
<polygon fill="midnightblue" stroke="midnightblue" points="335.966,-776.38 346.3,-774.047 336.766,-769.426 335.966,-776.38"/>
</g>
<!-- Node2&#45;&gt;Node5 -->
<g id="edge4" class="edge"><title>Node2&#45;&gt;Node5</title>
<path fill="none" stroke="midnightblue" d="M299.375,-755.99C406.41,-747.458 608.035,-729.341 636,-712 681.794,-683.603 710.257,-624.324 723.392,-590.689"/>
<polygon fill="midnightblue" stroke="midnightblue" points="726.74,-591.729 726.979,-581.137 720.187,-589.268 726.74,-591.729"/>
</g>
<!-- Node7&#45;&gt;Node6 -->
<g id="edge12" class="edge"><title>Node7&#45;&gt;Node6</title>
<path fill="none" stroke="midnightblue" d="M449.505,-600.998C467.127,-595.658 487.153,-589.59 505.524,-584.023"/>
<polygon fill="midnightblue" stroke="midnightblue" points="506.689,-587.327 515.245,-581.077 504.659,-580.628 506.689,-587.327"/>
</g>
<!-- Node7&#45;&gt;Node8 -->
<g id="edge7" class="edge"><title>Node7&#45;&gt;Node8</title>
<path fill="none" stroke="midnightblue" d="M454.027,-628.443C467.489,-631.543 482.104,-634.909 496.173,-638.149"/>
<polygon fill="midnightblue" stroke="midnightblue" points="495.767,-641.647 506.297,-640.481 497.338,-634.825 495.767,-641.647"/>
</g>
<!-- Node9 -->
<g id="node9" class="node"><title>Node9</title>
<g id="a_node9"><a xlink:href="classVoxel_1_1SerializedObject.xhtml#a93bedaae4489eeac130ea6a98be2589c" target="_top" xlink:title="Voxel::SerializedObject::put">
<polygon fill="none" stroke="black" points="497,-600.5 497,-619.5 635,-619.5 635,-600.5 497,-600.5"/>
<text text-anchor="middle" x="566" y="-607.5" font-family="Helvetica,sans-Serif" font-size="10.00">Voxel::SerializedObject::put</text>
</a>
</g>
</g>
<!-- Node7&#45;&gt;Node9 -->
<g id="edge8" class="edge"><title>Node7&#45;&gt;Node9</title>
<path fill="none" stroke="midnightblue" d="M454.027,-614.035C464.533,-613.653 475.741,-613.246 486.844,-612.842"/>
<polygon fill="midnightblue" stroke="midnightblue" points="487.122,-616.334 496.988,-612.473 486.867,-609.339 487.122,-616.334"/>
</g>
<!-- Node7&#45;&gt;Node10 -->
<g id="edge10" class="edge"><title>Node7&#45;&gt;Node10</title>
<path fill="none" stroke="midnightblue" d="M418.928,-600.858C450.32,-575.744 512.874,-525.701 544.976,-500.019"/>
<polygon fill="midnightblue" stroke="midnightblue" points="547.186,-502.733 552.809,-493.753 542.813,-497.267 547.186,-502.733"/>
</g>
<!-- Node9&#45;&gt;Node5 -->
<g id="edge9" class="edge"><title>Node9&#45;&gt;Node5</title>
<path fill="none" stroke="midnightblue" d="M602.803,-600.453C621.214,-595.543 644.251,-589.4 665.755,-583.665"/>
<polygon fill="midnightblue" stroke="midnightblue" points="666.744,-587.024 675.505,-581.065 664.941,-580.26 666.744,-587.024"/>
</g>
<!-- Node10&#45;&gt;Node5 -->
<g id="edge11" class="edge"><title>Node10&#45;&gt;Node5</title>
<path fill="none" stroke="midnightblue" d="M598.808,-493.52C610.697,-497.476 624.176,-502.446 636,-508 658.72,-518.671 682.9,-533.302 701.309,-545.198"/>
<polygon fill="midnightblue" stroke="midnightblue" points="699.567,-548.241 709.851,-550.79 703.401,-542.385 699.567,-548.241"/>
</g>
<!-- Node12 -->
<g id="node12" class="node"><title>Node12</title>
<g id="a_node12"><a xlink:href="classVoxel_1_1ConfigurationFile.xhtml#af5573f5dba76f1fde00220b892f8121c" target="_top" xlink:title="Voxel::ConfigurationFile\l::_get">
<polygon fill="none" stroke="black" points="338.5,-293 338.5,-323 459.5,-323 459.5,-293 338.5,-293"/>
<text text-anchor="start" x="346.5" y="-311" font-family="Helvetica,sans-Serif" font-size="10.00">Voxel::ConfigurationFile</text>
<text text-anchor="middle" x="399" y="-300" font-family="Helvetica,sans-Serif" font-size="10.00">::_get</text>
</a>
</g>
</g>
<!-- Node11&#45;&gt;Node12 -->
<g id="edge15" class="edge"><title>Node11&#45;&gt;Node12</title>
<path fill="none" stroke="midnightblue" d="M302.019,-317.889C310.715,-316.993 319.616,-316.076 328.321,-315.179"/>
<polygon fill="midnightblue" stroke="midnightblue" points="328.839,-318.644 338.428,-314.138 328.121,-311.681 328.839,-318.644"/>
</g>
<!-- Node12&#45;&gt;Node12 -->
<g id="edge17" class="edge"><title>Node12&#45;&gt;Node12</title>
<path fill="none" stroke="midnightblue" d="M369.82,-323.275C363.336,-332.406 373.062,-341 399,-341 414.4,-341 424.086,-337.97 428.056,-333.598"/>
<polygon fill="midnightblue" stroke="midnightblue" points="431.56,-333.317 428.18,-323.275 424.56,-333.233 431.56,-333.317"/>
</g>
<!-- Node13 -->
<g id="node13" class="node"><title>Node13</title>
<g id="a_node13"><a xlink:href="classVoxel_1_1ConfigSet.xhtml#a49e4060aa2bc96690da36bdf5ef7b227" target="_top" xlink:title="Voxel::ConfigSet::_get">
<polygon fill="none" stroke="black" points="508,-298.5 508,-317.5 624,-317.5 624,-298.5 508,-298.5"/>
<text text-anchor="middle" x="566" y="-305.5" font-family="Helvetica,sans-Serif" font-size="10.00">Voxel::ConfigSet::_get</text>
</a>
</g>
</g>
<!-- Node12&#45;&gt;Node13 -->
<g id="edge16" class="edge"><title>Node12&#45;&gt;Node13</title>
<path fill="none" stroke="midnightblue" d="M459.569,-308C472.024,-308 485.237,-308 497.943,-308"/>
<polygon fill="midnightblue" stroke="midnightblue" points="498,-311.5 508,-308 498,-304.5 498,-311.5"/>
</g>
<!-- Node12&#45;&gt;Node14 -->
<g id="edge18" class="edge"><title>Node12&#45;&gt;Node14</title>
<path fill="none" stroke="midnightblue" d="M440.787,-292.921C463.181,-284.642 491.141,-274.305 514.86,-265.536"/>
<polygon fill="midnightblue" stroke="midnightblue" points="516.231,-268.761 524.397,-262.011 513.804,-262.196 516.231,-268.761"/>
</g>
<!-- Node15 -->
<g id="node15" class="node"><title>Node15</title>
<g id="a_node15"><a xlink:href="classVoxel_1_1ConfigurationFile.xhtml#a440d9dd2f89d0c76c81f7285b31a5b94" target="_top" xlink:title="Voxel::ConfigurationFile::set">
<polygon fill="none" stroke="black" points="496,-159.5 496,-178.5 636,-178.5 636,-159.5 496,-159.5"/>
<text text-anchor="middle" x="566" y="-166.5" font-family="Helvetica,sans-Serif" font-size="10.00">Voxel::ConfigurationFile::set</text>
</a>
</g>
</g>
<!-- Node12&#45;&gt;Node15 -->
<g id="edge19" class="edge"><title>Node12&#45;&gt;Node15</title>
<path fill="none" stroke="midnightblue" d="M416.315,-292.698C435.153,-275.192 467.245,-245.866 496,-222 511.542,-209.101 529.672,-195.218 543.447,-184.897"/>
<polygon fill="midnightblue" stroke="midnightblue" points="545.87,-187.457 551.799,-178.676 541.688,-181.843 545.87,-187.457"/>
</g>
<!-- Node16 -->
<g id="node16" class="node"><title>Node16</title>
<g id="a_node16"><a xlink:href="classVoxel_1_1ConfigurationFile.xhtml#a3b9b573c1a3d9162fc0100c317ca0879" target="_top" xlink:title="Voxel::ConfigurationFile\l::_set">
<polygon fill="none" stroke="black" points="672.5,-154 672.5,-184 793.5,-184 793.5,-154 672.5,-154"/>
<text text-anchor="start" x="680.5" y="-172" font-family="Helvetica,sans-Serif" font-size="10.00">Voxel::ConfigurationFile</text>
<text text-anchor="middle" x="733" y="-161" font-family="Helvetica,sans-Serif" font-size="10.00">::_set</text>
</a>
</g>
</g>
<!-- Node15&#45;&gt;Node16 -->
<g id="edge20" class="edge"><title>Node15&#45;&gt;Node16</title>
<path fill="none" stroke="midnightblue" d="M636.019,-162.331C644.715,-162.226 653.616,-162.223 662.321,-162.323"/>
<polygon fill="midnightblue" stroke="midnightblue" points="662.372,-165.824 672.428,-162.487 662.486,-158.825 662.372,-165.824"/>
</g>
<!-- Node16&#45;&gt;Node15 -->
<g id="edge25" class="edge"><title>Node16&#45;&gt;Node15</title>
<path fill="none" stroke="midnightblue" d="M672.428,-175.513C663.936,-175.693 655.092,-175.77 646.297,-175.745"/>
<polygon fill="midnightblue" stroke="midnightblue" points="646.045,-172.244 636.019,-175.669 645.993,-179.243 646.045,-172.244"/>
</g>
<!-- Node17 -->
<g id="node17" class="node"><title>Node17</title>
<g id="a_node17"><a xlink:href="classVoxel_1_1ConfigSet.xhtml#a8fb880c24ad7b0f04c84d4a33becb995" target="_top" xlink:title="Voxel::ConfigSet::_set">
<polygon fill="none" stroke="black" points="830,-159.5 830,-178.5 946,-178.5 946,-159.5 830,-159.5"/>
<text text-anchor="middle" x="888" y="-166.5" font-family="Helvetica,sans-Serif" font-size="10.00">Voxel::ConfigSet::_set</text>
</a>
</g>
</g>
<!-- Node16&#45;&gt;Node17 -->
<g id="edge21" class="edge"><title>Node16&#45;&gt;Node17</title>
<path fill="none" stroke="midnightblue" d="M793.592,-169C802.156,-169 811.017,-169 819.717,-169"/>
<polygon fill="midnightblue" stroke="midnightblue" points="819.828,-172.5 829.828,-169 819.828,-165.5 819.828,-172.5"/>
</g>
<!-- Node18 -->
<g id="node18" class="node"><title>Node18</title>
<g id="a_node18"><a xlink:href="group__Util.xhtml#ga6b2a26aa983349496fedae9aa54ad034" target="_top" xlink:title="Trim. ">
<polygon fill="none" stroke="black" points="982,-159.5 982,-178.5 1046,-178.5 1046,-159.5 982,-159.5"/>
<text text-anchor="middle" x="1014" y="-166.5" font-family="Helvetica,sans-Serif" font-size="10.00">Voxel::trim</text>
</a>
</g>
</g>
<!-- Node17&#45;&gt;Node18 -->
<g id="edge22" class="edge"><title>Node17&#45;&gt;Node18</title>
<path fill="none" stroke="midnightblue" d="M946.281,-169C954.753,-169 963.343,-169 971.413,-169"/>
<polygon fill="midnightblue" stroke="midnightblue" points="971.67,-172.5 981.67,-169 971.669,-165.5 971.67,-172.5"/>
</g>
<!-- Node19 -->
<g id="node19" class="node"><title>Node19</title>
<g id="a_node19"><a xlink:href="group__Util.xhtml#gac9c04e18f7878dd82964bb489b7b1314" target="_top" xlink:title="Left Trim. ">
<polygon fill="none" stroke="black" points="1083,-178.5 1083,-197.5 1149,-197.5 1149,-178.5 1083,-178.5"/>
<text text-anchor="middle" x="1116" y="-185.5" font-family="Helvetica,sans-Serif" font-size="10.00">Voxel::ltrim</text>
</a>
</g>
</g>
<!-- Node18&#45;&gt;Node19 -->
<g id="edge23" class="edge"><title>Node18&#45;&gt;Node19</title>
<path fill="none" stroke="midnightblue" d="M1046.09,-174.908C1054.59,-176.522 1063.94,-178.299 1072.94,-180.009"/>
<polygon fill="midnightblue" stroke="midnightblue" points="1072.41,-183.471 1082.89,-181.899 1073.72,-176.594 1072.41,-183.471"/>
</g>
<!-- Node20 -->
<g id="node20" class="node"><title>Node20</title>
<g id="a_node20"><a xlink:href="group__Util.xhtml#ga3d95f05dde73bc9c54051437445e439b" target="_top" xlink:title="Right Trim. ">
<polygon fill="none" stroke="black" points="1082.5,-140.5 1082.5,-159.5 1149.5,-159.5 1149.5,-140.5 1082.5,-140.5"/>
<text text-anchor="middle" x="1116" y="-147.5" font-family="Helvetica,sans-Serif" font-size="10.00">Voxel::rtrim</text>
</a>
</g>
</g>
<!-- Node18&#45;&gt;Node20 -->
<g id="edge24" class="edge"><title>Node18&#45;&gt;Node20</title>
<path fill="none" stroke="midnightblue" d="M1046.09,-163.092C1054.33,-161.526 1063.38,-159.808 1072.13,-158.146"/>
<polygon fill="midnightblue" stroke="midnightblue" points="1073.02,-161.538 1082.2,-156.233 1071.72,-154.661 1073.02,-161.538"/>
</g>
<!-- Node23&#45;&gt;Node14 -->
<g id="edge31" class="edge"><title>Node23&#45;&gt;Node14</title>
<path fill="none" stroke="midnightblue" d="M418.939,-129.105C430.758,-138.544 446.282,-150.96 460,-162 486.777,-183.549 517.305,-208.281 538.515,-225.49"/>
<polygon fill="midnightblue" stroke="midnightblue" points="536.468,-228.336 546.438,-231.92 540.879,-222.901 536.468,-228.336"/>
</g>
<!-- Node23&#45;&gt;Node15 -->
<g id="edge34" class="edge"><title>Node23&#45;&gt;Node15</title>
<path fill="none" stroke="midnightblue" d="M445.087,-129.029C470.581,-137.527 502.123,-148.041 526.457,-156.152"/>
<polygon fill="midnightblue" stroke="midnightblue" points="525.477,-159.515 536.07,-159.357 527.69,-152.874 525.477,-159.515"/>
</g>
<!-- Node23&#45;&gt;Node23 -->
<g id="edge33" class="edge"><title>Node23&#45;&gt;Node23</title>
<path fill="none" stroke="midnightblue" d="M369.82,-129.275C363.336,-138.406 373.062,-147 399,-147 414.4,-147 424.086,-143.97 428.056,-139.598"/>
<polygon fill="midnightblue" stroke="midnightblue" points="431.56,-139.317 428.18,-129.275 424.56,-139.233 431.56,-139.317"/>
</g>
<!-- Node24 -->
<g id="node24" class="node"><title>Node24</title>
<g id="a_node24"><a xlink:href="classVoxel_1_1ConfigSet.xhtml#ab7930d0d21d160341d989ef998ecac73" target="_top" xlink:title="Voxel::ConfigSet::isPresent">
<polygon fill="none" stroke="black" points="497,-104.5 497,-123.5 635,-123.5 635,-104.5 497,-104.5"/>
<text text-anchor="middle" x="566" y="-111.5" font-family="Helvetica,sans-Serif" font-size="10.00">Voxel::ConfigSet::isPresent</text>
</a>
</g>
</g>
<!-- Node23&#45;&gt;Node24 -->
<g id="edge32" class="edge"><title>Node23&#45;&gt;Node24</title>
<path fill="none" stroke="midnightblue" d="M459.569,-114C468.355,-114 477.518,-114 486.614,-114"/>
<polygon fill="midnightblue" stroke="midnightblue" points="486.831,-117.5 496.831,-114 486.831,-110.5 486.831,-117.5"/>
</g>
<!-- Node25&#45;&gt;Node14 -->
<g id="edge36" class="edge"><title>Node25&#45;&gt;Node14</title>
<path fill="none" stroke="midnightblue" d="M292.715,-184.313C339.04,-181.569 404.493,-181.362 460,-195 486.039,-201.398 513.1,-214.993 533.228,-226.678"/>
<polygon fill="midnightblue" stroke="midnightblue" points="531.577,-229.768 541.959,-231.88 535.16,-223.755 531.577,-229.768"/>
</g>
<!-- Node25&#45;&gt;Node22 -->
<g id="edge37" class="edge"><title>Node25&#45;&gt;Node22</title>
<path fill="none" stroke="midnightblue" d="M292.569,-200.831C304.18,-202.942 316.449,-205.172 328.352,-207.337"/>
<polygon fill="midnightblue" stroke="midnightblue" points="327.777,-210.789 338.242,-209.135 329.029,-203.902 327.777,-210.789"/>
</g>
<!-- Node25&#45;&gt;Node23 -->
<g id="edge38" class="edge"><title>Node25&#45;&gt;Node23</title>
<path fill="none" stroke="midnightblue" d="M268.213,-174.986C279.083,-170.272 291.069,-164.993 302,-160 320.439,-151.577 340.701,-141.927 357.839,-133.648"/>
<polygon fill="midnightblue" stroke="midnightblue" points="359.534,-136.716 367.007,-129.206 356.481,-130.417 359.534,-136.716"/>
</g>
<!-- Node26&#45;&gt;Node5 -->
<g id="edge44" class="edge"><title>Node26&#45;&gt;Node5</title>
<path fill="none" stroke="midnightblue" d="M282.813,-436.47C362.038,-423.829 519.676,-409.11 636,-465 671.384,-482.001 700.482,-518.029 717.046,-542.133"/>
<polygon fill="midnightblue" stroke="midnightblue" points="714.311,-544.34 722.768,-550.723 720.137,-540.46 714.311,-544.34"/>
</g>
<!-- Node26&#45;&gt;Node6 -->
<g id="edge45" class="edge"><title>Node26&#45;&gt;Node6</title>
<path fill="none" stroke="midnightblue" d="M244.814,-455.66C263.467,-470.426 301.392,-498.525 338,-514 389,-535.559 450.399,-548.933 496.474,-556.71"/>
<polygon fill="midnightblue" stroke="midnightblue" points="495.924,-560.166 506.359,-558.332 497.058,-553.259 495.924,-560.166"/>
</g>
<!-- Node26&#45;&gt;Node10 -->
<g id="edge46" class="edge"><title>Node26&#45;&gt;Node10</title>
<path fill="none" stroke="midnightblue" d="M294.349,-449.543C340.123,-452.572 404.13,-457.624 460,-465 475.593,-467.059 492.392,-469.842 507.883,-472.642"/>
<polygon fill="midnightblue" stroke="midnightblue" points="507.379,-476.108 517.847,-474.477 508.647,-469.224 507.379,-476.108"/>
</g>
<!-- Node27 -->
<g id="node27" class="node"><title>Node27</title>
<g id="a_node27"><a xlink:href="structVoxel_1_1DataPacket.xhtml#a6b513813ba962f331cb8a2683fbf5b85" target="_top" xlink:title="Voxel::DataPacket::\lreadHeader">
<polygon fill="none" stroke="black" points="346.5,-475 346.5,-505 451.5,-505 451.5,-475 346.5,-475"/>
<text text-anchor="start" x="354.5" y="-493" font-family="Helvetica,sans-Serif" font-size="10.00">Voxel::DataPacket::</text>
<text text-anchor="middle" x="399" y="-482" font-family="Helvetica,sans-Serif" font-size="10.00">readHeader</text>
</a>
</g>
</g>
<!-- Node26&#45;&gt;Node27 -->
<g id="edge40" class="edge"><title>Node26&#45;&gt;Node27</title>
<path fill="none" stroke="midnightblue" d="M268.803,-455.547C288.535,-460.809 313.582,-467.489 336.359,-473.562"/>
<polygon fill="midnightblue" stroke="midnightblue" points="335.733,-477.018 346.297,-476.213 337.536,-470.254 335.733,-477.018"/>
</g>
<!-- Node27&#45;&gt;Node5 -->
<g id="edge41" class="edge"><title>Node27&#45;&gt;Node5</title>
<path fill="none" stroke="midnightblue" d="M451.703,-500.522C499.611,-510.427 572.795,-525.948 636,-541 645.738,-543.319 656.003,-545.874 666.054,-548.438"/>
<polygon fill="midnightblue" stroke="midnightblue" points="665.449,-551.896 676.006,-550.996 667.192,-545.117 665.449,-551.896"/>
</g>
<!-- Node27&#45;&gt;Node6 -->
<g id="edge42" class="edge"><title>Node27&#45;&gt;Node6</title>
<path fill="none" stroke="midnightblue" d="M430.993,-505.206C449.732,-514.311 474.146,-526.018 496,-536 503.857,-539.589 512.258,-543.325 520.399,-546.894"/>
<polygon fill="midnightblue" stroke="midnightblue" points="519.222,-550.199 529.787,-550.986 522.019,-543.782 519.222,-550.199"/>
</g>
<!-- Node27&#45;&gt;Node10 -->
<g id="edge43" class="edge"><title>Node27&#45;&gt;Node10</title>
<path fill="none" stroke="midnightblue" d="M451.754,-488.118C462.792,-487.717 474.687,-487.284 486.473,-486.856"/>
<polygon fill="midnightblue" stroke="midnightblue" points="486.912,-490.342 496.778,-486.481 486.658,-483.347 486.912,-490.342"/>
</g>
<!-- Node29&#45;&gt;Node21 -->
<g id="edge49" class="edge"><title>Node29&#45;&gt;Node21</title>
<path fill="none" stroke="midnightblue" d="M292.569,-24.0256C306.756,-26.1752 321.927,-28.4737 336.211,-30.6381"/>
<polygon fill="midnightblue" stroke="midnightblue" points="336.018,-34.1486 346.429,-32.1863 337.067,-27.2276 336.018,-34.1486"/>
</g>
</g>
</svg>
        <g id="navigator" transform="translate(0 0)" fill="#404254">
                <rect fill="#f2f5e9" fill-opacity="0.5" stroke="#606060" stroke-width=".5" x="0" y="0" width="60" height="60"/>
                <use id="zoomplus" xlink:href="#zoomPlus" x="17" y="9" onmousedown="handleZoom(evt,'in')"/>
                <use id="zoomminus" xlink:href="#zoomMin" x="42" y="9" onmousedown="handleZoom(evt,'out')"/>
                <use id="reset" xlink:href="#resetDef" x="30" y="36" onmousedown="handleReset()"/>
                <g id="arrowUp" xlink:href="#dirArrow" transform="translate(30 24)" onmousedown="handlePan(0,-1)">
                  <use xlink:href="#rim" fill="#404040">
                        <set attributeName="fill" to="#808080" begin="arrowUp.mouseover" end="arrowUp.mouseout"/>
                  </use>
                  <path fill="none" stroke="white" stroke-width="1.5" d="M0,-3.0v7 M-2.5,-0.5L0,-3.0L2.5,-0.5"/>
                </g>
                <g id="arrowRight" xlink:href="#dirArrow" transform="rotate(90) translate(36 -43)" onmousedown="handlePan(1,0)">
                  <use xlink:href="#rim" fill="#404040">
                        <set attributeName="fill" to="#808080" begin="arrowRight.mouseover" end="arrowRight.mouseout"/>
                  </use>
                  <path fill="none" stroke="white" stroke-width="1.5" d="M0,-3.0v7 M-2.5,-0.5L0,-3.0L2.5,-0.5"/>
                </g>
                <g id="arrowDown" xlink:href="#dirArrow" transform="rotate(180) translate(-30 -48)" onmousedown="handlePan(0,1)">
                  <use xlink:href="#rim" fill="#404040">
                        <set attributeName="fill" to="#808080" begin="arrowDown.mouseover" end="arrowDown.mouseout"/>
                  </use>
                  <path fill="none" stroke="white" stroke-width="1.5" d="M0,-3.0v7 M-2.5,-0.5L0,-3.0L2.5,-0.5"/>
                </g>
                <g id="arrowLeft" xlink:href="#dirArrow" transform="rotate(270) translate(-36 17)" onmousedown="handlePan(-1,0)">
                  <use xlink:href="#rim" fill="#404040">
                        <set attributeName="fill" to="#808080" begin="arrowLeft.mouseover" end="arrowLeft.mouseout"/>
                  </use>
                  <path fill="none" stroke="white" stroke-width="1.5" d="M0,-3.0v7 M-2.5,-0.5L0,-3.0L2.5,-0.5"/>
                </g>
        </g>
        <svg viewBox="0 0 15 15" width="100%" height="30px" preserveAspectRatio="xMaxYMin meet">
         <g id="arrow_out" transform="scale(0.3 0.3)">
          <a xlink:href="classVoxel_1_1MainConfigurationFile_ab801a8f7e2eabaf3f524877c5c257fa2_cgraph_org.svg" target="_base">
           <rect id="button" ry="5" rx="5" y="6" x="6" height="38" width="38"
                fill="#f2f5e9" fill-opacity="0.5" stroke="#606060" stroke-width="1.0"/>
           <path id="arrow"
             d="M 11.500037,31.436501 C 11.940474,20.09759 22.043105,11.32322 32.158766,21.979434 L 37.068811,17.246167 C 37.068811,17.246167 37.088388,32 37.088388,32 L 22.160133,31.978069 C 22.160133,31.978069 26.997745,27.140456 26.997745,27.140456 C 18.528582,18.264221 13.291696,25.230495 11.500037,31.436501 z"
             style="fill:#404040;"/>
          </a>
         </g>
        </svg>
</svg>
