<?xml version="1.0" encoding="UTF-8" standalone="no"?>
<!DOCTYPE svg PUBLIC "-//W3C//DTD SVG 1.1//EN"
 "http://www.w3.org/Graphics/SVG/1.1/DTD/svg11.dtd">
<!-- Generated by graphviz version 2.36.0 (20140111.2315)
 -->
<!-- Title: Voxel::CLIManager Pages: 1 -->
<svg width="852pt" height="490pt"
 viewBox="0.00 0.00 852.00 490.16" xmlns="http://www.w3.org/2000/svg" xmlns:xlink="http://www.w3.org/1999/xlink">
<g id="graph0" class="graph" transform="scale(1 1) rotate(0) translate(4 486.161)">
<title>Voxel::CLIManager</title>
<!-- Node1 -->
<g id="node1" class="node"><title>Node1</title>
<polygon fill="#bfbfbf" stroke="black" points="742.5,-177.661 742.5,-196.661 843.5,-196.661 843.5,-177.661 742.5,-177.661"/>
<text text-anchor="middle" x="793" y="-184.661" font-family="Helvetica,sans-Serif" font-size="10.00">Voxel::CLIManager</text>
</g>
<!-- Node2 -->
<g id="node2" class="node"><title>Node2</title>
<g id="a_node2"><a xlink:href="classVoxel_1_1CameraSystem.xhtml" target="_top" xlink:title="This class provides ways to instantiate individual cameras and components like filters. ">
<polygon fill="none" stroke="black" points="460,-383.661 460,-402.661 576,-402.661 576,-383.661 460,-383.661"/>
<text text-anchor="middle" x="518" y="-390.661" font-family="Helvetica,sans-Serif" font-size="10.00">Voxel::CameraSystem</text>
</a>
</g>
</g>
<!-- Node2&#45;&gt;Node1 -->
<g id="edge1" class="edge"><title>Node2&#45;&gt;Node1</title>
<path fill="none" stroke="#9a32cd" stroke-dasharray="5,2" d="M586.627,-399.28C630.245,-399.602 685.761,-392.777 724,-362.161 777.942,-318.973 789.176,-227.302 791.445,-197.065"/>
<polygon fill="#9a32cd" stroke="#9a32cd" points="586.45,-395.775 576.381,-399.073 586.308,-402.774 586.45,-395.775"/>
<text text-anchor="middle" x="665" y="-402.161" font-family="Helvetica,sans-Serif" font-size="10.00"> _sys</text>
</g>
<!-- Node3 -->
<g id="node3" class="node"><title>Node3</title>
<polygon fill="none" stroke="#bfbfbf" points="171.5,-397.661 171.5,-416.661 278.5,-416.661 278.5,-397.661 171.5,-397.661"/>
<text text-anchor="middle" x="225" y="-404.661" font-family="Helvetica,sans-Serif" font-size="10.00">Vector&lt; Voxel::Ptr &gt;</text>
</g>
<!-- Node3&#45;&gt;Node2 -->
<g id="edge2" class="edge"><title>Node3&#45;&gt;Node2</title>
<path fill="none" stroke="#9a32cd" stroke-dasharray="5,2" d="M288.909,-404.134C339.765,-401.688 410.75,-398.273 459.967,-395.905"/>
<polygon fill="#9a32cd" stroke="#9a32cd" points="288.518,-400.649 278.698,-404.626 288.855,-407.641 288.518,-400.649"/>
<text text-anchor="middle" x="377" y="-406.161" font-family="Helvetica,sans-Serif" font-size="10.00"> _libraries</text>
</g>
<!-- Node4 -->
<g id="node4" class="node"><title>Node4</title>
<polygon fill="none" stroke="#bfbfbf" points="164,-348.161 164,-378.161 286,-378.161 286,-348.161 164,-348.161"/>
<text text-anchor="start" x="172" y="-366.161" font-family="Helvetica,sans-Serif" font-size="10.00">Map&lt; GeneratorIDType,</text>
<text text-anchor="middle" x="225" y="-355.161" font-family="Helvetica,sans-Serif" font-size="10.00"> Voxel::Ptr &gt;</text>
</g>
<!-- Node4&#45;&gt;Node2 -->
<g id="edge3" class="edge"><title>Node4&#45;&gt;Node2</title>
<path fill="none" stroke="#9a32cd" stroke-dasharray="5,2" d="M296.301,-369.761C335.64,-373.528 385.566,-378.429 430,-383.161 439.676,-384.191 449.951,-385.331 459.921,-386.462"/>
<polygon fill="#9a32cd" stroke="#9a32cd" points="296.567,-366.271 286.28,-368.804 295.902,-373.239 296.567,-366.271"/>
<text text-anchor="middle" x="377" y="-386.161" font-family="Helvetica,sans-Serif" font-size="10.00"> _factoryForGeneratorID</text>
</g>
<!-- Node5 -->
<g id="node5" class="node"><title>Node5</title>
<polygon fill="none" stroke="#bfbfbf" points="174.5,-436.161 174.5,-466.161 275.5,-466.161 275.5,-436.161 174.5,-436.161"/>
<text text-anchor="start" x="182.5" y="-454.161" font-family="Helvetica,sans-Serif" font-size="10.00">Map&lt; String, Voxel</text>
<text text-anchor="middle" x="225" y="-443.161" font-family="Helvetica,sans-Serif" font-size="10.00">::Ptr &gt;</text>
</g>
<!-- Node5&#45;&gt;Node2 -->
<g id="edge4" class="edge"><title>Node5&#45;&gt;Node2</title>
<path fill="none" stroke="#9a32cd" stroke-dasharray="5,2" d="M285.846,-443.4C326.694,-437.634 381.908,-428.92 430,-418.161 449.17,-413.872 470.362,-407.811 487.031,-402.731"/>
<polygon fill="#9a32cd" stroke="#9a32cd" points="285.205,-439.955 275.783,-444.802 286.17,-446.888 285.205,-439.955"/>
<text text-anchor="middle" x="377" y="-474.161" font-family="Helvetica,sans-Serif" font-size="10.00"> _depthCameras</text>
<text text-anchor="middle" x="377" y="-463.161" font-family="Helvetica,sans-Serif" font-size="10.00">_downloaderFactories</text>
<text text-anchor="middle" x="377" y="-452.161" font-family="Helvetica,sans-Serif" font-size="10.00">_filterFactories</text>
<text text-anchor="middle" x="377" y="-441.161" font-family="Helvetica,sans-Serif" font-size="10.00">_factories</text>
</g>
<!-- Node6 -->
<g id="node6" class="node"><title>Node6</title>
<polygon fill="none" stroke="#bfbfbf" points="492.5,-332.661 492.5,-351.661 543.5,-351.661 543.5,-332.661 492.5,-332.661"/>
<text text-anchor="middle" x="518" y="-339.661" font-family="Helvetica,sans-Serif" font-size="10.00">uint64_t</text>
</g>
<!-- Node6&#45;&gt;Node1 -->
<g id="edge5" class="edge"><title>Node6&#45;&gt;Node1</title>
<path fill="none" stroke="#9a32cd" stroke-dasharray="5,2" d="M553.769,-346.44C597.508,-349.948 673.047,-349.582 724,-314.161 766.098,-284.896 784.379,-221.062 789.991,-196.789"/>
<polygon fill="#9a32cd" stroke="#9a32cd" points="553.907,-342.939 543.63,-345.511 553.268,-349.909 553.907,-342.939"/>
<text text-anchor="middle" x="665" y="-351.161" font-family="Helvetica,sans-Serif" font-size="10.00"> _lastTimeStamp</text>
</g>
<!-- Node7 -->
<g id="node7" class="node"><title>Node7</title>
<g id="a_node7"><a xlink:href="classVoxel_1_1Ptr.xhtml" target="_top" xlink:title="Voxel::Ptr\&lt; Voxel::\lPCLViewer \&gt;">
<polygon fill="none" stroke="black" points="468,-283.161 468,-313.161 568,-313.161 568,-283.161 468,-283.161"/>
<text text-anchor="start" x="476" y="-301.161" font-family="Helvetica,sans-Serif" font-size="10.00">Voxel::Ptr&lt; Voxel::</text>
<text text-anchor="middle" x="518" y="-290.161" font-family="Helvetica,sans-Serif" font-size="10.00">PCLViewer &gt;</text>
</a>
</g>
</g>
<!-- Node7&#45;&gt;Node1 -->
<g id="edge6" class="edge"><title>Node7&#45;&gt;Node1</title>
<path fill="none" stroke="#9a32cd" stroke-dasharray="5,2" d="M578.088,-299.993C621.068,-298.86 679.313,-292.051 724,-267.161 754.416,-250.22 777.298,-214.025 786.957,-196.738"/>
<polygon fill="#9a32cd" stroke="#9a32cd" points="578,-296.494 568.061,-300.162 578.118,-303.493 578,-296.494"/>
<text text-anchor="middle" x="665" y="-302.161" font-family="Helvetica,sans-Serif" font-size="10.00"> _viewer</text>
</g>
<!-- Node8 -->
<g id="node8" class="node"><title>Node8</title>
<polygon fill="none" stroke="#bfbfbf" points="167,-299.161 167,-329.161 283,-329.161 283,-299.161 167,-299.161"/>
<text text-anchor="start" x="175" y="-317.161" font-family="Helvetica,sans-Serif" font-size="10.00">std::shared_ptr&lt; Voxel</text>
<text text-anchor="middle" x="225" y="-306.161" font-family="Helvetica,sans-Serif" font-size="10.00">::PCLViewer &gt;</text>
</g>
<!-- Node8&#45;&gt;Node7 -->
<g id="edge7" class="edge"><title>Node8&#45;&gt;Node7</title>
<path fill="none" stroke="midnightblue" d="M293.189,-310.467C346.489,-307.536 419.758,-303.508 467.729,-300.87"/>
<polygon fill="midnightblue" stroke="midnightblue" points="292.938,-306.975 283.145,-311.019 293.322,-313.965 292.938,-306.975"/>
</g>
<!-- Node9 -->
<g id="node9" class="node"><title>Node9</title>
<g id="a_node9"><a xlink:href="classVoxel_1_1Ptr.xhtml" target="_top" xlink:title="Voxel::Ptr\&lt; T \&gt;">
<polygon fill="none" stroke="black" points="183,-255.661 183,-274.661 267,-274.661 267,-255.661 183,-255.661"/>
<text text-anchor="middle" x="225" y="-262.661" font-family="Helvetica,sans-Serif" font-size="10.00">Voxel::Ptr&lt; T &gt;</text>
</a>
</g>
</g>
<!-- Node9&#45;&gt;Node7 -->
<g id="edge8" class="edge"><title>Node9&#45;&gt;Node7</title>
<path fill="none" stroke="orange" stroke-dasharray="5,2" d="M277.076,-270.953C330.833,-277.049 414.859,-286.578 467.871,-292.59"/>
<polygon fill="orange" stroke="orange" points="277.407,-267.468 267.076,-269.819 276.618,-274.424 277.407,-267.468"/>
<text text-anchor="middle" x="377" y="-291.161" font-family="Helvetica,sans-Serif" font-size="10.00"> &lt; Voxel::PCLViewer &gt;</text>
</g>
<!-- Node15 -->
<g id="node15" class="node"><title>Node15</title>
<g id="a_node15"><a xlink:href="classVoxel_1_1Ptr.xhtml" target="_top" xlink:title="Voxel::Ptr\&lt; DepthCamera \&gt;">
<polygon fill="none" stroke="black" points="448.5,-244.661 448.5,-263.661 587.5,-263.661 587.5,-244.661 448.5,-244.661"/>
<text text-anchor="middle" x="518" y="-251.661" font-family="Helvetica,sans-Serif" font-size="10.00">Voxel::Ptr&lt; DepthCamera &gt;</text>
</a>
</g>
</g>
<!-- Node9&#45;&gt;Node15 -->
<g id="edge16" class="edge"><title>Node9&#45;&gt;Node15</title>
<path fill="none" stroke="orange" stroke-dasharray="5,2" d="M277.519,-258.962C292.487,-257.416 308.875,-255.97 324,-255.161 365.155,-252.96 411.317,-252.643 448.174,-252.908"/>
<polygon fill="orange" stroke="orange" points="276.988,-255.498 267.417,-260.041 277.732,-262.459 276.988,-255.498"/>
<text text-anchor="middle" x="377" y="-258.161" font-family="Helvetica,sans-Serif" font-size="10.00"> &lt; DepthCamera &gt;</text>
</g>
<!-- Node10 -->
<g id="node10" class="node"><title>Node10</title>
<polygon fill="none" stroke="#bfbfbf" points="0,-255.661 0,-274.661 106,-274.661 106,-255.661 0,-255.661"/>
<text text-anchor="middle" x="53" y="-262.661" font-family="Helvetica,sans-Serif" font-size="10.00">std::shared_ptr&lt; T &gt;</text>
</g>
<!-- Node10&#45;&gt;Node9 -->
<g id="edge9" class="edge"><title>Node10&#45;&gt;Node9</title>
<path fill="none" stroke="midnightblue" d="M116.691,-265.161C138.763,-265.161 162.994,-265.161 182.838,-265.161"/>
<polygon fill="midnightblue" stroke="midnightblue" points="116.393,-261.661 106.393,-265.161 116.393,-268.661 116.393,-261.661"/>
</g>
<!-- Node11 -->
<g id="node11" class="node"><title>Node11</title>
<polygon fill="none" stroke="#bfbfbf" points="450,-195.161 450,-225.161 586,-225.161 586,-195.161 450,-195.161"/>
<text text-anchor="start" x="458" y="-213.161" font-family="Helvetica,sans-Serif" font-size="10.00">Map&lt; String, Voxel</text>
<text text-anchor="middle" x="518" y="-202.161" font-family="Helvetica,sans-Serif" font-size="10.00">::CLIManager::Command &gt;</text>
</g>
<!-- Node11&#45;&gt;Node1 -->
<g id="edge10" class="edge"><title>Node11&#45;&gt;Node1</title>
<path fill="none" stroke="#9a32cd" stroke-dasharray="5,2" d="M596.25,-203.653C643.112,-199.705 701.533,-194.783 742.301,-191.348"/>
<polygon fill="#9a32cd" stroke="#9a32cd" points="595.804,-200.178 586.133,-204.505 596.392,-207.153 595.804,-200.178"/>
<text text-anchor="middle" x="665" y="-217.161" font-family="Helvetica,sans-Serif" font-size="10.00"> _specialParameters</text>
<text text-anchor="middle" x="665" y="-206.161" font-family="Helvetica,sans-Serif" font-size="10.00">_commands</text>
</g>
<!-- Node12 -->
<g id="node12" class="node"><title>Node12</title>
<g id="a_node12"><a xlink:href="classint.xhtml" target="_top" xlink:title="int">
<polygon fill="none" stroke="black" points="503.5,-156.661 503.5,-175.661 532.5,-175.661 532.5,-156.661 503.5,-156.661"/>
<text text-anchor="middle" x="518" y="-163.661" font-family="Helvetica,sans-Serif" font-size="10.00">int</text>
</a>
</g>
</g>
<!-- Node12&#45;&gt;Node1 -->
<g id="edge11" class="edge"><title>Node12&#45;&gt;Node1</title>
<path fill="none" stroke="#9a32cd" stroke-dasharray="5,2" d="M542.684,-163.882C581.031,-160.7 658.979,-156.35 724,-166.161 738.661,-168.373 754.519,-173.126 767.23,-177.551"/>
<polygon fill="#9a32cd" stroke="#9a32cd" points="542.19,-160.412 532.536,-164.775 542.804,-167.385 542.19,-160.412"/>
<text text-anchor="middle" x="665" y="-180.161" font-family="Helvetica,sans-Serif" font-size="10.00"> _currentCount</text>
<text text-anchor="middle" x="665" y="-169.161" font-family="Helvetica,sans-Serif" font-size="10.00">_count</text>
</g>
<!-- Node13 -->
<g id="node13" class="node"><title>Node13</title>
<polygon fill="none" stroke="#bfbfbf" points="497.5,-118.661 497.5,-137.661 538.5,-137.661 538.5,-118.661 497.5,-118.661"/>
<text text-anchor="middle" x="518" y="-125.661" font-family="Helvetica,sans-Serif" font-size="10.00">string</text>
</g>
<!-- Node13&#45;&gt;Node1 -->
<g id="edge12" class="edge"><title>Node13&#45;&gt;Node1</title>
<path fill="none" stroke="#9a32cd" stroke-dasharray="5,2" d="M548.565,-126.364C589.191,-124.837 664.057,-125.429 724,-145.161 745.615,-152.277 767.443,-167.512 780.34,-177.544"/>
<polygon fill="#9a32cd" stroke="#9a32cd" points="548.363,-122.87 538.529,-126.812 548.675,-129.863 548.363,-122.87"/>
<text text-anchor="middle" x="665" y="-148.161" font-family="Helvetica,sans-Serif" font-size="10.00"> _saveFileName</text>
</g>
<!-- Node14 -->
<g id="node14" class="node"><title>Node14</title>
<g id="a_node14"><a xlink:href="classbool.xhtml" target="_top" xlink:title="bool">
<polygon fill="none" stroke="black" points="500.5,-80.661 500.5,-99.661 535.5,-99.661 535.5,-80.661 500.5,-80.661"/>
<text text-anchor="middle" x="518" y="-87.661" font-family="Helvetica,sans-Serif" font-size="10.00">bool</text>
</a>
</g>
</g>
<!-- Node14&#45;&gt;Node1 -->
<g id="edge13" class="edge"><title>Node14&#45;&gt;Node1</title>
<path fill="none" stroke="#9a32cd" stroke-dasharray="5,2" d="M545.737,-87.2238C586.568,-83.9685 665.844,-82.5752 724,-112.161 753.607,-127.223 776.562,-160.925 786.549,-177.533"/>
<polygon fill="#9a32cd" stroke="#9a32cd" points="545.167,-83.7608 535.521,-88.1437 545.795,-90.7326 545.167,-83.7608"/>
<text text-anchor="middle" x="665" y="-115.161" font-family="Helvetica,sans-Serif" font-size="10.00"> _keepRunning</text>
</g>
<!-- Node15&#45;&gt;Node1 -->
<g id="edge14" class="edge"><title>Node15&#45;&gt;Node1</title>
<path fill="none" stroke="#9a32cd" stroke-dasharray="5,2" d="M597.822,-252.468C636.709,-249.664 683.78,-243.267 724,-229.161 745.212,-221.721 766.808,-206.879 779.808,-196.981"/>
<polygon fill="#9a32cd" stroke="#9a32cd" points="597.353,-248.992 587.603,-253.137 597.811,-255.977 597.353,-248.992"/>
<text text-anchor="middle" x="665" y="-255.161" font-family="Helvetica,sans-Serif" font-size="10.00"> _currentDepthCamera</text>
</g>
<!-- Node16 -->
<g id="node16" class="node"><title>Node16</title>
<polygon fill="none" stroke="#bfbfbf" points="144.5,-211.661 144.5,-230.661 305.5,-230.661 305.5,-211.661 144.5,-211.661"/>
<text text-anchor="middle" x="225" y="-218.661" font-family="Helvetica,sans-Serif" font-size="10.00">std::shared_ptr&lt; DepthCamera &gt;</text>
</g>
<!-- Node16&#45;&gt;Node15 -->
<g id="edge15" class="edge"><title>Node16&#45;&gt;Node15</title>
<path fill="none" stroke="midnightblue" d="M315.649,-231.327C358.424,-236.178 408.793,-241.89 448.452,-246.387"/>
<polygon fill="midnightblue" stroke="midnightblue" points="315.848,-227.828 305.517,-230.178 315.059,-234.783 315.848,-227.828"/>
</g>
<!-- Node17 -->
<g id="node17" class="node"><title>Node17</title>
<polygon fill="none" stroke="#bfbfbf" points="486,-42.661 486,-61.661 550,-61.661 550,-42.661 486,-42.661"/>
<text text-anchor="middle" x="518" y="-49.661" font-family="Helvetica,sans-Serif" font-size="10.00">connection</text>
</g>
<!-- Node17&#45;&gt;Node1 -->
<g id="edge17" class="edge"><title>Node17&#45;&gt;Node1</title>
<path fill="none" stroke="#9a32cd" stroke-dasharray="5,2" d="M560.345,-45.5579C604.435,-40.7503 674.58,-39.7279 724,-71.161 763.986,-96.5935 783.315,-154.632 789.605,-177.574"/>
<polygon fill="#9a32cd" stroke="#9a32cd" points="559.776,-42.1009 550.267,-46.7723 560.614,-49.0506 559.776,-42.1009"/>
<text text-anchor="middle" x="665" y="-74.161" font-family="Helvetica,sans-Serif" font-size="10.00"> _saveCallbackConnection</text>
</g>
<!-- Node18 -->
<g id="node18" class="node"><title>Node18</title>
<polygon fill="none" stroke="#bfbfbf" points="490.5,-4.66101 490.5,-23.661 545.5,-23.661 545.5,-4.66101 490.5,-4.66101"/>
<text text-anchor="middle" x="518" y="-11.661" font-family="Helvetica,sans-Serif" font-size="10.00">ofstream</text>
</g>
<!-- Node18&#45;&gt;Node1 -->
<g id="edge18" class="edge"><title>Node18&#45;&gt;Node1</title>
<path fill="none" stroke="#9a32cd" stroke-dasharray="5,2" d="M555.852,-5.99851C600.077,1.57999 674.452,7.01932 724,-28.161 775.652,-64.8355 788.354,-149.069 791.223,-177.549"/>
<polygon fill="#9a32cd" stroke="#9a32cd" points="555.027,-2.59139 545.826,-7.84261 556.294,-9.47592 555.027,-2.59139"/>
<text text-anchor="middle" x="665" y="-31.161" font-family="Helvetica,sans-Serif" font-size="10.00"> _saveFile</text>
</g>
</g>
</svg>
