<?xml version="1.0" encoding="UTF-8" standalone="no"?>
<!DOCTYPE svg PUBLIC "-//W3C//DTD SVG 1.1//EN"
 "http://www.w3.org/Graphics/SVG/1.1/DTD/svg11.dtd">
<!-- Generated by graphviz version 2.36.0 (20140111.2315)
 -->
<!-- Title: Voxel::CLIManager::_filters Pages: 1 -->
<svg width="478pt" height="153pt"
 viewBox="0.00 0.00 478.00 153.00" xmlns="http://www.w3.org/2000/svg" xmlns:xlink="http://www.w3.org/1999/xlink">
<g id="graph0" class="graph" transform="scale(1 1) rotate(0) translate(4 149)">
<title>Voxel::CLIManager::_filters</title>
<!-- Node1 -->
<g id="node1" class="node"><title>Node1</title>
<polygon fill="#bfbfbf" stroke="black" points="0.5,-38 0.5,-68 107.5,-68 107.5,-38 0.5,-38"/>
<text text-anchor="start" x="8.5" y="-56" font-family="Helvetica,sans-Serif" font-size="10.00">Voxel::CLIManager::</text>
<text text-anchor="middle" x="54" y="-45" font-family="Helvetica,sans-Serif" font-size="10.00">_filters</text>
</g>
<!-- Node2 -->
<g id="node2" class="node"><title>Node2</title>
<g id="a_node2"><a xlink:href="classVoxel_1_1CLIManager.xhtml#a7405f3b9c1589d2f343e93f13eadec3e" target="_top" xlink:title="Voxel::CLIManager::\l_showFilterSet">
<polygon fill="none" stroke="black" points="148.5,-63 148.5,-93 255.5,-93 255.5,-63 148.5,-63"/>
<text text-anchor="start" x="156.5" y="-81" font-family="Helvetica,sans-Serif" font-size="10.00">Voxel::CLIManager::</text>
<text text-anchor="middle" x="202" y="-70" font-family="Helvetica,sans-Serif" font-size="10.00">_showFilterSet</text>
</a>
</g>
</g>
<!-- Node1&#45;&gt;Node2 -->
<g id="edge1" class="edge"><title>Node1&#45;&gt;Node2</title>
<path fill="none" stroke="midnightblue" d="M107.709,-62.0256C117.633,-63.7249 128.101,-65.5173 138.295,-67.2629"/>
<polygon fill="midnightblue" stroke="midnightblue" points="137.921,-70.7496 148.368,-68.9877 139.102,-63.85 137.921,-70.7496"/>
</g>
<!-- Node7 -->
<g id="node7" class="node"><title>Node7</title>
<g id="a_node7"><a xlink:href="classVoxel_1_1CameraSystem.xhtml#ab3b297a4d736fbccd1464bf3bcae60b4" target="_top" xlink:title="Voxel::CameraSystem\l::getSupportedFilters">
<polygon fill="none" stroke="black" points="144,-14 144,-44 260,-44 260,-14 144,-14"/>
<text text-anchor="start" x="152" y="-32" font-family="Helvetica,sans-Serif" font-size="10.00">Voxel::CameraSystem</text>
<text text-anchor="middle" x="202" y="-21" font-family="Helvetica,sans-Serif" font-size="10.00">::getSupportedFilters</text>
</a>
</g>
</g>
<!-- Node1&#45;&gt;Node7 -->
<g id="edge6" class="edge"><title>Node1&#45;&gt;Node7</title>
<path fill="none" stroke="midnightblue" d="M107.709,-44.3354C116.255,-42.9307 125.204,-41.4597 134.034,-40.0081"/>
<polygon fill="midnightblue" stroke="midnightblue" points="134.625,-43.4579 143.925,-38.3821 133.49,-36.5506 134.625,-43.4579"/>
</g>
<!-- Node3 -->
<g id="node3" class="node"><title>Node3</title>
<g id="a_node3"><a xlink:href="classVoxel_1_1FilterSet.xhtml#a4b809b1a18e404d041a3456f1df48e74" target="_top" xlink:title="Voxel::FilterSet::begin">
<polygon fill="none" stroke="black" points="326.5,-125.5 326.5,-144.5 439.5,-144.5 439.5,-125.5 326.5,-125.5"/>
<text text-anchor="middle" x="383" y="-132.5" font-family="Helvetica,sans-Serif" font-size="10.00">Voxel::FilterSet::begin</text>
</a>
</g>
</g>
<!-- Node2&#45;&gt;Node3 -->
<g id="edge2" class="edge"><title>Node2&#45;&gt;Node3</title>
<path fill="none" stroke="midnightblue" d="M236.072,-93.1216C253.615,-100.73 275.688,-109.657 296,-116 304.378,-118.616 313.322,-121.014 322.157,-123.16"/>
<polygon fill="midnightblue" stroke="midnightblue" points="321.517,-126.605 332.051,-125.475 323.111,-119.789 321.517,-126.605"/>
</g>
<!-- Node4 -->
<g id="node4" class="node"><title>Node4</title>
<g id="a_node4"><a xlink:href="classVoxel_1_1FilterSet.xhtml#a40382f422b79fa91d2000c2b81e8c5e6" target="_top" xlink:title="Voxel::FilterSet::end">
<polygon fill="none" stroke="black" points="330,-87.5 330,-106.5 436,-106.5 436,-87.5 330,-87.5"/>
<text text-anchor="middle" x="383" y="-94.5" font-family="Helvetica,sans-Serif" font-size="10.00">Voxel::FilterSet::end</text>
</a>
</g>
</g>
<!-- Node2&#45;&gt;Node4 -->
<g id="edge3" class="edge"><title>Node2&#45;&gt;Node4</title>
<path fill="none" stroke="midnightblue" d="M255.738,-83.5979C275.855,-85.7333 298.972,-88.187 319.883,-90.4065"/>
<polygon fill="midnightblue" stroke="midnightblue" points="319.634,-93.8997 329.948,-91.4749 320.373,-86.9388 319.634,-93.8997"/>
</g>
<!-- Node5 -->
<g id="node5" class="node"><title>Node5</title>
<g id="a_node5"><a xlink:href="classVoxel_1_1FilterParameterTemplate.xhtml#a2315d477a0ade3bcdbe969fcea3c9eb8" target="_top" xlink:title="Voxel::FilterParameterTemplate::get">
<polygon fill="none" stroke="black" points="296,-49.5 296,-68.5 470,-68.5 470,-49.5 296,-49.5"/>
<text text-anchor="middle" x="383" y="-56.5" font-family="Helvetica,sans-Serif" font-size="10.00">Voxel::FilterParameterTemplate::get</text>
</a>
</g>
</g>
<!-- Node2&#45;&gt;Node5 -->
<g id="edge4" class="edge"><title>Node2&#45;&gt;Node5</title>
<path fill="none" stroke="midnightblue" d="M255.738,-72.4021C265.174,-71.4005 275.27,-70.3289 285.488,-69.2443"/>
<polygon fill="midnightblue" stroke="midnightblue" points="286.153,-72.6934 295.728,-68.1574 285.414,-65.7325 286.153,-72.6934"/>
</g>
<!-- Node6 -->
<g id="node6" class="node"><title>Node6</title>
<g id="a_node6"><a xlink:href="classVoxel_1_1FilterParameterEnumTemplate.xhtml#a1ec68b062683fa54040490cb2f1bc41e" target="_top" xlink:title="Voxel::FilterParameterEnum\lTemplate::valueMeaning">
<polygon fill="none" stroke="black" points="313,-0 313,-30 453,-30 453,-0 313,-0"/>
<text text-anchor="start" x="321" y="-18" font-family="Helvetica,sans-Serif" font-size="10.00">Voxel::FilterParameterEnum</text>
<text text-anchor="middle" x="383" y="-7" font-family="Helvetica,sans-Serif" font-size="10.00">Template::valueMeaning</text>
</a>
</g>
</g>
<!-- Node2&#45;&gt;Node6 -->
<g id="edge5" class="edge"><title>Node2&#45;&gt;Node6</title>
<path fill="none" stroke="midnightblue" d="M237.557,-62.869C254.927,-55.523 276.401,-46.8316 296,-40 302.864,-37.6074 310.089,-35.255 317.314,-33.0078"/>
<polygon fill="midnightblue" stroke="midnightblue" points="318.588,-36.2785 327.133,-30.0148 316.547,-29.5827 318.588,-36.2785"/>
</g>
</g>
</svg>
