<?xml version="1.0" encoding="UTF-8" standalone="no"?>
<!DOCTYPE svg PUBLIC "-//W3C//DTD SVG 1.1//EN"
 "http://www.w3.org/Graphics/SVG/1.1/DTD/svg11.dtd">
<!-- Generated by graphviz version 2.36.0 (20140111.2315)
 -->
<!-- Title: Voxel::DepthCamera::removeCameraProfile Pages: 1 -->
<svg width="1294pt" height="529pt"
 viewBox="0.00 0.00 1294.00 529.00" xmlns="http://www.w3.org/2000/svg" xmlns:xlink="http://www.w3.org/1999/xlink">
<g id="graph0" class="graph" transform="scale(1 1) rotate(0) translate(4 525)">
<title>Voxel::DepthCamera::removeCameraProfile</title>
<!-- Node1 -->
<g id="node1" class="node"><title>Node1</title>
<polygon fill="#bfbfbf" stroke="black" points="0.5,-272 0.5,-302 117.5,-302 117.5,-272 0.5,-272"/>
<text text-anchor="start" x="8.5" y="-290" font-family="Helvetica,sans-Serif" font-size="10.00">Voxel::DepthCamera</text>
<text text-anchor="middle" x="59" y="-279" font-family="Helvetica,sans-Serif" font-size="10.00">::removeCameraProfile</text>
</g>
<!-- Node2 -->
<g id="node2" class="node"><title>Node2</title>
<g id="a_node2"><a xlink:href="classVoxel_1_1MainConfigurationFile.xhtml#a4abe1141d3c441fc54cd870e09a22b2c" target="_top" xlink:title="Voxel::MainConfiguration\lFile::removeCameraProfile">
<polygon fill="none" stroke="black" points="154.5,-272 154.5,-302 287.5,-302 287.5,-272 154.5,-272"/>
<text text-anchor="start" x="162.5" y="-290" font-family="Helvetica,sans-Serif" font-size="10.00">Voxel::MainConfiguration</text>
<text text-anchor="middle" x="221" y="-279" font-family="Helvetica,sans-Serif" font-size="10.00">File::removeCameraProfile</text>
</a>
</g>
</g>
<!-- Node1&#45;&gt;Node2 -->
<g id="edge1" class="edge"><title>Node1&#45;&gt;Node2</title>
<path fill="none" stroke="midnightblue" d="M117.764,-287C126.413,-287 135.44,-287 144.393,-287"/>
<polygon fill="midnightblue" stroke="midnightblue" points="144.446,-290.5 154.446,-287 144.446,-283.5 144.446,-290.5"/>
</g>
<!-- Node3 -->
<g id="node3" class="node"><title>Node3</title>
<g id="a_node3"><a xlink:href="classVoxel_1_1MainConfigurationFile.xhtml#ae2f3f66b632fa462d8b9f873f416f12b" target="_top" xlink:title="Voxel::MainConfiguration\lFile::_updateCameraProfileList">
<polygon fill="none" stroke="black" points="324.5,-417 324.5,-447 475.5,-447 475.5,-417 324.5,-417"/>
<text text-anchor="start" x="332.5" y="-435" font-family="Helvetica,sans-Serif" font-size="10.00">Voxel::MainConfiguration</text>
<text text-anchor="middle" x="400" y="-424" font-family="Helvetica,sans-Serif" font-size="10.00">File::_updateCameraProfileList</text>
</a>
</g>
</g>
<!-- Node2&#45;&gt;Node3 -->
<g id="edge2" class="edge"><title>Node2&#45;&gt;Node3</title>
<path fill="none" stroke="midnightblue" d="M235.997,-302.285C254.895,-322.475 290.119,-358.563 324,-385 336.304,-394.601 350.65,-403.981 363.481,-411.805"/>
<polygon fill="midnightblue" stroke="midnightblue" points="361.701,-414.819 372.078,-416.956 365.299,-408.814 361.701,-414.819"/>
</g>
<!-- Node14 -->
<g id="node14" class="node"><title>Node14</title>
<g id="a_node14"><a xlink:href="classVoxel_1_1ConfigurationFile.xhtml#af3cd57258007019ac09e45919cfc19c3" target="_top" xlink:title="Voxel::ConfigurationFile\l::getLocation">
<polygon fill="none" stroke="black" points="709.5,-301 709.5,-331 830.5,-331 830.5,-301 709.5,-301"/>
<text text-anchor="start" x="717.5" y="-319" font-family="Helvetica,sans-Serif" font-size="10.00">Voxel::ConfigurationFile</text>
<text text-anchor="middle" x="770" y="-308" font-family="Helvetica,sans-Serif" font-size="10.00">::getLocation</text>
</a>
</g>
</g>
<!-- Node2&#45;&gt;Node14 -->
<g id="edge16" class="edge"><title>Node2&#45;&gt;Node14</title>
<path fill="none" stroke="midnightblue" d="M245.604,-271.882C265.588,-260.033 295.459,-244.5 324,-238 466.772,-205.485 515.034,-217.219 652,-269 669.54,-275.631 670.909,-283.286 688,-291 693.03,-293.27 698.325,-295.412 703.699,-297.414"/>
<polygon fill="midnightblue" stroke="midnightblue" points="702.822,-300.816 713.416,-300.864 705.164,-294.22 702.822,-300.816"/>
</g>
<!-- Node15 -->
<g id="node15" class="node"><title>Node15</title>
<g id="a_node15"><a xlink:href="classVoxel_1_1ConfigurationFile.xhtml#af0a874f63acdd1bcb322ee4c65e1c71d" target="_top" xlink:title="Voxel::ConfigurationFile\l::removeFile">
<polygon fill="none" stroke="black" points="339.5,-297 339.5,-327 460.5,-327 460.5,-297 339.5,-297"/>
<text text-anchor="start" x="347.5" y="-315" font-family="Helvetica,sans-Serif" font-size="10.00">Voxel::ConfigurationFile</text>
<text text-anchor="middle" x="400" y="-304" font-family="Helvetica,sans-Serif" font-size="10.00">::removeFile</text>
</a>
</g>
</g>
<!-- Node2&#45;&gt;Node15 -->
<g id="edge17" class="edge"><title>Node2&#45;&gt;Node15</title>
<path fill="none" stroke="midnightblue" d="M287.657,-296.274C301.141,-298.178 315.386,-300.19 329.016,-302.115"/>
<polygon fill="midnightblue" stroke="midnightblue" points="328.906,-305.634 339.298,-303.567 329.885,-298.703 328.906,-305.634"/>
</g>
<!-- Node16 -->
<g id="node16" class="node"><title>Node16</title>
<g id="a_node16"><a xlink:href="classVoxel_1_1MainConfigurationFile.xhtml#aeb5b4fef3cb166018e80ca8019e00a22" target="_top" xlink:title="Voxel::MainConfiguration\lFile::setCurrentCameraProfile">
<polygon fill="none" stroke="black" points="327,-248 327,-278 473,-278 473,-248 327,-248"/>
<text text-anchor="start" x="335" y="-266" font-family="Helvetica,sans-Serif" font-size="10.00">Voxel::MainConfiguration</text>
<text text-anchor="middle" x="400" y="-255" font-family="Helvetica,sans-Serif" font-size="10.00">File::setCurrentCameraProfile</text>
</a>
</g>
</g>
<!-- Node2&#45;&gt;Node16 -->
<g id="edge18" class="edge"><title>Node2&#45;&gt;Node16</title>
<path fill="none" stroke="midnightblue" d="M287.657,-278.097C297.149,-276.81 307.018,-275.472 316.784,-274.148"/>
<polygon fill="midnightblue" stroke="midnightblue" points="317.466,-277.588 326.905,-272.776 316.525,-270.651 317.466,-277.588"/>
</g>
<!-- Node17 -->
<g id="node17" class="node"><title>Node17</title>
<g id="a_node17"><a xlink:href="classVoxel_1_1MainConfigurationFile.xhtml#ad0ea67099cfd8a8e869b46b833e19800" target="_top" xlink:title="Voxel::MainConfiguration\lFile::setDefaultCameraProfile">
<polygon fill="none" stroke="black" points="327,-346 327,-376 473,-376 473,-346 327,-346"/>
<text text-anchor="start" x="335" y="-364" font-family="Helvetica,sans-Serif" font-size="10.00">Voxel::MainConfiguration</text>
<text text-anchor="middle" x="400" y="-353" font-family="Helvetica,sans-Serif" font-size="10.00">File::setDefaultCameraProfile</text>
</a>
</g>
</g>
<!-- Node2&#45;&gt;Node17 -->
<g id="edge19" class="edge"><title>Node2&#45;&gt;Node17</title>
<path fill="none" stroke="midnightblue" d="M251.019,-302.148C271.195,-312.38 298.871,-325.823 324,-336 329.46,-338.211 335.198,-340.384 340.966,-342.469"/>
<polygon fill="midnightblue" stroke="midnightblue" points="340.065,-345.862 350.66,-345.885 342.392,-339.26 340.065,-345.862"/>
</g>
<!-- Node20 -->
<g id="node20" class="node"><title>Node20</title>
<g id="a_node20"><a xlink:href="classVoxel_1_1MainConfigurationFile.xhtml#a65f9abd83851d372ef62958de4774415" target="_top" xlink:title="Voxel::MainConfiguration\lFile::writeToHardware">
<polygon fill="none" stroke="black" points="519,-159 519,-189 645,-189 645,-159 519,-159"/>
<text text-anchor="start" x="527" y="-177" font-family="Helvetica,sans-Serif" font-size="10.00">Voxel::MainConfiguration</text>
<text text-anchor="middle" x="582" y="-166" font-family="Helvetica,sans-Serif" font-size="10.00">File::writeToHardware</text>
</a>
</g>
</g>
<!-- Node2&#45;&gt;Node20 -->
<g id="edge40" class="edge"><title>Node2&#45;&gt;Node20</title>
<path fill="none" stroke="midnightblue" d="M235.476,-271.873C253.537,-252.712 287.564,-220.344 324,-205 382.95,-180.175 455.79,-173.371 508.853,-172.224"/>
<polygon fill="midnightblue" stroke="midnightblue" points="508.913,-175.724 518.858,-172.07 508.805,-168.725 508.913,-175.724"/>
</g>
<!-- Node4 -->
<g id="node4" class="node"><title>Node4</title>
<g id="a_node4"><a xlink:href="group__Util.xhtml#gad19078fe2a67a3174aaa6b4ab8e49292" target="_top" xlink:title="Voxel::basename">
<polygon fill="none" stroke="black" points="724,-438.5 724,-457.5 816,-457.5 816,-438.5 724,-438.5"/>
<text text-anchor="middle" x="770" y="-445.5" font-family="Helvetica,sans-Serif" font-size="10.00">Voxel::basename</text>
</a>
</g>
</g>
<!-- Node3&#45;&gt;Node4 -->
<g id="edge3" class="edge"><title>Node3&#45;&gt;Node4</title>
<path fill="none" stroke="midnightblue" d="M475.914,-435.257C546.385,-438.321 650.267,-442.838 713.566,-445.59"/>
<polygon fill="midnightblue" stroke="midnightblue" points="713.605,-449.095 723.748,-446.033 713.909,-442.101 713.605,-449.095"/>
</g>
<!-- Node5 -->
<g id="node5" class="node"><title>Node5</title>
<g id="a_node5"><a xlink:href="classVoxel_1_1ConfigurationFile.xhtml#a440d9dd2f89d0c76c81f7285b31a5b94" target="_top" xlink:title="Voxel::ConfigurationFile::set">
<polygon fill="none" stroke="black" points="512,-482.5 512,-501.5 652,-501.5 652,-482.5 512,-482.5"/>
<text text-anchor="middle" x="582" y="-489.5" font-family="Helvetica,sans-Serif" font-size="10.00">Voxel::ConfigurationFile::set</text>
</a>
</g>
</g>
<!-- Node3&#45;&gt;Node5 -->
<g id="edge4" class="edge"><title>Node3&#45;&gt;Node5</title>
<path fill="none" stroke="midnightblue" d="M446.422,-447.141C476.234,-457.078 514.777,-469.926 542.969,-479.323"/>
<polygon fill="midnightblue" stroke="midnightblue" points="541.885,-482.651 552.478,-482.493 544.098,-476.01 541.885,-482.651"/>
</g>
<!-- Node11 -->
<g id="node11" class="node"><title>Node11</title>
<g id="a_node11"><a xlink:href="classVoxel_1_1ConfigurationFile.xhtml#a978b37f6995656a3fd39a35e70867bf0" target="_top" xlink:title="Voxel::ConfigurationFile\l::write">
<polygon fill="none" stroke="black" points="521.5,-346 521.5,-376 642.5,-376 642.5,-346 521.5,-346"/>
<text text-anchor="start" x="529.5" y="-364" font-family="Helvetica,sans-Serif" font-size="10.00">Voxel::ConfigurationFile</text>
<text text-anchor="middle" x="582" y="-353" font-family="Helvetica,sans-Serif" font-size="10.00">::write</text>
</a>
</g>
</g>
<!-- Node3&#45;&gt;Node11 -->
<g id="edge11" class="edge"><title>Node3&#45;&gt;Node11</title>
<path fill="none" stroke="midnightblue" d="M435.262,-416.804C457.081,-407.299 486.027,-395.004 512,-385 516.76,-383.167 521.728,-381.317 526.72,-379.501"/>
<polygon fill="midnightblue" stroke="midnightblue" points="528.071,-382.735 536.303,-376.065 525.708,-376.146 528.071,-382.735"/>
</g>
<!-- Node6 -->
<g id="node6" class="node"><title>Node6</title>
<g id="a_node6"><a xlink:href="classVoxel_1_1ConfigurationFile.xhtml#a3b9b573c1a3d9162fc0100c317ca0879" target="_top" xlink:title="Voxel::ConfigurationFile\l::_set">
<polygon fill="none" stroke="black" points="709.5,-477 709.5,-507 830.5,-507 830.5,-477 709.5,-477"/>
<text text-anchor="start" x="717.5" y="-495" font-family="Helvetica,sans-Serif" font-size="10.00">Voxel::ConfigurationFile</text>
<text text-anchor="middle" x="770" y="-484" font-family="Helvetica,sans-Serif" font-size="10.00">::_set</text>
</a>
</g>
</g>
<!-- Node5&#45;&gt;Node6 -->
<g id="edge5" class="edge"><title>Node5&#45;&gt;Node6</title>
<path fill="none" stroke="midnightblue" d="M652.26,-485.449C667.533,-485.188 683.722,-485.184 699.024,-485.437"/>
<polygon fill="midnightblue" stroke="midnightblue" points="699.382,-488.945 709.453,-485.654 699.528,-481.947 699.382,-488.945"/>
</g>
<!-- Node6&#45;&gt;Node5 -->
<g id="edge10" class="edge"><title>Node6&#45;&gt;Node5</title>
<path fill="none" stroke="midnightblue" d="M709.453,-498.346C694.515,-498.722 678.248,-498.836 662.508,-498.686"/>
<polygon fill="midnightblue" stroke="midnightblue" points="662.305,-495.184 652.26,-498.551 662.212,-502.183 662.305,-495.184"/>
</g>
<!-- Node7 -->
<g id="node7" class="node"><title>Node7</title>
<g id="a_node7"><a xlink:href="classVoxel_1_1ConfigSet.xhtml#a8fb880c24ad7b0f04c84d4a33becb995" target="_top" xlink:title="Voxel::ConfigSet::_set">
<polygon fill="none" stroke="black" points="899,-482.5 899,-501.5 1015,-501.5 1015,-482.5 899,-482.5"/>
<text text-anchor="middle" x="957" y="-489.5" font-family="Helvetica,sans-Serif" font-size="10.00">Voxel::ConfigSet::_set</text>
</a>
</g>
</g>
<!-- Node6&#45;&gt;Node7 -->
<g id="edge6" class="edge"><title>Node6&#45;&gt;Node7</title>
<path fill="none" stroke="midnightblue" d="M830.553,-492C849.087,-492 869.651,-492 888.677,-492"/>
<polygon fill="midnightblue" stroke="midnightblue" points="888.765,-495.5 898.765,-492 888.765,-488.5 888.765,-495.5"/>
</g>
<!-- Node8 -->
<g id="node8" class="node"><title>Node8</title>
<g id="a_node8"><a xlink:href="group__Util.xhtml#ga6b2a26aa983349496fedae9aa54ad034" target="_top" xlink:title="Trim. ">
<polygon fill="none" stroke="black" points="1090,-482.5 1090,-501.5 1154,-501.5 1154,-482.5 1090,-482.5"/>
<text text-anchor="middle" x="1122" y="-489.5" font-family="Helvetica,sans-Serif" font-size="10.00">Voxel::trim</text>
</a>
</g>
</g>
<!-- Node7&#45;&gt;Node8 -->
<g id="edge7" class="edge"><title>Node7&#45;&gt;Node8</title>
<path fill="none" stroke="midnightblue" d="M1015.01,-492C1036.33,-492 1060.12,-492 1079.75,-492"/>
<polygon fill="midnightblue" stroke="midnightblue" points="1079.89,-495.5 1089.89,-492 1079.89,-488.5 1079.89,-495.5"/>
</g>
<!-- Node9 -->
<g id="node9" class="node"><title>Node9</title>
<g id="a_node9"><a xlink:href="group__Util.xhtml#gac9c04e18f7878dd82964bb489b7b1314" target="_top" xlink:title="Left Trim. ">
<polygon fill="none" stroke="black" points="1219,-501.5 1219,-520.5 1285,-520.5 1285,-501.5 1219,-501.5"/>
<text text-anchor="middle" x="1252" y="-508.5" font-family="Helvetica,sans-Serif" font-size="10.00">Voxel::ltrim</text>
</a>
</g>
</g>
<!-- Node8&#45;&gt;Node9 -->
<g id="edge8" class="edge"><title>Node8&#45;&gt;Node9</title>
<path fill="none" stroke="midnightblue" d="M1154.31,-496.648C1170.65,-499.072 1190.86,-502.073 1208.58,-504.703"/>
<polygon fill="midnightblue" stroke="midnightblue" points="1208.27,-508.195 1218.67,-506.202 1209.3,-501.271 1208.27,-508.195"/>
</g>
<!-- Node10 -->
<g id="node10" class="node"><title>Node10</title>
<g id="a_node10"><a xlink:href="group__Util.xhtml#ga3d95f05dde73bc9c54051437445e439b" target="_top" xlink:title="Right Trim. ">
<polygon fill="none" stroke="black" points="1218.5,-463.5 1218.5,-482.5 1285.5,-482.5 1285.5,-463.5 1218.5,-463.5"/>
<text text-anchor="middle" x="1252" y="-470.5" font-family="Helvetica,sans-Serif" font-size="10.00">Voxel::rtrim</text>
</a>
</g>
</g>
<!-- Node8&#45;&gt;Node10 -->
<g id="edge9" class="edge"><title>Node8&#45;&gt;Node10</title>
<path fill="none" stroke="midnightblue" d="M1154.31,-487.352C1170.52,-484.946 1190.56,-481.972 1208.18,-479.357"/>
<polygon fill="midnightblue" stroke="midnightblue" points="1208.85,-482.795 1218.23,-477.865 1207.82,-475.871 1208.85,-482.795"/>
</g>
<!-- Node11&#45;&gt;Node4 -->
<g id="edge13" class="edge"><title>Node11&#45;&gt;Node4</title>
<path fill="none" stroke="midnightblue" d="M636.068,-376.098C641.664,-378.661 647.094,-381.613 652,-385 672.511,-399.161 666.855,-414.804 688,-428 695.851,-432.9 704.829,-436.599 713.881,-439.393"/>
<polygon fill="midnightblue" stroke="midnightblue" points="713.114,-442.812 723.684,-442.082 714.966,-436.061 713.114,-442.812"/>
</g>
<!-- Node12 -->
<g id="node12" class="node"><title>Node12</title>
<g id="a_node12"><a xlink:href="classVoxel_1_1ConfigurationFile.xhtml#a3946cbd4206d722e401708eb1546b413" target="_top" xlink:title="Voxel::ConfigurationFile\l::_saveAllDataFiles">
<polygon fill="none" stroke="black" points="709.5,-389 709.5,-419 830.5,-419 830.5,-389 709.5,-389"/>
<text text-anchor="start" x="717.5" y="-407" font-family="Helvetica,sans-Serif" font-size="10.00">Voxel::ConfigurationFile</text>
<text text-anchor="middle" x="770" y="-396" font-family="Helvetica,sans-Serif" font-size="10.00">::_saveAllDataFiles</text>
</a>
</g>
</g>
<!-- Node11&#45;&gt;Node12 -->
<g id="edge12" class="edge"><title>Node11&#45;&gt;Node12</title>
<path fill="none" stroke="midnightblue" d="M642.619,-374.783C660.723,-378.968 680.773,-383.604 699.469,-387.926"/>
<polygon fill="midnightblue" stroke="midnightblue" points="698.868,-391.379 709.399,-390.221 700.445,-384.559 698.868,-391.379"/>
</g>
<!-- Node13 -->
<g id="node13" class="node"><title>Node13</title>
<g id="a_node13"><a xlink:href="classVoxel_1_1Configuration.xhtml#abfeffa3f26a5d905901c85a8889823d7" target="_top" xlink:title="Voxel::Configuration\l::getLocalConfFile">
<polygon fill="none" stroke="black" points="904.5,-299 904.5,-329 1009.5,-329 1009.5,-299 904.5,-299"/>
<text text-anchor="start" x="912.5" y="-317" font-family="Helvetica,sans-Serif" font-size="10.00">Voxel::Configuration</text>
<text text-anchor="middle" x="957" y="-306" font-family="Helvetica,sans-Serif" font-size="10.00">::getLocalConfFile</text>
</a>
</g>
</g>
<!-- Node11&#45;&gt;Node13 -->
<g id="edge14" class="edge"><title>Node11&#45;&gt;Node13</title>
<path fill="none" stroke="midnightblue" d="M642.641,-359.201C697.378,-356.874 780.568,-351.634 852,-340 865.821,-337.749 880.501,-334.576 894.341,-331.216"/>
<polygon fill="midnightblue" stroke="midnightblue" points="895.39,-334.562 904.247,-328.747 893.697,-327.77 895.39,-334.562"/>
</g>
<!-- Node11&#45;&gt;Node14 -->
<g id="edge15" class="edge"><title>Node11&#45;&gt;Node14</title>
<path fill="none" stroke="midnightblue" d="M642.619,-346.576C660.723,-342.196 680.773,-337.345 699.469,-332.822"/>
<polygon fill="midnightblue" stroke="midnightblue" points="700.503,-336.173 709.399,-330.419 698.857,-329.369 700.503,-336.173"/>
</g>
<!-- Node17&#45;&gt;Node11 -->
<g id="edge24" class="edge"><title>Node17&#45;&gt;Node11</title>
<path fill="none" stroke="midnightblue" d="M473.176,-361C485.631,-361 498.56,-361 510.958,-361"/>
<polygon fill="midnightblue" stroke="midnightblue" points="511.225,-364.5 521.225,-361 511.225,-357.5 511.225,-364.5"/>
</g>
<!-- Node17&#45;&gt;Node14 -->
<g id="edge21" class="edge"><title>Node17&#45;&gt;Node14</title>
<path fill="none" stroke="midnightblue" d="M458.532,-345.988C464.709,-343.181 470.675,-339.878 476,-336 497.844,-320.091 487.889,-299.204 512,-287 567.515,-258.899 590.236,-279.46 652,-287 671.105,-289.332 691.584,-293.732 709.983,-298.412"/>
<polygon fill="midnightblue" stroke="midnightblue" points="709.121,-301.805 719.682,-300.953 710.895,-295.033 709.121,-301.805"/>
</g>
<!-- Node18 -->
<g id="node18" class="node"><title>Node18</title>
<g id="a_node18"><a xlink:href="classVoxel_1_1MainConfigurationFile.xhtml#ab24aaf7b18fea74c6f235da04fadbed0" target="_top" xlink:title="Voxel::MainConfiguration\lFile::getCameraProfile">
<polygon fill="none" stroke="black" points="519,-297 519,-327 645,-327 645,-297 519,-297"/>
<text text-anchor="start" x="527" y="-315" font-family="Helvetica,sans-Serif" font-size="10.00">Voxel::MainConfiguration</text>
<text text-anchor="middle" x="582" y="-304" font-family="Helvetica,sans-Serif" font-size="10.00">File::getCameraProfile</text>
</a>
</g>
</g>
<!-- Node17&#45;&gt;Node18 -->
<g id="edge20" class="edge"><title>Node17&#45;&gt;Node18</title>
<path fill="none" stroke="midnightblue" d="M456.475,-345.899C475.297,-340.775 496.494,-335.004 515.991,-329.697"/>
<polygon fill="midnightblue" stroke="midnightblue" points="516.979,-333.055 525.708,-327.052 515.14,-326.301 516.979,-333.055"/>
</g>
<!-- Node19 -->
<g id="node19" class="node"><title>Node19</title>
<g id="a_node19"><a xlink:href="classVoxel_1_1ConfigurationFile.xhtml#a6f9a97c7f26eb64633a464db21f4f7b7" target="_top" xlink:title="Voxel::ConfigurationFile\l::setInteger">
<polygon fill="none" stroke="black" points="521.5,-395 521.5,-425 642.5,-425 642.5,-395 521.5,-395"/>
<text text-anchor="start" x="529.5" y="-413" font-family="Helvetica,sans-Serif" font-size="10.00">Voxel::ConfigurationFile</text>
<text text-anchor="middle" x="582" y="-402" font-family="Helvetica,sans-Serif" font-size="10.00">::setInteger</text>
</a>
</g>
</g>
<!-- Node17&#45;&gt;Node19 -->
<g id="edge22" class="edge"><title>Node17&#45;&gt;Node19</title>
<path fill="none" stroke="midnightblue" d="M456.475,-376.101C475.297,-381.225 496.494,-386.996 515.991,-392.303"/>
<polygon fill="midnightblue" stroke="midnightblue" points="515.14,-395.699 525.708,-394.948 516.979,-388.945 515.14,-395.699"/>
</g>
<!-- Node17&#45;&gt;Node20 -->
<g id="edge25" class="edge"><title>Node17&#45;&gt;Node20</title>
<path fill="none" stroke="midnightblue" d="M461.677,-345.941C466.86,-343.167 471.741,-339.885 476,-336 505.408,-309.179 490.767,-287.665 512,-254 525.248,-232.995 543.784,-211.83 558.308,-196.551"/>
<polygon fill="midnightblue" stroke="midnightblue" points="561.051,-198.75 565.489,-189.129 556.02,-193.882 561.051,-198.75"/>
</g>
<!-- Node19&#45;&gt;Node6 -->
<g id="edge23" class="edge"><title>Node19&#45;&gt;Node6</title>
<path fill="none" stroke="midnightblue" d="M607.348,-425.017C628.203,-437.436 659.323,-454.931 688,-467 693.475,-469.304 699.236,-471.503 705.058,-473.573"/>
<polygon fill="midnightblue" stroke="midnightblue" points="704.279,-477.005 714.874,-476.929 706.544,-470.382 704.279,-477.005"/>
</g>
<!-- Node21 -->
<g id="node21" class="node"><title>Node21</title>
<g id="a_node21"><a xlink:href="classVoxel_1_1MainConfigurationFile.xhtml#a48e0e45a75ee7178d2814e34dd083db4" target="_top" xlink:title="Voxel::MainConfiguration\lFile::_saveHardwareImage">
<polygon fill="none" stroke="black" points="703,-203 703,-233 837,-233 837,-203 703,-203"/>
<text text-anchor="start" x="711" y="-221" font-family="Helvetica,sans-Serif" font-size="10.00">Voxel::MainConfiguration</text>
<text text-anchor="middle" x="770" y="-210" font-family="Helvetica,sans-Serif" font-size="10.00">File::_saveHardwareImage</text>
</a>
</g>
</g>
<!-- Node20&#45;&gt;Node21 -->
<g id="edge26" class="edge"><title>Node20&#45;&gt;Node21</title>
<path fill="none" stroke="midnightblue" d="M645.194,-188.713C661.199,-192.499 678.575,-196.609 695.11,-200.521"/>
<polygon fill="midnightblue" stroke="midnightblue" points="694.739,-204.029 705.277,-202.926 696.351,-197.217 694.739,-204.029"/>
</g>
<!-- Node22 -->
<g id="node22" class="node"><title>Node22</title>
<g id="a_node22"><a xlink:href="classVoxel_1_1SerializedObject.xhtml#aac0058e6b0ea0cb6ac86f4e986f6de25" target="_top" xlink:title="Voxel::SerializedObject\l::getBytes">
<polygon fill="none" stroke="black" points="897.5,-165 897.5,-195 1016.5,-195 1016.5,-165 897.5,-165"/>
<text text-anchor="start" x="905.5" y="-183" font-family="Helvetica,sans-Serif" font-size="10.00">Voxel::SerializedObject</text>
<text text-anchor="middle" x="957" y="-172" font-family="Helvetica,sans-Serif" font-size="10.00">::getBytes</text>
</a>
</g>
</g>
<!-- Node20&#45;&gt;Node22 -->
<g id="edge30" class="edge"><title>Node20&#45;&gt;Node22</title>
<path fill="none" stroke="midnightblue" d="M645.012,-174.998C711.711,-176.07 817.504,-177.772 886.846,-178.888"/>
<polygon fill="midnightblue" stroke="midnightblue" points="887.171,-182.393 897.226,-179.055 887.284,-175.394 887.171,-182.393"/>
</g>
<!-- Node23 -->
<g id="node23" class="node"><title>Node23</title>
<g id="a_node23"><a xlink:href="classVoxel_1_1SerializedObject.xhtml#adf11acb91f4adf3fe582a778c12b6286" target="_top" xlink:title="Voxel::SerializedObject\l::size">
<polygon fill="none" stroke="black" points="1062.5,-102 1062.5,-132 1181.5,-132 1181.5,-102 1062.5,-102"/>
<text text-anchor="start" x="1070.5" y="-120" font-family="Helvetica,sans-Serif" font-size="10.00">Voxel::SerializedObject</text>
<text text-anchor="middle" x="1122" y="-109" font-family="Helvetica,sans-Serif" font-size="10.00">::size</text>
</a>
</g>
</g>
<!-- Node20&#45;&gt;Node23 -->
<g id="edge35" class="edge"><title>Node20&#45;&gt;Node23</title>
<path fill="none" stroke="midnightblue" d="M645.241,-167.406C746.56,-156.671 946.42,-135.496 1051.96,-124.314"/>
<polygon fill="midnightblue" stroke="midnightblue" points="1052.61,-127.766 1062.18,-123.231 1051.87,-120.804 1052.61,-127.766"/>
</g>
<!-- Node24 -->
<g id="node24" class="node"><title>Node24</title>
<g id="a_node24"><a xlink:href="classVoxel_1_1Timer.xhtml#a363a248fe7dd94ae58681cf145b23a23" target="_top" xlink:title="Voxel::Timer::getCurentRealTime">
<polygon fill="none" stroke="black" points="688.5,-0.5 688.5,-19.5 851.5,-19.5 851.5,-0.5 688.5,-0.5"/>
<text text-anchor="middle" x="770" y="-7.5" font-family="Helvetica,sans-Serif" font-size="10.00">Voxel::Timer::getCurentRealTime</text>
</a>
</g>
</g>
<!-- Node20&#45;&gt;Node24 -->
<g id="edge31" class="edge"><title>Node20&#45;&gt;Node24</title>
<path fill="none" stroke="midnightblue" d="M589.45,-158.945C603.033,-129.134 637.546,-62.5799 688,-29 690.976,-27.0193 694.134,-25.244 697.41,-23.6528"/>
<polygon fill="midnightblue" stroke="midnightblue" points="699.058,-26.7563 706.906,-19.6388 696.332,-20.3087 699.058,-26.7563"/>
</g>
<!-- Node25 -->
<g id="node25" class="node"><title>Node25</title>
<g id="a_node25"><a xlink:href="classVoxel_1_1SerializedObject.xhtml#a93bedaae4489eeac130ea6a98be2589c" target="_top" xlink:title="Voxel::SerializedObject::put">
<polygon fill="none" stroke="black" points="888,-88.5 888,-107.5 1026,-107.5 1026,-88.5 888,-88.5"/>
<text text-anchor="middle" x="957" y="-95.5" font-family="Helvetica,sans-Serif" font-size="10.00">Voxel::SerializedObject::put</text>
</a>
</g>
</g>
<!-- Node20&#45;&gt;Node25 -->
<g id="edge32" class="edge"><title>Node20&#45;&gt;Node25</title>
<path fill="none" stroke="midnightblue" d="M606.992,-158.892C627.629,-146.704 658.63,-130.273 688,-122 750.201,-104.479 823.435,-98.8855 877.615,-97.4453"/>
<polygon fill="midnightblue" stroke="midnightblue" points="877.926,-100.939 887.845,-97.2165 877.769,-93.941 877.926,-100.939"/>
</g>
<!-- Node26 -->
<g id="node26" class="node"><title>Node26</title>
<g id="a_node26"><a xlink:href="classVoxel_1_1SerializedObject.xhtml#a28bffcfa230e90768ea678269a782381" target="_top" xlink:title="Voxel::SerializedObject\l::resize">
<polygon fill="none" stroke="black" points="710.5,-252 710.5,-282 829.5,-282 829.5,-252 710.5,-252"/>
<text text-anchor="start" x="718.5" y="-270" font-family="Helvetica,sans-Serif" font-size="10.00">Voxel::SerializedObject</text>
<text text-anchor="middle" x="770" y="-259" font-family="Helvetica,sans-Serif" font-size="10.00">::resize</text>
</a>
</g>
</g>
<!-- Node20&#45;&gt;Node26 -->
<g id="edge34" class="edge"><title>Node20&#45;&gt;Node26</title>
<path fill="none" stroke="midnightblue" d="M623.431,-189.102C633.177,-193.557 643.285,-198.9 652,-205 670.797,-218.156 668.431,-230.023 688,-242 692.099,-244.509 696.471,-246.785 700.978,-248.846"/>
<polygon fill="midnightblue" stroke="midnightblue" points="699.802,-252.148 710.378,-252.781 702.505,-245.69 699.802,-252.148"/>
</g>
<!-- Node27 -->
<g id="node27" class="node"><title>Node27</title>
<g id="a_node27"><a xlink:href="structVoxel_1_1DataPacket.xhtml#a2e4fcc8c2b6fa1ec9bbe823a91d534c7" target="_top" xlink:title="Voxel::DataPacket::\lwrite">
<polygon fill="none" stroke="black" points="717.5,-39 717.5,-69 822.5,-69 822.5,-39 717.5,-39"/>
<text text-anchor="start" x="725.5" y="-57" font-family="Helvetica,sans-Serif" font-size="10.00">Voxel::DataPacket::</text>
<text text-anchor="middle" x="770" y="-46" font-family="Helvetica,sans-Serif" font-size="10.00">write</text>
</a>
</g>
</g>
<!-- Node20&#45;&gt;Node27 -->
<g id="edge36" class="edge"><title>Node20&#45;&gt;Node27</title>
<path fill="none" stroke="midnightblue" d="M597.334,-158.732C616.424,-139.146 651.991,-105.179 688,-84 694.984,-79.8923 702.628,-76.1821 710.343,-72.8846"/>
<polygon fill="midnightblue" stroke="midnightblue" points="711.798,-76.0714 719.748,-69.0682 709.166,-69.5851 711.798,-76.0714"/>
</g>
<!-- Node21&#45;&gt;Node13 -->
<g id="edge28" class="edge"><title>Node21&#45;&gt;Node13</title>
<path fill="none" stroke="midnightblue" d="M829.798,-233.004C837.41,-235.645 844.99,-238.641 852,-242 880.419,-255.616 909.656,-276.591 929.864,-292.396"/>
<polygon fill="midnightblue" stroke="midnightblue" points="927.937,-295.335 937.943,-298.816 932.292,-289.854 927.937,-295.335"/>
</g>
<!-- Node21&#45;&gt;Node22 -->
<g id="edge27" class="edge"><title>Node21&#45;&gt;Node22</title>
<path fill="none" stroke="midnightblue" d="M837.006,-204.442C853.333,-201.088 870.863,-197.488 887.315,-194.108"/>
<polygon fill="midnightblue" stroke="midnightblue" points="888.307,-197.478 897.398,-192.037 886.899,-190.621 888.307,-197.478"/>
</g>
<!-- Node21&#45;&gt;Node23 -->
<g id="edge29" class="edge"><title>Node21&#45;&gt;Node23</title>
<path fill="none" stroke="midnightblue" d="M837.104,-226.251C890.248,-230.141 965.718,-229.356 1026,-204 1058.25,-190.435 1086.56,-160.958 1103.71,-140.084"/>
<polygon fill="midnightblue" stroke="midnightblue" points="1106.64,-142.012 1110.14,-132.01 1101.17,-137.651 1106.64,-142.012"/>
</g>
<!-- Node25&#45;&gt;Node23 -->
<g id="edge33" class="edge"><title>Node25&#45;&gt;Node23</title>
<path fill="none" stroke="midnightblue" d="M1026.18,-105.948C1034.84,-106.956 1043.69,-107.989 1052.35,-108.998"/>
<polygon fill="midnightblue" stroke="midnightblue" points="1052.07,-112.488 1062.41,-110.17 1052.88,-105.536 1052.07,-112.488"/>
</g>
<!-- Node27&#45;&gt;Node23 -->
<g id="edge39" class="edge"><title>Node27&#45;&gt;Node23</title>
<path fill="none" stroke="midnightblue" d="M822.75,-40.4923C842.956,-35.8648 866.414,-31.2804 888,-29 948.994,-22.5563 968.897,-6.61619 1026,-29 1059.08,-41.9655 1087.52,-72.4553 1104.44,-93.8943"/>
<polygon fill="midnightblue" stroke="midnightblue" points="1101.7,-96.0735 1110.56,-101.891 1107.26,-91.8216 1101.7,-96.0735"/>
</g>
<!-- Node27&#45;&gt;Node25 -->
<g id="edge38" class="edge"><title>Node27&#45;&gt;Node25</title>
<path fill="none" stroke="midnightblue" d="M822.533,-66.2565C848.583,-72.4522 880.066,-79.94 905.911,-86.0869"/>
<polygon fill="midnightblue" stroke="midnightblue" points="905.341,-89.5488 915.879,-88.4577 906.96,-82.7388 905.341,-89.5488"/>
</g>
<!-- Node28 -->
<g id="node28" class="node"><title>Node28</title>
<g id="a_node28"><a xlink:href="classVoxel_1_1SerializedObject.xhtml#a602414fea53034e304c0e6fcae5bb71b" target="_top" xlink:title="Voxel::SerializedObject\l::currentPutOffset">
<polygon fill="none" stroke="black" points="897.5,-39 897.5,-69 1016.5,-69 1016.5,-39 897.5,-39"/>
<text text-anchor="start" x="905.5" y="-57" font-family="Helvetica,sans-Serif" font-size="10.00">Voxel::SerializedObject</text>
<text text-anchor="middle" x="957" y="-46" font-family="Helvetica,sans-Serif" font-size="10.00">::currentPutOffset</text>
</a>
</g>
</g>
<!-- Node27&#45;&gt;Node28 -->
<g id="edge37" class="edge"><title>Node27&#45;&gt;Node28</title>
<path fill="none" stroke="midnightblue" d="M822.533,-54C842.561,-54 865.801,-54 887.221,-54"/>
<polygon fill="midnightblue" stroke="midnightblue" points="887.24,-57.5001 897.24,-54 887.24,-50.5001 887.24,-57.5001"/>
</g>
</g>
</svg>
