<?xml version="1.0" encoding="UTF-8" standalone="no"?>
<!DOCTYPE svg PUBLIC "-//W3C//DTD SVG 1.1//EN"
 "http://www.w3.org/Graphics/SVG/1.1/DTD/svg11.dtd">
<!-- Generated by graphviz version 2.36.0 (20140111.2315)
 -->
<!-- Title: Voxel::EnumParameterTemplate&lt; T &gt; Pages: 1 -->
<svg width="1088pt" height="137pt"
 viewBox="0.00 0.00 1088.00 137.00" xmlns="http://www.w3.org/2000/svg" xmlns:xlink="http://www.w3.org/1999/xlink">
<g id="graph0" class="graph" transform="scale(1 1) rotate(0) translate(4 133)">
<title>Voxel::EnumParameterTemplate&lt; T &gt;</title>
<!-- Node1 -->
<g id="node1" class="node"><title>Node1</title>
<polygon fill="#bfbfbf" stroke="black" points="326,-75.5 326,-94.5 508,-94.5 508,-75.5 326,-75.5"/>
<text text-anchor="middle" x="417" y="-82.5" font-family="Helvetica,sans-Serif" font-size="10.00">Voxel::EnumParameterTemplate&lt; T &gt;</text>
</g>
<!-- Node4 -->
<g id="node4" class="node"><title>Node4</title>
<g id="a_node4"><a xlink:href="classVoxel_1_1EnumParameterTemplate.xhtml" target="_top" xlink:title="Voxel::EnumParameterTemplate\l\&lt; int \&gt;">
<polygon fill="none" stroke="black" points="584,-98 584,-128 742,-128 742,-98 584,-98"/>
<text text-anchor="start" x="592" y="-116" font-family="Helvetica,sans-Serif" font-size="10.00">Voxel::EnumParameterTemplate</text>
<text text-anchor="middle" x="663" y="-105" font-family="Helvetica,sans-Serif" font-size="10.00">&lt; int &gt;</text>
</a>
</g>
</g>
<!-- Node1&#45;&gt;Node4 -->
<g id="edge3" class="edge"><title>Node1&#45;&gt;Node4</title>
<path fill="none" stroke="orange" stroke-dasharray="5,2" d="M511.119,-95.6858C535.104,-98.4382 560.669,-101.372 583.81,-104.027"/>
<polygon fill="orange" stroke="orange" points="511.282,-92.1816 500.948,-94.5186 510.483,-99.1359 511.282,-92.1816"/>
<text text-anchor="middle" x="546" y="-105" font-family="Helvetica,sans-Serif" font-size="10.00"> &lt; int &gt;</text>
</g>
<!-- Node6 -->
<g id="node6" class="node"><title>Node6</title>
<g id="a_node6"><a xlink:href="classVoxel_1_1EnumParameterTemplate.xhtml" target="_top" xlink:title="Voxel::EnumParameterTemplate\l\&lt; bool \&gt;">
<polygon fill="none" stroke="black" points="584,-49 584,-79 742,-79 742,-49 584,-49"/>
<text text-anchor="start" x="592" y="-67" font-family="Helvetica,sans-Serif" font-size="10.00">Voxel::EnumParameterTemplate</text>
<text text-anchor="middle" x="663" y="-56" font-family="Helvetica,sans-Serif" font-size="10.00">&lt; bool &gt;</text>
</a>
</g>
</g>
<!-- Node1&#45;&gt;Node6 -->
<g id="edge5" class="edge"><title>Node1&#45;&gt;Node6</title>
<path fill="none" stroke="orange" stroke-dasharray="5,2" d="M518.151,-76.3804C540.062,-74.4947 562.945,-72.5253 583.847,-70.7263"/>
<polygon fill="orange" stroke="orange" points="517.826,-72.8954 508.163,-77.24 518.427,-79.8696 517.826,-72.8954"/>
<text text-anchor="middle" x="546" y="-79" font-family="Helvetica,sans-Serif" font-size="10.00"> &lt; bool &gt;</text>
</g>
<!-- Node2 -->
<g id="node2" class="node"><title>Node2</title>
<g id="a_node2"><a xlink:href="classVoxel_1_1ParameterTemplate.xhtml" target="_top" xlink:title="Voxel::ParameterTemplate\&lt; T \&gt;">
<polygon fill="none" stroke="black" points="130.5,-75.5 130.5,-94.5 287.5,-94.5 287.5,-75.5 130.5,-75.5"/>
<text text-anchor="middle" x="209" y="-82.5" font-family="Helvetica,sans-Serif" font-size="10.00">Voxel::ParameterTemplate&lt; T &gt;</text>
</a>
</g>
</g>
<!-- Node2&#45;&gt;Node1 -->
<g id="edge1" class="edge"><title>Node2&#45;&gt;Node1</title>
<path fill="none" stroke="midnightblue" d="M297.589,-85C306.884,-85 316.349,-85 325.674,-85"/>
<polygon fill="midnightblue" stroke="midnightblue" points="297.586,-81.5001 287.586,-85 297.586,-88.5001 297.586,-81.5001"/>
</g>
<!-- Node3 -->
<g id="node3" class="node"><title>Node3</title>
<g id="a_node3"><a xlink:href="classVoxel_1_1Parameter.xhtml" target="_top" xlink:title="Voxel::Parameter">
<polygon fill="none" stroke="black" points="0,-75.5 0,-94.5 92,-94.5 92,-75.5 0,-75.5"/>
<text text-anchor="middle" x="46" y="-82.5" font-family="Helvetica,sans-Serif" font-size="10.00">Voxel::Parameter</text>
</a>
</g>
</g>
<!-- Node3&#45;&gt;Node2 -->
<g id="edge2" class="edge"><title>Node3&#45;&gt;Node2</title>
<path fill="none" stroke="midnightblue" d="M102.301,-85C111.384,-85 120.943,-85 130.447,-85"/>
<polygon fill="midnightblue" stroke="midnightblue" points="102.276,-81.5001 92.2759,-85 102.276,-88.5001 102.276,-81.5001"/>
</g>
<!-- Node5 -->
<g id="node5" class="node"><title>Node5</title>
<g id="a_node5"><a xlink:href="classVoxel_1_1EnumParameter.xhtml" target="_top" xlink:title="Voxel::EnumParameter">
<polygon fill="none" stroke="black" points="780,-103.5 780,-122.5 898,-122.5 898,-103.5 780,-103.5"/>
<text text-anchor="middle" x="839" y="-110.5" font-family="Helvetica,sans-Serif" font-size="10.00">Voxel::EnumParameter</text>
</a>
</g>
</g>
<!-- Node4&#45;&gt;Node5 -->
<g id="edge4" class="edge"><title>Node4&#45;&gt;Node5</title>
<path fill="none" stroke="midnightblue" d="M752.278,-113C761.676,-113 771.054,-113 779.973,-113"/>
<polygon fill="midnightblue" stroke="midnightblue" points="752.093,-109.5 742.093,-113 752.093,-116.5 752.093,-109.5"/>
</g>
<!-- Node7 -->
<g id="node7" class="node"><title>Node7</title>
<g id="a_node7"><a xlink:href="classVoxel_1_1BoolParameter.xhtml" target="_top" xlink:title="Voxel::BoolParameter">
<polygon fill="none" stroke="black" points="783,-54.5 783,-73.5 895,-73.5 895,-54.5 783,-54.5"/>
<text text-anchor="middle" x="839" y="-61.5" font-family="Helvetica,sans-Serif" font-size="10.00">Voxel::BoolParameter</text>
</a>
</g>
</g>
<!-- Node6&#45;&gt;Node7 -->
<g id="edge6" class="edge"><title>Node6&#45;&gt;Node7</title>
<path fill="none" stroke="midnightblue" d="M752.103,-64C762.558,-64 772.991,-64 782.8,-64"/>
<polygon fill="midnightblue" stroke="midnightblue" points="752.093,-60.5001 742.093,-64 752.093,-67.5001 752.093,-60.5001"/>
</g>
<!-- Node8 -->
<g id="node8" class="node"><title>Node8</title>
<g id="a_node8"><a xlink:href="classVoxel_1_1StrobeBoolParameter.xhtml" target="_top" xlink:title="Voxel::StrobeBoolParameter">
<polygon fill="none" stroke="black" points="938,-98.5 938,-117.5 1078,-117.5 1078,-98.5 938,-98.5"/>
<text text-anchor="middle" x="1008" y="-105.5" font-family="Helvetica,sans-Serif" font-size="10.00">Voxel::StrobeBoolParameter</text>
</a>
</g>
</g>
<!-- Node7&#45;&gt;Node8 -->
<g id="edge7" class="edge"><title>Node7&#45;&gt;Node8</title>
<path fill="none" stroke="midnightblue" d="M886.133,-76.1547C912.856,-83.1955 946.012,-91.9312 970.834,-98.4713"/>
<polygon fill="midnightblue" stroke="midnightblue" points="886.798,-72.7107 876.237,-73.5473 885.015,-79.4797 886.798,-72.7107"/>
</g>
<!-- Node9 -->
<g id="node9" class="node"><title>Node9</title>
<g id="a_node9"><a xlink:href="classVoxel_1_1TI_1_1CalculusIntegDutyCycleSetFailed.xhtml" target="_top" xlink:title="Custom parameters. ">
<polygon fill="none" stroke="black" points="947,-49 947,-79 1069,-79 1069,-49 947,-49"/>
<text text-anchor="start" x="955" y="-67" font-family="Helvetica,sans-Serif" font-size="10.00">Voxel::TI::CalculusInteg</text>
<text text-anchor="middle" x="1008" y="-56" font-family="Helvetica,sans-Serif" font-size="10.00">DutyCycleSetFailed</text>
</a>
</g>
</g>
<!-- Node7&#45;&gt;Node9 -->
<g id="edge8" class="edge"><title>Node7&#45;&gt;Node9</title>
<path fill="none" stroke="midnightblue" d="M905.401,-64C919.019,-64 933.311,-64 946.733,-64"/>
<polygon fill="midnightblue" stroke="midnightblue" points="905.145,-60.5001 895.145,-64 905.145,-67.5001 905.145,-60.5001"/>
</g>
<!-- Node10 -->
<g id="node10" class="node"><title>Node10</title>
<g id="a_node10"><a xlink:href="classVoxel_1_1TI_1_1VoxelDIlluminationPolarityParameter.xhtml" target="_top" xlink:title="Voxel::TI::VoxelDIllumination\lPolarityParameter">
<polygon fill="none" stroke="black" points="936,-0 936,-30 1080,-30 1080,-0 936,-0"/>
<text text-anchor="start" x="944" y="-18" font-family="Helvetica,sans-Serif" font-size="10.00">Voxel::TI::VoxelDIllumination</text>
<text text-anchor="middle" x="1008" y="-7" font-family="Helvetica,sans-Serif" font-size="10.00">PolarityParameter</text>
</a>
</g>
</g>
<!-- Node7&#45;&gt;Node10 -->
<g id="edge9" class="edge"><title>Node7&#45;&gt;Node10</title>
<path fill="none" stroke="midnightblue" d="M882.446,-51.5459C904.752,-45.0008 932.263,-36.9287 955.752,-30.037"/>
<polygon fill="midnightblue" stroke="midnightblue" points="881.206,-48.2621 872.596,-54.436 883.177,-54.9789 881.206,-48.2621"/>
</g>
</g>
</svg>
