<?xml version="1.0" encoding="UTF-8" standalone="no"?>
<!DOCTYPE svg PUBLIC "-//W3C//DTD SVG 1.1//EN"
 "http://www.w3.org/Graphics/SVG/1.1/DTD/svg11.dtd">
<!-- Generated by graphviz version 2.36.0 (20140111.2315)
 -->
<!-- Title: Voxel::MainConfigurationFile::get Pages: 1 -->
<svg width="712pt" height="528pt"
 viewBox="0.00 0.00 712.00 528.00" xmlns="http://www.w3.org/2000/svg" xmlns:xlink="http://www.w3.org/1999/xlink">
<g id="graph0" class="graph" transform="scale(1 1) rotate(0) translate(4 524)">
<title>Voxel::MainConfigurationFile::get</title>
<!-- Node1 -->
<g id="node1" class="node"><title>Node1</title>
<polygon fill="#bfbfbf" stroke="black" points="0,-343 0,-373 126,-373 126,-343 0,-343"/>
<text text-anchor="start" x="8" y="-361" font-family="Helvetica,sans-Serif" font-size="10.00">Voxel::MainConfiguration</text>
<text text-anchor="middle" x="63" y="-350" font-family="Helvetica,sans-Serif" font-size="10.00">File::get</text>
</g>
<!-- Node2 -->
<g id="node2" class="node"><title>Node2</title>
<g id="a_node2"><a xlink:href="classVoxel_1_1TI_1_1ToFTintinCamera.xhtml#a8f4687aa4c53a91e680f1ea9805a9b06" target="_top" xlink:title="Voxel::TI::ToFTintinCamera\l::_applyCalibrationParams">
<polygon fill="none" stroke="black" points="170,-480 170,-510 308,-510 308,-480 170,-480"/>
<text text-anchor="start" x="178" y="-498" font-family="Helvetica,sans-Serif" font-size="10.00">Voxel::TI::ToFTintinCamera</text>
<text text-anchor="middle" x="239" y="-487" font-family="Helvetica,sans-Serif" font-size="10.00">::_applyCalibrationParams</text>
</a>
</g>
</g>
<!-- Node1&#45;&gt;Node2 -->
<g id="edge1" class="edge"><title>Node1&#45;&gt;Node2</title>
<path fill="none" stroke="midnightblue" d="M79.2241,-381.992C96.4338,-407.281 126.697,-446.624 162,-470 167.791,-473.834 174.218,-477.125 180.814,-479.937"/>
<polygon fill="midnightblue" stroke="midnightblue" points="81.9404,-379.756 73.4891,-373.366 76.1113,-383.631 81.9404,-379.756"/>
</g>
<!-- Node3 -->
<g id="node3" class="node"><title>Node3</title>
<g id="a_node3"><a xlink:href="classVoxel_1_1TI_1_1ToFHaddockCamera.xhtml#a749a2bbcdbfa69054d523866504743d1" target="_top" xlink:title="Voxel::TI::ToFHaddockCamera\l::_init">
<polygon fill="none" stroke="black" points="162.5,-431 162.5,-461 315.5,-461 315.5,-431 162.5,-431"/>
<text text-anchor="start" x="170.5" y="-449" font-family="Helvetica,sans-Serif" font-size="10.00">Voxel::TI::ToFHaddockCamera</text>
<text text-anchor="middle" x="239" y="-438" font-family="Helvetica,sans-Serif" font-size="10.00">::_init</text>
</a>
</g>
</g>
<!-- Node1&#45;&gt;Node3 -->
<g id="edge2" class="edge"><title>Node1&#45;&gt;Node3</title>
<path fill="none" stroke="midnightblue" d="M95.676,-378.484C114.53,-390.232 139.159,-404.82 162,-416 172.957,-421.363 185.129,-426.508 196.464,-430.977"/>
<polygon fill="midnightblue" stroke="midnightblue" points="97.5109,-375.503 87.1829,-373.14 93.7831,-381.428 97.5109,-375.503"/>
</g>
<!-- Node8 -->
<g id="node8" class="node"><title>Node8</title>
<g id="a_node8"><a xlink:href="classVoxel_1_1TI_1_1Voxel14Camera.xhtml#a89011bfb795ff58d3fb8675364b91abe" target="_top" xlink:title="Voxel::TI::Voxel14Camera\l::_init">
<polygon fill="none" stroke="black" points="365,-392 365,-422 497,-422 497,-392 365,-392"/>
<text text-anchor="start" x="373" y="-410" font-family="Helvetica,sans-Serif" font-size="10.00">Voxel::TI::Voxel14Camera</text>
<text text-anchor="middle" x="431" y="-399" font-family="Helvetica,sans-Serif" font-size="10.00">::_init</text>
</a>
</g>
</g>
<!-- Node1&#45;&gt;Node8 -->
<g id="edge9" class="edge"><title>Node1&#45;&gt;Node8</title>
<path fill="none" stroke="midnightblue" d="M129.08,-375.354C140.014,-377.862 151.287,-380.199 162,-382 230.779,-393.565 310.453,-400.143 364.941,-403.617"/>
<polygon fill="midnightblue" stroke="midnightblue" points="129.696,-371.904 119.16,-373.014 128.089,-378.717 129.696,-371.904"/>
</g>
<!-- Node10 -->
<g id="node10" class="node"><title>Node10</title>
<g id="a_node10"><a xlink:href="classVoxel_1_1TI_1_1VoxelDCamera.xhtml#a47b15c40c3fbcc52ae1eb3c9fe74d9f1" target="_top" xlink:title="Voxel::TI::VoxelDCamera\l::_init">
<polygon fill="none" stroke="black" points="366.5,-294 366.5,-324 495.5,-324 495.5,-294 366.5,-294"/>
<text text-anchor="start" x="374.5" y="-312" font-family="Helvetica,sans-Serif" font-size="10.00">Voxel::TI::VoxelDCamera</text>
<text text-anchor="middle" x="431" y="-301" font-family="Helvetica,sans-Serif" font-size="10.00">::_init</text>
</a>
</g>
</g>
<!-- Node1&#45;&gt;Node10 -->
<g id="edge10" class="edge"><title>Node1&#45;&gt;Node10</title>
<path fill="none" stroke="midnightblue" d="M126.316,-340.511C138.097,-337.658 150.372,-334.991 162,-333 231.296,-321.137 311.74,-314.928 366.275,-311.824"/>
<polygon fill="midnightblue" stroke="midnightblue" points="125.419,-337.127 116.561,-342.939 127.11,-343.92 125.419,-337.127"/>
</g>
<!-- Node12 -->
<g id="node12" class="node"><title>Node12</title>
<g id="a_node12"><a xlink:href="classVoxel_1_1TI_1_1ToFCalculusCamera.xhtml#aa931ad7b5e4b84779df941814c2a5b17" target="_top" xlink:title="Voxel::TI::ToFCalculusCamera\l::_init">
<polygon fill="none" stroke="black" points="163,-343 163,-373 315,-373 315,-343 163,-343"/>
<text text-anchor="start" x="171" y="-361" font-family="Helvetica,sans-Serif" font-size="10.00">Voxel::TI::ToFCalculusCamera</text>
<text text-anchor="middle" x="239" y="-350" font-family="Helvetica,sans-Serif" font-size="10.00">::_init</text>
</a>
</g>
</g>
<!-- Node1&#45;&gt;Node12 -->
<g id="edge12" class="edge"><title>Node1&#45;&gt;Node12</title>
<path fill="none" stroke="midnightblue" d="M136.417,-358C145.11,-358 154.002,-358 162.734,-358"/>
<polygon fill="midnightblue" stroke="midnightblue" points="136.327,-354.5 126.327,-358 136.326,-361.5 136.327,-354.5"/>
</g>
<!-- Node15 -->
<g id="node15" class="node"><title>Node15</title>
<g id="a_node15"><a xlink:href="classVoxel_1_1TI_1_1ToFTintinCamera.xhtml#af894a732f4beedc37144927eec93cc89" target="_top" xlink:title="Voxel::TI::ToFTintinCamera\l::_init">
<polygon fill="none" stroke="black" points="170,-255 170,-285 308,-285 308,-255 170,-255"/>
<text text-anchor="start" x="178" y="-273" font-family="Helvetica,sans-Serif" font-size="10.00">Voxel::TI::ToFTintinCamera</text>
<text text-anchor="middle" x="239" y="-262" font-family="Helvetica,sans-Serif" font-size="10.00">::_init</text>
</a>
</g>
</g>
<!-- Node1&#45;&gt;Node15 -->
<g id="edge15" class="edge"><title>Node1&#45;&gt;Node15</title>
<path fill="none" stroke="midnightblue" d="M95.676,-337.516C114.53,-325.768 139.159,-311.18 162,-300 172.957,-294.637 185.129,-289.492 196.464,-285.023"/>
<polygon fill="midnightblue" stroke="midnightblue" points="93.7831,-334.572 87.1829,-342.86 97.5109,-340.497 93.7831,-334.572"/>
</g>
<!-- Node18 -->
<g id="node18" class="node"><title>Node18</title>
<g id="a_node18"><a xlink:href="classVoxel_1_1TI_1_1ToFCamera.xhtml#a52686f695d06876ef5a89e453c6a8ba3" target="_top" xlink:title="Voxel::TI::ToFCamera\l::_initStartParams">
<polygon fill="none" stroke="black" points="182,-123 182,-153 296,-153 296,-123 182,-123"/>
<text text-anchor="start" x="190" y="-141" font-family="Helvetica,sans-Serif" font-size="10.00">Voxel::TI::ToFCamera</text>
<text text-anchor="middle" x="239" y="-130" font-family="Helvetica,sans-Serif" font-size="10.00">::_initStartParams</text>
</a>
</g>
</g>
<!-- Node1&#45;&gt;Node18 -->
<g id="edge19" class="edge"><title>Node1&#45;&gt;Node18</title>
<path fill="none" stroke="midnightblue" d="M82.3092,-334.85C118.001,-289.723 196.004,-191.098 225.957,-153.227"/>
<polygon fill="midnightblue" stroke="midnightblue" points="79.418,-332.864 75.9597,-342.879 84.9083,-337.206 79.418,-332.864"/>
</g>
<!-- Node4 -->
<g id="node4" class="node"><title>Node4</title>
<g id="a_node4"><a xlink:href="classVoxel_1_1TI_1_1HaddockCDKCamera.xhtml#a7dff103da3145dd303a5bc0db75ae961" target="_top" xlink:title="Voxel::TI::HaddockCDKCamera\l::_init">
<polygon fill="none" stroke="black" points="352,-441 352,-471 510,-471 510,-441 352,-441"/>
<text text-anchor="start" x="360" y="-459" font-family="Helvetica,sans-Serif" font-size="10.00">Voxel::TI::HaddockCDKCamera</text>
<text text-anchor="middle" x="431" y="-448" font-family="Helvetica,sans-Serif" font-size="10.00">::_init</text>
</a>
</g>
</g>
<!-- Node3&#45;&gt;Node4 -->
<g id="edge3" class="edge"><title>Node3&#45;&gt;Node4</title>
<path fill="none" stroke="midnightblue" d="M325.763,-450.514C334.443,-450.971 343.227,-451.433 351.821,-451.885"/>
<polygon fill="midnightblue" stroke="midnightblue" points="325.809,-447.012 315.639,-449.981 325.441,-454.002 325.809,-447.012"/>
</g>
<!-- Node6 -->
<g id="node6" class="node"><title>Node6</title>
<g id="a_node6"><a xlink:href="classVoxel_1_1TI_1_1RTS5825Camera.xhtml#af7d33e164feac1c63726d2757227c3bc" target="_top" xlink:title="Voxel::TI::RTS5825Camera\l::_init">
<polygon fill="none" stroke="black" points="362,-490 362,-520 500,-520 500,-490 362,-490"/>
<text text-anchor="start" x="370" y="-508" font-family="Helvetica,sans-Serif" font-size="10.00">Voxel::TI::RTS5825Camera</text>
<text text-anchor="middle" x="431" y="-497" font-family="Helvetica,sans-Serif" font-size="10.00">::_init</text>
</a>
</g>
</g>
<!-- Node3&#45;&gt;Node6 -->
<g id="edge5" class="edge"><title>Node3&#45;&gt;Node6</title>
<path fill="none" stroke="midnightblue" d="M298.065,-464.031C324.821,-472.339 356.206,-482.085 381.652,-489.987"/>
<polygon fill="midnightblue" stroke="midnightblue" points="299.025,-460.664 288.437,-461.041 296.949,-467.349 299.025,-460.664"/>
</g>
<!-- Node3&#45;&gt;Node8 -->
<g id="edge7" class="edge"><title>Node3&#45;&gt;Node8</title>
<path fill="none" stroke="midnightblue" d="M323.267,-428.908C337.218,-426.045 351.511,-423.111 364.919,-420.359"/>
<polygon fill="midnightblue" stroke="midnightblue" points="322.279,-425.538 313.187,-430.977 323.687,-432.395 322.279,-425.538"/>
</g>
<!-- Node5 -->
<g id="node5" class="node"><title>Node5</title>
<g id="a_node5"><a xlink:href="classVoxel_1_1TI_1_1HaddockCDKCamera.xhtml#ac2c5e82486c4cc3f5edada38cd4274c5" target="_top" xlink:title="Voxel::TI::HaddockCDKCamera\l::HaddockCDKCamera">
<polygon fill="none" stroke="black" points="546,-441 546,-471 704,-471 704,-441 546,-441"/>
<text text-anchor="start" x="554" y="-459" font-family="Helvetica,sans-Serif" font-size="10.00">Voxel::TI::HaddockCDKCamera</text>
<text text-anchor="middle" x="625" y="-448" font-family="Helvetica,sans-Serif" font-size="10.00">::HaddockCDKCamera</text>
</a>
</g>
</g>
<!-- Node4&#45;&gt;Node5 -->
<g id="edge4" class="edge"><title>Node4&#45;&gt;Node5</title>
<path fill="none" stroke="midnightblue" d="M520.153,-456C528.769,-456 537.47,-456 545.975,-456"/>
<polygon fill="midnightblue" stroke="midnightblue" points="520.094,-452.5 510.094,-456 520.094,-459.5 520.094,-452.5"/>
</g>
<!-- Node7 -->
<g id="node7" class="node"><title>Node7</title>
<g id="a_node7"><a xlink:href="classVoxel_1_1TI_1_1RTS5825Camera.xhtml#a7a242f28e79a95d9a918946beb0b0461" target="_top" xlink:title="Voxel::TI::RTS5825Camera\l::RTS5825Camera">
<polygon fill="none" stroke="black" points="556,-490 556,-520 694,-520 694,-490 556,-490"/>
<text text-anchor="start" x="564" y="-508" font-family="Helvetica,sans-Serif" font-size="10.00">Voxel::TI::RTS5825Camera</text>
<text text-anchor="middle" x="625" y="-497" font-family="Helvetica,sans-Serif" font-size="10.00">::RTS5825Camera</text>
</a>
</g>
</g>
<!-- Node6&#45;&gt;Node7 -->
<g id="edge6" class="edge"><title>Node6&#45;&gt;Node7</title>
<path fill="none" stroke="midnightblue" d="M510.551,-505C525.621,-505 541.284,-505 555.987,-505"/>
<polygon fill="midnightblue" stroke="midnightblue" points="510.233,-501.5 500.233,-505 510.233,-508.5 510.233,-501.5"/>
</g>
<!-- Node9 -->
<g id="node9" class="node"><title>Node9</title>
<g id="a_node9"><a xlink:href="classVoxel_1_1TI_1_1Voxel14Camera.xhtml#a606f13ed73547ee43f585e241b42dd5d" target="_top" xlink:title="Voxel::TI::Voxel14Camera\l::Voxel14Camera">
<polygon fill="none" stroke="black" points="559,-392 559,-422 691,-422 691,-392 559,-392"/>
<text text-anchor="start" x="567" y="-410" font-family="Helvetica,sans-Serif" font-size="10.00">Voxel::TI::Voxel14Camera</text>
<text text-anchor="middle" x="625" y="-399" font-family="Helvetica,sans-Serif" font-size="10.00">::Voxel14Camera</text>
</a>
</g>
</g>
<!-- Node8&#45;&gt;Node9 -->
<g id="edge8" class="edge"><title>Node8&#45;&gt;Node9</title>
<path fill="none" stroke="midnightblue" d="M507.424,-407C524.381,-407 542.237,-407 558.738,-407"/>
<polygon fill="midnightblue" stroke="midnightblue" points="507.002,-403.5 497.002,-407 507.002,-410.5 507.002,-403.5"/>
</g>
<!-- Node11 -->
<g id="node11" class="node"><title>Node11</title>
<g id="a_node11"><a xlink:href="classVoxel_1_1TI_1_1VoxelDCamera.xhtml#a4a95cf8257e2f9f5fd34386b87f6663a" target="_top" xlink:title="Voxel::TI::VoxelDCamera\l::VoxelDCamera">
<polygon fill="none" stroke="black" points="560.5,-294 560.5,-324 689.5,-324 689.5,-294 560.5,-294"/>
<text text-anchor="start" x="568.5" y="-312" font-family="Helvetica,sans-Serif" font-size="10.00">Voxel::TI::VoxelDCamera</text>
<text text-anchor="middle" x="625" y="-301" font-family="Helvetica,sans-Serif" font-size="10.00">::VoxelDCamera</text>
</a>
</g>
</g>
<!-- Node10&#45;&gt;Node11 -->
<g id="edge11" class="edge"><title>Node10&#45;&gt;Node11</title>
<path fill="none" stroke="midnightblue" d="M505.788,-309C523.722,-309 542.75,-309 560.178,-309"/>
<polygon fill="midnightblue" stroke="midnightblue" points="505.667,-305.5 495.667,-309 505.666,-312.5 505.667,-305.5"/>
</g>
<!-- Node13 -->
<g id="node13" class="node"><title>Node13</title>
<g id="a_node13"><a xlink:href="classVoxel_1_1TI_1_1CalculusCDKCamera.xhtml#a82eb752fb0d4b63495d2e29b6b8aed2c" target="_top" xlink:title="Voxel::TI::CalculusCDKCamera\l::_init">
<polygon fill="none" stroke="black" points="352.5,-343 352.5,-373 509.5,-373 509.5,-343 352.5,-343"/>
<text text-anchor="start" x="360.5" y="-361" font-family="Helvetica,sans-Serif" font-size="10.00">Voxel::TI::CalculusCDKCamera</text>
<text text-anchor="middle" x="431" y="-350" font-family="Helvetica,sans-Serif" font-size="10.00">::_init</text>
</a>
</g>
</g>
<!-- Node12&#45;&gt;Node13 -->
<g id="edge13" class="edge"><title>Node12&#45;&gt;Node13</title>
<path fill="none" stroke="midnightblue" d="M325.219,-358C334.249,-358 343.398,-358 352.334,-358"/>
<polygon fill="midnightblue" stroke="midnightblue" points="325.093,-354.5 315.093,-358 325.093,-361.5 325.093,-354.5"/>
</g>
<!-- Node14 -->
<g id="node14" class="node"><title>Node14</title>
<g id="a_node14"><a xlink:href="classVoxel_1_1TI_1_1CalculusCDKCamera.xhtml#af406b1427962d80da9af9fb24e89b239" target="_top" xlink:title="Voxel::TI::CalculusCDKCamera\l::CalculusCDKCamera">
<polygon fill="none" stroke="black" points="546.5,-343 546.5,-373 703.5,-373 703.5,-343 546.5,-343"/>
<text text-anchor="start" x="554.5" y="-361" font-family="Helvetica,sans-Serif" font-size="10.00">Voxel::TI::CalculusCDKCamera</text>
<text text-anchor="middle" x="625" y="-350" font-family="Helvetica,sans-Serif" font-size="10.00">::CalculusCDKCamera</text>
</a>
</g>
</g>
<!-- Node13&#45;&gt;Node14 -->
<g id="edge14" class="edge"><title>Node13&#45;&gt;Node14</title>
<path fill="none" stroke="midnightblue" d="M519.605,-358C528.571,-358 537.635,-358 546.482,-358"/>
<polygon fill="midnightblue" stroke="midnightblue" points="519.54,-354.5 509.54,-358 519.54,-361.5 519.54,-354.5"/>
</g>
<!-- Node15&#45;&gt;Node10 -->
<g id="edge18" class="edge"><title>Node15&#45;&gt;Node10</title>
<path fill="none" stroke="midnightblue" d="M317.952,-286.001C334.009,-289.297 350.739,-292.731 366.223,-295.909"/>
<polygon fill="midnightblue" stroke="midnightblue" points="318.557,-282.552 308.058,-283.97 317.15,-289.409 318.557,-282.552"/>
</g>
<!-- Node16 -->
<g id="node16" class="node"><title>Node16</title>
<g id="a_node16"><a xlink:href="classVoxel_1_1TI_1_1TintinCDKCamera.xhtml#af5337f40c1a075c026263ea9871a20ee" target="_top" xlink:title="Voxel::TI::TintinCDKCamera\l::_init">
<polygon fill="none" stroke="black" points="359.5,-245 359.5,-275 502.5,-275 502.5,-245 359.5,-245"/>
<text text-anchor="start" x="367.5" y="-263" font-family="Helvetica,sans-Serif" font-size="10.00">Voxel::TI::TintinCDKCamera</text>
<text text-anchor="middle" x="431" y="-252" font-family="Helvetica,sans-Serif" font-size="10.00">::_init</text>
</a>
</g>
</g>
<!-- Node15&#45;&gt;Node16 -->
<g id="edge16" class="edge"><title>Node15&#45;&gt;Node16</title>
<path fill="none" stroke="midnightblue" d="M318.309,-265.878C331.859,-265.165 345.877,-264.428 359.213,-263.726"/>
<polygon fill="midnightblue" stroke="midnightblue" points="317.86,-262.397 308.058,-266.418 318.228,-269.387 317.86,-262.397"/>
</g>
<!-- Node17 -->
<g id="node17" class="node"><title>Node17</title>
<g id="a_node17"><a xlink:href="classVoxel_1_1TI_1_1TintinCDKCamera.xhtml#a7a9918bb8b6d76bc3511536019847c1d" target="_top" xlink:title="Voxel::TI::TintinCDKCamera\l::TintinCDKCamera">
<polygon fill="none" stroke="black" points="553.5,-245 553.5,-275 696.5,-275 696.5,-245 553.5,-245"/>
<text text-anchor="start" x="561.5" y="-263" font-family="Helvetica,sans-Serif" font-size="10.00">Voxel::TI::TintinCDKCamera</text>
<text text-anchor="middle" x="625" y="-252" font-family="Helvetica,sans-Serif" font-size="10.00">::TintinCDKCamera</text>
</a>
</g>
</g>
<!-- Node16&#45;&gt;Node17 -->
<g id="edge17" class="edge"><title>Node16&#45;&gt;Node17</title>
<path fill="none" stroke="midnightblue" d="M512.891,-260C526.378,-260 540.272,-260 553.474,-260"/>
<polygon fill="midnightblue" stroke="midnightblue" points="512.676,-256.5 502.676,-260 512.676,-263.5 512.676,-256.5"/>
</g>
<!-- Node19 -->
<g id="node19" class="node"><title>Node19</title>
<g id="a_node19"><a xlink:href="classVoxel_1_1TI_1_1HaddockCDKCamera.xhtml#a4e8e32000eca9b81bc6401a8d512cbc7" target="_top" xlink:title="Voxel::TI::HaddockCDKCamera\l::_initStartParams">
<polygon fill="none" stroke="black" points="352,-147 352,-177 510,-177 510,-147 352,-147"/>
<text text-anchor="start" x="360" y="-165" font-family="Helvetica,sans-Serif" font-size="10.00">Voxel::TI::HaddockCDKCamera</text>
<text text-anchor="middle" x="431" y="-154" font-family="Helvetica,sans-Serif" font-size="10.00">::_initStartParams</text>
</a>
</g>
</g>
<!-- Node18&#45;&gt;Node19 -->
<g id="edge20" class="edge"><title>Node18&#45;&gt;Node19</title>
<path fill="none" stroke="midnightblue" d="M306.223,-146.365C320.913,-148.221 336.616,-150.204 351.735,-152.114"/>
<polygon fill="midnightblue" stroke="midnightblue" points="306.595,-142.884 296.235,-145.103 305.718,-149.829 306.595,-142.884"/>
</g>
<!-- Node20 -->
<g id="node20" class="node"><title>Node20</title>
<g id="a_node20"><a xlink:href="classVoxel_1_1TI_1_1RTS5825Camera.xhtml#a2df71f9665a9c5d5dd1f6c58654175cd" target="_top" xlink:title="Voxel::TI::RTS5825Camera\l::_initStartParams">
<polygon fill="none" stroke="black" points="362,-98 362,-128 500,-128 500,-98 362,-98"/>
<text text-anchor="start" x="370" y="-116" font-family="Helvetica,sans-Serif" font-size="10.00">Voxel::TI::RTS5825Camera</text>
<text text-anchor="middle" x="431" y="-105" font-family="Helvetica,sans-Serif" font-size="10.00">::_initStartParams</text>
</a>
</g>
</g>
<!-- Node18&#45;&gt;Node20 -->
<g id="edge21" class="edge"><title>Node18&#45;&gt;Node20</title>
<path fill="none" stroke="midnightblue" d="M306.324,-129.273C324.283,-126.91 343.751,-124.349 361.81,-121.972"/>
<polygon fill="midnightblue" stroke="midnightblue" points="305.693,-125.826 296.235,-130.601 306.606,-132.766 305.693,-125.826"/>
</g>
<!-- Node21 -->
<g id="node21" class="node"><title>Node21</title>
<g id="a_node21"><a xlink:href="classVoxel_1_1TI_1_1ToFCalculusCamera.xhtml#adf420ba5e95dcb0cbd3da90f446242d9" target="_top" xlink:title="Voxel::TI::ToFCalculusCamera\l::_initStartParams">
<polygon fill="none" stroke="black" points="355,-49 355,-79 507,-79 507,-49 355,-49"/>
<text text-anchor="start" x="363" y="-67" font-family="Helvetica,sans-Serif" font-size="10.00">Voxel::TI::ToFCalculusCamera</text>
<text text-anchor="middle" x="431" y="-56" font-family="Helvetica,sans-Serif" font-size="10.00">::_initStartParams</text>
</a>
</g>
</g>
<!-- Node18&#45;&gt;Node21 -->
<g id="edge22" class="edge"><title>Node18&#45;&gt;Node21</title>
<path fill="none" stroke="midnightblue" d="M280.253,-118.606C301.361,-108.801 327.797,-97.0875 352,-88 360.356,-84.8624 369.324,-81.8156 378.095,-79.0049"/>
<polygon fill="midnightblue" stroke="midnightblue" points="278.528,-115.549 270.957,-122.96 281.497,-121.888 278.528,-115.549"/>
</g>
<!-- Node23 -->
<g id="node23" class="node"><title>Node23</title>
<g id="a_node23"><a xlink:href="classVoxel_1_1TI_1_1ToFHaddockCamera.xhtml#ae87b0ca3c8867d1b520c0165d526e79d" target="_top" xlink:title="Voxel::TI::ToFHaddockCamera\l::_initStartParams">
<polygon fill="none" stroke="black" points="354.5,-0 354.5,-30 507.5,-30 507.5,-0 354.5,-0"/>
<text text-anchor="start" x="362.5" y="-18" font-family="Helvetica,sans-Serif" font-size="10.00">Voxel::TI::ToFHaddockCamera</text>
<text text-anchor="middle" x="431" y="-7" font-family="Helvetica,sans-Serif" font-size="10.00">::_initStartParams</text>
</a>
</g>
</g>
<!-- Node18&#45;&gt;Node23 -->
<g id="edge24" class="edge"><title>Node18&#45;&gt;Node23</title>
<path fill="none" stroke="midnightblue" d="M260.112,-115.296C281.036,-92.9577 315.758,-59.3287 352,-39 358.055,-35.6037 364.65,-32.6283 371.356,-30.0371"/>
<polygon fill="midnightblue" stroke="midnightblue" points="257.506,-112.959 253.306,-122.686 262.655,-117.701 257.506,-112.959"/>
</g>
<!-- Node25 -->
<g id="node25" class="node"><title>Node25</title>
<g id="a_node25"><a xlink:href="classVoxel_1_1TI_1_1ToFTintinCamera.xhtml#a17729406fadceea890b4e0e079aede46" target="_top" xlink:title="Voxel::TI::ToFTintinCamera\l::_initStartParams">
<polygon fill="none" stroke="black" points="362,-196 362,-226 500,-226 500,-196 362,-196"/>
<text text-anchor="start" x="370" y="-214" font-family="Helvetica,sans-Serif" font-size="10.00">Voxel::TI::ToFTintinCamera</text>
<text text-anchor="middle" x="431" y="-203" font-family="Helvetica,sans-Serif" font-size="10.00">::_initStartParams</text>
</a>
</g>
</g>
<!-- Node18&#45;&gt;Node25 -->
<g id="edge26" class="edge"><title>Node18&#45;&gt;Node25</title>
<path fill="none" stroke="midnightblue" d="M282.197,-157.206C303.02,-166.395 328.628,-177.269 352,-186 361.191,-189.434 371.095,-192.833 380.658,-195.966"/>
<polygon fill="midnightblue" stroke="midnightblue" points="283.551,-153.977 272.991,-153.116 280.709,-160.375 283.551,-153.977"/>
</g>
<!-- Node22 -->
<g id="node22" class="node"><title>Node22</title>
<g id="a_node22"><a xlink:href="classVoxel_1_1TI_1_1CalculusCDKCamera.xhtml#a2474713056342fa6774ff5a165961052" target="_top" xlink:title="Voxel::TI::CalculusCDKCamera\l::_initStartParams">
<polygon fill="none" stroke="black" points="546.5,-49 546.5,-79 703.5,-79 703.5,-49 546.5,-49"/>
<text text-anchor="start" x="554.5" y="-67" font-family="Helvetica,sans-Serif" font-size="10.00">Voxel::TI::CalculusCDKCamera</text>
<text text-anchor="middle" x="625" y="-56" font-family="Helvetica,sans-Serif" font-size="10.00">::_initStartParams</text>
</a>
</g>
</g>
<!-- Node21&#45;&gt;Node22 -->
<g id="edge23" class="edge"><title>Node21&#45;&gt;Node22</title>
<path fill="none" stroke="midnightblue" d="M517.152,-64C526.908,-64 536.816,-64 546.465,-64"/>
<polygon fill="midnightblue" stroke="midnightblue" points="517.057,-60.5001 507.057,-64 517.057,-67.5001 517.057,-60.5001"/>
</g>
<!-- Node24 -->
<g id="node24" class="node"><title>Node24</title>
<g id="a_node24"><a xlink:href="classVoxel_1_1TI_1_1Voxel14Camera.xhtml#ad5dcde935444ac28a6e0b5705f504573" target="_top" xlink:title="Voxel::TI::Voxel14Camera\l::_initStartParams">
<polygon fill="none" stroke="black" points="559,-0 559,-30 691,-30 691,-0 559,-0"/>
<text text-anchor="start" x="567" y="-18" font-family="Helvetica,sans-Serif" font-size="10.00">Voxel::TI::Voxel14Camera</text>
<text text-anchor="middle" x="625" y="-7" font-family="Helvetica,sans-Serif" font-size="10.00">::_initStartParams</text>
</a>
</g>
</g>
<!-- Node23&#45;&gt;Node24 -->
<g id="edge25" class="edge"><title>Node23&#45;&gt;Node24</title>
<path fill="none" stroke="midnightblue" d="M517.994,-15C531.67,-15 545.62,-15 558.718,-15"/>
<polygon fill="midnightblue" stroke="midnightblue" points="517.608,-11.5001 507.608,-15 517.608,-18.5001 517.608,-11.5001"/>
</g>
<!-- Node26 -->
<g id="node26" class="node"><title>Node26</title>
<g id="a_node26"><a xlink:href="classVoxel_1_1TI_1_1TintinCDKCamera.xhtml#a35274b5fd95ea088be4bc0637328d5f4" target="_top" xlink:title="Voxel::TI::TintinCDKCamera\l::_initStartParams">
<polygon fill="none" stroke="black" points="553.5,-196 553.5,-226 696.5,-226 696.5,-196 553.5,-196"/>
<text text-anchor="start" x="561.5" y="-214" font-family="Helvetica,sans-Serif" font-size="10.00">Voxel::TI::TintinCDKCamera</text>
<text text-anchor="middle" x="625" y="-203" font-family="Helvetica,sans-Serif" font-size="10.00">::_initStartParams</text>
</a>
</g>
</g>
<!-- Node25&#45;&gt;Node26 -->
<g id="edge27" class="edge"><title>Node25&#45;&gt;Node26</title>
<path fill="none" stroke="midnightblue" d="M510.469,-211C524.68,-211 539.423,-211 553.392,-211"/>
<polygon fill="midnightblue" stroke="midnightblue" points="510.233,-207.5 500.233,-211 510.233,-214.5 510.233,-207.5"/>
</g>
<!-- Node27 -->
<g id="node27" class="node"><title>Node27</title>
<g id="a_node27"><a xlink:href="classVoxel_1_1TI_1_1VoxelDCamera.xhtml#ae0706724a5ebbb978d41fb2633af5040" target="_top" xlink:title="Voxel::TI::VoxelDCamera\l::_initStartParams">
<polygon fill="none" stroke="black" points="560.5,-147 560.5,-177 689.5,-177 689.5,-147 560.5,-147"/>
<text text-anchor="start" x="568.5" y="-165" font-family="Helvetica,sans-Serif" font-size="10.00">Voxel::TI::VoxelDCamera</text>
<text text-anchor="middle" x="625" y="-154" font-family="Helvetica,sans-Serif" font-size="10.00">::_initStartParams</text>
</a>
</g>
</g>
<!-- Node25&#45;&gt;Node27 -->
<g id="edge28" class="edge"><title>Node25&#45;&gt;Node27</title>
<path fill="none" stroke="midnightblue" d="M500.767,-193.45C521.851,-188.069 544.845,-182.201 565.2,-177.006"/>
<polygon fill="midnightblue" stroke="midnightblue" points="499.735,-190.101 490.911,-195.965 501.466,-196.884 499.735,-190.101"/>
</g>
</g>
</svg>
