<?xml version="1.0" encoding="UTF-8" standalone="no"?>
<!DOCTYPE svg PUBLIC "-//W3C//DTD SVG 1.1//EN"
 "http://www.w3.org/Graphics/SVG/1.1/DTD/svg11.dtd">
<!-- Generated by graphviz version 2.36.0 (20140111.2315)
 -->
<!-- Title: Voxel::TI::HaddockCDKCamera::_setStreamerFrameSize Pages: 1 -->
<svg width="662pt" height="126pt"
 viewBox="0.00 0.00 662.00 126.00" xmlns="http://www.w3.org/2000/svg" xmlns:xlink="http://www.w3.org/1999/xlink">
<g id="graph0" class="graph" transform="scale(1 1) rotate(0) translate(4 122)">
<title>Voxel::TI::HaddockCDKCamera::_setStreamerFrameSize</title>
<!-- Node1 -->
<g id="node1" class="node"><title>Node1</title>
<polygon fill="#bfbfbf" stroke="black" points="0,-49 0,-79 158,-79 158,-49 0,-49"/>
<text text-anchor="start" x="8" y="-67" font-family="Helvetica,sans-Serif" font-size="10.00">Voxel::TI::HaddockCDKCamera</text>
<text text-anchor="middle" x="79" y="-56" font-family="Helvetica,sans-Serif" font-size="10.00">::_setStreamerFrameSize</text>
</g>
<!-- Node2 -->
<g id="node2" class="node"><title>Node2</title>
<g id="a_node2"><a xlink:href="classVoxel_1_1DepthCamera.xhtml#ac850b3829f41e647686610c283197ea6" target="_top" xlink:title="Voxel::DepthCamera\l::_get">
<polygon fill="none" stroke="black" points="358,-71 358,-101 466,-101 466,-71 358,-71"/>
<text text-anchor="start" x="366" y="-89" font-family="Helvetica,sans-Serif" font-size="10.00">Voxel::DepthCamera</text>
<text text-anchor="middle" x="412" y="-78" font-family="Helvetica,sans-Serif" font-size="10.00">::_get</text>
</a>
</g>
</g>
<!-- Node1&#45;&gt;Node2 -->
<g id="edge1" class="edge"><title>Node1&#45;&gt;Node2</title>
<path fill="none" stroke="midnightblue" d="M139.977,-79.0604C157.294,-82.7448 176.297,-86.1568 194,-88 250.583,-93.8915 265.115,-88.6391 322,-88 330.331,-87.9064 339.099,-87.7635 347.752,-87.5963"/>
<polygon fill="midnightblue" stroke="midnightblue" points="347.897,-91.0942 357.823,-87.3903 347.754,-84.0957 347.897,-91.0942"/>
</g>
<!-- Node5 -->
<g id="node5" class="node"><title>Node5</title>
<g id="a_node5"><a xlink:href="classVoxel_1_1TI_1_1ToFCamera.xhtml#a53e0fb4c6f4d4b9ac37b6f1ca763a104" target="_top" xlink:title="Voxel::TI::ToFCamera\l::_getToFFrameType">
<polygon fill="none" stroke="black" points="201,-49 201,-79 315,-79 315,-49 201,-49"/>
<text text-anchor="start" x="209" y="-67" font-family="Helvetica,sans-Serif" font-size="10.00">Voxel::TI::ToFCamera</text>
<text text-anchor="middle" x="258" y="-56" font-family="Helvetica,sans-Serif" font-size="10.00">::_getToFFrameType</text>
</a>
</g>
</g>
<!-- Node1&#45;&gt;Node5 -->
<g id="edge4" class="edge"><title>Node1&#45;&gt;Node5</title>
<path fill="none" stroke="midnightblue" d="M158.15,-64C169.028,-64 180.117,-64 190.749,-64"/>
<polygon fill="midnightblue" stroke="midnightblue" points="190.78,-67.5001 200.78,-64 190.779,-60.5001 190.78,-67.5001"/>
</g>
<!-- Node6 -->
<g id="node6" class="node"><title>Node6</title>
<g id="a_node6"><a xlink:href="classVoxel_1_1USBBulkStreamer.xhtml#a55df2d845b54f4e800e4e79ebeb37cbd" target="_top" xlink:title="Voxel::USBBulkStreamer\l::setBufferSize">
<polygon fill="none" stroke="black" points="194,-0 194,-30 322,-30 322,-0 194,-0"/>
<text text-anchor="start" x="202" y="-18" font-family="Helvetica,sans-Serif" font-size="10.00">Voxel::USBBulkStreamer</text>
<text text-anchor="middle" x="258" y="-7" font-family="Helvetica,sans-Serif" font-size="10.00">::setBufferSize</text>
</a>
</g>
</g>
<!-- Node1&#45;&gt;Node6 -->
<g id="edge6" class="edge"><title>Node1&#45;&gt;Node6</title>
<path fill="none" stroke="midnightblue" d="M134.55,-48.8986C152.974,-43.7981 173.712,-38.0571 192.812,-32.7695"/>
<polygon fill="midnightblue" stroke="midnightblue" points="193.926,-36.0928 202.63,-30.0516 192.059,-29.3465 193.926,-36.0928"/>
</g>
<!-- Node3 -->
<g id="node3" class="node"><title>Node3</title>
<g id="a_node3"><a xlink:href="classVoxel_1_1ParameterTemplate.xhtml#afa8896eaffbd2b87d1482c0967a0fe1d" target="_top" xlink:title="Voxel::ParameterTemplate::get">
<polygon fill="none" stroke="black" points="502,-98.5 502,-117.5 654,-117.5 654,-98.5 502,-98.5"/>
<text text-anchor="middle" x="578" y="-105.5" font-family="Helvetica,sans-Serif" font-size="10.00">Voxel::ParameterTemplate::get</text>
</a>
</g>
</g>
<!-- Node2&#45;&gt;Node3 -->
<g id="edge2" class="edge"><title>Node2&#45;&gt;Node3</title>
<path fill="none" stroke="midnightblue" d="M466.246,-93.1428C475.786,-94.4225 485.921,-95.782 496.034,-97.1387"/>
<polygon fill="midnightblue" stroke="midnightblue" points="495.741,-100.631 506.118,-98.4914 496.672,-93.6929 495.741,-100.631"/>
</g>
<!-- Node4 -->
<g id="node4" class="node"><title>Node4</title>
<g id="a_node4"><a xlink:href="classVoxel_1_1DepthCamera.xhtml#ae3d6fcc6d4a20d1ad2de809ad65ecc34" target="_top" xlink:title="Voxel::DepthCamera\l::name">
<polygon fill="none" stroke="black" points="524,-49 524,-79 632,-79 632,-49 524,-49"/>
<text text-anchor="start" x="532" y="-67" font-family="Helvetica,sans-Serif" font-size="10.00">Voxel::DepthCamera</text>
<text text-anchor="middle" x="578" y="-56" font-family="Helvetica,sans-Serif" font-size="10.00">::name</text>
</a>
</g>
</g>
<!-- Node2&#45;&gt;Node4 -->
<g id="edge3" class="edge"><title>Node2&#45;&gt;Node4</title>
<path fill="none" stroke="midnightblue" d="M466.246,-78.8572C481.361,-76.8297 497.967,-74.6019 513.619,-72.5024"/>
<polygon fill="midnightblue" stroke="midnightblue" points="514.295,-75.9431 523.741,-71.1446 513.364,-69.0053 514.295,-75.9431"/>
</g>
<!-- Node5&#45;&gt;Node2 -->
<g id="edge5" class="edge"><title>Node5&#45;&gt;Node2</title>
<path fill="none" stroke="midnightblue" d="M315.167,-72.1295C325.742,-73.66 336.867,-75.2702 347.643,-76.8299"/>
<polygon fill="midnightblue" stroke="midnightblue" points="347.44,-80.337 357.839,-78.3056 348.443,-73.4092 347.44,-80.337"/>
</g>
</g>
</svg>
