<?xml version="1.0" encoding="UTF-8" standalone="no"?>
<!DOCTYPE svg PUBLIC "-//W3C//DTD SVG 1.1//EN"
 "http://www.w3.org/Graphics/SVG/1.1/DTD/svg11.dtd">
<!-- Generated by graphviz version 2.36.0 (20140111.2315)
 -->
<!-- Title: ELFIO::elfio::layout_segments_and_their_sections Pages: 1 -->
<svg width="662pt" height="256pt"
 viewBox="0.00 0.00 662.00 256.00" xmlns="http://www.w3.org/2000/svg" xmlns:xlink="http://www.w3.org/1999/xlink">
<g id="graph0" class="graph" transform="scale(1 1) rotate(0) translate(4 252)">
<title>ELFIO::elfio::layout_segments_and_their_sections</title>
<!-- Node1 -->
<g id="node1" class="node"><title>Node1</title>
<polygon fill="#bfbfbf" stroke="black" points="0,-98 0,-128 152,-128 152,-98 0,-98"/>
<text text-anchor="start" x="8" y="-116" font-family="Helvetica,sans-Serif" font-size="10.00">ELFIO::elfio::layout</text>
<text text-anchor="middle" x="76" y="-105" font-family="Helvetica,sans-Serif" font-size="10.00">_segments_and_their_sections</text>
</g>
<!-- Node2 -->
<g id="node2" class="node"><title>Node2</title>
<g id="a_node2"><a xlink:href="classELFIO_1_1elfio.xhtml#a6ae5a2aeca80ad4ddac396673e3fa745" target="_top" xlink:title="ELFIO::elfio::get_ordered\l_segments">
<polygon fill="none" stroke="black" points="188,-196 188,-226 314,-226 314,-196 188,-196"/>
<text text-anchor="start" x="196" y="-214" font-family="Helvetica,sans-Serif" font-size="10.00">ELFIO::elfio::get_ordered</text>
<text text-anchor="middle" x="251" y="-203" font-family="Helvetica,sans-Serif" font-size="10.00">_segments</text>
</a>
</g>
</g>
<!-- Node1&#45;&gt;Node2 -->
<g id="edge1" class="edge"><title>Node1&#45;&gt;Node2</title>
<path fill="none" stroke="midnightblue" d="M97.5189,-128.286C119.243,-144.035 154.901,-168.662 188,-186 191.759,-187.969 195.709,-189.885 199.719,-191.724"/>
<polygon fill="midnightblue" stroke="midnightblue" points="198.558,-195.038 209.121,-195.862 201.378,-188.631 198.558,-195.038"/>
</g>
<!-- Node6 -->
<g id="node6" class="node"><title>Node6</title>
<g id="a_node6"><a xlink:href="classELFIO_1_1segment.xhtml#a79bbf4effbd428b14bab843251390034" target="_top" xlink:title="ELFIO::segment::get\l_section_index_at">
<polygon fill="none" stroke="black" points="197,-147 197,-177 305,-177 305,-147 197,-147"/>
<text text-anchor="start" x="205" y="-165" font-family="Helvetica,sans-Serif" font-size="10.00">ELFIO::segment::get</text>
<text text-anchor="middle" x="251" y="-154" font-family="Helvetica,sans-Serif" font-size="10.00">_section_index_at</text>
</a>
</g>
</g>
<!-- Node1&#45;&gt;Node6 -->
<g id="edge5" class="edge"><title>Node1&#45;&gt;Node6</title>
<path fill="none" stroke="midnightblue" d="M130.317,-128.101C148.242,-133.179 168.408,-138.89 187.006,-144.158"/>
<polygon fill="midnightblue" stroke="midnightblue" points="186.283,-147.591 196.859,-146.948 188.191,-140.856 186.283,-147.591"/>
</g>
<!-- Node7 -->
<g id="node7" class="node"><title>Node7</title>
<g id="a_node7"><a xlink:href="classELFIO_1_1segment.xhtml#a33d8e5585047fcf3383e54d53b40e777" target="_top" xlink:title="ELFIO::segment::get\l_sections_num">
<polygon fill="none" stroke="black" points="197,-98 197,-128 305,-128 305,-98 197,-98"/>
<text text-anchor="start" x="205" y="-116" font-family="Helvetica,sans-Serif" font-size="10.00">ELFIO::segment::get</text>
<text text-anchor="middle" x="251" y="-105" font-family="Helvetica,sans-Serif" font-size="10.00">_sections_num</text>
</a>
</g>
</g>
<!-- Node1&#45;&gt;Node7 -->
<g id="edge6" class="edge"><title>Node1&#45;&gt;Node7</title>
<path fill="none" stroke="midnightblue" d="M152.126,-113C163.645,-113 175.438,-113 186.669,-113"/>
<polygon fill="midnightblue" stroke="midnightblue" points="186.801,-116.5 196.801,-113 186.801,-109.5 186.801,-116.5"/>
</g>
<!-- Node8 -->
<g id="node8" class="node"><title>Node8</title>
<g id="a_node8"><a xlink:href="classELFIO_1_1section.xhtml#ae1c5dda5638cb9baa60775ffc30bff66" target="_top" xlink:title="ELFIO::section::is\l_address_initialized">
<polygon fill="none" stroke="black" points="200,-49 200,-79 302,-79 302,-49 200,-49"/>
<text text-anchor="start" x="208" y="-67" font-family="Helvetica,sans-Serif" font-size="10.00">ELFIO::section::is</text>
<text text-anchor="middle" x="251" y="-56" font-family="Helvetica,sans-Serif" font-size="10.00">_address_initialized</text>
</a>
</g>
</g>
<!-- Node1&#45;&gt;Node8 -->
<g id="edge7" class="edge"><title>Node1&#45;&gt;Node8</title>
<path fill="none" stroke="midnightblue" d="M130.317,-97.8986C149.257,-92.5341 170.698,-86.4612 190.148,-80.9524"/>
<polygon fill="midnightblue" stroke="midnightblue" points="191.146,-84.3075 199.813,-78.2147 189.238,-77.5724 191.146,-84.3075"/>
</g>
<!-- Node9 -->
<g id="node9" class="node"><title>Node9</title>
<g id="a_node9"><a xlink:href="classELFIO_1_1elfio_1_1Sections.xhtml#a5c66bdb3ab662752c4968d8cd1a1a490" target="_top" xlink:title="ELFIO::elfio::Sections\l::size">
<polygon fill="none" stroke="black" points="194.5,-0 194.5,-30 307.5,-30 307.5,-0 194.5,-0"/>
<text text-anchor="start" x="202.5" y="-18" font-family="Helvetica,sans-Serif" font-size="10.00">ELFIO::elfio::Sections</text>
<text text-anchor="middle" x="251" y="-7" font-family="Helvetica,sans-Serif" font-size="10.00">::size</text>
</a>
</g>
</g>
<!-- Node1&#45;&gt;Node9 -->
<g id="edge8" class="edge"><title>Node1&#45;&gt;Node9</title>
<path fill="none" stroke="midnightblue" d="M97.5189,-97.7136C119.243,-81.9652 154.901,-57.3376 188,-40 191.759,-38.031 195.709,-36.1145 199.719,-34.2756"/>
<polygon fill="midnightblue" stroke="midnightblue" points="201.378,-37.3693 209.121,-30.1377 198.558,-30.9623 201.378,-37.3693"/>
</g>
<!-- Node3 -->
<g id="node3" class="node"><title>Node3</title>
<g id="a_node3"><a xlink:href="classELFIO_1_1elfio.xhtml#a50a52bf4075a0c0a1373a4ecea939437" target="_top" xlink:title="ELFIO::elfio::is_subsequence_of">
<polygon fill="none" stroke="black" points="350.5,-223.5 350.5,-242.5 509.5,-242.5 509.5,-223.5 350.5,-223.5"/>
<text text-anchor="middle" x="430" y="-230.5" font-family="Helvetica,sans-Serif" font-size="10.00">ELFIO::elfio::is_subsequence_of</text>
</a>
</g>
</g>
<!-- Node2&#45;&gt;Node3 -->
<g id="edge2" class="edge"><title>Node2&#45;&gt;Node3</title>
<path fill="none" stroke="midnightblue" d="M314.404,-218.756C323.394,-219.874 332.779,-221.04 342.139,-222.204"/>
<polygon fill="midnightblue" stroke="midnightblue" points="341.912,-225.702 352.267,-223.463 342.775,-218.756 341.912,-225.702"/>
</g>
<!-- Node5 -->
<g id="node5" class="node"><title>Node5</title>
<g id="a_node5"><a xlink:href="classELFIO_1_1elfio_1_1Segments.xhtml#a18257fed02ff029ccca28e70b7eabfa6" target="_top" xlink:title="ELFIO::elfio::Segments\l::size">
<polygon fill="none" stroke="black" points="370.5,-174 370.5,-204 489.5,-204 489.5,-174 370.5,-174"/>
<text text-anchor="start" x="378.5" y="-192" font-family="Helvetica,sans-Serif" font-size="10.00">ELFIO::elfio::Segments</text>
<text text-anchor="middle" x="430" y="-181" font-family="Helvetica,sans-Serif" font-size="10.00">::size</text>
</a>
</g>
</g>
<!-- Node2&#45;&gt;Node5 -->
<g id="edge4" class="edge"><title>Node2&#45;&gt;Node5</title>
<path fill="none" stroke="midnightblue" d="M314.404,-203.244C329.202,-201.404 345.07,-199.432 360.139,-197.559"/>
<polygon fill="midnightblue" stroke="midnightblue" points="360.928,-200.988 370.42,-196.281 360.064,-194.041 360.928,-200.988"/>
</g>
<!-- Node4 -->
<g id="node4" class="node"><title>Node4</title>
<g id="a_node4"><a xlink:href="classELFIO_1_1segment.xhtml#ab488583facc3d0f4f79911457c6e073f" target="_top" xlink:title="ELFIO::segment::get\l_sections">
<polygon fill="none" stroke="black" points="546,-218 546,-248 654,-248 654,-218 546,-218"/>
<text text-anchor="start" x="554" y="-236" font-family="Helvetica,sans-Serif" font-size="10.00">ELFIO::segment::get</text>
<text text-anchor="middle" x="600" y="-225" font-family="Helvetica,sans-Serif" font-size="10.00">_sections</text>
</a>
</g>
</g>
<!-- Node3&#45;&gt;Node4 -->
<g id="edge3" class="edge"><title>Node3&#45;&gt;Node4</title>
<path fill="none" stroke="midnightblue" d="M509.589,-233C518.332,-233 527.153,-233 535.672,-233"/>
<polygon fill="midnightblue" stroke="midnightblue" points="535.887,-236.5 545.887,-233 535.887,-229.5 535.887,-236.5"/>
</g>
</g>
</svg>
