<?xml version="1.0" encoding="UTF-8" standalone="no"?>
<!DOCTYPE svg PUBLIC "-//W3C//DTD SVG 1.1//EN"
 "http://www.w3.org/Graphics/SVG/1.1/DTD/svg11.dtd">
<!-- Generated by graphviz version 2.36.0 (20140111.2315)
 -->
<!-- Title: ELFIO::elfio::save Pages: 1 -->
<!--zoomable 490 -->
<svg id="main" version="1.1" xmlns="http://www.w3.org/2000/svg" xmlns:xlink="http://www.w3.org/1999/xlink" xml:space="preserve" onload="init(evt)">
<style type="text/css"><![CDATA[
.edge:hover path { stroke: red; }
.edge:hover polygon { stroke: red; fill: red; }
]]></style>
<script type="text/javascript"><![CDATA[
var edges = document.getElementsByTagName('g');
if (edges && edges.length) {
  for (var i=0;i<edges.length;i++) {
    if (edges[i].id.substr(0,4)=='edge') {
      edges[i].setAttribute('class','edge');
    }
  }
}
]]></script>
        <defs>
                <circle id="rim" cx="0" cy="0" r="7"/>
                <circle id="rim2" cx="0" cy="0" r="3.5"/>
                <g id="zoomPlus">
                        <use xlink:href="#rim" fill="#404040">
                                <set attributeName="fill" to="#808080" begin="zoomplus.mouseover" end="zoomplus.mouseout"/>
                        </use>
                        <path d="M-4,0h8M0,-4v8" fill="none" stroke="white" stroke-width="1.5" pointer-events="none"/>
                </g>
                <g id="zoomMin">
                        <use xlink:href="#rim" fill="#404040">
                                <set attributeName="fill" to="#808080" begin="zoomminus.mouseover" end="zoomminus.mouseout"/>
                        </use>
                        <path d="M-4,0h8" fill="none" stroke="white" stroke-width="1.5" pointer-events="none"/>
                </g>
                <g id="dirArrow">
                        <path fill="none" stroke="white" stroke-width="1.5" d="M0,-3.0v7 M-2.5,-0.5L0,-3.0L2.5,-0.5"/>
                </g>
               <g id="resetDef">
                       <use xlink:href="#rim2" fill="#404040">
                               <set attributeName="fill" to="#808080" begin="reset.mouseover" end="reset.mouseout"/>
                       </use>
               </g>
        </defs>

<script type="text/javascript">
var viewWidth = 794;
var viewHeight = 490;
var sectionId = 'dynsection-29';
</script>
<script xlink:href="svgpan.js"/>
<svg id="graph" class="graph">
<g id="viewport">
<title>ELFIO::elfio::save</title>
<!-- Node1 -->
<g id="node1" class="node"><title>Node1</title>
<polygon fill="#bfbfbf" stroke="black" points="0,-183.5 0,-202.5 96,-202.5 96,-183.5 0,-183.5"/>
<text text-anchor="middle" x="48" y="-190.5" font-family="Helvetica,sans-Serif" font-size="10.00">ELFIO::elfio::save</text>
</g>
<!-- Node2 -->
<g id="node2" class="node"><title>Node2</title>
<g id="a_node2"><a xlink:href="classELFIO_1_1elfio.xhtml#a54622db6125c18f37291c063b2dacb4b" target="_top" xlink:title="ELFIO::elfio::layout\l_section_table">
<polygon fill="none" stroke="black" points="157.5,-452 157.5,-482 258.5,-482 258.5,-452 157.5,-452"/>
<text text-anchor="start" x="165.5" y="-470" font-family="Helvetica,sans-Serif" font-size="10.00">ELFIO::elfio::layout</text>
<text text-anchor="middle" x="208" y="-459" font-family="Helvetica,sans-Serif" font-size="10.00">_section_table</text>
</a>
</g>
</g>
<!-- Node1&#45;&gt;Node2 -->
<g id="edge1" class="edge"><title>Node1&#45;&gt;Node2</title>
<path fill="none" stroke="midnightblue" d="M49.2781,-202.679C50.8609,-239.378 61.4358,-371.436 132,-442 136.586,-446.586 142.034,-450.33 147.869,-453.388"/>
<polygon fill="midnightblue" stroke="midnightblue" points="146.737,-456.717 157.29,-457.65 149.622,-450.339 146.737,-456.717"/>
</g>
<!-- Node3 -->
<g id="node3" class="node"><title>Node3</title>
<g id="a_node3"><a xlink:href="classELFIO_1_1elfio.xhtml#a4fc135345793b514b770826a4f276267" target="_top" xlink:title="ELFIO::elfio::layout\l_sections_without_segments">
<polygon fill="none" stroke="black" points="136.5,-403 136.5,-433 279.5,-433 279.5,-403 136.5,-403"/>
<text text-anchor="start" x="144.5" y="-421" font-family="Helvetica,sans-Serif" font-size="10.00">ELFIO::elfio::layout</text>
<text text-anchor="middle" x="208" y="-410" font-family="Helvetica,sans-Serif" font-size="10.00">_sections_without_segments</text>
</a>
</g>
</g>
<!-- Node1&#45;&gt;Node3 -->
<g id="edge2" class="edge"><title>Node1&#45;&gt;Node3</title>
<path fill="none" stroke="midnightblue" d="M50.4244,-202.578C55.5326,-233.668 75.7176,-332.937 132,-388 135.787,-391.705 140.09,-394.97 144.674,-397.844"/>
<polygon fill="midnightblue" stroke="midnightblue" points="143.333,-401.103 153.774,-402.902 146.734,-394.985 143.333,-401.103"/>
</g>
<!-- Node5 -->
<g id="node5" class="node"><title>Node5</title>
<g id="a_node5"><a xlink:href="classELFIO_1_1elfio_1_1Segments.xhtml#a18257fed02ff029ccca28e70b7eabfa6" target="_top" xlink:title="ELFIO::elfio::Segments\l::size">
<polygon fill="none" stroke="black" points="502.5,-359 502.5,-389 621.5,-389 621.5,-359 502.5,-359"/>
<text text-anchor="start" x="510.5" y="-377" font-family="Helvetica,sans-Serif" font-size="10.00">ELFIO::elfio::Segments</text>
<text text-anchor="middle" x="562" y="-366" font-family="Helvetica,sans-Serif" font-size="10.00">::size</text>
</a>
</g>
</g>
<!-- Node1&#45;&gt;Node5 -->
<g id="edge21" class="edge"><title>Node1&#45;&gt;Node5</title>
<path fill="none" stroke="midnightblue" d="M60.4714,-202.502C96.1637,-231.443 209.493,-318.671 320,-354 376.002,-371.904 442.851,-376.205 491.922,-376.427"/>
<polygon fill="midnightblue" stroke="midnightblue" points="492.117,-379.927 502.113,-376.416 492.11,-372.927 492.117,-379.927"/>
</g>
<!-- Node6 -->
<g id="node6" class="node"><title>Node6</title>
<g id="a_node6"><a xlink:href="classELFIO_1_1elfio.xhtml#afeb689c3a26b7c317e89f26a6390fce2" target="_top" xlink:title="ELFIO::elfio::layout\l_segments_and_their_sections">
<polygon fill="none" stroke="black" points="132,-201 132,-231 284,-231 284,-201 132,-201"/>
<text text-anchor="start" x="140" y="-219" font-family="Helvetica,sans-Serif" font-size="10.00">ELFIO::elfio::layout</text>
<text text-anchor="middle" x="208" y="-208" font-family="Helvetica,sans-Serif" font-size="10.00">_segments_and_their_sections</text>
</a>
</g>
</g>
<!-- Node1&#45;&gt;Node6 -->
<g id="edge5" class="edge"><title>Node1&#45;&gt;Node6</title>
<path fill="none" stroke="midnightblue" d="M96.4052,-199.901C104.529,-201.083 113.185,-202.343 121.942,-203.618"/>
<polygon fill="midnightblue" stroke="midnightblue" points="121.448,-207.083 131.848,-205.06 122.457,-200.156 121.448,-207.083"/>
</g>
<!-- Node13 -->
<g id="node13" class="node"><title>Node13</title>
<g id="a_node13"><a xlink:href="classELFIO_1_1elfio_1_1Sections.xhtml#a5c66bdb3ab662752c4968d8cd1a1a490" target="_top" xlink:title="ELFIO::elfio::Sections\l::size">
<polygon fill="none" stroke="black" points="326.5,-119 326.5,-149 439.5,-149 439.5,-119 326.5,-119"/>
<text text-anchor="start" x="334.5" y="-137" font-family="Helvetica,sans-Serif" font-size="10.00">ELFIO::elfio::Sections</text>
<text text-anchor="middle" x="383" y="-126" font-family="Helvetica,sans-Serif" font-size="10.00">::size</text>
</a>
</g>
</g>
<!-- Node1&#45;&gt;Node13 -->
<g id="edge20" class="edge"><title>Node1&#45;&gt;Node13</title>
<path fill="none" stroke="midnightblue" d="M96.0045,-184.672C153.524,-174.481 251.258,-157.165 316.221,-145.655"/>
<polygon fill="midnightblue" stroke="midnightblue" points="317.118,-149.05 326.354,-143.859 315.897,-142.158 317.118,-149.05"/>
</g>
<!-- Node14 -->
<g id="node14" class="node"><title>Node14</title>
<g id="a_node14"><a xlink:href="classELFIO_1_1elfio.xhtml#a4809badae60c172cad0ac9c14c4c8175" target="_top" xlink:title="ELFIO::elfio::save\l_header">
<polygon fill="none" stroke="black" points="160,-110 160,-140 256,-140 256,-110 160,-110"/>
<text text-anchor="start" x="168" y="-128" font-family="Helvetica,sans-Serif" font-size="10.00">ELFIO::elfio::save</text>
<text text-anchor="middle" x="208" y="-117" font-family="Helvetica,sans-Serif" font-size="10.00">_header</text>
</a>
</g>
</g>
<!-- Node1&#45;&gt;Node14 -->
<g id="edge14" class="edge"><title>Node1&#45;&gt;Node14</title>
<path fill="none" stroke="midnightblue" d="M70.8289,-183.49C87.5586,-176.211 111.223,-165.938 132,-157 141.756,-152.803 152.235,-148.318 162.176,-144.073"/>
<polygon fill="midnightblue" stroke="midnightblue" points="163.676,-147.239 171.5,-140.095 160.929,-140.8 163.676,-147.239"/>
</g>
<!-- Node16 -->
<g id="node16" class="node"><title>Node16</title>
<g id="a_node16"><a xlink:href="classELFIO_1_1elfio.xhtml#a02a2dcf9659572a104c874c854f1ab3d" target="_top" xlink:title="ELFIO::elfio::save\l_sections">
<polygon fill="none" stroke="black" points="160,-57 160,-87 256,-87 256,-57 160,-57"/>
<text text-anchor="start" x="168" y="-75" font-family="Helvetica,sans-Serif" font-size="10.00">ELFIO::elfio::save</text>
<text text-anchor="middle" x="208" y="-64" font-family="Helvetica,sans-Serif" font-size="10.00">_sections</text>
</a>
</g>
</g>
<!-- Node1&#45;&gt;Node16 -->
<g id="edge16" class="edge"><title>Node1&#45;&gt;Node16</title>
<path fill="none" stroke="midnightblue" d="M55.1486,-183.447C67.5479,-164.886 97.3433,-123.696 132,-100 137.627,-96.1524 143.851,-92.7514 150.237,-89.767"/>
<polygon fill="midnightblue" stroke="midnightblue" points="151.87,-92.8737 159.657,-85.6892 149.09,-86.4497 151.87,-92.8737"/>
</g>
<!-- Node18 -->
<g id="node18" class="node"><title>Node18</title>
<g id="a_node18"><a xlink:href="classELFIO_1_1elfio.xhtml#ae4681b3161b1cfa4ed545eb8181887b3" target="_top" xlink:title="ELFIO::elfio::save\l_segments">
<polygon fill="none" stroke="black" points="160,-0 160,-30 256,-30 256,-0 160,-0"/>
<text text-anchor="start" x="168" y="-18" font-family="Helvetica,sans-Serif" font-size="10.00">ELFIO::elfio::save</text>
<text text-anchor="middle" x="208" y="-7" font-family="Helvetica,sans-Serif" font-size="10.00">_segments</text>
</a>
</g>
</g>
<!-- Node1&#45;&gt;Node18 -->
<g id="edge18" class="edge"><title>Node1&#45;&gt;Node18</title>
<path fill="none" stroke="midnightblue" d="M52.009,-183.418C60.4938,-157.841 86.9679,-87.1845 132,-47 137.519,-42.0752 143.909,-37.8277 150.586,-34.1861"/>
<polygon fill="midnightblue" stroke="midnightblue" points="152.422,-37.1816 159.812,-29.5892 149.3,-30.9162 152.422,-37.1816"/>
</g>
<!-- Node4 -->
<g id="node4" class="node"><title>Node4</title>
<g id="a_node4"><a xlink:href="classELFIO_1_1elfio.xhtml#addb0a18fc070853b97cc3a3a6b51391f" target="_top" xlink:title="ELFIO::elfio::is_section\l_without_segment">
<polygon fill="none" stroke="black" points="323.5,-403 323.5,-433 442.5,-433 442.5,-403 323.5,-403"/>
<text text-anchor="start" x="331.5" y="-421" font-family="Helvetica,sans-Serif" font-size="10.00">ELFIO::elfio::is_section</text>
<text text-anchor="middle" x="383" y="-410" font-family="Helvetica,sans-Serif" font-size="10.00">_without_segment</text>
</a>
</g>
</g>
<!-- Node3&#45;&gt;Node4 -->
<g id="edge3" class="edge"><title>Node3&#45;&gt;Node4</title>
<path fill="none" stroke="midnightblue" d="M279.865,-418C290.826,-418 302.133,-418 313.05,-418"/>
<polygon fill="midnightblue" stroke="midnightblue" points="313.375,-421.5 323.374,-418 313.374,-414.5 313.375,-421.5"/>
</g>
<!-- Node4&#45;&gt;Node5 -->
<g id="edge4" class="edge"><title>Node4&#45;&gt;Node5</title>
<path fill="none" stroke="midnightblue" d="M442.938,-403.349C458.762,-399.415 476.009,-395.128 492.312,-391.075"/>
<polygon fill="midnightblue" stroke="midnightblue" points="493.459,-394.397 502.319,-388.587 491.77,-387.603 493.459,-394.397"/>
</g>
<!-- Node7 -->
<g id="node7" class="node"><title>Node7</title>
<g id="a_node7"><a xlink:href="classELFIO_1_1elfio.xhtml#a6ae5a2aeca80ad4ddac396673e3fa745" target="_top" xlink:title="ELFIO::elfio::get_ordered\l_segments">
<polygon fill="none" stroke="black" points="320,-315 320,-345 446,-345 446,-315 320,-315"/>
<text text-anchor="start" x="328" y="-333" font-family="Helvetica,sans-Serif" font-size="10.00">ELFIO::elfio::get_ordered</text>
<text text-anchor="middle" x="383" y="-322" font-family="Helvetica,sans-Serif" font-size="10.00">_segments</text>
</a>
</g>
</g>
<!-- Node6&#45;&gt;Node7 -->
<g id="edge6" class="edge"><title>Node6&#45;&gt;Node7</title>
<path fill="none" stroke="midnightblue" d="M224.808,-231.193C245.395,-250.358 283.121,-283.414 320,-305 323.396,-306.988 326.98,-308.888 330.643,-310.688"/>
<polygon fill="midnightblue" stroke="midnightblue" points="329.302,-313.924 339.847,-314.951 332.244,-307.572 329.302,-313.924"/>
</g>
<!-- Node10 -->
<g id="node10" class="node"><title>Node10</title>
<g id="a_node10"><a xlink:href="classELFIO_1_1segment.xhtml#a79bbf4effbd428b14bab843251390034" target="_top" xlink:title="ELFIO::segment::get\l_section_index_at">
<polygon fill="none" stroke="black" points="329,-266 329,-296 437,-296 437,-266 329,-266"/>
<text text-anchor="start" x="337" y="-284" font-family="Helvetica,sans-Serif" font-size="10.00">ELFIO::segment::get</text>
<text text-anchor="middle" x="383" y="-273" font-family="Helvetica,sans-Serif" font-size="10.00">_section_index_at</text>
</a>
</g>
</g>
<!-- Node6&#45;&gt;Node10 -->
<g id="edge10" class="edge"><title>Node6&#45;&gt;Node10</title>
<path fill="none" stroke="midnightblue" d="M249.125,-231.076C273.927,-240.395 305.952,-252.427 332.348,-262.345"/>
<polygon fill="midnightblue" stroke="midnightblue" points="331.202,-265.653 341.794,-265.894 333.664,-259.1 331.202,-265.653"/>
</g>
<!-- Node11 -->
<g id="node11" class="node"><title>Node11</title>
<g id="a_node11"><a xlink:href="classELFIO_1_1segment.xhtml#a33d8e5585047fcf3383e54d53b40e777" target="_top" xlink:title="ELFIO::segment::get\l_sections_num">
<polygon fill="none" stroke="black" points="329,-217 329,-247 437,-247 437,-217 329,-217"/>
<text text-anchor="start" x="337" y="-235" font-family="Helvetica,sans-Serif" font-size="10.00">ELFIO::segment::get</text>
<text text-anchor="middle" x="383" y="-224" font-family="Helvetica,sans-Serif" font-size="10.00">_sections_num</text>
</a>
</g>
</g>
<!-- Node6&#45;&gt;Node11 -->
<g id="edge11" class="edge"><title>Node6&#45;&gt;Node11</title>
<path fill="none" stroke="midnightblue" d="M284.126,-222.948C295.645,-224.013 307.438,-225.104 318.669,-226.143"/>
<polygon fill="midnightblue" stroke="midnightblue" points="318.521,-229.644 328.801,-227.08 319.166,-222.674 318.521,-229.644"/>
</g>
<!-- Node12 -->
<g id="node12" class="node"><title>Node12</title>
<g id="a_node12"><a xlink:href="classELFIO_1_1section.xhtml#ae1c5dda5638cb9baa60775ffc30bff66" target="_top" xlink:title="ELFIO::section::is\l_address_initialized">
<polygon fill="none" stroke="black" points="332,-168 332,-198 434,-198 434,-168 332,-168"/>
<text text-anchor="start" x="340" y="-186" font-family="Helvetica,sans-Serif" font-size="10.00">ELFIO::section::is</text>
<text text-anchor="middle" x="383" y="-175" font-family="Helvetica,sans-Serif" font-size="10.00">_address_initialized</text>
</a>
</g>
</g>
<!-- Node6&#45;&gt;Node12 -->
<g id="edge12" class="edge"><title>Node6&#45;&gt;Node12</title>
<path fill="none" stroke="midnightblue" d="M284.126,-201.67C296.735,-199.264 309.673,-196.797 321.841,-194.475"/>
<polygon fill="midnightblue" stroke="midnightblue" points="322.691,-197.876 331.858,-192.565 321.38,-191 322.691,-197.876"/>
</g>
<!-- Node6&#45;&gt;Node13 -->
<g id="edge13" class="edge"><title>Node6&#45;&gt;Node13</title>
<path fill="none" stroke="midnightblue" d="M250.756,-200.917C261.829,-196.336 273.594,-190.927 284,-185 301.379,-175.102 302.51,-167.701 320,-158 323.019,-156.326 326.178,-154.715 329.404,-153.176"/>
<polygon fill="midnightblue" stroke="midnightblue" points="330.927,-156.329 338.612,-149.035 328.056,-149.945 330.927,-156.329"/>
</g>
<!-- Node7&#45;&gt;Node5 -->
<g id="edge9" class="edge"><title>Node7&#45;&gt;Node5</title>
<path fill="none" stroke="midnightblue" d="M444.418,-345.019C459.927,-348.875 476.719,-353.049 492.6,-356.997"/>
<polygon fill="midnightblue" stroke="midnightblue" points="491.802,-360.405 502.351,-359.42 493.49,-353.611 491.802,-360.405"/>
</g>
<!-- Node8 -->
<g id="node8" class="node"><title>Node8</title>
<g id="a_node8"><a xlink:href="classELFIO_1_1elfio.xhtml#a50a52bf4075a0c0a1373a4ecea939437" target="_top" xlink:title="ELFIO::elfio::is_subsequence_of">
<polygon fill="none" stroke="black" points="482.5,-320.5 482.5,-339.5 641.5,-339.5 641.5,-320.5 482.5,-320.5"/>
<text text-anchor="middle" x="562" y="-327.5" font-family="Helvetica,sans-Serif" font-size="10.00">ELFIO::elfio::is_subsequence_of</text>
</a>
</g>
</g>
<!-- Node7&#45;&gt;Node8 -->
<g id="edge7" class="edge"><title>Node7&#45;&gt;Node8</title>
<path fill="none" stroke="midnightblue" d="M446.404,-330C454.773,-330 463.485,-330 472.201,-330"/>
<polygon fill="midnightblue" stroke="midnightblue" points="472.414,-333.5 482.414,-330 472.414,-326.5 472.414,-333.5"/>
</g>
<!-- Node9 -->
<g id="node9" class="node"><title>Node9</title>
<g id="a_node9"><a xlink:href="classELFIO_1_1segment.xhtml#ab488583facc3d0f4f79911457c6e073f" target="_top" xlink:title="ELFIO::segment::get\l_sections">
<polygon fill="none" stroke="black" points="678,-315 678,-345 786,-345 786,-315 678,-315"/>
<text text-anchor="start" x="686" y="-333" font-family="Helvetica,sans-Serif" font-size="10.00">ELFIO::segment::get</text>
<text text-anchor="middle" x="732" y="-322" font-family="Helvetica,sans-Serif" font-size="10.00">_sections</text>
</a>
</g>
</g>
<!-- Node8&#45;&gt;Node9 -->
<g id="edge8" class="edge"><title>Node8&#45;&gt;Node9</title>
<path fill="none" stroke="midnightblue" d="M641.589,-330C650.332,-330 659.153,-330 667.672,-330"/>
<polygon fill="midnightblue" stroke="midnightblue" points="667.887,-333.5 677.887,-330 667.887,-326.5 667.887,-333.5"/>
</g>
<!-- Node15 -->
<g id="node15" class="node"><title>Node15</title>
<g id="a_node15"><a xlink:href="classELFIO_1_1elf__header.xhtml#a4ddc14a74b4d2e919ba300f88ea90af6" target="_top" xlink:title="ELFIO::elf_header::save">
<polygon fill="none" stroke="black" points="321.5,-80.5 321.5,-99.5 444.5,-99.5 444.5,-80.5 321.5,-80.5"/>
<text text-anchor="middle" x="383" y="-87.5" font-family="Helvetica,sans-Serif" font-size="10.00">ELFIO::elf_header::save</text>
</a>
</g>
</g>
<!-- Node14&#45;&gt;Node15 -->
<g id="edge15" class="edge"><title>Node14&#45;&gt;Node15</title>
<path fill="none" stroke="midnightblue" d="M256.273,-115.436C277.442,-111.153 302.587,-106.066 324.806,-101.571"/>
<polygon fill="midnightblue" stroke="midnightblue" points="325.677,-104.966 334.784,-99.5523 324.289,-98.1049 325.677,-104.966"/>
</g>
<!-- Node17 -->
<g id="node17" class="node"><title>Node17</title>
<g id="a_node17"><a xlink:href="classELFIO_1_1section.xhtml#a957d8a474005ba0177fae12a8b019d8a" target="_top" xlink:title="ELFIO::section::save">
<polygon fill="none" stroke="black" points="328,-42.5 328,-61.5 438,-61.5 438,-42.5 328,-42.5"/>
<text text-anchor="middle" x="383" y="-49.5" font-family="Helvetica,sans-Serif" font-size="10.00">ELFIO::section::save</text>
</a>
</g>
</g>
<!-- Node16&#45;&gt;Node17 -->
<g id="edge17" class="edge"><title>Node16&#45;&gt;Node17</title>
<path fill="none" stroke="midnightblue" d="M256.273,-66.5349C275.187,-64.3483 297.276,-61.7947 317.615,-59.4433"/>
<polygon fill="midnightblue" stroke="midnightblue" points="318.219,-62.8969 327.751,-58.2715 317.415,-55.9432 318.219,-62.8969"/>
</g>
<!-- Node19 -->
<g id="node19" class="node"><title>Node19</title>
<g id="a_node19"><a xlink:href="classELFIO_1_1segment.xhtml#a411eb1987c97609b98878c95b44c3f78" target="_top" xlink:title="ELFIO::segment::save">
<polygon fill="none" stroke="black" points="325,-4.5 325,-23.5 441,-23.5 441,-4.5 325,-4.5"/>
<text text-anchor="middle" x="383" y="-11.5" font-family="Helvetica,sans-Serif" font-size="10.00">ELFIO::segment::save</text>
</a>
</g>
</g>
<!-- Node18&#45;&gt;Node19 -->
<g id="edge19" class="edge"><title>Node18&#45;&gt;Node19</title>
<path fill="none" stroke="midnightblue" d="M256.273,-14.7267C274.334,-14.6223 295.29,-14.5012 314.853,-14.3881"/>
<polygon fill="midnightblue" stroke="midnightblue" points="314.954,-17.8877 324.934,-14.3299 314.914,-10.8878 314.954,-17.8877"/>
</g>
</g>
</svg>
        <g id="navigator" transform="translate(0 0)" fill="#404254">
                <rect fill="#f2f5e9" fill-opacity="0.5" stroke="#606060" stroke-width=".5" x="0" y="0" width="60" height="60"/>
                <use id="zoomplus" xlink:href="#zoomPlus" x="17" y="9" onmousedown="handleZoom(evt,'in')"/>
                <use id="zoomminus" xlink:href="#zoomMin" x="42" y="9" onmousedown="handleZoom(evt,'out')"/>
                <use id="reset" xlink:href="#resetDef" x="30" y="36" onmousedown="handleReset()"/>
                <g id="arrowUp" xlink:href="#dirArrow" transform="translate(30 24)" onmousedown="handlePan(0,-1)">
                  <use xlink:href="#rim" fill="#404040">
                        <set attributeName="fill" to="#808080" begin="arrowUp.mouseover" end="arrowUp.mouseout"/>
                  </use>
                  <path fill="none" stroke="white" stroke-width="1.5" d="M0,-3.0v7 M-2.5,-0.5L0,-3.0L2.5,-0.5"/>
                </g>
                <g id="arrowRight" xlink:href="#dirArrow" transform="rotate(90) translate(36 -43)" onmousedown="handlePan(1,0)">
                  <use xlink:href="#rim" fill="#404040">
                        <set attributeName="fill" to="#808080" begin="arrowRight.mouseover" end="arrowRight.mouseout"/>
                  </use>
                  <path fill="none" stroke="white" stroke-width="1.5" d="M0,-3.0v7 M-2.5,-0.5L0,-3.0L2.5,-0.5"/>
                </g>
                <g id="arrowDown" xlink:href="#dirArrow" transform="rotate(180) translate(-30 -48)" onmousedown="handlePan(0,1)">
                  <use xlink:href="#rim" fill="#404040">
                        <set attributeName="fill" to="#808080" begin="arrowDown.mouseover" end="arrowDown.mouseout"/>
                  </use>
                  <path fill="none" stroke="white" stroke-width="1.5" d="M0,-3.0v7 M-2.5,-0.5L0,-3.0L2.5,-0.5"/>
                </g>
                <g id="arrowLeft" xlink:href="#dirArrow" transform="rotate(270) translate(-36 17)" onmousedown="handlePan(-1,0)">
                  <use xlink:href="#rim" fill="#404040">
                        <set attributeName="fill" to="#808080" begin="arrowLeft.mouseover" end="arrowLeft.mouseout"/>
                  </use>
                  <path fill="none" stroke="white" stroke-width="1.5" d="M0,-3.0v7 M-2.5,-0.5L0,-3.0L2.5,-0.5"/>
                </g>
        </g>
        <svg viewBox="0 0 15 15" width="100%" height="30px" preserveAspectRatio="xMaxYMin meet">
         <g id="arrow_out" transform="scale(0.3 0.3)">
          <a xlink:href="classELFIO_1_1elfio_a4dfd167b10c72779390871865d16db61_cgraph_org.svg" target="_base">
           <rect id="button" ry="5" rx="5" y="6" x="6" height="38" width="38"
                fill="#f2f5e9" fill-opacity="0.5" stroke="#606060" stroke-width="1.0"/>
           <path id="arrow"
             d="M 11.500037,31.436501 C 11.940474,20.09759 22.043105,11.32322 32.158766,21.979434 L 37.068811,17.246167 C 37.068811,17.246167 37.088388,32 37.088388,32 L 22.160133,31.978069 C 22.160133,31.978069 26.997745,27.140456 26.997745,27.140456 C 18.528582,18.264221 13.291696,25.230495 11.500037,31.436501 z"
             style="fill:#404040;"/>
          </a>
         </g>
        </svg>
</svg>
