<?xml version="1.0" encoding="UTF-8" standalone="no"?>
<!DOCTYPE svg PUBLIC "-//W3C//DTD SVG 1.1//EN"
 "http://www.w3.org/Graphics/SVG/1.1/DTD/svg11.dtd">
<!-- Generated by graphviz version 2.36.0 (20140111.2315)
 -->
<!-- Title: ELFIO::elfio::Sections::add Pages: 1 -->
<svg width="558pt" height="38pt"
 viewBox="0.00 0.00 558.00 38.00" xmlns="http://www.w3.org/2000/svg" xmlns:xlink="http://www.w3.org/1999/xlink">
<g id="graph0" class="graph" transform="scale(1 1) rotate(0) translate(4 34)">
<title>ELFIO::elfio::Sections::add</title>
<!-- Node1 -->
<g id="node1" class="node"><title>Node1</title>
<polygon fill="#bfbfbf" stroke="black" points="0.5,-5.5 0.5,-24.5 135.5,-24.5 135.5,-5.5 0.5,-5.5"/>
<text text-anchor="middle" x="68" y="-12.5" font-family="Helvetica,sans-Serif" font-size="10.00">ELFIO::elfio::Sections::add</text>
</g>
<!-- Node2 -->
<g id="node2" class="node"><title>Node2</title>
<g id="a_node2"><a xlink:href="classELFIO_1_1elfio.xhtml#a905e7d6672f7109423309f05c941cf80" target="_top" xlink:title="ELFIO::elfio::create\l_mandatory_sections">
<polygon fill="none" stroke="black" points="172,-0 172,-30 282,-30 282,-0 172,-0"/>
<text text-anchor="start" x="180" y="-18" font-family="Helvetica,sans-Serif" font-size="10.00">ELFIO::elfio::create</text>
<text text-anchor="middle" x="227" y="-7" font-family="Helvetica,sans-Serif" font-size="10.00">_mandatory_sections</text>
</a>
</g>
</g>
<!-- Node1&#45;&gt;Node2 -->
<g id="edge1" class="edge"><title>Node1&#45;&gt;Node2</title>
<path fill="none" stroke="midnightblue" d="M145.801,-15C154.54,-15 163.306,-15 171.667,-15"/>
<polygon fill="midnightblue" stroke="midnightblue" points="145.582,-11.5001 135.582,-15 145.582,-18.5001 145.582,-11.5001"/>
</g>
<!-- Node3 -->
<g id="node3" class="node"><title>Node3</title>
<g id="a_node3"><a xlink:href="classELFIO_1_1elfio.xhtml#a505f88e23277cb7945d4f411fe2b4d85" target="_top" xlink:title="ELFIO::elfio::create">
<polygon fill="none" stroke="black" points="318,-5.5 318,-24.5 420,-24.5 420,-5.5 318,-5.5"/>
<text text-anchor="middle" x="369" y="-12.5" font-family="Helvetica,sans-Serif" font-size="10.00">ELFIO::elfio::create</text>
</a>
</g>
</g>
<!-- Node2&#45;&gt;Node3 -->
<g id="edge2" class="edge"><title>Node2&#45;&gt;Node3</title>
<path fill="none" stroke="midnightblue" d="M292.393,-15C300.881,-15 309.48,-15 317.685,-15"/>
<polygon fill="midnightblue" stroke="midnightblue" points="292.128,-11.5001 282.128,-15 292.128,-18.5001 292.128,-11.5001"/>
</g>
<!-- Node4 -->
<g id="node4" class="node"><title>Node4</title>
<g id="a_node4"><a xlink:href="classELFIO_1_1elfio.xhtml#ab5d99cd44a973c1adabdba1c1e7c086b" target="_top" xlink:title="ELFIO::elfio::elfio">
<polygon fill="none" stroke="black" points="456.5,-5.5 456.5,-24.5 549.5,-24.5 549.5,-5.5 456.5,-5.5"/>
<text text-anchor="middle" x="503" y="-12.5" font-family="Helvetica,sans-Serif" font-size="10.00">ELFIO::elfio::elfio</text>
</a>
</g>
</g>
<!-- Node3&#45;&gt;Node4 -->
<g id="edge3" class="edge"><title>Node3&#45;&gt;Node4</title>
<path fill="none" stroke="midnightblue" d="M430.372,-15C439.05,-15 447.859,-15 456.193,-15"/>
<polygon fill="midnightblue" stroke="midnightblue" points="430.28,-11.5001 420.28,-15 430.28,-18.5001 430.28,-11.5001"/>
</g>
</g>
</svg>
