<?xml version="1.0" encoding="UTF-8" standalone="no"?>
<!DOCTYPE svg PUBLIC "-//W3C//DTD SVG 1.1//EN"
 "http://www.w3.org/Graphics/SVG/1.1/DTD/svg11.dtd">
<!-- Generated by graphviz version 2.36.0 (20140111.2315)
 -->
<!-- Title: Voxel::SerializableMap::serializedSize Pages: 1 -->
<svg width="480pt" height="147pt"
 viewBox="0.00 0.00 480.00 147.00" xmlns="http://www.w3.org/2000/svg" xmlns:xlink="http://www.w3.org/1999/xlink">
<g id="graph0" class="graph" transform="scale(1 1) rotate(0) translate(4 143)">
<title>Voxel::SerializableMap::serializedSize</title>
<!-- Node1 -->
<g id="node1" class="node"><title>Node1</title>
<polygon fill="#bfbfbf" stroke="black" points="0,-76 0,-106 116,-106 116,-76 0,-76"/>
<text text-anchor="start" x="8" y="-94" font-family="Helvetica,sans-Serif" font-size="10.00">Voxel::SerializableMap</text>
<text text-anchor="middle" x="58" y="-83" font-family="Helvetica,sans-Serif" font-size="10.00">::serializedSize</text>
</g>
<!-- Node2 -->
<g id="node2" class="node"><title>Node2</title>
<g id="a_node2"><a xlink:href="classVoxel_1_1SerializableMap.xhtml#a9cab27981418aee2008e657ffcfdb456" target="_top" xlink:title="Voxel::SerializableMap\l\&lt; SerializableString \&gt;\l::write">
<polygon fill="none" stroke="black" points="153,-97.5 153,-138.5 269,-138.5 269,-97.5 153,-97.5"/>
<text text-anchor="start" x="161" y="-126.5" font-family="Helvetica,sans-Serif" font-size="10.00">Voxel::SerializableMap</text>
<text text-anchor="start" x="161" y="-115.5" font-family="Helvetica,sans-Serif" font-size="10.00">&lt; SerializableString &gt;</text>
<text text-anchor="middle" x="211" y="-104.5" font-family="Helvetica,sans-Serif" font-size="10.00">::write</text>
</a>
</g>
</g>
<!-- Node1&#45;&gt;Node2 -->
<g id="edge1" class="edge"><title>Node1&#45;&gt;Node2</title>
<path fill="none" stroke="midnightblue" d="M126.074,-102.993C135.004,-104.59 144.093,-106.215 152.833,-107.778"/>
<polygon fill="midnightblue" stroke="midnightblue" points="126.547,-99.5224 116.087,-101.208 125.314,-106.413 126.547,-99.5224"/>
</g>
<!-- Node3 -->
<g id="node3" class="node"><title>Node3</title>
<g id="a_node3"><a xlink:href="classVoxel_1_1FrameGenerator.xhtml#a48ef4931ae6cc2e09e8623560ada5628" target="_top" xlink:title="Voxel::FrameGenerator\l::writeConfiguration">
<polygon fill="none" stroke="black" points="152,-49 152,-79 270,-79 270,-49 152,-49"/>
<text text-anchor="start" x="160" y="-67" font-family="Helvetica,sans-Serif" font-size="10.00">Voxel::FrameGenerator</text>
<text text-anchor="middle" x="211" y="-56" font-family="Helvetica,sans-Serif" font-size="10.00">::writeConfiguration</text>
</a>
</g>
</g>
<!-- Node1&#45;&gt;Node3 -->
<g id="edge2" class="edge"><title>Node1&#45;&gt;Node3</title>
<path fill="none" stroke="midnightblue" d="M126.074,-79.0067C134.662,-77.471 143.398,-75.909 151.829,-74.4015"/>
<polygon fill="midnightblue" stroke="midnightblue" points="125.314,-75.5869 116.087,-80.7925 126.547,-82.4776 125.314,-75.5869"/>
</g>
<!-- Node4 -->
<g id="node4" class="node"><title>Node4</title>
<g id="a_node4"><a xlink:href="classVoxel_1_1PointCloudFrameGenerator.xhtml#aa7079c7905d973aacfe15f4af03df0d9" target="_top" xlink:title="Voxel::PointCloudFrameGenerator\l::setParameters">
<polygon fill="none" stroke="black" points="306,-98 306,-128 472,-128 472,-98 306,-98"/>
<text text-anchor="start" x="314" y="-116" font-family="Helvetica,sans-Serif" font-size="10.00">Voxel::PointCloudFrameGenerator</text>
<text text-anchor="middle" x="389" y="-105" font-family="Helvetica,sans-Serif" font-size="10.00">::setParameters</text>
</a>
</g>
</g>
<!-- Node3&#45;&gt;Node4 -->
<g id="edge3" class="edge"><title>Node3&#45;&gt;Node4</title>
<path fill="none" stroke="midnightblue" d="M276.011,-81.8212C295.014,-87.1118 315.632,-92.8522 333.937,-97.9484"/>
<polygon fill="midnightblue" stroke="midnightblue" points="276.814,-78.4118 266.242,-79.1014 274.937,-85.1554 276.814,-78.4118"/>
</g>
<!-- Node5 -->
<g id="node5" class="node"><title>Node5</title>
<g id="a_node5"><a xlink:href="classVoxel_1_1TI_1_1ToFDepthFrameGenerator.xhtml#af527d454c5f24142dead8432ce7d841c" target="_top" xlink:title="Voxel::TI::ToFDepthFrame\lGenerator::setParameters">
<polygon fill="none" stroke="black" points="322,-49 322,-79 456,-79 456,-49 322,-49"/>
<text text-anchor="start" x="330" y="-67" font-family="Helvetica,sans-Serif" font-size="10.00">Voxel::TI::ToFDepthFrame</text>
<text text-anchor="middle" x="389" y="-56" font-family="Helvetica,sans-Serif" font-size="10.00">Generator::setParameters</text>
</a>
</g>
</g>
<!-- Node3&#45;&gt;Node5 -->
<g id="edge4" class="edge"><title>Node3&#45;&gt;Node5</title>
<path fill="none" stroke="midnightblue" d="M280.359,-64C293.95,-64 308.199,-64 321.72,-64"/>
<polygon fill="midnightblue" stroke="midnightblue" points="280.117,-60.5001 270.117,-64 280.117,-67.5001 280.117,-60.5001"/>
</g>
<!-- Node6 -->
<g id="node6" class="node"><title>Node6</title>
<g id="a_node6"><a xlink:href="classVoxel_1_1TI_1_1ToFFrameGenerator.xhtml#adfedd1e5bb60ca05f9dd7d0367e8d79f" target="_top" xlink:title="Voxel::TI::ToFFrameGenerator\l::setParameters">
<polygon fill="none" stroke="black" points="314,-0 314,-30 464,-30 464,-0 314,-0"/>
<text text-anchor="start" x="322" y="-18" font-family="Helvetica,sans-Serif" font-size="10.00">Voxel::TI::ToFFrameGenerator</text>
<text text-anchor="middle" x="389" y="-7" font-family="Helvetica,sans-Serif" font-size="10.00">::setParameters</text>
</a>
</g>
</g>
<!-- Node3&#45;&gt;Node6 -->
<g id="edge5" class="edge"><title>Node3&#45;&gt;Node6</title>
<path fill="none" stroke="midnightblue" d="M276.011,-46.1788C295.014,-40.8882 315.632,-35.1478 333.937,-30.0516"/>
<polygon fill="midnightblue" stroke="midnightblue" points="274.937,-42.8446 266.242,-48.8986 276.814,-49.5882 274.937,-42.8446"/>
</g>
</g>
</svg>
