<?xml version="1.0" encoding="UTF-8" standalone="no"?>
<!DOCTYPE svg PUBLIC "-//W3C//DTD SVG 1.1//EN"
 "http://www.w3.org/Graphics/SVG/1.1/DTD/svg11.dtd">
<!-- Generated by graphviz version 2.36.0 (20140111.2315)
 -->
<!-- Title: Voxel::UVCPrivate Pages: 1 -->
<!--zoomable 211 -->
<svg id="main" version="1.1" xmlns="http://www.w3.org/2000/svg" xmlns:xlink="http://www.w3.org/1999/xlink" xml:space="preserve" onload="init(evt)">
<style type="text/css"><![CDATA[
.edge:hover path { stroke: red; }
.edge:hover polygon { stroke: red; fill: red; }
]]></style>
<script type="text/javascript"><![CDATA[
var edges = document.getElementsByTagName('g');
if (edges && edges.length) {
  for (var i=0;i<edges.length;i++) {
    if (edges[i].id.substr(0,4)=='edge') {
      edges[i].setAttribute('class','edge');
    }
  }
}
]]></script>
        <defs>
                <circle id="rim" cx="0" cy="0" r="7"/>
                <circle id="rim2" cx="0" cy="0" r="3.5"/>
                <g id="zoomPlus">
                        <use xlink:href="#rim" fill="#404040">
                                <set attributeName="fill" to="#808080" begin="zoomplus.mouseover" end="zoomplus.mouseout"/>
                        </use>
                        <path d="M-4,0h8M0,-4v8" fill="none" stroke="white" stroke-width="1.5" pointer-events="none"/>
                </g>
                <g id="zoomMin">
                        <use xlink:href="#rim" fill="#404040">
                                <set attributeName="fill" to="#808080" begin="zoomminus.mouseover" end="zoomminus.mouseout"/>
                        </use>
                        <path d="M-4,0h8" fill="none" stroke="white" stroke-width="1.5" pointer-events="none"/>
                </g>
                <g id="dirArrow">
                        <path fill="none" stroke="white" stroke-width="1.5" d="M0,-3.0v7 M-2.5,-0.5L0,-3.0L2.5,-0.5"/>
                </g>
               <g id="resetDef">
                       <use xlink:href="#rim2" fill="#404040">
                               <set attributeName="fill" to="#808080" begin="reset.mouseover" end="reset.mouseout"/>
                       </use>
               </g>
        </defs>

<script type="text/javascript">
var viewWidth = 786;
var viewHeight = 211;
var sectionId = 'dynsection-0';
</script>
<script xlink:href="svgpan.js"/>
<svg id="graph" class="graph">
<g id="viewport">
<title>Voxel::UVCPrivate</title>
<!-- Node1 -->
<g id="node1" class="node"><title>Node1</title>
<polygon fill="#bfbfbf" stroke="black" points="678,-107.5 678,-126.5 778,-126.5 778,-107.5 678,-107.5"/>
<text text-anchor="middle" x="728" y="-114.5" font-family="Helvetica,sans-Serif" font-size="10.00">Voxel::UVCPrivate</text>
</g>
<!-- Node2 -->
<g id="node2" class="node"><title>Node2</title>
<polygon fill="none" stroke="#bfbfbf" points="398.5,-183.5 398.5,-202.5 555.5,-202.5 555.5,-183.5 398.5,-183.5"/>
<text text-anchor="middle" x="477" y="-190.5" font-family="Helvetica,sans-Serif" font-size="10.00">Vector&lt; Voxel::UVCRawData &gt;</text>
</g>
<!-- Node2&#45;&gt;Node1 -->
<g id="edge1" class="edge"><title>Node2&#45;&gt;Node1</title>
<path fill="none" stroke="#9a32cd" stroke-dasharray="5,2" d="M566.109,-183.357C596.541,-178.257 630.409,-170.556 660,-159 680.716,-150.91 702.044,-136.24 714.913,-126.557"/>
<polygon fill="#9a32cd" stroke="#9a32cd" points="565.251,-179.949 555.931,-184.988 566.359,-186.861 565.251,-179.949"/>
<text text-anchor="middle" x="617" y="-184" font-family="Helvetica,sans-Serif" font-size="10.00"> _mappedRawData</text>
</g>
<!-- Node3 -->
<g id="node3" class="node"><title>Node3</title>
<g id="a_node3"><a xlink:href="classint.xhtml" target="_top" xlink:title="int">
<polygon fill="none" stroke="black" points="462.5,-145.5 462.5,-164.5 491.5,-164.5 491.5,-145.5 462.5,-145.5"/>
<text text-anchor="middle" x="477" y="-152.5" font-family="Helvetica,sans-Serif" font-size="10.00">int</text>
</a>
</g>
</g>
<!-- Node3&#45;&gt;Node1 -->
<g id="edge2" class="edge"><title>Node3&#45;&gt;Node1</title>
<path fill="none" stroke="#9a32cd" stroke-dasharray="5,2" d="M501.918,-152.706C536.815,-149.194 603.664,-141.843 660,-132 668.924,-130.441 678.454,-128.485 687.445,-126.506"/>
<polygon fill="#9a32cd" stroke="#9a32cd" points="501.372,-149.243 491.765,-153.709 502.061,-156.209 501.372,-149.243"/>
<text text-anchor="middle" x="617" y="-147" font-family="Helvetica,sans-Serif" font-size="10.00"> _fd</text>
</g>
<!-- Node4 -->
<g id="node4" class="node"><title>Node4</title>
<polygon fill="none" stroke="#bfbfbf" points="456.5,-107.5 456.5,-126.5 497.5,-126.5 497.5,-107.5 456.5,-107.5"/>
<text text-anchor="middle" x="477" y="-114.5" font-family="Helvetica,sans-Serif" font-size="10.00">string</text>
</g>
<!-- Node4&#45;&gt;Node1 -->
<g id="edge3" class="edge"><title>Node4&#45;&gt;Node1</title>
<path fill="none" stroke="#9a32cd" stroke-dasharray="5,2" d="M507.68,-117C549.756,-117 627.256,-117 677.954,-117"/>
<polygon fill="#9a32cd" stroke="#9a32cd" points="507.539,-113.5 497.539,-117 507.539,-120.5 507.539,-113.5"/>
<text text-anchor="middle" x="617" y="-120" font-family="Helvetica,sans-Serif" font-size="10.00"> _deviceNode</text>
</g>
<!-- Node5 -->
<g id="node5" class="node"><title>Node5</title>
<g id="a_node5"><a xlink:href="classVoxel_1_1Ptr.xhtml" target="_top" xlink:title="Voxel::Ptr\&lt; IBaseFilter \&gt;">
<polygon fill="none" stroke="black" points="414.5,-69.5 414.5,-88.5 539.5,-88.5 539.5,-69.5 414.5,-69.5"/>
<text text-anchor="middle" x="477" y="-76.5" font-family="Helvetica,sans-Serif" font-size="10.00">Voxel::Ptr&lt; IBaseFilter &gt;</text>
</a>
</g>
</g>
<!-- Node5&#45;&gt;Node1 -->
<g id="edge4" class="edge"><title>Node5&#45;&gt;Node1</title>
<path fill="none" stroke="#9a32cd" stroke-dasharray="5,2" d="M549.899,-86.4993C583.463,-90.4059 623.891,-95.6909 660,-102 668.924,-103.559 678.454,-105.515 687.445,-107.494"/>
<polygon fill="#9a32cd" stroke="#9a32cd" points="550.048,-82.9936 539.715,-85.3316 549.251,-89.9481 550.048,-82.9936"/>
<text text-anchor="middle" x="617" y="-105" font-family="Helvetica,sans-Serif" font-size="10.00"> _captureFilter</text>
</g>
<!-- Node6 -->
<g id="node6" class="node"><title>Node6</title>
<polygon fill="none" stroke="#bfbfbf" points="144.5,-93.5 144.5,-112.5 291.5,-112.5 291.5,-93.5 144.5,-93.5"/>
<text text-anchor="middle" x="218" y="-100.5" font-family="Helvetica,sans-Serif" font-size="10.00">std::shared_ptr&lt; IBaseFilter &gt;</text>
</g>
<!-- Node6&#45;&gt;Node5 -->
<g id="edge5" class="edge"><title>Node6&#45;&gt;Node5</title>
<path fill="none" stroke="midnightblue" d="M301.778,-95.2698C338.386,-91.8511 380.687,-87.9008 414.44,-84.7488"/>
<polygon fill="midnightblue" stroke="midnightblue" points="301.247,-91.8041 291.615,-96.2188 301.898,-98.7737 301.247,-91.8041"/>
</g>
<!-- Node7 -->
<g id="node7" class="node"><title>Node7</title>
<g id="a_node7"><a xlink:href="classVoxel_1_1Ptr.xhtml" target="_top" xlink:title="Voxel::Ptr\&lt; T \&gt;">
<polygon fill="none" stroke="black" points="176,-46.5 176,-65.5 260,-65.5 260,-46.5 176,-46.5"/>
<text text-anchor="middle" x="218" y="-53.5" font-family="Helvetica,sans-Serif" font-size="10.00">Voxel::Ptr&lt; T &gt;</text>
</a>
</g>
</g>
<!-- Node7&#45;&gt;Node5 -->
<g id="edge6" class="edge"><title>Node7&#45;&gt;Node5</title>
<path fill="none" stroke="orange" stroke-dasharray="5,2" d="M270.144,-60.5771C311.54,-64.2818 369.996,-69.5133 414.044,-73.4553"/>
<polygon fill="orange" stroke="orange" points="270.279,-57.0753 260.007,-59.6699 269.655,-64.0474 270.279,-57.0753"/>
<text text-anchor="middle" x="345" y="-73" font-family="Helvetica,sans-Serif" font-size="10.00"> &lt; IBaseFilter &gt;</text>
</g>
<!-- Node9 -->
<g id="node9" class="node"><title>Node9</title>
<g id="a_node9"><a xlink:href="classVoxel_1_1Ptr.xhtml" target="_top" xlink:title="Voxel::Ptr\&lt; Device \&gt;">
<polygon fill="none" stroke="black" points="422.5,-31.5 422.5,-50.5 531.5,-50.5 531.5,-31.5 422.5,-31.5"/>
<text text-anchor="middle" x="477" y="-38.5" font-family="Helvetica,sans-Serif" font-size="10.00">Voxel::Ptr&lt; Device &gt;</text>
</a>
</g>
</g>
<!-- Node7&#45;&gt;Node9 -->
<g id="edge10" class="edge"><title>Node7&#45;&gt;Node9</title>
<path fill="none" stroke="orange" stroke-dasharray="5,2" d="M270.259,-48.2093C283.198,-46.527 297.085,-44.9651 310,-44 347.511,-41.1968 389.915,-40.472 422.476,-40.435"/>
<polygon fill="orange" stroke="orange" points="269.564,-44.7712 260.121,-49.5753 270.499,-51.7085 269.564,-44.7712"/>
<text text-anchor="middle" x="345" y="-47" font-family="Helvetica,sans-Serif" font-size="10.00"> &lt; Device &gt;</text>
</g>
<!-- Node8 -->
<g id="node8" class="node"><title>Node8</title>
<polygon fill="none" stroke="#bfbfbf" points="0,-46.5 0,-65.5 106,-65.5 106,-46.5 0,-46.5"/>
<text text-anchor="middle" x="53" y="-53.5" font-family="Helvetica,sans-Serif" font-size="10.00">std::shared_ptr&lt; T &gt;</text>
</g>
<!-- Node8&#45;&gt;Node7 -->
<g id="edge7" class="edge"><title>Node8&#45;&gt;Node7</title>
<path fill="none" stroke="midnightblue" d="M116.266,-56C136.189,-56 157.739,-56 175.774,-56"/>
<polygon fill="midnightblue" stroke="midnightblue" points="116.022,-52.5001 106.022,-56 116.022,-59.5001 116.022,-52.5001"/>
</g>
<!-- Node9&#45;&gt;Node1 -->
<g id="edge8" class="edge"><title>Node9&#45;&gt;Node1</title>
<path fill="none" stroke="#9a32cd" stroke-dasharray="5,2" d="M541.958,-46.4162C577.632,-50.9478 622.333,-59.1742 660,-74 680.835,-82.2006 702.131,-97.2418 714.961,-107.182"/>
<polygon fill="#9a32cd" stroke="#9a32cd" points="542.019,-42.8984 531.672,-45.1795 541.183,-49.8484 542.019,-42.8984"/>
<text text-anchor="middle" x="617" y="-77" font-family="Helvetica,sans-Serif" font-size="10.00"> _usb</text>
</g>
<!-- Node10 -->
<g id="node10" class="node"><title>Node10</title>
<polygon fill="none" stroke="#bfbfbf" points="152.5,-0.5 152.5,-19.5 283.5,-19.5 283.5,-0.5 152.5,-0.5"/>
<text text-anchor="middle" x="218" y="-7.5" font-family="Helvetica,sans-Serif" font-size="10.00">std::shared_ptr&lt; Device &gt;</text>
</g>
<!-- Node10&#45;&gt;Node9 -->
<g id="edge9" class="edge"><title>Node10&#45;&gt;Node9</title>
<path fill="none" stroke="midnightblue" d="M293.515,-18.9882C334.717,-23.9581 384.969,-30.0197 422.3,-34.5226"/>
<polygon fill="midnightblue" stroke="midnightblue" points="293.867,-15.5054 283.52,-17.7826 293.029,-22.455 293.867,-15.5054"/>
</g>
</g>
</svg>
        <g id="navigator" transform="translate(0 0)" fill="#404254">
                <rect fill="#f2f5e9" fill-opacity="0.5" stroke="#606060" stroke-width=".5" x="0" y="0" width="60" height="60"/>
                <use id="zoomplus" xlink:href="#zoomPlus" x="17" y="9" onmousedown="handleZoom(evt,'in')"/>
                <use id="zoomminus" xlink:href="#zoomMin" x="42" y="9" onmousedown="handleZoom(evt,'out')"/>
                <use id="reset" xlink:href="#resetDef" x="30" y="36" onmousedown="handleReset()"/>
                <g id="arrowUp" xlink:href="#dirArrow" transform="translate(30 24)" onmousedown="handlePan(0,-1)">
                  <use xlink:href="#rim" fill="#404040">
                        <set attributeName="fill" to="#808080" begin="arrowUp.mouseover" end="arrowUp.mouseout"/>
                  </use>
                  <path fill="none" stroke="white" stroke-width="1.5" d="M0,-3.0v7 M-2.5,-0.5L0,-3.0L2.5,-0.5"/>
                </g>
                <g id="arrowRight" xlink:href="#dirArrow" transform="rotate(90) translate(36 -43)" onmousedown="handlePan(1,0)">
                  <use xlink:href="#rim" fill="#404040">
                        <set attributeName="fill" to="#808080" begin="arrowRight.mouseover" end="arrowRight.mouseout"/>
                  </use>
                  <path fill="none" stroke="white" stroke-width="1.5" d="M0,-3.0v7 M-2.5,-0.5L0,-3.0L2.5,-0.5"/>
                </g>
                <g id="arrowDown" xlink:href="#dirArrow" transform="rotate(180) translate(-30 -48)" onmousedown="handlePan(0,1)">
                  <use xlink:href="#rim" fill="#404040">
                        <set attributeName="fill" to="#808080" begin="arrowDown.mouseover" end="arrowDown.mouseout"/>
                  </use>
                  <path fill="none" stroke="white" stroke-width="1.5" d="M0,-3.0v7 M-2.5,-0.5L0,-3.0L2.5,-0.5"/>
                </g>
                <g id="arrowLeft" xlink:href="#dirArrow" transform="rotate(270) translate(-36 17)" onmousedown="handlePan(-1,0)">
                  <use xlink:href="#rim" fill="#404040">
                        <set attributeName="fill" to="#808080" begin="arrowLeft.mouseover" end="arrowLeft.mouseout"/>
                  </use>
                  <path fill="none" stroke="white" stroke-width="1.5" d="M0,-3.0v7 M-2.5,-0.5L0,-3.0L2.5,-0.5"/>
                </g>
        </g>
        <svg viewBox="0 0 15 15" width="100%" height="30px" preserveAspectRatio="xMaxYMin meet">
         <g id="arrow_out" transform="scale(0.3 0.3)">
          <a xlink:href="classVoxel_1_1UVCPrivate__coll__graph_org.svg" target="_base">
           <rect id="button" ry="5" rx="5" y="6" x="6" height="38" width="38"
                fill="#f2f5e9" fill-opacity="0.5" stroke="#606060" stroke-width="1.0"/>
           <path id="arrow"
             d="M 11.500037,31.436501 C 11.940474,20.09759 22.043105,11.32322 32.158766,21.979434 L 37.068811,17.246167 C 37.068811,17.246167 37.088388,32 37.088388,32 L 22.160133,31.978069 C 22.160133,31.978069 26.997745,27.140456 26.997745,27.140456 C 18.528582,18.264221 13.291696,25.230495 11.500037,31.436501 z"
             style="fill:#404040;"/>
          </a>
         </g>
        </svg>
</svg>
