<?xml version="1.0" encoding="UTF-8" standalone="no"?>
<!DOCTYPE svg PUBLIC "-//W3C//DTD SVG 1.1//EN"
 "http://www.w3.org/Graphics/SVG/1.1/DTD/svg11.dtd">
<!-- Generated by graphviz version 2.36.0 (20140111.2315)
 -->
<!-- Title: Voxel::PCLViewer::viewerStopped Pages: 1 -->
<svg width="576pt" height="156pt"
 viewBox="0.00 0.00 576.00 155.66" xmlns="http://www.w3.org/2000/svg" xmlns:xlink="http://www.w3.org/1999/xlink">
<g id="graph0" class="graph" transform="scale(1 1) rotate(0) translate(4 151.66)">
<title>Voxel::PCLViewer::viewerStopped</title>
<!-- Node1 -->
<g id="node1" class="node"><title>Node1</title>
<polygon fill="#bfbfbf" stroke="black" points="0.5,-73 0.5,-103 131.5,-103 131.5,-73 0.5,-73"/>
<text text-anchor="start" x="8.5" y="-91" font-family="Helvetica,sans-Serif" font-size="10.00">Voxel::PCLViewer::viewer</text>
<text text-anchor="middle" x="66" y="-80" font-family="Helvetica,sans-Serif" font-size="10.00">Stopped</text>
</g>
<!-- Node2 -->
<g id="node2" class="node"><title>Node2</title>
<g id="a_node2"><a xlink:href="classVoxel_1_1PCLViewer.xhtml#a0751fa6190e95d3483726db767fd320d" target="_top" xlink:title="Voxel::PCLViewer::isRunning">
<polygon fill="none" stroke="black" points="168,-78.5 168,-97.5 314,-97.5 314,-78.5 168,-78.5"/>
<text text-anchor="middle" x="241" y="-85.5" font-family="Helvetica,sans-Serif" font-size="10.00">Voxel::PCLViewer::isRunning</text>
</a>
</g>
</g>
<!-- Node1&#45;&gt;Node2 -->
<g id="edge1" class="edge"><title>Node1&#45;&gt;Node2</title>
<path fill="none" stroke="midnightblue" d="M142.173,-88C150.665,-88 159.305,-88 167.758,-88"/>
<polygon fill="midnightblue" stroke="midnightblue" points="141.911,-84.5001 131.911,-88 141.911,-91.5001 141.911,-84.5001"/>
</g>
<!-- Node3 -->
<g id="node3" class="node"><title>Node3</title>
<g id="a_node3"><a xlink:href="SimpleVoxelViewer_8cpp.xhtml#ae66f6b31b5ad750f1fe042a706a4e3d4" target="_top" xlink:title="main">
<polygon fill="none" stroke="black" points="530,-100.5 530,-119.5 568,-119.5 568,-100.5 530,-100.5"/>
<text text-anchor="middle" x="549" y="-107.5" font-family="Helvetica,sans-Serif" font-size="10.00">main</text>
</a>
</g>
</g>
<!-- Node2&#45;&gt;Node3 -->
<g id="edge2" class="edge"><title>Node2&#45;&gt;Node3</title>
<path fill="none" stroke="midnightblue" d="M266.312,-102.677C287.544,-114.585 319.634,-130.434 350,-137 412.554,-150.527 431.712,-151.704 494,-137 508.282,-133.629 523.093,-125.87 533.583,-119.53"/>
<polygon fill="midnightblue" stroke="midnightblue" points="267.779,-99.4833 257.366,-97.5308 264.289,-105.551 267.779,-99.4833"/>
</g>
<!-- Node4 -->
<g id="node4" class="node"><title>Node4</title>
<g id="a_node4"><a xlink:href="classVoxel_1_1PCLViewer.xhtml#ad599e27ffdd12922402dda879a983780" target="_top" xlink:title="Voxel::PCLViewer::remove\lDepthCamera">
<polygon fill="none" stroke="black" points="354.5,-98 354.5,-128 489.5,-128 489.5,-98 354.5,-98"/>
<text text-anchor="start" x="362.5" y="-116" font-family="Helvetica,sans-Serif" font-size="10.00">Voxel::PCLViewer::remove</text>
<text text-anchor="middle" x="422" y="-105" font-family="Helvetica,sans-Serif" font-size="10.00">DepthCamera</text>
</a>
</g>
</g>
<!-- Node2&#45;&gt;Node4 -->
<g id="edge3" class="edge"><title>Node2&#45;&gt;Node4</title>
<path fill="none" stroke="midnightblue" d="M320.158,-98.9159C331.604,-100.514 343.301,-102.148 354.485,-103.71"/>
<polygon fill="midnightblue" stroke="midnightblue" points="320.571,-95.4397 310.183,-97.5227 319.603,-102.372 320.571,-95.4397"/>
</g>
<!-- Node5 -->
<g id="node5" class="node"><title>Node5</title>
<g id="a_node5"><a xlink:href="classVoxel_1_1PCLViewer.xhtml#aa71433675a254cc3df3a2b02599c408f" target="_top" xlink:title="Voxel::PCLViewer::setDepth\lCamera">
<polygon fill="none" stroke="black" points="350.5,-49 350.5,-79 493.5,-79 493.5,-49 350.5,-49"/>
<text text-anchor="start" x="358.5" y="-67" font-family="Helvetica,sans-Serif" font-size="10.00">Voxel::PCLViewer::setDepth</text>
<text text-anchor="middle" x="422" y="-56" font-family="Helvetica,sans-Serif" font-size="10.00">Camera</text>
</a>
</g>
</g>
<!-- Node2&#45;&gt;Node5 -->
<g id="edge4" class="edge"><title>Node2&#45;&gt;Node5</title>
<path fill="none" stroke="midnightblue" d="M323.181,-77.1155C332.256,-75.8986 341.447,-74.6663 350.376,-73.4691"/>
<polygon fill="midnightblue" stroke="midnightblue" points="322.449,-73.6822 313.003,-78.4801 323.379,-80.6201 322.449,-73.6822"/>
</g>
<!-- Node6 -->
<g id="node6" class="node"><title>Node6</title>
<g id="a_node6"><a xlink:href="classVoxel_1_1PCLViewer.xhtml#afe633d65563a4496bb0cfc48fd314cee" target="_top" xlink:title="Voxel::PCLViewer::\l~PCLViewer">
<polygon fill="none" stroke="black" points="370.5,-0 370.5,-30 473.5,-30 473.5,-0 370.5,-0"/>
<text text-anchor="start" x="378.5" y="-18" font-family="Helvetica,sans-Serif" font-size="10.00">Voxel::PCLViewer::</text>
<text text-anchor="middle" x="422" y="-7" font-family="Helvetica,sans-Serif" font-size="10.00">~PCLViewer</text>
</a>
</g>
</g>
<!-- Node2&#45;&gt;Node6 -->
<g id="edge6" class="edge"><title>Node2&#45;&gt;Node6</title>
<path fill="none" stroke="midnightblue" d="M271.365,-74.1884C292.933,-64.2309 323.049,-50.7145 350,-40 358.501,-36.6206 367.661,-33.2201 376.485,-30.0627"/>
<polygon fill="midnightblue" stroke="midnightblue" points="269.695,-71.1048 262.099,-78.4902 272.643,-77.4539 269.695,-71.1048"/>
</g>
<!-- Node5&#45;&gt;Node3 -->
<g id="edge5" class="edge"><title>Node5&#45;&gt;Node3</title>
<path fill="none" stroke="midnightblue" d="M476.086,-82.4813C482.138,-84.6507 488.21,-86.8553 494,-89 505.885,-93.4022 519.152,-98.5582 529.562,-102.66"/>
<polygon fill="midnightblue" stroke="midnightblue" points="477.231,-79.1735 466.636,-79.1149 474.882,-85.7677 477.231,-79.1735"/>
</g>
</g>
</svg>
