<?xml version="1.0" encoding="UTF-8" standalone="no"?>
<!DOCTYPE svg PUBLIC "-//W3C//DTD SVG 1.1//EN"
 "http://www.w3.org/Graphics/SVG/1.1/DTD/svg11.dtd">
<!-- Generated by graphviz version 2.36.0 (20140111.2315)
 -->
<!-- Title: Configuration.h Pages: 1 -->
<svg width="2614pt" height="364pt"
 viewBox="0.00 0.00 2614.00 364.00" xmlns="http://www.w3.org/2000/svg" xmlns:xlink="http://www.w3.org/1999/xlink">
<g id="graph0" class="graph" transform="scale(1 1) rotate(0) translate(4 360)">
<title>Configuration.h</title>
<!-- Node1 -->
<g id="node1" class="node"><title>Node1</title>
<polygon fill="#bfbfbf" stroke="black" points="118.5,-336.5 118.5,-355.5 201.5,-355.5 201.5,-336.5 118.5,-336.5"/>
<text text-anchor="middle" x="160" y="-343.5" font-family="Helvetica,sans-Serif" font-size="10.00">Configuration.h</text>
</g>
<!-- Node2 -->
<g id="node2" class="node"><title>Node2</title>
<g id="a_node2"><a xlink:href="ToFCalculusCamera_8cpp.xhtml" target="_top" xlink:title="ToFCalculusCamera.cpp">
<polygon fill="none" stroke="black" points="287.5,-56.5 287.5,-75.5 412.5,-75.5 412.5,-56.5 287.5,-56.5"/>
<text text-anchor="middle" x="350" y="-63.5" font-family="Helvetica,sans-Serif" font-size="10.00">ToFCalculusCamera.cpp</text>
</a>
</g>
</g>
<!-- Node1&#45;&gt;Node2 -->
<g id="edge1" class="edge"><title>Node1&#45;&gt;Node2</title>
<path fill="none" stroke="midnightblue" d="M130.414,-331.88C116.234,-324.316 99.9874,-313.593 89,-300 69.641,-276.051 65,-265.795 65,-235 65,-235 65,-235 65,-177 65,-146.205 65.3262,-131.695 89,-112 118.427,-87.5185 219.981,-75.8467 287.393,-70.6779"/>
<polygon fill="midnightblue" stroke="midnightblue" points="128.853,-335.013 139.358,-336.393 132.007,-328.763 128.853,-335.013"/>
</g>
<!-- Node3 -->
<g id="node3" class="node"><title>Node3</title>
<g id="a_node3"><a xlink:href="ToFCamera_8cpp.xhtml" target="_top" xlink:title="ToFCamera.cpp">
<polygon fill="none" stroke="black" points="169.5,-112.5 169.5,-131.5 256.5,-131.5 256.5,-112.5 169.5,-112.5"/>
<text text-anchor="middle" x="213" y="-119.5" font-family="Helvetica,sans-Serif" font-size="10.00">ToFCamera.cpp</text>
</a>
</g>
</g>
<!-- Node1&#45;&gt;Node3 -->
<g id="edge2" class="edge"><title>Node1&#45;&gt;Node3</title>
<path fill="none" stroke="midnightblue" d="M160.363,-325.99C160.88,-312.953 162.107,-295.311 165,-280 175.954,-222.026 200.577,-155.156 209.601,-131.682"/>
<polygon fill="midnightblue" stroke="midnightblue" points="156.862,-325.99 160.068,-336.088 163.859,-326.194 156.862,-325.99"/>
</g>
<!-- Node4 -->
<g id="node4" class="node"><title>Node4</title>
<g id="a_node4"><a xlink:href="ToFHaddockCamera_8cpp.xhtml" target="_top" xlink:title="ToFHaddockCamera.cpp">
<polygon fill="none" stroke="black" points="0,-56.5 0,-75.5 126,-75.5 126,-56.5 0,-56.5"/>
<text text-anchor="middle" x="63" y="-63.5" font-family="Helvetica,sans-Serif" font-size="10.00">ToFHaddockCamera.cpp</text>
</a>
</g>
</g>
<!-- Node1&#45;&gt;Node4 -->
<g id="edge3" class="edge"><title>Node1&#45;&gt;Node4</title>
<path fill="none" stroke="midnightblue" d="M108.604,-333.374C88.4193,-326.563 66.4371,-316.032 51,-300 29.6402,-277.817 27,-265.795 27,-235 27,-235 27,-235 27,-177 27,-137.415 48.3184,-93.6141 58.1449,-75.5273"/>
<polygon fill="midnightblue" stroke="midnightblue" points="107.743,-336.772 118.332,-336.426 109.839,-330.093 107.743,-336.772"/>
</g>
<!-- Node5 -->
<g id="node5" class="node"><title>Node5</title>
<g id="a_node5"><a xlink:href="ToFTintinCamera_8cpp.xhtml" target="_top" xlink:title="ToFTintinCamera.cpp">
<polygon fill="none" stroke="black" points="501.5,-56.5 501.5,-75.5 612.5,-75.5 612.5,-56.5 501.5,-56.5"/>
<text text-anchor="middle" x="557" y="-63.5" font-family="Helvetica,sans-Serif" font-size="10.00">ToFTintinCamera.cpp</text>
</a>
</g>
</g>
<!-- Node1&#45;&gt;Node5 -->
<g id="edge4" class="edge"><title>Node1&#45;&gt;Node5</title>
<path fill="none" stroke="midnightblue" d="M145.21,-328.703C128.321,-308.343 103,-271.7 103,-235 103,-235 103,-235 103,-177 103,-146.205 102.685,-130.898 127,-112 141.594,-100.657 388.364,-80.1237 501.334,-71.2615"/>
<polygon fill="midnightblue" stroke="midnightblue" points="142.652,-331.096 151.833,-336.384 147.954,-326.525 142.652,-331.096"/>
</g>
<!-- Node6 -->
<g id="node6" class="node"><title>Node6</title>
<g id="a_node6"><a xlink:href="CameraSystem_8cpp.xhtml" target="_top" xlink:title="CameraSystem.cpp">
<polygon fill="none" stroke="black" points="835,-56.5 835,-75.5 939,-75.5 939,-56.5 835,-56.5"/>
<text text-anchor="middle" x="887" y="-63.5" font-family="Helvetica,sans-Serif" font-size="10.00">CameraSystem.cpp</text>
</a>
</g>
</g>
<!-- Node1&#45;&gt;Node6 -->
<g id="edge5" class="edge"><title>Node1&#45;&gt;Node6</title>
<path fill="none" stroke="midnightblue" d="M162.554,-326.233C163.529,-318.175 164.521,-308.642 165,-300 165.492,-291.125 165.15,-288.888 165,-280 163.739,-205.311 108.837,-166.428 160,-112 171.564,-99.698 670.071,-76.5918 834.787,-69.2795"/>
<polygon fill="midnightblue" stroke="midnightblue" points="159.052,-326.031 161.242,-336.397 165.994,-326.927 159.052,-326.031"/>
</g>
<!-- Node7 -->
<g id="node7" class="node"><title>Node7</title>
<g id="a_node7"><a xlink:href="Configuration_8cpp.xhtml" target="_top" xlink:title="Configuration.cpp">
<polygon fill="none" stroke="black" points="207.5,-280.5 207.5,-299.5 300.5,-299.5 300.5,-280.5 207.5,-280.5"/>
<text text-anchor="middle" x="254" y="-287.5" font-family="Helvetica,sans-Serif" font-size="10.00">Configuration.cpp</text>
</a>
</g>
</g>
<!-- Node1&#45;&gt;Node7 -->
<g id="edge6" class="edge"><title>Node1&#45;&gt;Node7</title>
<path fill="none" stroke="midnightblue" d="M184.062,-331.177C201.359,-321.241 224.148,-308.149 238.935,-299.655"/>
<polygon fill="midnightblue" stroke="midnightblue" points="182.03,-328.308 175.103,-336.324 185.517,-334.378 182.03,-328.308"/>
</g>
<!-- Node8 -->
<g id="node8" class="node"><title>Node8</title>
<g id="a_node8"><a xlink:href="DepthCamera_8h.xhtml" target="_top" xlink:title="DepthCamera.h">
<polygon fill="none" stroke="black" points="1073,-280.5 1073,-299.5 1159,-299.5 1159,-280.5 1073,-280.5"/>
<text text-anchor="middle" x="1116" y="-287.5" font-family="Helvetica,sans-Serif" font-size="10.00">DepthCamera.h</text>
</a>
</g>
</g>
<!-- Node1&#45;&gt;Node8 -->
<g id="edge7" class="edge"><title>Node1&#45;&gt;Node8</title>
<path fill="none" stroke="midnightblue" d="M211.844,-342.072C381.228,-332.504 916.404,-302.274 1072.73,-293.444"/>
<polygon fill="midnightblue" stroke="midnightblue" points="211.48,-338.586 201.693,-342.645 211.874,-345.575 211.48,-338.586"/>
</g>
<!-- Node50 -->
<g id="node50" class="node"><title>Node50</title>
<g id="a_node50"><a xlink:href="Downloader_8cpp.xhtml" target="_top" xlink:title="Downloader.cpp">
<polygon fill="none" stroke="black" points="1177.5,-280.5 1177.5,-299.5 1264.5,-299.5 1264.5,-280.5 1177.5,-280.5"/>
<text text-anchor="middle" x="1221" y="-287.5" font-family="Helvetica,sans-Serif" font-size="10.00">Downloader.cpp</text>
</a>
</g>
</g>
<!-- Node1&#45;&gt;Node50 -->
<g id="edge69" class="edge"><title>Node1&#45;&gt;Node50</title>
<path fill="none" stroke="midnightblue" d="M212.151,-344.941C361.511,-344.283 803.558,-338.927 1168,-300 1171.06,-299.673 1174.22,-299.281 1177.39,-298.845"/>
<polygon fill="midnightblue" stroke="midnightblue" points="211.894,-341.442 201.908,-344.98 211.921,-348.442 211.894,-341.442"/>
</g>
<!-- Node9 -->
<g id="node9" class="node"><title>Node9</title>
<g id="a_node9"><a xlink:href="PCLViewer_8h.xhtml" target="_top" xlink:title="PCLViewer.h">
<polygon fill="none" stroke="black" points="1106,-112.5 1106,-131.5 1180,-131.5 1180,-112.5 1106,-112.5"/>
<text text-anchor="middle" x="1143" y="-119.5" font-family="Helvetica,sans-Serif" font-size="10.00">PCLViewer.h</text>
</a>
</g>
</g>
<!-- Node8&#45;&gt;Node9 -->
<g id="edge8" class="edge"><title>Node8&#45;&gt;Node9</title>
<path fill="none" stroke="midnightblue" d="M1157.12,-277.423C1184.86,-268.688 1217.83,-256.168 1226,-244 1244.83,-215.956 1243.28,-197.024 1226,-168 1215.02,-149.55 1193.54,-138.199 1175.18,-131.512"/>
<polygon fill="midnightblue" stroke="midnightblue" points="1155.73,-274.187 1147.2,-280.462 1157.78,-280.881 1155.73,-274.187"/>
</g>
<!-- Node15 -->
<g id="node15" class="node"><title>Node15</title>
<g id="a_node15"><a xlink:href="ToFCameraBase_8h.xhtml" target="_top" xlink:title="ToFCameraBase.h">
<polygon fill="none" stroke="black" points="655.5,-224.5 655.5,-243.5 754.5,-243.5 754.5,-224.5 655.5,-224.5"/>
<text text-anchor="middle" x="705" y="-231.5" font-family="Helvetica,sans-Serif" font-size="10.00">ToFCameraBase.h</text>
</a>
</g>
</g>
<!-- Node8&#45;&gt;Node15 -->
<g id="edge14" class="edge"><title>Node8&#45;&gt;Node15</title>
<path fill="none" stroke="midnightblue" d="M1062.92,-282.296C994.825,-273.655 873.071,-258.065 769,-244 764.33,-243.369 759.469,-242.703 754.607,-242.03"/>
<polygon fill="midnightblue" stroke="midnightblue" points="1062.61,-285.785 1072.97,-283.571 1063.49,-278.841 1062.61,-285.785"/>
</g>
<!-- Node24 -->
<g id="node24" class="node"><title>Node24</title>
<g id="a_node24"><a xlink:href="DepthCamera_8cpp.xhtml" target="_top" xlink:title="DepthCamera.cpp">
<polygon fill="none" stroke="black" points="1278,-224.5 1278,-243.5 1374,-243.5 1374,-224.5 1278,-224.5"/>
<text text-anchor="middle" x="1326" y="-231.5" font-family="Helvetica,sans-Serif" font-size="10.00">DepthCamera.cpp</text>
</a>
</g>
</g>
<!-- Node8&#45;&gt;Node24 -->
<g id="edge27" class="edge"><title>Node8&#45;&gt;Node24</title>
<path fill="none" stroke="midnightblue" d="M1159.19,-277.894C1198.85,-267.697 1256.77,-252.802 1292.88,-243.516"/>
<polygon fill="midnightblue" stroke="midnightblue" points="1158.09,-274.563 1149.28,-280.444 1159.83,-281.343 1158.09,-274.563"/>
</g>
<!-- Node25 -->
<g id="node25" class="node"><title>Node25</title>
<g id="a_node25"><a xlink:href="DepthCameraFactory_8h.xhtml" target="_top" xlink:title="DepthCameraFactory.h">
<polygon fill="none" stroke="black" points="1889.5,-224.5 1889.5,-243.5 2008.5,-243.5 2008.5,-224.5 1889.5,-224.5"/>
<text text-anchor="middle" x="1949" y="-231.5" font-family="Helvetica,sans-Serif" font-size="10.00">DepthCameraFactory.h</text>
</a>
</g>
</g>
<!-- Node8&#45;&gt;Node25 -->
<g id="edge28" class="edge"><title>Node8&#45;&gt;Node25</title>
<path fill="none" stroke="midnightblue" d="M1169.23,-279.996C1443.66,-248.962 1759.48,-239.076 1889.03,-236.131"/>
<polygon fill="midnightblue" stroke="midnightblue" points="1168.61,-276.543 1159.08,-281.156 1169.41,-283.498 1168.61,-276.543"/>
</g>
<!-- Node41 -->
<g id="node41" class="node"><title>Node41</title>
<g id="a_node41"><a xlink:href="FrameStream_8cpp.xhtml" target="_top" xlink:title="FrameStream.cpp">
<polygon fill="none" stroke="black" points="1504.5,-56.5 1504.5,-75.5 1599.5,-75.5 1599.5,-56.5 1504.5,-56.5"/>
<text text-anchor="middle" x="1552" y="-63.5" font-family="Helvetica,sans-Serif" font-size="10.00">FrameStream.cpp</text>
</a>
</g>
</g>
<!-- Node8&#45;&gt;Node41 -->
<g id="edge62" class="edge"><title>Node8&#45;&gt;Node41</title>
<path fill="none" stroke="midnightblue" d="M1169.27,-279.832C1265.37,-264.295 1293.55,-271.794 1383,-244 1488.16,-211.326 1548.12,-226.882 1604,-132 1616.91,-110.084 1587.49,-87.5799 1567.84,-75.655"/>
<polygon fill="midnightblue" stroke="midnightblue" points="1168.42,-276.426 1159.13,-281.517 1169.57,-283.332 1168.42,-276.426"/>
</g>
<!-- Node43 -->
<g id="node43" class="node"><title>Node43</title>
<g id="a_node43"><a xlink:href="FilterFactory_8h.xhtml" target="_top" xlink:title="FilterFactory.h">
<polygon fill="none" stroke="black" points="778,-224.5 778,-243.5 858,-243.5 858,-224.5 778,-224.5"/>
<text text-anchor="middle" x="818" y="-231.5" font-family="Helvetica,sans-Serif" font-size="10.00">FilterFactory.h</text>
</a>
</g>
</g>
<!-- Node8&#45;&gt;Node43 -->
<g id="edge57" class="edge"><title>Node8&#45;&gt;Node43</title>
<path fill="none" stroke="midnightblue" d="M1062.79,-279.429C1012.37,-270.349 934.522,-256.302 867,-244 864.107,-243.473 861.118,-242.927 858.11,-242.377"/>
<polygon fill="midnightblue" stroke="midnightblue" points="1062.35,-282.906 1072.81,-281.233 1063.59,-276.016 1062.35,-282.906"/>
</g>
<!-- Node46 -->
<g id="node46" class="node"><title>Node46</title>
<g id="a_node46"><a xlink:href="PointCloudFrameGenerator_8cpp.xhtml" target="_top" xlink:title="PointCloudFrameGenerator.cpp">
<polygon fill="none" stroke="black" points="876,-224.5 876,-243.5 1030,-243.5 1030,-224.5 876,-224.5"/>
<text text-anchor="middle" x="953" y="-231.5" font-family="Helvetica,sans-Serif" font-size="10.00">PointCloudFrameGenerator.cpp</text>
</a>
</g>
</g>
<!-- Node8&#45;&gt;Node46 -->
<g id="edge63" class="edge"><title>Node8&#45;&gt;Node46</title>
<path fill="none" stroke="midnightblue" d="M1080.3,-277.172C1049.6,-267.004 1006.08,-252.585 978.707,-243.516"/>
<polygon fill="midnightblue" stroke="midnightblue" points="1079.58,-280.621 1090.17,-280.444 1081.78,-273.976 1079.58,-280.621"/>
</g>
<!-- Node47 -->
<g id="node47" class="node"><title>Node47</title>
<g id="a_node47"><a xlink:href="PyDepthCameraCallback_8h.xhtml" target="_top" xlink:title="PyDepthCameraCallback.h">
<polygon fill="none" stroke="black" points="1048,-224.5 1048,-243.5 1184,-243.5 1184,-224.5 1048,-224.5"/>
<text text-anchor="middle" x="1116" y="-231.5" font-family="Helvetica,sans-Serif" font-size="10.00">PyDepthCameraCallback.h</text>
</a>
</g>
</g>
<!-- Node8&#45;&gt;Node47 -->
<g id="edge64" class="edge"><title>Node8&#45;&gt;Node47</title>
<path fill="none" stroke="midnightblue" d="M1116,-269.805C1116,-260.91 1116,-250.78 1116,-243.751"/>
<polygon fill="midnightblue" stroke="midnightblue" points="1112.5,-270.083 1116,-280.083 1119.5,-270.083 1112.5,-270.083"/>
</g>
<!-- Node48 -->
<g id="node48" class="node"><title>Node48</title>
<g id="a_node48"><a xlink:href="PCLGrabber_8h.xhtml" target="_top" xlink:title="PCLGrabber.h">
<polygon fill="none" stroke="black" points="1008.5,-112.5 1008.5,-131.5 1087.5,-131.5 1087.5,-112.5 1008.5,-112.5"/>
<text text-anchor="middle" x="1048" y="-119.5" font-family="Helvetica,sans-Serif" font-size="10.00">PCLGrabber.h</text>
</a>
</g>
</g>
<!-- Node8&#45;&gt;Node48 -->
<g id="edge65" class="edge"><title>Node8&#45;&gt;Node48</title>
<path fill="none" stroke="midnightblue" d="M1151.45,-276.529C1177.01,-265.327 1205.06,-247.102 1193,-224 1167.51,-175.185 1106.48,-145.17 1072.28,-131.59"/>
<polygon fill="midnightblue" stroke="midnightblue" points="1149.78,-273.432 1141.86,-280.474 1152.44,-279.905 1149.78,-273.432"/>
</g>
<!-- Node10 -->
<g id="node10" class="node"><title>Node10</title>
<g id="a_node10"><a xlink:href="CLIManager_8h.xhtml" target="_top" xlink:title="CLIManager.h">
<polygon fill="none" stroke="black" points="1363,-56.5 1363,-75.5 1441,-75.5 1441,-56.5 1363,-56.5"/>
<text text-anchor="middle" x="1402" y="-63.5" font-family="Helvetica,sans-Serif" font-size="10.00">CLIManager.h</text>
</a>
</g>
</g>
<!-- Node9&#45;&gt;Node10 -->
<g id="edge9" class="edge"><title>Node9&#45;&gt;Node10</title>
<path fill="none" stroke="midnightblue" d="M1189.92,-111.216C1239.41,-100.898 1316.5,-84.8254 1362.84,-75.1643"/>
<polygon fill="midnightblue" stroke="midnightblue" points="1189.18,-107.796 1180.11,-113.263 1190.61,-114.648 1189.18,-107.796"/>
</g>
<!-- Node13 -->
<g id="node13" class="node"><title>Node13</title>
<g id="a_node13"><a xlink:href="PCLViewer_8cpp.xhtml" target="_top" xlink:title="PCLViewer.cpp">
<polygon fill="none" stroke="black" points="1103.5,-56.5 1103.5,-75.5 1188.5,-75.5 1188.5,-56.5 1103.5,-56.5"/>
<text text-anchor="middle" x="1146" y="-63.5" font-family="Helvetica,sans-Serif" font-size="10.00">PCLViewer.cpp</text>
</a>
</g>
</g>
<!-- Node9&#45;&gt;Node13 -->
<g id="edge12" class="edge"><title>Node9&#45;&gt;Node13</title>
<path fill="none" stroke="midnightblue" d="M1144.07,-101.805C1144.56,-92.9102 1145.12,-82.7798 1145.51,-75.7511"/>
<polygon fill="midnightblue" stroke="midnightblue" points="1140.56,-101.904 1143.5,-112.083 1147.54,-102.293 1140.56,-101.904"/>
</g>
<!-- Node14 -->
<g id="node14" class="node"><title>Node14</title>
<g id="a_node14"><a xlink:href="SimpleVoxelViewer_8cpp.xhtml" target="_top" xlink:title="SimpleVoxelViewer.cpp">
<polygon fill="none" stroke="black" points="1219,-56.5 1219,-75.5 1339,-75.5 1339,-56.5 1219,-56.5"/>
<text text-anchor="middle" x="1279" y="-63.5" font-family="Helvetica,sans-Serif" font-size="10.00">SimpleVoxelViewer.cpp</text>
</a>
</g>
</g>
<!-- Node9&#45;&gt;Node14 -->
<g id="edge13" class="edge"><title>Node9&#45;&gt;Node14</title>
<path fill="none" stroke="midnightblue" d="M1174.13,-108.638C1199.66,-98.504 1235.11,-84.4274 1257.55,-75.5164"/>
<polygon fill="midnightblue" stroke="midnightblue" points="1172.55,-105.5 1164.55,-112.444 1175.14,-112.006 1172.55,-105.5"/>
</g>
<!-- Node11 -->
<g id="node11" class="node"><title>Node11</title>
<g id="a_node11"><a xlink:href="CLIManager_8cpp.xhtml" target="_top" xlink:title="CLIManager.cpp">
<polygon fill="none" stroke="black" points="1143.5,-0.5 1143.5,-19.5 1232.5,-19.5 1232.5,-0.5 1143.5,-0.5"/>
<text text-anchor="middle" x="1188" y="-7.5" font-family="Helvetica,sans-Serif" font-size="10.00">CLIManager.cpp</text>
</a>
</g>
</g>
<!-- Node10&#45;&gt;Node11 -->
<g id="edge10" class="edge"><title>Node10&#45;&gt;Node11</title>
<path fill="none" stroke="midnightblue" d="M1358.24,-53.959C1317.83,-43.7598 1258.63,-28.8217 1221.75,-19.5164"/>
<polygon fill="midnightblue" stroke="midnightblue" points="1357.54,-57.3904 1368.09,-56.4435 1359.25,-50.6032 1357.54,-57.3904"/>
</g>
<!-- Node12 -->
<g id="node12" class="node"><title>Node12</title>
<g id="a_node12"><a xlink:href="VoxelCLI_8cpp.xhtml" target="_top" xlink:title="VoxelCLI.cpp">
<polygon fill="none" stroke="black" points="1399,-0.5 1399,-19.5 1475,-19.5 1475,-0.5 1399,-0.5"/>
<text text-anchor="middle" x="1437" y="-7.5" font-family="Helvetica,sans-Serif" font-size="10.00">VoxelCLI.cpp</text>
</a>
</g>
</g>
<!-- Node10&#45;&gt;Node12 -->
<g id="edge11" class="edge"><title>Node10&#45;&gt;Node12</title>
<path fill="none" stroke="midnightblue" d="M1413.3,-47.5656C1419.32,-38.2747 1426.47,-27.2484 1431.33,-19.7511"/>
<polygon fill="midnightblue" stroke="midnightblue" points="1410.28,-45.7878 1407.78,-56.083 1416.16,-49.5951 1410.28,-45.7878"/>
</g>
<!-- Node16 -->
<g id="node16" class="node"><title>Node16</title>
<g id="a_node16"><a xlink:href="ToFCamera_8h.xhtml" target="_top" xlink:title="ToFCamera.h">
<polygon fill="none" stroke="black" points="554.5,-168.5 554.5,-187.5 631.5,-187.5 631.5,-168.5 554.5,-168.5"/>
<text text-anchor="middle" x="593" y="-175.5" font-family="Helvetica,sans-Serif" font-size="10.00">ToFCamera.h</text>
</a>
</g>
</g>
<!-- Node15&#45;&gt;Node16 -->
<g id="edge15" class="edge"><title>Node15&#45;&gt;Node16</title>
<path fill="none" stroke="midnightblue" d="M677.751,-219.862C656.984,-209.849 628.977,-196.346 610.95,-187.655"/>
<polygon fill="midnightblue" stroke="midnightblue" points="676.477,-223.134 687.005,-224.324 679.518,-216.828 676.477,-223.134"/>
</g>
<!-- Node23 -->
<g id="node23" class="node"><title>Node23</title>
<g id="a_node23"><a xlink:href="ToFCameraBase_8cpp.xhtml" target="_top" xlink:title="ToFCameraBase.cpp">
<polygon fill="none" stroke="black" points="650,-168.5 650,-187.5 760,-187.5 760,-168.5 650,-168.5"/>
<text text-anchor="middle" x="705" y="-175.5" font-family="Helvetica,sans-Serif" font-size="10.00">ToFCameraBase.cpp</text>
</a>
</g>
</g>
<!-- Node15&#45;&gt;Node23 -->
<g id="edge26" class="edge"><title>Node15&#45;&gt;Node23</title>
<path fill="none" stroke="midnightblue" d="M705,-213.805C705,-204.91 705,-194.78 705,-187.751"/>
<polygon fill="midnightblue" stroke="midnightblue" points="701.5,-214.083 705,-224.083 708.5,-214.083 701.5,-214.083"/>
</g>
<!-- Node16&#45;&gt;Node3 -->
<g id="edge18" class="edge"><title>Node16&#45;&gt;Node3</title>
<path fill="none" stroke="midnightblue" d="M544.244,-170.777C480.283,-162.502 364.589,-147.151 266,-132 262.956,-131.532 259.816,-131.035 256.655,-130.525"/>
<polygon fill="midnightblue" stroke="midnightblue" points="544.068,-174.283 554.433,-172.092 544.964,-167.341 544.068,-174.283"/>
</g>
<!-- Node17 -->
<g id="node17" class="node"><title>Node17</title>
<g id="a_node17"><a xlink:href="ToFCalculusCamera_8h.xhtml" target="_top" xlink:title="ToFCalculusCamera.h">
<polygon fill="none" stroke="red" points="409.5,-112.5 409.5,-131.5 524.5,-131.5 524.5,-112.5 409.5,-112.5"/>
<text text-anchor="middle" x="467" y="-119.5" font-family="Helvetica,sans-Serif" font-size="10.00">ToFCalculusCamera.h</text>
</a>
</g>
</g>
<!-- Node16&#45;&gt;Node17 -->
<g id="edge16" class="edge"><title>Node16&#45;&gt;Node17</title>
<path fill="none" stroke="midnightblue" d="M563.84,-164.503C540.219,-154.38 507.572,-140.388 486.872,-131.516"/>
<polygon fill="midnightblue" stroke="midnightblue" points="562.465,-167.721 573.035,-168.444 565.222,-161.287 562.465,-167.721"/>
</g>
<!-- Node18 -->
<g id="node18" class="node"><title>Node18</title>
<g id="a_node18"><a xlink:href="ToFCameraFactoryBase_8cpp.xhtml" target="_top" xlink:title="ToFCameraFactoryBase.cpp">
<polygon fill="none" stroke="black" points="1341.5,-112.5 1341.5,-131.5 1484.5,-131.5 1484.5,-112.5 1341.5,-112.5"/>
<text text-anchor="middle" x="1413" y="-119.5" font-family="Helvetica,sans-Serif" font-size="10.00">ToFCameraFactoryBase.cpp</text>
</a>
</g>
</g>
<!-- Node16&#45;&gt;Node18 -->
<g id="edge19" class="edge"><title>Node16&#45;&gt;Node18</title>
<path fill="none" stroke="midnightblue" d="M641.764,-168.091C948.09,-132.122 1028.78,-156.723 1332,-132 1335.1,-131.747 1338.27,-131.471 1341.47,-131.178"/>
<polygon fill="midnightblue" stroke="midnightblue" points="641.222,-164.631 631.704,-169.285 642.047,-171.582 641.222,-164.631"/>
</g>
<!-- Node19 -->
<g id="node19" class="node"><title>Node19</title>
<g id="a_node19"><a xlink:href="ToFDepthFrameGenerator_8cpp.xhtml" target="_top" xlink:title="ToFDepthFrameGenerator.cpp">
<polygon fill="none" stroke="black" points="661.5,-112.5 661.5,-131.5 810.5,-131.5 810.5,-112.5 661.5,-112.5"/>
<text text-anchor="middle" x="736" y="-119.5" font-family="Helvetica,sans-Serif" font-size="10.00">ToFDepthFrameGenerator.cpp</text>
</a>
</g>
</g>
<!-- Node16&#45;&gt;Node19 -->
<g id="edge20" class="edge"><title>Node16&#45;&gt;Node19</title>
<path fill="none" stroke="midnightblue" d="M625.027,-164.906C651.912,-154.754 689.641,-140.506 713.447,-131.516"/>
<polygon fill="midnightblue" stroke="midnightblue" points="623.778,-161.636 615.659,-168.444 626.25,-168.185 623.778,-161.636"/>
</g>
<!-- Node20 -->
<g id="node20" class="node"><title>Node20</title>
<g id="a_node20"><a xlink:href="ToFFrameGenerator_8cpp.xhtml" target="_top" xlink:title="ToFFrameGenerator.cpp">
<polygon fill="none" stroke="black" points="828.5,-112.5 828.5,-131.5 951.5,-131.5 951.5,-112.5 828.5,-112.5"/>
<text text-anchor="middle" x="890" y="-119.5" font-family="Helvetica,sans-Serif" font-size="10.00">ToFFrameGenerator.cpp</text>
</a>
</g>
</g>
<!-- Node16&#45;&gt;Node20 -->
<g id="edge21" class="edge"><title>Node16&#45;&gt;Node20</title>
<path fill="none" stroke="midnightblue" d="M641.76,-167.87C717.904,-153.87 794.265,-140.131 842.248,-131.534"/>
<polygon fill="midnightblue" stroke="midnightblue" points="640.71,-164.504 631.508,-169.757 641.977,-171.389 640.71,-164.504"/>
</g>
<!-- Node21 -->
<g id="node21" class="node"><title>Node21</title>
<g id="a_node21"><a xlink:href="ToFHaddockCamera_8h.xhtml" target="_top" xlink:title="ToFHaddockCamera.h">
<polygon fill="none" stroke="red" points="275,-112.5 275,-131.5 391,-131.5 391,-112.5 275,-112.5"/>
<text text-anchor="middle" x="333" y="-119.5" font-family="Helvetica,sans-Serif" font-size="10.00">ToFHaddockCamera.h</text>
</a>
</g>
</g>
<!-- Node16&#45;&gt;Node21 -->
<g id="edge22" class="edge"><title>Node16&#45;&gt;Node21</title>
<path fill="none" stroke="midnightblue" d="M544.286,-166.883C495.164,-156.68 420.179,-141.106 374.004,-131.516"/>
<polygon fill="midnightblue" stroke="midnightblue" points="543.853,-170.367 554.356,-168.974 545.277,-163.513 543.853,-170.367"/>
</g>
<!-- Node22 -->
<g id="node22" class="node"><title>Node22</title>
<g id="a_node22"><a xlink:href="ToFTintinCamera_8h.xhtml" target="_top" xlink:title="ToFTintinCamera.h">
<polygon fill="none" stroke="red" points="542.5,-112.5 542.5,-131.5 643.5,-131.5 643.5,-112.5 542.5,-112.5"/>
<text text-anchor="middle" x="593" y="-119.5" font-family="Helvetica,sans-Serif" font-size="10.00">ToFTintinCamera.h</text>
</a>
</g>
</g>
<!-- Node16&#45;&gt;Node22 -->
<g id="edge24" class="edge"><title>Node16&#45;&gt;Node22</title>
<path fill="none" stroke="midnightblue" d="M593,-157.805C593,-148.91 593,-138.78 593,-131.751"/>
<polygon fill="midnightblue" stroke="midnightblue" points="589.5,-158.083 593,-168.083 596.5,-158.083 589.5,-158.083"/>
</g>
<!-- Node17&#45;&gt;Node2 -->
<g id="edge17" class="edge"><title>Node17&#45;&gt;Node2</title>
<path fill="none" stroke="midnightblue" d="M439.336,-108.232C417.451,-98.1312 387.503,-84.3091 368.452,-75.5164"/>
<polygon fill="midnightblue" stroke="midnightblue" points="437.915,-111.431 448.461,-112.444 440.848,-105.075 437.915,-111.431"/>
</g>
<!-- Node21&#45;&gt;Node4 -->
<g id="edge23" class="edge"><title>Node21&#45;&gt;Node4</title>
<path fill="none" stroke="midnightblue" d="M280.367,-110.473C229.339,-100.268 152.897,-84.9794 105.582,-75.5164"/>
<polygon fill="midnightblue" stroke="midnightblue" points="279.725,-113.914 290.218,-112.444 281.098,-107.05 279.725,-113.914"/>
</g>
<!-- Node22&#45;&gt;Node5 -->
<g id="edge25" class="edge"><title>Node22&#45;&gt;Node5</title>
<path fill="none" stroke="midnightblue" d="M581.377,-103.566C575.183,-94.2747 567.832,-83.2484 562.834,-75.7511"/>
<polygon fill="midnightblue" stroke="midnightblue" points="578.596,-105.704 587.055,-112.083 584.42,-101.821 578.596,-105.704"/>
</g>
<!-- Node26 -->
<g id="node26" class="node"><title>Node26</title>
<g id="a_node26"><a xlink:href="CalculusCDKCameraFactory_8h.xhtml" target="_top" xlink:title="CalculusCDKCameraFactory.h">
<polygon fill="none" stroke="black" points="1796,-112.5 1796,-131.5 1948,-131.5 1948,-112.5 1796,-112.5"/>
<text text-anchor="middle" x="1872" y="-119.5" font-family="Helvetica,sans-Serif" font-size="10.00">CalculusCDKCameraFactory.h</text>
</a>
</g>
</g>
<!-- Node25&#45;&gt;Node26 -->
<g id="edge29" class="edge"><title>Node25&#45;&gt;Node26</title>
<path fill="none" stroke="midnightblue" d="M1937.07,-215.957C1920.38,-192.118 1890.7,-149.709 1878.01,-131.591"/>
<polygon fill="midnightblue" stroke="midnightblue" points="1934.36,-218.183 1942.96,-224.368 1940.09,-214.169 1934.36,-218.183"/>
</g>
<!-- Node28 -->
<g id="node28" class="node"><title>Node28</title>
<g id="a_node28"><a xlink:href="HaddockCDKCameraFactory_8h.xhtml" target="_top" xlink:title="HaddockCDKCameraFactory.h">
<polygon fill="none" stroke="black" points="1966.5,-112.5 1966.5,-131.5 2119.5,-131.5 2119.5,-112.5 1966.5,-112.5"/>
<text text-anchor="middle" x="2043" y="-119.5" font-family="Helvetica,sans-Serif" font-size="10.00">HaddockCDKCameraFactory.h</text>
</a>
</g>
</g>
<!-- Node25&#45;&gt;Node28 -->
<g id="edge31" class="edge"><title>Node25&#45;&gt;Node28</title>
<path fill="none" stroke="midnightblue" d="M1950.81,-214.144C1952.96,-200.19 1957.68,-181.365 1968,-168 1981.27,-150.811 2003.12,-138.784 2019.82,-131.516"/>
<polygon fill="midnightblue" stroke="midnightblue" points="1947.33,-213.737 1949.57,-224.092 1954.28,-214.601 1947.33,-213.737"/>
</g>
<!-- Node30 -->
<g id="node30" class="node"><title>Node30</title>
<g id="a_node30"><a xlink:href="RTS5825CameraFactory_8h.xhtml" target="_top" xlink:title="RTS5825CameraFactory.h">
<polygon fill="none" stroke="black" points="2138,-112.5 2138,-131.5 2272,-131.5 2272,-112.5 2138,-112.5"/>
<text text-anchor="middle" x="2205" y="-119.5" font-family="Helvetica,sans-Serif" font-size="10.00">RTS5825CameraFactory.h</text>
</a>
</g>
</g>
<!-- Node25&#45;&gt;Node30 -->
<g id="edge33" class="edge"><title>Node25&#45;&gt;Node30</title>
<path fill="none" stroke="midnightblue" d="M2011.03,-222.405C2043.9,-215.345 2084.32,-204.309 2118,-188 2149.22,-172.881 2180.51,-145.916 2195.64,-131.945"/>
<polygon fill="midnightblue" stroke="midnightblue" points="2010.17,-219.009 2001.09,-224.469 2011.59,-225.863 2010.17,-219.009"/>
</g>
<!-- Node32 -->
<g id="node32" class="node"><title>Node32</title>
<g id="a_node32"><a xlink:href="TintinCDKCameraFactory_8h.xhtml" target="_top" xlink:title="TintinCDKCameraFactory.h">
<polygon fill="none" stroke="black" points="2290,-112.5 2290,-131.5 2428,-131.5 2428,-112.5 2290,-112.5"/>
<text text-anchor="middle" x="2359" y="-119.5" font-family="Helvetica,sans-Serif" font-size="10.00">TintinCDKCameraFactory.h</text>
</a>
</g>
</g>
<!-- Node25&#45;&gt;Node32 -->
<g id="edge35" class="edge"><title>Node25&#45;&gt;Node32</title>
<path fill="none" stroke="midnightblue" d="M2001.03,-222.373C2041.33,-213.867 2098.46,-201.21 2148,-188 2215.59,-169.975 2294.05,-144.616 2333.52,-131.54"/>
<polygon fill="midnightblue" stroke="midnightblue" points="2000.22,-218.965 1991.16,-224.445 2001.66,-225.816 2000.22,-218.965"/>
</g>
<!-- Node34 -->
<g id="node34" class="node"><title>Node34</title>
<g id="a_node34"><a xlink:href="Voxel14CameraFactory_8h.xhtml" target="_top" xlink:title="Voxel14CameraFactory.h">
<polygon fill="none" stroke="black" points="2446,-112.5 2446,-131.5 2574,-131.5 2574,-112.5 2446,-112.5"/>
<text text-anchor="middle" x="2510" y="-119.5" font-family="Helvetica,sans-Serif" font-size="10.00">Voxel14CameraFactory.h</text>
</a>
</g>
</g>
<!-- Node25&#45;&gt;Node34 -->
<g id="edge37" class="edge"><title>Node25&#45;&gt;Node34</title>
<path fill="none" stroke="midnightblue" d="M2008.05,-222.718C2058.35,-213.856 2132.5,-200.546 2197,-188 2295.61,-168.818 2411.24,-144.268 2470.54,-131.529"/>
<polygon fill="midnightblue" stroke="midnightblue" points="2007.25,-219.305 1998.01,-224.484 2008.46,-226.199 2007.25,-219.305"/>
</g>
<!-- Node36 -->
<g id="node36" class="node"><title>Node36</title>
<g id="a_node36"><a xlink:href="VoxelDCameraFactory_8h.xhtml" target="_top" xlink:title="VoxelDCameraFactory.h">
<polygon fill="none" stroke="black" points="1652.5,-112.5 1652.5,-131.5 1777.5,-131.5 1777.5,-112.5 1652.5,-112.5"/>
<text text-anchor="middle" x="1715" y="-119.5" font-family="Helvetica,sans-Serif" font-size="10.00">VoxelDCameraFactory.h</text>
</a>
</g>
</g>
<!-- Node25&#45;&gt;Node36 -->
<g id="edge39" class="edge"><title>Node25&#45;&gt;Node36</title>
<path fill="none" stroke="midnightblue" d="M1921.39,-220.021C1873,-197.272 1774.12,-150.791 1733.28,-131.591"/>
<polygon fill="midnightblue" stroke="midnightblue" points="1920.1,-223.282 1930.64,-224.368 1923.08,-216.947 1920.1,-223.282"/>
</g>
<!-- Node38 -->
<g id="node38" class="node"><title>Node38</title>
<g id="a_node38"><a xlink:href="ToFCameraFactoryBase_8h.xhtml" target="_top" xlink:title="ToFCameraFactoryBase.h">
<polygon fill="none" stroke="black" points="1977,-168.5 1977,-187.5 2109,-187.5 2109,-168.5 1977,-168.5"/>
<text text-anchor="middle" x="2043" y="-175.5" font-family="Helvetica,sans-Serif" font-size="10.00">ToFCameraFactoryBase.h</text>
</a>
</g>
</g>
<!-- Node25&#45;&gt;Node38 -->
<g id="edge41" class="edge"><title>Node25&#45;&gt;Node38</title>
<path fill="none" stroke="midnightblue" d="M1973.06,-219.177C1990.36,-209.241 2013.15,-196.149 2027.93,-187.655"/>
<polygon fill="midnightblue" stroke="midnightblue" points="1971.03,-216.308 1964.1,-224.324 1974.52,-222.378 1971.03,-216.308"/>
</g>
<!-- Node39 -->
<g id="node39" class="node"><title>Node39</title>
<g id="a_node39"><a xlink:href="DepthCameraLibrary_8h.xhtml" target="_top" xlink:title="DepthCameraLibrary.h">
<polygon fill="none" stroke="black" points="1379.5,-168.5 1379.5,-187.5 1494.5,-187.5 1494.5,-168.5 1379.5,-168.5"/>
<text text-anchor="middle" x="1437" y="-175.5" font-family="Helvetica,sans-Serif" font-size="10.00">DepthCameraLibrary.h</text>
</a>
</g>
</g>
<!-- Node25&#45;&gt;Node39 -->
<g id="edge49" class="edge"><title>Node25&#45;&gt;Node39</title>
<path fill="none" stroke="midnightblue" d="M1879.07,-225.624C1777.08,-214.868 1589.41,-195.075 1494.78,-185.094"/>
<polygon fill="midnightblue" stroke="midnightblue" points="1878.95,-229.132 1889.27,-226.7 1879.69,-222.17 1878.95,-229.132"/>
</g>
<!-- Node27 -->
<g id="node27" class="node"><title>Node27</title>
<g id="a_node27"><a xlink:href="CalculusCDKCameraFactory_8cpp.xhtml" target="_top" xlink:title="CalculusCDKCameraFactory.cpp">
<polygon fill="none" stroke="black" points="1774.5,-56.5 1774.5,-75.5 1937.5,-75.5 1937.5,-56.5 1774.5,-56.5"/>
<text text-anchor="middle" x="1856" y="-63.5" font-family="Helvetica,sans-Serif" font-size="10.00">CalculusCDKCameraFactory.cpp</text>
</a>
</g>
</g>
<!-- Node26&#45;&gt;Node27 -->
<g id="edge30" class="edge"><title>Node26&#45;&gt;Node27</title>
<path fill="none" stroke="midnightblue" d="M1866.49,-102.396C1863.81,-93.362 1860.72,-82.936 1858.59,-75.7511"/>
<polygon fill="midnightblue" stroke="midnightblue" points="1863.16,-103.489 1869.36,-112.083 1869.87,-101.501 1863.16,-103.489"/>
</g>
<!-- Node29 -->
<g id="node29" class="node"><title>Node29</title>
<g id="a_node29"><a xlink:href="HaddockCDKCameraFactory_8cpp.xhtml" target="_top" xlink:title="HaddockCDKCameraFactory.cpp">
<polygon fill="none" stroke="black" points="1956,-56.5 1956,-75.5 2120,-75.5 2120,-56.5 1956,-56.5"/>
<text text-anchor="middle" x="2038" y="-63.5" font-family="Helvetica,sans-Serif" font-size="10.00">HaddockCDKCameraFactory.cpp</text>
</a>
</g>
</g>
<!-- Node28&#45;&gt;Node29 -->
<g id="edge32" class="edge"><title>Node28&#45;&gt;Node29</title>
<path fill="none" stroke="midnightblue" d="M2041.25,-102.101C2040.42,-93.1357 2039.47,-82.8579 2038.81,-75.7511"/>
<polygon fill="midnightblue" stroke="midnightblue" points="2037.77,-102.448 2042.17,-112.083 2044.74,-101.803 2037.77,-102.448"/>
</g>
<!-- Node31 -->
<g id="node31" class="node"><title>Node31</title>
<g id="a_node31"><a xlink:href="RTS5825CameraFactory_8cpp.xhtml" target="_top" xlink:title="RTS5825CameraFactory.cpp">
<polygon fill="none" stroke="black" points="2138,-56.5 2138,-75.5 2282,-75.5 2282,-56.5 2138,-56.5"/>
<text text-anchor="middle" x="2210" y="-63.5" font-family="Helvetica,sans-Serif" font-size="10.00">RTS5825CameraFactory.cpp</text>
</a>
</g>
</g>
<!-- Node30&#45;&gt;Node31 -->
<g id="edge34" class="edge"><title>Node30&#45;&gt;Node31</title>
<path fill="none" stroke="midnightblue" d="M2206.75,-102.101C2207.58,-93.1357 2208.53,-82.8579 2209.19,-75.7511"/>
<polygon fill="midnightblue" stroke="midnightblue" points="2203.26,-101.803 2205.83,-112.083 2210.23,-102.448 2203.26,-101.803"/>
</g>
<!-- Node33 -->
<g id="node33" class="node"><title>Node33</title>
<g id="a_node33"><a xlink:href="TintinCDKCameraFactory_8cpp.xhtml" target="_top" xlink:title="TintinCDKCameraFactory.cpp">
<polygon fill="none" stroke="black" points="2300.5,-56.5 2300.5,-75.5 2449.5,-75.5 2449.5,-56.5 2300.5,-56.5"/>
<text text-anchor="middle" x="2375" y="-63.5" font-family="Helvetica,sans-Serif" font-size="10.00">TintinCDKCameraFactory.cpp</text>
</a>
</g>
</g>
<!-- Node32&#45;&gt;Node33 -->
<g id="edge36" class="edge"><title>Node32&#45;&gt;Node33</title>
<path fill="none" stroke="midnightblue" d="M2364.51,-102.396C2367.19,-93.362 2370.28,-82.936 2372.41,-75.7511"/>
<polygon fill="midnightblue" stroke="midnightblue" points="2361.13,-101.501 2361.64,-112.083 2367.84,-103.489 2361.13,-101.501"/>
</g>
<!-- Node35 -->
<g id="node35" class="node"><title>Node35</title>
<g id="a_node35"><a xlink:href="Voxel14CameraFactory_8cpp.xhtml" target="_top" xlink:title="Voxel14CameraFactory.cpp">
<polygon fill="none" stroke="black" points="2468,-56.5 2468,-75.5 2606,-75.5 2606,-56.5 2468,-56.5"/>
<text text-anchor="middle" x="2537" y="-63.5" font-family="Helvetica,sans-Serif" font-size="10.00">Voxel14CameraFactory.cpp</text>
</a>
</g>
</g>
<!-- Node34&#45;&gt;Node35 -->
<g id="edge38" class="edge"><title>Node34&#45;&gt;Node35</title>
<path fill="none" stroke="midnightblue" d="M2519.01,-102.983C2523.59,-93.8168 2528.95,-83.0922 2532.62,-75.7511"/>
<polygon fill="midnightblue" stroke="midnightblue" points="2515.8,-101.573 2514.46,-112.083 2522.06,-104.704 2515.8,-101.573"/>
</g>
<!-- Node37 -->
<g id="node37" class="node"><title>Node37</title>
<g id="a_node37"><a xlink:href="VoxelDCameraFactory_8cpp.xhtml" target="_top" xlink:title="VoxelDCameraFactory.cpp">
<polygon fill="none" stroke="black" points="1621.5,-56.5 1621.5,-75.5 1756.5,-75.5 1756.5,-56.5 1621.5,-56.5"/>
<text text-anchor="middle" x="1689" y="-63.5" font-family="Helvetica,sans-Serif" font-size="10.00">VoxelDCameraFactory.cpp</text>
</a>
</g>
</g>
<!-- Node36&#45;&gt;Node37 -->
<g id="edge40" class="edge"><title>Node36&#45;&gt;Node37</title>
<path fill="none" stroke="midnightblue" d="M1706.33,-102.983C1701.91,-93.8168 1696.75,-83.0922 1693.21,-75.7511"/>
<polygon fill="midnightblue" stroke="midnightblue" points="1703.21,-104.591 1710.71,-112.083 1709.52,-101.555 1703.21,-104.591"/>
</g>
<!-- Node38&#45;&gt;Node18 -->
<g id="edge48" class="edge"><title>Node38&#45;&gt;Node18</title>
<path fill="none" stroke="midnightblue" d="M1966.92,-171.51C1860.72,-163.679 1662.05,-148.421 1493,-132 1490.22,-131.73 1487.38,-131.447 1484.52,-131.155"/>
<polygon fill="midnightblue" stroke="midnightblue" points="1966.68,-175.001 1976.91,-172.244 1967.19,-168.02 1966.68,-175.001"/>
</g>
<!-- Node38&#45;&gt;Node26 -->
<g id="edge42" class="edge"><title>Node38&#45;&gt;Node26</title>
<path fill="none" stroke="midnightblue" d="M2005.96,-165.304C1973.74,-155.129 1927.81,-140.625 1898.97,-131.516"/>
<polygon fill="midnightblue" stroke="midnightblue" points="2005.31,-168.77 2015.9,-168.444 2007.42,-162.095 2005.31,-168.77"/>
</g>
<!-- Node38&#45;&gt;Node28 -->
<g id="edge43" class="edge"><title>Node38&#45;&gt;Node28</title>
<path fill="none" stroke="midnightblue" d="M2043,-157.805C2043,-148.91 2043,-138.78 2043,-131.751"/>
<polygon fill="midnightblue" stroke="midnightblue" points="2039.5,-158.083 2043,-168.083 2046.5,-158.083 2039.5,-158.083"/>
</g>
<!-- Node38&#45;&gt;Node30 -->
<g id="edge44" class="edge"><title>Node38&#45;&gt;Node30</title>
<path fill="none" stroke="midnightblue" d="M2078.48,-165.172C2108.99,-155.004 2152.24,-140.585 2179.45,-131.516"/>
<polygon fill="midnightblue" stroke="midnightblue" points="2077.05,-161.961 2068.67,-168.444 2079.26,-168.602 2077.05,-161.961"/>
</g>
<!-- Node38&#45;&gt;Node32 -->
<g id="edge45" class="edge"><title>Node38&#45;&gt;Node32</title>
<path fill="none" stroke="midnightblue" d="M2103.11,-166.727C2162.83,-156.523 2253.33,-141.058 2309.16,-131.516"/>
<polygon fill="midnightblue" stroke="midnightblue" points="2102.34,-163.309 2093.07,-168.444 2103.52,-170.209 2102.34,-163.309"/>
</g>
<!-- Node38&#45;&gt;Node34 -->
<g id="edge46" class="edge"><title>Node38&#45;&gt;Node34</title>
<path fill="none" stroke="midnightblue" d="M2119.65,-168.451C2199.06,-159.546 2326.75,-145.092 2437,-132 2439.92,-131.654 2442.9,-131.297 2445.91,-130.934"/>
<polygon fill="midnightblue" stroke="midnightblue" points="2118.8,-165.025 2109.25,-169.617 2119.58,-171.981 2118.8,-165.025"/>
</g>
<!-- Node38&#45;&gt;Node36 -->
<g id="edge47" class="edge"><title>Node38&#45;&gt;Node36</title>
<path fill="none" stroke="midnightblue" d="M1980.99,-166.791C1919.01,-156.587 1824.81,-141.078 1766.73,-131.516"/>
<polygon fill="midnightblue" stroke="midnightblue" points="1980.59,-170.272 1991.03,-168.444 1981.73,-163.365 1980.59,-170.272"/>
</g>
<!-- Node40 -->
<g id="node40" class="node"><title>Node40</title>
<g id="a_node40"><a xlink:href="CameraSystem_8h.xhtml" target="_top" xlink:title="CameraSystem.h">
<polygon fill="none" stroke="red" points="1502.5,-112.5 1502.5,-131.5 1595.5,-131.5 1595.5,-112.5 1502.5,-112.5"/>
<text text-anchor="middle" x="1549" y="-119.5" font-family="Helvetica,sans-Serif" font-size="10.00">CameraSystem.h</text>
</a>
</g>
</g>
<!-- Node39&#45;&gt;Node40 -->
<g id="edge50" class="edge"><title>Node39&#45;&gt;Node40</title>
<path fill="none" stroke="midnightblue" d="M1464.25,-163.862C1485.02,-153.849 1513.02,-140.346 1531.05,-131.655"/>
<polygon fill="midnightblue" stroke="midnightblue" points="1462.48,-160.828 1454.99,-168.324 1465.52,-167.134 1462.48,-160.828"/>
</g>
<!-- Node42 -->
<g id="node42" class="node"><title>Node42</title>
<g id="a_node42"><a xlink:href="DepthCameraLibrary_8cpp.xhtml" target="_top" xlink:title="DepthCameraLibrary.cpp">
<polygon fill="none" stroke="black" points="1198.5,-112.5 1198.5,-131.5 1323.5,-131.5 1323.5,-112.5 1198.5,-112.5"/>
<text text-anchor="middle" x="1261" y="-119.5" font-family="Helvetica,sans-Serif" font-size="10.00">DepthCameraLibrary.cpp</text>
</a>
</g>
</g>
<!-- Node39&#45;&gt;Node42 -->
<g id="edge56" class="edge"><title>Node39&#45;&gt;Node42</title>
<path fill="none" stroke="midnightblue" d="M1399.31,-165.436C1366.13,-155.255 1318.57,-140.664 1288.76,-131.516"/>
<polygon fill="midnightblue" stroke="midnightblue" points="1398.53,-168.856 1409.11,-168.444 1400.58,-162.164 1398.53,-168.856"/>
</g>
<!-- Node40&#45;&gt;Node6 -->
<g id="edge54" class="edge"><title>Node40&#45;&gt;Node6</title>
<path fill="none" stroke="midnightblue" d="M1492.12,-112.018C1250.05,-85.1683 1186.08,-101.385 948,-76 945.126,-75.6936 942.18,-75.3516 939.208,-74.9852"/>
<polygon fill="midnightblue" stroke="midnightblue" points="1491.97,-115.522 1502.29,-113.159 1492.75,-108.566 1491.97,-115.522"/>
</g>
<!-- Node40&#45;&gt;Node10 -->
<g id="edge51" class="edge"><title>Node40&#45;&gt;Node10</title>
<path fill="none" stroke="midnightblue" d="M1516.08,-108.906C1488.44,-98.7536 1449.66,-84.5063 1425.18,-75.5164"/>
<polygon fill="midnightblue" stroke="midnightblue" points="1515.11,-112.281 1525.71,-112.444 1517.53,-105.71 1515.11,-112.281"/>
</g>
<!-- Node40&#45;&gt;Node12 -->
<g id="edge53" class="edge"><title>Node40&#45;&gt;Node12</title>
<path fill="none" stroke="midnightblue" d="M1529.98,-106.291C1519.36,-97.7995 1506.08,-86.7086 1495,-76 1475.43,-57.0783 1454.7,-32.6302 1444.13,-19.7819"/>
<polygon fill="midnightblue" stroke="midnightblue" points="1527.82,-109.041 1537.84,-112.487 1532.15,-103.545 1527.82,-109.041"/>
</g>
<!-- Node40&#45;&gt;Node14 -->
<g id="edge52" class="edge"><title>Node40&#45;&gt;Node14</title>
<path fill="none" stroke="midnightblue" d="M1496.37,-110.473C1445.34,-100.268 1368.9,-84.9794 1321.58,-75.5164"/>
<polygon fill="midnightblue" stroke="midnightblue" points="1495.73,-113.914 1506.22,-112.444 1497.1,-107.05 1495.73,-113.914"/>
</g>
<!-- Node40&#45;&gt;Node41 -->
<g id="edge55" class="edge"><title>Node40&#45;&gt;Node41</title>
<path fill="none" stroke="midnightblue" d="M1550.07,-101.805C1550.56,-92.9102 1551.12,-82.7798 1551.51,-75.7511"/>
<polygon fill="midnightblue" stroke="midnightblue" points="1546.56,-101.904 1549.5,-112.083 1553.54,-102.293 1546.56,-101.904"/>
</g>
<!-- Node43&#45;&gt;Node39 -->
<g id="edge58" class="edge"><title>Node43&#45;&gt;Node39</title>
<path fill="none" stroke="midnightblue" d="M868.103,-223.988C1061.09,-199.135 1277.99,-186.566 1379.35,-181.587"/>
<polygon fill="midnightblue" stroke="midnightblue" points="867.523,-220.534 858.058,-225.296 868.427,-227.475 867.523,-220.534"/>
</g>
<!-- Node44 -->
<g id="node44" class="node"><title>Node44</title>
<g id="a_node44"><a xlink:href="FilterFactory_8cpp.xhtml" target="_top" xlink:title="FilterFactory.cpp">
<polygon fill="none" stroke="black" points="778,-168.5 778,-187.5 868,-187.5 868,-168.5 778,-168.5"/>
<text text-anchor="middle" x="823" y="-175.5" font-family="Helvetica,sans-Serif" font-size="10.00">FilterFactory.cpp</text>
</a>
</g>
</g>
<!-- Node43&#45;&gt;Node44 -->
<g id="edge59" class="edge"><title>Node43&#45;&gt;Node44</title>
<path fill="none" stroke="midnightblue" d="M819.75,-214.101C820.58,-205.136 821.532,-194.858 822.19,-187.751"/>
<polygon fill="midnightblue" stroke="midnightblue" points="816.263,-213.803 818.826,-224.083 823.233,-214.448 816.263,-213.803"/>
</g>
<!-- Node45 -->
<g id="node45" class="node"><title>Node45</title>
<g id="a_node45"><a xlink:href="VoxelFilterFactory_8h.xhtml" target="_top" xlink:title="VoxelFilterFactory.h">
<polygon fill="none" stroke="red" points="907,-168.5 907,-187.5 1011,-187.5 1011,-168.5 907,-168.5"/>
<text text-anchor="middle" x="959" y="-175.5" font-family="Helvetica,sans-Serif" font-size="10.00">VoxelFilterFactory.h</text>
</a>
</g>
</g>
<!-- Node43&#45;&gt;Node45 -->
<g id="edge60" class="edge"><title>Node43&#45;&gt;Node45</title>
<path fill="none" stroke="midnightblue" d="M849.929,-220.772C876.414,-210.629 913.392,-196.467 936.763,-187.516"/>
<polygon fill="midnightblue" stroke="midnightblue" points="848.429,-217.599 840.342,-224.444 850.932,-224.136 848.429,-217.599"/>
</g>
<!-- Node45&#45;&gt;Node6 -->
<g id="edge61" class="edge"><title>Node45&#45;&gt;Node6</title>
<path fill="none" stroke="midnightblue" d="M963.977,-158.598C966.623,-144.881 967.901,-126.152 960,-112 950.057,-94.1908 929.85,-82.5554 913.211,-75.5863"/>
<polygon fill="midnightblue" stroke="midnightblue" points="960.568,-157.809 961.712,-168.342 967.386,-159.394 960.568,-157.809"/>
</g>
<!-- Node48&#45;&gt;Node11 -->
<g id="edge66" class="edge"><title>Node48&#45;&gt;Node11</title>
<path fill="none" stroke="midnightblue" d="M1057.06,-103.53C1065.17,-89.2549 1078.2,-69.3258 1094,-56 1114.05,-39.0848 1141.55,-26.8947 1161.62,-19.5036"/>
<polygon fill="midnightblue" stroke="midnightblue" points="1053.96,-101.902 1052.26,-112.359 1060.11,-105.247 1053.96,-101.902"/>
</g>
<!-- Node48&#45;&gt;Node13 -->
<g id="edge67" class="edge"><title>Node48&#45;&gt;Node13</title>
<path fill="none" stroke="midnightblue" d="M1072.59,-107.453C1090.68,-97.4835 1114.73,-84.2279 1130.29,-75.6545"/>
<polygon fill="midnightblue" stroke="midnightblue" points="1070.81,-104.432 1063.75,-112.324 1074.19,-110.563 1070.81,-104.432"/>
</g>
<!-- Node49 -->
<g id="node49" class="node"><title>Node49</title>
<g id="a_node49"><a xlink:href="PCLGrabber_8cpp.xhtml" target="_top" xlink:title="PCLGrabber.cpp">
<polygon fill="none" stroke="black" points="957.5,-56.5 957.5,-75.5 1046.5,-75.5 1046.5,-56.5 957.5,-56.5"/>
<text text-anchor="middle" x="1002" y="-63.5" font-family="Helvetica,sans-Serif" font-size="10.00">PCLGrabber.cpp</text>
</a>
</g>
</g>
<!-- Node48&#45;&gt;Node49 -->
<g id="edge68" class="edge"><title>Node48&#45;&gt;Node49</title>
<path fill="none" stroke="midnightblue" d="M1033.89,-104.431C1025.82,-94.9673 1016.04,-83.4827 1009.45,-75.7511"/>
<polygon fill="midnightblue" stroke="midnightblue" points="1031.25,-106.74 1040.4,-112.083 1036.58,-102.201 1031.25,-106.74"/>
</g>
</g>
</svg>
