<?xml version="1.0" encoding="UTF-8" standalone="no"?>
<!DOCTYPE svg PUBLIC "-//W3C//DTD SVG 1.1//EN"
 "http://www.w3.org/Graphics/SVG/1.1/DTD/svg11.dtd">
<!-- Generated by graphviz version 2.36.0 (20140111.2315)
 -->
<!-- Title: Data2DCodec.cpp Pages: 1 -->
<svg width="1429pt" height="308pt"
 viewBox="0.00 0.00 1429.00 308.00" xmlns="http://www.w3.org/2000/svg" xmlns:xlink="http://www.w3.org/1999/xlink">
<g id="graph0" class="graph" transform="scale(1 1) rotate(0) translate(4 304)">
<title>Data2DCodec.cpp</title>
<!-- Node1 -->
<g id="node1" class="node"><title>Node1</title>
<polygon fill="#bfbfbf" stroke="black" points="654,-280.5 654,-299.5 752,-299.5 752,-280.5 654,-280.5"/>
<text text-anchor="middle" x="703" y="-287.5" font-family="Helvetica,sans-Serif" font-size="10.00">Data2DCodec.cpp</text>
</g>
<!-- Node2 -->
<g id="node2" class="node"><title>Node2</title>
<g id="a_node2"><a xlink:href="Data2DCodec_8h.xhtml" target="_top" xlink:title="Data2DCodec.h">
<polygon fill="none" stroke="black" points="659.5,-224.5 659.5,-243.5 746.5,-243.5 746.5,-224.5 659.5,-224.5"/>
<text text-anchor="middle" x="703" y="-231.5" font-family="Helvetica,sans-Serif" font-size="10.00">Data2DCodec.h</text>
</a>
</g>
</g>
<!-- Node1&#45;&gt;Node2 -->
<g id="edge1" class="edge"><title>Node1&#45;&gt;Node2</title>
<path fill="none" stroke="midnightblue" d="M703,-280.083C703,-273.006 703,-262.861 703,-253.986"/>
<polygon fill="midnightblue" stroke="midnightblue" points="706.5,-253.751 703,-243.751 699.5,-253.751 706.5,-253.751"/>
</g>
<!-- Node26 -->
<g id="node26" class="node"><title>Node26</title>
<g id="a_node26"><a xlink:href="Logger_8h.xhtml" target="_top" xlink:title="Logger.h">
<polygon fill="none" stroke="black" points="137,-168.5 137,-187.5 191,-187.5 191,-168.5 137,-168.5"/>
<text text-anchor="middle" x="164" y="-175.5" font-family="Helvetica,sans-Serif" font-size="10.00">Logger.h</text>
</a>
</g>
</g>
<!-- Node1&#45;&gt;Node26 -->
<g id="edge26" class="edge"><title>Node1&#45;&gt;Node26</title>
<path fill="none" stroke="midnightblue" d="M661.154,-280.46C559.012,-259.615 298.226,-206.393 201.15,-186.582"/>
<polygon fill="midnightblue" stroke="midnightblue" points="201.704,-183.123 191.206,-184.552 200.304,-189.981 201.704,-183.123"/>
</g>
<!-- Node27 -->
<g id="node27" class="node"><title>Node27</title>
<g id="a_node27"><a xlink:href="SerializedObject_8h.xhtml" target="_top" xlink:title="SerializedObject.h">
<polygon fill="none" stroke="black" points="768,-168.5 768,-187.5 864,-187.5 864,-168.5 768,-168.5"/>
<text text-anchor="middle" x="816" y="-175.5" font-family="Helvetica,sans-Serif" font-size="10.00">SerializedObject.h</text>
</a>
</g>
</g>
<!-- Node1&#45;&gt;Node27 -->
<g id="edge31" class="edge"><title>Node1&#45;&gt;Node27</title>
<path fill="none" stroke="midnightblue" d="M713.641,-280.344C724.355,-271.502 741.223,-257.232 755,-244 771.637,-228.02 789.581,-208.612 801.67,-195.185"/>
<polygon fill="midnightblue" stroke="midnightblue" points="804.321,-197.471 808.375,-187.683 799.102,-192.806 804.321,-197.471"/>
</g>
<!-- Node3 -->
<g id="node3" class="node"><title>Node3</title>
<g id="a_node3"><a xlink:href="Common_8h.xhtml" target="_top" xlink:title="Common.h">
<polygon fill="none" stroke="black" points="695.5,-112.5 695.5,-131.5 760.5,-131.5 760.5,-112.5 695.5,-112.5"/>
<text text-anchor="middle" x="728" y="-119.5" font-family="Helvetica,sans-Serif" font-size="10.00">Common.h</text>
</a>
</g>
</g>
<!-- Node2&#45;&gt;Node3 -->
<g id="edge2" class="edge"><title>Node2&#45;&gt;Node3</title>
<path fill="none" stroke="midnightblue" d="M700.125,-224.365C696.368,-211.7 690.94,-187.478 697,-168 700.229,-157.622 706.776,-147.521 713.025,-139.527"/>
<polygon fill="midnightblue" stroke="midnightblue" points="715.785,-141.682 719.517,-131.766 710.416,-137.19 715.785,-141.682"/>
</g>
<!-- Node25 -->
<g id="node25" class="node"><title>Node25</title>
<g id="a_node25"><a xlink:href="DFT_8h.xhtml" target="_top" xlink:title="DFT.h">
<polygon fill="none" stroke="black" points="706,-168.5 706,-187.5 750,-187.5 750,-168.5 706,-168.5"/>
<text text-anchor="middle" x="728" y="-175.5" font-family="Helvetica,sans-Serif" font-size="10.00">DFT.h</text>
</a>
</g>
</g>
<!-- Node2&#45;&gt;Node25 -->
<g id="edge24" class="edge"><title>Node2&#45;&gt;Node25</title>
<path fill="none" stroke="midnightblue" d="M707.128,-224.083C710.514,-216.77 715.416,-206.181 719.619,-197.103"/>
<polygon fill="midnightblue" stroke="midnightblue" points="722.923,-198.296 723.949,-187.751 716.571,-195.355 722.923,-198.296"/>
</g>
<!-- Node4 -->
<g id="node4" class="node"><title>Node4</title>
<polygon fill="none" stroke="#bfbfbf" points="578,-56.5 578,-75.5 622,-75.5 622,-56.5 578,-56.5"/>
<text text-anchor="middle" x="600" y="-63.5" font-family="Helvetica,sans-Serif" font-size="10.00">vector</text>
</g>
<!-- Node3&#45;&gt;Node4 -->
<g id="edge3" class="edge"><title>Node3&#45;&gt;Node4</title>
<path fill="none" stroke="midnightblue" d="M707.718,-112.444C686.653,-103.557 653.483,-89.5632 629.514,-79.4514"/>
<polygon fill="midnightblue" stroke="midnightblue" points="630.761,-76.1787 620.187,-75.5164 628.04,-82.6283 630.761,-76.1787"/>
</g>
<!-- Node5 -->
<g id="node5" class="node"><title>Node5</title>
<polygon fill="none" stroke="#bfbfbf" points="640.5,-56.5 640.5,-75.5 689.5,-75.5 689.5,-56.5 640.5,-56.5"/>
<text text-anchor="middle" x="665" y="-63.5" font-family="Helvetica,sans-Serif" font-size="10.00">stdint.h</text>
</g>
<!-- Node3&#45;&gt;Node5 -->
<g id="edge4" class="edge"><title>Node3&#45;&gt;Node5</title>
<path fill="none" stroke="midnightblue" d="M717.878,-112.324C708.474,-104.263 694.256,-92.0765 682.931,-82.3695"/>
<polygon fill="midnightblue" stroke="midnightblue" points="685.177,-79.6844 675.306,-75.8339 680.621,-84.9993 685.177,-79.6844"/>
</g>
<!-- Node6 -->
<g id="node6" class="node"><title>Node6</title>
<polygon fill="none" stroke="#bfbfbf" points="707.5,-56.5 707.5,-75.5 748.5,-75.5 748.5,-56.5 707.5,-56.5"/>
<text text-anchor="middle" x="728" y="-63.5" font-family="Helvetica,sans-Serif" font-size="10.00">string</text>
</g>
<!-- Node3&#45;&gt;Node6 -->
<g id="edge5" class="edge"><title>Node3&#45;&gt;Node6</title>
<path fill="none" stroke="midnightblue" d="M728,-112.083C728,-105.006 728,-94.8611 728,-85.9865"/>
<polygon fill="midnightblue" stroke="midnightblue" points="731.5,-85.751 728,-75.7511 724.5,-85.7511 731.5,-85.751"/>
</g>
<!-- Node7 -->
<g id="node7" class="node"><title>Node7</title>
<polygon fill="none" stroke="#bfbfbf" points="0,-56.5 0,-75.5 54,-75.5 54,-56.5 0,-56.5"/>
<text text-anchor="middle" x="27" y="-63.5" font-family="Helvetica,sans-Serif" font-size="10.00">iostream</text>
</g>
<!-- Node3&#45;&gt;Node7 -->
<g id="edge6" class="edge"><title>Node3&#45;&gt;Node7</title>
<path fill="none" stroke="midnightblue" d="M695.249,-120.833C599.431,-119.914 311.345,-114.067 63.9155,-75.8507"/>
<polygon fill="midnightblue" stroke="midnightblue" points="64.4421,-72.3906 54.0211,-74.3016 63.3593,-79.3063 64.4421,-72.3906"/>
</g>
<!-- Node8 -->
<g id="node8" class="node"><title>Node8</title>
<polygon fill="none" stroke="#bfbfbf" points="767,-56.5 767,-75.5 817,-75.5 817,-56.5 767,-56.5"/>
<text text-anchor="middle" x="792" y="-63.5" font-family="Helvetica,sans-Serif" font-size="10.00">fstream</text>
</g>
<!-- Node3&#45;&gt;Node8 -->
<g id="edge7" class="edge"><title>Node3&#45;&gt;Node8</title>
<path fill="none" stroke="midnightblue" d="M738.283,-112.324C747.836,-104.263 762.28,-92.0765 773.784,-82.3695"/>
<polygon fill="midnightblue" stroke="midnightblue" points="776.144,-84.9577 781.53,-75.8339 771.63,-79.6076 776.144,-84.9577"/>
</g>
<!-- Node9 -->
<g id="node9" class="node"><title>Node9</title>
<polygon fill="none" stroke="#bfbfbf" points="72,-56.5 72,-75.5 124,-75.5 124,-56.5 72,-56.5"/>
<text text-anchor="middle" x="98" y="-63.5" font-family="Helvetica,sans-Serif" font-size="10.00">sstream</text>
</g>
<!-- Node3&#45;&gt;Node9 -->
<g id="edge8" class="edge"><title>Node3&#45;&gt;Node9</title>
<path fill="none" stroke="midnightblue" d="M695.188,-120.542C606.259,-118.873 353.161,-111.285 134.332,-75.9335"/>
<polygon fill="midnightblue" stroke="midnightblue" points="134.702,-72.4475 124.267,-74.2838 133.57,-79.3553 134.702,-72.4475"/>
</g>
<!-- Node10 -->
<g id="node10" class="node"><title>Node10</title>
<polygon fill="none" stroke="#bfbfbf" points="835.5,-56.5 835.5,-75.5 918.5,-75.5 918.5,-56.5 835.5,-56.5"/>
<text text-anchor="middle" x="877" y="-63.5" font-family="Helvetica,sans-Serif" font-size="10.00">unordered_map</text>
</g>
<!-- Node3&#45;&gt;Node10 -->
<g id="edge9" class="edge"><title>Node3&#45;&gt;Node10</title>
<path fill="none" stroke="midnightblue" d="M751.609,-112.444C776.458,-103.438 815.774,-89.1891 843.754,-79.049"/>
<polygon fill="midnightblue" stroke="midnightblue" points="845.292,-82.2144 853.501,-75.5164 842.907,-75.6332 845.292,-82.2144"/>
</g>
<!-- Node11 -->
<g id="node11" class="node"><title>Node11</title>
<polygon fill="none" stroke="#bfbfbf" points="936.5,-56.5 936.5,-75.5 995.5,-75.5 995.5,-56.5 936.5,-56.5"/>
<text text-anchor="middle" x="966" y="-63.5" font-family="Helvetica,sans-Serif" font-size="10.00">functional</text>
</g>
<!-- Node3&#45;&gt;Node11 -->
<g id="edge10" class="edge"><title>Node3&#45;&gt;Node11</title>
<path fill="none" stroke="midnightblue" d="M760.759,-113.639C798.281,-105.197 861.872,-90.8589 926.272,-76.1588"/>
<polygon fill="midnightblue" stroke="midnightblue" points="927.223,-79.5318 936.193,-73.8929 925.664,-72.7075 927.223,-79.5318"/>
</g>
<!-- Node12 -->
<g id="node12" class="node"><title>Node12</title>
<polygon fill="none" stroke="#bfbfbf" points="1013.5,-56.5 1013.5,-75.5 1042.5,-75.5 1042.5,-56.5 1013.5,-56.5"/>
<text text-anchor="middle" x="1028" y="-63.5" font-family="Helvetica,sans-Serif" font-size="10.00">list</text>
</g>
<!-- Node3&#45;&gt;Node12 -->
<g id="edge11" class="edge"><title>Node3&#45;&gt;Node12</title>
<path fill="none" stroke="midnightblue" d="M760.717,-116.492C820.025,-108.191 943.939,-90.2265 1003.72,-75.5068"/>
<polygon fill="midnightblue" stroke="midnightblue" points="1004.63,-78.8876 1013.43,-72.9872 1002.87,-72.1121 1004.63,-78.8876"/>
</g>
<!-- Node13 -->
<g id="node13" class="node"><title>Node13</title>
<polygon fill="none" stroke="#bfbfbf" points="1061,-56.5 1061,-75.5 1091,-75.5 1091,-56.5 1061,-56.5"/>
<text text-anchor="middle" x="1076" y="-63.5" font-family="Helvetica,sans-Serif" font-size="10.00">set</text>
</g>
<!-- Node3&#45;&gt;Node13 -->
<g id="edge12" class="edge"><title>Node3&#45;&gt;Node13</title>
<path fill="none" stroke="midnightblue" d="M760.778,-116.825C837.266,-107.028 1023.17,-82.8687 1051,-76 1051.1,-75.9751 1051.2,-75.95 1051.3,-75.9246"/>
<polygon fill="midnightblue" stroke="midnightblue" points="1052.27,-79.2893 1060.82,-73.0312 1050.23,-72.5921 1052.27,-79.2893"/>
</g>
<!-- Node14 -->
<g id="node14" class="node"><title>Node14</title>
<polygon fill="none" stroke="#bfbfbf" points="1109,-56.5 1109,-75.5 1155,-75.5 1155,-56.5 1109,-56.5"/>
<text text-anchor="middle" x="1132" y="-63.5" font-family="Helvetica,sans-Serif" font-size="10.00">atomic</text>
</g>
<!-- Node3&#45;&gt;Node14 -->
<g id="edge13" class="edge"><title>Node3&#45;&gt;Node14</title>
<path fill="none" stroke="midnightblue" d="M760.785,-117.01C773.637,-115.446 788.51,-113.638 802,-112 930.774,-96.3646 966.77,-101.301 1098.58,-75.7894"/>
<polygon fill="midnightblue" stroke="midnightblue" points="1099.52,-79.1724 1108.66,-73.8162 1098.18,-72.3028 1099.52,-79.1724"/>
</g>
<!-- Node15 -->
<g id="node15" class="node"><title>Node15</title>
<polygon fill="none" stroke="#bfbfbf" points="1173,-56.5 1173,-75.5 1219,-75.5 1219,-56.5 1173,-56.5"/>
<text text-anchor="middle" x="1196" y="-63.5" font-family="Helvetica,sans-Serif" font-size="10.00">cctype</text>
</g>
<!-- Node3&#45;&gt;Node15 -->
<g id="edge14" class="edge"><title>Node3&#45;&gt;Node15</title>
<path fill="none" stroke="midnightblue" d="M760.768,-116.858C773.617,-115.275 788.493,-113.493 802,-112 959.408,-94.6031 1003.34,-105.532 1162.54,-75.9744"/>
<polygon fill="midnightblue" stroke="midnightblue" points="1163.51,-79.3528 1172.69,-74.064 1162.22,-72.4735 1163.51,-79.3528"/>
</g>
<!-- Node16 -->
<g id="node16" class="node"><title>Node16</title>
<polygon fill="none" stroke="#bfbfbf" points="1365,-56.5 1365,-75.5 1421,-75.5 1421,-56.5 1365,-56.5"/>
<text text-anchor="middle" x="1393" y="-63.5" font-family="Helvetica,sans-Serif" font-size="10.00">algorithm</text>
</g>
<!-- Node3&#45;&gt;Node16 -->
<g id="edge15" class="edge"><title>Node3&#45;&gt;Node16</title>
<path fill="none" stroke="midnightblue" d="M760.743,-116.617C773.59,-115.002 788.47,-113.261 802,-112 1044.44,-89.3981 1110.36,-112.67 1354.92,-75.8954"/>
<polygon fill="midnightblue" stroke="midnightblue" points="1355.46,-79.3538 1364.82,-74.3891 1354.41,-72.4335 1355.46,-79.3538"/>
</g>
<!-- Node17 -->
<g id="node17" class="node"><title>Node17</title>
<polygon fill="none" stroke="#bfbfbf" points="1237.5,-56.5 1237.5,-75.5 1290.5,-75.5 1290.5,-56.5 1237.5,-56.5"/>
<text text-anchor="middle" x="1264" y="-63.5" font-family="Helvetica,sans-Serif" font-size="10.00">complex</text>
</g>
<!-- Node3&#45;&gt;Node17 -->
<g id="edge16" class="edge"><title>Node3&#45;&gt;Node17</title>
<path fill="none" stroke="midnightblue" d="M760.757,-116.754C773.605,-115.157 788.483,-113.393 802,-112 987.778,-92.8595 1038.83,-106.653 1227.4,-75.8151"/>
<polygon fill="midnightblue" stroke="midnightblue" points="1228.07,-79.2521 1237.36,-74.1657 1226.93,-72.3462 1228.07,-79.2521"/>
</g>
<!-- Node18 -->
<g id="node18" class="node"><title>Node18</title>
<polygon fill="none" stroke="#bfbfbf" points="142,-56.5 142,-75.5 186,-75.5 186,-56.5 142,-56.5"/>
<text text-anchor="middle" x="164" y="-63.5" font-family="Helvetica,sans-Serif" font-size="10.00">thread</text>
</g>
<!-- Node3&#45;&gt;Node18 -->
<g id="edge17" class="edge"><title>Node3&#45;&gt;Node18</title>
<path fill="none" stroke="midnightblue" d="M695.253,-120.487C612.799,-118.72 389.97,-110.988 196.299,-75.8806"/>
<polygon fill="midnightblue" stroke="midnightblue" points="196.693,-72.3943 186.224,-74.0244 195.424,-79.2785 196.693,-72.3943"/>
</g>
<!-- Node19 -->
<g id="node19" class="node"><title>Node19</title>
<g id="a_node19"><a xlink:href="Ptr_8h.xhtml" target="_top" xlink:title="Ptr.h">
<polygon fill="none" stroke="black" points="1309,-56.5 1309,-75.5 1347,-75.5 1347,-56.5 1309,-56.5"/>
<text text-anchor="middle" x="1328" y="-63.5" font-family="Helvetica,sans-Serif" font-size="10.00">Ptr.h</text>
</a>
</g>
</g>
<!-- Node3&#45;&gt;Node19 -->
<g id="edge18" class="edge"><title>Node3&#45;&gt;Node19</title>
<path fill="none" stroke="midnightblue" d="M760.748,-116.669C773.595,-115.061 788.474,-113.312 802,-112 1022.43,-90.6245 1081.38,-117.09 1299,-76 1299.1,-75.9811 1299.2,-75.9619 1299.3,-75.9425"/>
<polygon fill="midnightblue" stroke="midnightblue" points="1299.92,-79.3933 1308.81,-73.6273 1298.27,-72.5919 1299.92,-79.3933"/>
</g>
<!-- Node21 -->
<g id="node21" class="node"><title>Node21</title>
<polygon fill="none" stroke="#bfbfbf" points="204,-56.5 204,-75.5 248,-75.5 248,-56.5 204,-56.5"/>
<text text-anchor="middle" x="226" y="-63.5" font-family="Helvetica,sans-Serif" font-size="10.00">mutex</text>
</g>
<!-- Node3&#45;&gt;Node21 -->
<g id="edge20" class="edge"><title>Node3&#45;&gt;Node21</title>
<path fill="none" stroke="midnightblue" d="M695.44,-119.987C619.982,-117.192 427.301,-107.499 258.058,-75.8618"/>
<polygon fill="midnightblue" stroke="midnightblue" points="258.707,-72.4225 248.23,-73.9944 257.401,-79.2995 258.707,-72.4225"/>
</g>
<!-- Node22 -->
<g id="node22" class="node"><title>Node22</title>
<polygon fill="none" stroke="#bfbfbf" points="266.5,-56.5 266.5,-75.5 361.5,-75.5 361.5,-56.5 266.5,-56.5"/>
<text text-anchor="middle" x="314" y="-63.5" font-family="Helvetica,sans-Serif" font-size="10.00">condition_variable</text>
</g>
<!-- Node3&#45;&gt;Node22 -->
<g id="edge21" class="edge"><title>Node3&#45;&gt;Node22</title>
<path fill="none" stroke="midnightblue" d="M695.467,-117.244C634.318,-110.109 497.818,-93.8314 371.784,-76.0707"/>
<polygon fill="midnightblue" stroke="midnightblue" points="371.961,-72.5609 361.569,-74.6246 370.98,-79.4918 371.961,-72.5609"/>
</g>
<!-- Node23 -->
<g id="node23" class="node"><title>Node23</title>
<polygon fill="none" stroke="#bfbfbf" points="380,-56.5 380,-75.5 458,-75.5 458,-56.5 380,-56.5"/>
<text text-anchor="middle" x="419" y="-63.5" font-family="Helvetica,sans-Serif" font-size="10.00">VoxelConfig.h</text>
</g>
<!-- Node3&#45;&gt;Node23 -->
<g id="edge22" class="edge"><title>Node3&#45;&gt;Node23</title>
<path fill="none" stroke="midnightblue" d="M695.421,-115.54C647.786,-107.523 556.074,-91.9578 467.92,-76.1453"/>
<polygon fill="midnightblue" stroke="midnightblue" points="468.485,-72.6908 458.024,-74.3663 467.247,-79.5804 468.485,-72.6908"/>
</g>
<!-- Node24 -->
<g id="node24" class="node"><title>Node24</title>
<polygon fill="none" stroke="#bfbfbf" points="476.5,-56.5 476.5,-75.5 559.5,-75.5 559.5,-56.5 476.5,-56.5"/>
<text text-anchor="middle" x="518" y="-63.5" font-family="Helvetica,sans-Serif" font-size="10.00">VoxelExports.h</text>
</g>
<!-- Node3&#45;&gt;Node24 -->
<g id="edge23" class="edge"><title>Node3&#45;&gt;Node24</title>
<path fill="none" stroke="midnightblue" d="M695.188,-112.562C659.03,-103.265 600.739,-88.2757 560.964,-78.0478"/>
<polygon fill="midnightblue" stroke="midnightblue" points="561.832,-74.6572 551.275,-75.5565 560.088,-81.4367 561.832,-74.6572"/>
</g>
<!-- Node20 -->
<g id="node20" class="node"><title>Node20</title>
<polygon fill="none" stroke="#bfbfbf" points="1302,-0.5 1302,-19.5 1354,-19.5 1354,-0.5 1302,-0.5"/>
<text text-anchor="middle" x="1328" y="-7.5" font-family="Helvetica,sans-Serif" font-size="10.00">memory</text>
</g>
<!-- Node19&#45;&gt;Node20 -->
<g id="edge19" class="edge"><title>Node19&#45;&gt;Node20</title>
<path fill="none" stroke="midnightblue" d="M1328,-56.083C1328,-49.0059 1328,-38.8611 1328,-29.9865"/>
<polygon fill="midnightblue" stroke="midnightblue" points="1331.5,-29.751 1328,-19.7511 1324.5,-29.7511 1331.5,-29.751"/>
</g>
<!-- Node25&#45;&gt;Node3 -->
<g id="edge25" class="edge"><title>Node25&#45;&gt;Node3</title>
<path fill="none" stroke="midnightblue" d="M728,-168.083C728,-161.006 728,-150.861 728,-141.986"/>
<polygon fill="midnightblue" stroke="midnightblue" points="731.5,-141.751 728,-131.751 724.5,-141.751 731.5,-141.751"/>
</g>
<!-- Node26&#45;&gt;Node3 -->
<g id="edge30" class="edge"><title>Node26&#45;&gt;Node3</title>
<path fill="none" stroke="midnightblue" d="M191.203,-174.395C281.905,-165.711 574.492,-137.698 685.106,-127.107"/>
<polygon fill="midnightblue" stroke="midnightblue" points="685.609,-130.575 695.229,-126.138 684.941,-123.607 685.609,-130.575"/>
</g>
<!-- Node26&#45;&gt;Node7 -->
<g id="edge27" class="edge"><title>Node26&#45;&gt;Node7</title>
<path fill="none" stroke="midnightblue" d="M153.25,-168.368C130.041,-149.733 74.9903,-105.532 45.8485,-82.1338"/>
<polygon fill="midnightblue" stroke="midnightblue" points="47.6891,-79.1231 37.7002,-75.5914 43.3065,-84.5814 47.6891,-79.1231"/>
</g>
<!-- Node26&#45;&gt;Node9 -->
<g id="edge28" class="edge"><title>Node26&#45;&gt;Node9</title>
<path fill="none" stroke="midnightblue" d="M158.821,-168.368C147.977,-150.296 122.706,-108.176 108.384,-84.3074"/>
<polygon fill="midnightblue" stroke="midnightblue" points="111.301,-82.3656 103.155,-75.5914 105.299,-85.9671 111.301,-82.3656"/>
</g>
<!-- Node26&#45;&gt;Node18 -->
<g id="edge29" class="edge"><title>Node26&#45;&gt;Node18</title>
<path fill="none" stroke="midnightblue" d="M164,-168.368C164,-150.617 164,-109.666 164,-85.5974"/>
<polygon fill="midnightblue" stroke="midnightblue" points="167.5,-85.5914 164,-75.5914 160.5,-85.5915 167.5,-85.5914"/>
</g>
<!-- Node27&#45;&gt;Node3 -->
<g id="edge32" class="edge"><title>Node27&#45;&gt;Node3</title>
<path fill="none" stroke="midnightblue" d="M801.861,-168.324C788.134,-159.9 767.064,-146.971 750.936,-137.074"/>
<polygon fill="midnightblue" stroke="midnightblue" points="752.457,-133.902 742.104,-131.655 748.796,-139.868 752.457,-133.902"/>
</g>
<!-- Node27&#45;&gt;Node16 -->
<g id="edge34" class="edge"><title>Node27&#45;&gt;Node16</title>
<path fill="none" stroke="midnightblue" d="M815.809,-168.14C816.034,-153.778 818.796,-125.649 836,-112 879.465,-77.5144 1264.37,-84.21 1354.69,-75.6016"/>
<polygon fill="midnightblue" stroke="midnightblue" points="1355.31,-79.0524 1364.82,-74.3766 1354.47,-72.103 1355.31,-79.0524"/>
</g>
<!-- Node28 -->
<g id="node28" class="node"><title>Node28</title>
<polygon fill="none" stroke="#bfbfbf" points="844.5,-112.5 844.5,-131.5 893.5,-131.5 893.5,-112.5 844.5,-112.5"/>
<text text-anchor="middle" x="869" y="-119.5" font-family="Helvetica,sans-Serif" font-size="10.00">string.h</text>
</g>
<!-- Node27&#45;&gt;Node28 -->
<g id="edge33" class="edge"><title>Node27&#45;&gt;Node28</title>
<path fill="none" stroke="midnightblue" d="M824.752,-168.083C832.47,-160.22 843.905,-148.569 853.217,-139.081"/>
<polygon fill="midnightblue" stroke="midnightblue" points="855.904,-141.34 860.411,-131.751 850.908,-136.436 855.904,-141.34"/>
</g>
</g>
</svg>
