<?xml version="1.0" encoding="UTF-8" standalone="no"?>
<!DOCTYPE svg PUBLIC "-//W3C//DTD SVG 1.1//EN"
 "http://www.w3.org/Graphics/SVG/1.1/DTD/svg11.dtd">
<!-- Generated by graphviz version 2.36.0 (20140111.2315)
 -->
<!-- Title: main Pages: 1 -->
<svg width="624pt" height="126pt"
 viewBox="0.00 0.00 624.00 126.00" xmlns="http://www.w3.org/2000/svg" xmlns:xlink="http://www.w3.org/1999/xlink">
<g id="graph0" class="graph" transform="scale(1 1) rotate(0) translate(4 122)">
<title>main</title>
<!-- Node1 -->
<g id="node1" class="node"><title>Node1</title>
<polygon fill="#bfbfbf" stroke="black" points="0,-54.5 0,-73.5 38,-73.5 38,-54.5 0,-54.5"/>
<text text-anchor="middle" x="19" y="-61.5" font-family="Helvetica,sans-Serif" font-size="10.00">main</text>
</g>
<!-- Node2 -->
<g id="node2" class="node"><title>Node2</title>
<g id="a_node2"><a xlink:href="classVoxel_1_1USBSystem.xhtml#a9150d69d5e3e64e2c9c8839ada21312d" target="_top" xlink:title="Voxel::USBSystem::getDeviceNode">
<polygon fill="none" stroke="black" points="74,-98.5 74,-117.5 250,-117.5 250,-98.5 74,-98.5"/>
<text text-anchor="middle" x="162" y="-105.5" font-family="Helvetica,sans-Serif" font-size="10.00">Voxel::USBSystem::getDeviceNode</text>
</a>
</g>
</g>
<!-- Node1&#45;&gt;Node2 -->
<g id="edge1" class="edge"><title>Node1&#45;&gt;Node2</title>
<path fill="none" stroke="midnightblue" d="M38.1467,-73.1156C48.4651,-78.0302 61.7381,-83.9081 74,-88 82.947,-90.9857 92.557,-93.6822 102.009,-96.0582"/>
<polygon fill="midnightblue" stroke="midnightblue" points="101.225,-99.4694 111.768,-98.4169 102.87,-92.6653 101.225,-99.4694"/>
</g>
<!-- Node3 -->
<g id="node3" class="node"><title>Node3</title>
<g id="a_node3"><a xlink:href="classVoxel_1_1DeviceScanner.xhtml#acfd0c97ee8c1d7c33eed279416a8b0a5" target="_top" xlink:title="Voxel::DeviceScanner\l::scan">
<polygon fill="none" stroke="black" points="105,-49 105,-79 219,-79 219,-49 105,-49"/>
<text text-anchor="start" x="113" y="-67" font-family="Helvetica,sans-Serif" font-size="10.00">Voxel::DeviceScanner</text>
<text text-anchor="middle" x="162" y="-56" font-family="Helvetica,sans-Serif" font-size="10.00">::scan</text>
</a>
</g>
</g>
<!-- Node1&#45;&gt;Node3 -->
<g id="edge2" class="edge"><title>Node1&#45;&gt;Node3</title>
<path fill="none" stroke="midnightblue" d="M38.1446,-64C52.6543,-64 73.9421,-64 94.7367,-64"/>
<polygon fill="midnightblue" stroke="midnightblue" points="94.8735,-67.5001 104.873,-64 94.8734,-60.5001 94.8735,-67.5001"/>
</g>
<!-- Node6 -->
<g id="node6" class="node"><title>Node6</title>
<g id="a_node6"><a xlink:href="classVoxel_1_1Logger.xhtml#a24cc93971582344584a5c9064d897cbe" target="_top" xlink:title="Voxel::Logger::setDefault\lLogLevel">
<polygon fill="none" stroke="black" points="98,-0 98,-30 226,-30 226,-0 98,-0"/>
<text text-anchor="start" x="106" y="-18" font-family="Helvetica,sans-Serif" font-size="10.00">Voxel::Logger::setDefault</text>
<text text-anchor="middle" x="162" y="-7" font-family="Helvetica,sans-Serif" font-size="10.00">LogLevel</text>
</a>
</g>
</g>
<!-- Node1&#45;&gt;Node6 -->
<g id="edge5" class="edge"><title>Node1&#45;&gt;Node6</title>
<path fill="none" stroke="midnightblue" d="M38.2354,-55.1387C48.5815,-50.3037 61.8527,-44.4206 74,-40 80.7009,-37.5614 87.7596,-35.2019 94.8388,-32.97"/>
<polygon fill="midnightblue" stroke="midnightblue" points="95.9419,-36.2926 104.473,-30.0102 93.8862,-29.6012 95.9419,-36.2926"/>
</g>
<!-- Node4 -->
<g id="node4" class="node"><title>Node4</title>
<g id="a_node4"><a xlink:href="classVoxel_1_1USBDeviceScanner.xhtml#ac69e2e7bc897f304afab90acdbd004a6" target="_top" xlink:title="Voxel::USBDeviceScanner\l::_scan">
<polygon fill="none" stroke="black" points="286.5,-49 286.5,-79 421.5,-79 421.5,-49 286.5,-49"/>
<text text-anchor="start" x="294.5" y="-67" font-family="Helvetica,sans-Serif" font-size="10.00">Voxel::USBDeviceScanner</text>
<text text-anchor="middle" x="354" y="-56" font-family="Helvetica,sans-Serif" font-size="10.00">::_scan</text>
</a>
</g>
</g>
<!-- Node3&#45;&gt;Node4 -->
<g id="edge3" class="edge"><title>Node3&#45;&gt;Node4</title>
<path fill="none" stroke="midnightblue" d="M219.235,-64C237.044,-64 257.047,-64 276.05,-64"/>
<polygon fill="midnightblue" stroke="midnightblue" points="276.18,-67.5001 286.18,-64 276.18,-60.5001 276.18,-67.5001"/>
</g>
<!-- Node5 -->
<g id="node5" class="node"><title>Node5</title>
<g id="a_node5"><a xlink:href="classVoxel_1_1USBSystem.xhtml#abbc09af335ace0ddfca5b74c63abf519" target="_top" xlink:title="Voxel::USBSystem::getDevices">
<polygon fill="none" stroke="black" points="458,-54.5 458,-73.5 616,-73.5 616,-54.5 458,-54.5"/>
<text text-anchor="middle" x="537" y="-61.5" font-family="Helvetica,sans-Serif" font-size="10.00">Voxel::USBSystem::getDevices</text>
</a>
</g>
</g>
<!-- Node4&#45;&gt;Node5 -->
<g id="edge4" class="edge"><title>Node4&#45;&gt;Node5</title>
<path fill="none" stroke="midnightblue" d="M421.627,-64C430.103,-64 438.881,-64 447.632,-64"/>
<polygon fill="midnightblue" stroke="midnightblue" points="447.873,-67.5001 457.873,-64 447.872,-60.5001 447.873,-67.5001"/>
</g>
</g>
</svg>
