<?xml version="1.0" encoding="UTF-8" standalone="no"?>
<!DOCTYPE svg PUBLIC "-//W3C//DTD SVG 1.1//EN"
 "http://www.w3.org/Graphics/SVG/1.1/DTD/svg11.dtd">
<!-- Generated by graphviz version 2.36.0 (20140111.2315)
 -->
<!-- Title: DFTTest.cpp Pages: 1 -->
<svg width="1428pt" height="252pt"
 viewBox="0.00 0.00 1428.00 252.00" xmlns="http://www.w3.org/2000/svg" xmlns:xlink="http://www.w3.org/1999/xlink">
<g id="graph0" class="graph" transform="scale(1 1) rotate(0) translate(4 248)">
<title>DFTTest.cpp</title>
<!-- Node1 -->
<g id="node1" class="node"><title>Node1</title>
<polygon fill="#bfbfbf" stroke="black" points="856,-224.5 856,-243.5 930,-243.5 930,-224.5 856,-224.5"/>
<text text-anchor="middle" x="893" y="-231.5" font-family="Helvetica,sans-Serif" font-size="10.00">DFTTest.cpp</text>
</g>
<!-- Node2 -->
<g id="node2" class="node"><title>Node2</title>
<g id="a_node2"><a xlink:href="DFT_8h.xhtml" target="_top" xlink:title="DFT.h">
<polygon fill="none" stroke="black" points="789,-168.5 789,-187.5 833,-187.5 833,-168.5 789,-168.5"/>
<text text-anchor="middle" x="811" y="-175.5" font-family="Helvetica,sans-Serif" font-size="10.00">DFT.h</text>
</a>
</g>
</g>
<!-- Node1&#45;&gt;Node2 -->
<g id="edge1" class="edge"><title>Node1&#45;&gt;Node2</title>
<path fill="none" stroke="midnightblue" d="M879.825,-224.324C867.153,-215.979 847.767,-203.212 832.794,-193.352"/>
<polygon fill="midnightblue" stroke="midnightblue" points="834.419,-190.231 824.142,-187.655 830.569,-196.078 834.419,-190.231"/>
</g>
<!-- Node3 -->
<g id="node3" class="node"><title>Node3</title>
<g id="a_node3"><a xlink:href="Common_8h.xhtml" target="_top" xlink:title="Common.h">
<polygon fill="none" stroke="black" points="778.5,-112.5 778.5,-131.5 843.5,-131.5 843.5,-112.5 778.5,-112.5"/>
<text text-anchor="middle" x="811" y="-119.5" font-family="Helvetica,sans-Serif" font-size="10.00">Common.h</text>
</a>
</g>
</g>
<!-- Node1&#45;&gt;Node3 -->
<g id="edge25" class="edge"><title>Node1&#45;&gt;Node3</title>
<path fill="none" stroke="midnightblue" d="M886.566,-224.368C872.973,-206.135 841.136,-163.426 823.431,-139.675"/>
<polygon fill="midnightblue" stroke="midnightblue" points="826.187,-137.517 817.405,-131.591 820.575,-141.701 826.187,-137.517"/>
</g>
<!-- Node8 -->
<g id="node8" class="node"><title>Node8</title>
<polygon fill="none" stroke="#bfbfbf" points="0,-56.5 0,-75.5 50,-75.5 50,-56.5 0,-56.5"/>
<text text-anchor="middle" x="25" y="-63.5" font-family="Helvetica,sans-Serif" font-size="10.00">fstream</text>
</g>
<!-- Node1&#45;&gt;Node8 -->
<g id="edge32" class="edge"><title>Node1&#45;&gt;Node8</title>
<path fill="none" stroke="midnightblue" d="M855.809,-226.991C739.57,-208.002 372.73,-146.487 60.3571,-76.1823"/>
<polygon fill="midnightblue" stroke="midnightblue" points="60.7261,-72.6776 50.2007,-73.889 59.1842,-79.5057 60.7261,-72.6776"/>
</g>
<!-- Node25 -->
<g id="node25" class="node"><title>Node25</title>
<polygon fill="none" stroke="#bfbfbf" points="889.5,-168.5 889.5,-187.5 960.5,-187.5 960.5,-168.5 889.5,-168.5"/>
<text text-anchor="middle" x="925" y="-175.5" font-family="Helvetica,sans-Serif" font-size="10.00">SimpleOpt.h</text>
</g>
<!-- Node1&#45;&gt;Node25 -->
<g id="edge24" class="edge"><title>Node1&#45;&gt;Node25</title>
<path fill="none" stroke="midnightblue" d="M898.284,-224.083C902.711,-216.613 909.163,-205.724 914.618,-196.52"/>
<polygon fill="midnightblue" stroke="midnightblue" points="917.727,-198.138 919.814,-187.751 911.705,-194.57 917.727,-198.138"/>
</g>
<!-- Node26 -->
<g id="node26" class="node"><title>Node26</title>
<g id="a_node26"><a xlink:href="Logger_8h.xhtml" target="_top" xlink:title="Logger.h">
<polygon fill="none" stroke="black" points="1001,-168.5 1001,-187.5 1055,-187.5 1055,-168.5 1001,-168.5"/>
<text text-anchor="middle" x="1028" y="-175.5" font-family="Helvetica,sans-Serif" font-size="10.00">Logger.h</text>
</a>
</g>
</g>
<!-- Node1&#45;&gt;Node26 -->
<g id="edge26" class="edge"><title>Node1&#45;&gt;Node26</title>
<path fill="none" stroke="midnightblue" d="M914.391,-224.444C936.707,-215.517 971.903,-201.439 997.208,-191.317"/>
<polygon fill="midnightblue" stroke="midnightblue" points="998.724,-194.48 1006.71,-187.516 996.124,-187.981 998.724,-194.48"/>
</g>
<!-- Node27 -->
<g id="node27" class="node"><title>Node27</title>
<polygon fill="none" stroke="#bfbfbf" points="1073,-168.5 1073,-187.5 1123,-187.5 1123,-168.5 1073,-168.5"/>
<text text-anchor="middle" x="1098" y="-175.5" font-family="Helvetica,sans-Serif" font-size="10.00">iomanip</text>
</g>
<!-- Node1&#45;&gt;Node27 -->
<g id="edge31" class="edge"><title>Node1&#45;&gt;Node27</title>
<path fill="none" stroke="midnightblue" d="M925.467,-224.471C957.851,-215.96 1009.29,-202.434 1062.75,-188.328"/>
<polygon fill="midnightblue" stroke="midnightblue" points="1063.97,-191.624 1072.75,-185.688 1062.19,-184.856 1063.97,-191.624"/>
</g>
<!-- Node2&#45;&gt;Node3 -->
<g id="edge2" class="edge"><title>Node2&#45;&gt;Node3</title>
<path fill="none" stroke="midnightblue" d="M811,-168.083C811,-161.006 811,-150.861 811,-141.986"/>
<polygon fill="midnightblue" stroke="midnightblue" points="814.5,-141.751 811,-131.751 807.5,-141.751 814.5,-141.751"/>
</g>
<!-- Node4 -->
<g id="node4" class="node"><title>Node4</title>
<polygon fill="none" stroke="#bfbfbf" points="570,-56.5 570,-75.5 614,-75.5 614,-56.5 570,-56.5"/>
<text text-anchor="middle" x="592" y="-63.5" font-family="Helvetica,sans-Serif" font-size="10.00">vector</text>
</g>
<!-- Node3&#45;&gt;Node4 -->
<g id="edge3" class="edge"><title>Node3&#45;&gt;Node4</title>
<path fill="none" stroke="midnightblue" d="M778.277,-113.665C742.659,-105.572 683.806,-91.8822 624.263,-76.2454"/>
<polygon fill="midnightblue" stroke="midnightblue" points="624.878,-72.7879 614.316,-73.6164 623.089,-79.5555 624.878,-72.7879"/>
</g>
<!-- Node5 -->
<g id="node5" class="node"><title>Node5</title>
<polygon fill="none" stroke="#bfbfbf" points="632.5,-56.5 632.5,-75.5 681.5,-75.5 681.5,-56.5 632.5,-56.5"/>
<text text-anchor="middle" x="657" y="-63.5" font-family="Helvetica,sans-Serif" font-size="10.00">stdint.h</text>
</g>
<!-- Node3&#45;&gt;Node5 -->
<g id="edge4" class="edge"><title>Node3&#45;&gt;Node5</title>
<path fill="none" stroke="midnightblue" d="M786.598,-112.444C760.803,-103.399 719.923,-89.064 690.982,-78.9158"/>
<polygon fill="midnightblue" stroke="midnightblue" points="691.882,-75.5226 681.288,-75.5164 689.566,-82.1283 691.882,-75.5226"/>
</g>
<!-- Node6 -->
<g id="node6" class="node"><title>Node6</title>
<polygon fill="none" stroke="#bfbfbf" points="699.5,-56.5 699.5,-75.5 740.5,-75.5 740.5,-56.5 699.5,-56.5"/>
<text text-anchor="middle" x="720" y="-63.5" font-family="Helvetica,sans-Serif" font-size="10.00">string</text>
</g>
<!-- Node3&#45;&gt;Node6 -->
<g id="edge5" class="edge"><title>Node3&#45;&gt;Node6</title>
<path fill="none" stroke="midnightblue" d="M796.379,-112.324C782.051,-103.822 759.987,-90.7288 743.251,-80.7975"/>
<polygon fill="midnightblue" stroke="midnightblue" points="744.97,-77.7478 734.584,-75.6545 741.398,-83.7677 744.97,-77.7478"/>
</g>
<!-- Node7 -->
<g id="node7" class="node"><title>Node7</title>
<polygon fill="none" stroke="#bfbfbf" points="1234,-56.5 1234,-75.5 1288,-75.5 1288,-56.5 1234,-56.5"/>
<text text-anchor="middle" x="1261" y="-63.5" font-family="Helvetica,sans-Serif" font-size="10.00">iostream</text>
</g>
<!-- Node3&#45;&gt;Node7 -->
<g id="edge6" class="edge"><title>Node3&#45;&gt;Node7</title>
<path fill="none" stroke="midnightblue" d="M843.597,-118.897C912.06,-114.169 1075.93,-101.231 1223.46,-75.8532"/>
<polygon fill="midnightblue" stroke="midnightblue" points="1224.35,-79.2505 1233.6,-74.0841 1223.15,-72.3546 1224.35,-79.2505"/>
</g>
<!-- Node3&#45;&gt;Node8 -->
<g id="edge7" class="edge"><title>Node3&#45;&gt;Node8</title>
<path fill="none" stroke="midnightblue" d="M778.5,-121.353C674.809,-121.996 342.611,-120.326 60.1575,-75.8491"/>
<polygon fill="midnightblue" stroke="midnightblue" points="60.5579,-72.3688 50.1312,-74.2488 59.4545,-79.2813 60.5579,-72.3688"/>
</g>
<!-- Node9 -->
<g id="node9" class="node"><title>Node9</title>
<polygon fill="none" stroke="#bfbfbf" points="1306,-56.5 1306,-75.5 1358,-75.5 1358,-56.5 1306,-56.5"/>
<text text-anchor="middle" x="1332" y="-63.5" font-family="Helvetica,sans-Serif" font-size="10.00">sstream</text>
</g>
<!-- Node3&#45;&gt;Node9 -->
<g id="edge8" class="edge"><title>Node3&#45;&gt;Node9</title>
<path fill="none" stroke="midnightblue" d="M843.655,-119.774C920.788,-116.494 1120.35,-105.778 1295.8,-75.9478"/>
<polygon fill="midnightblue" stroke="midnightblue" points="1296.47,-79.385 1305.72,-74.2354 1295.27,-72.4869 1296.47,-79.385"/>
</g>
<!-- Node10 -->
<g id="node10" class="node"><title>Node10</title>
<polygon fill="none" stroke="#bfbfbf" points="758.5,-56.5 758.5,-75.5 841.5,-75.5 841.5,-56.5 758.5,-56.5"/>
<text text-anchor="middle" x="800" y="-63.5" font-family="Helvetica,sans-Serif" font-size="10.00">unordered_map</text>
</g>
<!-- Node3&#45;&gt;Node10 -->
<g id="edge9" class="edge"><title>Node3&#45;&gt;Node10</title>
<path fill="none" stroke="midnightblue" d="M809.184,-112.083C807.726,-104.927 805.629,-94.6353 803.807,-85.6911"/>
<polygon fill="midnightblue" stroke="midnightblue" points="807.208,-84.8512 801.783,-75.7511 800.349,-86.2485 807.208,-84.8512"/>
</g>
<!-- Node11 -->
<g id="node11" class="node"><title>Node11</title>
<polygon fill="none" stroke="#bfbfbf" points="859.5,-56.5 859.5,-75.5 918.5,-75.5 918.5,-56.5 859.5,-56.5"/>
<text text-anchor="middle" x="889" y="-63.5" font-family="Helvetica,sans-Serif" font-size="10.00">functional</text>
</g>
<!-- Node3&#45;&gt;Node11 -->
<g id="edge10" class="edge"><title>Node3&#45;&gt;Node11</title>
<path fill="none" stroke="midnightblue" d="M823.532,-112.324C835.586,-103.979 854.027,-91.2122 868.269,-81.3524"/>
<polygon fill="midnightblue" stroke="midnightblue" points="870.269,-84.2243 876.499,-75.6545 866.285,-78.469 870.269,-84.2243"/>
</g>
<!-- Node12 -->
<g id="node12" class="node"><title>Node12</title>
<polygon fill="none" stroke="#bfbfbf" points="936.5,-56.5 936.5,-75.5 965.5,-75.5 965.5,-56.5 936.5,-56.5"/>
<text text-anchor="middle" x="951" y="-63.5" font-family="Helvetica,sans-Serif" font-size="10.00">list</text>
</g>
<!-- Node3&#45;&gt;Node12 -->
<g id="edge11" class="edge"><title>Node3&#45;&gt;Node12</title>
<path fill="none" stroke="midnightblue" d="M833.183,-112.444C858.64,-102.624 900.259,-86.5715 926.609,-76.4081"/>
<polygon fill="midnightblue" stroke="midnightblue" points="928.151,-79.5646 936.221,-72.7003 925.632,-73.0336 928.151,-79.5646"/>
</g>
<!-- Node13 -->
<g id="node13" class="node"><title>Node13</title>
<polygon fill="none" stroke="#bfbfbf" points="984,-56.5 984,-75.5 1014,-75.5 1014,-56.5 984,-56.5"/>
<text text-anchor="middle" x="999" y="-63.5" font-family="Helvetica,sans-Serif" font-size="10.00">set</text>
</g>
<!-- Node3&#45;&gt;Node13 -->
<g id="edge12" class="edge"><title>Node3&#45;&gt;Node13</title>
<path fill="none" stroke="midnightblue" d="M843.687,-112.759C876.751,-104.24 929.231,-90.2154 974,-76 974.102,-75.9677 974.204,-75.9353 974.306,-75.9027"/>
<polygon fill="midnightblue" stroke="midnightblue" points="975.65,-79.1427 983.992,-72.6123 973.398,-72.5146 975.65,-79.1427"/>
</g>
<!-- Node14 -->
<g id="node14" class="node"><title>Node14</title>
<polygon fill="none" stroke="#bfbfbf" points="1032,-56.5 1032,-75.5 1078,-75.5 1078,-56.5 1032,-56.5"/>
<text text-anchor="middle" x="1055" y="-63.5" font-family="Helvetica,sans-Serif" font-size="10.00">atomic</text>
</g>
<!-- Node3&#45;&gt;Node14 -->
<g id="edge13" class="edge"><title>Node3&#45;&gt;Node14</title>
<path fill="none" stroke="midnightblue" d="M843.661,-114.626C885.238,-106.377 959.213,-91.2444 1022,-76 1022.1,-75.9755 1022.2,-75.9509 1022.3,-75.9262"/>
<polygon fill="midnightblue" stroke="midnightblue" points="1023.14,-79.3249 1031.96,-73.4597 1021.41,-72.5424 1023.14,-79.3249"/>
</g>
<!-- Node15 -->
<g id="node15" class="node"><title>Node15</title>
<polygon fill="none" stroke="#bfbfbf" points="1096,-56.5 1096,-75.5 1142,-75.5 1142,-56.5 1096,-56.5"/>
<text text-anchor="middle" x="1119" y="-63.5" font-family="Helvetica,sans-Serif" font-size="10.00">cctype</text>
</g>
<!-- Node3&#45;&gt;Node15 -->
<g id="edge14" class="edge"><title>Node3&#45;&gt;Node15</title>
<path fill="none" stroke="midnightblue" d="M843.518,-116.906C893.586,-110.342 992.704,-96.3133 1085.8,-76.0654"/>
<polygon fill="midnightblue" stroke="midnightblue" points="1086.65,-79.4629 1095.66,-73.8924 1085.14,-72.627 1086.65,-79.4629"/>
</g>
<!-- Node16 -->
<g id="node16" class="node"><title>Node16</title>
<polygon fill="none" stroke="#bfbfbf" points="1160,-56.5 1160,-75.5 1216,-75.5 1216,-56.5 1160,-56.5"/>
<text text-anchor="middle" x="1188" y="-63.5" font-family="Helvetica,sans-Serif" font-size="10.00">algorithm</text>
</g>
<!-- Node3&#45;&gt;Node16 -->
<g id="edge15" class="edge"><title>Node3&#45;&gt;Node16</title>
<path fill="none" stroke="midnightblue" d="M843.53,-117.866C902.608,-111.923 1031.62,-97.7866 1149.84,-76.0441"/>
<polygon fill="midnightblue" stroke="midnightblue" points="1150.6,-79.4641 1159.79,-74.1924 1149.31,-72.5824 1150.6,-79.4641"/>
</g>
<!-- Node17 -->
<g id="node17" class="node"><title>Node17</title>
<polygon fill="none" stroke="#bfbfbf" points="68.5,-56.5 68.5,-75.5 121.5,-75.5 121.5,-56.5 68.5,-56.5"/>
<text text-anchor="middle" x="95" y="-63.5" font-family="Helvetica,sans-Serif" font-size="10.00">complex</text>
</g>
<!-- Node3&#45;&gt;Node17 -->
<g id="edge16" class="edge"><title>Node3&#45;&gt;Node17</title>
<path fill="none" stroke="midnightblue" d="M778.215,-120.902C680.954,-120.175 385.557,-114.814 131.776,-75.8024"/>
<polygon fill="midnightblue" stroke="midnightblue" points="132.047,-72.3025 121.627,-74.2208 130.969,-79.219 132.047,-72.3025"/>
</g>
<!-- Node18 -->
<g id="node18" class="node"><title>Node18</title>
<polygon fill="none" stroke="#bfbfbf" points="1376,-56.5 1376,-75.5 1420,-75.5 1420,-56.5 1376,-56.5"/>
<text text-anchor="middle" x="1398" y="-63.5" font-family="Helvetica,sans-Serif" font-size="10.00">thread</text>
</g>
<!-- Node3&#45;&gt;Node18 -->
<g id="edge17" class="edge"><title>Node3&#45;&gt;Node18</title>
<path fill="none" stroke="midnightblue" d="M843.575,-120.65C928.359,-119.257 1162.83,-112.314 1365.83,-75.8493"/>
<polygon fill="midnightblue" stroke="midnightblue" points="1366.57,-79.2724 1375.78,-74.0339 1365.31,-72.3861 1366.57,-79.2724"/>
</g>
<!-- Node19 -->
<g id="node19" class="node"><title>Node19</title>
<g id="a_node19"><a xlink:href="Ptr_8h.xhtml" target="_top" xlink:title="Ptr.h">
<polygon fill="none" stroke="black" points="140,-56.5 140,-75.5 178,-75.5 178,-56.5 140,-56.5"/>
<text text-anchor="middle" x="159" y="-63.5" font-family="Helvetica,sans-Serif" font-size="10.00">Ptr.h</text>
</a>
</g>
</g>
<!-- Node3&#45;&gt;Node19 -->
<g id="edge18" class="edge"><title>Node3&#45;&gt;Node19</title>
<path fill="none" stroke="midnightblue" d="M778.494,-121.374C686.714,-121.857 417.881,-119.33 188.003,-75.7167"/>
<polygon fill="midnightblue" stroke="midnightblue" points="188.604,-72.2682 178.122,-73.8119 187.278,-79.1416 188.604,-72.2682"/>
</g>
<!-- Node21 -->
<g id="node21" class="node"><title>Node21</title>
<polygon fill="none" stroke="#bfbfbf" points="196,-56.5 196,-75.5 240,-75.5 240,-56.5 196,-56.5"/>
<text text-anchor="middle" x="218" y="-63.5" font-family="Helvetica,sans-Serif" font-size="10.00">mutex</text>
</g>
<!-- Node3&#45;&gt;Node21 -->
<g id="edge20" class="edge"><title>Node3&#45;&gt;Node21</title>
<path fill="none" stroke="midnightblue" d="M778.39,-120.689C692.961,-119.39 455.63,-112.653 250.284,-75.8678"/>
<polygon fill="midnightblue" stroke="midnightblue" points="250.687,-72.3837 240.222,-74.0362 249.433,-79.2705 250.687,-72.3837"/>
</g>
<!-- Node22 -->
<g id="node22" class="node"><title>Node22</title>
<polygon fill="none" stroke="#bfbfbf" points="258.5,-56.5 258.5,-75.5 353.5,-75.5 353.5,-56.5 258.5,-56.5"/>
<text text-anchor="middle" x="306" y="-63.5" font-family="Helvetica,sans-Serif" font-size="10.00">condition_variable</text>
</g>
<!-- Node3&#45;&gt;Node22 -->
<g id="edge21" class="edge"><title>Node3&#45;&gt;Node22</title>
<path fill="none" stroke="midnightblue" d="M778.325,-118.355C705.791,-112.347 525.643,-96.6725 363.703,-76.0186"/>
<polygon fill="midnightblue" stroke="midnightblue" points="363.921,-72.5179 353.557,-74.7148 363.029,-79.4608 363.921,-72.5179"/>
</g>
<!-- Node23 -->
<g id="node23" class="node"><title>Node23</title>
<polygon fill="none" stroke="#bfbfbf" points="372,-56.5 372,-75.5 450,-75.5 450,-56.5 372,-56.5"/>
<text text-anchor="middle" x="411" y="-63.5" font-family="Helvetica,sans-Serif" font-size="10.00">VoxelConfig.h</text>
</g>
<!-- Node3&#45;&gt;Node23 -->
<g id="edge22" class="edge"><title>Node3&#45;&gt;Node23</title>
<path fill="none" stroke="midnightblue" d="M778.395,-117.474C717.792,-110.781 583.48,-95.3003 460.246,-76.1202"/>
<polygon fill="midnightblue" stroke="midnightblue" points="460.682,-72.6458 450.261,-74.5539 459.597,-79.5612 460.682,-72.6458"/>
</g>
<!-- Node24 -->
<g id="node24" class="node"><title>Node24</title>
<polygon fill="none" stroke="#bfbfbf" points="468.5,-56.5 468.5,-75.5 551.5,-75.5 551.5,-56.5 468.5,-56.5"/>
<text text-anchor="middle" x="510" y="-63.5" font-family="Helvetica,sans-Serif" font-size="10.00">VoxelExports.h</text>
</g>
<!-- Node3&#45;&gt;Node24 -->
<g id="edge23" class="edge"><title>Node3&#45;&gt;Node24</title>
<path fill="none" stroke="midnightblue" d="M778.215,-115.118C726.038,-105.758 623.677,-87.3939 561.6,-76.2571"/>
<polygon fill="midnightblue" stroke="midnightblue" points="562.083,-72.7881 551.622,-74.4671 560.847,-79.6781 562.083,-72.7881"/>
</g>
<!-- Node20 -->
<g id="node20" class="node"><title>Node20</title>
<polygon fill="none" stroke="#bfbfbf" points="133,-0.5 133,-19.5 185,-19.5 185,-0.5 133,-0.5"/>
<text text-anchor="middle" x="159" y="-7.5" font-family="Helvetica,sans-Serif" font-size="10.00">memory</text>
</g>
<!-- Node19&#45;&gt;Node20 -->
<g id="edge19" class="edge"><title>Node19&#45;&gt;Node20</title>
<path fill="none" stroke="midnightblue" d="M159,-56.083C159,-49.0059 159,-38.8611 159,-29.9865"/>
<polygon fill="midnightblue" stroke="midnightblue" points="162.5,-29.751 159,-19.7511 155.5,-29.7511 162.5,-29.751"/>
</g>
<!-- Node26&#45;&gt;Node3 -->
<g id="edge30" class="edge"><title>Node26&#45;&gt;Node3</title>
<path fill="none" stroke="midnightblue" d="M1000.96,-170.27C963.959,-161.063 897.185,-144.447 853.476,-133.57"/>
<polygon fill="midnightblue" stroke="midnightblue" points="854.256,-130.157 843.706,-131.139 852.565,-136.95 854.256,-130.157"/>
</g>
<!-- Node26&#45;&gt;Node7 -->
<g id="edge27" class="edge"><title>Node26&#45;&gt;Node7</title>
<path fill="none" stroke="midnightblue" d="M1046.28,-168.368C1087.03,-149.131 1185.49,-102.648 1233.61,-79.9314"/>
<polygon fill="midnightblue" stroke="midnightblue" points="1235.25,-83.0257 1242.8,-75.5914 1232.26,-76.6956 1235.25,-83.0257"/>
</g>
<!-- Node26&#45;&gt;Node9 -->
<g id="edge28" class="edge"><title>Node26&#45;&gt;Node9</title>
<path fill="none" stroke="midnightblue" d="M1053.47,-168.387C1079.73,-159.46 1121.82,-145.018 1158,-132 1207.71,-114.114 1265.06,-92.5005 1299.91,-79.2551"/>
<polygon fill="midnightblue" stroke="midnightblue" points="1301.44,-82.4168 1309.54,-75.5889 1298.95,-75.8745 1301.44,-82.4168"/>
</g>
<!-- Node26&#45;&gt;Node18 -->
<g id="edge29" class="edge"><title>Node26&#45;&gt;Node18</title>
<path fill="none" stroke="midnightblue" d="M1055.05,-170.035C1095.85,-159.497 1171.2,-139.894 1198,-132 1257.92,-114.346 1327.09,-91.2535 1366.37,-77.8792"/>
<polygon fill="midnightblue" stroke="midnightblue" points="1367.6,-81.1608 1375.93,-74.6174 1365.33,-74.5362 1367.6,-81.1608"/>
</g>
</g>
</svg>
