<?xml version="1.0" encoding="UTF-8" standalone="no"?>
<!DOCTYPE svg PUBLIC "-//W3C//DTD SVG 1.1//EN"
 "http://www.w3.org/Graphics/SVG/1.1/DTD/svg11.dtd">
<!-- Generated by graphviz version 2.36.0 (20140111.2315)
 -->
<!-- Title: boards Pages: 1 -->
<svg width="525pt" height="159pt"
 viewBox="0.00 0.00 525.00 159.00" xmlns="http://www.w3.org/2000/svg" xmlns:xlink="http://www.w3.org/1999/xlink">
<g id="graph0" class="graph" transform="scale(1 1) rotate(0) translate(4 155)">
<title>boards</title>
<g id="clust1" class="cluster"><title>clusterdir_15084b10ffde3b770ebb4469406358eb</title>
<g id="a_clust1"><a xlink:href="dir_15084b10ffde3b770ebb4469406358eb.xhtml" target="_top" xlink:title="TI3DToF">
<polygon fill="#ddddee" stroke="black" points="8,-56 8,-143 509,-143 509,-56 8,-56"/>
<text text-anchor="middle" x="258.5" y="-131" font-family="Helvetica,sans-Serif" font-size="10.00">TI3DToF</text>
</a>
</g>
</g>
<g id="clust2" class="cluster"><title>clusterdir_be2c02f355bab862214d9d800e941b4f</title>
<g id="a_clust2"><a xlink:href="dir_be2c02f355bab862214d9d800e941b4f.xhtml" target="_top">
<polygon fill="#eeeeff" stroke="black" points="16,-64 16,-116 501,-116 501,-64 16,-64"/>
</a>
</g>
</g>
<!-- dir_be2c02f355bab862214d9d800e941b4f -->
<g id="node1" class="node"><title>dir_be2c02f355bab862214d9d800e941b4f</title>
<text text-anchor="middle" x="466" y="-87.5" font-family="Helvetica,sans-Serif" font-size="10.00">boards</text>
</g>
<!-- dir_8b351c0e1a2d8842385c866eb8f219d7 -->
<g id="node2" class="node"><title>dir_8b351c0e1a2d8842385c866eb8f219d7</title>
<g id="a_node2"><a xlink:href="dir_8b351c0e1a2d8842385c866eb8f219d7.xhtml" target="_top" xlink:title="CalculusCDK">
<polygon fill="white" stroke="black" points="420.25,-108 343.75,-108 343.75,-72 420.25,-72 420.25,-108"/>
<text text-anchor="middle" x="382" y="-87.5" font-family="Helvetica,sans-Serif" font-size="10.00">CalculusCDK</text>
</a>
</g>
</g>
<!-- dir_e7f07c35b19a6de9638fcd101b463d91 -->
<g id="node7" class="node"><title>dir_e7f07c35b19a6de9638fcd101b463d91</title>
<g id="a_node7"><a xlink:href="dir_e7f07c35b19a6de9638fcd101b463d91.xhtml" target="_top" xlink:title="Voxel">
<polygon fill="none" stroke="red" points="226,-36 172,-36 172,-0 226,-0 226,-36"/>
<text text-anchor="middle" x="199" y="-15.5" font-family="Helvetica,sans-Serif" font-size="10.00">Voxel</text>
</a>
</g>
</g>
<!-- dir_8b351c0e1a2d8842385c866eb8f219d7&#45;&gt;dir_e7f07c35b19a6de9638fcd101b463d91 -->
<g id="edge4" class="edge"><title>dir_8b351c0e1a2d8842385c866eb8f219d7&#45;&gt;dir_e7f07c35b19a6de9638fcd101b463d91</title>
<path fill="none" stroke="black" d="M360.468,-71.9187C352.502,-66.2281 343.171,-60.2607 334,-56 302.438,-41.3376 263.943,-31.5012 236.147,-25.6797"/>
<polygon fill="black" stroke="black" points="236.55,-22.1905 226.055,-23.6435 235.166,-29.0522 236.55,-22.1905"/>
<g id="a_edge4&#45;headlabel"><a xlink:href="dir_000004_000000.xhtml" target="_top" xlink:title="7">
<text text-anchor="middle" x="240.635" y="-17.6182" font-family="Helvetica,sans-Serif" font-size="10.00">7</text>
</a>
</g>
</g>
<!-- dir_926167e1dd1760131320202ef60ed60b -->
<g id="node3" class="node"><title>dir_926167e1dd1760131320202ef60ed60b</title>
<g id="a_node3"><a xlink:href="dir_926167e1dd1760131320202ef60ed60b.xhtml" target="_top" xlink:title="HaddockCDK">
<polygon fill="white" stroke="black" points="325.25,-108 248.75,-108 248.75,-72 325.25,-72 325.25,-108"/>
<text text-anchor="middle" x="287" y="-87.5" font-family="Helvetica,sans-Serif" font-size="10.00">HaddockCDK</text>
</a>
</g>
</g>
<!-- dir_926167e1dd1760131320202ef60ed60b&#45;&gt;dir_e7f07c35b19a6de9638fcd101b463d91 -->
<g id="edge1" class="edge"><title>dir_926167e1dd1760131320202ef60ed60b&#45;&gt;dir_e7f07c35b19a6de9638fcd101b463d91</title>
<path fill="none" stroke="black" d="M265.247,-71.6966C254.164,-62.8807 240.526,-52.0321 228.51,-42.4742"/>
<polygon fill="black" stroke="black" points="230.507,-39.5905 220.503,-36.1043 226.15,-45.0687 230.507,-39.5905"/>
<g id="a_edge1&#45;headlabel"><a xlink:href="dir_000007_000000.xhtml" target="_top" xlink:title="6">
<text text-anchor="middle" x="235.088" y="-37.1062" font-family="Helvetica,sans-Serif" font-size="10.00">6</text>
</a>
</g>
</g>
<!-- dir_3feeec63b515f630fcd875cd15f48403 -->
<g id="node4" class="node"><title>dir_3feeec63b515f630fcd875cd15f48403</title>
<g id="a_node4"><a xlink:href="dir_3feeec63b515f630fcd875cd15f48403.xhtml" target="_top" xlink:title="TintinCDK">
<polygon fill="white" stroke="black" points="229.5,-108 168.5,-108 168.5,-72 229.5,-72 229.5,-108"/>
<text text-anchor="middle" x="199" y="-87.5" font-family="Helvetica,sans-Serif" font-size="10.00">TintinCDK</text>
</a>
</g>
</g>
<!-- dir_3feeec63b515f630fcd875cd15f48403&#45;&gt;dir_e7f07c35b19a6de9638fcd101b463d91 -->
<g id="edge5" class="edge"><title>dir_3feeec63b515f630fcd875cd15f48403&#45;&gt;dir_e7f07c35b19a6de9638fcd101b463d91</title>
<path fill="none" stroke="black" d="M199,-71.6966C199,-63.9827 199,-54.7125 199,-46.1124"/>
<polygon fill="black" stroke="black" points="202.5,-46.1043 199,-36.1043 195.5,-46.1044 202.5,-46.1043"/>
<g id="a_edge5&#45;headlabel"><a xlink:href="dir_000011_000000.xhtml" target="_top" xlink:title="9">
<text text-anchor="middle" x="205.339" y="-47.199" font-family="Helvetica,sans-Serif" font-size="10.00">9</text>
</a>
</g>
</g>
<!-- dir_6e4881ae1c42785ae3922eb73331641f -->
<g id="node5" class="node"><title>dir_6e4881ae1c42785ae3922eb73331641f</title>
<g id="a_node5"><a xlink:href="dir_6e4881ae1c42785ae3922eb73331641f.xhtml" target="_top" xlink:title="Voxel14">
<polygon fill="white" stroke="black" points="150,-108 96,-108 96,-72 150,-72 150,-108"/>
<text text-anchor="middle" x="123" y="-87.5" font-family="Helvetica,sans-Serif" font-size="10.00">Voxel14</text>
</a>
</g>
</g>
<!-- dir_6e4881ae1c42785ae3922eb73331641f&#45;&gt;dir_e7f07c35b19a6de9638fcd101b463d91 -->
<g id="edge2" class="edge"><title>dir_6e4881ae1c42785ae3922eb73331641f&#45;&gt;dir_e7f07c35b19a6de9638fcd101b463d91</title>
<path fill="none" stroke="black" d="M141.787,-71.6966C151.174,-63.0503 162.684,-52.4486 172.913,-43.027"/>
<polygon fill="black" stroke="black" points="175.445,-45.4535 180.43,-36.1043 170.703,-40.3047 175.445,-45.4535"/>
<g id="a_edge2&#45;headlabel"><a xlink:href="dir_000012_000000.xhtml" target="_top" xlink:title="6">
<text text-anchor="middle" x="174.725" y="-47.4772" font-family="Helvetica,sans-Serif" font-size="10.00">6</text>
</a>
</g>
</g>
<!-- dir_bf9ba4359f5284dfcd715a8c900bcdf7 -->
<g id="node6" class="node"><title>dir_bf9ba4359f5284dfcd715a8c900bcdf7</title>
<g id="a_node6"><a xlink:href="dir_bf9ba4359f5284dfcd715a8c900bcdf7.xhtml" target="_top" xlink:title="VoxelD">
<polygon fill="white" stroke="black" points="78,-108 24,-108 24,-72 78,-72 78,-108"/>
<text text-anchor="middle" x="51" y="-87.5" font-family="Helvetica,sans-Serif" font-size="10.00">VoxelD</text>
</a>
</g>
</g>
<!-- dir_bf9ba4359f5284dfcd715a8c900bcdf7&#45;&gt;dir_e7f07c35b19a6de9638fcd101b463d91 -->
<g id="edge3" class="edge"><title>dir_bf9ba4359f5284dfcd715a8c900bcdf7&#45;&gt;dir_e7f07c35b19a6de9638fcd101b463d91</title>
<path fill="none" stroke="black" d="M66.6651,-71.9513C72.5939,-66.2637 79.6868,-60.2899 87,-56 110.282,-42.3425 139.282,-32.9401 161.938,-27.0317"/>
<polygon fill="black" stroke="black" points="163.001,-30.3739 171.858,-24.5602 161.309,-23.5816 163.001,-30.3739"/>
<g id="a_edge3&#45;headlabel"><a xlink:href="dir_000013_000000.xhtml" target="_top" xlink:title="6">
<text text-anchor="middle" x="160.2" y="-31.4979" font-family="Helvetica,sans-Serif" font-size="10.00">6</text>
</a>
</g>
</g>
</g>
</svg>
