<?xml version="1.0" encoding="UTF-8" standalone="no"?>
<!DOCTYPE svg PUBLIC "-//W3C//DTD SVG 1.1//EN"
 "http://www.w3.org/Graphics/SVG/1.1/DTD/svg11.dtd">
<!-- Generated by graphviz version 2.36.0 (20140111.2315)
 -->
<!-- Title: boards Pages: 1 -->
<!--zoomable 159 -->
<svg id="main" version="1.1" xmlns="http://www.w3.org/2000/svg" xmlns:xlink="http://www.w3.org/1999/xlink" xml:space="preserve" onload="init(evt)">
<style type="text/css"><![CDATA[
.edge:hover path { stroke: red; }
.edge:hover polygon { stroke: red; fill: red; }
]]></style>
<script type="text/javascript"><![CDATA[
var edges = document.getElementsByTagName('g');
if (edges && edges.length) {
  for (var i=0;i<edges.length;i++) {
    if (edges[i].id.substr(0,4)=='edge') {
      edges[i].setAttribute('class','edge');
    }
  }
}
]]></script>
        <defs>
                <circle id="rim" cx="0" cy="0" r="7"/>
                <circle id="rim2" cx="0" cy="0" r="3.5"/>
                <g id="zoomPlus">
                        <use xlink:href="#rim" fill="#404040">
                                <set attributeName="fill" to="#808080" begin="zoomplus.mouseover" end="zoomplus.mouseout"/>
                        </use>
                        <path d="M-4,0h8M0,-4v8" fill="none" stroke="white" stroke-width="1.5" pointer-events="none"/>
                </g>
                <g id="zoomMin">
                        <use xlink:href="#rim" fill="#404040">
                                <set attributeName="fill" to="#808080" begin="zoomminus.mouseover" end="zoomminus.mouseout"/>
                        </use>
                        <path d="M-4,0h8" fill="none" stroke="white" stroke-width="1.5" pointer-events="none"/>
                </g>
                <g id="dirArrow">
                        <path fill="none" stroke="white" stroke-width="1.5" d="M0,-3.0v7 M-2.5,-0.5L0,-3.0L2.5,-0.5"/>
                </g>
               <g id="resetDef">
                       <use xlink:href="#rim2" fill="#404040">
                               <set attributeName="fill" to="#808080" begin="reset.mouseover" end="reset.mouseout"/>
                       </use>
               </g>
        </defs>

<script type="text/javascript">
var viewWidth = 635;
var viewHeight = 159;
var sectionId = 'dynsection-0';
</script>
<script xlink:href="svgpan.js"/>
<svg id="graph" class="graph">
<g id="viewport">
<title>boards</title>
<g id="clust1" class="cluster"><title>clusterdir_15084b10ffde3b770ebb4469406358eb</title>
<g id="a_clust1"><a xlink:href="dir_15084b10ffde3b770ebb4469406358eb.xhtml" target="_top" xlink:title="TI3DToF">
<polygon fill="#ddddee" stroke="black" points="8,-56 8,-143 619,-143 619,-56 8,-56"/>
<text text-anchor="middle" x="313.5" y="-131" font-family="Helvetica,sans-Serif" font-size="10.00">TI3DToF</text>
</a>
</g>
</g>
<g id="clust2" class="cluster"><title>clusterdir_be2c02f355bab862214d9d800e941b4f</title>
<g id="a_clust2"><a xlink:href="dir_be2c02f355bab862214d9d800e941b4f.xhtml" target="_top">
<polygon fill="#eeeeff" stroke="black" points="16,-64 16,-116 611,-116 611,-64 16,-64"/>
</a>
</g>
</g>
<!-- dir_be2c02f355bab862214d9d800e941b4f -->
<g id="node1" class="node"><title>dir_be2c02f355bab862214d9d800e941b4f</title>
<text text-anchor="middle" x="576" y="-87.5" font-family="Helvetica,sans-Serif" font-size="10.00">boards</text>
</g>
<!-- dir_8b351c0e1a2d8842385c866eb8f219d7 -->
<g id="node2" class="node"><title>dir_8b351c0e1a2d8842385c866eb8f219d7</title>
<g id="a_node2"><a xlink:href="dir_8b351c0e1a2d8842385c866eb8f219d7.xhtml" target="_top" xlink:title="CalculusCDK">
<polygon fill="white" stroke="black" points="530.25,-108 453.75,-108 453.75,-72 530.25,-72 530.25,-108"/>
<text text-anchor="middle" x="492" y="-87.5" font-family="Helvetica,sans-Serif" font-size="10.00">CalculusCDK</text>
</a>
</g>
</g>
<!-- dir_e7f07c35b19a6de9638fcd101b463d91 -->
<g id="node8" class="node"><title>dir_e7f07c35b19a6de9638fcd101b463d91</title>
<g id="a_node8"><a xlink:href="dir_e7f07c35b19a6de9638fcd101b463d91.xhtml" target="_top" xlink:title="Voxel">
<polygon fill="none" stroke="red" points="273,-36 219,-36 219,-0 273,-0 273,-36"/>
<text text-anchor="middle" x="246" y="-15.5" font-family="Helvetica,sans-Serif" font-size="10.00">Voxel</text>
</a>
</g>
</g>
<!-- dir_8b351c0e1a2d8842385c866eb8f219d7&#45;&gt;dir_e7f07c35b19a6de9638fcd101b463d91 -->
<g id="edge5" class="edge"><title>dir_8b351c0e1a2d8842385c866eb8f219d7&#45;&gt;dir_e7f07c35b19a6de9638fcd101b463d91</title>
<path fill="none" stroke="black" d="M471.13,-71.8356C463.082,-65.9974 453.527,-59.9551 444,-56 390.817,-33.9204 324.131,-24.9368 283.317,-21.337"/>
<polygon fill="black" stroke="black" points="283.525,-17.8424 273.272,-20.5142 282.953,-24.819 283.525,-17.8424"/>
<g id="a_edge5&#45;headlabel"><a xlink:href="dir_000004_000000.xhtml" target="_top" xlink:title="7">
<text text-anchor="middle" x="287.339" y="-12.806" font-family="Helvetica,sans-Serif" font-size="10.00">7</text>
</a>
</g>
</g>
<!-- dir_926167e1dd1760131320202ef60ed60b -->
<g id="node3" class="node"><title>dir_926167e1dd1760131320202ef60ed60b</title>
<g id="a_node3"><a xlink:href="dir_926167e1dd1760131320202ef60ed60b.xhtml" target="_top" xlink:title="HaddockCDK">
<polygon fill="white" stroke="black" points="435.25,-108 358.75,-108 358.75,-72 435.25,-72 435.25,-108"/>
<text text-anchor="middle" x="397" y="-87.5" font-family="Helvetica,sans-Serif" font-size="10.00">HaddockCDK</text>
</a>
</g>
</g>
<!-- dir_926167e1dd1760131320202ef60ed60b&#45;&gt;dir_e7f07c35b19a6de9638fcd101b463d91 -->
<g id="edge1" class="edge"><title>dir_926167e1dd1760131320202ef60ed60b&#45;&gt;dir_e7f07c35b19a6de9638fcd101b463d91</title>
<path fill="none" stroke="black" d="M374.796,-71.9706C366.921,-66.4153 357.82,-60.5199 349,-56 327.88,-45.1767 302.851,-36.1072 282.755,-29.6566"/>
<polygon fill="black" stroke="black" points="283.623,-26.261 273.034,-26.6155 281.533,-32.9417 283.623,-26.261"/>
<g id="a_edge1&#45;headlabel"><a xlink:href="dir_000009_000000.xhtml" target="_top" xlink:title="6">
<text text-anchor="middle" x="287.901" y="-22.1244" font-family="Helvetica,sans-Serif" font-size="10.00">6</text>
</a>
</g>
</g>
<!-- dir_6e1f9f0b895519daa2c13c1ae38e5cdd -->
<g id="node4" class="node"><title>dir_6e1f9f0b895519daa2c13c1ae38e5cdd</title>
<g id="a_node4"><a xlink:href="dir_6e1f9f0b895519daa2c13c1ae38e5cdd.xhtml" target="_top" xlink:title="RTS5825Camera">
<polygon fill="white" stroke="black" points="340,-108 248,-108 248,-72 340,-72 340,-108"/>
<text text-anchor="middle" x="294" y="-87.5" font-family="Helvetica,sans-Serif" font-size="10.00">RTS5825Camera</text>
</a>
</g>
</g>
<!-- dir_6e1f9f0b895519daa2c13c1ae38e5cdd&#45;&gt;dir_e7f07c35b19a6de9638fcd101b463d91 -->
<g id="edge4" class="edge"><title>dir_6e1f9f0b895519daa2c13c1ae38e5cdd&#45;&gt;dir_e7f07c35b19a6de9638fcd101b463d91</title>
<path fill="none" stroke="black" d="M282.135,-71.6966C276.497,-63.4741 269.646,-53.4832 263.431,-44.4207"/>
<polygon fill="black" stroke="black" points="266.271,-42.3723 257.729,-36.1043 260.497,-46.331 266.271,-42.3723"/>
<g id="a_edge4&#45;headlabel"><a xlink:href="dir_000012_000000.xhtml" target="_top" xlink:title="6">
<text text-anchor="middle" x="270.645" y="-41.2312" font-family="Helvetica,sans-Serif" font-size="10.00">6</text>
</a>
</g>
</g>
<!-- dir_3feeec63b515f630fcd875cd15f48403 -->
<g id="node5" class="node"><title>dir_3feeec63b515f630fcd875cd15f48403</title>
<g id="a_node5"><a xlink:href="dir_3feeec63b515f630fcd875cd15f48403.xhtml" target="_top" xlink:title="TintinCDK">
<polygon fill="white" stroke="black" points="229.5,-108 168.5,-108 168.5,-72 229.5,-72 229.5,-108"/>
<text text-anchor="middle" x="199" y="-87.5" font-family="Helvetica,sans-Serif" font-size="10.00">TintinCDK</text>
</a>
</g>
</g>
<!-- dir_3feeec63b515f630fcd875cd15f48403&#45;&gt;dir_e7f07c35b19a6de9638fcd101b463d91 -->
<g id="edge6" class="edge"><title>dir_3feeec63b515f630fcd875cd15f48403&#45;&gt;dir_e7f07c35b19a6de9638fcd101b463d91</title>
<path fill="none" stroke="black" d="M210.618,-71.6966C216.139,-63.4741 222.847,-53.4832 228.932,-44.4207"/>
<polygon fill="black" stroke="black" points="231.847,-46.3576 234.516,-36.1043 226.035,-42.4555 231.847,-46.3576"/>
<g id="a_edge6&#45;headlabel"><a xlink:href="dir_000013_000000.xhtml" target="_top" xlink:title="9">
<text text-anchor="middle" x="232.201" y="-48.4246" font-family="Helvetica,sans-Serif" font-size="10.00">9</text>
</a>
</g>
</g>
<!-- dir_6e4881ae1c42785ae3922eb73331641f -->
<g id="node6" class="node"><title>dir_6e4881ae1c42785ae3922eb73331641f</title>
<g id="a_node6"><a xlink:href="dir_6e4881ae1c42785ae3922eb73331641f.xhtml" target="_top" xlink:title="Voxel14">
<polygon fill="white" stroke="black" points="150,-108 96,-108 96,-72 150,-72 150,-108"/>
<text text-anchor="middle" x="123" y="-87.5" font-family="Helvetica,sans-Serif" font-size="10.00">Voxel14</text>
</a>
</g>
</g>
<!-- dir_6e4881ae1c42785ae3922eb73331641f&#45;&gt;dir_e7f07c35b19a6de9638fcd101b463d91 -->
<g id="edge2" class="edge"><title>dir_6e4881ae1c42785ae3922eb73331641f&#45;&gt;dir_e7f07c35b19a6de9638fcd101b463d91</title>
<path fill="none" stroke="black" d="M139.229,-71.9456C145.101,-66.3882 152.014,-60.498 159,-56 174.543,-45.993 193.248,-37.6297 209.326,-31.4007"/>
<polygon fill="black" stroke="black" points="210.805,-34.5843 218.945,-27.8024 208.352,-28.028 210.805,-34.5843"/>
<g id="a_edge2&#45;headlabel"><a xlink:href="dir_000014_000000.xhtml" target="_top" xlink:title="6">
<text text-anchor="middle" x="208.433" y="-36.003" font-family="Helvetica,sans-Serif" font-size="10.00">6</text>
</a>
</g>
</g>
<!-- dir_bf9ba4359f5284dfcd715a8c900bcdf7 -->
<g id="node7" class="node"><title>dir_bf9ba4359f5284dfcd715a8c900bcdf7</title>
<g id="a_node7"><a xlink:href="dir_bf9ba4359f5284dfcd715a8c900bcdf7.xhtml" target="_top" xlink:title="VoxelD">
<polygon fill="white" stroke="black" points="78,-108 24,-108 24,-72 78,-72 78,-108"/>
<text text-anchor="middle" x="51" y="-87.5" font-family="Helvetica,sans-Serif" font-size="10.00">VoxelD</text>
</a>
</g>
</g>
<!-- dir_bf9ba4359f5284dfcd715a8c900bcdf7&#45;&gt;dir_e7f07c35b19a6de9638fcd101b463d91 -->
<g id="edge3" class="edge"><title>dir_bf9ba4359f5284dfcd715a8c900bcdf7&#45;&gt;dir_e7f07c35b19a6de9638fcd101b463d91</title>
<path fill="none" stroke="black" d="M66.1043,-71.9213C72.0815,-66.0923 79.3504,-60.0341 87,-56 125.569,-35.6604 175.206,-26.4047 208.678,-22.2566"/>
<polygon fill="black" stroke="black" points="209.406,-25.6962 218.943,-21.0817 208.61,-18.7416 209.406,-25.6962"/>
<g id="a_edge3&#45;headlabel"><a xlink:href="dir_000015_000000.xhtml" target="_top" xlink:title="6">
<text text-anchor="middle" x="206.158" y="-26.4258" font-family="Helvetica,sans-Serif" font-size="10.00">6</text>
</a>
</g>
</g>
</g>
</svg>
        <g id="navigator" transform="translate(0 0)" fill="#404254">
                <rect fill="#f2f5e9" fill-opacity="0.5" stroke="#606060" stroke-width=".5" x="0" y="0" width="60" height="60"/>
                <use id="zoomplus" xlink:href="#zoomPlus" x="17" y="9" onmousedown="handleZoom(evt,'in')"/>
                <use id="zoomminus" xlink:href="#zoomMin" x="42" y="9" onmousedown="handleZoom(evt,'out')"/>
                <use id="reset" xlink:href="#resetDef" x="30" y="36" onmousedown="handleReset()"/>
                <g id="arrowUp" xlink:href="#dirArrow" transform="translate(30 24)" onmousedown="handlePan(0,-1)">
                  <use xlink:href="#rim" fill="#404040">
                        <set attributeName="fill" to="#808080" begin="arrowUp.mouseover" end="arrowUp.mouseout"/>
                  </use>
                  <path fill="none" stroke="white" stroke-width="1.5" d="M0,-3.0v7 M-2.5,-0.5L0,-3.0L2.5,-0.5"/>
                </g>
                <g id="arrowRight" xlink:href="#dirArrow" transform="rotate(90) translate(36 -43)" onmousedown="handlePan(1,0)">
                  <use xlink:href="#rim" fill="#404040">
                        <set attributeName="fill" to="#808080" begin="arrowRight.mouseover" end="arrowRight.mouseout"/>
                  </use>
                  <path fill="none" stroke="white" stroke-width="1.5" d="M0,-3.0v7 M-2.5,-0.5L0,-3.0L2.5,-0.5"/>
                </g>
                <g id="arrowDown" xlink:href="#dirArrow" transform="rotate(180) translate(-30 -48)" onmousedown="handlePan(0,1)">
                  <use xlink:href="#rim" fill="#404040">
                        <set attributeName="fill" to="#808080" begin="arrowDown.mouseover" end="arrowDown.mouseout"/>
                  </use>
                  <path fill="none" stroke="white" stroke-width="1.5" d="M0,-3.0v7 M-2.5,-0.5L0,-3.0L2.5,-0.5"/>
                </g>
                <g id="arrowLeft" xlink:href="#dirArrow" transform="rotate(270) translate(-36 17)" onmousedown="handlePan(-1,0)">
                  <use xlink:href="#rim" fill="#404040">
                        <set attributeName="fill" to="#808080" begin="arrowLeft.mouseover" end="arrowLeft.mouseout"/>
                  </use>
                  <path fill="none" stroke="white" stroke-width="1.5" d="M0,-3.0v7 M-2.5,-0.5L0,-3.0L2.5,-0.5"/>
                </g>
        </g>
        <svg viewBox="0 0 15 15" width="100%" height="30px" preserveAspectRatio="xMaxYMin meet">
         <g id="arrow_out" transform="scale(0.3 0.3)">
          <a xlink:href="dir_be2c02f355bab862214d9d800e941b4f_dep_org.svg" target="_base">
           <rect id="button" ry="5" rx="5" y="6" x="6" height="38" width="38"
                fill="#f2f5e9" fill-opacity="0.5" stroke="#606060" stroke-width="1.0"/>
           <path id="arrow"
             d="M 11.500037,31.436501 C 11.940474,20.09759 22.043105,11.32322 32.158766,21.979434 L 37.068811,17.246167 C 37.068811,17.246167 37.088388,32 37.088388,32 L 22.160133,31.978069 C 22.160133,31.978069 26.997745,27.140456 26.997745,27.140456 C 18.528582,18.264221 13.291696,25.230495 11.500037,31.436501 z"
             style="fill:#404040;"/>
          </a>
         </g>
        </svg>
</svg>
