<?xml version="1.0" encoding="UTF-8" standalone="no"?>
<!DOCTYPE svg PUBLIC "-//W3C//DTD SVG 1.1//EN"
 "http://www.w3.org/Graphics/SVG/1.1/DTD/svg11.dtd">
<!-- Generated by graphviz version 2.36.0 (20140111.2315)
 -->
<!-- Title: DMLParseTest.cpp Pages: 1 -->
<svg width="1467pt" height="364pt"
 viewBox="0.00 0.00 1467.00 364.00" xmlns="http://www.w3.org/2000/svg" xmlns:xlink="http://www.w3.org/1999/xlink">
<g id="graph0" class="graph" transform="scale(1 1) rotate(0) translate(4 360)">
<title>DMLParseTest.cpp</title>
<!-- Node1 -->
<g id="node1" class="node"><title>Node1</title>
<polygon fill="#bfbfbf" stroke="black" points="730.5,-336.5 730.5,-355.5 831.5,-355.5 831.5,-336.5 730.5,-336.5"/>
<text text-anchor="middle" x="781" y="-343.5" font-family="Helvetica,sans-Serif" font-size="10.00">DMLParseTest.cpp</text>
</g>
<!-- Node2 -->
<g id="node2" class="node"><title>Node2</title>
<polygon fill="none" stroke="#bfbfbf" points="481.5,-280.5 481.5,-299.5 552.5,-299.5 552.5,-280.5 481.5,-280.5"/>
<text text-anchor="middle" x="517" y="-287.5" font-family="Helvetica,sans-Serif" font-size="10.00">SimpleOpt.h</text>
</g>
<!-- Node1&#45;&gt;Node2 -->
<g id="edge1" class="edge"><title>Node1&#45;&gt;Node2</title>
<path fill="none" stroke="midnightblue" d="M739.168,-336.444C691.017,-326.594 612.202,-310.473 562.539,-300.315"/>
<polygon fill="midnightblue" stroke="midnightblue" points="563.208,-296.879 552.709,-298.304 561.805,-303.737 563.208,-296.879"/>
</g>
<!-- Node3 -->
<g id="node3" class="node"><title>Node3</title>
<g id="a_node3"><a xlink:href="Common_8h.xhtml" target="_top" xlink:title="Common.h">
<polygon fill="none" stroke="black" points="624.5,-112.5 624.5,-131.5 689.5,-131.5 689.5,-112.5 624.5,-112.5"/>
<text text-anchor="middle" x="657" y="-119.5" font-family="Helvetica,sans-Serif" font-size="10.00">Common.h</text>
</a>
</g>
</g>
<!-- Node1&#45;&gt;Node3 -->
<g id="edge2" class="edge"><title>Node1&#45;&gt;Node3</title>
<path fill="none" stroke="midnightblue" d="M761.424,-336.437C746.24,-328.874 725.704,-316.482 713,-300 675.347,-251.148 662.695,-176.425 658.706,-141.808"/>
<polygon fill="midnightblue" stroke="midnightblue" points="662.171,-141.289 657.662,-131.701 655.208,-142.008 662.171,-141.289"/>
</g>
<!-- Node8 -->
<g id="node8" class="node"><title>Node8</title>
<polygon fill="none" stroke="#bfbfbf" points="1370,-56.5 1370,-75.5 1420,-75.5 1420,-56.5 1370,-56.5"/>
<text text-anchor="middle" x="1395" y="-63.5" font-family="Helvetica,sans-Serif" font-size="10.00">fstream</text>
</g>
<!-- Node1&#45;&gt;Node8 -->
<g id="edge30" class="edge"><title>Node1&#45;&gt;Node8</title>
<path fill="none" stroke="midnightblue" d="M831.639,-341.05C976.291,-329.093 1381,-290.665 1381,-235 1381,-235 1381,-235 1381,-177 1381,-144.541 1387.07,-107.121 1391.22,-85.3564"/>
<polygon fill="midnightblue" stroke="midnightblue" points="1394.66,-86.0003 1393.17,-75.5108 1387.79,-84.6401 1394.66,-86.0003"/>
</g>
<!-- Node25 -->
<g id="node25" class="node"><title>Node25</title>
<g id="a_node25"><a xlink:href="Logger_8h.xhtml" target="_top" xlink:title="Logger.h">
<polygon fill="none" stroke="black" points="478,-168.5 478,-187.5 532,-187.5 532,-168.5 478,-168.5"/>
<text text-anchor="middle" x="505" y="-175.5" font-family="Helvetica,sans-Serif" font-size="10.00">Logger.h</text>
</a>
</g>
</g>
<!-- Node1&#45;&gt;Node25 -->
<g id="edge24" class="edge"><title>Node1&#45;&gt;Node25</title>
<path fill="none" stroke="midnightblue" d="M730.27,-340.502C693.186,-335.288 642.952,-324.071 605,-300 562.962,-273.337 530.002,-223.119 514.568,-196.536"/>
<polygon fill="midnightblue" stroke="midnightblue" points="517.491,-194.593 509.529,-187.603 511.394,-198.033 517.491,-194.593"/>
</g>
<!-- Node26 -->
<g id="node26" class="node"><title>Node26</title>
<polygon fill="none" stroke="#bfbfbf" points="1409,-280.5 1409,-299.5 1459,-299.5 1459,-280.5 1409,-280.5"/>
<text text-anchor="middle" x="1434" y="-287.5" font-family="Helvetica,sans-Serif" font-size="10.00">iomanip</text>
</g>
<!-- Node1&#45;&gt;Node26 -->
<g id="edge29" class="edge"><title>Node1&#45;&gt;Node26</title>
<path fill="none" stroke="midnightblue" d="M831.835,-343.912C937.35,-341.076 1187.6,-331.342 1395,-300 1396.28,-299.807 1397.57,-299.595 1398.88,-299.368"/>
<polygon fill="midnightblue" stroke="midnightblue" points="1399.8,-302.753 1408.93,-297.381 1398.45,-295.885 1399.8,-302.753"/>
</g>
<!-- Node27 -->
<g id="node27" class="node"><title>Node27</title>
<g id="a_node27"><a xlink:href="TinyXML2_8h.xhtml" target="_top" xlink:title="TinyXML2.h">
<polygon fill="none" stroke="black" points="1087.5,-224.5 1087.5,-243.5 1156.5,-243.5 1156.5,-224.5 1087.5,-224.5"/>
<text text-anchor="middle" x="1122" y="-231.5" font-family="Helvetica,sans-Serif" font-size="10.00">TinyXML2.h</text>
</a>
</g>
</g>
<!-- Node1&#45;&gt;Node27 -->
<g id="edge31" class="edge"><title>Node1&#45;&gt;Node27</title>
<path fill="none" stroke="midnightblue" d="M807.474,-336.46C868.028,-316.926 1016.72,-268.963 1085.72,-246.702"/>
<polygon fill="midnightblue" stroke="midnightblue" points="1086.87,-250.011 1095.31,-243.61 1084.72,-243.349 1086.87,-250.011"/>
</g>
<!-- Node33 -->
<g id="node33" class="node"><title>Node33</title>
<g id="a_node33"><a xlink:href="ParameterDMLParser_8h.xhtml" target="_top" xlink:title="ParameterDMLParser.h">
<polygon fill="none" stroke="black" points="721.5,-280.5 721.5,-299.5 840.5,-299.5 840.5,-280.5 721.5,-280.5"/>
<text text-anchor="middle" x="781" y="-287.5" font-family="Helvetica,sans-Serif" font-size="10.00">ParameterDMLParser.h</text>
</a>
</g>
</g>
<!-- Node1&#45;&gt;Node33 -->
<g id="edge39" class="edge"><title>Node1&#45;&gt;Node33</title>
<path fill="none" stroke="midnightblue" d="M781,-336.083C781,-329.006 781,-318.861 781,-309.986"/>
<polygon fill="midnightblue" stroke="midnightblue" points="784.5,-309.751 781,-299.751 777.5,-309.751 784.5,-309.751"/>
</g>
<!-- Node4 -->
<g id="node4" class="node"><title>Node4</title>
<polygon fill="none" stroke="#bfbfbf" points="790,-56.5 790,-75.5 834,-75.5 834,-56.5 790,-56.5"/>
<text text-anchor="middle" x="812" y="-63.5" font-family="Helvetica,sans-Serif" font-size="10.00">vector</text>
</g>
<!-- Node3&#45;&gt;Node4 -->
<g id="edge3" class="edge"><title>Node3&#45;&gt;Node4</title>
<path fill="none" stroke="midnightblue" d="M681.56,-112.444C708.133,-103.186 750.613,-88.3866 779.833,-78.2066"/>
<polygon fill="midnightblue" stroke="midnightblue" points="781.276,-81.4103 789.568,-74.8151 778.973,-74.7999 781.276,-81.4103"/>
</g>
<!-- Node5 -->
<g id="node5" class="node"><title>Node5</title>
<polygon fill="none" stroke="#bfbfbf" points="1136.5,-56.5 1136.5,-75.5 1185.5,-75.5 1185.5,-56.5 1136.5,-56.5"/>
<text text-anchor="middle" x="1161" y="-63.5" font-family="Helvetica,sans-Serif" font-size="10.00">stdint.h</text>
</g>
<!-- Node3&#45;&gt;Node5 -->
<g id="edge4" class="edge"><title>Node3&#45;&gt;Node5</title>
<path fill="none" stroke="midnightblue" d="M689.728,-119.707C765.088,-116.337 956.732,-105.534 1126.13,-75.8554"/>
<polygon fill="midnightblue" stroke="midnightblue" points="1126.99,-79.2569 1136.22,-74.0592 1125.76,-72.3651 1126.99,-79.2569"/>
</g>
<!-- Node6 -->
<g id="node6" class="node"><title>Node6</title>
<polygon fill="none" stroke="#bfbfbf" points="852.5,-56.5 852.5,-75.5 893.5,-75.5 893.5,-56.5 852.5,-56.5"/>
<text text-anchor="middle" x="873" y="-63.5" font-family="Helvetica,sans-Serif" font-size="10.00">string</text>
</g>
<!-- Node3&#45;&gt;Node6 -->
<g id="edge5" class="edge"><title>Node3&#45;&gt;Node6</title>
<path fill="none" stroke="midnightblue" d="M689.526,-113.545C726.561,-104.95 788.822,-90.1796 842,-76 842.21,-75.944 842.42,-75.8877 842.632,-75.8311"/>
<polygon fill="midnightblue" stroke="midnightblue" points="843.66,-79.1782 852.358,-73.1297 841.786,-72.4334 843.66,-79.1782"/>
</g>
<!-- Node7 -->
<g id="node7" class="node"><title>Node7</title>
<polygon fill="none" stroke="#bfbfbf" points="132,-56.5 132,-75.5 186,-75.5 186,-56.5 132,-56.5"/>
<text text-anchor="middle" x="159" y="-63.5" font-family="Helvetica,sans-Serif" font-size="10.00">iostream</text>
</g>
<!-- Node3&#45;&gt;Node7 -->
<g id="edge6" class="edge"><title>Node3&#45;&gt;Node7</title>
<path fill="none" stroke="midnightblue" d="M624.291,-119.479C549.878,-115.664 362.143,-104.036 195.941,-75.9147"/>
<polygon fill="midnightblue" stroke="midnightblue" points="196.483,-72.4567 186.035,-74.2144 195.299,-79.3558 196.483,-72.4567"/>
</g>
<!-- Node3&#45;&gt;Node8 -->
<g id="edge7" class="edge"><title>Node3&#45;&gt;Node8</title>
<path fill="none" stroke="midnightblue" d="M689.827,-121.079C790.612,-120.857 1104.25,-116.697 1360,-76 1360.1,-75.984 1360.2,-75.9678 1360.3,-75.9515"/>
<polygon fill="midnightblue" stroke="midnightblue" points="1360.75,-79.4306 1369.88,-74.0601 1359.4,-72.5631 1360.75,-79.4306"/>
</g>
<!-- Node9 -->
<g id="node9" class="node"><title>Node9</title>
<polygon fill="none" stroke="#bfbfbf" points="0,-56.5 0,-75.5 52,-75.5 52,-56.5 0,-56.5"/>
<text text-anchor="middle" x="26" y="-63.5" font-family="Helvetica,sans-Serif" font-size="10.00">sstream</text>
</g>
<!-- Node3&#45;&gt;Node9 -->
<g id="edge8" class="edge"><title>Node3&#45;&gt;Node9</title>
<path fill="none" stroke="midnightblue" d="M624.458,-120.553C535.676,-118.909 281.798,-111.37 62.3602,-75.9378"/>
<polygon fill="midnightblue" stroke="midnightblue" points="62.7018,-72.4471 52.2674,-74.2842 61.5699,-79.355 62.7018,-72.4471"/>
</g>
<!-- Node10 -->
<g id="node10" class="node"><title>Node10</title>
<polygon fill="none" stroke="#bfbfbf" points="911.5,-56.5 911.5,-75.5 994.5,-75.5 994.5,-56.5 911.5,-56.5"/>
<text text-anchor="middle" x="953" y="-63.5" font-family="Helvetica,sans-Serif" font-size="10.00">unordered_map</text>
</g>
<!-- Node3&#45;&gt;Node10 -->
<g id="edge9" class="edge"><title>Node3&#45;&gt;Node10</title>
<path fill="none" stroke="midnightblue" d="M689.524,-115.067C740.632,-105.743 840.201,-87.5782 901.23,-76.4444"/>
<polygon fill="midnightblue" stroke="midnightblue" points="902.209,-79.8238 911.419,-74.5858 900.953,-72.9374 902.209,-79.8238"/>
</g>
<!-- Node11 -->
<g id="node11" class="node"><title>Node11</title>
<polygon fill="none" stroke="#bfbfbf" points="1012.5,-56.5 1012.5,-75.5 1071.5,-75.5 1071.5,-56.5 1012.5,-56.5"/>
<text text-anchor="middle" x="1042" y="-63.5" font-family="Helvetica,sans-Serif" font-size="10.00">functional</text>
</g>
<!-- Node3&#45;&gt;Node11 -->
<g id="edge10" class="edge"><title>Node3&#45;&gt;Node11</title>
<path fill="none" stroke="midnightblue" d="M689.6,-117.831C749.459,-111.783 881.077,-97.415 1002.07,-76.0022"/>
<polygon fill="midnightblue" stroke="midnightblue" points="1003.02,-79.3876 1012.25,-74.1796 1001.79,-72.4972 1003.02,-79.3876"/>
</g>
<!-- Node12 -->
<g id="node12" class="node"><title>Node12</title>
<polygon fill="none" stroke="#bfbfbf" points="1089.5,-56.5 1089.5,-75.5 1118.5,-75.5 1118.5,-56.5 1089.5,-56.5"/>
<text text-anchor="middle" x="1104" y="-63.5" font-family="Helvetica,sans-Serif" font-size="10.00">list</text>
</g>
<!-- Node3&#45;&gt;Node12 -->
<g id="edge11" class="edge"><title>Node3&#45;&gt;Node12</title>
<path fill="none" stroke="midnightblue" d="M689.694,-118.596C772.33,-112.356 988.822,-94.9405 1079.55,-75.3905"/>
<polygon fill="midnightblue" stroke="midnightblue" points="1080.49,-78.7643 1089.46,-73.1212 1078.93,-71.9408 1080.49,-78.7643"/>
</g>
<!-- Node13 -->
<g id="node13" class="node"><title>Node13</title>
<polygon fill="none" stroke="#bfbfbf" points="204,-56.5 204,-75.5 234,-75.5 234,-56.5 204,-56.5"/>
<text text-anchor="middle" x="219" y="-63.5" font-family="Helvetica,sans-Serif" font-size="10.00">set</text>
</g>
<!-- Node3&#45;&gt;Node13 -->
<g id="edge12" class="edge"><title>Node3&#45;&gt;Node13</title>
<path fill="none" stroke="midnightblue" d="M624.389,-118.517C543.134,-112.166 332.423,-94.657 243.972,-75.573"/>
<polygon fill="midnightblue" stroke="midnightblue" points="244.586,-72.123 234.057,-73.2994 243.021,-78.9459 244.586,-72.123"/>
</g>
<!-- Node14 -->
<g id="node14" class="node"><title>Node14</title>
<polygon fill="none" stroke="#bfbfbf" points="252,-56.5 252,-75.5 298,-75.5 298,-56.5 252,-56.5"/>
<text text-anchor="middle" x="275" y="-63.5" font-family="Helvetica,sans-Serif" font-size="10.00">atomic</text>
</g>
<!-- Node3&#45;&gt;Node14 -->
<g id="edge13" class="edge"><title>Node3&#45;&gt;Node14</title>
<path fill="none" stroke="midnightblue" d="M624.41,-118.414C563.869,-113.266 429.87,-100.258 308.18,-75.982"/>
<polygon fill="midnightblue" stroke="midnightblue" points="308.818,-72.5403 298.322,-73.9849 307.428,-79.4009 308.818,-72.5403"/>
</g>
<!-- Node15 -->
<g id="node15" class="node"><title>Node15</title>
<polygon fill="none" stroke="#bfbfbf" points="1204,-56.5 1204,-75.5 1250,-75.5 1250,-56.5 1204,-56.5"/>
<text text-anchor="middle" x="1227" y="-63.5" font-family="Helvetica,sans-Serif" font-size="10.00">cctype</text>
</g>
<!-- Node3&#45;&gt;Node15 -->
<g id="edge14" class="edge"><title>Node3&#45;&gt;Node15</title>
<path fill="none" stroke="midnightblue" d="M689.651,-120.336C772.438,-118.213 997.275,-109.708 1193.76,-75.6709"/>
<polygon fill="midnightblue" stroke="midnightblue" points="1194.44,-79.1045 1203.68,-73.9251 1193.23,-72.2103 1194.44,-79.1045"/>
</g>
<!-- Node16 -->
<g id="node16" class="node"><title>Node16</title>
<polygon fill="none" stroke="#bfbfbf" points="316,-56.5 316,-75.5 372,-75.5 372,-56.5 316,-56.5"/>
<text text-anchor="middle" x="344" y="-63.5" font-family="Helvetica,sans-Serif" font-size="10.00">algorithm</text>
</g>
<!-- Node3&#45;&gt;Node16 -->
<g id="edge15" class="edge"><title>Node3&#45;&gt;Node16</title>
<path fill="none" stroke="midnightblue" d="M624.27,-116.405C572.6,-108.981 469.05,-93.4084 382,-76 381.9,-75.9801 381.8,-75.96 381.7,-75.9399"/>
<polygon fill="midnightblue" stroke="midnightblue" points="382.684,-72.5711 372.173,-73.9056 381.222,-79.4168 382.684,-72.5711"/>
</g>
<!-- Node17 -->
<g id="node17" class="node"><title>Node17</title>
<polygon fill="none" stroke="#bfbfbf" points="390.5,-56.5 390.5,-75.5 443.5,-75.5 443.5,-56.5 390.5,-56.5"/>
<text text-anchor="middle" x="417" y="-63.5" font-family="Helvetica,sans-Serif" font-size="10.00">complex</text>
</g>
<!-- Node3&#45;&gt;Node17 -->
<g id="edge16" class="edge"><title>Node3&#45;&gt;Node17</title>
<path fill="none" stroke="midnightblue" d="M624.432,-114.108C586.001,-105.912 519.936,-91.6222 453.515,-76.0702"/>
<polygon fill="midnightblue" stroke="midnightblue" points="454.252,-72.648 443.716,-73.767 452.65,-79.4623 454.252,-72.648"/>
</g>
<!-- Node18 -->
<g id="node18" class="node"><title>Node18</title>
<polygon fill="none" stroke="#bfbfbf" points="70,-56.5 70,-75.5 114,-75.5 114,-56.5 70,-56.5"/>
<text text-anchor="middle" x="92" y="-63.5" font-family="Helvetica,sans-Serif" font-size="10.00">thread</text>
</g>
<!-- Node3&#45;&gt;Node18 -->
<g id="edge17" class="edge"><title>Node3&#45;&gt;Node18</title>
<path fill="none" stroke="midnightblue" d="M624.499,-120.5C542.139,-118.758 318.576,-111.078 124.329,-75.8856"/>
<polygon fill="midnightblue" stroke="midnightblue" points="124.692,-72.3938 114.224,-74.0249 123.425,-79.2781 124.692,-72.3938"/>
</g>
<!-- Node19 -->
<g id="node19" class="node"><title>Node19</title>
<g id="a_node19"><a xlink:href="Ptr_8h.xhtml" target="_top" xlink:title="Ptr.h">
<polygon fill="none" stroke="black" points="462,-56.5 462,-75.5 500,-75.5 500,-56.5 462,-56.5"/>
<text text-anchor="middle" x="481" y="-63.5" font-family="Helvetica,sans-Serif" font-size="10.00">Ptr.h</text>
</a>
</g>
</g>
<!-- Node3&#45;&gt;Node19 -->
<g id="edge18" class="edge"><title>Node3&#45;&gt;Node19</title>
<path fill="none" stroke="midnightblue" d="M628.31,-112.423C600.387,-104.044 556.516,-90.7939 509.93,-76.2585"/>
<polygon fill="midnightblue" stroke="midnightblue" points="510.856,-72.881 500.267,-73.2371 508.767,-79.562 510.856,-72.881"/>
</g>
<!-- Node21 -->
<g id="node21" class="node"><title>Node21</title>
<polygon fill="none" stroke="#bfbfbf" points="518,-56.5 518,-75.5 562,-75.5 562,-56.5 518,-56.5"/>
<text text-anchor="middle" x="540" y="-63.5" font-family="Helvetica,sans-Serif" font-size="10.00">mutex</text>
</g>
<!-- Node3&#45;&gt;Node21 -->
<g id="edge20" class="edge"><title>Node3&#45;&gt;Node21</title>
<path fill="none" stroke="midnightblue" d="M638.461,-112.444C619.377,-103.636 589.425,-89.8116 567.564,-79.722"/>
<polygon fill="midnightblue" stroke="midnightblue" points="568.999,-76.5292 558.452,-75.5164 566.065,-82.8849 568.999,-76.5292"/>
</g>
<!-- Node22 -->
<g id="node22" class="node"><title>Node22</title>
<polygon fill="none" stroke="#bfbfbf" points="580.5,-56.5 580.5,-75.5 675.5,-75.5 675.5,-56.5 580.5,-56.5"/>
<text text-anchor="middle" x="628" y="-63.5" font-family="Helvetica,sans-Serif" font-size="10.00">condition_variable</text>
</g>
<!-- Node3&#45;&gt;Node22 -->
<g id="edge21" class="edge"><title>Node3&#45;&gt;Node22</title>
<path fill="none" stroke="midnightblue" d="M652.211,-112.083C648.242,-104.691 642.475,-93.9533 637.565,-84.8111"/>
<polygon fill="midnightblue" stroke="midnightblue" points="640.514,-82.9051 632.7,-75.7511 634.347,-86.217 640.514,-82.9051"/>
</g>
<!-- Node23 -->
<g id="node23" class="node"><title>Node23</title>
<polygon fill="none" stroke="#bfbfbf" points="694,-56.5 694,-75.5 772,-75.5 772,-56.5 694,-56.5"/>
<text text-anchor="middle" x="733" y="-63.5" font-family="Helvetica,sans-Serif" font-size="10.00">VoxelConfig.h</text>
</g>
<!-- Node3&#45;&gt;Node23 -->
<g id="edge22" class="edge"><title>Node3&#45;&gt;Node23</title>
<path fill="none" stroke="midnightblue" d="M669.211,-112.324C680.776,-104.107 698.375,-91.6017 712.161,-81.8069"/>
<polygon fill="midnightblue" stroke="midnightblue" points="714.443,-84.4791 720.567,-75.8339 710.388,-78.7729 714.443,-84.4791"/>
</g>
<!-- Node24 -->
<g id="node24" class="node"><title>Node24</title>
<polygon fill="none" stroke="#bfbfbf" points="1268.5,-56.5 1268.5,-75.5 1351.5,-75.5 1351.5,-56.5 1268.5,-56.5"/>
<text text-anchor="middle" x="1310" y="-63.5" font-family="Helvetica,sans-Serif" font-size="10.00">VoxelExports.h</text>
</g>
<!-- Node3&#45;&gt;Node24 -->
<g id="edge23" class="edge"><title>Node3&#45;&gt;Node24</title>
<path fill="none" stroke="midnightblue" d="M689.742,-119.705C779.143,-115.926 1035.05,-103.473 1258.37,-75.9462"/>
<polygon fill="midnightblue" stroke="midnightblue" points="1258.81,-79.4177 1268.3,-74.7085 1257.95,-72.4714 1258.81,-79.4177"/>
</g>
<!-- Node20 -->
<g id="node20" class="node"><title>Node20</title>
<polygon fill="none" stroke="#bfbfbf" points="455,-0.5 455,-19.5 507,-19.5 507,-0.5 455,-0.5"/>
<text text-anchor="middle" x="481" y="-7.5" font-family="Helvetica,sans-Serif" font-size="10.00">memory</text>
</g>
<!-- Node19&#45;&gt;Node20 -->
<g id="edge19" class="edge"><title>Node19&#45;&gt;Node20</title>
<path fill="none" stroke="midnightblue" d="M481,-56.083C481,-49.0059 481,-38.8611 481,-29.9865"/>
<polygon fill="midnightblue" stroke="midnightblue" points="484.5,-29.751 481,-19.7511 477.5,-29.7511 484.5,-29.751"/>
</g>
<!-- Node25&#45;&gt;Node3 -->
<g id="edge28" class="edge"><title>Node25&#45;&gt;Node3</title>
<path fill="none" stroke="midnightblue" d="M529.085,-168.444C554.545,-159.399 594.894,-145.064 623.459,-134.916"/>
<polygon fill="midnightblue" stroke="midnightblue" points="624.777,-138.162 633.028,-131.516 622.433,-131.566 624.777,-138.162"/>
</g>
<!-- Node25&#45;&gt;Node7 -->
<g id="edge25" class="edge"><title>Node25&#45;&gt;Node7</title>
<path fill="none" stroke="midnightblue" d="M484.474,-168.486C452.324,-155.333 387.971,-129.74 332,-112 319.046,-107.894 242.837,-88.3423 195.992,-76.4019"/>
<polygon fill="midnightblue" stroke="midnightblue" points="196.746,-72.9821 186.191,-73.9056 195.018,-79.7656 196.746,-72.9821"/>
</g>
<!-- Node25&#45;&gt;Node9 -->
<g id="edge26" class="edge"><title>Node25&#45;&gt;Node9</title>
<path fill="none" stroke="midnightblue" d="M477.816,-173.006C431.708,-166.031 335.346,-150.586 255,-132 185.936,-116.023 106.615,-92.2754 61.7871,-78.3426"/>
<polygon fill="midnightblue" stroke="midnightblue" points="62.8161,-74.9973 52.2274,-75.3574 60.7296,-81.6791 62.8161,-74.9973"/>
</g>
<!-- Node25&#45;&gt;Node18 -->
<g id="edge27" class="edge"><title>Node25&#45;&gt;Node18</title>
<path fill="none" stroke="midnightblue" d="M477.601,-170.031C416.235,-154.362 262.89,-114.883 124.288,-76.3191"/>
<polygon fill="midnightblue" stroke="midnightblue" points="124.908,-72.8586 114.335,-73.5444 123.028,-79.6015 124.908,-72.8586"/>
</g>
<!-- Node27&#45;&gt;Node15 -->
<g id="edge32" class="edge"><title>Node27&#45;&gt;Node15</title>
<path fill="none" stroke="midnightblue" d="M1156.86,-226.737C1179.13,-220.777 1206.46,-209.393 1221,-188 1242.01,-157.086 1236.74,-110.787 1231.55,-85.3571"/>
<polygon fill="midnightblue" stroke="midnightblue" points="1234.96,-84.5406 1229.34,-75.5564 1228.13,-86.0816 1234.96,-84.5406"/>
</g>
<!-- Node27&#45;&gt;Node24 -->
<g id="edge38" class="edge"><title>Node27&#45;&gt;Node24</title>
<path fill="none" stroke="midnightblue" d="M1156.66,-226.14C1181.78,-219.736 1215.35,-208.066 1239,-188 1272.46,-159.606 1293.99,-111.243 1303.81,-85.0842"/>
<polygon fill="midnightblue" stroke="midnightblue" points="1307.11,-86.2414 1307.2,-75.6469 1300.53,-83.8736 1307.11,-86.2414"/>
</g>
<!-- Node28 -->
<g id="node28" class="node"><title>Node28</title>
<polygon fill="none" stroke="#bfbfbf" points="1307.5,-168.5 1307.5,-187.5 1352.5,-187.5 1352.5,-168.5 1307.5,-168.5"/>
<text text-anchor="middle" x="1330" y="-175.5" font-family="Helvetica,sans-Serif" font-size="10.00">climits</text>
</g>
<!-- Node27&#45;&gt;Node28 -->
<g id="edge33" class="edge"><title>Node27&#45;&gt;Node28</title>
<path fill="none" stroke="midnightblue" d="M1154.96,-224.444C1194.08,-214.288 1258.88,-197.464 1297.7,-187.385"/>
<polygon fill="midnightblue" stroke="midnightblue" points="1298.65,-190.754 1307.45,-184.854 1296.89,-183.979 1298.65,-190.754"/>
</g>
<!-- Node29 -->
<g id="node29" class="node"><title>Node29</title>
<polygon fill="none" stroke="#bfbfbf" points="974.5,-168.5 974.5,-187.5 1017.5,-187.5 1017.5,-168.5 974.5,-168.5"/>
<text text-anchor="middle" x="996" y="-175.5" font-family="Helvetica,sans-Serif" font-size="10.00">cstdio</text>
</g>
<!-- Node27&#45;&gt;Node29 -->
<g id="edge34" class="edge"><title>Node27&#45;&gt;Node29</title>
<path fill="none" stroke="midnightblue" d="M1102.03,-224.444C1081.39,-215.596 1048.94,-201.687 1025.37,-191.586"/>
<polygon fill="midnightblue" stroke="midnightblue" points="1026.44,-188.239 1015.87,-187.516 1023.68,-194.673 1026.44,-188.239"/>
</g>
<!-- Node30 -->
<g id="node30" class="node"><title>Node30</title>
<polygon fill="none" stroke="#bfbfbf" points="1035.5,-168.5 1035.5,-187.5 1080.5,-187.5 1080.5,-168.5 1035.5,-168.5"/>
<text text-anchor="middle" x="1058" y="-175.5" font-family="Helvetica,sans-Serif" font-size="10.00">cstdlib</text>
</g>
<!-- Node27&#45;&gt;Node30 -->
<g id="edge35" class="edge"><title>Node27&#45;&gt;Node30</title>
<path fill="none" stroke="midnightblue" d="M1111.72,-224.324C1102.16,-216.263 1087.72,-204.077 1076.22,-194.369"/>
<polygon fill="midnightblue" stroke="midnightblue" points="1078.37,-191.608 1068.47,-187.834 1073.86,-196.958 1078.37,-191.608"/>
</g>
<!-- Node31 -->
<g id="node31" class="node"><title>Node31</title>
<polygon fill="none" stroke="#bfbfbf" points="1099,-168.5 1099,-187.5 1145,-187.5 1145,-168.5 1099,-168.5"/>
<text text-anchor="middle" x="1122" y="-175.5" font-family="Helvetica,sans-Serif" font-size="10.00">cstring</text>
</g>
<!-- Node27&#45;&gt;Node31 -->
<g id="edge36" class="edge"><title>Node27&#45;&gt;Node31</title>
<path fill="none" stroke="midnightblue" d="M1122,-224.083C1122,-217.006 1122,-206.861 1122,-197.986"/>
<polygon fill="midnightblue" stroke="midnightblue" points="1125.5,-197.751 1122,-187.751 1118.5,-197.751 1125.5,-197.751"/>
</g>
<!-- Node32 -->
<g id="node32" class="node"><title>Node32</title>
<polygon fill="none" stroke="#bfbfbf" points="1163.5,-168.5 1163.5,-187.5 1212.5,-187.5 1212.5,-168.5 1163.5,-168.5"/>
<text text-anchor="middle" x="1188" y="-175.5" font-family="Helvetica,sans-Serif" font-size="10.00">cstdarg</text>
</g>
<!-- Node27&#45;&gt;Node32 -->
<g id="edge37" class="edge"><title>Node27&#45;&gt;Node32</title>
<path fill="none" stroke="midnightblue" d="M1132.6,-224.324C1142.46,-216.263 1157.35,-204.077 1169.22,-194.369"/>
<polygon fill="midnightblue" stroke="midnightblue" points="1171.68,-196.875 1177.2,-187.834 1167.25,-191.457 1171.68,-196.875"/>
</g>
<!-- Node33&#45;&gt;Node3 -->
<g id="edge41" class="edge"><title>Node33&#45;&gt;Node3</title>
<path fill="none" stroke="midnightblue" d="M771.972,-280.28C762.888,-271.388 748.6,-257.079 737,-244 715.814,-220.113 709.643,-214.612 692,-188 681.842,-172.677 672.079,-154.119 665.458,-140.762"/>
<polygon fill="midnightblue" stroke="midnightblue" points="668.572,-139.164 661.052,-131.701 662.277,-142.225 668.572,-139.164"/>
</g>
<!-- Node33&#45;&gt;Node27 -->
<g id="edge40" class="edge"><title>Node33&#45;&gt;Node27</title>
<path fill="none" stroke="midnightblue" d="M835.032,-280.444C902.099,-269.823 1015.22,-251.91 1077.52,-242.044"/>
<polygon fill="midnightblue" stroke="midnightblue" points="1078.11,-245.495 1087.44,-240.474 1077.01,-238.581 1078.11,-245.495"/>
</g>
<!-- Node34 -->
<g id="node34" class="node"><title>Node34</title>
<g id="a_node34"><a xlink:href="Parameter_8h.xhtml" target="_top" xlink:title="Parameter.h">
<polygon fill="none" stroke="black" points="746,-224.5 746,-243.5 816,-243.5 816,-224.5 746,-224.5"/>
<text text-anchor="middle" x="781" y="-231.5" font-family="Helvetica,sans-Serif" font-size="10.00">Parameter.h</text>
</a>
</g>
</g>
<!-- Node33&#45;&gt;Node34 -->
<g id="edge42" class="edge"><title>Node33&#45;&gt;Node34</title>
<path fill="none" stroke="midnightblue" d="M781,-280.083C781,-273.006 781,-262.861 781,-253.986"/>
<polygon fill="midnightblue" stroke="midnightblue" points="784.5,-253.751 781,-243.751 777.5,-253.751 784.5,-253.751"/>
</g>
<!-- Node34&#45;&gt;Node3 -->
<g id="edge44" class="edge"><title>Node34&#45;&gt;Node3</title>
<path fill="none" stroke="midnightblue" d="M766.365,-224.459C752.48,-216.033 731.364,-202.362 715,-188 698.029,-173.106 681.126,-153.476 669.984,-139.701"/>
<polygon fill="midnightblue" stroke="midnightblue" points="672.512,-137.256 663.551,-131.602 667.031,-141.61 672.512,-137.256"/>
</g>
<!-- Node34&#45;&gt;Node5 -->
<g id="edge43" class="edge"><title>Node34&#45;&gt;Node5</title>
<path fill="none" stroke="midnightblue" d="M814.402,-224.421C844.17,-216.357 888.673,-203.265 926,-188 936.738,-183.609 1077.17,-110.639 1135.68,-80.1856"/>
<polygon fill="midnightblue" stroke="midnightblue" points="1137.4,-83.2364 1144.66,-75.5141 1134.17,-77.0274 1137.4,-83.2364"/>
</g>
<!-- Node34&#45;&gt;Node25 -->
<g id="edge48" class="edge"><title>Node34&#45;&gt;Node25</title>
<path fill="none" stroke="midnightblue" d="M745.764,-226.106C693.447,-215.87 595.671,-196.74 542.227,-186.284"/>
<polygon fill="midnightblue" stroke="midnightblue" points="542.642,-182.798 532.156,-184.313 541.298,-189.668 542.642,-182.798"/>
</g>
<!-- Node35 -->
<g id="node35" class="node"><title>Node35</title>
<g id="a_node35"><a xlink:href="RegisterProgrammer_8h.xhtml" target="_top" xlink:title="RegisterProgrammer.h">
<polygon fill="none" stroke="black" points="723.5,-168.5 723.5,-187.5 838.5,-187.5 838.5,-168.5 723.5,-168.5"/>
<text text-anchor="middle" x="781" y="-175.5" font-family="Helvetica,sans-Serif" font-size="10.00">RegisterProgrammer.h</text>
</a>
</g>
</g>
<!-- Node34&#45;&gt;Node35 -->
<g id="edge45" class="edge"><title>Node34&#45;&gt;Node35</title>
<path fill="none" stroke="midnightblue" d="M781,-224.083C781,-217.006 781,-206.861 781,-197.986"/>
<polygon fill="midnightblue" stroke="midnightblue" points="784.5,-197.751 781,-187.751 777.5,-197.751 784.5,-197.751"/>
</g>
<!-- Node36 -->
<g id="node36" class="node"><title>Node36</title>
<polygon fill="none" stroke="#bfbfbf" points="856,-168.5 856,-187.5 918,-187.5 918,-168.5 856,-168.5"/>
<text text-anchor="middle" x="887" y="-175.5" font-family="Helvetica,sans-Serif" font-size="10.00">type_traits</text>
</g>
<!-- Node34&#45;&gt;Node36 -->
<g id="edge49" class="edge"><title>Node34&#45;&gt;Node36</title>
<path fill="none" stroke="midnightblue" d="M798.031,-224.324C815.03,-215.664 841.376,-202.242 860.993,-192.249"/>
<polygon fill="midnightblue" stroke="midnightblue" points="862.69,-195.312 870.012,-187.655 859.512,-189.075 862.69,-195.312"/>
</g>
<!-- Node35&#45;&gt;Node3 -->
<g id="edge46" class="edge"><title>Node35&#45;&gt;Node3</title>
<path fill="none" stroke="midnightblue" d="M761.352,-168.444C741.035,-159.596 709.097,-145.687 685.902,-135.586"/>
<polygon fill="midnightblue" stroke="midnightblue" points="687.122,-132.3 676.556,-131.516 684.327,-138.718 687.122,-132.3"/>
</g>
<!-- Node35&#45;&gt;Node5 -->
<g id="edge47" class="edge"><title>Node35&#45;&gt;Node5</title>
<path fill="none" stroke="midnightblue" d="M797.742,-168.311C825.116,-154.447 881.473,-127.327 932,-112 1013.37,-87.3162 1039.2,-94.7088 1126.39,-75.9622"/>
<polygon fill="midnightblue" stroke="midnightblue" points="1127.16,-79.3767 1136.17,-73.806 1125.65,-72.5409 1127.16,-79.3767"/>
</g>
</g>
</svg>
