<?xml version="1.0" encoding="UTF-8" standalone="no"?>
<!DOCTYPE svg PUBLIC "-//W3C//DTD SVG 1.1//EN"
 "http://www.w3.org/Graphics/SVG/1.1/DTD/svg11.dtd">
<!-- Generated by graphviz version 2.36.0 (20140111.2315)
 -->
<!-- Title: Downloader.cpp Pages: 1 -->
<svg width="1428pt" height="420pt"
 viewBox="0.00 0.00 1428.00 420.00" xmlns="http://www.w3.org/2000/svg" xmlns:xlink="http://www.w3.org/1999/xlink">
<g id="graph0" class="graph" transform="scale(1 1) rotate(0) translate(4 416)">
<title>Downloader.cpp</title>
<!-- Node1 -->
<g id="node1" class="node"><title>Node1</title>
<polygon fill="#bfbfbf" stroke="black" points="377.5,-392.5 377.5,-411.5 464.5,-411.5 464.5,-392.5 377.5,-392.5"/>
<text text-anchor="middle" x="421" y="-399.5" font-family="Helvetica,sans-Serif" font-size="10.00">Downloader.cpp</text>
</g>
<!-- Node2 -->
<g id="node2" class="node"><title>Node2</title>
<g id="a_node2"><a xlink:href="Downloader_8h.xhtml" target="_top" xlink:title="Downloader.h">
<polygon fill="none" stroke="black" points="238.5,-336.5 238.5,-355.5 315.5,-355.5 315.5,-336.5 238.5,-336.5"/>
<text text-anchor="middle" x="277" y="-343.5" font-family="Helvetica,sans-Serif" font-size="10.00">Downloader.h</text>
</a>
</g>
</g>
<!-- Node1&#45;&gt;Node2 -->
<g id="edge1" class="edge"><title>Node1&#45;&gt;Node2</title>
<path fill="none" stroke="midnightblue" d="M398.183,-392.444C374.168,-383.438 336.171,-369.189 309.131,-359.049"/>
<polygon fill="midnightblue" stroke="midnightblue" points="310.303,-355.751 299.71,-355.516 307.845,-362.305 310.303,-355.751"/>
</g>
<!-- Node27 -->
<g id="node27" class="node"><title>Node27</title>
<g id="a_node27"><a xlink:href="USBSystem_8h.xhtml" target="_top" xlink:title="USBSystem.h">
<polygon fill="none" stroke="black" points="237,-224.5 237,-243.5 317,-243.5 317,-224.5 237,-224.5"/>
<text text-anchor="middle" x="277" y="-231.5" font-family="Helvetica,sans-Serif" font-size="10.00">USBSystem.h</text>
</a>
</g>
</g>
<!-- Node1&#45;&gt;Node27 -->
<g id="edge38" class="edge"><title>Node1&#45;&gt;Node27</title>
<path fill="none" stroke="midnightblue" d="M413.258,-392.075C390.1,-365.38 321.124,-285.865 291.159,-251.322"/>
<polygon fill="midnightblue" stroke="midnightblue" points="293.629,-248.829 284.433,-243.568 288.342,-253.416 293.629,-248.829"/>
</g>
<!-- Node28 -->
<g id="node28" class="node"><title>Node28</title>
<g id="a_node28"><a xlink:href="Logger_8h.xhtml" target="_top" xlink:title="Logger.h">
<polygon fill="none" stroke="black" points="356,-168.5 356,-187.5 410,-187.5 410,-168.5 356,-168.5"/>
<text text-anchor="middle" x="383" y="-175.5" font-family="Helvetica,sans-Serif" font-size="10.00">Logger.h</text>
</a>
</g>
</g>
<!-- Node1&#45;&gt;Node28 -->
<g id="edge39" class="edge"><title>Node1&#45;&gt;Node28</title>
<path fill="none" stroke="midnightblue" d="M419.51,-392.297C413.919,-359.633 394.103,-243.866 386.245,-197.957"/>
<polygon fill="midnightblue" stroke="midnightblue" points="389.658,-197.15 384.521,-187.884 382.758,-198.331 389.658,-197.15"/>
</g>
<!-- Node29 -->
<g id="node29" class="node"><title>Node29</title>
<g id="a_node29"><a xlink:href="Configuration_8h.xhtml" target="_top" xlink:title="Configuration.h">
<polygon fill="none" stroke="black" points="466.5,-280.5 466.5,-299.5 549.5,-299.5 549.5,-280.5 466.5,-280.5"/>
<text text-anchor="middle" x="508" y="-287.5" font-family="Helvetica,sans-Serif" font-size="10.00">Configuration.h</text>
</a>
</g>
</g>
<!-- Node1&#45;&gt;Node29 -->
<g id="edge40" class="edge"><title>Node1&#45;&gt;Node29</title>
<path fill="none" stroke="midnightblue" d="M427.827,-392.368C442.248,-374.135 476.027,-331.426 494.811,-307.675"/>
<polygon fill="midnightblue" stroke="midnightblue" points="497.747,-309.606 501.205,-299.591 492.256,-305.264 497.747,-309.606"/>
</g>
<!-- Node34 -->
<g id="node34" class="node"><title>Node34</title>
<polygon fill="none" stroke="#bfbfbf" points="487,-336.5 487,-355.5 535,-355.5 535,-336.5 487,-336.5"/>
<text text-anchor="middle" x="511" y="-343.5" font-family="Helvetica,sans-Serif" font-size="10.00">stdlib.h</text>
</g>
<!-- Node1&#45;&gt;Node34 -->
<g id="edge53" class="edge"><title>Node1&#45;&gt;Node34</title>
<path fill="none" stroke="midnightblue" d="M435.46,-392.324C449.5,-383.9 471.048,-370.971 487.543,-361.074"/>
<polygon fill="midnightblue" stroke="midnightblue" points="489.802,-363.801 496.576,-355.655 486.2,-357.798 489.802,-363.801"/>
</g>
<!-- Node3 -->
<g id="node3" class="node"><title>Node3</title>
<g id="a_node3"><a xlink:href="Device_8h.xhtml" target="_top" xlink:title="Device.h">
<polygon fill="none" stroke="black" points="181,-168.5 181,-187.5 237,-187.5 237,-168.5 181,-168.5"/>
<text text-anchor="middle" x="209" y="-175.5" font-family="Helvetica,sans-Serif" font-size="10.00">Device.h</text>
</a>
</g>
</g>
<!-- Node2&#45;&gt;Node3 -->
<g id="edge2" class="edge"><title>Node2&#45;&gt;Node3</title>
<path fill="none" stroke="midnightblue" d="M268.536,-336.268C260.453,-327.594 248.305,-313.653 240,-300 225.927,-276.866 222.859,-270.195 216,-244 211.998,-228.714 210.278,-210.83 209.542,-197.695"/>
<polygon fill="midnightblue" stroke="midnightblue" points="213.033,-197.403 209.116,-187.559 206.039,-197.697 213.033,-197.403"/>
</g>
<!-- Node9 -->
<g id="node9" class="node"><title>Node9</title>
<polygon fill="none" stroke="#bfbfbf" points="0,-56.5 0,-75.5 50,-75.5 50,-56.5 0,-56.5"/>
<text text-anchor="middle" x="25" y="-63.5" font-family="Helvetica,sans-Serif" font-size="10.00">fstream</text>
</g>
<!-- Node2&#45;&gt;Node9 -->
<g id="edge26" class="edge"><title>Node2&#45;&gt;Node9</title>
<path fill="none" stroke="midnightblue" d="M238.146,-340.266C182.043,-331.019 85,-304.918 85,-235 85,-235 85,-235 85,-177 85,-139.883 58.3464,-103.378 40.5686,-83.1581"/>
<polygon fill="midnightblue" stroke="midnightblue" points="42.9282,-80.552 33.5965,-75.5349 37.7628,-85.2762 42.9282,-80.552"/>
</g>
<!-- Node26 -->
<g id="node26" class="node"><title>Node26</title>
<g id="a_node26"><a xlink:href="USBIO_8h.xhtml" target="_top" xlink:title="USBIO.h">
<polygon fill="none" stroke="black" points="249,-280.5 249,-299.5 305,-299.5 305,-280.5 249,-280.5"/>
<text text-anchor="middle" x="277" y="-287.5" font-family="Helvetica,sans-Serif" font-size="10.00">USBIO.h</text>
</a>
</g>
</g>
<!-- Node2&#45;&gt;Node26 -->
<g id="edge27" class="edge"><title>Node2&#45;&gt;Node26</title>
<path fill="none" stroke="midnightblue" d="M277,-336.083C277,-329.006 277,-318.861 277,-309.986"/>
<polygon fill="midnightblue" stroke="midnightblue" points="280.5,-309.751 277,-299.751 273.5,-309.751 280.5,-309.751"/>
</g>
<!-- Node2&#45;&gt;Node28 -->
<g id="edge37" class="edge"><title>Node2&#45;&gt;Node28</title>
<path fill="none" stroke="midnightblue" d="M284.45,-336.246C291.932,-327.328 303.659,-313 313,-300 330.265,-275.971 334.128,-269.579 349,-244 358.092,-228.363 367.561,-210.069 374.19,-196.88"/>
<polygon fill="midnightblue" stroke="midnightblue" points="377.513,-198.057 378.836,-187.545 371.247,-194.938 377.513,-198.057"/>
</g>
<!-- Node4 -->
<g id="node4" class="node"><title>Node4</title>
<g id="a_node4"><a xlink:href="Common_8h.xhtml" target="_top" xlink:title="Common.h">
<polygon fill="none" stroke="black" points="531.5,-112.5 531.5,-131.5 596.5,-131.5 596.5,-112.5 531.5,-112.5"/>
<text text-anchor="middle" x="564" y="-119.5" font-family="Helvetica,sans-Serif" font-size="10.00">Common.h</text>
</a>
</g>
</g>
<!-- Node3&#45;&gt;Node4 -->
<g id="edge3" class="edge"><title>Node3&#45;&gt;Node4</title>
<path fill="none" stroke="midnightblue" d="M237.153,-172.718C299.051,-163.302 447.31,-140.75 520.964,-129.546"/>
<polygon fill="midnightblue" stroke="midnightblue" points="521.911,-132.943 531.271,-127.979 520.858,-126.022 521.911,-132.943"/>
</g>
<!-- Node10 -->
<g id="node10" class="node"><title>Node10</title>
<polygon fill="none" stroke="#bfbfbf" points="68,-56.5 68,-75.5 120,-75.5 120,-56.5 68,-56.5"/>
<text text-anchor="middle" x="94" y="-63.5" font-family="Helvetica,sans-Serif" font-size="10.00">sstream</text>
</g>
<!-- Node3&#45;&gt;Node10 -->
<g id="edge25" class="edge"><title>Node3&#45;&gt;Node10</title>
<path fill="none" stroke="midnightblue" d="M199.976,-168.368C180.662,-149.894 135.079,-106.293 110.459,-82.7436"/>
<polygon fill="midnightblue" stroke="midnightblue" points="112.628,-79.9744 102.982,-75.5914 107.789,-85.0329 112.628,-79.9744"/>
</g>
<!-- Node5 -->
<g id="node5" class="node"><title>Node5</title>
<polygon fill="none" stroke="#bfbfbf" points="374,-56.5 374,-75.5 418,-75.5 418,-56.5 374,-56.5"/>
<text text-anchor="middle" x="396" y="-63.5" font-family="Helvetica,sans-Serif" font-size="10.00">vector</text>
</g>
<!-- Node4&#45;&gt;Node5 -->
<g id="edge4" class="edge"><title>Node4&#45;&gt;Node5</title>
<path fill="none" stroke="midnightblue" d="M537.38,-112.444C507.659,-102.89 459.579,-87.436 427.877,-77.2461"/>
<polygon fill="midnightblue" stroke="midnightblue" points="428.795,-73.8649 418.203,-74.1368 426.653,-80.5291 428.795,-73.8649"/>
</g>
<!-- Node6 -->
<g id="node6" class="node"><title>Node6</title>
<polygon fill="none" stroke="#bfbfbf" points="436.5,-56.5 436.5,-75.5 485.5,-75.5 485.5,-56.5 436.5,-56.5"/>
<text text-anchor="middle" x="461" y="-63.5" font-family="Helvetica,sans-Serif" font-size="10.00">stdint.h</text>
</g>
<!-- Node4&#45;&gt;Node6 -->
<g id="edge5" class="edge"><title>Node4&#45;&gt;Node6</title>
<path fill="none" stroke="midnightblue" d="M547.451,-112.324C531.008,-103.703 505.565,-90.3643 486.532,-80.3855"/>
<polygon fill="midnightblue" stroke="midnightblue" points="487.989,-77.198 477.508,-75.6545 484.739,-83.3977 487.989,-77.198"/>
</g>
<!-- Node7 -->
<g id="node7" class="node"><title>Node7</title>
<polygon fill="none" stroke="#bfbfbf" points="503.5,-56.5 503.5,-75.5 544.5,-75.5 544.5,-56.5 503.5,-56.5"/>
<text text-anchor="middle" x="524" y="-63.5" font-family="Helvetica,sans-Serif" font-size="10.00">string</text>
</g>
<!-- Node4&#45;&gt;Node7 -->
<g id="edge6" class="edge"><title>Node4&#45;&gt;Node7</title>
<path fill="none" stroke="midnightblue" d="M557.395,-112.083C551.745,-104.455 543.455,-93.2645 536.549,-83.9408"/>
<polygon fill="midnightblue" stroke="midnightblue" points="539.247,-81.7034 530.482,-75.7511 533.622,-85.87 539.247,-81.7034"/>
</g>
<!-- Node8 -->
<g id="node8" class="node"><title>Node8</title>
<polygon fill="none" stroke="#bfbfbf" points="200,-56.5 200,-75.5 254,-75.5 254,-56.5 200,-56.5"/>
<text text-anchor="middle" x="227" y="-63.5" font-family="Helvetica,sans-Serif" font-size="10.00">iostream</text>
</g>
<!-- Node4&#45;&gt;Node8 -->
<g id="edge7" class="edge"><title>Node4&#45;&gt;Node8</title>
<path fill="none" stroke="midnightblue" d="M531.306,-117.163C477.578,-110.631 367.089,-96.2455 264.013,-76.0373"/>
<polygon fill="midnightblue" stroke="midnightblue" points="264.553,-72.5763 254.064,-74.0635 263.191,-79.4425 264.553,-72.5763"/>
</g>
<!-- Node4&#45;&gt;Node9 -->
<g id="edge8" class="edge"><title>Node4&#45;&gt;Node9</title>
<path fill="none" stroke="midnightblue" d="M531.254,-120.007C451.931,-117.194 243.15,-107.344 60.2153,-75.9219"/>
<polygon fill="midnightblue" stroke="midnightblue" points="60.5979,-72.4359 50.1452,-74.1655 59.3951,-79.3318 60.5979,-72.4359"/>
</g>
<!-- Node4&#45;&gt;Node10 -->
<g id="edge9" class="edge"><title>Node4&#45;&gt;Node10</title>
<path fill="none" stroke="midnightblue" d="M531.3,-119.282C460.097,-115.185 285.616,-103.223 130.471,-76.0186"/>
<polygon fill="midnightblue" stroke="midnightblue" points="130.74,-72.5115 120.281,-74.2046 129.513,-79.4032 130.74,-72.5115"/>
</g>
<!-- Node11 -->
<g id="node11" class="node"><title>Node11</title>
<polygon fill="none" stroke="#bfbfbf" points="562.5,-56.5 562.5,-75.5 645.5,-75.5 645.5,-56.5 562.5,-56.5"/>
<text text-anchor="middle" x="604" y="-63.5" font-family="Helvetica,sans-Serif" font-size="10.00">unordered_map</text>
</g>
<!-- Node4&#45;&gt;Node11 -->
<g id="edge10" class="edge"><title>Node4&#45;&gt;Node11</title>
<path fill="none" stroke="midnightblue" d="M570.605,-112.083C576.255,-104.455 584.545,-93.2645 591.451,-83.9408"/>
<polygon fill="midnightblue" stroke="midnightblue" points="594.378,-85.87 597.518,-75.7511 588.753,-81.7034 594.378,-85.87"/>
</g>
<!-- Node12 -->
<g id="node12" class="node"><title>Node12</title>
<polygon fill="none" stroke="#bfbfbf" points="663.5,-56.5 663.5,-75.5 722.5,-75.5 722.5,-56.5 663.5,-56.5"/>
<text text-anchor="middle" x="693" y="-63.5" font-family="Helvetica,sans-Serif" font-size="10.00">functional</text>
</g>
<!-- Node4&#45;&gt;Node12 -->
<g id="edge11" class="edge"><title>Node4&#45;&gt;Node12</title>
<path fill="none" stroke="midnightblue" d="M584.44,-112.444C605.67,-103.557 639.099,-89.5632 663.255,-79.4514"/>
<polygon fill="midnightblue" stroke="midnightblue" points="664.782,-82.6064 672.655,-75.5164 662.079,-76.1493 664.782,-82.6064"/>
</g>
<!-- Node13 -->
<g id="node13" class="node"><title>Node13</title>
<polygon fill="none" stroke="#bfbfbf" points="740.5,-56.5 740.5,-75.5 769.5,-75.5 769.5,-56.5 740.5,-56.5"/>
<text text-anchor="middle" x="755" y="-63.5" font-family="Helvetica,sans-Serif" font-size="10.00">list</text>
</g>
<!-- Node4&#45;&gt;Node13 -->
<g id="edge12" class="edge"><title>Node4&#45;&gt;Node13</title>
<path fill="none" stroke="midnightblue" d="M596.595,-113.198C628.468,-105.353 678.53,-92.4633 730.611,-75.8836"/>
<polygon fill="midnightblue" stroke="midnightblue" points="731.909,-79.1424 740.355,-72.7452 729.763,-72.4795 731.909,-79.1424"/>
</g>
<!-- Node14 -->
<g id="node14" class="node"><title>Node14</title>
<polygon fill="none" stroke="#bfbfbf" points="788,-56.5 788,-75.5 818,-75.5 818,-56.5 788,-56.5"/>
<text text-anchor="middle" x="803" y="-63.5" font-family="Helvetica,sans-Serif" font-size="10.00">set</text>
</g>
<!-- Node4&#45;&gt;Node14 -->
<g id="edge13" class="edge"><title>Node4&#45;&gt;Node14</title>
<path fill="none" stroke="midnightblue" d="M596.607,-115.592C638.861,-108.256 714.63,-93.976 778,-76 778.1,-75.9717 778.2,-75.9432 778.3,-75.9144"/>
<polygon fill="midnightblue" stroke="midnightblue" points="779.329,-79.2602 787.772,-72.86 777.181,-72.598 779.329,-79.2602"/>
</g>
<!-- Node15 -->
<g id="node15" class="node"><title>Node15</title>
<polygon fill="none" stroke="#bfbfbf" points="836,-56.5 836,-75.5 882,-75.5 882,-56.5 836,-56.5"/>
<text text-anchor="middle" x="859" y="-63.5" font-family="Helvetica,sans-Serif" font-size="10.00">atomic</text>
</g>
<!-- Node4&#45;&gt;Node15 -->
<g id="edge14" class="edge"><title>Node4&#45;&gt;Node15</title>
<path fill="none" stroke="midnightblue" d="M596.827,-115.767C656.997,-106.107 782.744,-85.5899 826,-76 826.101,-75.9775 826.203,-75.9549 826.305,-75.9322"/>
<polygon fill="midnightblue" stroke="midnightblue" points="827.101,-79.3408 835.991,-73.5784 825.448,-72.5387 827.101,-79.3408"/>
</g>
<!-- Node16 -->
<g id="node16" class="node"><title>Node16</title>
<polygon fill="none" stroke="#bfbfbf" points="900,-56.5 900,-75.5 946,-75.5 946,-56.5 900,-56.5"/>
<text text-anchor="middle" x="923" y="-63.5" font-family="Helvetica,sans-Serif" font-size="10.00">cctype</text>
</g>
<!-- Node4&#45;&gt;Node16 -->
<g id="edge15" class="edge"><title>Node4&#45;&gt;Node16</title>
<path fill="none" stroke="midnightblue" d="M596.812,-116.18C606.233,-114.811 616.522,-113.332 626,-112 740.485,-95.9146 772.864,-99.9084 889.623,-76.045"/>
<polygon fill="midnightblue" stroke="midnightblue" points="890.59,-79.419 899.674,-73.9653 889.172,-72.5642 890.59,-79.419"/>
</g>
<!-- Node17 -->
<g id="node17" class="node"><title>Node17</title>
<polygon fill="none" stroke="#bfbfbf" points="1364,-56.5 1364,-75.5 1420,-75.5 1420,-56.5 1364,-56.5"/>
<text text-anchor="middle" x="1392" y="-63.5" font-family="Helvetica,sans-Serif" font-size="10.00">algorithm</text>
</g>
<!-- Node4&#45;&gt;Node17 -->
<g id="edge16" class="edge"><title>Node4&#45;&gt;Node17</title>
<path fill="none" stroke="midnightblue" d="M596.75,-115.654C606.17,-114.277 616.473,-112.925 626,-112 945.567,-80.9855 1032.19,-121.693 1353.76,-75.8868"/>
<polygon fill="midnightblue" stroke="midnightblue" points="1354.43,-79.3262 1363.83,-74.4351 1353.43,-72.3978 1354.43,-79.3262"/>
</g>
<!-- Node18 -->
<g id="node18" class="node"><title>Node18</title>
<polygon fill="none" stroke="#bfbfbf" points="964.5,-56.5 964.5,-75.5 1017.5,-75.5 1017.5,-56.5 964.5,-56.5"/>
<text text-anchor="middle" x="991" y="-63.5" font-family="Helvetica,sans-Serif" font-size="10.00">complex</text>
</g>
<!-- Node4&#45;&gt;Node18 -->
<g id="edge17" class="edge"><title>Node4&#45;&gt;Node18</title>
<path fill="none" stroke="midnightblue" d="M596.791,-116.02C606.212,-114.649 616.505,-113.208 626,-112 768.641,-93.8487 808.429,-101.531 954.137,-75.9107"/>
<polygon fill="midnightblue" stroke="midnightblue" points="955.12,-79.2908 964.351,-74.0912 953.892,-72.3993 955.12,-79.2908"/>
</g>
<!-- Node19 -->
<g id="node19" class="node"><title>Node19</title>
<polygon fill="none" stroke="#bfbfbf" points="138,-56.5 138,-75.5 182,-75.5 182,-56.5 138,-56.5"/>
<text text-anchor="middle" x="160" y="-63.5" font-family="Helvetica,sans-Serif" font-size="10.00">thread</text>
</g>
<!-- Node4&#45;&gt;Node19 -->
<g id="edge18" class="edge"><title>Node4&#45;&gt;Node19</title>
<path fill="none" stroke="midnightblue" d="M531.284,-118.849C467.693,-114.283 322.903,-102.012 192.411,-75.9888"/>
<polygon fill="midnightblue" stroke="midnightblue" points="192.739,-72.4841 182.243,-73.9268 191.348,-79.3445 192.739,-72.4841"/>
</g>
<!-- Node20 -->
<g id="node20" class="node"><title>Node20</title>
<g id="a_node20"><a xlink:href="Ptr_8h.xhtml" target="_top" xlink:title="Ptr.h">
<polygon fill="none" stroke="black" points="1036,-56.5 1036,-75.5 1074,-75.5 1074,-56.5 1036,-56.5"/>
<text text-anchor="middle" x="1055" y="-63.5" font-family="Helvetica,sans-Serif" font-size="10.00">Ptr.h</text>
</a>
</g>
</g>
<!-- Node4&#45;&gt;Node20 -->
<g id="edge19" class="edge"><title>Node4&#45;&gt;Node20</title>
<path fill="none" stroke="midnightblue" d="M596.776,-115.902C606.197,-114.529 616.494,-113.117 626,-112 803.277,-91.1713 850.898,-110.646 1026,-76 1026.1,-75.9802 1026.2,-75.9601 1026.3,-75.9399"/>
<polygon fill="midnightblue" stroke="midnightblue" points="1026.94,-79.3871 1035.8,-73.5791 1025.25,-72.5937 1026.94,-79.3871"/>
</g>
<!-- Node22 -->
<g id="node22" class="node"><title>Node22</title>
<polygon fill="none" stroke="#bfbfbf" points="1092,-56.5 1092,-75.5 1136,-75.5 1136,-56.5 1092,-56.5"/>
<text text-anchor="middle" x="1114" y="-63.5" font-family="Helvetica,sans-Serif" font-size="10.00">mutex</text>
</g>
<!-- Node4&#45;&gt;Node22 -->
<g id="edge21" class="edge"><title>Node4&#45;&gt;Node22</title>
<path fill="none" stroke="midnightblue" d="M596.769,-115.834C606.189,-114.46 616.488,-113.064 626,-112 825.215,-89.7185 880.791,-111.856 1081.79,-75.8557"/>
<polygon fill="midnightblue" stroke="midnightblue" points="1082.57,-79.2713 1091.78,-74.0398 1081.31,-72.3841 1082.57,-79.2713"/>
</g>
<!-- Node23 -->
<g id="node23" class="node"><title>Node23</title>
<polygon fill="none" stroke="#bfbfbf" points="1154.5,-56.5 1154.5,-75.5 1249.5,-75.5 1249.5,-56.5 1154.5,-56.5"/>
<text text-anchor="middle" x="1202" y="-63.5" font-family="Helvetica,sans-Serif" font-size="10.00">condition_variable</text>
</g>
<!-- Node4&#45;&gt;Node23 -->
<g id="edge22" class="edge"><title>Node4&#45;&gt;Node23</title>
<path fill="none" stroke="midnightblue" d="M596.762,-115.777C606.183,-114.402 616.483,-113.02 626,-112 855.463,-87.4066 914.66,-101.716 1144,-76 1144.1,-75.9883 1144.21,-75.9765 1144.31,-75.9647"/>
<polygon fill="midnightblue" stroke="midnightblue" points="1144.75,-79.4369 1154.25,-74.7369 1143.9,-72.4897 1144.75,-79.4369"/>
</g>
<!-- Node24 -->
<g id="node24" class="node"><title>Node24</title>
<polygon fill="none" stroke="#bfbfbf" points="1268,-56.5 1268,-75.5 1346,-75.5 1346,-56.5 1268,-56.5"/>
<text text-anchor="middle" x="1307" y="-63.5" font-family="Helvetica,sans-Serif" font-size="10.00">VoxelConfig.h</text>
</g>
<!-- Node4&#45;&gt;Node24 -->
<g id="edge23" class="edge"><title>Node4&#45;&gt;Node24</title>
<path fill="none" stroke="midnightblue" d="M596.754,-115.7C606.175,-114.324 616.477,-112.961 626,-112 902.643,-84.0957 976.922,-108.882 1257.68,-75.8538"/>
<polygon fill="midnightblue" stroke="midnightblue" points="1258.23,-79.3121 1267.75,-74.6543 1257.41,-72.3611 1258.23,-79.3121"/>
</g>
<!-- Node25 -->
<g id="node25" class="node"><title>Node25</title>
<polygon fill="none" stroke="#bfbfbf" points="272.5,-56.5 272.5,-75.5 355.5,-75.5 355.5,-56.5 272.5,-56.5"/>
<text text-anchor="middle" x="314" y="-63.5" font-family="Helvetica,sans-Serif" font-size="10.00">VoxelExports.h</text>
</g>
<!-- Node4&#45;&gt;Node25 -->
<g id="edge24" class="edge"><title>Node4&#45;&gt;Node25</title>
<path fill="none" stroke="midnightblue" d="M531.317,-113.94C488.598,-104.713 413.377,-88.4653 363.609,-77.7155"/>
<polygon fill="midnightblue" stroke="midnightblue" points="364.217,-74.2663 353.704,-75.576 362.739,-81.1085 364.217,-74.2663"/>
</g>
<!-- Node21 -->
<g id="node21" class="node"><title>Node21</title>
<polygon fill="none" stroke="#bfbfbf" points="1029,-0.5 1029,-19.5 1081,-19.5 1081,-0.5 1029,-0.5"/>
<text text-anchor="middle" x="1055" y="-7.5" font-family="Helvetica,sans-Serif" font-size="10.00">memory</text>
</g>
<!-- Node20&#45;&gt;Node21 -->
<g id="edge20" class="edge"><title>Node20&#45;&gt;Node21</title>
<path fill="none" stroke="midnightblue" d="M1055,-56.083C1055,-49.0059 1055,-38.8611 1055,-29.9865"/>
<polygon fill="midnightblue" stroke="midnightblue" points="1058.5,-29.751 1055,-19.7511 1051.5,-29.7511 1058.5,-29.751"/>
</g>
<!-- Node26&#45;&gt;Node3 -->
<g id="edge28" class="edge"><title>Node26&#45;&gt;Node3</title>
<path fill="none" stroke="midnightblue" d="M264.334,-280.456C253.215,-272.322 237.39,-259.106 228,-244 219.175,-229.802 214.292,-211.324 211.694,-197.7"/>
<polygon fill="midnightblue" stroke="midnightblue" points="215.107,-196.888 210.013,-187.598 208.202,-198.037 215.107,-196.888"/>
</g>
<!-- Node26&#45;&gt;Node27 -->
<g id="edge29" class="edge"><title>Node26&#45;&gt;Node27</title>
<path fill="none" stroke="midnightblue" d="M277,-280.083C277,-273.006 277,-262.861 277,-253.986"/>
<polygon fill="midnightblue" stroke="midnightblue" points="280.5,-253.751 277,-243.751 273.5,-253.751 280.5,-253.751"/>
</g>
<!-- Node26&#45;&gt;Node28 -->
<g id="edge32" class="edge"><title>Node26&#45;&gt;Node28</title>
<path fill="none" stroke="midnightblue" d="M287.055,-280.337C297.172,-271.49 313.083,-257.216 326,-244 341.49,-228.15 358.074,-208.96 369.337,-195.556"/>
<polygon fill="midnightblue" stroke="midnightblue" points="372.19,-197.599 375.904,-187.676 366.813,-193.117 372.19,-197.599"/>
</g>
<!-- Node27&#45;&gt;Node3 -->
<g id="edge31" class="edge"><title>Node27&#45;&gt;Node3</title>
<path fill="none" stroke="midnightblue" d="M266.075,-224.324C255.825,-216.185 240.279,-203.839 227.999,-194.087"/>
<polygon fill="midnightblue" stroke="midnightblue" points="230.132,-191.312 220.124,-187.834 225.779,-196.794 230.132,-191.312"/>
</g>
<!-- Node27&#45;&gt;Node4 -->
<g id="edge30" class="edge"><title>Node27&#45;&gt;Node4</title>
<path fill="none" stroke="midnightblue" d="M283.691,-224.251C295.057,-210.049 319.589,-182.146 347,-168 402.827,-139.189 475.717,-128.824 521.193,-125.095"/>
<polygon fill="midnightblue" stroke="midnightblue" points="521.589,-128.575 531.3,-124.339 521.067,-121.595 521.589,-128.575"/>
</g>
<!-- Node28&#45;&gt;Node4 -->
<g id="edge36" class="edge"><title>Node28&#45;&gt;Node4</title>
<path fill="none" stroke="midnightblue" d="M410.098,-168.916C440.705,-159.784 490.757,-144.851 525.433,-134.506"/>
<polygon fill="midnightblue" stroke="midnightblue" points="526.637,-137.799 535.219,-131.587 524.636,-131.092 526.637,-137.799"/>
</g>
<!-- Node28&#45;&gt;Node8 -->
<g id="edge33" class="edge"><title>Node28&#45;&gt;Node8</title>
<path fill="none" stroke="midnightblue" d="M370.759,-168.368C344.103,-149.573 280.562,-104.768 247.611,-81.5334"/>
<polygon fill="midnightblue" stroke="midnightblue" points="249.374,-78.4938 239.184,-75.5914 245.34,-84.2146 249.374,-78.4938"/>
</g>
<!-- Node28&#45;&gt;Node10 -->
<g id="edge34" class="edge"><title>Node28&#45;&gt;Node10</title>
<path fill="none" stroke="midnightblue" d="M355.983,-168.886C328.176,-160.357 283.712,-146.226 246,-132 202.091,-115.436 152.261,-93.5131 121.988,-79.8351"/>
<polygon fill="midnightblue" stroke="midnightblue" points="123.061,-76.4783 112.508,-75.5322 120.168,-82.8524 123.061,-76.4783"/>
</g>
<!-- Node28&#45;&gt;Node19 -->
<g id="edge35" class="edge"><title>Node28&#45;&gt;Node19</title>
<path fill="none" stroke="midnightblue" d="M364.36,-168.355C345.152,-159.404 314.378,-144.942 288,-132 252.287,-114.478 211.35,-93.5382 185.586,-80.2536"/>
<polygon fill="midnightblue" stroke="midnightblue" points="186.988,-77.0386 176.496,-75.5601 183.776,-83.2582 186.988,-77.0386"/>
</g>
<!-- Node29&#45;&gt;Node4 -->
<g id="edge41" class="edge"><title>Node29&#45;&gt;Node4</title>
<path fill="none" stroke="midnightblue" d="M499.465,-280.329C488.427,-268.017 471.462,-244.663 479,-224 492.116,-188.046 524.289,-156.022 545.076,-138.099"/>
<polygon fill="midnightblue" stroke="midnightblue" points="547.515,-140.622 552.94,-131.521 543.024,-135.253 547.515,-140.622"/>
</g>
<!-- Node30 -->
<g id="node30" class="node"><title>Node30</title>
<g id="a_node30"><a xlink:href="Serializable_8h.xhtml" target="_top" xlink:title="Serializable.h">
<polygon fill="none" stroke="black" points="582.5,-224.5 582.5,-243.5 657.5,-243.5 657.5,-224.5 582.5,-224.5"/>
<text text-anchor="middle" x="620" y="-231.5" font-family="Helvetica,sans-Serif" font-size="10.00">Serializable.h</text>
</a>
</g>
</g>
<!-- Node29&#45;&gt;Node30 -->
<g id="edge42" class="edge"><title>Node29&#45;&gt;Node30</title>
<path fill="none" stroke="midnightblue" d="M525.995,-280.324C544.038,-271.625 572.047,-258.12 592.803,-248.113"/>
<polygon fill="midnightblue" stroke="midnightblue" points="594.562,-251.15 602.05,-243.655 591.522,-244.845 594.562,-251.15"/>
</g>
<!-- Node33 -->
<g id="node33" class="node"><title>Node33</title>
<g id="a_node33"><a xlink:href="DataPacket_8h.xhtml" target="_top" xlink:title="DataPacket.h">
<polygon fill="none" stroke="black" points="487.5,-224.5 487.5,-243.5 564.5,-243.5 564.5,-224.5 487.5,-224.5"/>
<text text-anchor="middle" x="526" y="-231.5" font-family="Helvetica,sans-Serif" font-size="10.00">DataPacket.h</text>
</a>
</g>
</g>
<!-- Node29&#45;&gt;Node33 -->
<g id="edge49" class="edge"><title>Node29&#45;&gt;Node33</title>
<path fill="none" stroke="midnightblue" d="M510.972,-280.083C513.384,-272.849 516.864,-262.409 519.868,-253.397"/>
<polygon fill="midnightblue" stroke="midnightblue" points="523.241,-254.345 523.083,-243.751 516.6,-252.131 523.241,-254.345"/>
</g>
<!-- Node30&#45;&gt;Node4 -->
<g id="edge43" class="edge"><title>Node30&#45;&gt;Node4</title>
<path fill="none" stroke="midnightblue" d="M611.168,-224.477C602.812,-215.958 590.468,-202.128 583,-188 575.274,-173.383 570.302,-155.211 567.391,-141.801"/>
<polygon fill="midnightblue" stroke="midnightblue" points="570.794,-140.966 565.415,-131.838 563.927,-142.328 570.794,-140.966"/>
</g>
<!-- Node30&#45;&gt;Node28 -->
<g id="edge48" class="edge"><title>Node30&#45;&gt;Node28</title>
<path fill="none" stroke="midnightblue" d="M582.447,-224.444C537.885,-214.29 464.071,-197.472 419.829,-187.392"/>
<polygon fill="midnightblue" stroke="midnightblue" points="420.585,-183.974 410.057,-185.165 419.03,-190.799 420.585,-183.974"/>
</g>
<!-- Node31 -->
<g id="node31" class="node"><title>Node31</title>
<g id="a_node31"><a xlink:href="SerializedObject_8h.xhtml" target="_top" xlink:title="SerializedObject.h">
<polygon fill="none" stroke="black" points="592,-168.5 592,-187.5 688,-187.5 688,-168.5 592,-168.5"/>
<text text-anchor="middle" x="640" y="-175.5" font-family="Helvetica,sans-Serif" font-size="10.00">SerializedObject.h</text>
</a>
</g>
</g>
<!-- Node30&#45;&gt;Node31 -->
<g id="edge44" class="edge"><title>Node30&#45;&gt;Node31</title>
<path fill="none" stroke="midnightblue" d="M623.303,-224.083C625.982,-216.849 629.849,-206.409 633.186,-197.397"/>
<polygon fill="midnightblue" stroke="midnightblue" points="636.568,-198.344 636.759,-187.751 630.004,-195.913 636.568,-198.344"/>
</g>
<!-- Node31&#45;&gt;Node4 -->
<g id="edge45" class="edge"><title>Node31&#45;&gt;Node4</title>
<path fill="none" stroke="midnightblue" d="M627.789,-168.324C616.224,-160.107 598.625,-147.602 584.839,-137.807"/>
<polygon fill="midnightblue" stroke="midnightblue" points="586.612,-134.773 576.433,-131.834 582.557,-140.479 586.612,-134.773"/>
</g>
<!-- Node31&#45;&gt;Node17 -->
<g id="edge47" class="edge"><title>Node31&#45;&gt;Node17</title>
<path fill="none" stroke="midnightblue" d="M639.783,-168.106C639.969,-153.696 642.679,-125.5 660,-112 718.966,-66.0449 1242.01,-85.7555 1353.8,-75.5854"/>
<polygon fill="midnightblue" stroke="midnightblue" points="1354.29,-79.0518 1363.82,-74.428 1353.49,-72.0979 1354.29,-79.0518"/>
</g>
<!-- Node32 -->
<g id="node32" class="node"><title>Node32</title>
<polygon fill="none" stroke="#bfbfbf" points="668.5,-112.5 668.5,-131.5 717.5,-131.5 717.5,-112.5 668.5,-112.5"/>
<text text-anchor="middle" x="693" y="-119.5" font-family="Helvetica,sans-Serif" font-size="10.00">string.h</text>
</g>
<!-- Node31&#45;&gt;Node32 -->
<g id="edge46" class="edge"><title>Node31&#45;&gt;Node32</title>
<path fill="none" stroke="midnightblue" d="M648.752,-168.083C656.47,-160.22 667.905,-148.569 677.217,-139.081"/>
<polygon fill="midnightblue" stroke="midnightblue" points="679.904,-141.34 684.411,-131.751 674.908,-136.436 679.904,-141.34"/>
</g>
<!-- Node33&#45;&gt;Node4 -->
<g id="edge50" class="edge"><title>Node33&#45;&gt;Node4</title>
<path fill="none" stroke="midnightblue" d="M528.982,-224.368C535.142,-206.537 549.389,-165.295 557.688,-141.272"/>
<polygon fill="midnightblue" stroke="midnightblue" points="561.075,-142.186 561.032,-131.591 554.459,-139.9 561.075,-142.186"/>
</g>
<!-- Node33&#45;&gt;Node28 -->
<g id="edge52" class="edge"><title>Node33&#45;&gt;Node28</title>
<path fill="none" stroke="midnightblue" d="M503.341,-224.444C479.598,-215.478 442.091,-201.314 415.262,-191.183"/>
<polygon fill="midnightblue" stroke="midnightblue" points="416.144,-187.775 405.553,-187.516 413.671,-194.324 416.144,-187.775"/>
</g>
<!-- Node33&#45;&gt;Node31 -->
<g id="edge51" class="edge"><title>Node33&#45;&gt;Node31</title>
<path fill="none" stroke="midnightblue" d="M544.064,-224.444C562.575,-215.675 591.581,-201.935 612.855,-191.858"/>
<polygon fill="midnightblue" stroke="midnightblue" points="614.482,-194.96 622.021,-187.516 611.485,-188.634 614.482,-194.96"/>
</g>
</g>
</svg>
