<?xml version="1.0" encoding="UTF-8" standalone="no"?>
<!DOCTYPE svg PUBLIC "-//W3C//DTD SVG 1.1//EN"
 "http://www.w3.org/Graphics/SVG/1.1/DTD/svg11.dtd">
<!-- Generated by graphviz version 2.36.0 (20140111.2315)
 -->
<!-- Title: Downloader.h Pages: 1 -->
<svg width="2924pt" height="308pt"
 viewBox="0.00 0.00 2924.00 308.00" xmlns="http://www.w3.org/2000/svg" xmlns:xlink="http://www.w3.org/1999/xlink">
<g id="graph0" class="graph" transform="scale(1 1) rotate(0) translate(4 304)">
<title>Downloader.h</title>
<!-- Node1 -->
<g id="node1" class="node"><title>Node1</title>
<polygon fill="#bfbfbf" stroke="black" points="1154.5,-280.5 1154.5,-299.5 1231.5,-299.5 1231.5,-280.5 1154.5,-280.5"/>
<text text-anchor="middle" x="1193" y="-287.5" font-family="Helvetica,sans-Serif" font-size="10.00">Downloader.h</text>
</g>
<!-- Node2 -->
<g id="node2" class="node"><title>Node2</title>
<g id="a_node2"><a xlink:href="DownloaderTest_8cpp.xhtml" target="_top" xlink:title="DownloaderTest.cpp">
<polygon fill="none" stroke="black" points="180.5,-224.5 180.5,-243.5 287.5,-243.5 287.5,-224.5 180.5,-224.5"/>
<text text-anchor="middle" x="234" y="-231.5" font-family="Helvetica,sans-Serif" font-size="10.00">DownloaderTest.cpp</text>
</a>
</g>
</g>
<!-- Node1&#45;&gt;Node2 -->
<g id="edge1" class="edge"><title>Node1&#45;&gt;Node2</title>
<path fill="none" stroke="midnightblue" d="M1144.42,-288.168C1009.51,-285.51 618.918,-275.467 296,-244 293.294,-243.736 290.525,-243.438 287.731,-243.115"/>
<polygon fill="midnightblue" stroke="midnightblue" points="1144.37,-291.667 1154.44,-288.361 1144.51,-284.669 1144.37,-291.667"/>
</g>
<!-- Node3 -->
<g id="node3" class="node"><title>Node3</title>
<g id="a_node3"><a xlink:href="Voxel14RegisterTest_8cpp.xhtml" target="_top" xlink:title="Voxel14RegisterTest.cpp">
<polygon fill="none" stroke="black" points="305.5,-224.5 305.5,-243.5 432.5,-243.5 432.5,-224.5 305.5,-224.5"/>
<text text-anchor="middle" x="369" y="-231.5" font-family="Helvetica,sans-Serif" font-size="10.00">Voxel14RegisterTest.cpp</text>
</a>
</g>
</g>
<!-- Node1&#45;&gt;Node3 -->
<g id="edge2" class="edge"><title>Node1&#45;&gt;Node3</title>
<path fill="none" stroke="midnightblue" d="M1143.86,-287.159C1023.7,-282.419 705.533,-268.423 441,-244 438.24,-243.745 435.423,-243.468 432.579,-243.173"/>
<polygon fill="midnightblue" stroke="midnightblue" points="1144.06,-290.67 1154.19,-287.563 1144.33,-283.675 1144.06,-290.67"/>
</g>
<!-- Node4 -->
<g id="node4" class="node"><title>Node4</title>
<g id="a_node4"><a xlink:href="CalculusCDKCamera_8h.xhtml" target="_top" xlink:title="CalculusCDKCamera.h">
<polygon fill="none" stroke="black" points="450.5,-224.5 450.5,-243.5 569.5,-243.5 569.5,-224.5 450.5,-224.5"/>
<text text-anchor="middle" x="510" y="-231.5" font-family="Helvetica,sans-Serif" font-size="10.00">CalculusCDKCamera.h</text>
</a>
</g>
</g>
<!-- Node1&#45;&gt;Node4 -->
<g id="edge3" class="edge"><title>Node1&#45;&gt;Node4</title>
<path fill="none" stroke="midnightblue" d="M1144.32,-286.37C1040.35,-280.548 788.975,-265.371 579,-244 575.995,-243.694 572.92,-243.362 569.815,-243.012"/>
<polygon fill="midnightblue" stroke="midnightblue" points="1144.32,-289.876 1154.5,-286.937 1144.71,-282.886 1144.32,-289.876"/>
</g>
<!-- Node7 -->
<g id="node7" class="node"><title>Node7</title>
<g id="a_node7"><a xlink:href="HaddockCDKCamera_8h.xhtml" target="_top" xlink:title="HaddockCDKCamera.h">
<polygon fill="none" stroke="black" points="588,-224.5 588,-243.5 708,-243.5 708,-224.5 588,-224.5"/>
<text text-anchor="middle" x="648" y="-231.5" font-family="Helvetica,sans-Serif" font-size="10.00">HaddockCDKCamera.h</text>
</a>
</g>
</g>
<!-- Node1&#45;&gt;Node7 -->
<g id="edge6" class="edge"><title>Node1&#45;&gt;Node7</title>
<path fill="none" stroke="midnightblue" d="M1144.13,-284.158C1044.27,-274.263 817.077,-251.753 708.27,-240.972"/>
<polygon fill="midnightblue" stroke="midnightblue" points="1143.95,-287.657 1154.24,-285.16 1144.64,-280.691 1143.95,-287.657"/>
</g>
<!-- Node10 -->
<g id="node10" class="node"><title>Node10</title>
<g id="a_node10"><a xlink:href="RTS5825Camera_8h.xhtml" target="_top" xlink:title="RTS5825Camera.h">
<polygon fill="none" stroke="black" points="812.5,-224.5 812.5,-243.5 913.5,-243.5 913.5,-224.5 812.5,-224.5"/>
<text text-anchor="middle" x="863" y="-231.5" font-family="Helvetica,sans-Serif" font-size="10.00">RTS5825Camera.h</text>
</a>
</g>
</g>
<!-- Node1&#45;&gt;Node10 -->
<g id="edge9" class="edge"><title>Node1&#45;&gt;Node10</title>
<path fill="none" stroke="midnightblue" d="M1144.61,-281.082C1082.84,-270.974 976.473,-253.568 913.641,-243.287"/>
<polygon fill="midnightblue" stroke="midnightblue" points="1144.06,-284.539 1154.5,-282.7 1145.2,-277.631 1144.06,-284.539"/>
</g>
<!-- Node13 -->
<g id="node13" class="node"><title>Node13</title>
<g id="a_node13"><a xlink:href="TintinCDKCamera_8h.xhtml" target="_top" xlink:title="TintinCDKCamera.h">
<polygon fill="none" stroke="black" points="1140.5,-224.5 1140.5,-243.5 1245.5,-243.5 1245.5,-224.5 1140.5,-224.5"/>
<text text-anchor="middle" x="1193" y="-231.5" font-family="Helvetica,sans-Serif" font-size="10.00">TintinCDKCamera.h</text>
</a>
</g>
</g>
<!-- Node1&#45;&gt;Node13 -->
<g id="edge12" class="edge"><title>Node1&#45;&gt;Node13</title>
<path fill="none" stroke="midnightblue" d="M1193,-269.805C1193,-260.91 1193,-250.78 1193,-243.751"/>
<polygon fill="midnightblue" stroke="midnightblue" points="1189.5,-270.083 1193,-280.083 1196.5,-270.083 1189.5,-270.083"/>
</g>
<!-- Node18 -->
<g id="node18" class="node"><title>Node18</title>
<g id="a_node18"><a xlink:href="TintinEEPROMDownloader_8h.xhtml" target="_top" xlink:title="TintinEEPROMDownloader.h">
<polygon fill="none" stroke="black" points="1297,-224.5 1297,-243.5 1441,-243.5 1441,-224.5 1297,-224.5"/>
<text text-anchor="middle" x="1369" y="-231.5" font-family="Helvetica,sans-Serif" font-size="10.00">TintinEEPROMDownloader.h</text>
</a>
</g>
</g>
<!-- Node1&#45;&gt;Node18 -->
<g id="edge17" class="edge"><title>Node1&#45;&gt;Node18</title>
<path fill="none" stroke="midnightblue" d="M1230.69,-277.436C1263.87,-267.255 1311.43,-252.664 1341.24,-243.516"/>
<polygon fill="midnightblue" stroke="midnightblue" points="1229.42,-274.164 1220.89,-280.444 1231.47,-280.856 1229.42,-274.164"/>
</g>
<!-- Node19 -->
<g id="node19" class="node"><title>Node19</title>
<g id="a_node19"><a xlink:href="Voxel14Camera_8h.xhtml" target="_top" xlink:title="Voxel14Camera.h">
<polygon fill="none" stroke="black" points="1508.5,-224.5 1508.5,-243.5 1603.5,-243.5 1603.5,-224.5 1508.5,-224.5"/>
<text text-anchor="middle" x="1556" y="-231.5" font-family="Helvetica,sans-Serif" font-size="10.00">Voxel14Camera.h</text>
</a>
</g>
</g>
<!-- Node1&#45;&gt;Node19 -->
<g id="edge20" class="edge"><title>Node1&#45;&gt;Node19</title>
<path fill="none" stroke="midnightblue" d="M1241.79,-281.742C1311.64,-271.351 1439.33,-252.355 1508.48,-242.069"/>
<polygon fill="midnightblue" stroke="midnightblue" points="1240.88,-278.339 1231.5,-283.272 1241.91,-285.263 1240.88,-278.339"/>
</g>
<!-- Node22 -->
<g id="node22" class="node"><title>Node22</title>
<g id="a_node22"><a xlink:href="VoxelDCamera_8h.xhtml" target="_top" xlink:title="VoxelDCamera.h">
<polygon fill="none" stroke="black" points="1788,-224.5 1788,-243.5 1880,-243.5 1880,-224.5 1788,-224.5"/>
<text text-anchor="middle" x="1834" y="-231.5" font-family="Helvetica,sans-Serif" font-size="10.00">VoxelDCamera.h</text>
</a>
</g>
</g>
<!-- Node1&#45;&gt;Node22 -->
<g id="edge23" class="edge"><title>Node1&#45;&gt;Node22</title>
<path fill="none" stroke="midnightblue" d="M1241.65,-284.901C1361.6,-274.797 1670.24,-248.796 1787.69,-238.902"/>
<polygon fill="midnightblue" stroke="midnightblue" points="1241.32,-281.416 1231.65,-285.744 1241.91,-288.392 1241.32,-281.416"/>
</g>
<!-- Node25 -->
<g id="node25" class="node"><title>Node25</title>
<g id="a_node25"><a xlink:href="DownloaderFactory_8h.xhtml" target="_top" xlink:title="DownloaderFactory.h">
<polygon fill="none" stroke="black" points="2079,-224.5 2079,-243.5 2189,-243.5 2189,-224.5 2079,-224.5"/>
<text text-anchor="middle" x="2134" y="-231.5" font-family="Helvetica,sans-Serif" font-size="10.00">DownloaderFactory.h</text>
</a>
</g>
</g>
<!-- Node1&#45;&gt;Node25 -->
<g id="edge26" class="edge"><title>Node1&#45;&gt;Node25</title>
<path fill="none" stroke="midnightblue" d="M1241.66,-286.207C1401.56,-277.032 1910.14,-247.846 2078.95,-238.159"/>
<polygon fill="midnightblue" stroke="midnightblue" points="1241.43,-282.715 1231.64,-286.782 1241.83,-289.704 1241.43,-282.715"/>
</g>
<!-- Node41 -->
<g id="node41" class="node"><title>Node41</title>
<g id="a_node41"><a xlink:href="Downloader_8cpp.xhtml" target="_top" xlink:title="Downloader.cpp">
<polygon fill="none" stroke="black" points="2207.5,-224.5 2207.5,-243.5 2294.5,-243.5 2294.5,-224.5 2207.5,-224.5"/>
<text text-anchor="middle" x="2251" y="-231.5" font-family="Helvetica,sans-Serif" font-size="10.00">Downloader.cpp</text>
</a>
</g>
</g>
<!-- Node1&#45;&gt;Node41 -->
<g id="edge45" class="edge"><title>Node1&#45;&gt;Node41</title>
<path fill="none" stroke="midnightblue" d="M1242.35,-288.943C1388.62,-288.313 1832.47,-283.069 2198,-244 2201.06,-243.673 2204.22,-243.28 2207.39,-242.845"/>
<polygon fill="midnightblue" stroke="midnightblue" points="1241.92,-285.445 1231.93,-288.982 1241.95,-292.445 1241.92,-285.445"/>
</g>
<!-- Node5 -->
<g id="node5" class="node"><title>Node5</title>
<g id="a_node5"><a xlink:href="CalculusCDKCamera_8cpp.xhtml" target="_top" xlink:title="CalculusCDKCamera.cpp">
<polygon fill="none" stroke="black" points="0,-168.5 0,-187.5 130,-187.5 130,-168.5 0,-168.5"/>
<text text-anchor="middle" x="65" y="-175.5" font-family="Helvetica,sans-Serif" font-size="10.00">CalculusCDKCamera.cpp</text>
</a>
</g>
</g>
<!-- Node4&#45;&gt;Node5 -->
<g id="edge4" class="edge"><title>Node4&#45;&gt;Node5</title>
<path fill="none" stroke="midnightblue" d="M439.864,-223.87C305.165,-207.099 269.927,-203.765 139,-188 136.173,-187.66 133.286,-187.311 130.369,-186.959"/>
<polygon fill="midnightblue" stroke="midnightblue" points="439.81,-227.39 450.166,-225.154 440.676,-220.444 439.81,-227.39"/>
</g>
<!-- Node6 -->
<g id="node6" class="node"><title>Node6</title>
<g id="a_node6"><a xlink:href="CalculusCDKCameraFactory_8cpp.xhtml" target="_top" xlink:title="CalculusCDKCameraFactory.cpp">
<polygon fill="none" stroke="black" points="148.5,-168.5 148.5,-187.5 311.5,-187.5 311.5,-168.5 148.5,-168.5"/>
<text text-anchor="middle" x="230" y="-175.5" font-family="Helvetica,sans-Serif" font-size="10.00">CalculusCDKCameraFactory.cpp</text>
</a>
</g>
</g>
<!-- Node4&#45;&gt;Node6 -->
<g id="edge5" class="edge"><title>Node4&#45;&gt;Node6</title>
<path fill="none" stroke="midnightblue" d="M455.748,-222.537C402.83,-212.332 323.329,-196.999 274.159,-187.516"/>
<polygon fill="midnightblue" stroke="midnightblue" points="455.151,-225.986 465.633,-224.444 456.477,-219.113 455.151,-225.986"/>
</g>
<!-- Node8 -->
<g id="node8" class="node"><title>Node8</title>
<g id="a_node8"><a xlink:href="HaddockCDKCamera_8cpp.xhtml" target="_top" xlink:title="HaddockCDKCamera.cpp">
<polygon fill="none" stroke="black" points="329.5,-168.5 329.5,-187.5 460.5,-187.5 460.5,-168.5 329.5,-168.5"/>
<text text-anchor="middle" x="395" y="-175.5" font-family="Helvetica,sans-Serif" font-size="10.00">HaddockCDKCamera.cpp</text>
</a>
</g>
</g>
<!-- Node7&#45;&gt;Node8 -->
<g id="edge7" class="edge"><title>Node7&#45;&gt;Node8</title>
<path fill="none" stroke="midnightblue" d="M598.082,-222.346C550.269,-212.141 479.052,-196.94 434.901,-187.516"/>
<polygon fill="midnightblue" stroke="midnightblue" points="597.401,-225.779 607.911,-224.444 598.862,-218.933 597.401,-225.779"/>
</g>
<!-- Node9 -->
<g id="node9" class="node"><title>Node9</title>
<g id="a_node9"><a xlink:href="HaddockCDKCameraFactory_8cpp.xhtml" target="_top" xlink:title="HaddockCDKCameraFactory.cpp">
<polygon fill="none" stroke="black" points="479,-168.5 479,-187.5 643,-187.5 643,-168.5 479,-168.5"/>
<text text-anchor="middle" x="561" y="-175.5" font-family="Helvetica,sans-Serif" font-size="10.00">HaddockCDKCameraFactory.cpp</text>
</a>
</g>
</g>
<!-- Node7&#45;&gt;Node9 -->
<g id="edge8" class="edge"><title>Node7&#45;&gt;Node9</title>
<path fill="none" stroke="midnightblue" d="M625.284,-218.901C609.331,-208.999 588.503,-196.071 574.943,-187.655"/>
<polygon fill="midnightblue" stroke="midnightblue" points="623.68,-222.024 634.022,-224.324 627.371,-216.077 623.68,-222.024"/>
</g>
<!-- Node11 -->
<g id="node11" class="node"><title>Node11</title>
<g id="a_node11"><a xlink:href="RTS5825Camera_8cpp.xhtml" target="_top" xlink:title="RTS5825Camera.cpp">
<polygon fill="none" stroke="black" points="661.5,-168.5 661.5,-187.5 772.5,-187.5 772.5,-168.5 661.5,-168.5"/>
<text text-anchor="middle" x="717" y="-175.5" font-family="Helvetica,sans-Serif" font-size="10.00">RTS5825Camera.cpp</text>
</a>
</g>
</g>
<!-- Node10&#45;&gt;Node11 -->
<g id="edge10" class="edge"><title>Node10&#45;&gt;Node11</title>
<path fill="none" stroke="midnightblue" d="M830.301,-220.906C802.852,-210.754 764.332,-196.506 740.026,-187.516"/>
<polygon fill="midnightblue" stroke="midnightblue" points="829.273,-224.257 839.866,-224.444 831.701,-217.692 829.273,-224.257"/>
</g>
<!-- Node12 -->
<g id="node12" class="node"><title>Node12</title>
<g id="a_node12"><a xlink:href="RTS5825CameraFactory_8cpp.xhtml" target="_top" xlink:title="RTS5825CameraFactory.cpp">
<polygon fill="none" stroke="black" points="791,-168.5 791,-187.5 935,-187.5 935,-168.5 791,-168.5"/>
<text text-anchor="middle" x="863" y="-175.5" font-family="Helvetica,sans-Serif" font-size="10.00">RTS5825CameraFactory.cpp</text>
</a>
</g>
</g>
<!-- Node10&#45;&gt;Node12 -->
<g id="edge11" class="edge"><title>Node10&#45;&gt;Node12</title>
<path fill="none" stroke="midnightblue" d="M863,-213.805C863,-204.91 863,-194.78 863,-187.751"/>
<polygon fill="midnightblue" stroke="midnightblue" points="859.5,-214.083 863,-224.083 866.5,-214.083 859.5,-214.083"/>
</g>
<!-- Node14 -->
<g id="node14" class="node"><title>Node14</title>
<g id="a_node14"><a xlink:href="TintinCDKCamera_8cpp.xhtml" target="_top" xlink:title="TintinCDKCamera.cpp">
<polygon fill="none" stroke="black" points="953,-168.5 953,-187.5 1069,-187.5 1069,-168.5 953,-168.5"/>
<text text-anchor="middle" x="1011" y="-175.5" font-family="Helvetica,sans-Serif" font-size="10.00">TintinCDKCamera.cpp</text>
</a>
</g>
</g>
<!-- Node13&#45;&gt;Node14 -->
<g id="edge13" class="edge"><title>Node13&#45;&gt;Node14</title>
<path fill="none" stroke="midnightblue" d="M1154.47,-221.568C1120.14,-211.381 1070.67,-196.703 1039.7,-187.516"/>
<polygon fill="midnightblue" stroke="midnightblue" points="1153.58,-224.954 1164.16,-224.444 1155.57,-218.244 1153.58,-224.954"/>
</g>
<!-- Node15 -->
<g id="node15" class="node"><title>Node15</title>
<g id="a_node15"><a xlink:href="TintinCDKCameraFactory_8cpp.xhtml" target="_top" xlink:title="TintinCDKCameraFactory.cpp">
<polygon fill="none" stroke="black" points="1086.5,-168.5 1086.5,-187.5 1235.5,-187.5 1235.5,-168.5 1086.5,-168.5"/>
<text text-anchor="middle" x="1161" y="-175.5" font-family="Helvetica,sans-Serif" font-size="10.00">TintinCDKCameraFactory.cpp</text>
</a>
</g>
</g>
<!-- Node13&#45;&gt;Node15 -->
<g id="edge14" class="edge"><title>Node13&#45;&gt;Node15</title>
<path fill="none" stroke="midnightblue" d="M1182.5,-215.275C1177.03,-206.045 1170.58,-195.17 1166.19,-187.751"/>
<polygon fill="midnightblue" stroke="midnightblue" points="1179.61,-217.264 1187.72,-224.083 1185.63,-213.696 1179.61,-217.264"/>
</g>
<!-- Node16 -->
<g id="node16" class="node"><title>Node16</title>
<g id="a_node16"><a xlink:href="TintinCDKDownloaderFactory_8cpp.xhtml" target="_top" xlink:title="TintinCDKDownloaderFactory.cpp">
<polygon fill="none" stroke="black" points="1392,-112.5 1392,-131.5 1558,-131.5 1558,-112.5 1392,-112.5"/>
<text text-anchor="middle" x="1475" y="-119.5" font-family="Helvetica,sans-Serif" font-size="10.00">TintinCDKDownloaderFactory.cpp</text>
</a>
</g>
</g>
<!-- Node13&#45;&gt;Node16 -->
<g id="edge15" class="edge"><title>Node13&#45;&gt;Node16</title>
<path fill="none" stroke="midnightblue" d="M1209.69,-217.788C1226.85,-202.944 1254.97,-180.783 1283,-168 1323.5,-149.533 1372.37,-138.217 1410.68,-131.552"/>
<polygon fill="midnightblue" stroke="midnightblue" points="1207.37,-215.17 1202.19,-224.414 1212,-220.415 1207.37,-215.17"/>
</g>
<!-- Node17 -->
<g id="node17" class="node"><title>Node17</title>
<g id="a_node17"><a xlink:href="TintinEEPROMDownloader_8cpp.xhtml" target="_top" xlink:title="TintinEEPROMDownloader.cpp">
<polygon fill="none" stroke="black" points="1291.5,-168.5 1291.5,-187.5 1446.5,-187.5 1446.5,-168.5 1291.5,-168.5"/>
<text text-anchor="middle" x="1369" y="-175.5" font-family="Helvetica,sans-Serif" font-size="10.00">TintinEEPROMDownloader.cpp</text>
</a>
</g>
</g>
<!-- Node13&#45;&gt;Node17 -->
<g id="edge16" class="edge"><title>Node13&#45;&gt;Node17</title>
<path fill="none" stroke="midnightblue" d="M1230.69,-221.436C1263.87,-211.255 1311.43,-196.664 1341.24,-187.516"/>
<polygon fill="midnightblue" stroke="midnightblue" points="1229.42,-218.164 1220.89,-224.444 1231.47,-224.856 1229.42,-218.164"/>
</g>
<!-- Node18&#45;&gt;Node16 -->
<g id="edge18" class="edge"><title>Node18&#45;&gt;Node16</title>
<path fill="none" stroke="midnightblue" d="M1407.46,-220.556C1424.15,-213.408 1442.66,-202.839 1455,-188 1468.89,-171.295 1473.14,-145.024 1474.44,-131.568"/>
<polygon fill="midnightblue" stroke="midnightblue" points="1405.89,-217.415 1397.9,-224.377 1408.49,-223.914 1405.89,-217.415"/>
</g>
<!-- Node18&#45;&gt;Node17 -->
<g id="edge19" class="edge"><title>Node18&#45;&gt;Node17</title>
<path fill="none" stroke="midnightblue" d="M1369,-213.805C1369,-204.91 1369,-194.78 1369,-187.751"/>
<polygon fill="midnightblue" stroke="midnightblue" points="1365.5,-214.083 1369,-224.083 1372.5,-214.083 1365.5,-214.083"/>
</g>
<!-- Node20 -->
<g id="node20" class="node"><title>Node20</title>
<g id="a_node20"><a xlink:href="Voxel14Camera_8cpp.xhtml" target="_top" xlink:title="Voxel14Camera.cpp">
<polygon fill="none" stroke="black" points="1503.5,-168.5 1503.5,-187.5 1608.5,-187.5 1608.5,-168.5 1503.5,-168.5"/>
<text text-anchor="middle" x="1556" y="-175.5" font-family="Helvetica,sans-Serif" font-size="10.00">Voxel14Camera.cpp</text>
</a>
</g>
</g>
<!-- Node19&#45;&gt;Node20 -->
<g id="edge21" class="edge"><title>Node19&#45;&gt;Node20</title>
<path fill="none" stroke="midnightblue" d="M1556,-213.805C1556,-204.91 1556,-194.78 1556,-187.751"/>
<polygon fill="midnightblue" stroke="midnightblue" points="1552.5,-214.083 1556,-224.083 1559.5,-214.083 1552.5,-214.083"/>
</g>
<!-- Node21 -->
<g id="node21" class="node"><title>Node21</title>
<g id="a_node21"><a xlink:href="Voxel14CameraFactory_8cpp.xhtml" target="_top" xlink:title="Voxel14CameraFactory.cpp">
<polygon fill="none" stroke="black" points="1627,-168.5 1627,-187.5 1765,-187.5 1765,-168.5 1627,-168.5"/>
<text text-anchor="middle" x="1696" y="-175.5" font-family="Helvetica,sans-Serif" font-size="10.00">Voxel14CameraFactory.cpp</text>
</a>
</g>
</g>
<!-- Node19&#45;&gt;Node21 -->
<g id="edge22" class="edge"><title>Node19&#45;&gt;Node21</title>
<path fill="none" stroke="midnightblue" d="M1587.7,-220.772C1614,-210.629 1650.72,-196.467 1673.92,-187.516"/>
<polygon fill="midnightblue" stroke="midnightblue" points="1586.25,-217.579 1578.18,-224.444 1588.77,-224.11 1586.25,-217.579"/>
</g>
<!-- Node23 -->
<g id="node23" class="node"><title>Node23</title>
<g id="a_node23"><a xlink:href="VoxelDCamera_8cpp.xhtml" target="_top" xlink:title="VoxelDCamera.cpp">
<polygon fill="none" stroke="black" points="1783,-168.5 1783,-187.5 1885,-187.5 1885,-168.5 1783,-168.5"/>
<text text-anchor="middle" x="1834" y="-175.5" font-family="Helvetica,sans-Serif" font-size="10.00">VoxelDCamera.cpp</text>
</a>
</g>
</g>
<!-- Node22&#45;&gt;Node23 -->
<g id="edge24" class="edge"><title>Node22&#45;&gt;Node23</title>
<path fill="none" stroke="midnightblue" d="M1834,-213.805C1834,-204.91 1834,-194.78 1834,-187.751"/>
<polygon fill="midnightblue" stroke="midnightblue" points="1830.5,-214.083 1834,-224.083 1837.5,-214.083 1830.5,-214.083"/>
</g>
<!-- Node24 -->
<g id="node24" class="node"><title>Node24</title>
<g id="a_node24"><a xlink:href="VoxelDCameraFactory_8cpp.xhtml" target="_top" xlink:title="VoxelDCameraFactory.cpp">
<polygon fill="none" stroke="black" points="1903.5,-168.5 1903.5,-187.5 2038.5,-187.5 2038.5,-168.5 1903.5,-168.5"/>
<text text-anchor="middle" x="1971" y="-175.5" font-family="Helvetica,sans-Serif" font-size="10.00">VoxelDCameraFactory.cpp</text>
</a>
</g>
</g>
<!-- Node22&#45;&gt;Node24 -->
<g id="edge25" class="edge"><title>Node22&#45;&gt;Node24</title>
<path fill="none" stroke="midnightblue" d="M1865.02,-220.772C1890.76,-210.629 1926.69,-196.467 1949.39,-187.516"/>
<polygon fill="midnightblue" stroke="midnightblue" points="1863.73,-217.52 1855.71,-224.444 1866.29,-224.033 1863.73,-217.52"/>
</g>
<!-- Node26 -->
<g id="node26" class="node"><title>Node26</title>
<g id="a_node26"><a xlink:href="TintinCDKDownloaderFactory_8h.xhtml" target="_top" xlink:title="TintinCDKDownloaderFactory.h">
<polygon fill="none" stroke="black" points="2056.5,-168.5 2056.5,-187.5 2211.5,-187.5 2211.5,-168.5 2056.5,-168.5"/>
<text text-anchor="middle" x="2134" y="-175.5" font-family="Helvetica,sans-Serif" font-size="10.00">TintinCDKDownloaderFactory.h</text>
</a>
</g>
</g>
<!-- Node25&#45;&gt;Node26 -->
<g id="edge27" class="edge"><title>Node25&#45;&gt;Node26</title>
<path fill="none" stroke="midnightblue" d="M2134,-213.805C2134,-204.91 2134,-194.78 2134,-187.751"/>
<polygon fill="midnightblue" stroke="midnightblue" points="2130.5,-214.083 2134,-224.083 2137.5,-214.083 2130.5,-214.083"/>
</g>
<!-- Node27 -->
<g id="node27" class="node"><title>Node27</title>
<g id="a_node27"><a xlink:href="CameraSystem_8h.xhtml" target="_top" xlink:title="CameraSystem.h">
<polygon fill="none" stroke="black" points="2193.5,-112.5 2193.5,-131.5 2286.5,-131.5 2286.5,-112.5 2193.5,-112.5"/>
<text text-anchor="middle" x="2240" y="-119.5" font-family="Helvetica,sans-Serif" font-size="10.00">CameraSystem.h</text>
</a>
</g>
</g>
<!-- Node25&#45;&gt;Node27 -->
<g id="edge29" class="edge"><title>Node25&#45;&gt;Node27</title>
<path fill="none" stroke="midnightblue" d="M2172.46,-220.556C2189.15,-213.408 2207.66,-202.839 2220,-188 2233.89,-171.295 2238.14,-145.024 2239.44,-131.568"/>
<polygon fill="midnightblue" stroke="midnightblue" points="2170.89,-217.415 2162.9,-224.377 2173.49,-223.914 2170.89,-217.415"/>
</g>
<!-- Node39 -->
<g id="node39" class="node"><title>Node39</title>
<g id="a_node39"><a xlink:href="DepthCameraLibrary_8h.xhtml" target="_top" xlink:title="DepthCameraLibrary.h">
<polygon fill="none" stroke="black" points="2268.5,-168.5 2268.5,-187.5 2383.5,-187.5 2383.5,-168.5 2268.5,-168.5"/>
<text text-anchor="middle" x="2326" y="-175.5" font-family="Helvetica,sans-Serif" font-size="10.00">DepthCameraLibrary.h</text>
</a>
</g>
</g>
<!-- Node25&#45;&gt;Node39 -->
<g id="edge42" class="edge"><title>Node25&#45;&gt;Node39</title>
<path fill="none" stroke="midnightblue" d="M2174.18,-221.699C2210.42,-211.507 2262.91,-196.743 2295.72,-187.516"/>
<polygon fill="midnightblue" stroke="midnightblue" points="2173.1,-218.367 2164.42,-224.444 2175,-225.105 2173.1,-218.367"/>
</g>
<!-- Node26&#45;&gt;Node16 -->
<g id="edge28" class="edge"><title>Node26&#45;&gt;Node16</title>
<path fill="none" stroke="midnightblue" d="M2046.02,-167.932C1865.87,-151.632 1667.78,-136.82 1558.42,-128.917"/>
<polygon fill="midnightblue" stroke="midnightblue" points="2045.95,-171.439 2056.22,-168.858 2046.58,-164.468 2045.95,-171.439"/>
</g>
<!-- Node28 -->
<g id="node28" class="node"><title>Node28</title>
<g id="a_node28"><a xlink:href="CLIManager_8h.xhtml" target="_top" xlink:title="CLIManager.h">
<polygon fill="none" stroke="black" points="1612,-56.5 1612,-75.5 1690,-75.5 1690,-56.5 1612,-56.5"/>
<text text-anchor="middle" x="1651" y="-63.5" font-family="Helvetica,sans-Serif" font-size="10.00">CLIManager.h</text>
</a>
</g>
</g>
<!-- Node27&#45;&gt;Node28 -->
<g id="edge30" class="edge"><title>Node27&#45;&gt;Node28</title>
<path fill="none" stroke="midnightblue" d="M2183.27,-117.817C2085.27,-111.966 1878.03,-98.0417 1704,-76 1699.46,-75.4254 1694.72,-74.741 1690.02,-74.0099"/>
<polygon fill="midnightblue" stroke="midnightblue" points="2183.07,-121.311 2193.26,-118.408 2183.48,-114.323 2183.07,-121.311"/>
</g>
<!-- Node30 -->
<g id="node30" class="node"><title>Node30</title>
<g id="a_node30"><a xlink:href="VoxelCLI_8cpp.xhtml" target="_top" xlink:title="VoxelCLI.cpp">
<polygon fill="none" stroke="black" points="1680,-0.5 1680,-19.5 1756,-19.5 1756,-0.5 1680,-0.5"/>
<text text-anchor="middle" x="1718" y="-7.5" font-family="Helvetica,sans-Serif" font-size="10.00">VoxelCLI.cpp</text>
</a>
</g>
</g>
<!-- Node27&#45;&gt;Node30 -->
<g id="edge34" class="edge"><title>Node27&#45;&gt;Node30</title>
<path fill="none" stroke="midnightblue" d="M2183.42,-119.484C2059.18,-115.656 1770.89,-103.848 1737,-76 1720.1,-62.1171 1717.73,-34.0947 1717.7,-19.808"/>
<polygon fill="midnightblue" stroke="midnightblue" points="2183.39,-122.985 2193.49,-119.789 2183.61,-115.988 2183.39,-122.985"/>
</g>
<!-- Node31 -->
<g id="node31" class="node"><title>Node31</title>
<g id="a_node31"><a xlink:href="SimpleVoxelViewer_8cpp.xhtml" target="_top" xlink:title="SimpleVoxelViewer.cpp">
<polygon fill="none" stroke="black" points="1746,-56.5 1746,-75.5 1866,-75.5 1866,-56.5 1746,-56.5"/>
<text text-anchor="middle" x="1806" y="-63.5" font-family="Helvetica,sans-Serif" font-size="10.00">SimpleVoxelViewer.cpp</text>
</a>
</g>
</g>
<!-- Node27&#45;&gt;Node31 -->
<g id="edge33" class="edge"><title>Node27&#45;&gt;Node31</title>
<path fill="none" stroke="midnightblue" d="M2183.13,-114.115C2111.32,-105.391 1983.97,-89.8239 1875,-76 1872.12,-75.6351 1869.18,-75.2595 1866.21,-74.8785"/>
<polygon fill="midnightblue" stroke="midnightblue" points="2182.97,-117.62 2193.32,-115.351 2183.81,-110.671 2182.97,-117.62"/>
</g>
<!-- Node32 -->
<g id="node32" class="node"><title>Node32</title>
<g id="a_node32"><a xlink:href="CameraSystemConfigTest_8cpp.xhtml" target="_top" xlink:title="CameraSystemConfigTest.cpp">
<polygon fill="none" stroke="black" points="1884,-56.5 1884,-75.5 2036,-75.5 2036,-56.5 1884,-56.5"/>
<text text-anchor="middle" x="1960" y="-63.5" font-family="Helvetica,sans-Serif" font-size="10.00">CameraSystemConfigTest.cpp</text>
</a>
</g>
</g>
<!-- Node27&#45;&gt;Node32 -->
<g id="edge35" class="edge"><title>Node27&#45;&gt;Node32</title>
<path fill="none" stroke="midnightblue" d="M2185.75,-110.537C2132.83,-100.332 2053.33,-84.9992 2004.16,-75.5164"/>
<polygon fill="midnightblue" stroke="midnightblue" points="2185.15,-113.986 2195.63,-112.444 2186.48,-107.113 2185.15,-113.986"/>
</g>
<!-- Node33 -->
<g id="node33" class="node"><title>Node33</title>
<g id="a_node33"><a xlink:href="CameraSystemReadStreamTest_8cpp.xhtml" target="_top" xlink:title="CameraSystemReadStreamTest.cpp">
<polygon fill="none" stroke="black" points="2054,-56.5 2054,-75.5 2232,-75.5 2232,-56.5 2054,-56.5"/>
<text text-anchor="middle" x="2143" y="-63.5" font-family="Helvetica,sans-Serif" font-size="10.00">CameraSystemReadStreamTest.cpp</text>
</a>
</g>
</g>
<!-- Node27&#45;&gt;Node33 -->
<g id="edge36" class="edge"><title>Node27&#45;&gt;Node33</title>
<path fill="none" stroke="midnightblue" d="M2215.66,-107.453C2197.76,-97.4835 2173.95,-84.2279 2158.55,-75.6545"/>
<polygon fill="midnightblue" stroke="midnightblue" points="2213.98,-110.518 2224.42,-112.324 2217.38,-104.402 2213.98,-110.518"/>
</g>
<!-- Node34 -->
<g id="node34" class="node"><title>Node34</title>
<g id="a_node34"><a xlink:href="CameraSystemSaveStreamTest_8cpp.xhtml" target="_top" xlink:title="CameraSystemSaveStreamTest.cpp">
<polygon fill="none" stroke="black" points="2249.5,-56.5 2249.5,-75.5 2426.5,-75.5 2426.5,-56.5 2249.5,-56.5"/>
<text text-anchor="middle" x="2338" y="-63.5" font-family="Helvetica,sans-Serif" font-size="10.00">CameraSystemSaveStreamTest.cpp</text>
</a>
</g>
</g>
<!-- Node27&#45;&gt;Node34 -->
<g id="edge37" class="edge"><title>Node27&#45;&gt;Node34</title>
<path fill="none" stroke="midnightblue" d="M2264.59,-107.453C2282.68,-97.4835 2306.73,-84.2279 2322.29,-75.6545"/>
<polygon fill="midnightblue" stroke="midnightblue" points="2262.81,-104.432 2255.75,-112.324 2266.19,-110.563 2262.81,-104.432"/>
</g>
<!-- Node35 -->
<g id="node35" class="node"><title>Node35</title>
<g id="a_node35"><a xlink:href="CameraSystemTest_8cpp.xhtml" target="_top" xlink:title="CameraSystemTest.cpp">
<polygon fill="none" stroke="black" points="2444.5,-56.5 2444.5,-75.5 2567.5,-75.5 2567.5,-56.5 2444.5,-56.5"/>
<text text-anchor="middle" x="2506" y="-63.5" font-family="Helvetica,sans-Serif" font-size="10.00">CameraSystemTest.cpp</text>
</a>
</g>
</g>
<!-- Node27&#45;&gt;Node35 -->
<g id="edge38" class="edge"><title>Node27&#45;&gt;Node35</title>
<path fill="none" stroke="midnightblue" d="M2292.17,-110.41C2342.44,-100.204 2417.53,-84.9597 2464.05,-75.5164"/>
<polygon fill="midnightblue" stroke="midnightblue" points="2291.25,-107.024 2282.15,-112.444 2292.64,-113.884 2291.25,-107.024"/>
</g>
<!-- Node36 -->
<g id="node36" class="node"><title>Node36</title>
<g id="a_node36"><a xlink:href="SerialNumber_8cpp.xhtml" target="_top" xlink:title="SerialNumber.cpp">
<polygon fill="none" stroke="black" points="2585.5,-56.5 2585.5,-75.5 2680.5,-75.5 2680.5,-56.5 2585.5,-56.5"/>
<text text-anchor="middle" x="2633" y="-63.5" font-family="Helvetica,sans-Serif" font-size="10.00">SerialNumber.cpp</text>
</a>
</g>
</g>
<!-- Node27&#45;&gt;Node36 -->
<g id="edge39" class="edge"><title>Node27&#45;&gt;Node36</title>
<path fill="none" stroke="midnightblue" d="M2296.7,-111.94C2421.84,-94.0188 2454.95,-93.3345 2576,-76 2579.07,-75.5597 2582.24,-75.0941 2585.43,-74.6158"/>
<polygon fill="midnightblue" stroke="midnightblue" points="2296.13,-108.486 2286.73,-113.376 2297.13,-115.415 2296.13,-108.486"/>
</g>
<!-- Node37 -->
<g id="node37" class="node"><title>Node37</title>
<g id="a_node37"><a xlink:href="CameraSystem_8cpp.xhtml" target="_top" xlink:title="CameraSystem.cpp">
<polygon fill="none" stroke="black" points="2699,-56.5 2699,-75.5 2803,-75.5 2803,-56.5 2699,-56.5"/>
<text text-anchor="middle" x="2751" y="-63.5" font-family="Helvetica,sans-Serif" font-size="10.00">CameraSystem.cpp</text>
</a>
</g>
</g>
<!-- Node27&#45;&gt;Node37 -->
<g id="edge40" class="edge"><title>Node27&#45;&gt;Node37</title>
<path fill="none" stroke="midnightblue" d="M2296.78,-111.989C2471.73,-90.3046 2518.05,-96.2233 2689,-76 2692.24,-75.6167 2695.57,-75.1996 2698.93,-74.7619"/>
<polygon fill="midnightblue" stroke="midnightblue" points="2296.2,-108.533 2286.72,-113.248 2297.07,-115.479 2296.2,-108.533"/>
</g>
<!-- Node38 -->
<g id="node38" class="node"><title>Node38</title>
<g id="a_node38"><a xlink:href="FrameStream_8cpp.xhtml" target="_top" xlink:title="FrameStream.cpp">
<polygon fill="none" stroke="black" points="2821.5,-56.5 2821.5,-75.5 2916.5,-75.5 2916.5,-56.5 2821.5,-56.5"/>
<text text-anchor="middle" x="2869" y="-63.5" font-family="Helvetica,sans-Serif" font-size="10.00">FrameStream.cpp</text>
</a>
</g>
</g>
<!-- Node27&#45;&gt;Node38 -->
<g id="edge41" class="edge"><title>Node27&#45;&gt;Node38</title>
<path fill="none" stroke="midnightblue" d="M2296.7,-112.033C2526.1,-86.1851 2586.81,-101.584 2812,-76 2815.09,-75.6494 2818.26,-75.2517 2821.46,-74.8236"/>
<polygon fill="midnightblue" stroke="midnightblue" points="2296.25,-108.561 2286.71,-113.172 2297.04,-115.516 2296.25,-108.561"/>
</g>
<!-- Node29 -->
<g id="node29" class="node"><title>Node29</title>
<g id="a_node29"><a xlink:href="CLIManager_8cpp.xhtml" target="_top" xlink:title="CLIManager.cpp">
<polygon fill="none" stroke="black" points="1572.5,-0.5 1572.5,-19.5 1661.5,-19.5 1661.5,-0.5 1572.5,-0.5"/>
<text text-anchor="middle" x="1617" y="-7.5" font-family="Helvetica,sans-Serif" font-size="10.00">CLIManager.cpp</text>
</a>
</g>
</g>
<!-- Node28&#45;&gt;Node29 -->
<g id="edge31" class="edge"><title>Node28&#45;&gt;Node29</title>
<path fill="none" stroke="midnightblue" d="M1640.02,-47.5656C1634.17,-38.2747 1627.23,-27.2484 1622.51,-19.7511"/>
<polygon fill="midnightblue" stroke="midnightblue" points="1637.1,-49.4855 1645.39,-56.083 1643.02,-45.7558 1637.1,-49.4855"/>
</g>
<!-- Node28&#45;&gt;Node30 -->
<g id="edge32" class="edge"><title>Node28&#45;&gt;Node30</title>
<path fill="none" stroke="midnightblue" d="M1669.83,-49.8197C1681.84,-40.1452 1696.97,-27.9481 1707.04,-19.8339"/>
<polygon fill="midnightblue" stroke="midnightblue" points="1667.35,-47.3236 1661.76,-56.324 1671.75,-52.7738 1667.35,-47.3236"/>
</g>
<!-- Node39&#45;&gt;Node27 -->
<g id="edge43" class="edge"><title>Node39&#45;&gt;Node27</title>
<path fill="none" stroke="midnightblue" d="M2303.55,-162.901C2287.78,-152.999 2267.19,-140.071 2253.78,-131.655"/>
<polygon fill="midnightblue" stroke="midnightblue" points="2301.85,-165.97 2312.18,-168.324 2305.57,-160.042 2301.85,-165.97"/>
</g>
<!-- Node40 -->
<g id="node40" class="node"><title>Node40</title>
<g id="a_node40"><a xlink:href="DepthCameraLibrary_8cpp.xhtml" target="_top" xlink:title="DepthCameraLibrary.cpp">
<polygon fill="none" stroke="black" points="2304.5,-112.5 2304.5,-131.5 2429.5,-131.5 2429.5,-112.5 2304.5,-112.5"/>
<text text-anchor="middle" x="2367" y="-119.5" font-family="Helvetica,sans-Serif" font-size="10.00">DepthCameraLibrary.cpp</text>
</a>
</g>
</g>
<!-- Node39&#45;&gt;Node40 -->
<g id="edge44" class="edge"><title>Node39&#45;&gt;Node40</title>
<path fill="none" stroke="midnightblue" d="M2339.02,-159.855C2346.12,-150.505 2354.6,-139.327 2360.36,-131.751"/>
<polygon fill="midnightblue" stroke="midnightblue" points="2336.03,-158.002 2332.77,-168.083 2341.61,-162.235 2336.03,-158.002"/>
</g>
</g>
</svg>
