<?xml version="1.0" encoding="UTF-8" standalone="no"?>
<!DOCTYPE svg PUBLIC "-//W3C//DTD SVG 1.1//EN"
 "http://www.w3.org/Graphics/SVG/1.1/DTD/svg11.dtd">
<!-- Generated by graphviz version 2.36.0 (20140111.2315)
 -->
<!-- Title: Downloader.h Pages: 1 -->
<!--zoomable 308 -->
<svg id="main" version="1.1" xmlns="http://www.w3.org/2000/svg" xmlns:xlink="http://www.w3.org/1999/xlink" xml:space="preserve" onload="init(evt)">
<style type="text/css"><![CDATA[
.edge:hover path { stroke: red; }
.edge:hover polygon { stroke: red; fill: red; }
]]></style>
<script type="text/javascript"><![CDATA[
var edges = document.getElementsByTagName('g');
if (edges && edges.length) {
  for (var i=0;i<edges.length;i++) {
    if (edges[i].id.substr(0,4)=='edge') {
      edges[i].setAttribute('class','edge');
    }
  }
}
]]></script>
        <defs>
                <circle id="rim" cx="0" cy="0" r="7"/>
                <circle id="rim2" cx="0" cy="0" r="3.5"/>
                <g id="zoomPlus">
                        <use xlink:href="#rim" fill="#404040">
                                <set attributeName="fill" to="#808080" begin="zoomplus.mouseover" end="zoomplus.mouseout"/>
                        </use>
                        <path d="M-4,0h8M0,-4v8" fill="none" stroke="white" stroke-width="1.5" pointer-events="none"/>
                </g>
                <g id="zoomMin">
                        <use xlink:href="#rim" fill="#404040">
                                <set attributeName="fill" to="#808080" begin="zoomminus.mouseover" end="zoomminus.mouseout"/>
                        </use>
                        <path d="M-4,0h8" fill="none" stroke="white" stroke-width="1.5" pointer-events="none"/>
                </g>
                <g id="dirArrow">
                        <path fill="none" stroke="white" stroke-width="1.5" d="M0,-3.0v7 M-2.5,-0.5L0,-3.0L2.5,-0.5"/>
                </g>
               <g id="resetDef">
                       <use xlink:href="#rim2" fill="#404040">
                               <set attributeName="fill" to="#808080" begin="reset.mouseover" end="reset.mouseout"/>
                       </use>
               </g>
        </defs>

<script type="text/javascript">
var viewWidth = 2632;
var viewHeight = 308;
var sectionId = 'dynsection-1';
</script>
<script xlink:href="svgpan.js"/>
<svg id="graph" class="graph">
<g id="viewport">
<title>Downloader.h</title>
<!-- Node1 -->
<g id="node1" class="node"><title>Node1</title>
<polygon fill="#bfbfbf" stroke="black" points="985.5,-280.5 985.5,-299.5 1062.5,-299.5 1062.5,-280.5 985.5,-280.5"/>
<text text-anchor="middle" x="1024" y="-287.5" font-family="Helvetica,sans-Serif" font-size="10.00">Downloader.h</text>
</g>
<!-- Node2 -->
<g id="node2" class="node"><title>Node2</title>
<g id="a_node2"><a xlink:href="DownloaderTest_8cpp.xhtml" target="_top" xlink:title="DownloaderTest.cpp">
<polygon fill="none" stroke="black" points="215.5,-224.5 215.5,-243.5 322.5,-243.5 322.5,-224.5 215.5,-224.5"/>
<text text-anchor="middle" x="269" y="-231.5" font-family="Helvetica,sans-Serif" font-size="10.00">DownloaderTest.cpp</text>
</a>
</g>
</g>
<!-- Node1&#45;&gt;Node2 -->
<g id="edge1" class="edge"><title>Node1&#45;&gt;Node2</title>
<path fill="none" stroke="midnightblue" d="M975.116,-287.16C861.706,-282.6 571.986,-269.275 331,-244 328.296,-243.716 325.528,-243.402 322.736,-243.066"/>
<polygon fill="midnightblue" stroke="midnightblue" points="975.084,-290.661 985.215,-287.561 975.362,-283.667 975.084,-290.661"/>
</g>
<!-- Node3 -->
<g id="node3" class="node"><title>Node3</title>
<g id="a_node3"><a xlink:href="Voxel14RegisterTest_8cpp.xhtml" target="_top" xlink:title="Voxel14RegisterTest.cpp">
<polygon fill="none" stroke="black" points="340.5,-224.5 340.5,-243.5 467.5,-243.5 467.5,-224.5 340.5,-224.5"/>
<text text-anchor="middle" x="404" y="-231.5" font-family="Helvetica,sans-Serif" font-size="10.00">Voxel14RegisterTest.cpp</text>
</a>
</g>
</g>
<!-- Node1&#45;&gt;Node3 -->
<g id="edge2" class="edge"><title>Node1&#45;&gt;Node3</title>
<path fill="none" stroke="midnightblue" d="M975.165,-285.688C879.335,-279.035 659.957,-263.042 476,-244 473.243,-243.715 470.429,-243.412 467.586,-243.097"/>
<polygon fill="midnightblue" stroke="midnightblue" points="975.196,-289.199 985.413,-286.397 975.679,-282.215 975.196,-289.199"/>
</g>
<!-- Node4 -->
<g id="node4" class="node"><title>Node4</title>
<g id="a_node4"><a xlink:href="CalculusCDKCamera_8h.xhtml" target="_top" xlink:title="CalculusCDKCamera.h">
<polygon fill="none" stroke="black" points="485.5,-224.5 485.5,-243.5 604.5,-243.5 604.5,-224.5 485.5,-224.5"/>
<text text-anchor="middle" x="545" y="-231.5" font-family="Helvetica,sans-Serif" font-size="10.00">CalculusCDKCamera.h</text>
</a>
</g>
</g>
<!-- Node1&#45;&gt;Node4 -->
<g id="edge3" class="edge"><title>Node1&#45;&gt;Node4</title>
<path fill="none" stroke="midnightblue" d="M974.908,-283.939C897.942,-275.93 744.205,-259.635 614,-244 611.001,-243.64 607.93,-243.264 604.83,-242.88"/>
<polygon fill="midnightblue" stroke="midnightblue" points="974.94,-287.461 985.248,-285.013 975.663,-280.498 974.94,-287.461"/>
</g>
<!-- Node7 -->
<g id="node7" class="node"><title>Node7</title>
<g id="a_node7"><a xlink:href="HaddockCDKCamera_8h.xhtml" target="_top" xlink:title="HaddockCDKCamera.h">
<polygon fill="none" stroke="black" points="623,-224.5 623,-243.5 743,-243.5 743,-224.5 623,-224.5"/>
<text text-anchor="middle" x="683" y="-231.5" font-family="Helvetica,sans-Serif" font-size="10.00">HaddockCDKCamera.h</text>
</a>
</g>
</g>
<!-- Node1&#45;&gt;Node7 -->
<g id="edge6" class="edge"><title>Node1&#45;&gt;Node7</title>
<path fill="none" stroke="midnightblue" d="M975.114,-281.259C911.954,-271.257 802.359,-253.901 736.864,-243.53"/>
<polygon fill="midnightblue" stroke="midnightblue" points="974.791,-284.751 985.215,-282.858 975.885,-277.837 974.791,-284.751"/>
</g>
<!-- Node10 -->
<g id="node10" class="node"><title>Node10</title>
<g id="a_node10"><a xlink:href="TintinCDKCamera_8h.xhtml" target="_top" xlink:title="TintinCDKCamera.h">
<polygon fill="none" stroke="black" points="900.5,-224.5 900.5,-243.5 1005.5,-243.5 1005.5,-224.5 900.5,-224.5"/>
<text text-anchor="middle" x="953" y="-231.5" font-family="Helvetica,sans-Serif" font-size="10.00">TintinCDKCamera.h</text>
</a>
</g>
</g>
<!-- Node1&#45;&gt;Node10 -->
<g id="edge9" class="edge"><title>Node1&#45;&gt;Node10</title>
<path fill="none" stroke="midnightblue" d="M1004.41,-274.101C991.632,-264.382 975.387,-252.027 964.615,-243.834"/>
<polygon fill="midnightblue" stroke="midnightblue" points="1002.51,-277.056 1012.59,-280.324 1006.75,-271.484 1002.51,-277.056"/>
</g>
<!-- Node15 -->
<g id="node15" class="node"><title>Node15</title>
<g id="a_node15"><a xlink:href="TintinEEPROMDownloader_8h.xhtml" target="_top" xlink:title="TintinEEPROMDownloader.h">
<polygon fill="none" stroke="black" points="1024,-224.5 1024,-243.5 1168,-243.5 1168,-224.5 1024,-224.5"/>
<text text-anchor="middle" x="1096" y="-231.5" font-family="Helvetica,sans-Serif" font-size="10.00">TintinEEPROMDownloader.h</text>
</a>
</g>
</g>
<!-- Node1&#45;&gt;Node15 -->
<g id="edge14" class="edge"><title>Node1&#45;&gt;Node15</title>
<path fill="none" stroke="midnightblue" d="M1043.87,-274.101C1056.82,-264.382 1073.3,-252.027 1084.22,-243.834"/>
<polygon fill="midnightblue" stroke="midnightblue" points="1041.47,-271.524 1035.57,-280.324 1045.67,-277.124 1041.47,-271.524"/>
</g>
<!-- Node16 -->
<g id="node16" class="node"><title>Node16</title>
<g id="a_node16"><a xlink:href="Voxel14Camera_8h.xhtml" target="_top" xlink:title="Voxel14Camera.h">
<polygon fill="none" stroke="black" points="1216.5,-224.5 1216.5,-243.5 1311.5,-243.5 1311.5,-224.5 1216.5,-224.5"/>
<text text-anchor="middle" x="1264" y="-231.5" font-family="Helvetica,sans-Serif" font-size="10.00">Voxel14Camera.h</text>
</a>
</g>
</g>
<!-- Node1&#45;&gt;Node16 -->
<g id="edge17" class="edge"><title>Node1&#45;&gt;Node16</title>
<path fill="none" stroke="midnightblue" d="M1071.92,-278.217C1117.27,-268.013 1184.44,-252.901 1226.15,-243.516"/>
<polygon fill="midnightblue" stroke="midnightblue" points="1071.02,-274.834 1062.03,-280.444 1072.55,-281.663 1071.02,-274.834"/>
</g>
<!-- Node19 -->
<g id="node19" class="node"><title>Node19</title>
<g id="a_node19"><a xlink:href="VoxelDCamera_8h.xhtml" target="_top" xlink:title="VoxelDCamera.h">
<polygon fill="none" stroke="black" points="1496,-224.5 1496,-243.5 1588,-243.5 1588,-224.5 1496,-224.5"/>
<text text-anchor="middle" x="1542" y="-231.5" font-family="Helvetica,sans-Serif" font-size="10.00">VoxelDCamera.h</text>
</a>
</g>
</g>
<!-- Node1&#45;&gt;Node19 -->
<g id="edge20" class="edge"><title>Node1&#45;&gt;Node19</title>
<path fill="none" stroke="midnightblue" d="M1072.6,-283.933C1172.24,-273.547 1398.45,-249.965 1495.91,-239.804"/>
<polygon fill="midnightblue" stroke="midnightblue" points="1072.09,-280.467 1062.51,-284.985 1072.82,-287.43 1072.09,-280.467"/>
</g>
<!-- Node22 -->
<g id="node22" class="node"><title>Node22</title>
<g id="a_node22"><a xlink:href="DownloaderFactory_8h.xhtml" target="_top" xlink:title="DownloaderFactory.h">
<polygon fill="none" stroke="black" points="1787,-224.5 1787,-243.5 1897,-243.5 1897,-224.5 1787,-224.5"/>
<text text-anchor="middle" x="1842" y="-231.5" font-family="Helvetica,sans-Serif" font-size="10.00">DownloaderFactory.h</text>
</a>
</g>
</g>
<!-- Node1&#45;&gt;Node22 -->
<g id="edge23" class="edge"><title>Node1&#45;&gt;Node22</title>
<path fill="none" stroke="midnightblue" d="M1072.87,-285.774C1216.31,-276.305 1635.53,-248.63 1786.78,-238.645"/>
<polygon fill="midnightblue" stroke="midnightblue" points="1072.38,-282.299 1062.63,-286.45 1072.84,-289.283 1072.38,-282.299"/>
</g>
<!-- Node38 -->
<g id="node38" class="node"><title>Node38</title>
<g id="a_node38"><a xlink:href="Downloader_8cpp.xhtml" target="_top" xlink:title="Downloader.cpp">
<polygon fill="none" stroke="black" points="1915.5,-224.5 1915.5,-243.5 2002.5,-243.5 2002.5,-224.5 1915.5,-224.5"/>
<text text-anchor="middle" x="1959" y="-231.5" font-family="Helvetica,sans-Serif" font-size="10.00">Downloader.cpp</text>
</a>
</g>
</g>
<!-- Node1&#45;&gt;Node38 -->
<g id="edge42" class="edge"><title>Node1&#45;&gt;Node38</title>
<path fill="none" stroke="midnightblue" d="M1073.15,-288.51C1207.14,-286.74 1589.94,-278.777 1906,-244 1909.06,-243.663 1912.21,-243.264 1915.38,-242.823"/>
<polygon fill="midnightblue" stroke="midnightblue" points="1072.77,-285.015 1062.82,-288.641 1072.86,-292.014 1072.77,-285.015"/>
</g>
<!-- Node5 -->
<g id="node5" class="node"><title>Node5</title>
<g id="a_node5"><a xlink:href="CalculusCDKCamera_8cpp.xhtml" target="_top" xlink:title="CalculusCDKCamera.cpp">
<polygon fill="none" stroke="black" points="0,-168.5 0,-187.5 130,-187.5 130,-168.5 0,-168.5"/>
<text text-anchor="middle" x="65" y="-175.5" font-family="Helvetica,sans-Serif" font-size="10.00">CalculusCDKCamera.cpp</text>
</a>
</g>
</g>
<!-- Node4&#45;&gt;Node5 -->
<g id="edge4" class="edge"><title>Node4&#45;&gt;Node5</title>
<path fill="none" stroke="midnightblue" d="M475.105,-223.919C324.744,-206.2 285.442,-204.726 139,-188 136.171,-187.677 133.282,-187.343 130.364,-187.002"/>
<polygon fill="midnightblue" stroke="midnightblue" points="474.83,-227.411 485.171,-225.11 475.652,-220.459 474.83,-227.411"/>
</g>
<!-- Node6 -->
<g id="node6" class="node"><title>Node6</title>
<g id="a_node6"><a xlink:href="CalculusCDKCameraFactory_8cpp.xhtml" target="_top" xlink:title="CalculusCDKCameraFactory.cpp">
<polygon fill="none" stroke="black" points="148.5,-168.5 148.5,-187.5 311.5,-187.5 311.5,-168.5 148.5,-168.5"/>
<text text-anchor="middle" x="230" y="-175.5" font-family="Helvetica,sans-Serif" font-size="10.00">CalculusCDKCameraFactory.cpp</text>
</a>
</g>
</g>
<!-- Node4&#45;&gt;Node6 -->
<g id="edge5" class="edge"><title>Node4&#45;&gt;Node6</title>
<path fill="none" stroke="midnightblue" d="M485.077,-222.727C425.551,-212.523 335.34,-197.058 279.679,-187.516"/>
<polygon fill="midnightblue" stroke="midnightblue" points="484.64,-226.203 495.087,-224.444 485.822,-219.304 484.64,-226.203"/>
</g>
<!-- Node8 -->
<g id="node8" class="node"><title>Node8</title>
<g id="a_node8"><a xlink:href="HaddockCDKCamera_8cpp.xhtml" target="_top" xlink:title="HaddockCDKCamera.cpp">
<polygon fill="none" stroke="black" points="329.5,-168.5 329.5,-187.5 460.5,-187.5 460.5,-168.5 329.5,-168.5"/>
<text text-anchor="middle" x="395" y="-175.5" font-family="Helvetica,sans-Serif" font-size="10.00">HaddockCDKCamera.cpp</text>
</a>
</g>
</g>
<!-- Node7&#45;&gt;Node8 -->
<g id="edge7" class="edge"><title>Node7&#45;&gt;Node8</title>
<path fill="none" stroke="midnightblue" d="M627.198,-222.537C572.768,-212.332 490.996,-196.999 440.421,-187.516"/>
<polygon fill="midnightblue" stroke="midnightblue" points="626.892,-226.041 637.366,-224.444 628.182,-219.161 626.892,-226.041"/>
</g>
<!-- Node9 -->
<g id="node9" class="node"><title>Node9</title>
<g id="a_node9"><a xlink:href="HaddockCDKCameraFactory_8cpp.xhtml" target="_top" xlink:title="HaddockCDKCameraFactory.cpp">
<polygon fill="none" stroke="black" points="479,-168.5 479,-187.5 643,-187.5 643,-168.5 479,-168.5"/>
<text text-anchor="middle" x="561" y="-175.5" font-family="Helvetica,sans-Serif" font-size="10.00">HaddockCDKCameraFactory.cpp</text>
</a>
</g>
</g>
<!-- Node7&#45;&gt;Node9 -->
<g id="edge8" class="edge"><title>Node7&#45;&gt;Node9</title>
<path fill="none" stroke="midnightblue" d="M654.461,-220.368C631.614,-210.255 600.195,-196.349 580.241,-187.516"/>
<polygon fill="midnightblue" stroke="midnightblue" points="653.108,-223.597 663.669,-224.444 655.941,-217.196 653.108,-223.597"/>
</g>
<!-- Node11 -->
<g id="node11" class="node"><title>Node11</title>
<g id="a_node11"><a xlink:href="TintinCDKCamera_8cpp.xhtml" target="_top" xlink:title="TintinCDKCamera.cpp">
<polygon fill="none" stroke="black" points="661,-168.5 661,-187.5 777,-187.5 777,-168.5 661,-168.5"/>
<text text-anchor="middle" x="719" y="-175.5" font-family="Helvetica,sans-Serif" font-size="10.00">TintinCDKCamera.cpp</text>
</a>
</g>
</g>
<!-- Node10&#45;&gt;Node11 -->
<g id="edge10" class="edge"><title>Node10&#45;&gt;Node11</title>
<path fill="none" stroke="midnightblue" d="M905.996,-222.153C861.783,-211.95 796.484,-196.881 755.905,-187.516"/>
<polygon fill="midnightblue" stroke="midnightblue" points="905.391,-225.605 915.922,-224.444 906.965,-218.784 905.391,-225.605"/>
</g>
<!-- Node12 -->
<g id="node12" class="node"><title>Node12</title>
<g id="a_node12"><a xlink:href="TintinCDKCameraFactory_8cpp.xhtml" target="_top" xlink:title="TintinCDKCameraFactory.cpp">
<polygon fill="none" stroke="black" points="794.5,-168.5 794.5,-187.5 943.5,-187.5 943.5,-168.5 794.5,-168.5"/>
<text text-anchor="middle" x="869" y="-175.5" font-family="Helvetica,sans-Serif" font-size="10.00">TintinCDKCameraFactory.cpp</text>
</a>
</g>
</g>
<!-- Node10&#45;&gt;Node12 -->
<g id="edge11" class="edge"><title>Node10&#45;&gt;Node12</title>
<path fill="none" stroke="midnightblue" d="M931.068,-218.901C915.665,-208.999 895.554,-196.071 882.463,-187.655"/>
<polygon fill="midnightblue" stroke="midnightblue" points="929.199,-221.86 939.504,-224.324 932.985,-215.972 929.199,-221.86"/>
</g>
<!-- Node13 -->
<g id="node13" class="node"><title>Node13</title>
<g id="a_node13"><a xlink:href="TintinCDKDownloaderFactory_8cpp.xhtml" target="_top" xlink:title="TintinCDKDownloaderFactory.cpp">
<polygon fill="none" stroke="black" points="1100,-112.5 1100,-131.5 1266,-131.5 1266,-112.5 1100,-112.5"/>
<text text-anchor="middle" x="1183" y="-119.5" font-family="Helvetica,sans-Serif" font-size="10.00">TintinCDKDownloaderFactory.cpp</text>
</a>
</g>
</g>
<!-- Node10&#45;&gt;Node13 -->
<g id="edge12" class="edge"><title>Node10&#45;&gt;Node13</title>
<path fill="none" stroke="midnightblue" d="M959.075,-214.689C964.936,-199.872 975.261,-179.621 991,-168 1022.26,-144.919 1063.54,-133.459 1099.82,-127.852"/>
<polygon fill="midnightblue" stroke="midnightblue" points="955.702,-213.723 955.582,-224.317 962.283,-216.11 955.702,-213.723"/>
</g>
<!-- Node14 -->
<g id="node14" class="node"><title>Node14</title>
<g id="a_node14"><a xlink:href="TintinEEPROMDownloader_8cpp.xhtml" target="_top" xlink:title="TintinEEPROMDownloader.cpp">
<polygon fill="none" stroke="black" points="999.5,-168.5 999.5,-187.5 1154.5,-187.5 1154.5,-168.5 999.5,-168.5"/>
<text text-anchor="middle" x="1077" y="-175.5" font-family="Helvetica,sans-Serif" font-size="10.00">TintinEEPROMDownloader.cpp</text>
</a>
</g>
</g>
<!-- Node10&#45;&gt;Node14 -->
<g id="edge13" class="edge"><title>Node10&#45;&gt;Node14</title>
<path fill="none" stroke="midnightblue" d="M982.007,-220.368C1005.23,-210.255 1037.16,-196.349 1057.44,-187.516"/>
<polygon fill="midnightblue" stroke="midnightblue" points="980.419,-217.242 972.648,-224.444 983.214,-223.66 980.419,-217.242"/>
</g>
<!-- Node15&#45;&gt;Node13 -->
<g id="edge15" class="edge"><title>Node15&#45;&gt;Node13</title>
<path fill="none" stroke="midnightblue" d="M1124.34,-219.714C1137.77,-212.128 1153.02,-201.434 1163,-188 1175.81,-170.75 1180.52,-145.175 1182.16,-131.83"/>
<polygon fill="midnightblue" stroke="midnightblue" points="1122.6,-216.676 1115.42,-224.466 1125.89,-222.854 1122.6,-216.676"/>
</g>
<!-- Node15&#45;&gt;Node14 -->
<g id="edge16" class="edge"><title>Node15&#45;&gt;Node14</title>
<path fill="none" stroke="midnightblue" d="M1089.45,-214.396C1086.28,-205.362 1082.61,-194.936 1080.08,-187.751"/>
<polygon fill="midnightblue" stroke="midnightblue" points="1086.24,-215.812 1092.86,-224.083 1092.85,-213.488 1086.24,-215.812"/>
</g>
<!-- Node17 -->
<g id="node17" class="node"><title>Node17</title>
<g id="a_node17"><a xlink:href="Voxel14Camera_8cpp.xhtml" target="_top" xlink:title="Voxel14Camera.cpp">
<polygon fill="none" stroke="black" points="1211.5,-168.5 1211.5,-187.5 1316.5,-187.5 1316.5,-168.5 1211.5,-168.5"/>
<text text-anchor="middle" x="1264" y="-175.5" font-family="Helvetica,sans-Serif" font-size="10.00">Voxel14Camera.cpp</text>
</a>
</g>
</g>
<!-- Node16&#45;&gt;Node17 -->
<g id="edge18" class="edge"><title>Node16&#45;&gt;Node17</title>
<path fill="none" stroke="midnightblue" d="M1264,-213.805C1264,-204.91 1264,-194.78 1264,-187.751"/>
<polygon fill="midnightblue" stroke="midnightblue" points="1260.5,-214.083 1264,-224.083 1267.5,-214.083 1260.5,-214.083"/>
</g>
<!-- Node18 -->
<g id="node18" class="node"><title>Node18</title>
<g id="a_node18"><a xlink:href="Voxel14CameraFactory_8cpp.xhtml" target="_top" xlink:title="Voxel14CameraFactory.cpp">
<polygon fill="none" stroke="black" points="1335,-168.5 1335,-187.5 1473,-187.5 1473,-168.5 1335,-168.5"/>
<text text-anchor="middle" x="1404" y="-175.5" font-family="Helvetica,sans-Serif" font-size="10.00">Voxel14CameraFactory.cpp</text>
</a>
</g>
</g>
<!-- Node16&#45;&gt;Node18 -->
<g id="edge19" class="edge"><title>Node16&#45;&gt;Node18</title>
<path fill="none" stroke="midnightblue" d="M1295.7,-220.772C1322,-210.629 1358.72,-196.467 1381.92,-187.516"/>
<polygon fill="midnightblue" stroke="midnightblue" points="1294.25,-217.579 1286.18,-224.444 1296.77,-224.11 1294.25,-217.579"/>
</g>
<!-- Node20 -->
<g id="node20" class="node"><title>Node20</title>
<g id="a_node20"><a xlink:href="VoxelDCamera_8cpp.xhtml" target="_top" xlink:title="VoxelDCamera.cpp">
<polygon fill="none" stroke="black" points="1491,-168.5 1491,-187.5 1593,-187.5 1593,-168.5 1491,-168.5"/>
<text text-anchor="middle" x="1542" y="-175.5" font-family="Helvetica,sans-Serif" font-size="10.00">VoxelDCamera.cpp</text>
</a>
</g>
</g>
<!-- Node19&#45;&gt;Node20 -->
<g id="edge21" class="edge"><title>Node19&#45;&gt;Node20</title>
<path fill="none" stroke="midnightblue" d="M1542,-213.805C1542,-204.91 1542,-194.78 1542,-187.751"/>
<polygon fill="midnightblue" stroke="midnightblue" points="1538.5,-214.083 1542,-224.083 1545.5,-214.083 1538.5,-214.083"/>
</g>
<!-- Node21 -->
<g id="node21" class="node"><title>Node21</title>
<g id="a_node21"><a xlink:href="VoxelDCameraFactory_8cpp.xhtml" target="_top" xlink:title="VoxelDCameraFactory.cpp">
<polygon fill="none" stroke="black" points="1611.5,-168.5 1611.5,-187.5 1746.5,-187.5 1746.5,-168.5 1611.5,-168.5"/>
<text text-anchor="middle" x="1679" y="-175.5" font-family="Helvetica,sans-Serif" font-size="10.00">VoxelDCameraFactory.cpp</text>
</a>
</g>
</g>
<!-- Node19&#45;&gt;Node21 -->
<g id="edge22" class="edge"><title>Node19&#45;&gt;Node21</title>
<path fill="none" stroke="midnightblue" d="M1573.02,-220.772C1598.76,-210.629 1634.69,-196.467 1657.39,-187.516"/>
<polygon fill="midnightblue" stroke="midnightblue" points="1571.73,-217.52 1563.71,-224.444 1574.29,-224.033 1571.73,-217.52"/>
</g>
<!-- Node23 -->
<g id="node23" class="node"><title>Node23</title>
<g id="a_node23"><a xlink:href="TintinCDKDownloaderFactory_8h.xhtml" target="_top" xlink:title="TintinCDKDownloaderFactory.h">
<polygon fill="none" stroke="black" points="1764.5,-168.5 1764.5,-187.5 1919.5,-187.5 1919.5,-168.5 1764.5,-168.5"/>
<text text-anchor="middle" x="1842" y="-175.5" font-family="Helvetica,sans-Serif" font-size="10.00">TintinCDKDownloaderFactory.h</text>
</a>
</g>
</g>
<!-- Node22&#45;&gt;Node23 -->
<g id="edge24" class="edge"><title>Node22&#45;&gt;Node23</title>
<path fill="none" stroke="midnightblue" d="M1842,-213.805C1842,-204.91 1842,-194.78 1842,-187.751"/>
<polygon fill="midnightblue" stroke="midnightblue" points="1838.5,-214.083 1842,-224.083 1845.5,-214.083 1838.5,-214.083"/>
</g>
<!-- Node24 -->
<g id="node24" class="node"><title>Node24</title>
<g id="a_node24"><a xlink:href="CameraSystem_8h.xhtml" target="_top" xlink:title="CameraSystem.h">
<polygon fill="none" stroke="black" points="1901.5,-112.5 1901.5,-131.5 1994.5,-131.5 1994.5,-112.5 1901.5,-112.5"/>
<text text-anchor="middle" x="1948" y="-119.5" font-family="Helvetica,sans-Serif" font-size="10.00">CameraSystem.h</text>
</a>
</g>
</g>
<!-- Node22&#45;&gt;Node24 -->
<g id="edge26" class="edge"><title>Node22&#45;&gt;Node24</title>
<path fill="none" stroke="midnightblue" d="M1880.46,-220.556C1897.15,-213.408 1915.66,-202.839 1928,-188 1941.89,-171.295 1946.14,-145.024 1947.44,-131.568"/>
<polygon fill="midnightblue" stroke="midnightblue" points="1878.89,-217.415 1870.9,-224.377 1881.49,-223.914 1878.89,-217.415"/>
</g>
<!-- Node36 -->
<g id="node36" class="node"><title>Node36</title>
<g id="a_node36"><a xlink:href="DepthCameraLibrary_8h.xhtml" target="_top" xlink:title="DepthCameraLibrary.h">
<polygon fill="none" stroke="black" points="1976.5,-168.5 1976.5,-187.5 2091.5,-187.5 2091.5,-168.5 1976.5,-168.5"/>
<text text-anchor="middle" x="2034" y="-175.5" font-family="Helvetica,sans-Serif" font-size="10.00">DepthCameraLibrary.h</text>
</a>
</g>
</g>
<!-- Node22&#45;&gt;Node36 -->
<g id="edge39" class="edge"><title>Node22&#45;&gt;Node36</title>
<path fill="none" stroke="midnightblue" d="M1882.18,-221.699C1918.42,-211.507 1970.91,-196.743 2003.72,-187.516"/>
<polygon fill="midnightblue" stroke="midnightblue" points="1881.1,-218.367 1872.42,-224.444 1883,-225.105 1881.1,-218.367"/>
</g>
<!-- Node23&#45;&gt;Node13 -->
<g id="edge25" class="edge"><title>Node23&#45;&gt;Node13</title>
<path fill="none" stroke="midnightblue" d="M1754.02,-167.932C1573.87,-151.632 1375.78,-136.82 1266.42,-128.917"/>
<polygon fill="midnightblue" stroke="midnightblue" points="1753.95,-171.439 1764.22,-168.858 1754.58,-164.468 1753.95,-171.439"/>
</g>
<!-- Node25 -->
<g id="node25" class="node"><title>Node25</title>
<g id="a_node25"><a xlink:href="CLIManager_8h.xhtml" target="_top" xlink:title="CLIManager.h">
<polygon fill="none" stroke="black" points="1320,-56.5 1320,-75.5 1398,-75.5 1398,-56.5 1320,-56.5"/>
<text text-anchor="middle" x="1359" y="-63.5" font-family="Helvetica,sans-Serif" font-size="10.00">CLIManager.h</text>
</a>
</g>
</g>
<!-- Node24&#45;&gt;Node25 -->
<g id="edge27" class="edge"><title>Node24&#45;&gt;Node25</title>
<path fill="none" stroke="midnightblue" d="M1891.27,-117.817C1793.27,-111.966 1586.03,-98.0417 1412,-76 1407.46,-75.4254 1402.72,-74.741 1398.02,-74.0099"/>
<polygon fill="midnightblue" stroke="midnightblue" points="1891.07,-121.311 1901.26,-118.408 1891.48,-114.323 1891.07,-121.311"/>
</g>
<!-- Node27 -->
<g id="node27" class="node"><title>Node27</title>
<g id="a_node27"><a xlink:href="VoxelCLI_8cpp.xhtml" target="_top" xlink:title="VoxelCLI.cpp">
<polygon fill="none" stroke="black" points="1388,-0.5 1388,-19.5 1464,-19.5 1464,-0.5 1388,-0.5"/>
<text text-anchor="middle" x="1426" y="-7.5" font-family="Helvetica,sans-Serif" font-size="10.00">VoxelCLI.cpp</text>
</a>
</g>
</g>
<!-- Node24&#45;&gt;Node27 -->
<g id="edge31" class="edge"><title>Node24&#45;&gt;Node27</title>
<path fill="none" stroke="midnightblue" d="M1891.42,-119.484C1767.18,-115.656 1478.89,-103.848 1445,-76 1428.1,-62.1171 1425.73,-34.0947 1425.7,-19.808"/>
<polygon fill="midnightblue" stroke="midnightblue" points="1891.39,-122.985 1901.49,-119.789 1891.61,-115.988 1891.39,-122.985"/>
</g>
<!-- Node28 -->
<g id="node28" class="node"><title>Node28</title>
<g id="a_node28"><a xlink:href="SimpleVoxelViewer_8cpp.xhtml" target="_top" xlink:title="SimpleVoxelViewer.cpp">
<polygon fill="none" stroke="black" points="1454,-56.5 1454,-75.5 1574,-75.5 1574,-56.5 1454,-56.5"/>
<text text-anchor="middle" x="1514" y="-63.5" font-family="Helvetica,sans-Serif" font-size="10.00">SimpleVoxelViewer.cpp</text>
</a>
</g>
</g>
<!-- Node24&#45;&gt;Node28 -->
<g id="edge30" class="edge"><title>Node24&#45;&gt;Node28</title>
<path fill="none" stroke="midnightblue" d="M1891.13,-114.115C1819.32,-105.391 1691.97,-89.8239 1583,-76 1580.12,-75.6351 1577.18,-75.2595 1574.21,-74.8785"/>
<polygon fill="midnightblue" stroke="midnightblue" points="1890.97,-117.62 1901.32,-115.351 1891.81,-110.671 1890.97,-117.62"/>
</g>
<!-- Node29 -->
<g id="node29" class="node"><title>Node29</title>
<g id="a_node29"><a xlink:href="CameraSystemConfigTest_8cpp.xhtml" target="_top" xlink:title="CameraSystemConfigTest.cpp">
<polygon fill="none" stroke="black" points="1592,-56.5 1592,-75.5 1744,-75.5 1744,-56.5 1592,-56.5"/>
<text text-anchor="middle" x="1668" y="-63.5" font-family="Helvetica,sans-Serif" font-size="10.00">CameraSystemConfigTest.cpp</text>
</a>
</g>
</g>
<!-- Node24&#45;&gt;Node29 -->
<g id="edge32" class="edge"><title>Node24&#45;&gt;Node29</title>
<path fill="none" stroke="midnightblue" d="M1893.75,-110.537C1840.83,-100.332 1761.33,-84.9992 1712.16,-75.5164"/>
<polygon fill="midnightblue" stroke="midnightblue" points="1893.15,-113.986 1903.63,-112.444 1894.48,-107.113 1893.15,-113.986"/>
</g>
<!-- Node30 -->
<g id="node30" class="node"><title>Node30</title>
<g id="a_node30"><a xlink:href="CameraSystemReadStreamTest_8cpp.xhtml" target="_top" xlink:title="CameraSystemReadStreamTest.cpp">
<polygon fill="none" stroke="black" points="1762,-56.5 1762,-75.5 1940,-75.5 1940,-56.5 1762,-56.5"/>
<text text-anchor="middle" x="1851" y="-63.5" font-family="Helvetica,sans-Serif" font-size="10.00">CameraSystemReadStreamTest.cpp</text>
</a>
</g>
</g>
<!-- Node24&#45;&gt;Node30 -->
<g id="edge33" class="edge"><title>Node24&#45;&gt;Node30</title>
<path fill="none" stroke="midnightblue" d="M1923.66,-107.453C1905.76,-97.4835 1881.95,-84.2279 1866.55,-75.6545"/>
<polygon fill="midnightblue" stroke="midnightblue" points="1921.98,-110.518 1932.42,-112.324 1925.38,-104.402 1921.98,-110.518"/>
</g>
<!-- Node31 -->
<g id="node31" class="node"><title>Node31</title>
<g id="a_node31"><a xlink:href="CameraSystemSaveStreamTest_8cpp.xhtml" target="_top" xlink:title="CameraSystemSaveStreamTest.cpp">
<polygon fill="none" stroke="black" points="1957.5,-56.5 1957.5,-75.5 2134.5,-75.5 2134.5,-56.5 1957.5,-56.5"/>
<text text-anchor="middle" x="2046" y="-63.5" font-family="Helvetica,sans-Serif" font-size="10.00">CameraSystemSaveStreamTest.cpp</text>
</a>
</g>
</g>
<!-- Node24&#45;&gt;Node31 -->
<g id="edge34" class="edge"><title>Node24&#45;&gt;Node31</title>
<path fill="none" stroke="midnightblue" d="M1972.59,-107.453C1990.68,-97.4835 2014.73,-84.2279 2030.29,-75.6545"/>
<polygon fill="midnightblue" stroke="midnightblue" points="1970.81,-104.432 1963.75,-112.324 1974.19,-110.563 1970.81,-104.432"/>
</g>
<!-- Node32 -->
<g id="node32" class="node"><title>Node32</title>
<g id="a_node32"><a xlink:href="CameraSystemTest_8cpp.xhtml" target="_top" xlink:title="CameraSystemTest.cpp">
<polygon fill="none" stroke="black" points="2152.5,-56.5 2152.5,-75.5 2275.5,-75.5 2275.5,-56.5 2152.5,-56.5"/>
<text text-anchor="middle" x="2214" y="-63.5" font-family="Helvetica,sans-Serif" font-size="10.00">CameraSystemTest.cpp</text>
</a>
</g>
</g>
<!-- Node24&#45;&gt;Node32 -->
<g id="edge35" class="edge"><title>Node24&#45;&gt;Node32</title>
<path fill="none" stroke="midnightblue" d="M2000.17,-110.41C2050.44,-100.204 2125.53,-84.9597 2172.05,-75.5164"/>
<polygon fill="midnightblue" stroke="midnightblue" points="1999.25,-107.024 1990.15,-112.444 2000.64,-113.884 1999.25,-107.024"/>
</g>
<!-- Node33 -->
<g id="node33" class="node"><title>Node33</title>
<g id="a_node33"><a xlink:href="SerialNumber_8cpp.xhtml" target="_top" xlink:title="SerialNumber.cpp">
<polygon fill="none" stroke="black" points="2293.5,-56.5 2293.5,-75.5 2388.5,-75.5 2388.5,-56.5 2293.5,-56.5"/>
<text text-anchor="middle" x="2341" y="-63.5" font-family="Helvetica,sans-Serif" font-size="10.00">SerialNumber.cpp</text>
</a>
</g>
</g>
<!-- Node24&#45;&gt;Node33 -->
<g id="edge36" class="edge"><title>Node24&#45;&gt;Node33</title>
<path fill="none" stroke="midnightblue" d="M2004.7,-111.94C2129.84,-94.0188 2162.95,-93.3345 2284,-76 2287.07,-75.5597 2290.24,-75.0941 2293.43,-74.6158"/>
<polygon fill="midnightblue" stroke="midnightblue" points="2004.13,-108.486 1994.73,-113.376 2005.13,-115.415 2004.13,-108.486"/>
</g>
<!-- Node34 -->
<g id="node34" class="node"><title>Node34</title>
<g id="a_node34"><a xlink:href="CameraSystem_8cpp.xhtml" target="_top" xlink:title="CameraSystem.cpp">
<polygon fill="none" stroke="black" points="2407,-56.5 2407,-75.5 2511,-75.5 2511,-56.5 2407,-56.5"/>
<text text-anchor="middle" x="2459" y="-63.5" font-family="Helvetica,sans-Serif" font-size="10.00">CameraSystem.cpp</text>
</a>
</g>
</g>
<!-- Node24&#45;&gt;Node34 -->
<g id="edge37" class="edge"><title>Node24&#45;&gt;Node34</title>
<path fill="none" stroke="midnightblue" d="M2004.78,-111.989C2179.73,-90.3046 2226.05,-96.2233 2397,-76 2400.24,-75.6167 2403.57,-75.1996 2406.93,-74.7619"/>
<polygon fill="midnightblue" stroke="midnightblue" points="2004.2,-108.533 1994.72,-113.248 2005.07,-115.479 2004.2,-108.533"/>
</g>
<!-- Node35 -->
<g id="node35" class="node"><title>Node35</title>
<g id="a_node35"><a xlink:href="FrameStream_8cpp.xhtml" target="_top" xlink:title="FrameStream.cpp">
<polygon fill="none" stroke="black" points="2529.5,-56.5 2529.5,-75.5 2624.5,-75.5 2624.5,-56.5 2529.5,-56.5"/>
<text text-anchor="middle" x="2577" y="-63.5" font-family="Helvetica,sans-Serif" font-size="10.00">FrameStream.cpp</text>
</a>
</g>
</g>
<!-- Node24&#45;&gt;Node35 -->
<g id="edge38" class="edge"><title>Node24&#45;&gt;Node35</title>
<path fill="none" stroke="midnightblue" d="M2004.7,-112.033C2234.1,-86.1851 2294.81,-101.584 2520,-76 2523.09,-75.6494 2526.26,-75.2517 2529.46,-74.8236"/>
<polygon fill="midnightblue" stroke="midnightblue" points="2004.25,-108.561 1994.71,-113.172 2005.04,-115.516 2004.25,-108.561"/>
</g>
<!-- Node26 -->
<g id="node26" class="node"><title>Node26</title>
<g id="a_node26"><a xlink:href="CLIManager_8cpp.xhtml" target="_top" xlink:title="CLIManager.cpp">
<polygon fill="none" stroke="black" points="1280.5,-0.5 1280.5,-19.5 1369.5,-19.5 1369.5,-0.5 1280.5,-0.5"/>
<text text-anchor="middle" x="1325" y="-7.5" font-family="Helvetica,sans-Serif" font-size="10.00">CLIManager.cpp</text>
</a>
</g>
</g>
<!-- Node25&#45;&gt;Node26 -->
<g id="edge28" class="edge"><title>Node25&#45;&gt;Node26</title>
<path fill="none" stroke="midnightblue" d="M1348.02,-47.5656C1342.17,-38.2747 1335.23,-27.2484 1330.51,-19.7511"/>
<polygon fill="midnightblue" stroke="midnightblue" points="1345.1,-49.4855 1353.39,-56.083 1351.02,-45.7558 1345.1,-49.4855"/>
</g>
<!-- Node25&#45;&gt;Node27 -->
<g id="edge29" class="edge"><title>Node25&#45;&gt;Node27</title>
<path fill="none" stroke="midnightblue" d="M1377.83,-49.8197C1389.84,-40.1452 1404.97,-27.9481 1415.04,-19.8339"/>
<polygon fill="midnightblue" stroke="midnightblue" points="1375.35,-47.3236 1369.76,-56.324 1379.75,-52.7738 1375.35,-47.3236"/>
</g>
<!-- Node36&#45;&gt;Node24 -->
<g id="edge40" class="edge"><title>Node36&#45;&gt;Node24</title>
<path fill="none" stroke="midnightblue" d="M2011.55,-162.901C1995.78,-152.999 1975.19,-140.071 1961.78,-131.655"/>
<polygon fill="midnightblue" stroke="midnightblue" points="2009.85,-165.97 2020.18,-168.324 2013.57,-160.042 2009.85,-165.97"/>
</g>
<!-- Node37 -->
<g id="node37" class="node"><title>Node37</title>
<g id="a_node37"><a xlink:href="DepthCameraLibrary_8cpp.xhtml" target="_top" xlink:title="DepthCameraLibrary.cpp">
<polygon fill="none" stroke="black" points="2012.5,-112.5 2012.5,-131.5 2137.5,-131.5 2137.5,-112.5 2012.5,-112.5"/>
<text text-anchor="middle" x="2075" y="-119.5" font-family="Helvetica,sans-Serif" font-size="10.00">DepthCameraLibrary.cpp</text>
</a>
</g>
</g>
<!-- Node36&#45;&gt;Node37 -->
<g id="edge41" class="edge"><title>Node36&#45;&gt;Node37</title>
<path fill="none" stroke="midnightblue" d="M2047.02,-159.855C2054.12,-150.505 2062.6,-139.327 2068.36,-131.751"/>
<polygon fill="midnightblue" stroke="midnightblue" points="2044.03,-158.002 2040.77,-168.083 2049.61,-162.235 2044.03,-158.002"/>
</g>
</g>
</svg>
        <g id="navigator" transform="translate(0 0)" fill="#404254">
                <rect fill="#f2f5e9" fill-opacity="0.5" stroke="#606060" stroke-width=".5" x="0" y="0" width="60" height="60"/>
                <use id="zoomplus" xlink:href="#zoomPlus" x="17" y="9" onmousedown="handleZoom(evt,'in')"/>
                <use id="zoomminus" xlink:href="#zoomMin" x="42" y="9" onmousedown="handleZoom(evt,'out')"/>
                <use id="reset" xlink:href="#resetDef" x="30" y="36" onmousedown="handleReset()"/>
                <g id="arrowUp" xlink:href="#dirArrow" transform="translate(30 24)" onmousedown="handlePan(0,-1)">
                  <use xlink:href="#rim" fill="#404040">
                        <set attributeName="fill" to="#808080" begin="arrowUp.mouseover" end="arrowUp.mouseout"/>
                  </use>
                  <path fill="none" stroke="white" stroke-width="1.5" d="M0,-3.0v7 M-2.5,-0.5L0,-3.0L2.5,-0.5"/>
                </g>
                <g id="arrowRight" xlink:href="#dirArrow" transform="rotate(90) translate(36 -43)" onmousedown="handlePan(1,0)">
                  <use xlink:href="#rim" fill="#404040">
                        <set attributeName="fill" to="#808080" begin="arrowRight.mouseover" end="arrowRight.mouseout"/>
                  </use>
                  <path fill="none" stroke="white" stroke-width="1.5" d="M0,-3.0v7 M-2.5,-0.5L0,-3.0L2.5,-0.5"/>
                </g>
                <g id="arrowDown" xlink:href="#dirArrow" transform="rotate(180) translate(-30 -48)" onmousedown="handlePan(0,1)">
                  <use xlink:href="#rim" fill="#404040">
                        <set attributeName="fill" to="#808080" begin="arrowDown.mouseover" end="arrowDown.mouseout"/>
                  </use>
                  <path fill="none" stroke="white" stroke-width="1.5" d="M0,-3.0v7 M-2.5,-0.5L0,-3.0L2.5,-0.5"/>
                </g>
                <g id="arrowLeft" xlink:href="#dirArrow" transform="rotate(270) translate(-36 17)" onmousedown="handlePan(-1,0)">
                  <use xlink:href="#rim" fill="#404040">
                        <set attributeName="fill" to="#808080" begin="arrowLeft.mouseover" end="arrowLeft.mouseout"/>
                  </use>
                  <path fill="none" stroke="white" stroke-width="1.5" d="M0,-3.0v7 M-2.5,-0.5L0,-3.0L2.5,-0.5"/>
                </g>
        </g>
        <svg viewBox="0 0 15 15" width="100%" height="30px" preserveAspectRatio="xMaxYMin meet">
         <g id="arrow_out" transform="scale(0.3 0.3)">
          <a xlink:href="Downloader_8h__dep__incl_org.svg" target="_base">
           <rect id="button" ry="5" rx="5" y="6" x="6" height="38" width="38"
                fill="#f2f5e9" fill-opacity="0.5" stroke="#606060" stroke-width="1.0"/>
           <path id="arrow"
             d="M 11.500037,31.436501 C 11.940474,20.09759 22.043105,11.32322 32.158766,21.979434 L 37.068811,17.246167 C 37.068811,17.246167 37.088388,32 37.088388,32 L 22.160133,31.978069 C 22.160133,31.978069 26.997745,27.140456 26.997745,27.140456 C 18.528582,18.264221 13.291696,25.230495 11.500037,31.436501 z"
             style="fill:#404040;"/>
          </a>
         </g>
        </svg>
</svg>
