<?xml version="1.0" encoding="UTF-8" standalone="no"?>
<!DOCTYPE svg PUBLIC "-//W3C//DTD SVG 1.1//EN"
 "http://www.w3.org/Graphics/SVG/1.1/DTD/svg11.dtd">
<!-- Generated by graphviz version 2.36.0 (20140111.2315)
 -->
<!-- Title: elfio_section.hpp Pages: 1 -->
<svg width="121pt" height="84pt"
 viewBox="0.00 0.00 121.00 84.00" xmlns="http://www.w3.org/2000/svg" xmlns:xlink="http://www.w3.org/1999/xlink">
<g id="graph0" class="graph" transform="scale(1 1) rotate(0) translate(4 80)">
<title>elfio_section.hpp</title>
<!-- Node1 -->
<g id="node1" class="node"><title>Node1</title>
<polygon fill="#bfbfbf" stroke="black" points="8,-56.5 8,-75.5 98,-75.5 98,-56.5 8,-56.5"/>
<text text-anchor="middle" x="53" y="-63.5" font-family="Helvetica,sans-Serif" font-size="10.00">elfio_section.hpp</text>
</g>
<!-- Node2 -->
<g id="node2" class="node"><title>Node2</title>
<polygon fill="none" stroke="#bfbfbf" points="-0.5,-0.5 -0.5,-19.5 40.5,-19.5 40.5,-0.5 -0.5,-0.5"/>
<text text-anchor="middle" x="20" y="-7.5" font-family="Helvetica,sans-Serif" font-size="10.00">string</text>
</g>
<!-- Node1&#45;&gt;Node2 -->
<g id="edge1" class="edge"><title>Node1&#45;&gt;Node2</title>
<path fill="none" stroke="midnightblue" d="M47.5507,-56.083C42.9855,-48.6127 36.3316,-37.7244 30.7066,-28.5199"/>
<polygon fill="midnightblue" stroke="midnightblue" points="33.5489,-26.4588 25.3479,-19.7511 27.5759,-30.109 33.5489,-26.4588"/>
</g>
<!-- Node3 -->
<g id="node3" class="node"><title>Node3</title>
<polygon fill="none" stroke="#bfbfbf" points="59,-0.5 59,-19.5 113,-19.5 113,-0.5 59,-0.5"/>
<text text-anchor="middle" x="86" y="-7.5" font-family="Helvetica,sans-Serif" font-size="10.00">iostream</text>
</g>
<!-- Node1&#45;&gt;Node3 -->
<g id="edge2" class="edge"><title>Node1&#45;&gt;Node3</title>
<path fill="none" stroke="midnightblue" d="M58.4493,-56.083C63.0145,-48.6127 69.6684,-37.7244 75.2934,-28.5199"/>
<polygon fill="midnightblue" stroke="midnightblue" points="78.4241,-30.109 80.6521,-19.7511 72.4511,-26.4588 78.4241,-30.109"/>
</g>
</g>
</svg>
