<?xml version="1.0" encoding="UTF-8" standalone="no"?>
<!DOCTYPE svg PUBLIC "-//W3C//DTD SVG 1.1//EN"
 "http://www.w3.org/Graphics/SVG/1.1/DTD/svg11.dtd">
<!-- Generated by graphviz version 2.36.0 (20140111.2315)
 -->
<!-- Title: FilterParameter.h Pages: 1 -->
<!--zoomable 420 -->
<svg id="main" version="1.1" xmlns="http://www.w3.org/2000/svg" xmlns:xlink="http://www.w3.org/1999/xlink" xml:space="preserve" onload="init(evt)">
<style type="text/css"><![CDATA[
.edge:hover path { stroke: red; }
.edge:hover polygon { stroke: red; fill: red; }
]]></style>
<script type="text/javascript"><![CDATA[
var edges = document.getElementsByTagName('g');
if (edges && edges.length) {
  for (var i=0;i<edges.length;i++) {
    if (edges[i].id.substr(0,4)=='edge') {
      edges[i].setAttribute('class','edge');
    }
  }
}
]]></script>
        <defs>
                <circle id="rim" cx="0" cy="0" r="7"/>
                <circle id="rim2" cx="0" cy="0" r="3.5"/>
                <g id="zoomPlus">
                        <use xlink:href="#rim" fill="#404040">
                                <set attributeName="fill" to="#808080" begin="zoomplus.mouseover" end="zoomplus.mouseout"/>
                        </use>
                        <path d="M-4,0h8M0,-4v8" fill="none" stroke="white" stroke-width="1.5" pointer-events="none"/>
                </g>
                <g id="zoomMin">
                        <use xlink:href="#rim" fill="#404040">
                                <set attributeName="fill" to="#808080" begin="zoomminus.mouseover" end="zoomminus.mouseout"/>
                        </use>
                        <path d="M-4,0h8" fill="none" stroke="white" stroke-width="1.5" pointer-events="none"/>
                </g>
                <g id="dirArrow">
                        <path fill="none" stroke="white" stroke-width="1.5" d="M0,-3.0v7 M-2.5,-0.5L0,-3.0L2.5,-0.5"/>
                </g>
               <g id="resetDef">
                       <use xlink:href="#rim2" fill="#404040">
                               <set attributeName="fill" to="#808080" begin="reset.mouseover" end="reset.mouseout"/>
                       </use>
               </g>
        </defs>

<script type="text/javascript">
var viewWidth = 1928;
var viewHeight = 420;
var sectionId = 'dynsection-1';
</script>
<script xlink:href="svgpan.js"/>
<svg id="graph" class="graph">
<g id="viewport">
<title>FilterParameter.h</title>
<!-- Node1 -->
<g id="node1" class="node"><title>Node1</title>
<polygon fill="#bfbfbf" stroke="black" points="1029,-392.5 1029,-411.5 1121,-411.5 1121,-392.5 1029,-392.5"/>
<text text-anchor="middle" x="1075" y="-399.5" font-family="Helvetica,sans-Serif" font-size="10.00">FilterParameter.h</text>
</g>
<!-- Node2 -->
<g id="node2" class="node"><title>Node2</title>
<g id="a_node2"><a xlink:href="Filter_8h.xhtml" target="_top" xlink:title="Filter.h">
<polygon fill="none" stroke="black" points="1051.5,-336.5 1051.5,-355.5 1098.5,-355.5 1098.5,-336.5 1051.5,-336.5"/>
<text text-anchor="middle" x="1075" y="-343.5" font-family="Helvetica,sans-Serif" font-size="10.00">Filter.h</text>
</a>
</g>
</g>
<!-- Node1&#45;&gt;Node2 -->
<g id="edge1" class="edge"><title>Node1&#45;&gt;Node2</title>
<path fill="none" stroke="midnightblue" d="M1075,-381.805C1075,-372.91 1075,-362.78 1075,-355.751"/>
<polygon fill="midnightblue" stroke="midnightblue" points="1071.5,-382.083 1075,-392.083 1078.5,-382.083 1071.5,-382.083"/>
</g>
<!-- Node3 -->
<g id="node3" class="node"><title>Node3</title>
<g id="a_node3"><a xlink:href="ToFCrossTalkFilter_8h.xhtml" target="_top" xlink:title="ToFCrossTalkFilter.h">
<polygon fill="none" stroke="black" points="412.5,-280.5 412.5,-299.5 521.5,-299.5 521.5,-280.5 412.5,-280.5"/>
<text text-anchor="middle" x="467" y="-287.5" font-family="Helvetica,sans-Serif" font-size="10.00">ToFCrossTalkFilter.h</text>
</a>
</g>
</g>
<!-- Node2&#45;&gt;Node3 -->
<g id="edge2" class="edge"><title>Node2&#45;&gt;Node3</title>
<path fill="none" stroke="midnightblue" d="M1040.99,-341.979C940.572,-333.061 644.775,-306.789 521.697,-295.858"/>
<polygon fill="midnightblue" stroke="midnightblue" points="1040.9,-345.485 1051.17,-342.883 1041.51,-338.512 1040.9,-345.485"/>
</g>
<!-- Node17 -->
<g id="node17" class="node"><title>Node17</title>
<g id="a_node17"><a xlink:href="BilateralFilter_8h.xhtml" target="_top" xlink:title="BilateralFilter.h">
<polygon fill="none" stroke="black" points="990,-280.5 990,-299.5 1072,-299.5 1072,-280.5 990,-280.5"/>
<text text-anchor="middle" x="1031" y="-287.5" font-family="Helvetica,sans-Serif" font-size="10.00">BilateralFilter.h</text>
</a>
</g>
</g>
<!-- Node2&#45;&gt;Node17 -->
<g id="edge19" class="edge"><title>Node2&#45;&gt;Node17</title>
<path fill="none" stroke="midnightblue" d="M1061.27,-328.144C1053.6,-318.736 1044.37,-307.405 1038.13,-299.751"/>
<polygon fill="midnightblue" stroke="midnightblue" points="1058.7,-330.541 1067.73,-336.083 1064.13,-326.12 1058.7,-330.541"/>
</g>
<!-- Node20 -->
<g id="node20" class="node"><title>Node20</title>
<g id="a_node20"><a xlink:href="Filter_8cpp.xhtml" target="_top" xlink:title="Filter.cpp">
<polygon fill="none" stroke="black" points="914.5,-280.5 914.5,-299.5 971.5,-299.5 971.5,-280.5 914.5,-280.5"/>
<text text-anchor="middle" x="943" y="-287.5" font-family="Helvetica,sans-Serif" font-size="10.00">Filter.cpp</text>
</a>
</g>
</g>
<!-- Node2&#45;&gt;Node20 -->
<g id="edge22" class="edge"><title>Node2&#45;&gt;Node20</title>
<path fill="none" stroke="midnightblue" d="M1044.78,-332.638C1020.01,-322.504 985.6,-308.427 963.818,-299.516"/>
<polygon fill="midnightblue" stroke="midnightblue" points="1043.5,-335.897 1054.08,-336.444 1046.15,-329.418 1043.5,-335.897"/>
</g>
<!-- Node21 -->
<g id="node21" class="node"><title>Node21</title>
<g id="a_node21"><a xlink:href="FilterSet_8h.xhtml" target="_top" xlink:title="FilterSet.h">
<polygon fill="none" stroke="black" points="834,-280.5 834,-299.5 896,-299.5 896,-280.5 834,-280.5"/>
<text text-anchor="middle" x="865" y="-287.5" font-family="Helvetica,sans-Serif" font-size="10.00">FilterSet.h</text>
</a>
</g>
</g>
<!-- Node2&#45;&gt;Node21 -->
<g id="edge23" class="edge"><title>Node2&#45;&gt;Node21</title>
<path fill="none" stroke="midnightblue" d="M1041.5,-336.385C1001.46,-326.09 935.004,-309.001 896.072,-298.99"/>
<polygon fill="midnightblue" stroke="midnightblue" points="1040.76,-339.81 1051.32,-338.91 1042.51,-333.03 1040.76,-339.81"/>
</g>
<!-- Node43 -->
<g id="node43" class="node"><title>Node43</title>
<g id="a_node43"><a xlink:href="IIRFilter_8h.xhtml" target="_top" xlink:title="IIRFilter.h">
<polygon fill="none" stroke="black" points="1090,-280.5 1090,-299.5 1150,-299.5 1150,-280.5 1090,-280.5"/>
<text text-anchor="middle" x="1120" y="-287.5" font-family="Helvetica,sans-Serif" font-size="10.00">IIRFilter.h</text>
</a>
</g>
</g>
<!-- Node2&#45;&gt;Node43 -->
<g id="edge55" class="edge"><title>Node2&#45;&gt;Node43</title>
<path fill="none" stroke="midnightblue" d="M1089.05,-328.144C1096.89,-318.736 1106.33,-307.405 1112.71,-299.751"/>
<polygon fill="midnightblue" stroke="midnightblue" points="1086.14,-326.16 1082.43,-336.083 1091.52,-330.641 1086.14,-326.16"/>
</g>
<!-- Node45 -->
<g id="node45" class="node"><title>Node45</title>
<g id="a_node45"><a xlink:href="MedianFilter_8h.xhtml" target="_top" xlink:title="MedianFilter.h">
<polygon fill="none" stroke="black" points="1168,-280.5 1168,-299.5 1246,-299.5 1246,-280.5 1168,-280.5"/>
<text text-anchor="middle" x="1207" y="-287.5" font-family="Helvetica,sans-Serif" font-size="10.00">MedianFilter.h</text>
</a>
</g>
</g>
<!-- Node2&#45;&gt;Node45 -->
<g id="edge58" class="edge"><title>Node2&#45;&gt;Node45</title>
<path fill="none" stroke="midnightblue" d="M1105.22,-332.638C1129.99,-322.504 1164.4,-308.427 1186.18,-299.516"/>
<polygon fill="midnightblue" stroke="midnightblue" points="1103.85,-329.418 1095.92,-336.444 1106.5,-335.897 1103.85,-329.418"/>
</g>
<!-- Node47 -->
<g id="node47" class="node"><title>Node47</title>
<g id="a_node47"><a xlink:href="SmoothFilter_8h.xhtml" target="_top" xlink:title="SmoothFilter.h">
<polygon fill="none" stroke="black" points="1264,-280.5 1264,-299.5 1344,-299.5 1344,-280.5 1264,-280.5"/>
<text text-anchor="middle" x="1304" y="-287.5" font-family="Helvetica,sans-Serif" font-size="10.00">SmoothFilter.h</text>
</a>
</g>
</g>
<!-- Node2&#45;&gt;Node47 -->
<g id="edge61" class="edge"><title>Node2&#45;&gt;Node47</title>
<path fill="none" stroke="midnightblue" d="M1108.5,-337.101C1150.99,-327.081 1223.99,-309.867 1267.75,-299.548"/>
<polygon fill="midnightblue" stroke="midnightblue" points="1107.57,-333.723 1098.64,-339.424 1109.18,-340.536 1107.57,-333.723"/>
</g>
<!-- Node49 -->
<g id="node49" class="node"><title>Node49</title>
<g id="a_node49"><a xlink:href="TemporalMedianFilter_8h.xhtml" target="_top" xlink:title="TemporalMedianFilter.h">
<polygon fill="none" stroke="black" points="1362.5,-280.5 1362.5,-299.5 1481.5,-299.5 1481.5,-280.5 1362.5,-280.5"/>
<text text-anchor="middle" x="1422" y="-287.5" font-family="Helvetica,sans-Serif" font-size="10.00">TemporalMedianFilter.h</text>
</a>
</g>
</g>
<!-- Node2&#45;&gt;Node49 -->
<g id="edge64" class="edge"><title>Node2&#45;&gt;Node49</title>
<path fill="none" stroke="midnightblue" d="M1108.65,-339.764C1168.66,-330.424 1294.67,-310.814 1367.29,-299.514"/>
<polygon fill="midnightblue" stroke="midnightblue" points="1107.92,-336.335 1098.58,-341.331 1109,-343.251 1107.92,-336.335"/>
</g>
<!-- Node4 -->
<g id="node4" class="node"><title>Node4</title>
<g id="a_node4"><a xlink:href="ToFFrameGenerator_8h.xhtml" target="_top" xlink:title="ToFFrameGenerator.h">
<polygon fill="none" stroke="black" points="410.5,-224.5 410.5,-243.5 523.5,-243.5 523.5,-224.5 410.5,-224.5"/>
<text text-anchor="middle" x="467" y="-231.5" font-family="Helvetica,sans-Serif" font-size="10.00">ToFFrameGenerator.h</text>
</a>
</g>
</g>
<!-- Node3&#45;&gt;Node4 -->
<g id="edge3" class="edge"><title>Node3&#45;&gt;Node4</title>
<path fill="none" stroke="midnightblue" d="M467,-269.805C467,-260.91 467,-250.78 467,-243.751"/>
<polygon fill="midnightblue" stroke="midnightblue" points="463.5,-270.083 467,-280.083 470.5,-270.083 463.5,-270.083"/>
</g>
<!-- Node16 -->
<g id="node16" class="node"><title>Node16</title>
<g id="a_node16"><a xlink:href="ToFCrossTalkFilter_8cpp.xhtml" target="_top" xlink:title="ToFCrossTalkFilter.cpp">
<polygon fill="none" stroke="black" points="273.5,-224.5 273.5,-243.5 392.5,-243.5 392.5,-224.5 273.5,-224.5"/>
<text text-anchor="middle" x="333" y="-231.5" font-family="Helvetica,sans-Serif" font-size="10.00">ToFCrossTalkFilter.cpp</text>
</a>
</g>
</g>
<!-- Node3&#45;&gt;Node16 -->
<g id="edge18" class="edge"><title>Node3&#45;&gt;Node16</title>
<path fill="none" stroke="midnightblue" d="M436.323,-276.638C411.177,-266.504 376.246,-252.427 354.133,-243.516"/>
<polygon fill="midnightblue" stroke="midnightblue" points="435.184,-279.952 445.767,-280.444 437.8,-273.459 435.184,-279.952"/>
</g>
<!-- Node5 -->
<g id="node5" class="node"><title>Node5</title>
<g id="a_node5"><a xlink:href="ToFCamera_8h.xhtml" target="_top" xlink:title="ToFCamera.h">
<polygon fill="none" stroke="black" points="379.5,-56.5 379.5,-75.5 456.5,-75.5 456.5,-56.5 379.5,-56.5"/>
<text text-anchor="middle" x="418" y="-63.5" font-family="Helvetica,sans-Serif" font-size="10.00">ToFCamera.h</text>
</a>
</g>
</g>
<!-- Node4&#45;&gt;Node5 -->
<g id="edge4" class="edge"><title>Node4&#45;&gt;Node5</title>
<path fill="none" stroke="midnightblue" d="M453.262,-216.196C447.353,-208.127 440.917,-198.042 437,-188 421.392,-147.982 418.586,-95.7805 418.096,-75.5385"/>
<polygon fill="midnightblue" stroke="midnightblue" points="450.667,-218.563 459.547,-224.342 456.209,-214.286 450.667,-218.563"/>
</g>
<!-- Node10 -->
<g id="node10" class="node"><title>Node10</title>
<g id="a_node10"><a xlink:href="ToFFrameGenerator_8cpp.xhtml" target="_top" xlink:title="ToFFrameGenerator.cpp">
<polygon fill="none" stroke="black" points="-0.5,-0.5 -0.5,-19.5 122.5,-19.5 122.5,-0.5 -0.5,-0.5"/>
<text text-anchor="middle" x="61" y="-7.5" font-family="Helvetica,sans-Serif" font-size="10.00">ToFFrameGenerator.cpp</text>
</a>
</g>
</g>
<!-- Node4&#45;&gt;Node10 -->
<g id="edge17" class="edge"><title>Node4&#45;&gt;Node10</title>
<path fill="none" stroke="midnightblue" d="M442.503,-219.605C366.976,-178.307 139.056,-53.6811 76.8392,-19.6608"/>
<polygon fill="midnightblue" stroke="midnightblue" points="440.88,-222.707 451.333,-224.433 444.238,-216.565 440.88,-222.707"/>
</g>
<!-- Node13 -->
<g id="node13" class="node"><title>Node13</title>
<g id="a_node13"><a xlink:href="ToFDepthFrameGenerator_8h.xhtml" target="_top" xlink:title="ToFDepthFrameGenerator.h">
<polygon fill="none" stroke="black" points="446.5,-168.5 446.5,-187.5 585.5,-187.5 585.5,-168.5 446.5,-168.5"/>
<text text-anchor="middle" x="516" y="-175.5" font-family="Helvetica,sans-Serif" font-size="10.00">ToFDepthFrameGenerator.h</text>
</a>
</g>
</g>
<!-- Node4&#45;&gt;Node13 -->
<g id="edge12" class="edge"><title>Node4&#45;&gt;Node13</title>
<path fill="none" stroke="midnightblue" d="M482.034,-216.431C490.622,-206.967 501.043,-195.483 508.059,-187.751"/>
<polygon fill="midnightblue" stroke="midnightblue" points="479.219,-214.325 475.091,-224.083 484.403,-219.029 479.219,-214.325"/>
</g>
<!-- Node6 -->
<g id="node6" class="node"><title>Node6</title>
<g id="a_node6"><a xlink:href="ToFCalculusCamera_8h.xhtml" target="_top" xlink:title="ToFCalculusCamera.h">
<polygon fill="none" stroke="red" points="499.5,-0.5 499.5,-19.5 614.5,-19.5 614.5,-0.5 499.5,-0.5"/>
<text text-anchor="middle" x="557" y="-7.5" font-family="Helvetica,sans-Serif" font-size="10.00">ToFCalculusCamera.h</text>
</a>
</g>
</g>
<!-- Node5&#45;&gt;Node6 -->
<g id="edge5" class="edge"><title>Node5&#45;&gt;Node6</title>
<path fill="none" stroke="midnightblue" d="M449.476,-52.772C475.585,-42.6287 512.039,-28.4669 535.078,-19.5164"/>
<polygon fill="midnightblue" stroke="midnightblue" points="448.079,-49.5598 440.025,-56.4435 450.614,-56.0847 448.079,-49.5598"/>
</g>
<!-- Node7 -->
<g id="node7" class="node"><title>Node7</title>
<g id="a_node7"><a xlink:href="ToFCamera_8cpp.xhtml" target="_top" xlink:title="ToFCamera.cpp">
<polygon fill="none" stroke="black" points="140.5,-0.5 140.5,-19.5 227.5,-19.5 227.5,-0.5 140.5,-0.5"/>
<text text-anchor="middle" x="184" y="-7.5" font-family="Helvetica,sans-Serif" font-size="10.00">ToFCamera.cpp</text>
</a>
</g>
</g>
<!-- Node5&#45;&gt;Node7 -->
<g id="edge6" class="edge"><title>Node5&#45;&gt;Node7</title>
<path fill="none" stroke="midnightblue" d="M370.996,-54.1529C326.783,-43.95 261.484,-28.8809 220.905,-19.5164"/>
<polygon fill="midnightblue" stroke="midnightblue" points="370.391,-57.6052 380.922,-56.4435 371.965,-50.7845 370.391,-57.6052"/>
</g>
<!-- Node8 -->
<g id="node8" class="node"><title>Node8</title>
<g id="a_node8"><a xlink:href="ToFCameraFactoryBase_8cpp.xhtml" target="_top" xlink:title="ToFCameraFactoryBase.cpp">
<polygon fill="none" stroke="black" points="824.5,-0.5 824.5,-19.5 967.5,-19.5 967.5,-0.5 824.5,-0.5"/>
<text text-anchor="middle" x="896" y="-7.5" font-family="Helvetica,sans-Serif" font-size="10.00">ToFCameraFactoryBase.cpp</text>
</a>
</g>
</g>
<!-- Node5&#45;&gt;Node8 -->
<g id="edge7" class="edge"><title>Node5&#45;&gt;Node8</title>
<path fill="none" stroke="midnightblue" d="M466.829,-59.4838C551.523,-49.9158 726.014,-30.2034 824.421,-19.0863"/>
<polygon fill="midnightblue" stroke="midnightblue" points="466.256,-56.0262 456.712,-60.6267 467.042,-62.9819 466.256,-56.0262"/>
</g>
<!-- Node9 -->
<g id="node9" class="node"><title>Node9</title>
<g id="a_node9"><a xlink:href="ToFDepthFrameGenerator_8cpp.xhtml" target="_top" xlink:title="ToFDepthFrameGenerator.cpp">
<polygon fill="none" stroke="black" points="632.5,-0.5 632.5,-19.5 781.5,-19.5 781.5,-0.5 632.5,-0.5"/>
<text text-anchor="middle" x="707" y="-7.5" font-family="Helvetica,sans-Serif" font-size="10.00">ToFDepthFrameGenerator.cpp</text>
</a>
</g>
</g>
<!-- Node5&#45;&gt;Node9 -->
<g id="edge8" class="edge"><title>Node5&#45;&gt;Node9</title>
<path fill="none" stroke="midnightblue" d="M466.76,-55.8891C521.127,-45.7306 608.369,-29.4294 661.414,-19.5177"/>
<polygon fill="midnightblue" stroke="midnightblue" points="465.863,-52.4961 456.676,-57.7734 467.149,-59.377 465.863,-52.4961"/>
</g>
<!-- Node5&#45;&gt;Node10 -->
<g id="edge9" class="edge"><title>Node5&#45;&gt;Node10</title>
<path fill="none" stroke="midnightblue" d="M369.358,-57.6424C303.609,-47.6972 186.635,-30.0035 117.204,-19.5014"/>
<polygon fill="midnightblue" stroke="midnightblue" points="369.045,-61.1347 379.456,-59.1697 370.092,-54.2134 369.045,-61.1347"/>
</g>
<!-- Node11 -->
<g id="node11" class="node"><title>Node11</title>
<g id="a_node11"><a xlink:href="ToFHaddockCamera_8h.xhtml" target="_top" xlink:title="ToFHaddockCamera.h">
<polygon fill="none" stroke="red" points="246,-0.5 246,-19.5 362,-19.5 362,-0.5 246,-0.5"/>
<text text-anchor="middle" x="304" y="-7.5" font-family="Helvetica,sans-Serif" font-size="10.00">ToFHaddockCamera.h</text>
</a>
</g>
</g>
<!-- Node5&#45;&gt;Node11 -->
<g id="edge10" class="edge"><title>Node5&#45;&gt;Node11</title>
<path fill="none" stroke="midnightblue" d="M390.758,-52.096C369.46,-42.0073 340.458,-28.2697 321.979,-19.5164"/>
<polygon fill="midnightblue" stroke="midnightblue" points="389.401,-55.3257 399.936,-56.4435 392.397,-48.9995 389.401,-55.3257"/>
</g>
<!-- Node12 -->
<g id="node12" class="node"><title>Node12</title>
<g id="a_node12"><a xlink:href="ToFTintinCamera_8h.xhtml" target="_top" xlink:title="ToFTintinCamera.h">
<polygon fill="none" stroke="red" points="380.5,-0.5 380.5,-19.5 481.5,-19.5 481.5,-0.5 380.5,-0.5"/>
<text text-anchor="middle" x="431" y="-7.5" font-family="Helvetica,sans-Serif" font-size="10.00">ToFTintinCamera.h</text>
</a>
</g>
</g>
<!-- Node5&#45;&gt;Node12 -->
<g id="edge11" class="edge"><title>Node5&#45;&gt;Node12</title>
<path fill="none" stroke="midnightblue" d="M422.55,-46.1005C424.708,-37.1357 427.182,-26.8579 428.893,-19.7511"/>
<polygon fill="midnightblue" stroke="midnightblue" points="419.085,-45.5415 420.147,-56.083 425.89,-47.18 419.085,-45.5415"/>
</g>
<!-- Node13&#45;&gt;Node9 -->
<g id="edge16" class="edge"><title>Node13&#45;&gt;Node9</title>
<path fill="none" stroke="midnightblue" d="M507.033,-158.871C495.69,-133.043 480.309,-85.5181 504,-56 513.349,-44.3519 595.452,-28.957 652.333,-19.5281"/>
<polygon fill="midnightblue" stroke="midnightblue" points="503.986,-160.619 511.379,-168.208 510.332,-157.665 503.986,-160.619"/>
</g>
<!-- Node14 -->
<g id="node14" class="node"><title>Node14</title>
<g id="a_node14"><a xlink:href="ToFCameraBase_8h.xhtml" target="_top" xlink:title="ToFCameraBase.h">
<polygon fill="none" stroke="black" points="513.5,-112.5 513.5,-131.5 612.5,-131.5 612.5,-112.5 513.5,-112.5"/>
<text text-anchor="middle" x="563" y="-119.5" font-family="Helvetica,sans-Serif" font-size="10.00">ToFCameraBase.h</text>
</a>
</g>
</g>
<!-- Node13&#45;&gt;Node14 -->
<g id="edge13" class="edge"><title>Node13&#45;&gt;Node14</title>
<path fill="none" stroke="midnightblue" d="M530.421,-160.431C538.658,-150.967 548.654,-139.483 555.383,-131.751"/>
<polygon fill="midnightblue" stroke="midnightblue" points="527.686,-158.242 523.761,-168.083 532.966,-162.838 527.686,-158.242"/>
</g>
<!-- Node14&#45;&gt;Node5 -->
<g id="edge14" class="edge"><title>Node14&#45;&gt;Node5</title>
<path fill="none" stroke="midnightblue" d="M530.525,-108.906C503.264,-98.7536 465.008,-84.5063 440.868,-75.5164"/>
<polygon fill="midnightblue" stroke="midnightblue" points="529.432,-112.233 540.024,-112.444 531.875,-105.674 529.432,-112.233"/>
</g>
<!-- Node15 -->
<g id="node15" class="node"><title>Node15</title>
<g id="a_node15"><a xlink:href="ToFCameraBase_8cpp.xhtml" target="_top" xlink:title="ToFCameraBase.cpp">
<polygon fill="none" stroke="black" points="513,-56.5 513,-75.5 623,-75.5 623,-56.5 513,-56.5"/>
<text text-anchor="middle" x="568" y="-63.5" font-family="Helvetica,sans-Serif" font-size="10.00">ToFCameraBase.cpp</text>
</a>
</g>
</g>
<!-- Node14&#45;&gt;Node15 -->
<g id="edge15" class="edge"><title>Node14&#45;&gt;Node15</title>
<path fill="none" stroke="midnightblue" d="M564.75,-102.101C565.58,-93.1357 566.532,-82.8579 567.19,-75.7511"/>
<polygon fill="midnightblue" stroke="midnightblue" points="561.263,-101.803 563.826,-112.083 568.233,-102.448 561.263,-101.803"/>
</g>
<!-- Node18 -->
<g id="node18" class="node"><title>Node18</title>
<g id="a_node18"><a xlink:href="BilateralFilter_8cpp.xhtml" target="_top" xlink:title="BilateralFilter.cpp">
<polygon fill="none" stroke="black" points="928,-224.5 928,-243.5 1020,-243.5 1020,-224.5 928,-224.5"/>
<text text-anchor="middle" x="974" y="-231.5" font-family="Helvetica,sans-Serif" font-size="10.00">BilateralFilter.cpp</text>
</a>
</g>
</g>
<!-- Node17&#45;&gt;Node18 -->
<g id="edge20" class="edge"><title>Node17&#45;&gt;Node18</title>
<path fill="none" stroke="midnightblue" d="M1014.38,-273.253C1004.27,-263.673 991.723,-251.791 983.325,-243.834"/>
<polygon fill="midnightblue" stroke="midnightblue" points="1012.18,-275.987 1021.84,-280.324 1016.99,-270.906 1012.18,-275.987"/>
</g>
<!-- Node19 -->
<g id="node19" class="node"><title>Node19</title>
<g id="a_node19"><a xlink:href="VoxelFilterFactory_8cpp.xhtml" target="_top" xlink:title="VoxelFilterFactory.cpp">
<polygon fill="none" stroke="black" points="1234.5,-224.5 1234.5,-243.5 1349.5,-243.5 1349.5,-224.5 1234.5,-224.5"/>
<text text-anchor="middle" x="1292" y="-231.5" font-family="Helvetica,sans-Serif" font-size="10.00">VoxelFilterFactory.cpp</text>
</a>
</g>
</g>
<!-- Node17&#45;&gt;Node19 -->
<g id="edge21" class="edge"><title>Node17&#45;&gt;Node19</title>
<path fill="none" stroke="midnightblue" d="M1081.89,-278.471C1131.18,-268.273 1205,-253 1250.74,-243.536"/>
<polygon fill="midnightblue" stroke="midnightblue" points="1081.15,-275.05 1072.07,-280.503 1082.57,-281.904 1081.15,-275.05"/>
</g>
<!-- Node22 -->
<g id="node22" class="node"><title>Node22</title>
<g id="a_node22"><a xlink:href="DepthCamera_8h.xhtml" target="_top" xlink:title="DepthCamera.h">
<polygon fill="none" stroke="black" points="1004,-168.5 1004,-187.5 1090,-187.5 1090,-168.5 1004,-168.5"/>
<text text-anchor="middle" x="1047" y="-175.5" font-family="Helvetica,sans-Serif" font-size="10.00">DepthCamera.h</text>
</a>
</g>
</g>
<!-- Node21&#45;&gt;Node22 -->
<g id="edge24" class="edge"><title>Node21&#45;&gt;Node22</title>
<path fill="none" stroke="midnightblue" d="M875.635,-271.532C885.308,-256.976 900.822,-236.646 919,-224 945.008,-205.907 979.02,-194.404 1005.45,-187.561"/>
<polygon fill="midnightblue" stroke="midnightblue" points="872.581,-269.813 870.153,-280.126 878.482,-273.577 872.581,-269.813"/>
</g>
<!-- Node22&#45;&gt;Node14 -->
<g id="edge29" class="edge"><title>Node22&#45;&gt;Node14</title>
<path fill="none" stroke="midnightblue" d="M993.581,-172.199C912.789,-164.748 754.744,-149.43 621,-132 618.272,-131.644 615.474,-131.264 612.651,-130.867"/>
<polygon fill="midnightblue" stroke="midnightblue" points="993.709,-175.726 1003.99,-173.155 994.349,-168.755 993.709,-175.726"/>
</g>
<!-- Node23 -->
<g id="node23" class="node"><title>Node23</title>
<g id="a_node23"><a xlink:href="PCLViewer_8h.xhtml" target="_top" xlink:title="PCLViewer.h">
<polygon fill="none" stroke="black" points="1168,-112.5 1168,-131.5 1242,-131.5 1242,-112.5 1168,-112.5"/>
<text text-anchor="middle" x="1205" y="-119.5" font-family="Helvetica,sans-Serif" font-size="10.00">PCLViewer.h</text>
</a>
</g>
</g>
<!-- Node22&#45;&gt;Node23 -->
<g id="edge25" class="edge"><title>Node22&#45;&gt;Node23</title>
<path fill="none" stroke="midnightblue" d="M1081.61,-165.172C1111.36,-155.004 1153.55,-140.585 1180.08,-131.516"/>
<polygon fill="midnightblue" stroke="midnightblue" points="1080.37,-161.898 1072.04,-168.444 1082.63,-168.521 1080.37,-161.898"/>
</g>
<!-- Node27 -->
<g id="node27" class="node"><title>Node27</title>
<g id="a_node27"><a xlink:href="DepthCamera_8cpp.xhtml" target="_top" xlink:title="DepthCamera.cpp">
<polygon fill="none" stroke="black" points="1260,-112.5 1260,-131.5 1356,-131.5 1356,-112.5 1260,-112.5"/>
<text text-anchor="middle" x="1308" y="-119.5" font-family="Helvetica,sans-Serif" font-size="10.00">DepthCamera.cpp</text>
</a>
</g>
</g>
<!-- Node22&#45;&gt;Node27 -->
<g id="edge30" class="edge"><title>Node22&#45;&gt;Node27</title>
<path fill="none" stroke="midnightblue" d="M1098.19,-166.41C1147.51,-156.204 1221.19,-140.96 1266.84,-131.516"/>
<polygon fill="midnightblue" stroke="midnightblue" points="1097.44,-162.99 1088.36,-168.444 1098.86,-169.845 1097.44,-162.99"/>
</g>
<!-- Node28 -->
<g id="node28" class="node"><title>Node28</title>
<g id="a_node28"><a xlink:href="DepthCameraFactory_8h.xhtml" target="_top" xlink:title="DepthCameraFactory.h">
<polygon fill="none" stroke="black" points="1438.5,-112.5 1438.5,-131.5 1557.5,-131.5 1557.5,-112.5 1438.5,-112.5"/>
<text text-anchor="middle" x="1498" y="-119.5" font-family="Helvetica,sans-Serif" font-size="10.00">DepthCameraFactory.h</text>
</a>
</g>
</g>
<!-- Node22&#45;&gt;Node28 -->
<g id="edge31" class="edge"><title>Node22&#45;&gt;Node28</title>
<path fill="none" stroke="midnightblue" d="M1100.42,-170.604C1185.13,-160.461 1349.74,-140.751 1438.26,-130.153"/>
<polygon fill="midnightblue" stroke="midnightblue" points="1099.76,-167.158 1090.24,-171.822 1100.59,-174.108 1099.76,-167.158"/>
</g>
<!-- Node37 -->
<g id="node37" class="node"><title>Node37</title>
<g id="a_node37"><a xlink:href="FilterFactory_8h.xhtml" target="_top" xlink:title="FilterFactory.h">
<polygon fill="none" stroke="red" points="1658,-112.5 1658,-131.5 1738,-131.5 1738,-112.5 1658,-112.5"/>
<text text-anchor="middle" x="1698" y="-119.5" font-family="Helvetica,sans-Serif" font-size="10.00">FilterFactory.h</text>
</a>
</g>
</g>
<!-- Node22&#45;&gt;Node37 -->
<g id="edge47" class="edge"><title>Node22&#45;&gt;Node37</title>
<path fill="none" stroke="midnightblue" d="M1100.47,-172.565C1227.52,-162.026 1545.23,-135.672 1657.73,-126.34"/>
<polygon fill="midnightblue" stroke="midnightblue" points="1099.89,-169.1 1090.22,-173.415 1100.47,-176.076 1099.89,-169.1"/>
</g>
<!-- Node39 -->
<g id="node39" class="node"><title>Node39</title>
<g id="a_node39"><a xlink:href="FrameStream_8cpp.xhtml" target="_top" xlink:title="FrameStream.cpp">
<polygon fill="none" stroke="black" points="630.5,-112.5 630.5,-131.5 725.5,-131.5 725.5,-112.5 630.5,-112.5"/>
<text text-anchor="middle" x="678" y="-119.5" font-family="Helvetica,sans-Serif" font-size="10.00">FrameStream.cpp</text>
</a>
</g>
</g>
<!-- Node22&#45;&gt;Node39 -->
<g id="edge50" class="edge"><title>Node22&#45;&gt;Node39</title>
<path fill="none" stroke="midnightblue" d="M993.864,-169.556C931.745,-160.804 825.858,-145.725 735,-132 731.929,-131.536 728.766,-131.053 725.578,-130.561"/>
<polygon fill="midnightblue" stroke="midnightblue" points="993.431,-173.03 1003.82,-170.958 994.407,-166.098 993.431,-173.03"/>
</g>
<!-- Node40 -->
<g id="node40" class="node"><title>Node40</title>
<g id="a_node40"><a xlink:href="PointCloudFrameGenerator_8cpp.xhtml" target="_top" xlink:title="PointCloudFrameGenerator.cpp">
<polygon fill="none" stroke="black" points="744,-112.5 744,-131.5 898,-131.5 898,-112.5 744,-112.5"/>
<text text-anchor="middle" x="821" y="-119.5" font-family="Helvetica,sans-Serif" font-size="10.00">PointCloudFrameGenerator.cpp</text>
</a>
</g>
</g>
<!-- Node22&#45;&gt;Node40 -->
<g id="edge51" class="edge"><title>Node22&#45;&gt;Node40</title>
<path fill="none" stroke="midnightblue" d="M1001.33,-166.088C958.636,-155.887 895.752,-140.861 856.643,-131.516"/>
<polygon fill="midnightblue" stroke="midnightblue" points="1000.65,-169.524 1011.19,-168.444 1002.28,-162.715 1000.65,-169.524"/>
</g>
<!-- Node41 -->
<g id="node41" class="node"><title>Node41</title>
<g id="a_node41"><a xlink:href="PyDepthCameraCallback_8h.xhtml" target="_top" xlink:title="PyDepthCameraCallback.h">
<polygon fill="none" stroke="black" points="916,-112.5 916,-131.5 1052,-131.5 1052,-112.5 916,-112.5"/>
<text text-anchor="middle" x="984" y="-119.5" font-family="Helvetica,sans-Serif" font-size="10.00">PyDepthCameraCallback.h</text>
</a>
</g>
</g>
<!-- Node22&#45;&gt;Node41 -->
<g id="edge52" class="edge"><title>Node22&#45;&gt;Node41</title>
<path fill="none" stroke="midnightblue" d="M1028.96,-161.537C1017.73,-151.909 1003.68,-139.869 994.306,-131.834"/>
<polygon fill="midnightblue" stroke="midnightblue" points="1027.01,-164.473 1036.88,-168.324 1031.56,-159.159 1027.01,-164.473"/>
</g>
<!-- Node42 -->
<g id="node42" class="node"><title>Node42</title>
<g id="a_node42"><a xlink:href="PCLGrabber_8h.xhtml" target="_top" xlink:title="PCLGrabber.h">
<polygon fill="none" stroke="red" points="1070.5,-112.5 1070.5,-131.5 1149.5,-131.5 1149.5,-112.5 1070.5,-112.5"/>
<text text-anchor="middle" x="1110" y="-119.5" font-family="Helvetica,sans-Serif" font-size="10.00">PCLGrabber.h</text>
</a>
</g>
</g>
<!-- Node22&#45;&gt;Node42 -->
<g id="edge53" class="edge"><title>Node22&#45;&gt;Node42</title>
<path fill="none" stroke="midnightblue" d="M1065.04,-161.537C1076.27,-151.909 1090.32,-139.869 1099.69,-131.834"/>
<polygon fill="midnightblue" stroke="midnightblue" points="1062.44,-159.159 1057.12,-168.324 1066.99,-164.473 1062.44,-159.159"/>
</g>
<!-- Node24 -->
<g id="node24" class="node"><title>Node24</title>
<g id="a_node24"><a xlink:href="CLIManager_8h.xhtml" target="_top" xlink:title="CLIManager.h">
<polygon fill="none" stroke="red" points="1166,-56.5 1166,-75.5 1244,-75.5 1244,-56.5 1166,-56.5"/>
<text text-anchor="middle" x="1205" y="-63.5" font-family="Helvetica,sans-Serif" font-size="10.00">CLIManager.h</text>
</a>
</g>
</g>
<!-- Node23&#45;&gt;Node24 -->
<g id="edge26" class="edge"><title>Node23&#45;&gt;Node24</title>
<path fill="none" stroke="midnightblue" d="M1205,-101.805C1205,-92.9102 1205,-82.7798 1205,-75.7511"/>
<polygon fill="midnightblue" stroke="midnightblue" points="1201.5,-102.083 1205,-112.083 1208.5,-102.083 1201.5,-102.083"/>
</g>
<!-- Node25 -->
<g id="node25" class="node"><title>Node25</title>
<g id="a_node25"><a xlink:href="PCLViewer_8cpp.xhtml" target="_top" xlink:title="PCLViewer.cpp">
<polygon fill="none" stroke="black" points="924.5,-56.5 924.5,-75.5 1009.5,-75.5 1009.5,-56.5 924.5,-56.5"/>
<text text-anchor="middle" x="967" y="-63.5" font-family="Helvetica,sans-Serif" font-size="10.00">PCLViewer.cpp</text>
</a>
</g>
</g>
<!-- Node23&#45;&gt;Node25 -->
<g id="edge27" class="edge"><title>Node23&#45;&gt;Node25</title>
<path fill="none" stroke="midnightblue" d="M1158.02,-110.34C1113.1,-100.15 1046.25,-84.9814 1004.71,-75.5565"/>
<polygon fill="midnightblue" stroke="midnightblue" points="1157.29,-113.763 1167.81,-112.562 1158.83,-106.937 1157.29,-113.763"/>
</g>
<!-- Node26 -->
<g id="node26" class="node"><title>Node26</title>
<g id="a_node26"><a xlink:href="SimpleVoxelViewer_8cpp.xhtml" target="_top" xlink:title="SimpleVoxelViewer.cpp">
<polygon fill="none" stroke="black" points="1028,-56.5 1028,-75.5 1148,-75.5 1148,-56.5 1028,-56.5"/>
<text text-anchor="middle" x="1088" y="-63.5" font-family="Helvetica,sans-Serif" font-size="10.00">SimpleVoxelViewer.cpp</text>
</a>
</g>
</g>
<!-- Node23&#45;&gt;Node26 -->
<g id="edge28" class="edge"><title>Node23&#45;&gt;Node26</title>
<path fill="none" stroke="midnightblue" d="M1177.34,-108.232C1155.45,-98.1312 1125.5,-84.3091 1106.45,-75.5164"/>
<polygon fill="midnightblue" stroke="midnightblue" points="1175.91,-111.431 1186.46,-112.444 1178.85,-105.075 1175.91,-111.431"/>
</g>
<!-- Node29 -->
<g id="node29" class="node"><title>Node29</title>
<g id="a_node29"><a xlink:href="CalculusCDKCameraFactory_8h.xhtml" target="_top" xlink:title="CalculusCDKCameraFactory.h">
<polygon fill="none" stroke="red" points="1142,-0.5 1142,-19.5 1294,-19.5 1294,-0.5 1142,-0.5"/>
<text text-anchor="middle" x="1218" y="-7.5" font-family="Helvetica,sans-Serif" font-size="10.00">CalculusCDKCameraFactory.h</text>
</a>
</g>
</g>
<!-- Node28&#45;&gt;Node29 -->
<g id="edge32" class="edge"><title>Node28&#45;&gt;Node29</title>
<path fill="none" stroke="midnightblue" d="M1442.69,-110.23C1409.07,-102.722 1365.7,-91.3 1329,-76 1290.87,-60.1023 1249.88,-33.2367 1230.08,-19.5575"/>
<polygon fill="midnightblue" stroke="midnightblue" points="1442.28,-113.722 1452.79,-112.435 1443.77,-106.883 1442.28,-113.722"/>
</g>
<!-- Node30 -->
<g id="node30" class="node"><title>Node30</title>
<g id="a_node30"><a xlink:href="HaddockCDKCameraFactory_8h.xhtml" target="_top" xlink:title="HaddockCDKCameraFactory.h">
<polygon fill="none" stroke="red" points="1312.5,-0.5 1312.5,-19.5 1465.5,-19.5 1465.5,-0.5 1312.5,-0.5"/>
<text text-anchor="middle" x="1389" y="-7.5" font-family="Helvetica,sans-Serif" font-size="10.00">HaddockCDKCameraFactory.h</text>
</a>
</g>
</g>
<!-- Node28&#45;&gt;Node30 -->
<g id="edge33" class="edge"><title>Node28&#45;&gt;Node30</title>
<path fill="none" stroke="midnightblue" d="M1496.55,-102.371C1494.58,-88.2497 1489.94,-69.102 1479,-56 1463.88,-37.8982 1439.68,-26.374 1420.18,-19.5241"/>
<polygon fill="midnightblue" stroke="midnightblue" points="1493.08,-102.837 1497.63,-112.408 1500.04,-102.092 1493.08,-102.837"/>
</g>
<!-- Node31 -->
<g id="node31" class="node"><title>Node31</title>
<g id="a_node31"><a xlink:href="RTS5825CameraFactory_8h.xhtml" target="_top" xlink:title="RTS5825CameraFactory.h">
<polygon fill="none" stroke="red" points="1484,-0.5 1484,-19.5 1618,-19.5 1618,-0.5 1484,-0.5"/>
<text text-anchor="middle" x="1551" y="-7.5" font-family="Helvetica,sans-Serif" font-size="10.00">RTS5825CameraFactory.h</text>
</a>
</g>
</g>
<!-- Node28&#45;&gt;Node31 -->
<g id="edge34" class="edge"><title>Node28&#45;&gt;Node31</title>
<path fill="none" stroke="midnightblue" d="M1506.52,-103.32C1518.06,-79.3697 1538.21,-37.5484 1546.86,-19.5914"/>
<polygon fill="midnightblue" stroke="midnightblue" points="1503.35,-101.84 1502.16,-112.368 1509.65,-104.879 1503.35,-101.84"/>
</g>
<!-- Node32 -->
<g id="node32" class="node"><title>Node32</title>
<g id="a_node32"><a xlink:href="TintinCDKCameraFactory_8h.xhtml" target="_top" xlink:title="TintinCDKCameraFactory.h">
<polygon fill="none" stroke="red" points="1636,-0.5 1636,-19.5 1774,-19.5 1774,-0.5 1636,-0.5"/>
<text text-anchor="middle" x="1705" y="-7.5" font-family="Helvetica,sans-Serif" font-size="10.00">TintinCDKCameraFactory.h</text>
</a>
</g>
</g>
<!-- Node28&#45;&gt;Node32 -->
<g id="edge35" class="edge"><title>Node28&#45;&gt;Node32</title>
<path fill="none" stroke="midnightblue" d="M1517.77,-106.635C1537.5,-92.6736 1568.96,-71.3847 1598,-56 1625.6,-41.3756 1659,-27.9638 1681.07,-19.6574"/>
<polygon fill="midnightblue" stroke="midnightblue" points="1515.69,-103.823 1509.59,-112.486 1519.76,-109.518 1515.69,-103.823"/>
</g>
<!-- Node33 -->
<g id="node33" class="node"><title>Node33</title>
<g id="a_node33"><a xlink:href="Voxel14CameraFactory_8h.xhtml" target="_top" xlink:title="Voxel14CameraFactory.h">
<polygon fill="none" stroke="red" points="1792,-0.5 1792,-19.5 1920,-19.5 1920,-0.5 1792,-0.5"/>
<text text-anchor="middle" x="1856" y="-7.5" font-family="Helvetica,sans-Serif" font-size="10.00">Voxel14CameraFactory.h</text>
</a>
</g>
</g>
<!-- Node28&#45;&gt;Node33 -->
<g id="edge36" class="edge"><title>Node28&#45;&gt;Node33</title>
<path fill="none" stroke="midnightblue" d="M1526.71,-108.238C1546.13,-99.4676 1572.29,-87.3934 1595,-76 1611.71,-67.6183 1614.42,-62.3554 1632,-56 1684.22,-37.1198 1746.32,-25.4316 1791.87,-18.7156"/>
<polygon fill="midnightblue" stroke="midnightblue" points="1525.18,-105.089 1517.49,-112.38 1528.05,-111.474 1525.18,-105.089"/>
</g>
<!-- Node34 -->
<g id="node34" class="node"><title>Node34</title>
<g id="a_node34"><a xlink:href="VoxelDCameraFactory_8h.xhtml" target="_top" xlink:title="VoxelDCameraFactory.h">
<polygon fill="none" stroke="red" points="998.5,-0.5 998.5,-19.5 1123.5,-19.5 1123.5,-0.5 998.5,-0.5"/>
<text text-anchor="middle" x="1061" y="-7.5" font-family="Helvetica,sans-Serif" font-size="10.00">VoxelDCameraFactory.h</text>
</a>
</g>
</g>
<!-- Node28&#45;&gt;Node34 -->
<g id="edge37" class="edge"><title>Node28&#45;&gt;Node34</title>
<path fill="none" stroke="midnightblue" d="M1428.2,-111.895C1386.3,-105.024 1332.47,-93.6851 1287,-76 1270.66,-69.6452 1269.27,-62.5187 1253,-56 1208.82,-38.3054 1156.02,-26.5593 1116.97,-19.5187"/>
<polygon fill="midnightblue" stroke="midnightblue" points="1427.89,-115.389 1438.32,-113.505 1428.99,-108.476 1427.89,-115.389"/>
</g>
<!-- Node35 -->
<g id="node35" class="node"><title>Node35</title>
<g id="a_node35"><a xlink:href="ToFCameraFactoryBase_8h.xhtml" target="_top" xlink:title="ToFCameraFactoryBase.h">
<polygon fill="none" stroke="black" points="1338,-56.5 1338,-75.5 1470,-75.5 1470,-56.5 1338,-56.5"/>
<text text-anchor="middle" x="1404" y="-63.5" font-family="Helvetica,sans-Serif" font-size="10.00">ToFCameraFactoryBase.h</text>
</a>
</g>
</g>
<!-- Node28&#45;&gt;Node35 -->
<g id="edge38" class="edge"><title>Node28&#45;&gt;Node35</title>
<path fill="none" stroke="midnightblue" d="M1473.94,-107.177C1456.64,-97.2407 1433.85,-84.1492 1419.07,-75.6545"/>
<polygon fill="midnightblue" stroke="midnightblue" points="1472.48,-110.378 1482.9,-112.324 1475.97,-104.308 1472.48,-110.378"/>
</g>
<!-- Node36 -->
<g id="node36" class="node"><title>Node36</title>
<g id="a_node36"><a xlink:href="DepthCameraLibrary_8h.xhtml" target="_top" xlink:title="DepthCameraLibrary.h">
<polygon fill="none" stroke="red" points="1640.5,-56.5 1640.5,-75.5 1755.5,-75.5 1755.5,-56.5 1640.5,-56.5"/>
<text text-anchor="middle" x="1698" y="-63.5" font-family="Helvetica,sans-Serif" font-size="10.00">DepthCameraLibrary.h</text>
</a>
</g>
</g>
<!-- Node28&#45;&gt;Node36 -->
<g id="edge46" class="edge"><title>Node28&#45;&gt;Node36</title>
<path fill="none" stroke="midnightblue" d="M1539.37,-109.829C1577.14,-99.6333 1632.14,-84.7823 1666.46,-75.5164"/>
<polygon fill="midnightblue" stroke="midnightblue" points="1538.43,-106.458 1529.69,-112.444 1540.26,-113.216 1538.43,-106.458"/>
</g>
<!-- Node35&#45;&gt;Node8 -->
<g id="edge45" class="edge"><title>Node35&#45;&gt;Node8</title>
<path fill="none" stroke="midnightblue" d="M1327.78,-56.8977C1230.39,-46.5455 1063.07,-28.7589 967.835,-18.636"/>
<polygon fill="midnightblue" stroke="midnightblue" points="1327.53,-60.3914 1337.85,-57.9681 1328.27,-53.4306 1327.53,-60.3914"/>
</g>
<!-- Node35&#45;&gt;Node29 -->
<g id="edge39" class="edge"><title>Node35&#45;&gt;Node29</title>
<path fill="none" stroke="midnightblue" d="M1364.62,-53.5677C1329.53,-43.381 1278.98,-28.7034 1247.33,-19.5164"/>
<polygon fill="midnightblue" stroke="midnightblue" points="1363.95,-57.0166 1374.53,-56.4435 1365.9,-50.2942 1363.95,-57.0166"/>
</g>
<!-- Node35&#45;&gt;Node30 -->
<g id="edge40" class="edge"><title>Node35&#45;&gt;Node30</title>
<path fill="none" stroke="midnightblue" d="M1398.83,-46.3956C1396.32,-37.362 1393.43,-26.936 1391.43,-19.7511"/>
<polygon fill="midnightblue" stroke="midnightblue" points="1395.47,-47.3846 1401.52,-56.083 1402.22,-45.511 1395.47,-47.3846"/>
</g>
<!-- Node35&#45;&gt;Node31 -->
<g id="edge41" class="edge"><title>Node35&#45;&gt;Node31</title>
<path fill="none" stroke="midnightblue" d="M1436.92,-52.9058C1464.56,-42.7536 1503.34,-28.5063 1527.82,-19.5164"/>
<polygon fill="midnightblue" stroke="midnightblue" points="1435.47,-49.71 1427.29,-56.4435 1437.89,-56.2806 1435.47,-49.71"/>
</g>
<!-- Node35&#45;&gt;Node32 -->
<g id="edge42" class="edge"><title>Node35&#45;&gt;Node32</title>
<path fill="none" stroke="midnightblue" d="M1461.61,-54.6642C1518.5,-44.4592 1604.45,-29.0386 1657.53,-19.5164"/>
<polygon fill="midnightblue" stroke="midnightblue" points="1460.92,-51.2326 1451.69,-56.4435 1462.16,-58.1226 1460.92,-51.2326"/>
</g>
<!-- Node35&#45;&gt;Node33 -->
<g id="edge43" class="edge"><title>Node35&#45;&gt;Node33</title>
<path fill="none" stroke="midnightblue" d="M1480.11,-56.0646C1556.65,-47.0556 1678.02,-32.7032 1783,-20 1785.92,-19.6472 1788.9,-19.2851 1791.91,-18.9183"/>
<polygon fill="midnightblue" stroke="midnightblue" points="1479.6,-52.6004 1470.08,-57.2451 1480.42,-59.5524 1479.6,-52.6004"/>
</g>
<!-- Node35&#45;&gt;Node34 -->
<g id="edge44" class="edge"><title>Node35&#45;&gt;Node34</title>
<path fill="none" stroke="midnightblue" d="M1339.55,-54.8537C1274.75,-44.6509 1175.95,-29.0977 1115.1,-19.5164"/>
<polygon fill="midnightblue" stroke="midnightblue" points="1339.23,-58.3457 1349.65,-56.4435 1340.32,-51.4309 1339.23,-58.3457"/>
</g>
<!-- Node37&#45;&gt;Node36 -->
<g id="edge48" class="edge"><title>Node37&#45;&gt;Node36</title>
<path fill="none" stroke="midnightblue" d="M1698,-101.805C1698,-92.9102 1698,-82.7798 1698,-75.7511"/>
<polygon fill="midnightblue" stroke="midnightblue" points="1694.5,-102.083 1698,-112.083 1701.5,-102.083 1694.5,-102.083"/>
</g>
<!-- Node38 -->
<g id="node38" class="node"><title>Node38</title>
<g id="a_node38"><a xlink:href="FilterFactory_8cpp.xhtml" target="_top" xlink:title="FilterFactory.cpp">
<polygon fill="none" stroke="black" points="1774,-56.5 1774,-75.5 1864,-75.5 1864,-56.5 1774,-56.5"/>
<text text-anchor="middle" x="1819" y="-63.5" font-family="Helvetica,sans-Serif" font-size="10.00">FilterFactory.cpp</text>
</a>
</g>
</g>
<!-- Node37&#45;&gt;Node38 -->
<g id="edge49" class="edge"><title>Node37&#45;&gt;Node38</title>
<path fill="none" stroke="midnightblue" d="M1726.31,-108.368C1748.97,-98.2553 1780.13,-84.3486 1799.92,-75.5164"/>
<polygon fill="midnightblue" stroke="midnightblue" points="1724.88,-105.172 1717.17,-112.444 1727.73,-111.564 1724.88,-105.172"/>
</g>
<!-- Node42&#45;&gt;Node25 -->
<g id="edge54" class="edge"><title>Node42&#45;&gt;Node25</title>
<path fill="none" stroke="midnightblue" d="M1077.97,-108.906C1051.09,-98.7536 1013.36,-84.5063 989.553,-75.5164"/>
<polygon fill="midnightblue" stroke="midnightblue" points="1076.75,-112.185 1087.34,-112.444 1079.22,-105.636 1076.75,-112.185"/>
</g>
<!-- Node43&#45;&gt;Node19 -->
<g id="edge57" class="edge"><title>Node43&#45;&gt;Node19</title>
<path fill="none" stroke="midnightblue" d="M1156.83,-277.436C1189.26,-267.255 1235.74,-252.664 1264.87,-243.516"/>
<polygon fill="midnightblue" stroke="midnightblue" points="1155.75,-274.109 1147.25,-280.444 1157.84,-280.787 1155.75,-274.109"/>
</g>
<!-- Node44 -->
<g id="node44" class="node"><title>Node44</title>
<g id="a_node44"><a xlink:href="IIRFilter_8cpp.xhtml" target="_top" xlink:title="IIRFilter.cpp">
<polygon fill="none" stroke="black" points="1038.5,-224.5 1038.5,-243.5 1109.5,-243.5 1109.5,-224.5 1038.5,-224.5"/>
<text text-anchor="middle" x="1074" y="-231.5" font-family="Helvetica,sans-Serif" font-size="10.00">IIRFilter.cpp</text>
</a>
</g>
</g>
<!-- Node43&#45;&gt;Node44 -->
<g id="edge56" class="edge"><title>Node43&#45;&gt;Node44</title>
<path fill="none" stroke="midnightblue" d="M1105.89,-272.431C1097.82,-262.967 1088.04,-251.483 1081.45,-243.751"/>
<polygon fill="midnightblue" stroke="midnightblue" points="1103.25,-274.74 1112.4,-280.083 1108.58,-270.201 1103.25,-274.74"/>
</g>
<!-- Node45&#45;&gt;Node19 -->
<g id="edge60" class="edge"><title>Node45&#45;&gt;Node19</title>
<path fill="none" stroke="midnightblue" d="M1229.19,-274.901C1244.78,-264.999 1265.13,-252.071 1278.38,-243.655"/>
<polygon fill="midnightblue" stroke="midnightblue" points="1227.22,-272.007 1220.66,-280.324 1230.97,-277.916 1227.22,-272.007"/>
</g>
<!-- Node46 -->
<g id="node46" class="node"><title>Node46</title>
<g id="a_node46"><a xlink:href="MedianFilter_8cpp.xhtml" target="_top" xlink:title="MedianFilter.cpp">
<polygon fill="none" stroke="black" points="1127.5,-224.5 1127.5,-243.5 1216.5,-243.5 1216.5,-224.5 1127.5,-224.5"/>
<text text-anchor="middle" x="1172" y="-231.5" font-family="Helvetica,sans-Serif" font-size="10.00">MedianFilter.cpp</text>
</a>
</g>
</g>
<!-- Node45&#45;&gt;Node46 -->
<g id="edge59" class="edge"><title>Node45&#45;&gt;Node46</title>
<path fill="none" stroke="midnightblue" d="M1195.7,-271.566C1189.68,-262.275 1182.53,-251.248 1177.67,-243.751"/>
<polygon fill="midnightblue" stroke="midnightblue" points="1192.84,-273.595 1201.22,-280.083 1198.72,-269.788 1192.84,-273.595"/>
</g>
<!-- Node47&#45;&gt;Node19 -->
<g id="edge63" class="edge"><title>Node47&#45;&gt;Node19</title>
<path fill="none" stroke="midnightblue" d="M1299.8,-270.101C1297.81,-261.136 1295.52,-250.858 1293.94,-243.751"/>
<polygon fill="midnightblue" stroke="midnightblue" points="1296.43,-271.08 1302.02,-280.083 1303.27,-269.562 1296.43,-271.08"/>
</g>
<!-- Node48 -->
<g id="node48" class="node"><title>Node48</title>
<g id="a_node48"><a xlink:href="SmoothFilter_8cpp.xhtml" target="_top" xlink:title="SmoothFilter.cpp">
<polygon fill="none" stroke="black" points="1367.5,-224.5 1367.5,-243.5 1458.5,-243.5 1458.5,-224.5 1367.5,-224.5"/>
<text text-anchor="middle" x="1413" y="-231.5" font-family="Helvetica,sans-Serif" font-size="10.00">SmoothFilter.cpp</text>
</a>
</g>
</g>
<!-- Node47&#45;&gt;Node48 -->
<g id="edge62" class="edge"><title>Node47&#45;&gt;Node48</title>
<path fill="none" stroke="midnightblue" d="M1330.52,-275.862C1350.73,-265.849 1377.99,-252.346 1395.53,-243.655"/>
<polygon fill="midnightblue" stroke="midnightblue" points="1328.92,-272.748 1321.51,-280.324 1332.03,-279.021 1328.92,-272.748"/>
</g>
<!-- Node49&#45;&gt;Node19 -->
<g id="edge66" class="edge"><title>Node49&#45;&gt;Node19</title>
<path fill="none" stroke="midnightblue" d="M1391.91,-276.503C1367.54,-266.38 1333.86,-252.388 1312.5,-243.516"/>
<polygon fill="midnightblue" stroke="midnightblue" points="1390.82,-279.84 1401.4,-280.444 1393.51,-273.375 1390.82,-279.84"/>
</g>
<!-- Node50 -->
<g id="node50" class="node"><title>Node50</title>
<g id="a_node50"><a xlink:href="TemporalMedianFilter_8cpp.xhtml" target="_top" xlink:title="TemporalMedianFilter.cpp">
<polygon fill="none" stroke="black" points="1476.5,-224.5 1476.5,-243.5 1605.5,-243.5 1605.5,-224.5 1476.5,-224.5"/>
<text text-anchor="middle" x="1541" y="-231.5" font-family="Helvetica,sans-Serif" font-size="10.00">TemporalMedianFilter.cpp</text>
</a>
</g>
</g>
<!-- Node49&#45;&gt;Node50 -->
<g id="edge65" class="edge"><title>Node49&#45;&gt;Node50</title>
<path fill="none" stroke="midnightblue" d="M1450.14,-276.232C1472.4,-266.131 1502.86,-252.309 1522.23,-243.516"/>
<polygon fill="midnightblue" stroke="midnightblue" points="1448.52,-273.124 1440.86,-280.444 1451.41,-279.498 1448.52,-273.124"/>
</g>
</g>
</svg>
        <g id="navigator" transform="translate(0 0)" fill="#404254">
                <rect fill="#f2f5e9" fill-opacity="0.5" stroke="#606060" stroke-width=".5" x="0" y="0" width="60" height="60"/>
                <use id="zoomplus" xlink:href="#zoomPlus" x="17" y="9" onmousedown="handleZoom(evt,'in')"/>
                <use id="zoomminus" xlink:href="#zoomMin" x="42" y="9" onmousedown="handleZoom(evt,'out')"/>
                <use id="reset" xlink:href="#resetDef" x="30" y="36" onmousedown="handleReset()"/>
                <g id="arrowUp" xlink:href="#dirArrow" transform="translate(30 24)" onmousedown="handlePan(0,-1)">
                  <use xlink:href="#rim" fill="#404040">
                        <set attributeName="fill" to="#808080" begin="arrowUp.mouseover" end="arrowUp.mouseout"/>
                  </use>
                  <path fill="none" stroke="white" stroke-width="1.5" d="M0,-3.0v7 M-2.5,-0.5L0,-3.0L2.5,-0.5"/>
                </g>
                <g id="arrowRight" xlink:href="#dirArrow" transform="rotate(90) translate(36 -43)" onmousedown="handlePan(1,0)">
                  <use xlink:href="#rim" fill="#404040">
                        <set attributeName="fill" to="#808080" begin="arrowRight.mouseover" end="arrowRight.mouseout"/>
                  </use>
                  <path fill="none" stroke="white" stroke-width="1.5" d="M0,-3.0v7 M-2.5,-0.5L0,-3.0L2.5,-0.5"/>
                </g>
                <g id="arrowDown" xlink:href="#dirArrow" transform="rotate(180) translate(-30 -48)" onmousedown="handlePan(0,1)">
                  <use xlink:href="#rim" fill="#404040">
                        <set attributeName="fill" to="#808080" begin="arrowDown.mouseover" end="arrowDown.mouseout"/>
                  </use>
                  <path fill="none" stroke="white" stroke-width="1.5" d="M0,-3.0v7 M-2.5,-0.5L0,-3.0L2.5,-0.5"/>
                </g>
                <g id="arrowLeft" xlink:href="#dirArrow" transform="rotate(270) translate(-36 17)" onmousedown="handlePan(-1,0)">
                  <use xlink:href="#rim" fill="#404040">
                        <set attributeName="fill" to="#808080" begin="arrowLeft.mouseover" end="arrowLeft.mouseout"/>
                  </use>
                  <path fill="none" stroke="white" stroke-width="1.5" d="M0,-3.0v7 M-2.5,-0.5L0,-3.0L2.5,-0.5"/>
                </g>
        </g>
        <svg viewBox="0 0 15 15" width="100%" height="30px" preserveAspectRatio="xMaxYMin meet">
         <g id="arrow_out" transform="scale(0.3 0.3)">
          <a xlink:href="FilterParameter_8h__dep__incl_org.svg" target="_base">
           <rect id="button" ry="5" rx="5" y="6" x="6" height="38" width="38"
                fill="#f2f5e9" fill-opacity="0.5" stroke="#606060" stroke-width="1.0"/>
           <path id="arrow"
             d="M 11.500037,31.436501 C 11.940474,20.09759 22.043105,11.32322 32.158766,21.979434 L 37.068811,17.246167 C 37.068811,17.246167 37.088388,32 37.088388,32 L 22.160133,31.978069 C 22.160133,31.978069 26.997745,27.140456 26.997745,27.140456 C 18.528582,18.264221 13.291696,25.230495 11.500037,31.436501 z"
             style="fill:#404040;"/>
          </a>
         </g>
        </svg>
</svg>
