<?xml version="1.0" encoding="UTF-8" standalone="no"?>
<!DOCTYPE svg PUBLIC "-//W3C//DTD SVG 1.1//EN"
 "http://www.w3.org/Graphics/SVG/1.1/DTD/svg11.dtd">
<!-- Generated by graphviz version 2.36.0 (20140111.2315)
 -->
<!-- Title: Filter.cpp Pages: 1 -->
<svg width="1457pt" height="364pt"
 viewBox="0.00 0.00 1457.11 364.00" xmlns="http://www.w3.org/2000/svg" xmlns:xlink="http://www.w3.org/1999/xlink">
<g id="graph0" class="graph" transform="scale(1 1) rotate(0) translate(4 360)">
<title>Filter.cpp</title>
<!-- Node1 -->
<g id="node1" class="node"><title>Node1</title>
<polygon fill="#bfbfbf" stroke="black" points="915.5,-336.5 915.5,-355.5 972.5,-355.5 972.5,-336.5 915.5,-336.5"/>
<text text-anchor="middle" x="944" y="-343.5" font-family="Helvetica,sans-Serif" font-size="10.00">Filter.cpp</text>
</g>
<!-- Node2 -->
<g id="node2" class="node"><title>Node2</title>
<g id="a_node2"><a xlink:href="Filter_8h.xhtml" target="_top" xlink:title="Filter.h">
<polygon fill="none" stroke="black" points="920.5,-280.5 920.5,-299.5 967.5,-299.5 967.5,-280.5 920.5,-280.5"/>
<text text-anchor="middle" x="944" y="-287.5" font-family="Helvetica,sans-Serif" font-size="10.00">Filter.h</text>
</a>
</g>
</g>
<!-- Node1&#45;&gt;Node2 -->
<g id="edge1" class="edge"><title>Node1&#45;&gt;Node2</title>
<path fill="none" stroke="midnightblue" d="M944,-336.083C944,-329.006 944,-318.861 944,-309.986"/>
<polygon fill="midnightblue" stroke="midnightblue" points="947.5,-309.751 944,-299.751 940.5,-309.751 947.5,-309.751"/>
</g>
<!-- Node3 -->
<g id="node3" class="node"><title>Node3</title>
<g id="a_node3"><a xlink:href="Frame_8h.xhtml" target="_top" xlink:title="Frame.h">
<polygon fill="none" stroke="black" points="655.5,-224.5 655.5,-243.5 708.5,-243.5 708.5,-224.5 655.5,-224.5"/>
<text text-anchor="middle" x="682" y="-231.5" font-family="Helvetica,sans-Serif" font-size="10.00">Frame.h</text>
</a>
</g>
</g>
<!-- Node2&#45;&gt;Node3 -->
<g id="edge2" class="edge"><title>Node2&#45;&gt;Node3</title>
<path fill="none" stroke="midnightblue" d="M920.287,-284.113C874.372,-274.649 773.059,-253.768 718.499,-242.523"/>
<polygon fill="midnightblue" stroke="midnightblue" points="719.061,-239.065 708.56,-240.474 717.648,-245.921 719.061,-239.065"/>
</g>
<!-- Node21 -->
<g id="node21" class="node"><title>Node21</title>
<polygon fill="none" stroke="#bfbfbf" points="741,-0.5 741,-19.5 793,-19.5 793,-0.5 741,-0.5"/>
<text text-anchor="middle" x="767" y="-7.5" font-family="Helvetica,sans-Serif" font-size="10.00">memory</text>
</g>
<!-- Node2&#45;&gt;Node21 -->
<g id="edge47" class="edge"><title>Node2&#45;&gt;Node21</title>
<path fill="none" stroke="midnightblue" d="M967.633,-288.961C1067.28,-288.171 1448,-278.635 1448,-179 1448,-179 1448,-179 1448,-121 1448,-90.9022 1452.46,-74.8583 1429,-56 1380.1,-16.6856 934.93,-11.6954 803.42,-11.081"/>
<polygon fill="midnightblue" stroke="midnightblue" points="803.103,-7.5798 793.089,-11.0389 803.074,-14.5797 803.103,-7.5798"/>
</g>
<!-- Node25 -->
<g id="node25" class="node"><title>Node25</title>
<polygon fill="none" stroke="#bfbfbf" points="1132.5,-56.5 1132.5,-75.5 1215.5,-75.5 1215.5,-56.5 1132.5,-56.5"/>
<text text-anchor="middle" x="1174" y="-63.5" font-family="Helvetica,sans-Serif" font-size="10.00">VoxelExports.h</text>
</g>
<!-- Node2&#45;&gt;Node25 -->
<g id="edge48" class="edge"><title>Node2&#45;&gt;Node25</title>
<path fill="none" stroke="midnightblue" d="M953.016,-280.297C987.647,-246.871 1112.43,-126.425 1157.57,-82.8633"/>
<polygon fill="midnightblue" stroke="midnightblue" points="1160.03,-85.3469 1164.8,-75.8837 1155.17,-80.3103 1160.03,-85.3469"/>
</g>
<!-- Node32 -->
<g id="node32" class="node"><title>Node32</title>
<g id="a_node32"><a xlink:href="FrameBuffer_8h.xhtml" target="_top" xlink:title="FrameBuffer.h">
<polygon fill="none" stroke="black" points="324.5,-168.5 324.5,-187.5 403.5,-187.5 403.5,-168.5 324.5,-168.5"/>
<text text-anchor="middle" x="364" y="-175.5" font-family="Helvetica,sans-Serif" font-size="10.00">FrameBuffer.h</text>
</a>
</g>
</g>
<!-- Node2&#45;&gt;Node32 -->
<g id="edge36" class="edge"><title>Node2&#45;&gt;Node32</title>
<path fill="none" stroke="midnightblue" d="M920.331,-286.053C869.76,-279.62 747.512,-263.334 646,-244 560.74,-227.761 462.138,-203.84 407.023,-190"/>
<polygon fill="midnightblue" stroke="midnightblue" points="407.803,-186.587 397.251,-187.537 406.092,-193.374 407.803,-186.587"/>
</g>
<!-- Node33 -->
<g id="node33" class="node"><title>Node33</title>
<g id="a_node33"><a xlink:href="FilterParameter_8h.xhtml" target="_top" xlink:title="Filter/FilterParameter.h">
<polygon fill="none" stroke="black" points="804,-224.5 804,-243.5 920,-243.5 920,-224.5 804,-224.5"/>
<text text-anchor="middle" x="862" y="-231.5" font-family="Helvetica,sans-Serif" font-size="10.00">Filter/FilterParameter.h</text>
</a>
</g>
</g>
<!-- Node2&#45;&gt;Node33 -->
<g id="edge40" class="edge"><title>Node2&#45;&gt;Node33</title>
<path fill="none" stroke="midnightblue" d="M930.825,-280.324C918.153,-271.979 898.767,-259.212 883.794,-249.352"/>
<polygon fill="midnightblue" stroke="midnightblue" points="885.419,-246.231 875.142,-243.655 881.569,-252.078 885.419,-246.231"/>
</g>
<!-- Node34 -->
<g id="node34" class="node"><title>Node34</title>
<g id="a_node34"><a xlink:href="Logger_8h.xhtml" target="_top" xlink:title="Logger.h">
<polygon fill="none" stroke="black" points="1233,-168.5 1233,-187.5 1287,-187.5 1287,-168.5 1233,-168.5"/>
<text text-anchor="middle" x="1260" y="-175.5" font-family="Helvetica,sans-Serif" font-size="10.00">Logger.h</text>
</a>
</g>
</g>
<!-- Node2&#45;&gt;Node34 -->
<g id="edge42" class="edge"><title>Node2&#45;&gt;Node34</title>
<path fill="none" stroke="midnightblue" d="M967.751,-280.732C1023.2,-261.429 1161.36,-213.335 1225.85,-190.889"/>
<polygon fill="midnightblue" stroke="midnightblue" points="1227.25,-194.108 1235.54,-187.515 1224.94,-187.497 1227.25,-194.108"/>
</g>
<!-- Node4 -->
<g id="node4" class="node"><title>Node4</title>
<g id="a_node4"><a xlink:href="Common_8h.xhtml" target="_top" xlink:title="Common.h">
<polygon fill="none" stroke="black" points="674.5,-112.5 674.5,-131.5 739.5,-131.5 739.5,-112.5 674.5,-112.5"/>
<text text-anchor="middle" x="707" y="-119.5" font-family="Helvetica,sans-Serif" font-size="10.00">Common.h</text>
</a>
</g>
</g>
<!-- Node3&#45;&gt;Node4 -->
<g id="edge3" class="edge"><title>Node3&#45;&gt;Node4</title>
<path fill="none" stroke="midnightblue" d="M684.746,-224.44C687.571,-215.436 691.972,-200.821 695,-188 698.631,-172.624 701.827,-154.988 704.006,-141.969"/>
<polygon fill="midnightblue" stroke="midnightblue" points="707.494,-142.321 705.644,-131.889 700.585,-141.198 707.494,-142.321"/>
</g>
<!-- Node10 -->
<g id="node10" class="node"><title>Node10</title>
<polygon fill="none" stroke="#bfbfbf" points="1234,-56.5 1234,-75.5 1286,-75.5 1286,-56.5 1234,-56.5"/>
<text text-anchor="middle" x="1260" y="-63.5" font-family="Helvetica,sans-Serif" font-size="10.00">sstream</text>
</g>
<!-- Node3&#45;&gt;Node10 -->
<g id="edge35" class="edge"><title>Node3&#45;&gt;Node10</title>
<path fill="none" stroke="midnightblue" d="M708.719,-225.326C802.603,-198.363 1117.44,-107.942 1224.23,-77.2745"/>
<polygon fill="midnightblue" stroke="midnightblue" points="1225.25,-80.6218 1233.89,-74.4973 1223.32,-73.8937 1225.25,-80.6218"/>
</g>
<!-- Node26 -->
<g id="node26" class="node"><title>Node26</title>
<g id="a_node26"><a xlink:href="Point_8h.xhtml" target="_top" xlink:title="Point.h">
<polygon fill="none" stroke="black" points="513.5,-168.5 513.5,-187.5 560.5,-187.5 560.5,-168.5 513.5,-168.5"/>
<text text-anchor="middle" x="537" y="-175.5" font-family="Helvetica,sans-Serif" font-size="10.00">Point.h</text>
</a>
</g>
</g>
<!-- Node3&#45;&gt;Node26 -->
<g id="edge25" class="edge"><title>Node3&#45;&gt;Node26</title>
<path fill="none" stroke="midnightblue" d="M659.024,-224.444C634.843,-215.438 596.582,-201.189 569.354,-191.049"/>
<polygon fill="midnightblue" stroke="midnightblue" points="570.461,-187.727 559.868,-187.516 568.018,-194.286 570.461,-187.727"/>
</g>
<!-- Node29 -->
<g id="node29" class="node"><title>Node29</title>
<g id="a_node29"><a xlink:href="VideoMode_8h.xhtml" target="_top" xlink:title="VideoMode.h">
<polygon fill="none" stroke="black" points="31,-112.5 31,-131.5 105,-131.5 105,-112.5 31,-112.5"/>
<text text-anchor="middle" x="68" y="-119.5" font-family="Helvetica,sans-Serif" font-size="10.00">VideoMode.h</text>
</a>
</g>
</g>
<!-- Node3&#45;&gt;Node29 -->
<g id="edge29" class="edge"><title>Node3&#45;&gt;Node29</title>
<path fill="none" stroke="midnightblue" d="M655.098,-230.957C594.16,-226.055 441.083,-212.204 315,-188 239.585,-173.522 153.168,-148.886 105.148,-134.461"/>
<polygon fill="midnightblue" stroke="midnightblue" points="106.086,-131.089 95.501,-131.545 104.061,-137.789 106.086,-131.089"/>
</g>
<!-- Node30 -->
<g id="node30" class="node"><title>Node30</title>
<g id="a_node30"><a xlink:href="SerializedObject_8h.xhtml" target="_top" xlink:title="SerializedObject.h">
<polygon fill="none" stroke="black" points="590,-168.5 590,-187.5 686,-187.5 686,-168.5 590,-168.5"/>
<text text-anchor="middle" x="638" y="-175.5" font-family="Helvetica,sans-Serif" font-size="10.00">SerializedObject.h</text>
</a>
</g>
</g>
<!-- Node3&#45;&gt;Node30 -->
<g id="edge31" class="edge"><title>Node3&#45;&gt;Node30</title>
<path fill="none" stroke="midnightblue" d="M674.734,-224.083C668.455,-216.377 659.212,-205.033 651.569,-195.653"/>
<polygon fill="midnightblue" stroke="midnightblue" points="654.161,-193.293 645.131,-187.751 648.734,-197.714 654.161,-193.293"/>
</g>
<!-- Node5 -->
<g id="node5" class="node"><title>Node5</title>
<polygon fill="none" stroke="#bfbfbf" points="764,-56.5 764,-75.5 808,-75.5 808,-56.5 764,-56.5"/>
<text text-anchor="middle" x="786" y="-63.5" font-family="Helvetica,sans-Serif" font-size="10.00">vector</text>
</g>
<!-- Node4&#45;&gt;Node5 -->
<g id="edge4" class="edge"><title>Node4&#45;&gt;Node5</title>
<path fill="none" stroke="midnightblue" d="M719.693,-112.324C731.901,-103.979 750.578,-91.2122 765.003,-81.3524"/>
<polygon fill="midnightblue" stroke="midnightblue" points="767.058,-84.1871 773.339,-75.6545 763.108,-78.4082 767.058,-84.1871"/>
</g>
<!-- Node6 -->
<g id="node6" class="node"><title>Node6</title>
<polygon fill="none" stroke="#bfbfbf" points="-0.5,-56.5 -0.5,-75.5 48.5,-75.5 48.5,-56.5 -0.5,-56.5"/>
<text text-anchor="middle" x="24" y="-63.5" font-family="Helvetica,sans-Serif" font-size="10.00">stdint.h</text>
</g>
<!-- Node4&#45;&gt;Node6 -->
<g id="edge5" class="edge"><title>Node4&#45;&gt;Node6</title>
<path fill="none" stroke="midnightblue" d="M674.323,-117.013C659.577,-115.305 641.928,-113.389 626,-112 377.327,-90.3166 309.459,-115.867 58.9025,-75.7947"/>
<polygon fill="midnightblue" stroke="midnightblue" points="59.1924,-72.2961 48.7616,-74.1532 58.0739,-79.2062 59.1924,-72.2961"/>
</g>
<!-- Node7 -->
<g id="node7" class="node"><title>Node7</title>
<polygon fill="none" stroke="#bfbfbf" points="826.5,-56.5 826.5,-75.5 867.5,-75.5 867.5,-56.5 826.5,-56.5"/>
<text text-anchor="middle" x="847" y="-63.5" font-family="Helvetica,sans-Serif" font-size="10.00">string</text>
</g>
<!-- Node4&#45;&gt;Node7 -->
<g id="edge6" class="edge"><title>Node4&#45;&gt;Node7</title>
<path fill="none" stroke="midnightblue" d="M729.183,-112.444C752.839,-103.319 790.449,-88.8125 816.796,-78.6501"/>
<polygon fill="midnightblue" stroke="midnightblue" points="818.219,-81.8526 826.29,-74.9883 815.7,-75.3216 818.219,-81.8526"/>
</g>
<!-- Node8 -->
<g id="node8" class="node"><title>Node8</title>
<polygon fill="none" stroke="#bfbfbf" points="1366,-56.5 1366,-75.5 1420,-75.5 1420,-56.5 1366,-56.5"/>
<text text-anchor="middle" x="1393" y="-63.5" font-family="Helvetica,sans-Serif" font-size="10.00">iostream</text>
</g>
<!-- Node4&#45;&gt;Node8 -->
<g id="edge7" class="edge"><title>Node4&#45;&gt;Node8</title>
<path fill="none" stroke="midnightblue" d="M739.631,-120.686C833.745,-119.367 1113.82,-112.553 1355.59,-75.7536"/>
<polygon fill="midnightblue" stroke="midnightblue" points="1356.28,-79.1899 1365.62,-74.206 1355.21,-72.2717 1356.28,-79.1899"/>
</g>
<!-- Node9 -->
<g id="node9" class="node"><title>Node9</title>
<polygon fill="none" stroke="#bfbfbf" points="886,-56.5 886,-75.5 936,-75.5 936,-56.5 886,-56.5"/>
<text text-anchor="middle" x="911" y="-63.5" font-family="Helvetica,sans-Serif" font-size="10.00">fstream</text>
</g>
<!-- Node4&#45;&gt;Node9 -->
<g id="edge8" class="edge"><title>Node4&#45;&gt;Node9</title>
<path fill="none" stroke="midnightblue" d="M739.324,-112.444C776.658,-102.561 837.848,-86.3639 876.2,-76.2118"/>
<polygon fill="midnightblue" stroke="midnightblue" points="877.13,-79.5863 885.901,-73.6439 875.338,-72.8194 877.13,-79.5863"/>
</g>
<!-- Node4&#45;&gt;Node10 -->
<g id="edge9" class="edge"><title>Node4&#45;&gt;Node10</title>
<path fill="none" stroke="midnightblue" d="M739.589,-119.952C820.077,-116.985 1034.78,-106.758 1223.64,-75.755"/>
<polygon fill="midnightblue" stroke="midnightblue" points="1224.47,-79.1662 1233.75,-74.0708 1223.32,-72.2613 1224.47,-79.1662"/>
</g>
<!-- Node11 -->
<g id="node11" class="node"><title>Node11</title>
<polygon fill="none" stroke="#bfbfbf" points="954.5,-56.5 954.5,-75.5 1037.5,-75.5 1037.5,-56.5 954.5,-56.5"/>
<text text-anchor="middle" x="996" y="-63.5" font-family="Helvetica,sans-Serif" font-size="10.00">unordered_map</text>
</g>
<!-- Node4&#45;&gt;Node11 -->
<g id="edge10" class="edge"><title>Node4&#45;&gt;Node11</title>
<path fill="none" stroke="midnightblue" d="M739.59,-114.91C789.408,-105.602 884.952,-87.7495 944.299,-76.6604"/>
<polygon fill="midnightblue" stroke="midnightblue" points="945.032,-80.084 954.219,-74.8068 943.747,-73.2031 945.032,-80.084"/>
</g>
<!-- Node12 -->
<g id="node12" class="node"><title>Node12</title>
<polygon fill="none" stroke="#bfbfbf" points="1055.5,-56.5 1055.5,-75.5 1114.5,-75.5 1114.5,-56.5 1055.5,-56.5"/>
<text text-anchor="middle" x="1085" y="-63.5" font-family="Helvetica,sans-Serif" font-size="10.00">functional</text>
</g>
<!-- Node4&#45;&gt;Node12 -->
<g id="edge11" class="edge"><title>Node4&#45;&gt;Node12</title>
<path fill="none" stroke="midnightblue" d="M739.886,-117.683C798.972,-111.498 927.16,-97.0517 1045.31,-75.9655"/>
<polygon fill="midnightblue" stroke="midnightblue" points="1046.03,-79.3922 1055.25,-74.1714 1044.79,-72.5035 1046.03,-79.3922"/>
</g>
<!-- Node13 -->
<g id="node13" class="node"><title>Node13</title>
<polygon fill="none" stroke="#bfbfbf" points="196.5,-56.5 196.5,-75.5 225.5,-75.5 225.5,-56.5 196.5,-56.5"/>
<text text-anchor="middle" x="211" y="-63.5" font-family="Helvetica,sans-Serif" font-size="10.00">list</text>
</g>
<!-- Node4&#45;&gt;Node13 -->
<g id="edge12" class="edge"><title>Node4&#45;&gt;Node13</title>
<path fill="none" stroke="midnightblue" d="M674.457,-114.311C669.624,-113.451 664.691,-112.646 660,-112 475.416,-86.5806 421.755,-116.611 235.372,-75.3886"/>
<polygon fill="midnightblue" stroke="midnightblue" points="236.053,-71.9544 225.528,-73.1731 234.516,-78.7835 236.053,-71.9544"/>
</g>
<!-- Node14 -->
<g id="node14" class="node"><title>Node14</title>
<polygon fill="none" stroke="#bfbfbf" points="244,-56.5 244,-75.5 274,-75.5 274,-56.5 244,-56.5"/>
<text text-anchor="middle" x="259" y="-63.5" font-family="Helvetica,sans-Serif" font-size="10.00">set</text>
</g>
<!-- Node4&#45;&gt;Node14 -->
<g id="edge13" class="edge"><title>Node4&#45;&gt;Node14</title>
<path fill="none" stroke="midnightblue" d="M674.45,-114.356C669.618,-113.49 664.688,-112.671 660,-112 496.635,-88.6116 448.858,-112.892 284.04,-75.6314"/>
<polygon fill="midnightblue" stroke="midnightblue" points="284.58,-72.1641 274.049,-73.3306 283.009,-78.9856 284.58,-72.1641"/>
</g>
<!-- Node15 -->
<g id="node15" class="node"><title>Node15</title>
<polygon fill="none" stroke="#bfbfbf" points="292,-56.5 292,-75.5 338,-75.5 338,-56.5 292,-56.5"/>
<text text-anchor="middle" x="315" y="-63.5" font-family="Helvetica,sans-Serif" font-size="10.00">atomic</text>
</g>
<!-- Node4&#45;&gt;Node15 -->
<g id="edge14" class="edge"><title>Node4&#45;&gt;Node15</title>
<path fill="none" stroke="midnightblue" d="M674.438,-114.438C669.608,-113.56 664.681,-112.716 660,-112 524.827,-91.314 486.191,-102.487 348.409,-75.9951"/>
<polygon fill="midnightblue" stroke="midnightblue" points="348.801,-72.5055 338.315,-74.0216 347.457,-79.3754 348.801,-72.5055"/>
</g>
<!-- Node16 -->
<g id="node16" class="node"><title>Node16</title>
<polygon fill="none" stroke="#bfbfbf" points="356,-56.5 356,-75.5 402,-75.5 402,-56.5 356,-56.5"/>
<text text-anchor="middle" x="379" y="-63.5" font-family="Helvetica,sans-Serif" font-size="10.00">cctype</text>
</g>
<!-- Node4&#45;&gt;Node16 -->
<g id="edge15" class="edge"><title>Node4&#45;&gt;Node16</title>
<path fill="none" stroke="midnightblue" d="M674.419,-114.562C669.591,-113.666 664.67,-112.784 660,-112 552.85,-94.0048 522.114,-98.8827 412.152,-76.0134"/>
<polygon fill="midnightblue" stroke="midnightblue" points="412.838,-72.5813 402.331,-73.9418 411.393,-79.4306 412.838,-72.5813"/>
</g>
<!-- Node17 -->
<g id="node17" class="node"><title>Node17</title>
<polygon fill="none" stroke="#bfbfbf" points="123,-56.5 123,-75.5 179,-75.5 179,-56.5 123,-56.5"/>
<text text-anchor="middle" x="151" y="-63.5" font-family="Helvetica,sans-Serif" font-size="10.00">algorithm</text>
</g>
<!-- Node4&#45;&gt;Node17 -->
<g id="edge16" class="edge"><title>Node4&#45;&gt;Node17</title>
<path fill="none" stroke="midnightblue" d="M674.462,-114.275C669.628,-113.419 664.694,-112.626 660,-112 454.285,-84.5652 396.906,-108.902 189.21,-76.134"/>
<polygon fill="midnightblue" stroke="midnightblue" points="189.633,-72.6572 179.205,-74.5301 188.525,-79.569 189.633,-72.6572"/>
</g>
<!-- Node18 -->
<g id="node18" class="node"><title>Node18</title>
<polygon fill="none" stroke="#bfbfbf" points="420.5,-56.5 420.5,-75.5 473.5,-75.5 473.5,-56.5 420.5,-56.5"/>
<text text-anchor="middle" x="447" y="-63.5" font-family="Helvetica,sans-Serif" font-size="10.00">complex</text>
</g>
<!-- Node4&#45;&gt;Node18 -->
<g id="edge17" class="edge"><title>Node4&#45;&gt;Node18</title>
<path fill="none" stroke="midnightblue" d="M674.414,-114.649C624.992,-104.985 532.465,-86.7655 483.467,-76.0013"/>
<polygon fill="midnightblue" stroke="midnightblue" points="484.225,-72.5845 473.703,-73.8233 482.701,-79.4166 484.225,-72.5845"/>
</g>
<!-- Node19 -->
<g id="node19" class="node"><title>Node19</title>
<polygon fill="none" stroke="#bfbfbf" points="1304,-56.5 1304,-75.5 1348,-75.5 1348,-56.5 1304,-56.5"/>
<text text-anchor="middle" x="1326" y="-63.5" font-family="Helvetica,sans-Serif" font-size="10.00">thread</text>
</g>
<!-- Node4&#45;&gt;Node19 -->
<g id="edge18" class="edge"><title>Node4&#45;&gt;Node19</title>
<path fill="none" stroke="midnightblue" d="M739.81,-120.85C828.132,-119.947 1078.24,-114.103 1293.86,-75.8335"/>
<polygon fill="midnightblue" stroke="midnightblue" points="1294.56,-79.2645 1303.78,-74.0458 1293.32,-72.3755 1294.56,-79.2645"/>
</g>
<!-- Node20 -->
<g id="node20" class="node"><title>Node20</title>
<g id="a_node20"><a xlink:href="Ptr_8h.xhtml" target="_top" xlink:title="Ptr.h">
<polygon fill="none" stroke="black" points="67,-56.5 67,-75.5 105,-75.5 105,-56.5 67,-56.5"/>
<text text-anchor="middle" x="86" y="-63.5" font-family="Helvetica,sans-Serif" font-size="10.00">Ptr.h</text>
</a>
</g>
</g>
<!-- Node4&#45;&gt;Node20 -->
<g id="edge19" class="edge"><title>Node4&#45;&gt;Node20</title>
<path fill="none" stroke="midnightblue" d="M674.319,-117.064C659.571,-115.367 641.923,-113.444 626,-112 402.143,-91.7019 339.804,-118.411 115.245,-75.7649"/>
<polygon fill="midnightblue" stroke="midnightblue" points="115.602,-72.2696 105.121,-73.8165 114.279,-79.1434 115.602,-72.2696"/>
</g>
<!-- Node22 -->
<g id="node22" class="node"><title>Node22</title>
<polygon fill="none" stroke="#bfbfbf" points="492,-56.5 492,-75.5 536,-75.5 536,-56.5 492,-56.5"/>
<text text-anchor="middle" x="514" y="-63.5" font-family="Helvetica,sans-Serif" font-size="10.00">mutex</text>
</g>
<!-- Node4&#45;&gt;Node22 -->
<g id="edge21" class="edge"><title>Node4&#45;&gt;Node22</title>
<path fill="none" stroke="midnightblue" d="M675.913,-112.48C645.255,-104.052 596.807,-90.6664 545.88,-76.227"/>
<polygon fill="midnightblue" stroke="midnightblue" points="546.582,-72.7881 536.006,-73.4231 544.67,-79.5219 546.582,-72.7881"/>
</g>
<!-- Node23 -->
<g id="node23" class="node"><title>Node23</title>
<polygon fill="none" stroke="#bfbfbf" points="554.5,-56.5 554.5,-75.5 649.5,-75.5 649.5,-56.5 554.5,-56.5"/>
<text text-anchor="middle" x="602" y="-63.5" font-family="Helvetica,sans-Serif" font-size="10.00">condition_variable</text>
</g>
<!-- Node4&#45;&gt;Node23 -->
<g id="edge22" class="edge"><title>Node4&#45;&gt;Node23</title>
<path fill="none" stroke="midnightblue" d="M690.13,-112.324C673.291,-103.664 647.193,-90.2424 627.762,-80.249"/>
<polygon fill="midnightblue" stroke="midnightblue" points="629.322,-77.1155 618.828,-75.6545 626.12,-83.3405 629.322,-77.1155"/>
</g>
<!-- Node24 -->
<g id="node24" class="node"><title>Node24</title>
<polygon fill="none" stroke="#bfbfbf" points="668,-56.5 668,-75.5 746,-75.5 746,-56.5 668,-56.5"/>
<text text-anchor="middle" x="707" y="-63.5" font-family="Helvetica,sans-Serif" font-size="10.00">VoxelConfig.h</text>
</g>
<!-- Node4&#45;&gt;Node24 -->
<g id="edge23" class="edge"><title>Node4&#45;&gt;Node24</title>
<path fill="none" stroke="midnightblue" d="M707,-112.083C707,-105.006 707,-94.8611 707,-85.9865"/>
<polygon fill="midnightblue" stroke="midnightblue" points="710.5,-85.751 707,-75.7511 703.5,-85.7511 710.5,-85.751"/>
</g>
<!-- Node4&#45;&gt;Node25 -->
<g id="edge24" class="edge"><title>Node4&#45;&gt;Node25</title>
<path fill="none" stroke="midnightblue" d="M739.722,-118.211C808.472,-112.191 973.159,-96.9247 1122.05,-76.0435"/>
<polygon fill="midnightblue" stroke="midnightblue" points="1122.88,-79.4616 1132.29,-74.5953 1121.9,-72.5306 1122.88,-79.4616"/>
</g>
<!-- Node20&#45;&gt;Node21 -->
<g id="edge20" class="edge"><title>Node20&#45;&gt;Node21</title>
<path fill="none" stroke="midnightblue" d="M105.12,-58.1798C108.064,-57.3267 111.092,-56.559 114,-56 345.761,-11.4514 631.253,-9.56739 730.764,-10.4431"/>
<polygon fill="midnightblue" stroke="midnightblue" points="730.853,-13.9442 740.889,-10.5479 730.926,-6.94453 730.853,-13.9442"/>
</g>
<!-- Node26&#45;&gt;Node4 -->
<g id="edge28" class="edge"><title>Node26&#45;&gt;Node4</title>
<path fill="none" stroke="midnightblue" d="M560.638,-169.492C589.08,-160.457 637.149,-145.188 670.399,-134.626"/>
<polygon fill="midnightblue" stroke="midnightblue" points="671.733,-137.875 680.204,-131.512 669.613,-131.203 671.733,-137.875"/>
</g>
<!-- Node27 -->
<g id="node27" class="node"><title>Node27</title>
<polygon fill="none" stroke="#bfbfbf" points="422.5,-112.5 422.5,-131.5 469.5,-131.5 469.5,-112.5 422.5,-112.5"/>
<text text-anchor="middle" x="446" y="-119.5" font-family="Helvetica,sans-Serif" font-size="10.00">math.h</text>
</g>
<!-- Node26&#45;&gt;Node27 -->
<g id="edge26" class="edge"><title>Node26&#45;&gt;Node27</title>
<path fill="none" stroke="midnightblue" d="M522.379,-168.324C508.051,-159.822 485.987,-146.729 469.251,-136.797"/>
<polygon fill="midnightblue" stroke="midnightblue" points="470.97,-133.748 460.584,-131.655 467.398,-139.768 470.97,-133.748"/>
</g>
<!-- Node28 -->
<g id="node28" class="node"><title>Node28</title>
<polygon fill="none" stroke="#bfbfbf" points="488,-112.5 488,-131.5 550,-131.5 550,-112.5 488,-112.5"/>
<text text-anchor="middle" x="519" y="-119.5" font-family="Helvetica,sans-Serif" font-size="10.00">type_traits</text>
</g>
<!-- Node26&#45;&gt;Node28 -->
<g id="edge27" class="edge"><title>Node26&#45;&gt;Node28</title>
<path fill="none" stroke="midnightblue" d="M534.028,-168.083C531.616,-160.849 528.136,-150.409 525.132,-141.397"/>
<polygon fill="midnightblue" stroke="midnightblue" points="528.4,-140.131 521.917,-131.751 521.759,-142.345 528.4,-140.131"/>
</g>
<!-- Node29&#45;&gt;Node6 -->
<g id="edge30" class="edge"><title>Node29&#45;&gt;Node6</title>
<path fill="none" stroke="midnightblue" d="M60.7343,-112.083C54.4552,-104.377 45.2124,-93.0333 37.5692,-83.6531"/>
<polygon fill="midnightblue" stroke="midnightblue" points="40.1606,-81.2926 31.1305,-75.7511 34.7339,-85.7143 40.1606,-81.2926"/>
</g>
<!-- Node30&#45;&gt;Node4 -->
<g id="edge32" class="edge"><title>Node30&#45;&gt;Node4</title>
<path fill="none" stroke="midnightblue" d="M649.086,-168.324C659.486,-160.185 675.261,-147.839 687.722,-138.087"/>
<polygon fill="midnightblue" stroke="midnightblue" points="689.994,-140.753 695.712,-131.834 685.68,-135.241 689.994,-140.753"/>
</g>
<!-- Node30&#45;&gt;Node17 -->
<g id="edge34" class="edge"><title>Node30&#45;&gt;Node17</title>
<path fill="none" stroke="midnightblue" d="M639.351,-168.289C640.994,-154.141 641.833,-126.314 626,-112 591.467,-80.782 269.141,-83.5842 189.485,-75.8023"/>
<polygon fill="midnightblue" stroke="midnightblue" points="189.565,-72.2851 179.208,-74.5142 188.695,-79.2308 189.565,-72.2851"/>
</g>
<!-- Node31 -->
<g id="node31" class="node"><title>Node31</title>
<polygon fill="none" stroke="#bfbfbf" points="568.5,-112.5 568.5,-131.5 617.5,-131.5 617.5,-112.5 568.5,-112.5"/>
<text text-anchor="middle" x="593" y="-119.5" font-family="Helvetica,sans-Serif" font-size="10.00">string.h</text>
</g>
<!-- Node30&#45;&gt;Node31 -->
<g id="edge33" class="edge"><title>Node30&#45;&gt;Node31</title>
<path fill="none" stroke="midnightblue" d="M630.569,-168.083C624.147,-160.377 614.694,-149.033 606.878,-139.653"/>
<polygon fill="midnightblue" stroke="midnightblue" points="609.383,-137.193 600.293,-131.751 604.006,-141.674 609.383,-137.193"/>
</g>
<!-- Node32&#45;&gt;Node4 -->
<g id="edge38" class="edge"><title>Node32&#45;&gt;Node4</title>
<path fill="none" stroke="midnightblue" d="M403.682,-170.753C468.629,-160.528 597.087,-140.304 664.079,-129.757"/>
<polygon fill="midnightblue" stroke="midnightblue" points="664.95,-133.163 674.284,-128.151 663.861,-126.248 664.95,-133.163"/>
</g>
<!-- Node32&#45;&gt;Node17 -->
<g id="edge39" class="edge"><title>Node32&#45;&gt;Node17</title>
<path fill="none" stroke="midnightblue" d="M347.286,-168.368C310.191,-149.211 220.778,-103.036 176.593,-80.2172"/>
<polygon fill="midnightblue" stroke="midnightblue" points="178.127,-77.0702 167.636,-75.5914 174.915,-83.2898 178.127,-77.0702"/>
</g>
<!-- Node32&#45;&gt;Node20 -->
<g id="edge37" class="edge"><title>Node32&#45;&gt;Node20</title>
<path fill="none" stroke="midnightblue" d="M337.597,-168.441C311.372,-159.787 270.114,-145.761 235,-132 192.27,-115.254 143.703,-93.5551 113.957,-79.9525"/>
<polygon fill="midnightblue" stroke="midnightblue" points="115.175,-76.6604 104.626,-75.6688 112.254,-83.022 115.175,-76.6604"/>
</g>
<!-- Node33&#45;&gt;Node4 -->
<g id="edge41" class="edge"><title>Node33&#45;&gt;Node4</title>
<path fill="none" stroke="midnightblue" d="M849.837,-224.368C823.353,-205.573 760.219,-160.768 727.479,-137.533"/>
<polygon fill="midnightblue" stroke="midnightblue" points="729.287,-134.525 719.106,-131.591 725.236,-140.233 729.287,-134.525"/>
</g>
<!-- Node34&#45;&gt;Node4 -->
<g id="edge46" class="edge"><title>Node34&#45;&gt;Node4</title>
<path fill="none" stroke="midnightblue" d="M1232.95,-174.359C1143.78,-165.651 858.551,-137.799 749.735,-127.173"/>
<polygon fill="midnightblue" stroke="midnightblue" points="750.06,-123.688 739.768,-126.2 749.38,-130.655 750.06,-123.688"/>
</g>
<!-- Node34&#45;&gt;Node8 -->
<g id="edge43" class="edge"><title>Node34&#45;&gt;Node8</title>
<path fill="none" stroke="midnightblue" d="M1270.44,-168.368C1292.97,-149.733 1346.41,-105.532 1374.7,-82.1338"/>
<polygon fill="midnightblue" stroke="midnightblue" points="1377.14,-84.6618 1382.61,-75.5914 1372.68,-79.2677 1377.14,-84.6618"/>
</g>
<!-- Node34&#45;&gt;Node10 -->
<g id="edge44" class="edge"><title>Node34&#45;&gt;Node10</title>
<path fill="none" stroke="midnightblue" d="M1260,-168.368C1260,-150.617 1260,-109.666 1260,-85.5974"/>
<polygon fill="midnightblue" stroke="midnightblue" points="1263.5,-85.5914 1260,-75.5914 1256.5,-85.5915 1263.5,-85.5914"/>
</g>
<!-- Node34&#45;&gt;Node19 -->
<g id="edge45" class="edge"><title>Node34&#45;&gt;Node19</title>
<path fill="none" stroke="midnightblue" d="M1265.18,-168.368C1276.02,-150.296 1301.29,-108.176 1315.62,-84.3074"/>
<polygon fill="midnightblue" stroke="midnightblue" points="1318.7,-85.9671 1320.85,-75.5914 1312.7,-82.3656 1318.7,-85.9671"/>
</g>
</g>
</svg>
