<?xml version="1.0" encoding="UTF-8" standalone="no"?>
<!DOCTYPE svg PUBLIC "-//W3C//DTD SVG 1.1//EN"
 "http://www.w3.org/Graphics/SVG/1.1/DTD/svg11.dtd">
<!-- Generated by graphviz version 2.36.0 (20140111.2315)
 -->
<!-- Title: FilterSet.h Pages: 1 -->
<svg width="2646pt" height="364pt"
 viewBox="0.00 0.00 2645.90 364.00" xmlns="http://www.w3.org/2000/svg" xmlns:xlink="http://www.w3.org/1999/xlink">
<g id="graph0" class="graph" transform="scale(1 1) rotate(0) translate(4 360)">
<title>FilterSet.h</title>
<!-- Node1 -->
<g id="node1" class="node"><title>Node1</title>
<polygon fill="#bfbfbf" stroke="black" points="974.895,-336.5 974.895,-355.5 1036.9,-355.5 1036.9,-336.5 974.895,-336.5"/>
<text text-anchor="middle" x="1005.9" y="-343.5" font-family="Helvetica,sans-Serif" font-size="10.00">FilterSet.h</text>
</g>
<!-- Node2 -->
<g id="node2" class="node"><title>Node2</title>
<g id="a_node2"><a xlink:href="DepthCamera_8h.xhtml" target="_top" xlink:title="DepthCamera.h">
<polygon fill="none" stroke="black" points="962.895,-280.5 962.895,-299.5 1048.9,-299.5 1048.9,-280.5 962.895,-280.5"/>
<text text-anchor="middle" x="1005.9" y="-287.5" font-family="Helvetica,sans-Serif" font-size="10.00">DepthCamera.h</text>
</a>
</g>
</g>
<!-- Node1&#45;&gt;Node2 -->
<g id="edge1" class="edge"><title>Node1&#45;&gt;Node2</title>
<path fill="none" stroke="midnightblue" d="M1005.9,-325.805C1005.9,-316.91 1005.9,-306.78 1005.9,-299.751"/>
<polygon fill="midnightblue" stroke="midnightblue" points="1002.4,-326.083 1005.9,-336.083 1009.4,-326.083 1002.4,-326.083"/>
</g>
<!-- Node3 -->
<g id="node3" class="node"><title>Node3</title>
<g id="a_node3"><a xlink:href="PCLViewer_8h.xhtml" target="_top" xlink:title="PCLViewer.h">
<polygon fill="none" stroke="black" points="200.895,-112.5 200.895,-131.5 274.895,-131.5 274.895,-112.5 200.895,-112.5"/>
<text text-anchor="middle" x="237.895" y="-119.5" font-family="Helvetica,sans-Serif" font-size="10.00">PCLViewer.h</text>
</a>
</g>
</g>
<!-- Node2&#45;&gt;Node3 -->
<g id="edge2" class="edge"><title>Node2&#45;&gt;Node3</title>
<path fill="none" stroke="midnightblue" d="M952.646,-287.556C860.896,-284.324 667.396,-274.23 506.895,-244 419.123,-227.468 392.491,-230.425 313.895,-188 285.783,-172.825 258.82,-145.885 245.878,-131.932"/>
<polygon fill="midnightblue" stroke="midnightblue" points="952.68,-291.059 962.793,-287.9 952.917,-284.063 952.68,-291.059"/>
</g>
<!-- Node9 -->
<g id="node9" class="node"><title>Node9</title>
<g id="a_node9"><a xlink:href="ToFCameraBase_8h.xhtml" target="_top" xlink:title="ToFCameraBase.h">
<polygon fill="none" stroke="black" points="1083.4,-224.5 1083.4,-243.5 1182.4,-243.5 1182.4,-224.5 1083.4,-224.5"/>
<text text-anchor="middle" x="1132.9" y="-231.5" font-family="Helvetica,sans-Serif" font-size="10.00">ToFCameraBase.h</text>
</a>
</g>
</g>
<!-- Node2&#45;&gt;Node9 -->
<g id="edge8" class="edge"><title>Node2&#45;&gt;Node9</title>
<path fill="none" stroke="midnightblue" d="M1035.29,-276.503C1059.1,-266.38 1092,-252.388 1112.87,-243.516"/>
<polygon fill="midnightblue" stroke="midnightblue" points="1033.85,-273.31 1026.02,-280.444 1036.59,-279.751 1033.85,-273.31"/>
</g>
<!-- Node26 -->
<g id="node26" class="node"><title>Node26</title>
<g id="a_node26"><a xlink:href="DepthCamera_8cpp.xhtml" target="_top" xlink:title="DepthCamera.cpp">
<polygon fill="none" stroke="black" points="1200.9,-224.5 1200.9,-243.5 1296.9,-243.5 1296.9,-224.5 1200.9,-224.5"/>
<text text-anchor="middle" x="1248.9" y="-231.5" font-family="Helvetica,sans-Serif" font-size="10.00">DepthCamera.cpp</text>
</a>
</g>
</g>
<!-- Node2&#45;&gt;Node26 -->
<g id="edge25" class="edge"><title>Node2&#45;&gt;Node26</title>
<path fill="none" stroke="midnightblue" d="M1054.42,-278.217C1100.33,-268.013 1168.34,-252.901 1210.57,-243.516"/>
<polygon fill="midnightblue" stroke="midnightblue" points="1053.4,-274.858 1044.4,-280.444 1054.92,-281.691 1053.4,-274.858"/>
</g>
<!-- Node27 -->
<g id="node27" class="node"><title>Node27</title>
<g id="a_node27"><a xlink:href="DepthCameraFactory_8h.xhtml" target="_top" xlink:title="DepthCameraFactory.h">
<polygon fill="none" stroke="black" points="946.395,-224.5 946.395,-243.5 1065.4,-243.5 1065.4,-224.5 946.395,-224.5"/>
<text text-anchor="middle" x="1005.9" y="-231.5" font-family="Helvetica,sans-Serif" font-size="10.00">DepthCameraFactory.h</text>
</a>
</g>
</g>
<!-- Node2&#45;&gt;Node27 -->
<g id="edge26" class="edge"><title>Node2&#45;&gt;Node27</title>
<path fill="none" stroke="midnightblue" d="M1005.9,-269.805C1005.9,-260.91 1005.9,-250.78 1005.9,-243.751"/>
<polygon fill="midnightblue" stroke="midnightblue" points="1002.4,-270.083 1005.9,-280.083 1009.4,-270.083 1002.4,-270.083"/>
</g>
<!-- Node41 -->
<g id="node41" class="node"><title>Node41</title>
<g id="a_node41"><a xlink:href="FrameStream_8cpp.xhtml" target="_top" xlink:title="FrameStream.cpp">
<polygon fill="none" stroke="black" points="629.395,-56.5 629.395,-75.5 724.395,-75.5 724.395,-56.5 629.395,-56.5"/>
<text text-anchor="middle" x="676.895" y="-63.5" font-family="Helvetica,sans-Serif" font-size="10.00">FrameStream.cpp</text>
</a>
</g>
</g>
<!-- Node2&#45;&gt;Node41 -->
<g id="edge61" class="edge"><title>Node2&#45;&gt;Node41</title>
<path fill="none" stroke="midnightblue" d="M980.52,-275.717C933.042,-250.405 828.314,-192.375 747.895,-132 723.572,-113.739 697.947,-88.5897 685.166,-75.5762"/>
<polygon fill="midnightblue" stroke="midnightblue" points="979.016,-278.882 989.491,-280.473 982.295,-272.697 979.016,-278.882"/>
</g>
<!-- Node43 -->
<g id="node43" class="node"><title>Node43</title>
<g id="a_node43"><a xlink:href="FilterFactory_8h.xhtml" target="_top" xlink:title="FilterFactory.h">
<polygon fill="none" stroke="black" points="515.895,-224.5 515.895,-243.5 595.895,-243.5 595.895,-224.5 515.895,-224.5"/>
<text text-anchor="middle" x="555.895" y="-231.5" font-family="Helvetica,sans-Serif" font-size="10.00">FilterFactory.h</text>
</a>
</g>
</g>
<!-- Node2&#45;&gt;Node43 -->
<g id="edge55" class="edge"><title>Node2&#45;&gt;Node43</title>
<path fill="none" stroke="midnightblue" d="M952.625,-282.608C861.398,-271.66 677.255,-249.563 595.989,-239.811"/>
<polygon fill="midnightblue" stroke="midnightblue" points="952.401,-286.106 962.747,-283.822 953.235,-279.156 952.401,-286.106"/>
</g>
<!-- Node47 -->
<g id="node47" class="node"><title>Node47</title>
<g id="a_node47"><a xlink:href="PointCloudFrameGenerator_8cpp.xhtml" target="_top" xlink:title="PointCloudFrameGenerator.cpp">
<polygon fill="none" stroke="black" points="1314.9,-224.5 1314.9,-243.5 1468.9,-243.5 1468.9,-224.5 1314.9,-224.5"/>
<text text-anchor="middle" x="1391.9" y="-231.5" font-family="Helvetica,sans-Serif" font-size="10.00">PointCloudFrameGenerator.cpp</text>
</a>
</g>
</g>
<!-- Node2&#45;&gt;Node47 -->
<g id="edge62" class="edge"><title>Node2&#45;&gt;Node47</title>
<path fill="none" stroke="midnightblue" d="M1059.14,-281.551C1130.31,-271.595 1256.13,-253.993 1330.99,-243.521"/>
<polygon fill="midnightblue" stroke="midnightblue" points="1058.47,-278.111 1049.05,-282.963 1059.44,-285.043 1058.47,-278.111"/>
</g>
<!-- Node48 -->
<g id="node48" class="node"><title>Node48</title>
<g id="a_node48"><a xlink:href="PyDepthCameraCallback_8h.xhtml" target="_top" xlink:title="PyDepthCameraCallback.h">
<polygon fill="none" stroke="black" points="1486.9,-224.5 1486.9,-243.5 1622.9,-243.5 1622.9,-224.5 1486.9,-224.5"/>
<text text-anchor="middle" x="1554.9" y="-231.5" font-family="Helvetica,sans-Serif" font-size="10.00">PyDepthCameraCallback.h</text>
</a>
</g>
</g>
<!-- Node2&#45;&gt;Node48 -->
<g id="edge63" class="edge"><title>Node2&#45;&gt;Node48</title>
<path fill="none" stroke="midnightblue" d="M1059.42,-284.271C1146.98,-276.452 1326.28,-260.086 1477.9,-244 1480.84,-243.688 1483.85,-243.362 1486.88,-243.029"/>
<polygon fill="midnightblue" stroke="midnightblue" points="1058.85,-280.808 1049.2,-285.182 1059.47,-287.78 1058.85,-280.808"/>
</g>
<!-- Node49 -->
<g id="node49" class="node"><title>Node49</title>
<g id="a_node49"><a xlink:href="PCLGrabber_8h.xhtml" target="_top" xlink:title="PCLGrabber.h">
<polygon fill="none" stroke="black" points="61.3951,-112.5 61.3951,-131.5 140.395,-131.5 140.395,-112.5 61.3951,-112.5"/>
<text text-anchor="middle" x="100.895" y="-119.5" font-family="Helvetica,sans-Serif" font-size="10.00">PCLGrabber.h</text>
</a>
</g>
</g>
<!-- Node2&#45;&gt;Node49 -->
<g id="edge64" class="edge"><title>Node2&#45;&gt;Node49</title>
<path fill="none" stroke="midnightblue" d="M952.125,-287.157C823.952,-282.42 503.352,-268.442 398.895,-244 286.078,-217.602 160.366,-154.502 116.782,-131.541"/>
<polygon fill="midnightblue" stroke="midnightblue" points="952.348,-290.668 962.469,-287.535 952.604,-283.672 952.348,-290.668"/>
</g>
<!-- Node4 -->
<g id="node4" class="node"><title>Node4</title>
<g id="a_node4"><a xlink:href="CLIManager_8h.xhtml" target="_top" xlink:title="CLIManager.h">
<polygon fill="none" stroke="black" points="362.895,-56.5 362.895,-75.5 440.895,-75.5 440.895,-56.5 362.895,-56.5"/>
<text text-anchor="middle" x="401.895" y="-63.5" font-family="Helvetica,sans-Serif" font-size="10.00">CLIManager.h</text>
</a>
</g>
</g>
<!-- Node3&#45;&gt;Node4 -->
<g id="edge3" class="edge"><title>Node3&#45;&gt;Node4</title>
<path fill="none" stroke="midnightblue" d="M273.415,-109.304C304.317,-99.1294 348.369,-84.6246 376.03,-75.5164"/>
<polygon fill="midnightblue" stroke="midnightblue" points="272.285,-105.992 263.881,-112.444 274.474,-112.64 272.285,-105.992"/>
</g>
<!-- Node7 -->
<g id="node7" class="node"><title>Node7</title>
<g id="a_node7"><a xlink:href="PCLViewer_8cpp.xhtml" target="_top" xlink:title="PCLViewer.cpp">
<polygon fill="none" stroke="black" points="121.395,-56.5 121.395,-75.5 206.395,-75.5 206.395,-56.5 121.395,-56.5"/>
<text text-anchor="middle" x="163.895" y="-63.5" font-family="Helvetica,sans-Serif" font-size="10.00">PCLViewer.cpp</text>
</a>
</g>
</g>
<!-- Node3&#45;&gt;Node7 -->
<g id="edge6" class="edge"><title>Node3&#45;&gt;Node7</title>
<path fill="none" stroke="midnightblue" d="M217.861,-106.38C204.486,-96.6204 187.336,-84.1057 176.001,-75.8339"/>
<polygon fill="midnightblue" stroke="midnightblue" points="215.865,-109.257 226.006,-112.324 219.991,-103.602 215.865,-109.257"/>
</g>
<!-- Node8 -->
<g id="node8" class="node"><title>Node8</title>
<g id="a_node8"><a xlink:href="SimpleVoxelViewer_8cpp.xhtml" target="_top" xlink:title="SimpleVoxelViewer.cpp">
<polygon fill="none" stroke="black" points="224.895,-56.5 224.895,-75.5 344.895,-75.5 344.895,-56.5 224.895,-56.5"/>
<text text-anchor="middle" x="284.895" y="-63.5" font-family="Helvetica,sans-Serif" font-size="10.00">SimpleVoxelViewer.cpp</text>
</a>
</g>
</g>
<!-- Node3&#45;&gt;Node8 -->
<g id="edge7" class="edge"><title>Node3&#45;&gt;Node8</title>
<path fill="none" stroke="midnightblue" d="M252.316,-104.431C260.553,-94.9673 270.549,-83.4827 277.278,-75.7511"/>
<polygon fill="midnightblue" stroke="midnightblue" points="249.581,-102.242 245.656,-112.083 254.862,-106.838 249.581,-102.242"/>
</g>
<!-- Node5 -->
<g id="node5" class="node"><title>Node5</title>
<g id="a_node5"><a xlink:href="CLIManager_8cpp.xhtml" target="_top" xlink:title="CLIManager.cpp">
<polygon fill="none" stroke="black" points="98.3951,-0.5 98.3951,-19.5 187.395,-19.5 187.395,-0.5 98.3951,-0.5"/>
<text text-anchor="middle" x="142.895" y="-7.5" font-family="Helvetica,sans-Serif" font-size="10.00">CLIManager.cpp</text>
</a>
</g>
</g>
<!-- Node4&#45;&gt;Node5 -->
<g id="edge4" class="edge"><title>Node4&#45;&gt;Node5</title>
<path fill="none" stroke="midnightblue" d="M352.817,-54.7676C303.962,-44.5814 229.828,-29.125 183.983,-19.5666"/>
<polygon fill="midnightblue" stroke="midnightblue" points="352.336,-58.2424 362.84,-56.8572 353.765,-51.3897 352.336,-58.2424"/>
</g>
<!-- Node6 -->
<g id="node6" class="node"><title>Node6</title>
<g id="a_node6"><a xlink:href="VoxelCLI_8cpp.xhtml" target="_top" xlink:title="VoxelCLI.cpp">
<polygon fill="none" stroke="black" points="457.895,-0.5 457.895,-19.5 533.895,-19.5 533.895,-0.5 457.895,-0.5"/>
<text text-anchor="middle" x="495.895" y="-7.5" font-family="Helvetica,sans-Serif" font-size="10.00">VoxelCLI.cpp</text>
</a>
</g>
</g>
<!-- Node4&#45;&gt;Node6 -->
<g id="edge5" class="edge"><title>Node4&#45;&gt;Node6</title>
<path fill="none" stroke="midnightblue" d="M425.957,-51.1774C443.254,-41.2407 466.043,-28.1492 480.83,-19.6545"/>
<polygon fill="midnightblue" stroke="midnightblue" points="423.925,-48.3078 416.998,-56.324 427.412,-54.3775 423.925,-48.3078"/>
</g>
<!-- Node10 -->
<g id="node10" class="node"><title>Node10</title>
<g id="a_node10"><a xlink:href="ToFCamera_8h.xhtml" target="_top" xlink:title="ToFCamera.h">
<polygon fill="none" stroke="black" points="2013.4,-168.5 2013.4,-187.5 2090.4,-187.5 2090.4,-168.5 2013.4,-168.5"/>
<text text-anchor="middle" x="2051.9" y="-175.5" font-family="Helvetica,sans-Serif" font-size="10.00">ToFCamera.h</text>
</a>
</g>
</g>
<!-- Node9&#45;&gt;Node10 -->
<g id="edge9" class="edge"><title>Node9&#45;&gt;Node10</title>
<path fill="none" stroke="midnightblue" d="M1192.46,-224.061C1515.8,-191.507 1893.12,-181.994 2013.22,-179.659"/>
<polygon fill="midnightblue" stroke="midnightblue" points="1192.02,-220.588 1182.42,-225.081 1192.73,-227.552 1192.02,-220.588"/>
</g>
<!-- Node25 -->
<g id="node25" class="node"><title>Node25</title>
<g id="a_node25"><a xlink:href="ToFCameraBase_8cpp.xhtml" target="_top" xlink:title="ToFCameraBase.cpp">
<polygon fill="none" stroke="black" points="2108.9,-168.5 2108.9,-187.5 2218.9,-187.5 2218.9,-168.5 2108.9,-168.5"/>
<text text-anchor="middle" x="2163.9" y="-175.5" font-family="Helvetica,sans-Serif" font-size="10.00">ToFCameraBase.cpp</text>
</a>
</g>
</g>
<!-- Node9&#45;&gt;Node25 -->
<g id="edge24" class="edge"><title>Node9&#45;&gt;Node25</title>
<path fill="none" stroke="midnightblue" d="M1192.59,-224.067C1595.22,-186.151 1700.39,-223.412 2098.9,-188 2102.07,-187.718 2105.33,-187.389 2108.62,-187.029"/>
<polygon fill="midnightblue" stroke="midnightblue" points="1192.04,-220.603 1182.42,-225.035 1192.71,-227.572 1192.04,-220.603"/>
</g>
<!-- Node11 -->
<g id="node11" class="node"><title>Node11</title>
<g id="a_node11"><a xlink:href="ToFCalculusCamera_8h.xhtml" target="_top" xlink:title="ToFCalculusCamera.h">
<polygon fill="none" stroke="black" points="1857.4,-112.5 1857.4,-131.5 1972.4,-131.5 1972.4,-112.5 1857.4,-112.5"/>
<text text-anchor="middle" x="1914.9" y="-119.5" font-family="Helvetica,sans-Serif" font-size="10.00">ToFCalculusCamera.h</text>
</a>
</g>
</g>
<!-- Node10&#45;&gt;Node11 -->
<g id="edge10" class="edge"><title>Node10&#45;&gt;Node11</title>
<path fill="none" stroke="midnightblue" d="M2020.87,-164.772C1995.14,-154.629 1959.21,-140.467 1936.5,-131.516"/>
<polygon fill="midnightblue" stroke="midnightblue" points="2019.6,-168.033 2030.19,-168.444 2022.17,-161.52 2019.6,-168.033"/>
</g>
<!-- Node15 -->
<g id="node15" class="node"><title>Node15</title>
<g id="a_node15"><a xlink:href="ToFCamera_8cpp.xhtml" target="_top" xlink:title="ToFCamera.cpp">
<polygon fill="none" stroke="black" points="2250.4,-112.5 2250.4,-131.5 2337.4,-131.5 2337.4,-112.5 2250.4,-112.5"/>
<text text-anchor="middle" x="2293.9" y="-119.5" font-family="Helvetica,sans-Serif" font-size="10.00">ToFCamera.cpp</text>
</a>
</g>
</g>
<!-- Node10&#45;&gt;Node15 -->
<g id="edge14" class="edge"><title>Node10&#45;&gt;Node15</title>
<path fill="none" stroke="midnightblue" d="M2100.22,-166.217C2145.95,-156.013 2213.67,-140.901 2255.73,-131.516"/>
<polygon fill="midnightblue" stroke="midnightblue" points="2099.24,-162.85 2090.24,-168.444 2100.76,-169.682 2099.24,-162.85"/>
</g>
<!-- Node16 -->
<g id="node16" class="node"><title>Node16</title>
<g id="a_node16"><a xlink:href="ToFCameraFactoryBase_8cpp.xhtml" target="_top" xlink:title="ToFCameraFactoryBase.cpp">
<polygon fill="none" stroke="black" points="1696.4,-112.5 1696.4,-131.5 1839.4,-131.5 1839.4,-112.5 1696.4,-112.5"/>
<text text-anchor="middle" x="1767.9" y="-119.5" font-family="Helvetica,sans-Serif" font-size="10.00">ToFCameraFactoryBase.cpp</text>
</a>
</g>
</g>
<!-- Node10&#45;&gt;Node16 -->
<g id="edge15" class="edge"><title>Node10&#45;&gt;Node16</title>
<path fill="none" stroke="midnightblue" d="M2003.39,-167.778C1950.02,-157.63 1864.93,-141.451 1812.97,-131.57"/>
<polygon fill="midnightblue" stroke="midnightblue" points="2002.82,-171.231 2013.3,-169.661 2004.13,-164.355 2002.82,-171.231"/>
</g>
<!-- Node17 -->
<g id="node17" class="node"><title>Node17</title>
<g id="a_node17"><a xlink:href="ToFDepthFrameGenerator_8cpp.xhtml" target="_top" xlink:title="ToFDepthFrameGenerator.cpp">
<polygon fill="none" stroke="black" points="2355.4,-112.5 2355.4,-131.5 2504.4,-131.5 2504.4,-112.5 2355.4,-112.5"/>
<text text-anchor="middle" x="2429.9" y="-119.5" font-family="Helvetica,sans-Serif" font-size="10.00">ToFDepthFrameGenerator.cpp</text>
</a>
</g>
</g>
<!-- Node10&#45;&gt;Node17 -->
<g id="edge16" class="edge"><title>Node10&#45;&gt;Node17</title>
<path fill="none" stroke="midnightblue" d="M2100.78,-167.928C2196.41,-152.596 2295.28,-139.615 2359.9,-131.518"/>
<polygon fill="midnightblue" stroke="midnightblue" points="2099.95,-164.515 2090.64,-169.564 2101.07,-171.426 2099.95,-164.515"/>
</g>
<!-- Node18 -->
<g id="node18" class="node"><title>Node18</title>
<g id="a_node18"><a xlink:href="ToFFrameGenerator_8cpp.xhtml" target="_top" xlink:title="ToFFrameGenerator.cpp">
<polygon fill="none" stroke="black" points="1990.4,-112.5 1990.4,-131.5 2113.4,-131.5 2113.4,-112.5 1990.4,-112.5"/>
<text text-anchor="middle" x="2051.9" y="-119.5" font-family="Helvetica,sans-Serif" font-size="10.00">ToFFrameGenerator.cpp</text>
</a>
</g>
</g>
<!-- Node10&#45;&gt;Node18 -->
<g id="edge17" class="edge"><title>Node10&#45;&gt;Node18</title>
<path fill="none" stroke="midnightblue" d="M2051.9,-157.805C2051.9,-148.91 2051.9,-138.78 2051.9,-131.751"/>
<polygon fill="midnightblue" stroke="midnightblue" points="2048.4,-158.083 2051.9,-168.083 2055.4,-158.083 2048.4,-158.083"/>
</g>
<!-- Node19 -->
<g id="node19" class="node"><title>Node19</title>
<g id="a_node19"><a xlink:href="ToFHaddockCamera_8h.xhtml" target="_top" xlink:title="ToFHaddockCamera.h">
<polygon fill="none" stroke="red" points="2521.9,-112.5 2521.9,-131.5 2637.9,-131.5 2637.9,-112.5 2521.9,-112.5"/>
<text text-anchor="middle" x="2579.9" y="-119.5" font-family="Helvetica,sans-Serif" font-size="10.00">ToFHaddockCamera.h</text>
</a>
</g>
</g>
<!-- Node10&#45;&gt;Node19 -->
<g id="edge18" class="edge"><title>Node10&#45;&gt;Node19</title>
<path fill="none" stroke="midnightblue" d="M2100.6,-168.042C2284.15,-143.309 2332.98,-151.914 2512.9,-132 2515.81,-131.677 2518.8,-131.332 2521.81,-130.971"/>
<polygon fill="midnightblue" stroke="midnightblue" points="2100.05,-164.584 2090.61,-169.402 2101,-171.52 2100.05,-164.584"/>
</g>
<!-- Node24 -->
<g id="node24" class="node"><title>Node24</title>
<g id="a_node24"><a xlink:href="ToFTintinCamera_8h.xhtml" target="_top" xlink:title="ToFTintinCamera.h">
<polygon fill="none" stroke="red" points="2131.4,-112.5 2131.4,-131.5 2232.4,-131.5 2232.4,-112.5 2131.4,-112.5"/>
<text text-anchor="middle" x="2181.9" y="-119.5" font-family="Helvetica,sans-Serif" font-size="10.00">ToFTintinCamera.h</text>
</a>
</g>
</g>
<!-- Node10&#45;&gt;Node24 -->
<g id="edge23" class="edge"><title>Node10&#45;&gt;Node24</title>
<path fill="none" stroke="midnightblue" d="M2081.98,-164.503C2106.35,-154.38 2140.04,-140.388 2161.39,-131.516"/>
<polygon fill="midnightblue" stroke="midnightblue" points="2080.39,-161.375 2072.49,-168.444 2083.07,-167.84 2080.39,-161.375"/>
</g>
<!-- Node12 -->
<g id="node12" class="node"><title>Node12</title>
<g id="a_node12"><a xlink:href="CalculusCDKCamera_8h.xhtml" target="_top" xlink:title="CalculusCDKCamera.h">
<polygon fill="none" stroke="red" points="1520.4,-56.5 1520.4,-75.5 1639.4,-75.5 1639.4,-56.5 1520.4,-56.5"/>
<text text-anchor="middle" x="1579.9" y="-63.5" font-family="Helvetica,sans-Serif" font-size="10.00">CalculusCDKCamera.h</text>
</a>
</g>
</g>
<!-- Node11&#45;&gt;Node12 -->
<g id="edge11" class="edge"><title>Node11&#45;&gt;Node12</title>
<path fill="none" stroke="midnightblue" d="M1851.56,-110.791C1788.26,-100.587 1692.05,-85.078 1632.73,-75.5164"/>
<polygon fill="midnightblue" stroke="midnightblue" points="1851.38,-114.307 1861.81,-112.444 1852.5,-107.397 1851.38,-114.307"/>
</g>
<!-- Node14 -->
<g id="node14" class="node"><title>Node14</title>
<g id="a_node14"><a xlink:href="ToFCalculusCamera_8cpp.xhtml" target="_top" xlink:title="ToFCalculusCamera.cpp">
<polygon fill="none" stroke="black" points="1852.4,-56.5 1852.4,-75.5 1977.4,-75.5 1977.4,-56.5 1852.4,-56.5"/>
<text text-anchor="middle" x="1914.9" y="-63.5" font-family="Helvetica,sans-Serif" font-size="10.00">ToFCalculusCamera.cpp</text>
</a>
</g>
</g>
<!-- Node11&#45;&gt;Node14 -->
<g id="edge13" class="edge"><title>Node11&#45;&gt;Node14</title>
<path fill="none" stroke="midnightblue" d="M1914.9,-101.805C1914.9,-92.9102 1914.9,-82.7798 1914.9,-75.7511"/>
<polygon fill="midnightblue" stroke="midnightblue" points="1911.4,-102.083 1914.9,-112.083 1918.4,-102.083 1911.4,-102.083"/>
</g>
<!-- Node13 -->
<g id="node13" class="node"><title>Node13</title>
<g id="a_node13"><a xlink:href="CalculusCDKCameraFactory_8cpp.xhtml" target="_top" xlink:title="CalculusCDKCameraFactory.cpp">
<polygon fill="none" stroke="black" points="1189.4,-0.5 1189.4,-19.5 1352.4,-19.5 1352.4,-0.5 1189.4,-0.5"/>
<text text-anchor="middle" x="1270.9" y="-7.5" font-family="Helvetica,sans-Serif" font-size="10.00">CalculusCDKCameraFactory.cpp</text>
</a>
</g>
</g>
<!-- Node12&#45;&gt;Node13 -->
<g id="edge12" class="edge"><title>Node12&#45;&gt;Node13</title>
<path fill="none" stroke="midnightblue" d="M1520.75,-54.6642C1462.36,-44.4592 1374.12,-29.0386 1319.63,-19.5164"/>
<polygon fill="midnightblue" stroke="midnightblue" points="1520.48,-58.1697 1530.93,-56.4435 1521.68,-51.2742 1520.48,-58.1697"/>
</g>
<!-- Node20 -->
<g id="node20" class="node"><title>Node20</title>
<g id="a_node20"><a xlink:href="HaddockCDKCamera_8h.xhtml" target="_top" xlink:title="HaddockCDKCamera.h">
<polygon fill="none" stroke="red" points="2417.9,-56.5 2417.9,-75.5 2537.9,-75.5 2537.9,-56.5 2417.9,-56.5"/>
<text text-anchor="middle" x="2477.9" y="-63.5" font-family="Helvetica,sans-Serif" font-size="10.00">HaddockCDKCamera.h</text>
</a>
</g>
</g>
<!-- Node19&#45;&gt;Node20 -->
<g id="edge19" class="edge"><title>Node19&#45;&gt;Node20</title>
<path fill="none" stroke="midnightblue" d="M2554.56,-107.59C2535.7,-97.6052 2510.51,-84.2672 2494.24,-75.6545"/>
<polygon fill="midnightblue" stroke="midnightblue" points="2553.03,-110.738 2563.51,-112.324 2556.31,-104.552 2553.03,-110.738"/>
</g>
<!-- Node22 -->
<g id="node22" class="node"><title>Node22</title>
<g id="a_node22"><a xlink:href="RTS5825Camera_8h.xhtml" target="_top" xlink:title="RTS5825Camera.h">
<polygon fill="none" stroke="red" points="2197.4,-56.5 2197.4,-75.5 2298.4,-75.5 2298.4,-56.5 2197.4,-56.5"/>
<text text-anchor="middle" x="2247.9" y="-63.5" font-family="Helvetica,sans-Serif" font-size="10.00">RTS5825Camera.h</text>
</a>
</g>
</g>
<!-- Node19&#45;&gt;Node22 -->
<g id="edge21" class="edge"><title>Node19&#45;&gt;Node22</title>
<path fill="none" stroke="midnightblue" d="M2517.03,-110.776C2453.71,-100.477 2357.23,-84.784 2298.62,-75.2508"/>
<polygon fill="midnightblue" stroke="midnightblue" points="2516.86,-114.293 2527.29,-112.444 2517.98,-107.383 2516.86,-114.293"/>
</g>
<!-- Node21 -->
<g id="node21" class="node"><title>Node21</title>
<g id="a_node21"><a xlink:href="HaddockCDKCameraFactory_8cpp.xhtml" target="_top" xlink:title="HaddockCDKCameraFactory.cpp">
<polygon fill="none" stroke="black" points="2042.9,-0.5 2042.9,-19.5 2206.9,-19.5 2206.9,-0.5 2042.9,-0.5"/>
<text text-anchor="middle" x="2124.9" y="-7.5" font-family="Helvetica,sans-Serif" font-size="10.00">HaddockCDKCameraFactory.cpp</text>
</a>
</g>
</g>
<!-- Node20&#45;&gt;Node21 -->
<g id="edge20" class="edge"><title>Node20&#45;&gt;Node21</title>
<path fill="none" stroke="midnightblue" d="M2411.98,-54.9166C2345.29,-44.715 2243.33,-29.1174 2180.57,-19.5164"/>
<polygon fill="midnightblue" stroke="midnightblue" points="2411.55,-58.3911 2421.96,-56.4435 2412.61,-51.4715 2411.55,-58.3911"/>
</g>
<!-- Node23 -->
<g id="node23" class="node"><title>Node23</title>
<g id="a_node23"><a xlink:href="RTS5825CameraFactory_8cpp.xhtml" target="_top" xlink:title="RTS5825CameraFactory.cpp">
<polygon fill="none" stroke="black" points="1636.9,-0.5 1636.9,-19.5 1780.9,-19.5 1780.9,-0.5 1636.9,-0.5"/>
<text text-anchor="middle" x="1708.9" y="-7.5" font-family="Helvetica,sans-Serif" font-size="10.00">RTS5825CameraFactory.cpp</text>
</a>
</g>
</g>
<!-- Node22&#45;&gt;Node23 -->
<g id="edge22" class="edge"><title>Node22&#45;&gt;Node23</title>
<path fill="none" stroke="midnightblue" d="M2186.94,-58.893C2086.83,-48.8631 1888.04,-28.948 1781.06,-18.2299"/>
<polygon fill="midnightblue" stroke="midnightblue" points="2186.89,-62.4054 2197.19,-59.9198 2187.59,-55.4403 2186.89,-62.4054"/>
</g>
<!-- Node28 -->
<g id="node28" class="node"><title>Node28</title>
<g id="a_node28"><a xlink:href="CalculusCDKCameraFactory_8h.xhtml" target="_top" xlink:title="CalculusCDKCameraFactory.h">
<polygon fill="none" stroke="black" points="900.895,-112.5 900.895,-131.5 1052.9,-131.5 1052.9,-112.5 900.895,-112.5"/>
<text text-anchor="middle" x="976.895" y="-119.5" font-family="Helvetica,sans-Serif" font-size="10.00">CalculusCDKCameraFactory.h</text>
</a>
</g>
</g>
<!-- Node27&#45;&gt;Node28 -->
<g id="edge27" class="edge"><title>Node27&#45;&gt;Node28</title>
<path fill="none" stroke="midnightblue" d="M1001.06,-214.674C994.723,-190.625 983.852,-149.388 979.16,-131.591"/>
<polygon fill="midnightblue" stroke="midnightblue" points="997.686,-215.591 1003.62,-224.368 1004.45,-213.807 997.686,-215.591"/>
</g>
<!-- Node29 -->
<g id="node29" class="node"><title>Node29</title>
<g id="a_node29"><a xlink:href="HaddockCDKCameraFactory_8h.xhtml" target="_top" xlink:title="HaddockCDKCameraFactory.h">
<polygon fill="none" stroke="black" points="1525.4,-112.5 1525.4,-131.5 1678.4,-131.5 1678.4,-112.5 1525.4,-112.5"/>
<text text-anchor="middle" x="1601.9" y="-119.5" font-family="Helvetica,sans-Serif" font-size="10.00">HaddockCDKCameraFactory.h</text>
</a>
</g>
</g>
<!-- Node27&#45;&gt;Node29 -->
<g id="edge29" class="edge"><title>Node27&#45;&gt;Node29</title>
<path fill="none" stroke="midnightblue" d="M1075.74,-223.807C1214.2,-207.261 1252.4,-215.561 1385.9,-188 1457.42,-173.233 1539.37,-145.484 1578.59,-131.506"/>
<polygon fill="midnightblue" stroke="midnightblue" points="1075.1,-220.359 1065.59,-225.042 1075.94,-227.307 1075.1,-220.359"/>
</g>
<!-- Node30 -->
<g id="node30" class="node"><title>Node30</title>
<g id="a_node30"><a xlink:href="RTS5825CameraFactory_8h.xhtml" target="_top" xlink:title="RTS5825CameraFactory.h">
<polygon fill="none" stroke="black" points="1372.9,-112.5 1372.9,-131.5 1506.9,-131.5 1506.9,-112.5 1372.9,-112.5"/>
<text text-anchor="middle" x="1439.9" y="-119.5" font-family="Helvetica,sans-Serif" font-size="10.00">RTS5825CameraFactory.h</text>
</a>
</g>
</g>
<!-- Node27&#45;&gt;Node30 -->
<g id="edge31" class="edge"><title>Node27&#45;&gt;Node30</title>
<path fill="none" stroke="midnightblue" d="M1075.56,-223.849C1200.82,-209.12 1241.4,-234.669 1354.9,-188 1387.2,-174.718 1417.9,-145.889 1431.93,-131.511"/>
<polygon fill="midnightblue" stroke="midnightblue" points="1075.09,-220.38 1065.6,-225.084 1075.95,-227.327 1075.09,-220.38"/>
</g>
<!-- Node31 -->
<g id="node31" class="node"><title>Node31</title>
<g id="a_node31"><a xlink:href="TintinCDKCameraFactory_8h.xhtml" target="_top" xlink:title="TintinCDKCameraFactory.h">
<polygon fill="none" stroke="black" points="1070.9,-112.5 1070.9,-131.5 1208.9,-131.5 1208.9,-112.5 1070.9,-112.5"/>
<text text-anchor="middle" x="1139.9" y="-119.5" font-family="Helvetica,sans-Serif" font-size="10.00">TintinCDKCameraFactory.h</text>
</a>
</g>
</g>
<!-- Node27&#45;&gt;Node31 -->
<g id="edge33" class="edge"><title>Node27&#45;&gt;Node31</title>
<path fill="none" stroke="midnightblue" d="M1024.39,-217.816C1052.93,-194.387 1106.77,-150.19 1129.43,-131.591"/>
<polygon fill="midnightblue" stroke="midnightblue" points="1021.92,-215.318 1016.41,-224.368 1026.36,-220.729 1021.92,-215.318"/>
</g>
<!-- Node33 -->
<g id="node33" class="node"><title>Node33</title>
<g id="a_node33"><a xlink:href="Voxel14CameraFactory_8h.xhtml" target="_top" xlink:title="Voxel14CameraFactory.h">
<polygon fill="none" stroke="black" points="1226.9,-112.5 1226.9,-131.5 1354.9,-131.5 1354.9,-112.5 1226.9,-112.5"/>
<text text-anchor="middle" x="1290.9" y="-119.5" font-family="Helvetica,sans-Serif" font-size="10.00">Voxel14CameraFactory.h</text>
</a>
</g>
</g>
<!-- Node27&#45;&gt;Node33 -->
<g id="edge35" class="edge"><title>Node27&#45;&gt;Node33</title>
<path fill="none" stroke="midnightblue" d="M1037.7,-220.726C1095.94,-198.245 1218.37,-150.991 1268.64,-131.591"/>
<polygon fill="midnightblue" stroke="midnightblue" points="1036.33,-217.502 1028.26,-224.368 1038.85,-224.033 1036.33,-217.502"/>
</g>
<!-- Node35 -->
<g id="node35" class="node"><title>Node35</title>
<g id="a_node35"><a xlink:href="VoxelDCameraFactory_8h.xhtml" target="_top" xlink:title="VoxelDCameraFactory.h">
<polygon fill="none" stroke="black" points="757.395,-112.5 757.395,-131.5 882.395,-131.5 882.395,-112.5 757.395,-112.5"/>
<text text-anchor="middle" x="819.895" y="-119.5" font-family="Helvetica,sans-Serif" font-size="10.00">VoxelDCameraFactory.h</text>
</a>
</g>
</g>
<!-- Node27&#45;&gt;Node35 -->
<g id="edge37" class="edge"><title>Node27&#45;&gt;Node35</title>
<path fill="none" stroke="midnightblue" d="M982.237,-219.009C943.195,-195.919 866.413,-150.51 834.422,-131.591"/>
<polygon fill="midnightblue" stroke="midnightblue" points="980.911,-222.291 991.3,-224.368 984.474,-216.265 980.911,-222.291"/>
</g>
<!-- Node37 -->
<g id="node37" class="node"><title>Node37</title>
<g id="a_node37"><a xlink:href="ToFCameraFactoryBase_8h.xhtml" target="_top" xlink:title="ToFCameraFactoryBase.h">
<polygon fill="none" stroke="black" points="1213.9,-168.5 1213.9,-187.5 1345.9,-187.5 1345.9,-168.5 1213.9,-168.5"/>
<text text-anchor="middle" x="1279.9" y="-175.5" font-family="Helvetica,sans-Serif" font-size="10.00">ToFCameraFactoryBase.h</text>
</a>
</g>
</g>
<!-- Node27&#45;&gt;Node37 -->
<g id="edge39" class="edge"><title>Node27&#45;&gt;Node37</title>
<path fill="none" stroke="midnightblue" d="M1059.31,-222.473C1111.09,-212.268 1188.67,-196.979 1236.68,-187.516"/>
<polygon fill="midnightblue" stroke="midnightblue" points="1058.45,-219.076 1049.31,-224.444 1059.8,-225.944 1058.45,-219.076"/>
</g>
<!-- Node38 -->
<g id="node38" class="node"><title>Node38</title>
<g id="a_node38"><a xlink:href="DepthCameraLibrary_8h.xhtml" target="_top" xlink:title="DepthCameraLibrary.h">
<polygon fill="none" stroke="black" points="571.395,-168.5 571.395,-187.5 686.395,-187.5 686.395,-168.5 571.395,-168.5"/>
<text text-anchor="middle" x="628.895" y="-175.5" font-family="Helvetica,sans-Serif" font-size="10.00">DepthCameraLibrary.h</text>
</a>
</g>
</g>
<!-- Node27&#45;&gt;Node38 -->
<g id="edge47" class="edge"><title>Node27&#45;&gt;Node38</title>
<path fill="none" stroke="midnightblue" d="M935.844,-222.966C863.969,-212.671 753.465,-196.843 686.498,-187.251"/>
<polygon fill="midnightblue" stroke="midnightblue" points="935.763,-226.49 946.158,-224.444 936.756,-219.561 935.763,-226.49"/>
</g>
<!-- Node28&#45;&gt;Node13 -->
<g id="edge28" class="edge"><title>Node28&#45;&gt;Node13</title>
<path fill="none" stroke="midnightblue" d="M990.766,-104.699C1004.49,-89.6715 1026.86,-67.9437 1050.9,-56 1093.84,-34.6581 1146.3,-23.4362 1189.22,-17.5363"/>
<polygon fill="midnightblue" stroke="midnightblue" points="988.087,-102.445 984.079,-112.253 993.328,-107.085 988.087,-102.445"/>
</g>
<!-- Node29&#45;&gt;Node21 -->
<g id="edge30" class="edge"><title>Node29&#45;&gt;Node21</title>
<path fill="none" stroke="midnightblue" d="M1639.64,-109.494C1686.84,-95.4179 1770.25,-71.5468 1842.9,-56 1916.34,-40.2808 2001.62,-27.4067 2059,-19.5154"/>
<polygon fill="midnightblue" stroke="midnightblue" points="1638.43,-106.203 1629.86,-112.427 1640.44,-112.908 1638.43,-106.203"/>
</g>
<!-- Node30&#45;&gt;Node23 -->
<g id="edge32" class="edge"><title>Node30&#45;&gt;Node23</title>
<path fill="none" stroke="midnightblue" d="M1453.49,-104.382C1466.63,-89.4435 1487.88,-68.0541 1510.9,-56 1549.78,-35.6402 1597.67,-24.4403 1636.61,-18.3063"/>
<polygon fill="midnightblue" stroke="midnightblue" points="1450.56,-102.429 1446.74,-112.312 1455.89,-106.966 1450.56,-102.429"/>
</g>
<!-- Node32 -->
<g id="node32" class="node"><title>Node32</title>
<g id="a_node32"><a xlink:href="TintinCDKCameraFactory_8cpp.xhtml" target="_top" xlink:title="TintinCDKCameraFactory.cpp">
<polygon fill="none" stroke="black" points="1060.4,-56.5 1060.4,-75.5 1209.4,-75.5 1209.4,-56.5 1060.4,-56.5"/>
<text text-anchor="middle" x="1134.9" y="-63.5" font-family="Helvetica,sans-Serif" font-size="10.00">TintinCDKCameraFactory.cpp</text>
</a>
</g>
</g>
<!-- Node31&#45;&gt;Node32 -->
<g id="edge34" class="edge"><title>Node31&#45;&gt;Node32</title>
<path fill="none" stroke="midnightblue" d="M1138.15,-102.101C1137.32,-93.1357 1136.36,-82.8579 1135.71,-75.7511"/>
<polygon fill="midnightblue" stroke="midnightblue" points="1134.66,-102.448 1139.07,-112.083 1141.63,-101.803 1134.66,-102.448"/>
</g>
<!-- Node34 -->
<g id="node34" class="node"><title>Node34</title>
<g id="a_node34"><a xlink:href="Voxel14CameraFactory_8cpp.xhtml" target="_top" xlink:title="Voxel14CameraFactory.cpp">
<polygon fill="none" stroke="black" points="1227.9,-56.5 1227.9,-75.5 1365.9,-75.5 1365.9,-56.5 1227.9,-56.5"/>
<text text-anchor="middle" x="1296.9" y="-63.5" font-family="Helvetica,sans-Serif" font-size="10.00">Voxel14CameraFactory.cpp</text>
</a>
</g>
</g>
<!-- Node33&#45;&gt;Node34 -->
<g id="edge36" class="edge"><title>Node33&#45;&gt;Node34</title>
<path fill="none" stroke="midnightblue" d="M1293,-102.101C1293.99,-93.1357 1295.13,-82.8579 1295.92,-75.7511"/>
<polygon fill="midnightblue" stroke="midnightblue" points="1289.51,-101.758 1291.89,-112.083 1296.47,-102.531 1289.51,-101.758"/>
</g>
<!-- Node36 -->
<g id="node36" class="node"><title>Node36</title>
<g id="a_node36"><a xlink:href="VoxelDCameraFactory_8cpp.xhtml" target="_top" xlink:title="VoxelDCameraFactory.cpp">
<polygon fill="none" stroke="black" points="752.395,-56.5 752.395,-75.5 887.395,-75.5 887.395,-56.5 752.395,-56.5"/>
<text text-anchor="middle" x="819.895" y="-63.5" font-family="Helvetica,sans-Serif" font-size="10.00">VoxelDCameraFactory.cpp</text>
</a>
</g>
</g>
<!-- Node35&#45;&gt;Node36 -->
<g id="edge38" class="edge"><title>Node35&#45;&gt;Node36</title>
<path fill="none" stroke="midnightblue" d="M819.895,-101.805C819.895,-92.9102 819.895,-82.7798 819.895,-75.7511"/>
<polygon fill="midnightblue" stroke="midnightblue" points="816.395,-102.083 819.895,-112.083 823.395,-102.083 816.395,-102.083"/>
</g>
<!-- Node37&#45;&gt;Node16 -->
<g id="edge46" class="edge"><title>Node37&#45;&gt;Node16</title>
<path fill="none" stroke="midnightblue" d="M1356.12,-168.585C1437.9,-159.553 1571.59,-144.781 1686.9,-132 1689.99,-131.657 1693.15,-131.307 1696.34,-130.952"/>
<polygon fill="midnightblue" stroke="midnightblue" points="1355.72,-165.108 1346.16,-169.684 1356.49,-172.065 1355.72,-165.108"/>
</g>
<!-- Node37&#45;&gt;Node28 -->
<g id="edge40" class="edge"><title>Node37&#45;&gt;Node28</title>
<path fill="none" stroke="midnightblue" d="M1221.9,-166.664C1164.64,-156.459 1078.11,-141.039 1024.68,-131.516"/>
<polygon fill="midnightblue" stroke="midnightblue" points="1221.42,-170.135 1231.88,-168.444 1222.65,-163.243 1221.42,-170.135"/>
</g>
<!-- Node37&#45;&gt;Node29 -->
<g id="edge41" class="edge"><title>Node37&#45;&gt;Node29</title>
<path fill="none" stroke="midnightblue" d="M1341.15,-166.727C1402,-156.523 1494.21,-141.058 1551.11,-131.516"/>
<polygon fill="midnightblue" stroke="midnightblue" points="1340.2,-163.338 1330.92,-168.444 1341.36,-170.241 1340.2,-163.338"/>
</g>
<!-- Node37&#45;&gt;Node30 -->
<g id="edge42" class="edge"><title>Node37&#45;&gt;Node30</title>
<path fill="none" stroke="midnightblue" d="M1314.94,-165.172C1345.07,-155.004 1387.79,-140.585 1414.66,-131.516"/>
<polygon fill="midnightblue" stroke="midnightblue" points="1313.6,-161.929 1305.25,-168.444 1315.84,-168.562 1313.6,-161.929"/>
</g>
<!-- Node37&#45;&gt;Node31 -->
<g id="edge43" class="edge"><title>Node37&#45;&gt;Node31</title>
<path fill="none" stroke="midnightblue" d="M1248.19,-164.772C1221.9,-154.629 1185.18,-140.467 1161.97,-131.516"/>
<polygon fill="midnightblue" stroke="midnightblue" points="1247.12,-168.11 1257.71,-168.444 1249.64,-161.579 1247.12,-168.11"/>
</g>
<!-- Node37&#45;&gt;Node33 -->
<g id="edge44" class="edge"><title>Node37&#45;&gt;Node33</title>
<path fill="none" stroke="midnightblue" d="M1283.74,-158.101C1285.57,-149.136 1287.66,-138.858 1289.11,-131.751"/>
<polygon fill="midnightblue" stroke="midnightblue" points="1280.28,-157.586 1281.71,-168.083 1287.14,-158.983 1280.28,-157.586"/>
</g>
<!-- Node37&#45;&gt;Node35 -->
<g id="edge45" class="edge"><title>Node37&#45;&gt;Node35</title>
<path fill="none" stroke="midnightblue" d="M1203.37,-168.328C1125.09,-159.41 999.981,-145.023 891.895,-132 888.893,-131.638 885.822,-131.265 882.72,-130.886"/>
<polygon fill="midnightblue" stroke="midnightblue" points="1203.29,-171.841 1213.62,-169.495 1204.08,-164.886 1203.29,-171.841"/>
</g>
<!-- Node39 -->
<g id="node39" class="node"><title>Node39</title>
<g id="a_node39"><a xlink:href="CameraSystem_8h.xhtml" target="_top" xlink:title="CameraSystem.h">
<polygon fill="none" stroke="red" points="464.395,-112.5 464.395,-131.5 557.395,-131.5 557.395,-112.5 464.395,-112.5"/>
<text text-anchor="middle" x="510.895" y="-119.5" font-family="Helvetica,sans-Serif" font-size="10.00">CameraSystem.h</text>
</a>
</g>
</g>
<!-- Node38&#45;&gt;Node39 -->
<g id="edge48" class="edge"><title>Node38&#45;&gt;Node39</title>
<path fill="none" stroke="midnightblue" d="M600.995,-164.232C578.923,-154.131 548.719,-140.309 529.505,-131.516"/>
<polygon fill="midnightblue" stroke="midnightblue" points="599.648,-167.465 610.198,-168.444 602.561,-161.1 599.648,-167.465"/>
</g>
<!-- Node42 -->
<g id="node42" class="node"><title>Node42</title>
<g id="a_node42"><a xlink:href="DepthCameraLibrary_8cpp.xhtml" target="_top" xlink:title="DepthCameraLibrary.cpp">
<polygon fill="none" stroke="black" points="575.395,-112.5 575.395,-131.5 700.395,-131.5 700.395,-112.5 575.395,-112.5"/>
<text text-anchor="middle" x="637.895" y="-119.5" font-family="Helvetica,sans-Serif" font-size="10.00">DepthCameraLibrary.cpp</text>
</a>
</g>
</g>
<!-- Node38&#45;&gt;Node42 -->
<g id="edge54" class="edge"><title>Node38&#45;&gt;Node42</title>
<path fill="none" stroke="midnightblue" d="M632.045,-158.101C633.539,-149.136 635.252,-138.858 636.437,-131.751"/>
<polygon fill="midnightblue" stroke="midnightblue" points="628.573,-157.644 630.381,-168.083 635.478,-158.794 628.573,-157.644"/>
</g>
<!-- Node39&#45;&gt;Node4 -->
<g id="edge49" class="edge"><title>Node39&#45;&gt;Node4</title>
<path fill="none" stroke="midnightblue" d="M484.376,-107.862C464.165,-97.8492 436.908,-84.3458 419.364,-75.6545"/>
<polygon fill="midnightblue" stroke="midnightblue" points="482.868,-111.021 493.382,-112.324 485.975,-104.748 482.868,-111.021"/>
</g>
<!-- Node39&#45;&gt;Node6 -->
<g id="edge51" class="edge"><title>Node39&#45;&gt;Node6</title>
<path fill="none" stroke="midnightblue" d="M538.581,-107.712C559.777,-95.5821 583.564,-76.4696 571.895,-56 561.643,-38.016 541.069,-26.4854 523.91,-19.603"/>
<polygon fill="midnightblue" stroke="midnightblue" points="536.906,-104.638 529.766,-112.466 540.229,-110.799 536.906,-104.638"/>
</g>
<!-- Node39&#45;&gt;Node8 -->
<g id="edge50" class="edge"><title>Node39&#45;&gt;Node8</title>
<path fill="none" stroke="midnightblue" d="M465.228,-110.088C422.531,-99.8865 359.647,-84.8612 320.538,-75.5164"/>
<polygon fill="midnightblue" stroke="midnightblue" points="464.545,-113.524 475.085,-112.444 466.172,-106.715 464.545,-113.524"/>
</g>
<!-- Node40 -->
<g id="node40" class="node"><title>Node40</title>
<g id="a_node40"><a xlink:href="CameraSystem_8cpp.xhtml" target="_top" xlink:title="CameraSystem.cpp">
<polygon fill="none" stroke="black" points="458.895,-56.5 458.895,-75.5 562.895,-75.5 562.895,-56.5 458.895,-56.5"/>
<text text-anchor="middle" x="510.895" y="-63.5" font-family="Helvetica,sans-Serif" font-size="10.00">CameraSystem.cpp</text>
</a>
</g>
</g>
<!-- Node39&#45;&gt;Node40 -->
<g id="edge52" class="edge"><title>Node39&#45;&gt;Node40</title>
<path fill="none" stroke="midnightblue" d="M510.895,-101.805C510.895,-92.9102 510.895,-82.7798 510.895,-75.7511"/>
<polygon fill="midnightblue" stroke="midnightblue" points="507.395,-102.083 510.895,-112.083 514.395,-102.083 507.395,-102.083"/>
</g>
<!-- Node39&#45;&gt;Node41 -->
<g id="edge53" class="edge"><title>Node39&#45;&gt;Node41</title>
<path fill="none" stroke="midnightblue" d="M546.848,-109.304C578.127,-99.1294 622.716,-84.6246 650.715,-75.5164"/>
<polygon fill="midnightblue" stroke="midnightblue" points="545.625,-106.022 537.198,-112.444 547.791,-112.678 545.625,-106.022"/>
</g>
<!-- Node43&#45;&gt;Node38 -->
<g id="edge56" class="edge"><title>Node43&#45;&gt;Node38</title>
<path fill="none" stroke="midnightblue" d="M576.037,-218.101C589.174,-208.382 605.877,-196.027 616.953,-187.834"/>
<polygon fill="midnightblue" stroke="midnightblue" points="573.582,-215.563 567.624,-224.324 577.745,-221.191 573.582,-215.563"/>
</g>
<!-- Node44 -->
<g id="node44" class="node"><title>Node44</title>
<g id="a_node44"><a xlink:href="FilterFactory_8cpp.xhtml" target="_top" xlink:title="FilterFactory.cpp">
<polygon fill="none" stroke="black" points="322.895,-168.5 322.895,-187.5 412.895,-187.5 412.895,-168.5 322.895,-168.5"/>
<text text-anchor="middle" x="367.895" y="-175.5" font-family="Helvetica,sans-Serif" font-size="10.00">FilterFactory.cpp</text>
</a>
</g>
</g>
<!-- Node43&#45;&gt;Node44 -->
<g id="edge57" class="edge"><title>Node43&#45;&gt;Node44</title>
<path fill="none" stroke="midnightblue" d="M516.094,-221.568C480.629,-211.381 429.529,-196.703 397.545,-187.516"/>
<polygon fill="midnightblue" stroke="midnightblue" points="515.528,-225.047 526.106,-224.444 517.461,-218.319 515.528,-225.047"/>
</g>
<!-- Node45 -->
<g id="node45" class="node"><title>Node45</title>
<g id="a_node45"><a xlink:href="VoxelFilterFactory_8h.xhtml" target="_top" xlink:title="VoxelFilterFactory.h">
<polygon fill="none" stroke="black" points="430.895,-168.5 430.895,-187.5 534.895,-187.5 534.895,-168.5 430.895,-168.5"/>
<text text-anchor="middle" x="482.895" y="-175.5" font-family="Helvetica,sans-Serif" font-size="10.00">VoxelFilterFactory.h</text>
</a>
</g>
</g>
<!-- Node43&#45;&gt;Node45 -->
<g id="edge58" class="edge"><title>Node43&#45;&gt;Node45</title>
<path fill="none" stroke="midnightblue" d="M535.754,-218.101C522.616,-208.382 505.913,-196.027 494.837,-187.834"/>
<polygon fill="midnightblue" stroke="midnightblue" points="534.045,-221.191 544.166,-224.324 538.208,-215.563 534.045,-221.191"/>
</g>
<!-- Node45&#45;&gt;Node40 -->
<g id="edge59" class="edge"><title>Node45&#45;&gt;Node40</title>
<path fill="none" stroke="midnightblue" d="M420.562,-167.495C380.641,-159.989 334.106,-148.092 321.895,-132 316.522,-124.919 316.385,-118.975 321.895,-112 330.624,-100.949 408.394,-85.1664 461.413,-75.5281"/>
<polygon fill="midnightblue" stroke="midnightblue" points="420.079,-170.965 430.544,-169.309 421.331,-164.077 420.079,-170.965"/>
</g>
<!-- Node46 -->
<g id="node46" class="node"><title>Node46</title>
<g id="a_node46"><a xlink:href="VoxelFilterFactory_8cpp.xhtml" target="_top" xlink:title="VoxelFilterFactory.cpp">
<polygon fill="none" stroke="black" points="331.395,-112.5 331.395,-131.5 446.395,-131.5 446.395,-112.5 331.395,-112.5"/>
<text text-anchor="middle" x="388.895" y="-119.5" font-family="Helvetica,sans-Serif" font-size="10.00">VoxelFilterFactory.cpp</text>
</a>
</g>
</g>
<!-- Node45&#45;&gt;Node46 -->
<g id="edge60" class="edge"><title>Node45&#45;&gt;Node46</title>
<path fill="none" stroke="midnightblue" d="M458.833,-163.177C441.536,-153.241 418.747,-140.149 403.96,-131.655"/>
<polygon fill="midnightblue" stroke="midnightblue" points="457.378,-166.378 467.792,-168.324 460.865,-160.308 457.378,-166.378"/>
</g>
<!-- Node49&#45;&gt;Node5 -->
<g id="edge65" class="edge"><title>Node49&#45;&gt;Node5</title>
<path fill="none" stroke="midnightblue" d="M56.4417,-109.5C23.4726,-98.7033 -12.9127,-80.5376 4.8951,-56 26.0611,-26.8352 66.6404,-16.2117 98.3404,-12.5156"/>
<polygon fill="midnightblue" stroke="midnightblue" points="55.4618,-112.861 66.0498,-112.481 57.5361,-106.175 55.4618,-112.861"/>
</g>
<!-- Node49&#45;&gt;Node7 -->
<g id="edge66" class="edge"><title>Node49&#45;&gt;Node7</title>
<path fill="none" stroke="midnightblue" d="M118.935,-105.537C130.168,-95.9087 144.214,-83.8694 153.589,-75.8339"/>
<polygon fill="midnightblue" stroke="midnightblue" points="116.332,-103.159 111.017,-112.324 120.888,-108.473 116.332,-103.159"/>
</g>
<!-- Node50 -->
<g id="node50" class="node"><title>Node50</title>
<g id="a_node50"><a xlink:href="PCLGrabber_8cpp.xhtml" target="_top" xlink:title="PCLGrabber.cpp">
<polygon fill="none" stroke="black" points="14.3951,-56.5 14.3951,-75.5 103.395,-75.5 103.395,-56.5 14.3951,-56.5"/>
<text text-anchor="middle" x="58.8951" y="-63.5" font-family="Helvetica,sans-Serif" font-size="10.00">PCLGrabber.cpp</text>
</a>
</g>
</g>
<!-- Node49&#45;&gt;Node50 -->
<g id="edge67" class="edge"><title>Node49&#45;&gt;Node50</title>
<path fill="none" stroke="midnightblue" d="M87.7849,-104.144C80.4673,-94.7357 71.6542,-83.4046 65.7015,-75.7511"/>
<polygon fill="midnightblue" stroke="midnightblue" points="85.0575,-106.338 93.9597,-112.083 90.583,-102.041 85.0575,-106.338"/>
</g>
</g>
</svg>
