<?xml version="1.0" encoding="UTF-8" standalone="no"?>
<!DOCTYPE svg PUBLIC "-//W3C//DTD SVG 1.1//EN"
 "http://www.w3.org/Graphics/SVG/1.1/DTD/svg11.dtd">
<!-- Generated by graphviz version 2.36.0 (20140111.2315)
 -->
<!-- Title: Filter.h Pages: 1 -->
<svg width="2170pt" height="364pt"
 viewBox="0.00 0.00 2170.19 364.00" xmlns="http://www.w3.org/2000/svg" xmlns:xlink="http://www.w3.org/1999/xlink">
<g id="graph0" class="graph" transform="scale(1 1) rotate(0) translate(4 360)">
<title>Filter.h</title>
<!-- Node1 -->
<g id="node1" class="node"><title>Node1</title>
<polygon fill="#bfbfbf" stroke="black" points="1597.5,-336.5 1597.5,-355.5 1644.5,-355.5 1644.5,-336.5 1597.5,-336.5"/>
<text text-anchor="middle" x="1621" y="-343.5" font-family="Helvetica,sans-Serif" font-size="10.00">Filter.h</text>
</g>
<!-- Node2 -->
<g id="node2" class="node"><title>Node2</title>
<g id="a_node2"><a xlink:href="ToFCrossTalkFilter_8h.xhtml" target="_top" xlink:title="ToFCrossTalkFilter.h">
<polygon fill="none" stroke="black" points="233.5,-280.5 233.5,-299.5 342.5,-299.5 342.5,-280.5 233.5,-280.5"/>
<text text-anchor="middle" x="288" y="-287.5" font-family="Helvetica,sans-Serif" font-size="10.00">ToFCrossTalkFilter.h</text>
</a>
</g>
</g>
<!-- Node1&#45;&gt;Node2 -->
<g id="edge1" class="edge"><title>Node1&#45;&gt;Node2</title>
<path fill="none" stroke="midnightblue" d="M1587.13,-343.628C1407.48,-336.35 565.947,-302.26 342.558,-293.21"/>
<polygon fill="midnightblue" stroke="midnightblue" points="1587.16,-347.132 1597.3,-344.04 1587.45,-340.138 1587.16,-347.132"/>
</g>
<!-- Node16 -->
<g id="node16" class="node"><title>Node16</title>
<g id="a_node16"><a xlink:href="BilateralFilter_8h.xhtml" target="_top" xlink:title="BilateralFilter.h">
<polygon fill="none" stroke="black" points="1531,-280.5 1531,-299.5 1613,-299.5 1613,-280.5 1531,-280.5"/>
<text text-anchor="middle" x="1572" y="-287.5" font-family="Helvetica,sans-Serif" font-size="10.00">BilateralFilter.h</text>
</a>
</g>
</g>
<!-- Node1&#45;&gt;Node16 -->
<g id="edge18" class="edge"><title>Node1&#45;&gt;Node16</title>
<path fill="none" stroke="midnightblue" d="M1605.97,-328.431C1597.38,-318.967 1586.96,-307.483 1579.94,-299.751"/>
<polygon fill="midnightblue" stroke="midnightblue" points="1603.6,-331.029 1612.91,-336.083 1608.78,-326.325 1603.6,-331.029"/>
</g>
<!-- Node19 -->
<g id="node19" class="node"><title>Node19</title>
<g id="a_node19"><a xlink:href="Filter_8cpp.xhtml" target="_top" xlink:title="Filter.cpp">
<polygon fill="none" stroke="black" points="1455.5,-280.5 1455.5,-299.5 1512.5,-299.5 1512.5,-280.5 1455.5,-280.5"/>
<text text-anchor="middle" x="1484" y="-287.5" font-family="Helvetica,sans-Serif" font-size="10.00">Filter.cpp</text>
</a>
</g>
</g>
<!-- Node1&#45;&gt;Node19 -->
<g id="edge21" class="edge"><title>Node1&#45;&gt;Node19</title>
<path fill="none" stroke="midnightblue" d="M1589.98,-332.772C1564.24,-322.629 1528.31,-308.467 1505.61,-299.516"/>
<polygon fill="midnightblue" stroke="midnightblue" points="1588.71,-336.033 1599.29,-336.444 1591.27,-329.52 1588.71,-336.033"/>
</g>
<!-- Node20 -->
<g id="node20" class="node"><title>Node20</title>
<g id="a_node20"><a xlink:href="FilterSet_8h.xhtml" target="_top" xlink:title="FilterSet.h">
<polygon fill="none" stroke="black" points="1169,-280.5 1169,-299.5 1231,-299.5 1231,-280.5 1169,-280.5"/>
<text text-anchor="middle" x="1200" y="-287.5" font-family="Helvetica,sans-Serif" font-size="10.00">FilterSet.h</text>
</a>
</g>
</g>
<!-- Node1&#45;&gt;Node20 -->
<g id="edge22" class="edge"><title>Node1&#45;&gt;Node20</title>
<path fill="none" stroke="midnightblue" d="M1587.49,-340.701C1507.86,-330.488 1308.25,-304.884 1231.11,-294.99"/>
<polygon fill="midnightblue" stroke="midnightblue" points="1587.1,-344.18 1597.46,-341.981 1587.99,-337.237 1587.1,-344.18"/>
</g>
<!-- Node43 -->
<g id="node43" class="node"><title>Node43</title>
<g id="a_node43"><a xlink:href="IIRFilter_8h.xhtml" target="_top" xlink:title="IIRFilter.h">
<polygon fill="none" stroke="black" points="1911,-280.5 1911,-299.5 1971,-299.5 1971,-280.5 1911,-280.5"/>
<text text-anchor="middle" x="1941" y="-287.5" font-family="Helvetica,sans-Serif" font-size="10.00">IIRFilter.h</text>
</a>
</g>
</g>
<!-- Node1&#45;&gt;Node43 -->
<g id="edge56" class="edge"><title>Node1&#45;&gt;Node43</title>
<path fill="none" stroke="midnightblue" d="M1654.65,-339.322C1717.21,-328.764 1850.52,-306.269 1910.56,-296.136"/>
<polygon fill="midnightblue" stroke="midnightblue" points="1653.81,-335.914 1644.53,-341.029 1654.97,-342.816 1653.81,-335.914"/>
</g>
<!-- Node45 -->
<g id="node45" class="node"><title>Node45</title>
<g id="a_node45"><a xlink:href="MedianFilter_8h.xhtml" target="_top" xlink:title="MedianFilter.h">
<polygon fill="none" stroke="black" points="1631,-280.5 1631,-299.5 1709,-299.5 1709,-280.5 1631,-280.5"/>
<text text-anchor="middle" x="1670" y="-287.5" font-family="Helvetica,sans-Serif" font-size="10.00">MedianFilter.h</text>
</a>
</g>
</g>
<!-- Node1&#45;&gt;Node45 -->
<g id="edge59" class="edge"><title>Node1&#45;&gt;Node45</title>
<path fill="none" stroke="midnightblue" d="M1636.03,-328.431C1644.62,-318.967 1655.04,-307.483 1662.06,-299.751"/>
<polygon fill="midnightblue" stroke="midnightblue" points="1633.22,-326.325 1629.09,-336.083 1638.4,-331.029 1633.22,-326.325"/>
</g>
<!-- Node47 -->
<g id="node47" class="node"><title>Node47</title>
<g id="a_node47"><a xlink:href="SmoothFilter_8h.xhtml" target="_top" xlink:title="SmoothFilter.h">
<polygon fill="none" stroke="black" points="2064,-280.5 2064,-299.5 2144,-299.5 2144,-280.5 2064,-280.5"/>
<text text-anchor="middle" x="2104" y="-287.5" font-family="Helvetica,sans-Serif" font-size="10.00">SmoothFilter.h</text>
</a>
</g>
</g>
<!-- Node1&#45;&gt;Node47 -->
<g id="edge62" class="edge"><title>Node1&#45;&gt;Node47</title>
<path fill="none" stroke="midnightblue" d="M1654.67,-341.236C1741.08,-331.575 1970.41,-305.935 2063.69,-295.507"/>
<polygon fill="midnightblue" stroke="midnightblue" points="1654.17,-337.769 1644.62,-342.359 1654.95,-344.726 1654.17,-337.769"/>
</g>
<!-- Node49 -->
<g id="node49" class="node"><title>Node49</title>
<g id="a_node49"><a xlink:href="TemporalMedianFilter_8h.xhtml" target="_top" xlink:title="TemporalMedianFilter.h">
<polygon fill="none" stroke="black" points="1750.5,-280.5 1750.5,-299.5 1869.5,-299.5 1869.5,-280.5 1750.5,-280.5"/>
<text text-anchor="middle" x="1810" y="-287.5" font-family="Helvetica,sans-Serif" font-size="10.00">TemporalMedianFilter.h</text>
</a>
</g>
</g>
<!-- Node1&#45;&gt;Node49 -->
<g id="edge65" class="edge"><title>Node1&#45;&gt;Node49</title>
<path fill="none" stroke="midnightblue" d="M1654.48,-335.434C1690.14,-325.245 1746.05,-309.271 1780.23,-299.507"/>
<polygon fill="midnightblue" stroke="midnightblue" points="1653.21,-332.157 1644.55,-338.27 1655.13,-338.888 1653.21,-332.157"/>
</g>
<!-- Node3 -->
<g id="node3" class="node"><title>Node3</title>
<g id="a_node3"><a xlink:href="ToFFrameGenerator_8h.xhtml" target="_top" xlink:title="ToFFrameGenerator.h">
<polygon fill="none" stroke="black" points="231.5,-224.5 231.5,-243.5 344.5,-243.5 344.5,-224.5 231.5,-224.5"/>
<text text-anchor="middle" x="288" y="-231.5" font-family="Helvetica,sans-Serif" font-size="10.00">ToFFrameGenerator.h</text>
</a>
</g>
</g>
<!-- Node2&#45;&gt;Node3 -->
<g id="edge2" class="edge"><title>Node2&#45;&gt;Node3</title>
<path fill="none" stroke="midnightblue" d="M288,-269.805C288,-260.91 288,-250.78 288,-243.751"/>
<polygon fill="midnightblue" stroke="midnightblue" points="284.5,-270.083 288,-280.083 291.5,-270.083 284.5,-270.083"/>
</g>
<!-- Node15 -->
<g id="node15" class="node"><title>Node15</title>
<g id="a_node15"><a xlink:href="ToFCrossTalkFilter_8cpp.xhtml" target="_top" xlink:title="ToFCrossTalkFilter.cpp">
<polygon fill="none" stroke="black" points="94.5,-224.5 94.5,-243.5 213.5,-243.5 213.5,-224.5 94.5,-224.5"/>
<text text-anchor="middle" x="154" y="-231.5" font-family="Helvetica,sans-Serif" font-size="10.00">ToFCrossTalkFilter.cpp</text>
</a>
</g>
</g>
<!-- Node2&#45;&gt;Node15 -->
<g id="edge17" class="edge"><title>Node2&#45;&gt;Node15</title>
<path fill="none" stroke="midnightblue" d="M257.323,-276.638C232.177,-266.504 197.246,-252.427 175.133,-243.516"/>
<polygon fill="midnightblue" stroke="midnightblue" points="256.184,-279.952 266.767,-280.444 258.8,-273.459 256.184,-279.952"/>
</g>
<!-- Node4 -->
<g id="node4" class="node"><title>Node4</title>
<g id="a_node4"><a xlink:href="ToFCamera_8h.xhtml" target="_top" xlink:title="ToFCamera.h">
<polygon fill="none" stroke="black" points="318.5,-56.5 318.5,-75.5 395.5,-75.5 395.5,-56.5 318.5,-56.5"/>
<text text-anchor="middle" x="357" y="-63.5" font-family="Helvetica,sans-Serif" font-size="10.00">ToFCamera.h</text>
</a>
</g>
</g>
<!-- Node3&#45;&gt;Node4 -->
<g id="edge3" class="edge"><title>Node3&#45;&gt;Node4</title>
<path fill="none" stroke="midnightblue" d="M300.325,-216.126C305.933,-207.923 312.341,-197.748 317,-188 336.178,-147.876 349.899,-96.1664 354.91,-75.7994"/>
<polygon fill="midnightblue" stroke="midnightblue" points="297.377,-214.234 294.47,-224.422 303.096,-218.27 297.377,-214.234"/>
</g>
<!-- Node9 -->
<g id="node9" class="node"><title>Node9</title>
<g id="a_node9"><a xlink:href="ToFFrameGenerator_8cpp.xhtml" target="_top" xlink:title="ToFFrameGenerator.cpp">
<polygon fill="none" stroke="black" points="-0.5,-0.5 -0.5,-19.5 122.5,-19.5 122.5,-0.5 -0.5,-0.5"/>
<text text-anchor="middle" x="61" y="-7.5" font-family="Helvetica,sans-Serif" font-size="10.00">ToFFrameGenerator.cpp</text>
</a>
</g>
</g>
<!-- Node3&#45;&gt;Node9 -->
<g id="edge16" class="edge"><title>Node3&#45;&gt;Node9</title>
<path fill="none" stroke="midnightblue" d="M228.965,-221.785C205.529,-215.044 179.557,-204.454 160,-188 102.344,-139.492 71.9012,-48.3971 63.4641,-19.8124"/>
<polygon fill="midnightblue" stroke="midnightblue" points="228.262,-225.22 238.828,-224.444 230.084,-218.462 228.262,-225.22"/>
</g>
<!-- Node12 -->
<g id="node12" class="node"><title>Node12</title>
<g id="a_node12"><a xlink:href="ToFDepthFrameGenerator_8h.xhtml" target="_top" xlink:title="ToFDepthFrameGenerator.h">
<polygon fill="none" stroke="black" points="169.5,-168.5 169.5,-187.5 308.5,-187.5 308.5,-168.5 169.5,-168.5"/>
<text text-anchor="middle" x="239" y="-175.5" font-family="Helvetica,sans-Serif" font-size="10.00">ToFDepthFrameGenerator.h</text>
</a>
</g>
</g>
<!-- Node3&#45;&gt;Node12 -->
<g id="edge11" class="edge"><title>Node3&#45;&gt;Node12</title>
<path fill="none" stroke="midnightblue" d="M272.966,-216.431C264.378,-206.967 253.957,-195.483 246.941,-187.751"/>
<polygon fill="midnightblue" stroke="midnightblue" points="270.597,-219.029 279.909,-224.083 275.781,-214.325 270.597,-219.029"/>
</g>
<!-- Node5 -->
<g id="node5" class="node"><title>Node5</title>
<g id="a_node5"><a xlink:href="ToFCalculusCamera_8h.xhtml" target="_top" xlink:title="ToFCalculusCamera.h">
<polygon fill="none" stroke="red" points="307.5,-0.5 307.5,-19.5 422.5,-19.5 422.5,-0.5 307.5,-0.5"/>
<text text-anchor="middle" x="365" y="-7.5" font-family="Helvetica,sans-Serif" font-size="10.00">ToFCalculusCamera.h</text>
</a>
</g>
</g>
<!-- Node4&#45;&gt;Node5 -->
<g id="edge4" class="edge"><title>Node4&#45;&gt;Node5</title>
<path fill="none" stroke="midnightblue" d="M359.8,-46.1005C361.128,-37.1357 362.651,-26.8579 363.704,-19.7511"/>
<polygon fill="midnightblue" stroke="midnightblue" points="356.324,-45.678 358.321,-56.083 363.249,-46.7039 356.324,-45.678"/>
</g>
<!-- Node6 -->
<g id="node6" class="node"><title>Node6</title>
<g id="a_node6"><a xlink:href="ToFCamera_8cpp.xhtml" target="_top" xlink:title="ToFCamera.cpp">
<polygon fill="none" stroke="black" points="440.5,-0.5 440.5,-19.5 527.5,-19.5 527.5,-0.5 440.5,-0.5"/>
<text text-anchor="middle" x="484" y="-7.5" font-family="Helvetica,sans-Serif" font-size="10.00">ToFCamera.cpp</text>
</a>
</g>
</g>
<!-- Node4&#45;&gt;Node6 -->
<g id="edge5" class="edge"><title>Node4&#45;&gt;Node6</title>
<path fill="none" stroke="midnightblue" d="M386.391,-52.503C410.2,-42.3795 443.106,-28.388 463.971,-19.5164"/>
<polygon fill="midnightblue" stroke="midnightblue" points="384.957,-49.3096 377.124,-56.4435 387.696,-55.7515 384.957,-49.3096"/>
</g>
<!-- Node7 -->
<g id="node7" class="node"><title>Node7</title>
<g id="a_node7"><a xlink:href="ToFCameraFactoryBase_8cpp.xhtml" target="_top" xlink:title="ToFCameraFactoryBase.cpp">
<polygon fill="none" stroke="black" points="875.5,-0.5 875.5,-19.5 1018.5,-19.5 1018.5,-0.5 875.5,-0.5"/>
<text text-anchor="middle" x="947" y="-7.5" font-family="Helvetica,sans-Serif" font-size="10.00">ToFCameraFactoryBase.cpp</text>
</a>
</g>
</g>
<!-- Node4&#45;&gt;Node7 -->
<g id="edge6" class="edge"><title>Node4&#45;&gt;Node7</title>
<path fill="none" stroke="midnightblue" d="M405.69,-56.0775C510.228,-42.7951 753.448,-24.739 875.225,-16.0396"/>
<polygon fill="midnightblue" stroke="midnightblue" points="405.176,-52.6148 395.717,-57.388 406.088,-59.5551 405.176,-52.6148"/>
</g>
<!-- Node8 -->
<g id="node8" class="node"><title>Node8</title>
<g id="a_node8"><a xlink:href="ToFDepthFrameGenerator_8cpp.xhtml" target="_top" xlink:title="ToFDepthFrameGenerator.cpp">
<polygon fill="none" stroke="black" points="140.5,-0.5 140.5,-19.5 289.5,-19.5 289.5,-0.5 140.5,-0.5"/>
<text text-anchor="middle" x="215" y="-7.5" font-family="Helvetica,sans-Serif" font-size="10.00">ToFDepthFrameGenerator.cpp</text>
</a>
</g>
</g>
<!-- Node4&#45;&gt;Node8 -->
<g id="edge7" class="edge"><title>Node4&#45;&gt;Node8</title>
<path fill="none" stroke="midnightblue" d="M324.845,-52.772C298.172,-42.6287 260.931,-28.4669 237.395,-19.5164"/>
<polygon fill="midnightblue" stroke="midnightblue" points="323.909,-56.1604 334.5,-56.4435 326.397,-49.6176 323.909,-56.1604"/>
</g>
<!-- Node4&#45;&gt;Node9 -->
<g id="edge8" class="edge"><title>Node4&#45;&gt;Node9</title>
<path fill="none" stroke="midnightblue" d="M308.349,-56.1244C252.786,-45.988 162.515,-29.5197 107.757,-19.5299"/>
<polygon fill="midnightblue" stroke="midnightblue" points="307.837,-59.5888 318.303,-57.9404 309.094,-52.7025 307.837,-59.5888"/>
</g>
<!-- Node10 -->
<g id="node10" class="node"><title>Node10</title>
<g id="a_node10"><a xlink:href="ToFHaddockCamera_8h.xhtml" target="_top" xlink:title="ToFHaddockCamera.h">
<polygon fill="none" stroke="red" points="546,-0.5 546,-19.5 662,-19.5 662,-0.5 546,-0.5"/>
<text text-anchor="middle" x="604" y="-7.5" font-family="Helvetica,sans-Serif" font-size="10.00">ToFHaddockCamera.h</text>
</a>
</g>
</g>
<!-- Node4&#45;&gt;Node10 -->
<g id="edge9" class="edge"><title>Node4&#45;&gt;Node10</title>
<path fill="none" stroke="midnightblue" d="M405.464,-54.4046C452.079,-44.2136 521.661,-29.0012 564.862,-19.5565"/>
<polygon fill="midnightblue" stroke="midnightblue" points="404.615,-51.0074 395.594,-56.5625 406.111,-57.8459 404.615,-51.0074"/>
</g>
<!-- Node11 -->
<g id="node11" class="node"><title>Node11</title>
<g id="a_node11"><a xlink:href="ToFTintinCamera_8h.xhtml" target="_top" xlink:title="ToFTintinCamera.h">
<polygon fill="none" stroke="red" points="680.5,-0.5 680.5,-19.5 781.5,-19.5 781.5,-0.5 680.5,-0.5"/>
<text text-anchor="middle" x="731" y="-7.5" font-family="Helvetica,sans-Serif" font-size="10.00">ToFTintinCamera.h</text>
</a>
</g>
</g>
<!-- Node4&#45;&gt;Node11 -->
<g id="edge10" class="edge"><title>Node4&#45;&gt;Node11</title>
<path fill="none" stroke="midnightblue" d="M405.915,-55.9236C524.043,-37.0095 555.534,-36.2188 670,-20 673.392,-19.5194 676.889,-19.0184 680.411,-18.5095"/>
<polygon fill="midnightblue" stroke="midnightblue" points="405.059,-52.5163 395.743,-57.5625 406.173,-59.4272 405.059,-52.5163"/>
</g>
<!-- Node12&#45;&gt;Node8 -->
<g id="edge15" class="edge"><title>Node12&#45;&gt;Node8</title>
<path fill="none" stroke="midnightblue" d="M236.243,-157.93C231.037,-121.92 219.949,-45.2312 216.239,-19.5681"/>
<polygon fill="midnightblue" stroke="midnightblue" points="232.815,-158.679 237.71,-168.075 239.743,-157.677 232.815,-158.679"/>
</g>
<!-- Node13 -->
<g id="node13" class="node"><title>Node13</title>
<g id="a_node13"><a xlink:href="ToFCameraBase_8h.xhtml" target="_top" xlink:title="ToFCameraBase.h">
<polygon fill="none" stroke="black" points="365.5,-112.5 365.5,-131.5 464.5,-131.5 464.5,-112.5 365.5,-112.5"/>
<text text-anchor="middle" x="415" y="-119.5" font-family="Helvetica,sans-Serif" font-size="10.00">ToFCameraBase.h</text>
</a>
</g>
</g>
<!-- Node12&#45;&gt;Node13 -->
<g id="edge12" class="edge"><title>Node12&#45;&gt;Node13</title>
<path fill="none" stroke="midnightblue" d="M276.689,-165.436C309.872,-155.255 357.428,-140.664 387.243,-131.516"/>
<polygon fill="midnightblue" stroke="midnightblue" points="275.421,-162.164 266.888,-168.444 277.475,-168.856 275.421,-162.164"/>
</g>
<!-- Node13&#45;&gt;Node4 -->
<g id="edge13" class="edge"><title>Node13&#45;&gt;Node4</title>
<path fill="none" stroke="midnightblue" d="M398.087,-105.253C387.797,-95.6731 375.034,-83.7906 366.488,-75.8339"/>
<polygon fill="midnightblue" stroke="midnightblue" points="395.977,-108.071 405.681,-112.324 400.747,-102.948 395.977,-108.071"/>
</g>
<!-- Node14 -->
<g id="node14" class="node"><title>Node14</title>
<g id="a_node14"><a xlink:href="ToFCameraBase_8cpp.xhtml" target="_top" xlink:title="ToFCameraBase.cpp">
<polygon fill="none" stroke="black" points="414,-56.5 414,-75.5 524,-75.5 524,-56.5 414,-56.5"/>
<text text-anchor="middle" x="469" y="-63.5" font-family="Helvetica,sans-Serif" font-size="10.00">ToFCameraBase.cpp</text>
</a>
</g>
</g>
<!-- Node13&#45;&gt;Node14 -->
<g id="edge14" class="edge"><title>Node13&#45;&gt;Node14</title>
<path fill="none" stroke="midnightblue" d="M430.998,-105.002C440.567,-95.4329 452.361,-83.6389 460.249,-75.7511"/>
<polygon fill="midnightblue" stroke="midnightblue" points="428.513,-102.537 423.917,-112.083 433.463,-107.487 428.513,-102.537"/>
</g>
<!-- Node17 -->
<g id="node17" class="node"><title>Node17</title>
<g id="a_node17"><a xlink:href="BilateralFilter_8cpp.xhtml" target="_top" xlink:title="BilateralFilter.cpp">
<polygon fill="none" stroke="black" points="1452,-224.5 1452,-243.5 1544,-243.5 1544,-224.5 1452,-224.5"/>
<text text-anchor="middle" x="1498" y="-231.5" font-family="Helvetica,sans-Serif" font-size="10.00">BilateralFilter.cpp</text>
</a>
</g>
</g>
<!-- Node16&#45;&gt;Node17 -->
<g id="edge19" class="edge"><title>Node16&#45;&gt;Node17</title>
<path fill="none" stroke="midnightblue" d="M1551.97,-274.38C1538.59,-264.62 1521.44,-252.106 1510.11,-243.834"/>
<polygon fill="midnightblue" stroke="midnightblue" points="1549.97,-277.257 1560.11,-280.324 1554.1,-271.602 1549.97,-277.257"/>
</g>
<!-- Node18 -->
<g id="node18" class="node"><title>Node18</title>
<g id="a_node18"><a xlink:href="VoxelFilterFactory_8cpp.xhtml" target="_top" xlink:title="VoxelFilterFactory.cpp">
<polygon fill="none" stroke="black" points="1698.5,-56.5 1698.5,-75.5 1813.5,-75.5 1813.5,-56.5 1698.5,-56.5"/>
<text text-anchor="middle" x="1756" y="-63.5" font-family="Helvetica,sans-Serif" font-size="10.00">VoxelFilterFactory.cpp</text>
</a>
</g>
</g>
<!-- Node16&#45;&gt;Node18 -->
<g id="edge20" class="edge"><title>Node16&#45;&gt;Node18</title>
<path fill="none" stroke="midnightblue" d="M1579.82,-270.866C1595.47,-236.281 1633.6,-160.066 1685,-112 1701.31,-96.7497 1723.48,-83.6546 1738.69,-75.5859"/>
<polygon fill="midnightblue" stroke="midnightblue" points="1576.54,-269.624 1575.69,-280.185 1582.94,-272.457 1576.54,-269.624"/>
</g>
<!-- Node21 -->
<g id="node21" class="node"><title>Node21</title>
<g id="a_node21"><a xlink:href="DepthCamera_8h.xhtml" target="_top" xlink:title="DepthCamera.h">
<polygon fill="none" stroke="black" points="891,-224.5 891,-243.5 977,-243.5 977,-224.5 891,-224.5"/>
<text text-anchor="middle" x="934" y="-231.5" font-family="Helvetica,sans-Serif" font-size="10.00">DepthCamera.h</text>
</a>
</g>
</g>
<!-- Node20&#45;&gt;Node21 -->
<g id="edge23" class="edge"><title>Node20&#45;&gt;Node21</title>
<path fill="none" stroke="midnightblue" d="M1158.91,-280.658C1109.3,-270.587 1026.3,-253.738 976.199,-243.567"/>
<polygon fill="midnightblue" stroke="midnightblue" points="1158.47,-284.14 1168.97,-282.7 1159.86,-277.28 1158.47,-284.14"/>
</g>
<!-- Node21&#45;&gt;Node13 -->
<g id="edge28" class="edge"><title>Node21&#45;&gt;Node13</title>
<path fill="none" stroke="midnightblue" d="M880.887,-225.289C839.058,-218.268 779.715,-206.192 730,-188 712.077,-181.441 710.1,-174.054 692,-168 686.629,-166.204 542.836,-143.262 464.601,-130.851"/>
<polygon fill="midnightblue" stroke="midnightblue" points="880.427,-228.76 890.861,-226.923 881.559,-221.852 880.427,-228.76"/>
</g>
<!-- Node22 -->
<g id="node22" class="node"><title>Node22</title>
<g id="a_node22"><a xlink:href="PCLViewer_8h.xhtml" target="_top" xlink:title="PCLViewer.h">
<polygon fill="none" stroke="black" points="837,-168.5 837,-187.5 911,-187.5 911,-168.5 837,-168.5"/>
<text text-anchor="middle" x="874" y="-175.5" font-family="Helvetica,sans-Serif" font-size="10.00">PCLViewer.h</text>
</a>
</g>
</g>
<!-- Node21&#45;&gt;Node22 -->
<g id="edge24" class="edge"><title>Node21&#45;&gt;Node22</title>
<path fill="none" stroke="midnightblue" d="M916.819,-217.537C906.121,-207.909 892.744,-195.869 883.815,-187.834"/>
<polygon fill="midnightblue" stroke="midnightblue" points="914.586,-220.236 924.36,-224.324 919.268,-215.033 914.586,-220.236"/>
</g>
<!-- Node26 -->
<g id="node26" class="node"><title>Node26</title>
<g id="a_node26"><a xlink:href="DepthCamera_8cpp.xhtml" target="_top" xlink:title="DepthCamera.cpp">
<polygon fill="none" stroke="black" points="1072,-168.5 1072,-187.5 1168,-187.5 1168,-168.5 1072,-168.5"/>
<text text-anchor="middle" x="1120" y="-175.5" font-family="Helvetica,sans-Serif" font-size="10.00">DepthCamera.cpp</text>
</a>
</g>
</g>
<!-- Node21&#45;&gt;Node26 -->
<g id="edge29" class="edge"><title>Node21&#45;&gt;Node26</title>
<path fill="none" stroke="midnightblue" d="M973.378,-221.568C1008.47,-211.381 1059.02,-196.703 1090.67,-187.516"/>
<polygon fill="midnightblue" stroke="midnightblue" points="972.1,-218.294 963.472,-224.444 974.052,-225.017 972.1,-218.294"/>
</g>
<!-- Node27 -->
<g id="node27" class="node"><title>Node27</title>
<g id="a_node27"><a xlink:href="DepthCameraFactory_8h.xhtml" target="_top" xlink:title="DepthCameraFactory.h">
<polygon fill="none" stroke="black" points="934.5,-168.5 934.5,-187.5 1053.5,-187.5 1053.5,-168.5 934.5,-168.5"/>
<text text-anchor="middle" x="994" y="-175.5" font-family="Helvetica,sans-Serif" font-size="10.00">DepthCameraFactory.h</text>
</a>
</g>
</g>
<!-- Node21&#45;&gt;Node27 -->
<g id="edge30" class="edge"><title>Node21&#45;&gt;Node27</title>
<path fill="none" stroke="midnightblue" d="M951.181,-217.537C961.879,-207.909 975.256,-195.869 984.185,-187.834"/>
<polygon fill="midnightblue" stroke="midnightblue" points="948.732,-215.033 943.64,-224.324 953.414,-220.236 948.732,-215.033"/>
</g>
<!-- Node36 -->
<g id="node36" class="node"><title>Node36</title>
<g id="a_node36"><a xlink:href="FilterFactory_8h.xhtml" target="_top" xlink:title="FilterFactory.h">
<polygon fill="none" stroke="black" points="1216,-168.5 1216,-187.5 1296,-187.5 1296,-168.5 1216,-168.5"/>
<text text-anchor="middle" x="1256" y="-175.5" font-family="Helvetica,sans-Serif" font-size="10.00">FilterFactory.h</text>
</a>
</g>
</g>
<!-- Node21&#45;&gt;Node36 -->
<g id="edge46" class="edge"><title>Node21&#45;&gt;Node36</title>
<path fill="none" stroke="midnightblue" d="M987.014,-224.109C1051.19,-213.346 1157.85,-195.46 1215.7,-185.759"/>
<polygon fill="midnightblue" stroke="midnightblue" points="986.376,-220.668 977.092,-225.773 987.533,-227.571 986.376,-220.668"/>
</g>
<!-- Node39 -->
<g id="node39" class="node"><title>Node39</title>
<g id="a_node39"><a xlink:href="FrameStream_8cpp.xhtml" target="_top" xlink:title="FrameStream.cpp">
<polygon fill="none" stroke="black" points="1314.5,-168.5 1314.5,-187.5 1409.5,-187.5 1409.5,-168.5 1314.5,-168.5"/>
<text text-anchor="middle" x="1362" y="-175.5" font-family="Helvetica,sans-Serif" font-size="10.00">FrameStream.cpp</text>
</a>
</g>
</g>
<!-- Node21&#45;&gt;Node39 -->
<g id="edge51" class="edge"><title>Node21&#45;&gt;Node39</title>
<path fill="none" stroke="midnightblue" d="M987.39,-227.134C1059.54,-219.066 1192.15,-203.748 1305,-188 1308.08,-187.571 1311.24,-187.114 1314.43,-186.641"/>
<polygon fill="midnightblue" stroke="midnightblue" points="986.743,-223.684 977.192,-228.27 987.518,-230.641 986.743,-223.684"/>
</g>
<!-- Node40 -->
<g id="node40" class="node"><title>Node40</title>
<g id="a_node40"><a xlink:href="PointCloudFrameGenerator_8cpp.xhtml" target="_top" xlink:title="PointCloudFrameGenerator.cpp">
<polygon fill="none" stroke="black" points="375,-168.5 375,-187.5 529,-187.5 529,-168.5 375,-168.5"/>
<text text-anchor="middle" x="452" y="-175.5" font-family="Helvetica,sans-Serif" font-size="10.00">PointCloudFrameGenerator.cpp</text>
</a>
</g>
</g>
<!-- Node21&#45;&gt;Node40 -->
<g id="edge52" class="edge"><title>Node21&#45;&gt;Node40</title>
<path fill="none" stroke="midnightblue" d="M880.784,-227.038C795.178,-217.447 626.553,-198.556 528.202,-187.537"/>
<polygon fill="midnightblue" stroke="midnightblue" points="880.474,-230.525 890.802,-228.16 881.253,-223.569 880.474,-230.525"/>
</g>
<!-- Node41 -->
<g id="node41" class="node"><title>Node41</title>
<g id="a_node41"><a xlink:href="PyDepthCameraCallback_8h.xhtml" target="_top" xlink:title="PyDepthCameraCallback.h">
<polygon fill="none" stroke="black" points="547,-168.5 547,-187.5 683,-187.5 683,-168.5 547,-168.5"/>
<text text-anchor="middle" x="615" y="-175.5" font-family="Helvetica,sans-Serif" font-size="10.00">PyDepthCameraCallback.h</text>
</a>
</g>
</g>
<!-- Node21&#45;&gt;Node41 -->
<g id="edge53" class="edge"><title>Node21&#45;&gt;Node41</title>
<path fill="none" stroke="midnightblue" d="M880.967,-224.023C821.067,-213.883 724.298,-197.502 665.474,-187.544"/>
<polygon fill="midnightblue" stroke="midnightblue" points="880.534,-227.499 890.978,-225.717 881.703,-220.597 880.534,-227.499"/>
</g>
<!-- Node42 -->
<g id="node42" class="node"><title>Node42</title>
<g id="a_node42"><a xlink:href="PCLGrabber_8h.xhtml" target="_top" xlink:title="PCLGrabber.h">
<polygon fill="none" stroke="red" points="739.5,-168.5 739.5,-187.5 818.5,-187.5 818.5,-168.5 739.5,-168.5"/>
<text text-anchor="middle" x="779" y="-175.5" font-family="Helvetica,sans-Serif" font-size="10.00">PCLGrabber.h</text>
</a>
</g>
</g>
<!-- Node21&#45;&gt;Node42 -->
<g id="edge54" class="edge"><title>Node21&#45;&gt;Node42</title>
<path fill="none" stroke="midnightblue" d="M899.668,-221.039C870.503,-210.879 829.363,-196.546 803.445,-187.516"/>
<polygon fill="midnightblue" stroke="midnightblue" points="898.845,-224.459 909.44,-224.444 901.148,-217.848 898.845,-224.459"/>
</g>
<!-- Node23 -->
<g id="node23" class="node"><title>Node23</title>
<g id="a_node23"><a xlink:href="CLIManager_8h.xhtml" target="_top" xlink:title="CLIManager.h">
<polygon fill="none" stroke="red" points="586,-112.5 586,-131.5 664,-131.5 664,-112.5 586,-112.5"/>
<text text-anchor="middle" x="625" y="-119.5" font-family="Helvetica,sans-Serif" font-size="10.00">CLIManager.h</text>
</a>
</g>
</g>
<!-- Node22&#45;&gt;Node23 -->
<g id="edge25" class="edge"><title>Node22&#45;&gt;Node23</title>
<path fill="none" stroke="midnightblue" d="M827.052,-166.818C780.002,-156.615 708.399,-141.086 664.269,-131.516"/>
<polygon fill="midnightblue" stroke="midnightblue" points="826.476,-170.275 836.991,-168.974 827.96,-163.434 826.476,-170.275"/>
</g>
<!-- Node24 -->
<g id="node24" class="node"><title>Node24</title>
<g id="a_node24"><a xlink:href="PCLViewer_8cpp.xhtml" target="_top" xlink:title="PCLViewer.cpp">
<polygon fill="none" stroke="black" points="482.5,-112.5 482.5,-131.5 567.5,-131.5 567.5,-112.5 482.5,-112.5"/>
<text text-anchor="middle" x="525" y="-119.5" font-family="Helvetica,sans-Serif" font-size="10.00">PCLViewer.cpp</text>
</a>
</g>
</g>
<!-- Node22&#45;&gt;Node24 -->
<g id="edge26" class="edge"><title>Node22&#45;&gt;Node24</title>
<path fill="none" stroke="midnightblue" d="M826.805,-168.043C714.612,-149.432 684.733,-149.076 577,-132 573.923,-131.512 570.747,-130.995 567.551,-130.466"/>
<polygon fill="midnightblue" stroke="midnightblue" points="826.388,-171.522 836.828,-169.718 827.542,-164.618 826.388,-171.522"/>
</g>
<!-- Node25 -->
<g id="node25" class="node"><title>Node25</title>
<g id="a_node25"><a xlink:href="SimpleVoxelViewer_8cpp.xhtml" target="_top" xlink:title="SimpleVoxelViewer.cpp">
<polygon fill="none" stroke="black" points="682,-112.5 682,-131.5 802,-131.5 802,-112.5 682,-112.5"/>
<text text-anchor="middle" x="742" y="-119.5" font-family="Helvetica,sans-Serif" font-size="10.00">SimpleVoxelViewer.cpp</text>
</a>
</g>
</g>
<!-- Node22&#45;&gt;Node25 -->
<g id="edge27" class="edge"><title>Node22&#45;&gt;Node25</title>
<path fill="none" stroke="midnightblue" d="M843.781,-164.638C819.01,-154.504 784.6,-140.427 762.818,-131.516"/>
<polygon fill="midnightblue" stroke="midnightblue" points="842.503,-167.897 853.084,-168.444 845.154,-161.418 842.503,-167.897"/>
</g>
<!-- Node28 -->
<g id="node28" class="node"><title>Node28</title>
<g id="a_node28"><a xlink:href="CalculusCDKCameraFactory_8h.xhtml" target="_top" xlink:title="CalculusCDKCameraFactory.h">
<polygon fill="none" stroke="red" points="1026,-56.5 1026,-75.5 1178,-75.5 1178,-56.5 1026,-56.5"/>
<text text-anchor="middle" x="1102" y="-63.5" font-family="Helvetica,sans-Serif" font-size="10.00">CalculusCDKCameraFactory.h</text>
</a>
</g>
</g>
<!-- Node27&#45;&gt;Node28 -->
<g id="edge31" class="edge"><title>Node27&#45;&gt;Node28</title>
<path fill="none" stroke="midnightblue" d="M1028.05,-164.293C1044.03,-156.905 1062.31,-146.212 1075,-132 1089.97,-115.226 1097.37,-88.9855 1100.35,-75.5521"/>
<polygon fill="midnightblue" stroke="midnightblue" points="1026.23,-161.267 1018.46,-168.469 1029.03,-167.684 1026.23,-161.267"/>
</g>
<!-- Node29 -->
<g id="node29" class="node"><title>Node29</title>
<g id="a_node29"><a xlink:href="HaddockCDKCameraFactory_8h.xhtml" target="_top" xlink:title="HaddockCDKCameraFactory.h">
<polygon fill="none" stroke="red" points="1196.5,-56.5 1196.5,-75.5 1349.5,-75.5 1349.5,-56.5 1196.5,-56.5"/>
<text text-anchor="middle" x="1273" y="-63.5" font-family="Helvetica,sans-Serif" font-size="10.00">HaddockCDKCameraFactory.h</text>
</a>
</g>
</g>
<!-- Node27&#45;&gt;Node29 -->
<g id="edge32" class="edge"><title>Node27&#45;&gt;Node29</title>
<path fill="none" stroke="midnightblue" d="M1024.33,-164.68C1056.84,-151.509 1109.99,-130.077 1156,-112 1188.81,-99.1072 1226.95,-84.5115 1250.53,-75.5311"/>
<polygon fill="midnightblue" stroke="midnightblue" points="1022.88,-161.488 1014.93,-168.489 1025.51,-167.976 1022.88,-161.488"/>
</g>
<!-- Node30 -->
<g id="node30" class="node"><title>Node30</title>
<g id="a_node30"><a xlink:href="RTS5825CameraFactory_8h.xhtml" target="_top" xlink:title="RTS5825CameraFactory.h">
<polygon fill="none" stroke="red" points="1368,-56.5 1368,-75.5 1502,-75.5 1502,-56.5 1368,-56.5"/>
<text text-anchor="middle" x="1435" y="-63.5" font-family="Helvetica,sans-Serif" font-size="10.00">RTS5825CameraFactory.h</text>
</a>
</g>
</g>
<!-- Node27&#45;&gt;Node30 -->
<g id="edge33" class="edge"><title>Node27&#45;&gt;Node30</title>
<path fill="none" stroke="midnightblue" d="M1037.93,-165.839C1068.6,-157.603 1110.27,-145.514 1146,-132 1165.71,-124.544 1168.92,-118.392 1189,-112 1223.6,-100.988 1317.99,-85.1578 1379.28,-75.5049"/>
<polygon fill="midnightblue" stroke="midnightblue" points="1036.75,-162.533 1027.98,-168.481 1038.54,-169.299 1036.75,-162.533"/>
</g>
<!-- Node31 -->
<g id="node31" class="node"><title>Node31</title>
<g id="a_node31"><a xlink:href="TintinCDKCameraFactory_8h.xhtml" target="_top" xlink:title="TintinCDKCameraFactory.h">
<polygon fill="none" stroke="red" points="542,-56.5 542,-75.5 680,-75.5 680,-56.5 542,-56.5"/>
<text text-anchor="middle" x="611" y="-63.5" font-family="Helvetica,sans-Serif" font-size="10.00">TintinCDKCameraFactory.h</text>
</a>
</g>
</g>
<!-- Node27&#45;&gt;Node31 -->
<g id="edge34" class="edge"><title>Node27&#45;&gt;Node31</title>
<path fill="none" stroke="midnightblue" d="M954.246,-165.561C925.988,-157.106 887.298,-144.87 854,-132 833.963,-124.256 830.36,-118.849 810,-112 760.817,-95.4547 702.755,-83.109 662.084,-75.5748"/>
<polygon fill="midnightblue" stroke="midnightblue" points="953.574,-169.012 964.156,-168.499 955.563,-162.3 953.574,-169.012"/>
</g>
<!-- Node32 -->
<g id="node32" class="node"><title>Node32</title>
<g id="a_node32"><a xlink:href="Voxel14CameraFactory_8h.xhtml" target="_top" xlink:title="Voxel14CameraFactory.h">
<polygon fill="none" stroke="red" points="698,-56.5 698,-75.5 826,-75.5 826,-56.5 698,-56.5"/>
<text text-anchor="middle" x="762" y="-63.5" font-family="Helvetica,sans-Serif" font-size="10.00">Voxel14CameraFactory.h</text>
</a>
</g>
</g>
<!-- Node27&#45;&gt;Node32 -->
<g id="edge35" class="edge"><title>Node27&#45;&gt;Node32</title>
<path fill="none" stroke="midnightblue" d="M966.627,-164.021C918.646,-141.272 820.614,-94.791 780.12,-75.5914"/>
<polygon fill="midnightblue" stroke="midnightblue" points="965.26,-167.247 975.795,-168.368 968.259,-160.922 965.26,-167.247"/>
</g>
<!-- Node33 -->
<g id="node33" class="node"><title>Node33</title>
<g id="a_node33"><a xlink:href="VoxelDCameraFactory_8h.xhtml" target="_top" xlink:title="VoxelDCameraFactory.h">
<polygon fill="none" stroke="red" points="844.5,-56.5 844.5,-75.5 969.5,-75.5 969.5,-56.5 844.5,-56.5"/>
<text text-anchor="middle" x="907" y="-63.5" font-family="Helvetica,sans-Serif" font-size="10.00">VoxelDCameraFactory.h</text>
</a>
</g>
</g>
<!-- Node27&#45;&gt;Node33 -->
<g id="edge36" class="edge"><title>Node27&#45;&gt;Node33</title>
<path fill="none" stroke="midnightblue" d="M964.085,-163.707C950.352,-156.212 934.947,-145.599 925,-132 912.418,-114.799 908.628,-89.2027 907.489,-75.842"/>
<polygon fill="midnightblue" stroke="midnightblue" points="962.742,-166.952 973.238,-168.396 965.934,-160.722 962.742,-166.952"/>
</g>
<!-- Node34 -->
<g id="node34" class="node"><title>Node34</title>
<g id="a_node34"><a xlink:href="ToFCameraFactoryBase_8h.xhtml" target="_top" xlink:title="ToFCameraFactoryBase.h">
<polygon fill="none" stroke="black" points="934,-112.5 934,-131.5 1066,-131.5 1066,-112.5 934,-112.5"/>
<text text-anchor="middle" x="1000" y="-119.5" font-family="Helvetica,sans-Serif" font-size="10.00">ToFCameraFactoryBase.h</text>
</a>
</g>
</g>
<!-- Node27&#45;&gt;Node34 -->
<g id="edge37" class="edge"><title>Node27&#45;&gt;Node34</title>
<path fill="none" stroke="midnightblue" d="M996.1,-158.101C997.096,-149.136 998.238,-138.858 999.028,-131.751"/>
<polygon fill="midnightblue" stroke="midnightblue" points="992.617,-157.758 994.991,-168.083 999.574,-158.531 992.617,-157.758"/>
</g>
<!-- Node35 -->
<g id="node35" class="node"><title>Node35</title>
<g id="a_node35"><a xlink:href="DepthCameraLibrary_8h.xhtml" target="_top" xlink:title="DepthCameraLibrary.h">
<polygon fill="none" stroke="red" points="1198.5,-112.5 1198.5,-131.5 1313.5,-131.5 1313.5,-112.5 1198.5,-112.5"/>
<text text-anchor="middle" x="1256" y="-119.5" font-family="Helvetica,sans-Serif" font-size="10.00">DepthCameraLibrary.h</text>
</a>
</g>
</g>
<!-- Node27&#45;&gt;Node35 -->
<g id="edge45" class="edge"><title>Node27&#45;&gt;Node35</title>
<path fill="none" stroke="midnightblue" d="M1045.38,-166.41C1094.9,-156.204 1168.86,-140.96 1214.68,-131.516"/>
<polygon fill="midnightblue" stroke="midnightblue" points="1044.6,-162.997 1035.51,-168.444 1046.02,-169.853 1044.6,-162.997"/>
</g>
<!-- Node34&#45;&gt;Node7 -->
<g id="edge44" class="edge"><title>Node34&#45;&gt;Node7</title>
<path fill="none" stroke="midnightblue" d="M995.198,-102.418C991.407,-89.1127 985.51,-70.9761 978,-56 971.196,-42.4313 960.788,-28.2454 953.938,-19.514"/>
<polygon fill="midnightblue" stroke="midnightblue" points="991.878,-103.55 997.876,-112.284 998.634,-101.716 991.878,-103.55"/>
</g>
<!-- Node34&#45;&gt;Node28 -->
<g id="edge38" class="edge"><title>Node34&#45;&gt;Node28</title>
<path fill="none" stroke="midnightblue" d="M1025.33,-107.59C1044.19,-97.6052 1069.38,-84.2672 1085.65,-75.6545"/>
<polygon fill="midnightblue" stroke="midnightblue" points="1023.59,-104.552 1016.39,-112.324 1026.86,-110.738 1023.59,-104.552"/>
</g>
<!-- Node34&#45;&gt;Node29 -->
<g id="edge39" class="edge"><title>Node34&#45;&gt;Node29</title>
<path fill="none" stroke="midnightblue" d="M1053.22,-110.473C1104.81,-100.268 1182.1,-84.9794 1229.94,-75.5164"/>
<polygon fill="midnightblue" stroke="midnightblue" points="1052.39,-107.07 1043.26,-112.444 1053.75,-113.937 1052.39,-107.07"/>
</g>
<!-- Node34&#45;&gt;Node30 -->
<g id="edge40" class="edge"><title>Node34&#45;&gt;Node30</title>
<path fill="none" stroke="midnightblue" d="M1076.14,-111.548C1158.68,-101.302 1289.15,-85.1056 1367.95,-75.3231"/>
<polygon fill="midnightblue" stroke="midnightblue" points="1075.56,-108.093 1066.07,-112.799 1076.42,-115.04 1075.56,-108.093"/>
</g>
<!-- Node34&#45;&gt;Node31 -->
<g id="edge41" class="edge"><title>Node34&#45;&gt;Node31</title>
<path fill="none" stroke="midnightblue" d="M928.266,-111.042C854.796,-100.843 741.797,-85.1569 672.35,-75.5164"/>
<polygon fill="midnightblue" stroke="midnightblue" points="927.975,-114.535 938.362,-112.444 928.938,-107.602 927.975,-114.535"/>
</g>
<!-- Node34&#45;&gt;Node32 -->
<g id="edge42" class="edge"><title>Node34&#45;&gt;Node32</title>
<path fill="none" stroke="midnightblue" d="M952.476,-110.217C907.504,-100.013 840.895,-84.9006 799.535,-75.5164"/>
<polygon fill="midnightblue" stroke="midnightblue" points="951.762,-113.644 962.288,-112.444 953.311,-106.818 951.762,-113.644"/>
</g>
<!-- Node34&#45;&gt;Node33 -->
<g id="edge43" class="edge"><title>Node34&#45;&gt;Node33</title>
<path fill="none" stroke="midnightblue" d="M976.194,-107.177C959.081,-97.2407 936.535,-84.1492 921.905,-75.6545"/>
<polygon fill="midnightblue" stroke="midnightblue" points="974.653,-110.329 985.058,-112.324 978.168,-104.276 974.653,-110.329"/>
</g>
<!-- Node36&#45;&gt;Node35 -->
<g id="edge47" class="edge"><title>Node36&#45;&gt;Node35</title>
<path fill="none" stroke="midnightblue" d="M1256,-157.805C1256,-148.91 1256,-138.78 1256,-131.751"/>
<polygon fill="midnightblue" stroke="midnightblue" points="1252.5,-158.083 1256,-168.083 1259.5,-158.083 1252.5,-158.083"/>
</g>
<!-- Node37 -->
<g id="node37" class="node"><title>Node37</title>
<g id="a_node37"><a xlink:href="FilterFactory_8cpp.xhtml" target="_top" xlink:title="FilterFactory.cpp">
<polygon fill="none" stroke="black" points="1332,-112.5 1332,-131.5 1422,-131.5 1422,-112.5 1332,-112.5"/>
<text text-anchor="middle" x="1377" y="-119.5" font-family="Helvetica,sans-Serif" font-size="10.00">FilterFactory.cpp</text>
</a>
</g>
</g>
<!-- Node36&#45;&gt;Node37 -->
<g id="edge48" class="edge"><title>Node36&#45;&gt;Node37</title>
<path fill="none" stroke="midnightblue" d="M1284.31,-164.368C1306.97,-154.255 1338.13,-140.349 1357.92,-131.516"/>
<polygon fill="midnightblue" stroke="midnightblue" points="1282.88,-161.172 1275.17,-168.444 1285.73,-167.564 1282.88,-161.172"/>
</g>
<!-- Node38 -->
<g id="node38" class="node"><title>Node38</title>
<g id="a_node38"><a xlink:href="VoxelFilterFactory_8h.xhtml" target="_top" xlink:title="VoxelFilterFactory.h">
<polygon fill="none" stroke="red" points="1440,-112.5 1440,-131.5 1544,-131.5 1544,-112.5 1440,-112.5"/>
<text text-anchor="middle" x="1492" y="-119.5" font-family="Helvetica,sans-Serif" font-size="10.00">VoxelFilterFactory.h</text>
</a>
</g>
</g>
<!-- Node36&#45;&gt;Node38 -->
<g id="edge49" class="edge"><title>Node36&#45;&gt;Node38</title>
<path fill="none" stroke="midnightblue" d="M1303.41,-166.153C1348,-155.95 1413.85,-140.881 1454.78,-131.516"/>
<polygon fill="midnightblue" stroke="midnightblue" points="1302.36,-162.801 1293.39,-168.444 1303.92,-169.625 1302.36,-162.801"/>
</g>
<!-- Node38&#45;&gt;Node18 -->
<g id="edge50" class="edge"><title>Node38&#45;&gt;Node18</title>
<path fill="none" stroke="midnightblue" d="M1543.78,-110.41C1593.67,-100.204 1668.2,-84.9597 1714.36,-75.5164"/>
<polygon fill="midnightblue" stroke="midnightblue" points="1542.93,-107.01 1533.83,-112.444 1544.33,-113.869 1542.93,-107.01"/>
</g>
<!-- Node42&#45;&gt;Node24 -->
<g id="edge55" class="edge"><title>Node42&#45;&gt;Node24</title>
<path fill="none" stroke="midnightblue" d="M729.463,-166.469C681.527,-156.277 609.766,-141.021 565.247,-131.556"/>
<polygon fill="midnightblue" stroke="midnightblue" points="728.803,-169.906 739.312,-168.562 730.259,-163.059 728.803,-169.906"/>
</g>
<!-- Node43&#45;&gt;Node18 -->
<g id="edge58" class="edge"><title>Node43&#45;&gt;Node18</title>
<path fill="none" stroke="midnightblue" d="M1933.72,-271.115C1918.79,-236.35 1881.62,-158.958 1829,-112 1812,-96.8329 1789.25,-83.7215 1773.69,-75.6262"/>
<polygon fill="midnightblue" stroke="midnightblue" points="1930.54,-272.583 1937.63,-280.455 1937,-269.879 1930.54,-272.583"/>
</g>
<!-- Node44 -->
<g id="node44" class="node"><title>Node44</title>
<g id="a_node44"><a xlink:href="IIRFilter_8cpp.xhtml" target="_top" xlink:title="IIRFilter.cpp">
<polygon fill="none" stroke="black" points="1969.5,-224.5 1969.5,-243.5 2040.5,-243.5 2040.5,-224.5 1969.5,-224.5"/>
<text text-anchor="middle" x="2005" y="-231.5" font-family="Helvetica,sans-Serif" font-size="10.00">IIRFilter.cpp</text>
</a>
</g>
</g>
<!-- Node43&#45;&gt;Node44 -->
<g id="edge57" class="edge"><title>Node43&#45;&gt;Node44</title>
<path fill="none" stroke="midnightblue" d="M1958.99,-273.82C1970.46,-264.145 1984.91,-251.948 1994.53,-243.834"/>
<polygon fill="midnightblue" stroke="midnightblue" points="1956.67,-271.2 1951.28,-280.324 1961.18,-276.55 1956.67,-271.2"/>
</g>
<!-- Node45&#45;&gt;Node18 -->
<g id="edge61" class="edge"><title>Node45&#45;&gt;Node18</title>
<path fill="none" stroke="midnightblue" d="M1650.75,-273.745C1642.37,-265.869 1633.45,-255.502 1629,-244 1625.79,-235.711 1626.04,-232.38 1629,-224 1652.74,-156.908 1718.69,-97.498 1744.98,-75.7745"/>
<polygon fill="midnightblue" stroke="midnightblue" points="1648.63,-276.54 1658.46,-280.49 1653.24,-271.271 1648.63,-276.54"/>
</g>
<!-- Node46 -->
<g id="node46" class="node"><title>Node46</title>
<g id="a_node46"><a xlink:href="MedianFilter_8cpp.xhtml" target="_top" xlink:title="MedianFilter.cpp">
<polygon fill="none" stroke="black" points="1638.5,-224.5 1638.5,-243.5 1727.5,-243.5 1727.5,-224.5 1638.5,-224.5"/>
<text text-anchor="middle" x="1683" y="-231.5" font-family="Helvetica,sans-Serif" font-size="10.00">MedianFilter.cpp</text>
</a>
</g>
</g>
<!-- Node45&#45;&gt;Node46 -->
<g id="edge60" class="edge"><title>Node45&#45;&gt;Node46</title>
<path fill="none" stroke="midnightblue" d="M1674.55,-270.101C1676.71,-261.136 1679.18,-250.858 1680.89,-243.751"/>
<polygon fill="midnightblue" stroke="midnightblue" points="1671.08,-269.542 1672.15,-280.083 1677.89,-271.18 1671.08,-269.542"/>
</g>
<!-- Node47&#45;&gt;Node18 -->
<g id="edge64" class="edge"><title>Node47&#45;&gt;Node18</title>
<path fill="none" stroke="midnightblue" d="M2129.15,-275.025C2148.76,-262.259 2170.7,-242.595 2158,-224 2079.82,-109.539 1904.7,-78.5192 1813.57,-70.1175"/>
<polygon fill="midnightblue" stroke="midnightblue" points="2127.13,-272.16 2120.44,-280.377 2130.79,-278.125 2127.13,-272.16"/>
</g>
<!-- Node48 -->
<g id="node48" class="node"><title>Node48</title>
<g id="a_node48"><a xlink:href="SmoothFilter_8cpp.xhtml" target="_top" xlink:title="SmoothFilter.cpp">
<polygon fill="none" stroke="black" points="2058.5,-224.5 2058.5,-243.5 2149.5,-243.5 2149.5,-224.5 2058.5,-224.5"/>
<text text-anchor="middle" x="2104" y="-231.5" font-family="Helvetica,sans-Serif" font-size="10.00">SmoothFilter.cpp</text>
</a>
</g>
</g>
<!-- Node47&#45;&gt;Node48 -->
<g id="edge63" class="edge"><title>Node47&#45;&gt;Node48</title>
<path fill="none" stroke="midnightblue" d="M2104,-269.805C2104,-260.91 2104,-250.78 2104,-243.751"/>
<polygon fill="midnightblue" stroke="midnightblue" points="2100.5,-270.083 2104,-280.083 2107.5,-270.083 2100.5,-270.083"/>
</g>
<!-- Node49&#45;&gt;Node18 -->
<g id="edge67" class="edge"><title>Node49&#45;&gt;Node18</title>
<path fill="none" stroke="midnightblue" d="M1845.45,-276.196C1859.78,-269.064 1874.84,-258.609 1883,-244 1887.33,-236.239 1885.96,-232.38 1883,-224 1859.26,-156.908 1793.31,-97.498 1767.02,-75.7745"/>
<polygon fill="midnightblue" stroke="midnightblue" points="1843.85,-273.076 1836.21,-280.414 1846.76,-279.443 1843.85,-273.076"/>
</g>
<!-- Node50 -->
<g id="node50" class="node"><title>Node50</title>
<g id="a_node50"><a xlink:href="TemporalMedianFilter_8cpp.xhtml" target="_top" xlink:title="TemporalMedianFilter.cpp">
<polygon fill="none" stroke="black" points="1745.5,-224.5 1745.5,-243.5 1874.5,-243.5 1874.5,-224.5 1745.5,-224.5"/>
<text text-anchor="middle" x="1810" y="-231.5" font-family="Helvetica,sans-Serif" font-size="10.00">TemporalMedianFilter.cpp</text>
</a>
</g>
</g>
<!-- Node49&#45;&gt;Node50 -->
<g id="edge66" class="edge"><title>Node49&#45;&gt;Node50</title>
<path fill="none" stroke="midnightblue" d="M1810,-269.805C1810,-260.91 1810,-250.78 1810,-243.751"/>
<polygon fill="midnightblue" stroke="midnightblue" points="1806.5,-270.083 1810,-280.083 1813.5,-270.083 1806.5,-270.083"/>
</g>
</g>
</svg>
