<?xml version="1.0" encoding="UTF-8" standalone="no"?>
<!DOCTYPE svg PUBLIC "-//W3C//DTD SVG 1.1//EN"
 "http://www.w3.org/Graphics/SVG/1.1/DTD/svg11.dtd">
<!-- Generated by graphviz version 2.36.0 (20140111.2315)
 -->
<!-- Title: Graphical Class Hierarchy Pages: 1 -->
<svg width="282pt" height="66pt"
 viewBox="0.00 0.00 282.00 66.00" xmlns="http://www.w3.org/2000/svg" xmlns:xlink="http://www.w3.org/1999/xlink">
<g id="graph0" class="graph" transform="scale(1 1) rotate(0) translate(4 62)">
<title>Graphical Class Hierarchy</title>
<!-- Node1 -->
<g id="node1" class="node"><title>Node1</title>
<g id="a_node1"><a xlink:href="structVoxel_1_1DataPacket.xhtml" target="_top" xlink:title="Voxel::DataPacket">
<polygon fill="none" stroke="black" points="0.5,-19.5 0.5,-38.5 99.5,-38.5 99.5,-19.5 0.5,-19.5"/>
<text text-anchor="middle" x="50" y="-26.5" font-family="Helvetica,sans-Serif" font-size="10.00">Voxel::DataPacket</text>
</a>
</g>
</g>
<!-- Node2 -->
<g id="node2" class="node"><title>Node2</title>
<g id="a_node2"><a xlink:href="structVoxel_1_1ConfigDataPacket.xhtml" target="_top" xlink:title="Voxel::ConfigDataPacket">
<polygon fill="none" stroke="black" points="141,-38.5 141,-57.5 269,-57.5 269,-38.5 141,-38.5"/>
<text text-anchor="middle" x="205" y="-45.5" font-family="Helvetica,sans-Serif" font-size="10.00">Voxel::ConfigDataPacket</text>
</a>
</g>
</g>
<!-- Node1&#45;&gt;Node2 -->
<g id="edge1" class="edge"><title>Node1&#45;&gt;Node2</title>
<path fill="none" stroke="midnightblue" d="M109.807,-36.3029C119.959,-37.5635 130.551,-38.8788 140.812,-40.1532"/>
<polygon fill="midnightblue" stroke="midnightblue" points="110.186,-32.8231 99.8308,-35.064 109.323,-39.7697 110.186,-32.8231"/>
</g>
<!-- Node3 -->
<g id="node3" class="node"><title>Node3</title>
<g id="a_node3"><a xlink:href="structVoxel_1_1FrameStreamPacket.xhtml" target="_top" xlink:title="Voxel::FrameStreamPacket">
<polygon fill="none" stroke="black" points="136.5,-0.5 136.5,-19.5 273.5,-19.5 273.5,-0.5 136.5,-0.5"/>
<text text-anchor="middle" x="205" y="-7.5" font-family="Helvetica,sans-Serif" font-size="10.00">Voxel::FrameStreamPacket</text>
</a>
</g>
</g>
<!-- Node1&#45;&gt;Node3 -->
<g id="edge2" class="edge"><title>Node1&#45;&gt;Node3</title>
<path fill="none" stroke="midnightblue" d="M109.85,-21.6918C118.535,-20.6133 127.541,-19.4949 136.387,-18.3964"/>
<polygon fill="midnightblue" stroke="midnightblue" points="109.323,-18.2303 99.8308,-22.936 110.186,-25.1769 109.323,-18.2303"/>
</g>
</g>
</svg>
