<?xml version="1.0" encoding="UTF-8" standalone="no"?>
<!DOCTYPE svg PUBLIC "-//W3C//DTD SVG 1.1//EN"
 "http://www.w3.org/Graphics/SVG/1.1/DTD/svg11.dtd">
<!-- Generated by graphviz version 2.36.0 (20140111.2315)
 -->
<!-- Title: Graphical Class Hierarchy Pages: 1 -->
<svg width="332pt" height="234pt"
 viewBox="0.00 0.00 332.00 234.00" xmlns="http://www.w3.org/2000/svg" xmlns:xlink="http://www.w3.org/1999/xlink">
<g id="graph0" class="graph" transform="scale(1 1) rotate(0) translate(4 230)">
<title>Graphical Class Hierarchy</title>
<!-- Node1 -->
<g id="node1" class="node"><title>Node1</title>
<g id="a_node1"><a xlink:href="classTinyXML2_1_1MemPool.xhtml" target="_top" xlink:title="TinyXML2::MemPool">
<polygon fill="none" stroke="black" points="0,-103.5 0,-122.5 108,-122.5 108,-103.5 0,-103.5"/>
<text text-anchor="middle" x="54" y="-110.5" font-family="Helvetica,sans-Serif" font-size="10.00">TinyXML2::MemPool</text>
</a>
</g>
</g>
<!-- Node2 -->
<g id="node2" class="node"><title>Node2</title>
<g id="a_node2"><a xlink:href="classTinyXML2_1_1MemPoolT.xhtml" target="_top" xlink:title="TinyXML2::MemPoolT\l\&lt; sizeof(TinyXML2::XMLAttribute) \&gt;">
<polygon fill="none" stroke="black" points="147,-196 147,-226 321,-226 321,-196 147,-196"/>
<text text-anchor="start" x="155" y="-214" font-family="Helvetica,sans-Serif" font-size="10.00">TinyXML2::MemPoolT</text>
<text text-anchor="middle" x="234" y="-203" font-family="Helvetica,sans-Serif" font-size="10.00">&lt; sizeof(TinyXML2::XMLAttribute) &gt;</text>
</a>
</g>
</g>
<!-- Node1&#45;&gt;Node2 -->
<g id="edge1" class="edge"><title>Node1&#45;&gt;Node2</title>
<path fill="none" stroke="midnightblue" d="M71.2469,-129.912C88.0218,-146.45 115.672,-171.238 144,-186 151.259,-189.783 159.158,-193.05 167.153,-195.858"/>
<polygon fill="midnightblue" stroke="midnightblue" points="73.4575,-127.171 63.9302,-122.536 68.4878,-132.101 73.4575,-127.171"/>
</g>
<!-- Node3 -->
<g id="node3" class="node"><title>Node3</title>
<g id="a_node3"><a xlink:href="classTinyXML2_1_1MemPoolT.xhtml" target="_top" xlink:title="TinyXML2::MemPoolT\l\&lt; sizeof(TinyXML2::XMLComment) \&gt;">
<polygon fill="none" stroke="black" points="144,-147 144,-177 324,-177 324,-147 144,-147"/>
<text text-anchor="start" x="152" y="-165" font-family="Helvetica,sans-Serif" font-size="10.00">TinyXML2::MemPoolT</text>
<text text-anchor="middle" x="234" y="-154" font-family="Helvetica,sans-Serif" font-size="10.00">&lt; sizeof(TinyXML2::XMLComment) &gt;</text>
</a>
</g>
</g>
<!-- Node1&#45;&gt;Node3 -->
<g id="edge2" class="edge"><title>Node1&#45;&gt;Node3</title>
<path fill="none" stroke="midnightblue" d="M99.6001,-125.278C123.489,-131.854 153.115,-140.009 178.376,-146.963"/>
<polygon fill="midnightblue" stroke="midnightblue" points="100.313,-121.844 89.7427,-122.564 98.4552,-128.593 100.313,-121.844"/>
</g>
<!-- Node4 -->
<g id="node4" class="node"><title>Node4</title>
<g id="a_node4"><a xlink:href="classTinyXML2_1_1MemPoolT.xhtml" target="_top" xlink:title="TinyXML2::MemPoolT\l\&lt; sizeof(TinyXML2::XMLElement) \&gt;">
<polygon fill="none" stroke="black" points="147.5,-98 147.5,-128 320.5,-128 320.5,-98 147.5,-98"/>
<text text-anchor="start" x="155.5" y="-116" font-family="Helvetica,sans-Serif" font-size="10.00">TinyXML2::MemPoolT</text>
<text text-anchor="middle" x="234" y="-105" font-family="Helvetica,sans-Serif" font-size="10.00">&lt; sizeof(TinyXML2::XMLElement) &gt;</text>
</a>
</g>
</g>
<!-- Node1&#45;&gt;Node4 -->
<g id="edge3" class="edge"><title>Node1&#45;&gt;Node4</title>
<path fill="none" stroke="midnightblue" d="M118.705,-113C128,-113 137.696,-113 147.34,-113"/>
<polygon fill="midnightblue" stroke="midnightblue" points="118.406,-109.5 108.406,-113 118.406,-116.5 118.406,-109.5"/>
</g>
<!-- Node5 -->
<g id="node5" class="node"><title>Node5</title>
<g id="a_node5"><a xlink:href="classTinyXML2_1_1MemPoolT.xhtml" target="_top" xlink:title="TinyXML2::MemPoolT\l\&lt; sizeof(TinyXML2::XMLText) \&gt;">
<polygon fill="none" stroke="black" points="155.5,-49 155.5,-79 312.5,-79 312.5,-49 155.5,-49"/>
<text text-anchor="start" x="163.5" y="-67" font-family="Helvetica,sans-Serif" font-size="10.00">TinyXML2::MemPoolT</text>
<text text-anchor="middle" x="234" y="-56" font-family="Helvetica,sans-Serif" font-size="10.00">&lt; sizeof(TinyXML2::XMLText) &gt;</text>
</a>
</g>
</g>
<!-- Node1&#45;&gt;Node5 -->
<g id="edge4" class="edge"><title>Node1&#45;&gt;Node5</title>
<path fill="none" stroke="midnightblue" d="M99.6001,-100.722C123.489,-94.1463 153.115,-85.9908 178.376,-79.037"/>
<polygon fill="midnightblue" stroke="midnightblue" points="98.4552,-97.4074 89.7427,-103.436 100.313,-104.156 98.4552,-97.4074"/>
</g>
<!-- Node6 -->
<g id="node6" class="node"><title>Node6</title>
<g id="a_node6"><a xlink:href="classTinyXML2_1_1MemPoolT.xhtml" target="_top" xlink:title="TinyXML2::MemPoolT\l\&lt; SIZE \&gt;">
<polygon fill="none" stroke="black" points="177,-0 177,-30 291,-30 291,-0 177,-0"/>
<text text-anchor="start" x="185" y="-18" font-family="Helvetica,sans-Serif" font-size="10.00">TinyXML2::MemPoolT</text>
<text text-anchor="middle" x="234" y="-7" font-family="Helvetica,sans-Serif" font-size="10.00">&lt; SIZE &gt;</text>
</a>
</g>
</g>
<!-- Node1&#45;&gt;Node6 -->
<g id="edge5" class="edge"><title>Node1&#45;&gt;Node6</title>
<path fill="none" stroke="midnightblue" d="M71.2469,-96.0877C88.0218,-79.5495 115.672,-54.762 144,-40 154.105,-34.734 165.451,-30.466 176.572,-27.0474"/>
<polygon fill="midnightblue" stroke="midnightblue" points="68.4878,-93.8992 63.9302,-103.464 73.4575,-98.829 68.4878,-93.8992"/>
</g>
</g>
</svg>
