<?xml version="1.0" encoding="UTF-8" standalone="no"?>
<!DOCTYPE svg PUBLIC "-//W3C//DTD SVG 1.1//EN"
 "http://www.w3.org/Graphics/SVG/1.1/DTD/svg11.dtd">
<!-- Generated by graphviz version 2.36.0 (20140111.2315)
 -->
<!-- Title: Graphical Class Hierarchy Pages: 1 -->
<svg width="222pt" height="66pt"
 viewBox="0.00 0.00 222.00 66.00" xmlns="http://www.w3.org/2000/svg" xmlns:xlink="http://www.w3.org/1999/xlink">
<g id="graph0" class="graph" transform="scale(1 1) rotate(0) translate(4 62)">
<title>Graphical Class Hierarchy</title>
<!-- Node1 -->
<g id="node1" class="node"><title>Node1</title>
<g id="a_node1"><a xlink:href="classVoxel_1_1Point.xhtml" target="_top" xlink:title="Voxel::Point">
<polygon fill="none" stroke="black" points="0,-19.5 0,-38.5 70,-38.5 70,-19.5 0,-19.5"/>
<text text-anchor="middle" x="35" y="-26.5" font-family="Helvetica,sans-Serif" font-size="10.00">Voxel::Point</text>
</a>
</g>
</g>
<!-- Node2 -->
<g id="node2" class="node"><title>Node2</title>
<g id="a_node2"><a xlink:href="classVoxel_1_1IntensityPoint.xhtml" target="_top" xlink:title="Voxel::IntensityPoint">
<polygon fill="none" stroke="black" points="106.5,-38.5 106.5,-57.5 213.5,-57.5 213.5,-38.5 106.5,-38.5"/>
<text text-anchor="middle" x="160" y="-45.5" font-family="Helvetica,sans-Serif" font-size="10.00">Voxel::IntensityPoint</text>
</a>
</g>
</g>
<!-- Node1&#45;&gt;Node2 -->
<g id="edge1" class="edge"><title>Node1&#45;&gt;Node2</title>
<path fill="none" stroke="midnightblue" d="M80.2031,-35.8281C88.5805,-37.1222 97.4239,-38.4882 106.039,-39.8191"/>
<polygon fill="midnightblue" stroke="midnightblue" points="80.6795,-32.3603 70.2624,-34.2926 79.6108,-39.2782 80.6795,-32.3603"/>
</g>
<!-- Node3 -->
<g id="node3" class="node"><title>Node3</title>
<g id="a_node3"><a xlink:href="classVoxel_1_1RGBPoint.xhtml" target="_top" xlink:title="Voxel::RGBPoint">
<polygon fill="none" stroke="black" points="114,-0.5 114,-19.5 206,-19.5 206,-0.5 114,-0.5"/>
<text text-anchor="middle" x="160" y="-7.5" font-family="Helvetica,sans-Serif" font-size="10.00">Voxel::RGBPoint</text>
</a>
</g>
</g>
<!-- Node1&#45;&gt;Node3 -->
<g id="edge2" class="edge"><title>Node1&#45;&gt;Node3</title>
<path fill="none" stroke="midnightblue" d="M80.4121,-22.1396C91.298,-20.458 102.96,-18.6566 113.879,-16.97"/>
<polygon fill="midnightblue" stroke="midnightblue" points="79.6108,-18.7218 70.2624,-23.7074 80.6795,-25.6397 79.6108,-18.7218"/>
</g>
</g>
</svg>
