<?xml version="1.0" encoding="UTF-8" standalone="no"?>
<!DOCTYPE svg PUBLIC "-//W3C//DTD SVG 1.1//EN"
 "http://www.w3.org/Graphics/SVG/1.1/DTD/svg11.dtd">
<!-- Generated by graphviz version 2.36.0 (20140111.2315)
 -->
<!-- Title: Graphical Class Hierarchy Pages: 1 -->
<svg width="434pt" height="71pt"
 viewBox="0.00 0.00 434.00 71.00" xmlns="http://www.w3.org/2000/svg" xmlns:xlink="http://www.w3.org/1999/xlink">
<g id="graph0" class="graph" transform="scale(1 1) rotate(0) translate(4 67)">
<title>Graphical Class Hierarchy</title>
<!-- Node1 -->
<g id="node1" class="node"><title>Node1</title>
<g id="a_node1"><a xlink:href="classVoxel_1_1Streamer.xhtml" target="_top" xlink:title="Voxel::Streamer">
<polygon fill="none" stroke="black" points="0.5,-24.5 0.5,-43.5 87.5,-43.5 87.5,-24.5 0.5,-24.5"/>
<text text-anchor="middle" x="44" y="-31.5" font-family="Helvetica,sans-Serif" font-size="10.00">Voxel::Streamer</text>
</a>
</g>
</g>
<!-- Node2 -->
<g id="node2" class="node"><title>Node2</title>
<g id="a_node2"><a xlink:href="classVoxel_1_1USBBulkStreamer.xhtml" target="_top" xlink:title="Voxel::USBBulkStreamer">
<polygon fill="none" stroke="black" points="124,-43.5 124,-62.5 252,-62.5 252,-43.5 124,-43.5"/>
<text text-anchor="middle" x="188" y="-50.5" font-family="Helvetica,sans-Serif" font-size="10.00">Voxel::USBBulkStreamer</text>
</a>
</g>
</g>
<!-- Node1&#45;&gt;Node2 -->
<g id="edge1" class="edge"><title>Node1&#45;&gt;Node2</title>
<path fill="none" stroke="midnightblue" d="M97.7816,-41.0623C106.307,-42.2031 115.209,-43.3942 123.948,-44.5635"/>
<polygon fill="midnightblue" stroke="midnightblue" points="97.9806,-37.5578 87.6047,-39.7006 97.0521,-44.496 97.9806,-37.5578"/>
</g>
<!-- Node3 -->
<g id="node3" class="node"><title>Node3</title>
<g id="a_node3"><a xlink:href="classVoxel_1_1UVCStreamer.xhtml" target="_top" xlink:title="Voxel::UVCStreamer">
<polygon fill="none" stroke="black" points="133.5,-5.5 133.5,-24.5 242.5,-24.5 242.5,-5.5 133.5,-5.5"/>
<text text-anchor="middle" x="188" y="-12.5" font-family="Helvetica,sans-Serif" font-size="10.00">Voxel::UVCStreamer</text>
</a>
</g>
</g>
<!-- Node1&#45;&gt;Node3 -->
<g id="edge2" class="edge"><title>Node1&#45;&gt;Node3</title>
<path fill="none" stroke="midnightblue" d="M97.6291,-26.9581C109.283,-25.3987 121.647,-23.7445 133.341,-22.1797"/>
<polygon fill="midnightblue" stroke="midnightblue" points="97.0521,-23.504 87.6047,-28.2994 97.9806,-30.4422 97.0521,-23.504"/>
</g>
<!-- Node4 -->
<g id="node4" class="node"><title>Node4</title>
<g id="a_node4"><a xlink:href="classVoxel_1_1TI_1_1RTS5825CameraUVCStreamer.xhtml" target="_top" xlink:title="Voxel::TI::RTS5825Camera\lUVCStreamer">
<polygon fill="none" stroke="black" points="288,-0 288,-30 426,-30 426,-0 288,-0"/>
<text text-anchor="start" x="296" y="-18" font-family="Helvetica,sans-Serif" font-size="10.00">Voxel::TI::RTS5825Camera</text>
<text text-anchor="middle" x="357" y="-7" font-family="Helvetica,sans-Serif" font-size="10.00">UVCStreamer</text>
</a>
</g>
</g>
<!-- Node3&#45;&gt;Node4 -->
<g id="edge3" class="edge"><title>Node3&#45;&gt;Node4</title>
<path fill="none" stroke="midnightblue" d="M253.08,-15C264.504,-15 276.441,-15 287.971,-15"/>
<polygon fill="midnightblue" stroke="midnightblue" points="252.759,-11.5001 242.759,-15 252.759,-18.5001 252.759,-11.5001"/>
</g>
</g>
</svg>
