<?xml version="1.0" encoding="UTF-8" standalone="no"?>
<!DOCTYPE svg PUBLIC "-//W3C//DTD SVG 1.1//EN"
 "http://www.w3.org/Graphics/SVG/1.1/DTD/svg11.dtd">
<!-- Generated by graphviz version 2.36.0 (20140111.2315)
 -->
<!-- Title: LineNoise.cpp Pages: 1 -->
<svg width="908pt" height="140pt"
 viewBox="0.00 0.00 908.00 140.00" xmlns="http://www.w3.org/2000/svg" xmlns:xlink="http://www.w3.org/1999/xlink">
<g id="graph0" class="graph" transform="scale(1 1) rotate(0) translate(4 136)">
<title>LineNoise.cpp</title>
<!-- Node1 -->
<g id="node1" class="node"><title>Node1</title>
<polygon fill="#bfbfbf" stroke="black" points="387.5,-112.5 387.5,-131.5 466.5,-131.5 466.5,-112.5 387.5,-112.5"/>
<text text-anchor="middle" x="427" y="-119.5" font-family="Helvetica,sans-Serif" font-size="10.00">LineNoise.cpp</text>
</g>
<!-- Node2 -->
<g id="node2" class="node"><title>Node2</title>
<polygon fill="none" stroke="#bfbfbf" points="-0.5,-56.5 -0.5,-75.5 56.5,-75.5 56.5,-56.5 -0.5,-56.5"/>
<text text-anchor="middle" x="28" y="-63.5" font-family="Helvetica,sans-Serif" font-size="10.00">termios.h</text>
</g>
<!-- Node1&#45;&gt;Node2 -->
<g id="edge1" class="edge"><title>Node1&#45;&gt;Node2</title>
<path fill="none" stroke="midnightblue" d="M387.258,-117.47C322.298,-111.39 189.184,-97.6397 66.5064,-75.9"/>
<polygon fill="midnightblue" stroke="midnightblue" points="67.0251,-72.4372 56.5641,-74.1162 65.7889,-79.3272 67.0251,-72.4372"/>
</g>
<!-- Node3 -->
<g id="node3" class="node"><title>Node3</title>
<polygon fill="none" stroke="#bfbfbf" points="75,-56.5 75,-75.5 137,-75.5 137,-56.5 75,-56.5"/>
<text text-anchor="middle" x="106" y="-63.5" font-family="Helvetica,sans-Serif" font-size="10.00">sys/ioctl.h</text>
</g>
<!-- Node1&#45;&gt;Node3 -->
<g id="edge2" class="edge"><title>Node1&#45;&gt;Node3</title>
<path fill="none" stroke="midnightblue" d="M387.462,-115.368C335.032,-107.741 239.4,-93.2799 147.348,-75.9664"/>
<polygon fill="midnightblue" stroke="midnightblue" points="147.779,-72.4859 137.302,-74.0627 146.475,-79.3635 147.779,-72.4859"/>
</g>
<!-- Node4 -->
<g id="node4" class="node"><title>Node4</title>
<polygon fill="none" stroke="#bfbfbf" points="155.5,-56.5 155.5,-75.5 214.5,-75.5 214.5,-56.5 155.5,-56.5"/>
<text text-anchor="middle" x="185" y="-63.5" font-family="Helvetica,sans-Serif" font-size="10.00">sys/poll.h</text>
</g>
<!-- Node1&#45;&gt;Node4 -->
<g id="edge3" class="edge"><title>Node1&#45;&gt;Node4</title>
<path fill="none" stroke="midnightblue" d="M388.061,-112.473C349.255,-103.952 287.691,-90.3707 224.891,-76.1868"/>
<polygon fill="midnightblue" stroke="midnightblue" points="225.33,-72.6979 214.804,-73.9059 223.786,-79.5254 225.33,-72.6979"/>
</g>
<!-- Node5 -->
<g id="node5" class="node"><title>Node5</title>
<polygon fill="none" stroke="#bfbfbf" points="232.5,-56.5 232.5,-75.5 283.5,-75.5 283.5,-56.5 232.5,-56.5"/>
<text text-anchor="middle" x="258" y="-63.5" font-family="Helvetica,sans-Serif" font-size="10.00">unistd.h</text>
</g>
<!-- Node1&#45;&gt;Node5 -->
<g id="edge4" class="edge"><title>Node1&#45;&gt;Node5</title>
<path fill="none" stroke="midnightblue" d="M400.221,-112.444C371.331,-103.212 325.197,-88.4712 293.346,-78.2941"/>
<polygon fill="midnightblue" stroke="midnightblue" points="294.138,-74.8727 283.547,-75.1629 292.007,-81.5406 294.138,-74.8727"/>
</g>
<!-- Node6 -->
<g id="node6" class="node"><title>Node6</title>
<polygon fill="none" stroke="#bfbfbf" points="302,-56.5 302,-75.5 350,-75.5 350,-56.5 302,-56.5"/>
<text text-anchor="middle" x="326" y="-63.5" font-family="Helvetica,sans-Serif" font-size="10.00">stdlib.h</text>
</g>
<!-- Node1&#45;&gt;Node6 -->
<g id="edge5" class="edge"><title>Node1&#45;&gt;Node6</title>
<path fill="none" stroke="midnightblue" d="M410.773,-112.324C394.649,-103.703 369.7,-90.3643 351.036,-80.3855"/>
<polygon fill="midnightblue" stroke="midnightblue" points="352.656,-77.283 342.187,-75.6545 349.356,-83.456 352.656,-77.283"/>
</g>
<!-- Node7 -->
<g id="node7" class="node"><title>Node7</title>
<polygon fill="none" stroke="#bfbfbf" points="368,-56.5 368,-75.5 420,-75.5 420,-56.5 368,-56.5"/>
<text text-anchor="middle" x="394" y="-63.5" font-family="Helvetica,sans-Serif" font-size="10.00">stdarg.h</text>
</g>
<!-- Node1&#45;&gt;Node7 -->
<g id="edge6" class="edge"><title>Node1&#45;&gt;Node7</title>
<path fill="none" stroke="midnightblue" d="M421.551,-112.083C416.986,-104.613 410.332,-93.7244 404.707,-84.5199"/>
<polygon fill="midnightblue" stroke="midnightblue" points="407.549,-82.4588 399.348,-75.7511 401.576,-86.109 407.549,-82.4588"/>
</g>
<!-- Node8 -->
<g id="node8" class="node"><title>Node8</title>
<polygon fill="none" stroke="#bfbfbf" points="438,-56.5 438,-75.5 484,-75.5 484,-56.5 438,-56.5"/>
<text text-anchor="middle" x="461" y="-63.5" font-family="Helvetica,sans-Serif" font-size="10.00">stdio.h</text>
</g>
<!-- Node1&#45;&gt;Node8 -->
<g id="edge7" class="edge"><title>Node1&#45;&gt;Node8</title>
<path fill="none" stroke="midnightblue" d="M432.614,-112.083C437.367,-104.534 444.318,-93.4948 450.152,-84.2298"/>
<polygon fill="midnightblue" stroke="midnightblue" points="453.124,-86.0783 455.49,-75.7511 447.2,-82.3486 453.124,-86.0783"/>
</g>
<!-- Node9 -->
<g id="node9" class="node"><title>Node9</title>
<polygon fill="none" stroke="#bfbfbf" points="502.5,-56.5 502.5,-75.5 549.5,-75.5 549.5,-56.5 502.5,-56.5"/>
<text text-anchor="middle" x="526" y="-63.5" font-family="Helvetica,sans-Serif" font-size="10.00">errno.h</text>
</g>
<!-- Node1&#45;&gt;Node9 -->
<g id="edge8" class="edge"><title>Node1&#45;&gt;Node9</title>
<path fill="none" stroke="midnightblue" d="M442.906,-112.324C458.638,-103.743 482.942,-90.486 501.209,-80.5224"/>
<polygon fill="midnightblue" stroke="midnightblue" points="503.03,-83.5157 510.133,-75.6545 499.678,-77.3704 503.03,-83.5157"/>
</g>
<!-- Node10 -->
<g id="node10" class="node"><title>Node10</title>
<polygon fill="none" stroke="#bfbfbf" points="567.5,-56.5 567.5,-75.5 616.5,-75.5 616.5,-56.5 567.5,-56.5"/>
<text text-anchor="middle" x="592" y="-63.5" font-family="Helvetica,sans-Serif" font-size="10.00">string.h</text>
</g>
<!-- Node1&#45;&gt;Node10 -->
<g id="edge9" class="edge"><title>Node1&#45;&gt;Node10</title>
<path fill="none" stroke="midnightblue" d="M453.145,-112.444C481.433,-103.185 526.656,-88.3854 557.761,-78.2054"/>
<polygon fill="midnightblue" stroke="midnightblue" points="558.91,-81.5123 567.325,-75.0755 556.732,-74.8595 558.91,-81.5123"/>
</g>
<!-- Node11 -->
<g id="node11" class="node"><title>Node11</title>
<polygon fill="none" stroke="#bfbfbf" points="635,-56.5 635,-75.5 703,-75.5 703,-56.5 635,-56.5"/>
<text text-anchor="middle" x="669" y="-63.5" font-family="Helvetica,sans-Serif" font-size="10.00">sys/types.h</text>
</g>
<!-- Node1&#45;&gt;Node11 -->
<g id="edge10" class="edge"><title>Node1&#45;&gt;Node11</title>
<path fill="none" stroke="midnightblue" d="M465.346,-112.444C508.712,-102.767 579.213,-87.0351 624.843,-76.8533"/>
<polygon fill="midnightblue" stroke="midnightblue" points="625.749,-80.2372 634.747,-74.6433 624.224,-73.4053 625.749,-80.2372"/>
</g>
<!-- Node12 -->
<g id="node12" class="node"><title>Node12</title>
<g id="a_node12"><a xlink:href="LineNoise_8h.xhtml" target="_top" xlink:title="LineNoise.h">
<polygon fill="none" stroke="black" points="721,-56.5 721,-75.5 789,-75.5 789,-56.5 721,-56.5"/>
<text text-anchor="middle" x="755" y="-63.5" font-family="Helvetica,sans-Serif" font-size="10.00">LineNoise.h</text>
</a>
</g>
</g>
<!-- Node1&#45;&gt;Node12 -->
<g id="edge11" class="edge"><title>Node1&#45;&gt;Node12</title>
<path fill="none" stroke="midnightblue" d="M466.757,-115.36C520.049,-107.66 617.817,-93.0441 710.9,-76.1302"/>
<polygon fill="midnightblue" stroke="midnightblue" points="711.556,-79.5684 720.763,-74.3261 710.296,-72.6827 711.556,-79.5684"/>
</g>
<!-- Node14 -->
<g id="node14" class="node"><title>Node14</title>
<g id="a_node14"><a xlink:href="LineNoiseUTF8_8h.xhtml" target="_top" xlink:title="LineNoiseUTF8.h">
<polygon fill="none" stroke="black" points="807.5,-56.5 807.5,-75.5 900.5,-75.5 900.5,-56.5 807.5,-56.5"/>
<text text-anchor="middle" x="854" y="-63.5" font-family="Helvetica,sans-Serif" font-size="10.00">LineNoiseUTF8.h</text>
</a>
</g>
</g>
<!-- Node1&#45;&gt;Node14 -->
<g id="edge13" class="edge"><title>Node1&#45;&gt;Node14</title>
<path fill="none" stroke="midnightblue" d="M466.599,-116.706C532.789,-109.416 670.323,-93.7987 797.363,-76.0408"/>
<polygon fill="midnightblue" stroke="midnightblue" points="797.854,-79.5064 807.269,-74.6487 796.88,-72.5745 797.854,-79.5064"/>
</g>
<!-- Node13 -->
<g id="node13" class="node"><title>Node13</title>
<polygon fill="none" stroke="#bfbfbf" points="725.5,-0.5 725.5,-19.5 784.5,-19.5 784.5,-0.5 725.5,-0.5"/>
<text text-anchor="middle" x="755" y="-7.5" font-family="Helvetica,sans-Serif" font-size="10.00">functional</text>
</g>
<!-- Node12&#45;&gt;Node13 -->
<g id="edge12" class="edge"><title>Node12&#45;&gt;Node13</title>
<path fill="none" stroke="midnightblue" d="M755,-56.083C755,-49.0059 755,-38.8611 755,-29.9865"/>
<polygon fill="midnightblue" stroke="midnightblue" points="758.5,-29.751 755,-19.7511 751.5,-29.7511 758.5,-29.751"/>
</g>
<!-- Node15 -->
<g id="node15" class="node"><title>Node15</title>
<polygon fill="none" stroke="#bfbfbf" points="829.5,-0.5 829.5,-19.5 878.5,-19.5 878.5,-0.5 829.5,-0.5"/>
<text text-anchor="middle" x="854" y="-7.5" font-family="Helvetica,sans-Serif" font-size="10.00">ctype.h</text>
</g>
<!-- Node14&#45;&gt;Node15 -->
<g id="edge14" class="edge"><title>Node14&#45;&gt;Node15</title>
<path fill="none" stroke="midnightblue" d="M854,-56.083C854,-49.0059 854,-38.8611 854,-29.9865"/>
<polygon fill="midnightblue" stroke="midnightblue" points="857.5,-29.751 854,-19.7511 850.5,-29.7511 857.5,-29.751"/>
</g>
</g>
</svg>
