<?xml version="1.0" encoding="UTF-8" standalone="no"?>
<!DOCTYPE svg PUBLIC "-//W3C//DTD SVG 1.1//EN"
 "http://www.w3.org/Graphics/SVG/1.1/DTD/svg11.dtd">
<!-- Generated by graphviz version 2.36.0 (20140111.2315)
 -->
<!-- Title: LineNoise::linenoiseSetCompletionCallback Pages: 1 -->
<svg width="552pt" height="38pt"
 viewBox="0.00 0.00 552.00 38.00" xmlns="http://www.w3.org/2000/svg" xmlns:xlink="http://www.w3.org/1999/xlink">
<g id="graph0" class="graph" transform="scale(1 1) rotate(0) translate(4 34)">
<title>LineNoise::linenoiseSetCompletionCallback</title>
<!-- Node1 -->
<g id="node1" class="node"><title>Node1</title>
<polygon fill="#bfbfbf" stroke="black" points="0.5,-0 0.5,-30 169.5,-30 169.5,-0 0.5,-0"/>
<text text-anchor="start" x="8.5" y="-18" font-family="Helvetica,sans-Serif" font-size="10.00">LineNoise::linenoiseSetCompletion</text>
<text text-anchor="middle" x="85" y="-7" font-family="Helvetica,sans-Serif" font-size="10.00">Callback</text>
</g>
<!-- Node2 -->
<g id="node2" class="node"><title>Node2</title>
<g id="a_node2"><a xlink:href="classVoxel_1_1CLIManager.xhtml#accc24e532a9fb16cb7f5df81bd2709c9" target="_top" xlink:title="Voxel::CLIManager::\l_commandLoop">
<polygon fill="none" stroke="black" points="206.5,-0 206.5,-30 313.5,-30 313.5,-0 206.5,-0"/>
<text text-anchor="start" x="214.5" y="-18" font-family="Helvetica,sans-Serif" font-size="10.00">Voxel::CLIManager::</text>
<text text-anchor="middle" x="260" y="-7" font-family="Helvetica,sans-Serif" font-size="10.00">_commandLoop</text>
</a>
</g>
</g>
<!-- Node1&#45;&gt;Node2 -->
<g id="edge1" class="edge"><title>Node1&#45;&gt;Node2</title>
<path fill="none" stroke="midnightblue" d="M179.897,-15C188.895,-15 197.786,-15 206.176,-15"/>
<polygon fill="midnightblue" stroke="midnightblue" points="179.713,-11.5001 169.713,-15 179.713,-18.5001 179.713,-11.5001"/>
</g>
<!-- Node3 -->
<g id="node3" class="node"><title>Node3</title>
<g id="a_node3"><a xlink:href="classVoxel_1_1CLIManager.xhtml#aed50c5722b25bd7dbf2508bf67641dbc" target="_top" xlink:title="Voxel::CLIManager::run">
<polygon fill="none" stroke="black" points="350,-5.5 350,-24.5 470,-24.5 470,-5.5 350,-5.5"/>
<text text-anchor="middle" x="410" y="-12.5" font-family="Helvetica,sans-Serif" font-size="10.00">Voxel::CLIManager::run</text>
</a>
</g>
</g>
<!-- Node2&#45;&gt;Node3 -->
<g id="edge2" class="edge"><title>Node2&#45;&gt;Node3</title>
<path fill="none" stroke="midnightblue" d="M323.637,-15C332.299,-15 341.173,-15 349.77,-15"/>
<polygon fill="midnightblue" stroke="midnightblue" points="323.596,-11.5001 313.596,-15 323.596,-18.5001 323.596,-11.5001"/>
</g>
<!-- Node4 -->
<g id="node4" class="node"><title>Node4</title>
<g id="a_node4"><a xlink:href="VoxelCLI_8cpp.xhtml#ae66f6b31b5ad750f1fe042a706a4e3d4" target="_top" xlink:title="main">
<polygon fill="none" stroke="black" points="506,-5.5 506,-24.5 544,-24.5 544,-5.5 506,-5.5"/>
<text text-anchor="middle" x="525" y="-12.5" font-family="Helvetica,sans-Serif" font-size="10.00">main</text>
</a>
</g>
</g>
<!-- Node3&#45;&gt;Node4 -->
<g id="edge3" class="edge"><title>Node3&#45;&gt;Node4</title>
<path fill="none" stroke="midnightblue" d="M480.438,-15C489.79,-15 498.641,-15 505.892,-15"/>
<polygon fill="midnightblue" stroke="midnightblue" points="480.148,-11.5001 470.148,-15 480.148,-18.5001 480.148,-11.5001"/>
</g>
</g>
</svg>
