<?xml version="1.0" encoding="UTF-8" standalone="no"?>
<!DOCTYPE svg PUBLIC "-//W3C//DTD SVG 1.1//EN"
 "http://www.w3.org/Graphics/SVG/1.1/DTD/svg11.dtd">
<!-- Generated by graphviz version 2.36.0 (20140111.2315)
 -->
<!-- Title: ParameterDMLParser.h Pages: 1 -->
<svg width="779pt" height="84pt"
 viewBox="0.00 0.00 779.00 84.00" xmlns="http://www.w3.org/2000/svg" xmlns:xlink="http://www.w3.org/1999/xlink">
<g id="graph0" class="graph" transform="scale(1 1) rotate(0) translate(4 80)">
<title>ParameterDMLParser.h</title>
<!-- Node1 -->
<g id="node1" class="node"><title>Node1</title>
<polygon fill="#bfbfbf" stroke="black" points="307.5,-56.5 307.5,-75.5 426.5,-75.5 426.5,-56.5 307.5,-56.5"/>
<text text-anchor="middle" x="367" y="-63.5" font-family="Helvetica,sans-Serif" font-size="10.00">ParameterDMLParser.h</text>
</g>
<!-- Node2 -->
<g id="node2" class="node"><title>Node2</title>
<g id="a_node2"><a xlink:href="DMLParseTest_8cpp.xhtml" target="_top" xlink:title="DMLParseTest.cpp">
<polygon fill="none" stroke="black" points="-0.5,-0.5 -0.5,-19.5 100.5,-19.5 100.5,-0.5 -0.5,-0.5"/>
<text text-anchor="middle" x="50" y="-7.5" font-family="Helvetica,sans-Serif" font-size="10.00">DMLParseTest.cpp</text>
</a>
</g>
</g>
<!-- Node1&#45;&gt;Node2 -->
<g id="edge1" class="edge"><title>Node1&#45;&gt;Node2</title>
<path fill="none" stroke="midnightblue" d="M306.697,-54.7275C246.793,-44.523 156.009,-29.0583 99.9946,-19.5164"/>
<polygon fill="midnightblue" stroke="midnightblue" points="306.325,-58.2145 316.77,-56.4435 307.5,-51.3139 306.325,-58.2145"/>
</g>
<!-- Node3 -->
<g id="node3" class="node"><title>Node3</title>
<g id="a_node3"><a xlink:href="ToFCalculusCamera_8cpp.xhtml" target="_top" xlink:title="ToFCalculusCamera.cpp">
<polygon fill="none" stroke="black" points="118.5,-0.5 118.5,-19.5 243.5,-19.5 243.5,-0.5 118.5,-0.5"/>
<text text-anchor="middle" x="181" y="-7.5" font-family="Helvetica,sans-Serif" font-size="10.00">ToFCalculusCamera.cpp</text>
</a>
</g>
</g>
<!-- Node1&#45;&gt;Node3 -->
<g id="edge2" class="edge"><title>Node1&#45;&gt;Node3</title>
<path fill="none" stroke="midnightblue" d="M327.622,-53.5677C292.534,-43.381 241.979,-28.7034 210.334,-19.5164"/>
<polygon fill="midnightblue" stroke="midnightblue" points="326.948,-57.0166 337.528,-56.4435 328.9,-50.2942 326.948,-57.0166"/>
</g>
<!-- Node4 -->
<g id="node4" class="node"><title>Node4</title>
<g id="a_node4"><a xlink:href="ToFCamera_8cpp.xhtml" target="_top" xlink:title="ToFCamera.cpp">
<polygon fill="none" stroke="black" points="261.5,-0.5 261.5,-19.5 348.5,-19.5 348.5,-0.5 261.5,-0.5"/>
<text text-anchor="middle" x="305" y="-7.5" font-family="Helvetica,sans-Serif" font-size="10.00">ToFCamera.cpp</text>
</a>
</g>
</g>
<!-- Node1&#45;&gt;Node4 -->
<g id="edge3" class="edge"><title>Node1&#45;&gt;Node4</title>
<path fill="none" stroke="midnightblue" d="M349.246,-49.5372C338.192,-39.9087 324.369,-27.8694 315.143,-19.8339"/>
<polygon fill="midnightblue" stroke="midnightblue" points="347.199,-52.3954 357.039,-56.324 351.797,-47.1168 347.199,-52.3954"/>
</g>
<!-- Node5 -->
<g id="node5" class="node"><title>Node5</title>
<g id="a_node5"><a xlink:href="ToFHaddockCamera_8cpp.xhtml" target="_top" xlink:title="ToFHaddockCamera.cpp">
<polygon fill="none" stroke="black" points="367,-0.5 367,-19.5 493,-19.5 493,-0.5 367,-0.5"/>
<text text-anchor="middle" x="430" y="-7.5" font-family="Helvetica,sans-Serif" font-size="10.00">ToFHaddockCamera.cpp</text>
</a>
</g>
</g>
<!-- Node1&#45;&gt;Node5 -->
<g id="edge4" class="edge"><title>Node1&#45;&gt;Node5</title>
<path fill="none" stroke="midnightblue" d="M385.04,-49.5372C396.273,-39.9087 410.319,-27.8694 419.694,-19.8339"/>
<polygon fill="midnightblue" stroke="midnightblue" points="382.437,-47.1586 377.122,-56.324 386.992,-52.4734 382.437,-47.1586"/>
</g>
<!-- Node6 -->
<g id="node6" class="node"><title>Node6</title>
<g id="a_node6"><a xlink:href="ToFTintinCamera_8cpp.xhtml" target="_top" xlink:title="ToFTintinCamera.cpp">
<polygon fill="none" stroke="black" points="511.5,-0.5 511.5,-19.5 622.5,-19.5 622.5,-0.5 511.5,-0.5"/>
<text text-anchor="middle" x="567" y="-7.5" font-family="Helvetica,sans-Serif" font-size="10.00">ToFTintinCamera.cpp</text>
</a>
</g>
</g>
<!-- Node1&#45;&gt;Node6 -->
<g id="edge5" class="edge"><title>Node1&#45;&gt;Node6</title>
<path fill="none" stroke="midnightblue" d="M408.374,-53.8291C446.136,-43.6333 501.14,-28.7823 535.458,-19.5164"/>
<polygon fill="midnightblue" stroke="midnightblue" points="407.433,-50.4578 398.691,-56.4435 409.257,-57.2158 407.433,-50.4578"/>
</g>
<!-- Node7 -->
<g id="node7" class="node"><title>Node7</title>
<g id="a_node7"><a xlink:href="ParameterDMLParser_8cpp.xhtml" target="_top" xlink:title="ParameterDMLParser.cpp">
<polygon fill="none" stroke="black" points="641,-0.5 641,-19.5 771,-19.5 771,-0.5 641,-0.5"/>
<text text-anchor="middle" x="706" y="-7.5" font-family="Helvetica,sans-Serif" font-size="10.00">ParameterDMLParser.cpp</text>
</a>
</g>
</g>
<!-- Node1&#45;&gt;Node7 -->
<g id="edge6" class="edge"><title>Node1&#45;&gt;Node7</title>
<path fill="none" stroke="midnightblue" d="M430.696,-54.8537C494.747,-44.6509 592.386,-29.0977 652.536,-19.5164"/>
<polygon fill="midnightblue" stroke="midnightblue" points="430.04,-51.4139 420.716,-56.4435 431.142,-58.3268 430.04,-51.4139"/>
</g>
</g>
</svg>
