<?xml version="1.0" encoding="UTF-8" standalone="no"?>
<!DOCTYPE svg PUBLIC "-//W3C//DTD SVG 1.1//EN"
 "http://www.w3.org/Graphics/SVG/1.1/DTD/svg11.dtd">
<!-- Generated by graphviz version 2.36.0 (20140111.2315)
 -->
<!-- Title: Point.h Pages: 1 -->
<!--zoomable 196 -->
<svg id="main" version="1.1" xmlns="http://www.w3.org/2000/svg" xmlns:xlink="http://www.w3.org/1999/xlink" xml:space="preserve" onload="init(evt)">
<style type="text/css"><![CDATA[
.edge:hover path { stroke: red; }
.edge:hover polygon { stroke: red; fill: red; }
]]></style>
<script type="text/javascript"><![CDATA[
var edges = document.getElementsByTagName('g');
if (edges && edges.length) {
  for (var i=0;i<edges.length;i++) {
    if (edges[i].id.substr(0,4)=='edge') {
      edges[i].setAttribute('class','edge');
    }
  }
}
]]></script>
        <defs>
                <circle id="rim" cx="0" cy="0" r="7"/>
                <circle id="rim2" cx="0" cy="0" r="3.5"/>
                <g id="zoomPlus">
                        <use xlink:href="#rim" fill="#404040">
                                <set attributeName="fill" to="#808080" begin="zoomplus.mouseover" end="zoomplus.mouseout"/>
                        </use>
                        <path d="M-4,0h8M0,-4v8" fill="none" stroke="white" stroke-width="1.5" pointer-events="none"/>
                </g>
                <g id="zoomMin">
                        <use xlink:href="#rim" fill="#404040">
                                <set attributeName="fill" to="#808080" begin="zoomminus.mouseover" end="zoomminus.mouseout"/>
                        </use>
                        <path d="M-4,0h8" fill="none" stroke="white" stroke-width="1.5" pointer-events="none"/>
                </g>
                <g id="dirArrow">
                        <path fill="none" stroke="white" stroke-width="1.5" d="M0,-3.0v7 M-2.5,-0.5L0,-3.0L2.5,-0.5"/>
                </g>
               <g id="resetDef">
                       <use xlink:href="#rim2" fill="#404040">
                               <set attributeName="fill" to="#808080" begin="reset.mouseover" end="reset.mouseout"/>
                       </use>
               </g>
        </defs>

<script type="text/javascript">
var viewWidth = 1428;
var viewHeight = 196;
var sectionId = 'dynsection-0';
</script>
<script xlink:href="svgpan.js"/>
<svg id="graph" class="graph">
<g id="viewport">
<title>Point.h</title>
<!-- Node1 -->
<g id="node1" class="node"><title>Node1</title>
<polygon fill="#bfbfbf" stroke="black" points="562.5,-168.5 562.5,-187.5 609.5,-187.5 609.5,-168.5 562.5,-168.5"/>
<text text-anchor="middle" x="586" y="-175.5" font-family="Helvetica,sans-Serif" font-size="10.00">Point.h</text>
</g>
<!-- Node2 -->
<g id="node2" class="node"><title>Node2</title>
<polygon fill="none" stroke="#bfbfbf" points="489.5,-112.5 489.5,-131.5 536.5,-131.5 536.5,-112.5 489.5,-112.5"/>
<text text-anchor="middle" x="513" y="-119.5" font-family="Helvetica,sans-Serif" font-size="10.00">math.h</text>
</g>
<!-- Node1&#45;&gt;Node2 -->
<g id="edge1" class="edge"><title>Node1&#45;&gt;Node2</title>
<path fill="none" stroke="midnightblue" d="M574.271,-168.324C563.163,-160.107 546.258,-147.602 533.017,-137.807"/>
<polygon fill="midnightblue" stroke="midnightblue" points="535.063,-134.967 524.942,-131.834 530.9,-140.595 535.063,-134.967"/>
</g>
<!-- Node3 -->
<g id="node3" class="node"><title>Node3</title>
<polygon fill="none" stroke="#bfbfbf" points="555,-112.5 555,-131.5 617,-131.5 617,-112.5 555,-112.5"/>
<text text-anchor="middle" x="586" y="-119.5" font-family="Helvetica,sans-Serif" font-size="10.00">type_traits</text>
</g>
<!-- Node1&#45;&gt;Node3 -->
<g id="edge2" class="edge"><title>Node1&#45;&gt;Node3</title>
<path fill="none" stroke="midnightblue" d="M586,-168.083C586,-161.006 586,-150.861 586,-141.986"/>
<polygon fill="midnightblue" stroke="midnightblue" points="589.5,-141.751 586,-131.751 582.5,-141.751 589.5,-141.751"/>
</g>
<!-- Node4 -->
<g id="node4" class="node"><title>Node4</title>
<g id="a_node4"><a xlink:href="Common_8h.xhtml" target="_top" xlink:title="Common.h">
<polygon fill="none" stroke="black" points="635.5,-112.5 635.5,-131.5 700.5,-131.5 700.5,-112.5 635.5,-112.5"/>
<text text-anchor="middle" x="668" y="-119.5" font-family="Helvetica,sans-Serif" font-size="10.00">Common.h</text>
</a>
</g>
</g>
<!-- Node1&#45;&gt;Node4 -->
<g id="edge3" class="edge"><title>Node1&#45;&gt;Node4</title>
<path fill="none" stroke="midnightblue" d="M599.175,-168.324C611.847,-159.979 631.233,-147.212 646.206,-137.352"/>
<polygon fill="midnightblue" stroke="midnightblue" points="648.431,-140.078 654.858,-131.655 644.581,-134.231 648.431,-140.078"/>
</g>
<!-- Node5 -->
<g id="node5" class="node"><title>Node5</title>
<polygon fill="none" stroke="#bfbfbf" points="0,-56.5 0,-75.5 44,-75.5 44,-56.5 0,-56.5"/>
<text text-anchor="middle" x="22" y="-63.5" font-family="Helvetica,sans-Serif" font-size="10.00">vector</text>
</g>
<!-- Node4&#45;&gt;Node5 -->
<g id="edge4" class="edge"><title>Node4&#45;&gt;Node5</title>
<path fill="none" stroke="midnightblue" d="M635.216,-113.633C631.778,-113.012 628.326,-112.45 625,-112 375.906,-78.2708 305.778,-118.681 54.3869,-75.8446"/>
<polygon fill="midnightblue" stroke="midnightblue" points="54.6641,-72.3406 44.2135,-74.0828 53.4696,-79.2379 54.6641,-72.3406"/>
</g>
<!-- Node6 -->
<g id="node6" class="node"><title>Node6</title>
<polygon fill="none" stroke="#bfbfbf" points="62.5,-56.5 62.5,-75.5 111.5,-75.5 111.5,-56.5 62.5,-56.5"/>
<text text-anchor="middle" x="87" y="-63.5" font-family="Helvetica,sans-Serif" font-size="10.00">stdint.h</text>
</g>
<!-- Node4&#45;&gt;Node6 -->
<g id="edge5" class="edge"><title>Node4&#45;&gt;Node6</title>
<path fill="none" stroke="midnightblue" d="M635.212,-113.661C631.775,-113.035 628.324,-112.464 625,-112 405.413,-81.3363 343.622,-112.832 121.752,-75.9953"/>
<polygon fill="midnightblue" stroke="midnightblue" points="122.193,-72.5203 111.75,-74.3067 121.028,-79.4226 122.193,-72.5203"/>
</g>
<!-- Node7 -->
<g id="node7" class="node"><title>Node7</title>
<polygon fill="none" stroke="#bfbfbf" points="129.5,-56.5 129.5,-75.5 170.5,-75.5 170.5,-56.5 129.5,-56.5"/>
<text text-anchor="middle" x="150" y="-63.5" font-family="Helvetica,sans-Serif" font-size="10.00">string</text>
</g>
<!-- Node4&#45;&gt;Node7 -->
<g id="edge6" class="edge"><title>Node4&#45;&gt;Node7</title>
<path fill="none" stroke="midnightblue" d="M635.207,-113.694C631.771,-113.061 628.321,-112.48 625,-112 431.877,-84.0903 376.818,-111.762 180.577,-75.6597"/>
<polygon fill="midnightblue" stroke="midnightblue" points="180.989,-72.1762 170.516,-73.7762 179.701,-79.0567 180.989,-72.1762"/>
</g>
<!-- Node8 -->
<g id="node8" class="node"><title>Node8</title>
<polygon fill="none" stroke="#bfbfbf" points="189,-56.5 189,-75.5 243,-75.5 243,-56.5 189,-56.5"/>
<text text-anchor="middle" x="216" y="-63.5" font-family="Helvetica,sans-Serif" font-size="10.00">iostream</text>
</g>
<!-- Node4&#45;&gt;Node8 -->
<g id="edge7" class="edge"><title>Node4&#45;&gt;Node8</title>
<path fill="none" stroke="midnightblue" d="M635.2,-113.747C631.765,-113.103 628.318,-112.506 625,-112 463.57,-87.3924 417.904,-103.613 253.032,-75.9246"/>
<polygon fill="midnightblue" stroke="midnightblue" points="253.482,-72.4508 243.035,-74.217 252.303,-79.3509 253.482,-72.4508"/>
</g>
<!-- Node9 -->
<g id="node9" class="node"><title>Node9</title>
<polygon fill="none" stroke="#bfbfbf" points="261,-56.5 261,-75.5 311,-75.5 311,-56.5 261,-56.5"/>
<text text-anchor="middle" x="286" y="-63.5" font-family="Helvetica,sans-Serif" font-size="10.00">fstream</text>
</g>
<!-- Node4&#45;&gt;Node9 -->
<g id="edge8" class="edge"><title>Node4&#45;&gt;Node9</title>
<path fill="none" stroke="midnightblue" d="M635.188,-113.819C631.756,-113.162 628.312,-112.541 625,-112 493.446,-90.5124 455.839,-101.006 321.037,-75.9502"/>
<polygon fill="midnightblue" stroke="midnightblue" points="321.636,-72.5017 311.16,-74.0838 320.336,-79.3799 321.636,-72.5017"/>
</g>
<!-- Node10 -->
<g id="node10" class="node"><title>Node10</title>
<polygon fill="none" stroke="#bfbfbf" points="329,-56.5 329,-75.5 381,-75.5 381,-56.5 329,-56.5"/>
<text text-anchor="middle" x="355" y="-63.5" font-family="Helvetica,sans-Serif" font-size="10.00">sstream</text>
</g>
<!-- Node4&#45;&gt;Node10 -->
<g id="edge9" class="edge"><title>Node4&#45;&gt;Node10</title>
<path fill="none" stroke="midnightblue" d="M635.168,-113.937C631.739,-113.256 628.302,-112.598 625,-112 524.176,-93.7399 495.253,-96.9614 391.27,-76.0911"/>
<polygon fill="midnightblue" stroke="midnightblue" points="391.805,-72.6282 381.308,-74.0646 390.41,-79.4877 391.805,-72.6282"/>
</g>
<!-- Node11 -->
<g id="node11" class="node"><title>Node11</title>
<polygon fill="none" stroke="#bfbfbf" points="399.5,-56.5 399.5,-75.5 482.5,-75.5 482.5,-56.5 399.5,-56.5"/>
<text text-anchor="middle" x="441" y="-63.5" font-family="Helvetica,sans-Serif" font-size="10.00">unordered_map</text>
</g>
<!-- Node4&#45;&gt;Node11 -->
<g id="edge10" class="edge"><title>Node4&#45;&gt;Node11</title>
<path fill="none" stroke="midnightblue" d="M635.476,-113.263C596.466,-103.983 530.825,-88.368 486.724,-77.8772"/>
<polygon fill="midnightblue" stroke="midnightblue" points="487.372,-74.4337 476.834,-75.5243 485.752,-81.2437 487.372,-74.4337"/>
</g>
<!-- Node12 -->
<g id="node12" class="node"><title>Node12</title>
<polygon fill="none" stroke="#bfbfbf" points="500.5,-56.5 500.5,-75.5 559.5,-75.5 559.5,-56.5 500.5,-56.5"/>
<text text-anchor="middle" x="530" y="-63.5" font-family="Helvetica,sans-Serif" font-size="10.00">functional</text>
</g>
<!-- Node4&#45;&gt;Node12 -->
<g id="edge11" class="edge"><title>Node4&#45;&gt;Node12</title>
<path fill="none" stroke="midnightblue" d="M646.133,-112.444C623.221,-103.478 587.025,-89.314 561.134,-79.1827"/>
<polygon fill="midnightblue" stroke="midnightblue" points="562.352,-75.9011 551.764,-75.5164 559.801,-82.4198 562.352,-75.9011"/>
</g>
<!-- Node13 -->
<g id="node13" class="node"><title>Node13</title>
<polygon fill="none" stroke="#bfbfbf" points="577.5,-56.5 577.5,-75.5 606.5,-75.5 606.5,-56.5 577.5,-56.5"/>
<text text-anchor="middle" x="592" y="-63.5" font-family="Helvetica,sans-Serif" font-size="10.00">list</text>
</g>
<!-- Node4&#45;&gt;Node13 -->
<g id="edge12" class="edge"><title>Node4&#45;&gt;Node13</title>
<path fill="none" stroke="midnightblue" d="M655.789,-112.324C644.224,-104.107 626.625,-91.6017 612.839,-81.8069"/>
<polygon fill="midnightblue" stroke="midnightblue" points="614.612,-78.7729 604.433,-75.8339 610.557,-84.4791 614.612,-78.7729"/>
</g>
<!-- Node14 -->
<g id="node14" class="node"><title>Node14</title>
<polygon fill="none" stroke="#bfbfbf" points="625,-56.5 625,-75.5 655,-75.5 655,-56.5 625,-56.5"/>
<text text-anchor="middle" x="640" y="-63.5" font-family="Helvetica,sans-Serif" font-size="10.00">set</text>
</g>
<!-- Node4&#45;&gt;Node14 -->
<g id="edge13" class="edge"><title>Node4&#45;&gt;Node14</title>
<path fill="none" stroke="midnightblue" d="M663.376,-112.083C659.544,-104.691 653.976,-93.9533 649.235,-84.8111"/>
<polygon fill="midnightblue" stroke="midnightblue" points="652.248,-83.0175 644.538,-75.7511 646.034,-86.2398 652.248,-83.0175"/>
</g>
<!-- Node15 -->
<g id="node15" class="node"><title>Node15</title>
<polygon fill="none" stroke="#bfbfbf" points="673,-56.5 673,-75.5 719,-75.5 719,-56.5 673,-56.5"/>
<text text-anchor="middle" x="696" y="-63.5" font-family="Helvetica,sans-Serif" font-size="10.00">atomic</text>
</g>
<!-- Node4&#45;&gt;Node15 -->
<g id="edge14" class="edge"><title>Node4&#45;&gt;Node15</title>
<path fill="none" stroke="midnightblue" d="M672.624,-112.083C676.456,-104.691 682.024,-93.9533 686.765,-84.8111"/>
<polygon fill="midnightblue" stroke="midnightblue" points="689.966,-86.2398 691.462,-75.7511 683.752,-83.0175 689.966,-86.2398"/>
</g>
<!-- Node16 -->
<g id="node16" class="node"><title>Node16</title>
<polygon fill="none" stroke="#bfbfbf" points="737,-56.5 737,-75.5 783,-75.5 783,-56.5 737,-56.5"/>
<text text-anchor="middle" x="760" y="-63.5" font-family="Helvetica,sans-Serif" font-size="10.00">cctype</text>
</g>
<!-- Node4&#45;&gt;Node16 -->
<g id="edge15" class="edge"><title>Node4&#45;&gt;Node16</title>
<path fill="none" stroke="midnightblue" d="M682.781,-112.324C697.267,-103.822 719.573,-90.7288 736.493,-80.7975"/>
<polygon fill="midnightblue" stroke="midnightblue" points="738.403,-83.735 745.255,-75.6545 734.859,-77.6981 738.403,-83.735"/>
</g>
<!-- Node17 -->
<g id="node17" class="node"><title>Node17</title>
<polygon fill="none" stroke="#bfbfbf" points="801,-56.5 801,-75.5 857,-75.5 857,-56.5 801,-56.5"/>
<text text-anchor="middle" x="829" y="-63.5" font-family="Helvetica,sans-Serif" font-size="10.00">algorithm</text>
</g>
<!-- Node4&#45;&gt;Node17 -->
<g id="edge16" class="edge"><title>Node4&#45;&gt;Node17</title>
<path fill="none" stroke="midnightblue" d="M693.511,-112.444C720.596,-103.359 763.59,-88.9388 793.869,-78.7831"/>
<polygon fill="midnightblue" stroke="midnightblue" points="795.24,-82.0148 803.608,-75.5164 793.014,-75.3781 795.24,-82.0148"/>
</g>
<!-- Node18 -->
<g id="node18" class="node"><title>Node18</title>
<polygon fill="none" stroke="#bfbfbf" points="875.5,-56.5 875.5,-75.5 928.5,-75.5 928.5,-56.5 875.5,-56.5"/>
<text text-anchor="middle" x="902" y="-63.5" font-family="Helvetica,sans-Serif" font-size="10.00">complex</text>
</g>
<!-- Node4&#45;&gt;Node18 -->
<g id="edge17" class="edge"><title>Node4&#45;&gt;Node18</title>
<path fill="none" stroke="midnightblue" d="M700.798,-113.656C739.924,-104.861 807.294,-89.6084 865,-76 865.105,-75.9753 865.209,-75.9506 865.314,-75.9259"/>
<polygon fill="midnightblue" stroke="midnightblue" points="866.42,-79.2603 875.334,-73.5337 864.794,-72.4517 866.42,-79.2603"/>
</g>
<!-- Node19 -->
<g id="node19" class="node"><title>Node19</title>
<polygon fill="none" stroke="#bfbfbf" points="947,-56.5 947,-75.5 991,-75.5 991,-56.5 947,-56.5"/>
<text text-anchor="middle" x="969" y="-63.5" font-family="Helvetica,sans-Serif" font-size="10.00">thread</text>
</g>
<!-- Node4&#45;&gt;Node19 -->
<g id="edge18" class="edge"><title>Node4&#45;&gt;Node19</title>
<path fill="none" stroke="midnightblue" d="M700.517,-116.722C749.527,-110.022 845.389,-95.9422 936.734,-75.828"/>
<polygon fill="midnightblue" stroke="midnightblue" points="937.701,-79.1985 946.699,-73.6053 936.177,-72.3664 937.701,-79.1985"/>
</g>
<!-- Node20 -->
<g id="node20" class="node"><title>Node20</title>
<g id="a_node20"><a xlink:href="Ptr_8h.xhtml" target="_top" xlink:title="Ptr.h">
<polygon fill="none" stroke="black" points="1009,-56.5 1009,-75.5 1047,-75.5 1047,-56.5 1009,-56.5"/>
<text text-anchor="middle" x="1028" y="-63.5" font-family="Helvetica,sans-Serif" font-size="10.00">Ptr.h</text>
</a>
</g>
</g>
<!-- Node4&#45;&gt;Node20 -->
<g id="edge19" class="edge"><title>Node4&#45;&gt;Node20</title>
<path fill="none" stroke="midnightblue" d="M700.734,-118.363C760.515,-113.147 891.137,-99.8963 999,-76 999.1,-75.9779 999.2,-75.9556 999.3,-75.9332"/>
<polygon fill="midnightblue" stroke="midnightblue" points="999.988,-79.371 1008.78,-73.4541 998.216,-72.5988 999.988,-79.371"/>
</g>
<!-- Node22 -->
<g id="node22" class="node"><title>Node22</title>
<polygon fill="none" stroke="#bfbfbf" points="1065,-56.5 1065,-75.5 1109,-75.5 1109,-56.5 1065,-56.5"/>
<text text-anchor="middle" x="1087" y="-63.5" font-family="Helvetica,sans-Serif" font-size="10.00">mutex</text>
</g>
<!-- Node4&#45;&gt;Node22 -->
<g id="edge21" class="edge"><title>Node4&#45;&gt;Node22</title>
<path fill="none" stroke="midnightblue" d="M700.736,-119.056C766.252,-114.771 918.217,-102.845 1054.55,-75.9841"/>
<polygon fill="midnightblue" stroke="midnightblue" points="1055.64,-79.3359 1064.76,-73.9393 1054.27,-72.4723 1055.64,-79.3359"/>
</g>
<!-- Node23 -->
<g id="node23" class="node"><title>Node23</title>
<polygon fill="none" stroke="#bfbfbf" points="1127.5,-56.5 1127.5,-75.5 1222.5,-75.5 1222.5,-56.5 1127.5,-56.5"/>
<text text-anchor="middle" x="1175" y="-63.5" font-family="Helvetica,sans-Serif" font-size="10.00">condition_variable</text>
</g>
<!-- Node4&#45;&gt;Node23 -->
<g id="edge22" class="edge"><title>Node4&#45;&gt;Node23</title>
<path fill="none" stroke="midnightblue" d="M700.744,-118.329C774.954,-112.143 961.576,-95.8325 1117,-76 1117.1,-75.9867 1117.21,-75.9734 1117.31,-75.96"/>
<polygon fill="midnightblue" stroke="midnightblue" points="1117.79,-79.4269 1127.24,-74.621 1116.86,-72.4898 1117.79,-79.4269"/>
</g>
<!-- Node24 -->
<g id="node24" class="node"><title>Node24</title>
<polygon fill="none" stroke="#bfbfbf" points="1241,-56.5 1241,-75.5 1319,-75.5 1319,-56.5 1241,-56.5"/>
<text text-anchor="middle" x="1280" y="-63.5" font-family="Helvetica,sans-Serif" font-size="10.00">VoxelConfig.h</text>
</g>
<!-- Node4&#45;&gt;Node24 -->
<g id="edge23" class="edge"><title>Node4&#45;&gt;Node24</title>
<path fill="none" stroke="midnightblue" d="M700.805,-119.548C786.227,-115.52 1022.7,-102.778 1230.55,-75.9063"/>
<polygon fill="midnightblue" stroke="midnightblue" points="1231.28,-79.3412 1240.74,-74.5746 1230.37,-72.4002 1231.28,-79.3412"/>
</g>
<!-- Node25 -->
<g id="node25" class="node"><title>Node25</title>
<polygon fill="none" stroke="#bfbfbf" points="1337.5,-56.5 1337.5,-75.5 1420.5,-75.5 1420.5,-56.5 1337.5,-56.5"/>
<text text-anchor="middle" x="1379" y="-63.5" font-family="Helvetica,sans-Serif" font-size="10.00">VoxelExports.h</text>
</g>
<!-- Node4&#45;&gt;Node25 -->
<g id="edge24" class="edge"><title>Node4&#45;&gt;Node25</title>
<path fill="none" stroke="midnightblue" d="M700.737,-120.003C795.83,-116.847 1080.38,-105.551 1327.07,-75.9715"/>
<polygon fill="midnightblue" stroke="midnightblue" points="1327.8,-79.4088 1337.31,-74.7309 1326.96,-72.4596 1327.8,-79.4088"/>
</g>
<!-- Node21 -->
<g id="node21" class="node"><title>Node21</title>
<polygon fill="none" stroke="#bfbfbf" points="1002,-0.5 1002,-19.5 1054,-19.5 1054,-0.5 1002,-0.5"/>
<text text-anchor="middle" x="1028" y="-7.5" font-family="Helvetica,sans-Serif" font-size="10.00">memory</text>
</g>
<!-- Node20&#45;&gt;Node21 -->
<g id="edge20" class="edge"><title>Node20&#45;&gt;Node21</title>
<path fill="none" stroke="midnightblue" d="M1028,-56.083C1028,-49.0059 1028,-38.8611 1028,-29.9865"/>
<polygon fill="midnightblue" stroke="midnightblue" points="1031.5,-29.751 1028,-19.7511 1024.5,-29.7511 1031.5,-29.751"/>
</g>
</g>
</svg>
        <g id="navigator" transform="translate(0 0)" fill="#404254">
                <rect fill="#f2f5e9" fill-opacity="0.5" stroke="#606060" stroke-width=".5" x="0" y="0" width="60" height="60"/>
                <use id="zoomplus" xlink:href="#zoomPlus" x="17" y="9" onmousedown="handleZoom(evt,'in')"/>
                <use id="zoomminus" xlink:href="#zoomMin" x="42" y="9" onmousedown="handleZoom(evt,'out')"/>
                <use id="reset" xlink:href="#resetDef" x="30" y="36" onmousedown="handleReset()"/>
                <g id="arrowUp" xlink:href="#dirArrow" transform="translate(30 24)" onmousedown="handlePan(0,-1)">
                  <use xlink:href="#rim" fill="#404040">
                        <set attributeName="fill" to="#808080" begin="arrowUp.mouseover" end="arrowUp.mouseout"/>
                  </use>
                  <path fill="none" stroke="white" stroke-width="1.5" d="M0,-3.0v7 M-2.5,-0.5L0,-3.0L2.5,-0.5"/>
                </g>
                <g id="arrowRight" xlink:href="#dirArrow" transform="rotate(90) translate(36 -43)" onmousedown="handlePan(1,0)">
                  <use xlink:href="#rim" fill="#404040">
                        <set attributeName="fill" to="#808080" begin="arrowRight.mouseover" end="arrowRight.mouseout"/>
                  </use>
                  <path fill="none" stroke="white" stroke-width="1.5" d="M0,-3.0v7 M-2.5,-0.5L0,-3.0L2.5,-0.5"/>
                </g>
                <g id="arrowDown" xlink:href="#dirArrow" transform="rotate(180) translate(-30 -48)" onmousedown="handlePan(0,1)">
                  <use xlink:href="#rim" fill="#404040">
                        <set attributeName="fill" to="#808080" begin="arrowDown.mouseover" end="arrowDown.mouseout"/>
                  </use>
                  <path fill="none" stroke="white" stroke-width="1.5" d="M0,-3.0v7 M-2.5,-0.5L0,-3.0L2.5,-0.5"/>
                </g>
                <g id="arrowLeft" xlink:href="#dirArrow" transform="rotate(270) translate(-36 17)" onmousedown="handlePan(-1,0)">
                  <use xlink:href="#rim" fill="#404040">
                        <set attributeName="fill" to="#808080" begin="arrowLeft.mouseover" end="arrowLeft.mouseout"/>
                  </use>
                  <path fill="none" stroke="white" stroke-width="1.5" d="M0,-3.0v7 M-2.5,-0.5L0,-3.0L2.5,-0.5"/>
                </g>
        </g>
        <svg viewBox="0 0 15 15" width="100%" height="30px" preserveAspectRatio="xMaxYMin meet">
         <g id="arrow_out" transform="scale(0.3 0.3)">
          <a xlink:href="Point_8h__incl_org.svg" target="_base">
           <rect id="button" ry="5" rx="5" y="6" x="6" height="38" width="38"
                fill="#f2f5e9" fill-opacity="0.5" stroke="#606060" stroke-width="1.0"/>
           <path id="arrow"
             d="M 11.500037,31.436501 C 11.940474,20.09759 22.043105,11.32322 32.158766,21.979434 L 37.068811,17.246167 C 37.068811,17.246167 37.088388,32 37.088388,32 L 22.160133,31.978069 C 22.160133,31.978069 26.997745,27.140456 26.997745,27.140456 C 18.528582,18.264221 13.291696,25.230495 11.500037,31.436501 z"
             style="fill:#404040;"/>
          </a>
         </g>
        </svg>
</svg>
