<?xml version="1.0" encoding="UTF-8" standalone="no"?>
<!DOCTYPE svg PUBLIC "-//W3C//DTD SVG 1.1//EN"
 "http://www.w3.org/Graphics/SVG/1.1/DTD/svg11.dtd">
<!-- Generated by graphviz version 2.36.0 (20140111.2315)
 -->
<!-- Title: Streamer.h Pages: 1 -->
<!--zoomable 252 -->
<svg id="main" version="1.1" xmlns="http://www.w3.org/2000/svg" xmlns:xlink="http://www.w3.org/1999/xlink" xml:space="preserve" onload="init(evt)">
<style type="text/css"><![CDATA[
.edge:hover path { stroke: red; }
.edge:hover polygon { stroke: red; fill: red; }
]]></style>
<script type="text/javascript"><![CDATA[
var edges = document.getElementsByTagName('g');
if (edges && edges.length) {
  for (var i=0;i<edges.length;i++) {
    if (edges[i].id.substr(0,4)=='edge') {
      edges[i].setAttribute('class','edge');
    }
  }
}
]]></script>
        <defs>
                <circle id="rim" cx="0" cy="0" r="7"/>
                <circle id="rim2" cx="0" cy="0" r="3.5"/>
                <g id="zoomPlus">
                        <use xlink:href="#rim" fill="#404040">
                                <set attributeName="fill" to="#808080" begin="zoomplus.mouseover" end="zoomplus.mouseout"/>
                        </use>
                        <path d="M-4,0h8M0,-4v8" fill="none" stroke="white" stroke-width="1.5" pointer-events="none"/>
                </g>
                <g id="zoomMin">
                        <use xlink:href="#rim" fill="#404040">
                                <set attributeName="fill" to="#808080" begin="zoomminus.mouseover" end="zoomminus.mouseout"/>
                        </use>
                        <path d="M-4,0h8" fill="none" stroke="white" stroke-width="1.5" pointer-events="none"/>
                </g>
                <g id="dirArrow">
                        <path fill="none" stroke="white" stroke-width="1.5" d="M0,-3.0v7 M-2.5,-0.5L0,-3.0L2.5,-0.5"/>
                </g>
               <g id="resetDef">
                       <use xlink:href="#rim2" fill="#404040">
                               <set attributeName="fill" to="#808080" begin="reset.mouseover" end="reset.mouseout"/>
                       </use>
               </g>
        </defs>

<script type="text/javascript">
var viewWidth = 3584;
var viewHeight = 252;
var sectionId = 'dynsection-1';
</script>
<script xlink:href="svgpan.js"/>
<svg id="graph" class="graph">
<g id="viewport">
<title>Streamer.h</title>
<!-- Node1 -->
<g id="node1" class="node"><title>Node1</title>
<polygon fill="#bfbfbf" stroke="black" points="1789.5,-224.5 1789.5,-243.5 1854.5,-243.5 1854.5,-224.5 1789.5,-224.5"/>
<text text-anchor="middle" x="1822" y="-231.5" font-family="Helvetica,sans-Serif" font-size="10.00">Streamer.h</text>
</g>
<!-- Node2 -->
<g id="node2" class="node"><title>Node2</title>
<g id="a_node2"><a xlink:href="DepthCamera_8h.xhtml" target="_top" xlink:title="DepthCamera.h">
<polygon fill="none" stroke="black" points="587,-168.5 587,-187.5 673,-187.5 673,-168.5 587,-168.5"/>
<text text-anchor="middle" x="630" y="-175.5" font-family="Helvetica,sans-Serif" font-size="10.00">DepthCamera.h</text>
</a>
</g>
</g>
<!-- Node1&#45;&gt;Node2 -->
<g id="edge1" class="edge"><title>Node1&#45;&gt;Node2</title>
<path fill="none" stroke="midnightblue" d="M1779.33,-231.067C1594,-222.671 859.747,-189.408 673.254,-180.959"/>
<polygon fill="midnightblue" stroke="midnightblue" points="1779.35,-234.571 1789.5,-231.528 1779.67,-227.579 1779.35,-234.571"/>
</g>
<!-- Node34 -->
<g id="node34" class="node"><title>Node34</title>
<g id="a_node34"><a xlink:href="Streamer_8cpp.xhtml" target="_top" xlink:title="Streamer.cpp">
<polygon fill="none" stroke="black" points="1730.5,-168.5 1730.5,-187.5 1805.5,-187.5 1805.5,-168.5 1730.5,-168.5"/>
<text text-anchor="middle" x="1768" y="-175.5" font-family="Helvetica,sans-Serif" font-size="10.00">Streamer.cpp</text>
</a>
</g>
</g>
<!-- Node1&#45;&gt;Node34 -->
<g id="edge43" class="edge"><title>Node1&#45;&gt;Node34</title>
<path fill="none" stroke="midnightblue" d="M1806,-217.002C1796.43,-207.433 1784.64,-195.639 1776.75,-187.751"/>
<polygon fill="midnightblue" stroke="midnightblue" points="1803.54,-219.487 1813.08,-224.083 1808.49,-214.537 1803.54,-219.487"/>
</g>
<!-- Node35 -->
<g id="node35" class="node"><title>Node35</title>
<g id="a_node35"><a xlink:href="USBBulkStreamer_8h.xhtml" target="_top" xlink:title="USBBulkStreamer.h">
<polygon fill="none" stroke="black" points="1823.5,-168.5 1823.5,-187.5 1928.5,-187.5 1928.5,-168.5 1823.5,-168.5"/>
<text text-anchor="middle" x="1876" y="-175.5" font-family="Helvetica,sans-Serif" font-size="10.00">USBBulkStreamer.h</text>
</a>
</g>
</g>
<!-- Node1&#45;&gt;Node35 -->
<g id="edge44" class="edge"><title>Node1&#45;&gt;Node35</title>
<path fill="none" stroke="midnightblue" d="M1838,-217.002C1847.57,-207.433 1859.36,-195.639 1867.25,-187.751"/>
<polygon fill="midnightblue" stroke="midnightblue" points="1835.51,-214.537 1830.92,-224.083 1840.46,-219.487 1835.51,-214.537"/>
</g>
<!-- Node40 -->
<g id="node40" class="node"><title>Node40</title>
<g id="a_node40"><a xlink:href="UVCStreamer_8h.xhtml" target="_top" xlink:title="UVCStreamer.h">
<polygon fill="none" stroke="black" points="2767,-168.5 2767,-187.5 2853,-187.5 2853,-168.5 2767,-168.5"/>
<text text-anchor="middle" x="2810" y="-175.5" font-family="Helvetica,sans-Serif" font-size="10.00">UVCStreamer.h</text>
</a>
</g>
</g>
<!-- Node1&#45;&gt;Node40 -->
<g id="edge49" class="edge"><title>Node1&#45;&gt;Node40</title>
<path fill="none" stroke="midnightblue" d="M1864.66,-230.668C2026.79,-221.807 2603.7,-190.276 2766.78,-181.362"/>
<polygon fill="midnightblue" stroke="midnightblue" points="1864.39,-227.178 1854.59,-231.219 1864.77,-234.168 1864.39,-227.178"/>
</g>
<!-- Node3 -->
<g id="node3" class="node"><title>Node3</title>
<g id="a_node3"><a xlink:href="PCLViewer_8h.xhtml" target="_top" xlink:title="PCLViewer.h">
<polygon fill="none" stroke="black" points="439,-112.5 439,-131.5 513,-131.5 513,-112.5 439,-112.5"/>
<text text-anchor="middle" x="476" y="-119.5" font-family="Helvetica,sans-Serif" font-size="10.00">PCLViewer.h</text>
</a>
</g>
</g>
<!-- Node2&#45;&gt;Node3 -->
<g id="edge2" class="edge"><title>Node2&#45;&gt;Node3</title>
<path fill="none" stroke="midnightblue" d="M595.889,-165.039C566.913,-154.879 526.038,-140.546 500.288,-131.516"/>
<polygon fill="midnightblue" stroke="midnightblue" points="595.003,-168.437 605.598,-168.444 597.32,-161.832 595.003,-168.437"/>
</g>
<!-- Node9 -->
<g id="node9" class="node"><title>Node9</title>
<g id="a_node9"><a xlink:href="ToFCameraBase_8h.xhtml" target="_top" xlink:title="ToFCameraBase.h">
<polygon fill="none" stroke="black" points="639.5,-112.5 639.5,-131.5 738.5,-131.5 738.5,-112.5 639.5,-112.5"/>
<text text-anchor="middle" x="689" y="-119.5" font-family="Helvetica,sans-Serif" font-size="10.00">ToFCameraBase.h</text>
</a>
</g>
</g>
<!-- Node2&#45;&gt;Node9 -->
<g id="edge8" class="edge"><title>Node2&#45;&gt;Node9</title>
<path fill="none" stroke="midnightblue" d="M646.895,-161.537C657.415,-151.909 670.569,-139.869 679.348,-131.834"/>
<polygon fill="midnightblue" stroke="midnightblue" points="644.493,-158.99 639.479,-168.324 649.219,-164.154 644.493,-158.99"/>
</g>
<!-- Node16 -->
<g id="node16" class="node"><title>Node16</title>
<g id="a_node16"><a xlink:href="DepthCamera_8cpp.xhtml" target="_top" xlink:title="DepthCamera.cpp">
<polygon fill="none" stroke="black" points="1477,-112.5 1477,-131.5 1573,-131.5 1573,-112.5 1477,-112.5"/>
<text text-anchor="middle" x="1525" y="-119.5" font-family="Helvetica,sans-Serif" font-size="10.00">DepthCamera.cpp</text>
</a>
</g>
</g>
<!-- Node2&#45;&gt;Node16 -->
<g id="edge15" class="edge"><title>Node2&#45;&gt;Node16</title>
<path fill="none" stroke="midnightblue" d="M683.617,-176.034C816.718,-173.219 1172.81,-163.147 1468,-132 1470.89,-131.695 1473.86,-131.344 1476.84,-130.961"/>
<polygon fill="midnightblue" stroke="midnightblue" points="683.225,-172.541 673.3,-176.247 683.37,-179.539 683.225,-172.541"/>
</g>
<!-- Node17 -->
<g id="node17" class="node"><title>Node17</title>
<g id="a_node17"><a xlink:href="DepthCameraFactory_8h.xhtml" target="_top" xlink:title="DepthCameraFactory.h">
<polygon fill="none" stroke="black" points="1172.5,-112.5 1172.5,-131.5 1291.5,-131.5 1291.5,-112.5 1172.5,-112.5"/>
<text text-anchor="middle" x="1232" y="-119.5" font-family="Helvetica,sans-Serif" font-size="10.00">DepthCameraFactory.h</text>
</a>
</g>
</g>
<!-- Node2&#45;&gt;Node17 -->
<g id="edge16" class="edge"><title>Node2&#45;&gt;Node17</title>
<path fill="none" stroke="midnightblue" d="M683.353,-172.214C795.436,-162.16 1054.7,-138.904 1172.19,-128.365"/>
<polygon fill="midnightblue" stroke="midnightblue" points="682.942,-168.737 673.294,-173.116 683.567,-175.709 682.942,-168.737"/>
</g>
<!-- Node26 -->
<g id="node26" class="node"><title>Node26</title>
<g id="a_node26"><a xlink:href="FilterFactory_8h.xhtml" target="_top" xlink:title="FilterFactory.h">
<polygon fill="none" stroke="black" points="1379,-112.5 1379,-131.5 1459,-131.5 1459,-112.5 1379,-112.5"/>
<text text-anchor="middle" x="1419" y="-119.5" font-family="Helvetica,sans-Serif" font-size="10.00">FilterFactory.h</text>
</a>
</g>
</g>
<!-- Node2&#45;&gt;Node26 -->
<g id="edge32" class="edge"><title>Node2&#45;&gt;Node26</title>
<path fill="none" stroke="midnightblue" d="M683.269,-173.575C796.706,-166.248 1070.52,-148.384 1300,-132 1326.25,-130.126 1355.74,-127.897 1378.8,-126.125"/>
<polygon fill="midnightblue" stroke="midnightblue" points="682.874,-170.093 673.12,-174.23 683.325,-177.079 682.874,-170.093"/>
</g>
<!-- Node29 -->
<g id="node29" class="node"><title>Node29</title>
<g id="a_node29"><a xlink:href="FrameStream_8cpp.xhtml" target="_top" xlink:title="FrameStream.cpp">
<polygon fill="none" stroke="black" points="-0.5,-112.5 -0.5,-131.5 94.5,-131.5 94.5,-112.5 -0.5,-112.5"/>
<text text-anchor="middle" x="47" y="-119.5" font-family="Helvetica,sans-Serif" font-size="10.00">FrameStream.cpp</text>
</a>
</g>
</g>
<!-- Node2&#45;&gt;Node29 -->
<g id="edge36" class="edge"><title>Node2&#45;&gt;Node29</title>
<path fill="none" stroke="midnightblue" d="M576.711,-173.701C481.577,-167.531 276.322,-152.949 104,-132 100.917,-131.625 97.7448,-131.209 94.5503,-130.767"/>
<polygon fill="midnightblue" stroke="midnightblue" points="576.734,-177.21 586.938,-174.359 577.184,-170.224 576.734,-177.21"/>
</g>
<!-- Node30 -->
<g id="node30" class="node"><title>Node30</title>
<g id="a_node30"><a xlink:href="PointCloudFrameGenerator_8cpp.xhtml" target="_top" xlink:title="PointCloudFrameGenerator.cpp">
<polygon fill="none" stroke="black" points="113,-112.5 113,-131.5 267,-131.5 267,-112.5 113,-112.5"/>
<text text-anchor="middle" x="190" y="-119.5" font-family="Helvetica,sans-Serif" font-size="10.00">PointCloudFrameGenerator.cpp</text>
</a>
</g>
</g>
<!-- Node2&#45;&gt;Node30 -->
<g id="edge37" class="edge"><title>Node2&#45;&gt;Node30</title>
<path fill="none" stroke="midnightblue" d="M576.324,-170.412C496.764,-160.648 347.505,-142.33 259.628,-131.545"/>
<polygon fill="midnightblue" stroke="midnightblue" points="576.255,-173.93 586.607,-171.674 577.108,-166.982 576.255,-173.93"/>
</g>
<!-- Node31 -->
<g id="node31" class="node"><title>Node31</title>
<g id="a_node31"><a xlink:href="PyDepthCameraCallback_8h.xhtml" target="_top" xlink:title="PyDepthCameraCallback.h">
<polygon fill="none" stroke="black" points="285,-112.5 285,-131.5 421,-131.5 421,-112.5 285,-112.5"/>
<text text-anchor="middle" x="353" y="-119.5" font-family="Helvetica,sans-Serif" font-size="10.00">PyDepthCameraCallback.h</text>
</a>
</g>
</g>
<!-- Node2&#45;&gt;Node31 -->
<g id="edge38" class="edge"><title>Node2&#45;&gt;Node31</title>
<path fill="none" stroke="midnightblue" d="M576.633,-166.596C524.356,-156.405 445.644,-141.061 396.891,-131.556"/>
<polygon fill="midnightblue" stroke="midnightblue" points="576.234,-170.084 586.719,-168.562 577.573,-163.214 576.234,-170.084"/>
</g>
<!-- Node32 -->
<g id="node32" class="node"><title>Node32</title>
<g id="a_node32"><a xlink:href="PCLGrabber_8h.xhtml" target="_top" xlink:title="PCLGrabber.h">
<polygon fill="none" stroke="black" points="531.5,-112.5 531.5,-131.5 610.5,-131.5 610.5,-112.5 531.5,-112.5"/>
<text text-anchor="middle" x="571" y="-119.5" font-family="Helvetica,sans-Serif" font-size="10.00">PCLGrabber.h</text>
</a>
</g>
</g>
<!-- Node2&#45;&gt;Node32 -->
<g id="edge39" class="edge"><title>Node2&#45;&gt;Node32</title>
<path fill="none" stroke="midnightblue" d="M613.105,-161.537C602.585,-151.909 589.431,-139.869 580.652,-131.834"/>
<polygon fill="midnightblue" stroke="midnightblue" points="610.781,-164.154 620.521,-168.324 615.507,-158.99 610.781,-164.154"/>
</g>
<!-- Node4 -->
<g id="node4" class="node"><title>Node4</title>
<g id="a_node4"><a xlink:href="CLIManager_8h.xhtml" target="_top" xlink:title="CLIManager.h">
<polygon fill="none" stroke="black" points="150,-56.5 150,-75.5 228,-75.5 228,-56.5 150,-56.5"/>
<text text-anchor="middle" x="189" y="-63.5" font-family="Helvetica,sans-Serif" font-size="10.00">CLIManager.h</text>
</a>
</g>
</g>
<!-- Node3&#45;&gt;Node4 -->
<g id="edge3" class="edge"><title>Node3&#45;&gt;Node4</title>
<path fill="none" stroke="midnightblue" d="M428.878,-111.798C342.654,-95.3475 319.671,-91.4607 237,-76 234.083,-75.4545 231.067,-74.8899 228.032,-74.3217"/>
<polygon fill="midnightblue" stroke="midnightblue" points="428.369,-115.264 438.848,-113.702 429.683,-108.388 428.369,-115.264"/>
</g>
<!-- Node7 -->
<g id="node7" class="node"><title>Node7</title>
<g id="a_node7"><a xlink:href="PCLViewer_8cpp.xhtml" target="_top" xlink:title="PCLViewer.cpp">
<polygon fill="none" stroke="black" points="384.5,-56.5 384.5,-75.5 469.5,-75.5 469.5,-56.5 384.5,-56.5"/>
<text text-anchor="middle" x="427" y="-63.5" font-family="Helvetica,sans-Serif" font-size="10.00">PCLViewer.cpp</text>
</a>
</g>
</g>
<!-- Node3&#45;&gt;Node7 -->
<g id="edge6" class="edge"><title>Node3&#45;&gt;Node7</title>
<path fill="none" stroke="midnightblue" d="M460.966,-104.431C452.378,-94.9673 441.957,-83.4827 434.941,-75.7511"/>
<polygon fill="midnightblue" stroke="midnightblue" points="458.597,-107.029 467.909,-112.083 463.781,-102.325 458.597,-107.029"/>
</g>
<!-- Node8 -->
<g id="node8" class="node"><title>Node8</title>
<g id="a_node8"><a xlink:href="SimpleVoxelViewer_8cpp.xhtml" target="_top" xlink:title="SimpleVoxelViewer.cpp">
<polygon fill="none" stroke="black" points="246,-56.5 246,-75.5 366,-75.5 366,-56.5 246,-56.5"/>
<text text-anchor="middle" x="306" y="-63.5" font-family="Helvetica,sans-Serif" font-size="10.00">SimpleVoxelViewer.cpp</text>
</a>
</g>
</g>
<!-- Node3&#45;&gt;Node8 -->
<g id="edge7" class="edge"><title>Node3&#45;&gt;Node8</title>
<path fill="none" stroke="midnightblue" d="M439.181,-109.304C407.148,-99.1294 361.485,-84.6246 332.811,-75.5164"/>
<polygon fill="midnightblue" stroke="midnightblue" points="438.473,-112.752 449.063,-112.444 440.592,-106.08 438.473,-112.752"/>
</g>
<!-- Node5 -->
<g id="node5" class="node"><title>Node5</title>
<g id="a_node5"><a xlink:href="CLIManager_8cpp.xhtml" target="_top" xlink:title="CLIManager.cpp">
<polygon fill="none" stroke="black" points="217.5,-0.5 217.5,-19.5 306.5,-19.5 306.5,-0.5 217.5,-0.5"/>
<text text-anchor="middle" x="262" y="-7.5" font-family="Helvetica,sans-Serif" font-size="10.00">CLIManager.cpp</text>
</a>
</g>
</g>
<!-- Node4&#45;&gt;Node5 -->
<g id="edge4" class="edge"><title>Node4&#45;&gt;Node5</title>
<path fill="none" stroke="midnightblue" d="M209.142,-50.1008C222.279,-40.3824 238.982,-28.0269 250.058,-19.8339"/>
<polygon fill="midnightblue" stroke="midnightblue" points="206.687,-47.5631 200.729,-56.324 210.85,-53.1907 206.687,-47.5631"/>
</g>
<!-- Node6 -->
<g id="node6" class="node"><title>Node6</title>
<g id="a_node6"><a xlink:href="VoxelCLI_8cpp.xhtml" target="_top" xlink:title="VoxelCLI.cpp">
<polygon fill="none" stroke="black" points="123,-0.5 123,-19.5 199,-19.5 199,-0.5 123,-0.5"/>
<text text-anchor="middle" x="161" y="-7.5" font-family="Helvetica,sans-Serif" font-size="10.00">VoxelCLI.cpp</text>
</a>
</g>
</g>
<!-- Node4&#45;&gt;Node6 -->
<g id="edge5" class="edge"><title>Node4&#45;&gt;Node6</title>
<path fill="none" stroke="midnightblue" d="M179.658,-46.9827C174.905,-37.8168 169.344,-27.0922 165.538,-19.7511"/>
<polygon fill="midnightblue" stroke="midnightblue" points="176.666,-48.8166 184.376,-56.083 182.88,-45.5943 176.666,-48.8166"/>
</g>
<!-- Node10 -->
<g id="node10" class="node"><title>Node10</title>
<g id="a_node10"><a xlink:href="ToFCamera_8h.xhtml" target="_top" xlink:title="ToFCamera.h">
<polygon fill="none" stroke="red" points="762.5,-56.5 762.5,-75.5 839.5,-75.5 839.5,-56.5 762.5,-56.5"/>
<text text-anchor="middle" x="801" y="-63.5" font-family="Helvetica,sans-Serif" font-size="10.00">ToFCamera.h</text>
</a>
</g>
</g>
<!-- Node9&#45;&gt;Node10 -->
<g id="edge9" class="edge"><title>Node9&#45;&gt;Node10</title>
<path fill="none" stroke="midnightblue" d="M716.249,-107.862C737.016,-97.8492 765.023,-84.3458 783.05,-75.6545"/>
<polygon fill="midnightblue" stroke="midnightblue" points="714.482,-104.828 706.995,-112.324 717.523,-111.134 714.482,-104.828"/>
</g>
<!-- Node15 -->
<g id="node15" class="node"><title>Node15</title>
<g id="a_node15"><a xlink:href="ToFCameraBase_8cpp.xhtml" target="_top" xlink:title="ToFCameraBase.cpp">
<polygon fill="none" stroke="black" points="634,-56.5 634,-75.5 744,-75.5 744,-56.5 634,-56.5"/>
<text text-anchor="middle" x="689" y="-63.5" font-family="Helvetica,sans-Serif" font-size="10.00">ToFCameraBase.cpp</text>
</a>
</g>
</g>
<!-- Node9&#45;&gt;Node15 -->
<g id="edge14" class="edge"><title>Node9&#45;&gt;Node15</title>
<path fill="none" stroke="midnightblue" d="M689,-101.805C689,-92.9102 689,-82.7798 689,-75.7511"/>
<polygon fill="midnightblue" stroke="midnightblue" points="685.5,-102.083 689,-112.083 692.5,-102.083 685.5,-102.083"/>
</g>
<!-- Node11 -->
<g id="node11" class="node"><title>Node11</title>
<g id="a_node11"><a xlink:href="ToFCalculusCamera_8h.xhtml" target="_top" xlink:title="ToFCalculusCamera.h">
<polygon fill="none" stroke="red" points="596.5,-0.5 596.5,-19.5 711.5,-19.5 711.5,-0.5 596.5,-0.5"/>
<text text-anchor="middle" x="654" y="-7.5" font-family="Helvetica,sans-Serif" font-size="10.00">ToFCalculusCamera.h</text>
</a>
</g>
</g>
<!-- Node10&#45;&gt;Node11 -->
<g id="edge10" class="edge"><title>Node10&#45;&gt;Node11</title>
<path fill="none" stroke="midnightblue" d="M768.077,-52.9058C740.44,-42.7536 701.656,-28.5063 677.184,-19.5164"/>
<polygon fill="midnightblue" stroke="midnightblue" points="767.114,-56.2806 777.707,-56.4435 769.528,-49.71 767.114,-56.2806"/>
</g>
<!-- Node12 -->
<g id="node12" class="node"><title>Node12</title>
<g id="a_node12"><a xlink:href="ToFCamera_8cpp.xhtml" target="_top" xlink:title="ToFCamera.cpp">
<polygon fill="none" stroke="black" points="324.5,-0.5 324.5,-19.5 411.5,-19.5 411.5,-0.5 324.5,-0.5"/>
<text text-anchor="middle" x="368" y="-7.5" font-family="Helvetica,sans-Serif" font-size="10.00">ToFCamera.cpp</text>
</a>
</g>
</g>
<!-- Node10&#45;&gt;Node12 -->
<g id="edge11" class="edge"><title>Node10&#45;&gt;Node12</title>
<path fill="none" stroke="midnightblue" d="M752.343,-56.0161C604.036,-34.5309 564.248,-40.2593 420,-20 417.278,-19.6177 414.48,-19.2014 411.661,-18.7644"/>
<polygon fill="midnightblue" stroke="midnightblue" points="751.869,-59.4839 762.271,-57.4712 752.884,-52.5579 751.869,-59.4839"/>
</g>
<!-- Node13 -->
<g id="node13" class="node"><title>Node13</title>
<g id="a_node13"><a xlink:href="ToFCameraFactoryBase_8cpp.xhtml" target="_top" xlink:title="ToFCameraFactoryBase.cpp">
<polygon fill="none" stroke="black" points="729.5,-0.5 729.5,-19.5 872.5,-19.5 872.5,-0.5 729.5,-0.5"/>
<text text-anchor="middle" x="801" y="-7.5" font-family="Helvetica,sans-Serif" font-size="10.00">ToFCameraFactoryBase.cpp</text>
</a>
</g>
</g>
<!-- Node10&#45;&gt;Node13 -->
<g id="edge12" class="edge"><title>Node10&#45;&gt;Node13</title>
<path fill="none" stroke="midnightblue" d="M801,-45.8045C801,-36.9102 801,-26.7798 801,-19.7511"/>
<polygon fill="midnightblue" stroke="midnightblue" points="797.5,-46.083 801,-56.083 804.5,-46.083 797.5,-46.083"/>
</g>
<!-- Node14 -->
<g id="node14" class="node"><title>Node14</title>
<g id="a_node14"><a xlink:href="ToFDepthFrameGenerator_8cpp.xhtml" target="_top" xlink:title="ToFDepthFrameGenerator.cpp">
<polygon fill="none" stroke="black" points="429.5,-0.5 429.5,-19.5 578.5,-19.5 578.5,-0.5 429.5,-0.5"/>
<text text-anchor="middle" x="504" y="-7.5" font-family="Helvetica,sans-Serif" font-size="10.00">ToFDepthFrameGenerator.cpp</text>
</a>
</g>
</g>
<!-- Node10&#45;&gt;Node14 -->
<g id="edge13" class="edge"><title>Node10&#45;&gt;Node14</title>
<path fill="none" stroke="midnightblue" d="M752.24,-55.8699C676.096,-41.8702 599.735,-28.1308 551.752,-19.534"/>
<polygon fill="midnightblue" stroke="midnightblue" points="752.023,-59.3888 762.492,-57.7567 753.29,-52.5045 752.023,-59.3888"/>
</g>
<!-- Node18 -->
<g id="node18" class="node"><title>Node18</title>
<g id="a_node18"><a xlink:href="CalculusCDKCameraFactory_8h.xhtml" target="_top" xlink:title="CalculusCDKCameraFactory.h">
<polygon fill="none" stroke="red" points="1181,-0.5 1181,-19.5 1333,-19.5 1333,-0.5 1181,-0.5"/>
<text text-anchor="middle" x="1257" y="-7.5" font-family="Helvetica,sans-Serif" font-size="10.00">CalculusCDKCameraFactory.h</text>
</a>
</g>
</g>
<!-- Node17&#45;&gt;Node18 -->
<g id="edge17" class="edge"><title>Node17&#45;&gt;Node18</title>
<path fill="none" stroke="midnightblue" d="M1198.03,-108.491C1172,-96.858 1142.75,-78.0362 1157,-56 1169.3,-36.9753 1191.77,-25.914 1212.3,-19.5236"/>
<polygon fill="midnightblue" stroke="midnightblue" points="1196.82,-111.777 1207.39,-112.444 1199.54,-105.329 1196.82,-111.777"/>
</g>
<!-- Node19 -->
<g id="node19" class="node"><title>Node19</title>
<g id="a_node19"><a xlink:href="HaddockCDKCameraFactory_8h.xhtml" target="_top" xlink:title="HaddockCDKCameraFactory.h">
<polygon fill="none" stroke="red" points="1351.5,-0.5 1351.5,-19.5 1504.5,-19.5 1504.5,-0.5 1351.5,-0.5"/>
<text text-anchor="middle" x="1428" y="-7.5" font-family="Helvetica,sans-Serif" font-size="10.00">HaddockCDKCameraFactory.h</text>
</a>
</g>
</g>
<!-- Node17&#45;&gt;Node19 -->
<g id="edge18" class="edge"><title>Node17&#45;&gt;Node19</title>
<path fill="none" stroke="midnightblue" d="M1256.15,-107.446C1297.04,-84.4973 1378.77,-38.6307 1412.69,-19.5914"/>
<polygon fill="midnightblue" stroke="midnightblue" points="1254.39,-104.422 1247.38,-112.368 1257.81,-110.526 1254.39,-104.422"/>
</g>
<!-- Node20 -->
<g id="node20" class="node"><title>Node20</title>
<g id="a_node20"><a xlink:href="RTS5825CameraFactory_8h.xhtml" target="_top" xlink:title="RTS5825CameraFactory.h">
<polygon fill="none" stroke="red" points="1523,-0.5 1523,-19.5 1657,-19.5 1657,-0.5 1523,-0.5"/>
<text text-anchor="middle" x="1590" y="-7.5" font-family="Helvetica,sans-Serif" font-size="10.00">RTS5825CameraFactory.h</text>
</a>
</g>
</g>
<!-- Node17&#45;&gt;Node20 -->
<g id="edge19" class="edge"><title>Node17&#45;&gt;Node20</title>
<path fill="none" stroke="midnightblue" d="M1263.42,-108.811C1285.95,-99.9613 1316.98,-87.5618 1344,-76 1363.75,-67.5492 1367.63,-62.8165 1388,-56 1437.75,-39.3541 1496.45,-27.0584 1537.72,-19.5651"/>
<polygon fill="midnightblue" stroke="midnightblue" points="1262.05,-105.588 1254.01,-112.492 1264.6,-112.107 1262.05,-105.588"/>
</g>
<!-- Node21 -->
<g id="node21" class="node"><title>Node21</title>
<g id="a_node21"><a xlink:href="TintinCDKCameraFactory_8h.xhtml" target="_top" xlink:title="TintinCDKCameraFactory.h">
<polygon fill="none" stroke="red" points="1675,-0.5 1675,-19.5 1813,-19.5 1813,-0.5 1675,-0.5"/>
<text text-anchor="middle" x="1744" y="-7.5" font-family="Helvetica,sans-Serif" font-size="10.00">TintinCDKCameraFactory.h</text>
</a>
</g>
</g>
<!-- Node17&#45;&gt;Node21 -->
<g id="edge20" class="edge"><title>Node17&#45;&gt;Node21</title>
<path fill="none" stroke="midnightblue" d="M1275.13,-109.837C1304.99,-101.637 1345.42,-89.5928 1380,-76 1398.87,-68.5832 1401.61,-61.9167 1421,-56 1444.73,-48.761 1587.34,-30.3446 1674.94,-19.4466"/>
<polygon fill="midnightblue" stroke="midnightblue" points="1274.17,-106.471 1265.43,-112.467 1276,-113.227 1274.17,-106.471"/>
</g>
<!-- Node22 -->
<g id="node22" class="node"><title>Node22</title>
<g id="a_node22"><a xlink:href="Voxel14CameraFactory_8h.xhtml" target="_top" xlink:title="Voxel14CameraFactory.h">
<polygon fill="none" stroke="red" points="891,-0.5 891,-19.5 1019,-19.5 1019,-0.5 891,-0.5"/>
<text text-anchor="middle" x="955" y="-7.5" font-family="Helvetica,sans-Serif" font-size="10.00">Voxel14CameraFactory.h</text>
</a>
</g>
</g>
<!-- Node17&#45;&gt;Node22 -->
<g id="edge21" class="edge"><title>Node17&#45;&gt;Node22</title>
<path fill="none" stroke="midnightblue" d="M1200.74,-108.586C1143.99,-86.0499 1025.39,-38.9513 976.635,-19.5914"/>
<polygon fill="midnightblue" stroke="midnightblue" points="1199.68,-111.931 1210.26,-112.368 1202.26,-105.425 1199.68,-111.931"/>
</g>
<!-- Node23 -->
<g id="node23" class="node"><title>Node23</title>
<g id="a_node23"><a xlink:href="VoxelDCameraFactory_8h.xhtml" target="_top" xlink:title="VoxelDCameraFactory.h">
<polygon fill="none" stroke="red" points="1037.5,-0.5 1037.5,-19.5 1162.5,-19.5 1162.5,-0.5 1037.5,-0.5"/>
<text text-anchor="middle" x="1100" y="-7.5" font-family="Helvetica,sans-Serif" font-size="10.00">VoxelDCameraFactory.h</text>
</a>
</g>
</g>
<!-- Node17&#45;&gt;Node23 -->
<g id="edge22" class="edge"><title>Node17&#45;&gt;Node23</title>
<path fill="none" stroke="midnightblue" d="M1201.82,-108.159C1185.45,-100.316 1165.46,-89.2496 1150,-76 1130.32,-59.1393 1113.35,-33.3993 1105.19,-19.9272"/>
<polygon fill="midnightblue" stroke="midnightblue" points="1200.43,-111.374 1210.98,-112.396 1203.37,-105.021 1200.43,-111.374"/>
</g>
<!-- Node24 -->
<g id="node24" class="node"><title>Node24</title>
<g id="a_node24"><a xlink:href="ToFCameraFactoryBase_8h.xhtml" target="_top" xlink:title="ToFCameraFactoryBase.h">
<polygon fill="none" stroke="black" points="1166,-56.5 1166,-75.5 1298,-75.5 1298,-56.5 1166,-56.5"/>
<text text-anchor="middle" x="1232" y="-63.5" font-family="Helvetica,sans-Serif" font-size="10.00">ToFCameraFactoryBase.h</text>
</a>
</g>
</g>
<!-- Node17&#45;&gt;Node24 -->
<g id="edge23" class="edge"><title>Node17&#45;&gt;Node24</title>
<path fill="none" stroke="midnightblue" d="M1232,-101.805C1232,-92.9102 1232,-82.7798 1232,-75.7511"/>
<polygon fill="midnightblue" stroke="midnightblue" points="1228.5,-102.083 1232,-112.083 1235.5,-102.083 1228.5,-102.083"/>
</g>
<!-- Node25 -->
<g id="node25" class="node"><title>Node25</title>
<g id="a_node25"><a xlink:href="DepthCameraLibrary_8h.xhtml" target="_top" xlink:title="DepthCameraLibrary.h">
<polygon fill="none" stroke="red" points="1430.5,-56.5 1430.5,-75.5 1545.5,-75.5 1545.5,-56.5 1430.5,-56.5"/>
<text text-anchor="middle" x="1488" y="-63.5" font-family="Helvetica,sans-Serif" font-size="10.00">DepthCameraLibrary.h</text>
</a>
</g>
</g>
<!-- Node17&#45;&gt;Node25 -->
<g id="edge31" class="edge"><title>Node17&#45;&gt;Node25</title>
<path fill="none" stroke="midnightblue" d="M1282.51,-110.346C1330.89,-100.141 1402.95,-84.94 1447.63,-75.5164"/>
<polygon fill="midnightblue" stroke="midnightblue" points="1281.63,-106.955 1272.56,-112.444 1283.07,-113.804 1281.63,-106.955"/>
</g>
<!-- Node24&#45;&gt;Node13 -->
<g id="edge30" class="edge"><title>Node24&#45;&gt;Node13</title>
<path fill="none" stroke="midnightblue" d="M1155.43,-55.406C1074.1,-45.2163 946.757,-29.2619 868.898,-19.5069"/>
<polygon fill="midnightblue" stroke="midnightblue" points="1155.24,-58.9104 1165.6,-56.6808 1156.11,-51.9647 1155.24,-58.9104"/>
</g>
<!-- Node24&#45;&gt;Node18 -->
<g id="edge24" class="edge"><title>Node24&#45;&gt;Node18</title>
<path fill="none" stroke="midnightblue" d="M1240.34,-46.9827C1244.58,-37.8168 1249.55,-27.0922 1252.95,-19.7511"/>
<polygon fill="midnightblue" stroke="midnightblue" points="1237.15,-45.5379 1236.13,-56.083 1243.51,-48.4788 1237.15,-45.5379"/>
</g>
<!-- Node24&#45;&gt;Node19 -->
<g id="edge25" class="edge"><title>Node24&#45;&gt;Node19</title>
<path fill="none" stroke="midnightblue" d="M1273.02,-53.6986C1310.01,-43.507 1363.6,-28.7429 1397.09,-19.5164"/>
<polygon fill="midnightblue" stroke="midnightblue" points="1271.77,-50.4131 1263.06,-56.4435 1273.63,-57.1616 1271.77,-50.4131"/>
</g>
<!-- Node24&#45;&gt;Node20 -->
<g id="edge26" class="edge"><title>Node24&#45;&gt;Node20</title>
<path fill="none" stroke="midnightblue" d="M1298.85,-54.9166C1366.48,-44.715 1469.89,-29.1174 1533.54,-19.5164"/>
<polygon fill="midnightblue" stroke="midnightblue" points="1298.09,-51.4911 1288.73,-56.4435 1299.14,-58.4128 1298.09,-51.4911"/>
</g>
<!-- Node24&#45;&gt;Node21 -->
<g id="edge27" class="edge"><title>Node24&#45;&gt;Node21</title>
<path fill="none" stroke="midnightblue" d="M1308.21,-57.3667C1394.91,-48.6216 1540.69,-33.7253 1666,-20 1668.85,-19.6883 1671.75,-19.3672 1674.68,-19.0403"/>
<polygon fill="midnightblue" stroke="midnightblue" points="1307.8,-53.8908 1298.2,-58.3761 1308.5,-60.8555 1307.8,-53.8908"/>
</g>
<!-- Node24&#45;&gt;Node22 -->
<g id="edge28" class="edge"><title>Node24&#45;&gt;Node22</title>
<path fill="none" stroke="midnightblue" d="M1178,-54.4734C1125.65,-44.2678 1047.23,-28.9794 998.686,-19.5164"/>
<polygon fill="midnightblue" stroke="midnightblue" points="1177.62,-57.9654 1188.11,-56.4435 1178.96,-51.0947 1177.62,-57.9654"/>
</g>
<!-- Node24&#45;&gt;Node23 -->
<g id="edge29" class="edge"><title>Node24&#45;&gt;Node23</title>
<path fill="none" stroke="midnightblue" d="M1201.78,-52.6377C1177.01,-42.504 1142.6,-28.4274 1120.82,-19.5164"/>
<polygon fill="midnightblue" stroke="midnightblue" points="1200.5,-55.8966 1211.08,-56.4435 1203.15,-49.4177 1200.5,-55.8966"/>
</g>
<!-- Node26&#45;&gt;Node25 -->
<g id="edge33" class="edge"><title>Node26&#45;&gt;Node25</title>
<path fill="none" stroke="midnightblue" d="M1438.04,-106.101C1450.46,-96.3824 1466.24,-84.0269 1476.71,-75.8339"/>
<polygon fill="midnightblue" stroke="midnightblue" points="1435.8,-103.405 1430.09,-112.324 1440.12,-108.917 1435.8,-103.405"/>
</g>
<!-- Node27 -->
<g id="node27" class="node"><title>Node27</title>
<g id="a_node27"><a xlink:href="FilterFactory_8cpp.xhtml" target="_top" xlink:title="FilterFactory.cpp">
<polygon fill="none" stroke="black" points="1564,-56.5 1564,-75.5 1654,-75.5 1654,-56.5 1564,-56.5"/>
<text text-anchor="middle" x="1609" y="-63.5" font-family="Helvetica,sans-Serif" font-size="10.00">FilterFactory.cpp</text>
</a>
</g>
</g>
<!-- Node26&#45;&gt;Node27 -->
<g id="edge34" class="edge"><title>Node26&#45;&gt;Node27</title>
<path fill="none" stroke="midnightblue" d="M1458.76,-109.699C1494.62,-99.507 1546.57,-84.7429 1579.03,-75.5164"/>
<polygon fill="midnightblue" stroke="midnightblue" points="1457.77,-106.343 1449.11,-112.444 1459.68,-113.076 1457.77,-106.343"/>
</g>
<!-- Node28 -->
<g id="node28" class="node"><title>Node28</title>
<g id="a_node28"><a xlink:href="VoxelFilterFactory_8h.xhtml" target="_top" xlink:title="VoxelFilterFactory.h">
<polygon fill="none" stroke="red" points="1672,-56.5 1672,-75.5 1776,-75.5 1776,-56.5 1672,-56.5"/>
<text text-anchor="middle" x="1724" y="-63.5" font-family="Helvetica,sans-Serif" font-size="10.00">VoxelFilterFactory.h</text>
</a>
</g>
</g>
<!-- Node26&#45;&gt;Node28 -->
<g id="edge35" class="edge"><title>Node26&#45;&gt;Node28</title>
<path fill="none" stroke="midnightblue" d="M1469.06,-111.819C1546.74,-97.8816 1625.47,-84.1154 1674.9,-75.5155"/>
<polygon fill="midnightblue" stroke="midnightblue" points="1468.33,-108.395 1459.11,-113.608 1469.57,-115.284 1468.33,-108.395"/>
</g>
<!-- Node32&#45;&gt;Node5 -->
<g id="edge40" class="edge"><title>Node32&#45;&gt;Node5</title>
<path fill="none" stroke="midnightblue" d="M553.729,-105.662C535.972,-90.7197 506.906,-68.4845 478,-56 462.439,-49.2793 365.139,-30.3402 306.568,-19.2912"/>
<polygon fill="midnightblue" stroke="midnightblue" points="551.624,-108.468 561.487,-112.337 556.189,-103.161 551.624,-108.468"/>
</g>
<!-- Node32&#45;&gt;Node7 -->
<g id="edge41" class="edge"><title>Node32&#45;&gt;Node7</title>
<path fill="none" stroke="midnightblue" d="M538.749,-108.906C511.676,-98.7536 473.683,-84.5063 449.71,-75.5164"/>
<polygon fill="midnightblue" stroke="midnightblue" points="537.591,-112.209 548.183,-112.444 540.048,-105.655 537.591,-112.209"/>
</g>
<!-- Node33 -->
<g id="node33" class="node"><title>Node33</title>
<g id="a_node33"><a xlink:href="PCLGrabber_8cpp.xhtml" target="_top" xlink:title="PCLGrabber.cpp">
<polygon fill="none" stroke="black" points="526.5,-56.5 526.5,-75.5 615.5,-75.5 615.5,-56.5 526.5,-56.5"/>
<text text-anchor="middle" x="571" y="-63.5" font-family="Helvetica,sans-Serif" font-size="10.00">PCLGrabber.cpp</text>
</a>
</g>
</g>
<!-- Node32&#45;&gt;Node33 -->
<g id="edge42" class="edge"><title>Node32&#45;&gt;Node33</title>
<path fill="none" stroke="midnightblue" d="M571,-101.805C571,-92.9102 571,-82.7798 571,-75.7511"/>
<polygon fill="midnightblue" stroke="midnightblue" points="567.5,-102.083 571,-112.083 574.5,-102.083 567.5,-102.083"/>
</g>
<!-- Node36 -->
<g id="node36" class="node"><title>Node36</title>
<g id="a_node36"><a xlink:href="CalculusCDKCamera_8cpp.xhtml" target="_top" xlink:title="CalculusCDKCamera.cpp">
<polygon fill="none" stroke="black" points="1591,-112.5 1591,-131.5 1721,-131.5 1721,-112.5 1591,-112.5"/>
<text text-anchor="middle" x="1656" y="-119.5" font-family="Helvetica,sans-Serif" font-size="10.00">CalculusCDKCamera.cpp</text>
</a>
</g>
</g>
<!-- Node35&#45;&gt;Node36 -->
<g id="edge45" class="edge"><title>Node35&#45;&gt;Node36</title>
<path fill="none" stroke="midnightblue" d="M1831.28,-166.024C1789.72,-155.823 1728.69,-140.841 1690.7,-131.516"/>
<polygon fill="midnightblue" stroke="midnightblue" points="1830.59,-169.459 1841.14,-168.444 1832.26,-162.661 1830.59,-169.459"/>
</g>
<!-- Node37 -->
<g id="node37" class="node"><title>Node37</title>
<g id="a_node37"><a xlink:href="HaddockCDKCamera_8cpp.xhtml" target="_top" xlink:title="HaddockCDKCamera.cpp">
<polygon fill="none" stroke="black" points="1739.5,-112.5 1739.5,-131.5 1870.5,-131.5 1870.5,-112.5 1739.5,-112.5"/>
<text text-anchor="middle" x="1805" y="-119.5" font-family="Helvetica,sans-Serif" font-size="10.00">HaddockCDKCamera.cpp</text>
</a>
</g>
</g>
<!-- Node35&#45;&gt;Node37 -->
<g id="edge46" class="edge"><title>Node35&#45;&gt;Node37</title>
<path fill="none" stroke="midnightblue" d="M1856.41,-162.101C1843.63,-152.382 1827.39,-140.027 1816.61,-131.834"/>
<polygon fill="midnightblue" stroke="midnightblue" points="1854.51,-165.056 1864.59,-168.324 1858.75,-159.484 1854.51,-165.056"/>
</g>
<!-- Node38 -->
<g id="node38" class="node"><title>Node38</title>
<g id="a_node38"><a xlink:href="TintinCDKCamera_8cpp.xhtml" target="_top" xlink:title="TintinCDKCamera.cpp">
<polygon fill="none" stroke="black" points="2023,-112.5 2023,-131.5 2139,-131.5 2139,-112.5 2023,-112.5"/>
<text text-anchor="middle" x="2081" y="-119.5" font-family="Helvetica,sans-Serif" font-size="10.00">TintinCDKCamera.cpp</text>
</a>
</g>
</g>
<!-- Node35&#45;&gt;Node38 -->
<g id="edge47" class="edge"><title>Node35&#45;&gt;Node38</title>
<path fill="none" stroke="midnightblue" d="M1918.41,-165.829C1957.11,-155.633 2013.49,-140.782 2048.67,-131.516"/>
<polygon fill="midnightblue" stroke="midnightblue" points="1917.26,-162.512 1908.48,-168.444 1919.04,-169.281 1917.26,-162.512"/>
</g>
<!-- Node39 -->
<g id="node39" class="node"><title>Node39</title>
<g id="a_node39"><a xlink:href="USBBulkStreamer_8cpp.xhtml" target="_top" xlink:title="USBBulkStreamer.cpp">
<polygon fill="none" stroke="black" points="1889,-112.5 1889,-131.5 2005,-131.5 2005,-112.5 1889,-112.5"/>
<text text-anchor="middle" x="1947" y="-119.5" font-family="Helvetica,sans-Serif" font-size="10.00">USBBulkStreamer.cpp</text>
</a>
</g>
</g>
<!-- Node35&#45;&gt;Node39 -->
<g id="edge48" class="edge"><title>Node35&#45;&gt;Node39</title>
<path fill="none" stroke="midnightblue" d="M1895.59,-162.101C1908.37,-152.382 1924.61,-140.027 1935.39,-131.834"/>
<polygon fill="midnightblue" stroke="midnightblue" points="1893.25,-159.484 1887.41,-168.324 1897.49,-165.056 1893.25,-159.484"/>
</g>
<!-- Node40&#45;&gt;Node38 -->
<g id="edge56" class="edge"><title>Node40&#45;&gt;Node38</title>
<path fill="none" stroke="midnightblue" d="M2756.86,-174.574C2644.36,-169.178 2373.9,-154.825 2148,-132 2145.08,-131.705 2142.09,-131.382 2139.08,-131.039"/>
<polygon fill="midnightblue" stroke="midnightblue" points="2756.78,-178.074 2766.93,-175.054 2757.11,-171.082 2756.78,-178.074"/>
</g>
<!-- Node41 -->
<g id="node41" class="node"><title>Node41</title>
<g id="a_node41"><a xlink:href="CameraSystemConfigTest_8cpp.xhtml" target="_top" xlink:title="CameraSystemConfigTest.cpp">
<polygon fill="none" stroke="black" points="2272,-112.5 2272,-131.5 2424,-131.5 2424,-112.5 2272,-112.5"/>
<text text-anchor="middle" x="2348" y="-119.5" font-family="Helvetica,sans-Serif" font-size="10.00">CameraSystemConfigTest.cpp</text>
</a>
</g>
</g>
<!-- Node40&#45;&gt;Node41 -->
<g id="edge50" class="edge"><title>Node40&#45;&gt;Node41</title>
<path fill="none" stroke="midnightblue" d="M2757.02,-170.807C2674.3,-161.139 2514.31,-142.439 2420.82,-131.512"/>
<polygon fill="midnightblue" stroke="midnightblue" points="2756.61,-174.284 2766.95,-171.968 2757.43,-167.331 2756.61,-174.284"/>
</g>
<!-- Node42 -->
<g id="node42" class="node"><title>Node42</title>
<g id="a_node42"><a xlink:href="CameraSystemReadStreamTest_8cpp.xhtml" target="_top" xlink:title="CameraSystemReadStreamTest.cpp">
<polygon fill="none" stroke="black" points="2442,-112.5 2442,-131.5 2620,-131.5 2620,-112.5 2442,-112.5"/>
<text text-anchor="middle" x="2531" y="-119.5" font-family="Helvetica,sans-Serif" font-size="10.00">CameraSystemReadStreamTest.cpp</text>
</a>
</g>
</g>
<!-- Node40&#45;&gt;Node42 -->
<g id="edge51" class="edge"><title>Node40&#45;&gt;Node42</title>
<path fill="none" stroke="midnightblue" d="M2756.89,-166.721C2704.28,-156.538 2624.63,-141.121 2575.31,-131.577"/>
<polygon fill="midnightblue" stroke="midnightblue" points="2756.23,-170.158 2766.71,-168.622 2757.56,-163.285 2756.23,-170.158"/>
</g>
<!-- Node43 -->
<g id="node43" class="node"><title>Node43</title>
<g id="a_node43"><a xlink:href="CameraSystemSaveStreamTest_8cpp.xhtml" target="_top" xlink:title="CameraSystemSaveStreamTest.cpp">
<polygon fill="none" stroke="black" points="2637.5,-112.5 2637.5,-131.5 2814.5,-131.5 2814.5,-112.5 2637.5,-112.5"/>
<text text-anchor="middle" x="2726" y="-119.5" font-family="Helvetica,sans-Serif" font-size="10.00">CameraSystemSaveStreamTest.cpp</text>
</a>
</g>
</g>
<!-- Node40&#45;&gt;Node43 -->
<g id="edge52" class="edge"><title>Node40&#45;&gt;Node43</title>
<path fill="none" stroke="midnightblue" d="M2788.07,-162.901C2772.66,-152.999 2752.55,-140.071 2739.46,-131.655"/>
<polygon fill="midnightblue" stroke="midnightblue" points="2786.2,-165.86 2796.5,-168.324 2789.98,-159.972 2786.2,-165.86"/>
</g>
<!-- Node44 -->
<g id="node44" class="node"><title>Node44</title>
<g id="a_node44"><a xlink:href="CameraSystemTest_8cpp.xhtml" target="_top" xlink:title="CameraSystemTest.cpp">
<polygon fill="none" stroke="black" points="2832.5,-112.5 2832.5,-131.5 2955.5,-131.5 2955.5,-112.5 2832.5,-112.5"/>
<text text-anchor="middle" x="2894" y="-119.5" font-family="Helvetica,sans-Serif" font-size="10.00">CameraSystemTest.cpp</text>
</a>
</g>
</g>
<!-- Node40&#45;&gt;Node44 -->
<g id="edge53" class="edge"><title>Node40&#45;&gt;Node44</title>
<path fill="none" stroke="midnightblue" d="M2831.93,-162.901C2847.34,-152.999 2867.45,-140.071 2880.54,-131.655"/>
<polygon fill="midnightblue" stroke="midnightblue" points="2830.02,-159.972 2823.5,-168.324 2833.8,-165.86 2830.02,-159.972"/>
</g>
<!-- Node45 -->
<g id="node45" class="node"><title>Node45</title>
<g id="a_node45"><a xlink:href="UVCStreamerTest_8cpp.xhtml" target="_top" xlink:title="UVCStreamerTest.cpp">
<polygon fill="none" stroke="black" points="2974,-112.5 2974,-131.5 3090,-131.5 3090,-112.5 2974,-112.5"/>
<text text-anchor="middle" x="3032" y="-119.5" font-family="Helvetica,sans-Serif" font-size="10.00">UVCStreamerTest.cpp</text>
</a>
</g>
</g>
<!-- Node40&#45;&gt;Node45 -->
<g id="edge54" class="edge"><title>Node40&#45;&gt;Node45</title>
<path fill="none" stroke="midnightblue" d="M2855.12,-166.024C2897.06,-155.823 2958.65,-140.841 2996.99,-131.516"/>
<polygon fill="midnightblue" stroke="midnightblue" points="2854.07,-162.679 2845.18,-168.444 2855.72,-169.481 2854.07,-162.679"/>
</g>
<!-- Node46 -->
<g id="node46" class="node"><title>Node46</title>
<g id="a_node46"><a xlink:href="RTS5825Camera_8cpp.xhtml" target="_top" xlink:title="RTS5825Camera.cpp">
<polygon fill="none" stroke="black" points="3108.5,-112.5 3108.5,-131.5 3219.5,-131.5 3219.5,-112.5 3108.5,-112.5"/>
<text text-anchor="middle" x="3164" y="-119.5" font-family="Helvetica,sans-Serif" font-size="10.00">RTS5825Camera.cpp</text>
</a>
</g>
</g>
<!-- Node40&#45;&gt;Node46 -->
<g id="edge55" class="edge"><title>Node40&#45;&gt;Node46</title>
<path fill="none" stroke="midnightblue" d="M2863.25,-168.878C2929.3,-158.802 3041.37,-141.706 3108.47,-131.471"/>
<polygon fill="midnightblue" stroke="midnightblue" points="2862.41,-165.464 2853.05,-170.433 2863.47,-172.384 2862.41,-165.464"/>
</g>
<!-- Node47 -->
<g id="node47" class="node"><title>Node47</title>
<g id="a_node47"><a xlink:href="Voxel14Camera_8cpp.xhtml" target="_top" xlink:title="Voxel14Camera.cpp">
<polygon fill="none" stroke="black" points="3237.5,-112.5 3237.5,-131.5 3342.5,-131.5 3342.5,-112.5 3237.5,-112.5"/>
<text text-anchor="middle" x="3290" y="-119.5" font-family="Helvetica,sans-Serif" font-size="10.00">Voxel14Camera.cpp</text>
</a>
</g>
</g>
<!-- Node40&#45;&gt;Node47 -->
<g id="edge57" class="edge"><title>Node40&#45;&gt;Node47</title>
<path fill="none" stroke="midnightblue" d="M2863.34,-171.894C2942.86,-164.137 3097.19,-148.529 3228,-132 3231.02,-131.618 3234.12,-131.212 3237.25,-130.792"/>
<polygon fill="midnightblue" stroke="midnightblue" points="2862.7,-168.44 2853.09,-172.891 2863.38,-175.407 2862.7,-168.44"/>
</g>
<!-- Node48 -->
<g id="node48" class="node"><title>Node48</title>
<g id="a_node48"><a xlink:href="VoxelDCamera_8cpp.xhtml" target="_top" xlink:title="VoxelDCamera.cpp">
<polygon fill="none" stroke="black" points="3361,-112.5 3361,-131.5 3463,-131.5 3463,-112.5 3361,-112.5"/>
<text text-anchor="middle" x="3412" y="-119.5" font-family="Helvetica,sans-Serif" font-size="10.00">VoxelDCamera.cpp</text>
</a>
</g>
</g>
<!-- Node40&#45;&gt;Node48 -->
<g id="edge58" class="edge"><title>Node40&#45;&gt;Node48</title>
<path fill="none" stroke="midnightblue" d="M2863.38,-173.688C2960.56,-167.408 3172.81,-152.535 3351,-132 3354.19,-131.632 3357.47,-131.227 3360.78,-130.799"/>
<polygon fill="midnightblue" stroke="midnightblue" points="2862.98,-170.207 2853.22,-174.341 2863.42,-177.193 2862.98,-170.207"/>
</g>
<!-- Node49 -->
<g id="node49" class="node"><title>Node49</title>
<g id="a_node49"><a xlink:href="SerialNumber_8cpp.xhtml" target="_top" xlink:title="SerialNumber.cpp">
<polygon fill="none" stroke="black" points="3481.5,-112.5 3481.5,-131.5 3576.5,-131.5 3576.5,-112.5 3481.5,-112.5"/>
<text text-anchor="middle" x="3529" y="-119.5" font-family="Helvetica,sans-Serif" font-size="10.00">SerialNumber.cpp</text>
</a>
</g>
</g>
<!-- Node40&#45;&gt;Node49 -->
<g id="edge59" class="edge"><title>Node40&#45;&gt;Node49</title>
<path fill="none" stroke="midnightblue" d="M2863.09,-174.936C2975.5,-170.226 3245.69,-157.104 3471,-132 3474.34,-131.628 3477.79,-131.202 3481.25,-130.742"/>
<polygon fill="midnightblue" stroke="midnightblue" points="2862.88,-171.442 2853.03,-175.353 2863.17,-178.436 2862.88,-171.442"/>
</g>
<!-- Node50 -->
<g id="node50" class="node"><title>Node50</title>
<g id="a_node50"><a xlink:href="UVCStreamer_8cpp.xhtml" target="_top" xlink:title="UVCStreamer.cpp">
<polygon fill="none" stroke="black" points="2156.5,-112.5 2156.5,-131.5 2253.5,-131.5 2253.5,-112.5 2156.5,-112.5"/>
<text text-anchor="middle" x="2205" y="-119.5" font-family="Helvetica,sans-Serif" font-size="10.00">UVCStreamer.cpp</text>
</a>
</g>
</g>
<!-- Node40&#45;&gt;Node50 -->
<g id="edge60" class="edge"><title>Node40&#45;&gt;Node50</title>
<path fill="none" stroke="midnightblue" d="M2756.76,-173.895C2658.81,-167.9 2443.54,-153.406 2263,-132 2259.96,-131.64 2256.84,-131.241 2253.7,-130.817"/>
<polygon fill="midnightblue" stroke="midnightblue" points="2756.8,-177.404 2766.99,-174.517 2757.22,-170.417 2756.8,-177.404"/>
</g>
</g>
</svg>
        <g id="navigator" transform="translate(0 0)" fill="#404254">
                <rect fill="#f2f5e9" fill-opacity="0.5" stroke="#606060" stroke-width=".5" x="0" y="0" width="60" height="60"/>
                <use id="zoomplus" xlink:href="#zoomPlus" x="17" y="9" onmousedown="handleZoom(evt,'in')"/>
                <use id="zoomminus" xlink:href="#zoomMin" x="42" y="9" onmousedown="handleZoom(evt,'out')"/>
                <use id="reset" xlink:href="#resetDef" x="30" y="36" onmousedown="handleReset()"/>
                <g id="arrowUp" xlink:href="#dirArrow" transform="translate(30 24)" onmousedown="handlePan(0,-1)">
                  <use xlink:href="#rim" fill="#404040">
                        <set attributeName="fill" to="#808080" begin="arrowUp.mouseover" end="arrowUp.mouseout"/>
                  </use>
                  <path fill="none" stroke="white" stroke-width="1.5" d="M0,-3.0v7 M-2.5,-0.5L0,-3.0L2.5,-0.5"/>
                </g>
                <g id="arrowRight" xlink:href="#dirArrow" transform="rotate(90) translate(36 -43)" onmousedown="handlePan(1,0)">
                  <use xlink:href="#rim" fill="#404040">
                        <set attributeName="fill" to="#808080" begin="arrowRight.mouseover" end="arrowRight.mouseout"/>
                  </use>
                  <path fill="none" stroke="white" stroke-width="1.5" d="M0,-3.0v7 M-2.5,-0.5L0,-3.0L2.5,-0.5"/>
                </g>
                <g id="arrowDown" xlink:href="#dirArrow" transform="rotate(180) translate(-30 -48)" onmousedown="handlePan(0,1)">
                  <use xlink:href="#rim" fill="#404040">
                        <set attributeName="fill" to="#808080" begin="arrowDown.mouseover" end="arrowDown.mouseout"/>
                  </use>
                  <path fill="none" stroke="white" stroke-width="1.5" d="M0,-3.0v7 M-2.5,-0.5L0,-3.0L2.5,-0.5"/>
                </g>
                <g id="arrowLeft" xlink:href="#dirArrow" transform="rotate(270) translate(-36 17)" onmousedown="handlePan(-1,0)">
                  <use xlink:href="#rim" fill="#404040">
                        <set attributeName="fill" to="#808080" begin="arrowLeft.mouseover" end="arrowLeft.mouseout"/>
                  </use>
                  <path fill="none" stroke="white" stroke-width="1.5" d="M0,-3.0v7 M-2.5,-0.5L0,-3.0L2.5,-0.5"/>
                </g>
        </g>
        <svg viewBox="0 0 15 15" width="100%" height="30px" preserveAspectRatio="xMaxYMin meet">
         <g id="arrow_out" transform="scale(0.3 0.3)">
          <a xlink:href="Streamer_8h__dep__incl_org.svg" target="_base">
           <rect id="button" ry="5" rx="5" y="6" x="6" height="38" width="38"
                fill="#f2f5e9" fill-opacity="0.5" stroke="#606060" stroke-width="1.0"/>
           <path id="arrow"
             d="M 11.500037,31.436501 C 11.940474,20.09759 22.043105,11.32322 32.158766,21.979434 L 37.068811,17.246167 C 37.068811,17.246167 37.088388,32 37.088388,32 L 22.160133,31.978069 C 22.160133,31.978069 26.997745,27.140456 26.997745,27.140456 C 18.528582,18.264221 13.291696,25.230495 11.500037,31.436501 z"
             style="fill:#404040;"/>
          </a>
         </g>
        </svg>
</svg>
