<?xml version="1.0" encoding="UTF-8" standalone="no"?>
<!DOCTYPE svg PUBLIC "-//W3C//DTD SVG 1.1//EN"
 "http://www.w3.org/Graphics/SVG/1.1/DTD/svg11.dtd">
<!-- Generated by graphviz version 2.36.0 (20140111.2315)
 -->
<!-- Title: Voxel::DataPacket Pages: 1 -->
<svg width="313pt" height="174pt"
 viewBox="0.00 0.00 313.00 174.00" xmlns="http://www.w3.org/2000/svg" xmlns:xlink="http://www.w3.org/1999/xlink">
<g id="graph0" class="graph" transform="scale(1 1) rotate(0) translate(4 170)">
<title>Voxel::DataPacket</title>
<!-- Node1 -->
<g id="node1" class="node"><title>Node1</title>
<polygon fill="#bfbfbf" stroke="black" points="65.5,-0.5 65.5,-19.5 164.5,-19.5 164.5,-0.5 65.5,-0.5"/>
<text text-anchor="middle" x="115" y="-7.5" font-family="Helvetica,sans-Serif" font-size="10.00">Voxel::DataPacket</text>
</g>
<!-- Node2 -->
<g id="node2" class="node"><title>Node2</title>
<polygon fill="none" stroke="#bfbfbf" points="-0.5,-68.5 -0.5,-87.5 34.5,-87.5 34.5,-68.5 -0.5,-68.5"/>
<text text-anchor="middle" x="17" y="-75.5" font-family="Helvetica,sans-Serif" font-size="10.00">char</text>
</g>
<!-- Node2&#45;&gt;Node1 -->
<g id="edge1" class="edge"><title>Node2&#45;&gt;Node1</title>
<path fill="none" stroke="#9a32cd" stroke-dasharray="5,2" d="M32.2885,-61.1874C40.1308,-53.6007 50.0987,-44.7231 60,-38 70.6482,-30.7697 83.5177,-24.3424 94.1299,-19.5743"/>
<polygon fill="#9a32cd" stroke="#9a32cd" points="29.5845,-58.941 24.9774,-68.4817 34.5286,-63.8965 29.5845,-58.941"/>
<text text-anchor="middle" x="75" y="-41.5" font-family="Helvetica,sans-Serif" font-size="10.00"> magic</text>
</g>
<!-- Node3 -->
<g id="node3" class="node"><title>Node3</title>
<polygon fill="none" stroke="#bfbfbf" points="52.5,-68.5 52.5,-87.5 103.5,-87.5 103.5,-68.5 52.5,-68.5"/>
<text text-anchor="middle" x="78" y="-75.5" font-family="Helvetica,sans-Serif" font-size="10.00">uint32_t</text>
</g>
<!-- Node3&#45;&gt;Node1 -->
<g id="edge2" class="edge"><title>Node3&#45;&gt;Node1</title>
<path fill="none" stroke="#9a32cd" stroke-dasharray="5,2" d="M87.7753,-59.563C94.9407,-46.7815 104.371,-29.9599 110.044,-19.8411"/>
<polygon fill="#9a32cd" stroke="#9a32cd" points="84.6742,-57.9373 82.8371,-68.3717 90.7802,-61.3604 84.6742,-57.9373"/>
<text text-anchor="middle" x="111" y="-41.5" font-family="Helvetica,sans-Serif" font-size="10.00"> size</text>
</g>
<!-- Node4 -->
<g id="node4" class="node"><title>Node4</title>
<g id="a_node4"><a xlink:href="classVoxel_1_1SerializedObject.xhtml" target="_top" xlink:title="Voxel::SerializedObject">
<polygon fill="none" stroke="black" points="121.5,-68.5 121.5,-87.5 240.5,-87.5 240.5,-68.5 121.5,-68.5"/>
<text text-anchor="middle" x="181" y="-75.5" font-family="Helvetica,sans-Serif" font-size="10.00">Voxel::SerializedObject</text>
</a>
</g>
</g>
<!-- Node4&#45;&gt;Node1 -->
<g id="edge3" class="edge"><title>Node4&#45;&gt;Node1</title>
<path fill="none" stroke="#9a32cd" stroke-dasharray="5,2" d="M165.047,-61.0474C152.111,-48.1111 134.357,-30.3567 123.841,-19.8411"/>
<polygon fill="#9a32cd" stroke="#9a32cd" points="162.826,-63.7754 172.372,-68.3717 167.775,-58.8257 162.826,-63.7754"/>
<text text-anchor="middle" x="169" y="-41.5" font-family="Helvetica,sans-Serif" font-size="10.00"> object</text>
</g>
<!-- Node5 -->
<g id="node5" class="node"><title>Node5</title>
<polygon fill="none" stroke="#bfbfbf" points="103,-146.5 103,-165.5 185,-165.5 185,-146.5 103,-146.5"/>
<text text-anchor="middle" x="144" y="-153.5" font-family="Helvetica,sans-Serif" font-size="10.00">Vector&lt; char &gt;</text>
</g>
<!-- Node5&#45;&gt;Node4 -->
<g id="edge4" class="edge"><title>Node5&#45;&gt;Node4</title>
<path fill="none" stroke="#9a32cd" stroke-dasharray="5,2" d="M150.485,-136.988C154.089,-127.578 158.874,-115.975 164,-106 167.241,-99.6938 171.491,-92.9438 174.931,-87.7703"/>
<polygon fill="#9a32cd" stroke="#9a32cd" points="147.162,-135.884 146.964,-146.477 153.724,-138.32 147.162,-135.884"/>
<text text-anchor="middle" x="180.5" y="-114.5" font-family="Helvetica,sans-Serif" font-size="10.00"> _bytes</text>
</g>
<!-- Node6 -->
<g id="node6" class="node"><title>Node6</title>
<polygon fill="none" stroke="#bfbfbf" points="203,-146.5 203,-165.5 235,-165.5 235,-146.5 203,-146.5"/>
<text text-anchor="middle" x="219" y="-153.5" font-family="Helvetica,sans-Serif" font-size="10.00">uint</text>
</g>
<!-- Node6&#45;&gt;Node4 -->
<g id="edge5" class="edge"><title>Node6&#45;&gt;Node4</title>
<path fill="none" stroke="#9a32cd" stroke-dasharray="5,2" d="M211.394,-136.758C207.361,-127.436 202.178,-115.984 197,-106 193.789,-99.8089 189.789,-93.0589 186.592,-87.8567"/>
<polygon fill="#9a32cd" stroke="#9a32cd" points="208.267,-138.349 215.397,-146.185 214.71,-135.612 208.267,-138.349"/>
<text text-anchor="middle" x="232.5" y="-120" font-family="Helvetica,sans-Serif" font-size="10.00"> _putOffset</text>
<text text-anchor="middle" x="232.5" y="-109" font-family="Helvetica,sans-Serif" font-size="10.00">_getOffset</text>
</g>
<!-- Node7 -->
<g id="node7" class="node"><title>Node7</title>
<polygon fill="none" stroke="#bfbfbf" points="259,-68.5 259,-87.5 305,-87.5 305,-68.5 259,-68.5"/>
<text text-anchor="middle" x="282" y="-75.5" font-family="Helvetica,sans-Serif" font-size="10.00">uint8_t</text>
</g>
<!-- Node7&#45;&gt;Node1 -->
<g id="edge6" class="edge"><title>Node7&#45;&gt;Node1</title>
<path fill="none" stroke="#9a32cd" stroke-dasharray="5,2" d="M252.583,-64.449C234.111,-56.6542 209.75,-46.5307 188,-38 171.646,-31.586 153.077,-24.7236 138.76,-19.5223"/>
<polygon fill="#9a32cd" stroke="#9a32cd" points="251.349,-67.7272 261.922,-68.4032 254.078,-61.2812 251.349,-67.7272"/>
<text text-anchor="middle" x="228" y="-41.5" font-family="Helvetica,sans-Serif" font-size="10.00"> type</text>
</g>
</g>
</svg>
