<?xml version="1.0" encoding="UTF-8" standalone="no"?>
<!DOCTYPE svg PUBLIC "-//W3C//DTD SVG 1.1//EN"
 "http://www.w3.org/Graphics/SVG/1.1/DTD/svg11.dtd">
<!-- Generated by graphviz version 2.36.0 (20140111.2315)
 -->
<!-- Title: Voxel::GeneratorConfigurationSubPacket::read Pages: 1 -->
<svg width="312pt" height="87pt"
 viewBox="0.00 0.00 312.00 87.00" xmlns="http://www.w3.org/2000/svg" xmlns:xlink="http://www.w3.org/1999/xlink">
<g id="graph0" class="graph" transform="scale(1 1) rotate(0) translate(4 83)">
<title>Voxel::GeneratorConfigurationSubPacket::read</title>
<!-- Node1 -->
<g id="node1" class="node"><title>Node1</title>
<polygon fill="#bfbfbf" stroke="black" points="0,-24 0,-54 148,-54 148,-24 0,-24"/>
<text text-anchor="start" x="8" y="-42" font-family="Helvetica,sans-Serif" font-size="10.00">Voxel::GeneratorConfiguration</text>
<text text-anchor="middle" x="74" y="-31" font-family="Helvetica,sans-Serif" font-size="10.00">SubPacket::read</text>
</g>
<!-- Node2 -->
<g id="node2" class="node"><title>Node2</title>
<g id="a_node2"><a xlink:href="classVoxel_1_1SerializedObject.xhtml#aac0058e6b0ea0cb6ac86f4e986f6de25" target="_top" xlink:title="Voxel::SerializedObject\l::getBytes">
<polygon fill="none" stroke="black" points="184.5,-49 184.5,-79 303.5,-79 303.5,-49 184.5,-49"/>
<text text-anchor="start" x="192.5" y="-67" font-family="Helvetica,sans-Serif" font-size="10.00">Voxel::SerializedObject</text>
<text text-anchor="middle" x="244" y="-56" font-family="Helvetica,sans-Serif" font-size="10.00">::getBytes</text>
</a>
</g>
</g>
<!-- Node1&#45;&gt;Node2 -->
<g id="edge1" class="edge"><title>Node1&#45;&gt;Node2</title>
<path fill="none" stroke="midnightblue" d="M148.199,-49.8926C156.905,-51.1883 165.77,-52.5074 174.409,-53.793"/>
<polygon fill="midnightblue" stroke="midnightblue" points="174.018,-57.2733 184.424,-55.2834 175.048,-50.3495 174.018,-57.2733"/>
</g>
<!-- Node3 -->
<g id="node3" class="node"><title>Node3</title>
<g id="a_node3"><a xlink:href="classVoxel_1_1SerializedObject.xhtml#a28bffcfa230e90768ea678269a782381" target="_top" xlink:title="Voxel::SerializedObject\l::resize">
<polygon fill="none" stroke="black" points="184.5,-0 184.5,-30 303.5,-30 303.5,-0 184.5,-0"/>
<text text-anchor="start" x="192.5" y="-18" font-family="Helvetica,sans-Serif" font-size="10.00">Voxel::SerializedObject</text>
<text text-anchor="middle" x="244" y="-7" font-family="Helvetica,sans-Serif" font-size="10.00">::resize</text>
</a>
</g>
</g>
<!-- Node1&#45;&gt;Node3 -->
<g id="edge2" class="edge"><title>Node1&#45;&gt;Node3</title>
<path fill="none" stroke="midnightblue" d="M148.199,-28.5431C156.905,-27.2992 165.77,-26.0329 174.409,-24.7987"/>
<polygon fill="midnightblue" stroke="midnightblue" points="175.02,-28.2471 184.424,-23.368 174.03,-21.3174 175.02,-28.2471"/>
</g>
</g>
</svg>
