<?xml version="1.0" encoding="UTF-8" standalone="no"?>
<!DOCTYPE svg PUBLIC "-//W3C//DTD SVG 1.1//EN"
 "http://www.w3.org/Graphics/SVG/1.1/DTD/svg11.dtd">
<!-- Generated by graphviz version 2.36.0 (20140111.2315)
 -->
<!-- Title: ELFIO::Elf64_Ehdr Pages: 1 -->
<svg width="283pt" height="172pt"
 viewBox="0.00 0.00 283.00 172.00" xmlns="http://www.w3.org/2000/svg" xmlns:xlink="http://www.w3.org/1999/xlink">
<g id="graph0" class="graph" transform="scale(1 1) rotate(0) translate(4 168)">
<title>ELFIO::Elf64_Ehdr</title>
<!-- Node1 -->
<g id="node1" class="node"><title>Node1</title>
<polygon fill="#bfbfbf" stroke="black" points="82.5,-0.5 82.5,-19.5 181.5,-19.5 181.5,-0.5 82.5,-0.5"/>
<text text-anchor="middle" x="132" y="-7.5" font-family="Helvetica,sans-Serif" font-size="10.00">ELFIO::Elf64_Ehdr</text>
</g>
<!-- Node2 -->
<g id="node2" class="node"><title>Node2</title>
<polygon fill="none" stroke="#bfbfbf" points="-0.5,-144.5 -0.5,-163.5 50.5,-163.5 50.5,-144.5 -0.5,-144.5"/>
<text text-anchor="middle" x="25" y="-151.5" font-family="Helvetica,sans-Serif" font-size="10.00">uint64_t</text>
</g>
<!-- Node2&#45;&gt;Node1 -->
<g id="edge1" class="edge"><title>Node2&#45;&gt;Node1</title>
<path fill="none" stroke="#9a32cd" stroke-dasharray="5,2" d="M22.5405,-134.2C20.3684,-109.133 20.5531,-64.8188 44,-38 53.7821,-26.8111 68.0706,-20.1884 82.3002,-16.2908"/>
<polygon fill="#9a32cd" stroke="#9a32cd" points="19.0705,-134.666 23.6292,-144.23 26.0296,-133.911 19.0705,-134.666"/>
<text text-anchor="middle" x="62" y="-90.5" font-family="Helvetica,sans-Serif" font-size="10.00"> e_shoff</text>
<text text-anchor="middle" x="62" y="-79.5" font-family="Helvetica,sans-Serif" font-size="10.00">e_entry</text>
<text text-anchor="middle" x="62" y="-68.5" font-family="Helvetica,sans-Serif" font-size="10.00">e_phoff</text>
</g>
<!-- Node3 -->
<g id="node3" class="node"><title>Node3</title>
<polygon fill="none" stroke="#bfbfbf" points="68.5,-144.5 68.5,-163.5 119.5,-163.5 119.5,-144.5 68.5,-144.5"/>
<text text-anchor="middle" x="94" y="-151.5" font-family="Helvetica,sans-Serif" font-size="10.00">uint16_t</text>
</g>
<!-- Node3&#45;&gt;Node1 -->
<g id="edge2" class="edge"><title>Node3&#45;&gt;Node1</title>
<path fill="none" stroke="#9a32cd" stroke-dasharray="5,2" d="M89.3146,-134.476C84.3398,-110.692 79.1695,-68.8167 95,-38 98.9969,-30.2193 106.39,-24.1401 113.523,-19.7367"/>
<polygon fill="#9a32cd" stroke="#9a32cd" points="85.9222,-135.341 91.5794,-144.3 92.7433,-133.769 85.9222,-135.341"/>
<text text-anchor="middle" x="121.5" y="-118" font-family="Helvetica,sans-Serif" font-size="10.00"> e_ehsize</text>
<text text-anchor="middle" x="121.5" y="-107" font-family="Helvetica,sans-Serif" font-size="10.00">e_phnum</text>
<text text-anchor="middle" x="121.5" y="-96" font-family="Helvetica,sans-Serif" font-size="10.00">e_shnum</text>
<text text-anchor="middle" x="121.5" y="-85" font-family="Helvetica,sans-Serif" font-size="10.00">e_shstrndx</text>
<text text-anchor="middle" x="121.5" y="-74" font-family="Helvetica,sans-Serif" font-size="10.00">e_machine</text>
<text text-anchor="middle" x="121.5" y="-63" font-family="Helvetica,sans-Serif" font-size="10.00">e_type</text>
<text text-anchor="middle" x="121.5" y="-52" font-family="Helvetica,sans-Serif" font-size="10.00">e_phentsize</text>
<text text-anchor="middle" x="121.5" y="-41" font-family="Helvetica,sans-Serif" font-size="10.00">e_shentsize</text>
</g>
<!-- Node4 -->
<g id="node4" class="node"><title>Node4</title>
<polygon fill="none" stroke="#bfbfbf" points="152.5,-144.5 152.5,-163.5 187.5,-163.5 187.5,-144.5 152.5,-144.5"/>
<text text-anchor="middle" x="170" y="-151.5" font-family="Helvetica,sans-Serif" font-size="10.00">char</text>
</g>
<!-- Node4&#45;&gt;Node1 -->
<g id="edge3" class="edge"><title>Node4&#45;&gt;Node1</title>
<path fill="none" stroke="#9a32cd" stroke-dasharray="5,2" d="M168.41,-134.174C165.997,-110.942 160.316,-70.5249 148,-38 145.53,-31.4776 141.53,-24.7276 138.148,-19.6082"/>
<polygon fill="#9a32cd" stroke="#9a32cd" points="164.946,-134.729 169.369,-144.357 171.915,-134.072 164.946,-134.729"/>
<text text-anchor="middle" x="184.5" y="-79.5" font-family="Helvetica,sans-Serif" font-size="10.00"> e_ident</text>
</g>
<!-- Node5 -->
<g id="node5" class="node"><title>Node5</title>
<polygon fill="none" stroke="#bfbfbf" points="205.5,-144.5 205.5,-163.5 256.5,-163.5 256.5,-144.5 205.5,-144.5"/>
<text text-anchor="middle" x="231" y="-151.5" font-family="Helvetica,sans-Serif" font-size="10.00">uint32_t</text>
</g>
<!-- Node5&#45;&gt;Node1 -->
<g id="edge4" class="edge"><title>Node5&#45;&gt;Node1</title>
<path fill="none" stroke="#9a32cd" stroke-dasharray="5,2" d="M232.134,-133.943C232.568,-108.911 229.542,-64.9778 206,-38 198.537,-29.4477 188.134,-23.6029 177.483,-19.6089"/>
<polygon fill="#9a32cd" stroke="#9a32cd" points="228.624,-134.144 231.736,-144.272 235.619,-134.414 228.624,-134.144"/>
<text text-anchor="middle" x="253.5" y="-85" font-family="Helvetica,sans-Serif" font-size="10.00"> e_flags</text>
<text text-anchor="middle" x="253.5" y="-74" font-family="Helvetica,sans-Serif" font-size="10.00">e_version</text>
</g>
</g>
</svg>
