<?xml version="1.0" encoding="UTF-8" standalone="no"?>
<!DOCTYPE svg PUBLIC "-//W3C//DTD SVG 1.1//EN"
 "http://www.w3.org/Graphics/SVG/1.1/DTD/svg11.dtd">
<!-- Generated by graphviz version 2.36.0 (20140111.2315)
 -->
<!-- Title: ELFIO::Elf64_Rela Pages: 1 -->
<svg width="131pt" height="106pt"
 viewBox="0.00 0.00 131.00 106.00" xmlns="http://www.w3.org/2000/svg" xmlns:xlink="http://www.w3.org/1999/xlink">
<g id="graph0" class="graph" transform="scale(1 1) rotate(0) translate(4 102)">
<title>ELFIO::Elf64_Rela</title>
<!-- Node1 -->
<g id="node1" class="node"><title>Node1</title>
<polygon fill="#bfbfbf" stroke="black" points="8.5,-0.5 8.5,-19.5 107.5,-19.5 107.5,-0.5 8.5,-0.5"/>
<text text-anchor="middle" x="58" y="-7.5" font-family="Helvetica,sans-Serif" font-size="10.00">ELFIO::Elf64_Rela</text>
</g>
<!-- Node2 -->
<g id="node2" class="node"><title>Node2</title>
<polygon fill="none" stroke="#bfbfbf" points="-0.5,-78.5 -0.5,-97.5 50.5,-97.5 50.5,-78.5 -0.5,-78.5"/>
<text text-anchor="middle" x="25" y="-85.5" font-family="Helvetica,sans-Serif" font-size="10.00">uint64_t</text>
</g>
<!-- Node2&#45;&gt;Node1 -->
<g id="edge1" class="edge"><title>Node2&#45;&gt;Node1</title>
<path fill="none" stroke="#9a32cd" stroke-dasharray="5,2" d="M27.1143,-68.35C28.6914,-58.9073 31.3993,-47.4693 36,-38 39.2766,-31.2561 44.5406,-24.7106 49.098,-19.7536"/>
<polygon fill="#9a32cd" stroke="#9a32cd" points="23.644,-67.8948 25.7367,-78.2809 30.5776,-68.8566 23.644,-67.8948"/>
<text text-anchor="middle" x="53" y="-52" font-family="Helvetica,sans-Serif" font-size="10.00"> r_info</text>
<text text-anchor="middle" x="53" y="-41" font-family="Helvetica,sans-Serif" font-size="10.00">r_offset</text>
</g>
<!-- Node3 -->
<g id="node3" class="node"><title>Node3</title>
<polygon fill="none" stroke="#bfbfbf" points="69,-78.5 69,-97.5 115,-97.5 115,-78.5 69,-78.5"/>
<text text-anchor="middle" x="92" y="-85.5" font-family="Helvetica,sans-Serif" font-size="10.00">int64_t</text>
</g>
<!-- Node3&#45;&gt;Node1 -->
<g id="edge2" class="edge"><title>Node3&#45;&gt;Node1</title>
<path fill="none" stroke="#9a32cd" stroke-dasharray="5,2" d="M84.0018,-69.1216C77.0265,-53.5297 67.2096,-31.5862 61.8547,-19.6165"/>
<polygon fill="#9a32cd" stroke="#9a32cd" points="80.8212,-70.5829 88.0998,-78.2818 87.2109,-67.7243 80.8212,-70.5829"/>
<text text-anchor="middle" x="101.5" y="-46.5" font-family="Helvetica,sans-Serif" font-size="10.00"> r_addend</text>
</g>
</g>
</svg>
