<?xml version="1.0" encoding="UTF-8" standalone="no"?>
<!DOCTYPE svg PUBLIC "-//W3C//DTD SVG 1.1//EN"
 "http://www.w3.org/Graphics/SVG/1.1/DTD/svg11.dtd">
<!-- Generated by graphviz version 2.36.0 (20140111.2315)
 -->
<!-- Title: Voxel::DataPacket::read Pages: 1 -->
<svg width="1406pt" height="321pt"
 viewBox="0.00 0.00 1406.00 321.00" xmlns="http://www.w3.org/2000/svg" xmlns:xlink="http://www.w3.org/1999/xlink">
<g id="graph0" class="graph" transform="scale(1 1) rotate(0) translate(4 317)">
<title>Voxel::DataPacket::read</title>
<!-- Node1 -->
<g id="node1" class="node"><title>Node1</title>
<polygon fill="#bfbfbf" stroke="black" points="0,-180.5 0,-199.5 124,-199.5 124,-180.5 0,-180.5"/>
<text text-anchor="middle" x="62" y="-187.5" font-family="Helvetica,sans-Serif" font-size="10.00">Voxel::DataPacket::read</text>
</g>
<!-- Node2 -->
<g id="node2" class="node"><title>Node2</title>
<g id="a_node2"><a xlink:href="classVoxel_1_1FrameStreamReader.xhtml#a542b1d8bc2419e5a2f63ba9c132e569e" target="_top" xlink:title="Voxel::FrameStreamReader\l::_getPacket">
<polygon fill="none" stroke="black" points="160,-200 160,-230 298,-230 298,-200 160,-200"/>
<text text-anchor="start" x="168" y="-218" font-family="Helvetica,sans-Serif" font-size="10.00">Voxel::FrameStreamReader</text>
<text text-anchor="middle" x="229" y="-207" font-family="Helvetica,sans-Serif" font-size="10.00">::_getPacket</text>
</a>
</g>
</g>
<!-- Node1&#45;&gt;Node2 -->
<g id="edge1" class="edge"><title>Node1&#45;&gt;Node2</title>
<path fill="none" stroke="midnightblue" d="M134.575,-200.845C142.966,-202.116 151.511,-203.411 159.854,-204.675"/>
<polygon fill="midnightblue" stroke="midnightblue" points="134.851,-197.347 124.44,-199.309 133.803,-204.268 134.851,-197.347"/>
</g>
<!-- Node8 -->
<g id="node8" class="node"><title>Node8</title>
<g id="a_node8"><a xlink:href="classVoxel_1_1MainConfigurationFile.xhtml#ab801a8f7e2eabaf3f524877c5c257fa2" target="_top" xlink:title="Voxel::MainConfiguration\lFile::readFromHardware">
<polygon fill="none" stroke="black" points="166,-150 166,-180 292,-180 292,-150 166,-150"/>
<text text-anchor="start" x="174" y="-168" font-family="Helvetica,sans-Serif" font-size="10.00">Voxel::MainConfiguration</text>
<text text-anchor="middle" x="229" y="-157" font-family="Helvetica,sans-Serif" font-size="10.00">File::readFromHardware</text>
</a>
</g>
</g>
<!-- Node1&#45;&gt;Node8 -->
<g id="edge8" class="edge"><title>Node1&#45;&gt;Node8</title>
<path fill="none" stroke="midnightblue" d="M134.413,-179.18C144.916,-177.588 155.664,-175.96 165.959,-174.4"/>
<polygon fill="midnightblue" stroke="midnightblue" points="133.803,-175.732 124.44,-180.691 134.851,-182.653 133.803,-175.732"/>
</g>
<!-- Node3 -->
<g id="node3" class="node"><title>Node3</title>
<g id="a_node3"><a xlink:href="classVoxel_1_1FrameStreamReader.xhtml#a619ea63e8db183e17465fab3fd246f56" target="_top" xlink:title="Voxel::FrameStreamReader\l::_readConfigPacket">
<polygon fill="none" stroke="black" points="334,-244 334,-274 472,-274 472,-244 334,-244"/>
<text text-anchor="start" x="342" y="-262" font-family="Helvetica,sans-Serif" font-size="10.00">Voxel::FrameStreamReader</text>
<text text-anchor="middle" x="403" y="-251" font-family="Helvetica,sans-Serif" font-size="10.00">::_readConfigPacket</text>
</a>
</g>
</g>
<!-- Node2&#45;&gt;Node3 -->
<g id="edge2" class="edge"><title>Node2&#45;&gt;Node3</title>
<path fill="none" stroke="midnightblue" d="M298.777,-232.594C313.511,-236.363 328.948,-240.312 343.261,-243.974"/>
<polygon fill="midnightblue" stroke="midnightblue" points="299.267,-229.107 288.712,-230.019 297.532,-235.888 299.267,-229.107"/>
</g>
<!-- Node4 -->
<g id="node4" class="node"><title>Node4</title>
<g id="a_node4"><a xlink:href="classVoxel_1_1FrameStreamReader.xhtml#ab5d800095472ead3dd70924b32c0e5e8" target="_top" xlink:title="Voxel::FrameStreamReader\l::readNext">
<polygon fill="none" stroke="black" points="508,-244 508,-274 646,-274 646,-244 508,-244"/>
<text text-anchor="start" x="516" y="-262" font-family="Helvetica,sans-Serif" font-size="10.00">Voxel::FrameStreamReader</text>
<text text-anchor="middle" x="577" y="-251" font-family="Helvetica,sans-Serif" font-size="10.00">::readNext</text>
</a>
</g>
</g>
<!-- Node2&#45;&gt;Node4 -->
<g id="edge7" class="edge"><title>Node2&#45;&gt;Node4</title>
<path fill="none" stroke="midnightblue" d="M308.369,-218.021C355.922,-220.63 417.71,-225.398 472,-234 487.865,-236.514 504.883,-240.183 520.462,-243.94"/>
<polygon fill="midnightblue" stroke="midnightblue" points="308.31,-214.513 298.14,-217.481 307.941,-221.503 308.31,-214.513"/>
</g>
<!-- Node3&#45;&gt;Node4 -->
<g id="edge3" class="edge"><title>Node3&#45;&gt;Node4</title>
<path fill="none" stroke="midnightblue" d="M482.637,-259C491.025,-259 499.508,-259 507.762,-259"/>
<polygon fill="midnightblue" stroke="midnightblue" points="482.473,-255.5 472.473,-259 482.473,-262.5 482.473,-255.5"/>
</g>
<!-- Node5 -->
<g id="node5" class="node"><title>Node5</title>
<g id="a_node5"><a xlink:href="CameraSystemReadStreamTest_8cpp.xhtml#a0ddf1224851353fc92bfbff6f499fa97" target="_top" xlink:title="main">
<polygon fill="none" stroke="black" points="732,-293.5 732,-312.5 770,-312.5 770,-293.5 732,-293.5"/>
<text text-anchor="middle" x="751" y="-300.5" font-family="Helvetica,sans-Serif" font-size="10.00">main</text>
</a>
</g>
</g>
<!-- Node4&#45;&gt;Node5 -->
<g id="edge4" class="edge"><title>Node4&#45;&gt;Node5</title>
<path fill="none" stroke="midnightblue" d="M646.615,-276.553C677.522,-284.459 711.555,-293.165 731.833,-298.353"/>
<polygon fill="midnightblue" stroke="midnightblue" points="647.267,-273.107 636.712,-274.019 645.532,-279.888 647.267,-273.107"/>
</g>
<!-- Node6 -->
<g id="node6" class="node"><title>Node6</title>
<g id="a_node6"><a xlink:href="classVoxel_1_1FrameStreamReader.xhtml#abc6eb2a299b0990a73b970d93c4bfed7" target="_top" xlink:title="Voxel::FrameStreamReader\l::_init">
<polygon fill="none" stroke="black" points="682,-244 682,-274 820,-274 820,-244 682,-244"/>
<text text-anchor="start" x="690" y="-262" font-family="Helvetica,sans-Serif" font-size="10.00">Voxel::FrameStreamReader</text>
<text text-anchor="middle" x="751" y="-251" font-family="Helvetica,sans-Serif" font-size="10.00">::_init</text>
</a>
</g>
</g>
<!-- Node4&#45;&gt;Node6 -->
<g id="edge5" class="edge"><title>Node4&#45;&gt;Node6</title>
<path fill="none" stroke="midnightblue" d="M656.637,-259C665.025,-259 673.508,-259 681.762,-259"/>
<polygon fill="midnightblue" stroke="midnightblue" points="656.473,-255.5 646.473,-259 656.473,-262.5 656.473,-255.5"/>
</g>
<!-- Node7 -->
<g id="node7" class="node"><title>Node7</title>
<g id="a_node7"><a xlink:href="classVoxel_1_1FrameStreamReader.xhtml#aa8745d6c03e57217c27da38092800b79" target="_top" xlink:title="Voxel::FrameStreamReader\l::FrameStreamReader">
<polygon fill="none" stroke="black" points="864,-245 864,-275 1002,-275 1002,-245 864,-245"/>
<text text-anchor="start" x="872" y="-263" font-family="Helvetica,sans-Serif" font-size="10.00">Voxel::FrameStreamReader</text>
<text text-anchor="middle" x="933" y="-252" font-family="Helvetica,sans-Serif" font-size="10.00">::FrameStreamReader</text>
</a>
</g>
</g>
<!-- Node6&#45;&gt;Node7 -->
<g id="edge6" class="edge"><title>Node6&#45;&gt;Node7</title>
<path fill="none" stroke="midnightblue" d="M830.24,-259.435C841.434,-259.497 852.875,-259.56 863.853,-259.621"/>
<polygon fill="midnightblue" stroke="midnightblue" points="830.07,-255.934 820.05,-259.378 830.031,-262.934 830.07,-255.934"/>
</g>
<!-- Node9 -->
<g id="node9" class="node"><title>Node9</title>
<g id="a_node9"><a xlink:href="classVoxel_1_1DepthCamera.xhtml#aeca7a6cb1df8643f0b38745286ac2844" target="_top" xlink:title="Voxel::DepthCamera\l::_init">
<polygon fill="none" stroke="black" points="349,-149 349,-179 457,-179 457,-149 349,-149"/>
<text text-anchor="start" x="357" y="-167" font-family="Helvetica,sans-Serif" font-size="10.00">Voxel::DepthCamera</text>
<text text-anchor="middle" x="403" y="-156" font-family="Helvetica,sans-Serif" font-size="10.00">::_init</text>
</a>
</g>
</g>
<!-- Node8&#45;&gt;Node9 -->
<g id="edge9" class="edge"><title>Node8&#45;&gt;Node9</title>
<path fill="none" stroke="midnightblue" d="M302.241,-164.58C317.85,-164.489 334.079,-164.395 348.8,-164.309"/>
<polygon fill="midnightblue" stroke="midnightblue" points="302.075,-161.081 292.096,-164.639 302.116,-168.081 302.075,-161.081"/>
</g>
<!-- Node10 -->
<g id="node10" class="node"><title>Node10</title>
<g id="a_node10"><a xlink:href="classVoxel_1_1TI_1_1ToFCameraBase.xhtml#a34c90601da611e5cb61bd7a35f03a5f7" target="_top" xlink:title="Voxel::TI::ToFCameraBase\l::_init">
<polygon fill="none" stroke="black" points="508.5,-147 508.5,-177 645.5,-177 645.5,-147 508.5,-147"/>
<text text-anchor="start" x="516.5" y="-165" font-family="Helvetica,sans-Serif" font-size="10.00">Voxel::TI::ToFCameraBase</text>
<text text-anchor="middle" x="577" y="-154" font-family="Helvetica,sans-Serif" font-size="10.00">::_init</text>
</a>
</g>
</g>
<!-- Node9&#45;&gt;Node10 -->
<g id="edge10" class="edge"><title>Node9&#45;&gt;Node10</title>
<path fill="none" stroke="midnightblue" d="M467.077,-163.267C480.479,-163.111 494.681,-162.946 508.249,-162.788"/>
<polygon fill="midnightblue" stroke="midnightblue" points="466.968,-159.767 457.009,-163.384 467.049,-166.767 466.968,-159.767"/>
</g>
<!-- Node11 -->
<g id="node11" class="node"><title>Node11</title>
<g id="a_node11"><a xlink:href="classVoxel_1_1TI_1_1ToFCamera.xhtml#a8fd9aae6546d426f494b20633a881442" target="_top" xlink:title="Voxel::TI::ToFCamera\l::_init">
<polygon fill="none" stroke="black" points="694,-147 694,-177 808,-177 808,-147 694,-147"/>
<text text-anchor="start" x="702" y="-165" font-family="Helvetica,sans-Serif" font-size="10.00">Voxel::TI::ToFCamera</text>
<text text-anchor="middle" x="751" y="-154" font-family="Helvetica,sans-Serif" font-size="10.00">::_init</text>
</a>
</g>
</g>
<!-- Node10&#45;&gt;Node11 -->
<g id="edge11" class="edge"><title>Node10&#45;&gt;Node11</title>
<path fill="none" stroke="midnightblue" d="M656.114,-162C668.841,-162 681.799,-162 693.863,-162"/>
<polygon fill="midnightblue" stroke="midnightblue" points="655.979,-158.5 645.979,-162 655.979,-165.5 655.979,-158.5"/>
</g>
<!-- Node12 -->
<g id="node12" class="node"><title>Node12</title>
<g id="a_node12"><a xlink:href="classVoxel_1_1TI_1_1ToFCalculusCamera.xhtml#aa931ad7b5e4b84779df941814c2a5b17" target="_top" xlink:title="Voxel::TI::ToFCalculusCamera\l::_init">
<polygon fill="none" stroke="black" points="857,-196 857,-226 1009,-226 1009,-196 857,-196"/>
<text text-anchor="start" x="865" y="-214" font-family="Helvetica,sans-Serif" font-size="10.00">Voxel::TI::ToFCalculusCamera</text>
<text text-anchor="middle" x="933" y="-203" font-family="Helvetica,sans-Serif" font-size="10.00">::_init</text>
</a>
</g>
</g>
<!-- Node11&#45;&gt;Node12 -->
<g id="edge12" class="edge"><title>Node11&#45;&gt;Node12</title>
<path fill="none" stroke="midnightblue" d="M817.198,-179.748C836.707,-185.059 857.902,-190.829 876.708,-195.948"/>
<polygon fill="midnightblue" stroke="midnightblue" points="818.043,-176.351 807.475,-177.101 816.204,-183.105 818.043,-176.351"/>
</g>
<!-- Node15 -->
<g id="node15" class="node"><title>Node15</title>
<g id="a_node15"><a xlink:href="classVoxel_1_1TI_1_1ToFHaddockCamera.xhtml#a749a2bbcdbfa69054d523866504743d1" target="_top" xlink:title="Voxel::TI::ToFHaddockCamera\l::_init">
<polygon fill="none" stroke="black" points="856.5,-147 856.5,-177 1009.5,-177 1009.5,-147 856.5,-147"/>
<text text-anchor="start" x="864.5" y="-165" font-family="Helvetica,sans-Serif" font-size="10.00">Voxel::TI::ToFHaddockCamera</text>
<text text-anchor="middle" x="933" y="-154" font-family="Helvetica,sans-Serif" font-size="10.00">::_init</text>
</a>
</g>
</g>
<!-- Node11&#45;&gt;Node15 -->
<g id="edge15" class="edge"><title>Node11&#45;&gt;Node15</title>
<path fill="none" stroke="midnightblue" d="M818.596,-162C830.864,-162 843.756,-162 856.27,-162"/>
<polygon fill="midnightblue" stroke="midnightblue" points="818.459,-158.5 808.459,-162 818.459,-165.5 818.459,-158.5"/>
</g>
<!-- Node22 -->
<g id="node22" class="node"><title>Node22</title>
<g id="a_node22"><a xlink:href="classVoxel_1_1TI_1_1ToFTintinCamera.xhtml#af894a732f4beedc37144927eec93cc89" target="_top" xlink:title="Voxel::TI::ToFTintinCamera\l::_init">
<polygon fill="none" stroke="black" points="864,-49 864,-79 1002,-79 1002,-49 864,-49"/>
<text text-anchor="start" x="872" y="-67" font-family="Helvetica,sans-Serif" font-size="10.00">Voxel::TI::ToFTintinCamera</text>
<text text-anchor="middle" x="933" y="-56" font-family="Helvetica,sans-Serif" font-size="10.00">::_init</text>
</a>
</g>
</g>
<!-- Node11&#45;&gt;Node22 -->
<g id="edge22" class="edge"><title>Node11&#45;&gt;Node22</title>
<path fill="none" stroke="midnightblue" d="M788.932,-141.893C823.156,-123.26 873.306,-95.9554 904.238,-79.1149"/>
<polygon fill="midnightblue" stroke="midnightblue" points="786.84,-139.047 779.731,-146.902 790.187,-145.194 786.84,-139.047"/>
</g>
<!-- Node13 -->
<g id="node13" class="node"><title>Node13</title>
<g id="a_node13"><a xlink:href="classVoxel_1_1TI_1_1CalculusCDKCamera.xhtml#a82eb752fb0d4b63495d2e29b6b8aed2c" target="_top" xlink:title="Voxel::TI::CalculusCDKCamera\l::_init">
<polygon fill="none" stroke="black" points="1046.5,-245 1046.5,-275 1203.5,-275 1203.5,-245 1046.5,-245"/>
<text text-anchor="start" x="1054.5" y="-263" font-family="Helvetica,sans-Serif" font-size="10.00">Voxel::TI::CalculusCDKCamera</text>
<text text-anchor="middle" x="1125" y="-252" font-family="Helvetica,sans-Serif" font-size="10.00">::_init</text>
</a>
</g>
</g>
<!-- Node12&#45;&gt;Node13 -->
<g id="edge13" class="edge"><title>Node12&#45;&gt;Node13</title>
<path fill="none" stroke="midnightblue" d="M1002.05,-228.55C1022.91,-233.931 1045.67,-239.799 1065.81,-244.994"/>
<polygon fill="midnightblue" stroke="midnightblue" points="1002.85,-225.143 992.297,-226.035 1001.11,-231.921 1002.85,-225.143"/>
</g>
<!-- Node14 -->
<g id="node14" class="node"><title>Node14</title>
<g id="a_node14"><a xlink:href="classVoxel_1_1TI_1_1CalculusCDKCamera.xhtml#af406b1427962d80da9af9fb24e89b239" target="_top" xlink:title="Voxel::TI::CalculusCDKCamera\l::CalculusCDKCamera">
<polygon fill="none" stroke="black" points="1240.5,-245 1240.5,-275 1397.5,-275 1397.5,-245 1240.5,-245"/>
<text text-anchor="start" x="1248.5" y="-263" font-family="Helvetica,sans-Serif" font-size="10.00">Voxel::TI::CalculusCDKCamera</text>
<text text-anchor="middle" x="1319" y="-252" font-family="Helvetica,sans-Serif" font-size="10.00">::CalculusCDKCamera</text>
</a>
</g>
</g>
<!-- Node13&#45;&gt;Node14 -->
<g id="edge14" class="edge"><title>Node13&#45;&gt;Node14</title>
<path fill="none" stroke="midnightblue" d="M1213.6,-260C1222.57,-260 1231.64,-260 1240.48,-260"/>
<polygon fill="midnightblue" stroke="midnightblue" points="1213.54,-256.5 1203.54,-260 1213.54,-263.5 1213.54,-256.5"/>
</g>
<!-- Node16 -->
<g id="node16" class="node"><title>Node16</title>
<g id="a_node16"><a xlink:href="classVoxel_1_1TI_1_1HaddockCDKCamera.xhtml#a7dff103da3145dd303a5bc0db75ae961" target="_top" xlink:title="Voxel::TI::HaddockCDKCamera\l::_init">
<polygon fill="none" stroke="black" points="1046,-196 1046,-226 1204,-226 1204,-196 1046,-196"/>
<text text-anchor="start" x="1054" y="-214" font-family="Helvetica,sans-Serif" font-size="10.00">Voxel::TI::HaddockCDKCamera</text>
<text text-anchor="middle" x="1125" y="-203" font-family="Helvetica,sans-Serif" font-size="10.00">::_init</text>
</a>
</g>
</g>
<!-- Node15&#45;&gt;Node16 -->
<g id="edge16" class="edge"><title>Node15&#45;&gt;Node16</title>
<path fill="none" stroke="midnightblue" d="M1002.05,-179.55C1022.91,-184.931 1045.67,-190.799 1065.81,-195.994"/>
<polygon fill="midnightblue" stroke="midnightblue" points="1002.85,-176.143 992.297,-177.035 1001.11,-182.921 1002.85,-176.143"/>
</g>
<!-- Node18 -->
<g id="node18" class="node"><title>Node18</title>
<g id="a_node18"><a xlink:href="classVoxel_1_1TI_1_1RTS5825Camera.xhtml#af7d33e164feac1c63726d2757227c3bc" target="_top" xlink:title="Voxel::TI::RTS5825Camera\l::_init">
<polygon fill="none" stroke="black" points="1056,-147 1056,-177 1194,-177 1194,-147 1056,-147"/>
<text text-anchor="start" x="1064" y="-165" font-family="Helvetica,sans-Serif" font-size="10.00">Voxel::TI::RTS5825Camera</text>
<text text-anchor="middle" x="1125" y="-154" font-family="Helvetica,sans-Serif" font-size="10.00">::_init</text>
</a>
</g>
</g>
<!-- Node15&#45;&gt;Node18 -->
<g id="edge18" class="edge"><title>Node15&#45;&gt;Node18</title>
<path fill="none" stroke="midnightblue" d="M1019.7,-162C1031.76,-162 1044.02,-162 1055.7,-162"/>
<polygon fill="midnightblue" stroke="midnightblue" points="1019.64,-158.5 1009.64,-162 1019.64,-165.5 1019.64,-158.5"/>
</g>
<!-- Node20 -->
<g id="node20" class="node"><title>Node20</title>
<g id="a_node20"><a xlink:href="classVoxel_1_1TI_1_1Voxel14Camera.xhtml#a89011bfb795ff58d3fb8675364b91abe" target="_top" xlink:title="Voxel::TI::Voxel14Camera\l::_init">
<polygon fill="none" stroke="black" points="1059,-98 1059,-128 1191,-128 1191,-98 1059,-98"/>
<text text-anchor="start" x="1067" y="-116" font-family="Helvetica,sans-Serif" font-size="10.00">Voxel::TI::Voxel14Camera</text>
<text text-anchor="middle" x="1125" y="-105" font-family="Helvetica,sans-Serif" font-size="10.00">::_init</text>
</a>
</g>
</g>
<!-- Node15&#45;&gt;Node20 -->
<g id="edge20" class="edge"><title>Node15&#45;&gt;Node20</title>
<path fill="none" stroke="midnightblue" d="M1002.05,-144.45C1022.91,-139.069 1045.67,-133.201 1065.81,-128.006"/>
<polygon fill="midnightblue" stroke="midnightblue" points="1001.11,-141.079 992.297,-146.965 1002.85,-147.857 1001.11,-141.079"/>
</g>
<!-- Node17 -->
<g id="node17" class="node"><title>Node17</title>
<g id="a_node17"><a xlink:href="classVoxel_1_1TI_1_1HaddockCDKCamera.xhtml#ac2c5e82486c4cc3f5edada38cd4274c5" target="_top" xlink:title="Voxel::TI::HaddockCDKCamera\l::HaddockCDKCamera">
<polygon fill="none" stroke="black" points="1240,-196 1240,-226 1398,-226 1398,-196 1240,-196"/>
<text text-anchor="start" x="1248" y="-214" font-family="Helvetica,sans-Serif" font-size="10.00">Voxel::TI::HaddockCDKCamera</text>
<text text-anchor="middle" x="1319" y="-203" font-family="Helvetica,sans-Serif" font-size="10.00">::HaddockCDKCamera</text>
</a>
</g>
</g>
<!-- Node16&#45;&gt;Node17 -->
<g id="edge17" class="edge"><title>Node16&#45;&gt;Node17</title>
<path fill="none" stroke="midnightblue" d="M1214.15,-211C1222.77,-211 1231.47,-211 1239.98,-211"/>
<polygon fill="midnightblue" stroke="midnightblue" points="1214.09,-207.5 1204.09,-211 1214.09,-214.5 1214.09,-207.5"/>
</g>
<!-- Node19 -->
<g id="node19" class="node"><title>Node19</title>
<g id="a_node19"><a xlink:href="classVoxel_1_1TI_1_1RTS5825Camera.xhtml#a7a242f28e79a95d9a918946beb0b0461" target="_top" xlink:title="Voxel::TI::RTS5825Camera\l::RTS5825Camera">
<polygon fill="none" stroke="black" points="1250,-147 1250,-177 1388,-177 1388,-147 1250,-147"/>
<text text-anchor="start" x="1258" y="-165" font-family="Helvetica,sans-Serif" font-size="10.00">Voxel::TI::RTS5825Camera</text>
<text text-anchor="middle" x="1319" y="-154" font-family="Helvetica,sans-Serif" font-size="10.00">::RTS5825Camera</text>
</a>
</g>
</g>
<!-- Node18&#45;&gt;Node19 -->
<g id="edge19" class="edge"><title>Node18&#45;&gt;Node19</title>
<path fill="none" stroke="midnightblue" d="M1204.55,-162C1219.62,-162 1235.28,-162 1249.99,-162"/>
<polygon fill="midnightblue" stroke="midnightblue" points="1204.23,-158.5 1194.23,-162 1204.23,-165.5 1204.23,-158.5"/>
</g>
<!-- Node21 -->
<g id="node21" class="node"><title>Node21</title>
<g id="a_node21"><a xlink:href="classVoxel_1_1TI_1_1Voxel14Camera.xhtml#a606f13ed73547ee43f585e241b42dd5d" target="_top" xlink:title="Voxel::TI::Voxel14Camera\l::Voxel14Camera">
<polygon fill="none" stroke="black" points="1253,-98 1253,-128 1385,-128 1385,-98 1253,-98"/>
<text text-anchor="start" x="1261" y="-116" font-family="Helvetica,sans-Serif" font-size="10.00">Voxel::TI::Voxel14Camera</text>
<text text-anchor="middle" x="1319" y="-105" font-family="Helvetica,sans-Serif" font-size="10.00">::Voxel14Camera</text>
</a>
</g>
</g>
<!-- Node20&#45;&gt;Node21 -->
<g id="edge21" class="edge"><title>Node20&#45;&gt;Node21</title>
<path fill="none" stroke="midnightblue" d="M1201.42,-113C1218.38,-113 1236.24,-113 1252.74,-113"/>
<polygon fill="midnightblue" stroke="midnightblue" points="1201,-109.5 1191,-113 1201,-116.5 1201,-109.5"/>
</g>
<!-- Node23 -->
<g id="node23" class="node"><title>Node23</title>
<g id="a_node23"><a xlink:href="classVoxel_1_1TI_1_1TintinCDKCamera.xhtml#af5337f40c1a075c026263ea9871a20ee" target="_top" xlink:title="Voxel::TI::TintinCDKCamera\l::_init">
<polygon fill="none" stroke="black" points="1053.5,-49 1053.5,-79 1196.5,-79 1196.5,-49 1053.5,-49"/>
<text text-anchor="start" x="1061.5" y="-67" font-family="Helvetica,sans-Serif" font-size="10.00">Voxel::TI::TintinCDKCamera</text>
<text text-anchor="middle" x="1125" y="-56" font-family="Helvetica,sans-Serif" font-size="10.00">::_init</text>
</a>
</g>
</g>
<!-- Node22&#45;&gt;Node23 -->
<g id="edge23" class="edge"><title>Node22&#45;&gt;Node23</title>
<path fill="none" stroke="midnightblue" d="M1012.31,-64C1025.86,-64 1039.88,-64 1053.21,-64"/>
<polygon fill="midnightblue" stroke="midnightblue" points="1012.06,-60.5001 1002.06,-64 1012.06,-67.5001 1012.06,-60.5001"/>
</g>
<!-- Node25 -->
<g id="node25" class="node"><title>Node25</title>
<g id="a_node25"><a xlink:href="classVoxel_1_1TI_1_1VoxelDCamera.xhtml#a47b15c40c3fbcc52ae1eb3c9fe74d9f1" target="_top" xlink:title="Voxel::TI::VoxelDCamera\l::_init">
<polygon fill="none" stroke="black" points="1060.5,-0 1060.5,-30 1189.5,-30 1189.5,-0 1060.5,-0"/>
<text text-anchor="start" x="1068.5" y="-18" font-family="Helvetica,sans-Serif" font-size="10.00">Voxel::TI::VoxelDCamera</text>
<text text-anchor="middle" x="1125" y="-7" font-family="Helvetica,sans-Serif" font-size="10.00">::_init</text>
</a>
</g>
</g>
<!-- Node22&#45;&gt;Node25 -->
<g id="edge25" class="edge"><title>Node22&#45;&gt;Node25</title>
<path fill="none" stroke="midnightblue" d="M1002.05,-46.4502C1022.91,-41.0694 1045.67,-35.201 1065.81,-30.0062"/>
<polygon fill="midnightblue" stroke="midnightblue" points="1001.11,-43.079 992.297,-48.9654 1002.85,-49.8572 1001.11,-43.079"/>
</g>
<!-- Node24 -->
<g id="node24" class="node"><title>Node24</title>
<g id="a_node24"><a xlink:href="classVoxel_1_1TI_1_1TintinCDKCamera.xhtml#a7a9918bb8b6d76bc3511536019847c1d" target="_top" xlink:title="Voxel::TI::TintinCDKCamera\l::TintinCDKCamera">
<polygon fill="none" stroke="black" points="1247.5,-49 1247.5,-79 1390.5,-79 1390.5,-49 1247.5,-49"/>
<text text-anchor="start" x="1255.5" y="-67" font-family="Helvetica,sans-Serif" font-size="10.00">Voxel::TI::TintinCDKCamera</text>
<text text-anchor="middle" x="1319" y="-56" font-family="Helvetica,sans-Serif" font-size="10.00">::TintinCDKCamera</text>
</a>
</g>
</g>
<!-- Node23&#45;&gt;Node24 -->
<g id="edge24" class="edge"><title>Node23&#45;&gt;Node24</title>
<path fill="none" stroke="midnightblue" d="M1206.89,-64C1220.38,-64 1234.27,-64 1247.47,-64"/>
<polygon fill="midnightblue" stroke="midnightblue" points="1206.68,-60.5001 1196.68,-64 1206.68,-67.5001 1206.68,-60.5001"/>
</g>
<!-- Node26 -->
<g id="node26" class="node"><title>Node26</title>
<g id="a_node26"><a xlink:href="classVoxel_1_1TI_1_1VoxelDCamera.xhtml#a4a95cf8257e2f9f5fd34386b87f6663a" target="_top" xlink:title="Voxel::TI::VoxelDCamera\l::VoxelDCamera">
<polygon fill="none" stroke="black" points="1254.5,-0 1254.5,-30 1383.5,-30 1383.5,-0 1254.5,-0"/>
<text text-anchor="start" x="1262.5" y="-18" font-family="Helvetica,sans-Serif" font-size="10.00">Voxel::TI::VoxelDCamera</text>
<text text-anchor="middle" x="1319" y="-7" font-family="Helvetica,sans-Serif" font-size="10.00">::VoxelDCamera</text>
</a>
</g>
</g>
<!-- Node25&#45;&gt;Node26 -->
<g id="edge26" class="edge"><title>Node25&#45;&gt;Node26</title>
<path fill="none" stroke="midnightblue" d="M1199.79,-15C1217.72,-15 1236.75,-15 1254.18,-15"/>
<polygon fill="midnightblue" stroke="midnightblue" points="1199.67,-11.5001 1189.67,-15 1199.67,-18.5001 1199.67,-11.5001"/>
</g>
</g>
</svg>
