<?xml version="1.0" encoding="UTF-8" standalone="no"?>
<!DOCTYPE svg PUBLIC "-//W3C//DTD SVG 1.1//EN"
 "http://www.w3.org/Graphics/SVG/1.1/DTD/svg11.dtd">
<!-- Generated by graphviz version 2.36.0 (20140111.2315)
 -->
<!-- Title: Voxel::DataPacket::write Pages: 1 -->
<!--zoomable 234 -->
<svg id="main" version="1.1" xmlns="http://www.w3.org/2000/svg" xmlns:xlink="http://www.w3.org/1999/xlink" xml:space="preserve" onload="init(evt)">
<style type="text/css"><![CDATA[
.edge:hover path { stroke: red; }
.edge:hover polygon { stroke: red; fill: red; }
]]></style>
<script type="text/javascript"><![CDATA[
var edges = document.getElementsByTagName('g');
if (edges && edges.length) {
  for (var i=0;i<edges.length;i++) {
    if (edges[i].id.substr(0,4)=='edge') {
      edges[i].setAttribute('class','edge');
    }
  }
}
]]></script>
        <defs>
                <circle id="rim" cx="0" cy="0" r="7"/>
                <circle id="rim2" cx="0" cy="0" r="3.5"/>
                <g id="zoomPlus">
                        <use xlink:href="#rim" fill="#404040">
                                <set attributeName="fill" to="#808080" begin="zoomplus.mouseover" end="zoomplus.mouseout"/>
                        </use>
                        <path d="M-4,0h8M0,-4v8" fill="none" stroke="white" stroke-width="1.5" pointer-events="none"/>
                </g>
                <g id="zoomMin">
                        <use xlink:href="#rim" fill="#404040">
                                <set attributeName="fill" to="#808080" begin="zoomminus.mouseover" end="zoomminus.mouseout"/>
                        </use>
                        <path d="M-4,0h8" fill="none" stroke="white" stroke-width="1.5" pointer-events="none"/>
                </g>
                <g id="dirArrow">
                        <path fill="none" stroke="white" stroke-width="1.5" d="M0,-3.0v7 M-2.5,-0.5L0,-3.0L2.5,-0.5"/>
                </g>
               <g id="resetDef">
                       <use xlink:href="#rim2" fill="#404040">
                               <set attributeName="fill" to="#808080" begin="reset.mouseover" end="reset.mouseout"/>
                       </use>
               </g>
        </defs>

<script type="text/javascript">
var viewWidth = 830;
var viewHeight = 234;
var sectionId = 'dynsection-9';
</script>
<script xlink:href="svgpan.js"/>
<svg id="graph" class="graph">
<g id="viewport">
<title>Voxel::DataPacket::write</title>
<!-- Node1 -->
<g id="node1" class="node"><title>Node1</title>
<polygon fill="#bfbfbf" stroke="black" points="0.5,-122 0.5,-152 105.5,-152 105.5,-122 0.5,-122"/>
<text text-anchor="start" x="8.5" y="-140" font-family="Helvetica,sans-Serif" font-size="10.00">Voxel::DataPacket::</text>
<text text-anchor="middle" x="53" y="-129" font-family="Helvetica,sans-Serif" font-size="10.00">write</text>
</g>
<!-- Node2 -->
<g id="node2" class="node"><title>Node2</title>
<g id="a_node2"><a xlink:href="classVoxel_1_1ConfigurationFile.xhtml#af287fca359e91eb1f3a2db4986a221e8" target="_top" xlink:title="Voxel::ConfigurationFile\l::_serializeAllDataFiles">
<polygon fill="none" stroke="black" points="153.5,-196 153.5,-226 274.5,-226 274.5,-196 153.5,-196"/>
<text text-anchor="start" x="161.5" y="-214" font-family="Helvetica,sans-Serif" font-size="10.00">Voxel::ConfigurationFile</text>
<text text-anchor="middle" x="214" y="-203" font-family="Helvetica,sans-Serif" font-size="10.00">::_serializeAllDataFiles</text>
</a>
</g>
</g>
<!-- Node1&#45;&gt;Node2 -->
<g id="edge1" class="edge"><title>Node1&#45;&gt;Node2</title>
<path fill="none" stroke="midnightblue" d="M87.4948,-157.412C103.637,-166.789 123.475,-177.654 142,-186 149.864,-189.543 158.392,-192.921 166.719,-195.983"/>
<polygon fill="midnightblue" stroke="midnightblue" points="88.849,-154.148 78.4554,-152.093 85.299,-160.181 88.849,-154.148"/>
</g>
<!-- Node3 -->
<g id="node3" class="node"><title>Node3</title>
<g id="a_node3"><a xlink:href="classVoxel_1_1FrameStreamWriter.xhtml#ae6545923dae5dfbde2dc3a24518b6e1e" target="_top" xlink:title="Voxel::FrameStreamWriter\l::write">
<polygon fill="none" stroke="black" points="147.5,-147 147.5,-177 280.5,-177 280.5,-147 147.5,-147"/>
<text text-anchor="start" x="155.5" y="-165" font-family="Helvetica,sans-Serif" font-size="10.00">Voxel::FrameStreamWriter</text>
<text text-anchor="middle" x="214" y="-154" font-family="Helvetica,sans-Serif" font-size="10.00">::write</text>
</a>
</g>
</g>
<!-- Node1&#45;&gt;Node3 -->
<g id="edge2" class="edge"><title>Node1&#45;&gt;Node3</title>
<path fill="none" stroke="midnightblue" d="M115.817,-146.72C126.179,-148.349 136.964,-150.045 147.417,-151.688"/>
<polygon fill="midnightblue" stroke="midnightblue" points="116.045,-143.213 105.623,-145.117 114.958,-150.128 116.045,-143.213"/>
</g>
<!-- Node4 -->
<g id="node4" class="node"><title>Node4</title>
<g id="a_node4"><a xlink:href="classVoxel_1_1FrameStreamWriter.xhtml#a412f87307f69dfc0dce00bc5cd97bd12" target="_top" xlink:title="Voxel::FrameStreamWriter\l::writeGeneratorConfiguration">
<polygon fill="none" stroke="black" points="142,-98 142,-128 286,-128 286,-98 142,-98"/>
<text text-anchor="start" x="150" y="-116" font-family="Helvetica,sans-Serif" font-size="10.00">Voxel::FrameStreamWriter</text>
<text text-anchor="middle" x="214" y="-105" font-family="Helvetica,sans-Serif" font-size="10.00">::writeGeneratorConfiguration</text>
</a>
</g>
</g>
<!-- Node1&#45;&gt;Node4 -->
<g id="edge3" class="edge"><title>Node1&#45;&gt;Node4</title>
<path fill="none" stroke="midnightblue" d="M115.605,-127.701C124.247,-126.397 133.187,-125.047 141.987,-123.719"/>
<polygon fill="midnightblue" stroke="midnightblue" points="114.988,-124.254 105.623,-129.208 116.033,-131.176 114.988,-124.254"/>
</g>
<!-- Node5 -->
<g id="node5" class="node"><title>Node5</title>
<g id="a_node5"><a xlink:href="classVoxel_1_1MainConfigurationFile.xhtml#a65f9abd83851d372ef62958de4774415" target="_top" xlink:title="Voxel::MainConfiguration\lFile::writeToHardware">
<polygon fill="none" stroke="black" points="151,-49 151,-79 277,-79 277,-49 151,-49"/>
<text text-anchor="start" x="159" y="-67" font-family="Helvetica,sans-Serif" font-size="10.00">Voxel::MainConfiguration</text>
<text text-anchor="middle" x="214" y="-56" font-family="Helvetica,sans-Serif" font-size="10.00">File::writeToHardware</text>
</a>
</g>
</g>
<!-- Node1&#45;&gt;Node5 -->
<g id="edge4" class="edge"><title>Node1&#45;&gt;Node5</title>
<path fill="none" stroke="midnightblue" d="M88.2416,-116.652C104.265,-107.567 123.793,-97.1077 142,-89 149.879,-85.4913 158.415,-82.1301 166.745,-79.0736"/>
<polygon fill="midnightblue" stroke="midnightblue" points="86.179,-113.801 79.2485,-121.814 89.6637,-119.872 86.179,-113.801"/>
</g>
<!-- Node6 -->
<g id="node6" class="node"><title>Node6</title>
<g id="a_node6"><a xlink:href="classVoxel_1_1MainConfigurationFile.xhtml#a4abe1141d3c441fc54cd870e09a22b2c" target="_top" xlink:title="Voxel::MainConfiguration\lFile::removeCameraProfile">
<polygon fill="none" stroke="black" points="534.5,-46 534.5,-76 667.5,-76 667.5,-46 534.5,-46"/>
<text text-anchor="start" x="542.5" y="-64" font-family="Helvetica,sans-Serif" font-size="10.00">Voxel::MainConfiguration</text>
<text text-anchor="middle" x="601" y="-53" font-family="Helvetica,sans-Serif" font-size="10.00">File::removeCameraProfile</text>
</a>
</g>
</g>
<!-- Node5&#45;&gt;Node6 -->
<g id="edge5" class="edge"><title>Node5&#45;&gt;Node6</title>
<path fill="none" stroke="midnightblue" d="M281.326,-81.2594C294.702,-84.0647 308.731,-86.5301 322,-88 399.747,-96.6123 420.432,-98.0926 498,-88 516.438,-85.601 536.289,-80.86 553.535,-76.0112"/>
<polygon fill="midnightblue" stroke="midnightblue" points="281.765,-77.7727 271.248,-79.0588 280.271,-84.6115 281.765,-77.7727"/>
</g>
<!-- Node8 -->
<g id="node8" class="node"><title>Node8</title>
<g id="a_node8"><a xlink:href="classVoxel_1_1MainConfigurationFile.xhtml#ae8ce6b155ffff0c4f33e1d7acfc01290" target="_top" xlink:title="Voxel::MainConfiguration\lFile::saveCameraProfileToHardware">
<polygon fill="none" stroke="black" points="322.5,-49 322.5,-79 497.5,-79 497.5,-49 322.5,-49"/>
<text text-anchor="start" x="330.5" y="-67" font-family="Helvetica,sans-Serif" font-size="10.00">Voxel::MainConfiguration</text>
<text text-anchor="middle" x="410" y="-56" font-family="Helvetica,sans-Serif" font-size="10.00">File::saveCameraProfileToHardware</text>
</a>
</g>
</g>
<!-- Node5&#45;&gt;Node8 -->
<g id="edge7" class="edge"><title>Node5&#45;&gt;Node8</title>
<path fill="none" stroke="midnightblue" d="M287.489,-64C298.879,-64 310.753,-64 322.422,-64"/>
<polygon fill="midnightblue" stroke="midnightblue" points="287.183,-60.5001 277.183,-64 287.183,-67.5001 287.183,-60.5001"/>
</g>
<!-- Node9 -->
<g id="node9" class="node"><title>Node9</title>
<g id="a_node9"><a xlink:href="classVoxel_1_1MainConfigurationFile.xhtml#ad0ea67099cfd8a8e869b46b833e19800" target="_top" xlink:title="Voxel::MainConfiguration\lFile::setDefaultCameraProfile">
<polygon fill="none" stroke="black" points="337,-0 337,-30 483,-30 483,-0 337,-0"/>
<text text-anchor="start" x="345" y="-18" font-family="Helvetica,sans-Serif" font-size="10.00">Voxel::MainConfiguration</text>
<text text-anchor="middle" x="410" y="-7" font-family="Helvetica,sans-Serif" font-size="10.00">File::setDefaultCameraProfile</text>
</a>
</g>
</g>
<!-- Node5&#45;&gt;Node9 -->
<g id="edge8" class="edge"><title>Node5&#45;&gt;Node9</title>
<path fill="none" stroke="midnightblue" d="M284.483,-46.4502C305.787,-41.0694 329.021,-35.201 349.588,-30.0062"/>
<polygon fill="midnightblue" stroke="midnightblue" points="283.363,-43.123 274.525,-48.9654 285.077,-49.9099 283.363,-43.123"/>
</g>
<!-- Node7 -->
<g id="node7" class="node"><title>Node7</title>
<g id="a_node7"><a xlink:href="classVoxel_1_1DepthCamera.xhtml#a51bc1371938f78ddc18af0b36850545c" target="_top" xlink:title="Voxel::DepthCamera\l::removeCameraProfile">
<polygon fill="none" stroke="black" points="704.5,-46 704.5,-76 821.5,-76 821.5,-46 704.5,-46"/>
<text text-anchor="start" x="712.5" y="-64" font-family="Helvetica,sans-Serif" font-size="10.00">Voxel::DepthCamera</text>
<text text-anchor="middle" x="763" y="-53" font-family="Helvetica,sans-Serif" font-size="10.00">::removeCameraProfile</text>
</a>
</g>
</g>
<!-- Node6&#45;&gt;Node7 -->
<g id="edge6" class="edge"><title>Node6&#45;&gt;Node7</title>
<path fill="none" stroke="midnightblue" d="M677.601,-61C686.562,-61 695.596,-61 704.253,-61"/>
<polygon fill="midnightblue" stroke="midnightblue" points="677.54,-57.5001 667.54,-61 677.54,-64.5001 677.54,-57.5001"/>
</g>
<!-- Node9&#45;&gt;Node6 -->
<g id="edge9" class="edge"><title>Node9&#45;&gt;Node6</title>
<path fill="none" stroke="midnightblue" d="M482.633,-32.4345C500.964,-36.8959 520.515,-41.6546 538.298,-45.9826"/>
<polygon fill="midnightblue" stroke="midnightblue" points="483.43,-29.0263 472.886,-30.0621 481.774,-35.8278 483.43,-29.0263"/>
</g>
</g>
</svg>
        <g id="navigator" transform="translate(0 0)" fill="#404254">
                <rect fill="#f2f5e9" fill-opacity="0.5" stroke="#606060" stroke-width=".5" x="0" y="0" width="60" height="60"/>
                <use id="zoomplus" xlink:href="#zoomPlus" x="17" y="9" onmousedown="handleZoom(evt,'in')"/>
                <use id="zoomminus" xlink:href="#zoomMin" x="42" y="9" onmousedown="handleZoom(evt,'out')"/>
                <use id="reset" xlink:href="#resetDef" x="30" y="36" onmousedown="handleReset()"/>
                <g id="arrowUp" xlink:href="#dirArrow" transform="translate(30 24)" onmousedown="handlePan(0,-1)">
                  <use xlink:href="#rim" fill="#404040">
                        <set attributeName="fill" to="#808080" begin="arrowUp.mouseover" end="arrowUp.mouseout"/>
                  </use>
                  <path fill="none" stroke="white" stroke-width="1.5" d="M0,-3.0v7 M-2.5,-0.5L0,-3.0L2.5,-0.5"/>
                </g>
                <g id="arrowRight" xlink:href="#dirArrow" transform="rotate(90) translate(36 -43)" onmousedown="handlePan(1,0)">
                  <use xlink:href="#rim" fill="#404040">
                        <set attributeName="fill" to="#808080" begin="arrowRight.mouseover" end="arrowRight.mouseout"/>
                  </use>
                  <path fill="none" stroke="white" stroke-width="1.5" d="M0,-3.0v7 M-2.5,-0.5L0,-3.0L2.5,-0.5"/>
                </g>
                <g id="arrowDown" xlink:href="#dirArrow" transform="rotate(180) translate(-30 -48)" onmousedown="handlePan(0,1)">
                  <use xlink:href="#rim" fill="#404040">
                        <set attributeName="fill" to="#808080" begin="arrowDown.mouseover" end="arrowDown.mouseout"/>
                  </use>
                  <path fill="none" stroke="white" stroke-width="1.5" d="M0,-3.0v7 M-2.5,-0.5L0,-3.0L2.5,-0.5"/>
                </g>
                <g id="arrowLeft" xlink:href="#dirArrow" transform="rotate(270) translate(-36 17)" onmousedown="handlePan(-1,0)">
                  <use xlink:href="#rim" fill="#404040">
                        <set attributeName="fill" to="#808080" begin="arrowLeft.mouseover" end="arrowLeft.mouseout"/>
                  </use>
                  <path fill="none" stroke="white" stroke-width="1.5" d="M0,-3.0v7 M-2.5,-0.5L0,-3.0L2.5,-0.5"/>
                </g>
        </g>
        <svg viewBox="0 0 15 15" width="100%" height="30px" preserveAspectRatio="xMaxYMin meet">
         <g id="arrow_out" transform="scale(0.3 0.3)">
          <a xlink:href="structVoxel_1_1DataPacket_a2e4fcc8c2b6fa1ec9bbe823a91d534c7_icgraph_org.svg" target="_base">
           <rect id="button" ry="5" rx="5" y="6" x="6" height="38" width="38"
                fill="#f2f5e9" fill-opacity="0.5" stroke="#606060" stroke-width="1.0"/>
           <path id="arrow"
             d="M 11.500037,31.436501 C 11.940474,20.09759 22.043105,11.32322 32.158766,21.979434 L 37.068811,17.246167 C 37.068811,17.246167 37.088388,32 37.088388,32 L 22.160133,31.978069 C 22.160133,31.978069 26.997745,27.140456 26.997745,27.140456 C 18.528582,18.264221 13.291696,25.230495 11.500037,31.436501 z"
             style="fill:#404040;"/>
          </a>
         </g>
        </svg>
</svg>
