<?xml version="1.0" encoding="UTF-8" standalone="no"?>
<!DOCTYPE svg PUBLIC "-//W3C//DTD SVG 1.1//EN"
 "http://www.w3.org/Graphics/SVG/1.1/DTD/svg11.dtd">
<!-- Generated by graphviz version 2.36.0 (20140111.2315)
 -->
<!-- Title: TemporalMedianFilter.h Pages: 1 -->
<svg width="269pt" height="84pt"
 viewBox="0.00 0.00 269.00 84.00" xmlns="http://www.w3.org/2000/svg" xmlns:xlink="http://www.w3.org/1999/xlink">
<g id="graph0" class="graph" transform="scale(1 1) rotate(0) translate(4 80)">
<title>TemporalMedianFilter.h</title>
<!-- Node1 -->
<g id="node1" class="node"><title>Node1</title>
<polygon fill="#bfbfbf" stroke="black" points="74.5,-56.5 74.5,-75.5 193.5,-75.5 193.5,-56.5 74.5,-56.5"/>
<text text-anchor="middle" x="134" y="-63.5" font-family="Helvetica,sans-Serif" font-size="10.00">TemporalMedianFilter.h</text>
</g>
<!-- Node2 -->
<g id="node2" class="node"><title>Node2</title>
<g id="a_node2"><a xlink:href="TemporalMedianFilter_8cpp.xhtml" target="_top" xlink:title="TemporalMedianFilter.cpp">
<polygon fill="none" stroke="black" points="-0.5,-0.5 -0.5,-19.5 128.5,-19.5 128.5,-0.5 -0.5,-0.5"/>
<text text-anchor="middle" x="64" y="-7.5" font-family="Helvetica,sans-Serif" font-size="10.00">TemporalMedianFilter.cpp</text>
</a>
</g>
</g>
<!-- Node1&#45;&gt;Node2 -->
<g id="edge1" class="edge"><title>Node1&#45;&gt;Node2</title>
<path fill="none" stroke="midnightblue" d="M114.686,-50.1008C102.088,-40.3824 86.0719,-28.0269 75.4513,-19.8339"/>
<polygon fill="midnightblue" stroke="midnightblue" points="112.698,-52.9871 122.753,-56.324 116.973,-47.4446 112.698,-52.9871"/>
</g>
<!-- Node3 -->
<g id="node3" class="node"><title>Node3</title>
<g id="a_node3"><a xlink:href="VoxelFilterFactory_8cpp.xhtml" target="_top" xlink:title="VoxelFilterFactory.cpp">
<polygon fill="none" stroke="black" points="146.5,-0.5 146.5,-19.5 261.5,-19.5 261.5,-0.5 146.5,-0.5"/>
<text text-anchor="middle" x="204" y="-7.5" font-family="Helvetica,sans-Serif" font-size="10.00">VoxelFilterFactory.cpp</text>
</a>
</g>
</g>
<!-- Node1&#45;&gt;Node3 -->
<g id="edge2" class="edge"><title>Node1&#45;&gt;Node3</title>
<path fill="none" stroke="midnightblue" d="M153.314,-50.1008C165.912,-40.3824 181.928,-28.0269 192.549,-19.8339"/>
<polygon fill="midnightblue" stroke="midnightblue" points="151.027,-47.4446 145.247,-56.324 155.302,-52.9871 151.027,-47.4446"/>
</g>
</g>
</svg>
