<?xml version="1.0" encoding="UTF-8" standalone="no"?>
<!DOCTYPE svg PUBLIC "-//W3C//DTD SVG 1.1//EN"
 "http://www.w3.org/Graphics/SVG/1.1/DTD/svg11.dtd">
<!-- Generated by graphviz version 2.36.0 (20140111.2315)
 -->
<!-- Title: ToFDepthFrameGenerator.h Pages: 1 -->
<!--zoomable 308 -->
<svg id="main" version="1.1" xmlns="http://www.w3.org/2000/svg" xmlns:xlink="http://www.w3.org/1999/xlink" xml:space="preserve" onload="init(evt)">
<style type="text/css"><![CDATA[
.edge:hover path { stroke: red; }
.edge:hover polygon { stroke: red; fill: red; }
]]></style>
<script type="text/javascript"><![CDATA[
var edges = document.getElementsByTagName('g');
if (edges && edges.length) {
  for (var i=0;i<edges.length;i++) {
    if (edges[i].id.substr(0,4)=='edge') {
      edges[i].setAttribute('class','edge');
    }
  }
}
]]></script>
        <defs>
                <circle id="rim" cx="0" cy="0" r="7"/>
                <circle id="rim2" cx="0" cy="0" r="3.5"/>
                <g id="zoomPlus">
                        <use xlink:href="#rim" fill="#404040">
                                <set attributeName="fill" to="#808080" begin="zoomplus.mouseover" end="zoomplus.mouseout"/>
                        </use>
                        <path d="M-4,0h8M0,-4v8" fill="none" stroke="white" stroke-width="1.5" pointer-events="none"/>
                </g>
                <g id="zoomMin">
                        <use xlink:href="#rim" fill="#404040">
                                <set attributeName="fill" to="#808080" begin="zoomminus.mouseover" end="zoomminus.mouseout"/>
                        </use>
                        <path d="M-4,0h8" fill="none" stroke="white" stroke-width="1.5" pointer-events="none"/>
                </g>
                <g id="dirArrow">
                        <path fill="none" stroke="white" stroke-width="1.5" d="M0,-3.0v7 M-2.5,-0.5L0,-3.0L2.5,-0.5"/>
                </g>
               <g id="resetDef">
                       <use xlink:href="#rim2" fill="#404040">
                               <set attributeName="fill" to="#808080" begin="reset.mouseover" end="reset.mouseout"/>
                       </use>
               </g>
        </defs>

<script type="text/javascript">
var viewWidth = 2155;
var viewHeight = 308;
var sectionId = 'dynsection-1';
</script>
<script xlink:href="svgpan.js"/>
<svg id="graph" class="graph">
<g id="viewport">
<title>ToFDepthFrameGenerator.h</title>
<!-- Node1 -->
<g id="node1" class="node"><title>Node1</title>
<polygon fill="#bfbfbf" stroke="black" points="1327.5,-280.5 1327.5,-299.5 1466.5,-299.5 1466.5,-280.5 1327.5,-280.5"/>
<text text-anchor="middle" x="1397" y="-287.5" font-family="Helvetica,sans-Serif" font-size="10.00">ToFDepthFrameGenerator.h</text>
</g>
<!-- Node2 -->
<g id="node2" class="node"><title>Node2</title>
<g id="a_node2"><a xlink:href="ToFCameraBase_8h.xhtml" target="_top" xlink:title="ToFCameraBase.h">
<polygon fill="none" stroke="black" points="1264.5,-224.5 1264.5,-243.5 1363.5,-243.5 1363.5,-224.5 1264.5,-224.5"/>
<text text-anchor="middle" x="1314" y="-231.5" font-family="Helvetica,sans-Serif" font-size="10.00">ToFCameraBase.h</text>
</a>
</g>
</g>
<!-- Node1&#45;&gt;Node2 -->
<g id="edge1" class="edge"><title>Node1&#45;&gt;Node2</title>
<path fill="none" stroke="midnightblue" d="M1374.9,-274.622C1359.74,-264.757 1340.12,-251.992 1327.3,-243.655"/>
<polygon fill="midnightblue" stroke="midnightblue" points="1373.37,-277.804 1383.66,-280.324 1377.19,-271.937 1373.37,-277.804"/>
</g>
<!-- Node11 -->
<g id="node11" class="node"><title>Node11</title>
<g id="a_node11"><a xlink:href="ToFDepthFrameGenerator_8cpp.xhtml" target="_top" xlink:title="ToFDepthFrameGenerator.cpp">
<polygon fill="none" stroke="black" points="1448.5,-112.5 1448.5,-131.5 1597.5,-131.5 1597.5,-112.5 1448.5,-112.5"/>
<text text-anchor="middle" x="1523" y="-119.5" font-family="Helvetica,sans-Serif" font-size="10.00">ToFDepthFrameGenerator.cpp</text>
</a>
</g>
</g>
<!-- Node1&#45;&gt;Node11 -->
<g id="edge34" class="edge"><title>Node1&#45;&gt;Node11</title>
<path fill="none" stroke="midnightblue" d="M1410.08,-271.763C1436.78,-236.592 1496.68,-157.676 1516.5,-131.568"/>
<polygon fill="midnightblue" stroke="midnightblue" points="1407.03,-269.994 1403.77,-280.075 1412.61,-274.226 1407.03,-269.994"/>
</g>
<!-- Node3 -->
<g id="node3" class="node"><title>Node3</title>
<g id="a_node3"><a xlink:href="ToFCamera_8h.xhtml" target="_top" xlink:title="ToFCamera.h">
<polygon fill="none" stroke="black" points="996.5,-168.5 996.5,-187.5 1073.5,-187.5 1073.5,-168.5 996.5,-168.5"/>
<text text-anchor="middle" x="1035" y="-175.5" font-family="Helvetica,sans-Serif" font-size="10.00">ToFCamera.h</text>
</a>
</g>
</g>
<!-- Node2&#45;&gt;Node3 -->
<g id="edge2" class="edge"><title>Node2&#45;&gt;Node3</title>
<path fill="none" stroke="midnightblue" d="M1259.92,-222.533C1205.21,-211.944 1122,-195.839 1073.61,-186.473"/>
<polygon fill="midnightblue" stroke="midnightblue" points="1259.31,-225.979 1269.79,-224.444 1260.64,-219.107 1259.31,-225.979"/>
</g>
<!-- Node34 -->
<g id="node34" class="node"><title>Node34</title>
<g id="a_node34"><a xlink:href="ToFCameraBase_8cpp.xhtml" target="_top" xlink:title="ToFCameraBase.cpp">
<polygon fill="none" stroke="black" points="1259,-168.5 1259,-187.5 1369,-187.5 1369,-168.5 1259,-168.5"/>
<text text-anchor="middle" x="1314" y="-175.5" font-family="Helvetica,sans-Serif" font-size="10.00">ToFCameraBase.cpp</text>
</a>
</g>
</g>
<!-- Node2&#45;&gt;Node34 -->
<g id="edge33" class="edge"><title>Node2&#45;&gt;Node34</title>
<path fill="none" stroke="midnightblue" d="M1314,-213.805C1314,-204.91 1314,-194.78 1314,-187.751"/>
<polygon fill="midnightblue" stroke="midnightblue" points="1310.5,-214.083 1314,-224.083 1317.5,-214.083 1310.5,-214.083"/>
</g>
<!-- Node4 -->
<g id="node4" class="node"><title>Node4</title>
<g id="a_node4"><a xlink:href="ToFCalculusCamera_8h.xhtml" target="_top" xlink:title="ToFCalculusCamera.h">
<polygon fill="none" stroke="black" points="337.5,-112.5 337.5,-131.5 452.5,-131.5 452.5,-112.5 337.5,-112.5"/>
<text text-anchor="middle" x="395" y="-119.5" font-family="Helvetica,sans-Serif" font-size="10.00">ToFCalculusCamera.h</text>
</a>
</g>
</g>
<!-- Node3&#45;&gt;Node4 -->
<g id="edge3" class="edge"><title>Node3&#45;&gt;Node4</title>
<path fill="none" stroke="midnightblue" d="M986.391,-172.899C870.342,-163.107 577.511,-138.399 452.744,-127.872"/>
<polygon fill="midnightblue" stroke="midnightblue" points="986.148,-176.39 996.406,-173.744 986.736,-169.415 986.148,-176.39"/>
</g>
<!-- Node9 -->
<g id="node9" class="node"><title>Node9</title>
<g id="a_node9"><a xlink:href="ToFCamera_8cpp.xhtml" target="_top" xlink:title="ToFCamera.cpp">
<polygon fill="none" stroke="black" points="665.5,-112.5 665.5,-131.5 752.5,-131.5 752.5,-112.5 665.5,-112.5"/>
<text text-anchor="middle" x="709" y="-119.5" font-family="Helvetica,sans-Serif" font-size="10.00">ToFCamera.cpp</text>
</a>
</g>
</g>
<!-- Node3&#45;&gt;Node9 -->
<g id="edge8" class="edge"><title>Node3&#45;&gt;Node9</title>
<path fill="none" stroke="midnightblue" d="M986.289,-169.13C931.486,-160.245 839.82,-145.293 761,-132 758.29,-131.543 755.5,-131.069 752.688,-130.589"/>
<polygon fill="midnightblue" stroke="midnightblue" points="985.982,-172.625 996.413,-170.77 987.101,-165.716 985.982,-172.625"/>
</g>
<!-- Node10 -->
<g id="node10" class="node"><title>Node10</title>
<g id="a_node10"><a xlink:href="ToFCameraFactoryBase_8cpp.xhtml" target="_top" xlink:title="ToFCameraFactoryBase.cpp">
<polygon fill="none" stroke="black" points="770.5,-112.5 770.5,-131.5 913.5,-131.5 913.5,-112.5 770.5,-112.5"/>
<text text-anchor="middle" x="842" y="-119.5" font-family="Helvetica,sans-Serif" font-size="10.00">ToFCameraFactoryBase.cpp</text>
</a>
</g>
</g>
<!-- Node3&#45;&gt;Node10 -->
<g id="edge9" class="edge"><title>Node3&#45;&gt;Node10</title>
<path fill="none" stroke="midnightblue" d="M994.608,-165.699C958.183,-155.507 905.414,-140.743 872.438,-131.516"/>
<polygon fill="midnightblue" stroke="midnightblue" points="993.845,-169.12 1004.42,-168.444 995.731,-162.378 993.845,-169.12"/>
</g>
<!-- Node3&#45;&gt;Node11 -->
<g id="edge10" class="edge"><title>Node3&#45;&gt;Node11</title>
<path fill="none" stroke="midnightblue" d="M1083.66,-171.615C1169.22,-162.148 1347.08,-142.467 1448.29,-131.267"/>
<polygon fill="midnightblue" stroke="midnightblue" points="1083.25,-168.139 1073.7,-172.718 1084.02,-175.096 1083.25,-168.139"/>
</g>
<!-- Node12 -->
<g id="node12" class="node"><title>Node12</title>
<g id="a_node12"><a xlink:href="ToFFrameGenerator_8cpp.xhtml" target="_top" xlink:title="ToFFrameGenerator.cpp">
<polygon fill="none" stroke="black" points="931.5,-112.5 931.5,-131.5 1054.5,-131.5 1054.5,-112.5 931.5,-112.5"/>
<text text-anchor="middle" x="993" y="-119.5" font-family="Helvetica,sans-Serif" font-size="10.00">ToFFrameGenerator.cpp</text>
</a>
</g>
</g>
<!-- Node3&#45;&gt;Node12 -->
<g id="edge11" class="edge"><title>Node3&#45;&gt;Node12</title>
<path fill="none" stroke="midnightblue" d="M1021.89,-160.144C1014.57,-150.736 1005.76,-139.405 999.806,-131.751"/>
<polygon fill="midnightblue" stroke="midnightblue" points="1019.16,-162.338 1028.06,-168.083 1024.69,-158.041 1019.16,-162.338"/>
</g>
<!-- Node13 -->
<g id="node13" class="node"><title>Node13</title>
<g id="a_node13"><a xlink:href="ToFHaddockCamera_8h.xhtml" target="_top" xlink:title="ToFHaddockCamera.h">
<polygon fill="none" stroke="black" points="1073,-112.5 1073,-131.5 1189,-131.5 1189,-112.5 1073,-112.5"/>
<text text-anchor="middle" x="1131" y="-119.5" font-family="Helvetica,sans-Serif" font-size="10.00">ToFHaddockCamera.h</text>
</a>
</g>
</g>
<!-- Node3&#45;&gt;Node13 -->
<g id="edge12" class="edge"><title>Node3&#45;&gt;Node13</title>
<path fill="none" stroke="midnightblue" d="M1059.57,-163.177C1077.24,-153.241 1100.51,-140.149 1115.61,-131.655"/>
<polygon fill="midnightblue" stroke="midnightblue" points="1057.42,-160.371 1050.42,-168.324 1060.86,-166.472 1057.42,-160.371"/>
</g>
<!-- Node24 -->
<g id="node24" class="node"><title>Node24</title>
<g id="a_node24"><a xlink:href="ToFTintinCamera_8h.xhtml" target="_top" xlink:title="ToFTintinCamera.h">
<polygon fill="none" stroke="black" points="1329.5,-112.5 1329.5,-131.5 1430.5,-131.5 1430.5,-112.5 1329.5,-112.5"/>
<text text-anchor="middle" x="1380" y="-119.5" font-family="Helvetica,sans-Serif" font-size="10.00">ToFTintinCamera.h</text>
</a>
</g>
</g>
<!-- Node3&#45;&gt;Node24 -->
<g id="edge23" class="edge"><title>Node3&#45;&gt;Node24</title>
<path fill="none" stroke="midnightblue" d="M1083.57,-169.398C1148.59,-159.22 1263.39,-141.251 1329.43,-130.916"/>
<polygon fill="midnightblue" stroke="midnightblue" points="1082.91,-165.958 1073.57,-170.963 1083.99,-172.874 1082.91,-165.958"/>
</g>
<!-- Node5 -->
<g id="node5" class="node"><title>Node5</title>
<g id="a_node5"><a xlink:href="CalculusCDKCamera_8h.xhtml" target="_top" xlink:title="CalculusCDKCamera.h">
<polygon fill="none" stroke="black" points="170.5,-56.5 170.5,-75.5 289.5,-75.5 289.5,-56.5 170.5,-56.5"/>
<text text-anchor="middle" x="230" y="-63.5" font-family="Helvetica,sans-Serif" font-size="10.00">CalculusCDKCamera.h</text>
</a>
</g>
</g>
<!-- Node4&#45;&gt;Node5 -->
<g id="edge4" class="edge"><title>Node4&#45;&gt;Node5</title>
<path fill="none" stroke="midnightblue" d="M359.264,-109.304C328.173,-99.1294 283.853,-84.6246 256.022,-75.5164"/>
<polygon fill="midnightblue" stroke="midnightblue" points="358.263,-112.659 368.855,-112.444 360.44,-106.007 358.263,-112.659"/>
</g>
<!-- Node8 -->
<g id="node8" class="node"><title>Node8</title>
<g id="a_node8"><a xlink:href="ToFCalculusCamera_8cpp.xhtml" target="_top" xlink:title="ToFCalculusCamera.cpp">
<polygon fill="none" stroke="black" points="332.5,-56.5 332.5,-75.5 457.5,-75.5 457.5,-56.5 332.5,-56.5"/>
<text text-anchor="middle" x="395" y="-63.5" font-family="Helvetica,sans-Serif" font-size="10.00">ToFCalculusCamera.cpp</text>
</a>
</g>
</g>
<!-- Node4&#45;&gt;Node8 -->
<g id="edge7" class="edge"><title>Node4&#45;&gt;Node8</title>
<path fill="none" stroke="midnightblue" d="M395,-101.805C395,-92.9102 395,-82.7798 395,-75.7511"/>
<polygon fill="midnightblue" stroke="midnightblue" points="391.5,-102.083 395,-112.083 398.5,-102.083 391.5,-102.083"/>
</g>
<!-- Node6 -->
<g id="node6" class="node"><title>Node6</title>
<g id="a_node6"><a xlink:href="CalculusCDKCamera_8cpp.xhtml" target="_top" xlink:title="CalculusCDKCamera.cpp">
<polygon fill="none" stroke="black" points="0,-0.5 0,-19.5 130,-19.5 130,-0.5 0,-0.5"/>
<text text-anchor="middle" x="65" y="-7.5" font-family="Helvetica,sans-Serif" font-size="10.00">CalculusCDKCamera.cpp</text>
</a>
</g>
</g>
<!-- Node5&#45;&gt;Node6 -->
<g id="edge5" class="edge"><title>Node5&#45;&gt;Node6</title>
<path fill="none" stroke="midnightblue" d="M194.264,-53.3044C163.173,-43.1294 118.853,-28.6246 91.0224,-19.5164"/>
<polygon fill="midnightblue" stroke="midnightblue" points="193.263,-56.6595 203.855,-56.4435 195.44,-50.0067 193.263,-56.6595"/>
</g>
<!-- Node7 -->
<g id="node7" class="node"><title>Node7</title>
<g id="a_node7"><a xlink:href="CalculusCDKCameraFactory_8cpp.xhtml" target="_top" xlink:title="CalculusCDKCameraFactory.cpp">
<polygon fill="none" stroke="black" points="148.5,-0.5 148.5,-19.5 311.5,-19.5 311.5,-0.5 148.5,-0.5"/>
<text text-anchor="middle" x="230" y="-7.5" font-family="Helvetica,sans-Serif" font-size="10.00">CalculusCDKCameraFactory.cpp</text>
</a>
</g>
</g>
<!-- Node5&#45;&gt;Node7 -->
<g id="edge6" class="edge"><title>Node5&#45;&gt;Node7</title>
<path fill="none" stroke="midnightblue" d="M230,-45.8045C230,-36.9102 230,-26.7798 230,-19.7511"/>
<polygon fill="midnightblue" stroke="midnightblue" points="226.5,-46.083 230,-56.083 233.5,-46.083 226.5,-46.083"/>
</g>
<!-- Node14 -->
<g id="node14" class="node"><title>Node14</title>
<g id="a_node14"><a xlink:href="HaddockCDKCamera_8h.xhtml" target="_top" xlink:title="HaddockCDKCamera.h">
<polygon fill="none" stroke="black" points="501,-56.5 501,-75.5 621,-75.5 621,-56.5 501,-56.5"/>
<text text-anchor="middle" x="561" y="-63.5" font-family="Helvetica,sans-Serif" font-size="10.00">HaddockCDKCamera.h</text>
</a>
</g>
</g>
<!-- Node13&#45;&gt;Node14 -->
<g id="edge13" class="edge"><title>Node13&#45;&gt;Node14</title>
<path fill="none" stroke="midnightblue" d="M1062.36,-111.979C896.17,-93.7139 713.775,-78.7839 621.355,-71.5831"/>
<polygon fill="midnightblue" stroke="midnightblue" points="1062.46,-115.51 1072.78,-113.13 1063.23,-108.553 1062.46,-115.51"/>
</g>
<!-- Node17 -->
<g id="node17" class="node"><title>Node17</title>
<g id="a_node17"><a xlink:href="RTS5825Camera_8h.xhtml" target="_top" xlink:title="RTS5825Camera.h">
<polygon fill="none" stroke="black" points="812.5,-56.5 812.5,-75.5 913.5,-75.5 913.5,-56.5 812.5,-56.5"/>
<text text-anchor="middle" x="863" y="-63.5" font-family="Helvetica,sans-Serif" font-size="10.00">RTS5825Camera.h</text>
</a>
</g>
</g>
<!-- Node13&#45;&gt;Node17 -->
<g id="edge16" class="edge"><title>Node13&#45;&gt;Node17</title>
<path fill="none" stroke="midnightblue" d="M1078.44,-110.41C1027.79,-100.204 952.133,-84.9597 905.267,-75.5164"/>
<polygon fill="midnightblue" stroke="midnightblue" points="1078.04,-113.899 1088.53,-112.444 1079.42,-107.037 1078.04,-113.899"/>
</g>
<!-- Node20 -->
<g id="node20" class="node"><title>Node20</title>
<g id="a_node20"><a xlink:href="Voxel14Camera_8h.xhtml" target="_top" xlink:title="Voxel14Camera.h">
<polygon fill="none" stroke="black" points="1019.5,-56.5 1019.5,-75.5 1114.5,-75.5 1114.5,-56.5 1019.5,-56.5"/>
<text text-anchor="middle" x="1067" y="-63.5" font-family="Helvetica,sans-Serif" font-size="10.00">Voxel14Camera.h</text>
</a>
</g>
</g>
<!-- Node13&#45;&gt;Node20 -->
<g id="edge19" class="edge"><title>Node13&#45;&gt;Node20</title>
<path fill="none" stroke="midnightblue" d="M1113.01,-105.82C1101.54,-96.1452 1087.09,-83.9481 1077.47,-75.8339"/>
<polygon fill="midnightblue" stroke="midnightblue" points="1110.82,-108.55 1120.72,-112.324 1115.33,-103.2 1110.82,-108.55"/>
</g>
<!-- Node23 -->
<g id="node23" class="node"><title>Node23</title>
<g id="a_node23"><a xlink:href="ToFHaddockCamera_8cpp.xhtml" target="_top" xlink:title="ToFHaddockCamera.cpp">
<polygon fill="none" stroke="black" points="1133,-56.5 1133,-75.5 1259,-75.5 1259,-56.5 1133,-56.5"/>
<text text-anchor="middle" x="1196" y="-63.5" font-family="Helvetica,sans-Serif" font-size="10.00">ToFHaddockCamera.cpp</text>
</a>
</g>
</g>
<!-- Node13&#45;&gt;Node23 -->
<g id="edge22" class="edge"><title>Node13&#45;&gt;Node23</title>
<path fill="none" stroke="midnightblue" d="M1149.27,-105.82C1160.92,-96.1452 1175.6,-83.9481 1185.37,-75.8339"/>
<polygon fill="midnightblue" stroke="midnightblue" points="1146.9,-103.242 1141.44,-112.324 1151.37,-108.626 1146.9,-103.242"/>
</g>
<!-- Node15 -->
<g id="node15" class="node"><title>Node15</title>
<g id="a_node15"><a xlink:href="HaddockCDKCamera_8cpp.xhtml" target="_top" xlink:title="HaddockCDKCamera.cpp">
<polygon fill="none" stroke="black" points="329.5,-0.5 329.5,-19.5 460.5,-19.5 460.5,-0.5 329.5,-0.5"/>
<text text-anchor="middle" x="395" y="-7.5" font-family="Helvetica,sans-Serif" font-size="10.00">HaddockCDKCamera.cpp</text>
</a>
</g>
</g>
<!-- Node14&#45;&gt;Node15 -->
<g id="edge14" class="edge"><title>Node14&#45;&gt;Node15</title>
<path fill="none" stroke="midnightblue" d="M525.047,-53.3044C493.768,-43.1294 449.179,-28.6246 421.18,-19.5164"/>
<polygon fill="midnightblue" stroke="midnightblue" points="524.105,-56.6783 534.697,-56.4435 526.27,-50.0217 524.105,-56.6783"/>
</g>
<!-- Node16 -->
<g id="node16" class="node"><title>Node16</title>
<g id="a_node16"><a xlink:href="HaddockCDKCameraFactory_8cpp.xhtml" target="_top" xlink:title="HaddockCDKCameraFactory.cpp">
<polygon fill="none" stroke="black" points="479,-0.5 479,-19.5 643,-19.5 643,-0.5 479,-0.5"/>
<text text-anchor="middle" x="561" y="-7.5" font-family="Helvetica,sans-Serif" font-size="10.00">HaddockCDKCameraFactory.cpp</text>
</a>
</g>
</g>
<!-- Node14&#45;&gt;Node16 -->
<g id="edge15" class="edge"><title>Node14&#45;&gt;Node16</title>
<path fill="none" stroke="midnightblue" d="M561,-45.8045C561,-36.9102 561,-26.7798 561,-19.7511"/>
<polygon fill="midnightblue" stroke="midnightblue" points="557.5,-46.083 561,-56.083 564.5,-46.083 557.5,-46.083"/>
</g>
<!-- Node18 -->
<g id="node18" class="node"><title>Node18</title>
<g id="a_node18"><a xlink:href="RTS5825Camera_8cpp.xhtml" target="_top" xlink:title="RTS5825Camera.cpp">
<polygon fill="none" stroke="black" points="661.5,-0.5 661.5,-19.5 772.5,-19.5 772.5,-0.5 661.5,-0.5"/>
<text text-anchor="middle" x="717" y="-7.5" font-family="Helvetica,sans-Serif" font-size="10.00">RTS5825Camera.cpp</text>
</a>
</g>
</g>
<!-- Node17&#45;&gt;Node18 -->
<g id="edge17" class="edge"><title>Node17&#45;&gt;Node18</title>
<path fill="none" stroke="midnightblue" d="M830.301,-52.9058C802.852,-42.7536 764.332,-28.5063 740.026,-19.5164"/>
<polygon fill="midnightblue" stroke="midnightblue" points="829.273,-56.2572 839.866,-56.4435 831.701,-49.6919 829.273,-56.2572"/>
</g>
<!-- Node19 -->
<g id="node19" class="node"><title>Node19</title>
<g id="a_node19"><a xlink:href="RTS5825CameraFactory_8cpp.xhtml" target="_top" xlink:title="RTS5825CameraFactory.cpp">
<polygon fill="none" stroke="black" points="791,-0.5 791,-19.5 935,-19.5 935,-0.5 791,-0.5"/>
<text text-anchor="middle" x="863" y="-7.5" font-family="Helvetica,sans-Serif" font-size="10.00">RTS5825CameraFactory.cpp</text>
</a>
</g>
</g>
<!-- Node17&#45;&gt;Node19 -->
<g id="edge18" class="edge"><title>Node17&#45;&gt;Node19</title>
<path fill="none" stroke="midnightblue" d="M863,-45.8045C863,-36.9102 863,-26.7798 863,-19.7511"/>
<polygon fill="midnightblue" stroke="midnightblue" points="859.5,-46.083 863,-56.083 866.5,-46.083 859.5,-46.083"/>
</g>
<!-- Node21 -->
<g id="node21" class="node"><title>Node21</title>
<g id="a_node21"><a xlink:href="Voxel14Camera_8cpp.xhtml" target="_top" xlink:title="Voxel14Camera.cpp">
<polygon fill="none" stroke="black" points="953.5,-0.5 953.5,-19.5 1058.5,-19.5 1058.5,-0.5 953.5,-0.5"/>
<text text-anchor="middle" x="1006" y="-7.5" font-family="Helvetica,sans-Serif" font-size="10.00">Voxel14Camera.cpp</text>
</a>
</g>
</g>
<!-- Node20&#45;&gt;Node21 -->
<g id="edge20" class="edge"><title>Node20&#45;&gt;Node21</title>
<path fill="none" stroke="midnightblue" d="M1049.53,-49.5372C1038.66,-39.9087 1025.06,-27.8694 1015.98,-19.8339"/>
<polygon fill="midnightblue" stroke="midnightblue" points="1047.39,-52.3162 1057.2,-56.324 1052.03,-47.0749 1047.39,-52.3162"/>
</g>
<!-- Node22 -->
<g id="node22" class="node"><title>Node22</title>
<g id="a_node22"><a xlink:href="Voxel14CameraFactory_8cpp.xhtml" target="_top" xlink:title="Voxel14CameraFactory.cpp">
<polygon fill="none" stroke="black" points="1077,-0.5 1077,-19.5 1215,-19.5 1215,-0.5 1077,-0.5"/>
<text text-anchor="middle" x="1146" y="-7.5" font-family="Helvetica,sans-Serif" font-size="10.00">Voxel14CameraFactory.cpp</text>
</a>
</g>
</g>
<!-- Node20&#45;&gt;Node22 -->
<g id="edge21" class="edge"><title>Node20&#45;&gt;Node22</title>
<path fill="none" stroke="midnightblue" d="M1088.03,-50.6221C1102.47,-40.7574 1121.14,-27.9919 1133.34,-19.6545"/>
<polygon fill="midnightblue" stroke="midnightblue" points="1085.97,-47.7914 1079.69,-56.324 1089.92,-53.5703 1085.97,-47.7914"/>
</g>
<!-- Node25 -->
<g id="node25" class="node"><title>Node25</title>
<g id="a_node25"><a xlink:href="TintinCDKCamera_8h.xhtml" target="_top" xlink:title="TintinCDKCamera.h">
<polygon fill="none" stroke="black" points="1388.5,-56.5 1388.5,-75.5 1493.5,-75.5 1493.5,-56.5 1388.5,-56.5"/>
<text text-anchor="middle" x="1441" y="-63.5" font-family="Helvetica,sans-Serif" font-size="10.00">TintinCDKCamera.h</text>
</a>
</g>
</g>
<!-- Node24&#45;&gt;Node25 -->
<g id="edge24" class="edge"><title>Node24&#45;&gt;Node25</title>
<path fill="none" stroke="midnightblue" d="M1397.47,-105.537C1408.34,-95.9087 1421.94,-83.8694 1431.02,-75.8339"/>
<polygon fill="midnightblue" stroke="midnightblue" points="1394.97,-103.075 1389.8,-112.324 1399.61,-108.316 1394.97,-103.075"/>
</g>
<!-- Node30 -->
<g id="node30" class="node"><title>Node30</title>
<g id="a_node30"><a xlink:href="VoxelDCamera_8h.xhtml" target="_top" xlink:title="VoxelDCamera.h">
<polygon fill="none" stroke="black" points="1704,-56.5 1704,-75.5 1796,-75.5 1796,-56.5 1704,-56.5"/>
<text text-anchor="middle" x="1750" y="-63.5" font-family="Helvetica,sans-Serif" font-size="10.00">VoxelDCamera.h</text>
</a>
</g>
</g>
<!-- Node24&#45;&gt;Node30 -->
<g id="edge29" class="edge"><title>Node24&#45;&gt;Node30</title>
<path fill="none" stroke="midnightblue" d="M1440.46,-111.791C1540.08,-97.0147 1645.1,-81.947 1703.88,-73.5608"/>
<polygon fill="midnightblue" stroke="midnightblue" points="1439.9,-108.335 1430.53,-113.266 1440.93,-115.259 1439.9,-108.335"/>
</g>
<!-- Node33 -->
<g id="node33" class="node"><title>Node33</title>
<g id="a_node33"><a xlink:href="ToFTintinCamera_8cpp.xhtml" target="_top" xlink:title="ToFTintinCamera.cpp">
<polygon fill="none" stroke="black" points="1814.5,-56.5 1814.5,-75.5 1925.5,-75.5 1925.5,-56.5 1814.5,-56.5"/>
<text text-anchor="middle" x="1870" y="-63.5" font-family="Helvetica,sans-Serif" font-size="10.00">ToFTintinCamera.cpp</text>
</a>
</g>
</g>
<!-- Node24&#45;&gt;Node33 -->
<g id="edge32" class="edge"><title>Node24&#45;&gt;Node33</title>
<path fill="none" stroke="midnightblue" d="M1440.85,-111.826C1602.94,-91.8045 1646.01,-94.8187 1805,-76 1808.05,-75.6384 1811.19,-75.253 1814.35,-74.8528"/>
<polygon fill="midnightblue" stroke="midnightblue" points="1440,-108.405 1430.51,-113.115 1440.86,-115.351 1440,-108.405"/>
</g>
<!-- Node26 -->
<g id="node26" class="node"><title>Node26</title>
<g id="a_node26"><a xlink:href="TintinCDKCamera_8cpp.xhtml" target="_top" xlink:title="TintinCDKCamera.cpp">
<polygon fill="none" stroke="black" points="1233,-0.5 1233,-19.5 1349,-19.5 1349,-0.5 1233,-0.5"/>
<text text-anchor="middle" x="1291" y="-7.5" font-family="Helvetica,sans-Serif" font-size="10.00">TintinCDKCamera.cpp</text>
</a>
</g>
</g>
<!-- Node25&#45;&gt;Node26 -->
<g id="edge25" class="edge"><title>Node25&#45;&gt;Node26</title>
<path fill="none" stroke="midnightblue" d="M1407.78,-53.0392C1379.55,-42.8786 1339.74,-28.5457 1314.66,-19.5164"/>
<polygon fill="midnightblue" stroke="midnightblue" points="1406.64,-56.3494 1417.23,-56.4435 1409.01,-49.7632 1406.64,-56.3494"/>
</g>
<!-- Node27 -->
<g id="node27" class="node"><title>Node27</title>
<g id="a_node27"><a xlink:href="TintinCDKCameraFactory_8cpp.xhtml" target="_top" xlink:title="TintinCDKCameraFactory.cpp">
<polygon fill="none" stroke="black" points="1366.5,-0.5 1366.5,-19.5 1515.5,-19.5 1515.5,-0.5 1366.5,-0.5"/>
<text text-anchor="middle" x="1441" y="-7.5" font-family="Helvetica,sans-Serif" font-size="10.00">TintinCDKCameraFactory.cpp</text>
</a>
</g>
</g>
<!-- Node25&#45;&gt;Node27 -->
<g id="edge26" class="edge"><title>Node25&#45;&gt;Node27</title>
<path fill="none" stroke="midnightblue" d="M1441,-45.8045C1441,-36.9102 1441,-26.7798 1441,-19.7511"/>
<polygon fill="midnightblue" stroke="midnightblue" points="1437.5,-46.083 1441,-56.083 1444.5,-46.083 1437.5,-46.083"/>
</g>
<!-- Node28 -->
<g id="node28" class="node"><title>Node28</title>
<g id="a_node28"><a xlink:href="TintinCDKDownloaderFactory_8cpp.xhtml" target="_top" xlink:title="TintinCDKDownloaderFactory.cpp">
<polygon fill="none" stroke="black" points="1534,-0.5 1534,-19.5 1700,-19.5 1700,-0.5 1534,-0.5"/>
<text text-anchor="middle" x="1617" y="-7.5" font-family="Helvetica,sans-Serif" font-size="10.00">TintinCDKDownloaderFactory.cpp</text>
</a>
</g>
</g>
<!-- Node25&#45;&gt;Node28 -->
<g id="edge27" class="edge"><title>Node25&#45;&gt;Node28</title>
<path fill="none" stroke="midnightblue" d="M1478.69,-53.4363C1511.87,-43.2551 1559.43,-28.664 1589.24,-19.5164"/>
<polygon fill="midnightblue" stroke="midnightblue" points="1477.42,-50.1642 1468.89,-56.4435 1479.47,-56.8563 1477.42,-50.1642"/>
</g>
<!-- Node29 -->
<g id="node29" class="node"><title>Node29</title>
<g id="a_node29"><a xlink:href="TintinEEPROMDownloader_8cpp.xhtml" target="_top" xlink:title="TintinEEPROMDownloader.cpp">
<polygon fill="none" stroke="black" points="1718.5,-0.5 1718.5,-19.5 1873.5,-19.5 1873.5,-0.5 1718.5,-0.5"/>
<text text-anchor="middle" x="1796" y="-7.5" font-family="Helvetica,sans-Serif" font-size="10.00">TintinEEPROMDownloader.cpp</text>
</a>
</g>
</g>
<!-- Node25&#45;&gt;Node29 -->
<g id="edge28" class="edge"><title>Node25&#45;&gt;Node29</title>
<path fill="none" stroke="midnightblue" d="M1503.76,-55.453C1570.72,-45.2687 1675.78,-29.2871 1740.01,-19.5162"/>
<polygon fill="midnightblue" stroke="midnightblue" points="1503.12,-52.0099 1493.76,-56.974 1504.18,-58.9302 1503.12,-52.0099"/>
</g>
<!-- Node31 -->
<g id="node31" class="node"><title>Node31</title>
<g id="a_node31"><a xlink:href="VoxelDCamera_8cpp.xhtml" target="_top" xlink:title="VoxelDCamera.cpp">
<polygon fill="none" stroke="black" points="1892,-0.5 1892,-19.5 1994,-19.5 1994,-0.5 1892,-0.5"/>
<text text-anchor="middle" x="1943" y="-7.5" font-family="Helvetica,sans-Serif" font-size="10.00">VoxelDCamera.cpp</text>
</a>
</g>
</g>
<!-- Node30&#45;&gt;Node31 -->
<g id="edge30" class="edge"><title>Node30&#45;&gt;Node31</title>
<path fill="none" stroke="midnightblue" d="M1790.39,-53.6986C1826.82,-43.507 1879.59,-28.7429 1912.56,-19.5164"/>
<polygon fill="midnightblue" stroke="midnightblue" points="1789.27,-50.3785 1780.58,-56.4435 1791.15,-57.1196 1789.27,-50.3785"/>
</g>
<!-- Node32 -->
<g id="node32" class="node"><title>Node32</title>
<g id="a_node32"><a xlink:href="VoxelDCameraFactory_8cpp.xhtml" target="_top" xlink:title="VoxelDCameraFactory.cpp">
<polygon fill="none" stroke="black" points="2012.5,-0.5 2012.5,-19.5 2147.5,-19.5 2147.5,-0.5 2012.5,-0.5"/>
<text text-anchor="middle" x="2080" y="-7.5" font-family="Helvetica,sans-Serif" font-size="10.00">VoxelDCameraFactory.cpp</text>
</a>
</g>
</g>
<!-- Node30&#45;&gt;Node32 -->
<g id="edge31" class="edge"><title>Node30&#45;&gt;Node32</title>
<path fill="none" stroke="midnightblue" d="M1806.24,-55.7967C1868.32,-45.6388 1967.43,-29.4213 2027.82,-19.5378"/>
<polygon fill="midnightblue" stroke="midnightblue" points="1805.54,-52.3656 1796.23,-57.4347 1806.67,-59.2738 1805.54,-52.3656"/>
</g>
</g>
</svg>
        <g id="navigator" transform="translate(0 0)" fill="#404254">
                <rect fill="#f2f5e9" fill-opacity="0.5" stroke="#606060" stroke-width=".5" x="0" y="0" width="60" height="60"/>
                <use id="zoomplus" xlink:href="#zoomPlus" x="17" y="9" onmousedown="handleZoom(evt,'in')"/>
                <use id="zoomminus" xlink:href="#zoomMin" x="42" y="9" onmousedown="handleZoom(evt,'out')"/>
                <use id="reset" xlink:href="#resetDef" x="30" y="36" onmousedown="handleReset()"/>
                <g id="arrowUp" xlink:href="#dirArrow" transform="translate(30 24)" onmousedown="handlePan(0,-1)">
                  <use xlink:href="#rim" fill="#404040">
                        <set attributeName="fill" to="#808080" begin="arrowUp.mouseover" end="arrowUp.mouseout"/>
                  </use>
                  <path fill="none" stroke="white" stroke-width="1.5" d="M0,-3.0v7 M-2.5,-0.5L0,-3.0L2.5,-0.5"/>
                </g>
                <g id="arrowRight" xlink:href="#dirArrow" transform="rotate(90) translate(36 -43)" onmousedown="handlePan(1,0)">
                  <use xlink:href="#rim" fill="#404040">
                        <set attributeName="fill" to="#808080" begin="arrowRight.mouseover" end="arrowRight.mouseout"/>
                  </use>
                  <path fill="none" stroke="white" stroke-width="1.5" d="M0,-3.0v7 M-2.5,-0.5L0,-3.0L2.5,-0.5"/>
                </g>
                <g id="arrowDown" xlink:href="#dirArrow" transform="rotate(180) translate(-30 -48)" onmousedown="handlePan(0,1)">
                  <use xlink:href="#rim" fill="#404040">
                        <set attributeName="fill" to="#808080" begin="arrowDown.mouseover" end="arrowDown.mouseout"/>
                  </use>
                  <path fill="none" stroke="white" stroke-width="1.5" d="M0,-3.0v7 M-2.5,-0.5L0,-3.0L2.5,-0.5"/>
                </g>
                <g id="arrowLeft" xlink:href="#dirArrow" transform="rotate(270) translate(-36 17)" onmousedown="handlePan(-1,0)">
                  <use xlink:href="#rim" fill="#404040">
                        <set attributeName="fill" to="#808080" begin="arrowLeft.mouseover" end="arrowLeft.mouseout"/>
                  </use>
                  <path fill="none" stroke="white" stroke-width="1.5" d="M0,-3.0v7 M-2.5,-0.5L0,-3.0L2.5,-0.5"/>
                </g>
        </g>
        <svg viewBox="0 0 15 15" width="100%" height="30px" preserveAspectRatio="xMaxYMin meet">
         <g id="arrow_out" transform="scale(0.3 0.3)">
          <a xlink:href="ToFDepthFrameGenerator_8h__dep__incl_org.svg" target="_base">
           <rect id="button" ry="5" rx="5" y="6" x="6" height="38" width="38"
                fill="#f2f5e9" fill-opacity="0.5" stroke="#606060" stroke-width="1.0"/>
           <path id="arrow"
             d="M 11.500037,31.436501 C 11.940474,20.09759 22.043105,11.32322 32.158766,21.979434 L 37.068811,17.246167 C 37.068811,17.246167 37.088388,32 37.088388,32 L 22.160133,31.978069 C 22.160133,31.978069 26.997745,27.140456 26.997745,27.140456 C 18.528582,18.264221 13.291696,25.230495 11.500037,31.436501 z"
             style="fill:#404040;"/>
          </a>
         </g>
        </svg>
</svg>
