<?xml version="1.0" encoding="UTF-8" standalone="no"?>
<!DOCTYPE svg PUBLIC "-//W3C//DTD SVG 1.1//EN"
 "http://www.w3.org/Graphics/SVG/1.1/DTD/svg11.dtd">
<!-- Generated by graphviz version 2.36.0 (20140111.2315)
 -->
<!-- Title: USBBulkStreamer.cpp Pages: 1 -->
<!--zoomable 420 -->
<svg id="main" version="1.1" xmlns="http://www.w3.org/2000/svg" xmlns:xlink="http://www.w3.org/1999/xlink" xml:space="preserve" onload="init(evt)">
<style type="text/css"><![CDATA[
.edge:hover path { stroke: red; }
.edge:hover polygon { stroke: red; fill: red; }
]]></style>
<script type="text/javascript"><![CDATA[
var edges = document.getElementsByTagName('g');
if (edges && edges.length) {
  for (var i=0;i<edges.length;i++) {
    if (edges[i].id.substr(0,4)=='edge') {
      edges[i].setAttribute('class','edge');
    }
  }
}
]]></script>
        <defs>
                <circle id="rim" cx="0" cy="0" r="7"/>
                <circle id="rim2" cx="0" cy="0" r="3.5"/>
                <g id="zoomPlus">
                        <use xlink:href="#rim" fill="#404040">
                                <set attributeName="fill" to="#808080" begin="zoomplus.mouseover" end="zoomplus.mouseout"/>
                        </use>
                        <path d="M-4,0h8M0,-4v8" fill="none" stroke="white" stroke-width="1.5" pointer-events="none"/>
                </g>
                <g id="zoomMin">
                        <use xlink:href="#rim" fill="#404040">
                                <set attributeName="fill" to="#808080" begin="zoomminus.mouseover" end="zoomminus.mouseout"/>
                        </use>
                        <path d="M-4,0h8" fill="none" stroke="white" stroke-width="1.5" pointer-events="none"/>
                </g>
                <g id="dirArrow">
                        <path fill="none" stroke="white" stroke-width="1.5" d="M0,-3.0v7 M-2.5,-0.5L0,-3.0L2.5,-0.5"/>
                </g>
               <g id="resetDef">
                       <use xlink:href="#rim2" fill="#404040">
                               <set attributeName="fill" to="#808080" begin="reset.mouseover" end="reset.mouseout"/>
                       </use>
               </g>
        </defs>

<script type="text/javascript">
var viewWidth = 1437;
var viewHeight = 420;
var sectionId = 'dynsection-0';
</script>
<script xlink:href="svgpan.js"/>
<svg id="graph" class="graph">
<g id="viewport">
<title>USBBulkStreamer.cpp</title>
<!-- Node1 -->
<g id="node1" class="node"><title>Node1</title>
<polygon fill="#bfbfbf" stroke="black" points="492,-392.5 492,-411.5 608,-411.5 608,-392.5 492,-392.5"/>
<text text-anchor="middle" x="550" y="-399.5" font-family="Helvetica,sans-Serif" font-size="10.00">USBBulkStreamer.cpp</text>
</g>
<!-- Node2 -->
<g id="node2" class="node"><title>Node2</title>
<g id="a_node2"><a xlink:href="USBBulkStreamer_8h.xhtml" target="_top" xlink:title="USBBulkStreamer.h">
<polygon fill="none" stroke="black" points="416.5,-336.5 416.5,-355.5 521.5,-355.5 521.5,-336.5 416.5,-336.5"/>
<text text-anchor="middle" x="469" y="-343.5" font-family="Helvetica,sans-Serif" font-size="10.00">USBBulkStreamer.h</text>
</a>
</g>
</g>
<!-- Node1&#45;&gt;Node2 -->
<g id="edge1" class="edge"><title>Node1&#45;&gt;Node2</title>
<path fill="none" stroke="midnightblue" d="M536.986,-392.324C524.468,-383.979 505.318,-371.212 490.529,-361.352"/>
<polygon fill="midnightblue" stroke="midnightblue" points="492.244,-358.289 481.982,-355.655 488.361,-364.114 492.244,-358.289"/>
</g>
<!-- Node35 -->
<g id="node35" class="node"><title>Node35</title>
<g id="a_node35"><a xlink:href="USBIO_8h.xhtml" target="_top" xlink:title="USBIO.h">
<polygon fill="none" stroke="black" points="507,-280.5 507,-299.5 563,-299.5 563,-280.5 507,-280.5"/>
<text text-anchor="middle" x="535" y="-287.5" font-family="Helvetica,sans-Serif" font-size="10.00">USBIO.h</text>
</a>
</g>
</g>
<!-- Node1&#45;&gt;Node35 -->
<g id="edge59" class="edge"><title>Node1&#45;&gt;Node35</title>
<path fill="none" stroke="midnightblue" d="M548.823,-392.368C546.402,-374.617 540.818,-333.666 537.536,-309.597"/>
<polygon fill="midnightblue" stroke="midnightblue" points="540.991,-309.027 536.172,-299.591 534.055,-309.973 540.991,-309.027"/>
</g>
<!-- Node36 -->
<g id="node36" class="node"><title>Node36</title>
<g id="a_node36"><a xlink:href="USBSystem_8h.xhtml" target="_top" xlink:title="USBSystem.h">
<polygon fill="none" stroke="black" points="563,-224.5 563,-243.5 643,-243.5 643,-224.5 563,-224.5"/>
<text text-anchor="middle" x="603" y="-231.5" font-family="Helvetica,sans-Serif" font-size="10.00">USBSystem.h</text>
</a>
</g>
</g>
<!-- Node1&#45;&gt;Node36 -->
<g id="edge58" class="edge"><title>Node1&#45;&gt;Node36</title>
<path fill="none" stroke="midnightblue" d="M552.85,-392.075C561.228,-365.832 585.904,-288.545 597.216,-253.117"/>
<polygon fill="midnightblue" stroke="midnightblue" points="600.557,-254.159 600.264,-243.568 593.889,-252.03 600.557,-254.159"/>
</g>
<!-- Node37 -->
<g id="node37" class="node"><title>Node37</title>
<g id="a_node37"><a xlink:href="Logger_8h.xhtml" target="_top" xlink:title="Logger.h">
<polygon fill="none" stroke="black" points="256,-168.5 256,-187.5 310,-187.5 310,-168.5 256,-168.5"/>
<text text-anchor="middle" x="283" y="-175.5" font-family="Helvetica,sans-Serif" font-size="10.00">Logger.h</text>
</a>
</g>
</g>
<!-- Node1&#45;&gt;Node37 -->
<g id="edge57" class="edge"><title>Node1&#45;&gt;Node37</title>
<path fill="none" stroke="midnightblue" d="M503.042,-392.482C473.841,-385.718 436.391,-374.286 407,-356 348.547,-319.633 333.559,-304.11 300,-244 291.915,-229.519 287.567,-211.072 285.299,-197.532"/>
<polygon fill="midnightblue" stroke="midnightblue" points="288.744,-196.902 283.846,-187.507 281.816,-197.906 288.744,-196.902"/>
</g>
<!-- Node38 -->
<g id="node38" class="node"><title>Node38</title>
<g id="a_node38"><a xlink:href="FrameBuffer_8h.xhtml" target="_top" xlink:title="FrameBuffer.h">
<polygon fill="none" stroke="black" points="965.5,-168.5 965.5,-187.5 1044.5,-187.5 1044.5,-168.5 965.5,-168.5"/>
<text text-anchor="middle" x="1005" y="-175.5" font-family="Helvetica,sans-Serif" font-size="10.00">FrameBuffer.h</text>
</a>
</g>
</g>
<!-- Node1&#45;&gt;Node38 -->
<g id="edge53" class="edge"><title>Node1&#45;&gt;Node38</title>
<path fill="none" stroke="midnightblue" d="M567.558,-392.433C637.152,-358.478 893.915,-233.2 978.085,-192.132"/>
<polygon fill="midnightblue" stroke="midnightblue" points="979.797,-195.191 987.249,-187.661 976.727,-188.9 979.797,-195.191"/>
</g>
<!-- Node3 -->
<g id="node3" class="node"><title>Node3</title>
<g id="a_node3"><a xlink:href="Streamer_8h.xhtml" target="_top" xlink:title="Streamer.h">
<polygon fill="none" stroke="black" points="411.5,-280.5 411.5,-299.5 476.5,-299.5 476.5,-280.5 411.5,-280.5"/>
<text text-anchor="middle" x="444" y="-287.5" font-family="Helvetica,sans-Serif" font-size="10.00">Streamer.h</text>
</a>
</g>
</g>
<!-- Node2&#45;&gt;Node3 -->
<g id="edge2" class="edge"><title>Node2&#45;&gt;Node3</title>
<path fill="none" stroke="midnightblue" d="M464.872,-336.083C461.486,-328.77 456.584,-318.181 452.381,-309.103"/>
<polygon fill="midnightblue" stroke="midnightblue" points="455.429,-307.355 448.051,-299.751 449.077,-310.296 455.429,-307.355"/>
</g>
<!-- Node2&#45;&gt;Node35 -->
<g id="edge43" class="edge"><title>Node2&#45;&gt;Node35</title>
<path fill="none" stroke="midnightblue" d="M479.604,-336.324C489.456,-328.263 504.351,-316.077 516.215,-306.369"/>
<polygon fill="midnightblue" stroke="midnightblue" points="518.68,-308.875 524.203,-299.834 514.247,-303.457 518.68,-308.875"/>
</g>
<!-- Node4 -->
<g id="node4" class="node"><title>Node4</title>
<g id="a_node4"><a xlink:href="Device_8h.xhtml" target="_top" xlink:title="Device.h">
<polygon fill="none" stroke="black" points="518,-168.5 518,-187.5 574,-187.5 574,-168.5 518,-168.5"/>
<text text-anchor="middle" x="546" y="-175.5" font-family="Helvetica,sans-Serif" font-size="10.00">Device.h</text>
</a>
</g>
</g>
<!-- Node3&#45;&gt;Node4 -->
<g id="edge3" class="edge"><title>Node3&#45;&gt;Node4</title>
<path fill="none" stroke="midnightblue" d="M452.004,-280.368C469.06,-261.974 509.214,-218.671 531.116,-195.052"/>
<polygon fill="midnightblue" stroke="midnightblue" points="533.8,-197.304 538.033,-187.591 528.668,-192.544 533.8,-197.304"/>
</g>
<!-- Node27 -->
<g id="node27" class="node"><title>Node27</title>
<g id="a_node27"><a xlink:href="Frame_8h.xhtml" target="_top" xlink:title="Frame.h">
<polygon fill="none" stroke="black" points="309.5,-224.5 309.5,-243.5 362.5,-243.5 362.5,-224.5 309.5,-224.5"/>
<text text-anchor="middle" x="336" y="-231.5" font-family="Helvetica,sans-Serif" font-size="10.00">Frame.h</text>
</a>
</g>
</g>
<!-- Node3&#45;&gt;Node27 -->
<g id="edge27" class="edge"><title>Node3&#45;&gt;Node27</title>
<path fill="none" stroke="midnightblue" d="M426.648,-280.324C409.328,-271.664 382.485,-258.242 362.498,-248.249"/>
<polygon fill="midnightblue" stroke="midnightblue" points="363.819,-244.996 353.309,-243.655 360.688,-251.257 363.819,-244.996"/>
</g>
<!-- Node31 -->
<g id="node31" class="node"><title>Node31</title>
<g id="a_node31"><a xlink:href="VideoMode_8h.xhtml" target="_top" xlink:title="VideoMode.h">
<polygon fill="none" stroke="black" points="40,-168.5 40,-187.5 114,-187.5 114,-168.5 40,-168.5"/>
<text text-anchor="middle" x="77" y="-175.5" font-family="Helvetica,sans-Serif" font-size="10.00">VideoMode.h</text>
</a>
</g>
</g>
<!-- Node3&#45;&gt;Node31 -->
<g id="edge40" class="edge"><title>Node3&#45;&gt;Node31</title>
<path fill="none" stroke="midnightblue" d="M415.508,-280.46C350.122,-260.862 189.26,-212.647 115.313,-190.483"/>
<polygon fill="midnightblue" stroke="midnightblue" points="116.058,-187.053 105.474,-187.535 114.048,-193.758 116.058,-187.053"/>
</g>
<!-- Node34 -->
<g id="node34" class="node"><title>Node34</title>
<g id="a_node34"><a xlink:href="Timer_8h.xhtml" target="_top" xlink:title="Timer.h">
<polygon fill="none" stroke="black" points="419,-224.5 419,-243.5 469,-243.5 469,-224.5 419,-224.5"/>
<text text-anchor="middle" x="444" y="-231.5" font-family="Helvetica,sans-Serif" font-size="10.00">Timer.h</text>
</a>
</g>
</g>
<!-- Node3&#45;&gt;Node34 -->
<g id="edge41" class="edge"><title>Node3&#45;&gt;Node34</title>
<path fill="none" stroke="midnightblue" d="M444,-280.083C444,-273.006 444,-262.861 444,-253.986"/>
<polygon fill="midnightblue" stroke="midnightblue" points="447.5,-253.751 444,-243.751 440.5,-253.751 447.5,-253.751"/>
</g>
<!-- Node5 -->
<g id="node5" class="node"><title>Node5</title>
<g id="a_node5"><a xlink:href="Common_8h.xhtml" target="_top" xlink:title="Common.h">
<polygon fill="none" stroke="black" points="505.5,-112.5 505.5,-131.5 570.5,-131.5 570.5,-112.5 505.5,-112.5"/>
<text text-anchor="middle" x="538" y="-119.5" font-family="Helvetica,sans-Serif" font-size="10.00">Common.h</text>
</a>
</g>
</g>
<!-- Node4&#45;&gt;Node5 -->
<g id="edge4" class="edge"><title>Node4&#45;&gt;Node5</title>
<path fill="none" stroke="midnightblue" d="M544.679,-168.083C543.619,-160.927 542.094,-150.635 540.769,-141.691"/>
<polygon fill="midnightblue" stroke="midnightblue" points="544.224,-141.13 539.296,-131.751 537.3,-142.156 544.224,-141.13"/>
</g>
<!-- Node11 -->
<g id="node11" class="node"><title>Node11</title>
<polygon fill="none" stroke="#bfbfbf" points="67,-56.5 67,-75.5 119,-75.5 119,-56.5 67,-56.5"/>
<text text-anchor="middle" x="93" y="-63.5" font-family="Helvetica,sans-Serif" font-size="10.00">sstream</text>
</g>
<!-- Node4&#45;&gt;Node11 -->
<g id="edge26" class="edge"><title>Node4&#45;&gt;Node11</title>
<path fill="none" stroke="midnightblue" d="M531.803,-168.398C507.567,-154.15 456.241,-125.851 409,-112 291.245,-77.4736 253.563,-98.5863 129.194,-75.9916"/>
<polygon fill="midnightblue" stroke="midnightblue" points="129.768,-72.5383 119.294,-74.1349 128.477,-79.4183 129.768,-72.5383"/>
</g>
<!-- Node6 -->
<g id="node6" class="node"><title>Node6</title>
<polygon fill="none" stroke="#bfbfbf" points="1018,-56.5 1018,-75.5 1062,-75.5 1062,-56.5 1018,-56.5"/>
<text text-anchor="middle" x="1040" y="-63.5" font-family="Helvetica,sans-Serif" font-size="10.00">vector</text>
</g>
<!-- Node5&#45;&gt;Node6 -->
<g id="edge5" class="edge"><title>Node5&#45;&gt;Node6</title>
<path fill="none" stroke="midnightblue" d="M570.759,-119.877C646.222,-116.861 838.147,-106.747 1007.88,-75.6442"/>
<polygon fill="midnightblue" stroke="midnightblue" points="1008.55,-79.08 1017.74,-73.809 1007.27,-72.1982 1008.55,-79.08"/>
</g>
<!-- Node7 -->
<g id="node7" class="node"><title>Node7</title>
<polygon fill="none" stroke="#bfbfbf" points="-0.5,-56.5 -0.5,-75.5 48.5,-75.5 48.5,-56.5 -0.5,-56.5"/>
<text text-anchor="middle" x="24" y="-63.5" font-family="Helvetica,sans-Serif" font-size="10.00">stdint.h</text>
</g>
<!-- Node5&#45;&gt;Node7 -->
<g id="edge6" class="edge"><title>Node5&#45;&gt;Node7</title>
<path fill="none" stroke="midnightblue" d="M505.456,-118.655C415.193,-112.042 162.1,-92.7393 58.8696,-75.8012"/>
<polygon fill="midnightblue" stroke="midnightblue" points="59.2253,-72.311 48.7767,-74.065 58.0385,-79.2097 59.2253,-72.311"/>
</g>
<!-- Node8 -->
<g id="node8" class="node"><title>Node8</title>
<polygon fill="none" stroke="#bfbfbf" points="1080.5,-56.5 1080.5,-75.5 1121.5,-75.5 1121.5,-56.5 1080.5,-56.5"/>
<text text-anchor="middle" x="1101" y="-63.5" font-family="Helvetica,sans-Serif" font-size="10.00">string</text>
</g>
<!-- Node5&#45;&gt;Node8 -->
<g id="edge7" class="edge"><title>Node5&#45;&gt;Node8</title>
<path fill="none" stroke="midnightblue" d="M570.685,-120.481C654.416,-118.669 883.173,-110.667 1070,-76 1070.21,-75.9604 1070.43,-75.9199 1070.64,-75.8786"/>
<polygon fill="midnightblue" stroke="midnightblue" points="1071.52,-79.2676 1080.46,-73.5799 1069.93,-72.4519 1071.52,-79.2676"/>
</g>
<!-- Node9 -->
<g id="node9" class="node"><title>Node9</title>
<polygon fill="none" stroke="#bfbfbf" points="137,-56.5 137,-75.5 191,-75.5 191,-56.5 137,-56.5"/>
<text text-anchor="middle" x="164" y="-63.5" font-family="Helvetica,sans-Serif" font-size="10.00">iostream</text>
</g>
<!-- Node5&#45;&gt;Node9 -->
<g id="edge8" class="edge"><title>Node5&#45;&gt;Node9</title>
<path fill="none" stroke="midnightblue" d="M505.286,-116.596C494.382,-115.13 482.168,-113.492 471,-112 353.743,-96.3362 321.058,-98.633 201.003,-76.0055"/>
<polygon fill="midnightblue" stroke="midnightblue" points="201.532,-72.5434 191.054,-74.1115 200.223,-79.4199 201.532,-72.5434"/>
</g>
<!-- Node10 -->
<g id="node10" class="node"><title>Node10</title>
<polygon fill="none" stroke="#bfbfbf" points="1140,-56.5 1140,-75.5 1190,-75.5 1190,-56.5 1140,-56.5"/>
<text text-anchor="middle" x="1165" y="-63.5" font-family="Helvetica,sans-Serif" font-size="10.00">fstream</text>
</g>
<!-- Node5&#45;&gt;Node10 -->
<g id="edge9" class="edge"><title>Node5&#45;&gt;Node10</title>
<path fill="none" stroke="midnightblue" d="M570.647,-120.528C660.487,-118.797 918.729,-110.914 1130,-76 1130.1,-75.9834 1130.2,-75.9666 1130.3,-75.9497"/>
<polygon fill="midnightblue" stroke="midnightblue" points="1130.76,-79.4269 1139.88,-74.0235 1129.38,-72.5644 1130.76,-79.4269"/>
</g>
<!-- Node5&#45;&gt;Node11 -->
<g id="edge10" class="edge"><title>Node5&#45;&gt;Node11</title>
<path fill="none" stroke="midnightblue" d="M505.309,-116.416C494.406,-114.938 482.187,-113.338 471,-112 322.073,-94.1858 280.625,-102.77 129.404,-76.0144"/>
<polygon fill="midnightblue" stroke="midnightblue" points="129.743,-72.5195 119.282,-74.2003 128.508,-79.4097 129.743,-72.5195"/>
</g>
<!-- Node12 -->
<g id="node12" class="node"><title>Node12</title>
<polygon fill="none" stroke="#bfbfbf" points="1208.5,-56.5 1208.5,-75.5 1291.5,-75.5 1291.5,-56.5 1208.5,-56.5"/>
<text text-anchor="middle" x="1250" y="-63.5" font-family="Helvetica,sans-Serif" font-size="10.00">unordered_map</text>
</g>
<!-- Node5&#45;&gt;Node12 -->
<g id="edge11" class="edge"><title>Node5&#45;&gt;Node12</title>
<path fill="none" stroke="midnightblue" d="M570.786,-120.006C666.023,-116.858 951.006,-105.582 1198.05,-75.9731"/>
<polygon fill="midnightblue" stroke="midnightblue" points="1198.8,-79.4086 1208.31,-74.7313 1197.96,-72.4594 1198.8,-79.4086"/>
</g>
<!-- Node13 -->
<g id="node13" class="node"><title>Node13</title>
<polygon fill="none" stroke="#bfbfbf" points="271.5,-56.5 271.5,-75.5 330.5,-75.5 330.5,-56.5 271.5,-56.5"/>
<text text-anchor="middle" x="301" y="-63.5" font-family="Helvetica,sans-Serif" font-size="10.00">functional</text>
</g>
<!-- Node5&#45;&gt;Node13 -->
<g id="edge12" class="edge"><title>Node5&#45;&gt;Node13</title>
<path fill="none" stroke="midnightblue" d="M505.228,-113.696C467.694,-105.308 404.091,-91.022 340.632,-76.363"/>
<polygon fill="midnightblue" stroke="midnightblue" points="341.396,-72.9473 330.864,-74.1033 339.818,-79.7672 341.396,-72.9473"/>
</g>
<!-- Node14 -->
<g id="node14" class="node"><title>Node14</title>
<polygon fill="none" stroke="#bfbfbf" points="348.5,-56.5 348.5,-75.5 377.5,-75.5 377.5,-56.5 348.5,-56.5"/>
<text text-anchor="middle" x="363" y="-63.5" font-family="Helvetica,sans-Serif" font-size="10.00">list</text>
</g>
<!-- Node5&#45;&gt;Node14 -->
<g id="edge13" class="edge"><title>Node5&#45;&gt;Node14</title>
<path fill="none" stroke="midnightblue" d="M507.149,-112.482C478.468,-104.414 434.377,-91.6379 387.41,-75.9632"/>
<polygon fill="midnightblue" stroke="midnightblue" points="388.26,-72.5565 377.666,-72.6829 386.026,-79.1906 388.26,-72.5565"/>
</g>
<!-- Node15 -->
<g id="node15" class="node"><title>Node15</title>
<polygon fill="none" stroke="#bfbfbf" points="396,-56.5 396,-75.5 426,-75.5 426,-56.5 396,-56.5"/>
<text text-anchor="middle" x="411" y="-63.5" font-family="Helvetica,sans-Serif" font-size="10.00">set</text>
</g>
<!-- Node5&#45;&gt;Node15 -->
<g id="edge14" class="edge"><title>Node5&#45;&gt;Node15</title>
<path fill="none" stroke="midnightblue" d="M517.876,-112.444C495.6,-102.972 459.68,-87.6987 435.712,-77.5075"/>
<polygon fill="midnightblue" stroke="midnightblue" points="436.818,-74.1747 426.246,-73.4826 434.079,-80.6166 436.818,-74.1747"/>
</g>
<!-- Node16 -->
<g id="node16" class="node"><title>Node16</title>
<polygon fill="none" stroke="#bfbfbf" points="444,-56.5 444,-75.5 490,-75.5 490,-56.5 444,-56.5"/>
<text text-anchor="middle" x="467" y="-63.5" font-family="Helvetica,sans-Serif" font-size="10.00">atomic</text>
</g>
<!-- Node5&#45;&gt;Node16 -->
<g id="edge15" class="edge"><title>Node5&#45;&gt;Node16</title>
<path fill="none" stroke="midnightblue" d="M526.593,-112.324C515.891,-104.185 499.659,-91.8395 486.837,-82.0874"/>
<polygon fill="midnightblue" stroke="midnightblue" points="488.693,-79.1018 478.615,-75.8339 484.456,-84.6734 488.693,-79.1018"/>
</g>
<!-- Node17 -->
<g id="node17" class="node"><title>Node17</title>
<polygon fill="none" stroke="#bfbfbf" points="508,-56.5 508,-75.5 554,-75.5 554,-56.5 508,-56.5"/>
<text text-anchor="middle" x="531" y="-63.5" font-family="Helvetica,sans-Serif" font-size="10.00">cctype</text>
</g>
<!-- Node5&#45;&gt;Node17 -->
<g id="edge16" class="edge"><title>Node5&#45;&gt;Node17</title>
<path fill="none" stroke="midnightblue" d="M536.844,-112.083C535.916,-104.927 534.582,-94.6353 533.423,-85.6911"/>
<polygon fill="midnightblue" stroke="midnightblue" points="536.891,-85.2181 532.134,-75.7511 529.949,-86.1181 536.891,-85.2181"/>
</g>
<!-- Node18 -->
<g id="node18" class="node"><title>Node18</title>
<polygon fill="none" stroke="#bfbfbf" points="1310,-56.5 1310,-75.5 1366,-75.5 1366,-56.5 1310,-56.5"/>
<text text-anchor="middle" x="1338" y="-63.5" font-family="Helvetica,sans-Serif" font-size="10.00">algorithm</text>
</g>
<!-- Node5&#45;&gt;Node18 -->
<g id="edge17" class="edge"><title>Node5&#45;&gt;Node18</title>
<path fill="none" stroke="midnightblue" d="M570.844,-119.821C697.722,-115.148 1155.94,-97.1505 1300,-76 1300.1,-75.9852 1300.2,-75.9703 1300.3,-75.9553"/>
<polygon fill="midnightblue" stroke="midnightblue" points="1300.66,-79.4471 1309.88,-74.2333 1299.42,-72.5575 1300.66,-79.4471"/>
</g>
<!-- Node19 -->
<g id="node19" class="node"><title>Node19</title>
<polygon fill="none" stroke="#bfbfbf" points="572.5,-56.5 572.5,-75.5 625.5,-75.5 625.5,-56.5 572.5,-56.5"/>
<text text-anchor="middle" x="599" y="-63.5" font-family="Helvetica,sans-Serif" font-size="10.00">complex</text>
</g>
<!-- Node5&#45;&gt;Node19 -->
<g id="edge18" class="edge"><title>Node5&#45;&gt;Node19</title>
<path fill="none" stroke="midnightblue" d="M547.801,-112.324C556.818,-104.341 570.406,-92.3128 581.318,-82.6529"/>
<polygon fill="midnightblue" stroke="midnightblue" points="583.853,-85.083 589.021,-75.8339 579.213,-79.8416 583.853,-85.083"/>
</g>
<!-- Node20 -->
<g id="node20" class="node"><title>Node20</title>
<polygon fill="none" stroke="#bfbfbf" points="209,-56.5 209,-75.5 253,-75.5 253,-56.5 209,-56.5"/>
<text text-anchor="middle" x="231" y="-63.5" font-family="Helvetica,sans-Serif" font-size="10.00">thread</text>
</g>
<!-- Node5&#45;&gt;Node20 -->
<g id="edge19" class="edge"><title>Node5&#45;&gt;Node20</title>
<path fill="none" stroke="midnightblue" d="M505.358,-116.185C446.298,-107.395 322.977,-88.6587 263.3,-76.021"/>
<polygon fill="midnightblue" stroke="midnightblue" points="263.786,-72.5441 253.267,-73.814 262.282,-79.3807 263.786,-72.5441"/>
</g>
<!-- Node21 -->
<g id="node21" class="node"><title>Node21</title>
<g id="a_node21"><a xlink:href="Ptr_8h.xhtml" target="_top" xlink:title="Ptr.h">
<polygon fill="none" stroke="black" points="1384,-56.5 1384,-75.5 1422,-75.5 1422,-56.5 1384,-56.5"/>
<text text-anchor="middle" x="1403" y="-63.5" font-family="Helvetica,sans-Serif" font-size="10.00">Ptr.h</text>
</a>
</g>
</g>
<!-- Node5&#45;&gt;Node21 -->
<g id="edge20" class="edge"><title>Node5&#45;&gt;Node21</title>
<path fill="none" stroke="midnightblue" d="M570.824,-120.316C705.438,-117.343 1215.55,-104.399 1374,-76 1374.1,-75.982 1374.2,-75.9637 1374.3,-75.9452"/>
<polygon fill="midnightblue" stroke="midnightblue" points="1374.9,-79.3997 1383.82,-73.6786 1373.28,-72.5901 1374.9,-79.3997"/>
</g>
<!-- Node23 -->
<g id="node23" class="node"><title>Node23</title>
<polygon fill="none" stroke="#bfbfbf" points="644,-56.5 644,-75.5 688,-75.5 688,-56.5 644,-56.5"/>
<text text-anchor="middle" x="666" y="-63.5" font-family="Helvetica,sans-Serif" font-size="10.00">mutex</text>
</g>
<!-- Node5&#45;&gt;Node23 -->
<g id="edge22" class="edge"><title>Node5&#45;&gt;Node23</title>
<path fill="none" stroke="midnightblue" d="M558.282,-112.444C579.347,-103.557 612.517,-89.5632 636.486,-79.4514"/>
<polygon fill="midnightblue" stroke="midnightblue" points="637.96,-82.6283 645.813,-75.5164 635.239,-76.1787 637.96,-82.6283"/>
</g>
<!-- Node24 -->
<g id="node24" class="node"><title>Node24</title>
<polygon fill="none" stroke="#bfbfbf" points="706.5,-56.5 706.5,-75.5 801.5,-75.5 801.5,-56.5 706.5,-56.5"/>
<text text-anchor="middle" x="754" y="-63.5" font-family="Helvetica,sans-Serif" font-size="10.00">condition_variable</text>
</g>
<!-- Node5&#45;&gt;Node24 -->
<g id="edge23" class="edge"><title>Node5&#45;&gt;Node24</title>
<path fill="none" stroke="midnightblue" d="M570.806,-112.799C607.984,-103.504 668.765,-88.3088 710.029,-77.9928"/>
<polygon fill="midnightblue" stroke="midnightblue" points="710.961,-81.3676 719.813,-75.5467 709.263,-74.5766 710.961,-81.3676"/>
</g>
<!-- Node25 -->
<g id="node25" class="node"><title>Node25</title>
<polygon fill="none" stroke="#bfbfbf" points="820,-56.5 820,-75.5 898,-75.5 898,-56.5 820,-56.5"/>
<text text-anchor="middle" x="859" y="-63.5" font-family="Helvetica,sans-Serif" font-size="10.00">VoxelConfig.h</text>
</g>
<!-- Node5&#45;&gt;Node25 -->
<g id="edge24" class="edge"><title>Node5&#45;&gt;Node25</title>
<path fill="none" stroke="midnightblue" d="M570.689,-115.783C621.797,-107.584 723.713,-91.0608 810,-76 810.101,-75.9823 810.202,-75.9646 810.304,-75.9469"/>
<polygon fill="midnightblue" stroke="midnightblue" points="810.727,-79.4266 819.962,-74.2345 809.505,-72.5341 810.727,-79.4266"/>
</g>
<!-- Node26 -->
<g id="node26" class="node"><title>Node26</title>
<polygon fill="none" stroke="#bfbfbf" points="916.5,-56.5 916.5,-75.5 999.5,-75.5 999.5,-56.5 916.5,-56.5"/>
<text text-anchor="middle" x="958" y="-63.5" font-family="Helvetica,sans-Serif" font-size="10.00">VoxelExports.h</text>
</g>
<!-- Node5&#45;&gt;Node26 -->
<g id="edge25" class="edge"><title>Node5&#45;&gt;Node26</title>
<path fill="none" stroke="midnightblue" d="M570.657,-117.609C633.473,-110.959 775.702,-95.2866 906.114,-76.0588"/>
<polygon fill="midnightblue" stroke="midnightblue" points="906.904,-79.48 916.281,-74.5489 905.875,-72.5559 906.904,-79.48"/>
</g>
<!-- Node22 -->
<g id="node22" class="node"><title>Node22</title>
<polygon fill="none" stroke="#bfbfbf" points="1377,-0.5 1377,-19.5 1429,-19.5 1429,-0.5 1377,-0.5"/>
<text text-anchor="middle" x="1403" y="-7.5" font-family="Helvetica,sans-Serif" font-size="10.00">memory</text>
</g>
<!-- Node21&#45;&gt;Node22 -->
<g id="edge21" class="edge"><title>Node21&#45;&gt;Node22</title>
<path fill="none" stroke="midnightblue" d="M1403,-56.083C1403,-49.0059 1403,-38.8611 1403,-29.9865"/>
<polygon fill="midnightblue" stroke="midnightblue" points="1406.5,-29.751 1403,-19.7511 1399.5,-29.7511 1406.5,-29.751"/>
</g>
<!-- Node27&#45;&gt;Node5 -->
<g id="edge28" class="edge"><title>Node27&#45;&gt;Node5</title>
<path fill="none" stroke="midnightblue" d="M356.41,-224.383C376.282,-215.796 407.18,-201.916 433,-188 462.921,-171.874 496.052,-150.792 516.942,-137.078"/>
<polygon fill="midnightblue" stroke="midnightblue" points="518.949,-139.947 525.362,-131.513 515.089,-134.107 518.949,-139.947"/>
</g>
<!-- Node27&#45;&gt;Node11 -->
<g id="edge39" class="edge"><title>Node27&#45;&gt;Node11</title>
<path fill="none" stroke="midnightblue" d="M312.402,-224.433C293.43,-216.793 266.773,-204.299 247,-188 214.004,-160.801 221.344,-138.772 188,-112 170.308,-97.7944 147.393,-86.7731 128.502,-79.1937"/>
<polygon fill="midnightblue" stroke="midnightblue" points="129.628,-75.8769 119.039,-75.5452 127.11,-82.4083 129.628,-75.8769"/>
</g>
<!-- Node28 -->
<g id="node28" class="node"><title>Node28</title>
<g id="a_node28"><a xlink:href="Point_8h.xhtml" target="_top" xlink:title="Point.h">
<polygon fill="none" stroke="black" points="132.5,-168.5 132.5,-187.5 179.5,-187.5 179.5,-168.5 132.5,-168.5"/>
<text text-anchor="middle" x="156" y="-175.5" font-family="Helvetica,sans-Serif" font-size="10.00">Point.h</text>
</a>
</g>
</g>
<!-- Node27&#45;&gt;Node28 -->
<g id="edge29" class="edge"><title>Node27&#45;&gt;Node28</title>
<path fill="none" stroke="midnightblue" d="M309.44,-225.032C277.487,-215.446 223.826,-199.348 189.177,-188.953"/>
<polygon fill="midnightblue" stroke="midnightblue" points="190.096,-185.575 179.512,-186.053 188.084,-192.279 190.096,-185.575"/>
</g>
<!-- Node27&#45;&gt;Node31 -->
<g id="edge33" class="edge"><title>Node27&#45;&gt;Node31</title>
<path fill="none" stroke="midnightblue" d="M309.258,-227.424C265.668,-218.336 178.726,-200.209 124.46,-188.895"/>
<polygon fill="midnightblue" stroke="midnightblue" points="124.899,-185.411 114.395,-186.797 123.47,-192.264 124.899,-185.411"/>
</g>
<!-- Node32 -->
<g id="node32" class="node"><title>Node32</title>
<g id="a_node32"><a xlink:href="SerializedObject_8h.xhtml" target="_top" xlink:title="SerializedObject.h">
<polygon fill="none" stroke="black" points="328,-168.5 328,-187.5 424,-187.5 424,-168.5 328,-168.5"/>
<text text-anchor="middle" x="376" y="-175.5" font-family="Helvetica,sans-Serif" font-size="10.00">SerializedObject.h</text>
</a>
</g>
</g>
<!-- Node27&#45;&gt;Node32 -->
<g id="edge35" class="edge"><title>Node27&#45;&gt;Node32</title>
<path fill="none" stroke="midnightblue" d="M342.605,-224.083C348.255,-216.455 356.545,-205.264 363.451,-195.941"/>
<polygon fill="midnightblue" stroke="midnightblue" points="366.378,-197.87 369.518,-187.751 360.753,-193.703 366.378,-197.87"/>
</g>
<!-- Node28&#45;&gt;Node5 -->
<g id="edge32" class="edge"><title>Node28&#45;&gt;Node5</title>
<path fill="none" stroke="midnightblue" d="M179.608,-173.663C242.423,-164.783 414.357,-140.478 495.077,-129.068"/>
<polygon fill="midnightblue" stroke="midnightblue" points="495.969,-132.476 505.38,-127.611 494.989,-125.545 495.969,-132.476"/>
</g>
<!-- Node29 -->
<g id="node29" class="node"><title>Node29</title>
<polygon fill="none" stroke="#bfbfbf" points="52.5,-112.5 52.5,-131.5 99.5,-131.5 99.5,-112.5 52.5,-112.5"/>
<text text-anchor="middle" x="76" y="-119.5" font-family="Helvetica,sans-Serif" font-size="10.00">math.h</text>
</g>
<!-- Node28&#45;&gt;Node29 -->
<g id="edge30" class="edge"><title>Node28&#45;&gt;Node29</title>
<path fill="none" stroke="midnightblue" d="M143.147,-168.324C130.784,-159.979 111.87,-147.212 97.2628,-137.352"/>
<polygon fill="midnightblue" stroke="midnightblue" points="99.0682,-134.348 88.8215,-131.655 95.1518,-140.15 99.0682,-134.348"/>
</g>
<!-- Node30 -->
<g id="node30" class="node"><title>Node30</title>
<polygon fill="none" stroke="#bfbfbf" points="118,-112.5 118,-131.5 180,-131.5 180,-112.5 118,-112.5"/>
<text text-anchor="middle" x="149" y="-119.5" font-family="Helvetica,sans-Serif" font-size="10.00">type_traits</text>
</g>
<!-- Node28&#45;&gt;Node30 -->
<g id="edge31" class="edge"><title>Node28&#45;&gt;Node30</title>
<path fill="none" stroke="midnightblue" d="M154.844,-168.083C153.916,-160.927 152.582,-150.635 151.423,-141.691"/>
<polygon fill="midnightblue" stroke="midnightblue" points="154.891,-141.218 150.134,-131.751 147.949,-142.118 154.891,-141.218"/>
</g>
<!-- Node31&#45;&gt;Node7 -->
<g id="edge34" class="edge"><title>Node31&#45;&gt;Node7</title>
<path fill="none" stroke="midnightblue" d="M68.9215,-168.343C61.2704,-159.725 49.9474,-145.823 43,-132 35.5756,-117.228 30.5746,-99.071 27.575,-85.7057"/>
<polygon fill="midnightblue" stroke="midnightblue" points="30.9753,-84.8657 25.5167,-75.7853 24.1213,-86.2878 30.9753,-84.8657"/>
</g>
<!-- Node32&#45;&gt;Node5 -->
<g id="edge36" class="edge"><title>Node32&#45;&gt;Node5</title>
<path fill="none" stroke="midnightblue" d="M401.669,-168.444C428.923,-159.359 472.184,-144.939 502.651,-134.783"/>
<polygon fill="midnightblue" stroke="midnightblue" points="504.071,-137.999 512.451,-131.516 501.857,-131.358 504.071,-137.999"/>
</g>
<!-- Node32&#45;&gt;Node18 -->
<g id="edge38" class="edge"><title>Node32&#45;&gt;Node18</title>
<path fill="none" stroke="midnightblue" d="M424.39,-173.831C562.096,-164.357 967.635,-133.298 1300,-76 1300.1,-75.9827 1300.2,-75.9653 1300.3,-75.9479"/>
<polygon fill="midnightblue" stroke="midnightblue" points="1300.72,-79.4328 1309.86,-74.0745 1299.37,-72.5635 1300.72,-79.4328"/>
</g>
<!-- Node33 -->
<g id="node33" class="node"><title>Node33</title>
<polygon fill="none" stroke="#bfbfbf" points="351.5,-112.5 351.5,-131.5 400.5,-131.5 400.5,-112.5 351.5,-112.5"/>
<text text-anchor="middle" x="376" y="-119.5" font-family="Helvetica,sans-Serif" font-size="10.00">string.h</text>
</g>
<!-- Node32&#45;&gt;Node33 -->
<g id="edge37" class="edge"><title>Node32&#45;&gt;Node33</title>
<path fill="none" stroke="midnightblue" d="M376,-168.083C376,-161.006 376,-150.861 376,-141.986"/>
<polygon fill="midnightblue" stroke="midnightblue" points="379.5,-141.751 376,-131.751 372.5,-141.751 379.5,-141.751"/>
</g>
<!-- Node34&#45;&gt;Node5 -->
<g id="edge42" class="edge"><title>Node34&#45;&gt;Node5</title>
<path fill="none" stroke="midnightblue" d="M451.376,-224.368C467.026,-206.055 503.776,-163.049 524.018,-139.362"/>
<polygon fill="midnightblue" stroke="midnightblue" points="526.823,-141.468 530.658,-131.591 521.501,-136.92 526.823,-141.468"/>
</g>
<!-- Node35&#45;&gt;Node4 -->
<g id="edge44" class="edge"><title>Node35&#45;&gt;Node4</title>
<path fill="none" stroke="midnightblue" d="M535.863,-280.368C537.638,-262.617 541.733,-221.666 544.14,-197.597"/>
<polygon fill="midnightblue" stroke="midnightblue" points="547.628,-197.89 545.141,-187.591 540.663,-197.193 547.628,-197.89"/>
</g>
<!-- Node35&#45;&gt;Node36 -->
<g id="edge45" class="edge"><title>Node35&#45;&gt;Node36</title>
<path fill="none" stroke="midnightblue" d="M545.925,-280.324C556.175,-272.185 571.721,-259.839 584.001,-250.087"/>
<polygon fill="midnightblue" stroke="midnightblue" points="586.221,-252.794 591.876,-243.834 581.868,-247.312 586.221,-252.794"/>
</g>
<!-- Node35&#45;&gt;Node37 -->
<g id="edge48" class="edge"><title>Node35&#45;&gt;Node37</title>
<path fill="none" stroke="midnightblue" d="M508.279,-280.487C482.704,-272.082 443.215,-258.424 410,-244 392.133,-236.241 388.338,-232.879 371,-224 350.123,-213.309 326.453,-201.206 308.923,-192.246"/>
<polygon fill="midnightblue" stroke="midnightblue" points="310.37,-189.055 299.873,-187.621 307.185,-195.288 310.37,-189.055"/>
</g>
<!-- Node36&#45;&gt;Node4 -->
<g id="edge47" class="edge"><title>Node36&#45;&gt;Node4</title>
<path fill="none" stroke="midnightblue" d="M593.842,-224.324C585.499,-216.42 572.968,-204.548 562.823,-194.938"/>
<polygon fill="midnightblue" stroke="midnightblue" points="564.991,-192.171 555.325,-187.834 560.177,-197.252 564.991,-192.171"/>
</g>
<!-- Node36&#45;&gt;Node5 -->
<g id="edge46" class="edge"><title>Node36&#45;&gt;Node5</title>
<path fill="none" stroke="midnightblue" d="M601.547,-224.478C599.065,-211.534 593.158,-186.475 582,-168 575.253,-156.829 565.224,-146.287 556.444,-138.218"/>
<polygon fill="midnightblue" stroke="midnightblue" points="558.685,-135.527 548.862,-131.556 554.065,-140.786 558.685,-135.527"/>
</g>
<!-- Node37&#45;&gt;Node5 -->
<g id="edge52" class="edge"><title>Node37&#45;&gt;Node5</title>
<path fill="none" stroke="midnightblue" d="M310.097,-170.095C313.097,-169.37 316.11,-168.658 319,-168 380.095,-154.093 451.219,-139.832 495.432,-131.193"/>
<polygon fill="midnightblue" stroke="midnightblue" points="496.11,-134.627 505.256,-129.279 494.771,-127.756 496.11,-134.627"/>
</g>
<!-- Node37&#45;&gt;Node9 -->
<g id="edge49" class="edge"><title>Node37&#45;&gt;Node9</title>
<path fill="none" stroke="midnightblue" d="M282.075,-168.34C280.202,-154.759 274.791,-128.32 260,-112 244.35,-94.7318 220.699,-83.5373 200.788,-76.6325"/>
<polygon fill="midnightblue" stroke="midnightblue" points="201.665,-73.2378 191.074,-73.4916 199.512,-79.8983 201.665,-73.2378"/>
</g>
<!-- Node37&#45;&gt;Node11 -->
<g id="edge50" class="edge"><title>Node37&#45;&gt;Node11</title>
<path fill="none" stroke="midnightblue" d="M276.904,-168.15C266.942,-154.309 245.875,-127.519 222,-112 206.365,-101.837 161.272,-87.1826 128.806,-77.3877"/>
<polygon fill="midnightblue" stroke="midnightblue" points="129.765,-74.0216 119.182,-74.5143 127.762,-80.729 129.765,-74.0216"/>
</g>
<!-- Node37&#45;&gt;Node20 -->
<g id="edge51" class="edge"><title>Node37&#45;&gt;Node20</title>
<path fill="none" stroke="midnightblue" d="M288.774,-168.079C296.406,-155.058 307.805,-130.397 298,-112 290.343,-97.6329 275.835,-87.0377 262.272,-79.7499"/>
<polygon fill="midnightblue" stroke="midnightblue" points="263.645,-76.5241 253.13,-75.2273 260.541,-82.7984 263.645,-76.5241"/>
</g>
<!-- Node38&#45;&gt;Node5 -->
<g id="edge55" class="edge"><title>Node38&#45;&gt;Node5</title>
<path fill="none" stroke="midnightblue" d="M965.184,-172.396C877.981,-162.313 670.746,-138.35 580.841,-127.954"/>
<polygon fill="midnightblue" stroke="midnightblue" points="581.064,-124.456 570.728,-126.784 580.26,-131.41 581.064,-124.456"/>
</g>
<!-- Node38&#45;&gt;Node18 -->
<g id="edge56" class="edge"><title>Node38&#45;&gt;Node18</title>
<path fill="none" stroke="midnightblue" d="M1030.85,-168.46C1089.87,-148.966 1234.59,-101.159 1302.16,-78.839"/>
<polygon fill="midnightblue" stroke="midnightblue" points="1303.54,-82.0704 1311.93,-75.6104 1301.34,-75.4237 1303.54,-82.0704"/>
</g>
<!-- Node38&#45;&gt;Node21 -->
<g id="edge54" class="edge"><title>Node38&#45;&gt;Node21</title>
<path fill="none" stroke="midnightblue" d="M1040.98,-168.488C1077.4,-159.759 1135.28,-145.574 1185,-132 1269.52,-108.926 1290.16,-101.429 1374,-76 1374.1,-75.9694 1374.2,-75.9387 1374.3,-75.908"/>
<polygon fill="midnightblue" stroke="midnightblue" points="1375.44,-79.2189 1383.98,-72.9413 1373.39,-72.5264 1375.44,-79.2189"/>
</g>
</g>
</svg>
        <g id="navigator" transform="translate(0 0)" fill="#404254">
                <rect fill="#f2f5e9" fill-opacity="0.5" stroke="#606060" stroke-width=".5" x="0" y="0" width="60" height="60"/>
                <use id="zoomplus" xlink:href="#zoomPlus" x="17" y="9" onmousedown="handleZoom(evt,'in')"/>
                <use id="zoomminus" xlink:href="#zoomMin" x="42" y="9" onmousedown="handleZoom(evt,'out')"/>
                <use id="reset" xlink:href="#resetDef" x="30" y="36" onmousedown="handleReset()"/>
                <g id="arrowUp" xlink:href="#dirArrow" transform="translate(30 24)" onmousedown="handlePan(0,-1)">
                  <use xlink:href="#rim" fill="#404040">
                        <set attributeName="fill" to="#808080" begin="arrowUp.mouseover" end="arrowUp.mouseout"/>
                  </use>
                  <path fill="none" stroke="white" stroke-width="1.5" d="M0,-3.0v7 M-2.5,-0.5L0,-3.0L2.5,-0.5"/>
                </g>
                <g id="arrowRight" xlink:href="#dirArrow" transform="rotate(90) translate(36 -43)" onmousedown="handlePan(1,0)">
                  <use xlink:href="#rim" fill="#404040">
                        <set attributeName="fill" to="#808080" begin="arrowRight.mouseover" end="arrowRight.mouseout"/>
                  </use>
                  <path fill="none" stroke="white" stroke-width="1.5" d="M0,-3.0v7 M-2.5,-0.5L0,-3.0L2.5,-0.5"/>
                </g>
                <g id="arrowDown" xlink:href="#dirArrow" transform="rotate(180) translate(-30 -48)" onmousedown="handlePan(0,1)">
                  <use xlink:href="#rim" fill="#404040">
                        <set attributeName="fill" to="#808080" begin="arrowDown.mouseover" end="arrowDown.mouseout"/>
                  </use>
                  <path fill="none" stroke="white" stroke-width="1.5" d="M0,-3.0v7 M-2.5,-0.5L0,-3.0L2.5,-0.5"/>
                </g>
                <g id="arrowLeft" xlink:href="#dirArrow" transform="rotate(270) translate(-36 17)" onmousedown="handlePan(-1,0)">
                  <use xlink:href="#rim" fill="#404040">
                        <set attributeName="fill" to="#808080" begin="arrowLeft.mouseover" end="arrowLeft.mouseout"/>
                  </use>
                  <path fill="none" stroke="white" stroke-width="1.5" d="M0,-3.0v7 M-2.5,-0.5L0,-3.0L2.5,-0.5"/>
                </g>
        </g>
        <svg viewBox="0 0 15 15" width="100%" height="30px" preserveAspectRatio="xMaxYMin meet">
         <g id="arrow_out" transform="scale(0.3 0.3)">
          <a xlink:href="USBBulkStreamer_8cpp__incl_org.svg" target="_base">
           <rect id="button" ry="5" rx="5" y="6" x="6" height="38" width="38"
                fill="#f2f5e9" fill-opacity="0.5" stroke="#606060" stroke-width="1.0"/>
           <path id="arrow"
             d="M 11.500037,31.436501 C 11.940474,20.09759 22.043105,11.32322 32.158766,21.979434 L 37.068811,17.246167 C 37.068811,17.246167 37.088388,32 37.088388,32 L 22.160133,31.978069 C 22.160133,31.978069 26.997745,27.140456 26.997745,27.140456 C 18.528582,18.264221 13.291696,25.230495 11.500037,31.436501 z"
             style="fill:#404040;"/>
          </a>
         </g>
        </svg>
</svg>
