<?xml version="1.0" encoding="UTF-8" standalone="no"?>
<!DOCTYPE svg PUBLIC "-//W3C//DTD SVG 1.1//EN"
 "http://www.w3.org/Graphics/SVG/1.1/DTD/svg11.dtd">
<!-- Generated by graphviz version 2.36.0 (20140111.2315)
 -->
<!-- Title: USBSystemPrivateWindows.h Pages: 1 -->
<!--zoomable 252 -->
<svg id="main" version="1.1" xmlns="http://www.w3.org/2000/svg" xmlns:xlink="http://www.w3.org/1999/xlink" xml:space="preserve" onload="init(evt)">
<style type="text/css"><![CDATA[
.edge:hover path { stroke: red; }
.edge:hover polygon { stroke: red; fill: red; }
]]></style>
<script type="text/javascript"><![CDATA[
var edges = document.getElementsByTagName('g');
if (edges && edges.length) {
  for (var i=0;i<edges.length;i++) {
    if (edges[i].id.substr(0,4)=='edge') {
      edges[i].setAttribute('class','edge');
    }
  }
}
]]></script>
        <defs>
                <circle id="rim" cx="0" cy="0" r="7"/>
                <circle id="rim2" cx="0" cy="0" r="3.5"/>
                <g id="zoomPlus">
                        <use xlink:href="#rim" fill="#404040">
                                <set attributeName="fill" to="#808080" begin="zoomplus.mouseover" end="zoomplus.mouseout"/>
                        </use>
                        <path d="M-4,0h8M0,-4v8" fill="none" stroke="white" stroke-width="1.5" pointer-events="none"/>
                </g>
                <g id="zoomMin">
                        <use xlink:href="#rim" fill="#404040">
                                <set attributeName="fill" to="#808080" begin="zoomminus.mouseover" end="zoomminus.mouseout"/>
                        </use>
                        <path d="M-4,0h8" fill="none" stroke="white" stroke-width="1.5" pointer-events="none"/>
                </g>
                <g id="dirArrow">
                        <path fill="none" stroke="white" stroke-width="1.5" d="M0,-3.0v7 M-2.5,-0.5L0,-3.0L2.5,-0.5"/>
                </g>
               <g id="resetDef">
                       <use xlink:href="#rim2" fill="#404040">
                               <set attributeName="fill" to="#808080" begin="reset.mouseover" end="reset.mouseout"/>
                       </use>
               </g>
        </defs>

<script type="text/javascript">
var viewWidth = 1428;
var viewHeight = 252;
var sectionId = 'dynsection-0';
</script>
<script xlink:href="svgpan.js"/>
<svg id="graph" class="graph">
<g id="viewport">
<title>USBSystemPrivateWindows.h</title>
<!-- Node1 -->
<g id="node1" class="node"><title>Node1</title>
<polygon fill="#bfbfbf" stroke="black" points="599.5,-224.5 599.5,-243.5 750.5,-243.5 750.5,-224.5 599.5,-224.5"/>
<text text-anchor="middle" x="675" y="-231.5" font-family="Helvetica,sans-Serif" font-size="10.00">USBSystemPrivateWindows.h</text>
</g>
<!-- Node2 -->
<g id="node2" class="node"><title>Node2</title>
<g id="a_node2"><a xlink:href="Device_8h.xhtml" target="_top" xlink:title="Device.h">
<polygon fill="none" stroke="black" points="443,-168.5 443,-187.5 499,-187.5 499,-168.5 443,-168.5"/>
<text text-anchor="middle" x="471" y="-175.5" font-family="Helvetica,sans-Serif" font-size="10.00">Device.h</text>
</a>
</g>
</g>
<!-- Node1&#45;&gt;Node2 -->
<g id="edge1" class="edge"><title>Node1&#45;&gt;Node2</title>
<path fill="none" stroke="midnightblue" d="M642.676,-224.444C606.373,-214.834 547.515,-199.254 509.03,-189.067"/>
<polygon fill="midnightblue" stroke="midnightblue" points="509.794,-185.649 499.231,-186.473 508.003,-192.415 509.794,-185.649"/>
</g>
<!-- Node25 -->
<g id="node25" class="node"><title>Node25</title>
<polygon fill="none" stroke="#bfbfbf" points="517.5,-168.5 517.5,-187.5 582.5,-187.5 582.5,-168.5 517.5,-168.5"/>
<text text-anchor="middle" x="550" y="-175.5" font-family="Helvetica,sans-Serif" font-size="10.00">Windows.h</text>
</g>
<!-- Node1&#45;&gt;Node25 -->
<g id="edge25" class="edge"><title>Node1&#45;&gt;Node25</title>
<path fill="none" stroke="midnightblue" d="M655.193,-224.444C634.713,-215.596 602.517,-201.687 579.135,-191.586"/>
<polygon fill="midnightblue" stroke="midnightblue" points="580.282,-188.269 569.714,-187.516 577.506,-194.695 580.282,-188.269"/>
</g>
<!-- Node26 -->
<g id="node26" class="node"><title>Node26</title>
<polygon fill="none" stroke="#bfbfbf" points="600.5,-168.5 600.5,-187.5 667.5,-187.5 667.5,-168.5 600.5,-168.5"/>
<text text-anchor="middle" x="634" y="-175.5" font-family="Helvetica,sans-Serif" font-size="10.00">SetupAPI.h</text>
</g>
<!-- Node1&#45;&gt;Node26 -->
<g id="edge26" class="edge"><title>Node1&#45;&gt;Node26</title>
<path fill="none" stroke="midnightblue" d="M668.23,-224.083C662.438,-216.455 653.942,-205.264 646.862,-195.941"/>
<polygon fill="midnightblue" stroke="midnightblue" points="649.479,-193.599 640.644,-187.751 643.904,-197.832 649.479,-193.599"/>
</g>
<!-- Node27 -->
<g id="node27" class="node"><title>Node27</title>
<polygon fill="none" stroke="#bfbfbf" points="686,-168.5 686,-187.5 748,-187.5 748,-168.5 686,-168.5"/>
<text text-anchor="middle" x="717" y="-175.5" font-family="Helvetica,sans-Serif" font-size="10.00">usbiodef.h</text>
</g>
<!-- Node1&#45;&gt;Node27 -->
<g id="edge27" class="edge"><title>Node1&#45;&gt;Node27</title>
<path fill="none" stroke="midnightblue" d="M681.935,-224.083C687.929,-216.377 696.752,-205.033 704.048,-195.653"/>
<polygon fill="midnightblue" stroke="midnightblue" points="706.817,-197.793 710.194,-187.751 701.291,-193.496 706.817,-197.793"/>
</g>
<!-- Node28 -->
<g id="node28" class="node"><title>Node28</title>
<polygon fill="none" stroke="#bfbfbf" points="766.5,-168.5 766.5,-187.5 823.5,-187.5 823.5,-168.5 766.5,-168.5"/>
<text text-anchor="middle" x="795" y="-175.5" font-family="Helvetica,sans-Serif" font-size="10.00">comdef.h</text>
</g>
<!-- Node1&#45;&gt;Node28 -->
<g id="edge28" class="edge"><title>Node1&#45;&gt;Node28</title>
<path fill="none" stroke="midnightblue" d="M694.014,-224.444C713.588,-215.636 744.308,-201.812 766.729,-191.722"/>
<polygon fill="midnightblue" stroke="midnightblue" points="768.392,-194.812 776.075,-187.516 765.519,-188.428 768.392,-194.812"/>
</g>
<!-- Node29 -->
<g id="node29" class="node"><title>Node29</title>
<polygon fill="none" stroke="#bfbfbf" points="841.5,-168.5 841.5,-187.5 900.5,-187.5 900.5,-168.5 841.5,-168.5"/>
<text text-anchor="middle" x="871" y="-175.5" font-family="Helvetica,sans-Serif" font-size="10.00">usbioctl.h</text>
</g>
<!-- Node1&#45;&gt;Node29 -->
<g id="edge29" class="edge"><title>Node1&#45;&gt;Node29</title>
<path fill="none" stroke="midnightblue" d="M706.057,-224.444C739.998,-215.092 794.461,-200.087 831.437,-189.9"/>
<polygon fill="midnightblue" stroke="midnightblue" points="832.66,-193.193 841.372,-187.163 830.801,-186.445 832.66,-193.193"/>
</g>
<!-- Node3 -->
<g id="node3" class="node"><title>Node3</title>
<g id="a_node3"><a xlink:href="Common_8h.xhtml" target="_top" xlink:title="Common.h">
<polygon fill="none" stroke="black" points="607.5,-112.5 607.5,-131.5 672.5,-131.5 672.5,-112.5 607.5,-112.5"/>
<text text-anchor="middle" x="640" y="-119.5" font-family="Helvetica,sans-Serif" font-size="10.00">Common.h</text>
</a>
</g>
</g>
<!-- Node2&#45;&gt;Node3 -->
<g id="edge2" class="edge"><title>Node2&#45;&gt;Node3</title>
<path fill="none" stroke="midnightblue" d="M497.779,-168.444C526.333,-159.32 571.733,-144.813 603.537,-134.651"/>
<polygon fill="midnightblue" stroke="midnightblue" points="604.886,-137.894 613.347,-131.516 602.756,-131.226 604.886,-137.894"/>
</g>
<!-- Node9 -->
<g id="node9" class="node"><title>Node9</title>
<polygon fill="none" stroke="#bfbfbf" points="0,-56.5 0,-75.5 52,-75.5 52,-56.5 0,-56.5"/>
<text text-anchor="middle" x="26" y="-63.5" font-family="Helvetica,sans-Serif" font-size="10.00">sstream</text>
</g>
<!-- Node2&#45;&gt;Node9 -->
<g id="edge24" class="edge"><title>Node2&#45;&gt;Node9</title>
<path fill="none" stroke="midnightblue" d="M442.642,-170.119C377.436,-154.275 211.579,-113.848 62.1815,-76.2804"/>
<polygon fill="midnightblue" stroke="midnightblue" points="62.9178,-72.8567 52.366,-73.8104 61.2095,-79.645 62.9178,-72.8567"/>
</g>
<!-- Node4 -->
<g id="node4" class="node"><title>Node4</title>
<polygon fill="none" stroke="#bfbfbf" points="70,-56.5 70,-75.5 114,-75.5 114,-56.5 70,-56.5"/>
<text text-anchor="middle" x="92" y="-63.5" font-family="Helvetica,sans-Serif" font-size="10.00">vector</text>
</g>
<!-- Node3&#45;&gt;Node4 -->
<g id="edge3" class="edge"><title>Node3&#45;&gt;Node4</title>
<path fill="none" stroke="midnightblue" d="M607.418,-120.271C526.957,-118.022 312.403,-109.301 124.324,-75.6633"/>
<polygon fill="midnightblue" stroke="midnightblue" points="124.719,-72.1778 114.255,-73.8336 123.468,-79.0651 124.719,-72.1778"/>
</g>
<!-- Node5 -->
<g id="node5" class="node"><title>Node5</title>
<polygon fill="none" stroke="#bfbfbf" points="132.5,-56.5 132.5,-75.5 181.5,-75.5 181.5,-56.5 132.5,-56.5"/>
<text text-anchor="middle" x="157" y="-63.5" font-family="Helvetica,sans-Serif" font-size="10.00">stdint.h</text>
</g>
<!-- Node3&#45;&gt;Node5 -->
<g id="edge4" class="edge"><title>Node3&#45;&gt;Node5</title>
<path fill="none" stroke="midnightblue" d="M607.355,-119.508C534.492,-115.8 353.011,-104.461 191.873,-75.8652"/>
<polygon fill="midnightblue" stroke="midnightblue" points="192.242,-72.3754 181.78,-74.0463 191.001,-79.2644 192.242,-72.3754"/>
</g>
<!-- Node6 -->
<g id="node6" class="node"><title>Node6</title>
<polygon fill="none" stroke="#bfbfbf" points="199.5,-56.5 199.5,-75.5 240.5,-75.5 240.5,-56.5 199.5,-56.5"/>
<text text-anchor="middle" x="220" y="-63.5" font-family="Helvetica,sans-Serif" font-size="10.00">string</text>
</g>
<!-- Node3&#45;&gt;Node6 -->
<g id="edge5" class="edge"><title>Node3&#45;&gt;Node6</title>
<path fill="none" stroke="midnightblue" d="M607.334,-119.185C541.522,-115.111 388.249,-103.515 250.429,-75.7114"/>
<polygon fill="midnightblue" stroke="midnightblue" points="251.034,-72.2626 240.534,-73.6814 249.627,-79.1198 251.034,-72.2626"/>
</g>
<!-- Node7 -->
<g id="node7" class="node"><title>Node7</title>
<polygon fill="none" stroke="#bfbfbf" points="259,-56.5 259,-75.5 313,-75.5 313,-56.5 259,-56.5"/>
<text text-anchor="middle" x="286" y="-63.5" font-family="Helvetica,sans-Serif" font-size="10.00">iostream</text>
</g>
<!-- Node3&#45;&gt;Node7 -->
<g id="edge6" class="edge"><title>Node3&#45;&gt;Node7</title>
<path fill="none" stroke="midnightblue" d="M607.31,-117.515C551.163,-111.284 432.642,-97.056 322.964,-76.0106"/>
<polygon fill="midnightblue" stroke="midnightblue" points="323.543,-72.5578 313.059,-74.0865 322.208,-79.4294 323.543,-72.5578"/>
</g>
<!-- Node8 -->
<g id="node8" class="node"><title>Node8</title>
<polygon fill="none" stroke="#bfbfbf" points="331,-56.5 331,-75.5 381,-75.5 381,-56.5 331,-56.5"/>
<text text-anchor="middle" x="356" y="-63.5" font-family="Helvetica,sans-Serif" font-size="10.00">fstream</text>
</g>
<!-- Node3&#45;&gt;Node8 -->
<g id="edge7" class="edge"><title>Node3&#45;&gt;Node8</title>
<path fill="none" stroke="midnightblue" d="M607.22,-115.858C559.459,-108.189 468.034,-92.8418 391,-76 390.9,-75.9782 390.801,-75.9564 390.701,-75.9344"/>
<polygon fill="midnightblue" stroke="midnightblue" points="391.717,-72.5776 381.183,-73.7094 390.123,-79.3939 391.717,-72.5776"/>
</g>
<!-- Node3&#45;&gt;Node9 -->
<g id="edge8" class="edge"><title>Node3&#45;&gt;Node9</title>
<path fill="none" stroke="midnightblue" d="M607.432,-120.451C520.368,-118.566 274.963,-110.502 62.3666,-75.9436"/>
<polygon fill="midnightblue" stroke="midnightblue" points="62.7048,-72.4522 52.2685,-74.2778 61.5654,-79.3588 62.7048,-72.4522"/>
</g>
<!-- Node10 -->
<g id="node10" class="node"><title>Node10</title>
<polygon fill="none" stroke="#bfbfbf" points="399.5,-56.5 399.5,-75.5 482.5,-75.5 482.5,-56.5 399.5,-56.5"/>
<text text-anchor="middle" x="441" y="-63.5" font-family="Helvetica,sans-Serif" font-size="10.00">unordered_map</text>
</g>
<!-- Node3&#45;&gt;Node10 -->
<g id="edge9" class="edge"><title>Node3&#45;&gt;Node10</title>
<path fill="none" stroke="midnightblue" d="M608.468,-112.444C574.408,-103.201 519.994,-88.4356 482.485,-78.2572"/>
<polygon fill="midnightblue" stroke="midnightblue" points="482.952,-74.7575 472.385,-75.5164 481.119,-81.5132 482.952,-74.7575"/>
</g>
<!-- Node11 -->
<g id="node11" class="node"><title>Node11</title>
<polygon fill="none" stroke="#bfbfbf" points="500.5,-56.5 500.5,-75.5 559.5,-75.5 559.5,-56.5 500.5,-56.5"/>
<text text-anchor="middle" x="530" y="-63.5" font-family="Helvetica,sans-Serif" font-size="10.00">functional</text>
</g>
<!-- Node3&#45;&gt;Node11 -->
<g id="edge10" class="edge"><title>Node3&#45;&gt;Node11</title>
<path fill="none" stroke="midnightblue" d="M622.327,-112.324C604.606,-103.625 577.097,-90.1202 556.712,-80.113"/>
<polygon fill="midnightblue" stroke="midnightblue" points="558.149,-76.9195 547.63,-75.6545 555.064,-83.2031 558.149,-76.9195"/>
</g>
<!-- Node12 -->
<g id="node12" class="node"><title>Node12</title>
<polygon fill="none" stroke="#bfbfbf" points="577.5,-56.5 577.5,-75.5 606.5,-75.5 606.5,-56.5 577.5,-56.5"/>
<text text-anchor="middle" x="592" y="-63.5" font-family="Helvetica,sans-Serif" font-size="10.00">list</text>
</g>
<!-- Node3&#45;&gt;Node12 -->
<g id="edge11" class="edge"><title>Node3&#45;&gt;Node12</title>
<path fill="none" stroke="midnightblue" d="M632.074,-112.083C625.154,-104.298 614.935,-92.8015 606.548,-83.3665"/>
<polygon fill="midnightblue" stroke="midnightblue" points="609.038,-80.8999 599.779,-75.7511 603.806,-85.5505 609.038,-80.8999"/>
</g>
<!-- Node13 -->
<g id="node13" class="node"><title>Node13</title>
<polygon fill="none" stroke="#bfbfbf" points="625,-56.5 625,-75.5 655,-75.5 655,-56.5 625,-56.5"/>
<text text-anchor="middle" x="640" y="-63.5" font-family="Helvetica,sans-Serif" font-size="10.00">set</text>
</g>
<!-- Node3&#45;&gt;Node13 -->
<g id="edge12" class="edge"><title>Node3&#45;&gt;Node13</title>
<path fill="none" stroke="midnightblue" d="M640,-112.083C640,-105.006 640,-94.8611 640,-85.9865"/>
<polygon fill="midnightblue" stroke="midnightblue" points="643.5,-85.751 640,-75.7511 636.5,-85.7511 643.5,-85.751"/>
</g>
<!-- Node14 -->
<g id="node14" class="node"><title>Node14</title>
<polygon fill="none" stroke="#bfbfbf" points="673,-56.5 673,-75.5 719,-75.5 719,-56.5 673,-56.5"/>
<text text-anchor="middle" x="696" y="-63.5" font-family="Helvetica,sans-Serif" font-size="10.00">atomic</text>
</g>
<!-- Node3&#45;&gt;Node14 -->
<g id="edge13" class="edge"><title>Node3&#45;&gt;Node14</title>
<path fill="none" stroke="midnightblue" d="M648.997,-112.324C657.194,-104.42 669.506,-92.5482 679.472,-82.9377"/>
<polygon fill="midnightblue" stroke="midnightblue" points="682.07,-85.2947 686.839,-75.8339 677.211,-80.2558 682.07,-85.2947"/>
</g>
<!-- Node15 -->
<g id="node15" class="node"><title>Node15</title>
<polygon fill="none" stroke="#bfbfbf" points="737,-56.5 737,-75.5 783,-75.5 783,-56.5 737,-56.5"/>
<text text-anchor="middle" x="760" y="-63.5" font-family="Helvetica,sans-Serif" font-size="10.00">cctype</text>
</g>
<!-- Node3&#45;&gt;Node15 -->
<g id="edge14" class="edge"><title>Node3&#45;&gt;Node15</title>
<path fill="none" stroke="midnightblue" d="M659.014,-112.444C678.588,-103.636 709.308,-89.8116 731.729,-79.722"/>
<polygon fill="midnightblue" stroke="midnightblue" points="733.392,-82.8119 741.075,-75.5164 730.519,-76.4284 733.392,-82.8119"/>
</g>
<!-- Node16 -->
<g id="node16" class="node"><title>Node16</title>
<polygon fill="none" stroke="#bfbfbf" points="801,-56.5 801,-75.5 857,-75.5 857,-56.5 801,-56.5"/>
<text text-anchor="middle" x="829" y="-63.5" font-family="Helvetica,sans-Serif" font-size="10.00">algorithm</text>
</g>
<!-- Node3&#45;&gt;Node16 -->
<g id="edge15" class="edge"><title>Node3&#45;&gt;Node16</title>
<path fill="none" stroke="midnightblue" d="M669.948,-112.444C702.632,-103.105 755.049,-88.1287 790.703,-77.9421"/>
<polygon fill="midnightblue" stroke="midnightblue" points="792.082,-81.1881 800.736,-75.0755 790.159,-74.4574 792.082,-81.1881"/>
</g>
<!-- Node17 -->
<g id="node17" class="node"><title>Node17</title>
<polygon fill="none" stroke="#bfbfbf" points="875.5,-56.5 875.5,-75.5 928.5,-75.5 928.5,-56.5 875.5,-56.5"/>
<text text-anchor="middle" x="902" y="-63.5" font-family="Helvetica,sans-Serif" font-size="10.00">complex</text>
</g>
<!-- Node3&#45;&gt;Node17 -->
<g id="edge16" class="edge"><title>Node3&#45;&gt;Node17</title>
<path fill="none" stroke="midnightblue" d="M672.504,-114.935C716.328,-106.658 796.742,-91.1206 865,-76 865.105,-75.9768 865.21,-75.9535 865.315,-75.9301"/>
<polygon fill="midnightblue" stroke="midnightblue" points="866.393,-79.2736 875.354,-73.6205 864.823,-72.4519 866.393,-79.2736"/>
</g>
<!-- Node18 -->
<g id="node18" class="node"><title>Node18</title>
<polygon fill="none" stroke="#bfbfbf" points="947,-56.5 947,-75.5 991,-75.5 991,-56.5 947,-56.5"/>
<text text-anchor="middle" x="969" y="-63.5" font-family="Helvetica,sans-Serif" font-size="10.00">thread</text>
</g>
<!-- Node3&#45;&gt;Node18 -->
<g id="edge17" class="edge"><title>Node3&#45;&gt;Node18</title>
<path fill="none" stroke="midnightblue" d="M672.762,-117.382C726.029,-111.208 834.843,-97.3904 936.859,-75.7667"/>
<polygon fill="midnightblue" stroke="midnightblue" points="937.667,-79.173 946.709,-73.6497 936.196,-72.3293 937.667,-79.173"/>
</g>
<!-- Node19 -->
<g id="node19" class="node"><title>Node19</title>
<g id="a_node19"><a xlink:href="Ptr_8h.xhtml" target="_top" xlink:title="Ptr.h">
<polygon fill="none" stroke="black" points="1009,-56.5 1009,-75.5 1047,-75.5 1047,-56.5 1009,-56.5"/>
<text text-anchor="middle" x="1028" y="-63.5" font-family="Helvetica,sans-Serif" font-size="10.00">Ptr.h</text>
</a>
</g>
</g>
<!-- Node3&#45;&gt;Node19 -->
<g id="edge18" class="edge"><title>Node3&#45;&gt;Node19</title>
<path fill="none" stroke="midnightblue" d="M672.502,-118.853C735.885,-114.244 880.197,-101.671 999,-76 999.1,-75.9784 999.2,-75.9567 999.3,-75.9347"/>
<polygon fill="midnightblue" stroke="midnightblue" points="999.978,-79.3747 1008.78,-73.4827 998.225,-72.5976 999.978,-79.3747"/>
</g>
<!-- Node21 -->
<g id="node21" class="node"><title>Node21</title>
<polygon fill="none" stroke="#bfbfbf" points="1065,-56.5 1065,-75.5 1109,-75.5 1109,-56.5 1065,-56.5"/>
<text text-anchor="middle" x="1087" y="-63.5" font-family="Helvetica,sans-Serif" font-size="10.00">mutex</text>
</g>
<!-- Node3&#45;&gt;Node21 -->
<g id="edge20" class="edge"><title>Node3&#45;&gt;Node21</title>
<path fill="none" stroke="midnightblue" d="M672.656,-119.412C741.624,-115.644 907.235,-104.412 1054.63,-75.9497"/>
<polygon fill="midnightblue" stroke="midnightblue" points="1055.63,-79.3218 1064.76,-73.9603 1054.28,-72.453 1055.63,-79.3218"/>
</g>
<!-- Node22 -->
<g id="node22" class="node"><title>Node22</title>
<polygon fill="none" stroke="#bfbfbf" points="1127.5,-56.5 1127.5,-75.5 1222.5,-75.5 1222.5,-56.5 1127.5,-56.5"/>
<text text-anchor="middle" x="1175" y="-63.5" font-family="Helvetica,sans-Serif" font-size="10.00">condition_variable</text>
</g>
<!-- Node3&#45;&gt;Node22 -->
<g id="edge21" class="edge"><title>Node3&#45;&gt;Node22</title>
<path fill="none" stroke="midnightblue" d="M672.749,-118.59C750.166,-112.746 950.473,-96.7564 1117,-76 1117.1,-75.987 1117.21,-75.974 1117.31,-75.9609"/>
<polygon fill="midnightblue" stroke="midnightblue" points="1117.79,-79.4288 1127.24,-74.6431 1116.87,-72.4897 1117.79,-79.4288"/>
</g>
<!-- Node23 -->
<g id="node23" class="node"><title>Node23</title>
<polygon fill="none" stroke="#bfbfbf" points="1241,-56.5 1241,-75.5 1319,-75.5 1319,-56.5 1241,-56.5"/>
<text text-anchor="middle" x="1280" y="-63.5" font-family="Helvetica,sans-Serif" font-size="10.00">VoxelConfig.h</text>
</g>
<!-- Node3&#45;&gt;Node23 -->
<g id="edge22" class="edge"><title>Node3&#45;&gt;Node23</title>
<path fill="none" stroke="midnightblue" d="M672.799,-119.72C761.13,-116.015 1011.51,-103.807 1230.66,-75.8863"/>
<polygon fill="midnightblue" stroke="midnightblue" points="1231.27,-79.3366 1240.74,-74.5877 1230.38,-72.394 1231.27,-79.3366"/>
</g>
<!-- Node24 -->
<g id="node24" class="node"><title>Node24</title>
<polygon fill="none" stroke="#bfbfbf" points="1337.5,-56.5 1337.5,-75.5 1420.5,-75.5 1420.5,-56.5 1337.5,-56.5"/>
<text text-anchor="middle" x="1379" y="-63.5" font-family="Helvetica,sans-Serif" font-size="10.00">VoxelExports.h</text>
</g>
<!-- Node3&#45;&gt;Node24 -->
<g id="edge23" class="edge"><title>Node3&#45;&gt;Node24</title>
<path fill="none" stroke="midnightblue" d="M672.706,-120.13C770.482,-117.262 1069.24,-106.546 1327.37,-75.9312"/>
<polygon fill="midnightblue" stroke="midnightblue" points="1327.79,-79.4055 1337.31,-74.7404 1326.96,-72.4552 1327.79,-79.4055"/>
</g>
<!-- Node20 -->
<g id="node20" class="node"><title>Node20</title>
<polygon fill="none" stroke="#bfbfbf" points="1002,-0.5 1002,-19.5 1054,-19.5 1054,-0.5 1002,-0.5"/>
<text text-anchor="middle" x="1028" y="-7.5" font-family="Helvetica,sans-Serif" font-size="10.00">memory</text>
</g>
<!-- Node19&#45;&gt;Node20 -->
<g id="edge19" class="edge"><title>Node19&#45;&gt;Node20</title>
<path fill="none" stroke="midnightblue" d="M1028,-56.083C1028,-49.0059 1028,-38.8611 1028,-29.9865"/>
<polygon fill="midnightblue" stroke="midnightblue" points="1031.5,-29.751 1028,-19.7511 1024.5,-29.7511 1031.5,-29.751"/>
</g>
</g>
</svg>
        <g id="navigator" transform="translate(0 0)" fill="#404254">
                <rect fill="#f2f5e9" fill-opacity="0.5" stroke="#606060" stroke-width=".5" x="0" y="0" width="60" height="60"/>
                <use id="zoomplus" xlink:href="#zoomPlus" x="17" y="9" onmousedown="handleZoom(evt,'in')"/>
                <use id="zoomminus" xlink:href="#zoomMin" x="42" y="9" onmousedown="handleZoom(evt,'out')"/>
                <use id="reset" xlink:href="#resetDef" x="30" y="36" onmousedown="handleReset()"/>
                <g id="arrowUp" xlink:href="#dirArrow" transform="translate(30 24)" onmousedown="handlePan(0,-1)">
                  <use xlink:href="#rim" fill="#404040">
                        <set attributeName="fill" to="#808080" begin="arrowUp.mouseover" end="arrowUp.mouseout"/>
                  </use>
                  <path fill="none" stroke="white" stroke-width="1.5" d="M0,-3.0v7 M-2.5,-0.5L0,-3.0L2.5,-0.5"/>
                </g>
                <g id="arrowRight" xlink:href="#dirArrow" transform="rotate(90) translate(36 -43)" onmousedown="handlePan(1,0)">
                  <use xlink:href="#rim" fill="#404040">
                        <set attributeName="fill" to="#808080" begin="arrowRight.mouseover" end="arrowRight.mouseout"/>
                  </use>
                  <path fill="none" stroke="white" stroke-width="1.5" d="M0,-3.0v7 M-2.5,-0.5L0,-3.0L2.5,-0.5"/>
                </g>
                <g id="arrowDown" xlink:href="#dirArrow" transform="rotate(180) translate(-30 -48)" onmousedown="handlePan(0,1)">
                  <use xlink:href="#rim" fill="#404040">
                        <set attributeName="fill" to="#808080" begin="arrowDown.mouseover" end="arrowDown.mouseout"/>
                  </use>
                  <path fill="none" stroke="white" stroke-width="1.5" d="M0,-3.0v7 M-2.5,-0.5L0,-3.0L2.5,-0.5"/>
                </g>
                <g id="arrowLeft" xlink:href="#dirArrow" transform="rotate(270) translate(-36 17)" onmousedown="handlePan(-1,0)">
                  <use xlink:href="#rim" fill="#404040">
                        <set attributeName="fill" to="#808080" begin="arrowLeft.mouseover" end="arrowLeft.mouseout"/>
                  </use>
                  <path fill="none" stroke="white" stroke-width="1.5" d="M0,-3.0v7 M-2.5,-0.5L0,-3.0L2.5,-0.5"/>
                </g>
        </g>
        <svg viewBox="0 0 15 15" width="100%" height="30px" preserveAspectRatio="xMaxYMin meet">
         <g id="arrow_out" transform="scale(0.3 0.3)">
          <a xlink:href="USBSystemPrivateWindows_8h__incl_org.svg" target="_base">
           <rect id="button" ry="5" rx="5" y="6" x="6" height="38" width="38"
                fill="#f2f5e9" fill-opacity="0.5" stroke="#606060" stroke-width="1.0"/>
           <path id="arrow"
             d="M 11.500037,31.436501 C 11.940474,20.09759 22.043105,11.32322 32.158766,21.979434 L 37.068811,17.246167 C 37.068811,17.246167 37.088388,32 37.088388,32 L 22.160133,31.978069 C 22.160133,31.978069 26.997745,27.140456 26.997745,27.140456 C 18.528582,18.264221 13.291696,25.230495 11.500037,31.436501 z"
             style="fill:#404040;"/>
          </a>
         </g>
        </svg>
</svg>
