<?xml version="1.0" encoding="UTF-8" standalone="no"?>
<!DOCTYPE svg PUBLIC "-//W3C//DTD SVG 1.1//EN"
 "http://www.w3.org/Graphics/SVG/1.1/DTD/svg11.dtd">
<!-- Generated by graphviz version 2.36.0 (20140111.2315)
 -->
<!-- Title: UVC.h Pages: 1 -->
<svg width="1898pt" height="196pt"
 viewBox="0.00 0.00 1898.00 196.00" xmlns="http://www.w3.org/2000/svg" xmlns:xlink="http://www.w3.org/1999/xlink">
<g id="graph0" class="graph" transform="scale(1 1) rotate(0) translate(4 192)">
<title>UVC.h</title>
<!-- Node1 -->
<g id="node1" class="node"><title>Node1</title>
<polygon fill="#bfbfbf" stroke="black" points="753.5,-168.5 753.5,-187.5 800.5,-187.5 800.5,-168.5 753.5,-168.5"/>
<text text-anchor="middle" x="777" y="-175.5" font-family="Helvetica,sans-Serif" font-size="10.00">UVC.h</text>
</g>
<!-- Node2 -->
<g id="node2" class="node"><title>Node2</title>
<g id="a_node2"><a xlink:href="UVC_8cpp.xhtml" target="_top" xlink:title="UVC.cpp">
<polygon fill="none" stroke="black" points="612.5,-112.5 612.5,-131.5 669.5,-131.5 669.5,-112.5 612.5,-112.5"/>
<text text-anchor="middle" x="641" y="-119.5" font-family="Helvetica,sans-Serif" font-size="10.00">UVC.cpp</text>
</a>
</g>
</g>
<!-- Node1&#45;&gt;Node2 -->
<g id="edge1" class="edge"><title>Node1&#45;&gt;Node2</title>
<path fill="none" stroke="midnightblue" d="M745.865,-164.638C720.343,-154.504 684.891,-140.427 662.449,-131.516"/>
<polygon fill="midnightblue" stroke="midnightblue" points="744.865,-168.006 755.45,-168.444 747.448,-161.5 744.865,-168.006"/>
</g>
<!-- Node3 -->
<g id="node3" class="node"><title>Node3</title>
<g id="a_node3"><a xlink:href="UVCPrivateLinux_8h.xhtml" target="_top" xlink:title="UVCPrivateLinux.h">
<polygon fill="none" stroke="black" points="687.5,-112.5 687.5,-131.5 788.5,-131.5 788.5,-112.5 687.5,-112.5"/>
<text text-anchor="middle" x="738" y="-119.5" font-family="Helvetica,sans-Serif" font-size="10.00">UVCPrivateLinux.h</text>
</a>
</g>
</g>
<!-- Node1&#45;&gt;Node3 -->
<g id="edge2" class="edge"><title>Node1&#45;&gt;Node3</title>
<path fill="none" stroke="midnightblue" d="M764.618,-159.855C757.865,-150.505 749.791,-139.327 744.32,-131.751"/>
<polygon fill="midnightblue" stroke="midnightblue" points="761.868,-162.025 770.56,-168.083 767.542,-157.927 761.868,-162.025"/>
</g>
<!-- Node5 -->
<g id="node5" class="node"><title>Node5</title>
<g id="a_node5"><a xlink:href="UVCStreamer_8h.xhtml" target="_top" xlink:title="UVCStreamer.h">
<polygon fill="none" stroke="black" points="774,-56.5 774,-75.5 860,-75.5 860,-56.5 774,-56.5"/>
<text text-anchor="middle" x="817" y="-63.5" font-family="Helvetica,sans-Serif" font-size="10.00">UVCStreamer.h</text>
</a>
</g>
</g>
<!-- Node1&#45;&gt;Node5 -->
<g id="edge4" class="edge"><title>Node1&#45;&gt;Node5</title>
<path fill="none" stroke="midnightblue" d="M785.628,-158.923C789.356,-150.788 793.627,-141.007 797,-132 804.454,-112.098 811.314,-88.0481 814.729,-75.5226"/>
<polygon fill="midnightblue" stroke="midnightblue" points="782.371,-157.625 781.304,-168.166 788.712,-160.591 782.371,-157.625"/>
</g>
<!-- Node16 -->
<g id="node16" class="node"><title>Node16</title>
<g id="a_node16"><a xlink:href="UVCXU_8h.xhtml" target="_top" xlink:title="UVCXU.h">
<polygon fill="none" stroke="black" points="1343.5,-112.5 1343.5,-131.5 1404.5,-131.5 1404.5,-112.5 1343.5,-112.5"/>
<text text-anchor="middle" x="1374" y="-119.5" font-family="Helvetica,sans-Serif" font-size="10.00">UVCXU.h</text>
</a>
</g>
</g>
<!-- Node1&#45;&gt;Node16 -->
<g id="edge15" class="edge"><title>Node1&#45;&gt;Node16</title>
<path fill="none" stroke="midnightblue" d="M810.912,-173.933C917.017,-164.335 1241.63,-134.973 1343.25,-125.781"/>
<polygon fill="midnightblue" stroke="midnightblue" points="810.416,-170.463 800.772,-174.85 811.046,-177.435 810.416,-170.463"/>
</g>
<!-- Node4 -->
<g id="node4" class="node"><title>Node4</title>
<g id="a_node4"><a xlink:href="UVCPrivateLinux_8cpp.xhtml" target="_top" xlink:title="UVCPrivateLinux.cpp">
<polygon fill="none" stroke="black" points="644.5,-56.5 644.5,-75.5 755.5,-75.5 755.5,-56.5 644.5,-56.5"/>
<text text-anchor="middle" x="700" y="-63.5" font-family="Helvetica,sans-Serif" font-size="10.00">UVCPrivateLinux.cpp</text>
</a>
</g>
</g>
<!-- Node3&#45;&gt;Node4 -->
<g id="edge3" class="edge"><title>Node3&#45;&gt;Node4</title>
<path fill="none" stroke="midnightblue" d="M725.935,-103.855C719.355,-94.5048 711.489,-83.3265 706.158,-75.7511"/>
<polygon fill="midnightblue" stroke="midnightblue" points="723.108,-105.919 731.725,-112.083 728.832,-101.891 723.108,-105.919"/>
</g>
<!-- Node6 -->
<g id="node6" class="node"><title>Node6</title>
<g id="a_node6"><a xlink:href="CameraSystemConfigTest_8cpp.xhtml" target="_top" xlink:title="CameraSystemConfigTest.cpp">
<polygon fill="none" stroke="black" points="363,-0.5 363,-19.5 515,-19.5 515,-0.5 363,-0.5"/>
<text text-anchor="middle" x="439" y="-7.5" font-family="Helvetica,sans-Serif" font-size="10.00">CameraSystemConfigTest.cpp</text>
</a>
</g>
</g>
<!-- Node5&#45;&gt;Node6 -->
<g id="edge5" class="edge"><title>Node5&#45;&gt;Node6</title>
<path fill="none" stroke="midnightblue" d="M764.303,-56.0467C764.202,-56.0311 764.101,-56.0155 764,-56 674.346,-42.1844 570.469,-28.1437 504.757,-19.5041"/>
<polygon fill="midnightblue" stroke="midnightblue" points="763.495,-59.4622 773.919,-57.571 764.591,-52.5485 763.495,-59.4622"/>
</g>
<!-- Node7 -->
<g id="node7" class="node"><title>Node7</title>
<g id="a_node7"><a xlink:href="CameraSystemReadStreamTest_8cpp.xhtml" target="_top" xlink:title="CameraSystemReadStreamTest.cpp">
<polygon fill="none" stroke="black" points="533,-0.5 533,-19.5 711,-19.5 711,-0.5 533,-0.5"/>
<text text-anchor="middle" x="622" y="-7.5" font-family="Helvetica,sans-Serif" font-size="10.00">CameraSystemReadStreamTest.cpp</text>
</a>
</g>
</g>
<!-- Node5&#45;&gt;Node7 -->
<g id="edge6" class="edge"><title>Node5&#45;&gt;Node7</title>
<path fill="none" stroke="midnightblue" d="M776.19,-53.6986C739.387,-43.507 686.071,-28.7429 652.754,-19.5164"/>
<polygon fill="midnightblue" stroke="midnightblue" points="775.53,-57.1477 786.102,-56.4435 777.398,-50.4016 775.53,-57.1477"/>
</g>
<!-- Node8 -->
<g id="node8" class="node"><title>Node8</title>
<g id="a_node8"><a xlink:href="CameraSystemSaveStreamTest_8cpp.xhtml" target="_top" xlink:title="CameraSystemSaveStreamTest.cpp">
<polygon fill="none" stroke="black" points="728.5,-0.5 728.5,-19.5 905.5,-19.5 905.5,-0.5 728.5,-0.5"/>
<text text-anchor="middle" x="817" y="-7.5" font-family="Helvetica,sans-Serif" font-size="10.00">CameraSystemSaveStreamTest.cpp</text>
</a>
</g>
</g>
<!-- Node5&#45;&gt;Node8 -->
<g id="edge7" class="edge"><title>Node5&#45;&gt;Node8</title>
<path fill="none" stroke="midnightblue" d="M817,-45.8045C817,-36.9102 817,-26.7798 817,-19.7511"/>
<polygon fill="midnightblue" stroke="midnightblue" points="813.5,-46.083 817,-56.083 820.5,-46.083 813.5,-46.083"/>
</g>
<!-- Node9 -->
<g id="node9" class="node"><title>Node9</title>
<g id="a_node9"><a xlink:href="CameraSystemTest_8cpp.xhtml" target="_top" xlink:title="CameraSystemTest.cpp">
<polygon fill="none" stroke="black" points="923.5,-0.5 923.5,-19.5 1046.5,-19.5 1046.5,-0.5 923.5,-0.5"/>
<text text-anchor="middle" x="985" y="-7.5" font-family="Helvetica,sans-Serif" font-size="10.00">CameraSystemTest.cpp</text>
</a>
</g>
</g>
<!-- Node5&#45;&gt;Node9 -->
<g id="edge8" class="edge"><title>Node5&#45;&gt;Node9</title>
<path fill="none" stroke="midnightblue" d="M853.386,-53.3044C885.042,-43.1294 930.168,-28.6246 958.504,-19.5164"/>
<polygon fill="midnightblue" stroke="midnightblue" points="852.069,-50.0513 843.62,-56.4435 854.211,-56.7155 852.069,-50.0513"/>
</g>
<!-- Node10 -->
<g id="node10" class="node"><title>Node10</title>
<g id="a_node10"><a xlink:href="UVCStreamerTest_8cpp.xhtml" target="_top" xlink:title="UVCStreamerTest.cpp">
<polygon fill="none" stroke="black" points="0,-0.5 0,-19.5 116,-19.5 116,-0.5 0,-0.5"/>
<text text-anchor="middle" x="58" y="-7.5" font-family="Helvetica,sans-Serif" font-size="10.00">UVCStreamerTest.cpp</text>
</a>
</g>
</g>
<!-- Node5&#45;&gt;Node10 -->
<g id="edge9" class="edge"><title>Node5&#45;&gt;Node10</title>
<path fill="none" stroke="midnightblue" d="M764.305,-56.0345C764.203,-56.0229 764.101,-56.0114 764,-56 481.34,-24.1395 408.17,-46.9549 125,-20 122.079,-19.722 119.09,-19.4124 116.073,-19.0801"/>
<polygon fill="midnightblue" stroke="midnightblue" points="763.594,-59.4718 773.959,-57.2767 764.487,-52.529 763.594,-59.4718"/>
</g>
<!-- Node11 -->
<g id="node11" class="node"><title>Node11</title>
<g id="a_node11"><a xlink:href="TintinCDKCamera_8cpp.xhtml" target="_top" xlink:title="TintinCDKCamera.cpp">
<polygon fill="none" stroke="black" points="1065,-0.5 1065,-19.5 1181,-19.5 1181,-0.5 1065,-0.5"/>
<text text-anchor="middle" x="1123" y="-7.5" font-family="Helvetica,sans-Serif" font-size="10.00">TintinCDKCamera.cpp</text>
</a>
</g>
</g>
<!-- Node5&#45;&gt;Node11 -->
<g id="edge10" class="edge"><title>Node5&#45;&gt;Node11</title>
<path fill="none" stroke="midnightblue" d="M870.202,-55.6114C927.864,-45.4358 1019.07,-29.34 1074.73,-19.5182"/>
<polygon fill="midnightblue" stroke="midnightblue" points="869.433,-52.193 860.193,-57.3776 870.649,-59.0865 869.433,-52.193"/>
</g>
<!-- Node12 -->
<g id="node12" class="node"><title>Node12</title>
<g id="a_node12"><a xlink:href="Voxel14Camera_8cpp.xhtml" target="_top" xlink:title="Voxel14Camera.cpp">
<polygon fill="none" stroke="black" points="1199.5,-0.5 1199.5,-19.5 1304.5,-19.5 1304.5,-0.5 1199.5,-0.5"/>
<text text-anchor="middle" x="1252" y="-7.5" font-family="Helvetica,sans-Serif" font-size="10.00">Voxel14Camera.cpp</text>
</a>
</g>
</g>
<!-- Node5&#45;&gt;Node12 -->
<g id="edge11" class="edge"><title>Node5&#45;&gt;Node12</title>
<path fill="none" stroke="midnightblue" d="M870.501,-58.8943C942.812,-50.5582 1075.74,-34.939 1189,-20 1192.4,-19.5521 1195.89,-19.0807 1199.42,-18.5981"/>
<polygon fill="midnightblue" stroke="midnightblue" points="869.815,-55.45 860.281,-60.0705 870.616,-62.4041 869.815,-55.45"/>
</g>
<!-- Node13 -->
<g id="node13" class="node"><title>Node13</title>
<g id="a_node13"><a xlink:href="VoxelDCamera_8cpp.xhtml" target="_top" xlink:title="VoxelDCamera.cpp">
<polygon fill="none" stroke="black" points="1323,-0.5 1323,-19.5 1425,-19.5 1425,-0.5 1323,-0.5"/>
<text text-anchor="middle" x="1374" y="-7.5" font-family="Helvetica,sans-Serif" font-size="10.00">VoxelDCamera.cpp</text>
</a>
</g>
</g>
<!-- Node5&#45;&gt;Node13 -->
<g id="edge12" class="edge"><title>Node5&#45;&gt;Node13</title>
<path fill="none" stroke="midnightblue" d="M870.271,-61.151C961.217,-54.3599 1152.2,-39.1412 1313,-20 1316.19,-19.6204 1319.47,-19.2062 1322.77,-18.7706"/>
<polygon fill="midnightblue" stroke="midnightblue" points="869.923,-57.6672 860.21,-61.8984 870.441,-64.6479 869.923,-57.6672"/>
</g>
<!-- Node14 -->
<g id="node14" class="node"><title>Node14</title>
<g id="a_node14"><a xlink:href="SerialNumber_8cpp.xhtml" target="_top" xlink:title="SerialNumber.cpp">
<polygon fill="none" stroke="black" points="134.5,-0.5 134.5,-19.5 229.5,-19.5 229.5,-0.5 134.5,-0.5"/>
<text text-anchor="middle" x="182" y="-7.5" font-family="Helvetica,sans-Serif" font-size="10.00">SerialNumber.cpp</text>
</a>
</g>
</g>
<!-- Node5&#45;&gt;Node14 -->
<g id="edge13" class="edge"><title>Node5&#45;&gt;Node14</title>
<path fill="none" stroke="midnightblue" d="M764.304,-56.0363C764.203,-56.0242 764.101,-56.012 764,-56 531.312,-28.3508 470.808,-46.6187 238,-20 235.261,-19.6868 232.451,-19.3344 229.618,-18.9552"/>
<polygon fill="midnightblue" stroke="midnightblue" points="763.579,-59.4706 773.953,-57.3204 764.503,-52.5317 763.579,-59.4706"/>
</g>
<!-- Node15 -->
<g id="node15" class="node"><title>Node15</title>
<g id="a_node15"><a xlink:href="UVCStreamer_8cpp.xhtml" target="_top" xlink:title="UVCStreamer.cpp">
<polygon fill="none" stroke="black" points="247.5,-0.5 247.5,-19.5 344.5,-19.5 344.5,-0.5 247.5,-0.5"/>
<text text-anchor="middle" x="296" y="-7.5" font-family="Helvetica,sans-Serif" font-size="10.00">UVCStreamer.cpp</text>
</a>
</g>
</g>
<!-- Node5&#45;&gt;Node15 -->
<g id="edge14" class="edge"><title>Node5&#45;&gt;Node15</title>
<path fill="none" stroke="midnightblue" d="M764.304,-56.0392C764.203,-56.0261 764.101,-56.013 764,-56 582.571,-32.669 535.591,-42.0366 354,-20 350.965,-19.6317 347.845,-19.2262 344.702,-18.7971"/>
<polygon fill="midnightblue" stroke="midnightblue" points="763.556,-59.4685 773.945,-57.3902 764.527,-52.5362 763.556,-59.4685"/>
</g>
<!-- Node17 -->
<g id="node17" class="node"><title>Node17</title>
<g id="a_node17"><a xlink:href="VoxelXUProgrammer_8h.xhtml" target="_top" xlink:title="VoxelXUProgrammer.h">
<polygon fill="none" stroke="black" points="1315.5,-56.5 1315.5,-75.5 1432.5,-75.5 1432.5,-56.5 1315.5,-56.5"/>
<text text-anchor="middle" x="1374" y="-63.5" font-family="Helvetica,sans-Serif" font-size="10.00">VoxelXUProgrammer.h</text>
</a>
</g>
</g>
<!-- Node16&#45;&gt;Node17 -->
<g id="edge16" class="edge"><title>Node16&#45;&gt;Node17</title>
<path fill="none" stroke="midnightblue" d="M1374,-101.805C1374,-92.9102 1374,-82.7798 1374,-75.7511"/>
<polygon fill="midnightblue" stroke="midnightblue" points="1370.5,-102.083 1374,-112.083 1377.5,-102.083 1370.5,-102.083"/>
</g>
<!-- Node21 -->
<g id="node21" class="node"><title>Node21</title>
<g id="a_node21"><a xlink:href="UVCXU_8cpp.xhtml" target="_top" xlink:title="UVCXU.cpp">
<polygon fill="none" stroke="black" points="1450.5,-56.5 1450.5,-75.5 1521.5,-75.5 1521.5,-56.5 1450.5,-56.5"/>
<text text-anchor="middle" x="1486" y="-63.5" font-family="Helvetica,sans-Serif" font-size="10.00">UVCXU.cpp</text>
</a>
</g>
</g>
<!-- Node16&#45;&gt;Node21 -->
<g id="edge23" class="edge"><title>Node16&#45;&gt;Node21</title>
<path fill="none" stroke="midnightblue" d="M1401.25,-107.862C1422.02,-97.8492 1450.02,-84.3458 1468.05,-75.6545"/>
<polygon fill="midnightblue" stroke="midnightblue" points="1399.48,-104.828 1391.99,-112.324 1402.52,-111.134 1399.48,-104.828"/>
</g>
<!-- Node17&#45;&gt;Node11 -->
<g id="edge18" class="edge"><title>Node17&#45;&gt;Node11</title>
<path fill="none" stroke="midnightblue" d="M1324.18,-54.2815C1276.75,-44.0769 1206.3,-28.9203 1162.59,-19.5164"/>
<polygon fill="midnightblue" stroke="midnightblue" points="1323.72,-57.7619 1334.23,-56.4435 1325.19,-50.9185 1323.72,-57.7619"/>
</g>
<!-- Node17&#45;&gt;Node12 -->
<g id="edge20" class="edge"><title>Node17&#45;&gt;Node12</title>
<path fill="none" stroke="midnightblue" d="M1345.46,-52.3678C1322.61,-42.2553 1291.19,-28.3486 1271.24,-19.5164"/>
<polygon fill="midnightblue" stroke="midnightblue" points="1344.11,-55.5965 1354.67,-56.4435 1346.94,-49.1955 1344.11,-55.5965"/>
</g>
<!-- Node17&#45;&gt;Node13 -->
<g id="edge21" class="edge"><title>Node17&#45;&gt;Node13</title>
<path fill="none" stroke="midnightblue" d="M1374,-45.8045C1374,-36.9102 1374,-26.7798 1374,-19.7511"/>
<polygon fill="midnightblue" stroke="midnightblue" points="1370.5,-46.083 1374,-56.083 1377.5,-46.083 1370.5,-46.083"/>
</g>
<!-- Node18 -->
<g id="node18" class="node"><title>Node18</title>
<g id="a_node18"><a xlink:href="Voxel14RegisterTest_8cpp.xhtml" target="_top" xlink:title="Voxel14RegisterTest.cpp">
<polygon fill="none" stroke="black" points="1443.5,-0.5 1443.5,-19.5 1570.5,-19.5 1570.5,-0.5 1443.5,-0.5"/>
<text text-anchor="middle" x="1507" y="-7.5" font-family="Helvetica,sans-Serif" font-size="10.00">Voxel14RegisterTest.cpp</text>
</a>
</g>
</g>
<!-- Node17&#45;&gt;Node18 -->
<g id="edge17" class="edge"><title>Node17&#45;&gt;Node18</title>
<path fill="none" stroke="midnightblue" d="M1404.45,-52.6377C1429.41,-42.504 1464.08,-28.4274 1486.02,-19.5164"/>
<polygon fill="midnightblue" stroke="midnightblue" points="1403.02,-49.4387 1395.07,-56.4435 1405.66,-55.9245 1403.02,-49.4387"/>
</g>
<!-- Node19 -->
<g id="node19" class="node"><title>Node19</title>
<g id="a_node19"><a xlink:href="TintinEEPROMDownloader_8cpp.xhtml" target="_top" xlink:title="TintinEEPROMDownloader.cpp">
<polygon fill="none" stroke="black" points="1588.5,-0.5 1588.5,-19.5 1743.5,-19.5 1743.5,-0.5 1588.5,-0.5"/>
<text text-anchor="middle" x="1666" y="-7.5" font-family="Helvetica,sans-Serif" font-size="10.00">TintinEEPROMDownloader.cpp</text>
</a>
</g>
</g>
<!-- Node17&#45;&gt;Node19 -->
<g id="edge19" class="edge"><title>Node17&#45;&gt;Node19</title>
<path fill="none" stroke="midnightblue" d="M1430.23,-54.6007C1485.42,-44.3953 1568.56,-29.0189 1619.95,-19.5164"/>
<polygon fill="midnightblue" stroke="midnightblue" points="1429.47,-51.1833 1420.27,-56.4435 1430.74,-58.0666 1429.47,-51.1833"/>
</g>
<!-- Node20 -->
<g id="node20" class="node"><title>Node20</title>
<g id="a_node20"><a xlink:href="VoxelXUProgrammer_8cpp.xhtml" target="_top" xlink:title="VoxelXUProgrammer.cpp">
<polygon fill="none" stroke="black" points="1762,-0.5 1762,-19.5 1890,-19.5 1890,-0.5 1762,-0.5"/>
<text text-anchor="middle" x="1826" y="-7.5" font-family="Helvetica,sans-Serif" font-size="10.00">VoxelXUProgrammer.cpp</text>
</a>
</g>
</g>
<!-- Node17&#45;&gt;Node20 -->
<g id="edge22" class="edge"><title>Node17&#45;&gt;Node20</title>
<path fill="none" stroke="midnightblue" d="M1442.92,-55.7763C1580.76,-38.6196 1617.06,-36.0153 1752,-20 1755.21,-19.6187 1758.5,-19.226 1761.83,-18.8278"/>
<polygon fill="midnightblue" stroke="midnightblue" points="1442.31,-52.3256 1432.82,-57.0372 1443.17,-59.2717 1442.31,-52.3256"/>
</g>
</g>
</svg>
