<?xml version="1.0" encoding="UTF-8" standalone="no"?>
<!DOCTYPE svg PUBLIC "-//W3C//DTD SVG 1.1//EN"
 "http://www.w3.org/Graphics/SVG/1.1/DTD/svg11.dtd">
<!-- Generated by graphviz version 2.36.0 (20140111.2315)
 -->
<!-- Title: UVCStreamer.h Pages: 1 -->
<svg width="1432pt" height="84pt"
 viewBox="0.00 0.00 1432.00 84.00" xmlns="http://www.w3.org/2000/svg" xmlns:xlink="http://www.w3.org/1999/xlink">
<g id="graph0" class="graph" transform="scale(1 1) rotate(0) translate(4 80)">
<title>UVCStreamer.h</title>
<!-- Node1 -->
<g id="node1" class="node"><title>Node1</title>
<polygon fill="#bfbfbf" stroke="black" points="784,-56.5 784,-75.5 870,-75.5 870,-56.5 784,-56.5"/>
<text text-anchor="middle" x="827" y="-63.5" font-family="Helvetica,sans-Serif" font-size="10.00">UVCStreamer.h</text>
</g>
<!-- Node2 -->
<g id="node2" class="node"><title>Node2</title>
<g id="a_node2"><a xlink:href="CameraSystemConfigTest_8cpp.xhtml" target="_top" xlink:title="CameraSystemConfigTest.cpp">
<polygon fill="none" stroke="black" points="0,-0.5 0,-19.5 152,-19.5 152,-0.5 0,-0.5"/>
<text text-anchor="middle" x="76" y="-7.5" font-family="Helvetica,sans-Serif" font-size="10.00">CameraSystemConfigTest.cpp</text>
</a>
</g>
</g>
<!-- Node1&#45;&gt;Node2 -->
<g id="edge1" class="edge"><title>Node1&#45;&gt;Node2</title>
<path fill="none" stroke="midnightblue" d="M773.59,-62.0825C660.497,-55.7526 388.559,-39.7279 161,-20 158.191,-19.7565 155.331,-19.4995 152.442,-19.2325"/>
<polygon fill="midnightblue" stroke="midnightblue" points="773.532,-65.5846 783.712,-62.6468 773.922,-58.5954 773.532,-65.5846"/>
</g>
<!-- Node3 -->
<g id="node3" class="node"><title>Node3</title>
<g id="a_node3"><a xlink:href="CameraSystemReadStreamTest_8cpp.xhtml" target="_top" xlink:title="CameraSystemReadStreamTest.cpp">
<polygon fill="none" stroke="black" points="170,-0.5 170,-19.5 348,-19.5 348,-0.5 170,-0.5"/>
<text text-anchor="middle" x="259" y="-7.5" font-family="Helvetica,sans-Serif" font-size="10.00">CameraSystemReadStreamTest.cpp</text>
</a>
</g>
</g>
<!-- Node1&#45;&gt;Node3 -->
<g id="edge2" class="edge"><title>Node1&#45;&gt;Node3</title>
<path fill="none" stroke="midnightblue" d="M773.62,-59.9252C675.995,-50.6439 467.748,-30.8457 348.247,-19.4848"/>
<polygon fill="midnightblue" stroke="midnightblue" points="773.555,-63.4347 783.841,-60.8969 774.218,-56.4661 773.555,-63.4347"/>
</g>
<!-- Node4 -->
<g id="node4" class="node"><title>Node4</title>
<g id="a_node4"><a xlink:href="CameraSystemSaveStreamTest_8cpp.xhtml" target="_top" xlink:title="CameraSystemSaveStreamTest.cpp">
<polygon fill="none" stroke="black" points="365.5,-0.5 365.5,-19.5 542.5,-19.5 542.5,-0.5 365.5,-0.5"/>
<text text-anchor="middle" x="454" y="-7.5" font-family="Helvetica,sans-Serif" font-size="10.00">CameraSystemSaveStreamTest.cpp</text>
</a>
</g>
</g>
<!-- Node1&#45;&gt;Node4 -->
<g id="edge3" class="edge"><title>Node1&#45;&gt;Node4</title>
<path fill="none" stroke="midnightblue" d="M773.629,-57.2734C704.578,-47.2767 584.665,-29.9167 512.981,-19.5388"/>
<polygon fill="midnightblue" stroke="midnightblue" points="773.449,-60.7838 783.848,-58.7528 774.452,-53.856 773.449,-60.7838"/>
</g>
<!-- Node5 -->
<g id="node5" class="node"><title>Node5</title>
<g id="a_node5"><a xlink:href="CameraSystemTest_8cpp.xhtml" target="_top" xlink:title="CameraSystemTest.cpp">
<polygon fill="none" stroke="black" points="560.5,-0.5 560.5,-19.5 683.5,-19.5 683.5,-0.5 560.5,-0.5"/>
<text text-anchor="middle" x="622" y="-7.5" font-family="Helvetica,sans-Serif" font-size="10.00">CameraSystemTest.cpp</text>
</a>
</g>
</g>
<!-- Node1&#45;&gt;Node5 -->
<g id="edge4" class="edge"><title>Node1&#45;&gt;Node5</title>
<path fill="none" stroke="midnightblue" d="M784.592,-53.8291C745.886,-43.6333 689.507,-28.7823 654.331,-19.5164"/>
<polygon fill="midnightblue" stroke="midnightblue" points="783.955,-57.2808 794.517,-56.4435 785.739,-50.5117 783.955,-57.2808"/>
</g>
<!-- Node6 -->
<g id="node6" class="node"><title>Node6</title>
<g id="a_node6"><a xlink:href="UVCStreamerTest_8cpp.xhtml" target="_top" xlink:title="UVCStreamerTest.cpp">
<polygon fill="none" stroke="black" points="702,-0.5 702,-19.5 818,-19.5 818,-0.5 702,-0.5"/>
<text text-anchor="middle" x="760" y="-7.5" font-family="Helvetica,sans-Serif" font-size="10.00">UVCStreamerTest.cpp</text>
</a>
</g>
</g>
<!-- Node1&#45;&gt;Node6 -->
<g id="edge5" class="edge"><title>Node1&#45;&gt;Node6</title>
<path fill="none" stroke="midnightblue" d="M808.165,-49.8197C796.162,-40.1452 781.028,-27.9481 770.961,-19.8339"/>
<polygon fill="midnightblue" stroke="midnightblue" points="806.253,-52.7738 816.235,-56.324 810.646,-47.3236 806.253,-52.7738"/>
</g>
<!-- Node7 -->
<g id="node7" class="node"><title>Node7</title>
<g id="a_node7"><a xlink:href="TintinCDKCamera_8cpp.xhtml" target="_top" xlink:title="TintinCDKCamera.cpp">
<polygon fill="none" stroke="black" points="836,-0.5 836,-19.5 952,-19.5 952,-0.5 836,-0.5"/>
<text text-anchor="middle" x="894" y="-7.5" font-family="Helvetica,sans-Serif" font-size="10.00">TintinCDKCamera.cpp</text>
</a>
</g>
</g>
<!-- Node1&#45;&gt;Node7 -->
<g id="edge6" class="edge"><title>Node1&#45;&gt;Node7</title>
<path fill="none" stroke="midnightblue" d="M845.835,-49.8197C857.838,-40.1452 872.972,-27.9481 883.039,-19.8339"/>
<polygon fill="midnightblue" stroke="midnightblue" points="843.354,-47.3236 837.765,-56.324 847.747,-52.7738 843.354,-47.3236"/>
</g>
<!-- Node8 -->
<g id="node8" class="node"><title>Node8</title>
<g id="a_node8"><a xlink:href="Voxel14Camera_8cpp.xhtml" target="_top" xlink:title="Voxel14Camera.cpp">
<polygon fill="none" stroke="black" points="970.5,-0.5 970.5,-19.5 1075.5,-19.5 1075.5,-0.5 970.5,-0.5"/>
<text text-anchor="middle" x="1023" y="-7.5" font-family="Helvetica,sans-Serif" font-size="10.00">Voxel14Camera.cpp</text>
</a>
</g>
</g>
<!-- Node1&#45;&gt;Node8 -->
<g id="edge7" class="edge"><title>Node1&#45;&gt;Node8</title>
<path fill="none" stroke="midnightblue" d="M868.02,-53.6986C905.011,-43.507 958.6,-28.7429 992.089,-19.5164"/>
<polygon fill="midnightblue" stroke="midnightblue" points="866.768,-50.4131 858.057,-56.4435 868.627,-57.1616 866.768,-50.4131"/>
</g>
<!-- Node9 -->
<g id="node9" class="node"><title>Node9</title>
<g id="a_node9"><a xlink:href="VoxelDCamera_8cpp.xhtml" target="_top" xlink:title="VoxelDCamera.cpp">
<polygon fill="none" stroke="black" points="1094,-0.5 1094,-19.5 1196,-19.5 1196,-0.5 1094,-0.5"/>
<text text-anchor="middle" x="1145" y="-7.5" font-family="Helvetica,sans-Serif" font-size="10.00">VoxelDCamera.cpp</text>
</a>
</g>
</g>
<!-- Node1&#45;&gt;Node9 -->
<g id="edge8" class="edge"><title>Node1&#45;&gt;Node9</title>
<path fill="none" stroke="midnightblue" d="M880.211,-55.9641C939.988,-45.8133 1036.28,-29.4614 1094.8,-19.5246"/>
<polygon fill="midnightblue" stroke="midnightblue" points="879.491,-52.5363 870.218,-57.6611 880.663,-59.4375 879.491,-52.5363"/>
</g>
<!-- Node10 -->
<g id="node10" class="node"><title>Node10</title>
<g id="a_node10"><a xlink:href="SerialNumber_8cpp.xhtml" target="_top" xlink:title="SerialNumber.cpp">
<polygon fill="none" stroke="black" points="1214.5,-0.5 1214.5,-19.5 1309.5,-19.5 1309.5,-0.5 1214.5,-0.5"/>
<text text-anchor="middle" x="1262" y="-7.5" font-family="Helvetica,sans-Serif" font-size="10.00">SerialNumber.cpp</text>
</a>
</g>
</g>
<!-- Node1&#45;&gt;Node10 -->
<g id="edge9" class="edge"><title>Node1&#45;&gt;Node10</title>
<path fill="none" stroke="midnightblue" d="M880.358,-59.2287C953.47,-51.1842 1088.85,-35.8013 1204,-20 1207.33,-19.5428 1210.77,-19.054 1214.23,-18.5492"/>
<polygon fill="midnightblue" stroke="midnightblue" points="879.591,-55.7917 870.032,-60.3615 880.354,-62.7499 879.591,-55.7917"/>
</g>
<!-- Node11 -->
<g id="node11" class="node"><title>Node11</title>
<g id="a_node11"><a xlink:href="UVCStreamer_8cpp.xhtml" target="_top" xlink:title="UVCStreamer.cpp">
<polygon fill="none" stroke="black" points="1327.5,-0.5 1327.5,-19.5 1424.5,-19.5 1424.5,-0.5 1327.5,-0.5"/>
<text text-anchor="middle" x="1376" y="-7.5" font-family="Helvetica,sans-Serif" font-size="10.00">UVCStreamer.cpp</text>
</a>
</g>
</g>
<!-- Node1&#45;&gt;Node11 -->
<g id="edge10" class="edge"><title>Node1&#45;&gt;Node11</title>
<path fill="none" stroke="midnightblue" d="M880.097,-61.2281C970.285,-54.5765 1159.1,-39.5912 1318,-20 1321.03,-19.6259 1324.15,-19.216 1327.3,-18.7836"/>
<polygon fill="midnightblue" stroke="midnightblue" points="879.833,-57.7379 870.116,-61.9598 880.345,-64.7192 879.833,-57.7379"/>
</g>
</g>
</svg>
