<?xml version="1.0" encoding="UTF-8" standalone="no"?>
<!DOCTYPE svg PUBLIC "-//W3C//DTD SVG 1.1//EN"
 "http://www.w3.org/Graphics/SVG/1.1/DTD/svg11.dtd">
<!-- Generated by graphviz version 2.36.0 (20140111.2315)
 -->
<!-- Title: UVCStreamer.h Pages: 1 -->
<!--zoomable 364 -->
<svg id="main" version="1.1" xmlns="http://www.w3.org/2000/svg" xmlns:xlink="http://www.w3.org/1999/xlink" xml:space="preserve" onload="init(evt)">
<style type="text/css"><![CDATA[
.edge:hover path { stroke: red; }
.edge:hover polygon { stroke: red; fill: red; }
]]></style>
<script type="text/javascript"><![CDATA[
var edges = document.getElementsByTagName('g');
if (edges && edges.length) {
  for (var i=0;i<edges.length;i++) {
    if (edges[i].id.substr(0,4)=='edge') {
      edges[i].setAttribute('class','edge');
    }
  }
}
]]></script>
        <defs>
                <circle id="rim" cx="0" cy="0" r="7"/>
                <circle id="rim2" cx="0" cy="0" r="3.5"/>
                <g id="zoomPlus">
                        <use xlink:href="#rim" fill="#404040">
                                <set attributeName="fill" to="#808080" begin="zoomplus.mouseover" end="zoomplus.mouseout"/>
                        </use>
                        <path d="M-4,0h8M0,-4v8" fill="none" stroke="white" stroke-width="1.5" pointer-events="none"/>
                </g>
                <g id="zoomMin">
                        <use xlink:href="#rim" fill="#404040">
                                <set attributeName="fill" to="#808080" begin="zoomminus.mouseover" end="zoomminus.mouseout"/>
                        </use>
                        <path d="M-4,0h8" fill="none" stroke="white" stroke-width="1.5" pointer-events="none"/>
                </g>
                <g id="dirArrow">
                        <path fill="none" stroke="white" stroke-width="1.5" d="M0,-3.0v7 M-2.5,-0.5L0,-3.0L2.5,-0.5"/>
                </g>
               <g id="resetDef">
                       <use xlink:href="#rim2" fill="#404040">
                               <set attributeName="fill" to="#808080" begin="reset.mouseover" end="reset.mouseout"/>
                       </use>
               </g>
        </defs>

<script type="text/javascript">
var viewWidth = 1429;
var viewHeight = 364;
var sectionId = 'dynsection-0';
</script>
<script xlink:href="svgpan.js"/>
<svg id="graph" class="graph">
<g id="viewport">
<title>UVCStreamer.h</title>
<!-- Node1 -->
<g id="node1" class="node"><title>Node1</title>
<polygon fill="#bfbfbf" stroke="black" points="678,-336.5 678,-355.5 764,-355.5 764,-336.5 678,-336.5"/>
<text text-anchor="middle" x="721" y="-343.5" font-family="Helvetica,sans-Serif" font-size="10.00">UVCStreamer.h</text>
</g>
<!-- Node2 -->
<g id="node2" class="node"><title>Node2</title>
<g id="a_node2"><a xlink:href="Streamer_8h.xhtml" target="_top" xlink:title="Streamer.h">
<polygon fill="none" stroke="black" points="725.5,-280.5 725.5,-299.5 790.5,-299.5 790.5,-280.5 725.5,-280.5"/>
<text text-anchor="middle" x="758" y="-287.5" font-family="Helvetica,sans-Serif" font-size="10.00">Streamer.h</text>
</a>
</g>
</g>
<!-- Node1&#45;&gt;Node2 -->
<g id="edge1" class="edge"><title>Node1&#45;&gt;Node2</title>
<path fill="none" stroke="midnightblue" d="M727.11,-336.083C732.282,-328.534 739.846,-317.495 746.194,-308.23"/>
<polygon fill="midnightblue" stroke="midnightblue" points="749.239,-309.979 752.004,-299.751 743.464,-306.022 749.239,-309.979"/>
</g>
<!-- Node34 -->
<g id="node34" class="node"><title>Node34</title>
<g id="a_node34"><a xlink:href="UVC_8h.xhtml" target="_top" xlink:title="UVC.h">
<polygon fill="none" stroke="black" points="660.5,-280.5 660.5,-299.5 707.5,-299.5 707.5,-280.5 660.5,-280.5"/>
<text text-anchor="middle" x="684" y="-287.5" font-family="Helvetica,sans-Serif" font-size="10.00">UVC.h</text>
</a>
</g>
</g>
<!-- Node1&#45;&gt;Node34 -->
<g id="edge42" class="edge"><title>Node1&#45;&gt;Node34</title>
<path fill="none" stroke="midnightblue" d="M714.89,-336.083C709.718,-328.534 702.154,-317.495 695.806,-308.23"/>
<polygon fill="midnightblue" stroke="midnightblue" points="698.536,-306.022 689.996,-299.751 692.761,-309.979 698.536,-306.022"/>
</g>
<!-- Node3 -->
<g id="node3" class="node"><title>Node3</title>
<g id="a_node3"><a xlink:href="Device_8h.xhtml" target="_top" xlink:title="Device.h">
<polygon fill="none" stroke="black" points="656,-224.5 656,-243.5 712,-243.5 712,-224.5 656,-224.5"/>
<text text-anchor="middle" x="684" y="-231.5" font-family="Helvetica,sans-Serif" font-size="10.00">Device.h</text>
</a>
</g>
</g>
<!-- Node2&#45;&gt;Node3 -->
<g id="edge2" class="edge"><title>Node2&#45;&gt;Node3</title>
<path fill="none" stroke="midnightblue" d="M746.111,-280.324C734.85,-272.107 717.713,-259.602 704.291,-249.807"/>
<polygon fill="midnightblue" stroke="midnightblue" points="706.247,-246.901 696.106,-243.834 702.12,-252.556 706.247,-246.901"/>
</g>
<!-- Node26 -->
<g id="node26" class="node"><title>Node26</title>
<g id="a_node26"><a xlink:href="Frame_8h.xhtml" target="_top" xlink:title="Frame.h">
<polygon fill="none" stroke="black" points="798.5,-224.5 798.5,-243.5 851.5,-243.5 851.5,-224.5 798.5,-224.5"/>
<text text-anchor="middle" x="825" y="-231.5" font-family="Helvetica,sans-Serif" font-size="10.00">Frame.h</text>
</a>
</g>
</g>
<!-- Node2&#45;&gt;Node26 -->
<g id="edge26" class="edge"><title>Node2&#45;&gt;Node26</title>
<path fill="none" stroke="midnightblue" d="M768.765,-280.324C778.766,-272.263 793.887,-260.077 805.93,-250.369"/>
<polygon fill="midnightblue" stroke="midnightblue" points="808.45,-252.834 814.039,-243.834 804.057,-247.384 808.45,-252.834"/>
</g>
<!-- Node30 -->
<g id="node30" class="node"><title>Node30</title>
<g id="a_node30"><a xlink:href="VideoMode_8h.xhtml" target="_top" xlink:title="VideoMode.h">
<polygon fill="none" stroke="black" points="981,-168.5 981,-187.5 1055,-187.5 1055,-168.5 981,-168.5"/>
<text text-anchor="middle" x="1018" y="-175.5" font-family="Helvetica,sans-Serif" font-size="10.00">VideoMode.h</text>
</a>
</g>
</g>
<!-- Node2&#45;&gt;Node30 -->
<g id="edge39" class="edge"><title>Node2&#45;&gt;Node30</title>
<path fill="none" stroke="midnightblue" d="M778.402,-280.368C824.157,-261.01 935.12,-214.065 988.437,-191.507"/>
<polygon fill="midnightblue" stroke="midnightblue" points="989.847,-194.711 997.693,-187.591 987.12,-188.264 989.847,-194.711"/>
</g>
<!-- Node33 -->
<g id="node33" class="node"><title>Node33</title>
<g id="a_node33"><a xlink:href="Timer_8h.xhtml" target="_top" xlink:title="Timer.h">
<polygon fill="none" stroke="black" points="730,-224.5 730,-243.5 780,-243.5 780,-224.5 730,-224.5"/>
<text text-anchor="middle" x="755" y="-231.5" font-family="Helvetica,sans-Serif" font-size="10.00">Timer.h</text>
</a>
</g>
</g>
<!-- Node2&#45;&gt;Node33 -->
<g id="edge40" class="edge"><title>Node2&#45;&gt;Node33</title>
<path fill="none" stroke="midnightblue" d="M757.505,-280.083C757.111,-273.006 756.548,-262.861 756.055,-253.986"/>
<polygon fill="midnightblue" stroke="midnightblue" points="759.536,-253.542 755.486,-243.751 752.546,-253.93 759.536,-253.542"/>
</g>
<!-- Node4 -->
<g id="node4" class="node"><title>Node4</title>
<g id="a_node4"><a xlink:href="Common_8h.xhtml" target="_top" xlink:title="Common.h">
<polygon fill="none" stroke="black" points="710.5,-112.5 710.5,-131.5 775.5,-131.5 775.5,-112.5 710.5,-112.5"/>
<text text-anchor="middle" x="743" y="-119.5" font-family="Helvetica,sans-Serif" font-size="10.00">Common.h</text>
</a>
</g>
</g>
<!-- Node3&#45;&gt;Node4 -->
<g id="edge3" class="edge"><title>Node3&#45;&gt;Node4</title>
<path fill="none" stroke="midnightblue" d="M688.63,-224.368C698.28,-206.376 720.714,-164.55 733.546,-140.627"/>
<polygon fill="midnightblue" stroke="midnightblue" points="736.75,-142.058 738.392,-131.591 730.581,-138.749 736.75,-142.058"/>
</g>
<!-- Node10 -->
<g id="node10" class="node"><title>Node10</title>
<polygon fill="none" stroke="#bfbfbf" points="0,-56.5 0,-75.5 52,-75.5 52,-56.5 0,-56.5"/>
<text text-anchor="middle" x="26" y="-63.5" font-family="Helvetica,sans-Serif" font-size="10.00">sstream</text>
</g>
<!-- Node3&#45;&gt;Node10 -->
<g id="edge25" class="edge"><title>Node3&#45;&gt;Node10</title>
<path fill="none" stroke="midnightblue" d="M655.993,-230.943C600.161,-226.425 471.31,-213.91 366,-188 247.524,-158.851 112.557,-104.033 54.7418,-79.4649"/>
<polygon fill="midnightblue" stroke="midnightblue" points="56.0715,-76.227 45.5006,-75.5155 53.3206,-82.6638 56.0715,-76.227"/>
</g>
<!-- Node5 -->
<g id="node5" class="node"><title>Node5</title>
<polygon fill="none" stroke="#bfbfbf" points="762,-56.5 762,-75.5 806,-75.5 806,-56.5 762,-56.5"/>
<text text-anchor="middle" x="784" y="-63.5" font-family="Helvetica,sans-Serif" font-size="10.00">vector</text>
</g>
<!-- Node4&#45;&gt;Node5 -->
<g id="edge4" class="edge"><title>Node4&#45;&gt;Node5</title>
<path fill="none" stroke="midnightblue" d="M749.77,-112.083C755.562,-104.455 764.058,-93.2645 771.138,-83.9408"/>
<polygon fill="midnightblue" stroke="midnightblue" points="774.096,-85.8321 777.356,-75.7511 768.521,-81.5991 774.096,-85.8321"/>
</g>
<!-- Node6 -->
<g id="node6" class="node"><title>Node6</title>
<polygon fill="none" stroke="#bfbfbf" points="1372.5,-56.5 1372.5,-75.5 1421.5,-75.5 1421.5,-56.5 1372.5,-56.5"/>
<text text-anchor="middle" x="1397" y="-63.5" font-family="Helvetica,sans-Serif" font-size="10.00">stdint.h</text>
</g>
<!-- Node4&#45;&gt;Node6 -->
<g id="edge5" class="edge"><title>Node4&#45;&gt;Node6</title>
<path fill="none" stroke="midnightblue" d="M775.592,-113.372C778.426,-112.852 781.258,-112.384 784,-112 1038.9,-76.3016 1107.78,-116.23 1362,-76 1362.1,-75.9835 1362.21,-75.9667 1362.31,-75.9498"/>
<polygon fill="midnightblue" stroke="midnightblue" points="1363.14,-79.3551 1372.27,-73.9785 1361.78,-72.4885 1363.14,-79.3551"/>
</g>
<!-- Node7 -->
<g id="node7" class="node"><title>Node7</title>
<polygon fill="none" stroke="#bfbfbf" points="824.5,-56.5 824.5,-75.5 865.5,-75.5 865.5,-56.5 824.5,-56.5"/>
<text text-anchor="middle" x="845" y="-63.5" font-family="Helvetica,sans-Serif" font-size="10.00">string</text>
</g>
<!-- Node4&#45;&gt;Node7 -->
<g id="edge6" class="edge"><title>Node4&#45;&gt;Node7</title>
<path fill="none" stroke="midnightblue" d="M759.388,-112.324C775.671,-103.703 800.867,-90.3643 819.716,-80.3855"/>
<polygon fill="midnightblue" stroke="midnightblue" points="821.452,-83.4267 828.653,-75.6545 818.177,-77.2402 821.452,-83.4267"/>
</g>
<!-- Node8 -->
<g id="node8" class="node"><title>Node8</title>
<polygon fill="none" stroke="#bfbfbf" points="884,-56.5 884,-75.5 938,-75.5 938,-56.5 884,-56.5"/>
<text text-anchor="middle" x="911" y="-63.5" font-family="Helvetica,sans-Serif" font-size="10.00">iostream</text>
</g>
<!-- Node4&#45;&gt;Node8 -->
<g id="edge7" class="edge"><title>Node4&#45;&gt;Node8</title>
<path fill="none" stroke="midnightblue" d="M769.62,-112.444C798.006,-103.32 843.137,-88.8133 874.753,-78.6509"/>
<polygon fill="midnightblue" stroke="midnightblue" points="876.055,-81.9087 884.504,-75.5164 873.913,-75.2445 876.055,-81.9087"/>
</g>
<!-- Node9 -->
<g id="node9" class="node"><title>Node9</title>
<polygon fill="none" stroke="#bfbfbf" points="956,-56.5 956,-75.5 1006,-75.5 1006,-56.5 956,-56.5"/>
<text text-anchor="middle" x="981" y="-63.5" font-family="Helvetica,sans-Serif" font-size="10.00">fstream</text>
</g>
<!-- Node4&#45;&gt;Node9 -->
<g id="edge8" class="edge"><title>Node4&#45;&gt;Node9</title>
<path fill="none" stroke="midnightblue" d="M775.895,-113.781C824.722,-103.062 913.462,-83.5601 945.852,-76.1303"/>
<polygon fill="midnightblue" stroke="midnightblue" points="946.843,-79.493 955.779,-73.8013 945.244,-72.678 946.843,-79.493"/>
</g>
<!-- Node4&#45;&gt;Node10 -->
<g id="edge9" class="edge"><title>Node4&#45;&gt;Node10</title>
<path fill="none" stroke="midnightblue" d="M710.457,-120.989C613.239,-120.506 316.481,-115.764 62.422,-75.9269"/>
<polygon fill="midnightblue" stroke="midnightblue" points="62.6886,-72.4254 52.263,-74.3114 61.5892,-79.3385 62.6886,-72.4254"/>
</g>
<!-- Node11 -->
<g id="node11" class="node"><title>Node11</title>
<polygon fill="none" stroke="#bfbfbf" points="1024.5,-56.5 1024.5,-75.5 1107.5,-75.5 1107.5,-56.5 1024.5,-56.5"/>
<text text-anchor="middle" x="1066" y="-63.5" font-family="Helvetica,sans-Serif" font-size="10.00">unordered_map</text>
</g>
<!-- Node4&#45;&gt;Node11 -->
<g id="edge10" class="edge"><title>Node4&#45;&gt;Node11</title>
<path fill="none" stroke="midnightblue" d="M775.637,-113.646C778.461,-113.067 781.278,-112.51 784,-112 883.035,-93.4315 910.833,-93.0365 1014.34,-76.0738"/>
<polygon fill="midnightblue" stroke="midnightblue" points="1014.97,-79.5182 1024.26,-74.4356 1013.83,-72.6117 1014.97,-79.5182"/>
</g>
<!-- Node12 -->
<g id="node12" class="node"><title>Node12</title>
<polygon fill="none" stroke="#bfbfbf" points="1125.5,-56.5 1125.5,-75.5 1184.5,-75.5 1184.5,-56.5 1125.5,-56.5"/>
<text text-anchor="middle" x="1155" y="-63.5" font-family="Helvetica,sans-Serif" font-size="10.00">functional</text>
</g>
<!-- Node4&#45;&gt;Node12 -->
<g id="edge11" class="edge"><title>Node4&#45;&gt;Node12</title>
<path fill="none" stroke="midnightblue" d="M775.613,-113.508C778.442,-112.959 781.267,-112.447 784,-112 927.329,-88.5683 967.921,-100.203 1115.39,-75.8992"/>
<polygon fill="midnightblue" stroke="midnightblue" points="1115.98,-79.3499 1125.26,-74.2457 1114.82,-72.4461 1115.98,-79.3499"/>
</g>
<!-- Node13 -->
<g id="node13" class="node"><title>Node13</title>
<polygon fill="none" stroke="#bfbfbf" points="1202.5,-56.5 1202.5,-75.5 1231.5,-75.5 1231.5,-56.5 1202.5,-56.5"/>
<text text-anchor="middle" x="1217" y="-63.5" font-family="Helvetica,sans-Serif" font-size="10.00">list</text>
</g>
<!-- Node4&#45;&gt;Node13 -->
<g id="edge12" class="edge"><title>Node4&#45;&gt;Node13</title>
<path fill="none" stroke="midnightblue" d="M775.603,-113.448C778.435,-112.912 781.263,-112.419 784,-112 961.208,-84.8661 1013.23,-115.299 1192.71,-75.3765"/>
<polygon fill="midnightblue" stroke="midnightblue" points="1193.49,-78.7888 1202.47,-73.1652 1191.94,-71.9618 1193.49,-78.7888"/>
</g>
<!-- Node14 -->
<g id="node14" class="node"><title>Node14</title>
<polygon fill="none" stroke="#bfbfbf" points="1250,-56.5 1250,-75.5 1280,-75.5 1280,-56.5 1250,-56.5"/>
<text text-anchor="middle" x="1265" y="-63.5" font-family="Helvetica,sans-Serif" font-size="10.00">set</text>
</g>
<!-- Node4&#45;&gt;Node14 -->
<g id="edge13" class="edge"><title>Node4&#45;&gt;Node14</title>
<path fill="none" stroke="midnightblue" d="M775.599,-113.421C778.431,-112.891 781.261,-112.407 784,-112 985.092,-82.1354 1041.26,-118.811 1240,-76 1240.1,-75.9781 1240.2,-75.956 1240.3,-75.9335"/>
<polygon fill="midnightblue" stroke="midnightblue" points="1241.21,-79.3142 1249.85,-73.1808 1239.27,-72.5882 1241.21,-79.3142"/>
</g>
<!-- Node15 -->
<g id="node15" class="node"><title>Node15</title>
<polygon fill="none" stroke="#bfbfbf" points="70,-56.5 70,-75.5 116,-75.5 116,-56.5 70,-56.5"/>
<text text-anchor="middle" x="93" y="-63.5" font-family="Helvetica,sans-Serif" font-size="10.00">atomic</text>
</g>
<!-- Node4&#45;&gt;Node15 -->
<g id="edge14" class="edge"><title>Node4&#45;&gt;Node15</title>
<path fill="none" stroke="midnightblue" d="M710.219,-120.927C618.933,-120.236 354.108,-114.91 126.423,-75.8991"/>
<polygon fill="midnightblue" stroke="midnightblue" points="126.745,-72.4028 116.293,-74.1369 125.546,-79.2992 126.745,-72.4028"/>
</g>
<!-- Node16 -->
<g id="node16" class="node"><title>Node16</title>
<polygon fill="none" stroke="#bfbfbf" points="134,-56.5 134,-75.5 180,-75.5 180,-56.5 134,-56.5"/>
<text text-anchor="middle" x="157" y="-63.5" font-family="Helvetica,sans-Serif" font-size="10.00">cctype</text>
</g>
<!-- Node4&#45;&gt;Node16 -->
<g id="edge15" class="edge"><title>Node4&#45;&gt;Node16</title>
<path fill="none" stroke="midnightblue" d="M710.246,-120.54C625.543,-118.885 392.336,-111.368 190.203,-75.88"/>
<polygon fill="midnightblue" stroke="midnightblue" points="190.757,-72.4236 180.298,-74.1138 189.528,-79.3149 190.757,-72.4236"/>
</g>
<!-- Node17 -->
<g id="node17" class="node"><title>Node17</title>
<polygon fill="none" stroke="#bfbfbf" points="1298,-56.5 1298,-75.5 1354,-75.5 1354,-56.5 1298,-56.5"/>
<text text-anchor="middle" x="1326" y="-63.5" font-family="Helvetica,sans-Serif" font-size="10.00">algorithm</text>
</g>
<!-- Node4&#45;&gt;Node17 -->
<g id="edge16" class="edge"><title>Node4&#45;&gt;Node17</title>
<path fill="none" stroke="midnightblue" d="M775.596,-113.399C778.429,-112.874 781.259,-112.397 784,-112 1006.26,-79.841 1066.02,-109.988 1288,-76 1288.1,-75.9846 1288.2,-75.9691 1288.3,-75.9534"/>
<polygon fill="midnightblue" stroke="midnightblue" points="1288.67,-79.4436 1297.88,-74.194 1287.41,-72.5589 1288.67,-79.4436"/>
</g>
<!-- Node18 -->
<g id="node18" class="node"><title>Node18</title>
<polygon fill="none" stroke="#bfbfbf" points="198.5,-56.5 198.5,-75.5 251.5,-75.5 251.5,-56.5 198.5,-56.5"/>
<text text-anchor="middle" x="225" y="-63.5" font-family="Helvetica,sans-Serif" font-size="10.00">complex</text>
</g>
<!-- Node4&#45;&gt;Node18 -->
<g id="edge17" class="edge"><title>Node4&#45;&gt;Node18</title>
<path fill="none" stroke="midnightblue" d="M710.337,-119.664C633.657,-116.162 436.071,-105.02 261.515,-75.815"/>
<polygon fill="midnightblue" stroke="midnightblue" points="262.085,-72.3618 251.641,-74.1391 260.914,-79.2631 262.085,-72.3618"/>
</g>
<!-- Node19 -->
<g id="node19" class="node"><title>Node19</title>
<polygon fill="none" stroke="#bfbfbf" points="270,-56.5 270,-75.5 314,-75.5 314,-56.5 270,-56.5"/>
<text text-anchor="middle" x="292" y="-63.5" font-family="Helvetica,sans-Serif" font-size="10.00">thread</text>
</g>
<!-- Node4&#45;&gt;Node19 -->
<g id="edge18" class="edge"><title>Node4&#45;&gt;Node19</title>
<path fill="none" stroke="midnightblue" d="M710.299,-119.456C640.832,-115.759 473.386,-104.635 324.47,-75.9671"/>
<polygon fill="midnightblue" stroke="midnightblue" points="324.722,-72.4501 314.236,-73.9631 323.377,-79.3196 324.722,-72.4501"/>
</g>
<!-- Node20 -->
<g id="node20" class="node"><title>Node20</title>
<g id="a_node20"><a xlink:href="Ptr_8h.xhtml" target="_top" xlink:title="Ptr.h">
<polygon fill="none" stroke="black" points="332,-56.5 332,-75.5 370,-75.5 370,-56.5 332,-56.5"/>
<text text-anchor="middle" x="351" y="-63.5" font-family="Helvetica,sans-Serif" font-size="10.00">Ptr.h</text>
</a>
</g>
</g>
<!-- Node4&#45;&gt;Node20 -->
<g id="edge19" class="edge"><title>Node4&#45;&gt;Node20</title>
<path fill="none" stroke="midnightblue" d="M710.27,-119.023C647.721,-114.804 506.87,-103.173 380.032,-75.8469"/>
<polygon fill="midnightblue" stroke="midnightblue" points="380.667,-72.403 370.149,-73.6791 379.167,-79.2405 380.667,-72.403"/>
</g>
<!-- Node22 -->
<g id="node22" class="node"><title>Node22</title>
<polygon fill="none" stroke="#bfbfbf" points="388,-56.5 388,-75.5 432,-75.5 432,-56.5 388,-56.5"/>
<text text-anchor="middle" x="410" y="-63.5" font-family="Helvetica,sans-Serif" font-size="10.00">mutex</text>
</g>
<!-- Node4&#45;&gt;Node22 -->
<g id="edge21" class="edge"><title>Node4&#45;&gt;Node22</title>
<path fill="none" stroke="midnightblue" d="M710.114,-117.569C656.088,-111.616 545.063,-98.0544 442.187,-76.0109"/>
<polygon fill="midnightblue" stroke="midnightblue" points="442.774,-72.5569 432.259,-73.8511 441.286,-79.3969 442.774,-72.5569"/>
</g>
<!-- Node23 -->
<g id="node23" class="node"><title>Node23</title>
<polygon fill="none" stroke="#bfbfbf" points="450.5,-56.5 450.5,-75.5 545.5,-75.5 545.5,-56.5 450.5,-56.5"/>
<text text-anchor="middle" x="498" y="-63.5" font-family="Helvetica,sans-Serif" font-size="10.00">condition_variable</text>
</g>
<!-- Node4&#45;&gt;Node23 -->
<g id="edge22" class="edge"><title>Node4&#45;&gt;Node23</title>
<path fill="none" stroke="midnightblue" d="M710.466,-113.829C668.541,-104.589 595.282,-88.4418 546.705,-77.7349"/>
<polygon fill="midnightblue" stroke="midnightblue" points="547.252,-74.2717 536.733,-75.5371 545.746,-81.1076 547.252,-74.2717"/>
</g>
<!-- Node24 -->
<g id="node24" class="node"><title>Node24</title>
<polygon fill="none" stroke="#bfbfbf" points="564,-56.5 564,-75.5 642,-75.5 642,-56.5 564,-56.5"/>
<text text-anchor="middle" x="603" y="-63.5" font-family="Helvetica,sans-Serif" font-size="10.00">VoxelConfig.h</text>
</g>
<!-- Node4&#45;&gt;Node24 -->
<g id="edge23" class="edge"><title>Node4&#45;&gt;Node24</title>
<path fill="none" stroke="midnightblue" d="M720.817,-112.444C697.572,-103.478 660.851,-89.314 634.585,-79.1827"/>
<polygon fill="midnightblue" stroke="midnightblue" points="635.669,-75.8497 625.08,-75.5164 633.15,-82.3807 635.669,-75.8497"/>
</g>
<!-- Node25 -->
<g id="node25" class="node"><title>Node25</title>
<polygon fill="none" stroke="#bfbfbf" points="660.5,-56.5 660.5,-75.5 743.5,-75.5 743.5,-56.5 660.5,-56.5"/>
<text text-anchor="middle" x="702" y="-63.5" font-family="Helvetica,sans-Serif" font-size="10.00">VoxelExports.h</text>
</g>
<!-- Node4&#45;&gt;Node25 -->
<g id="edge24" class="edge"><title>Node4&#45;&gt;Node25</title>
<path fill="none" stroke="midnightblue" d="M736.23,-112.083C730.438,-104.455 721.942,-93.2645 714.862,-83.9408"/>
<polygon fill="midnightblue" stroke="midnightblue" points="717.479,-81.5991 708.644,-75.7511 711.904,-85.8321 717.479,-81.5991"/>
</g>
<!-- Node21 -->
<g id="node21" class="node"><title>Node21</title>
<polygon fill="none" stroke="#bfbfbf" points="325,-0.5 325,-19.5 377,-19.5 377,-0.5 325,-0.5"/>
<text text-anchor="middle" x="351" y="-7.5" font-family="Helvetica,sans-Serif" font-size="10.00">memory</text>
</g>
<!-- Node20&#45;&gt;Node21 -->
<g id="edge20" class="edge"><title>Node20&#45;&gt;Node21</title>
<path fill="none" stroke="midnightblue" d="M351,-56.083C351,-49.0059 351,-38.8611 351,-29.9865"/>
<polygon fill="midnightblue" stroke="midnightblue" points="354.5,-29.751 351,-19.7511 347.5,-29.7511 354.5,-29.751"/>
</g>
<!-- Node26&#45;&gt;Node4 -->
<g id="edge27" class="edge"><title>Node26&#45;&gt;Node4</title>
<path fill="none" stroke="midnightblue" d="M818.566,-224.368C804.973,-206.135 773.136,-163.426 755.431,-139.675"/>
<polygon fill="midnightblue" stroke="midnightblue" points="758.187,-137.517 749.405,-131.591 752.575,-141.701 758.187,-137.517"/>
</g>
<!-- Node26&#45;&gt;Node10 -->
<g id="edge38" class="edge"><title>Node26&#45;&gt;Node10</title>
<path fill="none" stroke="midnightblue" d="M798.295,-226.184C795.166,-225.427 792.016,-224.683 789,-224 470.287,-151.802 384.521,-150.055 62.4255,-76.2438"/>
<polygon fill="midnightblue" stroke="midnightblue" points="62.8678,-72.7544 52.338,-73.9264 61.3005,-79.5766 62.8678,-72.7544"/>
</g>
<!-- Node27 -->
<g id="node27" class="node"><title>Node27</title>
<g id="a_node27"><a xlink:href="Point_8h.xhtml" target="_top" xlink:title="Point.h">
<polygon fill="none" stroke="black" points="801.5,-168.5 801.5,-187.5 848.5,-187.5 848.5,-168.5 801.5,-168.5"/>
<text text-anchor="middle" x="825" y="-175.5" font-family="Helvetica,sans-Serif" font-size="10.00">Point.h</text>
</a>
</g>
</g>
<!-- Node26&#45;&gt;Node27 -->
<g id="edge28" class="edge"><title>Node26&#45;&gt;Node27</title>
<path fill="none" stroke="midnightblue" d="M825,-224.083C825,-217.006 825,-206.861 825,-197.986"/>
<polygon fill="midnightblue" stroke="midnightblue" points="828.5,-197.751 825,-187.751 821.5,-197.751 828.5,-197.751"/>
</g>
<!-- Node26&#45;&gt;Node30 -->
<g id="edge32" class="edge"><title>Node26&#45;&gt;Node30</title>
<path fill="none" stroke="midnightblue" d="M851.836,-225.492C884.543,-216.34 940.113,-200.792 977.902,-190.219"/>
<polygon fill="midnightblue" stroke="midnightblue" points="978.891,-193.577 987.578,-187.512 977.005,-186.836 978.891,-193.577"/>
</g>
<!-- Node31 -->
<g id="node31" class="node"><title>Node31</title>
<g id="a_node31"><a xlink:href="SerializedObject_8h.xhtml" target="_top" xlink:title="SerializedObject.h">
<polygon fill="none" stroke="black" points="867,-168.5 867,-187.5 963,-187.5 963,-168.5 867,-168.5"/>
<text text-anchor="middle" x="915" y="-175.5" font-family="Helvetica,sans-Serif" font-size="10.00">SerializedObject.h</text>
</a>
</g>
</g>
<!-- Node26&#45;&gt;Node31 -->
<g id="edge34" class="edge"><title>Node26&#45;&gt;Node31</title>
<path fill="none" stroke="midnightblue" d="M839.46,-224.324C853.5,-215.9 875.048,-202.971 891.543,-193.074"/>
<polygon fill="midnightblue" stroke="midnightblue" points="893.802,-195.801 900.576,-187.655 890.2,-189.798 893.802,-195.801"/>
</g>
<!-- Node27&#45;&gt;Node4 -->
<g id="edge31" class="edge"><title>Node27&#45;&gt;Node4</title>
<path fill="none" stroke="midnightblue" d="M811.825,-168.324C799.153,-159.979 779.767,-147.212 764.794,-137.352"/>
<polygon fill="midnightblue" stroke="midnightblue" points="766.419,-134.231 756.142,-131.655 762.569,-140.078 766.419,-134.231"/>
</g>
<!-- Node28 -->
<g id="node28" class="node"><title>Node28</title>
<polygon fill="none" stroke="#bfbfbf" points="793.5,-112.5 793.5,-131.5 840.5,-131.5 840.5,-112.5 793.5,-112.5"/>
<text text-anchor="middle" x="817" y="-119.5" font-family="Helvetica,sans-Serif" font-size="10.00">math.h</text>
</g>
<!-- Node27&#45;&gt;Node28 -->
<g id="edge29" class="edge"><title>Node27&#45;&gt;Node28</title>
<path fill="none" stroke="midnightblue" d="M823.679,-168.083C822.619,-160.927 821.094,-150.635 819.769,-141.691"/>
<polygon fill="midnightblue" stroke="midnightblue" points="823.224,-141.13 818.296,-131.751 816.3,-142.156 823.224,-141.13"/>
</g>
<!-- Node29 -->
<g id="node29" class="node"><title>Node29</title>
<polygon fill="none" stroke="#bfbfbf" points="859,-112.5 859,-131.5 921,-131.5 921,-112.5 859,-112.5"/>
<text text-anchor="middle" x="890" y="-119.5" font-family="Helvetica,sans-Serif" font-size="10.00">type_traits</text>
</g>
<!-- Node27&#45;&gt;Node29 -->
<g id="edge30" class="edge"><title>Node27&#45;&gt;Node29</title>
<path fill="none" stroke="midnightblue" d="M835.443,-168.324C845.146,-160.263 859.815,-148.077 871.5,-138.369"/>
<polygon fill="midnightblue" stroke="midnightblue" points="873.911,-140.916 879.367,-131.834 869.438,-135.532 873.911,-140.916"/>
</g>
<!-- Node30&#45;&gt;Node6 -->
<g id="edge33" class="edge"><title>Node30&#45;&gt;Node6</title>
<path fill="none" stroke="midnightblue" d="M1047.42,-168.46C1116.53,-148.404 1288.89,-98.3781 1362.64,-76.9728"/>
<polygon fill="midnightblue" stroke="midnightblue" points="1363.74,-80.2972 1372.37,-74.1485 1361.79,-73.5746 1363.74,-80.2972"/>
</g>
<!-- Node31&#45;&gt;Node4 -->
<g id="edge35" class="edge"><title>Node31&#45;&gt;Node4</title>
<path fill="none" stroke="midnightblue" d="M887.746,-168.444C858.559,-159.28 812.079,-144.688 779.691,-134.519"/>
<polygon fill="midnightblue" stroke="midnightblue" points="780.716,-131.173 770.126,-131.516 778.619,-137.851 780.716,-131.173"/>
</g>
<!-- Node31&#45;&gt;Node17 -->
<g id="edge37" class="edge"><title>Node31&#45;&gt;Node17</title>
<path fill="none" stroke="midnightblue" d="M919.145,-168.453C926.65,-154.019 943.969,-125.109 968,-112 1093.64,-43.4619 1147,-100.537 1288,-76 1288.1,-75.9826 1288.2,-75.965 1288.3,-75.9474"/>
<polygon fill="midnightblue" stroke="midnightblue" points="1288.72,-79.4319 1297.86,-74.0645 1287.37,-72.5639 1288.72,-79.4319"/>
</g>
<!-- Node32 -->
<g id="node32" class="node"><title>Node32</title>
<polygon fill="none" stroke="#bfbfbf" points="977.5,-112.5 977.5,-131.5 1026.5,-131.5 1026.5,-112.5 977.5,-112.5"/>
<text text-anchor="middle" x="1002" y="-119.5" font-family="Helvetica,sans-Serif" font-size="10.00">string.h</text>
</g>
<!-- Node31&#45;&gt;Node32 -->
<g id="edge36" class="edge"><title>Node31&#45;&gt;Node32</title>
<path fill="none" stroke="midnightblue" d="M928.978,-168.324C942.55,-159.9 963.38,-146.971 979.325,-137.074"/>
<polygon fill="midnightblue" stroke="midnightblue" points="981.406,-139.902 988.057,-131.655 977.714,-133.954 981.406,-139.902"/>
</g>
<!-- Node33&#45;&gt;Node4 -->
<g id="edge41" class="edge"><title>Node33&#45;&gt;Node4</title>
<path fill="none" stroke="midnightblue" d="M754.058,-224.368C752.122,-206.617 747.655,-165.666 745.029,-141.597"/>
<polygon fill="midnightblue" stroke="midnightblue" points="748.501,-141.153 743.937,-131.591 741.542,-141.912 748.501,-141.153"/>
</g>
<!-- Node34&#45;&gt;Node3 -->
<g id="edge43" class="edge"><title>Node34&#45;&gt;Node3</title>
<path fill="none" stroke="midnightblue" d="M684,-280.083C684,-273.006 684,-262.861 684,-253.986"/>
<polygon fill="midnightblue" stroke="midnightblue" points="687.5,-253.751 684,-243.751 680.5,-253.751 687.5,-253.751"/>
</g>
</g>
</svg>
        <g id="navigator" transform="translate(0 0)" fill="#404254">
                <rect fill="#f2f5e9" fill-opacity="0.5" stroke="#606060" stroke-width=".5" x="0" y="0" width="60" height="60"/>
                <use id="zoomplus" xlink:href="#zoomPlus" x="17" y="9" onmousedown="handleZoom(evt,'in')"/>
                <use id="zoomminus" xlink:href="#zoomMin" x="42" y="9" onmousedown="handleZoom(evt,'out')"/>
                <use id="reset" xlink:href="#resetDef" x="30" y="36" onmousedown="handleReset()"/>
                <g id="arrowUp" xlink:href="#dirArrow" transform="translate(30 24)" onmousedown="handlePan(0,-1)">
                  <use xlink:href="#rim" fill="#404040">
                        <set attributeName="fill" to="#808080" begin="arrowUp.mouseover" end="arrowUp.mouseout"/>
                  </use>
                  <path fill="none" stroke="white" stroke-width="1.5" d="M0,-3.0v7 M-2.5,-0.5L0,-3.0L2.5,-0.5"/>
                </g>
                <g id="arrowRight" xlink:href="#dirArrow" transform="rotate(90) translate(36 -43)" onmousedown="handlePan(1,0)">
                  <use xlink:href="#rim" fill="#404040">
                        <set attributeName="fill" to="#808080" begin="arrowRight.mouseover" end="arrowRight.mouseout"/>
                  </use>
                  <path fill="none" stroke="white" stroke-width="1.5" d="M0,-3.0v7 M-2.5,-0.5L0,-3.0L2.5,-0.5"/>
                </g>
                <g id="arrowDown" xlink:href="#dirArrow" transform="rotate(180) translate(-30 -48)" onmousedown="handlePan(0,1)">
                  <use xlink:href="#rim" fill="#404040">
                        <set attributeName="fill" to="#808080" begin="arrowDown.mouseover" end="arrowDown.mouseout"/>
                  </use>
                  <path fill="none" stroke="white" stroke-width="1.5" d="M0,-3.0v7 M-2.5,-0.5L0,-3.0L2.5,-0.5"/>
                </g>
                <g id="arrowLeft" xlink:href="#dirArrow" transform="rotate(270) translate(-36 17)" onmousedown="handlePan(-1,0)">
                  <use xlink:href="#rim" fill="#404040">
                        <set attributeName="fill" to="#808080" begin="arrowLeft.mouseover" end="arrowLeft.mouseout"/>
                  </use>
                  <path fill="none" stroke="white" stroke-width="1.5" d="M0,-3.0v7 M-2.5,-0.5L0,-3.0L2.5,-0.5"/>
                </g>
        </g>
        <svg viewBox="0 0 15 15" width="100%" height="30px" preserveAspectRatio="xMaxYMin meet">
         <g id="arrow_out" transform="scale(0.3 0.3)">
          <a xlink:href="UVCStreamer_8h__incl_org.svg" target="_base">
           <rect id="button" ry="5" rx="5" y="6" x="6" height="38" width="38"
                fill="#f2f5e9" fill-opacity="0.5" stroke="#606060" stroke-width="1.0"/>
           <path id="arrow"
             d="M 11.500037,31.436501 C 11.940474,20.09759 22.043105,11.32322 32.158766,21.979434 L 37.068811,17.246167 C 37.068811,17.246167 37.088388,32 37.088388,32 L 22.160133,31.978069 C 22.160133,31.978069 26.997745,27.140456 26.997745,27.140456 C 18.528582,18.264221 13.291696,25.230495 11.500037,31.436501 z"
             style="fill:#404040;"/>
          </a>
         </g>
        </svg>
</svg>
