<?xml version="1.0" encoding="UTF-8" standalone="no"?>
<!DOCTYPE svg PUBLIC "-//W3C//DTD SVG 1.1//EN"
 "http://www.w3.org/Graphics/SVG/1.1/DTD/svg11.dtd">
<!-- Generated by graphviz version 2.36.0 (20140111.2315)
 -->
<!-- Title: VoxelXUProgrammer.h Pages: 1 -->
<svg width="961pt" height="84pt"
 viewBox="0.00 0.00 961.00 84.00" xmlns="http://www.w3.org/2000/svg" xmlns:xlink="http://www.w3.org/1999/xlink">
<g id="graph0" class="graph" transform="scale(1 1) rotate(0) translate(4 80)">
<title>VoxelXUProgrammer.h</title>
<!-- Node1 -->
<g id="node1" class="node"><title>Node1</title>
<polygon fill="#bfbfbf" stroke="black" points="427.5,-56.5 427.5,-75.5 544.5,-75.5 544.5,-56.5 427.5,-56.5"/>
<text text-anchor="middle" x="486" y="-63.5" font-family="Helvetica,sans-Serif" font-size="10.00">VoxelXUProgrammer.h</text>
</g>
<!-- Node2 -->
<g id="node2" class="node"><title>Node2</title>
<g id="a_node2"><a xlink:href="Voxel14RegisterTest_8cpp.xhtml" target="_top" xlink:title="Voxel14RegisterTest.cpp">
<polygon fill="none" stroke="black" points="-0.5,-0.5 -0.5,-19.5 126.5,-19.5 126.5,-0.5 -0.5,-0.5"/>
<text text-anchor="middle" x="63" y="-7.5" font-family="Helvetica,sans-Serif" font-size="10.00">Voxel14RegisterTest.cpp</text>
</a>
</g>
</g>
<!-- Node1&#45;&gt;Node2 -->
<g id="edge1" class="edge"><title>Node1&#45;&gt;Node2</title>
<path fill="none" stroke="midnightblue" d="M417.164,-56.2124C336.81,-45.9545 204.989,-29.1262 126.843,-19.1501"/>
<polygon fill="midnightblue" stroke="midnightblue" points="416.821,-59.697 427.184,-57.4915 417.707,-52.7533 416.821,-59.697"/>
</g>
<!-- Node3 -->
<g id="node3" class="node"><title>Node3</title>
<g id="a_node3"><a xlink:href="RTS5825Camera_8cpp.xhtml" target="_top" xlink:title="RTS5825Camera.cpp">
<polygon fill="none" stroke="black" points="144.5,-0.5 144.5,-19.5 255.5,-19.5 255.5,-0.5 144.5,-0.5"/>
<text text-anchor="middle" x="200" y="-7.5" font-family="Helvetica,sans-Serif" font-size="10.00">RTS5825Camera.cpp</text>
</a>
</g>
</g>
<!-- Node1&#45;&gt;Node3 -->
<g id="edge2" class="edge"><title>Node1&#45;&gt;Node3</title>
<path fill="none" stroke="midnightblue" d="M430.586,-54.5371C376.534,-44.3316 295.329,-28.9992 245.106,-19.5164"/>
<polygon fill="midnightblue" stroke="midnightblue" points="430.207,-58.0274 440.682,-56.4435 431.505,-51.1489 430.207,-58.0274"/>
</g>
<!-- Node4 -->
<g id="node4" class="node"><title>Node4</title>
<g id="a_node4"><a xlink:href="TintinCDKCamera_8cpp.xhtml" target="_top" xlink:title="TintinCDKCamera.cpp">
<polygon fill="none" stroke="black" points="274,-0.5 274,-19.5 390,-19.5 390,-0.5 274,-0.5"/>
<text text-anchor="middle" x="332" y="-7.5" font-family="Helvetica,sans-Serif" font-size="10.00">TintinCDKCamera.cpp</text>
</a>
</g>
</g>
<!-- Node1&#45;&gt;Node4 -->
<g id="edge3" class="edge"><title>Node1&#45;&gt;Node4</title>
<path fill="none" stroke="midnightblue" d="M451.889,-53.0392C422.913,-42.8786 382.038,-28.5457 356.288,-19.5164"/>
<polygon fill="midnightblue" stroke="midnightblue" points="451.003,-56.4373 461.598,-56.4435 453.32,-49.8317 451.003,-56.4373"/>
</g>
<!-- Node5 -->
<g id="node5" class="node"><title>Node5</title>
<g id="a_node5"><a xlink:href="TintinEEPROMDownloader_8cpp.xhtml" target="_top" xlink:title="TintinEEPROMDownloader.cpp">
<polygon fill="none" stroke="black" points="408.5,-0.5 408.5,-19.5 563.5,-19.5 563.5,-0.5 408.5,-0.5"/>
<text text-anchor="middle" x="486" y="-7.5" font-family="Helvetica,sans-Serif" font-size="10.00">TintinEEPROMDownloader.cpp</text>
</a>
</g>
</g>
<!-- Node1&#45;&gt;Node5 -->
<g id="edge4" class="edge"><title>Node1&#45;&gt;Node5</title>
<path fill="none" stroke="midnightblue" d="M486,-45.8045C486,-36.9102 486,-26.7798 486,-19.7511"/>
<polygon fill="midnightblue" stroke="midnightblue" points="482.5,-46.083 486,-56.083 489.5,-46.083 482.5,-46.083"/>
</g>
<!-- Node6 -->
<g id="node6" class="node"><title>Node6</title>
<g id="a_node6"><a xlink:href="Voxel14Camera_8cpp.xhtml" target="_top" xlink:title="Voxel14Camera.cpp">
<polygon fill="none" stroke="black" points="581.5,-0.5 581.5,-19.5 686.5,-19.5 686.5,-0.5 581.5,-0.5"/>
<text text-anchor="middle" x="634" y="-7.5" font-family="Helvetica,sans-Serif" font-size="10.00">Voxel14Camera.cpp</text>
</a>
</g>
</g>
<!-- Node1&#45;&gt;Node6 -->
<g id="edge5" class="edge"><title>Node1&#45;&gt;Node6</title>
<path fill="none" stroke="midnightblue" d="M519.147,-52.9058C546.972,-42.7536 586.02,-28.5063 610.659,-19.5164"/>
<polygon fill="midnightblue" stroke="midnightblue" points="517.646,-49.7279 509.451,-56.4435 520.045,-56.3038 517.646,-49.7279"/>
</g>
<!-- Node7 -->
<g id="node7" class="node"><title>Node7</title>
<g id="a_node7"><a xlink:href="VoxelDCamera_8cpp.xhtml" target="_top" xlink:title="VoxelDCamera.cpp">
<polygon fill="none" stroke="black" points="705,-0.5 705,-19.5 807,-19.5 807,-0.5 705,-0.5"/>
<text text-anchor="middle" x="756" y="-7.5" font-family="Helvetica,sans-Serif" font-size="10.00">VoxelDCamera.cpp</text>
</a>
</g>
</g>
<!-- Node1&#45;&gt;Node7 -->
<g id="edge6" class="edge"><title>Node1&#45;&gt;Node7</title>
<path fill="none" stroke="midnightblue" d="M538.633,-54.4734C589.661,-44.2678 666.103,-28.9794 713.418,-19.5164"/>
<polygon fill="midnightblue" stroke="midnightblue" points="537.902,-51.0503 528.782,-56.4435 539.275,-57.9143 537.902,-51.0503"/>
</g>
<!-- Node8 -->
<g id="node8" class="node"><title>Node8</title>
<g id="a_node8"><a xlink:href="VoxelXUProgrammer_8cpp.xhtml" target="_top" xlink:title="VoxelXUProgrammer.cpp">
<polygon fill="none" stroke="black" points="825,-0.5 825,-19.5 953,-19.5 953,-0.5 825,-0.5"/>
<text text-anchor="middle" x="889" y="-7.5" font-family="Helvetica,sans-Serif" font-size="10.00">VoxelXUProgrammer.cpp</text>
</a>
</g>
</g>
<!-- Node1&#45;&gt;Node8 -->
<g id="edge7" class="edge"><title>Node1&#45;&gt;Node8</title>
<path fill="none" stroke="midnightblue" d="M554.529,-55.8175C630.346,-45.6583 751.533,-29.4198 825.339,-19.5303"/>
<polygon fill="midnightblue" stroke="midnightblue" points="554.046,-52.3508 544.6,-57.1479 554.976,-59.2888 554.046,-52.3508"/>
</g>
</g>
</svg>
